<?xml version="1.0" encoding="UTF-8" standalone="no"?><svg xmlns="http://www.w3.org/2000/svg" xmlns:xlink="http://www.w3.org/1999/xlink" contentStyleType="text/css" height="867px" preserveAspectRatio="none" style="width:1746px;height:867px;background:#FFFFFF;" version="1.1" viewBox="0 0 1746 867" width="1746px" zoomAndPan="magnify"><defs/><g><!--MD5=[2b927b3a1f5e04350326ca5369519571]
cluster Primary:conceptElementUsed=Keyword--><g id="cluster_Primary:conceptElementUsed=Keyword"><path d="M695.5,213.5 L971.5,213.5 A3.75,3.75 0 0 1 974,216 L981,237.1094 L1736.5,237.1094 A2.5,2.5 0 0 1 1739,239.6094 L1739,346 A2.5,2.5 0 0 1 1736.5,348.5 L695.5,348.5 A2.5,2.5 0 0 1 693,346 L693,216 A2.5,2.5 0 0 1 695.5,213.5 " fill="none" style="stroke:#000000;stroke-width:1.5;"/><line style="stroke:#000000;stroke-width:1.5;" x1="693" x2="981" y1="237.1094" y2="237.1094"/><text fill="#000000" font-family="sans-serif" font-size="14" font-weight="bold" lengthAdjust="spacing" textLength="275" x="697" y="230.0332">Primary:conceptElementUsed=Keyword</text></g><!--MD5=[f524f4843046d594e03236310757e034]
cluster Bridge--><g id="cluster_Bridge"><path d="M493.5,6 L541.5,6 A3.75,3.75 0 0 1 544,8.5 L551,29.6094 L1041.5,29.6094 A2.5,2.5 0 0 1 1044,32.1094 L1044,173.5 A2.5,2.5 0 0 1 1041.5,176 L493.5,176 A2.5,2.5 0 0 1 491,173.5 L491,8.5 A2.5,2.5 0 0 1 493.5,6 " fill="none" style="stroke:#000000;stroke-width:1.5;"/><line style="stroke:#000000;stroke-width:1.5;" x1="491" x2="551" y1="29.6094" y2="29.6094"/><text fill="#000000" font-family="sans-serif" font-size="14" font-weight="bold" lengthAdjust="spacing" textLength="47" x="495" y="22.5332">Bridge</text></g><!--MD5=[a51a7e8bb9783b3a226fb2f8d75a473a]
class DefinitionStatement--><g id="elem_DefinitionStatement"><rect codeLine="21" fill="#F1F1F1" height="83.2188" id="DefinitionStatement" rx="2.5" ry="2.5" style="stroke:#181818;stroke-width:0.5;" width="248" x="709" y="249.5"/><ellipse cx="767.25" cy="265.5" fill="#ADD1B2" rx="11" ry="11" style="stroke:#181818;stroke-width:1.0;"/><path d="M770.0156,261.375 Q770.1719,261.1563 770.3594,261.0469 Q770.5469,260.9375 770.7656,260.9375 Q771.1406,260.9375 771.375,261.2031 Q771.6094,261.4531 771.6094,262.0625 L771.6094,263.5156 Q771.6094,264.125 771.375,264.3906 Q771.1406,264.6563 770.7656,264.6563 Q770.4219,264.6563 770.2188,264.4531 Q770.0156,264.2656 769.9063,263.75 Q769.8594,263.3906 769.6719,263.2031 Q769.3438,262.8281 768.7344,262.6094 Q768.125,262.3906 767.5,262.3906 Q766.7344,262.3906 766.0938,262.7188 Q765.4688,263.0469 764.9688,263.7969 Q764.4844,264.5469 764.4844,265.5781 L764.4844,266.6719 Q764.4844,267.9063 765.375,268.7344 Q766.2656,269.5469 767.8594,269.5469 Q768.7969,269.5469 769.4531,269.2969 Q769.8438,269.1406 770.2656,268.7031 Q770.5313,268.4375 770.6719,268.3594 Q770.8281,268.2813 771.0313,268.2813 Q771.3594,268.2813 771.6094,268.5469 Q771.875,268.7969 771.875,269.1406 Q771.875,269.4844 771.5313,269.8906 Q771.0313,270.4688 770.2344,270.7969 Q769.1563,271.25 767.8594,271.25 Q766.3438,271.25 765.1406,270.625 Q764.1563,270.125 763.4688,269.0625 Q762.7813,267.9844 762.7813,266.7031 L762.7813,265.5469 Q762.7813,264.2188 763.3906,263.0781 Q764.0156,261.9219 765.1094,261.3125 Q766.2031,260.6875 767.4375,260.6875 Q768.1719,260.6875 768.8125,260.8594 Q769.4688,261.0156 770.0156,261.375 Z " fill="#000000"/><text fill="#000000" font-family="sans-serif" font-size="14" lengthAdjust="spacing" textLength="123" x="787.75" y="271.2285">DefinitionStatement</text><line style="stroke:#181818;stroke-width:0.5;" x1="710" x2="956" y1="281.5" y2="281.5"/><rect fill="none" height="6" style="stroke:#C82930;stroke-width:1.0;" width="6" x="717" y="292.8047"/><text fill="#000000" font-family="sans-serif" font-size="14" lengthAdjust="spacing" textLength="222" x="729" y="300.0332">statement ="¿Qué es KEYWORD?"</text><rect fill="none" height="6" style="stroke:#C82930;stroke-width:1.0;" width="6" x="717" y="310.4141"/><text fill="#000000" font-family="sans-serif" font-size="14" lengthAdjust="spacing" textLength="218" x="729" y="317.6426">conceptElementTarget = Definition</text><line style="stroke:#181818;stroke-width:0.5;" x1="710" x2="956" y1="324.7188" y2="324.7188"/></g><!--MD5=[9185a2f7d84f0f934f7d1a57c235ac74]
class ClassificationStatement--><g id="elem_ClassificationStatement"><rect codeLine="26" fill="#F1F1F1" height="83.2188" id="ClassificationStatement" rx="2.5" ry="2.5" style="stroke:#181818;stroke-width:0.5;" width="297" x="992.5" y="249.5"/><ellipse cx="1063.25" cy="265.5" fill="#ADD1B2" rx="11" ry="11" style="stroke:#181818;stroke-width:1.0;"/><path d="M1066.0156,261.375 Q1066.1719,261.1563 1066.3594,261.0469 Q1066.5469,260.9375 1066.7656,260.9375 Q1067.1406,260.9375 1067.375,261.2031 Q1067.6094,261.4531 1067.6094,262.0625 L1067.6094,263.5156 Q1067.6094,264.125 1067.375,264.3906 Q1067.1406,264.6563 1066.7656,264.6563 Q1066.4219,264.6563 1066.2188,264.4531 Q1066.0156,264.2656 1065.9063,263.75 Q1065.8594,263.3906 1065.6719,263.2031 Q1065.3438,262.8281 1064.7344,262.6094 Q1064.125,262.3906 1063.5,262.3906 Q1062.7344,262.3906 1062.0938,262.7188 Q1061.4688,263.0469 1060.9688,263.7969 Q1060.4844,264.5469 1060.4844,265.5781 L1060.4844,266.6719 Q1060.4844,267.9063 1061.375,268.7344 Q1062.2656,269.5469 1063.8594,269.5469 Q1064.7969,269.5469 1065.4531,269.2969 Q1065.8438,269.1406 1066.2656,268.7031 Q1066.5313,268.4375 1066.6719,268.3594 Q1066.8281,268.2813 1067.0313,268.2813 Q1067.3594,268.2813 1067.6094,268.5469 Q1067.875,268.7969 1067.875,269.1406 Q1067.875,269.4844 1067.5313,269.8906 Q1067.0313,270.4688 1066.2344,270.7969 Q1065.1563,271.25 1063.8594,271.25 Q1062.3438,271.25 1061.1406,270.625 Q1060.1563,270.125 1059.4688,269.0625 Q1058.7813,267.9844 1058.7813,266.7031 L1058.7813,265.5469 Q1058.7813,264.2188 1059.3906,263.0781 Q1060.0156,261.9219 1061.1094,261.3125 Q1062.2031,260.6875 1063.4375,260.6875 Q1064.1719,260.6875 1064.8125,260.8594 Q1065.4688,261.0156 1066.0156,261.375 Z " fill="#000000"/><text fill="#000000" font-family="sans-serif" font-size="14" lengthAdjust="spacing" textLength="147" x="1083.75" y="271.2285">ClassificationStatement</text><line style="stroke:#181818;stroke-width:0.5;" x1="993.5" x2="1288.5" y1="281.5" y2="281.5"/><rect fill="none" height="6" style="stroke:#C82930;stroke-width:1.0;" width="6" x="1000.5" y="292.8047"/><text fill="#000000" font-family="sans-serif" font-size="14" lengthAdjust="spacing" textLength="271" x="1012.5" y="300.0332">statement = "Qué tipos hay de KEYWORD"</text><rect fill="none" height="6" style="stroke:#C82930;stroke-width:1.0;" width="6" x="1000.5" y="310.4141"/><text fill="#000000" font-family="sans-serif" font-size="14" lengthAdjust="spacing" textLength="242" x="1012.5" y="317.6426">conceptElementTarget = Classification</text><line style="stroke:#181818;stroke-width:0.5;" x1="993.5" x2="1288.5" y1="324.7188" y2="324.7188"/></g><!--MD5=[9cb1851a3c7d26c2f315fa580a6f39da]
class CompositionStatement--><g id="elem_CompositionStatement"><rect codeLine="31" fill="#F1F1F1" height="83.2188" id="CompositionStatement" rx="2.5" ry="2.5" style="stroke:#181818;stroke-width:0.5;" width="398" x="1325" y="249.5"/><ellipse cx="1448.75" cy="265.5" fill="#ADD1B2" rx="11" ry="11" style="stroke:#181818;stroke-width:1.0;"/><path d="M1451.5156,261.375 Q1451.6719,261.1563 1451.8594,261.0469 Q1452.0469,260.9375 1452.2656,260.9375 Q1452.6406,260.9375 1452.875,261.2031 Q1453.1094,261.4531 1453.1094,262.0625 L1453.1094,263.5156 Q1453.1094,264.125 1452.875,264.3906 Q1452.6406,264.6563 1452.2656,264.6563 Q1451.9219,264.6563 1451.7188,264.4531 Q1451.5156,264.2656 1451.4063,263.75 Q1451.3594,263.3906 1451.1719,263.2031 Q1450.8438,262.8281 1450.2344,262.6094 Q1449.625,262.3906 1449,262.3906 Q1448.2344,262.3906 1447.5938,262.7188 Q1446.9688,263.0469 1446.4688,263.7969 Q1445.9844,264.5469 1445.9844,265.5781 L1445.9844,266.6719 Q1445.9844,267.9063 1446.875,268.7344 Q1447.7656,269.5469 1449.3594,269.5469 Q1450.2969,269.5469 1450.9531,269.2969 Q1451.3438,269.1406 1451.7656,268.7031 Q1452.0313,268.4375 1452.1719,268.3594 Q1452.3281,268.2813 1452.5313,268.2813 Q1452.8594,268.2813 1453.1094,268.5469 Q1453.375,268.7969 1453.375,269.1406 Q1453.375,269.4844 1453.0313,269.8906 Q1452.5313,270.4688 1451.7344,270.7969 Q1450.6563,271.25 1449.3594,271.25 Q1447.8438,271.25 1446.6406,270.625 Q1445.6563,270.125 1444.9688,269.0625 Q1444.2813,267.9844 1444.2813,266.7031 L1444.2813,265.5469 Q1444.2813,264.2188 1444.8906,263.0781 Q1445.5156,261.9219 1446.6094,261.3125 Q1447.7031,260.6875 1448.9375,260.6875 Q1449.6719,260.6875 1450.3125,260.8594 Q1450.9688,261.0156 1451.5156,261.375 Z " fill="#000000"/><text fill="#000000" font-family="sans-serif" font-size="14" lengthAdjust="spacing" textLength="142" x="1469.25" y="271.2285">CompositionStatement</text><line style="stroke:#181818;stroke-width:0.5;" x1="1326" x2="1722" y1="281.5" y2="281.5"/><rect fill="none" height="6" style="stroke:#C82930;stroke-width:1.0;" width="6" x="1333" y="292.8047"/><text fill="#000000" font-family="sans-serif" font-size="14" lengthAdjust="spacing" textLength="372" x="1345" y="300.0332">statement ="¿Qué conceptos destacarias del KEYWORD?"</text><rect fill="none" height="6" style="stroke:#C82930;stroke-width:1.0;" width="6" x="1333" y="310.4141"/><text fill="#000000" font-family="sans-serif" font-size="14" lengthAdjust="spacing" textLength="237" x="1345" y="317.6426">conceptElementTarget = Composition</text><line style="stroke:#181818;stroke-width:0.5;" x1="1326" x2="1722" y1="324.7188" y2="324.7188"/></g><!--MD5=[fc7123defb831ecdd44b2d9bcef6cceb]
class Question--><g id="elem_Question"><rect codeLine="75" fill="#F1F1F1" height="118.4375" id="Question" rx="2.5" ry="2.5" style="stroke:#181818;stroke-width:0.5;" width="238" x="507" y="42"/><ellipse cx="593.25" cy="58" fill="#A9DCDF" rx="11" ry="11" style="stroke:#181818;stroke-width:1.0;"/><path d="M595.4375,59.7656 L591.2969,59.7656 L590.875,60.7969 L591.2969,60.7969 Q591.9063,60.7969 592.1719,61.0313 Q592.4375,61.2656 592.4375,61.6563 Q592.4375,62.0313 592.1719,62.2656 Q591.9063,62.5 591.2969,62.5 L589,62.5 Q588.3906,62.5 588.1406,62.2656 Q587.875,62.0313 587.875,61.6406 Q587.875,61.2656 588.1563,61.0313 Q588.4219,60.7813 589.0469,60.7969 L591.7188,54.1406 L590.6094,54.1406 Q590,54.1406 589.7344,53.9063 Q589.4688,53.6719 589.4688,53.2813 Q589.4688,52.9063 589.7344,52.6719 Q590,52.4375 590.6094,52.4375 L594.2813,52.4375 L597.6719,60.7969 Q598.2656,60.7969 598.4531,60.9375 Q598.8438,61.2031 598.8438,61.6563 Q598.8438,62.0313 598.5781,62.2656 Q598.3281,62.5 597.7188,62.5 L595.4219,62.5 Q594.8125,62.5 594.5469,62.2656 Q594.2813,62.0313 594.2813,61.6406 Q594.2813,61.2656 594.5469,61.0313 Q594.8125,60.7969 595.4219,60.7969 L595.8438,60.7969 L595.4375,59.7656 Z M594.7188,58.0625 L593.3594,54.6875 L591.9844,58.0625 L594.7188,58.0625 Z " fill="#000000"/><text fill="#000000" font-family="sans-serif" font-size="14" font-style="italic" lengthAdjust="spacing" textLength="57" x="613.75" y="63.7285">Question</text><line style="stroke:#181818;stroke-width:0.5;" x1="508" x2="744" y1="74" y2="74"/><rect fill="none" height="6" style="stroke:#C82930;stroke-width:1.0;" width="6" x="515" y="85.3047"/><text fill="#000000" font-family="sans-serif" font-size="14" lengthAdjust="spacing" textLength="139" x="527" y="92.5332">statementImplementor</text><rect fill="none" height="6" style="stroke:#C82930;stroke-width:1.0;" width="6" x="515" y="102.9141"/><text fill="#000000" font-family="sans-serif" font-size="14" lengthAdjust="spacing" textLength="64" x="527" y="110.1426">answers[ ]</text><line style="stroke:#181818;stroke-width:0.5;" x1="508" x2="744" y1="117.2188" y2="117.2188"/><polygon fill="#FFFF44" points="518,126.5234,522,130.5234,518,134.5234,514,130.5234" style="stroke:#B38D22;stroke-width:1.0;"/><text fill="#000000" font-family="sans-serif" font-size="14" lengthAdjust="spacing" textLength="200" x="527" y="135.752">void setStatementImplementor()</text><ellipse cx="518" cy="149.1328" fill="#84BE84" rx="3" ry="3" style="stroke:#038048;stroke-width:1.0;"/><text fill="#000000" font-family="sans-serif" font-size="14" lengthAdjust="spacing" textLength="212" x="527" y="153.3613">bool isAnsweredBy(studentName)</text></g><!--MD5=[c5a45057bd8260f278ba302c5f5fe264]
class StatementImplementor--><g id="elem_StatementImplementor"><rect codeLine="82" fill="#F1F1F1" height="118.4375" id="StatementImplementor" rx="2.5" ry="2.5" style="stroke:#181818;stroke-width:0.5;" width="247" x="780.5" y="42"/><ellipse cx="829.25" cy="58" fill="#ADD1B2" rx="11" ry="11" style="stroke:#181818;stroke-width:1.0;"/><path d="M832.0156,53.875 Q832.1719,53.6563 832.3594,53.5469 Q832.5469,53.4375 832.7656,53.4375 Q833.1406,53.4375 833.375,53.7031 Q833.6094,53.9531 833.6094,54.5625 L833.6094,56.0156 Q833.6094,56.625 833.375,56.8906 Q833.1406,57.1563 832.7656,57.1563 Q832.4219,57.1563 832.2188,56.9531 Q832.0156,56.7656 831.9063,56.25 Q831.8594,55.8906 831.6719,55.7031 Q831.3438,55.3281 830.7344,55.1094 Q830.125,54.8906 829.5,54.8906 Q828.7344,54.8906 828.0938,55.2188 Q827.4688,55.5469 826.9688,56.2969 Q826.4844,57.0469 826.4844,58.0781 L826.4844,59.1719 Q826.4844,60.4063 827.375,61.2344 Q828.2656,62.0469 829.8594,62.0469 Q830.7969,62.0469 831.4531,61.7969 Q831.8438,61.6406 832.2656,61.2031 Q832.5313,60.9375 832.6719,60.8594 Q832.8281,60.7813 833.0313,60.7813 Q833.3594,60.7813 833.6094,61.0469 Q833.875,61.2969 833.875,61.6406 Q833.875,61.9844 833.5313,62.3906 Q833.0313,62.9688 832.2344,63.2969 Q831.1563,63.75 829.8594,63.75 Q828.3438,63.75 827.1406,63.125 Q826.1563,62.625 825.4688,61.5625 Q824.7813,60.4844 824.7813,59.2031 L824.7813,58.0469 Q824.7813,56.7188 825.3906,55.5781 Q826.0156,54.4219 827.1094,53.8125 Q828.2031,53.1875 829.4375,53.1875 Q830.1719,53.1875 830.8125,53.3594 Q831.4688,53.5156 832.0156,53.875 Z " fill="#000000"/><text fill="#000000" font-family="sans-serif" font-size="14" lengthAdjust="spacing" textLength="141" x="849.75" y="63.7285">StatementImplementor</text><line style="stroke:#181818;stroke-width:0.5;" x1="781.5" x2="1026.5" y1="74" y2="74"/><rect fill="none" height="6" style="stroke:#C82930;stroke-width:1.0;" width="6" x="788.5" y="85.3047"/><text fill="#000000" font-family="sans-serif" font-size="14" lengthAdjust="spacing" textLength="50" x="800.5" y="92.5332">concept</text><rect fill="none" height="6" style="stroke:#C82930;stroke-width:1.0;" width="6" x="788.5" y="102.9141"/><text fill="#000000" font-family="sans-serif" font-size="14" lengthAdjust="spacing" textLength="133" x="800.5" y="110.1426">conceptElementUsed</text><rect fill="none" height="6" style="stroke:#C82930;stroke-width:1.0;" width="6" x="788.5" y="120.5234"/><text fill="#000000" font-family="sans-serif" font-size="14" lengthAdjust="spacing" textLength="143" x="800.5" y="127.752">conceptElementTarget</text><line style="stroke:#181818;stroke-width:0.5;" x1="781.5" x2="1026.5" y1="134.8281" y2="134.8281"/><ellipse cx="791.5" cy="149.1328" fill="#84BE84" rx="3" ry="3" style="stroke:#038048;stroke-width:1.0;"/><text fill="#000000" font-family="sans-serif" font-size="14" lengthAdjust="spacing" textLength="221" x="800.5" y="153.3613">setOptions(conceptElementTarget)</text></g><!--MD5=[9d451b2f92d848a8e2d1a4dab2b1c6bf]
class Concept--><g id="elem_Concept"><rect codeLine="2" fill="#F1F1F1" height="118.4375" id="Concept" rx="2.5" ry="2.5" style="stroke:#181818;stroke-width:0.5;" width="102" x="799" y="420"/><ellipse cx="821.65" cy="436" fill="#ADD1B2" rx="11" ry="11" style="stroke:#181818;stroke-width:1.0;"/><path d="M824.4156,431.875 Q824.5719,431.6563 824.7594,431.5469 Q824.9469,431.4375 825.1656,431.4375 Q825.5406,431.4375 825.775,431.7031 Q826.0094,431.9531 826.0094,432.5625 L826.0094,434.0156 Q826.0094,434.625 825.775,434.8906 Q825.5406,435.1563 825.1656,435.1563 Q824.8219,435.1563 824.6188,434.9531 Q824.4156,434.7656 824.3063,434.25 Q824.2594,433.8906 824.0719,433.7031 Q823.7438,433.3281 823.1344,433.1094 Q822.525,432.8906 821.9,432.8906 Q821.1344,432.8906 820.4938,433.2188 Q819.8688,433.5469 819.3688,434.2969 Q818.8844,435.0469 818.8844,436.0781 L818.8844,437.1719 Q818.8844,438.4063 819.775,439.2344 Q820.6656,440.0469 822.2594,440.0469 Q823.1969,440.0469 823.8531,439.7969 Q824.2438,439.6406 824.6656,439.2031 Q824.9313,438.9375 825.0719,438.8594 Q825.2281,438.7813 825.4313,438.7813 Q825.7594,438.7813 826.0094,439.0469 Q826.275,439.2969 826.275,439.6406 Q826.275,439.9844 825.9313,440.3906 Q825.4313,440.9688 824.6344,441.2969 Q823.5563,441.75 822.2594,441.75 Q820.7438,441.75 819.5406,441.125 Q818.5563,440.625 817.8688,439.5625 Q817.1813,438.4844 817.1813,437.2031 L817.1813,436.0469 Q817.1813,434.7188 817.7906,433.5781 Q818.4156,432.4219 819.5094,431.8125 Q820.6031,431.1875 821.8375,431.1875 Q822.5719,431.1875 823.2125,431.3594 Q823.8688,431.5156 824.4156,431.875 Z " fill="#000000"/><text fill="#000000" font-family="sans-serif" font-size="14" lengthAdjust="spacing" textLength="53" x="837.35" y="441.7285">Concept</text><line style="stroke:#181818;stroke-width:0.5;" x1="800" x2="900" y1="452" y2="452"/><rect fill="none" height="6" style="stroke:#C82930;stroke-width:1.0;" width="6" x="807" y="463.3047"/><text fill="#000000" font-family="sans-serif" font-size="14" lengthAdjust="spacing" textLength="52" x="819" y="470.5332">keyword</text><rect fill="none" height="6" style="stroke:#C82930;stroke-width:1.0;" width="6" x="807" y="480.9141"/><text fill="#000000" font-family="sans-serif" font-size="14" lengthAdjust="spacing" textLength="76" x="819" y="488.1426">definitions[ ]</text><rect fill="none" height="6" style="stroke:#C82930;stroke-width:1.0;" width="6" x="807" y="498.5234"/><text fill="#000000" font-family="sans-serif" font-size="14" lengthAdjust="spacing" textLength="66" x="819" y="505.752">relations[ ]</text><rect fill="none" height="6" style="stroke:#C82930;stroke-width:1.0;" width="6" x="807" y="516.1328"/><text fill="#000000" font-family="sans-serif" font-size="14" lengthAdjust="spacing" textLength="73" x="819" y="523.3613">questions[ ]</text><line style="stroke:#181818;stroke-width:0.5;" x1="800" x2="900" y1="530.4375" y2="530.4375"/></g><!--MD5=[af22135d5be6ed11ccd2d02fa51653b3]
class Definition--><g id="elem_Definition"><rect codeLine="9" fill="#F1F1F1" height="83.2188" id="Definition" rx="2.5" ry="2.5" style="stroke:#181818;stroke-width:0.5;" width="91" x="435.5" y="777"/><ellipse cx="450.5" cy="793" fill="#ADD1B2" rx="11" ry="11" style="stroke:#181818;stroke-width:1.0;"/><path d="M453.2656,788.875 Q453.4219,788.6563 453.6094,788.5469 Q453.7969,788.4375 454.0156,788.4375 Q454.3906,788.4375 454.625,788.7031 Q454.8594,788.9531 454.8594,789.5625 L454.8594,791.0156 Q454.8594,791.625 454.625,791.8906 Q454.3906,792.1563 454.0156,792.1563 Q453.6719,792.1563 453.4688,791.9531 Q453.2656,791.7656 453.1563,791.25 Q453.1094,790.8906 452.9219,790.7031 Q452.5938,790.3281 451.9844,790.1094 Q451.375,789.8906 450.75,789.8906 Q449.9844,789.8906 449.3438,790.2188 Q448.7188,790.5469 448.2188,791.2969 Q447.7344,792.0469 447.7344,793.0781 L447.7344,794.1719 Q447.7344,795.4063 448.625,796.2344 Q449.5156,797.0469 451.1094,797.0469 Q452.0469,797.0469 452.7031,796.7969 Q453.0938,796.6406 453.5156,796.2031 Q453.7813,795.9375 453.9219,795.8594 Q454.0781,795.7813 454.2813,795.7813 Q454.6094,795.7813 454.8594,796.0469 Q455.125,796.2969 455.125,796.6406 Q455.125,796.9844 454.7813,797.3906 Q454.2813,797.9688 453.4844,798.2969 Q452.4063,798.75 451.1094,798.75 Q449.5938,798.75 448.3906,798.125 Q447.4063,797.625 446.7188,796.5625 Q446.0313,795.4844 446.0313,794.2031 L446.0313,793.0469 Q446.0313,791.7188 446.6406,790.5781 Q447.2656,789.4219 448.3594,788.8125 Q449.4531,788.1875 450.6875,788.1875 Q451.4219,788.1875 452.0625,788.3594 Q452.7188,788.5156 453.2656,788.875 Z " fill="#000000"/><text fill="#000000" font-family="sans-serif" font-size="14" lengthAdjust="spacing" textLength="59" x="464.5" y="798.7285">Definition</text><line style="stroke:#181818;stroke-width:0.5;" x1="436.5" x2="525.5" y1="809" y2="809"/><rect fill="none" height="6" style="stroke:#C82930;stroke-width:1.0;" width="6" x="443.5" y="820.3047"/><text fill="#000000" font-family="sans-serif" font-size="14" lengthAdjust="spacing" textLength="47" x="455.5" y="827.5332">content</text><rect fill="none" height="6" style="stroke:#C82930;stroke-width:1.0;" width="6" x="443.5" y="837.9141"/><text fill="#000000" font-family="sans-serif" font-size="14" lengthAdjust="spacing" textLength="42" x="455.5" y="845.1426">isFake</text><line style="stroke:#181818;stroke-width:0.5;" x1="436.5" x2="525.5" y1="852.2188" y2="852.2188"/></g><!--MD5=[534474e9f05b14d7c70186ae077f30e0]
class Relation--><g id="elem_Relation"><rect codeLine="14" fill="#F1F1F1" height="48" id="Relation" rx="2.5" ry="2.5" style="stroke:#181818;stroke-width:0.5;" width="84" x="819" y="633.5"/><ellipse cx="834" cy="649.5" fill="#ADD1B2" rx="11" ry="11" style="stroke:#181818;stroke-width:1.0;"/><path d="M836.7656,645.375 Q836.9219,645.1563 837.1094,645.0469 Q837.2969,644.9375 837.5156,644.9375 Q837.8906,644.9375 838.125,645.2031 Q838.3594,645.4531 838.3594,646.0625 L838.3594,647.5156 Q838.3594,648.125 838.125,648.3906 Q837.8906,648.6563 837.5156,648.6563 Q837.1719,648.6563 836.9688,648.4531 Q836.7656,648.2656 836.6563,647.75 Q836.6094,647.3906 836.4219,647.2031 Q836.0938,646.8281 835.4844,646.6094 Q834.875,646.3906 834.25,646.3906 Q833.4844,646.3906 832.8438,646.7188 Q832.2188,647.0469 831.7188,647.7969 Q831.2344,648.5469 831.2344,649.5781 L831.2344,650.6719 Q831.2344,651.9063 832.125,652.7344 Q833.0156,653.5469 834.6094,653.5469 Q835.5469,653.5469 836.2031,653.2969 Q836.5938,653.1406 837.0156,652.7031 Q837.2813,652.4375 837.4219,652.3594 Q837.5781,652.2813 837.7813,652.2813 Q838.1094,652.2813 838.3594,652.5469 Q838.625,652.7969 838.625,653.1406 Q838.625,653.4844 838.2813,653.8906 Q837.7813,654.4688 836.9844,654.7969 Q835.9063,655.25 834.6094,655.25 Q833.0938,655.25 831.8906,654.625 Q830.9063,654.125 830.2188,653.0625 Q829.5313,651.9844 829.5313,650.7031 L829.5313,649.5469 Q829.5313,648.2188 830.1406,647.0781 Q830.7656,645.9219 831.8594,645.3125 Q832.9531,644.6875 834.1875,644.6875 Q834.9219,644.6875 835.5625,644.8594 Q836.2188,645.0156 836.7656,645.375 Z " fill="#000000"/><text fill="#000000" font-family="sans-serif" font-size="14" lengthAdjust="spacing" textLength="52" x="848" y="655.2285">Relation</text><line style="stroke:#181818;stroke-width:0.5;" x1="820" x2="902" y1="665.5" y2="665.5"/><line style="stroke:#181818;stroke-width:0.5;" x1="820" x2="902" y1="673.5" y2="673.5"/></g><!--MD5=[9c239722e256878d27dcbb07783cc14f]
class Classification--><g id="elem_Classification"><rect codeLine="16" fill="#F1F1F1" height="48" id="Classification" rx="2.5" ry="2.5" style="stroke:#181818;stroke-width:0.5;" width="115" x="924.5" y="794.5"/><ellipse cx="939.5" cy="810.5" fill="#ADD1B2" rx="11" ry="11" style="stroke:#181818;stroke-width:1.0;"/><path d="M942.2656,806.375 Q942.4219,806.1563 942.6094,806.0469 Q942.7969,805.9375 943.0156,805.9375 Q943.3906,805.9375 943.625,806.2031 Q943.8594,806.4531 943.8594,807.0625 L943.8594,808.5156 Q943.8594,809.125 943.625,809.3906 Q943.3906,809.6563 943.0156,809.6563 Q942.6719,809.6563 942.4688,809.4531 Q942.2656,809.2656 942.1563,808.75 Q942.1094,808.3906 941.9219,808.2031 Q941.5938,807.8281 940.9844,807.6094 Q940.375,807.3906 939.75,807.3906 Q938.9844,807.3906 938.3438,807.7188 Q937.7188,808.0469 937.2188,808.7969 Q936.7344,809.5469 936.7344,810.5781 L936.7344,811.6719 Q936.7344,812.9063 937.625,813.7344 Q938.5156,814.5469 940.1094,814.5469 Q941.0469,814.5469 941.7031,814.2969 Q942.0938,814.1406 942.5156,813.7031 Q942.7813,813.4375 942.9219,813.3594 Q943.0781,813.2813 943.2813,813.2813 Q943.6094,813.2813 943.8594,813.5469 Q944.125,813.7969 944.125,814.1406 Q944.125,814.4844 943.7813,814.8906 Q943.2813,815.4688 942.4844,815.7969 Q941.4063,816.25 940.1094,816.25 Q938.5938,816.25 937.3906,815.625 Q936.4063,815.125 935.7188,814.0625 Q935.0313,812.9844 935.0313,811.7031 L935.0313,810.5469 Q935.0313,809.2188 935.6406,808.0781 Q936.2656,806.9219 937.3594,806.3125 Q938.4531,805.6875 939.6875,805.6875 Q940.4219,805.6875 941.0625,805.8594 Q941.7188,806.0156 942.2656,806.375 Z " fill="#000000"/><text fill="#000000" font-family="sans-serif" font-size="14" lengthAdjust="spacing" textLength="83" x="953.5" y="816.2285">Classification</text><line style="stroke:#181818;stroke-width:0.5;" x1="925.5" x2="1038.5" y1="826.5" y2="826.5"/><line style="stroke:#181818;stroke-width:0.5;" x1="925.5" x2="1038.5" y1="834.5" y2="834.5"/></g><!--MD5=[251454e98c15f29849fb35b1904d0020]
class Composition--><g id="elem_Composition"><rect codeLine="18" fill="#F1F1F1" height="48" id="Composition" rx="2.5" ry="2.5" style="stroke:#181818;stroke-width:0.5;" width="110" x="779" y="794.5"/><ellipse cx="794" cy="810.5" fill="#ADD1B2" rx="11" ry="11" style="stroke:#181818;stroke-width:1.0;"/><path d="M796.7656,806.375 Q796.9219,806.1563 797.1094,806.0469 Q797.2969,805.9375 797.5156,805.9375 Q797.8906,805.9375 798.125,806.2031 Q798.3594,806.4531 798.3594,807.0625 L798.3594,808.5156 Q798.3594,809.125 798.125,809.3906 Q797.8906,809.6563 797.5156,809.6563 Q797.1719,809.6563 796.9688,809.4531 Q796.7656,809.2656 796.6563,808.75 Q796.6094,808.3906 796.4219,808.2031 Q796.0938,807.8281 795.4844,807.6094 Q794.875,807.3906 794.25,807.3906 Q793.4844,807.3906 792.8438,807.7188 Q792.2188,808.0469 791.7188,808.7969 Q791.2344,809.5469 791.2344,810.5781 L791.2344,811.6719 Q791.2344,812.9063 792.125,813.7344 Q793.0156,814.5469 794.6094,814.5469 Q795.5469,814.5469 796.2031,814.2969 Q796.5938,814.1406 797.0156,813.7031 Q797.2813,813.4375 797.4219,813.3594 Q797.5781,813.2813 797.7813,813.2813 Q798.1094,813.2813 798.3594,813.5469 Q798.625,813.7969 798.625,814.1406 Q798.625,814.4844 798.2813,814.8906 Q797.7813,815.4688 796.9844,815.7969 Q795.9063,816.25 794.6094,816.25 Q793.0938,816.25 791.8906,815.625 Q790.9063,815.125 790.2188,814.0625 Q789.5313,812.9844 789.5313,811.7031 L789.5313,810.5469 Q789.5313,809.2188 790.1406,808.0781 Q790.7656,806.9219 791.8594,806.3125 Q792.9531,805.6875 794.1875,805.6875 Q794.9219,805.6875 795.5625,805.8594 Q796.2188,806.0156 796.7656,806.375 Z " fill="#000000"/><text fill="#000000" font-family="sans-serif" font-size="14" lengthAdjust="spacing" textLength="78" x="808" y="816.2285">Composition</text><line style="stroke:#181818;stroke-width:0.5;" x1="780" x2="888" y1="826.5" y2="826.5"/><line style="stroke:#181818;stroke-width:0.5;" x1="780" x2="888" y1="834.5" y2="834.5"/></g><!--MD5=[c5be3d7e9ffcf6502258095b57411394]
class OpenQuestion--><g id="elem_OpenQuestion"><rect codeLine="37" fill="#F1F1F1" height="65.6094" id="OpenQuestion" rx="2.5" ry="2.5" style="stroke:#181818;stroke-width:0.5;" width="164" x="7" y="258"/><ellipse cx="40" cy="274" fill="#A9DCDF" rx="11" ry="11" style="stroke:#181818;stroke-width:1.0;"/><path d="M42.1875,275.7656 L38.0469,275.7656 L37.625,276.7969 L38.0469,276.7969 Q38.6563,276.7969 38.9219,277.0313 Q39.1875,277.2656 39.1875,277.6563 Q39.1875,278.0313 38.9219,278.2656 Q38.6563,278.5 38.0469,278.5 L35.75,278.5 Q35.1406,278.5 34.8906,278.2656 Q34.625,278.0313 34.625,277.6406 Q34.625,277.2656 34.9063,277.0313 Q35.1719,276.7813 35.7969,276.7969 L38.4688,270.1406 L37.3594,270.1406 Q36.75,270.1406 36.4844,269.9063 Q36.2188,269.6719 36.2188,269.2813 Q36.2188,268.9063 36.4844,268.6719 Q36.75,268.4375 37.3594,268.4375 L41.0313,268.4375 L44.4219,276.7969 Q45.0156,276.7969 45.2031,276.9375 Q45.5938,277.2031 45.5938,277.6563 Q45.5938,278.0313 45.3281,278.2656 Q45.0781,278.5 44.4688,278.5 L42.1719,278.5 Q41.5625,278.5 41.2969,278.2656 Q41.0313,278.0313 41.0313,277.6406 Q41.0313,277.2656 41.2969,277.0313 Q41.5625,276.7969 42.1719,276.7969 L42.5938,276.7969 L42.1875,275.7656 Z M41.4688,274.0625 L40.1094,270.6875 L38.7344,274.0625 L41.4688,274.0625 Z " fill="#000000"/><text fill="#000000" font-family="sans-serif" font-size="14" font-style="italic" lengthAdjust="spacing" textLength="92" x="58" y="279.7285">OpenQuestion</text><line style="stroke:#181818;stroke-width:0.5;" x1="8" x2="170" y1="290" y2="290"/><rect fill="none" height="6" style="stroke:#C82930;stroke-width:1.0;" width="6" x="15" y="301.3047"/><text fill="#000000" font-family="sans-serif" font-size="14" lengthAdjust="spacing" textLength="138" x="27" y="308.5332">answers[openAnswer]</text><line style="stroke:#181818;stroke-width:0.5;" x1="8" x2="170" y1="315.6094" y2="315.6094"/></g><!--MD5=[54a8e627be4ee6aab370a2a8960cc8d7]
class OpenAnswer--><g id="elem_OpenAnswer"><rect codeLine="41" fill="#F1F1F1" height="100.8281" id="OpenAnswer" rx="2.5" ry="2.5" style="stroke:#181818;stroke-width:0.5;" width="145" x="47.5" y="428.5"/><ellipse cx="76.9" cy="444.5" fill="#ADD1B2" rx="11" ry="11" style="stroke:#181818;stroke-width:1.0;"/><path d="M79.6656,440.375 Q79.8219,440.1563 80.0094,440.0469 Q80.1969,439.9375 80.4156,439.9375 Q80.7906,439.9375 81.025,440.2031 Q81.2594,440.4531 81.2594,441.0625 L81.2594,442.5156 Q81.2594,443.125 81.025,443.3906 Q80.7906,443.6563 80.4156,443.6563 Q80.0719,443.6563 79.8688,443.4531 Q79.6656,443.2656 79.5563,442.75 Q79.5094,442.3906 79.3219,442.2031 Q78.9938,441.8281 78.3844,441.6094 Q77.775,441.3906 77.15,441.3906 Q76.3844,441.3906 75.7438,441.7188 Q75.1188,442.0469 74.6188,442.7969 Q74.1344,443.5469 74.1344,444.5781 L74.1344,445.6719 Q74.1344,446.9063 75.025,447.7344 Q75.9156,448.5469 77.5094,448.5469 Q78.4469,448.5469 79.1031,448.2969 Q79.4938,448.1406 79.9156,447.7031 Q80.1813,447.4375 80.3219,447.3594 Q80.4781,447.2813 80.6813,447.2813 Q81.0094,447.2813 81.2594,447.5469 Q81.525,447.7969 81.525,448.1406 Q81.525,448.4844 81.1813,448.8906 Q80.6813,449.4688 79.8844,449.7969 Q78.8063,450.25 77.5094,450.25 Q75.9938,450.25 74.7906,449.625 Q73.8063,449.125 73.1188,448.0625 Q72.4313,446.9844 72.4313,445.7031 L72.4313,444.5469 Q72.4313,443.2188 73.0406,442.0781 Q73.6656,440.9219 74.7594,440.3125 Q75.8531,439.6875 77.0875,439.6875 Q77.8219,439.6875 78.4625,439.8594 Q79.1188,440.0156 79.6656,440.375 Z " fill="#000000"/><text fill="#000000" font-family="sans-serif" font-size="14" lengthAdjust="spacing" textLength="81" x="94.1" y="450.2285">OpenAnswer</text><line style="stroke:#181818;stroke-width:0.5;" x1="48.5" x2="191.5" y1="460.5" y2="460.5"/><rect fill="none" height="6" style="stroke:#C82930;stroke-width:1.0;" width="6" x="55.5" y="471.8047"/><text fill="#000000" font-family="sans-serif" font-size="14" lengthAdjust="spacing" textLength="47" x="67.5" y="479.0332">content</text><rect fill="none" height="6" style="stroke:#C82930;stroke-width:1.0;" width="6" x="55.5" y="489.4141"/><text fill="#000000" font-family="sans-serif" font-size="14" lengthAdjust="spacing" textLength="119" x="67.5" y="496.6426">isUsefulToConcept</text><rect fill="none" height="6" style="stroke:#C82930;stroke-width:1.0;" width="6" x="55.5" y="507.0234"/><text fill="#000000" font-family="sans-serif" font-size="14" lengthAdjust="spacing" textLength="89" x="67.5" y="514.252">isEvaluatedBy</text><line style="stroke:#181818;stroke-width:0.5;" x1="48.5" x2="191.5" y1="521.3281" y2="521.3281"/></g><!--MD5=[14dcd1c6f0ba10ad7a0e543e42252a17]
class Solution--><g id="elem_Solution"><rect codeLine="47" fill="#F1F1F1" height="83.2188" id="Solution" rx="2.5" ry="2.5" style="stroke:#181818;stroke-width:0.5;" width="83" x="105.5" y="616"/><ellipse cx="120.5" cy="632" fill="#ADD1B2" rx="11" ry="11" style="stroke:#181818;stroke-width:1.0;"/><path d="M123.2656,627.875 Q123.4219,627.6563 123.6094,627.5469 Q123.7969,627.4375 124.0156,627.4375 Q124.3906,627.4375 124.625,627.7031 Q124.8594,627.9531 124.8594,628.5625 L124.8594,630.0156 Q124.8594,630.625 124.625,630.8906 Q124.3906,631.1563 124.0156,631.1563 Q123.6719,631.1563 123.4688,630.9531 Q123.2656,630.7656 123.1563,630.25 Q123.1094,629.8906 122.9219,629.7031 Q122.5938,629.3281 121.9844,629.1094 Q121.375,628.8906 120.75,628.8906 Q119.9844,628.8906 119.3438,629.2188 Q118.7188,629.5469 118.2188,630.2969 Q117.7344,631.0469 117.7344,632.0781 L117.7344,633.1719 Q117.7344,634.4063 118.625,635.2344 Q119.5156,636.0469 121.1094,636.0469 Q122.0469,636.0469 122.7031,635.7969 Q123.0938,635.6406 123.5156,635.2031 Q123.7813,634.9375 123.9219,634.8594 Q124.0781,634.7813 124.2813,634.7813 Q124.6094,634.7813 124.8594,635.0469 Q125.125,635.2969 125.125,635.6406 Q125.125,635.9844 124.7813,636.3906 Q124.2813,636.9688 123.4844,637.2969 Q122.4063,637.75 121.1094,637.75 Q119.5938,637.75 118.3906,637.125 Q117.4063,636.625 116.7188,635.5625 Q116.0313,634.4844 116.0313,633.2031 L116.0313,632.0469 Q116.0313,630.7188 116.6406,629.5781 Q117.2656,628.4219 118.3594,627.8125 Q119.4531,627.1875 120.6875,627.1875 Q121.4219,627.1875 122.0625,627.3594 Q122.7188,627.5156 123.2656,627.875 Z " fill="#000000"/><text fill="#000000" font-family="sans-serif" font-size="14" lengthAdjust="spacing" textLength="51" x="134.5" y="637.7285">Solution</text><line style="stroke:#181818;stroke-width:0.5;" x1="106.5" x2="187.5" y1="648" y2="648"/><rect fill="none" height="6" style="stroke:#C82930;stroke-width:1.0;" width="6" x="113.5" y="659.3047"/><text fill="#000000" font-family="sans-serif" font-size="14" lengthAdjust="spacing" textLength="47" x="125.5" y="666.5332">content</text><rect fill="none" height="6" style="stroke:#C82930;stroke-width:1.0;" width="6" x="113.5" y="676.9141"/><text fill="#000000" font-family="sans-serif" font-size="14" lengthAdjust="spacing" textLength="28" x="125.5" y="684.1426">isOk</text><line style="stroke:#181818;stroke-width:0.5;" x1="106.5" x2="187.5" y1="691.2188" y2="691.2188"/></g><!--MD5=[46bd26b9d192b770379839f45ce3e013]
class MultipleChoiceQuestion--><g id="elem_MultipleChoiceQuestion"><rect codeLine="51" fill="#F1F1F1" height="100.8281" id="MultipleChoiceQuestion" rx="2.5" ry="2.5" style="stroke:#181818;stroke-width:0.5;" width="243" x="359.5" y="240.5"/><ellipse cx="401.95" cy="256.5" fill="#A9DCDF" rx="11" ry="11" style="stroke:#181818;stroke-width:1.0;"/><path d="M404.1375,258.2656 L399.9969,258.2656 L399.575,259.2969 L399.9969,259.2969 Q400.6063,259.2969 400.8719,259.5313 Q401.1375,259.7656 401.1375,260.1563 Q401.1375,260.5313 400.8719,260.7656 Q400.6063,261 399.9969,261 L397.7,261 Q397.0906,261 396.8406,260.7656 Q396.575,260.5313 396.575,260.1406 Q396.575,259.7656 396.8563,259.5313 Q397.1219,259.2813 397.7469,259.2969 L400.4188,252.6406 L399.3094,252.6406 Q398.7,252.6406 398.4344,252.4063 Q398.1688,252.1719 398.1688,251.7813 Q398.1688,251.4063 398.4344,251.1719 Q398.7,250.9375 399.3094,250.9375 L402.9813,250.9375 L406.3719,259.2969 Q406.9656,259.2969 407.1531,259.4375 Q407.5438,259.7031 407.5438,260.1563 Q407.5438,260.5313 407.2781,260.7656 Q407.0281,261 406.4188,261 L404.1219,261 Q403.5125,261 403.2469,260.7656 Q402.9813,260.5313 402.9813,260.1406 Q402.9813,259.7656 403.2469,259.5313 Q403.5125,259.2969 404.1219,259.2969 L404.5438,259.2969 L404.1375,258.2656 Z M403.4188,256.5625 L402.0594,253.1875 L400.6844,256.5625 L403.4188,256.5625 Z " fill="#000000"/><text fill="#000000" font-family="sans-serif" font-size="14" font-style="italic" lengthAdjust="spacing" textLength="150" x="422.05" y="262.2285">MultipleChoiceQuestion</text><line style="stroke:#181818;stroke-width:0.5;" x1="360.5" x2="601.5" y1="272.5" y2="272.5"/><rect fill="none" height="6" style="stroke:#C82930;stroke-width:1.0;" width="6" x="367.5" y="283.8047"/><text fill="#000000" font-family="sans-serif" font-size="14" lengthAdjust="spacing" textLength="46" x="379.5" y="291.0332">options</text><rect fill="none" height="6" style="stroke:#C82930;stroke-width:1.0;" width="6" x="367.5" y="301.4141"/><text fill="#000000" font-family="sans-serif" font-size="14" lengthAdjust="spacing" textLength="155" x="379.5" y="308.6426">answers[selectedOption]</text><line style="stroke:#181818;stroke-width:0.5;" x1="360.5" x2="601.5" y1="315.7188" y2="315.7188"/><ellipse cx="370.5" cy="330.0234" fill="#84BE84" rx="3" ry="3" style="stroke:#038048;stroke-width:1.0;"/><text fill="#000000" font-family="sans-serif" font-size="14" lengthAdjust="spacing" textLength="217" x="379.5" y="334.252">setOptions(statementImplementor)</text></g><!--MD5=[b07065dfc0d0e09965ec10bfc328bb3e]
class Option--><g id="elem_Option"><rect codeLine="57" fill="#F1F1F1" height="83.2188" id="Option" rx="2.5" ry="2.5" style="stroke:#181818;stroke-width:0.5;" width="74" x="444" y="437.5"/><ellipse cx="459" cy="453.5" fill="#ADD1B2" rx="11" ry="11" style="stroke:#181818;stroke-width:1.0;"/><path d="M461.7656,449.375 Q461.9219,449.1563 462.1094,449.0469 Q462.2969,448.9375 462.5156,448.9375 Q462.8906,448.9375 463.125,449.2031 Q463.3594,449.4531 463.3594,450.0625 L463.3594,451.5156 Q463.3594,452.125 463.125,452.3906 Q462.8906,452.6563 462.5156,452.6563 Q462.1719,452.6563 461.9688,452.4531 Q461.7656,452.2656 461.6563,451.75 Q461.6094,451.3906 461.4219,451.2031 Q461.0938,450.8281 460.4844,450.6094 Q459.875,450.3906 459.25,450.3906 Q458.4844,450.3906 457.8438,450.7188 Q457.2188,451.0469 456.7188,451.7969 Q456.2344,452.5469 456.2344,453.5781 L456.2344,454.6719 Q456.2344,455.9063 457.125,456.7344 Q458.0156,457.5469 459.6094,457.5469 Q460.5469,457.5469 461.2031,457.2969 Q461.5938,457.1406 462.0156,456.7031 Q462.2813,456.4375 462.4219,456.3594 Q462.5781,456.2813 462.7813,456.2813 Q463.1094,456.2813 463.3594,456.5469 Q463.625,456.7969 463.625,457.1406 Q463.625,457.4844 463.2813,457.8906 Q462.7813,458.4688 461.9844,458.7969 Q460.9063,459.25 459.6094,459.25 Q458.0938,459.25 456.8906,458.625 Q455.9063,458.125 455.2188,457.0625 Q454.5313,455.9844 454.5313,454.7031 L454.5313,453.5469 Q454.5313,452.2188 455.1406,451.0781 Q455.7656,449.9219 456.8594,449.3125 Q457.9531,448.6875 459.1875,448.6875 Q459.9219,448.6875 460.5625,448.8594 Q461.2188,449.0156 461.7656,449.375 Z " fill="#000000"/><text fill="#000000" font-family="sans-serif" font-size="14" lengthAdjust="spacing" textLength="42" x="473" y="459.2285">Option</text><line style="stroke:#181818;stroke-width:0.5;" x1="445" x2="517" y1="469.5" y2="469.5"/><rect fill="none" height="6" style="stroke:#C82930;stroke-width:1.0;" width="6" x="452" y="480.8047"/><text fill="#000000" font-family="sans-serif" font-size="14" lengthAdjust="spacing" textLength="47" x="464" y="488.0332">content</text><rect fill="none" height="6" style="stroke:#C82930;stroke-width:1.0;" width="6" x="452" y="498.4141"/><text fill="#000000" font-family="sans-serif" font-size="14" lengthAdjust="spacing" textLength="28" x="464" y="505.6426">isOk</text><line style="stroke:#181818;stroke-width:0.5;" x1="445" x2="517" y1="512.7188" y2="512.7188"/></g><!--MD5=[38633193c2e0773a3f578a42f185257a]
class SelectedOptionAnswer--><g id="elem_SelectedOptionAnswer"><rect codeLine="62" fill="#F1F1F1" height="65.6094" id="SelectedOptionAnswer" rx="2.5" ry="2.5" style="stroke:#181818;stroke-width:0.5;" width="175" x="233.5" y="446"/><ellipse cx="248.5" cy="462" fill="#ADD1B2" rx="11" ry="11" style="stroke:#181818;stroke-width:1.0;"/><path d="M251.2656,457.875 Q251.4219,457.6563 251.6094,457.5469 Q251.7969,457.4375 252.0156,457.4375 Q252.3906,457.4375 252.625,457.7031 Q252.8594,457.9531 252.8594,458.5625 L252.8594,460.0156 Q252.8594,460.625 252.625,460.8906 Q252.3906,461.1563 252.0156,461.1563 Q251.6719,461.1563 251.4688,460.9531 Q251.2656,460.7656 251.1563,460.25 Q251.1094,459.8906 250.9219,459.7031 Q250.5938,459.3281 249.9844,459.1094 Q249.375,458.8906 248.75,458.8906 Q247.9844,458.8906 247.3438,459.2188 Q246.7188,459.5469 246.2188,460.2969 Q245.7344,461.0469 245.7344,462.0781 L245.7344,463.1719 Q245.7344,464.4063 246.625,465.2344 Q247.5156,466.0469 249.1094,466.0469 Q250.0469,466.0469 250.7031,465.7969 Q251.0938,465.6406 251.5156,465.2031 Q251.7813,464.9375 251.9219,464.8594 Q252.0781,464.7813 252.2813,464.7813 Q252.6094,464.7813 252.8594,465.0469 Q253.125,465.2969 253.125,465.6406 Q253.125,465.9844 252.7813,466.3906 Q252.2813,466.9688 251.4844,467.2969 Q250.4063,467.75 249.1094,467.75 Q247.5938,467.75 246.3906,467.125 Q245.4063,466.625 244.7188,465.5625 Q244.0313,464.4844 244.0313,463.2031 L244.0313,462.0469 Q244.0313,460.7188 244.6406,459.5781 Q245.2656,458.4219 246.3594,457.8125 Q247.4531,457.1875 248.6875,457.1875 Q249.4219,457.1875 250.0625,457.3594 Q250.7188,457.5156 251.2656,457.875 Z " fill="#000000"/><text fill="#000000" font-family="sans-serif" font-size="14" lengthAdjust="spacing" textLength="143" x="262.5" y="467.7285">SelectedOptionAnswer</text><line style="stroke:#181818;stroke-width:0.5;" x1="234.5" x2="407.5" y1="478" y2="478"/><rect fill="none" height="6" style="stroke:#C82930;stroke-width:1.0;" width="6" x="241.5" y="489.3047"/><text fill="#000000" font-family="sans-serif" font-size="14" lengthAdjust="spacing" textLength="39" x="253.5" y="496.5332">option</text><line style="stroke:#181818;stroke-width:0.5;" x1="234.5" x2="407.5" y1="503.6094" y2="503.6094"/></g><!--MD5=[f9fadfa5a66b7e5a67b370cd443ffe52]
class Answer--><g id="elem_Answer"><rect codeLine="66" fill="#F1F1F1" height="136.0469" id="Answer" rx="2.5" ry="2.5" style="stroke:#181818;stroke-width:0.5;" width="118" x="206" y="223"/><ellipse cx="239" cy="239" fill="#ADD1B2" rx="11" ry="11" style="stroke:#181818;stroke-width:1.0;"/><path d="M241.7656,234.875 Q241.9219,234.6563 242.1094,234.5469 Q242.2969,234.4375 242.5156,234.4375 Q242.8906,234.4375 243.125,234.7031 Q243.3594,234.9531 243.3594,235.5625 L243.3594,237.0156 Q243.3594,237.625 243.125,237.8906 Q242.8906,238.1563 242.5156,238.1563 Q242.1719,238.1563 241.9688,237.9531 Q241.7656,237.7656 241.6563,237.25 Q241.6094,236.8906 241.4219,236.7031 Q241.0938,236.3281 240.4844,236.1094 Q239.875,235.8906 239.25,235.8906 Q238.4844,235.8906 237.8438,236.2188 Q237.2188,236.5469 236.7188,237.2969 Q236.2344,238.0469 236.2344,239.0781 L236.2344,240.1719 Q236.2344,241.4063 237.125,242.2344 Q238.0156,243.0469 239.6094,243.0469 Q240.5469,243.0469 241.2031,242.7969 Q241.5938,242.6406 242.0156,242.2031 Q242.2813,241.9375 242.4219,241.8594 Q242.5781,241.7813 242.7813,241.7813 Q243.1094,241.7813 243.3594,242.0469 Q243.625,242.2969 243.625,242.6406 Q243.625,242.9844 243.2813,243.3906 Q242.7813,243.9688 241.9844,244.2969 Q240.9063,244.75 239.6094,244.75 Q238.0938,244.75 236.8906,244.125 Q235.9063,243.625 235.2188,242.5625 Q234.5313,241.4844 234.5313,240.2031 L234.5313,239.0469 Q234.5313,237.7188 235.1406,236.5781 Q235.7656,235.4219 236.8594,234.8125 Q237.9531,234.1875 239.1875,234.1875 Q239.9219,234.1875 240.5625,234.3594 Q241.2188,234.5156 241.7656,234.875 Z " fill="#000000"/><text fill="#000000" font-family="sans-serif" font-size="14" lengthAdjust="spacing" textLength="46" x="257" y="244.7285">Answer</text><line style="stroke:#181818;stroke-width:0.5;" x1="207" x2="323" y1="255" y2="255"/><rect fill="none" height="6" style="stroke:#C82930;stroke-width:1.0;" width="6" x="214" y="266.3047"/><text fill="#000000" font-family="sans-serif" font-size="14" lengthAdjust="spacing" textLength="83" x="226" y="273.5332">studentName</text><rect fill="none" height="6" style="stroke:#C82930;stroke-width:1.0;" width="6" x="214" y="283.9141"/><text fill="#000000" font-family="sans-serif" font-size="14" lengthAdjust="spacing" textLength="78" x="226" y="291.1426">createdDate</text><rect fill="none" height="6" style="stroke:#C82930;stroke-width:1.0;" width="6" x="214" y="301.5234"/><text fill="#000000" font-family="sans-serif" font-size="14" lengthAdjust="spacing" textLength="28" x="226" y="308.752">isOk</text><rect fill="none" height="6" style="stroke:#C82930;stroke-width:1.0;" width="6" x="214" y="319.1328"/><text fill="#000000" font-family="sans-serif" font-size="14" lengthAdjust="spacing" textLength="73" x="226" y="326.3613">isEvaluated</text><rect fill="none" height="6" style="stroke:#C82930;stroke-width:1.0;" width="6" x="214" y="336.7422"/><text fill="#000000" font-family="sans-serif" font-size="14" lengthAdjust="spacing" textLength="92" x="226" y="343.9707">evaluatedDate</text><line style="stroke:#181818;stroke-width:0.5;" x1="207" x2="323" y1="351.0469" y2="351.0469"/></g><!--MD5=[97481891219dae41f522c9ce6709b94d]
reverse link Question to StatementImplementor--><g id="link_Question_StatementImplementor"><path codeLine="91" d="M758.33,101 C765.63,101 772.93,101 780.23,101 " fill="none" id="Question-backto-StatementImplementor" style="stroke:#181818;stroke-width:1.0;"/><polygon fill="#181818" points="745.18,101,751.18,105,757.18,101,751.18,97,745.18,101" style="stroke:#181818;stroke-width:1.0;"/></g><!--MD5=[e68d8486b151d64b61c7f5b6e40a3de9]
reverse link Question to OpenQuestion--><g id="link_Question_OpenQuestion"><path codeLine="92" d="M486.81,118 C397.99,132.23 282.42,158.39 189,205.5 C162.82,218.7 137.63,240.06 119.08,257.99 " fill="none" id="Question-backto-OpenQuestion" style="stroke:#181818;stroke-width:1.0;"/><polygon fill="none" points="485.93,111.05,506.76,114.93,488.06,124.89,485.93,111.05" style="stroke:#181818;stroke-width:1.0;"/></g><!--MD5=[5ea4867893d7a476c54f91c2252dd0f8]
reverse link Question to MultipleChoiceQuestion--><g id="link_Question_MultipleChoiceQuestion"><path codeLine="93" d="M568.71,176.28 C552.13,197.77 534.44,220.71 519.32,240.32 " fill="none" id="Question-backto-MultipleChoiceQuestion" style="stroke:#181818;stroke-width:1.0;"/><polygon fill="none" points="563.36,171.76,581.11,160.2,574.44,180.31,563.36,171.76" style="stroke:#181818;stroke-width:1.0;"/></g><!--MD5=[ddd0ba9ff0adad4c5f8027dfa32b4028]
reverse link OpenQuestion to OpenAnswer--><g id="link_OpenQuestion_OpenAnswer"><path codeLine="95" d="M96.54,337.26 C101.14,364.86 107.03,400.15 111.75,428.49 " fill="none" id="OpenQuestion-backto-OpenAnswer" style="stroke:#181818;stroke-width:1.0;"/><polygon fill="none" points="94.4,324.4,91.4432,330.977,96.3771,336.236,99.3339,329.659,94.4,324.4" style="stroke:#181818;stroke-width:1.0;"/><text fill="#000000" font-family="sans-serif" font-size="13" lengthAdjust="spacing" textLength="22" x="87.043" y="417.794">0..n</text></g><!--MD5=[185adfbec1fc38ddaede86a7c2f0e161]
reverse link MultipleChoiceQuestion to Option--><g id="link_MultipleChoiceQuestion_Option"><path codeLine="96" d="M481,354.87 C481,382.14 481,413.28 481,437.42 " fill="none" id="MultipleChoiceQuestion-backto-Option" style="stroke:#181818;stroke-width:1.0;"/><polygon fill="none" points="481,341.84,477,347.84,481,353.84,485,347.84,481,341.84" style="stroke:#181818;stroke-width:1.0;"/><text fill="#000000" font-family="sans-serif" font-size="13" lengthAdjust="spacing" textLength="26" x="452.8469" y="426.7144">2..m</text></g><!--MD5=[7fd1c776f442e0d30b85a4710aa30f93]
reverse link MultipleChoiceQuestion to SelectedOptionAnswer--><g id="link_MultipleChoiceQuestion_SelectedOptionAnswer"><path codeLine="97" d="M429.59,351.77 C402.7,383.02 370.85,420.05 348.63,445.88 " fill="none" id="MultipleChoiceQuestion-backto-SelectedOptionAnswer" style="stroke:#181818;stroke-width:1.0;"/><polygon fill="none" points="438.12,341.84,431.1727,343.7725,430.2845,350.9287,437.2318,348.9962,438.12,341.84" style="stroke:#181818;stroke-width:1.0;"/><text fill="#000000" font-family="sans-serif" font-size="13" lengthAdjust="spacing" textLength="22" x="330.0599" y="434.9707">0..n</text></g><!--MD5=[f09af3287b5f29e7742fae9c1dd502dc]
reverse link SelectedOptionAnswer to Option--><g id="link_SelectedOptionAnswer_Option"><path codeLine="98" d="M421.92,479 C429.21,479 436.49,479 443.78,479 " fill="none" id="SelectedOptionAnswer-backto-Option" style="stroke:#181818;stroke-width:1.0;"/><polygon fill="#181818" points="408.81,479,414.81,483,420.81,479,414.81,475,408.81,479" style="stroke:#181818;stroke-width:1.0;"/></g><!--MD5=[d836dd5f24b2050a0870c879f4cc72e6]
reverse link Answer to OpenAnswer--><g id="link_Answer_OpenAnswer"><path codeLine="99" d="M200.31,374.99 C186.07,393.24 171.44,412.02 158.62,428.46 " fill="none" id="Answer-backto-OpenAnswer" style="stroke:#181818;stroke-width:1.0;"/><polygon fill="none" points="194.83,370.62,212.65,359.15,205.88,379.23,194.83,370.62" style="stroke:#181818;stroke-width:1.0;"/></g><!--MD5=[f0b095eb9d8ac83344dc19dd00411ad6]
reverse link Answer to SelectedOptionAnswer--><g id="link_Answer_SelectedOptionAnswer"><path codeLine="100" d="M291.07,378.59 C298.3,402.59 305.69,427.16 311.33,445.87 " fill="none" id="Answer-backto-SelectedOptionAnswer" style="stroke:#181818;stroke-width:1.0;"/><polygon fill="none" points="284.28,380.32,285.22,359.15,297.69,376.28,284.28,380.32" style="stroke:#181818;stroke-width:1.0;"/></g><!--MD5=[e5a63bd9ed272c01ba887d01c6f52680]
link DefinitionStatement to Concept--><g id="link_DefinitionStatement_Concept"><path codeLine="102" d="M836.73,332.82 C838.93,356.88 841.76,387.83 844.24,414.97 " fill="none" id="DefinitionStatement-to-Concept" style="stroke:#181818;stroke-width:1.0;stroke-dasharray:7.0,7.0;"/><polygon fill="#181818" points="844.7,419.99,847.8615,410.6624,844.2435,415.0109,839.8949,411.3928,844.7,419.99" style="stroke:#181818;stroke-width:1.0;"/></g><!--MD5=[35bc999f88bc6720501e9c45f5233a26]
link ClassificationStatement to Concept--><g id="link_ClassificationStatement_Concept"><path codeLine="103" d="M1077.5,332.59 C1026.2,365.38 954.71,411.07 905.64,442.44 " fill="none" id="ClassificationStatement-to-Concept" style="stroke:#181818;stroke-width:1.0;stroke-dasharray:7.0,7.0;"/><polygon fill="#181818" points="901.26,445.24,910.9995,443.7764,905.4765,442.5528,906.7001,437.0299,901.26,445.24" style="stroke:#181818;stroke-width:1.0;"/></g><!--MD5=[2b18f49196a26fa6cb8de53644dce308]
link CompositionStatement to Concept--><g id="link_CompositionStatement_Concept"><path codeLine="104" d="M1396.06,332.54 C1366.86,341.51 1335.92,350.78 1307,359 C1163.38,399.85 992.82,442.8 906.33,464.19 " fill="none" id="CompositionStatement-to-Concept" style="stroke:#181818;stroke-width:1.0;stroke-dasharray:7.0,7.0;"/><polygon fill="#181818" points="901.26,465.45,910.9567,467.1746,906.1141,464.2508,909.0379,459.4081,901.26,465.45" style="stroke:#181818;stroke-width:1.0;"/></g><!--MD5=[18141af66d78099ce63b3b3d94bf7770]
reverse link Concept to Question--><g id="link_Concept_Question"><path codeLine="106" d="M787.57,444.46 C754.87,423.87 716.78,394.62 693,359 C652.68,298.6 636.61,215.24 630.22,160.04 " fill="none" id="Concept-backto-Question" style="stroke:#181818;stroke-width:1.0;"/><polygon fill="none" points="798.88,451.37,795.8447,444.8288,788.6393,445.1147,791.6746,451.6559,798.88,451.37" style="stroke:#181818;stroke-width:1.0;"/><text fill="#000000" font-family="sans-serif" font-size="13" lengthAdjust="spacing" textLength="18" x="611.6076" y="182.1191">0..i</text></g><!--MD5=[543bb2115b5a10697a67507a00f6a2f4]
reverse link Concept to Definition--><g id="link_Concept_Definition"><path codeLine="107" d="M821.48,550.29 C799.61,597.17 765.61,657.56 721,699 C663.97,751.97 578.83,786.36 526.77,803.8 " fill="none" id="Concept-backto-Definition" style="stroke:#181818;stroke-width:1.0;"/><polygon fill="none" points="826.91,538.38,820.7833,542.1831,821.9374,549.3012,828.0641,545.4981,826.91,538.38" style="stroke:#181818;stroke-width:1.0;"/><text fill="#000000" font-family="sans-serif" font-size="13" lengthAdjust="spacing" textLength="26" x="534.6672" y="798.2537">0..m</text></g><!--MD5=[54f9360500e0fd532969fc16f437bbea]
reverse link Concept to Relation--><g id="link_Concept_Relation"><path codeLine="109" d="M854.45,551.44 C856.27,580.57 858.24,612.23 859.54,633.1 " fill="none" id="Concept-backto-Relation" style="stroke:#181818;stroke-width:1.0;"/><polygon fill="none" points="853.63,538.28,850.0138,544.5188,854.3818,550.2564,857.9981,544.0176,853.63,538.28" style="stroke:#181818;stroke-width:1.0;"/><text fill="#000000" font-family="sans-serif" font-size="13" lengthAdjust="spacing" textLength="26" x="830.0154" y="622.7405">0..m</text></g><!--MD5=[90ea77717cc70d7f588b001bbb985d62]
reverse link Relation to Classification--><g id="link_Relation_Classification"><path codeLine="110" d="M890.78,697.64 C913.88,727.99 945.11,769.02 964.38,794.35 " fill="none" id="Relation-backto-Classification" style="stroke:#181818;stroke-width:1.0;"/><polygon fill="none" points="885.14,701.77,878.59,681.62,896.28,693.3,885.14,701.77" style="stroke:#181818;stroke-width:1.0;"/></g><!--MD5=[aac130c8b5f905729b18e85e231f7b50]
reverse link Relation to Composition--><g id="link_Relation_Composition"><path codeLine="111" d="M853.7,701.5 C848.62,731.4 842.05,770.08 837.93,794.35 " fill="none" id="Relation-backto-Composition" style="stroke:#181818;stroke-width:1.0;"/><polygon fill="none" points="846.82,700.17,857.07,681.62,860.63,702.51,846.82,700.17" style="stroke:#181818;stroke-width:1.0;"/></g><!--MD5=[827ca79410d7e61c6b0c4bcab8d72c38]
reverse link StatementImplementor to DefinitionStatement--><g id="link_StatementImplementor_DefinitionStatement"><path codeLine="114" d="M874.89,179.07 C865.79,203.17 856.11,228.8 848.35,249.35 " fill="none" id="StatementImplementor-backto-DefinitionStatement" style="stroke:#181818;stroke-width:1.0;"/><polygon fill="none" points="868.41,176.43,882.02,160.2,881.5,181.38,868.41,176.43" style="stroke:#181818;stroke-width:1.0;"/></g><!--MD5=[d95a6c9bfe84315835e606b52c727bec]
reverse link OpenAnswer to Solution--><g id="link_OpenAnswer_Solution"><path codeLine="115" d="M113.49,543.1 C113.33,557.32 114.2,572.26 117,586 C119.02,595.91 122.48,606.14 126.36,615.64 " fill="none" id="OpenAnswer-backto-Solution" style="stroke:#181818;stroke-width:1.0;"/><polygon fill="none" points="113.93,529.75,109.7345,535.6149,113.5346,541.7435,117.7301,535.8785,113.93,529.75" style="stroke:#181818;stroke-width:1.0;"/><text fill="#000000" font-family="sans-serif" font-size="13" lengthAdjust="spacing" textLength="336" x="118" y="582.4951">answer.isEvaluated=true / answer.isUsefulToConcept=true</text><text fill="#000000" font-family="sans-serif" font-size="13" lengthAdjust="spacing" textLength="41" x="78.8033" y="605.1993">0..m&lt;n</text></g><!--MD5=[d4807bebe590ba0091bae946c49347c9]
reverse link Solution to Definition--><g id="link_Solution_Definition"><path codeLine="116" d="M179.02,703.42 C192.27,719.19 208.81,735.76 227,747 C292.61,787.52 381.89,805.24 435.26,812.62 " fill="none" id="Solution-backto-Definition" style="stroke:#181818;stroke-width:1.0;stroke-dasharray:7.0,7.0;"/><polygon fill="#181818" points="175.73,699.43,178.3772,708.9164,178.914,703.2851,184.5454,703.822,175.73,699.43" style="stroke:#181818;stroke-width:1.0;"/><text fill="#000000" font-family="sans-serif" font-size="13" lengthAdjust="spacing" textLength="226" x="228" y="743.4951">statementImplementorTarget=Definition</text></g><!--MD5=[0a458040590a793cf8c50dfb08eca74c]
link Option to Definition--><g id="link_Option_Definition"><path codeLine="117" d="M481,520.71 C481,584.02 481,705.65 481,771.85 " fill="none" id="Option-to-Definition" style="stroke:#181818;stroke-width:1.0;stroke-dasharray:7.0,7.0;"/><polygon fill="#181818" points="481,776.91,485,767.91,481,771.91,477,767.91,481,776.91" style="stroke:#181818;stroke-width:1.0;"/><text fill="#000000" font-family="sans-serif" font-size="13" lengthAdjust="spacing" textLength="230" x="482" y="662.9951">statementImplementorTarget= Definition</text></g><!--MD5=[60121d46e5c7959543493292a0e80900]
reverse link StatementImplementor to ClassificationStatement--><g id="link_StatementImplementor_ClassificationStatement"><path codeLine="118" d="M993.09,172.67 C1025.72,198.56 1061.54,226.97 1089.75,249.35 " fill="none" id="StatementImplementor-backto-ClassificationStatement" style="stroke:#181818;stroke-width:1.0;"/><polygon fill="none" points="988.68,178.11,977.37,160.2,997.38,167.14,988.68,178.11" style="stroke:#181818;stroke-width:1.0;"/></g><!--MD5=[1b3943c7506d4479e70c465a6172c629]
reverse link StatementImplementor to CompositionStatement--><g id="link_StatementImplementor_CompositionStatement"><path codeLine="121" d="M1047.44,134.41 C1124.94,153.03 1221.92,178.12 1307,205.5 C1346.83,218.32 1389.93,234.58 1427.13,249.41 " fill="none" id="StatementImplementor-backto-CompositionStatement" style="stroke:#181818;stroke-width:1.0;"/><polygon fill="none" points="1045.5,141.14,1027.67,129.7,1048.74,127.52,1045.5,141.14" style="stroke:#181818;stroke-width:1.0;"/></g><!--MD5=[8c4dc5cf2df8d5fb40110ccc3ce1e345]
@startuml ConceptDomainDetailBridge

class Concept {
    - keyword
    - definitions[ ]
    - relations[ ]
    - questions[ ]
}

class Definition {
    - content
    - isFake
}

class Relation

class Classification

class Composition

package Primary:conceptElementUsed=Keyword {
    class DefinitionStatement {
        - statement ="¿Qué es KEYWORD?"
        - conceptElementTarget = Definition
    }

    class ClassificationStatement {
        - statement = "Qué tipos hay de KEYWORD"
        - conceptElementTarget = Classification
    }

    class CompositionStatement {
        - statement ="¿Qué conceptos destacarias del KEYWORD?"
        - conceptElementTarget = Composition
    }
}

abstract class OpenQuestion {
    -answers[openAnswer]
}

class OpenAnswer {
    - content
    - isUsefulToConcept
    - isEvaluatedBy
}

class Solution {
    - content
    - isOk
}
abstract class MultipleChoiceQuestion {
    - options
    - answers[selectedOption]
    + setOptions(statementImplementor)
}

class Option {
    - content
    - isOk
}

class SelectedOptionAnswer {
    - option
}

class Answer {
    - studentName
    - createdDate
    - isOk
    - isEvaluated
    - evaluatedDate
}

package Bridge {
    abstract class Question {
        - statementImplementor
        - answers[ ]
        # void setStatementImplementor()
        + bool isAnsweredBy(studentName)
    }

    class StatementImplementor {
        - concept
        - conceptElementUsed
        - conceptElementTarget
        + setOptions(conceptElementTarget)
    }

}

Question *- StatementImplementor
Question <|- - OpenQuestion
Question <|- - MultipleChoiceQuestion

OpenQuestion o- -"0..n" OpenAnswer
MultipleChoiceQuestion o- -"2..m" Option
MultipleChoiceQuestion o- -"0..n" SelectedOptionAnswer
SelectedOptionAnswer *- Option
Answer <|- - OpenAnswer
Answer <|- - SelectedOptionAnswer

DefinitionStatement ..> Concept
ClassificationStatement ..> Concept
CompositionStatement ..> Concept

Concept o- - "0..i" Question
Concept o- -"0..m" Definition

Concept o- - "0..m" Relation
Relation <|- - Classification
Relation <|- - Composition


StatementImplementor <|- - DefinitionStatement
OpenAnswer o- -"0..m<n" Solution :answer.isEvaluated=true / answer.isUsefulToConcept=true
Solution <.. Definition:statementImplementorTarget=Definition 
Option ..> Definition :statementImplementorTarget= Definition
StatementImplementor <|- - ClassificationStatement
'OpenClassificationQuestion <.. Classification :answers

StatementImplementor <|- - CompositionStatement
'OpenCompositionQuestion <.. Composition :answers


@enduml

@startuml ConceptDomainDetailBridge

class Concept {
    - keyword
    - definitions[ ]
    - relations[ ]
    - questions[ ]
}

class Definition {
    - content
    - isFake
}

class Relation

class Classification

class Composition

package Primary:conceptElementUsed=Keyword {
    class DefinitionStatement {
        - statement ="¿Qué es KEYWORD?"
        - conceptElementTarget = Definition
    }

    class ClassificationStatement {
        - statement = "Qué tipos hay de KEYWORD"
        - conceptElementTarget = Classification
    }

    class CompositionStatement {
        - statement ="¿Qué conceptos destacarias del KEYWORD?"
        - conceptElementTarget = Composition
    }
}

abstract class OpenQuestion {
    -answers[openAnswer]
}

class OpenAnswer {
    - content
    - isUsefulToConcept
    - isEvaluatedBy
}

class Solution {
    - content
    - isOk
}
abstract class MultipleChoiceQuestion {
    - options
    - answers[selectedOption]
    + setOptions(statementImplementor)
}

class Option {
    - content
    - isOk
}

class SelectedOptionAnswer {
    - option
}

class Answer {
    - studentName
    - createdDate
    - isOk
    - isEvaluated
    - evaluatedDate
}

package Bridge {
    abstract class Question {
        - statementImplementor
        - answers[ ]
        # void setStatementImplementor()
        + bool isAnsweredBy(studentName)
    }

    class StatementImplementor {
        - concept
        - conceptElementUsed
        - conceptElementTarget
        + setOptions(conceptElementTarget)
    }

}

Question *- StatementImplementor
Question <|- - OpenQuestion
Question <|- - MultipleChoiceQuestion

OpenQuestion o- -"0..n" OpenAnswer
MultipleChoiceQuestion o- -"2..m" Option
MultipleChoiceQuestion o- -"0..n" SelectedOptionAnswer
SelectedOptionAnswer *- Option
Answer <|- - OpenAnswer
Answer <|- - SelectedOptionAnswer

DefinitionStatement ..> Concept
ClassificationStatement ..> Concept
CompositionStatement ..> Concept

Concept o- - "0..i" Question
Concept o- -"0..m" Definition

Concept o- - "0..m" Relation
Relation <|- - Classification
Relation <|- - Composition


StatementImplementor <|- - DefinitionStatement
OpenAnswer o- -"0..m<n" Solution :answer.isEvaluated=true / answer.isUsefulToConcept=true
Solution <.. Definition:statementImplementorTarget=Definition 
Option ..> Definition :statementImplementorTarget= Definition
StatementImplementor <|- - ClassificationStatement

StatementImplementor <|- - CompositionStatement


@enduml

PlantUML version 1.2022.7(Mon Aug 22 18:01:30 WEST 2022)
(GPL source distribution)
Java Runtime: OpenJDK Runtime Environment
JVM: OpenJDK 64-Bit Server VM
Default Encoding: Cp1252
Language: es
Country: ES
--></g></svg>