<?xml version="1.0" encoding="UTF-8" standalone="no"?><svg xmlns="http://www.w3.org/2000/svg" xmlns:xlink="http://www.w3.org/1999/xlink" contentStyleType="text/css" height="810px" preserveAspectRatio="none" style="width:1902px;height:810px;background:#FFFFFF;" version="1.1" viewBox="0 0 1902 810" width="1902px" zoomAndPan="magnify"><defs/><g><!--MD5=[2b927b3a1f5e04350326ca5369519571]
cluster Primary:conceptElementUsed=Keyword--><g id="cluster_Primary:conceptElementUsed=Keyword"><path d="M804.5,210.5 L1080.5,210.5 A3.75,3.75 0 0 1 1083,213 L1090,234.1094 L1845.5,234.1094 A2.5,2.5 0 0 1 1848,236.6094 L1848,343 A2.5,2.5 0 0 1 1845.5,345.5 L804.5,345.5 A2.5,2.5 0 0 1 802,343 L802,213 A2.5,2.5 0 0 1 804.5,210.5 " fill="none" style="stroke:#000000;stroke-width:1.5;"/><line style="stroke:#000000;stroke-width:1.5;" x1="802" x2="1090" y1="234.1094" y2="234.1094"/><text fill="#000000" font-family="sans-serif" font-size="14" font-weight="bold" lengthAdjust="spacing" textLength="275" x="806" y="227.0332">Primary:conceptElementUsed=Keyword</text></g><!--MD5=[f524f4843046d594e03236310757e034]
cluster Bridge--><g id="cluster_Bridge"><path d="M686.5,6 L734.5,6 A3.75,3.75 0 0 1 737,8.5 L744,29.6094 L1160.5,29.6094 A2.5,2.5 0 0 1 1163,32.1094 L1163,173.5 A2.5,2.5 0 0 1 1160.5,176 L686.5,176 A2.5,2.5 0 0 1 684,173.5 L684,8.5 A2.5,2.5 0 0 1 686.5,6 " fill="none" style="stroke:#000000;stroke-width:1.5;"/><line style="stroke:#000000;stroke-width:1.5;" x1="684" x2="744" y1="29.6094" y2="29.6094"/><text fill="#000000" font-family="sans-serif" font-size="14" font-weight="bold" lengthAdjust="spacing" textLength="47" x="688" y="22.5332">Bridge</text></g><!--MD5=[a51a7e8bb9783b3a226fb2f8d75a473a]
class DefinitionStatement--><g id="elem_DefinitionStatement"><rect codeLine="25" fill="#F1F1F1" height="83.2188" id="DefinitionStatement" rx="2.5" ry="2.5" style="stroke:#181818;stroke-width:0.5;" width="248" x="818" y="246.5"/><ellipse cx="876.25" cy="262.5" fill="#ADD1B2" rx="11" ry="11" style="stroke:#181818;stroke-width:1.0;"/><path d="M879.0156,258.375 Q879.1719,258.1563 879.3594,258.0469 Q879.5469,257.9375 879.7656,257.9375 Q880.1406,257.9375 880.375,258.2031 Q880.6094,258.4531 880.6094,259.0625 L880.6094,260.5156 Q880.6094,261.125 880.375,261.3906 Q880.1406,261.6563 879.7656,261.6563 Q879.4219,261.6563 879.2188,261.4531 Q879.0156,261.2656 878.9063,260.75 Q878.8594,260.3906 878.6719,260.2031 Q878.3438,259.8281 877.7344,259.6094 Q877.125,259.3906 876.5,259.3906 Q875.7344,259.3906 875.0938,259.7188 Q874.4688,260.0469 873.9688,260.7969 Q873.4844,261.5469 873.4844,262.5781 L873.4844,263.6719 Q873.4844,264.9063 874.375,265.7344 Q875.2656,266.5469 876.8594,266.5469 Q877.7969,266.5469 878.4531,266.2969 Q878.8438,266.1406 879.2656,265.7031 Q879.5313,265.4375 879.6719,265.3594 Q879.8281,265.2813 880.0313,265.2813 Q880.3594,265.2813 880.6094,265.5469 Q880.875,265.7969 880.875,266.1406 Q880.875,266.4844 880.5313,266.8906 Q880.0313,267.4688 879.2344,267.7969 Q878.1563,268.25 876.8594,268.25 Q875.3438,268.25 874.1406,267.625 Q873.1563,267.125 872.4688,266.0625 Q871.7813,264.9844 871.7813,263.7031 L871.7813,262.5469 Q871.7813,261.2188 872.3906,260.0781 Q873.0156,258.9219 874.1094,258.3125 Q875.2031,257.6875 876.4375,257.6875 Q877.1719,257.6875 877.8125,257.8594 Q878.4688,258.0156 879.0156,258.375 Z " fill="#000000"/><text fill="#000000" font-family="sans-serif" font-size="14" lengthAdjust="spacing" textLength="123" x="896.75" y="268.2285">DefinitionStatement</text><line style="stroke:#181818;stroke-width:0.5;" x1="819" x2="1065" y1="278.5" y2="278.5"/><rect fill="none" height="6" style="stroke:#C82930;stroke-width:1.0;" width="6" x="826" y="289.8047"/><text fill="#000000" font-family="sans-serif" font-size="14" lengthAdjust="spacing" textLength="222" x="838" y="297.0332">statement ="¿Qué es KEYWORD?"</text><rect fill="none" height="6" style="stroke:#C82930;stroke-width:1.0;" width="6" x="826" y="307.4141"/><text fill="#000000" font-family="sans-serif" font-size="14" lengthAdjust="spacing" textLength="131" x="838" y="314.6426">solutions [ Definition]</text><line style="stroke:#181818;stroke-width:0.5;" x1="819" x2="1065" y1="321.7188" y2="321.7188"/></g><!--MD5=[9185a2f7d84f0f934f7d1a57c235ac74]
class ClassificationStatement--><g id="elem_ClassificationStatement"><rect codeLine="30" fill="#F1F1F1" height="83.2188" id="ClassificationStatement" rx="2.5" ry="2.5" style="stroke:#181818;stroke-width:0.5;" width="297" x="1534.5" y="246.5"/><ellipse cx="1605.25" cy="262.5" fill="#ADD1B2" rx="11" ry="11" style="stroke:#181818;stroke-width:1.0;"/><path d="M1608.0156,258.375 Q1608.1719,258.1563 1608.3594,258.0469 Q1608.5469,257.9375 1608.7656,257.9375 Q1609.1406,257.9375 1609.375,258.2031 Q1609.6094,258.4531 1609.6094,259.0625 L1609.6094,260.5156 Q1609.6094,261.125 1609.375,261.3906 Q1609.1406,261.6563 1608.7656,261.6563 Q1608.4219,261.6563 1608.2188,261.4531 Q1608.0156,261.2656 1607.9063,260.75 Q1607.8594,260.3906 1607.6719,260.2031 Q1607.3438,259.8281 1606.7344,259.6094 Q1606.125,259.3906 1605.5,259.3906 Q1604.7344,259.3906 1604.0938,259.7188 Q1603.4688,260.0469 1602.9688,260.7969 Q1602.4844,261.5469 1602.4844,262.5781 L1602.4844,263.6719 Q1602.4844,264.9063 1603.375,265.7344 Q1604.2656,266.5469 1605.8594,266.5469 Q1606.7969,266.5469 1607.4531,266.2969 Q1607.8438,266.1406 1608.2656,265.7031 Q1608.5313,265.4375 1608.6719,265.3594 Q1608.8281,265.2813 1609.0313,265.2813 Q1609.3594,265.2813 1609.6094,265.5469 Q1609.875,265.7969 1609.875,266.1406 Q1609.875,266.4844 1609.5313,266.8906 Q1609.0313,267.4688 1608.2344,267.7969 Q1607.1563,268.25 1605.8594,268.25 Q1604.3438,268.25 1603.1406,267.625 Q1602.1563,267.125 1601.4688,266.0625 Q1600.7813,264.9844 1600.7813,263.7031 L1600.7813,262.5469 Q1600.7813,261.2188 1601.3906,260.0781 Q1602.0156,258.9219 1603.1094,258.3125 Q1604.2031,257.6875 1605.4375,257.6875 Q1606.1719,257.6875 1606.8125,257.8594 Q1607.4688,258.0156 1608.0156,258.375 Z " fill="#000000"/><text fill="#000000" font-family="sans-serif" font-size="14" lengthAdjust="spacing" textLength="147" x="1625.75" y="268.2285">ClassificationStatement</text><line style="stroke:#181818;stroke-width:0.5;" x1="1535.5" x2="1830.5" y1="278.5" y2="278.5"/><rect fill="none" height="6" style="stroke:#C82930;stroke-width:1.0;" width="6" x="1542.5" y="289.8047"/><text fill="#000000" font-family="sans-serif" font-size="14" lengthAdjust="spacing" textLength="271" x="1554.5" y="297.0332">statement = "Qué tipos hay de KEYWORD"</text><rect fill="none" height="6" style="stroke:#C82930;stroke-width:1.0;" width="6" x="1542.5" y="307.4141"/><text fill="#000000" font-family="sans-serif" font-size="14" lengthAdjust="spacing" textLength="151" x="1554.5" y="314.6426">solutions [Classification]</text><line style="stroke:#181818;stroke-width:0.5;" x1="1535.5" x2="1830.5" y1="321.7188" y2="321.7188"/></g><!--MD5=[9cb1851a3c7d26c2f315fa580a6f39da]
class CompositionStatement--><g id="elem_CompositionStatement"><rect codeLine="35" fill="#F1F1F1" height="83.2188" id="CompositionStatement" rx="2.5" ry="2.5" style="stroke:#181818;stroke-width:0.5;" width="398" x="1101" y="246.5"/><ellipse cx="1224.75" cy="262.5" fill="#ADD1B2" rx="11" ry="11" style="stroke:#181818;stroke-width:1.0;"/><path d="M1227.5156,258.375 Q1227.6719,258.1563 1227.8594,258.0469 Q1228.0469,257.9375 1228.2656,257.9375 Q1228.6406,257.9375 1228.875,258.2031 Q1229.1094,258.4531 1229.1094,259.0625 L1229.1094,260.5156 Q1229.1094,261.125 1228.875,261.3906 Q1228.6406,261.6563 1228.2656,261.6563 Q1227.9219,261.6563 1227.7188,261.4531 Q1227.5156,261.2656 1227.4063,260.75 Q1227.3594,260.3906 1227.1719,260.2031 Q1226.8438,259.8281 1226.2344,259.6094 Q1225.625,259.3906 1225,259.3906 Q1224.2344,259.3906 1223.5938,259.7188 Q1222.9688,260.0469 1222.4688,260.7969 Q1221.9844,261.5469 1221.9844,262.5781 L1221.9844,263.6719 Q1221.9844,264.9063 1222.875,265.7344 Q1223.7656,266.5469 1225.3594,266.5469 Q1226.2969,266.5469 1226.9531,266.2969 Q1227.3438,266.1406 1227.7656,265.7031 Q1228.0313,265.4375 1228.1719,265.3594 Q1228.3281,265.2813 1228.5313,265.2813 Q1228.8594,265.2813 1229.1094,265.5469 Q1229.375,265.7969 1229.375,266.1406 Q1229.375,266.4844 1229.0313,266.8906 Q1228.5313,267.4688 1227.7344,267.7969 Q1226.6563,268.25 1225.3594,268.25 Q1223.8438,268.25 1222.6406,267.625 Q1221.6563,267.125 1220.9688,266.0625 Q1220.2813,264.9844 1220.2813,263.7031 L1220.2813,262.5469 Q1220.2813,261.2188 1220.8906,260.0781 Q1221.5156,258.9219 1222.6094,258.3125 Q1223.7031,257.6875 1224.9375,257.6875 Q1225.6719,257.6875 1226.3125,257.8594 Q1226.9688,258.0156 1227.5156,258.375 Z " fill="#000000"/><text fill="#000000" font-family="sans-serif" font-size="14" lengthAdjust="spacing" textLength="142" x="1245.25" y="268.2285">CompositionStatement</text><line style="stroke:#181818;stroke-width:0.5;" x1="1102" x2="1498" y1="278.5" y2="278.5"/><rect fill="none" height="6" style="stroke:#C82930;stroke-width:1.0;" width="6" x="1109" y="289.8047"/><text fill="#000000" font-family="sans-serif" font-size="14" lengthAdjust="spacing" textLength="372" x="1121" y="297.0332">statement ="¿Qué conceptos destacarias del KEYWORD?"</text><rect fill="none" height="6" style="stroke:#C82930;stroke-width:1.0;" width="6" x="1109" y="307.4141"/><text fill="#000000" font-family="sans-serif" font-size="14" lengthAdjust="spacing" textLength="158" x="1121" y="314.6426">solutions = [Composition]</text><line style="stroke:#181818;stroke-width:0.5;" x1="1102" x2="1498" y1="321.7188" y2="321.7188"/></g><!--MD5=[fc7123defb831ecdd44b2d9bcef6cceb]
class Question--><g id="elem_Question"><rect codeLine="75" fill="#F1F1F1" height="118.4375" id="Question" rx="2.5" ry="2.5" style="stroke:#181818;stroke-width:0.5;" width="238" x="700" y="42"/><ellipse cx="786.25" cy="58" fill="#A9DCDF" rx="11" ry="11" style="stroke:#181818;stroke-width:1.0;"/><path d="M788.4375,59.7656 L784.2969,59.7656 L783.875,60.7969 L784.2969,60.7969 Q784.9063,60.7969 785.1719,61.0313 Q785.4375,61.2656 785.4375,61.6563 Q785.4375,62.0313 785.1719,62.2656 Q784.9063,62.5 784.2969,62.5 L782,62.5 Q781.3906,62.5 781.1406,62.2656 Q780.875,62.0313 780.875,61.6406 Q780.875,61.2656 781.1563,61.0313 Q781.4219,60.7813 782.0469,60.7969 L784.7188,54.1406 L783.6094,54.1406 Q783,54.1406 782.7344,53.9063 Q782.4688,53.6719 782.4688,53.2813 Q782.4688,52.9063 782.7344,52.6719 Q783,52.4375 783.6094,52.4375 L787.2813,52.4375 L790.6719,60.7969 Q791.2656,60.7969 791.4531,60.9375 Q791.8438,61.2031 791.8438,61.6563 Q791.8438,62.0313 791.5781,62.2656 Q791.3281,62.5 790.7188,62.5 L788.4219,62.5 Q787.8125,62.5 787.5469,62.2656 Q787.2813,62.0313 787.2813,61.6406 Q787.2813,61.2656 787.5469,61.0313 Q787.8125,60.7969 788.4219,60.7969 L788.8438,60.7969 L788.4375,59.7656 Z M787.7188,58.0625 L786.3594,54.6875 L784.9844,58.0625 L787.7188,58.0625 Z " fill="#000000"/><text fill="#000000" font-family="sans-serif" font-size="14" font-style="italic" lengthAdjust="spacing" textLength="57" x="806.75" y="63.7285">Question</text><line style="stroke:#181818;stroke-width:0.5;" x1="701" x2="937" y1="74" y2="74"/><rect fill="none" height="6" style="stroke:#C82930;stroke-width:1.0;" width="6" x="708" y="85.3047"/><text fill="#000000" font-family="sans-serif" font-size="14" lengthAdjust="spacing" textLength="139" x="720" y="92.5332">statementImplementor</text><rect fill="none" height="6" style="stroke:#C82930;stroke-width:1.0;" width="6" x="708" y="102.9141"/><text fill="#000000" font-family="sans-serif" font-size="14" lengthAdjust="spacing" textLength="64" x="720" y="110.1426">answers[ ]</text><line style="stroke:#181818;stroke-width:0.5;" x1="701" x2="937" y1="117.2188" y2="117.2188"/><polygon fill="#FFFF44" points="711,126.5234,715,130.5234,711,134.5234,707,130.5234" style="stroke:#B38D22;stroke-width:1.0;"/><text fill="#000000" font-family="sans-serif" font-size="14" lengthAdjust="spacing" textLength="200" x="720" y="135.752">void setStatementImplementor()</text><ellipse cx="711" cy="149.1328" fill="#84BE84" rx="3" ry="3" style="stroke:#038048;stroke-width:1.0;"/><text fill="#000000" font-family="sans-serif" font-size="14" lengthAdjust="spacing" textLength="212" x="720" y="153.3613">bool isAnsweredBy(studentName)</text></g><!--MD5=[c5a45057bd8260f278ba302c5f5fe264]
class StatementImplementor--><g id="elem_StatementImplementor"><rect codeLine="82" fill="#F1F1F1" height="118.4375" id="StatementImplementor" rx="2.5" ry="2.5" style="stroke:#181818;stroke-width:0.5;" width="173" x="973.5" y="42"/><ellipse cx="988.5" cy="58" fill="#ADD1B2" rx="11" ry="11" style="stroke:#181818;stroke-width:1.0;"/><path d="M991.2656,53.875 Q991.4219,53.6563 991.6094,53.5469 Q991.7969,53.4375 992.0156,53.4375 Q992.3906,53.4375 992.625,53.7031 Q992.8594,53.9531 992.8594,54.5625 L992.8594,56.0156 Q992.8594,56.625 992.625,56.8906 Q992.3906,57.1563 992.0156,57.1563 Q991.6719,57.1563 991.4688,56.9531 Q991.2656,56.7656 991.1563,56.25 Q991.1094,55.8906 990.9219,55.7031 Q990.5938,55.3281 989.9844,55.1094 Q989.375,54.8906 988.75,54.8906 Q987.9844,54.8906 987.3438,55.2188 Q986.7188,55.5469 986.2188,56.2969 Q985.7344,57.0469 985.7344,58.0781 L985.7344,59.1719 Q985.7344,60.4063 986.625,61.2344 Q987.5156,62.0469 989.1094,62.0469 Q990.0469,62.0469 990.7031,61.7969 Q991.0938,61.6406 991.5156,61.2031 Q991.7813,60.9375 991.9219,60.8594 Q992.0781,60.7813 992.2813,60.7813 Q992.6094,60.7813 992.8594,61.0469 Q993.125,61.2969 993.125,61.6406 Q993.125,61.9844 992.7813,62.3906 Q992.2813,62.9688 991.4844,63.2969 Q990.4063,63.75 989.1094,63.75 Q987.5938,63.75 986.3906,63.125 Q985.4063,62.625 984.7188,61.5625 Q984.0313,60.4844 984.0313,59.2031 L984.0313,58.0469 Q984.0313,56.7188 984.6406,55.5781 Q985.2656,54.4219 986.3594,53.8125 Q987.4531,53.1875 988.6875,53.1875 Q989.4219,53.1875 990.0625,53.3594 Q990.7188,53.5156 991.2656,53.875 Z " fill="#000000"/><text fill="#000000" font-family="sans-serif" font-size="14" lengthAdjust="spacing" textLength="141" x="1002.5" y="63.7285">StatementImplementor</text><line style="stroke:#181818;stroke-width:0.5;" x1="974.5" x2="1145.5" y1="74" y2="74"/><rect fill="none" height="6" style="stroke:#C82930;stroke-width:1.0;" width="6" x="981.5" y="85.3047"/><text fill="#000000" font-family="sans-serif" font-size="14" lengthAdjust="spacing" textLength="62" x="993.5" y="92.5332">statement</text><rect fill="none" height="6" style="stroke:#C82930;stroke-width:1.0;" width="6" x="981.5" y="102.9141"/><text fill="#000000" font-family="sans-serif" font-size="14" lengthAdjust="spacing" textLength="101" x="993.5" y="110.1426">solutions[target]</text><line style="stroke:#181818;stroke-width:0.5;" x1="974.5" x2="1145.5" y1="117.2188" y2="117.2188"/><ellipse cx="984.5" cy="131.5234" fill="#84BE84" rx="3" ry="3" style="stroke:#038048;stroke-width:1.0;"/><text fill="#000000" font-family="sans-serif" font-size="14" lengthAdjust="spacing" textLength="78" x="993.5" y="135.752">setOptions()</text><ellipse cx="984.5" cy="149.1328" fill="#84BE84" rx="3" ry="3" style="stroke:#038048;stroke-width:1.0;"/><text fill="#000000" font-family="sans-serif" font-size="14" lengthAdjust="spacing" textLength="104" x="993.5" y="153.3613">addToConcept()</text></g><!--MD5=[9d451b2f92d848a8e2d1a4dab2b1c6bf]
class Concept--><g id="elem_Concept"><rect codeLine="2" fill="#F1F1F1" height="118.4375" id="Concept" rx="2.5" ry="2.5" style="stroke:#181818;stroke-width:0.5;" width="102" x="1440" y="416"/><ellipse cx="1462.65" cy="432" fill="#ADD1B2" rx="11" ry="11" style="stroke:#181818;stroke-width:1.0;"/><path d="M1465.4156,427.875 Q1465.5719,427.6563 1465.7594,427.5469 Q1465.9469,427.4375 1466.1656,427.4375 Q1466.5406,427.4375 1466.775,427.7031 Q1467.0094,427.9531 1467.0094,428.5625 L1467.0094,430.0156 Q1467.0094,430.625 1466.775,430.8906 Q1466.5406,431.1563 1466.1656,431.1563 Q1465.8219,431.1563 1465.6188,430.9531 Q1465.4156,430.7656 1465.3063,430.25 Q1465.2594,429.8906 1465.0719,429.7031 Q1464.7438,429.3281 1464.1344,429.1094 Q1463.525,428.8906 1462.9,428.8906 Q1462.1344,428.8906 1461.4938,429.2188 Q1460.8688,429.5469 1460.3688,430.2969 Q1459.8844,431.0469 1459.8844,432.0781 L1459.8844,433.1719 Q1459.8844,434.4063 1460.775,435.2344 Q1461.6656,436.0469 1463.2594,436.0469 Q1464.1969,436.0469 1464.8531,435.7969 Q1465.2438,435.6406 1465.6656,435.2031 Q1465.9313,434.9375 1466.0719,434.8594 Q1466.2281,434.7813 1466.4313,434.7813 Q1466.7594,434.7813 1467.0094,435.0469 Q1467.275,435.2969 1467.275,435.6406 Q1467.275,435.9844 1466.9313,436.3906 Q1466.4313,436.9688 1465.6344,437.2969 Q1464.5563,437.75 1463.2594,437.75 Q1461.7438,437.75 1460.5406,437.125 Q1459.5563,436.625 1458.8688,435.5625 Q1458.1813,434.4844 1458.1813,433.2031 L1458.1813,432.0469 Q1458.1813,430.7188 1458.7906,429.5781 Q1459.4156,428.4219 1460.5094,427.8125 Q1461.6031,427.1875 1462.8375,427.1875 Q1463.5719,427.1875 1464.2125,427.3594 Q1464.8688,427.5156 1465.4156,427.875 Z " fill="#000000"/><text fill="#000000" font-family="sans-serif" font-size="14" lengthAdjust="spacing" textLength="53" x="1478.35" y="437.7285">Concept</text><line style="stroke:#181818;stroke-width:0.5;" x1="1441" x2="1541" y1="448" y2="448"/><rect fill="none" height="6" style="stroke:#C82930;stroke-width:1.0;" width="6" x="1448" y="459.3047"/><text fill="#000000" font-family="sans-serif" font-size="14" lengthAdjust="spacing" textLength="52" x="1460" y="466.5332">keyword</text><rect fill="none" height="6" style="stroke:#C82930;stroke-width:1.0;" width="6" x="1448" y="476.9141"/><text fill="#000000" font-family="sans-serif" font-size="14" lengthAdjust="spacing" textLength="76" x="1460" y="484.1426">definitions[ ]</text><rect fill="none" height="6" style="stroke:#C82930;stroke-width:1.0;" width="6" x="1448" y="494.5234"/><text fill="#000000" font-family="sans-serif" font-size="14" lengthAdjust="spacing" textLength="66" x="1460" y="501.752">relations[ ]</text><rect fill="none" height="6" style="stroke:#C82930;stroke-width:1.0;" width="6" x="1448" y="512.1328"/><text fill="#000000" font-family="sans-serif" font-size="14" lengthAdjust="spacing" textLength="73" x="1460" y="519.3613">questions[ ]</text><line style="stroke:#181818;stroke-width:0.5;" x1="1441" x2="1541" y1="526.4375" y2="526.4375"/></g><!--MD5=[af22135d5be6ed11ccd2d02fa51653b3]
class Definition--><g id="elem_Definition"><rect codeLine="9" fill="#F1F1F1" height="83.2188" id="Definition" rx="2.5" ry="2.5" style="stroke:#181818;stroke-width:0.5;" width="91" x="1383.5" y="603"/><ellipse cx="1398.5" cy="619" fill="#ADD1B2" rx="11" ry="11" style="stroke:#181818;stroke-width:1.0;"/><path d="M1401.2656,614.875 Q1401.4219,614.6563 1401.6094,614.5469 Q1401.7969,614.4375 1402.0156,614.4375 Q1402.3906,614.4375 1402.625,614.7031 Q1402.8594,614.9531 1402.8594,615.5625 L1402.8594,617.0156 Q1402.8594,617.625 1402.625,617.8906 Q1402.3906,618.1563 1402.0156,618.1563 Q1401.6719,618.1563 1401.4688,617.9531 Q1401.2656,617.7656 1401.1563,617.25 Q1401.1094,616.8906 1400.9219,616.7031 Q1400.5938,616.3281 1399.9844,616.1094 Q1399.375,615.8906 1398.75,615.8906 Q1397.9844,615.8906 1397.3438,616.2188 Q1396.7188,616.5469 1396.2188,617.2969 Q1395.7344,618.0469 1395.7344,619.0781 L1395.7344,620.1719 Q1395.7344,621.4063 1396.625,622.2344 Q1397.5156,623.0469 1399.1094,623.0469 Q1400.0469,623.0469 1400.7031,622.7969 Q1401.0938,622.6406 1401.5156,622.2031 Q1401.7813,621.9375 1401.9219,621.8594 Q1402.0781,621.7813 1402.2813,621.7813 Q1402.6094,621.7813 1402.8594,622.0469 Q1403.125,622.2969 1403.125,622.6406 Q1403.125,622.9844 1402.7813,623.3906 Q1402.2813,623.9688 1401.4844,624.2969 Q1400.4063,624.75 1399.1094,624.75 Q1397.5938,624.75 1396.3906,624.125 Q1395.4063,623.625 1394.7188,622.5625 Q1394.0313,621.4844 1394.0313,620.2031 L1394.0313,619.0469 Q1394.0313,617.7188 1394.6406,616.5781 Q1395.2656,615.4219 1396.3594,614.8125 Q1397.4531,614.1875 1398.6875,614.1875 Q1399.4219,614.1875 1400.0625,614.3594 Q1400.7188,614.5156 1401.2656,614.875 Z " fill="#000000"/><text fill="#000000" font-family="sans-serif" font-size="14" lengthAdjust="spacing" textLength="59" x="1412.5" y="624.7285">Definition</text><line style="stroke:#181818;stroke-width:0.5;" x1="1384.5" x2="1473.5" y1="635" y2="635"/><rect fill="none" height="6" style="stroke:#C82930;stroke-width:1.0;" width="6" x="1391.5" y="646.3047"/><text fill="#000000" font-family="sans-serif" font-size="14" lengthAdjust="spacing" textLength="47" x="1403.5" y="653.5332">content</text><rect fill="none" height="6" style="stroke:#C82930;stroke-width:1.0;" width="6" x="1391.5" y="663.9141"/><text fill="#000000" font-family="sans-serif" font-size="14" lengthAdjust="spacing" textLength="42" x="1403.5" y="671.1426">isFake</text><line style="stroke:#181818;stroke-width:0.5;" x1="1384.5" x2="1473.5" y1="678.2188" y2="678.2188"/></g><!--MD5=[534474e9f05b14d7c70186ae077f30e0]
class Relation--><g id="elem_Relation"><rect codeLine="14" fill="#F1F1F1" height="100.8281" id="Relation" rx="2.5" ry="2.5" style="stroke:#181818;stroke-width:0.5;" width="86" x="1510" y="594"/><ellipse cx="1525.9" cy="610" fill="#ADD1B2" rx="11" ry="11" style="stroke:#181818;stroke-width:1.0;"/><path d="M1528.6656,605.875 Q1528.8219,605.6563 1529.0094,605.5469 Q1529.1969,605.4375 1529.4156,605.4375 Q1529.7906,605.4375 1530.025,605.7031 Q1530.2594,605.9531 1530.2594,606.5625 L1530.2594,608.0156 Q1530.2594,608.625 1530.025,608.8906 Q1529.7906,609.1563 1529.4156,609.1563 Q1529.0719,609.1563 1528.8688,608.9531 Q1528.6656,608.7656 1528.5563,608.25 Q1528.5094,607.8906 1528.3219,607.7031 Q1527.9938,607.3281 1527.3844,607.1094 Q1526.775,606.8906 1526.15,606.8906 Q1525.3844,606.8906 1524.7438,607.2188 Q1524.1188,607.5469 1523.6188,608.2969 Q1523.1344,609.0469 1523.1344,610.0781 L1523.1344,611.1719 Q1523.1344,612.4063 1524.025,613.2344 Q1524.9156,614.0469 1526.5094,614.0469 Q1527.4469,614.0469 1528.1031,613.7969 Q1528.4938,613.6406 1528.9156,613.2031 Q1529.1813,612.9375 1529.3219,612.8594 Q1529.4781,612.7813 1529.6813,612.7813 Q1530.0094,612.7813 1530.2594,613.0469 Q1530.525,613.2969 1530.525,613.6406 Q1530.525,613.9844 1530.1813,614.3906 Q1529.6813,614.9688 1528.8844,615.2969 Q1527.8063,615.75 1526.5094,615.75 Q1524.9938,615.75 1523.7906,615.125 Q1522.8063,614.625 1522.1188,613.5625 Q1521.4313,612.4844 1521.4313,611.2031 L1521.4313,610.0469 Q1521.4313,608.7188 1522.0406,607.5781 Q1522.6656,606.4219 1523.7594,605.8125 Q1524.8531,605.1875 1526.0875,605.1875 Q1526.8219,605.1875 1527.4625,605.3594 Q1528.1188,605.5156 1528.6656,605.875 Z " fill="#000000"/><text fill="#000000" font-family="sans-serif" font-size="14" lengthAdjust="spacing" textLength="52" x="1540.1" y="615.7285">Relation</text><line style="stroke:#181818;stroke-width:0.5;" x1="1511" x2="1595" y1="626" y2="626"/><rect fill="none" height="6" style="stroke:#C82930;stroke-width:1.0;" width="6" x="1518" y="637.3047"/><text fill="#000000" font-family="sans-serif" font-size="14" lengthAdjust="spacing" textLength="42" x="1530" y="644.5332">isFake</text><rect fill="none" height="6" style="stroke:#C82930;stroke-width:1.0;" width="6" x="1518" y="654.9141"/><text fill="#000000" font-family="sans-serif" font-size="14" lengthAdjust="spacing" textLength="50" x="1530" y="662.1426">concept</text><rect fill="none" height="6" style="stroke:#C82930;stroke-width:1.0;" width="6" x="1518" y="672.5234"/><text fill="#000000" font-family="sans-serif" font-size="14" lengthAdjust="spacing" textLength="60" x="1530" y="679.752">isAfferent</text><line style="stroke:#181818;stroke-width:0.5;" x1="1511" x2="1595" y1="686.8281" y2="686.8281"/></g><!--MD5=[9c239722e256878d27dcbb07783cc14f]
class Classification--><g id="elem_Classification"><rect codeLine="20" fill="#F1F1F1" height="48" id="Classification" rx="2.5" ry="2.5" style="stroke:#181818;stroke-width:0.5;" width="115" x="1421.5" y="755"/><ellipse cx="1436.5" cy="771" fill="#ADD1B2" rx="11" ry="11" style="stroke:#181818;stroke-width:1.0;"/><path d="M1439.2656,766.875 Q1439.4219,766.6563 1439.6094,766.5469 Q1439.7969,766.4375 1440.0156,766.4375 Q1440.3906,766.4375 1440.625,766.7031 Q1440.8594,766.9531 1440.8594,767.5625 L1440.8594,769.0156 Q1440.8594,769.625 1440.625,769.8906 Q1440.3906,770.1563 1440.0156,770.1563 Q1439.6719,770.1563 1439.4688,769.9531 Q1439.2656,769.7656 1439.1563,769.25 Q1439.1094,768.8906 1438.9219,768.7031 Q1438.5938,768.3281 1437.9844,768.1094 Q1437.375,767.8906 1436.75,767.8906 Q1435.9844,767.8906 1435.3438,768.2188 Q1434.7188,768.5469 1434.2188,769.2969 Q1433.7344,770.0469 1433.7344,771.0781 L1433.7344,772.1719 Q1433.7344,773.4063 1434.625,774.2344 Q1435.5156,775.0469 1437.1094,775.0469 Q1438.0469,775.0469 1438.7031,774.7969 Q1439.0938,774.6406 1439.5156,774.2031 Q1439.7813,773.9375 1439.9219,773.8594 Q1440.0781,773.7813 1440.2813,773.7813 Q1440.6094,773.7813 1440.8594,774.0469 Q1441.125,774.2969 1441.125,774.6406 Q1441.125,774.9844 1440.7813,775.3906 Q1440.2813,775.9688 1439.4844,776.2969 Q1438.4063,776.75 1437.1094,776.75 Q1435.5938,776.75 1434.3906,776.125 Q1433.4063,775.625 1432.7188,774.5625 Q1432.0313,773.4844 1432.0313,772.2031 L1432.0313,771.0469 Q1432.0313,769.7188 1432.6406,768.5781 Q1433.2656,767.4219 1434.3594,766.8125 Q1435.4531,766.1875 1436.6875,766.1875 Q1437.4219,766.1875 1438.0625,766.3594 Q1438.7188,766.5156 1439.2656,766.875 Z " fill="#000000"/><text fill="#000000" font-family="sans-serif" font-size="14" lengthAdjust="spacing" textLength="83" x="1450.5" y="776.7285">Classification</text><line style="stroke:#181818;stroke-width:0.5;" x1="1422.5" x2="1535.5" y1="787" y2="787"/><line style="stroke:#181818;stroke-width:0.5;" x1="1422.5" x2="1535.5" y1="795" y2="795"/></g><!--MD5=[251454e98c15f29849fb35b1904d0020]
class Composition--><g id="elem_Composition"><rect codeLine="22" fill="#F1F1F1" height="48" id="Composition" rx="2.5" ry="2.5" style="stroke:#181818;stroke-width:0.5;" width="110" x="1572" y="755"/><ellipse cx="1587" cy="771" fill="#ADD1B2" rx="11" ry="11" style="stroke:#181818;stroke-width:1.0;"/><path d="M1589.7656,766.875 Q1589.9219,766.6563 1590.1094,766.5469 Q1590.2969,766.4375 1590.5156,766.4375 Q1590.8906,766.4375 1591.125,766.7031 Q1591.3594,766.9531 1591.3594,767.5625 L1591.3594,769.0156 Q1591.3594,769.625 1591.125,769.8906 Q1590.8906,770.1563 1590.5156,770.1563 Q1590.1719,770.1563 1589.9688,769.9531 Q1589.7656,769.7656 1589.6563,769.25 Q1589.6094,768.8906 1589.4219,768.7031 Q1589.0938,768.3281 1588.4844,768.1094 Q1587.875,767.8906 1587.25,767.8906 Q1586.4844,767.8906 1585.8438,768.2188 Q1585.2188,768.5469 1584.7188,769.2969 Q1584.2344,770.0469 1584.2344,771.0781 L1584.2344,772.1719 Q1584.2344,773.4063 1585.125,774.2344 Q1586.0156,775.0469 1587.6094,775.0469 Q1588.5469,775.0469 1589.2031,774.7969 Q1589.5938,774.6406 1590.0156,774.2031 Q1590.2813,773.9375 1590.4219,773.8594 Q1590.5781,773.7813 1590.7813,773.7813 Q1591.1094,773.7813 1591.3594,774.0469 Q1591.625,774.2969 1591.625,774.6406 Q1591.625,774.9844 1591.2813,775.3906 Q1590.7813,775.9688 1589.9844,776.2969 Q1588.9063,776.75 1587.6094,776.75 Q1586.0938,776.75 1584.8906,776.125 Q1583.9063,775.625 1583.2188,774.5625 Q1582.5313,773.4844 1582.5313,772.2031 L1582.5313,771.0469 Q1582.5313,769.7188 1583.1406,768.5781 Q1583.7656,767.4219 1584.8594,766.8125 Q1585.9531,766.1875 1587.1875,766.1875 Q1587.9219,766.1875 1588.5625,766.3594 Q1589.2188,766.5156 1589.7656,766.875 Z " fill="#000000"/><text fill="#000000" font-family="sans-serif" font-size="14" lengthAdjust="spacing" textLength="78" x="1601" y="776.7285">Composition</text><line style="stroke:#181818;stroke-width:0.5;" x1="1573" x2="1681" y1="787" y2="787"/><line style="stroke:#181818;stroke-width:0.5;" x1="1573" x2="1681" y1="795" y2="795"/></g><!--MD5=[c5be3d7e9ffcf6502258095b57411394]
class OpenQuestion--><g id="elem_OpenQuestion"><rect codeLine="41" fill="#F1F1F1" height="83.2188" id="OpenQuestion" rx="2.5" ry="2.5" style="stroke:#181818;stroke-width:0.5;" width="274" x="7" y="246.5"/><ellipse cx="30.55" cy="262.5" fill="#A9DCDF" rx="11" ry="11" style="stroke:#181818;stroke-width:1.0;"/><path d="M32.7375,264.2656 L28.5969,264.2656 L28.175,265.2969 L28.5969,265.2969 Q29.2063,265.2969 29.4719,265.5313 Q29.7375,265.7656 29.7375,266.1563 Q29.7375,266.5313 29.4719,266.7656 Q29.2063,267 28.5969,267 L26.3,267 Q25.6906,267 25.4406,266.7656 Q25.175,266.5313 25.175,266.1406 Q25.175,265.7656 25.4563,265.5313 Q25.7219,265.2813 26.3469,265.2969 L29.0188,258.6406 L27.9094,258.6406 Q27.3,258.6406 27.0344,258.4063 Q26.7688,258.1719 26.7688,257.7813 Q26.7688,257.4063 27.0344,257.1719 Q27.3,256.9375 27.9094,256.9375 L31.5813,256.9375 L34.9719,265.2969 Q35.5656,265.2969 35.7531,265.4375 Q36.1438,265.7031 36.1438,266.1563 Q36.1438,266.5313 35.8781,266.7656 Q35.6281,267 35.0188,267 L32.7219,267 Q32.1125,267 31.8469,266.7656 Q31.5813,266.5313 31.5813,266.1406 Q31.5813,265.7656 31.8469,265.5313 Q32.1125,265.2969 32.7219,265.2969 L33.1438,265.2969 L32.7375,264.2656 Z M32.0188,262.5625 L30.6594,259.1875 L29.2844,262.5625 L32.0188,262.5625 Z " fill="#000000"/><text fill="#000000" font-family="sans-serif" font-size="14" font-style="italic" lengthAdjust="spacing" textLength="92" x="46.45" y="268.2285">OpenQuestion</text><rect fill="#FFFFFF" height="17.0938" style="stroke:#181818;stroke-width:1.0;stroke-dasharray:2.0,2.0;" width="129" x="155" y="243.5"/><text fill="#000000" font-family="sans-serif" font-size="12" font-style="italic" lengthAdjust="spacing" textLength="127" x="156" y="256.957">StatementImplementor</text><line style="stroke:#181818;stroke-width:0.5;" x1="8" x2="280" y1="278.5" y2="278.5"/><rect fill="none" height="6" style="stroke:#C82930;stroke-width:1.0;" width="6" x="15" y="289.8047"/><text fill="#000000" font-family="sans-serif" font-size="14" lengthAdjust="spacing" textLength="138" x="27" y="297.0332">answers[openAnswer]</text><line style="stroke:#181818;stroke-width:0.5;" x1="8" x2="280" y1="304.1094" y2="304.1094"/><ellipse cx="18" cy="318.4141" fill="#84BE84" rx="3" ry="3" style="stroke:#038048;stroke-width:1.0;"/><text fill="#000000" font-family="sans-serif" font-size="14" lengthAdjust="spacing" textLength="248" x="27" y="322.6426">addToSolutions(statementImplementor)</text></g><!--MD5=[54a8e627be4ee6aab370a2a8960cc8d7]
class OpenAnswer--><g id="elem_OpenAnswer"><rect codeLine="46" fill="#F1F1F1" height="83.2188" id="OpenAnswer" rx="2.5" ry="2.5" style="stroke:#181818;stroke-width:0.5;" width="115" x="157.5" y="433.5"/><ellipse cx="173.4" cy="449.5" fill="#ADD1B2" rx="11" ry="11" style="stroke:#181818;stroke-width:1.0;"/><path d="M176.1656,445.375 Q176.3219,445.1563 176.5094,445.0469 Q176.6969,444.9375 176.9156,444.9375 Q177.2906,444.9375 177.525,445.2031 Q177.7594,445.4531 177.7594,446.0625 L177.7594,447.5156 Q177.7594,448.125 177.525,448.3906 Q177.2906,448.6563 176.9156,448.6563 Q176.5719,448.6563 176.3688,448.4531 Q176.1656,448.2656 176.0563,447.75 Q176.0094,447.3906 175.8219,447.2031 Q175.4938,446.8281 174.8844,446.6094 Q174.275,446.3906 173.65,446.3906 Q172.8844,446.3906 172.2438,446.7188 Q171.6188,447.0469 171.1188,447.7969 Q170.6344,448.5469 170.6344,449.5781 L170.6344,450.6719 Q170.6344,451.9063 171.525,452.7344 Q172.4156,453.5469 174.0094,453.5469 Q174.9469,453.5469 175.6031,453.2969 Q175.9938,453.1406 176.4156,452.7031 Q176.6813,452.4375 176.8219,452.3594 Q176.9781,452.2813 177.1813,452.2813 Q177.5094,452.2813 177.7594,452.5469 Q178.025,452.7969 178.025,453.1406 Q178.025,453.4844 177.6813,453.8906 Q177.1813,454.4688 176.3844,454.7969 Q175.3063,455.25 174.0094,455.25 Q172.4938,455.25 171.2906,454.625 Q170.3063,454.125 169.6188,453.0625 Q168.9313,451.9844 168.9313,450.7031 L168.9313,449.5469 Q168.9313,448.2188 169.5406,447.0781 Q170.1656,445.9219 171.2594,445.3125 Q172.3531,444.6875 173.5875,444.6875 Q174.3219,444.6875 174.9625,444.8594 Q175.6188,445.0156 176.1656,445.375 Z " fill="#000000"/><text fill="#000000" font-family="sans-serif" font-size="14" lengthAdjust="spacing" textLength="81" x="187.6" y="455.2285">OpenAnswer</text><line style="stroke:#181818;stroke-width:0.5;" x1="158.5" x2="271.5" y1="465.5" y2="465.5"/><rect fill="none" height="6" style="stroke:#C82930;stroke-width:1.0;" width="6" x="165.5" y="476.8047"/><text fill="#000000" font-family="sans-serif" font-size="14" lengthAdjust="spacing" textLength="47" x="177.5" y="484.0332">content</text><rect fill="none" height="6" style="stroke:#C82930;stroke-width:1.0;" width="6" x="165.5" y="494.4141"/><text fill="#000000" font-family="sans-serif" font-size="14" lengthAdjust="spacing" textLength="89" x="177.5" y="501.6426">isEvaluatedBy</text><line style="stroke:#181818;stroke-width:0.5;" x1="158.5" x2="271.5" y1="508.7188" y2="508.7188"/></g><!--MD5=[46bd26b9d192b770379839f45ce3e013]
class MultipleChoiceQuestion--><g id="elem_MultipleChoiceQuestion"><rect codeLine="51" fill="#F1F1F1" height="100.8281" id="MultipleChoiceQuestion" rx="2.5" ry="2.5" style="stroke:#181818;stroke-width:0.5;" width="313" x="469.5" y="237.5"/><ellipse cx="484.5" cy="253.5" fill="#A9DCDF" rx="11" ry="11" style="stroke:#181818;stroke-width:1.0;"/><path d="M486.6875,255.2656 L482.5469,255.2656 L482.125,256.2969 L482.5469,256.2969 Q483.1563,256.2969 483.4219,256.5313 Q483.6875,256.7656 483.6875,257.1563 Q483.6875,257.5313 483.4219,257.7656 Q483.1563,258 482.5469,258 L480.25,258 Q479.6406,258 479.3906,257.7656 Q479.125,257.5313 479.125,257.1406 Q479.125,256.7656 479.4063,256.5313 Q479.6719,256.2813 480.2969,256.2969 L482.9688,249.6406 L481.8594,249.6406 Q481.25,249.6406 480.9844,249.4063 Q480.7188,249.1719 480.7188,248.7813 Q480.7188,248.4063 480.9844,248.1719 Q481.25,247.9375 481.8594,247.9375 L485.5313,247.9375 L488.9219,256.2969 Q489.5156,256.2969 489.7031,256.4375 Q490.0938,256.7031 490.0938,257.1563 Q490.0938,257.5313 489.8281,257.7656 Q489.5781,258 488.9688,258 L486.6719,258 Q486.0625,258 485.7969,257.7656 Q485.5313,257.5313 485.5313,257.1406 Q485.5313,256.7656 485.7969,256.5313 Q486.0625,256.2969 486.6719,256.2969 L487.0938,256.2969 L486.6875,255.2656 Z M485.9688,253.5625 L484.6094,250.1875 L483.2344,253.5625 L485.9688,253.5625 Z " fill="#000000"/><text fill="#000000" font-family="sans-serif" font-size="14" font-style="italic" lengthAdjust="spacing" textLength="150" x="498.5" y="259.2285">MultipleChoiceQuestion</text><rect fill="#FFFFFF" height="17.0938" style="stroke:#181818;stroke-width:1.0;stroke-dasharray:2.0,2.0;" width="129" x="656.5" y="234.5"/><text fill="#000000" font-family="sans-serif" font-size="12" font-style="italic" lengthAdjust="spacing" textLength="127" x="657.5" y="247.957">StatementImplementor</text><line style="stroke:#181818;stroke-width:0.5;" x1="470.5" x2="781.5" y1="269.5" y2="269.5"/><rect fill="none" height="6" style="stroke:#C82930;stroke-width:1.0;" width="6" x="477.5" y="280.8047"/><text fill="#000000" font-family="sans-serif" font-size="14" lengthAdjust="spacing" textLength="46" x="489.5" y="288.0332">options</text><rect fill="none" height="6" style="stroke:#C82930;stroke-width:1.0;" width="6" x="477.5" y="298.4141"/><text fill="#000000" font-family="sans-serif" font-size="14" lengthAdjust="spacing" textLength="155" x="489.5" y="305.6426">answers[selectedOption]</text><line style="stroke:#181818;stroke-width:0.5;" x1="470.5" x2="781.5" y1="312.7188" y2="312.7188"/><ellipse cx="480.5" cy="327.0234" fill="#84BE84" rx="3" ry="3" style="stroke:#038048;stroke-width:1.0;"/><text fill="#000000" font-family="sans-serif" font-size="14" lengthAdjust="spacing" textLength="217" x="489.5" y="331.252">setOptions(statementImplementor)</text></g><!--MD5=[b07065dfc0d0e09965ec10bfc328bb3e]
class Option--><g id="elem_Option"><rect codeLine="57" fill="#F1F1F1" height="83.2188" id="Option" rx="2.5" ry="2.5" style="stroke:#181818;stroke-width:0.5;" width="74" x="589" y="433.5"/><ellipse cx="604" cy="449.5" fill="#ADD1B2" rx="11" ry="11" style="stroke:#181818;stroke-width:1.0;"/><path d="M606.7656,445.375 Q606.9219,445.1563 607.1094,445.0469 Q607.2969,444.9375 607.5156,444.9375 Q607.8906,444.9375 608.125,445.2031 Q608.3594,445.4531 608.3594,446.0625 L608.3594,447.5156 Q608.3594,448.125 608.125,448.3906 Q607.8906,448.6563 607.5156,448.6563 Q607.1719,448.6563 606.9688,448.4531 Q606.7656,448.2656 606.6563,447.75 Q606.6094,447.3906 606.4219,447.2031 Q606.0938,446.8281 605.4844,446.6094 Q604.875,446.3906 604.25,446.3906 Q603.4844,446.3906 602.8438,446.7188 Q602.2188,447.0469 601.7188,447.7969 Q601.2344,448.5469 601.2344,449.5781 L601.2344,450.6719 Q601.2344,451.9063 602.125,452.7344 Q603.0156,453.5469 604.6094,453.5469 Q605.5469,453.5469 606.2031,453.2969 Q606.5938,453.1406 607.0156,452.7031 Q607.2813,452.4375 607.4219,452.3594 Q607.5781,452.2813 607.7813,452.2813 Q608.1094,452.2813 608.3594,452.5469 Q608.625,452.7969 608.625,453.1406 Q608.625,453.4844 608.2813,453.8906 Q607.7813,454.4688 606.9844,454.7969 Q605.9063,455.25 604.6094,455.25 Q603.0938,455.25 601.8906,454.625 Q600.9063,454.125 600.2188,453.0625 Q599.5313,451.9844 599.5313,450.7031 L599.5313,449.5469 Q599.5313,448.2188 600.1406,447.0781 Q600.7656,445.9219 601.8594,445.3125 Q602.9531,444.6875 604.1875,444.6875 Q604.9219,444.6875 605.5625,444.8594 Q606.2188,445.0156 606.7656,445.375 Z " fill="#000000"/><text fill="#000000" font-family="sans-serif" font-size="14" lengthAdjust="spacing" textLength="42" x="618" y="455.2285">Option</text><line style="stroke:#181818;stroke-width:0.5;" x1="590" x2="662" y1="465.5" y2="465.5"/><rect fill="none" height="6" style="stroke:#C82930;stroke-width:1.0;" width="6" x="597" y="476.8047"/><text fill="#000000" font-family="sans-serif" font-size="14" lengthAdjust="spacing" textLength="47" x="609" y="484.0332">content</text><rect fill="none" height="6" style="stroke:#C82930;stroke-width:1.0;" width="6" x="597" y="494.4141"/><text fill="#000000" font-family="sans-serif" font-size="14" lengthAdjust="spacing" textLength="42" x="609" y="501.6426">isFake</text><line style="stroke:#181818;stroke-width:0.5;" x1="590" x2="662" y1="508.7188" y2="508.7188"/></g><!--MD5=[38633193c2e0773a3f578a42f185257a]
class SelectedOptionAnswer--><g id="elem_SelectedOptionAnswer"><rect codeLine="62" fill="#F1F1F1" height="65.6094" id="SelectedOptionAnswer" rx="2.5" ry="2.5" style="stroke:#181818;stroke-width:0.5;" width="175" x="378.5" y="442"/><ellipse cx="393.5" cy="458" fill="#ADD1B2" rx="11" ry="11" style="stroke:#181818;stroke-width:1.0;"/><path d="M396.2656,453.875 Q396.4219,453.6563 396.6094,453.5469 Q396.7969,453.4375 397.0156,453.4375 Q397.3906,453.4375 397.625,453.7031 Q397.8594,453.9531 397.8594,454.5625 L397.8594,456.0156 Q397.8594,456.625 397.625,456.8906 Q397.3906,457.1563 397.0156,457.1563 Q396.6719,457.1563 396.4688,456.9531 Q396.2656,456.7656 396.1563,456.25 Q396.1094,455.8906 395.9219,455.7031 Q395.5938,455.3281 394.9844,455.1094 Q394.375,454.8906 393.75,454.8906 Q392.9844,454.8906 392.3438,455.2188 Q391.7188,455.5469 391.2188,456.2969 Q390.7344,457.0469 390.7344,458.0781 L390.7344,459.1719 Q390.7344,460.4063 391.625,461.2344 Q392.5156,462.0469 394.1094,462.0469 Q395.0469,462.0469 395.7031,461.7969 Q396.0938,461.6406 396.5156,461.2031 Q396.7813,460.9375 396.9219,460.8594 Q397.0781,460.7813 397.2813,460.7813 Q397.6094,460.7813 397.8594,461.0469 Q398.125,461.2969 398.125,461.6406 Q398.125,461.9844 397.7813,462.3906 Q397.2813,462.9688 396.4844,463.2969 Q395.4063,463.75 394.1094,463.75 Q392.5938,463.75 391.3906,463.125 Q390.4063,462.625 389.7188,461.5625 Q389.0313,460.4844 389.0313,459.2031 L389.0313,458.0469 Q389.0313,456.7188 389.6406,455.5781 Q390.2656,454.4219 391.3594,453.8125 Q392.4531,453.1875 393.6875,453.1875 Q394.4219,453.1875 395.0625,453.3594 Q395.7188,453.5156 396.2656,453.875 Z " fill="#000000"/><text fill="#000000" font-family="sans-serif" font-size="14" lengthAdjust="spacing" textLength="143" x="407.5" y="463.7285">SelectedOptionAnswer</text><line style="stroke:#181818;stroke-width:0.5;" x1="379.5" x2="552.5" y1="474" y2="474"/><rect fill="none" height="6" style="stroke:#C82930;stroke-width:1.0;" width="6" x="386.5" y="485.3047"/><text fill="#000000" font-family="sans-serif" font-size="14" lengthAdjust="spacing" textLength="39" x="398.5" y="492.5332">option</text><line style="stroke:#181818;stroke-width:0.5;" x1="379.5" x2="552.5" y1="499.6094" y2="499.6094"/></g><!--MD5=[f9fadfa5a66b7e5a67b370cd443ffe52]
class Answer--><g id="elem_Answer"><rect codeLine="66" fill="#F1F1F1" height="136.0469" id="Answer" rx="2.5" ry="2.5" style="stroke:#181818;stroke-width:0.5;" width="118" x="316" y="220"/><ellipse cx="349" cy="236" fill="#ADD1B2" rx="11" ry="11" style="stroke:#181818;stroke-width:1.0;"/><path d="M351.7656,231.875 Q351.9219,231.6563 352.1094,231.5469 Q352.2969,231.4375 352.5156,231.4375 Q352.8906,231.4375 353.125,231.7031 Q353.3594,231.9531 353.3594,232.5625 L353.3594,234.0156 Q353.3594,234.625 353.125,234.8906 Q352.8906,235.1563 352.5156,235.1563 Q352.1719,235.1563 351.9688,234.9531 Q351.7656,234.7656 351.6563,234.25 Q351.6094,233.8906 351.4219,233.7031 Q351.0938,233.3281 350.4844,233.1094 Q349.875,232.8906 349.25,232.8906 Q348.4844,232.8906 347.8438,233.2188 Q347.2188,233.5469 346.7188,234.2969 Q346.2344,235.0469 346.2344,236.0781 L346.2344,237.1719 Q346.2344,238.4063 347.125,239.2344 Q348.0156,240.0469 349.6094,240.0469 Q350.5469,240.0469 351.2031,239.7969 Q351.5938,239.6406 352.0156,239.2031 Q352.2813,238.9375 352.4219,238.8594 Q352.5781,238.7813 352.7813,238.7813 Q353.1094,238.7813 353.3594,239.0469 Q353.625,239.2969 353.625,239.6406 Q353.625,239.9844 353.2813,240.3906 Q352.7813,240.9688 351.9844,241.2969 Q350.9063,241.75 349.6094,241.75 Q348.0938,241.75 346.8906,241.125 Q345.9063,240.625 345.2188,239.5625 Q344.5313,238.4844 344.5313,237.2031 L344.5313,236.0469 Q344.5313,234.7188 345.1406,233.5781 Q345.7656,232.4219 346.8594,231.8125 Q347.9531,231.1875 349.1875,231.1875 Q349.9219,231.1875 350.5625,231.3594 Q351.2188,231.5156 351.7656,231.875 Z " fill="#000000"/><text fill="#000000" font-family="sans-serif" font-size="14" lengthAdjust="spacing" textLength="46" x="367" y="241.7285">Answer</text><line style="stroke:#181818;stroke-width:0.5;" x1="317" x2="433" y1="252" y2="252"/><rect fill="none" height="6" style="stroke:#C82930;stroke-width:1.0;" width="6" x="324" y="263.3047"/><text fill="#000000" font-family="sans-serif" font-size="14" lengthAdjust="spacing" textLength="83" x="336" y="270.5332">studentName</text><rect fill="none" height="6" style="stroke:#C82930;stroke-width:1.0;" width="6" x="324" y="280.9141"/><text fill="#000000" font-family="sans-serif" font-size="14" lengthAdjust="spacing" textLength="78" x="336" y="288.1426">createdDate</text><rect fill="none" height="6" style="stroke:#C82930;stroke-width:1.0;" width="6" x="324" y="298.5234"/><text fill="#000000" font-family="sans-serif" font-size="14" lengthAdjust="spacing" textLength="28" x="336" y="305.752">isOk</text><rect fill="none" height="6" style="stroke:#C82930;stroke-width:1.0;" width="6" x="324" y="316.1328"/><text fill="#000000" font-family="sans-serif" font-size="14" lengthAdjust="spacing" textLength="73" x="336" y="323.3613">isEvaluated</text><rect fill="none" height="6" style="stroke:#C82930;stroke-width:1.0;" width="6" x="324" y="333.7422"/><text fill="#000000" font-family="sans-serif" font-size="14" lengthAdjust="spacing" textLength="92" x="336" y="340.9707">evaluatedDate</text><line style="stroke:#181818;stroke-width:0.5;" x1="317" x2="433" y1="348.0469" y2="348.0469"/></g><!--MD5=[97481891219dae41f522c9ce6709b94d]
reverse link Question to StatementImplementor--><g id="link_Question_StatementImplementor"><path codeLine="91" d="M951.3,101 C958.64,101 965.99,101 973.33,101 " fill="none" id="Question-backto-StatementImplementor" style="stroke:#181818;stroke-width:1.0;"/><polygon fill="#181818" points="938.09,101,944.09,105,950.09,101,944.09,97,938.09,101" style="stroke:#181818;stroke-width:1.0;"/></g><!--MD5=[e68d8486b151d64b61c7f5b6e40a3de9]
reverse link Question to OpenQuestion--><g id="link_Question_OpenQuestion"><path codeLine="92" d="M679.76,117.07 C573.23,131.4 423.88,157.62 299,202.5 C267.71,213.75 235.1,230.64 207.91,246.37 " fill="none" id="Question-backto-OpenQuestion" style="stroke:#181818;stroke-width:1.0;"/><polygon fill="none" points="679.07,110.1,699.81,114.44,680.89,123.98,679.07,110.1" style="stroke:#181818;stroke-width:1.0;"/></g><!--MD5=[5ea4867893d7a476c54f91c2252dd0f8]
reverse link Question to MultipleChoiceQuestion--><g id="link_Question_MultipleChoiceQuestion"><path codeLine="93" d="M743.86,174.02 C721.79,195.18 698.14,217.85 677.87,237.28 " fill="none" id="Question-backto-MultipleChoiceQuestion" style="stroke:#181818;stroke-width:1.0;"/><polygon fill="none" points="739.18,168.81,758.46,160.03,748.87,178.92,739.18,168.81" style="stroke:#181818;stroke-width:1.0;"/></g><!--MD5=[ddd0ba9ff0adad4c5f8027dfa32b4028]
reverse link OpenQuestion to OpenAnswer--><g id="link_OpenQuestion_OpenAnswer"><path codeLine="95" d="M164.36,342.05 C175.52,371.14 189.15,406.65 199.46,433.5 " fill="none" id="OpenQuestion-backto-OpenAnswer" style="stroke:#181818;stroke-width:1.0;"/><polygon fill="none" points="159.58,329.6,157.9938,336.6345,163.8771,340.8042,165.4633,333.7697,159.58,329.6" style="stroke:#181818;stroke-width:1.0;"/><text fill="#000000" font-family="sans-serif" font-size="13" lengthAdjust="spacing" textLength="22" x="172.8984" y="422.4987">0..n</text></g><!--MD5=[185adfbec1fc38ddaede86a7c2f0e161]
reverse link MultipleChoiceQuestion to Option--><g id="link_MultipleChoiceQuestion_Option"><path codeLine="96" d="M626,351.85 C626,378.78 626,409.46 626,433.34 " fill="none" id="MultipleChoiceQuestion-backto-Option" style="stroke:#181818;stroke-width:1.0;"/><polygon fill="none" points="626,338.58,622,344.58,626,350.58,630,344.58,626,338.58" style="stroke:#181818;stroke-width:1.0;"/><text fill="#000000" font-family="sans-serif" font-size="13" lengthAdjust="spacing" textLength="26" x="597.8469" y="422.6212">2..m</text></g><!--MD5=[7fd1c776f442e0d30b85a4710aa30f93]
reverse link MultipleChoiceQuestion to SelectedOptionAnswer--><g id="link_MultipleChoiceQuestion_SelectedOptionAnswer"><path codeLine="97" d="M574.61,348.41 C547.82,379.4 516.09,416.08 493.87,441.78 " fill="none" id="MultipleChoiceQuestion-backto-SelectedOptionAnswer" style="stroke:#181818;stroke-width:1.0;"/><polygon fill="none" points="583.12,338.58,576.1681,340.496,575.2628,347.65,582.2148,345.7341,583.12,338.58" style="stroke:#181818;stroke-width:1.0;"/><text fill="#000000" font-family="sans-serif" font-size="13" lengthAdjust="spacing" textLength="22" x="475.1913" y="431.233">0..n</text></g><!--MD5=[f09af3287b5f29e7742fae9c1dd502dc]
reverse link SelectedOptionAnswer to Option--><g id="link_SelectedOptionAnswer_Option"><path codeLine="98" d="M566.92,475 C574.21,475 581.49,475 588.78,475 " fill="none" id="SelectedOptionAnswer-backto-Option" style="stroke:#181818;stroke-width:1.0;"/><polygon fill="#181818" points="553.81,475,559.81,479,565.81,475,559.81,471,553.81,475" style="stroke:#181818;stroke-width:1.0;"/></g><!--MD5=[d836dd5f24b2050a0870c879f4cc72e6]
reverse link Answer to OpenAnswer--><g id="link_Answer_OpenAnswer"><path codeLine="99" d="M303.68,371.46 C285.15,392.89 265.98,415.05 250.23,433.26 " fill="none" id="Answer-backto-OpenAnswer" style="stroke:#181818;stroke-width:1.0;"/><polygon fill="none" points="298.63,366.6,317.01,356.05,309.22,375.76,298.63,366.6" style="stroke:#181818;stroke-width:1.0;"/></g><!--MD5=[f0b095eb9d8ac83344dc19dd00411ad6]
reverse link Answer to SelectedOptionAnswer--><g id="link_Answer_SelectedOptionAnswer"><path codeLine="100" d="M416.92,374.23 C428.77,398.32 440.94,423.06 450.2,441.88 " fill="none" id="Answer-backto-SelectedOptionAnswer" style="stroke:#181818;stroke-width:1.0;"/><polygon fill="none" points="410.53,377.09,407.98,356.05,423.09,370.91,410.53,377.09" style="stroke:#181818;stroke-width:1.0;"/></g><!--MD5=[e5a63bd9ed272c01ba887d01c6f52680]
link DefinitionStatement to Concept--><g id="link_DefinitionStatement_Concept"><path codeLine="102" d="M1022.14,329.52 C1042.09,338.85 1063.6,348.29 1084,356 C1206.38,402.28 1355.15,441.21 1434.58,460.66 " fill="none" id="DefinitionStatement-to-Concept" style="stroke:#181818;stroke-width:1.0;stroke-dasharray:7.0,7.0;"/><polygon fill="#181818" points="1439.71,461.91,1431.9154,455.8897,1434.8526,460.7242,1430.0181,463.6615,1439.71,461.91" style="stroke:#181818;stroke-width:1.0;"/></g><!--MD5=[35bc999f88bc6720501e9c45f5233a26]
link ClassificationStatement to Concept--><g id="link_ClassificationStatement_Concept"><path codeLine="103" d="M1640.86,329.6 C1612.97,356.48 1576.1,392.01 1545.91,421.09 " fill="none" id="ClassificationStatement-to-Concept" style="stroke:#181818;stroke-width:1.0;stroke-dasharray:7.0,7.0;"/><polygon fill="#181818" points="1542.26,424.61,1551.5151,421.2422,1545.8592,421.1393,1545.9621,415.4834,1542.26,424.61" style="stroke:#181818;stroke-width:1.0;"/></g><!--MD5=[2b18f49196a26fa6cb8de53644dce308]
link CompositionStatement to Concept--><g id="link_CompositionStatement_Concept"><path codeLine="104" d="M1341.92,329.6 C1369.56,356.38 1406.07,391.74 1436.04,420.76 " fill="none" id="CompositionStatement-to-Concept" style="stroke:#181818;stroke-width:1.0;stroke-dasharray:7.0,7.0;"/><polygon fill="#181818" points="1439.66,424.27,1435.9579,415.1434,1436.0608,420.7993,1430.4049,420.9022,1439.66,424.27" style="stroke:#181818;stroke-width:1.0;"/></g><!--MD5=[18141af66d78099ce63b3b3d94bf7770]
reverse link Concept to Question--><g id="link_Concept_Question"><path codeLine="106" d="M1555.24,473.86 C1638.53,469.78 1781.02,448.69 1848,356 C1887.96,300.71 1895.74,251.24 1848,202.5 C1813.32,167.09 1003.64,197.7 956,184 C937.09,178.56 918.12,169.83 900.6,160.05 " fill="none" id="Concept-backto-Question" style="stroke:#181818;stroke-width:1.0;"/><polygon fill="none" points="1542.15,474.38,1548.3034,478.1397,1554.1406,473.9056,1547.9872,470.1459,1542.15,474.38" style="stroke:#181818;stroke-width:1.0;"/><text fill="#000000" font-family="sans-serif" font-size="13" lengthAdjust="spacing" textLength="24" x="885.5175" y="182.1304">0..N</text></g><!--MD5=[543bb2115b5a10697a67507a00f6a2f4]
reverse link Concept to Definition--><g id="link_Concept_Definition"><path codeLine="107" d="M1464.88,546.56 C1457.77,565.78 1450.3,585.95 1444.03,602.89 " fill="none" id="Concept-backto-Definition" style="stroke:#181818;stroke-width:1.0;"/><polygon fill="none" points="1469.49,534.11,1463.6592,538.3528,1465.333,545.367,1471.1638,541.1242,1469.49,534.11" style="stroke:#181818;stroke-width:1.0;"/><text fill="#000000" font-family="sans-serif" font-size="13" lengthAdjust="spacing" textLength="26" x="1418.3662" y="592.1795">0..m</text></g><!--MD5=[54f9360500e0fd532969fc16f437bbea]
reverse link Concept to Relation--><g id="link_Concept_Relation"><path codeLine="109" d="M1517.15,546.66 C1523.03,562.53 1529.14,579.04 1534.62,593.84 " fill="none" id="Concept-backto-Relation" style="stroke:#181818;stroke-width:1.0;"/><polygon fill="none" points="1512.51,534.11,1510.8362,541.1242,1516.667,545.367,1518.3408,538.3528,1512.51,534.11" style="stroke:#181818;stroke-width:1.0;"/><text fill="#000000" font-family="sans-serif" font-size="13" lengthAdjust="spacing" textLength="26" x="1504.2072" y="583.1229">0..m</text></g><!--MD5=[90ea77717cc70d7f588b001bbb985d62]
reverse link Relation to Classification--><g id="link_Relation_Classification"><path codeLine="110" d="M1515.42,712.78 C1506.99,727.88 1498.6,742.91 1492,754.72 " fill="none" id="Relation-backto-Classification" style="stroke:#181818;stroke-width:1.0;"/><polygon fill="none" points="1509.37,709.26,1525.23,695.22,1521.59,716.09,1509.37,709.26" style="stroke:#181818;stroke-width:1.0;"/></g><!--MD5=[aac130c8b5f905729b18e85e231f7b50]
reverse link Relation to Composition--><g id="link_Relation_Composition"><path codeLine="111" d="M1590.58,712.78 C1599.01,727.88 1607.4,742.91 1614,754.72 " fill="none" id="Relation-backto-Composition" style="stroke:#181818;stroke-width:1.0;"/><polygon fill="none" points="1584.41,716.09,1580.77,695.22,1596.63,709.26,1584.41,716.09" style="stroke:#181818;stroke-width:1.0;"/></g><!--MD5=[827ca79410d7e61c6b0c4bcab8d72c38]
reverse link StatementImplementor to DefinitionStatement--><g id="link_StatementImplementor_DefinitionStatement"><path codeLine="113" d="M1012.19,176.95 C997.04,200.72 980.86,226.08 967.85,246.47 " fill="none" id="StatementImplementor-backto-DefinitionStatement" style="stroke:#181818;stroke-width:1.0;"/><polygon fill="none" points="1006.33,173.13,1022.99,160.03,1018.13,180.65,1006.33,173.13" style="stroke:#181818;stroke-width:1.0;"/></g><!--MD5=[60121d46e5c7959543493292a0e80900]
reverse link StatementImplementor to ClassificationStatement--><g id="link_StatementImplementor_ClassificationStatement"><path codeLine="114" d="M1166.83,117.58 C1260.84,133.15 1400.49,160.81 1517,202.5 C1549.58,214.16 1583.92,230.83 1612.87,246.29 " fill="none" id="StatementImplementor-backto-ClassificationStatement" style="stroke:#181818;stroke-width:1.0;"/><polygon fill="none" points="1165.52,124.46,1146.9,114.35,1167.76,110.64,1165.52,124.46" style="stroke:#181818;stroke-width:1.0;"/></g><!--MD5=[1b3943c7506d4479e70c465a6172c629]
reverse link StatementImplementor to CompositionStatement--><g id="link_StatementImplementor_CompositionStatement"><path codeLine="115" d="M1151.43,172.48 C1183.88,197.49 1219.3,224.8 1247.42,246.47 " fill="none" id="StatementImplementor-backto-CompositionStatement" style="stroke:#181818;stroke-width:1.0;"/><polygon fill="none" points="1146.85,177.78,1135.28,160.03,1155.39,166.69,1146.85,177.78" style="stroke:#181818;stroke-width:1.0;"/></g><!--MD5=[aea6158e9b7789923e48d5334b504969]
@startuml ConceptDomainDetailBridge

class Concept {
    - keyword
    - definitions[ ]
    - relations[ ]
    - questions[ ]
}

class Definition {
    - content
    - isFake
}

class Relation {
    - isFake
    - concept
    - isAfferent
}

class Classification

class Composition

package Primary:conceptElementUsed=Keyword {
    class DefinitionStatement {
        - statement ="¿Qué es KEYWORD?"
        - solutions [ Definition]
    }

    class ClassificationStatement {
        - statement = "Qué tipos hay de KEYWORD"
        - solutions [Classification]
    }

    class CompositionStatement {
        - statement ="¿Qué conceptos destacarias del KEYWORD?"
        - solutions = [Composition]
    }
}

abstract class OpenQuestion<StatementImplementor>{
    -answers[openAnswer]
    + addToSolutions(statementImplementor)
}

class OpenAnswer {
    - content
    - isEvaluatedBy
}

abstract class MultipleChoiceQuestion<StatementImplementor>{
    - options
    - answers[selectedOption]
    + setOptions(statementImplementor)
}

class Option {
    - content
    - isFake
}

class SelectedOptionAnswer {
    - option
}

class Answer {
    - studentName
    - createdDate
    - isOk
    - isEvaluated
    - evaluatedDate
}

package Bridge {
    abstract class Question {
        - statementImplementor
        - answers[ ]
        # void setStatementImplementor()
        + bool isAnsweredBy(studentName)
    }

    class StatementImplementor {
        - statement
        - solutions[target]
        + setOptions()
        + addToConcept()
    }

}

Question *- StatementImplementor
Question <|- - OpenQuestion
Question <|- - MultipleChoiceQuestion

OpenQuestion o- -"0..n" OpenAnswer
MultipleChoiceQuestion o- -"2..m" Option
MultipleChoiceQuestion o- -"0..n" SelectedOptionAnswer
SelectedOptionAnswer *- Option
Answer <|- - OpenAnswer
Answer <|- - SelectedOptionAnswer

DefinitionStatement ..> Concept
ClassificationStatement ..> Concept
CompositionStatement ..> Concept

Concept o- - "0..N" Question
Concept o- -"0..m" Definition

Concept o- - "0..m" Relation
Relation <|- - Classification
Relation <|- - Composition

StatementImplementor <|- - DefinitionStatement
StatementImplementor <|- - ClassificationStatement
StatementImplementor <|- - CompositionStatement


@enduml

PlantUML version 1.2022.7(Mon Aug 22 18:01:30 WEST 2022)
(GPL source distribution)
Java Runtime: OpenJDK Runtime Environment
JVM: OpenJDK 64-Bit Server VM
Default Encoding: Cp1252
Language: es
Country: ES
--></g></svg>