<?xml version="1.0" encoding="UTF-8" standalone="no"?><svg xmlns="http://www.w3.org/2000/svg" xmlns:xlink="http://www.w3.org/1999/xlink" contentStyleType="text/css" height="654px" preserveAspectRatio="none" style="width:1976px;height:654px;background:#FFFFFF;" version="1.1" viewBox="0 0 1976 654" width="1976px" zoomAndPan="magnify"><defs/><g><!--MD5=[800d1ea9df5e2ea861ad73a71a5c0c7b]
cluster Primary:withKeyword--><g id="cluster_Primary:withKeyword"><path d="M804.5,213.5 L951.5,213.5 A3.75,3.75 0 0 1 954,216 L961,237.1094 L1845.5,237.1094 A2.5,2.5 0 0 1 1848,239.6094 L1848,346 A2.5,2.5 0 0 1 1845.5,348.5 L804.5,348.5 A2.5,2.5 0 0 1 802,346 L802,216 A2.5,2.5 0 0 1 804.5,213.5 " fill="none" style="stroke:#000000;stroke-width:1.5;"/><line style="stroke:#000000;stroke-width:1.5;" x1="802" x2="961" y1="237.1094" y2="237.1094"/><text fill="#000000" font-family="sans-serif" font-size="14" font-weight="bold" lengthAdjust="spacing" textLength="146" x="806" y="230.0332">Primary:withKeyword</text></g><!--MD5=[f524f4843046d594e03236310757e034]
cluster Bridge--><g id="cluster_Bridge"><path d="M763.5,6 L811.5,6 A3.75,3.75 0 0 1 814,8.5 L821,29.6094 L1237.5,29.6094 A2.5,2.5 0 0 1 1240,32.1094 L1240,173.5 A2.5,2.5 0 0 1 1237.5,176 L763.5,176 A2.5,2.5 0 0 1 761,173.5 L761,8.5 A2.5,2.5 0 0 1 763.5,6 " fill="none" style="stroke:#000000;stroke-width:1.5;"/><line style="stroke:#000000;stroke-width:1.5;" x1="761" x2="821" y1="29.6094" y2="29.6094"/><text fill="#000000" font-family="sans-serif" font-size="14" font-weight="bold" lengthAdjust="spacing" textLength="47" x="765" y="22.5332">Bridge</text></g><!--MD5=[a51a7e8bb9783b3a226fb2f8d75a473a]
class DefinitionStatement--><g id="elem_DefinitionStatement"><rect codeLine="25" fill="#F1F1F1" height="83.2188" id="DefinitionStatement" rx="2.5" ry="2.5" style="stroke:#181818;stroke-width:0.5;" width="248" x="1584" y="249.5"/><ellipse cx="1642.25" cy="265.5" fill="#ADD1B2" rx="11" ry="11" style="stroke:#181818;stroke-width:1.0;"/><path d="M1645.0156,261.375 Q1645.1719,261.1563 1645.3594,261.0469 Q1645.5469,260.9375 1645.7656,260.9375 Q1646.1406,260.9375 1646.375,261.2031 Q1646.6094,261.4531 1646.6094,262.0625 L1646.6094,263.5156 Q1646.6094,264.125 1646.375,264.3906 Q1646.1406,264.6563 1645.7656,264.6563 Q1645.4219,264.6563 1645.2188,264.4531 Q1645.0156,264.2656 1644.9063,263.75 Q1644.8594,263.3906 1644.6719,263.2031 Q1644.3438,262.8281 1643.7344,262.6094 Q1643.125,262.3906 1642.5,262.3906 Q1641.7344,262.3906 1641.0938,262.7188 Q1640.4688,263.0469 1639.9688,263.7969 Q1639.4844,264.5469 1639.4844,265.5781 L1639.4844,266.6719 Q1639.4844,267.9063 1640.375,268.7344 Q1641.2656,269.5469 1642.8594,269.5469 Q1643.7969,269.5469 1644.4531,269.2969 Q1644.8438,269.1406 1645.2656,268.7031 Q1645.5313,268.4375 1645.6719,268.3594 Q1645.8281,268.2813 1646.0313,268.2813 Q1646.3594,268.2813 1646.6094,268.5469 Q1646.875,268.7969 1646.875,269.1406 Q1646.875,269.4844 1646.5313,269.8906 Q1646.0313,270.4688 1645.2344,270.7969 Q1644.1563,271.25 1642.8594,271.25 Q1641.3438,271.25 1640.1406,270.625 Q1639.1563,270.125 1638.4688,269.0625 Q1637.7813,267.9844 1637.7813,266.7031 L1637.7813,265.5469 Q1637.7813,264.2188 1638.3906,263.0781 Q1639.0156,261.9219 1640.1094,261.3125 Q1641.2031,260.6875 1642.4375,260.6875 Q1643.1719,260.6875 1643.8125,260.8594 Q1644.4688,261.0156 1645.0156,261.375 Z " fill="#000000"/><text fill="#000000" font-family="sans-serif" font-size="14" lengthAdjust="spacing" textLength="123" x="1662.75" y="271.2285">DefinitionStatement</text><line style="stroke:#181818;stroke-width:0.5;" x1="1585" x2="1831" y1="281.5" y2="281.5"/><rect fill="none" height="6" style="stroke:#C82930;stroke-width:1.0;" width="6" x="1592" y="292.8047"/><text fill="#000000" font-family="sans-serif" font-size="14" lengthAdjust="spacing" textLength="222" x="1604" y="300.0332">statement ="¿Qué es KEYWORD?"</text><rect fill="none" height="6" style="stroke:#C82930;stroke-width:1.0;" width="6" x="1592" y="310.4141"/><text fill="#000000" font-family="sans-serif" font-size="14" lengthAdjust="spacing" textLength="131" x="1604" y="317.6426">solutions [ Definition]</text><line style="stroke:#181818;stroke-width:0.5;" x1="1585" x2="1831" y1="324.7188" y2="324.7188"/></g><!--MD5=[9185a2f7d84f0f934f7d1a57c235ac74]
class ClassificationStatement--><g id="elem_ClassificationStatement"><rect codeLine="30" fill="#F1F1F1" height="83.2188" id="ClassificationStatement" rx="2.5" ry="2.5" style="stroke:#181818;stroke-width:0.5;" width="297" x="1251.5" y="249.5"/><ellipse cx="1322.25" cy="265.5" fill="#ADD1B2" rx="11" ry="11" style="stroke:#181818;stroke-width:1.0;"/><path d="M1325.0156,261.375 Q1325.1719,261.1563 1325.3594,261.0469 Q1325.5469,260.9375 1325.7656,260.9375 Q1326.1406,260.9375 1326.375,261.2031 Q1326.6094,261.4531 1326.6094,262.0625 L1326.6094,263.5156 Q1326.6094,264.125 1326.375,264.3906 Q1326.1406,264.6563 1325.7656,264.6563 Q1325.4219,264.6563 1325.2188,264.4531 Q1325.0156,264.2656 1324.9063,263.75 Q1324.8594,263.3906 1324.6719,263.2031 Q1324.3438,262.8281 1323.7344,262.6094 Q1323.125,262.3906 1322.5,262.3906 Q1321.7344,262.3906 1321.0938,262.7188 Q1320.4688,263.0469 1319.9688,263.7969 Q1319.4844,264.5469 1319.4844,265.5781 L1319.4844,266.6719 Q1319.4844,267.9063 1320.375,268.7344 Q1321.2656,269.5469 1322.8594,269.5469 Q1323.7969,269.5469 1324.4531,269.2969 Q1324.8438,269.1406 1325.2656,268.7031 Q1325.5313,268.4375 1325.6719,268.3594 Q1325.8281,268.2813 1326.0313,268.2813 Q1326.3594,268.2813 1326.6094,268.5469 Q1326.875,268.7969 1326.875,269.1406 Q1326.875,269.4844 1326.5313,269.8906 Q1326.0313,270.4688 1325.2344,270.7969 Q1324.1563,271.25 1322.8594,271.25 Q1321.3438,271.25 1320.1406,270.625 Q1319.1563,270.125 1318.4688,269.0625 Q1317.7813,267.9844 1317.7813,266.7031 L1317.7813,265.5469 Q1317.7813,264.2188 1318.3906,263.0781 Q1319.0156,261.9219 1320.1094,261.3125 Q1321.2031,260.6875 1322.4375,260.6875 Q1323.1719,260.6875 1323.8125,260.8594 Q1324.4688,261.0156 1325.0156,261.375 Z " fill="#000000"/><text fill="#000000" font-family="sans-serif" font-size="14" lengthAdjust="spacing" textLength="147" x="1342.75" y="271.2285">ClassificationStatement</text><line style="stroke:#181818;stroke-width:0.5;" x1="1252.5" x2="1547.5" y1="281.5" y2="281.5"/><rect fill="none" height="6" style="stroke:#C82930;stroke-width:1.0;" width="6" x="1259.5" y="292.8047"/><text fill="#000000" font-family="sans-serif" font-size="14" lengthAdjust="spacing" textLength="271" x="1271.5" y="300.0332">statement = "Qué tipos hay de KEYWORD"</text><rect fill="none" height="6" style="stroke:#C82930;stroke-width:1.0;" width="6" x="1259.5" y="310.4141"/><text fill="#000000" font-family="sans-serif" font-size="14" lengthAdjust="spacing" textLength="151" x="1271.5" y="317.6426">solutions [Classification]</text><line style="stroke:#181818;stroke-width:0.5;" x1="1252.5" x2="1547.5" y1="324.7188" y2="324.7188"/></g><!--MD5=[9cb1851a3c7d26c2f315fa580a6f39da]
class CompositionStatement--><g id="elem_CompositionStatement"><rect codeLine="35" fill="#F1F1F1" height="83.2188" id="CompositionStatement" rx="2.5" ry="2.5" style="stroke:#181818;stroke-width:0.5;" width="398" x="818" y="249.5"/><ellipse cx="941.75" cy="265.5" fill="#ADD1B2" rx="11" ry="11" style="stroke:#181818;stroke-width:1.0;"/><path d="M944.5156,261.375 Q944.6719,261.1563 944.8594,261.0469 Q945.0469,260.9375 945.2656,260.9375 Q945.6406,260.9375 945.875,261.2031 Q946.1094,261.4531 946.1094,262.0625 L946.1094,263.5156 Q946.1094,264.125 945.875,264.3906 Q945.6406,264.6563 945.2656,264.6563 Q944.9219,264.6563 944.7188,264.4531 Q944.5156,264.2656 944.4063,263.75 Q944.3594,263.3906 944.1719,263.2031 Q943.8438,262.8281 943.2344,262.6094 Q942.625,262.3906 942,262.3906 Q941.2344,262.3906 940.5938,262.7188 Q939.9688,263.0469 939.4688,263.7969 Q938.9844,264.5469 938.9844,265.5781 L938.9844,266.6719 Q938.9844,267.9063 939.875,268.7344 Q940.7656,269.5469 942.3594,269.5469 Q943.2969,269.5469 943.9531,269.2969 Q944.3438,269.1406 944.7656,268.7031 Q945.0313,268.4375 945.1719,268.3594 Q945.3281,268.2813 945.5313,268.2813 Q945.8594,268.2813 946.1094,268.5469 Q946.375,268.7969 946.375,269.1406 Q946.375,269.4844 946.0313,269.8906 Q945.5313,270.4688 944.7344,270.7969 Q943.6563,271.25 942.3594,271.25 Q940.8438,271.25 939.6406,270.625 Q938.6563,270.125 937.9688,269.0625 Q937.2813,267.9844 937.2813,266.7031 L937.2813,265.5469 Q937.2813,264.2188 937.8906,263.0781 Q938.5156,261.9219 939.6094,261.3125 Q940.7031,260.6875 941.9375,260.6875 Q942.6719,260.6875 943.3125,260.8594 Q943.9688,261.0156 944.5156,261.375 Z " fill="#000000"/><text fill="#000000" font-family="sans-serif" font-size="14" lengthAdjust="spacing" textLength="142" x="962.25" y="271.2285">CompositionStatement</text><line style="stroke:#181818;stroke-width:0.5;" x1="819" x2="1215" y1="281.5" y2="281.5"/><rect fill="none" height="6" style="stroke:#C82930;stroke-width:1.0;" width="6" x="826" y="292.8047"/><text fill="#000000" font-family="sans-serif" font-size="14" lengthAdjust="spacing" textLength="372" x="838" y="300.0332">statement ="¿Qué conceptos destacarias del KEYWORD?"</text><rect fill="none" height="6" style="stroke:#C82930;stroke-width:1.0;" width="6" x="826" y="310.4141"/><text fill="#000000" font-family="sans-serif" font-size="14" lengthAdjust="spacing" textLength="158" x="838" y="317.6426">solutions = [Composition]</text><line style="stroke:#181818;stroke-width:0.5;" x1="819" x2="1215" y1="324.7188" y2="324.7188"/></g><!--MD5=[fc7123defb831ecdd44b2d9bcef6cceb]
class Question--><g id="elem_Question"><rect codeLine="75" fill="#F1F1F1" height="118.4375" id="Question" rx="2.5" ry="2.5" style="stroke:#181818;stroke-width:0.5;" width="238" x="777" y="42"/><ellipse cx="863.25" cy="58" fill="#A9DCDF" rx="11" ry="11" style="stroke:#181818;stroke-width:1.0;"/><path d="M865.4375,59.7656 L861.2969,59.7656 L860.875,60.7969 L861.2969,60.7969 Q861.9063,60.7969 862.1719,61.0313 Q862.4375,61.2656 862.4375,61.6563 Q862.4375,62.0313 862.1719,62.2656 Q861.9063,62.5 861.2969,62.5 L859,62.5 Q858.3906,62.5 858.1406,62.2656 Q857.875,62.0313 857.875,61.6406 Q857.875,61.2656 858.1563,61.0313 Q858.4219,60.7813 859.0469,60.7969 L861.7188,54.1406 L860.6094,54.1406 Q860,54.1406 859.7344,53.9063 Q859.4688,53.6719 859.4688,53.2813 Q859.4688,52.9063 859.7344,52.6719 Q860,52.4375 860.6094,52.4375 L864.2813,52.4375 L867.6719,60.7969 Q868.2656,60.7969 868.4531,60.9375 Q868.8438,61.2031 868.8438,61.6563 Q868.8438,62.0313 868.5781,62.2656 Q868.3281,62.5 867.7188,62.5 L865.4219,62.5 Q864.8125,62.5 864.5469,62.2656 Q864.2813,62.0313 864.2813,61.6406 Q864.2813,61.2656 864.5469,61.0313 Q864.8125,60.7969 865.4219,60.7969 L865.8438,60.7969 L865.4375,59.7656 Z M864.7188,58.0625 L863.3594,54.6875 L861.9844,58.0625 L864.7188,58.0625 Z " fill="#000000"/><text fill="#000000" font-family="sans-serif" font-size="14" font-style="italic" lengthAdjust="spacing" textLength="57" x="883.75" y="63.7285">Question</text><line style="stroke:#181818;stroke-width:0.5;" x1="778" x2="1014" y1="74" y2="74"/><rect fill="none" height="6" style="stroke:#C82930;stroke-width:1.0;" width="6" x="785" y="85.3047"/><text fill="#000000" font-family="sans-serif" font-size="14" lengthAdjust="spacing" textLength="139" x="797" y="92.5332">statementImplementor</text><rect fill="none" height="6" style="stroke:#C82930;stroke-width:1.0;" width="6" x="785" y="102.9141"/><text fill="#000000" font-family="sans-serif" font-size="14" lengthAdjust="spacing" textLength="64" x="797" y="110.1426">answers[ ]</text><line style="stroke:#181818;stroke-width:0.5;" x1="778" x2="1014" y1="117.2188" y2="117.2188"/><polygon fill="#FFFF44" points="788,126.5234,792,130.5234,788,134.5234,784,130.5234" style="stroke:#B38D22;stroke-width:1.0;"/><text fill="#000000" font-family="sans-serif" font-size="14" lengthAdjust="spacing" textLength="200" x="797" y="135.752">void setStatementImplementor()</text><ellipse cx="788" cy="149.1328" fill="#84BE84" rx="3" ry="3" style="stroke:#038048;stroke-width:1.0;"/><text fill="#000000" font-family="sans-serif" font-size="14" lengthAdjust="spacing" textLength="212" x="797" y="153.3613">bool isAnsweredBy(studentName)</text></g><!--MD5=[c5a45057bd8260f278ba302c5f5fe264]
class StatementImplementor--><g id="elem_StatementImplementor"><rect codeLine="82" fill="#F1F1F1" height="118.4375" id="StatementImplementor" rx="2.5" ry="2.5" style="stroke:#181818;stroke-width:0.5;" width="173" x="1050.5" y="42"/><ellipse cx="1065.5" cy="58" fill="#ADD1B2" rx="11" ry="11" style="stroke:#181818;stroke-width:1.0;"/><path d="M1068.2656,53.875 Q1068.4219,53.6563 1068.6094,53.5469 Q1068.7969,53.4375 1069.0156,53.4375 Q1069.3906,53.4375 1069.625,53.7031 Q1069.8594,53.9531 1069.8594,54.5625 L1069.8594,56.0156 Q1069.8594,56.625 1069.625,56.8906 Q1069.3906,57.1563 1069.0156,57.1563 Q1068.6719,57.1563 1068.4688,56.9531 Q1068.2656,56.7656 1068.1563,56.25 Q1068.1094,55.8906 1067.9219,55.7031 Q1067.5938,55.3281 1066.9844,55.1094 Q1066.375,54.8906 1065.75,54.8906 Q1064.9844,54.8906 1064.3438,55.2188 Q1063.7188,55.5469 1063.2188,56.2969 Q1062.7344,57.0469 1062.7344,58.0781 L1062.7344,59.1719 Q1062.7344,60.4063 1063.625,61.2344 Q1064.5156,62.0469 1066.1094,62.0469 Q1067.0469,62.0469 1067.7031,61.7969 Q1068.0938,61.6406 1068.5156,61.2031 Q1068.7813,60.9375 1068.9219,60.8594 Q1069.0781,60.7813 1069.2813,60.7813 Q1069.6094,60.7813 1069.8594,61.0469 Q1070.125,61.2969 1070.125,61.6406 Q1070.125,61.9844 1069.7813,62.3906 Q1069.2813,62.9688 1068.4844,63.2969 Q1067.4063,63.75 1066.1094,63.75 Q1064.5938,63.75 1063.3906,63.125 Q1062.4063,62.625 1061.7188,61.5625 Q1061.0313,60.4844 1061.0313,59.2031 L1061.0313,58.0469 Q1061.0313,56.7188 1061.6406,55.5781 Q1062.2656,54.4219 1063.3594,53.8125 Q1064.4531,53.1875 1065.6875,53.1875 Q1066.4219,53.1875 1067.0625,53.3594 Q1067.7188,53.5156 1068.2656,53.875 Z " fill="#000000"/><text fill="#000000" font-family="sans-serif" font-size="14" lengthAdjust="spacing" textLength="141" x="1079.5" y="63.7285">StatementImplementor</text><line style="stroke:#181818;stroke-width:0.5;" x1="1051.5" x2="1222.5" y1="74" y2="74"/><rect fill="none" height="6" style="stroke:#C82930;stroke-width:1.0;" width="6" x="1058.5" y="85.3047"/><text fill="#000000" font-family="sans-serif" font-size="14" lengthAdjust="spacing" textLength="62" x="1070.5" y="92.5332">statement</text><rect fill="none" height="6" style="stroke:#C82930;stroke-width:1.0;" width="6" x="1058.5" y="102.9141"/><text fill="#000000" font-family="sans-serif" font-size="14" lengthAdjust="spacing" textLength="101" x="1070.5" y="110.1426">solutions[target]</text><line style="stroke:#181818;stroke-width:0.5;" x1="1051.5" x2="1222.5" y1="117.2188" y2="117.2188"/><ellipse cx="1061.5" cy="131.5234" fill="#84BE84" rx="3" ry="3" style="stroke:#038048;stroke-width:1.0;"/><text fill="#000000" font-family="sans-serif" font-size="14" lengthAdjust="spacing" textLength="78" x="1070.5" y="135.752">setOptions()</text><ellipse cx="1061.5" cy="149.1328" fill="#84BE84" rx="3" ry="3" style="stroke:#038048;stroke-width:1.0;"/><text fill="#000000" font-family="sans-serif" font-size="14" lengthAdjust="spacing" textLength="104" x="1070.5" y="153.3613">addToConcept()</text></g><!--MD5=[9d451b2f92d848a8e2d1a4dab2b1c6bf]
class Concept--><g id="elem_Concept"><rect codeLine="2" fill="#F1F1F1" height="118.4375" id="Concept" rx="2.5" ry="2.5" style="stroke:#181818;stroke-width:0.5;" width="102" x="1867" y="232"/><ellipse cx="1889.65" cy="248" fill="#ADD1B2" rx="11" ry="11" style="stroke:#181818;stroke-width:1.0;"/><path d="M1892.4156,243.875 Q1892.5719,243.6563 1892.7594,243.5469 Q1892.9469,243.4375 1893.1656,243.4375 Q1893.5406,243.4375 1893.775,243.7031 Q1894.0094,243.9531 1894.0094,244.5625 L1894.0094,246.0156 Q1894.0094,246.625 1893.775,246.8906 Q1893.5406,247.1563 1893.1656,247.1563 Q1892.8219,247.1563 1892.6188,246.9531 Q1892.4156,246.7656 1892.3063,246.25 Q1892.2594,245.8906 1892.0719,245.7031 Q1891.7438,245.3281 1891.1344,245.1094 Q1890.525,244.8906 1889.9,244.8906 Q1889.1344,244.8906 1888.4938,245.2188 Q1887.8688,245.5469 1887.3688,246.2969 Q1886.8844,247.0469 1886.8844,248.0781 L1886.8844,249.1719 Q1886.8844,250.4063 1887.775,251.2344 Q1888.6656,252.0469 1890.2594,252.0469 Q1891.1969,252.0469 1891.8531,251.7969 Q1892.2438,251.6406 1892.6656,251.2031 Q1892.9313,250.9375 1893.0719,250.8594 Q1893.2281,250.7813 1893.4313,250.7813 Q1893.7594,250.7813 1894.0094,251.0469 Q1894.275,251.2969 1894.275,251.6406 Q1894.275,251.9844 1893.9313,252.3906 Q1893.4313,252.9688 1892.6344,253.2969 Q1891.5563,253.75 1890.2594,253.75 Q1888.7438,253.75 1887.5406,253.125 Q1886.5563,252.625 1885.8688,251.5625 Q1885.1813,250.4844 1885.1813,249.2031 L1885.1813,248.0469 Q1885.1813,246.7188 1885.7906,245.5781 Q1886.4156,244.4219 1887.5094,243.8125 Q1888.6031,243.1875 1889.8375,243.1875 Q1890.5719,243.1875 1891.2125,243.3594 Q1891.8688,243.5156 1892.4156,243.875 Z " fill="#000000"/><text fill="#000000" font-family="sans-serif" font-size="14" lengthAdjust="spacing" textLength="53" x="1905.35" y="253.7285">Concept</text><line style="stroke:#181818;stroke-width:0.5;" x1="1868" x2="1968" y1="264" y2="264"/><rect fill="none" height="6" style="stroke:#C82930;stroke-width:1.0;" width="6" x="1875" y="275.3047"/><text fill="#000000" font-family="sans-serif" font-size="14" lengthAdjust="spacing" textLength="52" x="1887" y="282.5332">keyword</text><rect fill="none" height="6" style="stroke:#C82930;stroke-width:1.0;" width="6" x="1875" y="292.9141"/><text fill="#000000" font-family="sans-serif" font-size="14" lengthAdjust="spacing" textLength="76" x="1887" y="300.1426">definitions[ ]</text><rect fill="none" height="6" style="stroke:#C82930;stroke-width:1.0;" width="6" x="1875" y="310.5234"/><text fill="#000000" font-family="sans-serif" font-size="14" lengthAdjust="spacing" textLength="66" x="1887" y="317.752">relations[ ]</text><rect fill="none" height="6" style="stroke:#C82930;stroke-width:1.0;" width="6" x="1875" y="328.1328"/><text fill="#000000" font-family="sans-serif" font-size="14" lengthAdjust="spacing" textLength="73" x="1887" y="335.3613">questions[ ]</text><line style="stroke:#181818;stroke-width:0.5;" x1="1868" x2="1968" y1="342.4375" y2="342.4375"/></g><!--MD5=[af22135d5be6ed11ccd2d02fa51653b3]
class Definition--><g id="elem_Definition"><rect codeLine="9" fill="#F1F1F1" height="83.2188" id="Definition" rx="2.5" ry="2.5" style="stroke:#181818;stroke-width:0.5;" width="91" x="1734.5" y="446"/><ellipse cx="1749.5" cy="462" fill="#ADD1B2" rx="11" ry="11" style="stroke:#181818;stroke-width:1.0;"/><path d="M1752.2656,457.875 Q1752.4219,457.6563 1752.6094,457.5469 Q1752.7969,457.4375 1753.0156,457.4375 Q1753.3906,457.4375 1753.625,457.7031 Q1753.8594,457.9531 1753.8594,458.5625 L1753.8594,460.0156 Q1753.8594,460.625 1753.625,460.8906 Q1753.3906,461.1563 1753.0156,461.1563 Q1752.6719,461.1563 1752.4688,460.9531 Q1752.2656,460.7656 1752.1563,460.25 Q1752.1094,459.8906 1751.9219,459.7031 Q1751.5938,459.3281 1750.9844,459.1094 Q1750.375,458.8906 1749.75,458.8906 Q1748.9844,458.8906 1748.3438,459.2188 Q1747.7188,459.5469 1747.2188,460.2969 Q1746.7344,461.0469 1746.7344,462.0781 L1746.7344,463.1719 Q1746.7344,464.4063 1747.625,465.2344 Q1748.5156,466.0469 1750.1094,466.0469 Q1751.0469,466.0469 1751.7031,465.7969 Q1752.0938,465.6406 1752.5156,465.2031 Q1752.7813,464.9375 1752.9219,464.8594 Q1753.0781,464.7813 1753.2813,464.7813 Q1753.6094,464.7813 1753.8594,465.0469 Q1754.125,465.2969 1754.125,465.6406 Q1754.125,465.9844 1753.7813,466.3906 Q1753.2813,466.9688 1752.4844,467.2969 Q1751.4063,467.75 1750.1094,467.75 Q1748.5938,467.75 1747.3906,467.125 Q1746.4063,466.625 1745.7188,465.5625 Q1745.0313,464.4844 1745.0313,463.2031 L1745.0313,462.0469 Q1745.0313,460.7188 1745.6406,459.5781 Q1746.2656,458.4219 1747.3594,457.8125 Q1748.4531,457.1875 1749.6875,457.1875 Q1750.4219,457.1875 1751.0625,457.3594 Q1751.7188,457.5156 1752.2656,457.875 Z " fill="#000000"/><text fill="#000000" font-family="sans-serif" font-size="14" lengthAdjust="spacing" textLength="59" x="1763.5" y="467.7285">Definition</text><line style="stroke:#181818;stroke-width:0.5;" x1="1735.5" x2="1824.5" y1="478" y2="478"/><rect fill="none" height="6" style="stroke:#C82930;stroke-width:1.0;" width="6" x="1742.5" y="489.3047"/><text fill="#000000" font-family="sans-serif" font-size="14" lengthAdjust="spacing" textLength="47" x="1754.5" y="496.5332">content</text><rect fill="none" height="6" style="stroke:#C82930;stroke-width:1.0;" width="6" x="1742.5" y="506.9141"/><text fill="#000000" font-family="sans-serif" font-size="14" lengthAdjust="spacing" textLength="42" x="1754.5" y="514.1426">isFake</text><line style="stroke:#181818;stroke-width:0.5;" x1="1735.5" x2="1824.5" y1="521.2188" y2="521.2188"/></g><!--MD5=[534474e9f05b14d7c70186ae077f30e0]
class Relation--><g id="elem_Relation"><rect codeLine="14" fill="#F1F1F1" height="100.8281" id="Relation" rx="2.5" ry="2.5" style="stroke:#181818;stroke-width:0.5;" width="86" x="1861" y="437"/><ellipse cx="1876.9" cy="453" fill="#ADD1B2" rx="11" ry="11" style="stroke:#181818;stroke-width:1.0;"/><path d="M1879.6656,448.875 Q1879.8219,448.6563 1880.0094,448.5469 Q1880.1969,448.4375 1880.4156,448.4375 Q1880.7906,448.4375 1881.025,448.7031 Q1881.2594,448.9531 1881.2594,449.5625 L1881.2594,451.0156 Q1881.2594,451.625 1881.025,451.8906 Q1880.7906,452.1563 1880.4156,452.1563 Q1880.0719,452.1563 1879.8688,451.9531 Q1879.6656,451.7656 1879.5563,451.25 Q1879.5094,450.8906 1879.3219,450.7031 Q1878.9938,450.3281 1878.3844,450.1094 Q1877.775,449.8906 1877.15,449.8906 Q1876.3844,449.8906 1875.7438,450.2188 Q1875.1188,450.5469 1874.6188,451.2969 Q1874.1344,452.0469 1874.1344,453.0781 L1874.1344,454.1719 Q1874.1344,455.4063 1875.025,456.2344 Q1875.9156,457.0469 1877.5094,457.0469 Q1878.4469,457.0469 1879.1031,456.7969 Q1879.4938,456.6406 1879.9156,456.2031 Q1880.1813,455.9375 1880.3219,455.8594 Q1880.4781,455.7813 1880.6813,455.7813 Q1881.0094,455.7813 1881.2594,456.0469 Q1881.525,456.2969 1881.525,456.6406 Q1881.525,456.9844 1881.1813,457.3906 Q1880.6813,457.9688 1879.8844,458.2969 Q1878.8063,458.75 1877.5094,458.75 Q1875.9938,458.75 1874.7906,458.125 Q1873.8063,457.625 1873.1188,456.5625 Q1872.4313,455.4844 1872.4313,454.2031 L1872.4313,453.0469 Q1872.4313,451.7188 1873.0406,450.5781 Q1873.6656,449.4219 1874.7594,448.8125 Q1875.8531,448.1875 1877.0875,448.1875 Q1877.8219,448.1875 1878.4625,448.3594 Q1879.1188,448.5156 1879.6656,448.875 Z " fill="#000000"/><text fill="#000000" font-family="sans-serif" font-size="14" lengthAdjust="spacing" textLength="52" x="1891.1" y="458.7285">Relation</text><line style="stroke:#181818;stroke-width:0.5;" x1="1862" x2="1946" y1="469" y2="469"/><rect fill="none" height="6" style="stroke:#C82930;stroke-width:1.0;" width="6" x="1869" y="480.3047"/><text fill="#000000" font-family="sans-serif" font-size="14" lengthAdjust="spacing" textLength="42" x="1881" y="487.5332">isFake</text><rect fill="none" height="6" style="stroke:#C82930;stroke-width:1.0;" width="6" x="1869" y="497.9141"/><text fill="#000000" font-family="sans-serif" font-size="14" lengthAdjust="spacing" textLength="50" x="1881" y="505.1426">concept</text><rect fill="none" height="6" style="stroke:#C82930;stroke-width:1.0;" width="6" x="1869" y="515.5234"/><text fill="#000000" font-family="sans-serif" font-size="14" lengthAdjust="spacing" textLength="60" x="1881" y="522.752">isAfferent</text><line style="stroke:#181818;stroke-width:0.5;" x1="1862" x2="1946" y1="529.8281" y2="529.8281"/></g><!--MD5=[9c239722e256878d27dcbb07783cc14f]
class Classification--><g id="elem_Classification"><rect codeLine="20" fill="#F1F1F1" height="48" id="Classification" rx="2.5" ry="2.5" style="stroke:#181818;stroke-width:0.5;" width="115" x="1407.5" y="599"/><ellipse cx="1422.5" cy="615" fill="#ADD1B2" rx="11" ry="11" style="stroke:#181818;stroke-width:1.0;"/><path d="M1425.2656,610.875 Q1425.4219,610.6563 1425.6094,610.5469 Q1425.7969,610.4375 1426.0156,610.4375 Q1426.3906,610.4375 1426.625,610.7031 Q1426.8594,610.9531 1426.8594,611.5625 L1426.8594,613.0156 Q1426.8594,613.625 1426.625,613.8906 Q1426.3906,614.1563 1426.0156,614.1563 Q1425.6719,614.1563 1425.4688,613.9531 Q1425.2656,613.7656 1425.1563,613.25 Q1425.1094,612.8906 1424.9219,612.7031 Q1424.5938,612.3281 1423.9844,612.1094 Q1423.375,611.8906 1422.75,611.8906 Q1421.9844,611.8906 1421.3438,612.2188 Q1420.7188,612.5469 1420.2188,613.2969 Q1419.7344,614.0469 1419.7344,615.0781 L1419.7344,616.1719 Q1419.7344,617.4063 1420.625,618.2344 Q1421.5156,619.0469 1423.1094,619.0469 Q1424.0469,619.0469 1424.7031,618.7969 Q1425.0938,618.6406 1425.5156,618.2031 Q1425.7813,617.9375 1425.9219,617.8594 Q1426.0781,617.7813 1426.2813,617.7813 Q1426.6094,617.7813 1426.8594,618.0469 Q1427.125,618.2969 1427.125,618.6406 Q1427.125,618.9844 1426.7813,619.3906 Q1426.2813,619.9688 1425.4844,620.2969 Q1424.4063,620.75 1423.1094,620.75 Q1421.5938,620.75 1420.3906,620.125 Q1419.4063,619.625 1418.7188,618.5625 Q1418.0313,617.4844 1418.0313,616.2031 L1418.0313,615.0469 Q1418.0313,613.7188 1418.6406,612.5781 Q1419.2656,611.4219 1420.3594,610.8125 Q1421.4531,610.1875 1422.6875,610.1875 Q1423.4219,610.1875 1424.0625,610.3594 Q1424.7188,610.5156 1425.2656,610.875 Z " fill="#000000"/><text fill="#000000" font-family="sans-serif" font-size="14" lengthAdjust="spacing" textLength="83" x="1436.5" y="620.7285">Classification</text><line style="stroke:#181818;stroke-width:0.5;" x1="1408.5" x2="1521.5" y1="631" y2="631"/><line style="stroke:#181818;stroke-width:0.5;" x1="1408.5" x2="1521.5" y1="639" y2="639"/></g><!--MD5=[251454e98c15f29849fb35b1904d0020]
class Composition--><g id="elem_Composition"><rect codeLine="22" fill="#F1F1F1" height="48" id="Composition" rx="2.5" ry="2.5" style="stroke:#181818;stroke-width:0.5;" width="110" x="1688" y="599"/><ellipse cx="1703" cy="615" fill="#ADD1B2" rx="11" ry="11" style="stroke:#181818;stroke-width:1.0;"/><path d="M1705.7656,610.875 Q1705.9219,610.6563 1706.1094,610.5469 Q1706.2969,610.4375 1706.5156,610.4375 Q1706.8906,610.4375 1707.125,610.7031 Q1707.3594,610.9531 1707.3594,611.5625 L1707.3594,613.0156 Q1707.3594,613.625 1707.125,613.8906 Q1706.8906,614.1563 1706.5156,614.1563 Q1706.1719,614.1563 1705.9688,613.9531 Q1705.7656,613.7656 1705.6563,613.25 Q1705.6094,612.8906 1705.4219,612.7031 Q1705.0938,612.3281 1704.4844,612.1094 Q1703.875,611.8906 1703.25,611.8906 Q1702.4844,611.8906 1701.8438,612.2188 Q1701.2188,612.5469 1700.7188,613.2969 Q1700.2344,614.0469 1700.2344,615.0781 L1700.2344,616.1719 Q1700.2344,617.4063 1701.125,618.2344 Q1702.0156,619.0469 1703.6094,619.0469 Q1704.5469,619.0469 1705.2031,618.7969 Q1705.5938,618.6406 1706.0156,618.2031 Q1706.2813,617.9375 1706.4219,617.8594 Q1706.5781,617.7813 1706.7813,617.7813 Q1707.1094,617.7813 1707.3594,618.0469 Q1707.625,618.2969 1707.625,618.6406 Q1707.625,618.9844 1707.2813,619.3906 Q1706.7813,619.9688 1705.9844,620.2969 Q1704.9063,620.75 1703.6094,620.75 Q1702.0938,620.75 1700.8906,620.125 Q1699.9063,619.625 1699.2188,618.5625 Q1698.5313,617.4844 1698.5313,616.2031 L1698.5313,615.0469 Q1698.5313,613.7188 1699.1406,612.5781 Q1699.7656,611.4219 1700.8594,610.8125 Q1701.9531,610.1875 1703.1875,610.1875 Q1703.9219,610.1875 1704.5625,610.3594 Q1705.2188,610.5156 1705.7656,610.875 Z " fill="#000000"/><text fill="#000000" font-family="sans-serif" font-size="14" lengthAdjust="spacing" textLength="78" x="1717" y="620.7285">Composition</text><line style="stroke:#181818;stroke-width:0.5;" x1="1689" x2="1797" y1="631" y2="631"/><line style="stroke:#181818;stroke-width:0.5;" x1="1689" x2="1797" y1="639" y2="639"/></g><!--MD5=[c5be3d7e9ffcf6502258095b57411394]
class OpenQuestion--><g id="elem_OpenQuestion"><rect codeLine="41" fill="#F1F1F1" height="83.2188" id="OpenQuestion" rx="2.5" ry="2.5" style="stroke:#181818;stroke-width:0.5;" width="274" x="7" y="249.5"/><ellipse cx="30.55" cy="265.5" fill="#A9DCDF" rx="11" ry="11" style="stroke:#181818;stroke-width:1.0;"/><path d="M32.7375,267.2656 L28.5969,267.2656 L28.175,268.2969 L28.5969,268.2969 Q29.2063,268.2969 29.4719,268.5313 Q29.7375,268.7656 29.7375,269.1563 Q29.7375,269.5313 29.4719,269.7656 Q29.2063,270 28.5969,270 L26.3,270 Q25.6906,270 25.4406,269.7656 Q25.175,269.5313 25.175,269.1406 Q25.175,268.7656 25.4563,268.5313 Q25.7219,268.2813 26.3469,268.2969 L29.0188,261.6406 L27.9094,261.6406 Q27.3,261.6406 27.0344,261.4063 Q26.7688,261.1719 26.7688,260.7813 Q26.7688,260.4063 27.0344,260.1719 Q27.3,259.9375 27.9094,259.9375 L31.5813,259.9375 L34.9719,268.2969 Q35.5656,268.2969 35.7531,268.4375 Q36.1438,268.7031 36.1438,269.1563 Q36.1438,269.5313 35.8781,269.7656 Q35.6281,270 35.0188,270 L32.7219,270 Q32.1125,270 31.8469,269.7656 Q31.5813,269.5313 31.5813,269.1406 Q31.5813,268.7656 31.8469,268.5313 Q32.1125,268.2969 32.7219,268.2969 L33.1438,268.2969 L32.7375,267.2656 Z M32.0188,265.5625 L30.6594,262.1875 L29.2844,265.5625 L32.0188,265.5625 Z " fill="#000000"/><text fill="#000000" font-family="sans-serif" font-size="14" font-style="italic" lengthAdjust="spacing" textLength="92" x="46.45" y="271.2285">OpenQuestion</text><rect fill="#FFFFFF" height="17.0938" style="stroke:#181818;stroke-width:1.0;stroke-dasharray:2.0,2.0;" width="129" x="155" y="246.5"/><text fill="#000000" font-family="sans-serif" font-size="12" font-style="italic" lengthAdjust="spacing" textLength="127" x="156" y="259.957">StatementImplementor</text><line style="stroke:#181818;stroke-width:0.5;" x1="8" x2="280" y1="281.5" y2="281.5"/><rect fill="none" height="6" style="stroke:#C82930;stroke-width:1.0;" width="6" x="15" y="292.8047"/><text fill="#000000" font-family="sans-serif" font-size="14" lengthAdjust="spacing" textLength="138" x="27" y="300.0332">answers[openAnswer]</text><line style="stroke:#181818;stroke-width:0.5;" x1="8" x2="280" y1="307.1094" y2="307.1094"/><ellipse cx="18" cy="321.4141" fill="#84BE84" rx="3" ry="3" style="stroke:#038048;stroke-width:1.0;"/><text fill="#000000" font-family="sans-serif" font-size="14" lengthAdjust="spacing" textLength="248" x="27" y="325.6426">addToSolutions(statementImplementor)</text></g><!--MD5=[54a8e627be4ee6aab370a2a8960cc8d7]
class OpenAnswer--><g id="elem_OpenAnswer"><rect codeLine="46" fill="#F1F1F1" height="83.2188" id="OpenAnswer" rx="2.5" ry="2.5" style="stroke:#181818;stroke-width:0.5;" width="115" x="193.5" y="446"/><ellipse cx="209.4" cy="462" fill="#ADD1B2" rx="11" ry="11" style="stroke:#181818;stroke-width:1.0;"/><path d="M212.1656,457.875 Q212.3219,457.6563 212.5094,457.5469 Q212.6969,457.4375 212.9156,457.4375 Q213.2906,457.4375 213.525,457.7031 Q213.7594,457.9531 213.7594,458.5625 L213.7594,460.0156 Q213.7594,460.625 213.525,460.8906 Q213.2906,461.1563 212.9156,461.1563 Q212.5719,461.1563 212.3688,460.9531 Q212.1656,460.7656 212.0563,460.25 Q212.0094,459.8906 211.8219,459.7031 Q211.4938,459.3281 210.8844,459.1094 Q210.275,458.8906 209.65,458.8906 Q208.8844,458.8906 208.2438,459.2188 Q207.6188,459.5469 207.1188,460.2969 Q206.6344,461.0469 206.6344,462.0781 L206.6344,463.1719 Q206.6344,464.4063 207.525,465.2344 Q208.4156,466.0469 210.0094,466.0469 Q210.9469,466.0469 211.6031,465.7969 Q211.9938,465.6406 212.4156,465.2031 Q212.6813,464.9375 212.8219,464.8594 Q212.9781,464.7813 213.1813,464.7813 Q213.5094,464.7813 213.7594,465.0469 Q214.025,465.2969 214.025,465.6406 Q214.025,465.9844 213.6813,466.3906 Q213.1813,466.9688 212.3844,467.2969 Q211.3063,467.75 210.0094,467.75 Q208.4938,467.75 207.2906,467.125 Q206.3063,466.625 205.6188,465.5625 Q204.9313,464.4844 204.9313,463.2031 L204.9313,462.0469 Q204.9313,460.7188 205.5406,459.5781 Q206.1656,458.4219 207.2594,457.8125 Q208.3531,457.1875 209.5875,457.1875 Q210.3219,457.1875 210.9625,457.3594 Q211.6188,457.5156 212.1656,457.875 Z " fill="#000000"/><text fill="#000000" font-family="sans-serif" font-size="14" lengthAdjust="spacing" textLength="81" x="223.6" y="467.7285">OpenAnswer</text><line style="stroke:#181818;stroke-width:0.5;" x1="194.5" x2="307.5" y1="478" y2="478"/><rect fill="none" height="6" style="stroke:#C82930;stroke-width:1.0;" width="6" x="201.5" y="489.3047"/><text fill="#000000" font-family="sans-serif" font-size="14" lengthAdjust="spacing" textLength="47" x="213.5" y="496.5332">content</text><rect fill="none" height="6" style="stroke:#C82930;stroke-width:1.0;" width="6" x="201.5" y="506.9141"/><text fill="#000000" font-family="sans-serif" font-size="14" lengthAdjust="spacing" textLength="89" x="213.5" y="514.1426">isEvaluatedBy</text><line style="stroke:#181818;stroke-width:0.5;" x1="194.5" x2="307.5" y1="521.2188" y2="521.2188"/></g><!--MD5=[46bd26b9d192b770379839f45ce3e013]
class MultipleChoiceQuestion--><g id="elem_MultipleChoiceQuestion"><rect codeLine="51" fill="#F1F1F1" height="100.8281" id="MultipleChoiceQuestion" rx="2.5" ry="2.5" style="stroke:#181818;stroke-width:0.5;" width="313" x="469.5" y="240.5"/><ellipse cx="484.5" cy="256.5" fill="#A9DCDF" rx="11" ry="11" style="stroke:#181818;stroke-width:1.0;"/><path d="M486.6875,258.2656 L482.5469,258.2656 L482.125,259.2969 L482.5469,259.2969 Q483.1563,259.2969 483.4219,259.5313 Q483.6875,259.7656 483.6875,260.1563 Q483.6875,260.5313 483.4219,260.7656 Q483.1563,261 482.5469,261 L480.25,261 Q479.6406,261 479.3906,260.7656 Q479.125,260.5313 479.125,260.1406 Q479.125,259.7656 479.4063,259.5313 Q479.6719,259.2813 480.2969,259.2969 L482.9688,252.6406 L481.8594,252.6406 Q481.25,252.6406 480.9844,252.4063 Q480.7188,252.1719 480.7188,251.7813 Q480.7188,251.4063 480.9844,251.1719 Q481.25,250.9375 481.8594,250.9375 L485.5313,250.9375 L488.9219,259.2969 Q489.5156,259.2969 489.7031,259.4375 Q490.0938,259.7031 490.0938,260.1563 Q490.0938,260.5313 489.8281,260.7656 Q489.5781,261 488.9688,261 L486.6719,261 Q486.0625,261 485.7969,260.7656 Q485.5313,260.5313 485.5313,260.1406 Q485.5313,259.7656 485.7969,259.5313 Q486.0625,259.2969 486.6719,259.2969 L487.0938,259.2969 L486.6875,258.2656 Z M485.9688,256.5625 L484.6094,253.1875 L483.2344,256.5625 L485.9688,256.5625 Z " fill="#000000"/><text fill="#000000" font-family="sans-serif" font-size="14" font-style="italic" lengthAdjust="spacing" textLength="150" x="498.5" y="262.2285">MultipleChoiceQuestion</text><rect fill="#FFFFFF" height="17.0938" style="stroke:#181818;stroke-width:1.0;stroke-dasharray:2.0,2.0;" width="129" x="656.5" y="237.5"/><text fill="#000000" font-family="sans-serif" font-size="12" font-style="italic" lengthAdjust="spacing" textLength="127" x="657.5" y="250.957">StatementImplementor</text><line style="stroke:#181818;stroke-width:0.5;" x1="470.5" x2="781.5" y1="272.5" y2="272.5"/><rect fill="none" height="6" style="stroke:#C82930;stroke-width:1.0;" width="6" x="477.5" y="283.8047"/><text fill="#000000" font-family="sans-serif" font-size="14" lengthAdjust="spacing" textLength="46" x="489.5" y="291.0332">options</text><rect fill="none" height="6" style="stroke:#C82930;stroke-width:1.0;" width="6" x="477.5" y="301.4141"/><text fill="#000000" font-family="sans-serif" font-size="14" lengthAdjust="spacing" textLength="155" x="489.5" y="308.6426">answers[selectedOption]</text><line style="stroke:#181818;stroke-width:0.5;" x1="470.5" x2="781.5" y1="315.7188" y2="315.7188"/><ellipse cx="480.5" cy="330.0234" fill="#84BE84" rx="3" ry="3" style="stroke:#038048;stroke-width:1.0;"/><text fill="#000000" font-family="sans-serif" font-size="14" lengthAdjust="spacing" textLength="217" x="489.5" y="334.252">setOptions(statementImplementor)</text></g><!--MD5=[b07065dfc0d0e09965ec10bfc328bb3e]
class Option--><g id="elem_Option"><rect codeLine="57" fill="#F1F1F1" height="83.2188" id="Option" rx="2.5" ry="2.5" style="stroke:#181818;stroke-width:0.5;" width="74" x="589" y="446"/><ellipse cx="604" cy="462" fill="#ADD1B2" rx="11" ry="11" style="stroke:#181818;stroke-width:1.0;"/><path d="M606.7656,457.875 Q606.9219,457.6563 607.1094,457.5469 Q607.2969,457.4375 607.5156,457.4375 Q607.8906,457.4375 608.125,457.7031 Q608.3594,457.9531 608.3594,458.5625 L608.3594,460.0156 Q608.3594,460.625 608.125,460.8906 Q607.8906,461.1563 607.5156,461.1563 Q607.1719,461.1563 606.9688,460.9531 Q606.7656,460.7656 606.6563,460.25 Q606.6094,459.8906 606.4219,459.7031 Q606.0938,459.3281 605.4844,459.1094 Q604.875,458.8906 604.25,458.8906 Q603.4844,458.8906 602.8438,459.2188 Q602.2188,459.5469 601.7188,460.2969 Q601.2344,461.0469 601.2344,462.0781 L601.2344,463.1719 Q601.2344,464.4063 602.125,465.2344 Q603.0156,466.0469 604.6094,466.0469 Q605.5469,466.0469 606.2031,465.7969 Q606.5938,465.6406 607.0156,465.2031 Q607.2813,464.9375 607.4219,464.8594 Q607.5781,464.7813 607.7813,464.7813 Q608.1094,464.7813 608.3594,465.0469 Q608.625,465.2969 608.625,465.6406 Q608.625,465.9844 608.2813,466.3906 Q607.7813,466.9688 606.9844,467.2969 Q605.9063,467.75 604.6094,467.75 Q603.0938,467.75 601.8906,467.125 Q600.9063,466.625 600.2188,465.5625 Q599.5313,464.4844 599.5313,463.2031 L599.5313,462.0469 Q599.5313,460.7188 600.1406,459.5781 Q600.7656,458.4219 601.8594,457.8125 Q602.9531,457.1875 604.1875,457.1875 Q604.9219,457.1875 605.5625,457.3594 Q606.2188,457.5156 606.7656,457.875 Z " fill="#000000"/><text fill="#000000" font-family="sans-serif" font-size="14" lengthAdjust="spacing" textLength="42" x="618" y="467.7285">Option</text><line style="stroke:#181818;stroke-width:0.5;" x1="590" x2="662" y1="478" y2="478"/><rect fill="none" height="6" style="stroke:#C82930;stroke-width:1.0;" width="6" x="597" y="489.3047"/><text fill="#000000" font-family="sans-serif" font-size="14" lengthAdjust="spacing" textLength="47" x="609" y="496.5332">content</text><rect fill="none" height="6" style="stroke:#C82930;stroke-width:1.0;" width="6" x="597" y="506.9141"/><text fill="#000000" font-family="sans-serif" font-size="14" lengthAdjust="spacing" textLength="42" x="609" y="514.1426">isFake</text><line style="stroke:#181818;stroke-width:0.5;" x1="590" x2="662" y1="521.2188" y2="521.2188"/></g><!--MD5=[38633193c2e0773a3f578a42f185257a]
class SelectedOptionAnswer--><g id="elem_SelectedOptionAnswer"><rect codeLine="62" fill="#F1F1F1" height="65.6094" id="SelectedOptionAnswer" rx="2.5" ry="2.5" style="stroke:#181818;stroke-width:0.5;" width="175" x="378.5" y="454.5"/><ellipse cx="393.5" cy="470.5" fill="#ADD1B2" rx="11" ry="11" style="stroke:#181818;stroke-width:1.0;"/><path d="M396.2656,466.375 Q396.4219,466.1563 396.6094,466.0469 Q396.7969,465.9375 397.0156,465.9375 Q397.3906,465.9375 397.625,466.2031 Q397.8594,466.4531 397.8594,467.0625 L397.8594,468.5156 Q397.8594,469.125 397.625,469.3906 Q397.3906,469.6563 397.0156,469.6563 Q396.6719,469.6563 396.4688,469.4531 Q396.2656,469.2656 396.1563,468.75 Q396.1094,468.3906 395.9219,468.2031 Q395.5938,467.8281 394.9844,467.6094 Q394.375,467.3906 393.75,467.3906 Q392.9844,467.3906 392.3438,467.7188 Q391.7188,468.0469 391.2188,468.7969 Q390.7344,469.5469 390.7344,470.5781 L390.7344,471.6719 Q390.7344,472.9063 391.625,473.7344 Q392.5156,474.5469 394.1094,474.5469 Q395.0469,474.5469 395.7031,474.2969 Q396.0938,474.1406 396.5156,473.7031 Q396.7813,473.4375 396.9219,473.3594 Q397.0781,473.2813 397.2813,473.2813 Q397.6094,473.2813 397.8594,473.5469 Q398.125,473.7969 398.125,474.1406 Q398.125,474.4844 397.7813,474.8906 Q397.2813,475.4688 396.4844,475.7969 Q395.4063,476.25 394.1094,476.25 Q392.5938,476.25 391.3906,475.625 Q390.4063,475.125 389.7188,474.0625 Q389.0313,472.9844 389.0313,471.7031 L389.0313,470.5469 Q389.0313,469.2188 389.6406,468.0781 Q390.2656,466.9219 391.3594,466.3125 Q392.4531,465.6875 393.6875,465.6875 Q394.4219,465.6875 395.0625,465.8594 Q395.7188,466.0156 396.2656,466.375 Z " fill="#000000"/><text fill="#000000" font-family="sans-serif" font-size="14" lengthAdjust="spacing" textLength="143" x="407.5" y="476.2285">SelectedOptionAnswer</text><line style="stroke:#181818;stroke-width:0.5;" x1="379.5" x2="552.5" y1="486.5" y2="486.5"/><rect fill="none" height="6" style="stroke:#C82930;stroke-width:1.0;" width="6" x="386.5" y="497.8047"/><text fill="#000000" font-family="sans-serif" font-size="14" lengthAdjust="spacing" textLength="39" x="398.5" y="505.0332">option</text><line style="stroke:#181818;stroke-width:0.5;" x1="379.5" x2="552.5" y1="512.1094" y2="512.1094"/></g><!--MD5=[f9fadfa5a66b7e5a67b370cd443ffe52]
class Answer--><g id="elem_Answer"><rect codeLine="66" fill="#F1F1F1" height="136.0469" id="Answer" rx="2.5" ry="2.5" style="stroke:#181818;stroke-width:0.5;" width="118" x="316" y="223"/><ellipse cx="349" cy="239" fill="#ADD1B2" rx="11" ry="11" style="stroke:#181818;stroke-width:1.0;"/><path d="M351.7656,234.875 Q351.9219,234.6563 352.1094,234.5469 Q352.2969,234.4375 352.5156,234.4375 Q352.8906,234.4375 353.125,234.7031 Q353.3594,234.9531 353.3594,235.5625 L353.3594,237.0156 Q353.3594,237.625 353.125,237.8906 Q352.8906,238.1563 352.5156,238.1563 Q352.1719,238.1563 351.9688,237.9531 Q351.7656,237.7656 351.6563,237.25 Q351.6094,236.8906 351.4219,236.7031 Q351.0938,236.3281 350.4844,236.1094 Q349.875,235.8906 349.25,235.8906 Q348.4844,235.8906 347.8438,236.2188 Q347.2188,236.5469 346.7188,237.2969 Q346.2344,238.0469 346.2344,239.0781 L346.2344,240.1719 Q346.2344,241.4063 347.125,242.2344 Q348.0156,243.0469 349.6094,243.0469 Q350.5469,243.0469 351.2031,242.7969 Q351.5938,242.6406 352.0156,242.2031 Q352.2813,241.9375 352.4219,241.8594 Q352.5781,241.7813 352.7813,241.7813 Q353.1094,241.7813 353.3594,242.0469 Q353.625,242.2969 353.625,242.6406 Q353.625,242.9844 353.2813,243.3906 Q352.7813,243.9688 351.9844,244.2969 Q350.9063,244.75 349.6094,244.75 Q348.0938,244.75 346.8906,244.125 Q345.9063,243.625 345.2188,242.5625 Q344.5313,241.4844 344.5313,240.2031 L344.5313,239.0469 Q344.5313,237.7188 345.1406,236.5781 Q345.7656,235.4219 346.8594,234.8125 Q347.9531,234.1875 349.1875,234.1875 Q349.9219,234.1875 350.5625,234.3594 Q351.2188,234.5156 351.7656,234.875 Z " fill="#000000"/><text fill="#000000" font-family="sans-serif" font-size="14" lengthAdjust="spacing" textLength="46" x="367" y="244.7285">Answer</text><line style="stroke:#181818;stroke-width:0.5;" x1="317" x2="433" y1="255" y2="255"/><rect fill="none" height="6" style="stroke:#C82930;stroke-width:1.0;" width="6" x="324" y="266.3047"/><text fill="#000000" font-family="sans-serif" font-size="14" lengthAdjust="spacing" textLength="83" x="336" y="273.5332">studentName</text><rect fill="none" height="6" style="stroke:#C82930;stroke-width:1.0;" width="6" x="324" y="283.9141"/><text fill="#000000" font-family="sans-serif" font-size="14" lengthAdjust="spacing" textLength="78" x="336" y="291.1426">createdDate</text><rect fill="none" height="6" style="stroke:#C82930;stroke-width:1.0;" width="6" x="324" y="301.5234"/><text fill="#000000" font-family="sans-serif" font-size="14" lengthAdjust="spacing" textLength="28" x="336" y="308.752">isOk</text><rect fill="none" height="6" style="stroke:#C82930;stroke-width:1.0;" width="6" x="324" y="319.1328"/><text fill="#000000" font-family="sans-serif" font-size="14" lengthAdjust="spacing" textLength="73" x="336" y="326.3613">isEvaluated</text><rect fill="none" height="6" style="stroke:#C82930;stroke-width:1.0;" width="6" x="324" y="336.7422"/><text fill="#000000" font-family="sans-serif" font-size="14" lengthAdjust="spacing" textLength="92" x="336" y="343.9707">evaluatedDate</text><line style="stroke:#181818;stroke-width:0.5;" x1="317" x2="433" y1="351.0469" y2="351.0469"/></g><!--MD5=[1ac27345a8a52a4a812e38456e107300]
class Keyword--><g id="elem_Keyword"><rect fill="#F1F1F1" height="48" id="Keyword" rx="2.5" ry="2.5" style="stroke:#181818;stroke-width:0.5;" width="86" x="1613" y="463.5"/><ellipse cx="1628" cy="479.5" fill="#ADD1B2" rx="11" ry="11" style="stroke:#181818;stroke-width:1.0;"/><path d="M1630.7656,475.375 Q1630.9219,475.1563 1631.1094,475.0469 Q1631.2969,474.9375 1631.5156,474.9375 Q1631.8906,474.9375 1632.125,475.2031 Q1632.3594,475.4531 1632.3594,476.0625 L1632.3594,477.5156 Q1632.3594,478.125 1632.125,478.3906 Q1631.8906,478.6563 1631.5156,478.6563 Q1631.1719,478.6563 1630.9688,478.4531 Q1630.7656,478.2656 1630.6563,477.75 Q1630.6094,477.3906 1630.4219,477.2031 Q1630.0938,476.8281 1629.4844,476.6094 Q1628.875,476.3906 1628.25,476.3906 Q1627.4844,476.3906 1626.8438,476.7188 Q1626.2188,477.0469 1625.7188,477.7969 Q1625.2344,478.5469 1625.2344,479.5781 L1625.2344,480.6719 Q1625.2344,481.9063 1626.125,482.7344 Q1627.0156,483.5469 1628.6094,483.5469 Q1629.5469,483.5469 1630.2031,483.2969 Q1630.5938,483.1406 1631.0156,482.7031 Q1631.2813,482.4375 1631.4219,482.3594 Q1631.5781,482.2813 1631.7813,482.2813 Q1632.1094,482.2813 1632.3594,482.5469 Q1632.625,482.7969 1632.625,483.1406 Q1632.625,483.4844 1632.2813,483.8906 Q1631.7813,484.4688 1630.9844,484.7969 Q1629.9063,485.25 1628.6094,485.25 Q1627.0938,485.25 1625.8906,484.625 Q1624.9063,484.125 1624.2188,483.0625 Q1623.5313,481.9844 1623.5313,480.7031 L1623.5313,479.5469 Q1623.5313,478.2188 1624.1406,477.0781 Q1624.7656,475.9219 1625.8594,475.3125 Q1626.9531,474.6875 1628.1875,474.6875 Q1628.9219,474.6875 1629.5625,474.8594 Q1630.2188,475.0156 1630.7656,475.375 Z " fill="#000000"/><text fill="#000000" font-family="sans-serif" font-size="14" lengthAdjust="spacing" textLength="54" x="1642" y="485.2285">Keyword</text><line style="stroke:#181818;stroke-width:0.5;" x1="1614" x2="1698" y1="495.5" y2="495.5"/><line style="stroke:#181818;stroke-width:0.5;" x1="1614" x2="1698" y1="503.5" y2="503.5"/></g><!--MD5=[e68d8486b151d64b61c7f5b6e40a3de9]
reverse link Question to OpenQuestion--><g id="link_Question_OpenQuestion"><path codeLine="91" d="M756.75,113.15 C633.65,126.03 450.61,152.66 299,205.5 C267.45,216.5 234.67,233.45 207.42,249.29 " fill="none" id="Question-backto-OpenQuestion" style="stroke:#181818;stroke-width:1.0;"/><polygon fill="none" points="756.13,106.18,776.73,111.12,757.54,120.11,756.13,106.18" style="stroke:#181818;stroke-width:1.0;"/></g><!--MD5=[5ea4867893d7a476c54f91c2252dd0f8]
reverse link Question to MultipleChoiceQuestion--><g id="link_Question_MultipleChoiceQuestion"><path codeLine="92" d="M795.65,171.87 C763,194.61 727.44,219.37 697.35,240.32 " fill="none" id="Question-backto-MultipleChoiceQuestion" style="stroke:#181818;stroke-width:1.0;"/><polygon fill="none" points="792.01,165.88,812.42,160.2,800.01,177.37,792.01,165.88" style="stroke:#181818;stroke-width:1.0;"/></g><!--MD5=[ddd0ba9ff0adad4c5f8027dfa32b4028]
reverse link OpenQuestion to OpenAnswer--><g id="link_OpenQuestion_OpenAnswer"><path codeLine="94" d="M172.9,344.53 C190.41,376.36 212.41,416.36 228.6,445.78 " fill="none" id="OpenQuestion-backto-OpenAnswer" style="stroke:#181818;stroke-width:1.0;"/><polygon fill="none" points="166.43,332.77,165.8211,339.9554,172.2196,343.281,172.8285,336.0956,166.43,332.77" style="stroke:#181818;stroke-width:1.0;"/><text fill="#000000" font-family="sans-serif" font-size="13" lengthAdjust="spacing" textLength="22" x="201.0681" y="435.0512">0..n</text></g><!--MD5=[185adfbec1fc38ddaede86a7c2f0e161]
reverse link MultipleChoiceQuestion to Option--><g id="link_MultipleChoiceQuestion_Option"><path codeLine="95" d="M626,354.9 C626,384.74 626,419.54 626,445.85 " fill="none" id="MultipleChoiceQuestion-backto-Option" style="stroke:#181818;stroke-width:1.0;"/><polygon fill="none" points="626,341.58,622,347.58,626,353.58,630,347.58,626,341.58" style="stroke:#181818;stroke-width:1.0;"/><text fill="#000000" font-family="sans-serif" font-size="13" lengthAdjust="spacing" textLength="26" x="597.8469" y="435.1328">2..m</text></g><!--MD5=[7fd1c776f442e0d30b85a4710aa30f93]
reverse link MultipleChoiceQuestion to SelectedOptionAnswer--><g id="link_MultipleChoiceQuestion_SelectedOptionAnswer"><path codeLine="96" d="M576.78,351.83 C548.96,385.65 515.28,426.59 492.41,454.39 " fill="none" id="MultipleChoiceQuestion-backto-SelectedOptionAnswer" style="stroke:#181818;stroke-width:1.0;"/><polygon fill="none" points="585.21,341.58,578.3097,343.6743,577.5889,350.8492,584.4892,348.755,585.21,341.58" style="stroke:#181818;stroke-width:1.0;"/><text fill="#000000" font-family="sans-serif" font-size="13" lengthAdjust="spacing" textLength="22" x="473.5883" y="443.4827">0..n</text></g><!--MD5=[f09af3287b5f29e7742fae9c1dd502dc]
reverse link SelectedOptionAnswer to Option--><g id="link_SelectedOptionAnswer_Option"><path codeLine="97" d="M566.92,487.5 C574.21,487.5 581.49,487.5 588.78,487.5 " fill="none" id="SelectedOptionAnswer-backto-Option" style="stroke:#181818;stroke-width:1.0;"/><polygon fill="#181818" points="553.81,487.5,559.81,491.5,565.81,487.5,559.81,483.5,553.81,487.5" style="stroke:#181818;stroke-width:1.0;"/></g><!--MD5=[d836dd5f24b2050a0870c879f4cc72e6]
reverse link Answer to OpenAnswer--><g id="link_Answer_OpenAnswer"><path codeLine="98" d="M321.36,376.14 C305.92,400.36 289.77,425.68 276.85,445.95 " fill="none" id="Answer-backto-OpenAnswer" style="stroke:#181818;stroke-width:1.0;"/><polygon fill="none" points="315.5,372.31,332.15,359.21,327.3,379.84,315.5,372.31" style="stroke:#181818;stroke-width:1.0;"/></g><!--MD5=[f0b095eb9d8ac83344dc19dd00411ad6]
reverse link Answer to SelectedOptionAnswer--><g id="link_Answer_SelectedOptionAnswer"><path codeLine="99" d="M414.95,377.38 C427.76,404.76 441.16,433.41 451.02,454.48 " fill="none" id="Answer-backto-SelectedOptionAnswer" style="stroke:#181818;stroke-width:1.0;"/><polygon fill="none" points="408.58,380.29,406.44,359.21,421.26,374.36,408.58,380.29" style="stroke:#181818;stroke-width:1.0;"/></g><!--MD5=[97481891219dae41f522c9ce6709b94d]
reverse link Question to StatementImplementor--><g id="link_Question_StatementImplementor"><path codeLine="101" d="M1028.3,101 C1035.64,101 1042.99,101 1050.33,101 " fill="none" id="Question-backto-StatementImplementor" style="stroke:#181818;stroke-width:1.0;"/><polygon fill="#181818" points="1015.09,101,1021.09,105,1027.09,101,1021.09,97,1015.09,101" style="stroke:#181818;stroke-width:1.0;"/></g><!--MD5=[074ce40d5b18530ff145870ab80c27fe]
reverse link StatementImplementor to Concept--><g id="link_StatementImplementor_Concept"><path codeLine="102" d="M1236.88,107.72 C1407.18,118.91 1745.3,147.82 1848,205.5 C1859.79,212.12 1870.43,221.57 1879.64,231.77 " fill="none" id="StatementImplementor-backto-Concept" style="stroke:#181818;stroke-width:1.0;"/><polygon fill="#181818" points="1223.67,106.87,1229.4031,111.2439,1235.6456,107.6341,1229.9125,103.2602,1223.67,106.87" style="stroke:#181818;stroke-width:1.0;"/></g><!--MD5=[827ca79410d7e61c6b0c4bcab8d72c38]
reverse link StatementImplementor to DefinitionStatement--><g id="link_StatementImplementor_DefinitionStatement"><path codeLine="104" d="M1243.54,118.52 C1332.06,134.39 1460.18,162.4 1566,205.5 C1594.56,217.13 1624.17,233.9 1648.92,249.43 " fill="none" id="StatementImplementor-backto-DefinitionStatement" style="stroke:#181818;stroke-width:1.0;"/><polygon fill="none" points="1242.1,125.37,1223.6,115.03,1244.51,111.58,1242.1,125.37" style="stroke:#181818;stroke-width:1.0;"/></g><!--MD5=[60121d46e5c7959543493292a0e80900]
reverse link StatementImplementor to ClassificationStatement--><g id="link_StatementImplementor_ClassificationStatement"><path codeLine="105" d="M1234.87,171.96 C1271.35,198.04 1311.54,226.77 1343.13,249.35 " fill="none" id="StatementImplementor-backto-ClassificationStatement" style="stroke:#181818;stroke-width:1.0;"/><polygon fill="none" points="1230.61,177.52,1218.41,160.2,1238.75,166.13,1230.61,177.52" style="stroke:#181818;stroke-width:1.0;"/></g><!--MD5=[1b3943c7506d4479e70c465a6172c629]
reverse link StatementImplementor to CompositionStatement--><g id="link_StatementImplementor_CompositionStatement"><path codeLine="106" d="M1088.95,177.28 C1073.24,201.89 1056.39,228.29 1042.95,249.35 " fill="none" id="StatementImplementor-backto-CompositionStatement" style="stroke:#181818;stroke-width:1.0;"/><polygon fill="none" points="1083.19,173.29,1099.85,160.2,1094.99,180.82,1083.19,173.29" style="stroke:#181818;stroke-width:1.0;"/></g><!--MD5=[8bc2e8dbc12b0223d718cb014cac51f5]
link DefinitionStatement to Keyword--><g id="link_DefinitionStatement_Keyword"><path codeLine="108" d="M1679.39,332.51 C1669.27,349.2 1659.13,369.23 1654,389 C1648.1,411.72 1649.18,438.42 1651.4,458.13 " fill="none" id="DefinitionStatement-to-Keyword" style="stroke:#181818;stroke-width:1.0;stroke-dasharray:7.0,7.0;"/><polygon fill="#181818" points="1652.02,463.24,1654.9128,453.8256,1651.4209,458.276,1646.9704,454.7841,1652.02,463.24" style="stroke:#181818;stroke-width:1.0;"/><text fill="#000000" font-family="sans-serif" font-size="13" lengthAdjust="spacing" textLength="58" x="1655" y="403.4951">statement</text></g><!--MD5=[c282dbddbcab6742cb328f273c570f1c]
link ClassificationStatement to Keyword--><g id="link_ClassificationStatement_Keyword"><path codeLine="109" d="M1453.35,332.54 C1503.89,370.93 1578.29,427.46 1621.48,460.27 " fill="none" id="ClassificationStatement-to-Keyword" style="stroke:#181818;stroke-width:1.0;stroke-dasharray:7.0,7.0;"/><polygon fill="#181818" points="1625.55,463.37,1620.8041,454.74,1621.5689,460.3449,1615.964,461.1098,1625.55,463.37" style="stroke:#181818;stroke-width:1.0;"/><text fill="#000000" font-family="sans-serif" font-size="13" lengthAdjust="spacing" textLength="58" x="1551" y="403.4951">statement</text></g><!--MD5=[2bc7af9abfa5692ae2d7d61e45370c16]
link CompositionStatement to Keyword--><g id="link_CompositionStatement_Keyword"><path codeLine="110" d="M1142.15,332.54 C1172.1,341.72 1204.08,351.08 1234,359 C1253.36,364.13 1567.68,428.89 1586,437 C1599.45,442.96 1612.96,451.69 1624.46,460.18 " fill="none" id="CompositionStatement-to-Keyword" style="stroke:#181818;stroke-width:1.0;stroke-dasharray:7.0,7.0;"/><polygon fill="#181818" points="1628.61,463.29,1623.81,454.69,1624.61,460.29,1619.01,461.09,1628.61,463.29" style="stroke:#181818;stroke-width:1.0;"/><text fill="#000000" font-family="sans-serif" font-size="13" lengthAdjust="spacing" textLength="58" x="1451" y="403.4951">statement</text></g><!--MD5=[89b9a6f740dd4f32ed8bc9acc76cc858]
link DefinitionStatement to Definition--><g id="link_DefinitionStatement_Definition"><path codeLine="112" d="M1723.09,332.77 C1734.81,364.41 1751.04,408.26 1763.17,441.03 " fill="none" id="DefinitionStatement-to-Definition" style="stroke:#181818;stroke-width:1.0;stroke-dasharray:7.0,7.0;"/><polygon fill="#181818" points="1764.93,445.78,1765.5415,435.9501,1763.1869,441.0937,1758.0434,438.7391,1764.93,445.78" style="stroke:#181818;stroke-width:1.0;"/><text fill="#000000" font-family="sans-serif" font-size="13" lengthAdjust="spacing" textLength="52" x="1751" y="403.4951">solutions</text></g><!--MD5=[3e984bceee0a5dcf82be8de0f56332b4]
link ClassificationStatement to Classification--><g id="link_ClassificationStatement_Classification"><path codeLine="113" d="M1400.57,332.78 C1402.14,382.19 1407.72,467.55 1427,538 C1432.32,557.45 1441.61,578.1 1449.67,594.05 " fill="none" id="ClassificationStatement-to-Classification" style="stroke:#181818;stroke-width:1.0;stroke-dasharray:7.0,7.0;"/><polygon fill="#181818" points="1452.12,598.85,1451.5596,589.0171,1449.8326,594.4039,1444.4458,592.6769,1452.12,598.85" style="stroke:#181818;stroke-width:1.0;"/><text fill="#000000" font-family="sans-serif" font-size="13" lengthAdjust="spacing" textLength="52" x="1428" y="492.9951">solutions</text></g><!--MD5=[61794bbecc3d0a341d463bbfaf8255d1]
link CompositionStatement to Composition--><g id="link_CompositionStatement_Composition"><path codeLine="114" d="M1136.86,332.6 C1205.44,355.39 1293.23,383.8 1372,407 C1421.85,421.68 1443.89,405.21 1485,437 C1525.77,468.53 1503.47,503.76 1542,538 C1582.15,573.68 1639.62,595.62 1682.83,608.09 " fill="none" id="CompositionStatement-to-Composition" style="stroke:#181818;stroke-width:1.0;stroke-dasharray:7.0,7.0;"/><polygon fill="#181818" points="1687.76,609.49,1680.2002,603.1773,1682.9513,608.1202,1678.0085,610.8713,1687.76,609.49" style="stroke:#181818;stroke-width:1.0;"/><text fill="#000000" font-family="sans-serif" font-size="13" lengthAdjust="spacing" textLength="52" x="1543" y="492.9951">solutions</text></g><!--MD5=[357c4abe4ae02615f163987610a5cb7f]
reverse link Concept to Keyword--><g id="link_Concept_Keyword"><path codeLine="116" d="M1865.98,360.16 C1850.18,377.35 1831.73,394.46 1812,407 C1774.63,430.74 1755.99,416.01 1717,437 C1703.91,444.05 1690.91,454.07 1680.29,463.25 " fill="none" id="Concept-backto-Keyword" style="stroke:#181818;stroke-width:1.0;"/><polygon fill="#181818" points="1874.97,350.06,1867.992,351.8787,1866.987,359.0194,1873.965,357.2007,1874.97,350.06" style="stroke:#181818;stroke-width:1.0;"/></g><!--MD5=[543bb2115b5a10697a67507a00f6a2f4]
reverse link Concept to Definition--><g id="link_Concept_Definition"><path codeLine="117" d="M1882.75,361.72 C1874.03,377.07 1864.23,392.94 1854,407 C1844.35,420.27 1832.72,433.7 1821.56,445.65 " fill="none" id="Concept-backto-Definition" style="stroke:#181818;stroke-width:1.0;"/><polygon fill="none" points="1889.21,350.12,1882.7985,353.4203,1883.3789,360.608,1889.7905,357.3077,1889.21,350.12" style="stroke:#181818;stroke-width:1.0;"/><text fill="#000000" font-family="sans-serif" font-size="13" lengthAdjust="spacing" textLength="26" x="1800.1118" y="435.2109">0..m</text></g><!--MD5=[54f9360500e0fd532969fc16f437bbea]
reverse link Concept to Relation--><g id="link_Concept_Relation"><path codeLine="118" d="M1912.86,363.38 C1911.1,387.81 1909.18,414.59 1907.57,436.92 " fill="none" id="Concept-backto-Relation" style="stroke:#181818;stroke-width:1.0;"/><polygon fill="none" points="1913.82,350.09,1909.3951,355.7839,1912.9491,362.0584,1917.374,356.3645,1913.82,350.09" style="stroke:#181818;stroke-width:1.0;"/><text fill="#000000" font-family="sans-serif" font-size="13" lengthAdjust="spacing" textLength="26" x="1880.2439" y="426.2141">0..m</text></g><!--MD5=[90ea77717cc70d7f588b001bbb985d62]
reverse link Relation to Classification--><g id="link_Relation_Classification"><path codeLine="119" d="M1843.58,537.72 C1843.38,537.81 1843.19,537.91 1843,538 C1737.08,589.19 1599.33,609.65 1522.77,617.47 " fill="none" id="Relation-backto-Classification" style="stroke:#181818;stroke-width:1.0;"/><polygon fill="none" points="1840.24,531.56,1861,527.31,1847.42,543.58,1840.24,531.56" style="stroke:#181818;stroke-width:1.0;"/></g><!--MD5=[aac130c8b5f905729b18e85e231f7b50]
reverse link Relation to Composition--><g id="link_Relation_Composition"><path codeLine="120" d="M1845.19,537.27 C1819.87,558.26 1791.47,581.81 1771.04,598.75 " fill="none" id="Relation-backto-Composition" style="stroke:#181818;stroke-width:1.0;"/><polygon fill="none" points="1840.99,531.65,1860.85,524.28,1849.93,542.43,1840.99,531.65" style="stroke:#181818;stroke-width:1.0;"/></g><!--MD5=[cefdb59ae790fc4513a421ef7bc3fbc1]
@startuml ConceptDomainDetailBridge

class Concept {
    - keyword
    - definitions[ ]
    - relations[ ]
    - questions[ ]
}

class Definition {
    - content
    - isFake
}

class Relation {
    - isFake
    - concept
    - isAfferent
}

class Classification

class Composition

package Primary:withKeyword {
    class DefinitionStatement {
        - statement ="¿Qué es KEYWORD?"
        - solutions [ Definition]
    }

    class ClassificationStatement {
        - statement = "Qué tipos hay de KEYWORD"
        - solutions [Classification]
    }

    class CompositionStatement {
        - statement ="¿Qué conceptos destacarias del KEYWORD?"
        - solutions = [Composition]
    }
}

abstract class OpenQuestion<StatementImplementor>{
    -answers[openAnswer]
    + addToSolutions(statementImplementor)
}

class OpenAnswer {
    - content
    - isEvaluatedBy
}

abstract class MultipleChoiceQuestion<StatementImplementor>{
    - options
    - answers[selectedOption]
    + setOptions(statementImplementor)
}

class Option {
    - content
    - isFake
}

class SelectedOptionAnswer {
    - option
}

class Answer {
    - studentName
    - createdDate
    - isOk
    - isEvaluated
    - evaluatedDate
}

package Bridge {
    abstract class Question {
        - statementImplementor
        - answers[ ]
        # void setStatementImplementor()
        + bool isAnsweredBy(studentName)
    }

    class StatementImplementor {
        - statement
        - solutions[target]
        + setOptions()
        + addToConcept()
    }

}

Question <|- - OpenQuestion
Question <|- - MultipleChoiceQuestion

OpenQuestion o- -"0..n" OpenAnswer
MultipleChoiceQuestion o- -"2..m" Option
MultipleChoiceQuestion o- -"0..n" SelectedOptionAnswer
SelectedOptionAnswer *- Option
Answer <|- - OpenAnswer
Answer <|- - SelectedOptionAnswer

Question *- StatementImplementor
StatementImplementor *- - Concept

StatementImplementor <|- - DefinitionStatement
StatementImplementor <|- - ClassificationStatement
StatementImplementor <|- - CompositionStatement

DefinitionStatement ..> Keyword :statement
ClassificationStatement ..> Keyword :statement
CompositionStatement ..> Keyword: statement

DefinitionStatement ..> Definition :solutions
ClassificationStatement ..> Classification :solutions
CompositionStatement ..-> Composition:solutions

Concept *- - Keyword
Concept o- -"0..m" Definition
Concept o- - "0..m" Relation
Relation <|- - Classification
Relation <|- - Composition

@enduml

PlantUML version 1.2022.7(Mon Aug 22 18:01:30 WEST 2022)
(GPL source distribution)
Java Runtime: OpenJDK Runtime Environment
JVM: OpenJDK 64-Bit Server VM
Default Encoding: Cp1252
Language: es
Country: ES
--></g></svg>