<?xml version="1.0" encoding="UTF-8" standalone="no"?><svg xmlns="http://www.w3.org/2000/svg" xmlns:xlink="http://www.w3.org/1999/xlink" contentStyleType="text/css" height="904px" preserveAspectRatio="none" style="width:710px;height:904px;background:#FFFFFF;" version="1.1" viewBox="0 0 710 904" width="710px" zoomAndPan="magnify"><defs/><g><g id="ConceptCreated"><rect fill="#F1F1F1" height="72.8281" rx="12.5" ry="12.5" style="stroke:#181818;stroke-width:0.5;" width="124" x="379" y="104"/><line style="stroke:#181818;stroke-width:0.5;" x1="379" x2="503" y1="131.6094" y2="131.6094"/><text fill="#000000" font-family="sans-serif" font-size="14" lengthAdjust="spacing" textLength="104" x="389" y="123.5332">ConceptCreated</text><text fill="#000000" font-family="sans-serif" font-size="14" lengthAdjust="spacing" textLength="55" x="384" y="151.1426">category</text><text fill="#000000" font-family="sans-serif" font-size="14" lengthAdjust="spacing" textLength="52" x="384" y="168.752">keyword</text></g><g id="ConceptWaitingforDefinition"><rect fill="#F1F1F1" height="108.0469" rx="12.5" ry="12.5" style="stroke:#181818;stroke-width:0.5;" width="262" x="209" y="255"/><line style="stroke:#181818;stroke-width:0.5;" x1="209" x2="471" y1="282.6094" y2="282.6094"/><text fill="#000000" font-family="sans-serif" font-size="14" lengthAdjust="spacing" textLength="176" x="252" y="274.5332">ConceptWaitingforDefinition</text><text fill="#000000" font-family="sans-serif" font-size="14" lengthAdjust="spacing" textLength="55" x="214" y="302.1426">category</text><text fill="#000000" font-family="sans-serif" font-size="14" lengthAdjust="spacing" textLength="52" x="214" y="319.752">keyword</text><text fill="#000000" font-family="sans-serif" font-size="14" lengthAdjust="spacing" textLength="242" x="214" y="337.3613">DefinitionQuestion opened limited time</text><text fill="#000000" font-family="sans-serif" font-size="14" lengthAdjust="spacing" textLength="174" x="214" y="354.9707">AnswersToReviewDefinition</text></g><g id="ConceptWaitingforClassification"><rect fill="#F1F1F1" height="50" rx="12.5" ry="12.5" style="stroke:#181818;stroke-width:0.5;" width="220" x="397" y="720"/><line style="stroke:#181818;stroke-width:0.5;" x1="397" x2="617" y1="747.6094" y2="747.6094"/><text fill="#000000" font-family="sans-serif" font-size="14" lengthAdjust="spacing" textLength="200" x="407" y="739.5332">ConceptWaitingforClassification</text></g><g id="ConceptWithDefinitions"><rect fill="#F1F1F1" height="72.8281" rx="12.5" ry="12.5" style="stroke:#181818;stroke-width:0.5;" width="184" x="238" y="441"/><line style="stroke:#181818;stroke-width:0.5;" x1="238" x2="422" y1="468.6094" y2="468.6094"/><text fill="#000000" font-family="sans-serif" font-size="14" lengthAdjust="spacing" textLength="147" x="256.5" y="460.5332">ConceptWithDefinitions</text><text fill="#000000" font-family="sans-serif" font-size="14" lengthAdjust="spacing" textLength="135" x="243" y="488.1426">Real/Fake Definitions</text><text fill="#000000" font-family="sans-serif" font-size="14" lengthAdjust="spacing" textLength="164" x="243" y="505.752">DefinitionQuestion Closed</text></g><g id="ConceptWithJustifications"><rect fill="#F1F1F1" height="50" rx="12.5" ry="12.5" style="stroke:#181818;stroke-width:0.5;" width="181" x="21.5" y="720"/><line style="stroke:#181818;stroke-width:0.5;" x1="21.5" x2="202.5" y1="747.6094" y2="747.6094"/><text fill="#000000" font-family="sans-serif" font-size="14" lengthAdjust="spacing" textLength="161" x="31.5" y="739.5332">ConceptWithJustifications</text></g><ellipse cx="441" cy="16" fill="#222222" rx="10" ry="10" style="stroke:none;stroke-width:1.0;"/><g id="ConceptWaitingforJustification"><rect fill="#F1F1F1" height="50" rx="12.5" ry="12.5" style="stroke:#181818;stroke-width:0.5;" width="210" x="7" y="592"/><line style="stroke:#181818;stroke-width:0.5;" x1="7" x2="217" y1="619.6094" y2="619.6094"/><text fill="#000000" font-family="sans-serif" font-size="14" lengthAdjust="spacing" textLength="190" x="17" y="611.5332">ConceptWaitingforJustification</text></g><g id="ConceptWithClassification"><rect fill="#F1F1F1" height="50" rx="12.5" ry="12.5" style="stroke:#181818;stroke-width:0.5;" width="184" x="415" y="848"/><line style="stroke:#181818;stroke-width:0.5;" x1="415" x2="599" y1="875.6094" y2="875.6094"/><text fill="#000000" font-family="sans-serif" font-size="14" lengthAdjust="spacing" textLength="164" x="425" y="867.5332">ConceptWithClassification</text></g><!--MD5=[96078515fb4e5b5c239caa450619bcf1]
link *start to ConceptCreated--><g id="link_*start_ConceptCreated"><path d="M441,26.21 C441,41.49 441,72.99 441,98.9 " fill="none" id="*start-to-ConceptCreated" style="stroke:#181818;stroke-width:1.0;"/><polygon fill="#181818" points="441,104,445,95,441,99,437,95,441,104" style="stroke:#181818;stroke-width:1.0;"/><text fill="#000000" font-family="sans-serif" font-size="13" lengthAdjust="spacing" textLength="122" x="442" y="70.4951">Editor:createConcept</text></g><!--MD5=[baf3b4a549484554ffc7ce439bfe6193]
link ConceptCreated to ConceptWaitingforDefinition--><g id="link_ConceptCreated_ConceptWaitingforDefinition"><path d="M378.86,168.9 C363.82,178.66 349.61,191.25 341,207 C333.99,219.81 331.44,234.98 331.18,249.61 " fill="none" id="ConceptCreated-to-ConceptWaitingforDefinition" style="stroke:#181818;stroke-width:1.0;"/><polygon fill="#181818" points="331.19,254.97,335.1643,245.9586,331.1757,249.97,327.1643,245.9815,331.19,254.97" style="stroke:#181818;stroke-width:1.0;"/><text fill="#000000" font-family="sans-serif" font-size="13" lengthAdjust="spacing" textLength="174" x="342" y="221.4951">Editor:OpenDefinitionQuestion</text></g><!--MD5=[e428a199c657dbca2615e1ccedf52640]
link ConceptWaitingforDefinition to ConceptWithDefinitions--><g id="link_ConceptWaitingforDefinition_ConceptWithDefinitions"><path d="M336.81,363.14 C335.4,386.66 333.76,413.9 332.45,435.77 " fill="none" id="ConceptWaitingforDefinition-to-ConceptWithDefinitions" style="stroke:#181818;stroke-width:1.0;"/><polygon fill="#181818" points="332.14,440.93,336.6733,432.1865,332.4403,435.939,328.6878,431.706,332.14,440.93" style="stroke:#181818;stroke-width:1.0;"/><text fill="#000000" font-family="sans-serif" font-size="13" lengthAdjust="spacing" textLength="145" x="336" y="407.4951">Reviewer:ReviewAnswers</text></g><!--MD5=[cf8b0521448a0af15c3df3959bda6261]
link ConceptWithDefinitions to ConceptWaitingforJustification--><g id="link_ConceptWithDefinitions_ConceptWaitingforJustification"><path d="M237.89,494.37 C184.62,505.64 125.01,522.56 109,544 C100.07,555.96 100.12,572.42 102.71,586.58 " fill="none" id="ConceptWithDefinitions-to-ConceptWaitingforJustification" style="stroke:#181818;stroke-width:1.0;"/><polygon fill="#181818" points="103.77,591.68,105.8627,582.056,102.7565,586.7838,98.0287,583.6776,103.77,591.68" style="stroke:#181818;stroke-width:1.0;"/><text fill="#000000" font-family="sans-serif" font-size="13" lengthAdjust="spacing" textLength="193" x="110" y="558.4951">Editor: OpenJustificationQuestion</text></g><!--MD5=[1ce0f6bc40ca4e0a051d49b9cd00a240]
link ConceptWaitingforJustification to ConceptWithJustifications--><g id="link_ConceptWaitingforJustification_ConceptWithJustifications"><path d="M112,642.29 C112,662.95 112,692.67 112,714.65 " fill="none" id="ConceptWaitingforJustification-to-ConceptWithJustifications" style="stroke:#181818;stroke-width:1.0;"/><polygon fill="#181818" points="112,719.78,116,710.78,112,714.78,108,710.78,112,719.78" style="stroke:#181818;stroke-width:1.0;"/><text fill="#000000" font-family="sans-serif" font-size="13" lengthAdjust="spacing" textLength="153" x="113" y="686.4951">Reviewer : ReviewAnswers</text></g><!--MD5=[dd9427ebd8cd4ec8773fa9ae8af39bd1]
link ConceptCreated to ConceptWaitingforClassification--><g id="link_ConceptCreated_ConceptWaitingforClassification"><path d="M495.11,177.29 C504.97,185.98 514.25,195.98 521,207 C545,246.18 543,262.06 543,308 C543,308 543,308 543,618 C543,652.34 530.49,689.99 520.21,715.1 " fill="none" id="ConceptCreated-to-ConceptWaitingforClassification" style="stroke:#181818;stroke-width:1.0;"/><polygon fill="#181818" points="518.19,719.96,525.3334,713.1798,520.106,715.3417,517.9441,710.1142,518.19,719.96" style="stroke:#181818;stroke-width:1.0;"/><text fill="#000000" font-family="sans-serif" font-size="13" lengthAdjust="spacing" textLength="158" x="544" y="482.9951">Editor: OpenClassQuestion</text></g><!--MD5=[0ccdaf3a2f02bed618b03c5e0cfceea9]
link ConceptWaitingforClassification to ConceptWithClassification--><g id="link_ConceptWaitingforClassification_ConceptWithClassification"><path d="M507,770.29 C507,790.95 507,820.67 507,842.65 " fill="none" id="ConceptWaitingforClassification-to-ConceptWithClassification" style="stroke:#181818;stroke-width:1.0;"/><polygon fill="#181818" points="507,847.78,511,838.78,507,842.78,503,838.78,507,847.78" style="stroke:#181818;stroke-width:1.0;"/><text fill="#000000" font-family="sans-serif" font-size="13" lengthAdjust="spacing" textLength="142" x="508" y="814.4951">Reviewer: ReviewAnswer</text></g><!--MD5=[b6933b886160bd7bc530ab25962c7bde]
link ConceptWithDefinitions to ConceptWaitingforClassification--><g id="link_ConceptWithDefinitions_ConceptWaitingforClassification"><path d="M328.08,514.2 C327.89,549.38 332.29,603.33 357,642 C378.25,675.26 414.65,700.4 446.27,717.4 " fill="none" id="ConceptWithDefinitions-to-ConceptWaitingforClassification" style="stroke:#181818;stroke-width:1.0;"/><polygon fill="#181818" points="450.9,719.85,444.8255,712.0975,446.4835,717.506,441.0751,719.1639,450.9,719.85" style="stroke:#181818;stroke-width:1.0;"/><text fill="#000000" font-family="sans-serif" font-size="13" lengthAdjust="spacing" textLength="158" x="358" y="622.4951">Editor: OpenClassQuestion</text></g><!--MD5=[a4851dbbc6e27d84487dd6a96dc859bb]
link ConceptWithJustifications to ConceptWaitingforClassification--><g id="link_ConceptWithJustifications_ConceptWaitingforClassification"><path d="M202.62,745 C258.78,745 331.44,745 391.68,745 " fill="none" id="ConceptWithJustifications-to-ConceptWaitingforClassification" style="stroke:#181818;stroke-width:1.0;"/><polygon fill="#181818" points="396.74,745,387.74,741,391.74,745,387.74,749,396.74,745" style="stroke:#181818;stroke-width:1.0;"/><text fill="#000000" font-family="sans-serif" font-size="13" lengthAdjust="spacing" textLength="158" x="220.75" y="738.4951">Editor: OpenClassQuestion</text></g><!--MD5=[a401a17ea5cf5942e3d0f4f91e03ed0d]
@startuml ConceptStates

state ConceptCreated
state ConceptWaitingforDefinition
state ConceptWaitingforClassification
state ConceptWithDefinitions
state ConceptWithJustifications


ConceptCreated: category
ConceptCreated: keyword
ConceptWaitingforDefinition:category
ConceptWaitingforDefinition:keyword
ConceptWaitingforDefinition: DefinitionQuestion opened limited time
ConceptWaitingforDefinition: AnswersToReviewDefinition

ConceptWithDefinitions: Real/Fake Definitions
ConceptWithDefinitions: DefinitionQuestion Closed

[*] - -> ConceptCreated : Editor:createConcept
ConceptCreated - -> ConceptWaitingforDefinition : Editor:OpenDefinitionQuestion
ConceptWaitingforDefinition - -> ConceptWithDefinitions : Reviewer:ReviewAnswers
ConceptWithDefinitions - -> ConceptWaitingforJustification : Editor: OpenJustificationQuestion
ConceptWaitingforJustification - ->ConceptWithJustifications : Reviewer : ReviewAnswers
ConceptCreated -> ConceptWaitingforClassification : Editor: OpenClassQuestion
ConceptWaitingforClassification - -> ConceptWithClassification : Reviewer: ReviewAnswer
ConceptWithDefinitions -> ConceptWaitingforClassification : Editor: OpenClassQuestion
ConceptWithJustifications -> ConceptWaitingforClassification : Editor: OpenClassQuestion
@enduml

PlantUML version 1.2022.7(Mon Aug 22 18:01:30 WEST 2022)
(GPL source distribution)
Java Runtime: OpenJDK Runtime Environment
JVM: OpenJDK 64-Bit Server VM
Default Encoding: Cp1252
Language: es
Country: ES
--></g></svg>