<?xml version="1.0" encoding="UTF-8" standalone="no"?><svg xmlns="http://www.w3.org/2000/svg" xmlns:xlink="http://www.w3.org/1999/xlink" contentStyleType="text/css" height="628px" preserveAspectRatio="none" style="width:749px;height:628px;background:#FFFFFF;" version="1.1" viewBox="0 0 749 628" width="749px" zoomAndPan="magnify"><defs/><g><!--MD5=[fee662a292a0353a69bd162820bae93b]
entity User--><g id="elem_User"><ellipse cx="438.5" cy="443" fill="#F1F1F1" rx="8" ry="8" style="stroke:#181818;stroke-width:0.5;"/><path d="M438.5,451 L438.5,478 M425.5,459 L451.5,459 M438.5,478 L425.5,493 M438.5,478 L451.5,493 " fill="none" style="stroke:#181818;stroke-width:0.5;"/><text fill="#000000" font-family="sans-serif" font-size="14" lengthAdjust="spacing" textLength="29" x="424" y="509.0332">User</text></g><!--MD5=[2c65dbceb6f8e708b4a833ee0e24817e]
entity Editor--><g id="elem_Editor"><ellipse cx="200.5" cy="203" fill="#F1F1F1" rx="8" ry="8" style="stroke:#181818;stroke-width:0.5;"/><path d="M200.5,211 L200.5,238 M187.5,219 L213.5,219 M200.5,238 L187.5,253 M200.5,238 L213.5,253 " fill="none" style="stroke:#181818;stroke-width:0.5;"/><text fill="#000000" font-family="sans-serif" font-size="14" lengthAdjust="spacing" textLength="37" x="182" y="269.0332">Editor</text></g><!--MD5=[b09503c001490bdaf25988c5c0400a0b]
entity Reviewer--><g id="elem_Reviewer"><ellipse cx="35" cy="249" fill="#F1F1F1" rx="8" ry="8" style="stroke:#181818;stroke-width:0.5;"/><path d="M35,257 L35,284 M22,265 L48,265 M35,284 L22,299 M35,284 L48,299 " fill="none" style="stroke:#181818;stroke-width:0.5;"/><text fill="#000000" font-family="sans-serif" font-size="14" lengthAdjust="spacing" textLength="58" x="6" y="315.0332">Reviewer</text></g><g id="elem_login"><ellipse cx="671.734" cy="340.4517" fill="#F1F1F1" rx="36.234" ry="15.4517" style="stroke:#181818;stroke-width:0.5;"/><text fill="#000000" font-family="sans-serif" font-size="14" lengthAdjust="spacing" textLength="35" x="654.234" y="344.1802">Login</text></g><g id="elem_register"><ellipse cx="671.5928" cy="406.4872" fill="#F1F1F1" rx="49.0928" ry="15.4872" style="stroke:#181818;stroke-width:0.5;"/><text fill="#000000" font-family="sans-serif" font-size="14" lengthAdjust="spacing" textLength="53" x="642.6382" y="410.8807">Register</text></g><g id="elem_createQ"><ellipse cx="438.4763" cy="23.5953" fill="#F1F1F1" rx="75.9763" ry="17.5953" style="stroke:#181818;stroke-width:0.5;"/><text fill="#000000" font-family="sans-serif" font-size="14" lengthAdjust="spacing" textLength="104" x="383.5467" y="28.0957">Create Question</text></g><g id="elem_importQ"><ellipse cx="438.481" cy="93.2962" fill="#F1F1F1" rx="74.481" ry="17.2962" style="stroke:#181818;stroke-width:0.5;"/><text fill="#000000" font-family="sans-serif" font-size="14" lengthAdjust="spacing" textLength="100" x="385.481" y="97.8128">Import Question</text></g><g id="elem_updateQ"><ellipse cx="438.7363" cy="163.7473" fill="#F1F1F1" rx="76.7363" ry="17.7473" style="stroke:#181818;stroke-width:0.5;"/><text fill="#000000" font-family="sans-serif" font-size="14" lengthAdjust="spacing" textLength="106" x="383.2006" y="168.1555">Update Question</text></g><g id="elem_deleteQ"><ellipse cx="438.7256" cy="233.4451" fill="#F1F1F1" rx="75.2256" ry="17.4451" style="stroke:#181818;stroke-width:0.5;"/><text fill="#000000" font-family="sans-serif" font-size="14" lengthAdjust="spacing" textLength="102" x="384.7256" y="237.9617">Delete Question</text></g><g id="elem_composeT"><ellipse cx="671.5677" cy="473.7135" fill="#F1F1F1" rx="71.5677" ry="16.7135" style="stroke:#181818;stroke-width:0.5;"/><text fill="#000000" font-family="sans-serif" font-size="14" lengthAdjust="spacing" textLength="92" x="622.5677" y="478.2301">Compose Test</text></g><g id="elem_editT"><ellipse cx="671.3032" cy="540.5087" fill="#F1F1F1" rx="51.3032" ry="15.5087" style="stroke:#181818;stroke-width:0.5;"/><text fill="#000000" font-family="sans-serif" font-size="14" lengthAdjust="spacing" textLength="56" x="640.3032" y="545.0253">Edit Test</text></g><g id="elem_deleteT"><ellipse cx="671.3631" cy="606.609" fill="#F1F1F1" rx="63.8631" ry="15.609" style="stroke:#181818;stroke-width:0.5;"/><text fill="#000000" font-family="sans-serif" font-size="14" lengthAdjust="spacing" textLength="73" x="631.8631" y="611.1256">Delete Test</text></g><g id="elem_execT"><ellipse cx="438.5887" cy="563.5177" fill="#F1F1F1" rx="68.0887" ry="16.0177" style="stroke:#181818;stroke-width:0.5;"/><text fill="#000000" font-family="sans-serif" font-size="14" lengthAdjust="spacing" textLength="82" x="394.5887" y="568.0343">Execute Test</text></g><g id="elem_editC"><ellipse cx="438.457" cy="302.2914" fill="#F1F1F1" rx="69.457" ry="16.2914" style="stroke:#181818;stroke-width:0.5;"/><text fill="#000000" font-family="sans-serif" font-size="14" lengthAdjust="spacing" textLength="86" x="392.457" y="306.808">Edit Category</text></g><g id="elem_sendQ"><ellipse cx="438.3975" cy="376.6795" fill="#F1F1F1" rx="101.3975" ry="22.6795" style="stroke:#181818;stroke-width:0.5;"/><text fill="#000000" font-family="sans-serif" font-size="14" lengthAdjust="spacing" textLength="164" x="356.3975" y="380.408">Send To Review Question</text></g><g id="elem_review"><ellipse cx="200.7363" cy="325.7473" fill="#F1F1F1" rx="76.7363" ry="17.7473" style="stroke:#181818;stroke-width:0.5;"/><text fill="#000000" font-family="sans-serif" font-size="14" lengthAdjust="spacing" textLength="106" x="145.2006" y="330.1555">Review Question</text></g><!--MD5=[77b6810f9f1d8e17e1346401c10c77dc]
entity Executor--><g id="elem_Executor"><ellipse cx="200.5" cy="488" fill="#F1F1F1" rx="8" ry="8" style="stroke:#181818;stroke-width:0.5;"/><path d="M200.5,496 L200.5,523 M187.5,504 L213.5,504 M200.5,523 L187.5,538 M200.5,523 L213.5,538 " fill="none" style="stroke:#181818;stroke-width:0.5;"/><text fill="#000000" font-family="sans-serif" font-size="14" lengthAdjust="spacing" textLength="55" x="173" y="554.0332">Executor</text></g><!--MD5=[f7383e4cdc50b73a3a26567783bb3d45]
link Editor to User--><g id="link_Editor_User"><path d="M219.01,243.32 C235.68,253.39 260.6,270.39 277,290.5 C316.21,338.56 294.74,371.1 337,416.5 C355.86,436.76 383.58,451.73 405.13,461.24 " fill="none" id="Editor-to-User" style="stroke:#181818;stroke-width:1.0;"/><polygon fill="none" points="407.85,454.79,423.75,468.79,402.58,467.76,407.85,454.79" style="stroke:#181818;stroke-width:1.0;"/></g><!--MD5=[f74b4e3ba99d1f3f5800955a8b8fef81]
link Reviewer to Editor--><g id="link_Reviewer_Editor"><path d="M64.11,271.59 C91.29,263.94 132.64,252.31 162.49,243.91 " fill="none" id="Reviewer-to-Editor" style="stroke:#181818;stroke-width:1.0;"/><polygon fill="none" points="160.68,237.15,181.83,238.47,164.47,250.63,160.68,237.15" style="stroke:#181818;stroke-width:1.0;"/></g><!--MD5=[c4ba78a7e4ac5cb98d4cdf14b6befc04]
link Executor to User--><g id="link_Executor_User"><path d="M228.11,513.43 C271.31,505.19 356.62,488.92 403.92,479.9 " fill="none" id="Executor-to-User" style="stroke:#181818;stroke-width:1.0;"/><polygon fill="none" points="402.78,472.99,423.74,476.12,405.41,486.75,402.78,472.99" style="stroke:#181818;stroke-width:1.0;"/></g><!--MD5=[03342a11f01a1be580e4b5f6ff49d43f]
link Editor to createQ--><g id="link_Editor_createQ"><path d="M219.15,200.43 C241.62,161.3 283.97,96.64 337,58.5 C349.53,49.49 364.59,42.63 379.19,37.48 " fill="none" id="Editor-to-createQ" style="stroke:#181818;stroke-width:1.0;"/><polygon fill="#181818" points="384.12,35.8,374.3111,34.9132,379.3867,37.411,376.8888,42.4866,384.12,35.8" style="stroke:#181818;stroke-width:1.0;"/></g><!--MD5=[0b6e035e7116fccf5b99561d1b2bc178]
link Editor to importQ--><g id="link_Editor_importQ"><path d="M219.02,216.85 C243.65,194.2 290.7,153.62 337,128.5 C351.79,120.47 368.78,113.73 384.53,108.37 " fill="none" id="Editor-to-importQ" style="stroke:#181818;stroke-width:1.0;"/><polygon fill="#181818" points="389.37,106.75,379.5652,105.8191,384.6295,108.3397,382.1088,113.4039,389.37,106.75" style="stroke:#181818;stroke-width:1.0;"/></g><!--MD5=[c0af9a82889b151b806d63485d71e5da]
link Editor to updateQ--><g id="link_Editor_updateQ"><path d="M219.24,228.24 C254.23,217.86 333.34,194.39 386.08,178.75 " fill="none" id="Editor-to-updateQ" style="stroke:#181818;stroke-width:1.0;"/><polygon fill="#181818" points="391.1,177.26,381.3319,176.0014,386.3089,178.6902,383.6202,183.6672,391.1,177.26" style="stroke:#181818;stroke-width:1.0;"/></g><!--MD5=[48f36a504ffd22a201edd904587fb7f6]
link Editor to deleteQ--><g id="link_Editor_deleteQ"><path d="M219.24,233.5 C248.46,233.5 308.45,233.5 358.16,233.5 " fill="none" id="Editor-to-deleteQ" style="stroke:#181818;stroke-width:1.0;"/><polygon fill="#181818" points="363.24,233.5,354.24,229.5,358.24,233.5,354.24,237.5,363.24,233.5" style="stroke:#181818;stroke-width:1.0;"/></g><!--MD5=[37e9b813b237e9a7b8f9008cf1d62cd7]
link Editor to sendQ--><g id="link_Editor_sendQ"><path d="M219.22,246.82 C234.54,258.35 257.26,275.48 277,290.5 C303.74,310.85 307.78,319.91 337,336.5 C349.58,343.64 363.69,350.11 377.27,355.66 " fill="none" id="Editor-to-sendQ" style="stroke:#181818;stroke-width:1.0;"/><polygon fill="#181818" points="382.25,357.66,375.398,350.5854,377.6126,355.7908,372.4072,358.0053,382.25,357.66" style="stroke:#181818;stroke-width:1.0;"/></g><!--MD5=[bc81ebb8a732e08f29a60712843ac489]
link User to login--><g id="link_User_login"><path d="M453.1,466.38 C472.67,456 509.75,435.84 540,416.5 C567.64,398.83 571.69,390.08 600,373.5 C612.77,366.02 627.53,358.9 640.22,353.2 " fill="none" id="User-to-login" style="stroke:#181818;stroke-width:1.0;"/><polygon fill="#181818" points="644.8,351.16,634.9511,351.1543,640.2298,353.188,638.196,358.4667,644.8,351.16" style="stroke:#181818;stroke-width:1.0;"/></g><!--MD5=[5a8f97d88e2c39c1c4aefadaa2f4f750]
link User to register--><g id="link_User_register"><path d="M453.26,469.51 C487.32,459.63 576.64,433.72 629.54,418.38 " fill="none" id="User-to-register" style="stroke:#181818;stroke-width:1.0;"/><polygon fill="#181818" points="634.54,416.93,624.78,415.61,629.74,418.33,627.02,423.29,634.54,416.93" style="stroke:#181818;stroke-width:1.0;"/></g><!--MD5=[4a96660804186057d17d369ab5fb1706]
link User to composeT--><g id="link_User_composeT"><path d="M453.26,473.5 C480.58,473.5 543.47,473.5 594.59,473.5 " fill="none" id="User-to-composeT" style="stroke:#181818;stroke-width:1.0;"/><polygon fill="#181818" points="599.81,473.5,590.81,469.5,594.81,473.5,590.81,477.5,599.81,473.5" style="stroke:#181818;stroke-width:1.0;"/></g><!--MD5=[66cd03acb3e892a18a1da8b8ce71380d]
link User to editT--><g id="link_User_editT"><path d="M453.26,477.49 C487.13,487.32 575.65,512.99 628.66,528.36 " fill="none" id="User-to-editT" style="stroke:#181818;stroke-width:1.0;"/><polygon fill="#181818" points="633.67,529.82,626.15,523.46,628.87,528.42,623.91,531.14,633.67,529.82" style="stroke:#181818;stroke-width:1.0;"/></g><!--MD5=[73869944817025ead8e85f23e44a5749]
link User to deleteT--><g id="link_User_deleteT"><path d="M453.1,480.62 C472.67,491 509.75,511.16 540,530.5 C567.64,548.17 571.69,556.92 600,573.5 C610.71,579.77 622.82,585.8 633.93,590.94 " fill="none" id="User-to-deleteT" style="stroke:#181818;stroke-width:1.0;"/><polygon fill="#181818" points="638.63,593.09,632.0919,585.7243,634.0782,591.021,628.7815,593.0072,638.63,593.09" style="stroke:#181818;stroke-width:1.0;"/></g><!--MD5=[8c4c45c66c1600b8f4e6ec2946b5541a]
link Executor to execT--><g id="link_Executor_execT"><path d="M228.11,523.57 C264.82,530.57 331.94,543.37 380.31,552.59 " fill="none" id="Executor-to-execT" style="stroke:#181818;stroke-width:1.0;"/><polygon fill="#181818" points="385.22,553.53,377.1379,547.9015,380.3101,552.5852,375.6263,555.7574,385.22,553.53" style="stroke:#181818;stroke-width:1.0;"/></g><!--MD5=[8ec74245ec816936ff870b4bcf9a5df3]
link Editor to editC--><g id="link_Editor_editC"><path d="M219.24,238.69 C254.86,249.1 336.17,272.87 388.87,288.28 " fill="none" id="Editor-to-editC" style="stroke:#181818;stroke-width:1.0;"/><polygon fill="#181818" points="393.88,289.75,386.36,283.39,389.08,288.35,384.12,291.07,393.88,289.75" style="stroke:#181818;stroke-width:1.0;"/></g><!--MD5=[3b6b27e306af536505313a17e5e34279]
link Reviewer to review--><g id="link_Reviewer_review"><path d="M64.11,287.41 C86.71,293.77 119.12,302.88 146.56,310.6 " fill="none" id="Reviewer-to-review" style="stroke:#181818;stroke-width:1.0;"/><polygon fill="#181818" points="151.62,312.03,144.0429,305.7381,146.8076,310.6734,141.8723,313.438,151.62,312.03" style="stroke:#181818;stroke-width:1.0;"/></g><!--MD5=[1af23be3149474ac123bb47944ce26f3]
@startuml useCases_app
left to right direction
actor User
actor Editor
actor Reviewer
usecase "Login" as login
usecase "Register" as register
usecase "Create Question" as createQ
usecase "Import Question" as importQ
usecase "Update Question" as updateQ
usecase "Delete Question" as deleteQ

usecase "Compose Test" as composeT
usecase "Edit Test" as editT
usecase "Delete Test" as deleteT
usecase "Execute Test" as execT

usecase "Edit Category" as editC
usecase "Send To Review Question" as sendQ

usecase "Review Question" as review

Editor - -|> User
Reviewer - -|> Editor
Executor - -|> User

Editor - -> createQ
Editor - -> importQ
Editor - -> updateQ
Editor - -> deleteQ
Editor - -> sendQ

User - -> login
User - -> register
User - -> composeT
User - -> editT
User - -> deleteT
Executor - -> execT

Editor - -> editC

Reviewer - -> review

@enduml

PlantUML version 1.2022.7(Mon Aug 22 18:01:30 WEST 2022)
(GPL source distribution)
Java Runtime: OpenJDK Runtime Environment
JVM: OpenJDK 64-Bit Server VM
Default Encoding: Cp1252
Language: es
Country: ES
--></g></svg>