<?xml version="1.0" encoding="UTF-8" standalone="no"?><svg xmlns="http://www.w3.org/2000/svg" xmlns:xlink="http://www.w3.org/1999/xlink" contentStyleType="text/css" height="656px" preserveAspectRatio="none" style="width:496px;height:656px;background:#FFFFFF;" version="1.1" viewBox="0 0 496 656" width="496px" zoomAndPan="magnify"><defs/><g><!--MD5=[fee662a292a0353a69bd162820bae93b]
entity User--><g id="elem_User"><ellipse cx="200.5" cy="304" fill="#F1F1F1" rx="8" ry="8" style="stroke:#181818;stroke-width:0.5;"/><path d="M200.5,312 L200.5,339 M187.5,320 L213.5,320 M200.5,339 L187.5,354 M200.5,339 L213.5,354 " fill="none" style="stroke:#181818;stroke-width:0.5;"/><text fill="#000000" font-family="sans-serif" font-size="14" lengthAdjust="spacing" textLength="29" x="186" y="370.0332">User</text></g><!--MD5=[2c65dbceb6f8e708b4a833ee0e24817e]
entity Editor--><g id="elem_Editor"><ellipse cx="35" cy="293" fill="#F1F1F1" rx="8" ry="8" style="stroke:#181818;stroke-width:0.5;"/><path d="M35,301 L35,328 M22,309 L48,309 M35,328 L22,343 M35,328 L48,343 " fill="none" style="stroke:#181818;stroke-width:0.5;"/><text fill="#000000" font-family="sans-serif" font-size="14" lengthAdjust="spacing" textLength="37" x="16.5" y="359.0332">Editor</text></g><!--MD5=[b09503c001490bdaf25988c5c0400a0b]
entity Reviewer--><g id="elem_Reviewer"><ellipse cx="35" cy="406" fill="#F1F1F1" rx="8" ry="8" style="stroke:#181818;stroke-width:0.5;"/><path d="M35,414 L35,441 M22,422 L48,422 M35,441 L22,456 M35,441 L48,456 " fill="none" style="stroke:#181818;stroke-width:0.5;"/><text fill="#000000" font-family="sans-serif" font-size="14" lengthAdjust="spacing" textLength="58" x="6" y="472.0332">Reviewer</text></g><g id="elem_login"><ellipse cx="413.734" cy="21.4517" fill="#F1F1F1" rx="36.234" ry="15.4517" style="stroke:#181818;stroke-width:0.5;"/><text fill="#000000" font-family="sans-serif" font-size="14" lengthAdjust="spacing" textLength="35" x="396.234" y="25.1802">Login</text></g><g id="elem_createQ"><ellipse cx="413.4763" cy="89.5953" fill="#F1F1F1" rx="75.9763" ry="17.5953" style="stroke:#181818;stroke-width:0.5;"/><text fill="#000000" font-family="sans-serif" font-size="14" lengthAdjust="spacing" textLength="104" x="358.5467" y="94.0957">Create Question</text></g><g id="elem_importQ"><ellipse cx="413.481" cy="159.2962" fill="#F1F1F1" rx="74.481" ry="17.2962" style="stroke:#181818;stroke-width:0.5;"/><text fill="#000000" font-family="sans-serif" font-size="14" lengthAdjust="spacing" textLength="100" x="360.481" y="163.8128">Import Question</text></g><g id="elem_updateQ"><ellipse cx="413.7363" cy="229.7473" fill="#F1F1F1" rx="76.7363" ry="17.7473" style="stroke:#181818;stroke-width:0.5;"/><text fill="#000000" font-family="sans-serif" font-size="14" lengthAdjust="spacing" textLength="106" x="358.2006" y="234.1555">Update Question</text></g><g id="elem_deleteQ"><ellipse cx="413.7256" cy="299.4451" fill="#F1F1F1" rx="75.2256" ry="17.4451" style="stroke:#181818;stroke-width:0.5;"/><text fill="#000000" font-family="sans-serif" font-size="14" lengthAdjust="spacing" textLength="102" x="359.7256" y="303.9617">Delete Question</text></g><g id="elem_composeT"><ellipse cx="413.5677" cy="368.7135" fill="#F1F1F1" rx="71.5677" ry="16.7135" style="stroke:#181818;stroke-width:0.5;"/><text fill="#000000" font-family="sans-serif" font-size="14" lengthAdjust="spacing" textLength="92" x="364.5677" y="373.2301">Compose Test</text></g><g id="elem_editT"><ellipse cx="413.3032" cy="435.5087" fill="#F1F1F1" rx="51.3032" ry="15.5087" style="stroke:#181818;stroke-width:0.5;"/><text fill="#000000" font-family="sans-serif" font-size="14" lengthAdjust="spacing" textLength="56" x="382.3032" y="440.0253">Edit Test</text></g><g id="elem_deleteT"><ellipse cx="413.3631" cy="501.609" fill="#F1F1F1" rx="63.8631" ry="15.609" style="stroke:#181818;stroke-width:0.5;"/><text fill="#000000" font-family="sans-serif" font-size="14" lengthAdjust="spacing" textLength="73" x="373.8631" y="506.1256">Delete Test</text></g><g id="elem_playT"><ellipse cx="413.5193" cy="567.5298" fill="#F1F1F1" rx="53.5193" ry="15.5298" style="stroke:#181818;stroke-width:0.5;"/><text fill="#000000" font-family="sans-serif" font-size="14" lengthAdjust="spacing" textLength="59" x="381.0193" y="572.0464">Play Test</text></g><g id="elem_editC"><ellipse cx="413.457" cy="634.2914" fill="#F1F1F1" rx="69.457" ry="16.2914" style="stroke:#181818;stroke-width:0.5;"/><text fill="#000000" font-family="sans-serif" font-size="14" lengthAdjust="spacing" textLength="86" x="367.457" y="638.808">Edit Category</text></g><g id="elem_uploadQ"><ellipse cx="200.355" cy="436.671" fill="#F1F1F1" rx="76.355" ry="17.671" style="stroke:#181818;stroke-width:0.5;"/><text fill="#000000" font-family="sans-serif" font-size="14" lengthAdjust="spacing" textLength="105" x="145.1233" y="441.1255">Upload Question</text></g><!--MD5=[f7383e4cdc50b73a3a26567783bb3d45]
link Editor to User--><g id="link_Editor_User"><path d="M53.81,324.7 C80.57,326.5 131.65,329.93 165.65,332.22 " fill="none" id="Editor-to-User" style="stroke:#181818;stroke-width:1.0;"/><polygon fill="none" points="166.46,325.26,185.95,333.59,165.52,339.23,166.46,325.26" style="stroke:#181818;stroke-width:1.0;"/></g><!--MD5=[11eee2868fcac055cb56ef218c7912df]
link Reviewer to User--><g id="link_Reviewer_User"><path d="M64.11,418.97 C93.17,400.84 138.42,372.61 168.5,353.84 " fill="none" id="Reviewer-to-User" style="stroke:#181818;stroke-width:1.0;"/><polygon fill="none" points="165.08,347.72,185.76,343.07,172.49,359.6,165.08,347.72" style="stroke:#181818;stroke-width:1.0;"/></g><!--MD5=[cf206ddce73ea640d7466cd888f390a3]
link User to createQ--><g id="link_User_createQ"><path d="M215.17,302.39 C235.74,257.37 278.57,175.33 337,124.5 C345.41,117.18 355.62,111.09 365.76,106.16 " fill="none" id="User-to-createQ" style="stroke:#181818;stroke-width:1.0;"/><polygon fill="#181818" points="370.42,103.98,360.5728,104.1629,365.8894,106.0952,363.9572,111.4118,370.42,103.98" style="stroke:#181818;stroke-width:1.0;"/></g><!--MD5=[16b27cb2dce43e5672d5abee38d2e4eb]
link User to importQ--><g id="link_User_importQ"><path d="M215.22,316.53 C237.95,287.72 285.99,230.75 337,194.5 C346.69,187.62 357.94,181.54 368.76,176.47 " fill="none" id="User-to-importQ" style="stroke:#181818;stroke-width:1.0;"/><polygon fill="#181818" points="373.36,174.36,363.5119,174.48,368.816,176.4462,366.8498,181.7504,373.36,174.36" style="stroke:#181818;stroke-width:1.0;"/></g><!--MD5=[79bff4b5f997e63d9466aba5f8fb0224]
link User to updateQ--><g id="link_User_updateQ"><path d="M215.25,327.15 C239.62,314.18 292.06,286.51 337,264.5 C348.8,258.72 361.74,252.63 373.53,247.18 " fill="none" id="User-to-updateQ" style="stroke:#181818;stroke-width:1.0;"/><polygon fill="#181818" points="378.15,245.05,368.3019,245.17,373.606,247.1362,371.6398,252.4404,378.15,245.05" style="stroke:#181818;stroke-width:1.0;"/></g><!--MD5=[ab70dfdd9dc50f2c9336ad5139783003]
link User to deleteQ--><g id="link_User_deleteQ"><path d="M215.02,332.26 C241.08,327.93 299.83,318.19 346.52,310.45 " fill="none" id="User-to-deleteQ" style="stroke:#181818;stroke-width:1.0;"/><polygon fill="#181818" points="351.57,309.61,342.0383,307.1306,346.6369,310.425,343.3424,315.0236,351.57,309.61" style="stroke:#181818;stroke-width:1.0;"/></g><!--MD5=[a01c682f3cccd46487212d728ac4eea3]
link Reviewer to uploadQ--><g id="link_Reviewer_uploadQ"><path d="M64.11,436.5 C79.43,436.5 99.24,436.5 118.97,436.5 " fill="none" id="Reviewer-to-uploadQ" style="stroke:#181818;stroke-width:1.0;"/><polygon fill="#181818" points="123.98,436.5,114.98,432.5,118.98,436.5,114.98,440.5,123.98,436.5" style="stroke:#181818;stroke-width:1.0;"/></g><!--MD5=[bc81ebb8a732e08f29a60712843ac489]
link User to login--><g id="link_User_login"><path d="M211.03,295.41 C227.35,236.04 265.98,122.83 337,54.5 C348.11,43.81 363.24,36.27 377.05,31.13 " fill="none" id="User-to-login" style="stroke:#181818;stroke-width:1.0;"/><polygon fill="#181818" points="382.06,29.34,372.2407,28.5774,377.3474,31.0108,374.914,36.1175,382.06,29.34" style="stroke:#181818;stroke-width:1.0;"/></g><!--MD5=[4a96660804186057d17d369ab5fb1706]
link User to composeT--><g id="link_User_composeT"><path d="M215.02,336.68 C241.61,340.96 302.22,350.73 349.33,358.32 " fill="none" id="User-to-composeT" style="stroke:#181818;stroke-width:1.0;"/><polygon fill="#181818" points="354.42,359.14,346.1772,353.7497,349.4846,358.3389,344.8954,361.6463,354.42,359.14" style="stroke:#181818;stroke-width:1.0;"/></g><!--MD5=[66cd03acb3e892a18a1da8b8ce71380d]
link User to editT--><g id="link_User_editT"><path d="M215.23,341.69 C239.57,354.38 291.96,381.37 337,402.5 C350.38,408.78 365.26,415.36 378.24,420.98 " fill="none" id="User-to-editT" style="stroke:#181818;stroke-width:1.0;"/><polygon fill="#181818" points="382.94,423.01,376.2705,415.7631,378.3517,421.0232,373.0916,423.1043,382.94,423.01" style="stroke:#181818;stroke-width:1.0;"/></g><!--MD5=[73869944817025ead8e85f23e44a5749]
link User to deleteT--><g id="link_User_deleteT"><path d="M215.01,345.68 C230.45,358.63 256.26,380.85 277,401.5 C305.33,429.7 304.61,445.07 337,468.5 C347.14,475.84 359.17,482.01 370.61,486.97 " fill="none" id="User-to-deleteT" style="stroke:#181818;stroke-width:1.0;"/><polygon fill="#181818" points="375.47,489.01,368.7165,481.8413,370.8589,487.0768,365.6234,489.2191,375.47,489.01" style="stroke:#181818;stroke-width:1.0;"/></g><!--MD5=[a36d8b493a4147fabc740c7b5123d292]
link User to playT--><g id="link_User_playT"><path d="M215.07,343.77 C231.52,355.58 259.24,377.36 277,401.5 C315.43,453.73 290.88,488.92 337,534.5 C345.9,543.3 357.54,549.94 369,554.87 " fill="none" id="User-to-playT" style="stroke:#181818;stroke-width:1.0;"/><polygon fill="#181818" points="373.9,556.87,367.082,549.7626,369.2716,554.9785,364.0557,557.1681,373.9,556.87" style="stroke:#181818;stroke-width:1.0;"/></g><!--MD5=[37fde9d5823a8b573aaac3698ed866a9]
link User to editC--><g id="link_User_editC"><path d="M215.01,343.01 C231.93,354.34 260.67,375.96 277,401.5 C326.76,479.33 276.07,531.07 337,600.5 C344.15,608.65 353.65,614.95 363.48,619.78 " fill="none" id="User-to-editC" style="stroke:#181818;stroke-width:1.0;"/><polygon fill="#181818" points="368.02,621.9,361.5572,614.4682,363.4894,619.7848,358.1728,621.7171,368.02,621.9" style="stroke:#181818;stroke-width:1.0;"/></g><!--MD5=[6cb2a2508c30f830fc531fbe54581e69]
@startuml useCases_app
left to right direction
actor User
actor Editor
actor Reviewer
usecase "Login" as login
usecase "Create Question" as createQ
usecase "Import Question" as importQ
usecase "Update Question" as updateQ
usecase "Delete Question" as deleteQ

usecase "Compose Test" as composeT
usecase "Edit Test" as editT
usecase "Delete Test" as deleteT
usecase "Play Test" as playT

usecase "Edit Category" as editC
usecase "Upload Question" as uploadQ

Editor - -|>User
Reviewer - -|>User

User - -> createQ
User - -> importQ
User - -> updateQ
User - -> deleteQ
Reviewer - -> uploadQ

User - -> login
User - -> composeT
User - -> editT
User - -> deleteT
User - -> playT

User - -> editC



@enduml

PlantUML version 1.2022.7(Mon Aug 22 18:01:30 WEST 2022)
(GPL source distribution)
Java Runtime: OpenJDK Runtime Environment
JVM: OpenJDK 64-Bit Server VM
Default Encoding: Cp1252
Language: es
Country: ES
--></g></svg>