<?xml version="1.0" encoding="UTF-8" standalone="no"?><svg xmlns="http://www.w3.org/2000/svg" xmlns:xlink="http://www.w3.org/1999/xlink" contentStyleType="text/css" height="622px" preserveAspectRatio="none" style="width:851px;height:622px;background:#FFFFFF;" version="1.1" viewBox="0 0 851 622" width="851px" zoomAndPan="magnify"><defs/><g><!--MD5=[fee662a292a0353a69bd162820bae93b]
entity User--><g id="elem_User"><ellipse cx="196.5" cy="362" fill="#F1F1F1" rx="8" ry="8" style="stroke:#181818;stroke-width:0.5;"/><path d="M196.5,370 L196.5,397 M183.5,378 L209.5,378 M196.5,397 L183.5,412 M196.5,397 L209.5,412 " fill="none" style="stroke:#181818;stroke-width:0.5;"/><text fill="#000000" font-family="sans-serif" font-size="14" lengthAdjust="spacing" textLength="29" x="182" y="428.0332">User</text></g><!--MD5=[e64da02f5594507ded6bc1fdafafe102]
entity Teacher--><g id="elem_Teacher"><ellipse cx="32.5" cy="209" fill="#F1F1F1" rx="8" ry="8" style="stroke:#181818;stroke-width:0.5;"/><path d="M32.5,217 L32.5,244 M19.5,225 L45.5,225 M32.5,244 L19.5,259 M32.5,244 L45.5,259 " fill="none" style="stroke:#181818;stroke-width:0.5;"/><text fill="#000000" font-family="sans-serif" font-size="14" lengthAdjust="spacing" textLength="53" x="6" y="275.0332">Teacher</text></g><!--MD5=[494c489cc4328319247ec2e1625e02a3]
entity Student--><g id="elem_Student"><ellipse cx="32.5" cy="465" fill="#F1F1F1" rx="8" ry="8" style="stroke:#181818;stroke-width:0.5;"/><path d="M32.5,473 L32.5,500 M19.5,481 L45.5,481 M32.5,500 L19.5,515 M32.5,500 L45.5,515 " fill="none" style="stroke:#181818;stroke-width:0.5;"/><text fill="#000000" font-family="sans-serif" font-size="14" lengthAdjust="spacing" textLength="49" x="8" y="531.0332">Student</text></g><g id="elem_login"><ellipse cx="483.734" cy="320.4517" fill="#F1F1F1" rx="36.234" ry="15.4517" style="stroke:#181818;stroke-width:0.5;"/><text fill="#000000" font-family="sans-serif" font-size="14" lengthAdjust="spacing" textLength="35" x="466.234" y="324.1802">Login</text></g><g id="elem_register"><ellipse cx="483.5928" cy="386.4872" fill="#F1F1F1" rx="49.0928" ry="15.4872" style="stroke:#181818;stroke-width:0.5;"/><text fill="#000000" font-family="sans-serif" font-size="14" lengthAdjust="spacing" textLength="53" x="454.6382" y="390.8807">Register</text></g><g id="elem_logout"><ellipse cx="483.5997" cy="452.4523" fill="#F1F1F1" rx="42.5997" ry="15.4523" style="stroke:#181818;stroke-width:0.5;"/><text fill="#000000" font-family="sans-serif" font-size="14" lengthAdjust="spacing" textLength="44" x="461.3355" y="456.2639">Logout</text></g><g id="elem_showCats"><ellipse cx="483.6203" cy="521.3241" fill="#F1F1F1" rx="77.1203" ry="17.8241" style="stroke:#181818;stroke-width:0.5;"/><text fill="#000000" font-family="sans-serif" font-size="14" lengthAdjust="spacing" textLength="107" x="427.7783" y="525.6856">Show Categories</text></g><g id="elem_showCat"><ellipse cx="196.5109" cy="203.5022" fill="#F1F1F1" rx="73.0109" ry="17.0022" style="stroke:#181818;stroke-width:0.5;"/><text fill="#000000" font-family="sans-serif" font-size="14" lengthAdjust="spacing" textLength="96" x="145.5109" y="208.0188">Show Category</text></g><g id="elem_showCon"><ellipse cx="483.7113" cy="172.6423" fill="#F1F1F1" rx="71.2113" ry="16.6423" style="stroke:#181818;stroke-width:0.5;"/><text fill="#000000" font-family="sans-serif" font-size="14" lengthAdjust="spacing" textLength="91" x="435.2113" y="177.1589">Show Concept</text></g><g id="elem_createConcept"><ellipse cx="483.481" cy="241.2962" fill="#F1F1F1" rx="74.481" ry="17.2962" style="stroke:#181818;stroke-width:0.5;"/><text fill="#000000" font-family="sans-serif" font-size="14" lengthAdjust="spacing" textLength="100" x="430.481" y="245.8128">Create Concept</text></g><g id="elem_createQ"><ellipse cx="769.9763" cy="207.5953" fill="#F1F1F1" rx="75.9763" ry="17.5953" style="stroke:#181818;stroke-width:0.5;"/><text fill="#000000" font-family="sans-serif" font-size="14" lengthAdjust="spacing" textLength="104" x="715.0467" y="212.0957">Create Question</text></g><g id="elem_fixQ"><ellipse cx="769.957" cy="294.2914" fill="#F1F1F1" rx="69.457" ry="16.2914" style="stroke:#181818;stroke-width:0.5;"/><text fill="#000000" font-family="sans-serif" font-size="14" lengthAdjust="spacing" textLength="86" x="723.957" y="298.808">Fix Statement</text></g><g id="elem_closeQ"><ellipse cx="769.876" cy="96.5752" fill="#F1F1F1" rx="73.376" ry="17.0752" style="stroke:#181818;stroke-width:0.5;"/><text fill="#000000" font-family="sans-serif" font-size="14" lengthAdjust="spacing" textLength="97" x="718.376" y="101.0918">Close Question</text></g><g id="elem_showRes"><ellipse cx="196.6119" cy="495.7224" fill="#F1F1F1" rx="69.1119" ry="16.2224" style="stroke:#181818;stroke-width:0.5;"/><text fill="#000000" font-family="sans-serif" font-size="14" lengthAdjust="spacing" textLength="85" x="151.1119" y="500.239">Show Results</text></g><g id="elem_execT"><ellipse cx="196.5887" cy="588.5177" fill="#F1F1F1" rx="68.0887" ry="16.0177" style="stroke:#181818;stroke-width:0.5;"/><text fill="#000000" font-family="sans-serif" font-size="14" lengthAdjust="spacing" textLength="82" x="152.5887" y="593.0343">Execute Test</text></g><g id="elem_createCat"><ellipse cx="196.355" cy="273.671" fill="#F1F1F1" rx="76.355" ry="17.671" style="stroke:#181818;stroke-width:0.5;"/><text fill="#000000" font-family="sans-serif" font-size="14" lengthAdjust="spacing" textLength="105" x="141.1233" y="278.1255">Create Category</text></g><g id="elem_answerQ"><ellipse cx="483.4382" cy="595.5876" fill="#F1F1F1" rx="93.4382" ry="21.0876" style="stroke:#181818;stroke-width:0.5;"/><text fill="#000000" font-family="sans-serif" font-size="14" lengthAdjust="spacing" textLength="146" x="410.4382" y="599.3162">Answer Open Question</text></g><g id="elem_eval"><ellipse cx="483.5646" cy="21.5012" fill="#F1F1F1" rx="50.5646" ry="15.5012" style="stroke:#181818;stroke-width:0.5;"/><text fill="#000000" font-family="sans-serif" font-size="14" lengthAdjust="spacing" textLength="55" x="453.0737" y="26.0158">Evaluate</text></g><g id="elem_reviewQ"><ellipse cx="196.7256" cy="96.4451" fill="#F1F1F1" rx="75.2256" ry="17.4451" style="stroke:#181818;stroke-width:0.5;"/><text fill="#000000" font-family="sans-serif" font-size="14" lengthAdjust="spacing" textLength="102" x="142.7256" y="100.9617">Review Answers</text></g><g id="elem_createCC"><ellipse cx="483.2512" cy="96.3502" fill="#F1F1F1" rx="107.2512" ry="23.8502" style="stroke:#181818;stroke-width:0.5;"/><text fill="#000000" font-family="sans-serif" font-size="14" lengthAdjust="spacing" textLength="177" x="394.7512" y="100.0788">Create Concept Component</text></g><!--MD5=[bc81ebb8a732e08f29a60712843ac489]
link User to login--><g id="link_User_login"><path d="M211.12,388.6 C231.18,382.89 269.89,372.02 303,363.5 C352.4,350.8 409.76,337.27 446.09,328.85 " fill="none" id="User-to-login" style="stroke:#181818;stroke-width:1.0;"/><polygon fill="#181818" points="451.29,327.65,441.6194,325.7845,446.419,328.7785,443.425,333.578,451.29,327.65" style="stroke:#181818;stroke-width:1.0;"/></g><!--MD5=[5a8f97d88e2c39c1c4aefadaa2f4f750]
link User to register--><g id="link_User_register"><path d="M211.25,392.21 C250.04,391.39 361.93,389.04 429.28,387.62 " fill="none" id="User-to-register" style="stroke:#181818;stroke-width:1.0;"/><polygon fill="#181818" points="434.45,387.51,425.3718,383.6908,429.451,387.61,425.5318,391.6892,434.45,387.51" style="stroke:#181818;stroke-width:1.0;"/></g><!--MD5=[94954b1ac4c1a25db536747d7e96451c]
link User to logout--><g id="link_User_logout"><path d="M211.25,395.39 C252.43,404.06 375.96,430.07 441.16,443.8 " fill="none" id="User-to-logout" style="stroke:#181818;stroke-width:1.0;"/><polygon fill="#181818" points="446.13,444.84,438.1437,439.0764,441.2366,443.8128,436.5002,446.9058,446.13,444.84" style="stroke:#181818;stroke-width:1.0;"/></g><!--MD5=[15bdca70eeec7dbe626474a2a653694f]
link User to showCats--><g id="link_User_showCats"><path d="M211.04,400.48 C240.38,417.57 312.36,458.36 376,485.5 C393.48,492.95 413.06,499.94 430.62,505.75 " fill="none" id="User-to-showCats" style="stroke:#181818;stroke-width:1.0;"/><polygon fill="#181818" points="435.52,507.35,428.2109,500.7487,430.7681,505.7946,425.7222,508.3518,435.52,507.35" style="stroke:#181818;stroke-width:1.0;"/></g><!--MD5=[0a356a4e09bd4fc4087bf5e4e9dbf72c]
link Teacher to User--><g id="link_Teacher_User"><path d="M59.17,263.74 C88.53,291.47 136.46,336.74 166.97,365.55 " fill="none" id="Teacher-to-User" style="stroke:#181818;stroke-width:1.0;"/><polygon fill="none" points="172.16,360.83,181.89,379.65,162.55,371.01,172.16,360.83" style="stroke:#181818;stroke-width:1.0;"/></g><!--MD5=[e7e4384c2e5b49218c5cd97f5ff6bc06]
link Student to User--><g id="link_Student_User"><path d="M57.06,480.52 C85.54,462.41 133.56,431.88 164.89,411.96 " fill="none" id="Student-to-User" style="stroke:#181818;stroke-width:1.0;"/><polygon fill="none" points="161.29,405.96,181.92,401.13,168.8,417.77,161.29,405.96" style="stroke:#181818;stroke-width:1.0;"/></g><!--MD5=[9c6b355b4a78668b06a808e4c6ba8892]
link Teacher to showCat--><g id="link_Teacher_showCat"><path d="M59.17,233.8 C80.33,229.09 111.16,222.24 138.14,216.25 " fill="none" id="Teacher-to-showCat" style="stroke:#181818;stroke-width:1.0;"/><polygon fill="#181818" points="143.13,215.14,133.4766,213.1876,138.2491,216.2247,135.212,220.9971,143.13,215.14" style="stroke:#181818;stroke-width:1.0;"/></g><!--MD5=[e0202b09bfe8de44d16c9513011fe727]
link showCat to showCon--><g id="link_showCat_showCon"><path d="M262.88,196.39 C307.98,191.48 367.83,184.97 413.66,179.99 " fill="none" id="showCat-to-showCon" style="stroke:#181818;stroke-width:1.0;stroke-dasharray:7.0,7.0;"/><polygon fill="#181818" points="418.89,179.42,409.509,176.4206,413.9195,179.9628,410.3774,184.3733,418.89,179.42" style="stroke:#181818;stroke-width:1.0;"/><text fill="#000000" font-family="sans-serif" font-size="13" lengthAdjust="spacing" textLength="41" x="304" y="183.9951">include</text></g><!--MD5=[92897e333812a0943d3c5c673152a89e]
link showCat to createConcept--><g id="link_showCat_createConcept"><path d="M260.4,211.89 C305.63,217.92 366.62,226.05 413.25,232.27 " fill="none" id="showCat-to-createConcept" style="stroke:#181818;stroke-width:1.0;stroke-dasharray:7.0,7.0;"/><polygon fill="#181818" points="418.28,232.94,409.8837,227.792,413.3234,232.2829,408.8324,235.7226,418.28,232.94" style="stroke:#181818;stroke-width:1.0;"/><text fill="#000000" font-family="sans-serif" font-size="13" lengthAdjust="spacing" textLength="41" x="304" y="213.9951">include</text></g><!--MD5=[abeb7e3c34a23aca7fa60e86dd15f63b]
link createConcept to createQ--><g id="link_createConcept_createQ"><path d="M556.93,244.72 C589.79,245.05 629.03,243.85 664,238.5 C683.84,235.46 705.17,229.66 723.39,223.89 " fill="none" id="createConcept-to-createQ" style="stroke:#181818;stroke-width:1.0;stroke-dasharray:7.0,7.0;"/><polygon fill="#181818" points="728.44,222.26,718.6478,221.205,723.6797,223.7896,721.0951,228.8215,728.44,222.26" style="stroke:#181818;stroke-width:1.0;"/><text fill="#000000" font-family="sans-serif" font-size="13" lengthAdjust="spacing" textLength="41" x="622" y="234.9951">include</text></g><!--MD5=[250fe87d6acc5e475020f1da0808cd8d]
link showCon to createQ--><g id="link_showCon_createQ"><path d="M546.58,180.14 C591.07,185.61 651.09,192.99 697.56,198.71 " fill="none" id="showCon-to-createQ" style="stroke:#181818;stroke-width:1.0;stroke-dasharray:7.0,7.0;"/><polygon fill="#181818" points="702.59,199.33,694.1485,194.2565,697.6277,198.7168,693.1674,202.1961,702.59,199.33" style="stroke:#181818;stroke-width:1.0;"/><text fill="#000000" font-family="sans-serif" font-size="13" lengthAdjust="spacing" textLength="41" x="622" y="185.9951">include</text></g><!--MD5=[58c040db570e884c507444a52dfcfe1a]
link createQ to fixQ--><g id="link_createQ_fixQ"><path d="M770,225.12 C770,238.8 770,257.86 770,272.53 " fill="none" id="createQ-to-fixQ" style="stroke:#181818;stroke-width:1.0;stroke-dasharray:7.0,7.0;"/><polygon fill="#181818" points="770,277.73,774,268.73,770,272.73,766,268.73,770,277.73" style="stroke:#181818;stroke-width:1.0;"/><text fill="#000000" font-family="sans-serif" font-size="13" lengthAdjust="spacing" textLength="41" x="737.5" y="256.9951">include</text></g><!--MD5=[152e611512a999450f19fb763d00fb81]
link Teacher to createCat--><g id="link_Teacher_createCat"><path d="M59.17,244.89 C79.33,249.12 108.24,255.19 134.26,260.65 " fill="none" id="Teacher-to-createCat" style="stroke:#181818;stroke-width:1.0;"/><polygon fill="#181818" points="139.42,261.73,131.4337,255.9664,134.5266,260.7028,129.7902,263.7958,139.42,261.73" style="stroke:#181818;stroke-width:1.0;"/></g><!--MD5=[0c579f43cf278c55bffe5f2da28bcf93]
link createCat to createConcept--><g id="link_createCat_createConcept"><path d="M272.42,275.89 C282.69,276.14 293.11,276.36 303,276.5 C322.11,276.77 327.04,278.89 346,276.5 C375.7,272.75 408.18,264.59 434.01,257.1 " fill="none" id="createCat-to-createConcept" style="stroke:#181818;stroke-width:1.0;stroke-dasharray:7.0,7.0;"/><polygon fill="#181818" points="439.09,255.61,429.3289,254.2978,434.2911,257.0139,431.5751,261.976,439.09,255.61" style="stroke:#181818;stroke-width:1.0;"/><text fill="#000000" font-family="sans-serif" font-size="13" lengthAdjust="spacing" textLength="41" x="304" y="272.9951">include</text></g><!--MD5=[101c277555d8786805aa727440cc1e80]
link Teacher to reviewQ--><g id="link_Teacher_reviewQ"><path d="M59.17,216.84 C90.25,189.41 142.15,143.59 172.15,117.11 " fill="none" id="Teacher-to-reviewQ" style="stroke:#181818;stroke-width:1.0;"/><polygon fill="#181818" points="176.05,113.67,166.6483,116.6039,172.2933,116.9696,171.9276,122.6146,176.05,113.67" style="stroke:#181818;stroke-width:1.0;"/></g><!--MD5=[6ede64e69d07760098c79f7681ccfceb]
link reviewQ to eval--><g id="link_reviewQ_eval"><path d="M246.82,83.52 C301.3,69.18 388.14,46.33 439.81,32.73 " fill="none" id="reviewQ-to-eval" style="stroke:#181818;stroke-width:1.0;stroke-dasharray:7.0,7.0;"/><polygon fill="#181818" points="444.7,31.45,434.9781,29.8736,439.8648,32.7232,437.0152,37.6099,444.7,31.45" style="stroke:#181818;stroke-width:1.0;"/><text fill="#000000" font-family="sans-serif" font-size="13" lengthAdjust="spacing" textLength="41" x="304" y="55.9951">include</text></g><!--MD5=[4fc4ff22f58ad861eb709267ca687dfe]
link reviewQ to createCC--><g id="link_reviewQ_createCC"><path d="M271.64,96.5 C301.77,96.5 337.26,96.5 370.43,96.5 " fill="none" id="reviewQ-to-createCC" style="stroke:#181818;stroke-width:1.0;stroke-dasharray:7.0,7.0;"/><polygon fill="#181818" points="375.73,96.5,366.73,92.5,370.73,96.5,366.73,100.5,375.73,96.5" style="stroke:#181818;stroke-width:1.0;"/><text fill="#000000" font-family="sans-serif" font-size="13" lengthAdjust="spacing" textLength="41" x="304" y="92.9951">include</text></g><!--MD5=[22c3447dea36664f99e46b8f57489bd1]
link createCC to closeQ--><g id="link_createCC_closeQ"><path d="M591.25,96.5 C624.34,96.5 660.16,96.5 690.92,96.5 " fill="none" id="createCC-to-closeQ" style="stroke:#181818;stroke-width:1.0;stroke-dasharray:7.0,7.0;"/><polygon fill="#181818" points="696.21,96.5,687.21,92.5,691.21,96.5,687.21,100.5,696.21,96.5" style="stroke:#181818;stroke-width:1.0;"/><text fill="#000000" font-family="sans-serif" font-size="13" lengthAdjust="spacing" textLength="41" x="622" y="92.9951">include</text></g><!--MD5=[e4df9cc8e26f8bd00e73c9edfffb4ba4]
link Student to showRes--><g id="link_Student_showRes"><path d="M57.06,495.5 C74.34,495.5 98.82,495.5 122.4,495.5 " fill="none" id="Student-to-showRes" style="stroke:#181818;stroke-width:1.0;"/><polygon fill="#181818" points="127.41,495.5,118.41,491.5,122.41,495.5,118.41,499.5,127.41,495.5" style="stroke:#181818;stroke-width:1.0;"/></g><!--MD5=[e01ce43c9ec2b051d536e0f619da4683]
link Student to execT--><g id="link_Student_execT"><path d="M57.06,509.02 C85.66,525.44 133.96,553.17 165.28,571.15 " fill="none" id="Student-to-execT" style="stroke:#181818;stroke-width:1.0;"/><polygon fill="#181818" points="169.77,573.73,163.946,565.7877,165.4305,571.2462,159.972,572.7308,169.77,573.73" style="stroke:#181818;stroke-width:1.0;"/></g><!--MD5=[6d1e03b5dee893d4e5f89567a9d5bff7]
link execT to answerQ--><g id="link_execT_answerQ"><path d="M264.32,590.14 C300.3,591.02 345.35,592.13 385.15,593.11 " fill="none" id="execT-to-answerQ" style="stroke:#181818;stroke-width:1.0;stroke-dasharray:7.0,7.0;"/><polygon fill="#181818" points="390.48,593.24,381.5738,589.0354,385.4813,593.1257,381.3909,597.0333,390.48,593.24" style="stroke:#181818;stroke-width:1.0;"/><text fill="#000000" font-family="sans-serif" font-size="13" lengthAdjust="spacing" textLength="41" x="304" y="586.9951">include</text></g><!--MD5=[787f6733c4438923583739464449a848]
@startuml useCases_app
left to right direction
actor User
actor Teacher
actor Student
usecase "Login" as login
usecase "Register" as register
usecase "Logout" as logout

usecase "Show Categories" as showCats
usecase "Show Category" as showCat
usecase "Show Concept" as showCon
usecase "Create Concept" as createConcept
usecase "Create Question" as createQ
usecase "Fix Statement" as fixQ
usecase "Close Question" as closeQ

usecase "Show Results" as showRes
usecase "Execute Test" as execT

usecase "Create Category" as createCat
usecase "Answer Open Question" as answerQ
usecase "Evaluate" as eval
usecase "Review Answers" as reviewQ
usecase "Create Concept Component" as createCC

User - -> login
User - -> register
User - -> logout
User - -> showCats

Teacher - -|> User
Student - -|> User

Teacher - -> showCat
 showCat ..> showCon: include
 showCat ..> createConcept : include
 createConcept ..> createQ : include
 showCon ..> createQ : include
 createQ .> fixQ :include
Teacher - -> createCat
 createCat ..> createConcept :include
Teacher - -> reviewQ
 reviewQ ..> eval :include
 reviewQ ..> createCC :include
 createCC ..> closeQ :include

Student - -> showRes
Student - -> execT
 execT ..> answerQ  :include




@enduml

PlantUML version 1.2022.7(Mon Aug 22 18:01:30 WEST 2022)
(GPL source distribution)
Java Runtime: OpenJDK Runtime Environment
JVM: OpenJDK 64-Bit Server VM
Default Encoding: Cp1252
Language: es
Country: ES
--></g></svg>