<?xml version="1.0" encoding="UTF-8" standalone="no"?><svg xmlns="http://www.w3.org/2000/svg" xmlns:xlink="http://www.w3.org/1999/xlink" contentStyleType="text/css" height="810px" preserveAspectRatio="none" style="width:743px;height:810px;background:#FFFFFF;" version="1.1" viewBox="0 0 743 810" width="743px" zoomAndPan="magnify"><defs/><g><!--MD5=[fee662a292a0353a69bd162820bae93b]
entity User--><g id="elem_User"><ellipse cx="479.5" cy="374" fill="#F1F1F1" rx="8" ry="8" style="stroke:#181818;stroke-width:0.5;"/><path d="M479.5,382 L479.5,409 M466.5,390 L492.5,390 M479.5,409 L466.5,424 M479.5,409 L492.5,424 " fill="none" style="stroke:#181818;stroke-width:0.5;"/><text fill="#000000" font-family="sans-serif" font-size="14" lengthAdjust="spacing" textLength="29" x="465" y="440.0332">User</text></g><!--MD5=[2c65dbceb6f8e708b4a833ee0e24817e]
entity Editor--><g id="elem_Editor"><ellipse cx="201.5" cy="203" fill="#F1F1F1" rx="8" ry="8" style="stroke:#181818;stroke-width:0.5;"/><path d="M201.5,211 L201.5,238 M188.5,219 L214.5,219 M201.5,238 L188.5,253 M201.5,238 L214.5,253 " fill="none" style="stroke:#181818;stroke-width:0.5;"/><text fill="#000000" font-family="sans-serif" font-size="14" lengthAdjust="spacing" textLength="37" x="183" y="269.0332">Editor</text></g><!--MD5=[b09503c001490bdaf25988c5c0400a0b]
entity Reviewer--><g id="elem_Reviewer"><ellipse cx="35" cy="592" fill="#F1F1F1" rx="8" ry="8" style="stroke:#181818;stroke-width:0.5;"/><path d="M35,600 L35,627 M22,608 L48,608 M35,627 L22,642 M35,627 L48,642 " fill="none" style="stroke:#181818;stroke-width:0.5;"/><text fill="#000000" font-family="sans-serif" font-size="14" lengthAdjust="spacing" textLength="58" x="6" y="658.0332">Reviewer</text></g><g id="elem_login"><ellipse cx="688.234" cy="338.4517" fill="#F1F1F1" rx="36.234" ry="15.4517" style="stroke:#181818;stroke-width:0.5;"/><text fill="#000000" font-family="sans-serif" font-size="14" lengthAdjust="spacing" textLength="35" x="670.734" y="342.1802">Login</text></g><g id="elem_register"><ellipse cx="688.0928" cy="404.4872" fill="#F1F1F1" rx="49.0928" ry="15.4872" style="stroke:#181818;stroke-width:0.5;"/><text fill="#000000" font-family="sans-serif" font-size="14" lengthAdjust="spacing" textLength="53" x="659.1382" y="408.8807">Register</text></g><g id="elem_logout"><ellipse cx="688.0997" cy="470.4523" fill="#F1F1F1" rx="42.5997" ry="15.4523" style="stroke:#181818;stroke-width:0.5;"/><text fill="#000000" font-family="sans-serif" font-size="14" lengthAdjust="spacing" textLength="44" x="665.8355" y="474.2639">Logout</text></g><g id="elem_createConcept"><ellipse cx="479.481" cy="23.2962" fill="#F1F1F1" rx="74.481" ry="17.2962" style="stroke:#181818;stroke-width:0.5;"/><text fill="#000000" font-family="sans-serif" font-size="14" lengthAdjust="spacing" textLength="100" x="426.481" y="27.8128">Create Concept</text></g><g id="elem_selectStrategy"><ellipse cx="479.5109" cy="93.5022" fill="#F1F1F1" rx="73.0109" ry="17.0022" style="stroke:#181818;stroke-width:0.5;"/><text fill="#000000" font-family="sans-serif" font-size="14" lengthAdjust="spacing" textLength="96" x="428.5109" y="98.0188">Select Strategy</text></g><g id="elem_createQ"><ellipse cx="479.4763" cy="163.5953" fill="#F1F1F1" rx="75.9763" ry="17.5953" style="stroke:#181818;stroke-width:0.5;"/><text fill="#000000" font-family="sans-serif" font-size="14" lengthAdjust="spacing" textLength="104" x="424.5467" y="168.0957">Create Question</text></g><g id="elem_deleteQ"><ellipse cx="479.7256" cy="233.4451" fill="#F1F1F1" rx="75.2256" ry="17.4451" style="stroke:#181818;stroke-width:0.5;"/><text fill="#000000" font-family="sans-serif" font-size="14" lengthAdjust="spacing" textLength="102" x="425.7256" y="237.9617">Delete Question</text></g><g id="elem_selectCats"><ellipse cx="479.5785" cy="632.7157" fill="#F1F1F1" rx="79.0785" ry="18.2157" style="stroke:#181818;stroke-width:0.5;"/><text fill="#000000" font-family="sans-serif" font-size="14" lengthAdjust="spacing" textLength="112" x="422.1751" y="636.8395">Select Categories</text></g><g id="elem_selectOps"><ellipse cx="479.5677" cy="495.7135" fill="#F1F1F1" rx="71.5677" ry="16.7135" style="stroke:#181818;stroke-width:0.5;"/><text fill="#000000" font-family="sans-serif" font-size="14" lengthAdjust="spacing" textLength="92" x="430.5677" y="500.2301">Select Options</text></g><g id="elem_execT"><ellipse cx="479.5887" cy="563.5177" fill="#F1F1F1" rx="68.0887" ry="16.0177" style="stroke:#181818;stroke-width:0.5;"/><text fill="#000000" font-family="sans-serif" font-size="14" lengthAdjust="spacing" textLength="82" x="435.5887" y="568.0343">Execute Test</text></g><g id="elem_createCat"><ellipse cx="201.355" cy="587.671" fill="#F1F1F1" rx="76.355" ry="17.671" style="stroke:#181818;stroke-width:0.5;"/><text fill="#000000" font-family="sans-serif" font-size="14" lengthAdjust="spacing" textLength="105" x="146.1233" y="592.1255">Create Category</text></g><g id="elem_editC"><ellipse cx="201.457" cy="656.2914" fill="#F1F1F1" rx="69.457" ry="16.2914" style="stroke:#181818;stroke-width:0.5;"/><text fill="#000000" font-family="sans-serif" font-size="14" lengthAdjust="spacing" textLength="86" x="155.457" y="660.808">Edit Category</text></g><g id="elem_markQ"><ellipse cx="479.7239" cy="308.6448" fill="#F1F1F1" rx="98.7239" ry="22.1448" style="stroke:#181818;stroke-width:0.5;"/><text fill="#000000" font-family="sans-serif" font-size="14" lengthAdjust="spacing" textLength="158" x="400.7239" y="312.3733">Mark ToReview Question</text></g><g id="elem_rejectA"><ellipse cx="479.2827" cy="786.4565" fill="#F1F1F1" rx="80.2827" ry="18.4565" style="stroke:#181818;stroke-width:0.5;"/><text fill="#000000" font-family="sans-serif" font-size="14" lengthAdjust="spacing" textLength="115" x="420.9192" y="790.4341">** Reject Question</text></g><g id="elem_reviewQ"><ellipse cx="201.7363" cy="725.7473" fill="#F1F1F1" rx="76.7363" ry="17.7473" style="stroke:#181818;stroke-width:0.5;"/><text fill="#000000" font-family="sans-serif" font-size="14" lengthAdjust="spacing" textLength="106" x="146.2006" y="730.1555">Review Question</text></g><g id="elem_publishQ"><ellipse cx="479.597" cy="714.6194" fill="#F1F1F1" rx="81.097" ry="18.6194" style="stroke:#181818;stroke-width:0.5;"/><text fill="#000000" font-family="sans-serif" font-size="14" lengthAdjust="spacing" textLength="117" x="420.5843" y="718.4982">**Publish Question</text></g><!--MD5=[77b6810f9f1d8e17e1346401c10c77dc]
entity Executor--><g id="elem_Executor"><ellipse cx="201.5" cy="465" fill="#F1F1F1" rx="8" ry="8" style="stroke:#181818;stroke-width:0.5;"/><path d="M201.5,473 L201.5,500 M188.5,481 L214.5,481 M201.5,500 L188.5,515 M201.5,500 L214.5,515 " fill="none" style="stroke:#181818;stroke-width:0.5;"/><text fill="#000000" font-family="sans-serif" font-size="14" lengthAdjust="spacing" textLength="55" x="174" y="531.0332">Executor</text></g><!--MD5=[f7383e4cdc50b73a3a26567783bb3d45]
link Editor to User--><g id="link_Editor_User"><path d="M220.09,245.06 C251.94,265.92 321.39,311.06 381,347.5 C402.98,360.93 428.07,375.59 447.3,386.68 " fill="none" id="Editor-to-User" style="stroke:#181818;stroke-width:1.0;"/><polygon fill="none" points="450.97,380.71,464.84,396.74,444,392.86,450.97,380.71" style="stroke:#181818;stroke-width:1.0;"/></g><!--MD5=[f74b4e3ba99d1f3f5800955a8b8fef81]
link Reviewer to Editor--><g id="link_Reviewer_Editor"><path d="M52.53,583.42 C81.65,514.54 142.26,371.23 176.17,291.03 " fill="none" id="Reviewer-to-Editor" style="stroke:#181818;stroke-width:1.0;"/><polygon fill="none" points="169.75,288.25,183.98,272.55,182.64,293.7,169.75,288.25" style="stroke:#181818;stroke-width:1.0;"/></g><!--MD5=[c4ba78a7e4ac5cb98d4cdf14b6befc04]
link Executor to User--><g id="link_Executor_User"><path d="M229.21,486.69 C280.1,469.91 390.75,433.43 445.9,415.25 " fill="none" id="Executor-to-User" style="stroke:#181818;stroke-width:1.0;"/><polygon fill="none" points="443.76,408.58,464.95,408.97,448.14,421.88,443.76,408.58" style="stroke:#181818;stroke-width:1.0;"/></g><!--MD5=[a94779845add7efdf1c110c32449ba17]
link Editor to createConcept--><g id="link_Editor_createConcept"><path d="M220.12,210.69 C249.66,173.87 312.71,101.13 381,58.5 C394.3,50.2 409.84,43.5 424.56,38.26 " fill="none" id="Editor-to-createConcept" style="stroke:#181818;stroke-width:1.0;"/><polygon fill="#181818" points="429.51,36.54,419.695,35.7245,424.7885,38.1854,422.3276,43.2789,429.51,36.54" style="stroke:#181818;stroke-width:1.0;"/></g><!--MD5=[8e5b6f2905e8673a9190279ffe6d894d]
link Editor to selectStrategy--><g id="link_Editor_selectStrategy"><path d="M220.14,221.61 C251.5,200.82 319.47,157.33 381,128.5 C396.64,121.17 414.28,114.41 430.2,108.83 " fill="none" id="Editor-to-selectStrategy" style="stroke:#181818;stroke-width:1.0;"/><polygon fill="#181818" points="435.09,107.14,425.2757,106.3152,430.3669,108.7809,427.9012,113.8721,435.09,107.14" style="stroke:#181818;stroke-width:1.0;"/></g><!--MD5=[03342a11f01a1be580e4b5f6ff49d43f]
link Editor to createQ--><g id="link_Editor_createQ"><path d="M220.18,229.01 C260.31,218.84 359.63,193.65 422.77,177.63 " fill="none" id="Editor-to-createQ" style="stroke:#181818;stroke-width:1.0;"/><polygon fill="#181818" points="427.63,176.4,417.9227,174.7359,422.7835,177.6295,419.8899,182.4903,427.63,176.4" style="stroke:#181818;stroke-width:1.0;"/></g><!--MD5=[48f36a504ffd22a201edd904587fb7f6]
link Editor to deleteQ--><g id="link_Editor_deleteQ"><path d="M220.18,233.5 C255.6,233.5 337.13,233.5 399.19,233.5 " fill="none" id="Editor-to-deleteQ" style="stroke:#181818;stroke-width:1.0;"/><polygon fill="#181818" points="404.38,233.5,395.38,229.5,399.38,233.5,395.38,237.5,404.38,233.5" style="stroke:#181818;stroke-width:1.0;"/></g><!--MD5=[fae657de78808a1036e5dec4eb8f3dbf]
link Editor to markQ--><g id="link_Editor_markQ"><path d="M220.18,238.31 C257.99,248.58 348.35,273.13 411.48,290.29 " fill="none" id="Editor-to-markQ" style="stroke:#181818;stroke-width:1.0;"/><polygon fill="#181818" points="416.35,291.61,408.7165,285.3867,411.5255,290.2968,406.6154,293.1059,416.35,291.61" style="stroke:#181818;stroke-width:1.0;"/></g><!--MD5=[bc81ebb8a732e08f29a60712843ac489]
link User to login--><g id="link_User_login"><path d="M494.05,400.17 C526.17,389.9 607.69,363.85 653.83,349.1 " fill="none" id="User-to-login" style="stroke:#181818;stroke-width:1.0;"/><polygon fill="#181818" points="658.73,347.53,648.9407,346.4483,653.9656,349.0466,651.3673,354.0714,658.73,347.53" style="stroke:#181818;stroke-width:1.0;"/></g><!--MD5=[5a8f97d88e2c39c1c4aefadaa2f4f750]
link User to register--><g id="link_User_register"><path d="M494.05,404.5 C521.93,404.5 587.02,404.5 633.89,404.5 " fill="none" id="User-to-register" style="stroke:#181818;stroke-width:1.0;"/><polygon fill="#181818" points="638.94,404.5,629.94,400.5,633.94,404.5,629.94,408.5,638.94,404.5" style="stroke:#181818;stroke-width:1.0;"/></g><!--MD5=[94954b1ac4c1a25db536747d7e96451c]
link User to logout--><g id="link_User_logout"><path d="M494.05,408.83 C525.39,418.85 603.76,443.9 650.41,458.81 " fill="none" id="User-to-logout" style="stroke:#181818;stroke-width:1.0;"/><polygon fill="#181818" points="655.38,460.4,648.0173,453.8586,650.6156,458.8834,645.5907,461.4817,655.38,460.4" style="stroke:#181818;stroke-width:1.0;"/></g><!--MD5=[f310dd227b32879d6b1d6fe953410e28]
link Executor to selectCats--><g id="link_Executor_selectCats"><path d="M229.24,512.75 C263.48,534.37 325.08,571.73 381,597.5 C395.82,604.33 412.39,610.72 427.59,616.12 " fill="none" id="Executor-to-selectCats" style="stroke:#181818;stroke-width:1.0;"/><polygon fill="#181818" points="432.7,617.91,425.5358,611.1517,427.9829,616.2519,422.8828,618.699,432.7,617.91" style="stroke:#181818;stroke-width:1.0;"/></g><!--MD5=[c76cfbf04902375919e64db0843266fd]
link Executor to selectOps--><g id="link_Executor_selectOps"><path d="M229.21,495.5 C268.94,495.5 345.09,495.5 402.82,495.5 " fill="none" id="Executor-to-selectOps" style="stroke:#181818;stroke-width:1.0;"/><polygon fill="#181818" points="408,495.5,399,491.5,403,495.5,399,499.5,408,495.5" style="stroke:#181818;stroke-width:1.0;"/></g><!--MD5=[8c4c45c66c1600b8f4e6ec2946b5541a]
link Executor to execT--><g id="link_Executor_execT"><path d="M229.21,502.08 C274.81,513.32 368.39,536.37 427.03,550.82 " fill="none" id="Executor-to-execT" style="stroke:#181818;stroke-width:1.0;"/><polygon fill="#181818" points="431.89,552.02,424.1121,545.9781,427.0359,550.8208,422.1933,553.7446,431.89,552.02" style="stroke:#181818;stroke-width:1.0;"/></g><!--MD5=[e051d0f66b6a6e1204313b1cafede258]
link Reviewer to createCat--><g id="link_Reviewer_createCat"><path d="M64,616.12 C73.52,613.98 84.21,611.61 94,609.5 C108.51,606.38 124.15,603.1 138.86,600.05 " fill="none" id="Reviewer-to-createCat" style="stroke:#181818;stroke-width:1.0;"/><polygon fill="#181818" points="143.81,599.03,134.1848,596.9429,138.9144,600.0463,135.811,604.7759,143.81,599.03" style="stroke:#181818;stroke-width:1.0;"/></g><!--MD5=[bb598da8da6927f84607cbb584ec16ea]
link Reviewer to editC--><g id="link_Reviewer_editC"><path d="M64.28,628.34 C85.98,632.83 116.67,639.17 143.42,644.7 " fill="none" id="Reviewer-to-editC" style="stroke:#181818;stroke-width:1.0;"/><polygon fill="#181818" points="148.37,645.73,140.3676,639.9887,143.4738,644.7165,138.746,647.8227,148.37,645.73" style="stroke:#181818;stroke-width:1.0;"/></g><!--MD5=[154a6203c75598de19acd11641fce386]
link Reviewer to reviewQ--><g id="link_Reviewer_reviewQ"><path d="M64.12,646.53 C81.1,660.37 103.53,677.53 125,690.5 C135.5,696.84 147.33,702.82 158.47,707.99 " fill="none" id="Reviewer-to-reviewQ" style="stroke:#181818;stroke-width:1.0;"/><polygon fill="#181818" points="163.19,710.15,156.6798,702.7596,158.646,708.0638,153.3419,710.03,163.19,710.15" style="stroke:#181818;stroke-width:1.0;"/></g><!--MD5=[3cf02e032dc63c4de3cb65531303cc0c]
link reviewQ to rejectA--><g id="link_reviewQ_rejectA"><path d="M257.03,737.55 C302.65,747.64 367.78,762.03 415.6,772.6 " fill="none" id="reviewQ-to-rejectA" style="stroke:#181818;stroke-width:1.0;stroke-dasharray:7.0,7.0;"/><polygon fill="#181818" points="420.75,773.74,412.832,767.8829,415.8691,772.6553,411.0966,775.6924,420.75,773.74" style="stroke:#181818;stroke-width:1.0;"/><text fill="#000000" font-family="sans-serif" font-size="13" lengthAdjust="spacing" textLength="41" x="309" y="746.9951">include</text></g><!--MD5=[ac14af5e44ec232064274b151dcb6422]
link reviewQ to publishQ--><g id="link_reviewQ_publishQ"><path d="M277.19,722.52 C313.25,721.09 356.68,719.36 393.95,717.87 " fill="none" id="reviewQ-to-publishQ" style="stroke:#181818;stroke-width:1.0;stroke-dasharray:7.0,7.0;"/><polygon fill="#181818" points="399.41,717.65,390.2573,714.0129,394.414,717.8498,390.5771,722.0065,399.41,717.65" style="stroke:#181818;stroke-width:1.0;"/><text fill="#000000" font-family="sans-serif" font-size="13" lengthAdjust="spacing" textLength="41" x="309" y="715.9951">include</text></g><!--MD5=[01d4302c1626b0a872e187ac6dacd3ae]
@startuml useCases_app
left to right direction
actor User
actor Editor
actor Reviewer
usecase "Login" as login
usecase "Register" as register
usecase "Logout" as logout

usecase "Create Concept" as createConcept
usecase "Select Strategy" as selectStrategy
usecase "Create Question" as createQ
usecase "Delete Question" as deleteQ

usecase "Select Categories" as selectCats
usecase "Select Options" as selectOps
usecase "Execute Test" as execT

usecase "Create Category" as createCat
usecase "Edit Category" as editC
usecase "Mark ToReview Question" as markQ
usecase "** Reject Question" as rejectA
usecase "Review Question" as reviewQ
usecase "**Publish Question" as publishQ


Editor - -|> User
Reviewer - -|> Editor
Executor - -|> User

Editor - -> createConcept
Editor - -> selectStrategy
Editor - -> createQ
Editor - -> deleteQ
Editor - -> markQ

User - -> login
User - -> register
User - -> logout

Executor - -> selectCats
Executor - -> selectOps
Executor - -> execT

Reviewer - -> createCat
Reviewer - -> editC
Reviewer - -> reviewQ
    reviewQ ..> rejectA :include
    reviewQ ..> publishQ :include


@enduml

PlantUML version 1.2022.7(Mon Aug 22 18:01:30 WEST 2022)
(GPL source distribution)
Java Runtime: OpenJDK Runtime Environment
JVM: OpenJDK 64-Bit Server VM
Default Encoding: Cp1252
Language: es
Country: ES
--></g></svg>