<?xml version="1.0" encoding="UTF-8" standalone="no"?><svg xmlns="http://www.w3.org/2000/svg" xmlns:xlink="http://www.w3.org/1999/xlink" contentStyleType="text/css" height="533px" preserveAspectRatio="none" style="width:1145px;height:533px;background:#FFFFFF;" version="1.1" viewBox="0 0 1145 533" width="1145px" zoomAndPan="magnify"><defs/><g><!--MD5=[fee662a292a0353a69bd162820bae93b]
entity User--><g id="elem_User"><ellipse cx="491.5" cy="176.5" fill="#F1F1F1" rx="8" ry="8" style="stroke:#181818;stroke-width:0.5;"/><path d="M491.5,184.5 L491.5,211.5 M478.5,192.5 L504.5,192.5 M491.5,211.5 L478.5,226.5 M491.5,211.5 L504.5,226.5 " fill="none" style="stroke:#181818;stroke-width:0.5;"/><text fill="#000000" font-family="sans-serif" font-size="14" lengthAdjust="spacing" textLength="29" x="477" y="242.5332">User</text></g><!--MD5=[2c65dbceb6f8e708b4a833ee0e24817e]
entity Editor--><g id="elem_Editor"><ellipse cx="201.5" cy="129.5" fill="#F1F1F1" rx="8" ry="8" style="stroke:#181818;stroke-width:0.5;"/><path d="M201.5,137.5 L201.5,164.5 M188.5,145.5 L214.5,145.5 M201.5,164.5 L188.5,179.5 M201.5,164.5 L214.5,179.5 " fill="none" style="stroke:#181818;stroke-width:0.5;"/><text fill="#000000" font-family="sans-serif" font-size="14" lengthAdjust="spacing" textLength="37" x="183" y="195.5332">Editor</text></g><!--MD5=[b09503c001490bdaf25988c5c0400a0b]
entity Reviewer--><g id="elem_Reviewer"><ellipse cx="35" cy="373.5" fill="#F1F1F1" rx="8" ry="8" style="stroke:#181818;stroke-width:0.5;"/><path d="M35,381.5 L35,408.5 M22,389.5 L48,389.5 M35,408.5 L22,423.5 M35,408.5 L48,423.5 " fill="none" style="stroke:#181818;stroke-width:0.5;"/><text fill="#000000" font-family="sans-serif" font-size="14" lengthAdjust="spacing" textLength="58" x="6" y="439.5332">Reviewer</text></g><g id="elem_login"><ellipse cx="797.734" cy="240.9517" fill="#F1F1F1" rx="36.234" ry="15.4517" style="stroke:#181818;stroke-width:0.5;"/><text fill="#000000" font-family="sans-serif" font-size="14" lengthAdjust="spacing" textLength="35" x="780.234" y="244.6802">Login</text></g><g id="elem_register"><ellipse cx="797.5928" cy="306.9872" fill="#F1F1F1" rx="49.0928" ry="15.4872" style="stroke:#181818;stroke-width:0.5;"/><text fill="#000000" font-family="sans-serif" font-size="14" lengthAdjust="spacing" textLength="53" x="768.6382" y="311.3807">Register</text></g><g id="elem_logout"><ellipse cx="797.5997" cy="174.9523" fill="#F1F1F1" rx="42.5997" ry="15.4523" style="stroke:#181818;stroke-width:0.5;"/><text fill="#000000" font-family="sans-serif" font-size="14" lengthAdjust="spacing" textLength="44" x="775.3355" y="178.7639">Logout</text></g><g id="elem_showCat"><ellipse cx="491.434" cy="107.9868" fill="#F1F1F1" rx="110.434" ry="24.4868" style="stroke:#181818;stroke-width:0.5;"/><text fill="#000000" font-family="sans-serif" font-size="14" lengthAdjust="spacing" textLength="184" x="399.434" y="111.7153">Show Categories &amp; Concepts</text></g><g id="elem_showCon"><ellipse cx="797.7113" cy="108.1423" fill="#F1F1F1" rx="71.2113" ry="16.6423" style="stroke:#181818;stroke-width:0.5;"/><text fill="#000000" font-family="sans-serif" font-size="14" lengthAdjust="spacing" textLength="91" x="749.2113" y="112.6589">Show Concept</text></g><g id="elem_createConcept"><ellipse cx="797.481" cy="38.7962" fill="#F1F1F1" rx="74.481" ry="17.2962" style="stroke:#181818;stroke-width:0.5;"/><text fill="#000000" font-family="sans-serif" font-size="14" lengthAdjust="spacing" textLength="100" x="744.481" y="43.3128">Create Concept</text></g><g id="elem_createQ"><ellipse cx="1066.5109" cy="76.0022" fill="#F1F1F1" rx="73.0109" ry="17.0022" style="stroke:#181818;stroke-width:0.5;"/><text fill="#000000" font-family="sans-serif" font-size="14" lengthAdjust="spacing" textLength="96" x="1015.5109" y="80.5188">Open Question</text></g><g id="elem_closeQ"><ellipse cx="1066.376" cy="507.0752" fill="#F1F1F1" rx="73.376" ry="17.0752" style="stroke:#181818;stroke-width:0.5;"/><text fill="#000000" font-family="sans-serif" font-size="14" lengthAdjust="spacing" textLength="97" x="1014.876" y="511.5918">Close Question</text></g><g id="elem_searchT"><ellipse cx="491.5017" cy="369.0003" fill="#F1F1F1" rx="93.0017" ry="21.0003" style="stroke:#181818;stroke-width:0.5;"/><text fill="#000000" font-family="sans-serif" font-size="14" lengthAdjust="spacing" textLength="145" x="419.0017" y="372.7289">Search Available Tests</text></g><g id="elem_stats"><ellipse cx="491.6685" cy="441.0838" fill="#F1F1F1" rx="60.1685" ry="15.5838" style="stroke:#181818;stroke-width:0.5;"/><text fill="#000000" font-family="sans-serif" font-size="14" lengthAdjust="spacing" textLength="68" x="454.6685" y="445.6004">Show stats</text></g><g id="elem_execT"><ellipse cx="491.5887" cy="297.0177" fill="#F1F1F1" rx="68.0887" ry="16.0177" style="stroke:#181818;stroke-width:0.5;"/><text fill="#000000" font-family="sans-serif" font-size="14" lengthAdjust="spacing" textLength="82" x="447.5887" y="301.5343">Execute Test</text></g><g id="elem_createCat"><ellipse cx="201.355" cy="404.171" fill="#F1F1F1" rx="76.355" ry="17.671" style="stroke:#181818;stroke-width:0.5;"/><text fill="#000000" font-family="sans-serif" font-size="14" lengthAdjust="spacing" textLength="105" x="146.1233" y="408.6255">Create Category</text></g><g id="elem_answerQ"><ellipse cx="491.4382" cy="27.0876" fill="#F1F1F1" rx="93.4382" ry="21.0876" style="stroke:#181818;stroke-width:0.5;"/><text fill="#000000" font-family="sans-serif" font-size="14" lengthAdjust="spacing" textLength="146" x="418.4382" y="30.8162">Answer Open Question</text></g><g id="elem_eval"><ellipse cx="491.5646" cy="507.0012" fill="#F1F1F1" rx="50.5646" ry="15.5012" style="stroke:#181818;stroke-width:0.5;"/><text fill="#000000" font-family="sans-serif" font-size="14" lengthAdjust="spacing" textLength="55" x="461.0737" y="511.5158">Evaluate</text></g><g id="elem_reviewQ"><ellipse cx="201.7256" cy="484.9451" fill="#F1F1F1" rx="75.2256" ry="17.4451" style="stroke:#181818;stroke-width:0.5;"/><text fill="#000000" font-family="sans-serif" font-size="14" lengthAdjust="spacing" textLength="102" x="147.7256" y="489.4617">Review Answers</text></g><g id="elem_saveToC"><ellipse cx="797.566" cy="506.9132" fill="#F1F1F1" rx="92.566" ry="20.9132" style="stroke:#181818;stroke-width:0.5;"/><text fill="#000000" font-family="sans-serif" font-size="14" lengthAdjust="spacing" textLength="144" x="725.566" y="510.6417">Save Concept Element</text></g><!--MD5=[77b6810f9f1d8e17e1346401c10c77dc]
entity Executor--><g id="elem_Executor"><ellipse cx="201.5" cy="275.5" fill="#F1F1F1" rx="8" ry="8" style="stroke:#181818;stroke-width:0.5;"/><path d="M201.5,283.5 L201.5,310.5 M188.5,291.5 L214.5,291.5 M201.5,310.5 L188.5,325.5 M201.5,310.5 L214.5,325.5 " fill="none" style="stroke:#181818;stroke-width:0.5;"/><text fill="#000000" font-family="sans-serif" font-size="14" lengthAdjust="spacing" textLength="55" x="174" y="341.5332">Executor</text></g><!--MD5=[f7383e4cdc50b73a3a26567783bb3d45]
link Editor to User--><g id="link_Editor_User"><path d="M220.08,162.87 C266.97,170.52 395.61,191.51 457.02,201.54 " fill="none" id="Editor-to-User" style="stroke:#181818;stroke-width:1.0;"/><polygon fill="none" points="458.34,194.66,476.95,204.79,456.08,208.48,458.34,194.66" style="stroke:#181818;stroke-width:1.0;"/></g><!--MD5=[f74b4e3ba99d1f3f5800955a8b8fef81]
link Reviewer to Editor--><g id="link_Reviewer_Editor"><path d="M55.89,364.91 C72.81,332.82 98.51,286.71 125,249 C138.47,229.83 155.18,209.81 169.45,193.63 " fill="none" id="Reviewer-to-Editor" style="stroke:#181818;stroke-width:1.0;"/><polygon fill="none" points="164.37,188.81,182.95,178.63,174.77,198.18,164.37,188.81" style="stroke:#181818;stroke-width:1.0;"/></g><!--MD5=[c4ba78a7e4ac5cb98d4cdf14b6befc04]
link Executor to User--><g id="link_Executor_User"><path d="M229.08,296.86 C281.93,278.69 400.09,238.08 457.68,218.28 " fill="none" id="Executor-to-User" style="stroke:#181818;stroke-width:1.0;"/><polygon fill="none" points="455.64,211.58,476.83,211.7,460.19,224.82,455.64,211.58" style="stroke:#181818;stroke-width:1.0;"/></g><!--MD5=[943d54ffba82319f3e1e805d62ca67aa]
link Editor to showCat--><g id="link_Editor_showCat"><path d="M220.08,156.83 C255.19,150.49 336.14,135.87 400.38,124.27 " fill="none" id="Editor-to-showCat" style="stroke:#181818;stroke-width:1.0;"/><polygon fill="#181818" points="405.36,123.37,395.7932,121.0298,400.4393,124.2569,397.2122,128.9029,405.36,123.37" style="stroke:#181818;stroke-width:1.0;"/></g><!--MD5=[e0202b09bfe8de44d16c9513011fe727]
link showCat to showCon--><g id="link_showCat_showCon"><path d="M602.25,108 C641.64,108 685.14,108 720.98,108 " fill="none" id="showCat-to-showCon" style="stroke:#181818;stroke-width:1.0;stroke-dasharray:7.0,7.0;"/><polygon fill="#181818" points="726.21,108,717.21,104,721.21,108,717.21,112,726.21,108" style="stroke:#181818;stroke-width:1.0;"/><text fill="#000000" font-family="sans-serif" font-size="13" lengthAdjust="spacing" textLength="41" x="633" y="104.4951">include</text></g><!--MD5=[92897e333812a0943d3c5c673152a89e]
link showCat to createConcept--><g id="link_showCat_createConcept"><path d="M569.61,90.5 C622.05,78.6 690.35,63.09 738.26,52.22 " fill="none" id="showCat-to-createConcept" style="stroke:#181818;stroke-width:1.0;stroke-dasharray:7.0,7.0;"/><polygon fill="#181818" points="743.41,51.05,733.75,49.1306,738.5328,52.1513,735.5121,56.9341,743.41,51.05" style="stroke:#181818;stroke-width:1.0;"/><text fill="#000000" font-family="sans-serif" font-size="13" lengthAdjust="spacing" textLength="41" x="633" y="64.4951">include</text></g><!--MD5=[abeb7e3c34a23aca7fa60e86dd15f63b]
link createConcept to createQ--><g id="link_createConcept_createQ"><path d="M862.11,47.82 C903.17,53.5 956.51,60.9 998.26,66.68 " fill="none" id="createConcept-to-createQ" style="stroke:#181818;stroke-width:1.0;stroke-dasharray:7.0,7.0;"/><polygon fill="#181818" points="1003.29,67.38,994.923,62.1845,998.3372,66.6949,993.8268,70.1091,1003.29,67.38" style="stroke:#181818;stroke-width:1.0;"/><text fill="#000000" font-family="sans-serif" font-size="13" lengthAdjust="spacing" textLength="41" x="921" y="53.4951">include</text></g><!--MD5=[250fe87d6acc5e475020f1da0808cd8d]
link showCon to createQ--><g id="link_showCon_createQ"><path d="M868.44,109.37 C897.78,109.04 932.18,107.47 963,103 C980.99,100.39 1000.36,95.78 1017.36,91.09 " fill="none" id="showCon-to-createQ" style="stroke:#181818;stroke-width:1.0;stroke-dasharray:7.0,7.0;"/><polygon fill="#181818" points="1022.56,89.64,1012.8123,88.232,1017.7476,90.9966,1014.9829,95.9319,1022.56,89.64" style="stroke:#181818;stroke-width:1.0;"/><text fill="#000000" font-family="sans-serif" font-size="13" lengthAdjust="spacing" textLength="41" x="921" y="99.4951">include</text></g><!--MD5=[36c14bfb374fe80c16447d54bbc2a55f]
link Editor to answerQ--><g id="link_Editor_answerQ"><path d="M220.32,149.52 C251.98,131.16 320.38,92.59 381,66 C397.33,58.84 415.43,51.97 432.14,46.05 " fill="none" id="Editor-to-answerQ" style="stroke:#181818;stroke-width:1.0;"/><polygon fill="#181818" points="437.27,44.25,427.4514,43.4781,432.5558,45.9163,430.1176,51.0207,437.27,44.25" style="stroke:#181818;stroke-width:1.0;"/></g><!--MD5=[bc81ebb8a732e08f29a60712843ac489]
link User to login--><g id="link_User_login"><path d="M506.35,208.55 C550.45,213.48 688.65,228.94 757.18,236.6 " fill="none" id="User-to-login" style="stroke:#181818;stroke-width:1.0;"/><polygon fill="#181818" points="762.39,237.19,753.8915,232.2125,757.4211,236.6331,753.0005,240.1628,762.39,237.19" style="stroke:#181818;stroke-width:1.0;"/></g><!--MD5=[5a8f97d88e2c39c1c4aefadaa2f4f750]
link User to register--><g id="link_User_register"><path d="M506.35,211.56 C550.65,226.13 689.92,271.94 758.12,294.37 " fill="none" id="User-to-register" style="stroke:#181818;stroke-width:1.0;"/><polygon fill="#181818" points="762.9,295.95,755.6088,289.3289,758.1523,294.3817,753.0995,296.9252,762.9,295.95" style="stroke:#181818;stroke-width:1.0;"/></g><!--MD5=[94954b1ac4c1a25db536747d7e96451c]
link User to logout--><g id="link_User_logout"><path d="M506.35,205.54 C549.2,201.03 680.92,187.17 751.21,179.77 " fill="none" id="User-to-logout" style="stroke:#181818;stroke-width:1.0;"/><polygon fill="#181818" points="756.58,179.2,747.2075,176.174,751.608,179.7286,748.0533,184.1291,756.58,179.2" style="stroke:#181818;stroke-width:1.0;"/></g><!--MD5=[59ac0fa0c9a9b247367433441c35f663]
link Executor to searchT--><g id="link_Executor_searchT"><path d="M229.08,311.81 C271.81,321.16 357.23,339.85 418.82,353.32 " fill="none" id="Executor-to-searchT" style="stroke:#181818;stroke-width:1.0;"/><polygon fill="#181818" points="423.95,354.44,416.0157,348.605,419.0661,353.369,414.3021,356.4193,423.95,354.44" style="stroke:#181818;stroke-width:1.0;"/></g><!--MD5=[9ddcf8597463ef73c70a23bd9f15fbc6]
link Executor to stats--><g id="link_Executor_stats"><path d="M229.03,323.72 C263.05,345.83 324.43,383.69 381,408 C400.59,416.42 423.02,423.58 442.45,429.06 " fill="none" id="Executor-to-stats" style="stroke:#181818;stroke-width:1.0;"/><polygon fill="#181818" points="447.32,430.42,439.7084,424.1699,442.5002,429.0899,437.5802,431.8817,447.32,430.42" style="stroke:#181818;stroke-width:1.0;"/></g><!--MD5=[8c4c45c66c1600b8f4e6ec2946b5541a]
link Executor to execT--><g id="link_Executor_execT"><path d="M229.08,305.17 C271.81,303.83 357.23,301.16 418.82,299.24 " fill="none" id="Executor-to-execT" style="stroke:#181818;stroke-width:1.0;"/><polygon fill="#181818" points="423.95,299.08,414.8288,295.3647,418.9525,299.2371,415.0801,303.3607,423.95,299.08" style="stroke:#181818;stroke-width:1.0;"/></g><!--MD5=[e051d0f66b6a6e1204313b1cafede258]
link Reviewer to createCat--><g id="link_Reviewer_createCat"><path d="M64.28,404 C79.78,404 99.85,404 119.8,404 " fill="none" id="Reviewer-to-createCat" style="stroke:#181818;stroke-width:1.0;"/><polygon fill="#181818" points="124.87,404,115.87,400,119.87,404,115.87,408,124.87,404" style="stroke:#181818;stroke-width:1.0;"/></g><!--MD5=[154a6203c75598de19acd11641fce386]
link Reviewer to reviewQ--><g id="link_Reviewer_reviewQ"><path d="M64.28,417.92 C91.75,431.45 133.59,452.05 163.65,466.86 " fill="none" id="Reviewer-to-reviewQ" style="stroke:#181818;stroke-width:1.0;"/><polygon fill="#181818" points="168.37,469.18,162.0703,461.6095,163.8865,466.9668,158.5291,468.7831,168.37,469.18" style="stroke:#181818;stroke-width:1.0;"/></g><!--MD5=[6ede64e69d07760098c79f7681ccfceb]
link reviewQ to eval--><g id="link_reviewQ_eval"><path d="M272.95,490.38 C323.62,494.25 390.9,499.39 437.15,502.92 " fill="none" id="reviewQ-to-eval" style="stroke:#181818;stroke-width:1.0;stroke-dasharray:7.0,7.0;"/><polygon fill="#181818" points="442.4,503.33,433.7353,498.6477,437.4149,502.9443,433.1183,506.6239,442.4,503.33" style="stroke:#181818;stroke-width:1.0;"/><text fill="#000000" font-family="sans-serif" font-size="13" lengthAdjust="spacing" textLength="41" x="309" y="489.4951">include</text></g><!--MD5=[6faa95740967066d7ead83b1e5646405]
link eval to saveToC--><g id="link_eval_saveToC"><path d="M542.02,507 C584.64,507 647.38,507 699.9,507 " fill="none" id="eval-to-saveToC" style="stroke:#181818;stroke-width:1.0;stroke-dasharray:7.0,7.0;"/><polygon fill="#181818" points="704.95,507,695.95,503,699.95,507,695.95,511,704.95,507" style="stroke:#181818;stroke-width:1.0;"/><text fill="#000000" font-family="sans-serif" font-size="13" lengthAdjust="spacing" textLength="41" x="633" y="503.4951">include</text></g><!--MD5=[c06598788dd8cd7200fbf6448b68a2f1]
link saveToC to closeQ--><g id="link_saveToC_closeQ"><path d="M890.01,507 C921.69,507 956.89,507 987.39,507 " fill="none" id="saveToC-to-closeQ" style="stroke:#181818;stroke-width:1.0;stroke-dasharray:7.0,7.0;"/><polygon fill="#181818" points="992.63,507,983.63,503,987.63,507,983.63,511,992.63,507" style="stroke:#181818;stroke-width:1.0;"/><text fill="#000000" font-family="sans-serif" font-size="13" lengthAdjust="spacing" textLength="41" x="921" y="503.4951">include</text></g><!--MD5=[60421ef9abadaffb39214a3e54a845d3]
@startuml useCases_app
left to right direction
actor User
actor Editor
actor Reviewer
usecase "Login" as login
usecase "Register" as register
usecase "Logout" as logout

usecase "Show Categories & Concepts" as showCat
usecase "Show Concept" as showCon
usecase "Create Concept" as createConcept
usecase "Open Question" as createQ
usecase "Close Question" as closeQ

usecase "Search Available Tests" as searchT
usecase "Show stats" as stats
usecase "Execute Test" as execT

usecase "Create Category" as createCat
usecase "Answer Open Question" as answerQ
usecase "Evaluate" as eval
usecase "Review Answers" as reviewQ
usecase "Save Concept Element" as saveToC


Editor - -|> User
Reviewer - -|> Editor
Executor - -|> User

Editor - -> showCat
 showCat ..> showCon: include
 showCat ..> createConcept : include
 createConcept ..> createQ : include
 showCon ..> createQ : include
Editor - -> answerQ

User - -> login
User - -> register
User - -> logout

Executor - -> searchT
Executor - -> stats
Executor - -> execT

Reviewer - -> createCat
Reviewer - -> reviewQ
    reviewQ ..> eval :include
    eval ..> saveToC :include
    saveToC ..> closeQ :include


@enduml

PlantUML version 1.2022.7(Mon Aug 22 18:01:30 WEST 2022)
(GPL source distribution)
Java Runtime: OpenJDK Runtime Environment
JVM: OpenJDK 64-Bit Server VM
Default Encoding: Cp1252
Language: es
Country: ES
--></g></svg>