<?xml version="1.0" encoding="UTF-8" standalone="no"?><svg xmlns="http://www.w3.org/2000/svg" xmlns:xlink="http://www.w3.org/1999/xlink" contentStyleType="text/css" height="665px" preserveAspectRatio="none" style="width:496px;height:665px;background:#FFFFFF;" version="1.1" viewBox="0 0 496 665" width="496px" zoomAndPan="magnify"><defs/><g><!--MD5=[fee662a292a0353a69bd162820bae93b]
entity User--><g id="elem_User"><ellipse cx="200.5" cy="308" fill="#F1F1F1" rx="8" ry="8" style="stroke:#181818;stroke-width:0.5;"/><path d="M200.5,316 L200.5,343 M187.5,324 L213.5,324 M200.5,343 L187.5,358 M200.5,343 L213.5,358 " fill="none" style="stroke:#181818;stroke-width:0.5;"/><text fill="#000000" font-family="sans-serif" font-size="14" lengthAdjust="spacing" textLength="29" x="186" y="374.0332">User</text></g><!--MD5=[2c65dbceb6f8e708b4a833ee0e24817e]
entity Editor--><g id="elem_Editor"><ellipse cx="35" cy="308" fill="#F1F1F1" rx="8" ry="8" style="stroke:#181818;stroke-width:0.5;"/><path d="M35,316 L35,343 M22,324 L48,324 M35,343 L22,358 M35,343 L48,358 " fill="none" style="stroke:#181818;stroke-width:0.5;"/><text fill="#000000" font-family="sans-serif" font-size="14" lengthAdjust="spacing" textLength="37" x="16.5" y="374.0332">Editor</text></g><!--MD5=[b09503c001490bdaf25988c5c0400a0b]
entity Reviewer--><g id="elem_Reviewer"><ellipse cx="35" cy="195" fill="#F1F1F1" rx="8" ry="8" style="stroke:#181818;stroke-width:0.5;"/><path d="M35,203 L35,230 M22,211 L48,211 M35,230 L22,245 M35,230 L48,245 " fill="none" style="stroke:#181818;stroke-width:0.5;"/><text fill="#000000" font-family="sans-serif" font-size="14" lengthAdjust="spacing" textLength="58" x="6" y="261.0332">Reviewer</text></g><g id="elem_login"><ellipse cx="413.355" cy="23.671" fill="#F1F1F1" rx="76.355" ry="17.671" style="stroke:#181818;stroke-width:0.5;"/><text fill="#000000" font-family="sans-serif" font-size="14" lengthAdjust="spacing" textLength="105" x="358.1233" y="28.1255">Login &amp; Register</text></g><g id="elem_createQ"><ellipse cx="413.4763" cy="93.5953" fill="#F1F1F1" rx="75.9763" ry="17.5953" style="stroke:#181818;stroke-width:0.5;"/><text fill="#000000" font-family="sans-serif" font-size="14" lengthAdjust="spacing" textLength="104" x="358.5467" y="98.0957">Create Question</text></g><g id="elem_importQ"><ellipse cx="413.481" cy="163.2962" fill="#F1F1F1" rx="74.481" ry="17.2962" style="stroke:#181818;stroke-width:0.5;"/><text fill="#000000" font-family="sans-serif" font-size="14" lengthAdjust="spacing" textLength="100" x="360.481" y="167.8128">Import Question</text></g><g id="elem_updateQ"><ellipse cx="413.7363" cy="233.7473" fill="#F1F1F1" rx="76.7363" ry="17.7473" style="stroke:#181818;stroke-width:0.5;"/><text fill="#000000" font-family="sans-serif" font-size="14" lengthAdjust="spacing" textLength="106" x="358.2006" y="238.1555">Update Question</text></g><g id="elem_deleteQ"><ellipse cx="413.7256" cy="303.4451" fill="#F1F1F1" rx="75.2256" ry="17.4451" style="stroke:#181818;stroke-width:0.5;"/><text fill="#000000" font-family="sans-serif" font-size="14" lengthAdjust="spacing" textLength="102" x="359.7256" y="307.9617">Delete Question</text></g><g id="elem_composeT"><ellipse cx="413.5677" cy="372.7135" fill="#F1F1F1" rx="71.5677" ry="16.7135" style="stroke:#181818;stroke-width:0.5;"/><text fill="#000000" font-family="sans-serif" font-size="14" lengthAdjust="spacing" textLength="92" x="364.5677" y="377.2301">Compose Test</text></g><g id="elem_editT"><ellipse cx="413.3032" cy="439.5087" fill="#F1F1F1" rx="51.3032" ry="15.5087" style="stroke:#181818;stroke-width:0.5;"/><text fill="#000000" font-family="sans-serif" font-size="14" lengthAdjust="spacing" textLength="56" x="382.3032" y="444.0253">Edit Test</text></g><g id="elem_deleteT"><ellipse cx="413.3631" cy="505.609" fill="#F1F1F1" rx="63.8631" ry="15.609" style="stroke:#181818;stroke-width:0.5;"/><text fill="#000000" font-family="sans-serif" font-size="14" lengthAdjust="spacing" textLength="73" x="373.8631" y="510.1256">Delete Test</text></g><g id="elem_playT"><ellipse cx="200.5193" cy="451.5298" fill="#F1F1F1" rx="53.5193" ry="15.5298" style="stroke:#181818;stroke-width:0.5;"/><text fill="#000000" font-family="sans-serif" font-size="14" lengthAdjust="spacing" textLength="59" x="168.0193" y="456.0464">Play Test</text></g><g id="elem_editC"><ellipse cx="413.457" cy="572.2914" fill="#F1F1F1" rx="69.457" ry="16.2914" style="stroke:#181818;stroke-width:0.5;"/><text fill="#000000" font-family="sans-serif" font-size="14" lengthAdjust="spacing" textLength="86" x="367.457" y="576.808">Edit Category</text></g><g id="elem_uploadQ"><ellipse cx="413.355" cy="641.671" fill="#F1F1F1" rx="76.355" ry="17.671" style="stroke:#181818;stroke-width:0.5;"/><text fill="#000000" font-family="sans-serif" font-size="14" lengthAdjust="spacing" textLength="105" x="358.1233" y="646.1255">Upload Question</text></g><g id="elem_review"><ellipse cx="200.7363" cy="225.7473" fill="#F1F1F1" rx="76.7363" ry="17.7473" style="stroke:#181818;stroke-width:0.5;"/><text fill="#000000" font-family="sans-serif" font-size="14" lengthAdjust="spacing" textLength="106" x="145.2006" y="230.1555">Review Question</text></g><!--MD5=[77b6810f9f1d8e17e1346401c10c77dc]
entity Executor--><g id="elem_Executor"><ellipse cx="35" cy="421" fill="#F1F1F1" rx="8" ry="8" style="stroke:#181818;stroke-width:0.5;"/><path d="M35,429 L35,456 M22,437 L48,437 M35,456 L22,471 M35,456 L48,471 " fill="none" style="stroke:#181818;stroke-width:0.5;"/><text fill="#000000" font-family="sans-serif" font-size="14" lengthAdjust="spacing" textLength="55" x="7.5" y="487.0332">Executor</text></g><!--MD5=[f7383e4cdc50b73a3a26567783bb3d45]
link Editor to User--><g id="link_Editor_User"><path d="M53.81,338.5 C80.57,338.5 131.65,338.5 165.65,338.5 " fill="none" id="Editor-to-User" style="stroke:#181818;stroke-width:1.0;"/><polygon fill="none" points="165.95,331.5,185.95,338.5,165.95,345.5,165.95,331.5" style="stroke:#181818;stroke-width:1.0;"/></g><!--MD5=[11eee2868fcac055cb56ef218c7912df]
link Reviewer to User--><g id="link_Reviewer_User"><path d="M64.11,244.93 C93.31,265.11 138.85,296.58 168.93,317.37 " fill="none" id="Reviewer-to-User" style="stroke:#181818;stroke-width:1.0;"/><polygon fill="none" points="173.28,311.87,185.76,329,165.32,323.39,173.28,311.87" style="stroke:#181818;stroke-width:1.0;"/></g><!--MD5=[c4ba78a7e4ac5cb98d4cdf14b6befc04]
link Executor to User--><g id="link_Executor_User"><path d="M62.63,433.09 C91.86,412.9 138.67,380.54 169.26,359.4 " fill="none" id="Executor-to-User" style="stroke:#181818;stroke-width:1.0;"/><polygon fill="none" points="165.47,353.51,185.9,347.9,173.43,365.03,165.47,353.51" style="stroke:#181818;stroke-width:1.0;"/></g><!--MD5=[cf206ddce73ea640d7466cd888f390a3]
link User to createQ--><g id="link_User_createQ"><path d="M215.23,326.97 C231.59,312.69 258.97,286.98 277,260.5 C313.27,207.24 291.6,174.24 337,128.5 C344.52,120.92 353.99,114.8 363.66,109.93 " fill="none" id="User-to-createQ" style="stroke:#181818;stroke-width:1.0;"/><polygon fill="#181818" points="368.42,107.64,358.5756,107.9366,363.9142,109.8074,362.0434,115.1459,368.42,107.64" style="stroke:#181818;stroke-width:1.0;"/></g><!--MD5=[16b27cb2dce43e5672d5abee38d2e4eb]
link User to importQ--><g id="link_User_importQ"><path d="M215.23,324.31 C249.64,288.74 336.89,198.58 337,198.5 C346.69,191.62 357.94,185.54 368.76,180.47 " fill="none" id="User-to-importQ" style="stroke:#181818;stroke-width:1.0;"/><polygon fill="#181818" points="373.36,178.36,363.5119,178.48,368.816,180.4462,366.8498,185.7504,373.36,178.36" style="stroke:#181818;stroke-width:1.0;"/></g><!--MD5=[79bff4b5f997e63d9466aba5f8fb0224]
link User to updateQ--><g id="link_User_updateQ"><path d="M215.25,331.15 C239.62,318.18 292.06,290.51 337,268.5 C348.8,262.72 361.74,256.63 373.53,251.18 " fill="none" id="User-to-updateQ" style="stroke:#181818;stroke-width:1.0;"/><polygon fill="#181818" points="378.15,249.05,368.3019,249.17,373.606,251.1362,371.6398,256.4404,378.15,249.05" style="stroke:#181818;stroke-width:1.0;"/></g><!--MD5=[ab70dfdd9dc50f2c9336ad5139783003]
link User to deleteQ--><g id="link_User_deleteQ"><path d="M215.02,336.26 C241.08,331.93 299.83,322.19 346.52,314.45 " fill="none" id="User-to-deleteQ" style="stroke:#181818;stroke-width:1.0;"/><polygon fill="#181818" points="351.57,313.61,342.0383,311.1306,346.6369,314.425,343.3424,319.0236,351.57,313.61" style="stroke:#181818;stroke-width:1.0;"/></g><!--MD5=[ada8af5613ce200cfb6fe40c73f4ee93]
link User to uploadQ--><g id="link_User_uploadQ"><path d="M215.16,349.55 C231.97,363.82 260.32,390.2 277,418.5 C321.54,494.05 278.98,540.72 337,606.5 C343.82,614.23 352.7,620.37 361.96,625.2 " fill="none" id="User-to-uploadQ" style="stroke:#181818;stroke-width:1.0;"/><polygon fill="#181818" points="366.53,627.47,360.2496,619.8834,362.0522,625.2453,356.6902,627.0479,366.53,627.47" style="stroke:#181818;stroke-width:1.0;"/></g><!--MD5=[bc81ebb8a732e08f29a60712843ac489]
link User to login--><g id="link_User_login"><path d="M215.27,327.86 C232.18,314.08 260.64,288.49 277,260.5 C324.26,179.64 275.76,129.36 337,58.5 C343.74,50.7 352.58,44.53 361.84,39.69 " fill="none" id="User-to-login" style="stroke:#181818;stroke-width:1.0;"/><polygon fill="#181818" points="366.41,37.42,356.5707,37.8546,361.935,39.6503,360.1393,45.0146,366.41,37.42" style="stroke:#181818;stroke-width:1.0;"/></g><!--MD5=[4a96660804186057d17d369ab5fb1706]
link User to composeT--><g id="link_User_composeT"><path d="M215.02,340.68 C241.61,344.96 302.22,354.73 349.33,362.32 " fill="none" id="User-to-composeT" style="stroke:#181818;stroke-width:1.0;"/><polygon fill="#181818" points="354.42,363.14,346.1772,357.7497,349.4846,362.3389,344.8954,365.6463,354.42,363.14" style="stroke:#181818;stroke-width:1.0;"/></g><!--MD5=[66cd03acb3e892a18a1da8b8ce71380d]
link User to editT--><g id="link_User_editT"><path d="M215.23,345.69 C239.57,358.38 291.96,385.37 337,406.5 C350.38,412.78 365.26,419.36 378.24,424.98 " fill="none" id="User-to-editT" style="stroke:#181818;stroke-width:1.0;"/><polygon fill="#181818" points="382.94,427.01,376.2705,419.7631,378.3517,425.0232,373.0916,427.1043,382.94,427.01" style="stroke:#181818;stroke-width:1.0;"/></g><!--MD5=[73869944817025ead8e85f23e44a5749]
link User to deleteT--><g id="link_User_deleteT"><path d="M215.04,353.19 C243.66,384.01 309.89,454.12 337,472.5 C347.46,479.6 359.7,485.73 371.24,490.71 " fill="none" id="User-to-deleteT" style="stroke:#181818;stroke-width:1.0;"/><polygon fill="#181818" points="376.13,492.78,369.3955,485.5935,371.524,490.8346,366.2828,492.9631,376.13,492.78" style="stroke:#181818;stroke-width:1.0;"/></g><!--MD5=[d4b245d548b51b74a5c6221d9f8c12e2]
link Executor to playT--><g id="link_Executor_playT"><path d="M62.63,451.5 C83.93,451.5 114.56,451.5 141.44,451.5 " fill="none" id="Executor-to-playT" style="stroke:#181818;stroke-width:1.0;"/><polygon fill="#181818" points="146.77,451.5,137.77,447.5,141.77,451.5,137.77,455.5,146.77,451.5" style="stroke:#181818;stroke-width:1.0;"/></g><!--MD5=[37fde9d5823a8b573aaac3698ed866a9]
link User to editC--><g id="link_User_editC"><path d="M215.04,350.51 C231.21,365.34 258.4,391.89 277,418.5 C311.16,467.37 293.99,497.2 337,538.5 C345.09,546.27 355.27,552.46 365.5,557.32 " fill="none" id="User-to-editC" style="stroke:#181818;stroke-width:1.0;"/><polygon fill="#181818" points="370.2,559.46,363.6619,552.0943,365.6482,557.391,360.3515,559.3772,370.2,559.46" style="stroke:#181818;stroke-width:1.0;"/></g><!--MD5=[3b6b27e306af536505313a17e5e34279]
link Reviewer to review--><g id="link_Reviewer_review"><path d="M64.11,225.5 C79.43,225.5 99.24,225.5 118.97,225.5 " fill="none" id="Reviewer-to-review" style="stroke:#181818;stroke-width:1.0;"/><polygon fill="#181818" points="123.98,225.5,114.98,221.5,118.98,225.5,114.98,229.5,123.98,225.5" style="stroke:#181818;stroke-width:1.0;"/></g><!--MD5=[564e093a56b77dd6ef3b995d4bb45817]
@startuml useCases_app
left to right direction
actor User
actor Editor
actor Reviewer
usecase "Login & Register" as login
usecase "Create Question" as createQ
usecase "Import Question" as importQ
usecase "Update Question" as updateQ
usecase "Delete Question" as deleteQ

usecase "Compose Test" as composeT
usecase "Edit Test" as editT
usecase "Delete Test" as deleteT
usecase "Play Test" as playT

usecase "Edit Category" as editC
usecase "Upload Question" as uploadQ

usecase "Review Question" as review

Editor - -|> User
Reviewer - -|> User
Executor - -|> User

User - -> createQ
User - -> importQ
User - -> updateQ
User - -> deleteQ
User - -> uploadQ

User - -> login
User - -> composeT
User - -> editT
User - -> deleteT
Executor - -> playT

User - -> editC

Reviewer - -> review



@enduml

PlantUML version 1.2022.7(Mon Aug 22 18:01:30 WEST 2022)
(GPL source distribution)
Java Runtime: OpenJDK Runtime Environment
JVM: OpenJDK 64-Bit Server VM
Default Encoding: Cp1252
Language: es
Country: ES
--></g></svg>