<?xml version="1.0" encoding="UTF-8" standalone="no"?><svg xmlns="http://www.w3.org/2000/svg" xmlns:xlink="http://www.w3.org/1999/xlink" contentStyleType="text/css" height="691px" preserveAspectRatio="none" style="width:758px;height:691px;background:#FFFFFF;" version="1.1" viewBox="0 0 758 691" width="758px" zoomAndPan="magnify"><defs/><g><!--MD5=[fee662a292a0353a69bd162820bae93b]
entity User--><g id="elem_User"><ellipse cx="495.5" cy="340" fill="#F1F1F1" rx="8" ry="8" style="stroke:#181818;stroke-width:0.5;"/><path d="M495.5,348 L495.5,375 M482.5,356 L508.5,356 M495.5,375 L482.5,390 M495.5,375 L508.5,390 " fill="none" style="stroke:#181818;stroke-width:0.5;"/><text fill="#000000" font-family="sans-serif" font-size="14" lengthAdjust="spacing" textLength="29" x="481" y="406.0332">User</text></g><!--MD5=[2c65dbceb6f8e708b4a833ee0e24817e]
entity Editor--><g id="elem_Editor"><ellipse cx="230.5" cy="95" fill="#F1F1F1" rx="8" ry="8" style="stroke:#181818;stroke-width:0.5;"/><path d="M230.5,103 L230.5,130 M217.5,111 L243.5,111 M230.5,130 L217.5,145 M230.5,130 L243.5,145 " fill="none" style="stroke:#181818;stroke-width:0.5;"/><text fill="#000000" font-family="sans-serif" font-size="14" lengthAdjust="spacing" textLength="37" x="212" y="161.0332">Editor</text></g><!--MD5=[b09503c001490bdaf25988c5c0400a0b]
entity Reviewer--><g id="elem_Reviewer"><ellipse cx="35" cy="301" fill="#F1F1F1" rx="8" ry="8" style="stroke:#181818;stroke-width:0.5;"/><path d="M35,309 L35,336 M22,317 L48,317 M35,336 L22,351 M35,336 L48,351 " fill="none" style="stroke:#181818;stroke-width:0.5;"/><text fill="#000000" font-family="sans-serif" font-size="14" lengthAdjust="spacing" textLength="58" x="6" y="367.0332">Reviewer</text></g><g id="elem_login"><ellipse cx="703.234" cy="304.4517" fill="#F1F1F1" rx="36.234" ry="15.4517" style="stroke:#181818;stroke-width:0.5;"/><text fill="#000000" font-family="sans-serif" font-size="14" lengthAdjust="spacing" textLength="35" x="685.734" y="308.1802">Login</text></g><g id="elem_register"><ellipse cx="703.0928" cy="370.4872" fill="#F1F1F1" rx="49.0928" ry="15.4872" style="stroke:#181818;stroke-width:0.5;"/><text fill="#000000" font-family="sans-serif" font-size="14" lengthAdjust="spacing" textLength="53" x="674.1382" y="374.8807">Register</text></g><g id="elem_logout"><ellipse cx="703.0997" cy="436.4523" fill="#F1F1F1" rx="42.5997" ry="15.4523" style="stroke:#181818;stroke-width:0.5;"/><text fill="#000000" font-family="sans-serif" font-size="14" lengthAdjust="spacing" textLength="44" x="680.8355" y="440.2639">Logout</text></g><g id="elem_createQ"><ellipse cx="495.4763" cy="23.5953" fill="#F1F1F1" rx="75.9763" ry="17.5953" style="stroke:#181818;stroke-width:0.5;"/><text fill="#000000" font-family="sans-serif" font-size="14" lengthAdjust="spacing" textLength="104" x="440.5467" y="28.0957">Create Question</text></g><g id="elem_addAnswerQ"><ellipse cx="495.341" cy="91.6182" fill="#F1F1F1" rx="65.341" ry="15.6182" style="stroke:#181818;stroke-width:0.5;"/><text fill="#000000" font-family="sans-serif" font-size="14" lengthAdjust="spacing" textLength="75" x="454.841" y="96.1348">Add Answer</text></g><g id="elem_deleteQ"><ellipse cx="495.7256" cy="159.4451" fill="#F1F1F1" rx="75.2256" ry="17.4451" style="stroke:#181818;stroke-width:0.5;"/><text fill="#000000" font-family="sans-serif" font-size="14" lengthAdjust="spacing" textLength="102" x="441.7256" y="163.9617">Delete Question</text></g><g id="elem_assignT"><ellipse cx="495.602" cy="534.6136" fill="#F1F1F1" rx="64.602" ry="15.6136" style="stroke:#181818;stroke-width:0.5;"/><text fill="#000000" font-family="sans-serif" font-size="14" lengthAdjust="spacing" textLength="74" x="455.602" y="539.1302">Assign Test</text></g><g id="elem_unassignT"><ellipse cx="495.3567" cy="601.5713" fill="#F1F1F1" rx="70.8567" ry="16.5713" style="stroke:#181818;stroke-width:0.5;"/><text fill="#000000" font-family="sans-serif" font-size="14" lengthAdjust="spacing" textLength="90" x="447.3567" y="606.0879">Unassign Test</text></g><g id="elem_execT"><ellipse cx="495.5887" cy="669.5177" fill="#F1F1F1" rx="68.0887" ry="16.0177" style="stroke:#181818;stroke-width:0.5;"/><text fill="#000000" font-family="sans-serif" font-size="14" lengthAdjust="spacing" textLength="82" x="451.5887" y="674.0343">Execute Test</text></g><g id="elem_createC"><ellipse cx="230.355" cy="217.671" fill="#F1F1F1" rx="76.355" ry="17.671" style="stroke:#181818;stroke-width:0.5;"/><text fill="#000000" font-family="sans-serif" font-size="14" lengthAdjust="spacing" textLength="105" x="175.1233" y="222.1255">Create Category</text></g><g id="elem_markQ"><ellipse cx="495.7239" cy="234.6448" fill="#F1F1F1" rx="98.7239" ry="22.1448" style="stroke:#181818;stroke-width:0.5;"/><text fill="#000000" font-family="sans-serif" font-size="14" lengthAdjust="spacing" textLength="158" x="416.7239" y="238.3733">Mark ToReview Question</text></g><g id="elem_approveRejectA"><ellipse cx="230.3456" cy="293.6691" fill="#F1F1F1" rx="106.3456" ry="23.6691" style="stroke:#181818;stroke-width:0.5;"/><text fill="#000000" font-family="sans-serif" font-size="14" lengthAdjust="spacing" textLength="175" x="142.8456" y="297.3976">** Approve / reject Question</text></g><g id="elem_reviewQ"><ellipse cx="230.7363" cy="369.7473" fill="#F1F1F1" rx="76.7363" ry="17.7473" style="stroke:#181818;stroke-width:0.5;"/><text fill="#000000" font-family="sans-serif" font-size="14" lengthAdjust="spacing" textLength="106" x="175.2006" y="374.1555">Review Question</text></g><g id="elem_editC"><ellipse cx="230.457" cy="438.2914" fill="#F1F1F1" rx="69.457" ry="16.2914" style="stroke:#181818;stroke-width:0.5;"/><text fill="#000000" font-family="sans-serif" font-size="14" lengthAdjust="spacing" textLength="86" x="184.457" y="442.808">Edit Category</text></g><g id="elem_publishQ"><ellipse cx="230.597" cy="508.6194" fill="#F1F1F1" rx="81.097" ry="18.6194" style="stroke:#181818;stroke-width:0.5;"/><text fill="#000000" font-family="sans-serif" font-size="14" lengthAdjust="spacing" textLength="117" x="171.5843" y="512.4982">**Publish Question</text></g><!--MD5=[77b6810f9f1d8e17e1346401c10c77dc]
entity Executor--><g id="elem_Executor"><ellipse cx="230.5" cy="571" fill="#F1F1F1" rx="8" ry="8" style="stroke:#181818;stroke-width:0.5;"/><path d="M230.5,579 L230.5,606 M217.5,587 L243.5,587 M230.5,606 L217.5,621 M230.5,606 L243.5,621 " fill="none" style="stroke:#181818;stroke-width:0.5;"/><text fill="#000000" font-family="sans-serif" font-size="14" lengthAdjust="spacing" textLength="55" x="203" y="637.0332">Executor</text></g><!--MD5=[f7383e4cdc50b73a3a26567783bb3d45]
link Editor to User--><g id="link_Editor_User"><path d="M249.2,131.92 C271.6,140.69 310.44,158.17 337,182.5 C372.72,215.22 366.33,236 397,273.5 C418.24,299.48 445.55,326.17 465.86,344.96 " fill="none" id="Editor-to-User" style="stroke:#181818;stroke-width:1.0;"/><polygon fill="none" points="470.59,339.8,480.69,358.43,461.18,350.17,470.59,339.8" style="stroke:#181818;stroke-width:1.0;"/></g><!--MD5=[f74b4e3ba99d1f3f5800955a8b8fef81]
link Reviewer to Editor--><g id="link_Reviewer_Editor"><path d="M51.92,292.42 C66.74,259.84 91.42,213.86 124,182.5 C143.88,163.36 171.45,148.76 193.43,139.13 " fill="none" id="Reviewer-to-Editor" style="stroke:#181818;stroke-width:1.0;"/><polygon fill="none" points="190.83,132.63,211.99,131.57,196.11,145.6,190.83,132.63" style="stroke:#181818;stroke-width:1.0;"/></g><!--MD5=[c4ba78a7e4ac5cb98d4cdf14b6befc04]
link Executor to User--><g id="link_Executor_User"><path d="M258.15,590.19 C280.43,580.03 312.43,563.78 337,544.5 C389.72,503.14 439.7,443.11 468.71,405.47 " fill="none" id="Executor-to-User" style="stroke:#181818;stroke-width:1.0;"/><polygon fill="none" points="463.19,401.16,480.84,389.43,474.36,409.61,463.19,401.16" style="stroke:#181818;stroke-width:1.0;"/></g><!--MD5=[03342a11f01a1be580e4b5f6ff49d43f]
link Editor to createQ--><g id="link_Editor_createQ"><path d="M249.29,118.03 C279.5,105.39 342.85,79.17 397,58.5 C413.45,52.22 431.57,45.63 447.68,39.88 " fill="none" id="Editor-to-createQ" style="stroke:#181818;stroke-width:1.0;"/><polygon fill="#181818" points="452.61,38.12,442.7887,37.3838,447.9019,39.8035,445.4823,44.9167,452.61,38.12" style="stroke:#181818;stroke-width:1.0;"/></g><!--MD5=[ab019124e6a336b4fb8d4ab1553cd354]
link Editor to addAnswerQ--><g id="link_Editor_addAnswerQ"><path d="M249.16,123.22 C286.08,118.44 372.91,107.22 432.7,99.49 " fill="none" id="Editor-to-addAnswerQ" style="stroke:#181818;stroke-width:1.0;"/><polygon fill="#181818" points="437.67,98.85,428.2303,96.0407,432.7115,99.493,429.2592,103.9742,437.67,98.85" style="stroke:#181818;stroke-width:1.0;"/></g><!--MD5=[48f36a504ffd22a201edd904587fb7f6]
link Editor to deleteQ--><g id="link_Editor_deleteQ"><path d="M249.16,127.78 C284.38,132.34 365.04,142.76 424.3,150.42 " fill="none" id="Editor-to-deleteQ" style="stroke:#181818;stroke-width:1.0;"/><polygon fill="#181818" points="429.6,151.11,421.1892,145.9858,424.6415,150.467,420.1603,153.9193,429.6,151.11" style="stroke:#181818;stroke-width:1.0;"/></g><!--MD5=[fae657de78808a1036e5dec4eb8f3dbf]
link Editor to markQ--><g id="link_Editor_markQ"><path d="M249.36,132.99 C279.69,145.69 343.21,172.25 397,194.5 C411.73,200.59 427.74,207.17 442.43,213.2 " fill="none" id="Editor-to-markQ" style="stroke:#181818;stroke-width:1.0;"/><polygon fill="#181818" points="447.37,215.23,440.5444,208.13,442.7395,213.3435,437.526,215.5387,447.37,215.23" style="stroke:#181818;stroke-width:1.0;"/></g><!--MD5=[bc81ebb8a732e08f29a60712843ac489]
link User to login--><g id="link_User_login"><path d="M510.3,366.07 C542.43,355.75 622.95,329.89 668.76,315.18 " fill="none" id="User-to-login" style="stroke:#181818;stroke-width:1.0;"/><polygon fill="#181818" points="673.63,313.61,663.8378,312.555,668.8697,315.1396,666.2851,320.1715,673.63,313.61" style="stroke:#181818;stroke-width:1.0;"/></g><!--MD5=[5a8f97d88e2c39c1c4aefadaa2f4f750]
link User to register--><g id="link_User_register"><path d="M510.3,370.5 C538.17,370.5 602.47,370.5 648.93,370.5 " fill="none" id="User-to-register" style="stroke:#181818;stroke-width:1.0;"/><polygon fill="#181818" points="653.93,370.5,644.93,366.5,648.93,370.5,644.93,374.5,653.93,370.5" style="stroke:#181818;stroke-width:1.0;"/></g><!--MD5=[94954b1ac4c1a25db536747d7e96451c]
link User to logout--><g id="link_User_logout"><path d="M510.3,374.93 C541.73,385.03 619.49,410 665.74,424.86 " fill="none" id="User-to-logout" style="stroke:#181818;stroke-width:1.0;"/><polygon fill="#181818" points="670.67,426.44,663.3251,419.8785,665.9097,424.9104,660.8778,427.495,670.67,426.44" style="stroke:#181818;stroke-width:1.0;"/></g><!--MD5=[428aebbedd96afd721720ebe09ce0ccb]
link Executor to assignT--><g id="link_Executor_assignT"><path d="M258.17,594.71 C302.03,583.53 390.04,561.11 445.41,547.01 " fill="none" id="Executor-to-assignT" style="stroke:#181818;stroke-width:1.0;"/><polygon fill="#181818" points="450.33,545.75,440.6182,544.1128,445.4869,546.9929,442.6068,551.8617,450.33,545.75" style="stroke:#181818;stroke-width:1.0;"/></g><!--MD5=[63eb762f5c5ad32fa9727c9f85ff7d04]
link Executor to unassignT--><g id="link_Executor_unassignT"><path d="M258.17,601.5 C295.61,601.5 365.24,601.5 419.26,601.5 " fill="none" id="Executor-to-unassignT" style="stroke:#181818;stroke-width:1.0;"/><polygon fill="#181818" points="424.44,601.5,415.44,597.5,419.44,601.5,415.44,605.5,424.44,601.5" style="stroke:#181818;stroke-width:1.0;"/></g><!--MD5=[8c4c45c66c1600b8f4e6ec2946b5541a]
link Executor to execT--><g id="link_Executor_execT"><path d="M258.17,608.39 C301.65,619.64 388.52,642.1 443.96,656.43 " fill="none" id="Executor-to-execT" style="stroke:#181818;stroke-width:1.0;"/><polygon fill="#181818" points="448.89,657.71,441.1838,651.577,444.0504,656.4537,439.1737,659.3203,448.89,657.71" style="stroke:#181818;stroke-width:1.0;"/></g><!--MD5=[832c5e99f79262bf092cfd8d07e4099d]
link Reviewer to createC--><g id="link_Reviewer_createC"><path d="M64.11,300.73 C80.3,284.52 101.8,265.38 124,252.5 C138.82,243.9 156.06,237.05 172.25,231.78 " fill="none" id="Reviewer-to-createC" style="stroke:#181818;stroke-width:1.0;"/><polygon fill="#181818" points="177.24,230.19,167.4507,229.1083,172.4756,231.7066,169.8773,236.7314,177.24,230.19" style="stroke:#181818;stroke-width:1.0;"/></g><!--MD5=[bb598da8da6927f84607cbb584ec16ea]
link Reviewer to editC--><g id="link_Reviewer_editC"><path d="M64.07,359.54 C80.42,374.59 102.08,392.46 124,404.5 C140.04,413.3 158.71,420.26 175.85,425.52 " fill="none" id="Reviewer-to-editC" style="stroke:#181818;stroke-width:1.0;"/><polygon fill="#181818" points="180.64,426.96,173.1777,420.5323,175.8528,425.5167,170.8685,428.1918,180.64,426.96" style="stroke:#181818;stroke-width:1.0;"/></g><!--MD5=[b3741a5af039c27ee25e5717a692fa78]
link Reviewer to approveRejectA--><g id="link_Reviewer_approveRejectA"><path d="M64.14,325.97 C85.54,321.77 116.17,315.76 145.27,310.04 " fill="none" id="Reviewer-to-approveRejectA" style="stroke:#181818;stroke-width:1.0;"/><polygon fill="#181818" points="150.3,309.05,140.7001,306.8496,145.3927,310.0086,142.2338,314.7012,150.3,309.05" style="stroke:#181818;stroke-width:1.0;"/></g><!--MD5=[154a6203c75598de19acd11641fce386]
link Reviewer to reviewQ--><g id="link_Reviewer_reviewQ"><path d="M64.14,337.03 C90.91,342.28 132.13,350.38 166.71,357.17 " fill="none" id="Reviewer-to-reviewQ" style="stroke:#181818;stroke-width:1.0;"/><polygon fill="#181818" points="171.77,358.16,163.7165,352.4906,166.8649,357.1904,162.1652,360.3388,171.77,358.16" style="stroke:#181818;stroke-width:1.0;"/></g><!--MD5=[e7dc023867224044be17c07946908b91]
link Reviewer to publishQ--><g id="link_Reviewer_publishQ"><path d="M51.62,370.8 C66.04,402.39 90.32,445.77 124,472.5 C136.05,482.07 150.8,489.16 165.4,494.4 " fill="none" id="Reviewer-to-publishQ" style="stroke:#181818;stroke-width:1.0;"/><polygon fill="#181818" points="170.34,496.11,163.1331,489.3973,165.6125,494.4818,160.528,496.9612,170.34,496.11" style="stroke:#181818;stroke-width:1.0;"/></g><!--MD5=[b967cf851ab7d339d3be52128fc532a6]
@startuml useCases_app
left to right direction
actor User
actor Editor
actor Reviewer
usecase "Login" as login
usecase "Register" as register
usecase "Logout" as logout
usecase "Create Question" as createQ

usecase "Add Answer" as addAnswerQ
usecase "Delete Question" as deleteQ

usecase "Assign Test" as assignT
usecase "Unassign Test" as unassignT
usecase "Execute Test" as execT

usecase "Create Category" as createC
usecase "Mark ToReview Question" as markQ
usecase "** Approve / reject Question" as approveRejectA
usecase "Review Question" as reviewQ
usecase "Edit Category" as editC
usecase "**Publish Question" as publishQ

Editor - -|> User
Reviewer - -|> Editor
Executor - -|> User

Editor - -> createQ
Editor - -> addAnswerQ
Editor - -> deleteQ
Editor - -> markQ

User - -> login
User - -> register
User - -> logout
Executor - -> assignT
Executor - -> unassignT
Executor - -> execT

Reviewer - -> createC
Reviewer - -> editC
Reviewer - -> approveRejectA
Reviewer - -> reviewQ
Reviewer - -> publishQ

@enduml

PlantUML version 1.2022.7(Mon Aug 22 18:01:30 WEST 2022)
(GPL source distribution)
Java Runtime: OpenJDK Runtime Environment
JVM: OpenJDK 64-Bit Server VM
Default Encoding: Cp1252
Language: es
Country: ES
--></g></svg>