<?xml version="1.0" encoding="UTF-8" standalone="no"?><svg xmlns="http://www.w3.org/2000/svg" xmlns:xlink="http://www.w3.org/1999/xlink" contentStyleType="text/css" height="860px" preserveAspectRatio="none" style="width:283px;height:860px;background:#FFFFFF;" version="1.1" viewBox="0 0 283 860" width="283px" zoomAndPan="magnify"><defs/><g><!--MD5=[7d46d6cd919e02e6168a09ad91eae8b4]
entity u--><g id="elem_u"><ellipse cx="35" cy="304" fill="#F1F1F1" rx="8" ry="8" style="stroke:#181818;stroke-width:0.5;"/><path d="M35,312 L35,339 M22,320 L48,320 M35,339 L22,354 M35,339 L48,354 " fill="none" style="stroke:#181818;stroke-width:0.5;"/><text fill="#000000" font-family="sans-serif" font-size="14" lengthAdjust="spacing" textLength="29" x="20.5" y="370.0332">User</text></g><!--MD5=[e32773a0da76c445e84e5885468a4484]
entity e--><g id="elem_e"><ellipse cx="35" cy="673" fill="#F1F1F1" rx="8" ry="8" style="stroke:#181818;stroke-width:0.5;"/><path d="M35,681 L35,708 M22,689 L48,689 M35,708 L22,723 M35,708 L48,723 " fill="none" style="stroke:#181818;stroke-width:0.5;"/><text fill="#000000" font-family="sans-serif" font-size="14" lengthAdjust="spacing" textLength="37" x="16.5" y="739.0332">Editor</text></g><!--MD5=[cbf2a705c8c36a956106bd646f097c75]
entity r--><g id="elem_r"><ellipse cx="35" cy="786" fill="#F1F1F1" rx="8" ry="8" style="stroke:#181818;stroke-width:0.5;"/><path d="M35,794 L35,821 M22,802 L48,802 M35,821 L22,836 M35,821 L48,836 " fill="none" style="stroke:#181818;stroke-width:0.5;"/><text fill="#000000" font-family="sans-serif" font-size="14" lengthAdjust="spacing" textLength="58" x="6" y="852.0332">Reviewer</text></g><g id="elem_login"><ellipse cx="200.734" cy="21.4517" fill="#F1F1F1" rx="36.234" ry="15.4517" style="stroke:#181818;stroke-width:0.5;"/><text fill="#000000" font-family="sans-serif" font-size="14" lengthAdjust="spacing" textLength="35" x="183.234" y="25.1802">Login</text></g><g id="elem_createQ"><ellipse cx="200.4763" cy="89.5953" fill="#F1F1F1" rx="75.9763" ry="17.5953" style="stroke:#181818;stroke-width:0.5;"/><text fill="#000000" font-family="sans-serif" font-size="14" lengthAdjust="spacing" textLength="104" x="145.5467" y="94.0957">Create Question</text></g><g id="elem_importQ"><ellipse cx="200.481" cy="159.2962" fill="#F1F1F1" rx="74.481" ry="17.2962" style="stroke:#181818;stroke-width:0.5;"/><text fill="#000000" font-family="sans-serif" font-size="14" lengthAdjust="spacing" textLength="100" x="147.481" y="163.8128">Import Question</text></g><g id="elem_updateQ"><ellipse cx="200.7363" cy="229.7473" fill="#F1F1F1" rx="76.7363" ry="17.7473" style="stroke:#181818;stroke-width:0.5;"/><text fill="#000000" font-family="sans-serif" font-size="14" lengthAdjust="spacing" textLength="106" x="145.2006" y="234.1555">Update Question</text></g><g id="elem_deleteQ"><ellipse cx="200.7256" cy="299.4451" fill="#F1F1F1" rx="75.2256" ry="17.4451" style="stroke:#181818;stroke-width:0.5;"/><text fill="#000000" font-family="sans-serif" font-size="14" lengthAdjust="spacing" textLength="102" x="146.7256" y="303.9617">Delete Question</text></g><g id="elem_composeT"><ellipse cx="200.5677" cy="368.7135" fill="#F1F1F1" rx="71.5677" ry="16.7135" style="stroke:#181818;stroke-width:0.5;"/><text fill="#000000" font-family="sans-serif" font-size="14" lengthAdjust="spacing" textLength="92" x="151.5677" y="373.2301">Compose Test</text></g><g id="elem_editT"><ellipse cx="200.3032" cy="435.5087" fill="#F1F1F1" rx="51.3032" ry="15.5087" style="stroke:#181818;stroke-width:0.5;"/><text fill="#000000" font-family="sans-serif" font-size="14" lengthAdjust="spacing" textLength="56" x="169.3032" y="440.0253">Edit Test</text></g><g id="elem_deleteT"><ellipse cx="200.3631" cy="501.609" fill="#F1F1F1" rx="63.8631" ry="15.609" style="stroke:#181818;stroke-width:0.5;"/><text fill="#000000" font-family="sans-serif" font-size="14" lengthAdjust="spacing" textLength="73" x="160.8631" y="506.1256">Delete Test</text></g><g id="elem_playT"><ellipse cx="200.5193" cy="567.5298" fill="#F1F1F1" rx="53.5193" ry="15.5298" style="stroke:#181818;stroke-width:0.5;"/><text fill="#000000" font-family="sans-serif" font-size="14" lengthAdjust="spacing" textLength="59" x="168.0193" y="572.0464">Play Test</text></g><g id="elem_editC"><ellipse cx="200.457" cy="634.2914" fill="#F1F1F1" rx="69.457" ry="16.2914" style="stroke:#181818;stroke-width:0.5;"/><text fill="#000000" font-family="sans-serif" font-size="14" lengthAdjust="spacing" textLength="86" x="154.457" y="638.808">Edit Category</text></g><g id="elem_uploadQ"><ellipse cx="200.355" cy="703.671" fill="#F1F1F1" rx="76.355" ry="17.671" style="stroke:#181818;stroke-width:0.5;"/><text fill="#000000" font-family="sans-serif" font-size="14" lengthAdjust="spacing" textLength="105" x="145.1233" y="708.1255">Upload Question</text></g><!--MD5=[552df53a300250cb74ba74e1b6b2f77a]
link u to createQ--><g id="link_u_createQ"><path d="M43.43,295.3 C54.01,249.17 77.51,172.75 124,124.5 C131.32,116.9 140.61,110.79 150.15,105.93 " fill="none" id="u-to-createQ" style="stroke:#181818;stroke-width:1.0;"/><polygon fill="#181818" points="154.85,103.65,145.0068,103.9841,150.3525,105.8345,148.502,111.1802,154.85,103.65" style="stroke:#181818;stroke-width:1.0;"/></g><!--MD5=[25615b5745cecf2bc1b722369d5f1ad9]
link u to importQ--><g id="link_u_importQ"><path d="M49.57,302.42 C64.09,271.36 89.74,224.66 124,194.5 C132.37,187.13 142.55,181.03 152.7,176.09 " fill="none" id="u-to-importQ" style="stroke:#181818;stroke-width:1.0;"/><polygon fill="#181818" points="157.35,173.9,147.5036,174.1204,152.8275,176.0324,150.9155,181.3564,157.35,173.9" style="stroke:#181818;stroke-width:1.0;"/></g><!--MD5=[63cca5e51a9125a4c1e7f1ba3f54292e]
link u to updateQ--><g id="link_u_updateQ"><path d="M49.56,322.01 C66.22,307.08 95.76,281.93 124,264.5 C134.43,258.06 146.25,252.04 157.38,246.88 " fill="none" id="u-to-updateQ" style="stroke:#181818;stroke-width:1.0;"/><polygon fill="#181818" points="162.1,244.71,152.2517,244.8183,157.5536,246.7908,155.581,252.0926,162.1,244.71" style="stroke:#181818;stroke-width:1.0;"/></g><!--MD5=[87a39ed4a06db4e0d9f55ac4a0a93dea]
link u to deleteQ--><g id="link_u_deleteQ"><path d="M49.66,331.58 C69.33,327.37 106.85,319.33 139.43,312.36 " fill="none" id="u-to-deleteQ" style="stroke:#181818;stroke-width:1.0;"/><polygon fill="#181818" points="144.61,311.25,134.9733,309.2169,139.7202,312.2937,136.6433,317.0406,144.61,311.25" style="stroke:#181818;stroke-width:1.0;"/></g><!--MD5=[8abbcc36e35f35ff4aba0e27ab296b66]
link u to login--><g id="link_u_login"><path d="M38.28,295.14 C43.7,235.92 62.04,123.51 124,54.5 C134.3,43.03 149.31,35.37 163.23,30.34 " fill="none" id="u-to-login" style="stroke:#181818;stroke-width:1.0;"/><polygon fill="#181818" points="168.3,28.61,158.4903,27.7322,163.5681,30.2254,161.075,35.3032,168.3,28.61" style="stroke:#181818;stroke-width:1.0;"/></g><!--MD5=[f4bf7bf2d0193f4f8e03258e8a3a6106]
link u to composeT--><g id="link_u_composeT"><path d="M49.66,337.34 C69.77,341.52 108.53,349.58 141.59,356.46 " fill="none" id="u-to-composeT" style="stroke:#181818;stroke-width:1.0;"/><polygon fill="#181818" points="146.84,357.55,138.8376,351.8087,141.9438,356.5365,137.216,359.6427,146.84,357.55" style="stroke:#181818;stroke-width:1.0;"/></g><!--MD5=[957d61b2cf1041b4c49ddfd8285c6c85]
link u to editT--><g id="link_u_editT"><path d="M49.56,346.7 C66.22,361.27 95.76,385.77 124,402.5 C136.06,409.65 149.95,416.16 162.5,421.47 " fill="none" id="u-to-editT" style="stroke:#181818;stroke-width:1.0;"/><polygon fill="#181818" points="167.42,423.52,160.6586,416.3587,162.8067,421.5919,157.5736,423.74,167.42,423.52" style="stroke:#181818;stroke-width:1.0;"/></g><!--MD5=[6a1137c64132b25892fbdd8927ae1e08]
link u to deleteT--><g id="link_u_deleteT"><path d="M49.62,365.06 C64.26,394.9 90.07,439.87 124,468.5 C133.18,476.25 144.47,482.47 155.49,487.32 " fill="none" id="u-to-deleteT" style="stroke:#181818;stroke-width:1.0;"/><polygon fill="#181818" points="160.19,489.32,153.4744,482.1158,155.5891,487.3625,150.3424,489.4772,160.19,489.32" style="stroke:#181818;stroke-width:1.0;"/></g><!--MD5=[d0f4f2707339bb94efa9e57aafc65d72]
link u to playT--><g id="link_u_playT"><path d="M44.15,373.59 C55.22,417.85 79.02,489.62 124,534.5 C132.86,543.34 144.49,549.99 155.95,554.92 " fill="none" id="u-to-playT" style="stroke:#181818;stroke-width:1.0;"/><polygon fill="#181818" points="160.84,556.93,154.0332,549.8119,156.2145,555.0313,150.9952,557.2127,160.84,556.93" style="stroke:#181818;stroke-width:1.0;"/></g><!--MD5=[9b4c92bb50de80dbec9f1357e776cedf]
link u to editC--><g id="link_u_editC"><path d="M39.16,373.72 C45.69,430.38 65.38,535.47 124,600.5 C131.26,608.56 140.8,614.82 150.64,619.64 " fill="none" id="u-to-editC" style="stroke:#181818;stroke-width:1.0;"/><polygon fill="#181818" points="155.18,621.76,148.7172,614.3282,150.6494,619.6448,145.3328,621.5771,155.18,621.76" style="stroke:#181818;stroke-width:1.0;"/></g><!--MD5=[69404b0b883351d962bbbb068fe1885e]
@startuml useCases_app
left to right direction
actor User as u
actor Editor as e
actor Reviewer as r
usecase "Login" as login
usecase "Create Question" as createQ
usecase "Import Question" as importQ
usecase "Update Question" as updateQ
usecase "Delete Question" as deleteQ

usecase "Compose Test" as composeT
usecase "Edit Test" as editT
usecase "Delete Test" as deleteT
usecase "Play Test" as playT

usecase "Edit Category" as editC
usecase "Upload Question" as uploadQ


u - -> createQ
u - -> importQ
u - -> updateQ
u - -> deleteQ

u - -> login
u - -> composeT
u - -> editT
u - -> deleteT
u - -> playT

u - -> editC



@enduml

PlantUML version 1.2022.7(Mon Aug 22 18:01:30 WEST 2022)
(GPL source distribution)
Java Runtime: OpenJDK Runtime Environment
JVM: OpenJDK 64-Bit Server VM
Default Encoding: Cp1252
Language: es
Country: ES
--></g></svg>