<?xml version="1.0" encoding="UTF-8" standalone="no"?><svg xmlns="http://www.w3.org/2000/svg" xmlns:xlink="http://www.w3.org/1999/xlink" contentStyleType="text/css" height="618px" preserveAspectRatio="none" style="width:699px;height:618px;background:#FFFFFF;" version="1.1" viewBox="0 0 699 618" width="699px" zoomAndPan="magnify"><defs/><g><!--MD5=[fee662a292a0353a69bd162820bae93b]
entity User--><g id="elem_User"><ellipse cx="413.5" cy="433" fill="#F1F1F1" rx="8" ry="8" style="stroke:#181818;stroke-width:0.5;"/><path d="M413.5,441 L413.5,468 M400.5,449 L426.5,449 M413.5,468 L400.5,483 M413.5,468 L426.5,483 " fill="none" style="stroke:#181818;stroke-width:0.5;"/><text fill="#000000" font-family="sans-serif" font-size="14" lengthAdjust="spacing" textLength="29" x="399" y="499.0332">User</text></g><!--MD5=[2c65dbceb6f8e708b4a833ee0e24817e]
entity Editor--><g id="elem_Editor"><ellipse cx="200.5" cy="203" fill="#F1F1F1" rx="8" ry="8" style="stroke:#181818;stroke-width:0.5;"/><path d="M200.5,211 L200.5,238 M187.5,219 L213.5,219 M200.5,238 L187.5,253 M200.5,238 L213.5,253 " fill="none" style="stroke:#181818;stroke-width:0.5;"/><text fill="#000000" font-family="sans-serif" font-size="14" lengthAdjust="spacing" textLength="37" x="182" y="269.0332">Editor</text></g><!--MD5=[b09503c001490bdaf25988c5c0400a0b]
entity Reviewer--><g id="elem_Reviewer"><ellipse cx="35" cy="249" fill="#F1F1F1" rx="8" ry="8" style="stroke:#181818;stroke-width:0.5;"/><path d="M35,257 L35,284 M22,265 L48,265 M35,284 L22,299 M35,284 L48,299 " fill="none" style="stroke:#181818;stroke-width:0.5;"/><text fill="#000000" font-family="sans-serif" font-size="14" lengthAdjust="spacing" textLength="58" x="6" y="315.0332">Reviewer</text></g><g id="elem_login"><ellipse cx="621.734" cy="330.4517" fill="#F1F1F1" rx="36.234" ry="15.4517" style="stroke:#181818;stroke-width:0.5;"/><text fill="#000000" font-family="sans-serif" font-size="14" lengthAdjust="spacing" textLength="35" x="604.234" y="334.1802">Login</text></g><g id="elem_register"><ellipse cx="621.5928" cy="396.4872" fill="#F1F1F1" rx="49.0928" ry="15.4872" style="stroke:#181818;stroke-width:0.5;"/><text fill="#000000" font-family="sans-serif" font-size="14" lengthAdjust="spacing" textLength="53" x="592.6382" y="400.8807">Register</text></g><g id="elem_createQ"><ellipse cx="413.4763" cy="23.5953" fill="#F1F1F1" rx="75.9763" ry="17.5953" style="stroke:#181818;stroke-width:0.5;"/><text fill="#000000" font-family="sans-serif" font-size="14" lengthAdjust="spacing" textLength="104" x="358.5467" y="28.0957">Create Question</text></g><g id="elem_importQ"><ellipse cx="413.481" cy="93.2962" fill="#F1F1F1" rx="74.481" ry="17.2962" style="stroke:#181818;stroke-width:0.5;"/><text fill="#000000" font-family="sans-serif" font-size="14" lengthAdjust="spacing" textLength="100" x="360.481" y="97.8128">Import Question</text></g><g id="elem_updateQ"><ellipse cx="413.7363" cy="163.7473" fill="#F1F1F1" rx="76.7363" ry="17.7473" style="stroke:#181818;stroke-width:0.5;"/><text fill="#000000" font-family="sans-serif" font-size="14" lengthAdjust="spacing" textLength="106" x="358.2006" y="168.1555">Update Question</text></g><g id="elem_deleteQ"><ellipse cx="413.7256" cy="233.4451" fill="#F1F1F1" rx="75.2256" ry="17.4451" style="stroke:#181818;stroke-width:0.5;"/><text fill="#000000" font-family="sans-serif" font-size="14" lengthAdjust="spacing" textLength="102" x="359.7256" y="237.9617">Delete Question</text></g><g id="elem_composeT"><ellipse cx="621.5677" cy="463.7135" fill="#F1F1F1" rx="71.5677" ry="16.7135" style="stroke:#181818;stroke-width:0.5;"/><text fill="#000000" font-family="sans-serif" font-size="14" lengthAdjust="spacing" textLength="92" x="572.5677" y="468.2301">Compose Test</text></g><g id="elem_editT"><ellipse cx="621.3032" cy="530.5087" fill="#F1F1F1" rx="51.3032" ry="15.5087" style="stroke:#181818;stroke-width:0.5;"/><text fill="#000000" font-family="sans-serif" font-size="14" lengthAdjust="spacing" textLength="56" x="590.3032" y="535.0253">Edit Test</text></g><g id="elem_deleteT"><ellipse cx="621.3631" cy="596.609" fill="#F1F1F1" rx="63.8631" ry="15.609" style="stroke:#181818;stroke-width:0.5;"/><text fill="#000000" font-family="sans-serif" font-size="14" lengthAdjust="spacing" textLength="73" x="581.8631" y="601.1256">Delete Test</text></g><g id="elem_playT"><ellipse cx="413.5193" cy="553.5298" fill="#F1F1F1" rx="53.5193" ry="15.5298" style="stroke:#181818;stroke-width:0.5;"/><text fill="#000000" font-family="sans-serif" font-size="14" lengthAdjust="spacing" textLength="59" x="381.0193" y="558.0464">Play Test</text></g><g id="elem_editC"><ellipse cx="413.457" cy="302.2914" fill="#F1F1F1" rx="69.457" ry="16.2914" style="stroke:#181818;stroke-width:0.5;"/><text fill="#000000" font-family="sans-serif" font-size="14" lengthAdjust="spacing" textLength="86" x="367.457" y="306.808">Edit Category</text></g><g id="elem_uploadQ"><ellipse cx="413.355" cy="371.671" fill="#F1F1F1" rx="76.355" ry="17.671" style="stroke:#181818;stroke-width:0.5;"/><text fill="#000000" font-family="sans-serif" font-size="14" lengthAdjust="spacing" textLength="105" x="358.1233" y="376.1255">Upload Question</text></g><g id="elem_review"><ellipse cx="200.7363" cy="325.7473" fill="#F1F1F1" rx="76.7363" ry="17.7473" style="stroke:#181818;stroke-width:0.5;"/><text fill="#000000" font-family="sans-serif" font-size="14" lengthAdjust="spacing" textLength="106" x="145.2006" y="330.1555">Review Question</text></g><!--MD5=[77b6810f9f1d8e17e1346401c10c77dc]
entity Executor--><g id="elem_Executor"><ellipse cx="200.5" cy="478" fill="#F1F1F1" rx="8" ry="8" style="stroke:#181818;stroke-width:0.5;"/><path d="M200.5,486 L200.5,513 M187.5,494 L213.5,494 M200.5,513 L187.5,528 M200.5,513 L213.5,528 " fill="none" style="stroke:#181818;stroke-width:0.5;"/><text fill="#000000" font-family="sans-serif" font-size="14" lengthAdjust="spacing" textLength="55" x="173" y="544.0332">Executor</text></g><!--MD5=[f7383e4cdc50b73a3a26567783bb3d45]
link Editor to User--><g id="link_Editor_User"><path d="M219.18,243.64 C235.74,253.82 260.37,270.79 277,290.5 C314.43,334.87 299.57,362.13 337,406.5 C349.66,421.51 366.96,434.93 381.8,444.97 " fill="none" id="Editor-to-User" style="stroke:#181818;stroke-width:1.0;"/><polygon fill="none" points="385.64,439.11,398.76,455.75,378.12,450.93,385.64,439.11" style="stroke:#181818;stroke-width:1.0;"/></g><!--MD5=[f74b4e3ba99d1f3f5800955a8b8fef81]
link Reviewer to Editor--><g id="link_Reviewer_Editor"><path d="M64.11,271.59 C91.29,263.94 132.64,252.31 162.49,243.91 " fill="none" id="Reviewer-to-Editor" style="stroke:#181818;stroke-width:1.0;"/><polygon fill="none" points="160.68,237.15,181.83,238.47,164.47,250.63,160.68,237.15" style="stroke:#181818;stroke-width:1.0;"/></g><!--MD5=[c4ba78a7e4ac5cb98d4cdf14b6befc04]
link Executor to User--><g id="link_Executor_User"><path d="M228.22,502.8 C266.67,494.6 337.56,479.48 379.32,470.58 " fill="none" id="Executor-to-User" style="stroke:#181818;stroke-width:1.0;"/><polygon fill="none" points="377.87,463.73,398.89,466.4,380.79,477.42,377.87,463.73" style="stroke:#181818;stroke-width:1.0;"/></g><!--MD5=[03342a11f01a1be580e4b5f6ff49d43f]
link Editor to createQ--><g id="link_Editor_createQ"><path d="M219,202.65 C241.92,164.53 285.32,99.7 337,58.5 C345.92,51.39 356.51,45.34 366.9,40.37 " fill="none" id="Editor-to-createQ" style="stroke:#181818;stroke-width:1.0;"/><polygon fill="#181818" points="371.65,38.16,361.8022,38.3056,367.1115,40.258,365.159,45.5672,371.65,38.16" style="stroke:#181818;stroke-width:1.0;"/></g><!--MD5=[0b6e035e7116fccf5b99561d1b2bc178]
link Editor to importQ--><g id="link_Editor_importQ"><path d="M219.39,217.5 C244.45,195.6 292,155.88 337,128.5 C347.58,122.06 359.55,116.01 370.78,110.8 " fill="none" id="Editor-to-importQ" style="stroke:#181818;stroke-width:1.0;"/><polygon fill="#181818" points="375.54,108.63,365.6915,108.7128,370.9882,110.699,369.0019,115.9957,375.54,108.63" style="stroke:#181818;stroke-width:1.0;"/></g><!--MD5=[c0af9a82889b151b806d63485d71e5da]
link Editor to updateQ--><g id="link_Editor_updateQ"><path d="M219.13,227.65 C250.76,217.16 318.17,194.8 364.41,179.45 " fill="none" id="Editor-to-updateQ" style="stroke:#181818;stroke-width:1.0;"/><polygon fill="#181818" points="369.38,177.81,359.5787,176.8436,364.6337,179.3826,362.0948,184.4376,369.38,177.81" style="stroke:#181818;stroke-width:1.0;"/></g><!--MD5=[48f36a504ffd22a201edd904587fb7f6]
link Editor to deleteQ--><g id="link_Editor_deleteQ"><path d="M219.13,233.5 C244.16,233.5 291.59,233.5 333.22,233.5 " fill="none" id="Editor-to-deleteQ" style="stroke:#181818;stroke-width:1.0;"/><polygon fill="#181818" points="338.26,233.5,329.26,229.5,333.26,233.5,329.26,237.5,338.26,233.5" style="stroke:#181818;stroke-width:1.0;"/></g><!--MD5=[23d212f61101a9533fd91d2bd9ad103d]
link Editor to uploadQ--><g id="link_Editor_uploadQ"><path d="M219.22,246.82 C234.54,258.35 257.26,275.48 277,290.5 C303.74,310.85 308.25,319.11 337,336.5 C347.49,342.85 359.33,348.83 370.46,354 " fill="none" id="Editor-to-uploadQ" style="stroke:#181818;stroke-width:1.0;"/><polygon fill="#181818" points="375.18,356.16,368.6506,348.7866,370.6306,354.0856,365.3316,356.0656,375.18,356.16" style="stroke:#181818;stroke-width:1.0;"/></g><!--MD5=[bc81ebb8a732e08f29a60712843ac489]
link User to login--><g id="link_User_login"><path d="M428.35,453.04 C460.28,428.95 537.31,371.05 550,363.5 C562.72,355.93 577.47,348.8 590.17,343.11 " fill="none" id="User-to-login" style="stroke:#181818;stroke-width:1.0;"/><polygon fill="#181818" points="594.75,341.08,584.9011,341.0743,590.1798,343.108,588.146,348.3867,594.75,341.08" style="stroke:#181818;stroke-width:1.0;"/></g><!--MD5=[5a8f97d88e2c39c1c4aefadaa2f4f750]
link User to register--><g id="link_User_register"><path d="M428.02,459.1 C458.76,449.1 534.88,424.35 581.66,409.13 " fill="none" id="User-to-register" style="stroke:#181818;stroke-width:1.0;"/><polygon fill="#181818" points="586.66,407.51,576.865,406.4817,581.9039,409.0525,579.333,414.0914,586.66,407.51" style="stroke:#181818;stroke-width:1.0;"/></g><!--MD5=[4a96660804186057d17d369ab5fb1706]
link User to composeT--><g id="link_User_composeT"><path d="M428.02,463.5 C451.5,463.5 501.45,463.5 544.58,463.5 " fill="none" id="User-to-composeT" style="stroke:#181818;stroke-width:1.0;"/><polygon fill="#181818" points="549.8,463.5,540.8,459.5,544.8,463.5,540.8,467.5,549.8,463.5" style="stroke:#181818;stroke-width:1.0;"/></g><!--MD5=[66cd03acb3e892a18a1da8b8ce71380d]
link User to editT--><g id="link_User_editT"><path d="M428.02,467.9 C458.59,477.84 534.03,502.38 580.87,517.61 " fill="none" id="User-to-editT" style="stroke:#181818;stroke-width:1.0;"/><polygon fill="#181818" points="585.88,519.24,578.553,512.6586,581.1239,517.6975,576.085,520.2683,585.88,519.24" style="stroke:#181818;stroke-width:1.0;"/></g><!--MD5=[73869944817025ead8e85f23e44a5749]
link User to deleteT--><g id="link_User_deleteT"><path d="M428.35,473.96 C460.28,498.05 537.31,555.95 550,563.5 C560.67,569.85 572.76,575.89 583.88,581.03 " fill="none" id="User-to-deleteT" style="stroke:#181818;stroke-width:1.0;"/><polygon fill="#181818" points="588.58,583.17,582.0698,575.7796,584.036,581.0838,578.7319,583.05,588.58,583.17" style="stroke:#181818;stroke-width:1.0;"/></g><!--MD5=[d4b245d548b51b74a5c6221d9f8c12e2]
link Executor to playT--><g id="link_Executor_playT"><path d="M228.22,514.2 C262.54,521.52 322.68,534.34 364.9,543.35 " fill="none" id="Executor-to-playT" style="stroke:#181818;stroke-width:1.0;"/><polygon fill="#181818" points="369.96,544.43,361.9898,538.6441,365.0695,543.3892,360.3245,546.4689,369.96,544.43" style="stroke:#181818;stroke-width:1.0;"/></g><!--MD5=[8ec74245ec816936ff870b4bcf9a5df3]
link Editor to editC--><g id="link_Editor_editC"><path d="M219.13,239.26 C251.33,249.8 320.62,272.45 366.9,287.59 " fill="none" id="Editor-to-editC" style="stroke:#181818;stroke-width:1.0;"/><polygon fill="#181818" points="371.87,289.21,364.5668,282.6022,367.1195,287.6503,362.0713,290.203,371.87,289.21" style="stroke:#181818;stroke-width:1.0;"/></g><!--MD5=[3b6b27e306af536505313a17e5e34279]
link Reviewer to review--><g id="link_Reviewer_review"><path d="M64.11,287.41 C86.71,293.77 119.12,302.88 146.56,310.6 " fill="none" id="Reviewer-to-review" style="stroke:#181818;stroke-width:1.0;"/><polygon fill="#181818" points="151.62,312.03,144.0429,305.7381,146.8076,310.6734,141.8723,313.438,151.62,312.03" style="stroke:#181818;stroke-width:1.0;"/></g><!--MD5=[6f37b496a0c5222dc43b5d8e446fb2bb]
@startuml useCases_app
left to right direction
actor User
actor Editor
actor Reviewer
usecase "Login" as login
usecase "Register" as register
usecase "Create Question" as createQ
usecase "Import Question" as importQ
usecase "Update Question" as updateQ
usecase "Delete Question" as deleteQ

usecase "Compose Test" as composeT
usecase "Edit Test" as editT
usecase "Delete Test" as deleteT
usecase "Play Test" as playT

usecase "Edit Category" as editC
usecase "Upload Question" as uploadQ

usecase "Review Question" as review

Editor - -|> User
Reviewer - -|> Editor
Executor - -|> User

Editor - -> createQ
Editor - -> importQ
Editor - -> updateQ
Editor - -> deleteQ
Editor - -> uploadQ

User - -> login
User - -> register
User - -> composeT
User - -> editT
User - -> deleteT
Executor - -> playT

Editor - -> editC

Reviewer - -> review



@enduml

PlantUML version 1.2022.7(Mon Aug 22 18:01:30 WEST 2022)
(GPL source distribution)
Java Runtime: OpenJDK Runtime Environment
JVM: OpenJDK 64-Bit Server VM
Default Encoding: Cp1252
Language: es
Country: ES
--></g></svg>