<?xml version="1.0" encoding="UTF-8" standalone="no"?><svg xmlns="http://www.w3.org/2000/svg" xmlns:xlink="http://www.w3.org/1999/xlink" contentStyleType="text/css" height="591px" preserveAspectRatio="none" style="width:741px;height:591px;background:#FFFFFF;" version="1.1" viewBox="0 0 741 591" width="741px" zoomAndPan="magnify"><defs/><g><!--MD5=[fee662a292a0353a69bd162820bae93b]
entity User--><g id="elem_User"><ellipse cx="435.5" cy="438" fill="#F1F1F1" rx="8" ry="8" style="stroke:#181818;stroke-width:0.5;"/><path d="M435.5,446 L435.5,473 M422.5,454 L448.5,454 M435.5,473 L422.5,488 M435.5,473 L448.5,488 " fill="none" style="stroke:#181818;stroke-width:0.5;"/><text fill="#000000" font-family="sans-serif" font-size="14" lengthAdjust="spacing" textLength="29" x="421" y="504.0332">User</text></g><!--MD5=[2c65dbceb6f8e708b4a833ee0e24817e]
entity Editor--><g id="elem_Editor"><ellipse cx="200.5" cy="199" fill="#F1F1F1" rx="8" ry="8" style="stroke:#181818;stroke-width:0.5;"/><path d="M200.5,207 L200.5,234 M187.5,215 L213.5,215 M200.5,234 L187.5,249 M200.5,234 L213.5,249 " fill="none" style="stroke:#181818;stroke-width:0.5;"/><text fill="#000000" font-family="sans-serif" font-size="14" lengthAdjust="spacing" textLength="37" x="182" y="265.0332">Editor</text></g><!--MD5=[b09503c001490bdaf25988c5c0400a0b]
entity Reviewer--><g id="elem_Reviewer"><ellipse cx="35" cy="245" fill="#F1F1F1" rx="8" ry="8" style="stroke:#181818;stroke-width:0.5;"/><path d="M35,253 L35,280 M22,261 L48,261 M35,280 L22,295 M35,280 L48,295 " fill="none" style="stroke:#181818;stroke-width:0.5;"/><text fill="#000000" font-family="sans-serif" font-size="14" lengthAdjust="spacing" textLength="58" x="6" y="311.0332">Reviewer</text></g><g id="elem_login"><ellipse cx="665.234" cy="369.4517" fill="#F1F1F1" rx="36.234" ry="15.4517" style="stroke:#181818;stroke-width:0.5;"/><text fill="#000000" font-family="sans-serif" font-size="14" lengthAdjust="spacing" textLength="35" x="647.734" y="373.1802">Login</text></g><g id="elem_register"><ellipse cx="665.0928" cy="435.4872" fill="#F1F1F1" rx="49.0928" ry="15.4872" style="stroke:#181818;stroke-width:0.5;"/><text fill="#000000" font-family="sans-serif" font-size="14" lengthAdjust="spacing" textLength="53" x="636.1382" y="439.8807">Register</text></g><g id="elem_createQ"><ellipse cx="435.4763" cy="23.5953" fill="#F1F1F1" rx="75.9763" ry="17.5953" style="stroke:#181818;stroke-width:0.5;"/><text fill="#000000" font-family="sans-serif" font-size="14" lengthAdjust="spacing" textLength="104" x="380.5467" y="28.0957">Create Question</text></g><g id="elem_importQ"><ellipse cx="435.481" cy="93.2962" fill="#F1F1F1" rx="74.481" ry="17.2962" style="stroke:#181818;stroke-width:0.5;"/><text fill="#000000" font-family="sans-serif" font-size="14" lengthAdjust="spacing" textLength="100" x="382.481" y="97.8128">Import Question</text></g><g id="elem_addAnswerQ"><ellipse cx="435.341" cy="161.6182" fill="#F1F1F1" rx="65.341" ry="15.6182" style="stroke:#181818;stroke-width:0.5;"/><text fill="#000000" font-family="sans-serif" font-size="14" lengthAdjust="spacing" textLength="75" x="394.841" y="166.1348">Add Answer</text></g><g id="elem_deleteQ"><ellipse cx="435.7256" cy="229.4451" fill="#F1F1F1" rx="75.2256" ry="17.4451" style="stroke:#181818;stroke-width:0.5;"/><text fill="#000000" font-family="sans-serif" font-size="14" lengthAdjust="spacing" textLength="102" x="381.7256" y="233.9617">Delete Question</text></g><g id="elem_assignT"><ellipse cx="665.102" cy="501.6136" fill="#F1F1F1" rx="64.602" ry="15.6136" style="stroke:#181818;stroke-width:0.5;"/><text fill="#000000" font-family="sans-serif" font-size="14" lengthAdjust="spacing" textLength="74" x="625.102" y="506.1302">Assign Test</text></g><g id="elem_unassignT"><ellipse cx="664.8567" cy="568.5713" fill="#F1F1F1" rx="70.8567" ry="16.5713" style="stroke:#181818;stroke-width:0.5;"/><text fill="#000000" font-family="sans-serif" font-size="14" lengthAdjust="spacing" textLength="90" x="616.8567" y="573.0879">Unassign Test</text></g><g id="elem_execT"><ellipse cx="435.5887" cy="558.5177" fill="#F1F1F1" rx="68.0887" ry="16.0177" style="stroke:#181818;stroke-width:0.5;"/><text fill="#000000" font-family="sans-serif" font-size="14" lengthAdjust="spacing" textLength="82" x="391.5887" y="563.0343">Execute Test</text></g><g id="elem_editC"><ellipse cx="435.457" cy="298.2914" fill="#F1F1F1" rx="69.457" ry="16.2914" style="stroke:#181818;stroke-width:0.5;"/><text fill="#000000" font-family="sans-serif" font-size="14" lengthAdjust="spacing" textLength="86" x="389.457" y="302.808">Edit Category</text></g><g id="elem_markQ"><ellipse cx="435.7239" cy="372.6448" fill="#F1F1F1" rx="98.7239" ry="22.1448" style="stroke:#181818;stroke-width:0.5;"/><text fill="#000000" font-family="sans-serif" font-size="14" lengthAdjust="spacing" textLength="158" x="356.7239" y="376.3733">Mark ToReview Question</text></g><g id="elem_review"><ellipse cx="200.7363" cy="321.7473" fill="#F1F1F1" rx="76.7363" ry="17.7473" style="stroke:#181818;stroke-width:0.5;"/><text fill="#000000" font-family="sans-serif" font-size="14" lengthAdjust="spacing" textLength="106" x="145.2006" y="326.1555">Review Question</text></g><!--MD5=[77b6810f9f1d8e17e1346401c10c77dc]
entity Executor--><g id="elem_Executor"><ellipse cx="200.5" cy="483" fill="#F1F1F1" rx="8" ry="8" style="stroke:#181818;stroke-width:0.5;"/><path d="M200.5,491 L200.5,518 M187.5,499 L213.5,499 M200.5,518 L187.5,533 M200.5,518 L213.5,533 " fill="none" style="stroke:#181818;stroke-width:0.5;"/><text fill="#000000" font-family="sans-serif" font-size="14" lengthAdjust="spacing" textLength="55" x="173" y="549.0332">Executor</text></g><!--MD5=[f7383e4cdc50b73a3a26567783bb3d45]
link Editor to User--><g id="link_Editor_User"><path d="M219.31,239.53 C235.97,249.63 260.67,266.54 277,286.5 C316.03,334.19 295.24,366.19 337,411.5 C355.04,431.08 381.38,445.92 402.13,455.55 " fill="none" id="Editor-to-User" style="stroke:#181818;stroke-width:1.0;"/><polygon fill="none" points="405.19,449.25,420.83,463.54,399.69,462.12,405.19,449.25" style="stroke:#181818;stroke-width:1.0;"/></g><!--MD5=[f74b4e3ba99d1f3f5800955a8b8fef81]
link Reviewer to Editor--><g id="link_Reviewer_Editor"><path d="M64.11,267.59 C91.29,259.94 132.64,248.31 162.49,239.91 " fill="none" id="Reviewer-to-Editor" style="stroke:#181818;stroke-width:1.0;"/><polygon fill="none" points="160.68,233.15,181.83,234.47,164.47,246.63,160.68,233.15" style="stroke:#181818;stroke-width:1.0;"/></g><!--MD5=[c4ba78a7e4ac5cb98d4cdf14b6befc04]
link Executor to User--><g id="link_Executor_User"><path d="M228.23,508.34 C270.97,500.08 354.61,483.93 401.18,474.94 " fill="none" id="Executor-to-User" style="stroke:#181818;stroke-width:1.0;"/><polygon fill="none" points="400.01,468.03,420.98,471.11,402.67,481.78,400.01,468.03" style="stroke:#181818;stroke-width:1.0;"/></g><!--MD5=[03342a11f01a1be580e4b5f6ff49d43f]
link Editor to createQ--><g id="link_Editor_createQ"><path d="M219.19,197.62 C241.85,159.51 284.54,96.16 337,58.5 C349.21,49.74 363.83,42.96 378,37.82 " fill="none" id="Editor-to-createQ" style="stroke:#181818;stroke-width:1.0;"/><polygon fill="#181818" points="382.78,36.13,372.9636,35.3317,378.0614,37.7837,375.6094,42.8815,382.78,36.13" style="stroke:#181818;stroke-width:1.0;"/></g><!--MD5=[0b6e035e7116fccf5b99561d1b2bc178]
link Editor to importQ--><g id="link_Editor_importQ"><path d="M219.17,213.6 C243.98,191.94 291.24,153.06 337,128.5 C351.24,120.86 367.49,114.27 382.59,108.94 " fill="none" id="Editor-to-importQ" style="stroke:#181818;stroke-width:1.0;"/><polygon fill="#181818" points="387.66,107.18,377.8457,106.3552,382.9369,108.8209,380.4712,113.9121,387.66,107.18" style="stroke:#181818;stroke-width:1.0;"/></g><!--MD5=[ab019124e6a336b4fb8d4ab1553cd354]
link Editor to addAnswerQ--><g id="link_Editor_addAnswerQ"><path d="M219.01,224.39 C254.59,214.01 336.34,190.15 388.3,174.98 " fill="none" id="Editor-to-addAnswerQ" style="stroke:#181818;stroke-width:1.0;"/><polygon fill="#181818" points="393.23,173.55,383.47,172.23,388.43,174.95,385.71,179.91,393.23,173.55" style="stroke:#181818;stroke-width:1.0;"/></g><!--MD5=[48f36a504ffd22a201edd904587fb7f6]
link Editor to deleteQ--><g id="link_Editor_deleteQ"><path d="M219.01,229.5 C247.71,229.5 306.46,229.5 355.38,229.5 " fill="none" id="Editor-to-deleteQ" style="stroke:#181818;stroke-width:1.0;"/><polygon fill="#181818" points="360.38,229.5,351.38,225.5,355.38,229.5,351.38,233.5,360.38,229.5" style="stroke:#181818;stroke-width:1.0;"/></g><!--MD5=[fae657de78808a1036e5dec4eb8f3dbf]
link Editor to markQ--><g id="link_Editor_markQ"><path d="M219.22,242.82 C234.54,254.35 257.26,271.48 277,286.5 C303.74,306.85 307.87,315.75 337,332.5 C349.5,339.69 363.55,346.24 377,351.87 " fill="none" id="Editor-to-markQ" style="stroke:#181818;stroke-width:1.0;"/><polygon fill="#181818" points="381.93,353.9,375.1309,346.7745,377.3066,351.9963,372.0849,354.172,381.93,353.9" style="stroke:#181818;stroke-width:1.0;"/></g><!--MD5=[bc81ebb8a732e08f29a60712843ac489]
link User to login--><g id="link_User_login"><path d="M450.05,462.6 C486.01,446.96 584.48,404.11 634.3,382.43 " fill="none" id="User-to-login" style="stroke:#181818;stroke-width:1.0;"/><polygon fill="#181818" points="638.96,380.4,629.1114,380.3315,634.3769,382.3988,632.3095,387.6644,638.96,380.4" style="stroke:#181818;stroke-width:1.0;"/></g><!--MD5=[5a8f97d88e2c39c1c4aefadaa2f4f750]
link User to register--><g id="link_User_register"><path d="M450.05,466.53 C481.83,461.92 562.48,450.23 615.17,442.58 " fill="none" id="User-to-register" style="stroke:#181818;stroke-width:1.0;"/><polygon fill="#181818" points="620.18,441.86,610.694,439.2112,615.2331,442.5871,611.8573,447.1262,620.18,441.86" style="stroke:#181818;stroke-width:1.0;"/></g><!--MD5=[0ed325916ae53777d26e2e0cf7a25cc4]
link User to assignT--><g id="link_User_assignT"><path d="M450.05,470.47 C479.7,474.77 551.88,485.24 604.22,492.83 " fill="none" id="User-to-assignT" style="stroke:#181818;stroke-width:1.0;"/><polygon fill="#181818" points="609.22,493.55,600.8825,488.3073,604.2711,492.8369,599.7415,496.2255,609.22,493.55" style="stroke:#181818;stroke-width:1.0;"/></g><!--MD5=[728a1a1dfe82c6abce37026bfe8b9c5e]
link User to unassignT--><g id="link_User_unassignT"><path d="M450.05,474.46 C484.13,489.44 574.36,529.1 626.11,551.84 " fill="none" id="User-to-unassignT" style="stroke:#181818;stroke-width:1.0;"/><polygon fill="#181818" points="630.69,553.86,624.0395,546.5956,626.1069,551.8612,620.8414,553.9285,630.69,553.86" style="stroke:#181818;stroke-width:1.0;"/></g><!--MD5=[8c4c45c66c1600b8f4e6ec2946b5541a]
link Executor to execT--><g id="link_Executor_execT"><path d="M228.23,518.66 C264.33,525.63 329.6,538.24 377.08,547.41 " fill="none" id="Executor-to-execT" style="stroke:#181818;stroke-width:1.0;"/><polygon fill="#181818" points="382.2,548.4,374.1149,542.7758,377.2896,547.4579,372.6075,550.6325,382.2,548.4" style="stroke:#181818;stroke-width:1.0;"/></g><!--MD5=[8ec74245ec816936ff870b4bcf9a5df3]
link Editor to editC--><g id="link_Editor_editC"><path d="M219.01,234.69 C254.08,245.07 333.99,268.74 386.03,284.15 " fill="none" id="Editor-to-editC" style="stroke:#181818;stroke-width:1.0;"/><polygon fill="#181818" points="390.98,285.61,383.4775,279.2294,386.1839,284.1969,381.2164,286.9032,390.98,285.61" style="stroke:#181818;stroke-width:1.0;"/></g><!--MD5=[3b6b27e306af536505313a17e5e34279]
link Reviewer to review--><g id="link_Reviewer_review"><path d="M64.11,283.41 C86.71,289.77 119.12,298.88 146.56,306.6 " fill="none" id="Reviewer-to-review" style="stroke:#181818;stroke-width:1.0;"/><polygon fill="#181818" points="151.62,308.03,144.0429,301.7381,146.8076,306.6734,141.8723,309.438,151.62,308.03" style="stroke:#181818;stroke-width:1.0;"/></g><!--MD5=[f2f466fbf6933dbdd93a5e609594495c]
@startuml useCases_app
left to right direction
actor User
actor Editor
actor Reviewer
usecase "Login" as login
usecase "Register" as register
usecase "Create Question" as createQ
usecase "Import Question" as importQ
usecase "Add Answer" as addAnswerQ
usecase "Delete Question" as deleteQ

usecase "Assign Test" as assignT
usecase "Unassign Test" as unassignT
usecase "Execute Test" as execT

usecase "Edit Category" as editC
usecase "Mark ToReview Question" as markQ

usecase "Review Question" as review

Editor - -|> User
Reviewer - -|> Editor
Executor - -|> User

Editor - -> createQ
Editor - -> importQ
Editor - -> addAnswerQ
Editor - -> deleteQ
Editor - -> markQ

User - -> login
User - -> register
User - -> assignT
User - -> unassignT
Executor - -> execT

Editor - -> editC

Reviewer - -> review

@enduml

PlantUML version 1.2022.7(Mon Aug 22 18:01:30 WEST 2022)
(GPL source distribution)
Java Runtime: OpenJDK Runtime Environment
JVM: OpenJDK 64-Bit Server VM
Default Encoding: Cp1252
Language: es
Country: ES
--></g></svg>