<?xml version="1.0" encoding="UTF-8" standalone="no"?><svg xmlns="http://www.w3.org/2000/svg" xmlns:xlink="http://www.w3.org/1999/xlink" contentStyleType="text/css" height="519px" preserveAspectRatio="none" style="width:262px;height:519px;background:#FFFFFF;" version="1.1" viewBox="0 0 262 519" width="262px" zoomAndPan="magnify"><defs/><g><!--MD5=[7d46d6cd919e02e6168a09ad91eae8b4]
entity u--><g id="elem_u"><ellipse cx="24.5" cy="368" fill="#F1F1F1" rx="8" ry="8" style="stroke:#181818;stroke-width:0.5;"/><path d="M24.5,376 L24.5,403 M11.5,384 L37.5,384 M24.5,403 L11.5,418 M24.5,403 L37.5,418 " fill="none" style="stroke:#181818;stroke-width:0.5;"/><text fill="#000000" font-family="sans-serif" font-size="14" lengthAdjust="spacing" textLength="29" x="10" y="434.0332">User</text></g><!--MD5=[e32773a0da76c445e84e5885468a4484]
entity e--><g id="elem_e"><ellipse cx="24.5" cy="94" fill="#F1F1F1" rx="8" ry="8" style="stroke:#181818;stroke-width:0.5;"/><path d="M24.5,102 L24.5,129 M11.5,110 L37.5,110 M24.5,129 L11.5,144 M24.5,129 L37.5,144 " fill="none" style="stroke:#181818;stroke-width:0.5;"/><text fill="#000000" font-family="sans-serif" font-size="14" lengthAdjust="spacing" textLength="37" x="6" y="160.0332">Editor</text></g><g id="elem_login"><ellipse cx="179.734" cy="21.4517" fill="#F1F1F1" rx="36.234" ry="15.4517" style="stroke:#181818;stroke-width:0.5;"/><text fill="#000000" font-family="sans-serif" font-size="14" lengthAdjust="spacing" textLength="35" x="162.234" y="25.1802">Login</text></g><g id="elem_createQ"><ellipse cx="179.4763" cy="89.5953" fill="#F1F1F1" rx="75.9763" ry="17.5953" style="stroke:#181818;stroke-width:0.5;"/><text fill="#000000" font-family="sans-serif" font-size="14" lengthAdjust="spacing" textLength="104" x="124.5467" y="94.0957">Create Question</text></g><g id="elem_updateQ"><ellipse cx="179.7363" cy="159.7473" fill="#F1F1F1" rx="76.7363" ry="17.7473" style="stroke:#181818;stroke-width:0.5;"/><text fill="#000000" font-family="sans-serif" font-size="14" lengthAdjust="spacing" textLength="106" x="124.2006" y="164.1555">Update Question</text></g><g id="elem_deleteQ"><ellipse cx="179.7256" cy="229.4451" fill="#F1F1F1" rx="75.2256" ry="17.4451" style="stroke:#181818;stroke-width:0.5;"/><text fill="#000000" font-family="sans-serif" font-size="14" lengthAdjust="spacing" textLength="102" x="125.7256" y="233.9617">Delete Question</text></g><g id="elem_composeT"><ellipse cx="179.5677" cy="298.7135" fill="#F1F1F1" rx="71.5677" ry="16.7135" style="stroke:#181818;stroke-width:0.5;"/><text fill="#000000" font-family="sans-serif" font-size="14" lengthAdjust="spacing" textLength="92" x="130.5677" y="303.2301">Compose Test</text></g><g id="elem_editT"><ellipse cx="179.3032" cy="365.5087" fill="#F1F1F1" rx="51.3032" ry="15.5087" style="stroke:#181818;stroke-width:0.5;"/><text fill="#000000" font-family="sans-serif" font-size="14" lengthAdjust="spacing" textLength="56" x="148.3032" y="370.0253">Edit Test</text></g><g id="elem_deleteT"><ellipse cx="179.3631" cy="431.609" fill="#F1F1F1" rx="63.8631" ry="15.609" style="stroke:#181818;stroke-width:0.5;"/><text fill="#000000" font-family="sans-serif" font-size="14" lengthAdjust="spacing" textLength="73" x="139.8631" y="436.1256">Delete Test</text></g><g id="elem_playT"><ellipse cx="179.5193" cy="497.5298" fill="#F1F1F1" rx="53.5193" ry="15.5298" style="stroke:#181818;stroke-width:0.5;"/><text fill="#000000" font-family="sans-serif" font-size="14" lengthAdjust="spacing" textLength="59" x="147.0193" y="502.0464">Play Test</text></g><!--MD5=[ee833af6596d5472d43283dd61c7b107]
link e to login--><g id="link_e_login"><path d="M43.21,105.41 C58.08,90.18 80.46,69.06 103,54.5 C116.27,45.93 132.14,38.61 145.9,33.06 " fill="none" id="e-to-login" style="stroke:#181818;stroke-width:1.0;"/><polygon fill="#181818" points="150.87,31.1,141.0296,30.6921,146.2208,32.9397,143.9732,38.1309,150.87,31.1" style="stroke:#181818;stroke-width:1.0;"/></g><!--MD5=[f461c71e7849e35795253723e9e49b8d]
link e to createQ--><g id="link_e_createQ"><path d="M43.05,120.49 C61.75,116.21 92.36,109.21 119.76,102.94 " fill="none" id="e-to-createQ" style="stroke:#181818;stroke-width:1.0;"/><polygon fill="#181818" points="124.83,101.78,115.1647,99.8875,119.9559,102.8949,116.9485,107.6861,124.83,101.78" style="stroke:#181818;stroke-width:1.0;"/></g><!--MD5=[1e3891c10ca147002a7fcad414206848]
link e to updateQ--><g id="link_e_updateQ"><path d="M43.05,128.51 C61.75,132.79 92.36,139.79 119.76,146.06 " fill="none" id="e-to-updateQ" style="stroke:#181818;stroke-width:1.0;"/><polygon fill="#181818" points="124.83,147.22,116.9485,141.3139,119.9559,146.1051,115.1647,149.1125,124.83,147.22" style="stroke:#181818;stroke-width:1.0;"/></g><!--MD5=[fc006c80cfd3f4c14c12f190f11322ff]
link e to deleteQ--><g id="link_e_deleteQ"><path d="M43.29,143.46 C58.21,158.61 80.62,179.7 103,194.5 C113.12,201.19 124.73,207.26 135.76,212.4 " fill="none" id="e-to-deleteQ" style="stroke:#181818;stroke-width:1.0;"/><polygon fill="#181818" points="140.45,214.54,133.9398,207.1496,135.906,212.4538,130.6019,214.42,140.45,214.54" style="stroke:#181818;stroke-width:1.0;"/></g><!--MD5=[f4bf7bf2d0193f4f8e03258e8a3a6106]
link u to composeT--><g id="link_u_composeT"><path d="M39.12,384.8 C53.9,370.45 78.66,347.91 103,332.5 C113.52,325.84 125.57,319.79 136.9,314.71 " fill="none" id="u-to-composeT" style="stroke:#181818;stroke-width:1.0;"/><polygon fill="#181818" points="141.71,312.59,131.8612,312.5585,137.1345,314.6061,135.0869,319.8794,141.71,312.59" style="stroke:#181818;stroke-width:1.0;"/></g><!--MD5=[957d61b2cf1041b4c49ddfd8285c6c85]
link u to editT--><g id="link_u_editT"><path d="M39.08,395.57 C59.77,391.11 100.15,382.4 132.15,375.5 " fill="none" id="u-to-editT" style="stroke:#181818;stroke-width:1.0;"/><polygon fill="#181818" points="137.21,374.41,127.5733,372.3769,132.3202,375.4537,129.2433,380.2006,137.21,374.41" style="stroke:#181818;stroke-width:1.0;"/></g><!--MD5=[6a1137c64132b25892fbdd8927ae1e08]
link u to deleteT--><g id="link_u_deleteT"><path d="M39.08,401.43 C58.52,405.62 95.34,413.56 126.27,420.23 " fill="none" id="u-to-deleteT" style="stroke:#181818;stroke-width:1.0;"/><polygon fill="#181818" points="131.18,421.29,123.2295,415.4771,126.2931,420.2326,121.5376,423.2962,131.18,421.29" style="stroke:#181818;stroke-width:1.0;"/></g><!--MD5=[d0f4f2707339bb94efa9e57aafc65d72]
link u to playT--><g id="link_u_playT"><path d="M39.08,412.26 C53.83,426.65 78.57,449.23 103,464.5 C114.67,471.8 128.24,478.27 140.62,483.51 " fill="none" id="u-to-playT" style="stroke:#181818;stroke-width:1.0;"/><polygon fill="#181818" points="145.48,485.53,138.6998,478.3866,140.8617,483.614,135.6342,485.7759,145.48,485.53" style="stroke:#181818;stroke-width:1.0;"/></g><!--MD5=[2650cafc432b702000ac0c14e44fa97d]
@startuml useCases_app
left to right direction
actor User as u
actor Editor as e
usecase "Login" as login
usecase "Create Question" as createQ
usecase "Update Question" as updateQ
usecase "Delete Question" as deleteQ

usecase "Compose Test" as composeT
usecase "Edit Test" as editT
usecase "Delete Test" as deleteT
usecase "Play Test" as playT

e - -> login
e - -> createQ
e - -> updateQ
e - -> deleteQ

u - -> composeT
u - -> editT
u - -> deleteT
u - -> playT




@enduml

PlantUML version 1.2022.7(Mon Aug 22 18:01:30 WEST 2022)
(GPL source distribution)
Java Runtime: OpenJDK Runtime Environment
JVM: OpenJDK 64-Bit Server VM
Default Encoding: Cp1252
Language: es
Country: ES
--></g></svg>