<?xml version="1.0" encoding="UTF-8" standalone="no"?><svg xmlns="http://www.w3.org/2000/svg" xmlns:xlink="http://www.w3.org/1999/xlink" contentStyleType="text/css" height="453px" preserveAspectRatio="none" style="width:254px;height:453px;background:#FFFFFF;" version="1.1" viewBox="0 0 254 453" width="254px" zoomAndPan="magnify"><defs/><g><!--MD5=[7d46d6cd919e02e6168a09ad91eae8b4]
entity u--><g id="elem_u"><ellipse cx="20.5" cy="199" fill="#F1F1F1" rx="8" ry="8" style="stroke:#181818;stroke-width:0.5;"/><path d="M20.5,207 L20.5,234 M7.5,215 L33.5,215 M20.5,234 L7.5,249 M20.5,234 L33.5,249 " fill="none" style="stroke:#181818;stroke-width:0.5;"/><text fill="#000000" font-family="sans-serif" font-size="14" lengthAdjust="spacing" textLength="29" x="6" y="265.0332">User</text></g><g id="elem_login"><ellipse cx="171.734" cy="21.4517" fill="#F1F1F1" rx="36.234" ry="15.4517" style="stroke:#181818;stroke-width:0.5;"/><text fill="#000000" font-family="sans-serif" font-size="14" lengthAdjust="spacing" textLength="35" x="154.234" y="25.1802">Login</text></g><g id="elem_createQ"><ellipse cx="171.4763" cy="89.5953" fill="#F1F1F1" rx="75.9763" ry="17.5953" style="stroke:#181818;stroke-width:0.5;"/><text fill="#000000" font-family="sans-serif" font-size="14" lengthAdjust="spacing" textLength="104" x="116.5467" y="94.0957">Create Question</text></g><g id="elem_updateQ"><ellipse cx="171.7363" cy="159.7473" fill="#F1F1F1" rx="76.7363" ry="17.7473" style="stroke:#181818;stroke-width:0.5;"/><text fill="#000000" font-family="sans-serif" font-size="14" lengthAdjust="spacing" textLength="106" x="116.2006" y="164.1555">Update Question</text></g><g id="elem_deleteQ"><ellipse cx="171.7256" cy="229.4451" fill="#F1F1F1" rx="75.2256" ry="17.4451" style="stroke:#181818;stroke-width:0.5;"/><text fill="#000000" font-family="sans-serif" font-size="14" lengthAdjust="spacing" textLength="102" x="117.7256" y="233.9617">Delete Question</text></g><g id="elem_composeT"><ellipse cx="171.5677" cy="298.7135" fill="#F1F1F1" rx="71.5677" ry="16.7135" style="stroke:#181818;stroke-width:0.5;"/><text fill="#000000" font-family="sans-serif" font-size="14" lengthAdjust="spacing" textLength="92" x="122.5677" y="303.2301">Compose Test</text></g><g id="elem_editT"><ellipse cx="171.3032" cy="365.5087" fill="#F1F1F1" rx="51.3032" ry="15.5087" style="stroke:#181818;stroke-width:0.5;"/><text fill="#000000" font-family="sans-serif" font-size="14" lengthAdjust="spacing" textLength="56" x="140.3032" y="370.0253">Edit Test</text></g><g id="elem_playT"><ellipse cx="171.5193" cy="431.5298" fill="#F1F1F1" rx="53.5193" ry="15.5298" style="stroke:#181818;stroke-width:0.5;"/><text fill="#000000" font-family="sans-serif" font-size="14" lengthAdjust="spacing" textLength="59" x="139.0193" y="436.0464">Play Test</text></g><!--MD5=[8abbcc36e35f35ff4aba0e27ab296b66]
link u to login--><g id="link_u_login"><path d="M29.05,190.33 C38.41,151.39 57.87,92.17 95,54.5 C105.82,43.52 120.91,35.94 134.76,30.84 " fill="none" id="u-to-login" style="stroke:#181818;stroke-width:1.0;"/><polygon fill="#181818" points="139.79,29.07,129.9736,28.2717,135.0714,30.7237,132.6194,35.8215,139.79,29.07" style="stroke:#181818;stroke-width:1.0;"/></g><!--MD5=[552df53a300250cb74ba74e1b6b2f77a]
link u to createQ--><g id="link_u_createQ"><path d="M35.2,202.34 C48.02,179.16 69.07,146.21 95,124.5 C103.65,117.26 114.04,111.18 124.31,106.23 " fill="none" id="u-to-createQ" style="stroke:#181818;stroke-width:1.0;"/><polygon fill="#181818" points="129.01,104.03,119.1626,104.2011,124.4769,106.1397,122.5382,111.454,129.01,104.03" style="stroke:#181818;stroke-width:1.0;"/></g><!--MD5=[63cca5e51a9125a4c1e7f1ba3f54292e]
link u to updateQ--><g id="link_u_updateQ"><path d="M35.03,223.01 C49.76,215.95 74.02,204.36 95,194.5 C107.01,188.86 120.11,182.76 131.98,177.26 " fill="none" id="u-to-updateQ" style="stroke:#181818;stroke-width:1.0;"/><polygon fill="#181818" points="136.64,175.11,126.7922,175.2556,132.1015,177.208,130.149,182.5172,136.64,175.11" style="stroke:#181818;stroke-width:1.0;"/></g><!--MD5=[87a39ed4a06db4e0d9f55ac4a0a93dea]
link u to deleteQ--><g id="link_u_deleteQ"><path d="M35.25,229.5 C48.46,229.5 69.54,229.5 91.17,229.5 " fill="none" id="u-to-deleteQ" style="stroke:#181818;stroke-width:1.0;"/><polygon fill="#181818" points="96.38,229.5,87.38,225.5,91.38,229.5,87.38,233.5,96.38,229.5" style="stroke:#181818;stroke-width:1.0;"/></g><!--MD5=[f4bf7bf2d0193f4f8e03258e8a3a6106]
link u to composeT--><g id="link_u_composeT"><path d="M35.01,236.04 C49.72,243.13 73.97,254.76 95,264.5 C107.32,270.21 120.83,276.33 132.97,281.79 " fill="none" id="u-to-composeT" style="stroke:#181818;stroke-width:1.0;"/><polygon fill="#181818" points="137.73,283.92,131.1536,276.5885,133.1675,281.8747,127.8812,283.8885,137.73,283.92" style="stroke:#181818;stroke-width:1.0;"/></g><!--MD5=[957d61b2cf1041b4c49ddfd8285c6c85]
link u to editT--><g id="link_u_editT"><path d="M35.2,256.27 C48.02,279.1 69.07,311.46 95,332.5 C105.3,340.85 118.04,347.48 130.1,352.54 " fill="none" id="u-to-editT" style="stroke:#181818;stroke-width:1.0;"/><polygon fill="#181818" points="134.86,354.48,128.0267,347.3873,130.2275,352.5985,125.0163,354.7993,134.86,354.48" style="stroke:#181818;stroke-width:1.0;"/></g><!--MD5=[d0f4f2707339bb94efa9e57aafc65d72]
link u to playT--><g id="link_u_playT"><path d="M29.77,268.75 C39.54,306.38 59.17,362.61 95,398.5 C103.84,407.36 115.46,414.02 126.92,418.94 " fill="none" id="u-to-playT" style="stroke:#181818;stroke-width:1.0;"/><polygon fill="#181818" points="131.82,420.95,125.0132,413.8319,127.1945,419.0513,121.9752,421.2327,131.82,420.95" style="stroke:#181818;stroke-width:1.0;"/></g><!--MD5=[a5a69b6c8b8e8798cd7bdf6745be6929]
@startuml
left to right direction
actor User as u
usecase "Login" as login
usecase "Create Question" as createQ
usecase "Update Question" as updateQ
usecase "Delete Question" as deleteQ

usecase "Compose Test" as composeT
usecase "Edit Test" as editT
usecase "Play Test" as playT

u - -> login
u - -> createQ
u - -> updateQ
u - -> deleteQ

u - -> composeT
u - -> editT
u - -> playT


@enduml

PlantUML version 1.2022.7(Mon Aug 22 18:01:30 WEST 2022)
(GPL source distribution)
Java Runtime: OpenJDK Runtime Environment
JVM: OpenJDK 64-Bit Server VM
Default Encoding: Cp1252
Language: es
Country: ES
--></g></svg>