<?xml version="1.0" encoding="UTF-8" standalone="no"?><svg xmlns="http://www.w3.org/2000/svg" xmlns:xlink="http://www.w3.org/1999/xlink" contentStyleType="text/css" height="821px" preserveAspectRatio="none" style="width:759px;height:821px;background:#FFFFFF;" version="1.1" viewBox="0 0 759 821" width="759px" zoomAndPan="magnify"><defs/><g><!--MD5=[fee662a292a0353a69bd162820bae93b]
entity User--><g id="elem_User"><ellipse cx="487.5" cy="374" fill="#F1F1F1" rx="8" ry="8" style="stroke:#181818;stroke-width:0.5;"/><path d="M487.5,382 L487.5,409 M474.5,390 L500.5,390 M487.5,409 L474.5,424 M487.5,409 L500.5,424 " fill="none" style="stroke:#181818;stroke-width:0.5;"/><text fill="#000000" font-family="sans-serif" font-size="14" lengthAdjust="spacing" textLength="29" x="473" y="440.0332">User</text></g><!--MD5=[2c65dbceb6f8e708b4a833ee0e24817e]
entity Editor--><g id="elem_Editor"><ellipse cx="201.5" cy="203" fill="#F1F1F1" rx="8" ry="8" style="stroke:#181818;stroke-width:0.5;"/><path d="M201.5,211 L201.5,238 M188.5,219 L214.5,219 M201.5,238 L188.5,253 M201.5,238 L214.5,253 " fill="none" style="stroke:#181818;stroke-width:0.5;"/><text fill="#000000" font-family="sans-serif" font-size="14" lengthAdjust="spacing" textLength="37" x="183" y="269.0332">Editor</text></g><!--MD5=[b09503c001490bdaf25988c5c0400a0b]
entity Reviewer--><g id="elem_Reviewer"><ellipse cx="35" cy="592" fill="#F1F1F1" rx="8" ry="8" style="stroke:#181818;stroke-width:0.5;"/><path d="M35,600 L35,627 M22,608 L48,608 M35,627 L22,642 M35,627 L48,642 " fill="none" style="stroke:#181818;stroke-width:0.5;"/><text fill="#000000" font-family="sans-serif" font-size="14" lengthAdjust="spacing" textLength="58" x="6" y="658.0332">Reviewer</text></g><g id="elem_login"><ellipse cx="704.234" cy="338.4517" fill="#F1F1F1" rx="36.234" ry="15.4517" style="stroke:#181818;stroke-width:0.5;"/><text fill="#000000" font-family="sans-serif" font-size="14" lengthAdjust="spacing" textLength="35" x="686.734" y="342.1802">Login</text></g><g id="elem_register"><ellipse cx="704.0928" cy="404.4872" fill="#F1F1F1" rx="49.0928" ry="15.4872" style="stroke:#181818;stroke-width:0.5;"/><text fill="#000000" font-family="sans-serif" font-size="14" lengthAdjust="spacing" textLength="53" x="675.1382" y="408.8807">Register</text></g><g id="elem_logout"><ellipse cx="704.0997" cy="470.4523" fill="#F1F1F1" rx="42.5997" ry="15.4523" style="stroke:#181818;stroke-width:0.5;"/><text fill="#000000" font-family="sans-serif" font-size="14" lengthAdjust="spacing" textLength="44" x="681.8355" y="474.2639">Logout</text></g><g id="elem_createConcept"><ellipse cx="487.481" cy="23.2962" fill="#F1F1F1" rx="74.481" ry="17.2962" style="stroke:#181818;stroke-width:0.5;"/><text fill="#000000" font-family="sans-serif" font-size="14" lengthAdjust="spacing" textLength="100" x="434.481" y="27.8128">Create Concept</text></g><g id="elem_selectStrategy"><ellipse cx="487.5109" cy="93.5022" fill="#F1F1F1" rx="73.0109" ry="17.0022" style="stroke:#181818;stroke-width:0.5;"/><text fill="#000000" font-family="sans-serif" font-size="14" lengthAdjust="spacing" textLength="96" x="436.5109" y="98.0188">Select Strategy</text></g><g id="elem_createQ"><ellipse cx="487.4763" cy="163.5953" fill="#F1F1F1" rx="75.9763" ry="17.5953" style="stroke:#181818;stroke-width:0.5;"/><text fill="#000000" font-family="sans-serif" font-size="14" lengthAdjust="spacing" textLength="104" x="432.5467" y="168.0957">Create Question</text></g><g id="elem_deleteQ"><ellipse cx="487.7256" cy="233.4451" fill="#F1F1F1" rx="75.2256" ry="17.4451" style="stroke:#181818;stroke-width:0.5;"/><text fill="#000000" font-family="sans-serif" font-size="14" lengthAdjust="spacing" textLength="102" x="433.7256" y="237.9617">Delete Question</text></g><g id="elem_selectCats"><ellipse cx="487.5785" cy="632.7157" fill="#F1F1F1" rx="79.0785" ry="18.2157" style="stroke:#181818;stroke-width:0.5;"/><text fill="#000000" font-family="sans-serif" font-size="14" lengthAdjust="spacing" textLength="112" x="430.1751" y="636.8395">Select Categories</text></g><g id="elem_selectOps"><ellipse cx="487.5677" cy="495.7135" fill="#F1F1F1" rx="71.5677" ry="16.7135" style="stroke:#181818;stroke-width:0.5;"/><text fill="#000000" font-family="sans-serif" font-size="14" lengthAdjust="spacing" textLength="92" x="438.5677" y="500.2301">Select Options</text></g><g id="elem_execT"><ellipse cx="487.5887" cy="563.5177" fill="#F1F1F1" rx="68.0887" ry="16.0177" style="stroke:#181818;stroke-width:0.5;"/><text fill="#000000" font-family="sans-serif" font-size="14" lengthAdjust="spacing" textLength="82" x="443.5887" y="568.0343">Execute Test</text></g><g id="elem_createCat"><ellipse cx="201.355" cy="587.671" fill="#F1F1F1" rx="76.355" ry="17.671" style="stroke:#181818;stroke-width:0.5;"/><text fill="#000000" font-family="sans-serif" font-size="14" lengthAdjust="spacing" textLength="105" x="146.1233" y="592.1255">Create Category</text></g><g id="elem_editC"><ellipse cx="201.457" cy="656.2914" fill="#F1F1F1" rx="69.457" ry="16.2914" style="stroke:#181818;stroke-width:0.5;"/><text fill="#000000" font-family="sans-serif" font-size="14" lengthAdjust="spacing" textLength="86" x="155.457" y="660.808">Edit Category</text></g><g id="elem_markQ"><ellipse cx="487.7239" cy="308.6448" fill="#F1F1F1" rx="98.7239" ry="22.1448" style="stroke:#181818;stroke-width:0.5;"/><text fill="#000000" font-family="sans-serif" font-size="14" lengthAdjust="spacing" textLength="158" x="408.7239" y="312.3733">Mark ToReview Question</text></g><g id="elem_approveRejectA"><ellipse cx="487.3456" cy="791.6691" fill="#F1F1F1" rx="106.3456" ry="23.6691" style="stroke:#181818;stroke-width:0.5;"/><text fill="#000000" font-family="sans-serif" font-size="14" lengthAdjust="spacing" textLength="175" x="399.8456" y="795.3976">** Approve / reject Question</text></g><g id="elem_reviewQ"><ellipse cx="201.7363" cy="725.7473" fill="#F1F1F1" rx="76.7363" ry="17.7473" style="stroke:#181818;stroke-width:0.5;"/><text fill="#000000" font-family="sans-serif" font-size="14" lengthAdjust="spacing" textLength="106" x="146.2006" y="730.1555">Review Question</text></g><g id="elem_publishQ"><ellipse cx="487.597" cy="714.6194" fill="#F1F1F1" rx="81.097" ry="18.6194" style="stroke:#181818;stroke-width:0.5;"/><text fill="#000000" font-family="sans-serif" font-size="14" lengthAdjust="spacing" textLength="117" x="428.5843" y="718.4982">**Publish Question</text></g><!--MD5=[77b6810f9f1d8e17e1346401c10c77dc]
entity Executor--><g id="elem_Executor"><ellipse cx="201.5" cy="465" fill="#F1F1F1" rx="8" ry="8" style="stroke:#181818;stroke-width:0.5;"/><path d="M201.5,473 L201.5,500 M188.5,481 L214.5,481 M201.5,500 L188.5,515 M201.5,500 L214.5,515 " fill="none" style="stroke:#181818;stroke-width:0.5;"/><text fill="#000000" font-family="sans-serif" font-size="14" lengthAdjust="spacing" textLength="55" x="174" y="531.0332">Executor</text></g><!--MD5=[f7383e4cdc50b73a3a26567783bb3d45]
link Editor to User--><g id="link_Editor_User"><path d="M220.22,245.43 C251.99,266.68 320.95,312.16 381,347.5 C405.35,361.83 433.53,376.98 454.64,388.06 " fill="none" id="Editor-to-User" style="stroke:#181818;stroke-width:1.0;"/><polygon fill="none" points="458.15,382,472.67,397.44,451.69,394.42,458.15,382" style="stroke:#181818;stroke-width:1.0;"/></g><!--MD5=[f74b4e3ba99d1f3f5800955a8b8fef81]
link Reviewer to Editor--><g id="link_Reviewer_Editor"><path d="M52.53,583.42 C81.65,514.54 142.26,371.23 176.17,291.03 " fill="none" id="Reviewer-to-Editor" style="stroke:#181818;stroke-width:1.0;"/><polygon fill="none" points="169.75,288.25,183.98,272.55,182.64,293.7,169.75,288.25" style="stroke:#181818;stroke-width:1.0;"/></g><!--MD5=[c4ba78a7e4ac5cb98d4cdf14b6befc04]
link Executor to User--><g id="link_Executor_User"><path d="M229.22,486.94 C281.39,470.22 396.68,433.28 453.51,415.07 " fill="none" id="Executor-to-User" style="stroke:#181818;stroke-width:1.0;"/><polygon fill="none" points="451.59,408.34,472.77,408.9,455.86,421.67,451.59,408.34" style="stroke:#181818;stroke-width:1.0;"/></g><!--MD5=[a94779845add7efdf1c110c32449ba17]
link Editor to createConcept--><g id="link_Editor_createConcept"><path d="M220.21,210.15 C249.64,172.88 312.24,99.94 381,58.5 C395.75,49.61 413.05,42.66 429.31,37.39 " fill="none" id="Editor-to-createConcept" style="stroke:#181818;stroke-width:1.0;"/><polygon fill="#181818" points="434.32,35.8,424.5347,34.6832,429.5501,37.2995,426.9339,42.315,434.32,35.8" style="stroke:#181818;stroke-width:1.0;"/></g><!--MD5=[8e5b6f2905e8673a9190279ffe6d894d]
link Editor to selectStrategy--><g id="link_Editor_selectStrategy"><path d="M220.06,221.46 C251.32,200.43 319.12,156.58 381,128.5 C398.27,120.66 417.82,113.69 435.36,108.06 " fill="none" id="Editor-to-selectStrategy" style="stroke:#181818;stroke-width:1.0;"/><polygon fill="#181818" points="440.26,106.51,430.4707,105.4283,435.4956,108.0266,432.8973,113.0514,440.26,106.51" style="stroke:#181818;stroke-width:1.0;"/></g><!--MD5=[03342a11f01a1be580e4b5f6ff49d43f]
link Editor to createQ--><g id="link_Editor_createQ"><path d="M220.27,229.12 C261.45,218.97 364.9,193.47 430.05,177.41 " fill="none" id="Editor-to-createQ" style="stroke:#181818;stroke-width:1.0;"/><polygon fill="#181818" points="435.06,176.18,425.3669,174.4351,430.2034,177.3691,427.2695,182.2056,435.06,176.18" style="stroke:#181818;stroke-width:1.0;"/></g><!--MD5=[48f36a504ffd22a201edd904587fb7f6]
link Editor to deleteQ--><g id="link_Editor_deleteQ"><path d="M220.27,233.5 C256.88,233.5 342.7,233.5 407.08,233.5 " fill="none" id="Editor-to-deleteQ" style="stroke:#181818;stroke-width:1.0;"/><polygon fill="#181818" points="412.46,233.5,403.46,229.5,407.46,233.5,403.46,237.5,412.46,233.5" style="stroke:#181818;stroke-width:1.0;"/></g><!--MD5=[fae657de78808a1036e5dec4eb8f3dbf]
link Editor to markQ--><g id="link_Editor_markQ"><path d="M220.27,238.19 C259.03,248.43 352.93,273.23 418.16,290.45 " fill="none" id="Editor-to-markQ" style="stroke:#181818;stroke-width:1.0;"/><polygon fill="#181818" points="423.19,291.78,415.5177,285.6045,418.3574,290.497,413.4649,293.3367,423.19,291.78" style="stroke:#181818;stroke-width:1.0;"/></g><!--MD5=[bc81ebb8a732e08f29a60712843ac489]
link User to login--><g id="link_User_login"><path d="M502.24,400.27 C535.59,390.01 621.55,363.56 669.47,348.82 " fill="none" id="User-to-login" style="stroke:#181818;stroke-width:1.0;"/><polygon fill="#181818" points="674.27,347.34,664.4909,346.1698,669.492,348.8134,666.8484,353.8146,674.27,347.34" style="stroke:#181818;stroke-width:1.0;"/></g><!--MD5=[5a8f97d88e2c39c1c4aefadaa2f4f750]
link User to register--><g id="link_User_register"><path d="M502.24,404.5 C531.33,404.5 600.44,404.5 649.43,404.5 " fill="none" id="User-to-register" style="stroke:#181818;stroke-width:1.0;"/><polygon fill="#181818" points="654.7,404.5,645.7,400.5,649.7,404.5,645.7,408.5,654.7,404.5" style="stroke:#181818;stroke-width:1.0;"/></g><!--MD5=[94954b1ac4c1a25db536747d7e96451c]
link User to logout--><g id="link_User_logout"><path d="M502.24,408.73 C534.78,418.74 617.43,444.17 665.94,459.1 " fill="none" id="User-to-logout" style="stroke:#181818;stroke-width:1.0;"/><polygon fill="#181818" points="670.81,460.6,663.383,454.1317,666.0308,459.1306,661.0319,461.7784,670.81,460.6" style="stroke:#181818;stroke-width:1.0;"/></g><!--MD5=[f310dd227b32879d6b1d6fe953410e28]
link Executor to selectCats--><g id="link_Executor_selectCats"><path d="M229.14,512.97 C263.28,534.82 324.78,572.41 381,597.5 C397.29,604.77 415.57,611.35 432.28,616.8 " fill="none" id="Executor-to-selectCats" style="stroke:#181818;stroke-width:1.0;"/><polygon fill="#181818" points="437.41,618.45,430.0651,611.8885,432.6497,616.9204,427.6178,619.505,437.41,618.45" style="stroke:#181818;stroke-width:1.0;"/></g><!--MD5=[c76cfbf04902375919e64db0843266fd]
link Executor to selectOps--><g id="link_Executor_selectOps"><path d="M229.22,495.5 C270.38,495.5 350.84,495.5 410.87,495.5 " fill="none" id="Executor-to-selectOps" style="stroke:#181818;stroke-width:1.0;"/><polygon fill="#181818" points="415.88,495.5,406.88,491.5,410.88,495.5,406.88,499.5,415.88,495.5" style="stroke:#181818;stroke-width:1.0;"/></g><!--MD5=[8c4c45c66c1600b8f4e6ec2946b5541a]
link Executor to execT--><g id="link_Executor_execT"><path d="M229.22,501.9 C276.02,513.1 373.62,536.47 434.25,550.99 " fill="none" id="Executor-to-execT" style="stroke:#181818;stroke-width:1.0;"/><polygon fill="#181818" points="439.27,552.19,431.4381,546.2183,434.4054,551.0345,429.5892,554.0018,439.27,552.19" style="stroke:#181818;stroke-width:1.0;"/></g><!--MD5=[e051d0f66b6a6e1204313b1cafede258]
link Reviewer to createCat--><g id="link_Reviewer_createCat"><path d="M64,616.12 C73.52,613.98 84.21,611.61 94,609.5 C108.51,606.38 124.15,603.1 138.86,600.05 " fill="none" id="Reviewer-to-createCat" style="stroke:#181818;stroke-width:1.0;"/><polygon fill="#181818" points="143.81,599.03,134.1848,596.9429,138.9144,600.0463,135.811,604.7759,143.81,599.03" style="stroke:#181818;stroke-width:1.0;"/></g><!--MD5=[bb598da8da6927f84607cbb584ec16ea]
link Reviewer to editC--><g id="link_Reviewer_editC"><path d="M64.28,628.34 C85.98,632.83 116.67,639.17 143.42,644.7 " fill="none" id="Reviewer-to-editC" style="stroke:#181818;stroke-width:1.0;"/><polygon fill="#181818" points="148.37,645.73,140.3676,639.9887,143.4738,644.7165,138.746,647.8227,148.37,645.73" style="stroke:#181818;stroke-width:1.0;"/></g><!--MD5=[154a6203c75598de19acd11641fce386]
link Reviewer to reviewQ--><g id="link_Reviewer_reviewQ"><path d="M64.12,646.53 C81.1,660.37 103.53,677.53 125,690.5 C135.5,696.84 147.33,702.82 158.47,707.99 " fill="none" id="Reviewer-to-reviewQ" style="stroke:#181818;stroke-width:1.0;"/><polygon fill="#181818" points="163.19,710.15,156.6798,702.7596,158.646,708.0638,153.3419,710.03,163.19,710.15" style="stroke:#181818;stroke-width:1.0;"/></g><!--MD5=[609937aa71502f65c461b91e32fef6aa]
link reviewQ to approveRejectA--><g id="link_reviewQ_approveRejectA"><path d="M255.92,737.91 C298.95,747.91 360.05,762.11 408.54,773.38 " fill="none" id="reviewQ-to-approveRejectA" style="stroke:#181818;stroke-width:1.0;stroke-dasharray:7.0,7.0;"/><polygon fill="#181818" points="413.49,774.53,405.625,768.602,408.619,773.4015,403.8194,776.3955,413.49,774.53" style="stroke:#181818;stroke-width:1.0;"/><text fill="#000000" font-family="sans-serif" font-size="13" lengthAdjust="spacing" textLength="41" x="309" y="746.9951">include</text></g><!--MD5=[ac14af5e44ec232064274b151dcb6422]
link reviewQ to publishQ--><g id="link_reviewQ_publishQ"><path d="M277.12,722.61 C315.49,721.12 362.42,719.31 402.11,717.77 " fill="none" id="reviewQ-to-publishQ" style="stroke:#181818;stroke-width:1.0;stroke-dasharray:7.0,7.0;"/><polygon fill="#181818" points="407.41,717.56,398.2573,713.9229,402.414,717.7598,398.5771,721.9165,407.41,717.56" style="stroke:#181818;stroke-width:1.0;"/><text fill="#000000" font-family="sans-serif" font-size="13" lengthAdjust="spacing" textLength="41" x="309" y="715.9951">include</text></g><!--MD5=[4ae3e20ebb76a7a77ef69e5e0c6a2e00]
@startuml useCases_app
left to right direction
actor User
actor Editor
actor Reviewer
usecase "Login" as login
usecase "Register" as register
usecase "Logout" as logout

usecase "Create Concept" as createConcept
usecase "Select Strategy" as selectStrategy
usecase "Create Question" as createQ
usecase "Delete Question" as deleteQ

usecase "Select Categories" as selectCats
usecase "Select Options" as selectOps
usecase "Execute Test" as execT

usecase "Create Category" as createCat
usecase "Edit Category" as editC
usecase "Mark ToReview Question" as markQ
usecase "** Approve / reject Question" as approveRejectA
usecase "Review Question" as reviewQ
usecase "**Publish Question" as publishQ


Editor - -|> User
Reviewer - -|> Editor
Executor - -|> User

Editor - -> createConcept
Editor - -> selectStrategy
Editor - -> createQ
Editor - -> deleteQ
Editor - -> markQ

User - -> login
User - -> register
User - -> logout

Executor - -> selectCats
Executor - -> selectOps
Executor - -> execT

Reviewer - -> createCat
Reviewer - -> editC
Reviewer - -> reviewQ
    reviewQ ..> approveRejectA :include
    reviewQ ..> publishQ :include


@enduml

PlantUML version 1.2022.7(Mon Aug 22 18:01:30 WEST 2022)
(GPL source distribution)
Java Runtime: OpenJDK Runtime Environment
JVM: OpenJDK 64-Bit Server VM
Default Encoding: Cp1252
Language: es
Country: ES
--></g></svg>