<?xml version="1.0" encoding="UTF-8" standalone="no"?><svg xmlns="http://www.w3.org/2000/svg" xmlns:xlink="http://www.w3.org/1999/xlink" contentStyleType="text/css" height="621px" preserveAspectRatio="none" style="width:748px;height:621px;background:#FFFFFF;" version="1.1" viewBox="0 0 748 621" width="748px" zoomAndPan="magnify"><defs/><g><!--MD5=[fee662a292a0353a69bd162820bae93b]
entity User--><g id="elem_User"><ellipse cx="485.5" cy="322" fill="#F1F1F1" rx="8" ry="8" style="stroke:#181818;stroke-width:0.5;"/><path d="M485.5,330 L485.5,357 M472.5,338 L498.5,338 M485.5,357 L472.5,372 M485.5,357 L498.5,372 " fill="none" style="stroke:#181818;stroke-width:0.5;"/><text fill="#000000" font-family="sans-serif" font-size="14" lengthAdjust="spacing" textLength="29" x="471" y="388.0332">User</text></g><!--MD5=[2c65dbceb6f8e708b4a833ee0e24817e]
entity Editor--><g id="elem_Editor"><ellipse cx="225.5" cy="95" fill="#F1F1F1" rx="8" ry="8" style="stroke:#181818;stroke-width:0.5;"/><path d="M225.5,103 L225.5,130 M212.5,111 L238.5,111 M225.5,130 L212.5,145 M225.5,130 L238.5,145 " fill="none" style="stroke:#181818;stroke-width:0.5;"/><text fill="#000000" font-family="sans-serif" font-size="14" lengthAdjust="spacing" textLength="37" x="207" y="161.0332">Editor</text></g><!--MD5=[b09503c001490bdaf25988c5c0400a0b]
entity Reviewer--><g id="elem_Reviewer"><ellipse cx="35" cy="262" fill="#F1F1F1" rx="8" ry="8" style="stroke:#181818;stroke-width:0.5;"/><path d="M35,270 L35,297 M22,278 L48,278 M35,297 L22,312 M35,297 L48,312 " fill="none" style="stroke:#181818;stroke-width:0.5;"/><text fill="#000000" font-family="sans-serif" font-size="14" lengthAdjust="spacing" textLength="58" x="6" y="328.0332">Reviewer</text></g><g id="elem_login"><ellipse cx="693.234" cy="286.4517" fill="#F1F1F1" rx="36.234" ry="15.4517" style="stroke:#181818;stroke-width:0.5;"/><text fill="#000000" font-family="sans-serif" font-size="14" lengthAdjust="spacing" textLength="35" x="675.734" y="290.1802">Login</text></g><g id="elem_register"><ellipse cx="693.0928" cy="352.4872" fill="#F1F1F1" rx="49.0928" ry="15.4872" style="stroke:#181818;stroke-width:0.5;"/><text fill="#000000" font-family="sans-serif" font-size="14" lengthAdjust="spacing" textLength="53" x="664.1382" y="356.8807">Register</text></g><g id="elem_logout"><ellipse cx="693.0997" cy="418.4523" fill="#F1F1F1" rx="42.5997" ry="15.4523" style="stroke:#181818;stroke-width:0.5;"/><text fill="#000000" font-family="sans-serif" font-size="14" lengthAdjust="spacing" textLength="44" x="670.8355" y="422.2639">Logout</text></g><g id="elem_createQ"><ellipse cx="485.4763" cy="23.5953" fill="#F1F1F1" rx="75.9763" ry="17.5953" style="stroke:#181818;stroke-width:0.5;"/><text fill="#000000" font-family="sans-serif" font-size="14" lengthAdjust="spacing" textLength="104" x="430.5467" y="28.0957">Create Question</text></g><g id="elem_addAnswerQ"><ellipse cx="485.341" cy="91.6182" fill="#F1F1F1" rx="65.341" ry="15.6182" style="stroke:#181818;stroke-width:0.5;"/><text fill="#000000" font-family="sans-serif" font-size="14" lengthAdjust="spacing" textLength="75" x="444.841" y="96.1348">Add Answer</text></g><g id="elem_deleteQ"><ellipse cx="485.7256" cy="159.4451" fill="#F1F1F1" rx="75.2256" ry="17.4451" style="stroke:#181818;stroke-width:0.5;"/><text fill="#000000" font-family="sans-serif" font-size="14" lengthAdjust="spacing" textLength="102" x="431.7256" y="163.9617">Delete Question</text></g><g id="elem_assignT"><ellipse cx="485.602" cy="464.6136" fill="#F1F1F1" rx="64.602" ry="15.6136" style="stroke:#181818;stroke-width:0.5;"/><text fill="#000000" font-family="sans-serif" font-size="14" lengthAdjust="spacing" textLength="74" x="445.602" y="469.1302">Assign Test</text></g><g id="elem_unassignT"><ellipse cx="485.3567" cy="531.5713" fill="#F1F1F1" rx="70.8567" ry="16.5713" style="stroke:#181818;stroke-width:0.5;"/><text fill="#000000" font-family="sans-serif" font-size="14" lengthAdjust="spacing" textLength="90" x="437.3567" y="536.0879">Unassign Test</text></g><g id="elem_execT"><ellipse cx="485.5887" cy="599.5177" fill="#F1F1F1" rx="68.0887" ry="16.0177" style="stroke:#181818;stroke-width:0.5;"/><text fill="#000000" font-family="sans-serif" font-size="14" lengthAdjust="spacing" textLength="82" x="441.5887" y="604.0343">Execute Test</text></g><g id="elem_createC"><ellipse cx="225.355" cy="217.671" fill="#F1F1F1" rx="76.355" ry="17.671" style="stroke:#181818;stroke-width:0.5;"/><text fill="#000000" font-family="sans-serif" font-size="14" lengthAdjust="spacing" textLength="105" x="170.1233" y="222.1255">Create Category</text></g><g id="elem_markQ"><ellipse cx="485.7239" cy="234.6448" fill="#F1F1F1" rx="98.7239" ry="22.1448" style="stroke:#181818;stroke-width:0.5;"/><text fill="#000000" font-family="sans-serif" font-size="14" lengthAdjust="spacing" textLength="158" x="406.7239" y="238.3733">Mark ToReview Question</text></g><g id="elem_approveRejectA"><ellipse cx="225.3975" cy="292.6795" fill="#F1F1F1" rx="101.3975" ry="22.6795" style="stroke:#181818;stroke-width:0.5;"/><text fill="#000000" font-family="sans-serif" font-size="14" lengthAdjust="spacing" textLength="164" x="143.3975" y="296.408">** Approve / reject Answer</text></g><g id="elem_reviewQ"><ellipse cx="225.7363" cy="367.7473" fill="#F1F1F1" rx="76.7363" ry="17.7473" style="stroke:#181818;stroke-width:0.5;"/><text fill="#000000" font-family="sans-serif" font-size="14" lengthAdjust="spacing" textLength="106" x="170.2006" y="372.1555">Review Question</text></g><g id="elem_publishQ"><ellipse cx="225.597" cy="438.6194" fill="#F1F1F1" rx="81.097" ry="18.6194" style="stroke:#181818;stroke-width:0.5;"/><text fill="#000000" font-family="sans-serif" font-size="14" lengthAdjust="spacing" textLength="117" x="166.5843" y="442.4982">**Publish Question</text></g><!--MD5=[77b6810f9f1d8e17e1346401c10c77dc]
entity Executor--><g id="elem_Executor"><ellipse cx="225.5" cy="501" fill="#F1F1F1" rx="8" ry="8" style="stroke:#181818;stroke-width:0.5;"/><path d="M225.5,509 L225.5,536 M212.5,517 L238.5,517 M225.5,536 L212.5,551 M225.5,536 L238.5,551 " fill="none" style="stroke:#181818;stroke-width:0.5;"/><text fill="#000000" font-family="sans-serif" font-size="14" lengthAdjust="spacing" textLength="55" x="198" y="567.0332">Executor</text></g><!--MD5=[f7383e4cdc50b73a3a26567783bb3d45]
link Editor to User--><g id="link_Editor_User"><path d="M244.1,132.43 C265.52,141.51 301.95,159.07 327,182.5 C362.38,215.59 354.46,237.61 387,273.5 C407.16,295.75 433.87,316.93 454.24,331.76 " fill="none" id="Editor-to-User" style="stroke:#181818;stroke-width:1.0;"/><polygon fill="none" points="458.48,326.18,470.79,343.43,450.41,337.62,458.48,326.18" style="stroke:#181818;stroke-width:1.0;"/></g><!--MD5=[f74b4e3ba99d1f3f5800955a8b8fef81]
link Reviewer to Editor--><g id="link_Reviewer_Editor"><path d="M61.76,253.26 C77.83,230.74 99.99,202.97 124,182.5 C143.46,165.91 168.47,151.7 188.67,141.63 " fill="none" id="Reviewer-to-Editor" style="stroke:#181818;stroke-width:1.0;"/><polygon fill="none" points="185.81,135.23,206.88,132.99,191.81,147.88,185.81,135.23" style="stroke:#181818;stroke-width:1.0;"/></g><!--MD5=[c4ba78a7e4ac5cb98d4cdf14b6befc04]
link Executor to User--><g id="link_Executor_User"><path d="M253.14,517.74 C273.76,506.77 302.79,490.62 327,474.5 C373.66,443.43 424.38,402.79 455.3,377.16 " fill="none" id="Executor-to-User" style="stroke:#181818;stroke-width:1.0;"/><polygon fill="none" points="450.84,371.77,470.67,364.31,459.82,382.51,450.84,371.77" style="stroke:#181818;stroke-width:1.0;"/></g><!--MD5=[03342a11f01a1be580e4b5f6ff49d43f]
link Editor to createQ--><g id="link_Editor_createQ"><path d="M244.19,117.77 C273.64,104.98 334.64,78.81 387,58.5 C403.41,52.13 421.53,45.52 437.64,39.78 " fill="none" id="Editor-to-createQ" style="stroke:#181818;stroke-width:1.0;"/><polygon fill="#181818" points="442.57,38.02,432.7507,37.2574,437.8574,39.6908,435.424,44.7975,442.57,38.02" style="stroke:#181818;stroke-width:1.0;"/></g><!--MD5=[ab019124e6a336b4fb8d4ab1553cd354]
link Editor to addAnswerQ--><g id="link_Editor_addAnswerQ"><path d="M244.23,123.16 C280.43,118.39 364.3,107.34 422.7,99.64 " fill="none" id="Editor-to-addAnswerQ" style="stroke:#181818;stroke-width:1.0;"/><polygon fill="#181818" points="427.91,98.96,418.4703,96.1507,422.9515,99.603,419.4992,104.0842,427.91,98.96" style="stroke:#181818;stroke-width:1.0;"/></g><!--MD5=[48f36a504ffd22a201edd904587fb7f6]
link Editor to deleteQ--><g id="link_Editor_deleteQ"><path d="M244.23,127.84 C278.77,132.39 356.72,142.66 414.52,150.28 " fill="none" id="Editor-to-deleteQ" style="stroke:#181818;stroke-width:1.0;"/><polygon fill="#181818" points="419.7,150.96,411.3037,145.812,414.7434,150.3029,410.2524,153.7426,419.7,150.96" style="stroke:#181818;stroke-width:1.0;"/></g><!--MD5=[fae657de78808a1036e5dec4eb8f3dbf]
link Editor to markQ--><g id="link_Editor_markQ"><path d="M244.27,133.26 C273.83,146.13 334.99,172.65 387,194.5 C401.55,200.61 417.36,207.15 431.94,213.12 " fill="none" id="Editor-to-markQ" style="stroke:#181818;stroke-width:1.0;"/><polygon fill="#181818" points="436.83,215.13,430.0044,208.03,432.1995,213.2435,426.986,215.4387,436.83,215.13" style="stroke:#181818;stroke-width:1.0;"/></g><!--MD5=[bc81ebb8a732e08f29a60712843ac489]
link User to login--><g id="link_User_login"><path d="M500.3,348.07 C532.43,337.75 612.95,311.89 658.76,297.18 " fill="none" id="User-to-login" style="stroke:#181818;stroke-width:1.0;"/><polygon fill="#181818" points="663.63,295.61,653.8378,294.555,658.8697,297.1396,656.2851,302.1715,663.63,295.61" style="stroke:#181818;stroke-width:1.0;"/></g><!--MD5=[5a8f97d88e2c39c1c4aefadaa2f4f750]
link User to register--><g id="link_User_register"><path d="M500.3,352.5 C528.17,352.5 592.47,352.5 638.93,352.5 " fill="none" id="User-to-register" style="stroke:#181818;stroke-width:1.0;"/><polygon fill="#181818" points="643.93,352.5,634.93,348.5,638.93,352.5,634.93,356.5,643.93,352.5" style="stroke:#181818;stroke-width:1.0;"/></g><!--MD5=[94954b1ac4c1a25db536747d7e96451c]
link User to logout--><g id="link_User_logout"><path d="M500.3,356.93 C531.73,367.03 609.49,392 655.74,406.86 " fill="none" id="User-to-logout" style="stroke:#181818;stroke-width:1.0;"/><polygon fill="#181818" points="660.67,408.44,653.3251,401.8785,655.9097,406.9104,650.8778,409.495,660.67,408.44" style="stroke:#181818;stroke-width:1.0;"/></g><!--MD5=[428aebbedd96afd721720ebe09ce0ccb]
link Executor to assignT--><g id="link_Executor_assignT"><path d="M253.14,524.58 C296.17,513.41 381.61,491.22 435.75,477.16 " fill="none" id="Executor-to-assignT" style="stroke:#181818;stroke-width:1.0;"/><polygon fill="#181818" points="440.89,475.82,431.1737,474.2097,436.0504,477.0763,433.1838,481.953,440.89,475.82" style="stroke:#181818;stroke-width:1.0;"/></g><!--MD5=[63eb762f5c5ad32fa9727c9f85ff7d04]
link Executor to unassignT--><g id="link_Executor_unassignT"><path d="M253.14,531.5 C289.68,531.5 356.81,531.5 409.39,531.5 " fill="none" id="Executor-to-unassignT" style="stroke:#181818;stroke-width:1.0;"/><polygon fill="#181818" points="414.43,531.5,405.43,527.5,409.43,531.5,405.43,535.5,414.43,531.5" style="stroke:#181818;stroke-width:1.0;"/></g><!--MD5=[8c4c45c66c1600b8f4e6ec2946b5541a]
link Executor to execT--><g id="link_Executor_execT"><path d="M253.14,538.52 C295.79,549.76 380.12,571.99 434.33,586.28 " fill="none" id="Executor-to-execT" style="stroke:#181818;stroke-width:1.0;"/><polygon fill="#181818" points="439.48,587.63,431.7952,581.4701,434.6448,586.3568,429.7581,589.2064,439.48,587.63" style="stroke:#181818;stroke-width:1.0;"/></g><!--MD5=[832c5e99f79262bf092cfd8d07e4099d]
link Reviewer to createC--><g id="link_Reviewer_createC"><path d="M64.25,278.86 C81.37,270.8 103.75,260.61 124,252.5 C140.63,245.84 159.08,239.2 175.59,233.53 " fill="none" id="Reviewer-to-createC" style="stroke:#181818;stroke-width:1.0;"/><polygon fill="#181818" points="180.65,231.8,170.8403,230.9222,175.9181,233.4154,173.425,238.4932,180.65,231.8" style="stroke:#181818;stroke-width:1.0;"/></g><!--MD5=[b3741a5af039c27ee25e5717a692fa78]
link Reviewer to approveRejectA--><g id="link_Reviewer_approveRejectA"><path d="M64.22,292.5 C79.18,292.5 98.6,292.5 118.73,292.5 " fill="none" id="Reviewer-to-approveRejectA" style="stroke:#181818;stroke-width:1.0;"/><polygon fill="#181818" points="123.86,292.5,114.86,288.5,118.86,292.5,114.86,296.5,123.86,292.5" style="stroke:#181818;stroke-width:1.0;"/></g><!--MD5=[154a6203c75598de19acd11641fce386]
link Reviewer to reviewQ--><g id="link_Reviewer_reviewQ"><path d="M64.25,306.14 C81.37,314.2 103.75,324.39 124,332.5 C140.63,339.16 159.08,345.8 175.59,351.47 " fill="none" id="Reviewer-to-reviewQ" style="stroke:#181818;stroke-width:1.0;"/><polygon fill="#181818" points="180.65,353.2,173.425,346.5068,175.9181,351.5846,170.8403,354.0778,180.65,353.2" style="stroke:#181818;stroke-width:1.0;"/></g><!--MD5=[e7dc023867224044be17c07946908b91]
link Reviewer to publishQ--><g id="link_Reviewer_publishQ"><path d="M59.45,331.72 C75.15,355.08 97.73,383.74 124,402.5 C136.26,411.26 150.88,418.08 165.11,423.32 " fill="none" id="Reviewer-to-publishQ" style="stroke:#181818;stroke-width:1.0;"/><polygon fill="#181818" points="169.92,425.04,162.7805,418.2556,165.209,423.3647,160.1,425.7932,169.92,425.04" style="stroke:#181818;stroke-width:1.0;"/></g><!--MD5=[0a7a783328875fb04cfff060f6b5291c]
@startuml useCases_app
left to right direction
actor User
actor Editor
actor Reviewer
usecase "Login" as login
usecase "Register" as register
usecase "Logout" as logout
usecase "Create Question" as createQ

usecase "Add Answer" as addAnswerQ
usecase "Delete Question" as deleteQ

usecase "Assign Test" as assignT
usecase "Unassign Test" as unassignT
usecase "Execute Test" as execT

usecase "Create Category" as createC
usecase "Mark ToReview Question" as markQ
usecase "** Approve / reject Answer" as approveRejectA
usecase "Review Question" as reviewQ
usecase "**Publish Question" as publishQ

Editor - -|> User
Reviewer - -|> Editor
Executor - -|> User

Editor - -> createQ
Editor - -> addAnswerQ
Editor - -> deleteQ
Editor - -> markQ

User - -> login
User - -> register
User - -> logout
Executor - -> assignT
Executor - -> unassignT
Executor - -> execT

Reviewer - -> createC
Reviewer - -> approveRejectA
Reviewer - -> reviewQ
Reviewer - -> publishQ

@enduml

PlantUML version 1.2022.7(Mon Aug 22 18:01:30 WEST 2022)
(GPL source distribution)
Java Runtime: OpenJDK Runtime Environment
JVM: OpenJDK 64-Bit Server VM
Default Encoding: Cp1252
Language: es
Country: ES
--></g></svg>