<?xml version="1.0" encoding="UTF-8" standalone="no"?><svg xmlns="http://www.w3.org/2000/svg" xmlns:xlink="http://www.w3.org/1999/xlink" contentStyleType="text/css" height="572px" preserveAspectRatio="none" style="width:778px;height:572px;background:#FFFFFF;" version="1.1" viewBox="0 0 778 572" width="778px" zoomAndPan="magnify"><defs/><g><!--MD5=[fee662a292a0353a69bd162820bae93b]
entity User--><g id="elem_User"><ellipse cx="472.5" cy="337" fill="#F1F1F1" rx="8" ry="8" style="stroke:#181818;stroke-width:0.5;"/><path d="M472.5,345 L472.5,372 M459.5,353 L485.5,353 M472.5,372 L459.5,387 M472.5,372 L485.5,387 " fill="none" style="stroke:#181818;stroke-width:0.5;"/><text fill="#000000" font-family="sans-serif" font-size="14" lengthAdjust="spacing" textLength="29" x="458" y="403.0332">User</text></g><!--MD5=[2c65dbceb6f8e708b4a833ee0e24817e]
entity Editor--><g id="elem_Editor"><ellipse cx="219" cy="95" fill="#F1F1F1" rx="8" ry="8" style="stroke:#181818;stroke-width:0.5;"/><path d="M219,103 L219,130 M206,111 L232,111 M219,130 L206,145 M219,130 L232,145 " fill="none" style="stroke:#181818;stroke-width:0.5;"/><text fill="#000000" font-family="sans-serif" font-size="14" lengthAdjust="spacing" textLength="37" x="200.5" y="161.0332">Editor</text></g><!--MD5=[b09503c001490bdaf25988c5c0400a0b]
entity Reviewer--><g id="elem_Reviewer"><ellipse cx="35" cy="261" fill="#F1F1F1" rx="8" ry="8" style="stroke:#181818;stroke-width:0.5;"/><path d="M35,269 L35,296 M22,277 L48,277 M35,296 L22,311 M35,296 L48,311 " fill="none" style="stroke:#181818;stroke-width:0.5;"/><text fill="#000000" font-family="sans-serif" font-size="14" lengthAdjust="spacing" textLength="58" x="6" y="327.0332">Reviewer</text></g><g id="elem_login"><ellipse cx="702.234" cy="268.4517" fill="#F1F1F1" rx="36.234" ry="15.4517" style="stroke:#181818;stroke-width:0.5;"/><text fill="#000000" font-family="sans-serif" font-size="14" lengthAdjust="spacing" textLength="35" x="684.734" y="272.1802">Login</text></g><g id="elem_register"><ellipse cx="702.0928" cy="334.4872" fill="#F1F1F1" rx="49.0928" ry="15.4872" style="stroke:#181818;stroke-width:0.5;"/><text fill="#000000" font-family="sans-serif" font-size="14" lengthAdjust="spacing" textLength="53" x="673.1382" y="338.8807">Register</text></g><g id="elem_createQ"><ellipse cx="472.4763" cy="23.5953" fill="#F1F1F1" rx="75.9763" ry="17.5953" style="stroke:#181818;stroke-width:0.5;"/><text fill="#000000" font-family="sans-serif" font-size="14" lengthAdjust="spacing" textLength="104" x="417.5467" y="28.0957">Create Question</text></g><g id="elem_addAnswerQ"><ellipse cx="472.341" cy="91.6182" fill="#F1F1F1" rx="65.341" ry="15.6182" style="stroke:#181818;stroke-width:0.5;"/><text fill="#000000" font-family="sans-serif" font-size="14" lengthAdjust="spacing" textLength="75" x="431.841" y="96.1348">Add Answer</text></g><g id="elem_deleteQ"><ellipse cx="472.7256" cy="159.4451" fill="#F1F1F1" rx="75.2256" ry="17.4451" style="stroke:#181818;stroke-width:0.5;"/><text fill="#000000" font-family="sans-serif" font-size="14" lengthAdjust="spacing" textLength="102" x="418.7256" y="163.9617">Delete Question</text></g><g id="elem_assignT"><ellipse cx="702.102" cy="400.6136" fill="#F1F1F1" rx="64.602" ry="15.6136" style="stroke:#181818;stroke-width:0.5;"/><text fill="#000000" font-family="sans-serif" font-size="14" lengthAdjust="spacing" textLength="74" x="662.102" y="405.1302">Assign Test</text></g><g id="elem_unassignT"><ellipse cx="701.8567" cy="467.5713" fill="#F1F1F1" rx="70.8567" ry="16.5713" style="stroke:#181818;stroke-width:0.5;"/><text fill="#000000" font-family="sans-serif" font-size="14" lengthAdjust="spacing" textLength="90" x="653.8567" y="472.0879">Unassign Test</text></g><g id="elem_execT"><ellipse cx="472.5887" cy="528.5177" fill="#F1F1F1" rx="68.0887" ry="16.0177" style="stroke:#181818;stroke-width:0.5;"/><text fill="#000000" font-family="sans-serif" font-size="14" lengthAdjust="spacing" textLength="82" x="428.5887" y="533.0343">Execute Test</text></g><g id="elem_createC"><ellipse cx="218.855" cy="217.671" fill="#F1F1F1" rx="76.355" ry="17.671" style="stroke:#181818;stroke-width:0.5;"/><text fill="#000000" font-family="sans-serif" font-size="14" lengthAdjust="spacing" textLength="105" x="163.6233" y="222.1255">Create Category</text></g><g id="elem_markQ"><ellipse cx="472.7239" cy="234.6448" fill="#F1F1F1" rx="98.7239" ry="22.1448" style="stroke:#181818;stroke-width:0.5;"/><text fill="#000000" font-family="sans-serif" font-size="14" lengthAdjust="spacing" textLength="158" x="393.7239" y="238.3733">Mark ToReview Question</text></g><g id="elem_approveRejectA"><ellipse cx="219.1904" cy="291.4381" fill="#F1F1F1" rx="95.1904" ry="21.4381" style="stroke:#181818;stroke-width:0.5;"/><text fill="#000000" font-family="sans-serif" font-size="14" lengthAdjust="spacing" textLength="150" x="144.1904" y="295.1666">Approve / reject Answer</text></g><g id="elem_reviewQ"><ellipse cx="219.2363" cy="365.7473" fill="#F1F1F1" rx="76.7363" ry="17.7473" style="stroke:#181818;stroke-width:0.5;"/><text fill="#000000" font-family="sans-serif" font-size="14" lengthAdjust="spacing" textLength="106" x="163.7006" y="370.1555">Review Question</text></g><g id="elem_publishQ"><ellipse cx="219.1203" cy="436.3241" fill="#F1F1F1" rx="77.1203" ry="17.8241" style="stroke:#181818;stroke-width:0.5;"/><text fill="#000000" font-family="sans-serif" font-size="14" lengthAdjust="spacing" textLength="107" x="163.2783" y="440.6856">Publish Question</text></g><!--MD5=[77b6810f9f1d8e17e1346401c10c77dc]
entity Executor--><g id="elem_Executor"><ellipse cx="219" cy="498" fill="#F1F1F1" rx="8" ry="8" style="stroke:#181818;stroke-width:0.5;"/><path d="M219,506 L219,533 M206,514 L232,514 M219,533 L206,548 M219,533 L232,548 " fill="none" style="stroke:#181818;stroke-width:0.5;"/><text fill="#000000" font-family="sans-serif" font-size="14" lengthAdjust="spacing" textLength="55" x="191.5" y="564.0332">Executor</text></g><!--MD5=[f7383e4cdc50b73a3a26567783bb3d45]
link Editor to User--><g id="link_Editor_User"><path d="M237.86,133.36 C258.03,142.87 291.04,160.39 314,182.5 C348.9,216.1 343.04,236.24 374,273.5 C395.13,298.93 422.47,324.79 442.82,342.93 " fill="none" id="Editor-to-User" style="stroke:#181818;stroke-width:1.0;"/><polygon fill="none" points="447.52,337.74,457.97,356.17,438.31,348.28,447.52,337.74" style="stroke:#181818;stroke-width:1.0;"/></g><!--MD5=[f74b4e3ba99d1f3f5800955a8b8fef81]
link Reviewer to Editor--><g id="link_Reviewer_Editor"><path d="M62.42,252.37 C78.56,230.24 100.56,202.99 124,182.5 C141.61,167.11 163.9,153.39 182.36,143.27 " fill="none" id="Reviewer-to-Editor" style="stroke:#181818;stroke-width:1.0;"/><polygon fill="none" points="179.19,137.02,200.16,133.95,185.69,149.43,179.19,137.02" style="stroke:#181818;stroke-width:1.0;"/></g><!--MD5=[c4ba78a7e4ac5cb98d4cdf14b6befc04]
link Executor to User--><g id="link_Executor_User"><path d="M246.55,513.16 C265.5,502.1 291.51,486.69 314,472.5 C358.66,444.34 409.29,410.17 440.82,388.63 " fill="none" id="Executor-to-User" style="stroke:#181818;stroke-width:1.0;"/><polygon fill="none" points="437.3,382.55,457.75,377.01,445.22,394.1,437.3,382.55" style="stroke:#181818;stroke-width:1.0;"/></g><!--MD5=[03342a11f01a1be580e4b5f6ff49d43f]
link Editor to createQ--><g id="link_Editor_createQ"><path d="M237.86,117.27 C266.39,104.24 324.13,78.28 374,58.5 C390.21,52.07 408.13,45.49 424.14,39.8 " fill="none" id="Editor-to-createQ" style="stroke:#181818;stroke-width:1.0;"/><polygon fill="#181818" points="429.04,38.06,419.2207,37.2974,424.3274,39.7308,421.894,44.8375,429.04,38.06" style="stroke:#181818;stroke-width:1.0;"/></g><!--MD5=[ab019124e6a336b4fb8d4ab1553cd354]
link Editor to addAnswerQ--><g id="link_Editor_addAnswerQ"><path d="M237.68,123.11 C272.96,118.34 353.53,107.45 410.19,99.79 " fill="none" id="Editor-to-addAnswerQ" style="stroke:#181818;stroke-width:1.0;"/><polygon fill="#181818" points="415.26,99.1,405.8124,96.3174,410.3034,99.7571,406.8637,104.248,415.26,99.1" style="stroke:#181818;stroke-width:1.0;"/></g><!--MD5=[48f36a504ffd22a201edd904587fb7f6]
link Editor to deleteQ--><g id="link_Editor_deleteQ"><path d="M237.68,127.89 C271.33,132.44 346.19,142.56 402.2,150.13 " fill="none" id="Editor-to-deleteQ" style="stroke:#181818;stroke-width:1.0;"/><polygon fill="#181818" points="407.22,150.81,398.8403,145.635,402.2655,150.137,397.7635,153.5622,407.22,150.81" style="stroke:#181818;stroke-width:1.0;"/></g><!--MD5=[fae657de78808a1036e5dec4eb8f3dbf]
link Editor to markQ--><g id="link_Editor_markQ"><path d="M237.94,133.76 C266.58,146.9 324.46,173.25 374,194.5 C388.5,200.72 404.3,207.29 418.87,213.27 " fill="none" id="Editor-to-markQ" style="stroke:#181818;stroke-width:1.0;"/><polygon fill="#181818" points="423.77,215.27,416.9444,208.17,419.1395,213.3835,413.926,215.5787,423.77,215.27" style="stroke:#181818;stroke-width:1.0;"/></g><!--MD5=[bc81ebb8a732e08f29a60712843ac489]
link User to login--><g id="link_User_login"><path d="M487.05,361.6 C523.01,345.96 621.48,303.11 671.3,281.43 " fill="none" id="User-to-login" style="stroke:#181818;stroke-width:1.0;"/><polygon fill="#181818" points="675.96,279.4,666.1114,279.3315,671.3769,281.3988,669.3095,286.6644,675.96,279.4" style="stroke:#181818;stroke-width:1.0;"/></g><!--MD5=[5a8f97d88e2c39c1c4aefadaa2f4f750]
link User to register--><g id="link_User_register"><path d="M487.05,365.53 C518.83,360.92 599.48,349.23 652.17,341.58 " fill="none" id="User-to-register" style="stroke:#181818;stroke-width:1.0;"/><polygon fill="#181818" points="657.18,340.86,647.694,338.2112,652.2331,341.5871,648.8573,346.1262,657.18,340.86" style="stroke:#181818;stroke-width:1.0;"/></g><!--MD5=[0ed325916ae53777d26e2e0cf7a25cc4]
link User to assignT--><g id="link_User_assignT"><path d="M487.05,369.47 C516.7,373.77 588.88,384.24 641.22,391.83 " fill="none" id="User-to-assignT" style="stroke:#181818;stroke-width:1.0;"/><polygon fill="#181818" points="646.22,392.55,637.8825,387.3073,641.2711,391.8369,636.7415,395.2255,646.22,392.55" style="stroke:#181818;stroke-width:1.0;"/></g><!--MD5=[728a1a1dfe82c6abce37026bfe8b9c5e]
link User to unassignT--><g id="link_User_unassignT"><path d="M487.05,373.46 C521.13,388.44 611.36,428.1 663.11,450.84 " fill="none" id="User-to-unassignT" style="stroke:#181818;stroke-width:1.0;"/><polygon fill="#181818" points="667.69,452.86,661.0395,445.5956,663.1069,450.8612,657.8414,452.9285,667.69,452.86" style="stroke:#181818;stroke-width:1.0;"/></g><!--MD5=[8c4c45c66c1600b8f4e6ec2946b5541a]
link Executor to execT--><g id="link_Executor_execT"><path d="M246.91,528.5 C282.93,528.5 348.18,528.5 399.09,528.5 " fill="none" id="Executor-to-execT" style="stroke:#181818;stroke-width:1.0;"/><polygon fill="#181818" points="404.29,528.5,395.29,524.5,399.29,528.5,395.29,532.5,404.29,528.5" style="stroke:#181818;stroke-width:1.0;"/></g><!--MD5=[832c5e99f79262bf092cfd8d07e4099d]
link Reviewer to createC--><g id="link_Reviewer_createC"><path d="M64.35,278.41 C81.5,270.62 103.88,260.7 124,252.5 C139.49,246.19 156.59,239.69 171.92,234.02 " fill="none" id="Reviewer-to-createC" style="stroke:#181818;stroke-width:1.0;"/><polygon fill="#181818" points="176.61,232.3,166.7825,231.6524,171.9173,234.0259,169.5439,239.1607,176.61,232.3" style="stroke:#181818;stroke-width:1.0;"/></g><!--MD5=[b3741a5af039c27ee25e5717a692fa78]
link Reviewer to approveRejectA--><g id="link_Reviewer_approveRejectA"><path d="M64.04,291.5 C79.11,291.5 98.71,291.5 118.84,291.5 " fill="none" id="Reviewer-to-approveRejectA" style="stroke:#181818;stroke-width:1.0;"/><polygon fill="#181818" points="123.97,291.5,114.97,287.5,118.97,291.5,114.97,295.5,123.97,291.5" style="stroke:#181818;stroke-width:1.0;"/></g><!--MD5=[154a6203c75598de19acd11641fce386]
link Reviewer to reviewQ--><g id="link_Reviewer_reviewQ"><path d="M64.35,304.59 C81.5,312.38 103.88,322.3 124,330.5 C139.49,336.81 156.59,343.31 171.92,348.98 " fill="none" id="Reviewer-to-reviewQ" style="stroke:#181818;stroke-width:1.0;"/><polygon fill="#181818" points="176.61,350.7,169.5439,343.8393,171.9173,348.9741,166.7825,351.3476,176.61,350.7" style="stroke:#181818;stroke-width:1.0;"/></g><!--MD5=[e7dc023867224044be17c07946908b91]
link Reviewer to publishQ--><g id="link_Reviewer_publishQ"><path d="M60.02,330.68 C75.79,353.66 98.23,381.76 124,400.5 C135.71,409.01 149.68,415.78 163.22,421.05 " fill="none" id="Reviewer-to-publishQ" style="stroke:#181818;stroke-width:1.0;"/><polygon fill="#181818" points="168.19,422.93,161.186,416.0058,163.5131,421.1619,158.357,423.489,168.19,422.93" style="stroke:#181818;stroke-width:1.0;"/></g><!--MD5=[3a267422cf465120d19ef1c545a9b56d]
@startuml useCases_app
left to right direction
actor User
actor Editor
actor Reviewer
usecase "Login" as login
usecase "Register" as register
usecase "Create Question" as createQ

usecase "Add Answer" as addAnswerQ
usecase "Delete Question" as deleteQ

usecase "Assign Test" as assignT
usecase "Unassign Test" as unassignT
usecase "Execute Test" as execT

usecase "Create Category" as createC
usecase "Mark ToReview Question" as markQ
usecase "Approve / reject Answer" as approveRejectA
usecase "Review Question" as reviewQ
usecase "Publish Question" as publishQ

Editor - -|> User
Reviewer - -|> Editor
Executor - -|> User

Editor - -> createQ
Editor - -> addAnswerQ
Editor - -> deleteQ
Editor - -> markQ

User - -> login
User - -> register
User - -> assignT
User - -> unassignT
Executor - -> execT

Reviewer - -> createC
Reviewer - -> approveRejectA
Reviewer - -> reviewQ
Reviewer - -> publishQ

@enduml

PlantUML version 1.2022.7(Mon Aug 22 18:01:30 WEST 2022)
(GPL source distribution)
Java Runtime: OpenJDK Runtime Environment
JVM: OpenJDK 64-Bit Server VM
Default Encoding: Cp1252
Language: es
Country: ES
--></g></svg>