<?xml version="1.0" encoding="UTF-8" standalone="no"?><svg xmlns="http://www.w3.org/2000/svg" xmlns:xlink="http://www.w3.org/1999/xlink" contentStyleType="text/css" height="1535px" preserveAspectRatio="none" style="width:1229px;height:1535px;background:#FFFFFF;" version="1.1" viewBox="0 0 1229 1535" width="1229px" zoomAndPan="magnify"><defs/><g><!--MD5=[668d633d11bedc8952753581a2dda3db]
class Community--><g id="elem_Community"><rect codeLine="2" fill="#F1F1F1" height="48" id="Community" rx="2.5" ry="2.5" style="stroke:#181818;stroke-width:0.5;" width="102" x="902.5" y="7"/><ellipse cx="917.5" cy="23" fill="#ADD1B2" rx="11" ry="11" style="stroke:#181818;stroke-width:1.0;"/><path d="M920.2656,18.875 Q920.4219,18.6563 920.6094,18.5469 Q920.7969,18.4375 921.0156,18.4375 Q921.3906,18.4375 921.625,18.7031 Q921.8594,18.9531 921.8594,19.5625 L921.8594,21.0156 Q921.8594,21.625 921.625,21.8906 Q921.3906,22.1563 921.0156,22.1563 Q920.6719,22.1563 920.4688,21.9531 Q920.2656,21.7656 920.1563,21.25 Q920.1094,20.8906 919.9219,20.7031 Q919.5938,20.3281 918.9844,20.1094 Q918.375,19.8906 917.75,19.8906 Q916.9844,19.8906 916.3438,20.2188 Q915.7188,20.5469 915.2188,21.2969 Q914.7344,22.0469 914.7344,23.0781 L914.7344,24.1719 Q914.7344,25.4063 915.625,26.2344 Q916.5156,27.0469 918.1094,27.0469 Q919.0469,27.0469 919.7031,26.7969 Q920.0938,26.6406 920.5156,26.2031 Q920.7813,25.9375 920.9219,25.8594 Q921.0781,25.7813 921.2813,25.7813 Q921.6094,25.7813 921.8594,26.0469 Q922.125,26.2969 922.125,26.6406 Q922.125,26.9844 921.7813,27.3906 Q921.2813,27.9688 920.4844,28.2969 Q919.4063,28.75 918.1094,28.75 Q916.5938,28.75 915.3906,28.125 Q914.4063,27.625 913.7188,26.5625 Q913.0313,25.4844 913.0313,24.2031 L913.0313,23.0469 Q913.0313,21.7188 913.6406,20.5781 Q914.2656,19.4219 915.3594,18.8125 Q916.4531,18.1875 917.6875,18.1875 Q918.4219,18.1875 919.0625,18.3594 Q919.7188,18.5156 920.2656,18.875 Z " fill="#000000"/><text fill="#000000" font-family="sans-serif" font-size="14" lengthAdjust="spacing" textLength="70" x="931.5" y="28.7285">Community</text><line style="stroke:#181818;stroke-width:0.5;" x1="903.5" x2="1003.5" y1="39" y2="39"/><line style="stroke:#181818;stroke-width:0.5;" x1="903.5" x2="1003.5" y1="47" y2="47"/></g><!--MD5=[3fd616f346a44cd59a91eb10b19e157c]
class User--><g id="elem_User"><rect codeLine="4" fill="#F1F1F1" height="83.2188" id="User" rx="2.5" ry="2.5" style="stroke:#181818;stroke-width:0.5;" width="136" x="822.5" y="116"/><ellipse cx="871.75" cy="132" fill="#ADD1B2" rx="11" ry="11" style="stroke:#181818;stroke-width:1.0;"/><path d="M874.5156,127.875 Q874.6719,127.6563 874.8594,127.5469 Q875.0469,127.4375 875.2656,127.4375 Q875.6406,127.4375 875.875,127.7031 Q876.1094,127.9531 876.1094,128.5625 L876.1094,130.0156 Q876.1094,130.625 875.875,130.8906 Q875.6406,131.1563 875.2656,131.1563 Q874.9219,131.1563 874.7188,130.9531 Q874.5156,130.7656 874.4063,130.25 Q874.3594,129.8906 874.1719,129.7031 Q873.8438,129.3281 873.2344,129.1094 Q872.625,128.8906 872,128.8906 Q871.2344,128.8906 870.5938,129.2188 Q869.9688,129.5469 869.4688,130.2969 Q868.9844,131.0469 868.9844,132.0781 L868.9844,133.1719 Q868.9844,134.4063 869.875,135.2344 Q870.7656,136.0469 872.3594,136.0469 Q873.2969,136.0469 873.9531,135.7969 Q874.3438,135.6406 874.7656,135.2031 Q875.0313,134.9375 875.1719,134.8594 Q875.3281,134.7813 875.5313,134.7813 Q875.8594,134.7813 876.1094,135.0469 Q876.375,135.2969 876.375,135.6406 Q876.375,135.9844 876.0313,136.3906 Q875.5313,136.9688 874.7344,137.2969 Q873.6563,137.75 872.3594,137.75 Q870.8438,137.75 869.6406,137.125 Q868.6563,136.625 867.9688,135.5625 Q867.2813,134.4844 867.2813,133.2031 L867.2813,132.0469 Q867.2813,130.7188 867.8906,129.5781 Q868.5156,128.4219 869.6094,127.8125 Q870.7031,127.1875 871.9375,127.1875 Q872.6719,127.1875 873.3125,127.3594 Q873.9688,127.5156 874.5156,127.875 Z " fill="#000000"/><text fill="#000000" font-family="sans-serif" font-size="14" lengthAdjust="spacing" textLength="29" x="892.25" y="137.7285">User</text><line style="stroke:#181818;stroke-width:0.5;" x1="823.5" x2="957.5" y1="148" y2="148"/><rect fill="none" height="6" style="stroke:#C82930;stroke-width:1.0;" width="6" x="830.5" y="159.3047"/><text fill="#000000" font-family="sans-serif" font-size="14" lengthAdjust="spacing" textLength="63" x="842.5" y="166.5332">username</text><rect fill="none" height="6" style="stroke:#C82930;stroke-width:1.0;" width="6" x="830.5" y="176.9141"/><text fill="#000000" font-family="sans-serif" font-size="14" lengthAdjust="spacing" textLength="110" x="842.5" y="184.1426">categorySelected</text><line style="stroke:#181818;stroke-width:0.5;" x1="823.5" x2="957.5" y1="191.2188" y2="191.2188"/></g><!--MD5=[61a83f88cb8b7d3a80bc8c481f3736bf]
class Teacher--><g id="elem_Teacher"><rect codeLine="9" fill="#F1F1F1" height="65.6094" id="Teacher" rx="2.5" ry="2.5" style="stroke:#181818;stroke-width:0.5;" width="131" x="825" y="260"/><ellipse cx="860.7" cy="276" fill="#ADD1B2" rx="11" ry="11" style="stroke:#181818;stroke-width:1.0;"/><path d="M863.4656,271.875 Q863.6219,271.6563 863.8094,271.5469 Q863.9969,271.4375 864.2156,271.4375 Q864.5906,271.4375 864.825,271.7031 Q865.0594,271.9531 865.0594,272.5625 L865.0594,274.0156 Q865.0594,274.625 864.825,274.8906 Q864.5906,275.1563 864.2156,275.1563 Q863.8719,275.1563 863.6688,274.9531 Q863.4656,274.7656 863.3563,274.25 Q863.3094,273.8906 863.1219,273.7031 Q862.7938,273.3281 862.1844,273.1094 Q861.575,272.8906 860.95,272.8906 Q860.1844,272.8906 859.5438,273.2188 Q858.9188,273.5469 858.4188,274.2969 Q857.9344,275.0469 857.9344,276.0781 L857.9344,277.1719 Q857.9344,278.4063 858.825,279.2344 Q859.7156,280.0469 861.3094,280.0469 Q862.2469,280.0469 862.9031,279.7969 Q863.2938,279.6406 863.7156,279.2031 Q863.9813,278.9375 864.1219,278.8594 Q864.2781,278.7813 864.4813,278.7813 Q864.8094,278.7813 865.0594,279.0469 Q865.325,279.2969 865.325,279.6406 Q865.325,279.9844 864.9813,280.3906 Q864.4813,280.9688 863.6844,281.2969 Q862.6063,281.75 861.3094,281.75 Q859.7938,281.75 858.5906,281.125 Q857.6063,280.625 856.9188,279.5625 Q856.2313,278.4844 856.2313,277.2031 L856.2313,276.0469 Q856.2313,274.7188 856.8406,273.5781 Q857.4656,272.4219 858.5594,271.8125 Q859.6531,271.1875 860.8875,271.1875 Q861.6219,271.1875 862.2625,271.3594 Q862.9188,271.5156 863.4656,271.875 Z " fill="#000000"/><text fill="#000000" font-family="sans-serif" font-size="14" lengthAdjust="spacing" textLength="53" x="879.3" y="281.7285">Teacher</text><line style="stroke:#181818;stroke-width:0.5;" x1="826" x2="955" y1="292" y2="292"/><rect fill="none" height="6" style="stroke:#C82930;stroke-width:1.0;" width="6" x="833" y="303.3047"/><text fill="#000000" font-family="sans-serif" font-size="14" lengthAdjust="spacing" textLength="105" x="845" y="310.5332">conceptSelected</text><line style="stroke:#181818;stroke-width:0.5;" x1="826" x2="955" y1="317.6094" y2="317.6094"/></g><!--MD5=[d6181cb537bdc20c0a3007a98a56832d]
class Student--><g id="elem_Student"><rect codeLine="13" fill="#F1F1F1" height="48" id="Student" rx="2.5" ry="2.5" style="stroke:#181818;stroke-width:0.5;" width="81" x="708" y="269"/><ellipse cx="723" cy="285" fill="#ADD1B2" rx="11" ry="11" style="stroke:#181818;stroke-width:1.0;"/><path d="M725.7656,280.875 Q725.9219,280.6563 726.1094,280.5469 Q726.2969,280.4375 726.5156,280.4375 Q726.8906,280.4375 727.125,280.7031 Q727.3594,280.9531 727.3594,281.5625 L727.3594,283.0156 Q727.3594,283.625 727.125,283.8906 Q726.8906,284.1563 726.5156,284.1563 Q726.1719,284.1563 725.9688,283.9531 Q725.7656,283.7656 725.6563,283.25 Q725.6094,282.8906 725.4219,282.7031 Q725.0938,282.3281 724.4844,282.1094 Q723.875,281.8906 723.25,281.8906 Q722.4844,281.8906 721.8438,282.2188 Q721.2188,282.5469 720.7188,283.2969 Q720.2344,284.0469 720.2344,285.0781 L720.2344,286.1719 Q720.2344,287.4063 721.125,288.2344 Q722.0156,289.0469 723.6094,289.0469 Q724.5469,289.0469 725.2031,288.7969 Q725.5938,288.6406 726.0156,288.2031 Q726.2813,287.9375 726.4219,287.8594 Q726.5781,287.7813 726.7813,287.7813 Q727.1094,287.7813 727.3594,288.0469 Q727.625,288.2969 727.625,288.6406 Q727.625,288.9844 727.2813,289.3906 Q726.7813,289.9688 725.9844,290.2969 Q724.9063,290.75 723.6094,290.75 Q722.0938,290.75 720.8906,290.125 Q719.9063,289.625 719.2188,288.5625 Q718.5313,287.4844 718.5313,286.2031 L718.5313,285.0469 Q718.5313,283.7188 719.1406,282.5781 Q719.7656,281.4219 720.8594,280.8125 Q721.9531,280.1875 723.1875,280.1875 Q723.9219,280.1875 724.5625,280.3594 Q725.2188,280.5156 725.7656,280.875 Z " fill="#000000"/><text fill="#000000" font-family="sans-serif" font-size="14" lengthAdjust="spacing" textLength="49" x="737" y="290.7285">Student</text><line style="stroke:#181818;stroke-width:0.5;" x1="709" x2="788" y1="301" y2="301"/><line style="stroke:#181818;stroke-width:0.5;" x1="709" x2="788" y1="309" y2="309"/></g><!--MD5=[71e8807956d33805e77353b9d7e2df39]
class Evaluation--><g id="elem_Evaluation"><rect codeLine="15" fill="#F1F1F1" height="65.6094" id="Evaluation" rx="2.5" ry="2.5" style="stroke:#181818;stroke-width:0.5;" width="98" x="684.5" y="387"/><ellipse cx="699.5" cy="403" fill="#ADD1B2" rx="11" ry="11" style="stroke:#181818;stroke-width:1.0;"/><path d="M702.2656,398.875 Q702.4219,398.6563 702.6094,398.5469 Q702.7969,398.4375 703.0156,398.4375 Q703.3906,398.4375 703.625,398.7031 Q703.8594,398.9531 703.8594,399.5625 L703.8594,401.0156 Q703.8594,401.625 703.625,401.8906 Q703.3906,402.1563 703.0156,402.1563 Q702.6719,402.1563 702.4688,401.9531 Q702.2656,401.7656 702.1563,401.25 Q702.1094,400.8906 701.9219,400.7031 Q701.5938,400.3281 700.9844,400.1094 Q700.375,399.8906 699.75,399.8906 Q698.9844,399.8906 698.3438,400.2188 Q697.7188,400.5469 697.2188,401.2969 Q696.7344,402.0469 696.7344,403.0781 L696.7344,404.1719 Q696.7344,405.4063 697.625,406.2344 Q698.5156,407.0469 700.1094,407.0469 Q701.0469,407.0469 701.7031,406.7969 Q702.0938,406.6406 702.5156,406.2031 Q702.7813,405.9375 702.9219,405.8594 Q703.0781,405.7813 703.2813,405.7813 Q703.6094,405.7813 703.8594,406.0469 Q704.125,406.2969 704.125,406.6406 Q704.125,406.9844 703.7813,407.3906 Q703.2813,407.9688 702.4844,408.2969 Q701.4063,408.75 700.1094,408.75 Q698.5938,408.75 697.3906,408.125 Q696.4063,407.625 695.7188,406.5625 Q695.0313,405.4844 695.0313,404.2031 L695.0313,403.0469 Q695.0313,401.7188 695.6406,400.5781 Q696.2656,399.4219 697.3594,398.8125 Q698.4531,398.1875 699.6875,398.1875 Q700.4219,398.1875 701.0625,398.3594 Q701.7188,398.5156 702.2656,398.875 Z " fill="#000000"/><text fill="#000000" font-family="sans-serif" font-size="14" lengthAdjust="spacing" textLength="66" x="713.5" y="408.7285">Evaluation</text><line style="stroke:#181818;stroke-width:0.5;" x1="685.5" x2="781.5" y1="419" y2="419"/><rect fill="none" height="6" style="stroke:#C82930;stroke-width:1.0;" width="6" x="692.5" y="430.3047"/><text fill="#000000" font-family="sans-serif" font-size="14" lengthAdjust="spacing" textLength="35" x="704.5" y="437.5332">result</text><line style="stroke:#181818;stroke-width:0.5;" x1="685.5" x2="781.5" y1="444.6094" y2="444.6094"/></g><!--MD5=[a96594a83e2ecdc78cbf17c2ddf01934]
class Category--><g id="elem_Category"><rect codeLine="19" fill="#F1F1F1" height="100.8281" id="Category" rx="2.5" ry="2.5" style="stroke:#181818;stroke-width:0.5;" width="115" x="959" y="514"/><ellipse cx="985.25" cy="530" fill="#ADD1B2" rx="11" ry="11" style="stroke:#181818;stroke-width:1.0;"/><path d="M988.0156,525.875 Q988.1719,525.6563 988.3594,525.5469 Q988.5469,525.4375 988.7656,525.4375 Q989.1406,525.4375 989.375,525.7031 Q989.6094,525.9531 989.6094,526.5625 L989.6094,528.0156 Q989.6094,528.625 989.375,528.8906 Q989.1406,529.1563 988.7656,529.1563 Q988.4219,529.1563 988.2188,528.9531 Q988.0156,528.7656 987.9063,528.25 Q987.8594,527.8906 987.6719,527.7031 Q987.3438,527.3281 986.7344,527.1094 Q986.125,526.8906 985.5,526.8906 Q984.7344,526.8906 984.0938,527.2188 Q983.4688,527.5469 982.9688,528.2969 Q982.4844,529.0469 982.4844,530.0781 L982.4844,531.1719 Q982.4844,532.4063 983.375,533.2344 Q984.2656,534.0469 985.8594,534.0469 Q986.7969,534.0469 987.4531,533.7969 Q987.8438,533.6406 988.2656,533.2031 Q988.5313,532.9375 988.6719,532.8594 Q988.8281,532.7813 989.0313,532.7813 Q989.3594,532.7813 989.6094,533.0469 Q989.875,533.2969 989.875,533.6406 Q989.875,533.9844 989.5313,534.3906 Q989.0313,534.9688 988.2344,535.2969 Q987.1563,535.75 985.8594,535.75 Q984.3438,535.75 983.1406,535.125 Q982.1563,534.625 981.4688,533.5625 Q980.7813,532.4844 980.7813,531.2031 L980.7813,530.0469 Q980.7813,528.7188 981.3906,527.5781 Q982.0156,526.4219 983.1094,525.8125 Q984.2031,525.1875 985.4375,525.1875 Q986.1719,525.1875 986.8125,525.3594 Q987.4688,525.5156 988.0156,525.875 Z " fill="#000000"/><text fill="#000000" font-family="sans-serif" font-size="14" lengthAdjust="spacing" textLength="58" x="1001.75" y="535.7285">Category</text><line style="stroke:#181818;stroke-width:0.5;" x1="960" x2="1073" y1="546" y2="546"/><rect fill="none" height="6" style="stroke:#C82930;stroke-width:1.0;" width="6" x="967" y="557.3047"/><text fill="#000000" font-family="sans-serif" font-size="14" lengthAdjust="spacing" textLength="89" x="979" y="564.5332">subcategories</text><rect fill="none" height="6" style="stroke:#C82930;stroke-width:1.0;" width="6" x="967" y="574.9141"/><text fill="#000000" font-family="sans-serif" font-size="14" lengthAdjust="spacing" textLength="69" x="979" y="582.1426">concepts[ ]</text><rect fill="none" height="6" style="stroke:#C82930;stroke-width:1.0;" width="6" x="967" y="592.5234"/><text fill="#000000" font-family="sans-serif" font-size="14" lengthAdjust="spacing" textLength="73" x="979" y="599.752">questions[ ]</text><line style="stroke:#181818;stroke-width:0.5;" x1="960" x2="1073" y1="606.8281" y2="606.8281"/></g><!--MD5=[df38be88ccee13e832d6fafd6288a4ca]
class Test--><g id="elem_Test"><rect codeLine="25" fill="#F1F1F1" height="83.2188" id="Test" rx="2.5" ry="2.5" style="stroke:#181818;stroke-width:0.5;" width="194" x="636.5" y="523"/><ellipse cx="715.25" cy="539" fill="#ADD1B2" rx="11" ry="11" style="stroke:#181818;stroke-width:1.0;"/><path d="M718.0156,534.875 Q718.1719,534.6563 718.3594,534.5469 Q718.5469,534.4375 718.7656,534.4375 Q719.1406,534.4375 719.375,534.7031 Q719.6094,534.9531 719.6094,535.5625 L719.6094,537.0156 Q719.6094,537.625 719.375,537.8906 Q719.1406,538.1563 718.7656,538.1563 Q718.4219,538.1563 718.2188,537.9531 Q718.0156,537.7656 717.9063,537.25 Q717.8594,536.8906 717.6719,536.7031 Q717.3438,536.3281 716.7344,536.1094 Q716.125,535.8906 715.5,535.8906 Q714.7344,535.8906 714.0938,536.2188 Q713.4688,536.5469 712.9688,537.2969 Q712.4844,538.0469 712.4844,539.0781 L712.4844,540.1719 Q712.4844,541.4063 713.375,542.2344 Q714.2656,543.0469 715.8594,543.0469 Q716.7969,543.0469 717.4531,542.7969 Q717.8438,542.6406 718.2656,542.2031 Q718.5313,541.9375 718.6719,541.8594 Q718.8281,541.7813 719.0313,541.7813 Q719.3594,541.7813 719.6094,542.0469 Q719.875,542.2969 719.875,542.6406 Q719.875,542.9844 719.5313,543.3906 Q719.0313,543.9688 718.2344,544.2969 Q717.1563,544.75 715.8594,544.75 Q714.3438,544.75 713.1406,544.125 Q712.1563,543.625 711.4688,542.5625 Q710.7813,541.4844 710.7813,540.2031 L710.7813,539.0469 Q710.7813,537.7188 711.3906,536.5781 Q712.0156,535.4219 713.1094,534.8125 Q714.2031,534.1875 715.4375,534.1875 Q716.1719,534.1875 716.8125,534.3594 Q717.4688,534.5156 718.0156,534.875 Z " fill="#000000"/><text fill="#000000" font-family="sans-serif" font-size="14" lengthAdjust="spacing" textLength="28" x="735.75" y="544.7285">Test</text><line style="stroke:#181818;stroke-width:0.5;" x1="637.5" x2="829.5" y1="555" y2="555"/><rect fill="none" height="6" style="stroke:#C82930;stroke-width:1.0;" width="6" x="644.5" y="566.3047"/><text fill="#000000" font-family="sans-serif" font-size="14" lengthAdjust="spacing" textLength="77" x="656.5" y="573.5332">questions[  ]</text><line style="stroke:#181818;stroke-width:0.5;" x1="637.5" x2="829.5" y1="580.6094" y2="580.6094"/><ellipse cx="647.5" cy="594.9141" fill="#84BE84" rx="3" ry="3" style="stroke:#038048;stroke-width:1.0;"/><text fill="#000000" font-family="sans-serif" font-size="14" lengthAdjust="spacing" textLength="168" x="656.5" y="599.1426">category.getAllQuestions()</text></g><!--MD5=[9d451b2f92d848a8e2d1a4dab2b1c6bf]
class Concept--><g id="elem_Concept"><rect codeLine="30" fill="#F1F1F1" height="118.4375" id="Concept" rx="2.5" ry="2.5" style="stroke:#181818;stroke-width:0.5;" width="124" x="983.5" y="891"/><ellipse cx="1016.05" cy="907" fill="#ADD1B2" rx="11" ry="11" style="stroke:#181818;stroke-width:1.0;"/><path d="M1018.8156,902.875 Q1018.9719,902.6563 1019.1594,902.5469 Q1019.3469,902.4375 1019.5656,902.4375 Q1019.9406,902.4375 1020.175,902.7031 Q1020.4094,902.9531 1020.4094,903.5625 L1020.4094,905.0156 Q1020.4094,905.625 1020.175,905.8906 Q1019.9406,906.1563 1019.5656,906.1563 Q1019.2219,906.1563 1019.0188,905.9531 Q1018.8156,905.7656 1018.7063,905.25 Q1018.6594,904.8906 1018.4719,904.7031 Q1018.1438,904.3281 1017.5344,904.1094 Q1016.925,903.8906 1016.3,903.8906 Q1015.5344,903.8906 1014.8938,904.2188 Q1014.2688,904.5469 1013.7688,905.2969 Q1013.2844,906.0469 1013.2844,907.0781 L1013.2844,908.1719 Q1013.2844,909.4063 1014.175,910.2344 Q1015.0656,911.0469 1016.6594,911.0469 Q1017.5969,911.0469 1018.2531,910.7969 Q1018.6438,910.6406 1019.0656,910.2031 Q1019.3313,909.9375 1019.4719,909.8594 Q1019.6281,909.7813 1019.8313,909.7813 Q1020.1594,909.7813 1020.4094,910.0469 Q1020.675,910.2969 1020.675,910.6406 Q1020.675,910.9844 1020.3313,911.3906 Q1019.8313,911.9688 1019.0344,912.2969 Q1017.9563,912.75 1016.6594,912.75 Q1015.1438,912.75 1013.9406,912.125 Q1012.9563,911.625 1012.2688,910.5625 Q1011.5813,909.4844 1011.5813,908.2031 L1011.5813,907.0469 Q1011.5813,905.7188 1012.1906,904.5781 Q1012.8156,903.4219 1013.9094,902.8125 Q1015.0031,902.1875 1016.2375,902.1875 Q1016.9719,902.1875 1017.6125,902.3594 Q1018.2688,902.5156 1018.8156,902.875 Z " fill="#000000"/><text fill="#000000" font-family="sans-serif" font-size="14" lengthAdjust="spacing" textLength="53" x="1033.95" y="912.7285">Concept</text><line style="stroke:#181818;stroke-width:0.5;" x1="984.5" x2="1106.5" y1="923" y2="923"/><rect fill="none" height="6" style="stroke:#C82930;stroke-width:1.0;" width="6" x="991.5" y="934.3047"/><text fill="#000000" font-family="sans-serif" font-size="14" lengthAdjust="spacing" textLength="52" x="1003.5" y="941.5332">keyword</text><rect fill="none" height="6" style="stroke:#C82930;stroke-width:1.0;" width="6" x="991.5" y="951.9141"/><text fill="#000000" font-family="sans-serif" font-size="14" lengthAdjust="spacing" textLength="98" x="1003.5" y="959.1426">fakekeywords[ ]</text><rect fill="none" height="6" style="stroke:#C82930;stroke-width:1.0;" width="6" x="991.5" y="969.5234"/><text fill="#000000" font-family="sans-serif" font-size="14" lengthAdjust="spacing" textLength="76" x="1003.5" y="976.752">definitions[ ]</text><rect fill="none" height="6" style="stroke:#C82930;stroke-width:1.0;" width="6" x="991.5" y="987.1328"/><text fill="#000000" font-family="sans-serif" font-size="14" lengthAdjust="spacing" textLength="66" x="1003.5" y="994.3613">relations[ ]</text><line style="stroke:#181818;stroke-width:0.5;" x1="984.5" x2="1106.5" y1="1001.4375" y2="1001.4375"/></g><!--MD5=[af22135d5be6ed11ccd2d02fa51653b3]
class Definition--><g id="elem_Definition"><rect codeLine="38" fill="#F1F1F1" height="118.4375" id="Definition" rx="2.5" ry="2.5" style="stroke:#181818;stroke-width:0.5;" width="115" x="1086" y="1088"/><ellipse cx="1111.8" cy="1104" fill="#ADD1B2" rx="11" ry="11" style="stroke:#181818;stroke-width:1.0;"/><path d="M1114.5656,1099.875 Q1114.7219,1099.6563 1114.9094,1099.5469 Q1115.0969,1099.4375 1115.3156,1099.4375 Q1115.6906,1099.4375 1115.925,1099.7031 Q1116.1594,1099.9531 1116.1594,1100.5625 L1116.1594,1102.0156 Q1116.1594,1102.625 1115.925,1102.8906 Q1115.6906,1103.1563 1115.3156,1103.1563 Q1114.9719,1103.1563 1114.7688,1102.9531 Q1114.5656,1102.7656 1114.4563,1102.25 Q1114.4094,1101.8906 1114.2219,1101.7031 Q1113.8938,1101.3281 1113.2844,1101.1094 Q1112.675,1100.8906 1112.05,1100.8906 Q1111.2844,1100.8906 1110.6438,1101.2188 Q1110.0188,1101.5469 1109.5188,1102.2969 Q1109.0344,1103.0469 1109.0344,1104.0781 L1109.0344,1105.1719 Q1109.0344,1106.4063 1109.925,1107.2344 Q1110.8156,1108.0469 1112.4094,1108.0469 Q1113.3469,1108.0469 1114.0031,1107.7969 Q1114.3938,1107.6406 1114.8156,1107.2031 Q1115.0813,1106.9375 1115.2219,1106.8594 Q1115.3781,1106.7813 1115.5813,1106.7813 Q1115.9094,1106.7813 1116.1594,1107.0469 Q1116.425,1107.2969 1116.425,1107.6406 Q1116.425,1107.9844 1116.0813,1108.3906 Q1115.5813,1108.9688 1114.7844,1109.2969 Q1113.7063,1109.75 1112.4094,1109.75 Q1110.8938,1109.75 1109.6906,1109.125 Q1108.7063,1108.625 1108.0188,1107.5625 Q1107.3313,1106.4844 1107.3313,1105.2031 L1107.3313,1104.0469 Q1107.3313,1102.7188 1107.9406,1101.5781 Q1108.5656,1100.4219 1109.6594,1099.8125 Q1110.7531,1099.1875 1111.9875,1099.1875 Q1112.7219,1099.1875 1113.3625,1099.3594 Q1114.0188,1099.5156 1114.5656,1099.875 Z " fill="#000000"/><text fill="#000000" font-family="sans-serif" font-size="14" lengthAdjust="spacing" textLength="59" x="1128.2" y="1109.7285">Definition</text><line style="stroke:#181818;stroke-width:0.5;" x1="1087" x2="1200" y1="1120" y2="1120"/><rect fill="none" height="6" style="stroke:#C82930;stroke-width:1.0;" width="6" x="1094" y="1131.3047"/><text fill="#000000" font-family="sans-serif" font-size="14" lengthAdjust="spacing" textLength="47" x="1106" y="1138.5332">content</text><rect fill="none" height="6" style="stroke:#C82930;stroke-width:1.0;" width="6" x="1094" y="1148.9141"/><text fill="#000000" font-family="sans-serif" font-size="14" lengthAdjust="spacing" textLength="42" x="1106" y="1156.1426">isFake</text><rect fill="none" height="6" style="stroke:#C82930;stroke-width:1.0;" width="6" x="1094" y="1166.5234"/><text fill="#000000" font-family="sans-serif" font-size="14" lengthAdjust="spacing" textLength="78" x="1106" y="1173.752">createdDate</text><rect fill="none" height="6" style="stroke:#C82930;stroke-width:1.0;" width="6" x="1094" y="1184.1328"/><text fill="#000000" font-family="sans-serif" font-size="14" lengthAdjust="spacing" textLength="89" x="1106" y="1191.3613">justifications[ ]</text><line style="stroke:#181818;stroke-width:0.5;" x1="1087" x2="1200" y1="1198.4375" y2="1198.4375"/></g><!--MD5=[9b4de504215638550a8bb9c080b7ee00]
class Justification--><g id="elem_Justification"><rect codeLine="45" fill="#F1F1F1" height="118.4375" id="Justification" rx="2.5" ry="2.5" style="stroke:#181818;stroke-width:0.5;" width="105" x="1091" y="1284"/><ellipse cx="1106" cy="1300" fill="#ADD1B2" rx="11" ry="11" style="stroke:#181818;stroke-width:1.0;"/><path d="M1108.7656,1295.875 Q1108.9219,1295.6563 1109.1094,1295.5469 Q1109.2969,1295.4375 1109.5156,1295.4375 Q1109.8906,1295.4375 1110.125,1295.7031 Q1110.3594,1295.9531 1110.3594,1296.5625 L1110.3594,1298.0156 Q1110.3594,1298.625 1110.125,1298.8906 Q1109.8906,1299.1563 1109.5156,1299.1563 Q1109.1719,1299.1563 1108.9688,1298.9531 Q1108.7656,1298.7656 1108.6563,1298.25 Q1108.6094,1297.8906 1108.4219,1297.7031 Q1108.0938,1297.3281 1107.4844,1297.1094 Q1106.875,1296.8906 1106.25,1296.8906 Q1105.4844,1296.8906 1104.8438,1297.2188 Q1104.2188,1297.5469 1103.7188,1298.2969 Q1103.2344,1299.0469 1103.2344,1300.0781 L1103.2344,1301.1719 Q1103.2344,1302.4063 1104.125,1303.2344 Q1105.0156,1304.0469 1106.6094,1304.0469 Q1107.5469,1304.0469 1108.2031,1303.7969 Q1108.5938,1303.6406 1109.0156,1303.2031 Q1109.2813,1302.9375 1109.4219,1302.8594 Q1109.5781,1302.7813 1109.7813,1302.7813 Q1110.1094,1302.7813 1110.3594,1303.0469 Q1110.625,1303.2969 1110.625,1303.6406 Q1110.625,1303.9844 1110.2813,1304.3906 Q1109.7813,1304.9688 1108.9844,1305.2969 Q1107.9063,1305.75 1106.6094,1305.75 Q1105.0938,1305.75 1103.8906,1305.125 Q1102.9063,1304.625 1102.2188,1303.5625 Q1101.5313,1302.4844 1101.5313,1301.2031 L1101.5313,1300.0469 Q1101.5313,1298.7188 1102.1406,1297.5781 Q1102.7656,1296.4219 1103.8594,1295.8125 Q1104.9531,1295.1875 1106.1875,1295.1875 Q1106.9219,1295.1875 1107.5625,1295.3594 Q1108.2188,1295.5156 1108.7656,1295.875 Z " fill="#000000"/><text fill="#000000" font-family="sans-serif" font-size="14" lengthAdjust="spacing" textLength="73" x="1120" y="1305.7285">Justification</text><line style="stroke:#181818;stroke-width:0.5;" x1="1092" x2="1195" y1="1316" y2="1316"/><rect fill="none" height="6" style="stroke:#C82930;stroke-width:1.0;" width="6" x="1099" y="1327.3047"/><text fill="#000000" font-family="sans-serif" font-size="14" lengthAdjust="spacing" textLength="47" x="1111" y="1334.5332">content</text><rect fill="none" height="6" style="stroke:#C82930;stroke-width:1.0;" width="6" x="1099" y="1344.9141"/><text fill="#000000" font-family="sans-serif" font-size="14" lengthAdjust="spacing" textLength="42" x="1111" y="1352.1426">isFake</text><rect fill="none" height="6" style="stroke:#C82930;stroke-width:1.0;" width="6" x="1099" y="1362.5234"/><text fill="#000000" font-family="sans-serif" font-size="14" lengthAdjust="spacing" textLength="78" x="1111" y="1369.752">createdDate</text><rect fill="none" height="6" style="stroke:#C82930;stroke-width:1.0;" width="6" x="1099" y="1380.1328"/><text fill="#000000" font-family="sans-serif" font-size="14" lengthAdjust="spacing" textLength="66" x="1111" y="1387.3613">explication</text><line style="stroke:#181818;stroke-width:0.5;" x1="1092" x2="1195" y1="1394.4375" y2="1394.4375"/></g><!--MD5=[534474e9f05b14d7c70186ae077f30e0]
class Relation--><g id="elem_Relation"><rect codeLine="52" fill="#F1F1F1" height="100.8281" id="Relation" rx="2.5" ry="2.5" style="stroke:#181818;stroke-width:0.5;" width="104" x="946.5" y="1096.5"/><ellipse cx="970.5" cy="1112.5" fill="#ADD1B2" rx="11" ry="11" style="stroke:#181818;stroke-width:1.0;"/><path d="M973.2656,1108.375 Q973.4219,1108.1563 973.6094,1108.0469 Q973.7969,1107.9375 974.0156,1107.9375 Q974.3906,1107.9375 974.625,1108.2031 Q974.8594,1108.4531 974.8594,1109.0625 L974.8594,1110.5156 Q974.8594,1111.125 974.625,1111.3906 Q974.3906,1111.6563 974.0156,1111.6563 Q973.6719,1111.6563 973.4688,1111.4531 Q973.2656,1111.2656 973.1563,1110.75 Q973.1094,1110.3906 972.9219,1110.2031 Q972.5938,1109.8281 971.9844,1109.6094 Q971.375,1109.3906 970.75,1109.3906 Q969.9844,1109.3906 969.3438,1109.7188 Q968.7188,1110.0469 968.2188,1110.7969 Q967.7344,1111.5469 967.7344,1112.5781 L967.7344,1113.6719 Q967.7344,1114.9063 968.625,1115.7344 Q969.5156,1116.5469 971.1094,1116.5469 Q972.0469,1116.5469 972.7031,1116.2969 Q973.0938,1116.1406 973.5156,1115.7031 Q973.7813,1115.4375 973.9219,1115.3594 Q974.0781,1115.2813 974.2813,1115.2813 Q974.6094,1115.2813 974.8594,1115.5469 Q975.125,1115.7969 975.125,1116.1406 Q975.125,1116.4844 974.7813,1116.8906 Q974.2813,1117.4688 973.4844,1117.7969 Q972.4063,1118.25 971.1094,1118.25 Q969.5938,1118.25 968.3906,1117.625 Q967.4063,1117.125 966.7188,1116.0625 Q966.0313,1114.9844 966.0313,1113.7031 L966.0313,1112.5469 Q966.0313,1111.2188 966.6406,1110.0781 Q967.2656,1108.9219 968.3594,1108.3125 Q969.4531,1107.6875 970.6875,1107.6875 Q971.4219,1107.6875 972.0625,1107.8594 Q972.7188,1108.0156 973.2656,1108.375 Z " fill="#000000"/><text fill="#000000" font-family="sans-serif" font-size="14" lengthAdjust="spacing" textLength="52" x="986.5" y="1118.2285">Relation</text><line style="stroke:#181818;stroke-width:0.5;" x1="947.5" x2="1049.5" y1="1128.5" y2="1128.5"/><rect fill="none" height="6" style="stroke:#C82930;stroke-width:1.0;" width="6" x="954.5" y="1139.8047"/><text fill="#000000" font-family="sans-serif" font-size="14" lengthAdjust="spacing" textLength="66" x="966.5" y="1147.0332">contents[ ]</text><rect fill="none" height="6" style="stroke:#C82930;stroke-width:1.0;" width="6" x="954.5" y="1157.4141"/><text fill="#000000" font-family="sans-serif" font-size="14" lengthAdjust="spacing" textLength="42" x="966.5" y="1164.6426">isFake</text><rect fill="none" height="6" style="stroke:#C82930;stroke-width:1.0;" width="6" x="954.5" y="1175.0234"/><text fill="#000000" font-family="sans-serif" font-size="14" lengthAdjust="spacing" textLength="78" x="966.5" y="1182.252">createdDate</text><line style="stroke:#181818;stroke-width:0.5;" x1="947.5" x2="1049.5" y1="1189.3281" y2="1189.3281"/></g><!--MD5=[fc7123defb831ecdd44b2d9bcef6cceb]
class Question--><g id="elem_Question"><rect codeLine="58" fill="#F1F1F1" height="136.0469" id="Question" rx="2.5" ry="2.5" style="stroke:#181818;stroke-width:0.5;" width="238" x="614.5" y="676"/><ellipse cx="700.75" cy="692" fill="#A9DCDF" rx="11" ry="11" style="stroke:#181818;stroke-width:1.0;"/><path d="M702.9375,693.7656 L698.7969,693.7656 L698.375,694.7969 L698.7969,694.7969 Q699.4063,694.7969 699.6719,695.0313 Q699.9375,695.2656 699.9375,695.6563 Q699.9375,696.0313 699.6719,696.2656 Q699.4063,696.5 698.7969,696.5 L696.5,696.5 Q695.8906,696.5 695.6406,696.2656 Q695.375,696.0313 695.375,695.6406 Q695.375,695.2656 695.6563,695.0313 Q695.9219,694.7813 696.5469,694.7969 L699.2188,688.1406 L698.1094,688.1406 Q697.5,688.1406 697.2344,687.9063 Q696.9688,687.6719 696.9688,687.2813 Q696.9688,686.9063 697.2344,686.6719 Q697.5,686.4375 698.1094,686.4375 L701.7813,686.4375 L705.1719,694.7969 Q705.7656,694.7969 705.9531,694.9375 Q706.3438,695.2031 706.3438,695.6563 Q706.3438,696.0313 706.0781,696.2656 Q705.8281,696.5 705.2188,696.5 L702.9219,696.5 Q702.3125,696.5 702.0469,696.2656 Q701.7813,696.0313 701.7813,695.6406 Q701.7813,695.2656 702.0469,695.0313 Q702.3125,694.7969 702.9219,694.7969 L703.3438,694.7969 L702.9375,693.7656 Z M702.2188,692.0625 L700.8594,688.6875 L699.4844,692.0625 L702.2188,692.0625 Z " fill="#000000"/><text fill="#000000" font-family="sans-serif" font-size="14" font-style="italic" lengthAdjust="spacing" textLength="57" x="721.25" y="697.7285">Question</text><line style="stroke:#181818;stroke-width:0.5;" x1="615.5" x2="851.5" y1="708" y2="708"/><rect fill="none" height="6" style="stroke:#C82930;stroke-width:1.0;" width="6" x="622.5" y="719.3047"/><text fill="#000000" font-family="sans-serif" font-size="14" lengthAdjust="spacing" textLength="139" x="634.5" y="726.5332">statementImplementor</text><rect fill="none" height="6" style="stroke:#C82930;stroke-width:1.0;" width="6" x="622.5" y="736.9141"/><text fill="#000000" font-family="sans-serif" font-size="14" lengthAdjust="spacing" textLength="62" x="634.5" y="744.1426">statement</text><rect fill="none" height="6" style="stroke:#C82930;stroke-width:1.0;" width="6" x="622.5" y="754.5234"/><text fill="#000000" font-family="sans-serif" font-size="14" lengthAdjust="spacing" textLength="64" x="634.5" y="761.752">answers[ ]</text><line style="stroke:#181818;stroke-width:0.5;" x1="615.5" x2="851.5" y1="768.8281" y2="768.8281"/><ellipse cx="625.5" cy="783.1328" fill="#84BE84" rx="3" ry="3" style="stroke:#038048;stroke-width:1.0;"/><text fill="#000000" font-family="sans-serif" font-size="14" lengthAdjust="spacing" textLength="80" x="634.5" y="787.3613">addAnswer()</text><ellipse cx="625.5" cy="800.7422" fill="#84BE84" rx="3" ry="3" style="stroke:#038048;stroke-width:1.0;"/><text fill="#000000" font-family="sans-serif" font-size="14" lengthAdjust="spacing" textLength="212" x="634.5" y="804.9707">bool isAnsweredBy(studentName)</text></g><!--MD5=[c5a45057bd8260f278ba302c5f5fe264]
class StatementImplementor--><g id="elem_StatementImplementor"><rect codeLine="67" fill="#F1F1F1" height="118.4375" id="StatementImplementor" rx="2.5" ry="2.5" style="stroke:#181818;stroke-width:0.5;" width="174" x="958.5" y="685"/><ellipse cx="973.5" cy="701" fill="#A9DCDF" rx="11" ry="11" style="stroke:#181818;stroke-width:1.0;"/><path d="M975.6875,702.7656 L971.5469,702.7656 L971.125,703.7969 L971.5469,703.7969 Q972.1563,703.7969 972.4219,704.0313 Q972.6875,704.2656 972.6875,704.6563 Q972.6875,705.0313 972.4219,705.2656 Q972.1563,705.5 971.5469,705.5 L969.25,705.5 Q968.6406,705.5 968.3906,705.2656 Q968.125,705.0313 968.125,704.6406 Q968.125,704.2656 968.4063,704.0313 Q968.6719,703.7813 969.2969,703.7969 L971.9688,697.1406 L970.8594,697.1406 Q970.25,697.1406 969.9844,696.9063 Q969.7188,696.6719 969.7188,696.2813 Q969.7188,695.9063 969.9844,695.6719 Q970.25,695.4375 970.8594,695.4375 L974.5313,695.4375 L977.9219,703.7969 Q978.5156,703.7969 978.7031,703.9375 Q979.0938,704.2031 979.0938,704.6563 Q979.0938,705.0313 978.8281,705.2656 Q978.5781,705.5 977.9688,705.5 L975.6719,705.5 Q975.0625,705.5 974.7969,705.2656 Q974.5313,705.0313 974.5313,704.6406 Q974.5313,704.2656 974.7969,704.0313 Q975.0625,703.7969 975.6719,703.7969 L976.0938,703.7969 L975.6875,702.7656 Z M974.9688,701.0625 L973.6094,697.6875 L972.2344,701.0625 L974.9688,701.0625 Z " fill="#000000"/><text fill="#000000" font-family="sans-serif" font-size="14" font-style="italic" lengthAdjust="spacing" textLength="142" x="987.5" y="706.7285">StatementImplementor</text><line style="stroke:#181818;stroke-width:0.5;" x1="959.5" x2="1131.5" y1="717" y2="717"/><rect fill="none" height="6" style="stroke:#C82930;stroke-width:1.0;" width="6" x="966.5" y="728.3047"/><text fill="#000000" font-family="sans-serif" font-size="14" lengthAdjust="spacing" textLength="50" x="978.5" y="735.5332">concept</text><rect fill="none" height="6" style="stroke:#C82930;stroke-width:1.0;" width="6" x="966.5" y="745.9141"/><text fill="#000000" font-family="sans-serif" font-size="14" lengthAdjust="spacing" textLength="56" x="978.5" y="753.1426">solutions</text><line style="stroke:#181818;stroke-width:0.5;" x1="959.5" x2="1131.5" y1="760.2188" y2="760.2188"/><ellipse cx="969.5" cy="774.5234" fill="#84BE84" rx="3" ry="3" style="stroke:#038048;stroke-width:1.0;"/><text fill="#000000" font-family="sans-serif" font-size="14" lengthAdjust="spacing" textLength="104" x="978.5" y="778.752">addToConcept()</text><ellipse cx="969.5" cy="792.1328" fill="#84BE84" rx="3" ry="3" style="stroke:#038048;stroke-width:1.0;"/><text fill="#000000" font-family="sans-serif" font-size="14" lengthAdjust="spacing" textLength="88" x="978.5" y="796.3613">getSolutions()</text></g><!--MD5=[f9fadfa5a66b7e5a67b370cd443ffe52]
class Answer--><g id="elem_Answer"><rect codeLine="76" fill="#F1F1F1" height="153.6563" id="Answer" rx="2.5" ry="2.5" style="stroke:#181818;stroke-width:0.5;" width="118" x="503.5" y="873"/><ellipse cx="536.5" cy="889" fill="#ADD1B2" rx="11" ry="11" style="stroke:#181818;stroke-width:1.0;"/><path d="M539.2656,884.875 Q539.4219,884.6563 539.6094,884.5469 Q539.7969,884.4375 540.0156,884.4375 Q540.3906,884.4375 540.625,884.7031 Q540.8594,884.9531 540.8594,885.5625 L540.8594,887.0156 Q540.8594,887.625 540.625,887.8906 Q540.3906,888.1563 540.0156,888.1563 Q539.6719,888.1563 539.4688,887.9531 Q539.2656,887.7656 539.1563,887.25 Q539.1094,886.8906 538.9219,886.7031 Q538.5938,886.3281 537.9844,886.1094 Q537.375,885.8906 536.75,885.8906 Q535.9844,885.8906 535.3438,886.2188 Q534.7188,886.5469 534.2188,887.2969 Q533.7344,888.0469 533.7344,889.0781 L533.7344,890.1719 Q533.7344,891.4063 534.625,892.2344 Q535.5156,893.0469 537.1094,893.0469 Q538.0469,893.0469 538.7031,892.7969 Q539.0938,892.6406 539.5156,892.2031 Q539.7813,891.9375 539.9219,891.8594 Q540.0781,891.7813 540.2813,891.7813 Q540.6094,891.7813 540.8594,892.0469 Q541.125,892.2969 541.125,892.6406 Q541.125,892.9844 540.7813,893.3906 Q540.2813,893.9688 539.4844,894.2969 Q538.4063,894.75 537.1094,894.75 Q535.5938,894.75 534.3906,894.125 Q533.4063,893.625 532.7188,892.5625 Q532.0313,891.4844 532.0313,890.2031 L532.0313,889.0469 Q532.0313,887.7188 532.6406,886.5781 Q533.2656,885.4219 534.3594,884.8125 Q535.4531,884.1875 536.6875,884.1875 Q537.4219,884.1875 538.0625,884.3594 Q538.7188,884.5156 539.2656,884.875 Z " fill="#000000"/><text fill="#000000" font-family="sans-serif" font-size="14" lengthAdjust="spacing" textLength="46" x="554.5" y="894.7285">Answer</text><line style="stroke:#181818;stroke-width:0.5;" x1="504.5" x2="620.5" y1="905" y2="905"/><rect fill="none" height="6" style="stroke:#C82930;stroke-width:1.0;" width="6" x="511.5" y="916.3047"/><text fill="#000000" font-family="sans-serif" font-size="14" lengthAdjust="spacing" textLength="47" x="523.5" y="923.5332">content</text><rect fill="none" height="6" style="stroke:#C82930;stroke-width:1.0;" width="6" x="511.5" y="933.9141"/><text fill="#000000" font-family="sans-serif" font-size="14" lengthAdjust="spacing" textLength="30" x="523.5" y="941.1426">isOK</text><rect fill="none" height="6" style="stroke:#C82930;stroke-width:1.0;" width="6" x="511.5" y="951.5234"/><text fill="#000000" font-family="sans-serif" font-size="14" lengthAdjust="spacing" textLength="73" x="523.5" y="958.752">isEvaluated</text><rect fill="none" height="6" style="stroke:#C82930;stroke-width:1.0;" width="6" x="511.5" y="969.1328"/><text fill="#000000" font-family="sans-serif" font-size="14" lengthAdjust="spacing" textLength="83" x="523.5" y="976.3613">studentName</text><rect fill="none" height="6" style="stroke:#C82930;stroke-width:1.0;" width="6" x="511.5" y="986.7422"/><text fill="#000000" font-family="sans-serif" font-size="14" lengthAdjust="spacing" textLength="78" x="523.5" y="993.9707">createdDate</text><rect fill="none" height="6" style="stroke:#C82930;stroke-width:1.0;" width="6" x="511.5" y="1004.3516"/><text fill="#000000" font-family="sans-serif" font-size="14" lengthAdjust="spacing" textLength="92" x="523.5" y="1011.5801">evaluatedDate</text><line style="stroke:#181818;stroke-width:0.5;" x1="504.5" x2="620.5" y1="1018.6563" y2="1018.6563"/></g><!--MD5=[46bd26b9d192b770379839f45ce3e013]
class MultipleChoiceQuestion--><g id="elem_MultipleChoiceQuestion"><rect codeLine="85" fill="#F1F1F1" height="83.2188" id="MultipleChoiceQuestion" rx="2.5" ry="2.5" style="stroke:#181818;stroke-width:0.5;" width="261" x="7" y="908.5"/><ellipse cx="58.75" cy="924.5" fill="#ADD1B2" rx="11" ry="11" style="stroke:#181818;stroke-width:1.0;"/><path d="M61.5156,920.375 Q61.6719,920.1563 61.8594,920.0469 Q62.0469,919.9375 62.2656,919.9375 Q62.6406,919.9375 62.875,920.2031 Q63.1094,920.4531 63.1094,921.0625 L63.1094,922.5156 Q63.1094,923.125 62.875,923.3906 Q62.6406,923.6563 62.2656,923.6563 Q61.9219,923.6563 61.7188,923.4531 Q61.5156,923.2656 61.4063,922.75 Q61.3594,922.3906 61.1719,922.2031 Q60.8438,921.8281 60.2344,921.6094 Q59.625,921.3906 59,921.3906 Q58.2344,921.3906 57.5938,921.7188 Q56.9688,922.0469 56.4688,922.7969 Q55.9844,923.5469 55.9844,924.5781 L55.9844,925.6719 Q55.9844,926.9063 56.875,927.7344 Q57.7656,928.5469 59.3594,928.5469 Q60.2969,928.5469 60.9531,928.2969 Q61.3438,928.1406 61.7656,927.7031 Q62.0313,927.4375 62.1719,927.3594 Q62.3281,927.2813 62.5313,927.2813 Q62.8594,927.2813 63.1094,927.5469 Q63.375,927.7969 63.375,928.1406 Q63.375,928.4844 63.0313,928.8906 Q62.5313,929.4688 61.7344,929.7969 Q60.6563,930.25 59.3594,930.25 Q57.8438,930.25 56.6406,929.625 Q55.6563,929.125 54.9688,928.0625 Q54.2813,926.9844 54.2813,925.7031 L54.2813,924.5469 Q54.2813,923.2188 54.8906,922.0781 Q55.5156,920.9219 56.6094,920.3125 Q57.7031,919.6875 58.9375,919.6875 Q59.6719,919.6875 60.3125,919.8594 Q60.9688,920.0156 61.5156,920.375 Z " fill="#000000"/><text fill="#000000" font-family="sans-serif" font-size="14" lengthAdjust="spacing" textLength="149" x="79.25" y="930.2285">MultipleChoiceQuestion</text><line style="stroke:#181818;stroke-width:0.5;" x1="8" x2="267" y1="940.5" y2="940.5"/><line style="stroke:#181818;stroke-width:0.5;" x1="8" x2="267" y1="948.5" y2="948.5"/><ellipse cx="18" cy="962.8047" fill="#84BE84" rx="3" ry="3" style="stroke:#038048;stroke-width:1.0;"/><text fill="#000000" font-family="sans-serif" font-size="14" lengthAdjust="spacing" textLength="216" x="27" y="967.0332">addAnswer(new SelectedOption())</text><ellipse cx="18" cy="980.4141" fill="#84BE84" rx="3" ry="3" style="stroke:#038048;stroke-width:1.0;"/><text fill="#000000" font-family="sans-serif" font-size="14" lengthAdjust="spacing" textLength="235" x="27" y="984.6426">setOptions(&lt;StatementImplementor&gt;)</text></g><!--MD5=[c5be3d7e9ffcf6502258095b57411394]
class OpenQuestion--><g id="elem_OpenQuestion"><rect codeLine="90" fill="#F1F1F1" height="83.2188" id="OpenQuestion" rx="2.5" ry="2.5" style="stroke:#181818;stroke-width:0.5;" width="292" x="656.5" y="908.5"/><ellipse cx="752.25" cy="924.5" fill="#ADD1B2" rx="11" ry="11" style="stroke:#181818;stroke-width:1.0;"/><path d="M755.0156,920.375 Q755.1719,920.1563 755.3594,920.0469 Q755.5469,919.9375 755.7656,919.9375 Q756.1406,919.9375 756.375,920.2031 Q756.6094,920.4531 756.6094,921.0625 L756.6094,922.5156 Q756.6094,923.125 756.375,923.3906 Q756.1406,923.6563 755.7656,923.6563 Q755.4219,923.6563 755.2188,923.4531 Q755.0156,923.2656 754.9063,922.75 Q754.8594,922.3906 754.6719,922.2031 Q754.3438,921.8281 753.7344,921.6094 Q753.125,921.3906 752.5,921.3906 Q751.7344,921.3906 751.0938,921.7188 Q750.4688,922.0469 749.9688,922.7969 Q749.4844,923.5469 749.4844,924.5781 L749.4844,925.6719 Q749.4844,926.9063 750.375,927.7344 Q751.2656,928.5469 752.8594,928.5469 Q753.7969,928.5469 754.4531,928.2969 Q754.8438,928.1406 755.2656,927.7031 Q755.5313,927.4375 755.6719,927.3594 Q755.8281,927.2813 756.0313,927.2813 Q756.3594,927.2813 756.6094,927.5469 Q756.875,927.7969 756.875,928.1406 Q756.875,928.4844 756.5313,928.8906 Q756.0313,929.4688 755.2344,929.7969 Q754.1563,930.25 752.8594,930.25 Q751.3438,930.25 750.1406,929.625 Q749.1563,929.125 748.4688,928.0625 Q747.7813,926.9844 747.7813,925.7031 L747.7813,924.5469 Q747.7813,923.2188 748.3906,922.0781 Q749.0156,920.9219 750.1094,920.3125 Q751.2031,919.6875 752.4375,919.6875 Q753.1719,919.6875 753.8125,919.8594 Q754.4688,920.0156 755.0156,920.375 Z " fill="#000000"/><text fill="#000000" font-family="sans-serif" font-size="14" lengthAdjust="spacing" textLength="92" x="772.75" y="930.2285">OpenQuestion</text><line style="stroke:#181818;stroke-width:0.5;" x1="657.5" x2="947.5" y1="940.5" y2="940.5"/><line style="stroke:#181818;stroke-width:0.5;" x1="657.5" x2="947.5" y1="948.5" y2="948.5"/><ellipse cx="667.5" cy="962.8047" fill="#84BE84" rx="3" ry="3" style="stroke:#038048;stroke-width:1.0;"/><text fill="#000000" font-family="sans-serif" font-size="14" lengthAdjust="spacing" textLength="200" x="676.5" y="967.0332">addAnswer(new OpenAnswer())</text><ellipse cx="667.5" cy="980.4141" fill="#84BE84" rx="3" ry="3" style="stroke:#038048;stroke-width:1.0;"/><text fill="#000000" font-family="sans-serif" font-size="14" lengthAdjust="spacing" textLength="266" x="676.5" y="984.6426">addToSolutions(&lt;StatementImplementor&gt;)</text></g><!--MD5=[b07065dfc0d0e09965ec10bfc328bb3e]
class Option--><g id="elem_Option"><rect codeLine="95" fill="#F1F1F1" height="48" id="Option" rx="2.5" ry="2.5" style="stroke:#181818;stroke-width:0.5;" width="74" x="82.5" y="1123"/><ellipse cx="97.5" cy="1139" fill="#ADD1B2" rx="11" ry="11" style="stroke:#181818;stroke-width:1.0;"/><path d="M100.2656,1134.875 Q100.4219,1134.6563 100.6094,1134.5469 Q100.7969,1134.4375 101.0156,1134.4375 Q101.3906,1134.4375 101.625,1134.7031 Q101.8594,1134.9531 101.8594,1135.5625 L101.8594,1137.0156 Q101.8594,1137.625 101.625,1137.8906 Q101.3906,1138.1563 101.0156,1138.1563 Q100.6719,1138.1563 100.4688,1137.9531 Q100.2656,1137.7656 100.1563,1137.25 Q100.1094,1136.8906 99.9219,1136.7031 Q99.5938,1136.3281 98.9844,1136.1094 Q98.375,1135.8906 97.75,1135.8906 Q96.9844,1135.8906 96.3438,1136.2188 Q95.7188,1136.5469 95.2188,1137.2969 Q94.7344,1138.0469 94.7344,1139.0781 L94.7344,1140.1719 Q94.7344,1141.4063 95.625,1142.2344 Q96.5156,1143.0469 98.1094,1143.0469 Q99.0469,1143.0469 99.7031,1142.7969 Q100.0938,1142.6406 100.5156,1142.2031 Q100.7813,1141.9375 100.9219,1141.8594 Q101.0781,1141.7813 101.2813,1141.7813 Q101.6094,1141.7813 101.8594,1142.0469 Q102.125,1142.2969 102.125,1142.6406 Q102.125,1142.9844 101.7813,1143.3906 Q101.2813,1143.9688 100.4844,1144.2969 Q99.4063,1144.75 98.1094,1144.75 Q96.5938,1144.75 95.3906,1144.125 Q94.4063,1143.625 93.7188,1142.5625 Q93.0313,1141.4844 93.0313,1140.2031 L93.0313,1139.0469 Q93.0313,1137.7188 93.6406,1136.5781 Q94.2656,1135.4219 95.3594,1134.8125 Q96.4531,1134.1875 97.6875,1134.1875 Q98.4219,1134.1875 99.0625,1134.3594 Q99.7188,1134.5156 100.2656,1134.875 Z " fill="#000000"/><text fill="#000000" font-family="sans-serif" font-size="14" lengthAdjust="spacing" textLength="42" x="111.5" y="1144.7285">Option</text><line style="stroke:#181818;stroke-width:0.5;" x1="83.5" x2="155.5" y1="1155" y2="1155"/><line style="stroke:#181818;stroke-width:0.5;" x1="83.5" x2="155.5" y1="1163" y2="1163"/></g><!--MD5=[bc629657279eaa9349f412646650f2c5]
class Correct--><g id="elem_Correct"><rect codeLine="97" fill="#F1F1F1" height="48" id="Correct" rx="2.5" ry="2.5" style="stroke:#181818;stroke-width:0.5;" width="79" x="152" y="1319"/><ellipse cx="167" cy="1335" fill="#ADD1B2" rx="11" ry="11" style="stroke:#181818;stroke-width:1.0;"/><path d="M169.7656,1330.875 Q169.9219,1330.6563 170.1094,1330.5469 Q170.2969,1330.4375 170.5156,1330.4375 Q170.8906,1330.4375 171.125,1330.7031 Q171.3594,1330.9531 171.3594,1331.5625 L171.3594,1333.0156 Q171.3594,1333.625 171.125,1333.8906 Q170.8906,1334.1563 170.5156,1334.1563 Q170.1719,1334.1563 169.9688,1333.9531 Q169.7656,1333.7656 169.6563,1333.25 Q169.6094,1332.8906 169.4219,1332.7031 Q169.0938,1332.3281 168.4844,1332.1094 Q167.875,1331.8906 167.25,1331.8906 Q166.4844,1331.8906 165.8438,1332.2188 Q165.2188,1332.5469 164.7188,1333.2969 Q164.2344,1334.0469 164.2344,1335.0781 L164.2344,1336.1719 Q164.2344,1337.4063 165.125,1338.2344 Q166.0156,1339.0469 167.6094,1339.0469 Q168.5469,1339.0469 169.2031,1338.7969 Q169.5938,1338.6406 170.0156,1338.2031 Q170.2813,1337.9375 170.4219,1337.8594 Q170.5781,1337.7813 170.7813,1337.7813 Q171.1094,1337.7813 171.3594,1338.0469 Q171.625,1338.2969 171.625,1338.6406 Q171.625,1338.9844 171.2813,1339.3906 Q170.7813,1339.9688 169.9844,1340.2969 Q168.9063,1340.75 167.6094,1340.75 Q166.0938,1340.75 164.8906,1340.125 Q163.9063,1339.625 163.2188,1338.5625 Q162.5313,1337.4844 162.5313,1336.2031 L162.5313,1335.0469 Q162.5313,1333.7188 163.1406,1332.5781 Q163.7656,1331.4219 164.8594,1330.8125 Q165.9531,1330.1875 167.1875,1330.1875 Q167.9219,1330.1875 168.5625,1330.3594 Q169.2188,1330.5156 169.7656,1330.875 Z " fill="#000000"/><text fill="#000000" font-family="sans-serif" font-size="14" lengthAdjust="spacing" textLength="47" x="181" y="1340.7285">Correct</text><line style="stroke:#181818;stroke-width:0.5;" x1="153" x2="230" y1="1351" y2="1351"/><line style="stroke:#181818;stroke-width:0.5;" x1="153" x2="230" y1="1359" y2="1359"/></g><!--MD5=[37923dc032bbfca87d4413e584fa2cda]
class Incorrect--><g id="elem_Incorrect"><rect codeLine="99" fill="#F1F1F1" height="48" id="Incorrect" rx="2.5" ry="2.5" style="stroke:#181818;stroke-width:0.5;" width="87" x="18" y="1319"/><ellipse cx="33" cy="1335" fill="#ADD1B2" rx="11" ry="11" style="stroke:#181818;stroke-width:1.0;"/><path d="M35.7656,1330.875 Q35.9219,1330.6563 36.1094,1330.5469 Q36.2969,1330.4375 36.5156,1330.4375 Q36.8906,1330.4375 37.125,1330.7031 Q37.3594,1330.9531 37.3594,1331.5625 L37.3594,1333.0156 Q37.3594,1333.625 37.125,1333.8906 Q36.8906,1334.1563 36.5156,1334.1563 Q36.1719,1334.1563 35.9688,1333.9531 Q35.7656,1333.7656 35.6563,1333.25 Q35.6094,1332.8906 35.4219,1332.7031 Q35.0938,1332.3281 34.4844,1332.1094 Q33.875,1331.8906 33.25,1331.8906 Q32.4844,1331.8906 31.8438,1332.2188 Q31.2188,1332.5469 30.7188,1333.2969 Q30.2344,1334.0469 30.2344,1335.0781 L30.2344,1336.1719 Q30.2344,1337.4063 31.125,1338.2344 Q32.0156,1339.0469 33.6094,1339.0469 Q34.5469,1339.0469 35.2031,1338.7969 Q35.5938,1338.6406 36.0156,1338.2031 Q36.2813,1337.9375 36.4219,1337.8594 Q36.5781,1337.7813 36.7813,1337.7813 Q37.1094,1337.7813 37.3594,1338.0469 Q37.625,1338.2969 37.625,1338.6406 Q37.625,1338.9844 37.2813,1339.3906 Q36.7813,1339.9688 35.9844,1340.2969 Q34.9063,1340.75 33.6094,1340.75 Q32.0938,1340.75 30.8906,1340.125 Q29.9063,1339.625 29.2188,1338.5625 Q28.5313,1337.4844 28.5313,1336.2031 L28.5313,1335.0469 Q28.5313,1333.7188 29.1406,1332.5781 Q29.7656,1331.4219 30.8594,1330.8125 Q31.9531,1330.1875 33.1875,1330.1875 Q33.9219,1330.1875 34.5625,1330.3594 Q35.2188,1330.5156 35.7656,1330.875 Z " fill="#000000"/><text fill="#000000" font-family="sans-serif" font-size="14" lengthAdjust="spacing" textLength="55" x="47" y="1340.7285">Incorrect</text><line style="stroke:#181818;stroke-width:0.5;" x1="19" x2="104" y1="1351" y2="1351"/><line style="stroke:#181818;stroke-width:0.5;" x1="19" x2="104" y1="1359" y2="1359"/></g><!--MD5=[54a8e627be4ee6aab370a2a8960cc8d7]
class OpenAnswer--><g id="elem_OpenAnswer"><rect codeLine="101" fill="#F1F1F1" height="83.2188" id="OpenAnswer" rx="2.5" ry="2.5" style="stroke:#181818;stroke-width:0.5;" width="113" x="506" y="1105.5"/><ellipse cx="521" cy="1121.5" fill="#ADD1B2" rx="11" ry="11" style="stroke:#181818;stroke-width:1.0;"/><path d="M523.7656,1117.375 Q523.9219,1117.1563 524.1094,1117.0469 Q524.2969,1116.9375 524.5156,1116.9375 Q524.8906,1116.9375 525.125,1117.2031 Q525.3594,1117.4531 525.3594,1118.0625 L525.3594,1119.5156 Q525.3594,1120.125 525.125,1120.3906 Q524.8906,1120.6563 524.5156,1120.6563 Q524.1719,1120.6563 523.9688,1120.4531 Q523.7656,1120.2656 523.6563,1119.75 Q523.6094,1119.3906 523.4219,1119.2031 Q523.0938,1118.8281 522.4844,1118.6094 Q521.875,1118.3906 521.25,1118.3906 Q520.4844,1118.3906 519.8438,1118.7188 Q519.2188,1119.0469 518.7188,1119.7969 Q518.2344,1120.5469 518.2344,1121.5781 L518.2344,1122.6719 Q518.2344,1123.9063 519.125,1124.7344 Q520.0156,1125.5469 521.6094,1125.5469 Q522.5469,1125.5469 523.2031,1125.2969 Q523.5938,1125.1406 524.0156,1124.7031 Q524.2813,1124.4375 524.4219,1124.3594 Q524.5781,1124.2813 524.7813,1124.2813 Q525.1094,1124.2813 525.3594,1124.5469 Q525.625,1124.7969 525.625,1125.1406 Q525.625,1125.4844 525.2813,1125.8906 Q524.7813,1126.4688 523.9844,1126.7969 Q522.9063,1127.25 521.6094,1127.25 Q520.0938,1127.25 518.8906,1126.625 Q517.9063,1126.125 517.2188,1125.0625 Q516.5313,1123.9844 516.5313,1122.7031 L516.5313,1121.5469 Q516.5313,1120.2188 517.1406,1119.0781 Q517.7656,1117.9219 518.8594,1117.3125 Q519.9531,1116.6875 521.1875,1116.6875 Q521.9219,1116.6875 522.5625,1116.8594 Q523.2188,1117.0156 523.7656,1117.375 Z " fill="#000000"/><text fill="#000000" font-family="sans-serif" font-size="14" lengthAdjust="spacing" textLength="81" x="535" y="1127.2285">OpenAnswer</text><line style="stroke:#181818;stroke-width:0.5;" x1="507" x2="618" y1="1137.5" y2="1137.5"/><rect fill="none" height="6" style="stroke:#C82930;stroke-width:1.0;" width="6" x="514" y="1148.8047"/><text fill="#000000" font-family="sans-serif" font-size="14" lengthAdjust="spacing" textLength="47" x="526" y="1156.0332">content</text><rect fill="none" height="6" style="stroke:#C82930;stroke-width:1.0;" width="6" x="514" y="1166.4141"/><text fill="#000000" font-family="sans-serif" font-size="14" lengthAdjust="spacing" textLength="78" x="526" y="1173.6426">evaluatedBy</text><line style="stroke:#181818;stroke-width:0.5;" x1="507" x2="618" y1="1180.7188" y2="1180.7188"/></g><!--MD5=[bed984ae8b00ce24eb0f64fea27a6507]
class SelectedOption--><g id="elem_SelectedOption"><rect codeLine="106" fill="#F1F1F1" height="48" id="SelectedOption" rx="2.5" ry="2.5" style="stroke:#181818;stroke-width:0.5;" width="129" x="263" y="1123"/><ellipse cx="278" cy="1139" fill="#ADD1B2" rx="11" ry="11" style="stroke:#181818;stroke-width:1.0;"/><path d="M280.7656,1134.875 Q280.9219,1134.6563 281.1094,1134.5469 Q281.2969,1134.4375 281.5156,1134.4375 Q281.8906,1134.4375 282.125,1134.7031 Q282.3594,1134.9531 282.3594,1135.5625 L282.3594,1137.0156 Q282.3594,1137.625 282.125,1137.8906 Q281.8906,1138.1563 281.5156,1138.1563 Q281.1719,1138.1563 280.9688,1137.9531 Q280.7656,1137.7656 280.6563,1137.25 Q280.6094,1136.8906 280.4219,1136.7031 Q280.0938,1136.3281 279.4844,1136.1094 Q278.875,1135.8906 278.25,1135.8906 Q277.4844,1135.8906 276.8438,1136.2188 Q276.2188,1136.5469 275.7188,1137.2969 Q275.2344,1138.0469 275.2344,1139.0781 L275.2344,1140.1719 Q275.2344,1141.4063 276.125,1142.2344 Q277.0156,1143.0469 278.6094,1143.0469 Q279.5469,1143.0469 280.2031,1142.7969 Q280.5938,1142.6406 281.0156,1142.2031 Q281.2813,1141.9375 281.4219,1141.8594 Q281.5781,1141.7813 281.7813,1141.7813 Q282.1094,1141.7813 282.3594,1142.0469 Q282.625,1142.2969 282.625,1142.6406 Q282.625,1142.9844 282.2813,1143.3906 Q281.7813,1143.9688 280.9844,1144.2969 Q279.9063,1144.75 278.6094,1144.75 Q277.0938,1144.75 275.8906,1144.125 Q274.9063,1143.625 274.2188,1142.5625 Q273.5313,1141.4844 273.5313,1140.2031 L273.5313,1139.0469 Q273.5313,1137.7188 274.1406,1136.5781 Q274.7656,1135.4219 275.8594,1134.8125 Q276.9531,1134.1875 278.1875,1134.1875 Q278.9219,1134.1875 279.5625,1134.3594 Q280.2188,1134.5156 280.7656,1134.875 Z " fill="#000000"/><text fill="#000000" font-family="sans-serif" font-size="14" lengthAdjust="spacing" textLength="97" x="292" y="1144.7285">SelectedOption</text><line style="stroke:#181818;stroke-width:0.5;" x1="264" x2="391" y1="1155" y2="1155"/><line style="stroke:#181818;stroke-width:0.5;" x1="264" x2="391" y1="1163" y2="1163"/></g><!--MD5=[b355d11dc5a9142e22f9a644da54834e]
class Explication--><g id="elem_Explication"><rect fill="#F1F1F1" height="48" id="Explication" rx="2.5" ry="2.5" style="stroke:#181818;stroke-width:0.5;" width="99" x="1094" y="1480"/><ellipse cx="1109" cy="1496" fill="#ADD1B2" rx="11" ry="11" style="stroke:#181818;stroke-width:1.0;"/><path d="M1111.7656,1491.875 Q1111.9219,1491.6563 1112.1094,1491.5469 Q1112.2969,1491.4375 1112.5156,1491.4375 Q1112.8906,1491.4375 1113.125,1491.7031 Q1113.3594,1491.9531 1113.3594,1492.5625 L1113.3594,1494.0156 Q1113.3594,1494.625 1113.125,1494.8906 Q1112.8906,1495.1563 1112.5156,1495.1563 Q1112.1719,1495.1563 1111.9688,1494.9531 Q1111.7656,1494.7656 1111.6563,1494.25 Q1111.6094,1493.8906 1111.4219,1493.7031 Q1111.0938,1493.3281 1110.4844,1493.1094 Q1109.875,1492.8906 1109.25,1492.8906 Q1108.4844,1492.8906 1107.8438,1493.2188 Q1107.2188,1493.5469 1106.7188,1494.2969 Q1106.2344,1495.0469 1106.2344,1496.0781 L1106.2344,1497.1719 Q1106.2344,1498.4063 1107.125,1499.2344 Q1108.0156,1500.0469 1109.6094,1500.0469 Q1110.5469,1500.0469 1111.2031,1499.7969 Q1111.5938,1499.6406 1112.0156,1499.2031 Q1112.2813,1498.9375 1112.4219,1498.8594 Q1112.5781,1498.7813 1112.7813,1498.7813 Q1113.1094,1498.7813 1113.3594,1499.0469 Q1113.625,1499.2969 1113.625,1499.6406 Q1113.625,1499.9844 1113.2813,1500.3906 Q1112.7813,1500.9688 1111.9844,1501.2969 Q1110.9063,1501.75 1109.6094,1501.75 Q1108.0938,1501.75 1106.8906,1501.125 Q1105.9063,1500.625 1105.2188,1499.5625 Q1104.5313,1498.4844 1104.5313,1497.2031 L1104.5313,1496.0469 Q1104.5313,1494.7188 1105.1406,1493.5781 Q1105.7656,1492.4219 1106.8594,1491.8125 Q1107.9531,1491.1875 1109.1875,1491.1875 Q1109.9219,1491.1875 1110.5625,1491.3594 Q1111.2188,1491.5156 1111.7656,1491.875 Z " fill="#000000"/><text fill="#000000" font-family="sans-serif" font-size="14" lengthAdjust="spacing" textLength="67" x="1123" y="1501.7285">Explication</text><line style="stroke:#181818;stroke-width:0.5;" x1="1095" x2="1192" y1="1512" y2="1512"/><line style="stroke:#181818;stroke-width:0.5;" x1="1095" x2="1192" y1="1520" y2="1520"/></g><!--MD5=[8235d596e40eaa310e25cb7e3d92ec72]
reverse link Community to User--><g id="link_Community_User"><path codeLine="110" d="M935.72,67.13 C928.05,82.29 919.03,100.13 911.07,115.86 " fill="none" id="Community-backto-User" style="stroke:#181818;stroke-width:1.0;"/><polygon fill="#181818" points="941.8,55.13,935.5215,58.6769,936.3808,65.8366,942.6593,62.2897,941.8,55.13" style="stroke:#181818;stroke-width:1.0;"/><text fill="#000000" font-family="sans-serif" font-size="13" lengthAdjust="spacing" textLength="22" x="890.655" y="105.1445">2..n</text></g><!--MD5=[8b55897a5ea9705e017b96a45c367fde]
reverse link Community to Category--><g id="link_Community_Category"><path codeLine="111" d="M980.39,65.73 C996.74,89.64 1014.5,123.25 1014.5,156.5 C1014.5,156.5 1014.5,156.5 1014.5,421 C1014.5,451.8 1014.97,486.35 1015.46,513.71 " fill="none" id="Community-backto-Category" style="stroke:#181818;stroke-width:1.0;"/><polygon fill="none" points="972.8,55.15,973.0463,62.3569,979.7936,64.9014,979.5473,57.6945,972.8,55.15" style="stroke:#181818;stroke-width:1.0;"/><text fill="#000000" font-family="sans-serif" font-size="13" lengthAdjust="spacing" textLength="22" x="991.7669" y="502.9746">0..n</text></g><!--MD5=[c98fdacbcd4eb224c2d9d26b53646e58]
reverse link Category to Category--><g id="link_Category_Category"><path codeLine="113" d="M1087.47,550.38 C1100.15,552.22 1109,556.92 1109,564.5 C1109,574.5 1093.58,579.5 1074.31,579.5 " fill="none" id="Category-backto-Category" style="stroke:#181818;stroke-width:1.0;"/><polygon fill="none" points="1074.31,549.5,1080.0284,553.8932,1086.283,550.3044,1080.5646,545.9112,1074.31,549.5" style="stroke:#181818;stroke-width:1.0;"/><text fill="#000000" font-family="sans-serif" font-size="13" lengthAdjust="spacing" textLength="83" x="1115" y="569.9951">Subcategories</text><text fill="#000000" font-family="sans-serif" font-size="13" lengthAdjust="spacing" textLength="22" x="1081.8361" y="577.7894">0..n</text></g><!--MD5=[d87c224b488f6c9759d0a77cb4053101]
reverse link User to Teacher--><g id="link_User_Teacher"><path codeLine="115" d="M890.5,219.29 C890.5,233.32 890.5,247.7 890.5,259.93 " fill="none" id="User-backto-Teacher" style="stroke:#181818;stroke-width:1.0;"/><polygon fill="none" points="883.5,219.28,890.5,199.28,897.5,219.28,883.5,219.28" style="stroke:#181818;stroke-width:1.0;"/></g><!--MD5=[29fe19ce294944fa80f389ae9bd987a4]
reverse link User to Student--><g id="link_User_Student"><path codeLine="116" d="M832.4,213.12 C811.67,232.61 789.42,253.53 773.05,268.92 " fill="none" id="User-backto-Student" style="stroke:#181818;stroke-width:1.0;"/><polygon fill="none" points="827.76,207.88,847.12,199.28,837.35,218.08,827.76,207.88" style="stroke:#181818;stroke-width:1.0;"/></g><!--MD5=[a8afb83bcf8ff3e1e4f8554b4cb258ee]
link Teacher to Concept--><g id="link_Teacher_Concept"><path codeLine="118" d="M896.51,326.25 C900.69,351.41 905.5,387.31 905.5,419 C905.5,419 905.5,419 905.5,745 C905.5,776.54 951.58,839.04 990.87,886.59 " fill="none" id="Teacher-to-Concept" style="stroke:#181818;stroke-width:1.0;stroke-dasharray:7.0,7.0;"/><polygon fill="#181818" points="994.16,890.56,991.4955,881.0784,990.9689,886.7107,985.3367,886.1841,994.16,890.56" style="stroke:#181818;stroke-width:1.0;"/></g><!--MD5=[338c593997b7e5d530c3a07b33e0a9dd]
reverse link Category to Concept--><g id="link_Category_Concept"><path codeLine="119" d="M1085.1,604.03 C1110.56,622.25 1136.6,646.53 1150.5,676 C1176.28,730.67 1169.91,754.76 1150.5,812 C1140.78,840.66 1122.39,868.03 1103.67,890.67 " fill="none" id="Category-backto-Concept" style="stroke:#181818;stroke-width:1.0;"/><polygon fill="none" points="1074.27,596.59,1076.9519,603.2838,1084.1623,603.3827,1081.4804,596.6889,1074.27,596.59" style="stroke:#181818;stroke-width:1.0;"/><text fill="#000000" font-family="sans-serif" font-size="13" lengthAdjust="spacing" textLength="22" x="1087.4188" y="879.954">0..n</text></g><!--MD5=[be86f0f0d8c7a6763b3fe4655a4ceaae]
reverse link Category to Question--><g id="link_Category_Question"><path codeLine="120" d="M947.8,608.59 C915.6,628.78 876.49,653.32 840.53,675.87 " fill="none" id="Category-backto-Question" style="stroke:#181818;stroke-width:1.0;"/><polygon fill="none" points="958.89,601.63,951.6818,601.4256,948.7207,608.0007,955.9289,608.2051,958.89,601.63" style="stroke:#181818;stroke-width:1.0;"/><text fill="#000000" font-family="sans-serif" font-size="13" lengthAdjust="spacing" textLength="26" x="824.8145" y="665.0551">0..m</text></g><!--MD5=[074ce40d5b18530ff145870ab80c27fe]
reverse link StatementImplementor to Concept--><g id="link_StatementImplementor_Concept"><path codeLine="121" d="M1045.5,816.39 C1045.5,840.7 1045.5,867.58 1045.5,890.74 " fill="none" id="StatementImplementor-backto-Concept" style="stroke:#181818;stroke-width:1.0;"/><polygon fill="#181818" points="1045.5,803.19,1041.5,809.19,1045.5,815.19,1049.5,809.19,1045.5,803.19" style="stroke:#181818;stroke-width:1.0;"/></g><!--MD5=[543bb2115b5a10697a67507a00f6a2f4]
reverse link Concept to Definition--><g id="link_Concept_Definition"><path codeLine="122" d="M1080.75,1021.14 C1091.72,1042.97 1103.69,1066.79 1114.21,1087.72 " fill="none" id="Concept-backto-Definition" style="stroke:#181818;stroke-width:1.0;"/><polygon fill="none" points="1074.77,1009.24,1073.8932,1016.3976,1080.1629,1019.9599,1081.0398,1012.8023,1074.77,1009.24" style="stroke:#181818;stroke-width:1.0;"/><text fill="#000000" font-family="sans-serif" font-size="13" lengthAdjust="spacing" textLength="15" x="1094.7262" y="1077.0101">0..</text></g><!--MD5=[38796b68b5180f699f927fbe8d179b6a]
reverse link Definition to Justification--><g id="link_Definition_Justification"><path codeLine="123" d="M1143.5,1219.48 C1143.5,1240.67 1143.5,1263.6 1143.5,1283.83 " fill="none" id="Definition-backto-Justification" style="stroke:#181818;stroke-width:1.0;"/><polygon fill="none" points="1143.5,1206.21,1139.5,1212.21,1143.5,1218.21,1147.5,1212.21,1143.5,1206.21" style="stroke:#181818;stroke-width:1.0;"/><text fill="#000000" font-family="sans-serif" font-size="13" lengthAdjust="spacing" textLength="77" x="1144.5" y="1250.4951">isFake = true</text><text fill="#000000" font-family="sans-serif" font-size="13" lengthAdjust="spacing" textLength="26" x="1115.9156" y="1273.1335">0..m</text></g><!--MD5=[5b13a3dd25e80832e08dfc192ea141c9]
reverse link Justification to Explication--><g id="link_Justification_Explication"><path codeLine="124" d="M1143.5,1415.46 C1143.5,1438.74 1143.5,1462.94 1143.5,1479.99 " fill="none" id="Justification-backto-Explication" style="stroke:#181818;stroke-width:1.0;"/><polygon fill="none" points="1143.5,1402.3,1139.5,1408.3,1143.5,1414.3,1147.5,1408.3,1143.5,1402.3" style="stroke:#181818;stroke-width:1.0;"/><text fill="#000000" font-family="sans-serif" font-size="13" lengthAdjust="spacing" textLength="77" x="1144.5" y="1446.4951">isFake = true</text></g><!--MD5=[54f9360500e0fd532969fc16f437bbea]
reverse link Concept to Relation--><g id="link_Concept_Relation"><path codeLine="125" d="M1028.41,1021.89 C1022.47,1046.56 1015.93,1073.7 1010.48,1096.29 " fill="none" id="Concept-backto-Relation" style="stroke:#181818;stroke-width:1.0;"/><polygon fill="none" points="1031.46,1009.24,1026.1618,1014.1318,1028.6396,1020.9038,1033.9377,1016.0121,1031.46,1009.24" style="stroke:#181818;stroke-width:1.0;"/><text fill="#000000" font-family="sans-serif" font-size="13" lengthAdjust="spacing" textLength="26" x="984.3366" y="1085.5658">0..m</text></g><!--MD5=[a87ccfb1ad401ebc9457283edda68da5]
link Student to Evaluation--><g id="link_Student_Evaluation"><path codeLine="127" d="M745.71,317.22 C743.54,335.31 740.48,360.79 737.97,381.73 " fill="none" id="Student-to-Evaluation" style="stroke:#181818;stroke-width:1.0;"/><polygon fill="#181818" points="737.35,386.95,742.3996,378.4941,737.9491,381.986,734.4572,377.5356,737.35,386.95" style="stroke:#181818;stroke-width:1.0;"/><text fill="#000000" font-family="sans-serif" font-size="13" lengthAdjust="spacing" textLength="22" x="713.8753" y="376.0551">0..n</text></g><!--MD5=[7ea0c49f743e358ac875b85df2ad47d3]
link Evaluation to Test--><g id="link_Evaluation_Test"><path codeLine="128" d="M733.5,453.34 C733.5,472.34 733.5,496.66 733.5,517.62 " fill="none" id="Evaluation-to-Test" style="stroke:#181818;stroke-width:1.0;"/><polygon fill="#181818" points="733.5,522.87,737.5,513.87,733.5,517.87,729.5,513.87,733.5,522.87" style="stroke:#181818;stroke-width:1.0;"/></g><!--MD5=[67b6cc77f9c51a9ece6c1301ad2aff24]
link Teacher to Evaluation--><g id="link_Teacher_Evaluation"><path codeLine="130" d="M850.07,326.19 C828,343.76 800.64,365.55 777.97,383.59 " fill="none" id="Teacher-to-Evaluation" style="stroke:#181818;stroke-width:1.0;stroke-dasharray:7.0,7.0;"/><polygon fill="#181818" points="773.79,386.92,783.3188,384.4297,777.6971,383.8,778.3269,378.1783,773.79,386.92" style="stroke:#181818;stroke-width:1.0;"/></g><!--MD5=[f64dc83838b757ef1728d7fab5cb079d]
link Evaluation to OpenAnswer--><g id="link_Evaluation_OpenAnswer"><path codeLine="135" d="M684.21,423.93 C603.12,431.71 450.5,460.08 450.5,563.5 C450.5,563.5 450.5,563.5 450.5,951 C450.5,1008.44 487.5,1064.27 518.97,1101.37 " fill="none" id="Evaluation-to-OpenAnswer" style="stroke:#181818;stroke-width:1.0;stroke-dasharray:7.0,7.0;"/><polygon fill="#181818" points="522.38,1105.35,519.5423,1095.9188,519.119,1101.5598,513.478,1101.1364,522.38,1105.35" style="stroke:#181818;stroke-width:1.0;"/><text fill="#000000" font-family="sans-serif" font-size="13" lengthAdjust="spacing" textLength="127" x="451.5" y="749.4951">manual (! isEvaluated)</text></g><!--MD5=[1fbef7c23275e6fc2ed02dd14078f225]
link Evaluation to SelectedOption--><g id="link_Evaluation_SelectedOption"><path codeLine="136" d="M684.21,427.43 C574.85,443.08 321.5,487.53 321.5,563.5 C321.5,563.5 321.5,563.5 321.5,951 C321.5,1010.24 324.3,1079.55 326.07,1117.52 " fill="none" id="Evaluation-to-SelectedOption" style="stroke:#181818;stroke-width:1.0;stroke-dasharray:7.0,7.0;"/><polygon fill="#181818" points="326.33,1122.89,329.9148,1113.7167,326.1017,1117.8952,321.9232,1114.0821,326.33,1122.89" style="stroke:#181818;stroke-width:1.0;"/><text fill="#000000" font-family="sans-serif" font-size="13" lengthAdjust="spacing" textLength="57" x="322.5" y="749.4951">automatic</text></g><!--MD5=[37c1e8dba486a8108983e1d119d6febb]
reverse link Test to Question--><g id="link_Test_Question"><path codeLine="138" d="M733.5,619.31 C733.5,637.07 733.5,657.05 733.5,675.68 " fill="none" id="Test-backto-Question" style="stroke:#181818;stroke-width:1.0;"/><polygon fill="#181818" points="733.5,606.22,729.5,612.22,733.5,618.22,737.5,612.22,733.5,606.22" style="stroke:#181818;stroke-width:1.0;"/><text fill="#000000" font-family="sans-serif" font-size="13" lengthAdjust="spacing" textLength="22" x="710.3656" y="665.3203">1..n</text></g><!--MD5=[5ea4867893d7a476c54f91c2252dd0f8]
reverse link Question to MultipleChoiceQuestion--><g id="link_Question_MultipleChoiceQuestion"><path codeLine="139" d="M595.33,808.98 C592.7,810.01 590.09,811.02 587.5,812 C481.76,852.15 358.72,888.96 268.05,914.28 " fill="none" id="Question-backto-MultipleChoiceQuestion" style="stroke:#181818;stroke-width:1.0;"/><polygon fill="none" points="592.98,802.38,614.14,801.34,598.24,815.35,592.98,802.38" style="stroke:#181818;stroke-width:1.0;"/></g><!--MD5=[e68d8486b151d64b61c7f5b6e40a3de9]
reverse link Question to OpenQuestion--><g id="link_Question_OpenQuestion"><path codeLine="140" d="M762.66,831.21 C771.71,857.98 781.27,886.25 788.76,908.37 " fill="none" id="Question-backto-OpenQuestion" style="stroke:#181818;stroke-width:1.0;"/><polygon fill="none" points="755.97,833.27,756.19,812.08,769.23,828.78,755.97,833.27" style="stroke:#181818;stroke-width:1.0;"/></g><!--MD5=[97481891219dae41f522c9ce6709b94d]
reverse link Question to StatementImplementor--><g id="link_Question_StatementImplementor"><path codeLine="141" d="M865.86,744 C896.74,744 927.61,744 958.48,744 " fill="none" id="Question-backto-StatementImplementor" style="stroke:#181818;stroke-width:1.0;"/><polygon fill="#181818" points="852.63,744,858.63,748,864.63,744,858.63,740,852.63,744" style="stroke:#181818;stroke-width:1.0;"/></g><!--MD5=[185adfbec1fc38ddaede86a7c2f0e161]
reverse link MultipleChoiceQuestion to Option--><g id="link_MultipleChoiceQuestion_Option"><path codeLine="142" d="M132.51,1005.05 C128.94,1043.78 124.3,1094.02 121.64,1122.87 " fill="none" id="MultipleChoiceQuestion-backto-Option" style="stroke:#181818;stroke-width:1.0;"/><polygon fill="#181818" points="133.73,991.88,129.1993,997.4901,132.6352,1003.83,137.1659,998.2199,133.73,991.88" style="stroke:#181818;stroke-width:1.0;"/><text fill="#000000" font-family="sans-serif" font-size="13" lengthAdjust="spacing" textLength="22" x="97.3696" y="1112.1768">2..n</text></g><!--MD5=[8b4b6ce4502ba24ddb3ea6e9e3ffd79d]
reverse link Option to Incorrect--><g id="link_Option_Incorrect"><path codeLine="143" d="M106.86,1190.28 C95.08,1229.68 77.94,1287 68.46,1318.71 " fill="none" id="Option-backto-Incorrect" style="stroke:#181818;stroke-width:1.0;"/><polygon fill="none" points="100.18,1188.17,112.62,1171.02,113.6,1192.18,100.18,1188.17" style="stroke:#181818;stroke-width:1.0;"/></g><!--MD5=[e9c99f228a0238815f6b3520e77f42c1]
reverse link Option to Correct--><g id="link_Option_Correct"><path codeLine="144" d="M135.09,1190 C149.72,1229.42 171.06,1286.93 182.86,1318.71 " fill="none" id="Option-backto-Correct" style="stroke:#181818;stroke-width:1.0;"/><polygon fill="none" points="128.44,1192.2,128.04,1171.02,141.56,1187.33,128.44,1192.2" style="stroke:#181818;stroke-width:1.0;"/></g><!--MD5=[af3bf499bed903ad0ed1598fcccf7b9c]
reverse link MultipleChoiceQuestion to Correct--><g id="link_MultipleChoiceQuestion_Correct"><path codeLine="145" d="M153.96,1004.25 C161.1,1029.41 168.87,1060 173.5,1088 C187.42,1172.18 190.58,1273.8 191.29,1318.72 " fill="none" id="MultipleChoiceQuestion-backto-Correct" style="stroke:#181818;stroke-width:1.0;"/><polygon fill="#181818" points="150.31,991.63,148.1433,998.5079,153.6589,1003.1532,155.8255,996.2753,150.31,991.63" style="stroke:#181818;stroke-width:1.0;"/></g><!--MD5=[c33b5950e601fddbef86daa9f7dbaee3]
reverse link MultipleChoiceQuestion to Incorrect--><g id="link_MultipleChoiceQuestion_Incorrect"><path codeLine="146" d="M102.22,1002.97 C87.54,1027.61 72.15,1058.14 64.5,1088 C43.33,1170.67 52.45,1273.48 58.16,1318.76 " fill="none" id="MultipleChoiceQuestion-backto-Incorrect" style="stroke:#181818;stroke-width:1.0;"/><polygon fill="#181818" points="109.11,991.74,102.5631,994.763,102.8355,1001.9689,109.3824,998.946,109.11,991.74" style="stroke:#181818;stroke-width:1.0;"/><text fill="#000000" font-family="sans-serif" font-size="13" lengthAdjust="spacing" textLength="22" x="32.4854" y="1308.0387">1..n</text></g><!--MD5=[a41781f1f1e8030a8e1780e035976660]
reverse link MultipleChoiceQuestion to SelectedOption--><g id="link_MultipleChoiceQuestion_SelectedOption"><path codeLine="147" d="M186.73,1001.53 C224.89,1040.69 275.99,1093.14 304.96,1122.87 " fill="none" id="MultipleChoiceQuestion-backto-SelectedOption" style="stroke:#181818;stroke-width:1.0;"/><polygon fill="none" points="177.33,991.88,178.6507,998.9691,185.7025,1000.4766,184.3818,993.3875,177.33,991.88" style="stroke:#181818;stroke-width:1.0;"/><text fill="#000000" font-family="sans-serif" font-size="13" lengthAdjust="spacing" textLength="22" x="274.3654" y="1112.1768">0..n</text></g><!--MD5=[ddd0ba9ff0adad4c5f8027dfa32b4028]
reverse link OpenQuestion to OpenAnswer--><g id="link_OpenQuestion_OpenAnswer"><path codeLine="148" d="M742.31,999.91 C702.24,1032.46 650.23,1074.72 612.46,1105.41 " fill="none" id="OpenQuestion-backto-OpenAnswer" style="stroke:#181818;stroke-width:1.0;"/><polygon fill="none" points="752.48,991.64,745.3012,992.3214,743.1691,999.2101,750.3479,998.5287,752.48,991.64" style="stroke:#181818;stroke-width:1.0;"/><text fill="#000000" font-family="sans-serif" font-size="13" lengthAdjust="spacing" textLength="22" x="596.9128" y="1094.7028">0..n</text></g><!--MD5=[5d713b1c0eb5d19b54b4791b73108c83]
reverse link Question to Answer--><g id="link_Question_Answer"><path codeLine="149" d="M668.79,822.19 C653.33,840.64 636.9,860.24 621.7,878.38 " fill="none" id="Question-backto-Answer" style="stroke:#181818;stroke-width:1.0;"/><polygon fill="none" points="677.27,812.08,670.3503,814.1091,669.5619,821.277,676.4816,819.2479,677.27,812.08" style="stroke:#181818;stroke-width:1.0;"/><text fill="#000000" font-family="sans-serif" font-size="13" lengthAdjust="spacing" textLength="22" x="629.3781" y="867.2047">0..n</text></g><!--MD5=[d836dd5f24b2050a0870c879f4cc72e6]
reverse link Answer to OpenAnswer--><g id="link_Answer_OpenAnswer"><path codeLine="150" d="M562.5,1047.46 C562.5,1067.85 562.5,1088.29 562.5,1105.23 " fill="none" id="Answer-backto-OpenAnswer" style="stroke:#181818;stroke-width:1.0;"/><polygon fill="none" points="555.5,1047.23,562.5,1027.23,569.5,1047.23,555.5,1047.23" style="stroke:#181818;stroke-width:1.0;"/></g><!--MD5=[c9991b0162c2b5928e47e95121f6f5d4]
reverse link Answer to SelectedOption--><g id="link_Answer_SelectedOption"><path codeLine="151" d="M487.72,1013.05 C442.66,1050.44 387.89,1095.89 355.47,1122.79 " fill="none" id="Answer-backto-SelectedOption" style="stroke:#181818;stroke-width:1.0;"/><polygon fill="none" points="483.34,1007.59,503.2,1000.21,492.28,1018.37,483.34,1007.59" style="stroke:#181818;stroke-width:1.0;"/></g><!--MD5=[a46e77e80ac3e32803b298d0990fc39e]
@startuml OpoTestDomain

class Community

class User {
    - username
    - categorySelected
}

class Teacher {
    -conceptSelected
}

class Student

class Evaluation {
    - result
}

class Category {
    - subcategories
    - concepts[ ]
    - questions[ ]
}

class Test {
    - questions[  ]
    + category.getAllQuestions()
}

class Concept {
    - keyword
    - fakekeywords[ ]
    - definitions[ ]
    - relations[ ]
    
}

class Definition {
    - content
    - isFake
    - createdDate
    - justifications[ ]
}

class Justification {
    - content
    - isFake
    - createdDate
    - explication
}

class Relation {
    - contents[ ]
    - isFake
    - createdDate
}

abstract class Question {
    - statementImplementor
    - statement
    - answers[ ]

    + addAnswer()
    + bool isAnsweredBy(studentName)
}

abstract class StatementImplementor {
    - concept
    - solutions

    
    + addToConcept()
    + getSolutions()
}

class Answer {
    - content
    - isOK
    - isEvaluated
    - studentName
    - createdDate
    - evaluatedDate
}

class MultipleChoiceQuestion {
    + addAnswer(new SelectedOption())
     + setOptions(<StatementImplementor>)
}

class OpenQuestion {
    + addAnswer(new OpenAnswer())
    + addToSolutions(<StatementImplementor>)
}

class Option

class Correct

Class Incorrect

class OpenAnswer {
    - content
    - evaluatedBy
}

Class SelectedOption {

}

Community *- -"2..n" User
Community o- -"0..n" Category

Category o- -"0..n" Category : Subcategories

User <|- - Teacher
User <|- - Student

Teacher ..> Concept
Category o- -"0..n" Concept
Category o- -"0..m" Question
StatementImplementor *- - Concept
Concept o- -"0.." Definition
Definition o- -"0..m" Justification: isFake = true
Justification o- - Explication: isFake = true
Concept o- -"0..m" Relation

Student - ->"0..n" Evaluation
Evaluation - -> Test

Teacher ..> Evaluation
'Definition ..> OpenAnswer :isUsefulToConcept
'Justification ..> OpenAnswer :isUsefulToConcept
'Relation ..> OpenAnswer :isUsefulToConcept

Evaluation ..> OpenAnswer : manual (! isEvaluated)
Evaluation ..> SelectedOption : automatic

Test *- -"1..n" Question
Question <|- - MultipleChoiceQuestion
Question <|- - OpenQuestion
Question *-  StatementImplementor
MultipleChoiceQuestion *- -"2..n" Option
Option <|- - Incorrect
Option <|- - Correct
MultipleChoiceQuestion *- - Correct
MultipleChoiceQuestion *- -"1..n" Incorrect
MultipleChoiceQuestion o- -"0..n" SelectedOption
OpenQuestion o- -"0..n" OpenAnswer
Question o- -"0..n" Answer
Answer <|- - OpenAnswer
Answer <|- - SelectedOption
'OpenAnswer -* "1..m<n" Solution
'StatementImplementor o- -"1..m" Solution
'Option ..> Solution

@enduml

@startuml OpoTestDomain

class Community

class User {
    - username
    - categorySelected
}

class Teacher {
    -conceptSelected
}

class Student

class Evaluation {
    - result
}

class Category {
    - subcategories
    - concepts[ ]
    - questions[ ]
}

class Test {
    - questions[  ]
    + category.getAllQuestions()
}

class Concept {
    - keyword
    - fakekeywords[ ]
    - definitions[ ]
    - relations[ ]
    
}

class Definition {
    - content
    - isFake
    - createdDate
    - justifications[ ]
}

class Justification {
    - content
    - isFake
    - createdDate
    - explication
}

class Relation {
    - contents[ ]
    - isFake
    - createdDate
}

abstract class Question {
    - statementImplementor
    - statement
    - answers[ ]

    + addAnswer()
    + bool isAnsweredBy(studentName)
}

abstract class StatementImplementor {
    - concept
    - solutions

    
    + addToConcept()
    + getSolutions()
}

class Answer {
    - content
    - isOK
    - isEvaluated
    - studentName
    - createdDate
    - evaluatedDate
}

class MultipleChoiceQuestion {
    + addAnswer(new SelectedOption())
     + setOptions(<StatementImplementor>)
}

class OpenQuestion {
    + addAnswer(new OpenAnswer())
    + addToSolutions(<StatementImplementor>)
}

class Option

class Correct

Class Incorrect

class OpenAnswer {
    - content
    - evaluatedBy
}

Class SelectedOption {

}

Community *- -"2..n" User
Community o- -"0..n" Category

Category o- -"0..n" Category : Subcategories

User <|- - Teacher
User <|- - Student

Teacher ..> Concept
Category o- -"0..n" Concept
Category o- -"0..m" Question
StatementImplementor *- - Concept
Concept o- -"0.." Definition
Definition o- -"0..m" Justification: isFake = true
Justification o- - Explication: isFake = true
Concept o- -"0..m" Relation

Student - ->"0..n" Evaluation
Evaluation - -> Test

Teacher ..> Evaluation

Evaluation ..> OpenAnswer : manual (! isEvaluated)
Evaluation ..> SelectedOption : automatic

Test *- -"1..n" Question
Question <|- - MultipleChoiceQuestion
Question <|- - OpenQuestion
Question *-  StatementImplementor
MultipleChoiceQuestion *- -"2..n" Option
Option <|- - Incorrect
Option <|- - Correct
MultipleChoiceQuestion *- - Correct
MultipleChoiceQuestion *- -"1..n" Incorrect
MultipleChoiceQuestion o- -"0..n" SelectedOption
OpenQuestion o- -"0..n" OpenAnswer
Question o- -"0..n" Answer
Answer <|- - OpenAnswer
Answer <|- - SelectedOption

@enduml

PlantUML version 1.2022.7(Mon Aug 22 18:01:30 WEST 2022)
(GPL source distribution)
Java Runtime: OpenJDK Runtime Environment
JVM: OpenJDK 64-Bit Server VM
Default Encoding: Cp1252
Language: es
Country: ES
--></g></svg>