<?xml version="1.0" encoding="UTF-8" standalone="no"?><svg xmlns="http://www.w3.org/2000/svg" xmlns:xlink="http://www.w3.org/1999/xlink" contentStyleType="text/css" height="851px" preserveAspectRatio="none" style="width:800px;height:851px;background:#FFFFFF;" version="1.1" viewBox="0 0 800 851" width="800px" zoomAndPan="magnify"><defs/><g><!--MD5=[668d633d11bedc8952753581a2dda3db]
class Community--><g id="elem_Community"><rect codeLine="2" fill="#F1F1F1" height="48" id="Community" rx="2.5" ry="2.5" style="stroke:#181818;stroke-width:0.5;" width="102" x="430" y="7"/><ellipse cx="445" cy="23" fill="#ADD1B2" rx="11" ry="11" style="stroke:#181818;stroke-width:1.0;"/><path d="M447.7656,18.875 Q447.9219,18.6563 448.1094,18.5469 Q448.2969,18.4375 448.5156,18.4375 Q448.8906,18.4375 449.125,18.7031 Q449.3594,18.9531 449.3594,19.5625 L449.3594,21.0156 Q449.3594,21.625 449.125,21.8906 Q448.8906,22.1563 448.5156,22.1563 Q448.1719,22.1563 447.9688,21.9531 Q447.7656,21.7656 447.6563,21.25 Q447.6094,20.8906 447.4219,20.7031 Q447.0938,20.3281 446.4844,20.1094 Q445.875,19.8906 445.25,19.8906 Q444.4844,19.8906 443.8438,20.2188 Q443.2188,20.5469 442.7188,21.2969 Q442.2344,22.0469 442.2344,23.0781 L442.2344,24.1719 Q442.2344,25.4063 443.125,26.2344 Q444.0156,27.0469 445.6094,27.0469 Q446.5469,27.0469 447.2031,26.7969 Q447.5938,26.6406 448.0156,26.2031 Q448.2813,25.9375 448.4219,25.8594 Q448.5781,25.7813 448.7813,25.7813 Q449.1094,25.7813 449.3594,26.0469 Q449.625,26.2969 449.625,26.6406 Q449.625,26.9844 449.2813,27.3906 Q448.7813,27.9688 447.9844,28.2969 Q446.9063,28.75 445.6094,28.75 Q444.0938,28.75 442.8906,28.125 Q441.9063,27.625 441.2188,26.5625 Q440.5313,25.4844 440.5313,24.2031 L440.5313,23.0469 Q440.5313,21.7188 441.1406,20.5781 Q441.7656,19.4219 442.8594,18.8125 Q443.9531,18.1875 445.1875,18.1875 Q445.9219,18.1875 446.5625,18.3594 Q447.2188,18.5156 447.7656,18.875 Z " fill="#000000"/><text fill="#000000" font-family="sans-serif" font-size="14" lengthAdjust="spacing" textLength="70" x="459" y="28.7285">Community</text><line style="stroke:#181818;stroke-width:0.5;" x1="431" x2="531" y1="39" y2="39"/><line style="stroke:#181818;stroke-width:0.5;" x1="431" x2="531" y1="47" y2="47"/></g><!--MD5=[3fd616f346a44cd59a91eb10b19e157c]
class User--><g id="elem_User"><rect codeLine="4" fill="#F1F1F1" height="48" id="User" rx="2.5" ry="2.5" style="stroke:#181818;stroke-width:0.5;" width="61" x="402.5" y="116"/><ellipse cx="417.5" cy="132" fill="#ADD1B2" rx="11" ry="11" style="stroke:#181818;stroke-width:1.0;"/><path d="M420.2656,127.875 Q420.4219,127.6563 420.6094,127.5469 Q420.7969,127.4375 421.0156,127.4375 Q421.3906,127.4375 421.625,127.7031 Q421.8594,127.9531 421.8594,128.5625 L421.8594,130.0156 Q421.8594,130.625 421.625,130.8906 Q421.3906,131.1563 421.0156,131.1563 Q420.6719,131.1563 420.4688,130.9531 Q420.2656,130.7656 420.1563,130.25 Q420.1094,129.8906 419.9219,129.7031 Q419.5938,129.3281 418.9844,129.1094 Q418.375,128.8906 417.75,128.8906 Q416.9844,128.8906 416.3438,129.2188 Q415.7188,129.5469 415.2188,130.2969 Q414.7344,131.0469 414.7344,132.0781 L414.7344,133.1719 Q414.7344,134.4063 415.625,135.2344 Q416.5156,136.0469 418.1094,136.0469 Q419.0469,136.0469 419.7031,135.7969 Q420.0938,135.6406 420.5156,135.2031 Q420.7813,134.9375 420.9219,134.8594 Q421.0781,134.7813 421.2813,134.7813 Q421.6094,134.7813 421.8594,135.0469 Q422.125,135.2969 422.125,135.6406 Q422.125,135.9844 421.7813,136.3906 Q421.2813,136.9688 420.4844,137.2969 Q419.4063,137.75 418.1094,137.75 Q416.5938,137.75 415.3906,137.125 Q414.4063,136.625 413.7188,135.5625 Q413.0313,134.4844 413.0313,133.2031 L413.0313,132.0469 Q413.0313,130.7188 413.6406,129.5781 Q414.2656,128.4219 415.3594,127.8125 Q416.4531,127.1875 417.6875,127.1875 Q418.4219,127.1875 419.0625,127.3594 Q419.7188,127.5156 420.2656,127.875 Z " fill="#000000"/><text fill="#000000" font-family="sans-serif" font-size="14" lengthAdjust="spacing" textLength="29" x="431.5" y="137.7285">User</text><line style="stroke:#181818;stroke-width:0.5;" x1="403.5" x2="462.5" y1="148" y2="148"/><line style="stroke:#181818;stroke-width:0.5;" x1="403.5" x2="462.5" y1="156" y2="156"/></g><!--MD5=[e76a510855fdf825c81877c657b1fc23]
class Reviewer--><g id="elem_Reviewer"><rect codeLine="6" fill="#F1F1F1" height="48" id="Reviewer" rx="2.5" ry="2.5" style="stroke:#181818;stroke-width:0.5;" width="90" x="271" y="465"/><ellipse cx="286" cy="481" fill="#ADD1B2" rx="11" ry="11" style="stroke:#181818;stroke-width:1.0;"/><path d="M288.7656,476.875 Q288.9219,476.6563 289.1094,476.5469 Q289.2969,476.4375 289.5156,476.4375 Q289.8906,476.4375 290.125,476.7031 Q290.3594,476.9531 290.3594,477.5625 L290.3594,479.0156 Q290.3594,479.625 290.125,479.8906 Q289.8906,480.1563 289.5156,480.1563 Q289.1719,480.1563 288.9688,479.9531 Q288.7656,479.7656 288.6563,479.25 Q288.6094,478.8906 288.4219,478.7031 Q288.0938,478.3281 287.4844,478.1094 Q286.875,477.8906 286.25,477.8906 Q285.4844,477.8906 284.8438,478.2188 Q284.2188,478.5469 283.7188,479.2969 Q283.2344,480.0469 283.2344,481.0781 L283.2344,482.1719 Q283.2344,483.4063 284.125,484.2344 Q285.0156,485.0469 286.6094,485.0469 Q287.5469,485.0469 288.2031,484.7969 Q288.5938,484.6406 289.0156,484.2031 Q289.2813,483.9375 289.4219,483.8594 Q289.5781,483.7813 289.7813,483.7813 Q290.1094,483.7813 290.3594,484.0469 Q290.625,484.2969 290.625,484.6406 Q290.625,484.9844 290.2813,485.3906 Q289.7813,485.9688 288.9844,486.2969 Q287.9063,486.75 286.6094,486.75 Q285.0938,486.75 283.8906,486.125 Q282.9063,485.625 282.2188,484.5625 Q281.5313,483.4844 281.5313,482.2031 L281.5313,481.0469 Q281.5313,479.7188 282.1406,478.5781 Q282.7656,477.4219 283.8594,476.8125 Q284.9531,476.1875 286.1875,476.1875 Q286.9219,476.1875 287.5625,476.3594 Q288.2188,476.5156 288.7656,476.875 Z " fill="#000000"/><text fill="#000000" font-family="sans-serif" font-size="14" lengthAdjust="spacing" textLength="58" x="300" y="486.7285">Reviewer</text><line style="stroke:#181818;stroke-width:0.5;" x1="272" x2="360" y1="497" y2="497"/><line style="stroke:#181818;stroke-width:0.5;" x1="272" x2="360" y1="505" y2="505"/></g><!--MD5=[559db66c208d2736f857be4b8ed380a2]
class Editor--><g id="elem_Editor"><rect codeLine="8" fill="#F1F1F1" height="48" id="Editor" rx="2.5" ry="2.5" style="stroke:#181818;stroke-width:0.5;" width="69" x="398.5" y="225"/><ellipse cx="413.5" cy="241" fill="#ADD1B2" rx="11" ry="11" style="stroke:#181818;stroke-width:1.0;"/><path d="M416.2656,236.875 Q416.4219,236.6563 416.6094,236.5469 Q416.7969,236.4375 417.0156,236.4375 Q417.3906,236.4375 417.625,236.7031 Q417.8594,236.9531 417.8594,237.5625 L417.8594,239.0156 Q417.8594,239.625 417.625,239.8906 Q417.3906,240.1563 417.0156,240.1563 Q416.6719,240.1563 416.4688,239.9531 Q416.2656,239.7656 416.1563,239.25 Q416.1094,238.8906 415.9219,238.7031 Q415.5938,238.3281 414.9844,238.1094 Q414.375,237.8906 413.75,237.8906 Q412.9844,237.8906 412.3438,238.2188 Q411.7188,238.5469 411.2188,239.2969 Q410.7344,240.0469 410.7344,241.0781 L410.7344,242.1719 Q410.7344,243.4063 411.625,244.2344 Q412.5156,245.0469 414.1094,245.0469 Q415.0469,245.0469 415.7031,244.7969 Q416.0938,244.6406 416.5156,244.2031 Q416.7813,243.9375 416.9219,243.8594 Q417.0781,243.7813 417.2813,243.7813 Q417.6094,243.7813 417.8594,244.0469 Q418.125,244.2969 418.125,244.6406 Q418.125,244.9844 417.7813,245.3906 Q417.2813,245.9688 416.4844,246.2969 Q415.4063,246.75 414.1094,246.75 Q412.5938,246.75 411.3906,246.125 Q410.4063,245.625 409.7188,244.5625 Q409.0313,243.4844 409.0313,242.2031 L409.0313,241.0469 Q409.0313,239.7188 409.6406,238.5781 Q410.2656,237.4219 411.3594,236.8125 Q412.4531,236.1875 413.6875,236.1875 Q414.4219,236.1875 415.0625,236.3594 Q415.7188,236.5156 416.2656,236.875 Z " fill="#000000"/><text fill="#000000" font-family="sans-serif" font-size="14" lengthAdjust="spacing" textLength="37" x="427.5" y="246.7285">Editor</text><line style="stroke:#181818;stroke-width:0.5;" x1="399.5" x2="466.5" y1="257" y2="257"/><line style="stroke:#181818;stroke-width:0.5;" x1="399.5" x2="466.5" y1="265" y2="265"/></g><!--MD5=[a0a1f7f9662f43ef0ece806266f72a6f]
class Executor--><g id="elem_Executor"><rect codeLine="10" fill="#F1F1F1" height="48" id="Executor" rx="2.5" ry="2.5" style="stroke:#181818;stroke-width:0.5;" width="87" x="263.5" y="225"/><ellipse cx="278.5" cy="241" fill="#ADD1B2" rx="11" ry="11" style="stroke:#181818;stroke-width:1.0;"/><path d="M281.2656,236.875 Q281.4219,236.6563 281.6094,236.5469 Q281.7969,236.4375 282.0156,236.4375 Q282.3906,236.4375 282.625,236.7031 Q282.8594,236.9531 282.8594,237.5625 L282.8594,239.0156 Q282.8594,239.625 282.625,239.8906 Q282.3906,240.1563 282.0156,240.1563 Q281.6719,240.1563 281.4688,239.9531 Q281.2656,239.7656 281.1563,239.25 Q281.1094,238.8906 280.9219,238.7031 Q280.5938,238.3281 279.9844,238.1094 Q279.375,237.8906 278.75,237.8906 Q277.9844,237.8906 277.3438,238.2188 Q276.7188,238.5469 276.2188,239.2969 Q275.7344,240.0469 275.7344,241.0781 L275.7344,242.1719 Q275.7344,243.4063 276.625,244.2344 Q277.5156,245.0469 279.1094,245.0469 Q280.0469,245.0469 280.7031,244.7969 Q281.0938,244.6406 281.5156,244.2031 Q281.7813,243.9375 281.9219,243.8594 Q282.0781,243.7813 282.2813,243.7813 Q282.6094,243.7813 282.8594,244.0469 Q283.125,244.2969 283.125,244.6406 Q283.125,244.9844 282.7813,245.3906 Q282.2813,245.9688 281.4844,246.2969 Q280.4063,246.75 279.1094,246.75 Q277.5938,246.75 276.3906,246.125 Q275.4063,245.625 274.7188,244.5625 Q274.0313,243.4844 274.0313,242.2031 L274.0313,241.0469 Q274.0313,239.7188 274.6406,238.5781 Q275.2656,237.4219 276.3594,236.8125 Q277.4531,236.1875 278.6875,236.1875 Q279.4219,236.1875 280.0625,236.3594 Q280.7188,236.5156 281.2656,236.875 Z " fill="#000000"/><text fill="#000000" font-family="sans-serif" font-size="14" lengthAdjust="spacing" textLength="55" x="292.5" y="246.7285">Executor</text><line style="stroke:#181818;stroke-width:0.5;" x1="264.5" x2="349.5" y1="257" y2="257"/><line style="stroke:#181818;stroke-width:0.5;" x1="264.5" x2="349.5" y1="265" y2="265"/></g><!--MD5=[71e8807956d33805e77353b9d7e2df39]
class Evaluation--><g id="elem_Evaluation"><rect codeLine="12" fill="#F1F1F1" height="48" id="Evaluation" rx="2.5" ry="2.5" style="stroke:#181818;stroke-width:0.5;" width="98" x="183" y="360.5"/><ellipse cx="198" cy="376.5" fill="#ADD1B2" rx="11" ry="11" style="stroke:#181818;stroke-width:1.0;"/><path d="M200.7656,372.375 Q200.9219,372.1563 201.1094,372.0469 Q201.2969,371.9375 201.5156,371.9375 Q201.8906,371.9375 202.125,372.2031 Q202.3594,372.4531 202.3594,373.0625 L202.3594,374.5156 Q202.3594,375.125 202.125,375.3906 Q201.8906,375.6563 201.5156,375.6563 Q201.1719,375.6563 200.9688,375.4531 Q200.7656,375.2656 200.6563,374.75 Q200.6094,374.3906 200.4219,374.2031 Q200.0938,373.8281 199.4844,373.6094 Q198.875,373.3906 198.25,373.3906 Q197.4844,373.3906 196.8438,373.7188 Q196.2188,374.0469 195.7188,374.7969 Q195.2344,375.5469 195.2344,376.5781 L195.2344,377.6719 Q195.2344,378.9063 196.125,379.7344 Q197.0156,380.5469 198.6094,380.5469 Q199.5469,380.5469 200.2031,380.2969 Q200.5938,380.1406 201.0156,379.7031 Q201.2813,379.4375 201.4219,379.3594 Q201.5781,379.2813 201.7813,379.2813 Q202.1094,379.2813 202.3594,379.5469 Q202.625,379.7969 202.625,380.1406 Q202.625,380.4844 202.2813,380.8906 Q201.7813,381.4688 200.9844,381.7969 Q199.9063,382.25 198.6094,382.25 Q197.0938,382.25 195.8906,381.625 Q194.9063,381.125 194.2188,380.0625 Q193.5313,378.9844 193.5313,377.7031 L193.5313,376.5469 Q193.5313,375.2188 194.1406,374.0781 Q194.7656,372.9219 195.8594,372.3125 Q196.9531,371.6875 198.1875,371.6875 Q198.9219,371.6875 199.5625,371.8594 Q200.2188,372.0156 200.7656,372.375 Z " fill="#000000"/><text fill="#000000" font-family="sans-serif" font-size="14" lengthAdjust="spacing" textLength="66" x="212" y="382.2285">Evaluation</text><line style="stroke:#181818;stroke-width:0.5;" x1="184" x2="280" y1="392.5" y2="392.5"/><line style="stroke:#181818;stroke-width:0.5;" x1="184" x2="280" y1="400.5" y2="400.5"/></g><!--MD5=[a96594a83e2ecdc78cbf17c2ddf01934]
class Category--><g id="elem_Category"><rect codeLine="14" fill="#F1F1F1" height="48" id="Category" rx="2.5" ry="2.5" style="stroke:#181818;stroke-width:0.5;" width="90" x="7" y="788"/><ellipse cx="22" cy="804" fill="#ADD1B2" rx="11" ry="11" style="stroke:#181818;stroke-width:1.0;"/><path d="M24.7656,799.875 Q24.9219,799.6563 25.1094,799.5469 Q25.2969,799.4375 25.5156,799.4375 Q25.8906,799.4375 26.125,799.7031 Q26.3594,799.9531 26.3594,800.5625 L26.3594,802.0156 Q26.3594,802.625 26.125,802.8906 Q25.8906,803.1563 25.5156,803.1563 Q25.1719,803.1563 24.9688,802.9531 Q24.7656,802.7656 24.6563,802.25 Q24.6094,801.8906 24.4219,801.7031 Q24.0938,801.3281 23.4844,801.1094 Q22.875,800.8906 22.25,800.8906 Q21.4844,800.8906 20.8438,801.2188 Q20.2188,801.5469 19.7188,802.2969 Q19.2344,803.0469 19.2344,804.0781 L19.2344,805.1719 Q19.2344,806.4063 20.125,807.2344 Q21.0156,808.0469 22.6094,808.0469 Q23.5469,808.0469 24.2031,807.7969 Q24.5938,807.6406 25.0156,807.2031 Q25.2813,806.9375 25.4219,806.8594 Q25.5781,806.7813 25.7813,806.7813 Q26.1094,806.7813 26.3594,807.0469 Q26.625,807.2969 26.625,807.6406 Q26.625,807.9844 26.2813,808.3906 Q25.7813,808.9688 24.9844,809.2969 Q23.9063,809.75 22.6094,809.75 Q21.0938,809.75 19.8906,809.125 Q18.9063,808.625 18.2188,807.5625 Q17.5313,806.4844 17.5313,805.2031 L17.5313,804.0469 Q17.5313,802.7188 18.1406,801.5781 Q18.7656,800.4219 19.8594,799.8125 Q20.9531,799.1875 22.1875,799.1875 Q22.9219,799.1875 23.5625,799.3594 Q24.2188,799.5156 24.7656,799.875 Z " fill="#000000"/><text fill="#000000" font-family="sans-serif" font-size="14" lengthAdjust="spacing" textLength="58" x="36" y="809.7285">Category</text><line style="stroke:#181818;stroke-width:0.5;" x1="8" x2="96" y1="820" y2="820"/><line style="stroke:#181818;stroke-width:0.5;" x1="8" x2="96" y1="828" y2="828"/></g><!--MD5=[df38be88ccee13e832d6fafd6288a4ca]
class Test--><g id="elem_Test"><rect codeLine="16" fill="#F1F1F1" height="65.6094" id="Test" rx="2.5" ry="2.5" style="stroke:#181818;stroke-width:0.5;" width="78" x="161" y="543"/><ellipse cx="184.1" cy="559" fill="#ADD1B2" rx="11" ry="11" style="stroke:#181818;stroke-width:1.0;"/><path d="M186.8656,554.875 Q187.0219,554.6563 187.2094,554.5469 Q187.3969,554.4375 187.6156,554.4375 Q187.9906,554.4375 188.225,554.7031 Q188.4594,554.9531 188.4594,555.5625 L188.4594,557.0156 Q188.4594,557.625 188.225,557.8906 Q187.9906,558.1563 187.6156,558.1563 Q187.2719,558.1563 187.0688,557.9531 Q186.8656,557.7656 186.7563,557.25 Q186.7094,556.8906 186.5219,556.7031 Q186.1938,556.3281 185.5844,556.1094 Q184.975,555.8906 184.35,555.8906 Q183.5844,555.8906 182.9438,556.2188 Q182.3188,556.5469 181.8188,557.2969 Q181.3344,558.0469 181.3344,559.0781 L181.3344,560.1719 Q181.3344,561.4063 182.225,562.2344 Q183.1156,563.0469 184.7094,563.0469 Q185.6469,563.0469 186.3031,562.7969 Q186.6938,562.6406 187.1156,562.2031 Q187.3813,561.9375 187.5219,561.8594 Q187.6781,561.7813 187.8813,561.7813 Q188.2094,561.7813 188.4594,562.0469 Q188.725,562.2969 188.725,562.6406 Q188.725,562.9844 188.3813,563.3906 Q187.8813,563.9688 187.0844,564.2969 Q186.0063,564.75 184.7094,564.75 Q183.1938,564.75 181.9906,564.125 Q181.0063,563.625 180.3188,562.5625 Q179.6313,561.4844 179.6313,560.2031 L179.6313,559.0469 Q179.6313,557.7188 180.2406,556.5781 Q180.8656,555.4219 181.9594,554.8125 Q183.0531,554.1875 184.2875,554.1875 Q185.0219,554.1875 185.6625,554.3594 Q186.3188,554.5156 186.8656,554.875 Z " fill="#000000"/><text fill="#000000" font-family="sans-serif" font-size="14" lengthAdjust="spacing" textLength="28" x="199.9" y="564.7285">Test</text><line style="stroke:#181818;stroke-width:0.5;" x1="162" x2="238" y1="575" y2="575"/><text fill="#000000" font-family="sans-serif" font-size="14" lengthAdjust="spacing" textLength="66" x="167" y="593.5332">categories</text><line style="stroke:#181818;stroke-width:0.5;" x1="162" x2="238" y1="600.6094" y2="600.6094"/></g><!--MD5=[251997ad79b4d4948a25d3b27294058e]
class AnswersToReview--><g id="elem_AnswersToReview"><rect codeLine="20" fill="#F1F1F1" height="48" id="AnswersToReview" rx="2.5" ry="2.5" style="stroke:#181818;stroke-width:0.5;" width="147" x="477.5" y="670"/><ellipse cx="492.5" cy="686" fill="#ADD1B2" rx="11" ry="11" style="stroke:#181818;stroke-width:1.0;"/><path d="M495.2656,681.875 Q495.4219,681.6563 495.6094,681.5469 Q495.7969,681.4375 496.0156,681.4375 Q496.3906,681.4375 496.625,681.7031 Q496.8594,681.9531 496.8594,682.5625 L496.8594,684.0156 Q496.8594,684.625 496.625,684.8906 Q496.3906,685.1563 496.0156,685.1563 Q495.6719,685.1563 495.4688,684.9531 Q495.2656,684.7656 495.1563,684.25 Q495.1094,683.8906 494.9219,683.7031 Q494.5938,683.3281 493.9844,683.1094 Q493.375,682.8906 492.75,682.8906 Q491.9844,682.8906 491.3438,683.2188 Q490.7188,683.5469 490.2188,684.2969 Q489.7344,685.0469 489.7344,686.0781 L489.7344,687.1719 Q489.7344,688.4063 490.625,689.2344 Q491.5156,690.0469 493.1094,690.0469 Q494.0469,690.0469 494.7031,689.7969 Q495.0938,689.6406 495.5156,689.2031 Q495.7813,688.9375 495.9219,688.8594 Q496.0781,688.7813 496.2813,688.7813 Q496.6094,688.7813 496.8594,689.0469 Q497.125,689.2969 497.125,689.6406 Q497.125,689.9844 496.7813,690.3906 Q496.2813,690.9688 495.4844,691.2969 Q494.4063,691.75 493.1094,691.75 Q491.5938,691.75 490.3906,691.125 Q489.4063,690.625 488.7188,689.5625 Q488.0313,688.4844 488.0313,687.2031 L488.0313,686.0469 Q488.0313,684.7188 488.6406,683.5781 Q489.2656,682.4219 490.3594,681.8125 Q491.4531,681.1875 492.6875,681.1875 Q493.4219,681.1875 494.0625,681.3594 Q494.7188,681.5156 495.2656,681.875 Z " fill="#000000"/><text fill="#000000" font-family="sans-serif" font-size="14" lengthAdjust="spacing" textLength="115" x="506.5" y="691.7285">AnswersToReview</text><line style="stroke:#181818;stroke-width:0.5;" x1="478.5" x2="623.5" y1="702" y2="702"/><line style="stroke:#181818;stroke-width:0.5;" x1="478.5" x2="623.5" y1="710" y2="710"/></g><!--MD5=[9d451b2f92d848a8e2d1a4dab2b1c6bf]
class Concept--><g id="elem_Concept"><rect codeLine="22" fill="#F1F1F1" height="100.8281" id="Concept" rx="2.5" ry="2.5" style="stroke:#181818;stroke-width:0.5;" width="85" x="491.5" y="334"/><ellipse cx="506.5" cy="350" fill="#ADD1B2" rx="11" ry="11" style="stroke:#181818;stroke-width:1.0;"/><path d="M509.2656,345.875 Q509.4219,345.6563 509.6094,345.5469 Q509.7969,345.4375 510.0156,345.4375 Q510.3906,345.4375 510.625,345.7031 Q510.8594,345.9531 510.8594,346.5625 L510.8594,348.0156 Q510.8594,348.625 510.625,348.8906 Q510.3906,349.1563 510.0156,349.1563 Q509.6719,349.1563 509.4688,348.9531 Q509.2656,348.7656 509.1563,348.25 Q509.1094,347.8906 508.9219,347.7031 Q508.5938,347.3281 507.9844,347.1094 Q507.375,346.8906 506.75,346.8906 Q505.9844,346.8906 505.3438,347.2188 Q504.7188,347.5469 504.2188,348.2969 Q503.7344,349.0469 503.7344,350.0781 L503.7344,351.1719 Q503.7344,352.4063 504.625,353.2344 Q505.5156,354.0469 507.1094,354.0469 Q508.0469,354.0469 508.7031,353.7969 Q509.0938,353.6406 509.5156,353.2031 Q509.7813,352.9375 509.9219,352.8594 Q510.0781,352.7813 510.2813,352.7813 Q510.6094,352.7813 510.8594,353.0469 Q511.125,353.2969 511.125,353.6406 Q511.125,353.9844 510.7813,354.3906 Q510.2813,354.9688 509.4844,355.2969 Q508.4063,355.75 507.1094,355.75 Q505.5938,355.75 504.3906,355.125 Q503.4063,354.625 502.7188,353.5625 Q502.0313,352.4844 502.0313,351.2031 L502.0313,350.0469 Q502.0313,348.7188 502.6406,347.5781 Q503.2656,346.4219 504.3594,345.8125 Q505.4531,345.1875 506.6875,345.1875 Q507.4219,345.1875 508.0625,345.3594 Q508.7188,345.5156 509.2656,345.875 Z " fill="#000000"/><text fill="#000000" font-family="sans-serif" font-size="14" lengthAdjust="spacing" textLength="53" x="520.5" y="355.7285">Concept</text><line style="stroke:#181818;stroke-width:0.5;" x1="492.5" x2="575.5" y1="366" y2="366"/><text fill="#000000" font-family="sans-serif" font-size="14" lengthAdjust="spacing" textLength="52" x="497.5" y="384.5332">keyword</text><text fill="#000000" font-family="sans-serif" font-size="14" lengthAdjust="spacing" textLength="29" x="497.5" y="402.1426">level</text><text fill="#000000" font-family="sans-serif" font-size="14" lengthAdjust="spacing" textLength="12" x="497.5" y="419.752">...</text><line style="stroke:#181818;stroke-width:0.5;" x1="492.5" x2="575.5" y1="426.8281" y2="426.8281"/></g><!--MD5=[c5be3d7e9ffcf6502258095b57411394]
class OpenQuestion--><g id="elem_OpenQuestion"><rect codeLine="28" fill="#F1F1F1" height="65.6094" id="OpenQuestion" rx="2.5" ry="2.5" style="stroke:#181818;stroke-width:0.5;" width="124" x="658" y="779"/><ellipse cx="673" cy="795" fill="#ADD1B2" rx="11" ry="11" style="stroke:#181818;stroke-width:1.0;"/><path d="M675.7656,790.875 Q675.9219,790.6563 676.1094,790.5469 Q676.2969,790.4375 676.5156,790.4375 Q676.8906,790.4375 677.125,790.7031 Q677.3594,790.9531 677.3594,791.5625 L677.3594,793.0156 Q677.3594,793.625 677.125,793.8906 Q676.8906,794.1563 676.5156,794.1563 Q676.1719,794.1563 675.9688,793.9531 Q675.7656,793.7656 675.6563,793.25 Q675.6094,792.8906 675.4219,792.7031 Q675.0938,792.3281 674.4844,792.1094 Q673.875,791.8906 673.25,791.8906 Q672.4844,791.8906 671.8438,792.2188 Q671.2188,792.5469 670.7188,793.2969 Q670.2344,794.0469 670.2344,795.0781 L670.2344,796.1719 Q670.2344,797.4063 671.125,798.2344 Q672.0156,799.0469 673.6094,799.0469 Q674.5469,799.0469 675.2031,798.7969 Q675.5938,798.6406 676.0156,798.2031 Q676.2813,797.9375 676.4219,797.8594 Q676.5781,797.7813 676.7813,797.7813 Q677.1094,797.7813 677.3594,798.0469 Q677.625,798.2969 677.625,798.6406 Q677.625,798.9844 677.2813,799.3906 Q676.7813,799.9688 675.9844,800.2969 Q674.9063,800.75 673.6094,800.75 Q672.0938,800.75 670.8906,800.125 Q669.9063,799.625 669.2188,798.5625 Q668.5313,797.4844 668.5313,796.2031 L668.5313,795.0469 Q668.5313,793.7188 669.1406,792.5781 Q669.7656,791.4219 670.8594,790.8125 Q671.9531,790.1875 673.1875,790.1875 Q673.9219,790.1875 674.5625,790.3594 Q675.2188,790.5156 675.7656,790.875 Z " fill="#000000"/><text fill="#000000" font-family="sans-serif" font-size="14" lengthAdjust="spacing" textLength="92" x="687" y="800.7285">OpenQuestion</text><line style="stroke:#181818;stroke-width:0.5;" x1="659" x2="781" y1="811" y2="811"/><text fill="#000000" font-family="sans-serif" font-size="14" lengthAdjust="spacing" textLength="54" x="664" y="829.5332">template</text><line style="stroke:#181818;stroke-width:0.5;" x1="659" x2="781" y1="836.6094" y2="836.6094"/></g><!--MD5=[fc7123defb831ecdd44b2d9bcef6cceb]
class Question--><g id="elem_Question"><rect codeLine="32" fill="#F1F1F1" height="48" id="Question" rx="2.5" ry="2.5" style="stroke:#181818;stroke-width:0.5;" width="89" x="155.5" y="670"/><ellipse cx="170.5" cy="686" fill="#ADD1B2" rx="11" ry="11" style="stroke:#181818;stroke-width:1.0;"/><path d="M173.2656,681.875 Q173.4219,681.6563 173.6094,681.5469 Q173.7969,681.4375 174.0156,681.4375 Q174.3906,681.4375 174.625,681.7031 Q174.8594,681.9531 174.8594,682.5625 L174.8594,684.0156 Q174.8594,684.625 174.625,684.8906 Q174.3906,685.1563 174.0156,685.1563 Q173.6719,685.1563 173.4688,684.9531 Q173.2656,684.7656 173.1563,684.25 Q173.1094,683.8906 172.9219,683.7031 Q172.5938,683.3281 171.9844,683.1094 Q171.375,682.8906 170.75,682.8906 Q169.9844,682.8906 169.3438,683.2188 Q168.7188,683.5469 168.2188,684.2969 Q167.7344,685.0469 167.7344,686.0781 L167.7344,687.1719 Q167.7344,688.4063 168.625,689.2344 Q169.5156,690.0469 171.1094,690.0469 Q172.0469,690.0469 172.7031,689.7969 Q173.0938,689.6406 173.5156,689.2031 Q173.7813,688.9375 173.9219,688.8594 Q174.0781,688.7813 174.2813,688.7813 Q174.6094,688.7813 174.8594,689.0469 Q175.125,689.2969 175.125,689.6406 Q175.125,689.9844 174.7813,690.3906 Q174.2813,690.9688 173.4844,691.2969 Q172.4063,691.75 171.1094,691.75 Q169.5938,691.75 168.3906,691.125 Q167.4063,690.625 166.7188,689.5625 Q166.0313,688.4844 166.0313,687.2031 L166.0313,686.0469 Q166.0313,684.7188 166.6406,683.5781 Q167.2656,682.4219 168.3594,681.8125 Q169.4531,681.1875 170.6875,681.1875 Q171.4219,681.1875 172.0625,681.3594 Q172.7188,681.5156 173.2656,681.875 Z " fill="#000000"/><text fill="#000000" font-family="sans-serif" font-size="14" lengthAdjust="spacing" textLength="57" x="184.5" y="691.7285">Question</text><line style="stroke:#181818;stroke-width:0.5;" x1="156.5" x2="243.5" y1="702" y2="702"/><line style="stroke:#181818;stroke-width:0.5;" x1="156.5" x2="243.5" y1="710" y2="710"/></g><!--MD5=[a61a298976b7d1d94498f45c2ebfa10b]
class Statement--><g id="elem_Statement"><rect codeLine="35" fill="#F1F1F1" height="48" id="Statement" rx="2.5" ry="2.5" style="stroke:#181818;stroke-width:0.5;" width="96" x="150" y="788"/><ellipse cx="165" cy="804" fill="#ADD1B2" rx="11" ry="11" style="stroke:#181818;stroke-width:1.0;"/><path d="M167.7656,799.875 Q167.9219,799.6563 168.1094,799.5469 Q168.2969,799.4375 168.5156,799.4375 Q168.8906,799.4375 169.125,799.7031 Q169.3594,799.9531 169.3594,800.5625 L169.3594,802.0156 Q169.3594,802.625 169.125,802.8906 Q168.8906,803.1563 168.5156,803.1563 Q168.1719,803.1563 167.9688,802.9531 Q167.7656,802.7656 167.6563,802.25 Q167.6094,801.8906 167.4219,801.7031 Q167.0938,801.3281 166.4844,801.1094 Q165.875,800.8906 165.25,800.8906 Q164.4844,800.8906 163.8438,801.2188 Q163.2188,801.5469 162.7188,802.2969 Q162.2344,803.0469 162.2344,804.0781 L162.2344,805.1719 Q162.2344,806.4063 163.125,807.2344 Q164.0156,808.0469 165.6094,808.0469 Q166.5469,808.0469 167.2031,807.7969 Q167.5938,807.6406 168.0156,807.2031 Q168.2813,806.9375 168.4219,806.8594 Q168.5781,806.7813 168.7813,806.7813 Q169.1094,806.7813 169.3594,807.0469 Q169.625,807.2969 169.625,807.6406 Q169.625,807.9844 169.2813,808.3906 Q168.7813,808.9688 167.9844,809.2969 Q166.9063,809.75 165.6094,809.75 Q164.0938,809.75 162.8906,809.125 Q161.9063,808.625 161.2188,807.5625 Q160.5313,806.4844 160.5313,805.2031 L160.5313,804.0469 Q160.5313,802.7188 161.1406,801.5781 Q161.7656,800.4219 162.8594,799.8125 Q163.9531,799.1875 165.1875,799.1875 Q165.9219,799.1875 166.5625,799.3594 Q167.2188,799.5156 167.7656,799.875 Z " fill="#000000"/><text fill="#000000" font-family="sans-serif" font-size="14" lengthAdjust="spacing" textLength="64" x="179" y="809.7285">Statement</text><line style="stroke:#181818;stroke-width:0.5;" x1="151" x2="245" y1="820" y2="820"/><line style="stroke:#181818;stroke-width:0.5;" x1="151" x2="245" y1="828" y2="828"/></g><!--MD5=[f9fadfa5a66b7e5a67b370cd443ffe52]
class Answer--><g id="elem_Answer"><rect codeLine="37" fill="#F1F1F1" height="48" id="Answer" rx="2.5" ry="2.5" style="stroke:#181818;stroke-width:0.5;" width="78" x="341" y="670"/><ellipse cx="356" cy="686" fill="#ADD1B2" rx="11" ry="11" style="stroke:#181818;stroke-width:1.0;"/><path d="M358.7656,681.875 Q358.9219,681.6563 359.1094,681.5469 Q359.2969,681.4375 359.5156,681.4375 Q359.8906,681.4375 360.125,681.7031 Q360.3594,681.9531 360.3594,682.5625 L360.3594,684.0156 Q360.3594,684.625 360.125,684.8906 Q359.8906,685.1563 359.5156,685.1563 Q359.1719,685.1563 358.9688,684.9531 Q358.7656,684.7656 358.6563,684.25 Q358.6094,683.8906 358.4219,683.7031 Q358.0938,683.3281 357.4844,683.1094 Q356.875,682.8906 356.25,682.8906 Q355.4844,682.8906 354.8438,683.2188 Q354.2188,683.5469 353.7188,684.2969 Q353.2344,685.0469 353.2344,686.0781 L353.2344,687.1719 Q353.2344,688.4063 354.125,689.2344 Q355.0156,690.0469 356.6094,690.0469 Q357.5469,690.0469 358.2031,689.7969 Q358.5938,689.6406 359.0156,689.2031 Q359.2813,688.9375 359.4219,688.8594 Q359.5781,688.7813 359.7813,688.7813 Q360.1094,688.7813 360.3594,689.0469 Q360.625,689.2969 360.625,689.6406 Q360.625,689.9844 360.2813,690.3906 Q359.7813,690.9688 358.9844,691.2969 Q357.9063,691.75 356.6094,691.75 Q355.0938,691.75 353.8906,691.125 Q352.9063,690.625 352.2188,689.5625 Q351.5313,688.4844 351.5313,687.2031 L351.5313,686.0469 Q351.5313,684.7188 352.1406,683.5781 Q352.7656,682.4219 353.8594,681.8125 Q354.9531,681.1875 356.1875,681.1875 Q356.9219,681.1875 357.5625,681.3594 Q358.2188,681.5156 358.7656,681.875 Z " fill="#000000"/><text fill="#000000" font-family="sans-serif" font-size="14" lengthAdjust="spacing" textLength="46" x="370" y="691.7285">Answer</text><line style="stroke:#181818;stroke-width:0.5;" x1="342" x2="418" y1="702" y2="702"/><line style="stroke:#181818;stroke-width:0.5;" x1="342" x2="418" y1="710" y2="710"/></g><!--MD5=[bc629657279eaa9349f412646650f2c5]
class Correct--><g id="elem_Correct"><rect codeLine="39" fill="#F1F1F1" height="48" id="Correct" rx="2.5" ry="2.5" style="stroke:#181818;stroke-width:0.5;" width="79" x="281.5" y="788"/><ellipse cx="296.5" cy="804" fill="#ADD1B2" rx="11" ry="11" style="stroke:#181818;stroke-width:1.0;"/><path d="M299.2656,799.875 Q299.4219,799.6563 299.6094,799.5469 Q299.7969,799.4375 300.0156,799.4375 Q300.3906,799.4375 300.625,799.7031 Q300.8594,799.9531 300.8594,800.5625 L300.8594,802.0156 Q300.8594,802.625 300.625,802.8906 Q300.3906,803.1563 300.0156,803.1563 Q299.6719,803.1563 299.4688,802.9531 Q299.2656,802.7656 299.1563,802.25 Q299.1094,801.8906 298.9219,801.7031 Q298.5938,801.3281 297.9844,801.1094 Q297.375,800.8906 296.75,800.8906 Q295.9844,800.8906 295.3438,801.2188 Q294.7188,801.5469 294.2188,802.2969 Q293.7344,803.0469 293.7344,804.0781 L293.7344,805.1719 Q293.7344,806.4063 294.625,807.2344 Q295.5156,808.0469 297.1094,808.0469 Q298.0469,808.0469 298.7031,807.7969 Q299.0938,807.6406 299.5156,807.2031 Q299.7813,806.9375 299.9219,806.8594 Q300.0781,806.7813 300.2813,806.7813 Q300.6094,806.7813 300.8594,807.0469 Q301.125,807.2969 301.125,807.6406 Q301.125,807.9844 300.7813,808.3906 Q300.2813,808.9688 299.4844,809.2969 Q298.4063,809.75 297.1094,809.75 Q295.5938,809.75 294.3906,809.125 Q293.4063,808.625 292.7188,807.5625 Q292.0313,806.4844 292.0313,805.2031 L292.0313,804.0469 Q292.0313,802.7188 292.6406,801.5781 Q293.2656,800.4219 294.3594,799.8125 Q295.4531,799.1875 296.6875,799.1875 Q297.4219,799.1875 298.0625,799.3594 Q298.7188,799.5156 299.2656,799.875 Z " fill="#000000"/><text fill="#000000" font-family="sans-serif" font-size="14" lengthAdjust="spacing" textLength="47" x="310.5" y="809.7285">Correct</text><line style="stroke:#181818;stroke-width:0.5;" x1="282.5" x2="359.5" y1="820" y2="820"/><line style="stroke:#181818;stroke-width:0.5;" x1="282.5" x2="359.5" y1="828" y2="828"/></g><!--MD5=[37923dc032bbfca87d4413e584fa2cda]
class Incorrect--><g id="elem_Incorrect"><rect codeLine="41" fill="#F1F1F1" height="48" id="Incorrect" rx="2.5" ry="2.5" style="stroke:#181818;stroke-width:0.5;" width="87" x="395.5" y="788"/><ellipse cx="410.5" cy="804" fill="#ADD1B2" rx="11" ry="11" style="stroke:#181818;stroke-width:1.0;"/><path d="M413.2656,799.875 Q413.4219,799.6563 413.6094,799.5469 Q413.7969,799.4375 414.0156,799.4375 Q414.3906,799.4375 414.625,799.7031 Q414.8594,799.9531 414.8594,800.5625 L414.8594,802.0156 Q414.8594,802.625 414.625,802.8906 Q414.3906,803.1563 414.0156,803.1563 Q413.6719,803.1563 413.4688,802.9531 Q413.2656,802.7656 413.1563,802.25 Q413.1094,801.8906 412.9219,801.7031 Q412.5938,801.3281 411.9844,801.1094 Q411.375,800.8906 410.75,800.8906 Q409.9844,800.8906 409.3438,801.2188 Q408.7188,801.5469 408.2188,802.2969 Q407.7344,803.0469 407.7344,804.0781 L407.7344,805.1719 Q407.7344,806.4063 408.625,807.2344 Q409.5156,808.0469 411.1094,808.0469 Q412.0469,808.0469 412.7031,807.7969 Q413.0938,807.6406 413.5156,807.2031 Q413.7813,806.9375 413.9219,806.8594 Q414.0781,806.7813 414.2813,806.7813 Q414.6094,806.7813 414.8594,807.0469 Q415.125,807.2969 415.125,807.6406 Q415.125,807.9844 414.7813,808.3906 Q414.2813,808.9688 413.4844,809.2969 Q412.4063,809.75 411.1094,809.75 Q409.5938,809.75 408.3906,809.125 Q407.4063,808.625 406.7188,807.5625 Q406.0313,806.4844 406.0313,805.2031 L406.0313,804.0469 Q406.0313,802.7188 406.6406,801.5781 Q407.2656,800.4219 408.3594,799.8125 Q409.4531,799.1875 410.6875,799.1875 Q411.4219,799.1875 412.0625,799.3594 Q412.7188,799.5156 413.2656,799.875 Z " fill="#000000"/><text fill="#000000" font-family="sans-serif" font-size="14" lengthAdjust="spacing" textLength="55" x="424.5" y="809.7285">Incorrect</text><line style="stroke:#181818;stroke-width:0.5;" x1="396.5" x2="481.5" y1="820" y2="820"/><line style="stroke:#181818;stroke-width:0.5;" x1="396.5" x2="481.5" y1="828" y2="828"/></g><!--MD5=[af22135d5be6ed11ccd2d02fa51653b3]
class Definition--><g id="elem_Definition"><rect fill="#F1F1F1" height="48" id="Definition" rx="2.5" ry="2.5" style="stroke:#181818;stroke-width:0.5;" width="91" x="505.5" y="552"/><ellipse cx="520.5" cy="568" fill="#ADD1B2" rx="11" ry="11" style="stroke:#181818;stroke-width:1.0;"/><path d="M523.2656,563.875 Q523.4219,563.6563 523.6094,563.5469 Q523.7969,563.4375 524.0156,563.4375 Q524.3906,563.4375 524.625,563.7031 Q524.8594,563.9531 524.8594,564.5625 L524.8594,566.0156 Q524.8594,566.625 524.625,566.8906 Q524.3906,567.1563 524.0156,567.1563 Q523.6719,567.1563 523.4688,566.9531 Q523.2656,566.7656 523.1563,566.25 Q523.1094,565.8906 522.9219,565.7031 Q522.5938,565.3281 521.9844,565.1094 Q521.375,564.8906 520.75,564.8906 Q519.9844,564.8906 519.3438,565.2188 Q518.7188,565.5469 518.2188,566.2969 Q517.7344,567.0469 517.7344,568.0781 L517.7344,569.1719 Q517.7344,570.4063 518.625,571.2344 Q519.5156,572.0469 521.1094,572.0469 Q522.0469,572.0469 522.7031,571.7969 Q523.0938,571.6406 523.5156,571.2031 Q523.7813,570.9375 523.9219,570.8594 Q524.0781,570.7813 524.2813,570.7813 Q524.6094,570.7813 524.8594,571.0469 Q525.125,571.2969 525.125,571.6406 Q525.125,571.9844 524.7813,572.3906 Q524.2813,572.9688 523.4844,573.2969 Q522.4063,573.75 521.1094,573.75 Q519.5938,573.75 518.3906,573.125 Q517.4063,572.625 516.7188,571.5625 Q516.0313,570.4844 516.0313,569.2031 L516.0313,568.0469 Q516.0313,566.7188 516.6406,565.5781 Q517.2656,564.4219 518.3594,563.8125 Q519.4531,563.1875 520.6875,563.1875 Q521.4219,563.1875 522.0625,563.3594 Q522.7188,563.5156 523.2656,563.875 Z " fill="#000000"/><text fill="#000000" font-family="sans-serif" font-size="14" lengthAdjust="spacing" textLength="59" x="534.5" y="573.7285">Definition</text><line style="stroke:#181818;stroke-width:0.5;" x1="506.5" x2="595.5" y1="584" y2="584"/><line style="stroke:#181818;stroke-width:0.5;" x1="506.5" x2="595.5" y1="592" y2="592"/></g><!--MD5=[9b4de504215638550a8bb9c080b7ee00]
class Justification--><g id="elem_Justification"><rect fill="#F1F1F1" height="48" id="Justification" rx="2.5" ry="2.5" style="stroke:#181818;stroke-width:0.5;" width="105" x="631.5" y="552"/><ellipse cx="646.5" cy="568" fill="#ADD1B2" rx="11" ry="11" style="stroke:#181818;stroke-width:1.0;"/><path d="M649.2656,563.875 Q649.4219,563.6563 649.6094,563.5469 Q649.7969,563.4375 650.0156,563.4375 Q650.3906,563.4375 650.625,563.7031 Q650.8594,563.9531 650.8594,564.5625 L650.8594,566.0156 Q650.8594,566.625 650.625,566.8906 Q650.3906,567.1563 650.0156,567.1563 Q649.6719,567.1563 649.4688,566.9531 Q649.2656,566.7656 649.1563,566.25 Q649.1094,565.8906 648.9219,565.7031 Q648.5938,565.3281 647.9844,565.1094 Q647.375,564.8906 646.75,564.8906 Q645.9844,564.8906 645.3438,565.2188 Q644.7188,565.5469 644.2188,566.2969 Q643.7344,567.0469 643.7344,568.0781 L643.7344,569.1719 Q643.7344,570.4063 644.625,571.2344 Q645.5156,572.0469 647.1094,572.0469 Q648.0469,572.0469 648.7031,571.7969 Q649.0938,571.6406 649.5156,571.2031 Q649.7813,570.9375 649.9219,570.8594 Q650.0781,570.7813 650.2813,570.7813 Q650.6094,570.7813 650.8594,571.0469 Q651.125,571.2969 651.125,571.6406 Q651.125,571.9844 650.7813,572.3906 Q650.2813,572.9688 649.4844,573.2969 Q648.4063,573.75 647.1094,573.75 Q645.5938,573.75 644.3906,573.125 Q643.4063,572.625 642.7188,571.5625 Q642.0313,570.4844 642.0313,569.2031 L642.0313,568.0469 Q642.0313,566.7188 642.6406,565.5781 Q643.2656,564.4219 644.3594,563.8125 Q645.4531,563.1875 646.6875,563.1875 Q647.4219,563.1875 648.0625,563.3594 Q648.7188,563.5156 649.2656,563.875 Z " fill="#000000"/><text fill="#000000" font-family="sans-serif" font-size="14" lengthAdjust="spacing" textLength="73" x="660.5" y="573.7285">Justification</text><line style="stroke:#181818;stroke-width:0.5;" x1="632.5" x2="735.5" y1="584" y2="584"/><line style="stroke:#181818;stroke-width:0.5;" x1="632.5" x2="735.5" y1="592" y2="592"/></g><!--MD5=[534474e9f05b14d7c70186ae077f30e0]
class Relation--><g id="elem_Relation"><rect fill="#F1F1F1" height="48" id="Relation" rx="2.5" ry="2.5" style="stroke:#181818;stroke-width:0.5;" width="84" x="386" y="552"/><ellipse cx="401" cy="568" fill="#ADD1B2" rx="11" ry="11" style="stroke:#181818;stroke-width:1.0;"/><path d="M403.7656,563.875 Q403.9219,563.6563 404.1094,563.5469 Q404.2969,563.4375 404.5156,563.4375 Q404.8906,563.4375 405.125,563.7031 Q405.3594,563.9531 405.3594,564.5625 L405.3594,566.0156 Q405.3594,566.625 405.125,566.8906 Q404.8906,567.1563 404.5156,567.1563 Q404.1719,567.1563 403.9688,566.9531 Q403.7656,566.7656 403.6563,566.25 Q403.6094,565.8906 403.4219,565.7031 Q403.0938,565.3281 402.4844,565.1094 Q401.875,564.8906 401.25,564.8906 Q400.4844,564.8906 399.8438,565.2188 Q399.2188,565.5469 398.7188,566.2969 Q398.2344,567.0469 398.2344,568.0781 L398.2344,569.1719 Q398.2344,570.4063 399.125,571.2344 Q400.0156,572.0469 401.6094,572.0469 Q402.5469,572.0469 403.2031,571.7969 Q403.5938,571.6406 404.0156,571.2031 Q404.2813,570.9375 404.4219,570.8594 Q404.5781,570.7813 404.7813,570.7813 Q405.1094,570.7813 405.3594,571.0469 Q405.625,571.2969 405.625,571.6406 Q405.625,571.9844 405.2813,572.3906 Q404.7813,572.9688 403.9844,573.2969 Q402.9063,573.75 401.6094,573.75 Q400.0938,573.75 398.8906,573.125 Q397.9063,572.625 397.2188,571.5625 Q396.5313,570.4844 396.5313,569.2031 L396.5313,568.0469 Q396.5313,566.7188 397.1406,565.5781 Q397.7656,564.4219 398.8594,563.8125 Q399.9531,563.1875 401.1875,563.1875 Q401.9219,563.1875 402.5625,563.3594 Q403.2188,563.5156 403.7656,563.875 Z " fill="#000000"/><text fill="#000000" font-family="sans-serif" font-size="14" lengthAdjust="spacing" textLength="52" x="415" y="573.7285">Relation</text><line style="stroke:#181818;stroke-width:0.5;" x1="387" x2="469" y1="584" y2="584"/><line style="stroke:#181818;stroke-width:0.5;" x1="387" x2="469" y1="592" y2="592"/></g><!--MD5=[12743b4aa7b2bf3d8e383437eb99df68]
link Community to User--><g id="link_Community_User"><path codeLine="43" d="M465.677,66.1727 C465.677,66.1727 454.05,92.08 448.8,103.78 " fill="none" id="Community-User" style="stroke:#181818;stroke-width:1.0;"/><polygon fill="#181818" points="443.39,115.83,450.7247,109.2572,445.4375,111.2684,443.4262,105.9812,443.39,115.83" style="stroke:#181818;stroke-width:1.0;"/><line style="stroke:#181818;stroke-width:1.0;" x1="445.4375" x2="448.715" y1="111.2684" y2="103.965"/><polygon fill="#181818" points="470.58,55.22,464.4776,59.062,465.677,66.1727,471.7794,62.3307,470.58,55.22" style="stroke:#181818;stroke-width:1.0;"/><text fill="#000000" font-family="sans-serif" font-size="13" lengthAdjust="spacing" textLength="20" x="423.4899" y="105.1266">1..*</text></g><!--MD5=[2e75cbd22d918ac3202494a8f21c4b7e]
link Community to Concept--><g id="link_Community_Concept"><path codeLine="44" d="M486.2749,66.925 C486.2749,66.925 513.43,247.08 524.52,320.65 " fill="none" id="Community-Concept" style="stroke:#181818;stroke-width:1.0;"/><polygon fill="#181818" points="526.51,333.83,529.1204,324.3334,525.7629,328.8861,521.2102,325.5287,526.51,333.83" style="stroke:#181818;stroke-width:1.0;"/><line style="stroke:#181818;stroke-width:1.0;" x1="525.7629" x2="524.57" y1="328.8861" y2="320.97"/><polygon fill="#181818" points="484.48,55.06,481.4225,61.5908,486.2749,66.925,489.3325,60.3942,484.48,55.06" style="stroke:#181818;stroke-width:1.0;"/></g><!--MD5=[7016372388c7ac2652db8515880aaa11]
reverse link User to Editor--><g id="link_User_Editor"><path codeLine="47" d="M433,184.58 C433,198.36 433,213.06 433,224.83 " fill="none" id="User-backto-Editor" style="stroke:#181818;stroke-width:1.0;"/><polygon fill="none" points="426,184.22,433,164.22,440,184.22,426,184.22" style="stroke:#181818;stroke-width:1.0;"/></g><!--MD5=[60e4945ab784e9eaf709bb3168dd25a4]
reverse link Editor to Reviewer--><g id="link_Editor_Reviewer"><path codeLine="48" d="M412.68,291.33 C388.01,341.52 347.26,424.42 327.48,464.65 " fill="none" id="Editor-backto-Reviewer" style="stroke:#181818;stroke-width:1.0;"/><polygon fill="none" points="406.46,288.11,421.57,273.25,419.03,294.29,406.46,288.11" style="stroke:#181818;stroke-width:1.0;"/></g><!--MD5=[d8a655080454bab67f6091cbff4cee86]
reverse link User to Executor--><g id="link_User_Executor"><path codeLine="49" d="M390.25,177.3 C371.74,193.02 350.62,210.96 334.29,224.83 " fill="none" id="User-backto-Executor" style="stroke:#181818;stroke-width:1.0;"/><polygon fill="none" points="385.88,171.83,405.66,164.22,394.95,182.5,385.88,171.83" style="stroke:#181818;stroke-width:1.0;"/></g><!--MD5=[8988500cc7d5a7a5953e16366f05393a]
reverse link AnswersToReview to OpenQuestion--><g id="link_AnswersToReview_OpenQuestion"><path codeLine="51" d="M589.03,721.11 C613.93,738.2 646.64,760.65 673.14,778.84 " fill="none" id="AnswersToReview-backto-OpenQuestion" style="stroke:#181818;stroke-width:1.0;"/><polygon fill="#181818" points="584.79,718.2,589.9538,726.5866,588.9148,721.026,594.4754,719.9869,584.79,718.2" style="stroke:#181818;stroke-width:1.0;"/></g><!--MD5=[d0493fe3f8433ad70d7ac94d8da863ff]
reverse link Definition to AnswersToReview--><g id="link_Definition_AnswersToReview"><path codeLine="52" d="M551,605.35 C551,625.16 551,651.28 551,669.84 " fill="none" id="Definition-backto-AnswersToReview" style="stroke:#181818;stroke-width:1.0;"/><polygon fill="#181818" points="551,600.2,547,609.2,551,605.2,555,609.2,551,600.2" style="stroke:#181818;stroke-width:1.0;"/></g><!--MD5=[1a4d83db36a33f2fbcdef02fb8712ac7]
reverse link Justification to AnswersToReview--><g id="link_Justification_AnswersToReview"><path codeLine="53" d="M653.51,603.59 C630.58,623.59 599.46,650.73 577.55,669.84 " fill="none" id="Justification-backto-AnswersToReview" style="stroke:#181818;stroke-width:1.0;"/><polygon fill="#181818" points="657.41,600.2,647.9965,603.096,653.64,603.4844,653.2516,609.1279,657.41,600.2" style="stroke:#181818;stroke-width:1.0;"/></g><!--MD5=[ca1db39ba97a6974584bf41ab4f0a9b1]
reverse link Relation to AnswersToReview--><g id="link_Relation_AnswersToReview"><path codeLine="54" d="M456.46,603.84 C477.64,623.82 506.26,650.81 526.45,669.84 " fill="none" id="Relation-backto-AnswersToReview" style="stroke:#181818;stroke-width:1.0;"/><polygon fill="#181818" points="452.6,600.2,456.4123,609.2811,456.241,603.6268,461.8953,603.4555,452.6,600.2" style="stroke:#181818;stroke-width:1.0;"/></g><!--MD5=[543bb2115b5a10697a67507a00f6a2f4]
reverse link Concept to Definition--><g id="link_Concept_Definition"><path codeLine="56" d="M539.65,448.54 C542.84,484.09 546.64,526.38 548.93,551.93 " fill="none" id="Concept-backto-Definition" style="stroke:#181818;stroke-width:1.0;"/><polygon fill="none" points="538.47,435.29,535.0202,441.6224,539.5386,447.2423,542.9884,440.91,538.47,435.29" style="stroke:#181818;stroke-width:1.0;"/></g><!--MD5=[33d3555b2745296a7b7b71f06c4298e3]
reverse link Concept to Justification--><g id="link_Concept_Justification"><path codeLine="57" d="M581.68,445.73 C610.26,481.84 644.98,525.7 665.74,551.93 " fill="none" id="Concept-backto-Justification" style="stroke:#181818;stroke-width:1.0;"/><polygon fill="none" points="573.41,435.29,573.9965,442.4772,580.8564,444.7002,580.2699,437.5129,573.41,435.29" style="stroke:#181818;stroke-width:1.0;"/></g><!--MD5=[54f9360500e0fd532969fc16f437bbea]
reverse link Concept to Relation--><g id="link_Concept_Relation"><path codeLine="58" d="M499.79,446.66 C479.69,482.59 455.45,525.93 440.9,551.93 " fill="none" id="Concept-backto-Relation" style="stroke:#181818;stroke-width:1.0;"/><polygon fill="none" points="506.15,435.29,499.7272,438.5684,500.2831,445.758,506.7059,442.4796,506.15,435.29" style="stroke:#181818;stroke-width:1.0;"/></g><!--MD5=[3e23c87a985df3c2da55c80a43bfcd45]
link Executor to Evaluation--><g id="link_Executor_Evaluation"><path codeLine="60" d="M293.94,273.25 C281.06,296.18 261.36,331.23 247.65,355.64 " fill="none" id="Executor-to-Evaluation" style="stroke:#181818;stroke-width:1.0;"/><polygon fill="#181818" points="245.17,360.06,253.0604,354.1658,247.6152,355.6987,246.0823,350.2535,245.17,360.06" style="stroke:#181818;stroke-width:1.0;"/><text fill="#000000" font-family="sans-serif" font-size="13" lengthAdjust="spacing" textLength="20" x="225.9427" y="349.6907">0..*</text></g><!--MD5=[7ea0c49f743e358ac875b85df2ad47d3]
link Evaluation to Test--><g id="link_Evaluation_Test"><path codeLine="61" d="M228.08,408.74 C222.65,440.9 212.78,499.33 206.31,537.66 " fill="none" id="Evaluation-to-Test" style="stroke:#181818;stroke-width:1.0;"/><polygon fill="#181818" points="205.46,542.69,210.8967,534.4777,206.2889,537.7592,203.0075,533.1514,205.46,542.69" style="stroke:#181818;stroke-width:1.0;"/></g><!--MD5=[dbcaedebb070bbdd4f1f81456a517a7e]
link Editor to Concept--><g id="link_Editor_Concept"><path codeLine="63" d="M450.59,273.25 C462.36,288.81 478.36,309.95 493.19,329.56 " fill="none" id="Editor-to-Concept" style="stroke:#181818;stroke-width:1.0;stroke-dasharray:7.0,7.0;"/><polygon fill="#181818" points="496.53,333.98,494.2916,324.3889,493.514,329.992,487.9109,329.2145,496.53,333.98" style="stroke:#181818;stroke-width:1.0;"/></g><!--MD5=[f3154c50d89c8fec986e56ef836e5177]
reverse link Concept to OpenQuestion--><g id="link_Concept_OpenQuestion"><path codeLine="64" d="M581.39,403.68 C634.52,426.95 717.94,472.84 754,543 C793.77,620.38 758.05,726.34 735.36,778.82 " fill="none" id="Concept-backto-OpenQuestion" style="stroke:#181818;stroke-width:1.0;stroke-dasharray:7.0,7.0;"/><polygon fill="#181818" points="576.67,401.64,583.3395,408.8869,581.2583,403.6268,586.5184,401.5457,576.67,401.64" style="stroke:#181818;stroke-width:1.0;"/></g><!--MD5=[9fac5a92095d82c34ec834b068648827]
link Reviewer to AnswersToReview--><g id="link_Reviewer_AnswersToReview"><path codeLine="66" d="M311.2,513.14 C307.2,539.17 305.08,581.41 326,609 C344.37,633.23 414.84,657.12 472.08,673.19 " fill="none" id="Reviewer-to-AnswersToReview" style="stroke:#181818;stroke-width:1.0;stroke-dasharray:7.0,7.0;"/><polygon fill="#181818" points="477.23,674.62,469.6356,668.349,472.4138,673.2766,467.4862,676.0548,477.23,674.62" style="stroke:#181818;stroke-width:1.0;"/><text fill="#000000" font-family="sans-serif" font-size="13" lengthAdjust="spacing" textLength="40" x="327" y="581.4951">Review</text></g><!--MD5=[bb3d97f09542411db1527b071cca8268]
link Test to Question--><g id="link_Test_Question"><path codeLine="68" d="M200,621 C200,621 200,645.89 200,656.85 " fill="none" id="Test-Question" style="stroke:#181818;stroke-width:1.0;"/><polygon fill="#181818" points="200,669.93,204,660.93,200,664.93,196,660.93,200,669.93" style="stroke:#181818;stroke-width:1.0;"/><line style="stroke:#181818;stroke-width:1.0;" x1="200" x2="200" y1="664.93" y2="656.93"/><polygon fill="#181818" points="200,609,196,615,200,621,204,615,200,609" style="stroke:#181818;stroke-width:1.0;"/><text fill="#000000" font-family="sans-serif" font-size="13" lengthAdjust="spacing" textLength="27" x="169.5406" y="659.2522">10..*</text></g><!--MD5=[6eeca14f8a2ed45d1117f4ed4af75b7e]
link Question to Statement--><g id="link_Question_Statement"><path codeLine="69" d="M199.4022,730.1984 C199.4022,730.1984 198.86,760.89 198.62,774.77 " fill="none" id="Question-Statement" style="stroke:#181818;stroke-width:1.0;"/><polygon fill="#181818" points="198.4,787.84,202.5576,778.9117,198.4879,782.8408,194.5588,778.7711,198.4,787.84" style="stroke:#181818;stroke-width:1.0;"/><line style="stroke:#181818;stroke-width:1.0;" x1="198.4879" x2="198.62" y1="782.8408" y2="774.85"/><polygon fill="#181818" points="199.6,718.2,195.5017,724.1333,199.4022,730.1984,203.5006,724.2651,199.6,718.2" style="stroke:#181818;stroke-width:1.0;"/></g><!--MD5=[bcbd408316bb9144f3569d3bcde56d28]
link Question to Incorrect--><g id="link_Question_Incorrect"><path codeLine="70" d="M255.4017,720.4071 C255.4017,720.4071 337.64,758.9 378,779 C379.86,779.93 381.75,780.88 383.66,781.84 " fill="none" id="Question-Incorrect" style="stroke:#181818;stroke-width:1.0;"/><polygon fill="#181818" points="395.46,787.88,389.2665,780.2223,391.0078,785.6044,385.6256,787.3457,395.46,787.88" style="stroke:#181818;stroke-width:1.0;"/><line style="stroke:#181818;stroke-width:1.0;" x1="391.0078" x2="383.89" y1="785.6044" y2="781.96"/><polygon fill="#181818" points="244.51,715.37,248.2768,721.5191,255.4017,720.4071,251.6348,714.258,244.51,715.37" style="stroke:#181818;stroke-width:1.0;"/><text fill="#000000" font-family="sans-serif" font-size="13" lengthAdjust="spacing" textLength="7" x="380.375" y="779.8847">3</text></g><!--MD5=[fad82a5e9ec53f6abc538956bca6f09b]
link Question to Correct--><g id="link_Question_Correct"><path codeLine="71" d="M232.8614,726.5054 C232.8614,726.5054 270.64,762.72 287.42,778.81 " fill="none" id="Question-Correct" style="stroke:#181818;stroke-width:1.0;"/><polygon fill="#181818" points="296.85,787.84,293.1224,778.7238,293.2411,784.3794,287.5855,784.498,296.85,787.84" style="stroke:#181818;stroke-width:1.0;"/><line style="stroke:#181818;stroke-width:1.0;" x1="293.2411" x2="287.46" y1="784.3794" y2="778.845"/><polygon fill="#181818" points="224.2,718.2,225.7622,725.2398,232.8614,726.5054,231.2992,719.4656,224.2,718.2" style="stroke:#181818;stroke-width:1.0;"/></g><!--MD5=[b1491d38e87214202fddacec717a9c8d]
reverse link Answer to Correct--><g id="link_Answer_Correct"><path codeLine="72" d="M359.07,736.16 C350.24,753.51 340.29,773.07 332.78,787.84 " fill="none" id="Answer-backto-Correct" style="stroke:#181818;stroke-width:1.0;"/><polygon fill="none" points="352.9,732.85,368.2,718.2,365.37,739.2,352.9,732.85" style="stroke:#181818;stroke-width:1.0;"/></g><!--MD5=[a6181c8180a1587156cddad319d63c9e]
reverse link Answer to Incorrect--><g id="link_Answer_Incorrect"><path codeLine="73" d="M400.93,736.16 C409.76,753.51 419.71,773.07 427.22,787.84 " fill="none" id="Answer-backto-Incorrect" style="stroke:#181818;stroke-width:1.0;"/><polygon fill="none" points="394.63,739.2,391.8,718.2,407.1,732.85,394.63,739.2" style="stroke:#181818;stroke-width:1.0;"/></g><!--MD5=[98df2f76ab45609c36aa45d6b9c3faee]
link Question to Category--><g id="link_Question_Category"><path codeLine="75" d="M160.9591,725.5946 C160.9591,725.5946 112.89,763.28 91.79,779.82 " fill="none" id="Question-Category" style="stroke:#181818;stroke-width:1.0;"/><polygon fill="#181818" points="81.54,787.84,91.093,785.4443,85.4779,784.7589,86.1633,779.1437,81.54,787.84" style="stroke:#181818;stroke-width:1.0;"/><line style="stroke:#181818;stroke-width:1.0;" x1="85.4779" x2="91.775" y1="784.7589" y2="779.825"/><polygon fill="#181818" points="170.41,718.2,163.2197,718.747,160.9591,725.5946,168.1494,725.0476,170.41,718.2" style="stroke:#181818;stroke-width:1.0;"/></g><!--MD5=[a5725b0440277e7b298212d4ab098951]
link Category to Category--><g id="link_Category_Category"><path codeLine="76" d="M109.2277,800.7173 C109.2277,800.7173 132,805.64 132,812 C132,818.36 123.03,822.11 110.6,823.25 " fill="none" id="Category-Category" style="stroke:#181818;stroke-width:1.0;"/><polygon fill="#181818" points="97.23,823.52,106.3073,827.3412,102.229,823.4211,106.1491,819.3428,97.23,823.52" style="stroke:#181818;stroke-width:1.0;"/><line style="stroke:#181818;stroke-width:1.0;" x1="102.229" x2="110.23" y1="823.4211" y2="823.26"/><polygon fill="#181818" points="97.23,800.48,103.1497,804.5979,109.2277,800.7173,103.3079,796.5994,97.23,800.48" style="stroke:#181818;stroke-width:1.0;"/><text fill="#000000" font-family="sans-serif" font-size="13" lengthAdjust="spacing" textLength="20" x="104.9967" y="821.5348">0..*</text></g><!--MD5=[0e6940489ac3107cc2aa3611e060d675]
@startuml OpoTestDomain

class Community

class User

class Reviewer

class Editor 

class Executor

class Evaluation

class Category 

class Test {
    categories
}

class AnswersToReview

class Concept {
    keyword
    level
    ...
}

class OpenQuestion {
    template
}

class Question {
}

class Statement

class Answer 

class Correct

Class Incorrect

Community *- -> "1..*" User
Community *- -> Concept


User <|- - Editor
Editor <|- -  Reviewer
User <|- - Executor

AnswersToReview <- - OpenQuestion
Definition <- - AnswersToReview
Justification <- - AnswersToReview
Relation <- - AnswersToReview

Concept o- - Definition
Concept o- - Justification
Concept o- - Relation

Executor - -> "0..*" Evaluation
Evaluation - -> Test

Editor ..> Concept
Concept <.. OpenQuestion
'OpenQuestion - -> Question
Reviewer ..> AnswersToReview : Review

Test *- -> "10..*" Question
Question *- ->   Statement
Question *- -> "3" Incorrect
Question *- ->   Correct
Answer <|- - Correct
Answer <|- - Incorrect

Question *- -> Category
Category *- ->"0..*" Category







@end

@startuml OpoTestDomain

class Community

class User

class Reviewer

class Editor 

class Executor

class Evaluation

class Category 

class Test {
    categories
}

class AnswersToReview

class Concept {
    keyword
    level
    ...
}

class OpenQuestion {
    template
}

class Question {
}

class Statement

class Answer 

class Correct

Class Incorrect

Community *- -> "1..*" User
Community *- -> Concept


User <|- - Editor
Editor <|- -  Reviewer
User <|- - Executor

AnswersToReview <- - OpenQuestion
Definition <- - AnswersToReview
Justification <- - AnswersToReview
Relation <- - AnswersToReview

Concept o- - Definition
Concept o- - Justification
Concept o- - Relation

Executor - -> "0..*" Evaluation
Evaluation - -> Test

Editor ..> Concept
Concept <.. OpenQuestion
Reviewer ..> AnswersToReview : Review

Test *- -> "10..*" Question
Question *- ->   Statement
Question *- -> "3" Incorrect
Question *- ->   Correct
Answer <|- - Correct
Answer <|- - Incorrect

Question *- -> Category
Category *- ->"0..*" Category







@end

PlantUML version 1.2022.7(Mon Aug 22 18:01:30 WEST 2022)
(GPL source distribution)
Java Runtime: OpenJDK Runtime Environment
JVM: OpenJDK 64-Bit Server VM
Default Encoding: Cp1252
Language: es
Country: ES
--></g></svg>