<?xml version="1.0" encoding="UTF-8" standalone="no"?><svg xmlns="http://www.w3.org/2000/svg" xmlns:xlink="http://www.w3.org/1999/xlink" contentStyleType="text/css" height="1521px" preserveAspectRatio="none" style="width:1294px;height:1521px;background:#FFFFFF;" version="1.1" viewBox="0 0 1294 1521" width="1294px" zoomAndPan="magnify"><defs/><g><!--MD5=[668d633d11bedc8952753581a2dda3db]
class Community--><g id="elem_Community"><rect codeLine="2" fill="#F1F1F1" height="48" id="Community" rx="2.5" ry="2.5" style="stroke:#181818;stroke-width:0.5;" width="102" x="760" y="7"/><ellipse cx="775" cy="23" fill="#ADD1B2" rx="11" ry="11" style="stroke:#181818;stroke-width:1.0;"/><path d="M777.7656,18.875 Q777.9219,18.6563 778.1094,18.5469 Q778.2969,18.4375 778.5156,18.4375 Q778.8906,18.4375 779.125,18.7031 Q779.3594,18.9531 779.3594,19.5625 L779.3594,21.0156 Q779.3594,21.625 779.125,21.8906 Q778.8906,22.1563 778.5156,22.1563 Q778.1719,22.1563 777.9688,21.9531 Q777.7656,21.7656 777.6563,21.25 Q777.6094,20.8906 777.4219,20.7031 Q777.0938,20.3281 776.4844,20.1094 Q775.875,19.8906 775.25,19.8906 Q774.4844,19.8906 773.8438,20.2188 Q773.2188,20.5469 772.7188,21.2969 Q772.2344,22.0469 772.2344,23.0781 L772.2344,24.1719 Q772.2344,25.4063 773.125,26.2344 Q774.0156,27.0469 775.6094,27.0469 Q776.5469,27.0469 777.2031,26.7969 Q777.5938,26.6406 778.0156,26.2031 Q778.2813,25.9375 778.4219,25.8594 Q778.5781,25.7813 778.7813,25.7813 Q779.1094,25.7813 779.3594,26.0469 Q779.625,26.2969 779.625,26.6406 Q779.625,26.9844 779.2813,27.3906 Q778.7813,27.9688 777.9844,28.2969 Q776.9063,28.75 775.6094,28.75 Q774.0938,28.75 772.8906,28.125 Q771.9063,27.625 771.2188,26.5625 Q770.5313,25.4844 770.5313,24.2031 L770.5313,23.0469 Q770.5313,21.7188 771.1406,20.5781 Q771.7656,19.4219 772.8594,18.8125 Q773.9531,18.1875 775.1875,18.1875 Q775.9219,18.1875 776.5625,18.3594 Q777.2188,18.5156 777.7656,18.875 Z " fill="#000000"/><text fill="#000000" font-family="sans-serif" font-size="14" lengthAdjust="spacing" textLength="70" x="789" y="28.7285">Community</text><line style="stroke:#181818;stroke-width:0.5;" x1="761" x2="861" y1="39" y2="39"/><line style="stroke:#181818;stroke-width:0.5;" x1="761" x2="861" y1="47" y2="47"/></g><!--MD5=[3fd616f346a44cd59a91eb10b19e157c]
class User--><g id="elem_User"><rect codeLine="4" fill="#F1F1F1" height="83.2188" id="User" rx="2.5" ry="2.5" style="stroke:#181818;stroke-width:0.5;" width="136" x="683" y="116"/><ellipse cx="732.25" cy="132" fill="#ADD1B2" rx="11" ry="11" style="stroke:#181818;stroke-width:1.0;"/><path d="M735.0156,127.875 Q735.1719,127.6563 735.3594,127.5469 Q735.5469,127.4375 735.7656,127.4375 Q736.1406,127.4375 736.375,127.7031 Q736.6094,127.9531 736.6094,128.5625 L736.6094,130.0156 Q736.6094,130.625 736.375,130.8906 Q736.1406,131.1563 735.7656,131.1563 Q735.4219,131.1563 735.2188,130.9531 Q735.0156,130.7656 734.9063,130.25 Q734.8594,129.8906 734.6719,129.7031 Q734.3438,129.3281 733.7344,129.1094 Q733.125,128.8906 732.5,128.8906 Q731.7344,128.8906 731.0938,129.2188 Q730.4688,129.5469 729.9688,130.2969 Q729.4844,131.0469 729.4844,132.0781 L729.4844,133.1719 Q729.4844,134.4063 730.375,135.2344 Q731.2656,136.0469 732.8594,136.0469 Q733.7969,136.0469 734.4531,135.7969 Q734.8438,135.6406 735.2656,135.2031 Q735.5313,134.9375 735.6719,134.8594 Q735.8281,134.7813 736.0313,134.7813 Q736.3594,134.7813 736.6094,135.0469 Q736.875,135.2969 736.875,135.6406 Q736.875,135.9844 736.5313,136.3906 Q736.0313,136.9688 735.2344,137.2969 Q734.1563,137.75 732.8594,137.75 Q731.3438,137.75 730.1406,137.125 Q729.1563,136.625 728.4688,135.5625 Q727.7813,134.4844 727.7813,133.2031 L727.7813,132.0469 Q727.7813,130.7188 728.3906,129.5781 Q729.0156,128.4219 730.1094,127.8125 Q731.2031,127.1875 732.4375,127.1875 Q733.1719,127.1875 733.8125,127.3594 Q734.4688,127.5156 735.0156,127.875 Z " fill="#000000"/><text fill="#000000" font-family="sans-serif" font-size="14" lengthAdjust="spacing" textLength="29" x="752.75" y="137.7285">User</text><line style="stroke:#181818;stroke-width:0.5;" x1="684" x2="818" y1="148" y2="148"/><rect fill="none" height="6" style="stroke:#C82930;stroke-width:1.0;" width="6" x="691" y="159.3047"/><text fill="#000000" font-family="sans-serif" font-size="14" lengthAdjust="spacing" textLength="63" x="703" y="166.5332">username</text><rect fill="none" height="6" style="stroke:#C82930;stroke-width:1.0;" width="6" x="691" y="176.9141"/><text fill="#000000" font-family="sans-serif" font-size="14" lengthAdjust="spacing" textLength="110" x="703" y="184.1426">categorySelected</text><line style="stroke:#181818;stroke-width:0.5;" x1="684" x2="818" y1="191.2188" y2="191.2188"/></g><!--MD5=[61a83f88cb8b7d3a80bc8c481f3736bf]
class Teacher--><g id="elem_Teacher"><rect codeLine="9" fill="#F1F1F1" height="65.6094" id="Teacher" rx="2.5" ry="2.5" style="stroke:#181818;stroke-width:0.5;" width="131" x="687.5" y="342"/><ellipse cx="723.2" cy="358" fill="#ADD1B2" rx="11" ry="11" style="stroke:#181818;stroke-width:1.0;"/><path d="M725.9656,353.875 Q726.1219,353.6563 726.3094,353.5469 Q726.4969,353.4375 726.7156,353.4375 Q727.0906,353.4375 727.325,353.7031 Q727.5594,353.9531 727.5594,354.5625 L727.5594,356.0156 Q727.5594,356.625 727.325,356.8906 Q727.0906,357.1563 726.7156,357.1563 Q726.3719,357.1563 726.1688,356.9531 Q725.9656,356.7656 725.8563,356.25 Q725.8094,355.8906 725.6219,355.7031 Q725.2938,355.3281 724.6844,355.1094 Q724.075,354.8906 723.45,354.8906 Q722.6844,354.8906 722.0438,355.2188 Q721.4188,355.5469 720.9188,356.2969 Q720.4344,357.0469 720.4344,358.0781 L720.4344,359.1719 Q720.4344,360.4063 721.325,361.2344 Q722.2156,362.0469 723.8094,362.0469 Q724.7469,362.0469 725.4031,361.7969 Q725.7938,361.6406 726.2156,361.2031 Q726.4813,360.9375 726.6219,360.8594 Q726.7781,360.7813 726.9813,360.7813 Q727.3094,360.7813 727.5594,361.0469 Q727.825,361.2969 727.825,361.6406 Q727.825,361.9844 727.4813,362.3906 Q726.9813,362.9688 726.1844,363.2969 Q725.1063,363.75 723.8094,363.75 Q722.2938,363.75 721.0906,363.125 Q720.1063,362.625 719.4188,361.5625 Q718.7313,360.4844 718.7313,359.2031 L718.7313,358.0469 Q718.7313,356.7188 719.3406,355.5781 Q719.9656,354.4219 721.0594,353.8125 Q722.1531,353.1875 723.3875,353.1875 Q724.1219,353.1875 724.7625,353.3594 Q725.4188,353.5156 725.9656,353.875 Z " fill="#000000"/><text fill="#000000" font-family="sans-serif" font-size="14" lengthAdjust="spacing" textLength="53" x="741.8" y="363.7285">Teacher</text><line style="stroke:#181818;stroke-width:0.5;" x1="688.5" x2="817.5" y1="374" y2="374"/><rect fill="none" height="6" style="stroke:#C82930;stroke-width:1.0;" width="6" x="695.5" y="385.3047"/><text fill="#000000" font-family="sans-serif" font-size="14" lengthAdjust="spacing" textLength="105" x="707.5" y="392.5332">conceptSelected</text><line style="stroke:#181818;stroke-width:0.5;" x1="688.5" x2="817.5" y1="399.6094" y2="399.6094"/></g><!--MD5=[d6181cb537bdc20c0a3007a98a56832d]
class Student--><g id="elem_Student"><rect codeLine="13" fill="#F1F1F1" height="48" id="Student" rx="2.5" ry="2.5" style="stroke:#181818;stroke-width:0.5;" width="81" x="571.5" y="351"/><ellipse cx="586.5" cy="367" fill="#ADD1B2" rx="11" ry="11" style="stroke:#181818;stroke-width:1.0;"/><path d="M589.2656,362.875 Q589.4219,362.6563 589.6094,362.5469 Q589.7969,362.4375 590.0156,362.4375 Q590.3906,362.4375 590.625,362.7031 Q590.8594,362.9531 590.8594,363.5625 L590.8594,365.0156 Q590.8594,365.625 590.625,365.8906 Q590.3906,366.1563 590.0156,366.1563 Q589.6719,366.1563 589.4688,365.9531 Q589.2656,365.7656 589.1563,365.25 Q589.1094,364.8906 588.9219,364.7031 Q588.5938,364.3281 587.9844,364.1094 Q587.375,363.8906 586.75,363.8906 Q585.9844,363.8906 585.3438,364.2188 Q584.7188,364.5469 584.2188,365.2969 Q583.7344,366.0469 583.7344,367.0781 L583.7344,368.1719 Q583.7344,369.4063 584.625,370.2344 Q585.5156,371.0469 587.1094,371.0469 Q588.0469,371.0469 588.7031,370.7969 Q589.0938,370.6406 589.5156,370.2031 Q589.7813,369.9375 589.9219,369.8594 Q590.0781,369.7813 590.2813,369.7813 Q590.6094,369.7813 590.8594,370.0469 Q591.125,370.2969 591.125,370.6406 Q591.125,370.9844 590.7813,371.3906 Q590.2813,371.9688 589.4844,372.2969 Q588.4063,372.75 587.1094,372.75 Q585.5938,372.75 584.3906,372.125 Q583.4063,371.625 582.7188,370.5625 Q582.0313,369.4844 582.0313,368.2031 L582.0313,367.0469 Q582.0313,365.7188 582.6406,364.5781 Q583.2656,363.4219 584.3594,362.8125 Q585.4531,362.1875 586.6875,362.1875 Q587.4219,362.1875 588.0625,362.3594 Q588.7188,362.5156 589.2656,362.875 Z " fill="#000000"/><text fill="#000000" font-family="sans-serif" font-size="14" lengthAdjust="spacing" textLength="49" x="600.5" y="372.7285">Student</text><line style="stroke:#181818;stroke-width:0.5;" x1="572.5" x2="651.5" y1="383" y2="383"/><line style="stroke:#181818;stroke-width:0.5;" x1="572.5" x2="651.5" y1="391" y2="391"/></g><!--MD5=[71e8807956d33805e77353b9d7e2df39]
class Evaluation--><g id="elem_Evaluation"><rect codeLine="15" fill="#F1F1F1" height="65.6094" id="Evaluation" rx="2.5" ry="2.5" style="stroke:#181818;stroke-width:0.5;" width="98" x="563" y="469"/><ellipse cx="578" cy="485" fill="#ADD1B2" rx="11" ry="11" style="stroke:#181818;stroke-width:1.0;"/><path d="M580.7656,480.875 Q580.9219,480.6563 581.1094,480.5469 Q581.2969,480.4375 581.5156,480.4375 Q581.8906,480.4375 582.125,480.7031 Q582.3594,480.9531 582.3594,481.5625 L582.3594,483.0156 Q582.3594,483.625 582.125,483.8906 Q581.8906,484.1563 581.5156,484.1563 Q581.1719,484.1563 580.9688,483.9531 Q580.7656,483.7656 580.6563,483.25 Q580.6094,482.8906 580.4219,482.7031 Q580.0938,482.3281 579.4844,482.1094 Q578.875,481.8906 578.25,481.8906 Q577.4844,481.8906 576.8438,482.2188 Q576.2188,482.5469 575.7188,483.2969 Q575.2344,484.0469 575.2344,485.0781 L575.2344,486.1719 Q575.2344,487.4063 576.125,488.2344 Q577.0156,489.0469 578.6094,489.0469 Q579.5469,489.0469 580.2031,488.7969 Q580.5938,488.6406 581.0156,488.2031 Q581.2813,487.9375 581.4219,487.8594 Q581.5781,487.7813 581.7813,487.7813 Q582.1094,487.7813 582.3594,488.0469 Q582.625,488.2969 582.625,488.6406 Q582.625,488.9844 582.2813,489.3906 Q581.7813,489.9688 580.9844,490.2969 Q579.9063,490.75 578.6094,490.75 Q577.0938,490.75 575.8906,490.125 Q574.9063,489.625 574.2188,488.5625 Q573.5313,487.4844 573.5313,486.2031 L573.5313,485.0469 Q573.5313,483.7188 574.1406,482.5781 Q574.7656,481.4219 575.8594,480.8125 Q576.9531,480.1875 578.1875,480.1875 Q578.9219,480.1875 579.5625,480.3594 Q580.2188,480.5156 580.7656,480.875 Z " fill="#000000"/><text fill="#000000" font-family="sans-serif" font-size="14" lengthAdjust="spacing" textLength="66" x="592" y="490.7285">Evaluation</text><line style="stroke:#181818;stroke-width:0.5;" x1="564" x2="660" y1="501" y2="501"/><rect fill="none" height="6" style="stroke:#C82930;stroke-width:1.0;" width="6" x="571" y="512.3047"/><text fill="#000000" font-family="sans-serif" font-size="14" lengthAdjust="spacing" textLength="35" x="583" y="519.5332">result</text><line style="stroke:#181818;stroke-width:0.5;" x1="564" x2="660" y1="526.6094" y2="526.6094"/></g><!--MD5=[a96594a83e2ecdc78cbf17c2ddf01934]
class Category--><g id="elem_Category"><rect codeLine="19" fill="#F1F1F1" height="83.2188" id="Category" rx="2.5" ry="2.5" style="stroke:#181818;stroke-width:0.5;" width="115" x="814.5" y="229"/><ellipse cx="840.75" cy="245" fill="#ADD1B2" rx="11" ry="11" style="stroke:#181818;stroke-width:1.0;"/><path d="M843.5156,240.875 Q843.6719,240.6563 843.8594,240.5469 Q844.0469,240.4375 844.2656,240.4375 Q844.6406,240.4375 844.875,240.7031 Q845.1094,240.9531 845.1094,241.5625 L845.1094,243.0156 Q845.1094,243.625 844.875,243.8906 Q844.6406,244.1563 844.2656,244.1563 Q843.9219,244.1563 843.7188,243.9531 Q843.5156,243.7656 843.4063,243.25 Q843.3594,242.8906 843.1719,242.7031 Q842.8438,242.3281 842.2344,242.1094 Q841.625,241.8906 841,241.8906 Q840.2344,241.8906 839.5938,242.2188 Q838.9688,242.5469 838.4688,243.2969 Q837.9844,244.0469 837.9844,245.0781 L837.9844,246.1719 Q837.9844,247.4063 838.875,248.2344 Q839.7656,249.0469 841.3594,249.0469 Q842.2969,249.0469 842.9531,248.7969 Q843.3438,248.6406 843.7656,248.2031 Q844.0313,247.9375 844.1719,247.8594 Q844.3281,247.7813 844.5313,247.7813 Q844.8594,247.7813 845.1094,248.0469 Q845.375,248.2969 845.375,248.6406 Q845.375,248.9844 845.0313,249.3906 Q844.5313,249.9688 843.7344,250.2969 Q842.6563,250.75 841.3594,250.75 Q839.8438,250.75 838.6406,250.125 Q837.6563,249.625 836.9688,248.5625 Q836.2813,247.4844 836.2813,246.2031 L836.2813,245.0469 Q836.2813,243.7188 836.8906,242.5781 Q837.5156,241.4219 838.6094,240.8125 Q839.7031,240.1875 840.9375,240.1875 Q841.6719,240.1875 842.3125,240.3594 Q842.9688,240.5156 843.5156,240.875 Z " fill="#000000"/><text fill="#000000" font-family="sans-serif" font-size="14" lengthAdjust="spacing" textLength="58" x="857.25" y="250.7285">Category</text><line style="stroke:#181818;stroke-width:0.5;" x1="815.5" x2="928.5" y1="261" y2="261"/><rect fill="none" height="6" style="stroke:#C82930;stroke-width:1.0;" width="6" x="822.5" y="272.3047"/><text fill="#000000" font-family="sans-serif" font-size="14" lengthAdjust="spacing" textLength="89" x="834.5" y="279.5332">subcategories</text><rect fill="none" height="6" style="stroke:#C82930;stroke-width:1.0;" width="6" x="822.5" y="289.9141"/><text fill="#000000" font-family="sans-serif" font-size="14" lengthAdjust="spacing" textLength="57" x="834.5" y="297.1426">concepts</text><line style="stroke:#181818;stroke-width:0.5;" x1="815.5" x2="928.5" y1="304.2188" y2="304.2188"/></g><!--MD5=[df38be88ccee13e832d6fafd6288a4ca]
class Test--><g id="elem_Test"><rect codeLine="24" fill="#F1F1F1" height="65.6094" id="Test" rx="2.5" ry="2.5" style="stroke:#181818;stroke-width:0.5;" width="271" x="382.5" y="631"/><ellipse cx="499.75" cy="647" fill="#ADD1B2" rx="11" ry="11" style="stroke:#181818;stroke-width:1.0;"/><path d="M502.5156,642.875 Q502.6719,642.6563 502.8594,642.5469 Q503.0469,642.4375 503.2656,642.4375 Q503.6406,642.4375 503.875,642.7031 Q504.1094,642.9531 504.1094,643.5625 L504.1094,645.0156 Q504.1094,645.625 503.875,645.8906 Q503.6406,646.1563 503.2656,646.1563 Q502.9219,646.1563 502.7188,645.9531 Q502.5156,645.7656 502.4063,645.25 Q502.3594,644.8906 502.1719,644.7031 Q501.8438,644.3281 501.2344,644.1094 Q500.625,643.8906 500,643.8906 Q499.2344,643.8906 498.5938,644.2188 Q497.9688,644.5469 497.4688,645.2969 Q496.9844,646.0469 496.9844,647.0781 L496.9844,648.1719 Q496.9844,649.4063 497.875,650.2344 Q498.7656,651.0469 500.3594,651.0469 Q501.2969,651.0469 501.9531,650.7969 Q502.3438,650.6406 502.7656,650.2031 Q503.0313,649.9375 503.1719,649.8594 Q503.3281,649.7813 503.5313,649.7813 Q503.8594,649.7813 504.1094,650.0469 Q504.375,650.2969 504.375,650.6406 Q504.375,650.9844 504.0313,651.3906 Q503.5313,651.9688 502.7344,652.2969 Q501.6563,652.75 500.3594,652.75 Q498.8438,652.75 497.6406,652.125 Q496.6563,651.625 495.9688,650.5625 Q495.2813,649.4844 495.2813,648.2031 L495.2813,647.0469 Q495.2813,645.7188 495.8906,644.5781 Q496.5156,643.4219 497.6094,642.8125 Q498.7031,642.1875 499.9375,642.1875 Q500.6719,642.1875 501.3125,642.3594 Q501.9688,642.5156 502.5156,642.875 Z " fill="#000000"/><text fill="#000000" font-family="sans-serif" font-size="14" lengthAdjust="spacing" textLength="28" x="520.25" y="652.7285">Test</text><line style="stroke:#181818;stroke-width:0.5;" x1="383.5" x2="652.5" y1="663" y2="663"/><line style="stroke:#181818;stroke-width:0.5;" x1="383.5" x2="652.5" y1="671" y2="671"/><rect fill="#F24D5C" height="6" style="stroke:#C82930;stroke-width:1.0;" width="6" x="390.5" y="682.3047"/><text fill="#000000" font-family="sans-serif" font-size="14" lengthAdjust="spacing" textLength="245" x="402.5" y="689.5332">questions[ category.getAllQuestions() ]</text></g><!--MD5=[9d451b2f92d848a8e2d1a4dab2b1c6bf]
class Concept--><g id="elem_Concept"><rect codeLine="28" fill="#F1F1F1" height="136.0469" id="Concept" rx="2.5" ry="2.5" style="stroke:#181818;stroke-width:0.5;" width="124" x="810" y="596"/><ellipse cx="842.55" cy="612" fill="#ADD1B2" rx="11" ry="11" style="stroke:#181818;stroke-width:1.0;"/><path d="M845.3156,607.875 Q845.4719,607.6563 845.6594,607.5469 Q845.8469,607.4375 846.0656,607.4375 Q846.4406,607.4375 846.675,607.7031 Q846.9094,607.9531 846.9094,608.5625 L846.9094,610.0156 Q846.9094,610.625 846.675,610.8906 Q846.4406,611.1563 846.0656,611.1563 Q845.7219,611.1563 845.5188,610.9531 Q845.3156,610.7656 845.2063,610.25 Q845.1594,609.8906 844.9719,609.7031 Q844.6438,609.3281 844.0344,609.1094 Q843.425,608.8906 842.8,608.8906 Q842.0344,608.8906 841.3938,609.2188 Q840.7688,609.5469 840.2688,610.2969 Q839.7844,611.0469 839.7844,612.0781 L839.7844,613.1719 Q839.7844,614.4063 840.675,615.2344 Q841.5656,616.0469 843.1594,616.0469 Q844.0969,616.0469 844.7531,615.7969 Q845.1438,615.6406 845.5656,615.2031 Q845.8313,614.9375 845.9719,614.8594 Q846.1281,614.7813 846.3313,614.7813 Q846.6594,614.7813 846.9094,615.0469 Q847.175,615.2969 847.175,615.6406 Q847.175,615.9844 846.8313,616.3906 Q846.3313,616.9688 845.5344,617.2969 Q844.4563,617.75 843.1594,617.75 Q841.6438,617.75 840.4406,617.125 Q839.4563,616.625 838.7688,615.5625 Q838.0813,614.4844 838.0813,613.2031 L838.0813,612.0469 Q838.0813,610.7188 838.6906,609.5781 Q839.3156,608.4219 840.4094,607.8125 Q841.5031,607.1875 842.7375,607.1875 Q843.4719,607.1875 844.1125,607.3594 Q844.7688,607.5156 845.3156,607.875 Z " fill="#000000"/><text fill="#000000" font-family="sans-serif" font-size="14" lengthAdjust="spacing" textLength="53" x="860.45" y="617.7285">Concept</text><line style="stroke:#181818;stroke-width:0.5;" x1="811" x2="933" y1="628" y2="628"/><rect fill="none" height="6" style="stroke:#C82930;stroke-width:1.0;" width="6" x="818" y="639.3047"/><text fill="#000000" font-family="sans-serif" font-size="14" lengthAdjust="spacing" textLength="52" x="830" y="646.5332">keyword</text><rect fill="none" height="6" style="stroke:#C82930;stroke-width:1.0;" width="6" x="818" y="656.9141"/><text fill="#000000" font-family="sans-serif" font-size="14" lengthAdjust="spacing" textLength="98" x="830" y="664.1426">fakekeywords[ ]</text><rect fill="none" height="6" style="stroke:#C82930;stroke-width:1.0;" width="6" x="818" y="674.5234"/><text fill="#000000" font-family="sans-serif" font-size="14" lengthAdjust="spacing" textLength="76" x="830" y="681.752">definitions[ ]</text><rect fill="none" height="6" style="stroke:#C82930;stroke-width:1.0;" width="6" x="818" y="692.1328"/><text fill="#000000" font-family="sans-serif" font-size="14" lengthAdjust="spacing" textLength="66" x="830" y="699.3613">relations[ ]</text><rect fill="none" height="6" style="stroke:#C82930;stroke-width:1.0;" width="6" x="818" y="709.7422"/><text fill="#000000" font-family="sans-serif" font-size="14" lengthAdjust="spacing" textLength="73" x="830" y="716.9707">questions[ ]</text><line style="stroke:#181818;stroke-width:0.5;" x1="811" x2="933" y1="724.0469" y2="724.0469"/></g><!--MD5=[af22135d5be6ed11ccd2d02fa51653b3]
class Definition--><g id="elem_Definition"><rect codeLine="36" fill="#F1F1F1" height="118.4375" id="Definition" rx="2.5" ry="2.5" style="stroke:#181818;stroke-width:0.5;" width="115" x="959.5" y="793"/><ellipse cx="985.3" cy="809" fill="#ADD1B2" rx="11" ry="11" style="stroke:#181818;stroke-width:1.0;"/><path d="M988.0656,804.875 Q988.2219,804.6563 988.4094,804.5469 Q988.5969,804.4375 988.8156,804.4375 Q989.1906,804.4375 989.425,804.7031 Q989.6594,804.9531 989.6594,805.5625 L989.6594,807.0156 Q989.6594,807.625 989.425,807.8906 Q989.1906,808.1563 988.8156,808.1563 Q988.4719,808.1563 988.2688,807.9531 Q988.0656,807.7656 987.9563,807.25 Q987.9094,806.8906 987.7219,806.7031 Q987.3938,806.3281 986.7844,806.1094 Q986.175,805.8906 985.55,805.8906 Q984.7844,805.8906 984.1438,806.2188 Q983.5188,806.5469 983.0188,807.2969 Q982.5344,808.0469 982.5344,809.0781 L982.5344,810.1719 Q982.5344,811.4063 983.425,812.2344 Q984.3156,813.0469 985.9094,813.0469 Q986.8469,813.0469 987.5031,812.7969 Q987.8938,812.6406 988.3156,812.2031 Q988.5813,811.9375 988.7219,811.8594 Q988.8781,811.7813 989.0813,811.7813 Q989.4094,811.7813 989.6594,812.0469 Q989.925,812.2969 989.925,812.6406 Q989.925,812.9844 989.5813,813.3906 Q989.0813,813.9688 988.2844,814.2969 Q987.2063,814.75 985.9094,814.75 Q984.3938,814.75 983.1906,814.125 Q982.2063,813.625 981.5188,812.5625 Q980.8313,811.4844 980.8313,810.2031 L980.8313,809.0469 Q980.8313,807.7188 981.4406,806.5781 Q982.0656,805.4219 983.1594,804.8125 Q984.2531,804.1875 985.4875,804.1875 Q986.2219,804.1875 986.8625,804.3594 Q987.5188,804.5156 988.0656,804.875 Z " fill="#000000"/><text fill="#000000" font-family="sans-serif" font-size="14" lengthAdjust="spacing" textLength="59" x="1001.7" y="814.7285">Definition</text><line style="stroke:#181818;stroke-width:0.5;" x1="960.5" x2="1073.5" y1="825" y2="825"/><rect fill="none" height="6" style="stroke:#C82930;stroke-width:1.0;" width="6" x="967.5" y="836.3047"/><text fill="#000000" font-family="sans-serif" font-size="14" lengthAdjust="spacing" textLength="47" x="979.5" y="843.5332">content</text><rect fill="none" height="6" style="stroke:#C82930;stroke-width:1.0;" width="6" x="967.5" y="853.9141"/><text fill="#000000" font-family="sans-serif" font-size="14" lengthAdjust="spacing" textLength="42" x="979.5" y="861.1426">isFake</text><rect fill="none" height="6" style="stroke:#C82930;stroke-width:1.0;" width="6" x="967.5" y="871.5234"/><text fill="#000000" font-family="sans-serif" font-size="14" lengthAdjust="spacing" textLength="78" x="979.5" y="878.752">createdDate</text><rect fill="none" height="6" style="stroke:#C82930;stroke-width:1.0;" width="6" x="967.5" y="889.1328"/><text fill="#000000" font-family="sans-serif" font-size="14" lengthAdjust="spacing" textLength="89" x="979.5" y="896.3613">justifications[ ]</text><line style="stroke:#181818;stroke-width:0.5;" x1="960.5" x2="1073.5" y1="903.4375" y2="903.4375"/></g><!--MD5=[9b4de504215638550a8bb9c080b7ee00]
class Justification--><g id="elem_Justification"><rect codeLine="43" fill="#F1F1F1" height="118.4375" id="Justification" rx="2.5" ry="2.5" style="stroke:#181818;stroke-width:0.5;" width="105" x="1150.5" y="1090"/><ellipse cx="1165.5" cy="1106" fill="#ADD1B2" rx="11" ry="11" style="stroke:#181818;stroke-width:1.0;"/><path d="M1168.2656,1101.875 Q1168.4219,1101.6563 1168.6094,1101.5469 Q1168.7969,1101.4375 1169.0156,1101.4375 Q1169.3906,1101.4375 1169.625,1101.7031 Q1169.8594,1101.9531 1169.8594,1102.5625 L1169.8594,1104.0156 Q1169.8594,1104.625 1169.625,1104.8906 Q1169.3906,1105.1563 1169.0156,1105.1563 Q1168.6719,1105.1563 1168.4688,1104.9531 Q1168.2656,1104.7656 1168.1563,1104.25 Q1168.1094,1103.8906 1167.9219,1103.7031 Q1167.5938,1103.3281 1166.9844,1103.1094 Q1166.375,1102.8906 1165.75,1102.8906 Q1164.9844,1102.8906 1164.3438,1103.2188 Q1163.7188,1103.5469 1163.2188,1104.2969 Q1162.7344,1105.0469 1162.7344,1106.0781 L1162.7344,1107.1719 Q1162.7344,1108.4063 1163.625,1109.2344 Q1164.5156,1110.0469 1166.1094,1110.0469 Q1167.0469,1110.0469 1167.7031,1109.7969 Q1168.0938,1109.6406 1168.5156,1109.2031 Q1168.7813,1108.9375 1168.9219,1108.8594 Q1169.0781,1108.7813 1169.2813,1108.7813 Q1169.6094,1108.7813 1169.8594,1109.0469 Q1170.125,1109.2969 1170.125,1109.6406 Q1170.125,1109.9844 1169.7813,1110.3906 Q1169.2813,1110.9688 1168.4844,1111.2969 Q1167.4063,1111.75 1166.1094,1111.75 Q1164.5938,1111.75 1163.3906,1111.125 Q1162.4063,1110.625 1161.7188,1109.5625 Q1161.0313,1108.4844 1161.0313,1107.2031 L1161.0313,1106.0469 Q1161.0313,1104.7188 1161.6406,1103.5781 Q1162.2656,1102.4219 1163.3594,1101.8125 Q1164.4531,1101.1875 1165.6875,1101.1875 Q1166.4219,1101.1875 1167.0625,1101.3594 Q1167.7188,1101.5156 1168.2656,1101.875 Z " fill="#000000"/><text fill="#000000" font-family="sans-serif" font-size="14" lengthAdjust="spacing" textLength="73" x="1179.5" y="1111.7285">Justification</text><line style="stroke:#181818;stroke-width:0.5;" x1="1151.5" x2="1254.5" y1="1122" y2="1122"/><rect fill="none" height="6" style="stroke:#C82930;stroke-width:1.0;" width="6" x="1158.5" y="1133.3047"/><text fill="#000000" font-family="sans-serif" font-size="14" lengthAdjust="spacing" textLength="47" x="1170.5" y="1140.5332">content</text><rect fill="none" height="6" style="stroke:#C82930;stroke-width:1.0;" width="6" x="1158.5" y="1150.9141"/><text fill="#000000" font-family="sans-serif" font-size="14" lengthAdjust="spacing" textLength="42" x="1170.5" y="1158.1426">isFake</text><rect fill="none" height="6" style="stroke:#C82930;stroke-width:1.0;" width="6" x="1158.5" y="1168.5234"/><text fill="#000000" font-family="sans-serif" font-size="14" lengthAdjust="spacing" textLength="78" x="1170.5" y="1175.752">createdDate</text><rect fill="none" height="6" style="stroke:#C82930;stroke-width:1.0;" width="6" x="1158.5" y="1186.1328"/><text fill="#000000" font-family="sans-serif" font-size="14" lengthAdjust="spacing" textLength="66" x="1170.5" y="1193.3613">explication</text><line style="stroke:#181818;stroke-width:0.5;" x1="1151.5" x2="1254.5" y1="1200.4375" y2="1200.4375"/></g><!--MD5=[534474e9f05b14d7c70186ae077f30e0]
class Relation--><g id="elem_Relation"><rect codeLine="50" fill="#F1F1F1" height="100.8281" id="Relation" rx="2.5" ry="2.5" style="stroke:#181818;stroke-width:0.5;" width="104" x="813" y="941"/><ellipse cx="837" cy="957" fill="#ADD1B2" rx="11" ry="11" style="stroke:#181818;stroke-width:1.0;"/><path d="M839.7656,952.875 Q839.9219,952.6563 840.1094,952.5469 Q840.2969,952.4375 840.5156,952.4375 Q840.8906,952.4375 841.125,952.7031 Q841.3594,952.9531 841.3594,953.5625 L841.3594,955.0156 Q841.3594,955.625 841.125,955.8906 Q840.8906,956.1563 840.5156,956.1563 Q840.1719,956.1563 839.9688,955.9531 Q839.7656,955.7656 839.6563,955.25 Q839.6094,954.8906 839.4219,954.7031 Q839.0938,954.3281 838.4844,954.1094 Q837.875,953.8906 837.25,953.8906 Q836.4844,953.8906 835.8438,954.2188 Q835.2188,954.5469 834.7188,955.2969 Q834.2344,956.0469 834.2344,957.0781 L834.2344,958.1719 Q834.2344,959.4063 835.125,960.2344 Q836.0156,961.0469 837.6094,961.0469 Q838.5469,961.0469 839.2031,960.7969 Q839.5938,960.6406 840.0156,960.2031 Q840.2813,959.9375 840.4219,959.8594 Q840.5781,959.7813 840.7813,959.7813 Q841.1094,959.7813 841.3594,960.0469 Q841.625,960.2969 841.625,960.6406 Q841.625,960.9844 841.2813,961.3906 Q840.7813,961.9688 839.9844,962.2969 Q838.9063,962.75 837.6094,962.75 Q836.0938,962.75 834.8906,962.125 Q833.9063,961.625 833.2188,960.5625 Q832.5313,959.4844 832.5313,958.2031 L832.5313,957.0469 Q832.5313,955.7188 833.1406,954.5781 Q833.7656,953.4219 834.8594,952.8125 Q835.9531,952.1875 837.1875,952.1875 Q837.9219,952.1875 838.5625,952.3594 Q839.2188,952.5156 839.7656,952.875 Z " fill="#000000"/><text fill="#000000" font-family="sans-serif" font-size="14" lengthAdjust="spacing" textLength="52" x="853" y="962.7285">Relation</text><line style="stroke:#181818;stroke-width:0.5;" x1="814" x2="916" y1="973" y2="973"/><rect fill="none" height="6" style="stroke:#C82930;stroke-width:1.0;" width="6" x="821" y="984.3047"/><text fill="#000000" font-family="sans-serif" font-size="14" lengthAdjust="spacing" textLength="66" x="833" y="991.5332">contents[ ]</text><rect fill="none" height="6" style="stroke:#C82930;stroke-width:1.0;" width="6" x="821" y="1001.9141"/><text fill="#000000" font-family="sans-serif" font-size="14" lengthAdjust="spacing" textLength="42" x="833" y="1009.1426">isFake</text><rect fill="none" height="6" style="stroke:#C82930;stroke-width:1.0;" width="6" x="821" y="1019.5234"/><text fill="#000000" font-family="sans-serif" font-size="14" lengthAdjust="spacing" textLength="78" x="833" y="1026.752">createdDate</text><line style="stroke:#181818;stroke-width:0.5;" x1="814" x2="916" y1="1033.8281" y2="1033.8281"/></g><!--MD5=[fc7123defb831ecdd44b2d9bcef6cceb]
class Question--><g id="elem_Question"><rect codeLine="56" fill="#F1F1F1" height="118.4375" id="Question" rx="2.5" ry="2.5" style="stroke:#181818;stroke-width:0.5;" width="238" x="382" y="793"/><ellipse cx="468.25" cy="809" fill="#ADD1B2" rx="11" ry="11" style="stroke:#181818;stroke-width:1.0;"/><path d="M471.0156,804.875 Q471.1719,804.6563 471.3594,804.5469 Q471.5469,804.4375 471.7656,804.4375 Q472.1406,804.4375 472.375,804.7031 Q472.6094,804.9531 472.6094,805.5625 L472.6094,807.0156 Q472.6094,807.625 472.375,807.8906 Q472.1406,808.1563 471.7656,808.1563 Q471.4219,808.1563 471.2188,807.9531 Q471.0156,807.7656 470.9063,807.25 Q470.8594,806.8906 470.6719,806.7031 Q470.3438,806.3281 469.7344,806.1094 Q469.125,805.8906 468.5,805.8906 Q467.7344,805.8906 467.0938,806.2188 Q466.4688,806.5469 465.9688,807.2969 Q465.4844,808.0469 465.4844,809.0781 L465.4844,810.1719 Q465.4844,811.4063 466.375,812.2344 Q467.2656,813.0469 468.8594,813.0469 Q469.7969,813.0469 470.4531,812.7969 Q470.8438,812.6406 471.2656,812.2031 Q471.5313,811.9375 471.6719,811.8594 Q471.8281,811.7813 472.0313,811.7813 Q472.3594,811.7813 472.6094,812.0469 Q472.875,812.2969 472.875,812.6406 Q472.875,812.9844 472.5313,813.3906 Q472.0313,813.9688 471.2344,814.2969 Q470.1563,814.75 468.8594,814.75 Q467.3438,814.75 466.1406,814.125 Q465.1563,813.625 464.4688,812.5625 Q463.7813,811.4844 463.7813,810.2031 L463.7813,809.0469 Q463.7813,807.7188 464.3906,806.5781 Q465.0156,805.4219 466.1094,804.8125 Q467.2031,804.1875 468.4375,804.1875 Q469.1719,804.1875 469.8125,804.3594 Q470.4688,804.5156 471.0156,804.875 Z " fill="#000000"/><text fill="#000000" font-family="sans-serif" font-size="14" lengthAdjust="spacing" textLength="57" x="488.75" y="814.7285">Question</text><line style="stroke:#181818;stroke-width:0.5;" x1="383" x2="619" y1="825" y2="825"/><rect fill="none" height="6" style="stroke:#C82930;stroke-width:1.0;" width="6" x="390" y="836.3047"/><text fill="#000000" font-family="sans-serif" font-size="14" lengthAdjust="spacing" textLength="139" x="402" y="843.5332">statementImplementor</text><rect fill="none" height="6" style="stroke:#C82930;stroke-width:1.0;" width="6" x="390" y="853.9141"/><text fill="#000000" font-family="sans-serif" font-size="14" lengthAdjust="spacing" textLength="64" x="402" y="861.1426">answers[ ]</text><line style="stroke:#181818;stroke-width:0.5;" x1="383" x2="619" y1="868.2188" y2="868.2188"/><polygon fill="#FFFF44" points="393,877.5234,397,881.5234,393,885.5234,389,881.5234" style="stroke:#B38D22;stroke-width:1.0;"/><text fill="#000000" font-family="sans-serif" font-size="14" lengthAdjust="spacing" textLength="200" x="402" y="886.752">void setStatementImplementor()</text><ellipse cx="393" cy="900.1328" fill="#84BE84" rx="3" ry="3" style="stroke:#038048;stroke-width:1.0;"/><text fill="#000000" font-family="sans-serif" font-size="14" lengthAdjust="spacing" textLength="212" x="402" y="904.3613">bool isAnsweredBy(studentName)</text></g><!--MD5=[a61a298976b7d1d94498f45c2ebfa10b]
class Statement--><g id="elem_Statement"><rect codeLine="63" fill="#F1F1F1" height="48" id="Statement" rx="2.5" ry="2.5" style="stroke:#181818;stroke-width:0.5;" width="96" x="59" y="1125"/><ellipse cx="74" cy="1141" fill="#ADD1B2" rx="11" ry="11" style="stroke:#181818;stroke-width:1.0;"/><path d="M76.7656,1136.875 Q76.9219,1136.6563 77.1094,1136.5469 Q77.2969,1136.4375 77.5156,1136.4375 Q77.8906,1136.4375 78.125,1136.7031 Q78.3594,1136.9531 78.3594,1137.5625 L78.3594,1139.0156 Q78.3594,1139.625 78.125,1139.8906 Q77.8906,1140.1563 77.5156,1140.1563 Q77.1719,1140.1563 76.9688,1139.9531 Q76.7656,1139.7656 76.6563,1139.25 Q76.6094,1138.8906 76.4219,1138.7031 Q76.0938,1138.3281 75.4844,1138.1094 Q74.875,1137.8906 74.25,1137.8906 Q73.4844,1137.8906 72.8438,1138.2188 Q72.2188,1138.5469 71.7188,1139.2969 Q71.2344,1140.0469 71.2344,1141.0781 L71.2344,1142.1719 Q71.2344,1143.4063 72.125,1144.2344 Q73.0156,1145.0469 74.6094,1145.0469 Q75.5469,1145.0469 76.2031,1144.7969 Q76.5938,1144.6406 77.0156,1144.2031 Q77.2813,1143.9375 77.4219,1143.8594 Q77.5781,1143.7813 77.7813,1143.7813 Q78.1094,1143.7813 78.3594,1144.0469 Q78.625,1144.2969 78.625,1144.6406 Q78.625,1144.9844 78.2813,1145.3906 Q77.7813,1145.9688 76.9844,1146.2969 Q75.9063,1146.75 74.6094,1146.75 Q73.0938,1146.75 71.8906,1146.125 Q70.9063,1145.625 70.2188,1144.5625 Q69.5313,1143.4844 69.5313,1142.2031 L69.5313,1141.0469 Q69.5313,1139.7188 70.1406,1138.5781 Q70.7656,1137.4219 71.8594,1136.8125 Q72.9531,1136.1875 74.1875,1136.1875 Q74.9219,1136.1875 75.5625,1136.3594 Q76.2188,1136.5156 76.7656,1136.875 Z " fill="#000000"/><text fill="#000000" font-family="sans-serif" font-size="14" lengthAdjust="spacing" textLength="64" x="88" y="1146.7285">Statement</text><line style="stroke:#181818;stroke-width:0.5;" x1="60" x2="154" y1="1157" y2="1157"/><line style="stroke:#181818;stroke-width:0.5;" x1="60" x2="154" y1="1165" y2="1165"/></g><!--MD5=[f9fadfa5a66b7e5a67b370cd443ffe52]
class Answer--><g id="elem_Answer"><rect codeLine="65" fill="#F1F1F1" height="153.6563" id="Answer" rx="2.5" ry="2.5" style="stroke:#181818;stroke-width:0.5;" width="118" x="407" y="1072"/><ellipse cx="440" cy="1088" fill="#ADD1B2" rx="11" ry="11" style="stroke:#181818;stroke-width:1.0;"/><path d="M442.7656,1083.875 Q442.9219,1083.6563 443.1094,1083.5469 Q443.2969,1083.4375 443.5156,1083.4375 Q443.8906,1083.4375 444.125,1083.7031 Q444.3594,1083.9531 444.3594,1084.5625 L444.3594,1086.0156 Q444.3594,1086.625 444.125,1086.8906 Q443.8906,1087.1563 443.5156,1087.1563 Q443.1719,1087.1563 442.9688,1086.9531 Q442.7656,1086.7656 442.6563,1086.25 Q442.6094,1085.8906 442.4219,1085.7031 Q442.0938,1085.3281 441.4844,1085.1094 Q440.875,1084.8906 440.25,1084.8906 Q439.4844,1084.8906 438.8438,1085.2188 Q438.2188,1085.5469 437.7188,1086.2969 Q437.2344,1087.0469 437.2344,1088.0781 L437.2344,1089.1719 Q437.2344,1090.4063 438.125,1091.2344 Q439.0156,1092.0469 440.6094,1092.0469 Q441.5469,1092.0469 442.2031,1091.7969 Q442.5938,1091.6406 443.0156,1091.2031 Q443.2813,1090.9375 443.4219,1090.8594 Q443.5781,1090.7813 443.7813,1090.7813 Q444.1094,1090.7813 444.3594,1091.0469 Q444.625,1091.2969 444.625,1091.6406 Q444.625,1091.9844 444.2813,1092.3906 Q443.7813,1092.9688 442.9844,1093.2969 Q441.9063,1093.75 440.6094,1093.75 Q439.0938,1093.75 437.8906,1093.125 Q436.9063,1092.625 436.2188,1091.5625 Q435.5313,1090.4844 435.5313,1089.2031 L435.5313,1088.0469 Q435.5313,1086.7188 436.1406,1085.5781 Q436.7656,1084.4219 437.8594,1083.8125 Q438.9531,1083.1875 440.1875,1083.1875 Q440.9219,1083.1875 441.5625,1083.3594 Q442.2188,1083.5156 442.7656,1083.875 Z " fill="#000000"/><text fill="#000000" font-family="sans-serif" font-size="14" lengthAdjust="spacing" textLength="46" x="458" y="1093.7285">Answer</text><line style="stroke:#181818;stroke-width:0.5;" x1="408" x2="524" y1="1104" y2="1104"/><rect fill="none" height="6" style="stroke:#C82930;stroke-width:1.0;" width="6" x="415" y="1115.3047"/><text fill="#000000" font-family="sans-serif" font-size="14" lengthAdjust="spacing" textLength="47" x="427" y="1122.5332">content</text><rect fill="none" height="6" style="stroke:#C82930;stroke-width:1.0;" width="6" x="415" y="1132.9141"/><text fill="#000000" font-family="sans-serif" font-size="14" lengthAdjust="spacing" textLength="30" x="427" y="1140.1426">isOK</text><rect fill="none" height="6" style="stroke:#C82930;stroke-width:1.0;" width="6" x="415" y="1150.5234"/><text fill="#000000" font-family="sans-serif" font-size="14" lengthAdjust="spacing" textLength="73" x="427" y="1157.752">isEvaluated</text><rect fill="none" height="6" style="stroke:#C82930;stroke-width:1.0;" width="6" x="415" y="1168.1328"/><text fill="#000000" font-family="sans-serif" font-size="14" lengthAdjust="spacing" textLength="83" x="427" y="1175.3613">studentName</text><rect fill="none" height="6" style="stroke:#C82930;stroke-width:1.0;" width="6" x="415" y="1185.7422"/><text fill="#000000" font-family="sans-serif" font-size="14" lengthAdjust="spacing" textLength="78" x="427" y="1192.9707">createdDate</text><rect fill="none" height="6" style="stroke:#C82930;stroke-width:1.0;" width="6" x="415" y="1203.3516"/><text fill="#000000" font-family="sans-serif" font-size="14" lengthAdjust="spacing" textLength="92" x="427" y="1210.5801">evaluatedDate</text><line style="stroke:#181818;stroke-width:0.5;" x1="408" x2="524" y1="1217.6563" y2="1217.6563"/></g><!--MD5=[46bd26b9d192b770379839f45ce3e013]
class MultipleChoiceQuestion--><g id="elem_MultipleChoiceQuestion"><rect codeLine="74" fill="#F1F1F1" height="48" id="MultipleChoiceQuestion" rx="2.5" ry="2.5" style="stroke:#181818;stroke-width:0.5;" width="181" x="190.5" y="1125"/><ellipse cx="205.5" cy="1141" fill="#ADD1B2" rx="11" ry="11" style="stroke:#181818;stroke-width:1.0;"/><path d="M208.2656,1136.875 Q208.4219,1136.6563 208.6094,1136.5469 Q208.7969,1136.4375 209.0156,1136.4375 Q209.3906,1136.4375 209.625,1136.7031 Q209.8594,1136.9531 209.8594,1137.5625 L209.8594,1139.0156 Q209.8594,1139.625 209.625,1139.8906 Q209.3906,1140.1563 209.0156,1140.1563 Q208.6719,1140.1563 208.4688,1139.9531 Q208.2656,1139.7656 208.1563,1139.25 Q208.1094,1138.8906 207.9219,1138.7031 Q207.5938,1138.3281 206.9844,1138.1094 Q206.375,1137.8906 205.75,1137.8906 Q204.9844,1137.8906 204.3438,1138.2188 Q203.7188,1138.5469 203.2188,1139.2969 Q202.7344,1140.0469 202.7344,1141.0781 L202.7344,1142.1719 Q202.7344,1143.4063 203.625,1144.2344 Q204.5156,1145.0469 206.1094,1145.0469 Q207.0469,1145.0469 207.7031,1144.7969 Q208.0938,1144.6406 208.5156,1144.2031 Q208.7813,1143.9375 208.9219,1143.8594 Q209.0781,1143.7813 209.2813,1143.7813 Q209.6094,1143.7813 209.8594,1144.0469 Q210.125,1144.2969 210.125,1144.6406 Q210.125,1144.9844 209.7813,1145.3906 Q209.2813,1145.9688 208.4844,1146.2969 Q207.4063,1146.75 206.1094,1146.75 Q204.5938,1146.75 203.3906,1146.125 Q202.4063,1145.625 201.7188,1144.5625 Q201.0313,1143.4844 201.0313,1142.2031 L201.0313,1141.0469 Q201.0313,1139.7188 201.6406,1138.5781 Q202.2656,1137.4219 203.3594,1136.8125 Q204.4531,1136.1875 205.6875,1136.1875 Q206.4219,1136.1875 207.0625,1136.3594 Q207.7188,1136.5156 208.2656,1136.875 Z " fill="#000000"/><text fill="#000000" font-family="sans-serif" font-size="14" lengthAdjust="spacing" textLength="149" x="219.5" y="1146.7285">MultipleChoiceQuestion</text><line style="stroke:#181818;stroke-width:0.5;" x1="191.5" x2="370.5" y1="1157" y2="1157"/><line style="stroke:#181818;stroke-width:0.5;" x1="191.5" x2="370.5" y1="1165" y2="1165"/></g><!--MD5=[c5be3d7e9ffcf6502258095b57411394]
class OpenQuestion--><g id="elem_OpenQuestion"><rect codeLine="76" fill="#F1F1F1" height="48" id="OpenQuestion" rx="2.5" ry="2.5" style="stroke:#181818;stroke-width:0.5;" width="124" x="560" y="1125"/><ellipse cx="575" cy="1141" fill="#ADD1B2" rx="11" ry="11" style="stroke:#181818;stroke-width:1.0;"/><path d="M577.7656,1136.875 Q577.9219,1136.6563 578.1094,1136.5469 Q578.2969,1136.4375 578.5156,1136.4375 Q578.8906,1136.4375 579.125,1136.7031 Q579.3594,1136.9531 579.3594,1137.5625 L579.3594,1139.0156 Q579.3594,1139.625 579.125,1139.8906 Q578.8906,1140.1563 578.5156,1140.1563 Q578.1719,1140.1563 577.9688,1139.9531 Q577.7656,1139.7656 577.6563,1139.25 Q577.6094,1138.8906 577.4219,1138.7031 Q577.0938,1138.3281 576.4844,1138.1094 Q575.875,1137.8906 575.25,1137.8906 Q574.4844,1137.8906 573.8438,1138.2188 Q573.2188,1138.5469 572.7188,1139.2969 Q572.2344,1140.0469 572.2344,1141.0781 L572.2344,1142.1719 Q572.2344,1143.4063 573.125,1144.2344 Q574.0156,1145.0469 575.6094,1145.0469 Q576.5469,1145.0469 577.2031,1144.7969 Q577.5938,1144.6406 578.0156,1144.2031 Q578.2813,1143.9375 578.4219,1143.8594 Q578.5781,1143.7813 578.7813,1143.7813 Q579.1094,1143.7813 579.3594,1144.0469 Q579.625,1144.2969 579.625,1144.6406 Q579.625,1144.9844 579.2813,1145.3906 Q578.7813,1145.9688 577.9844,1146.2969 Q576.9063,1146.75 575.6094,1146.75 Q574.0938,1146.75 572.8906,1146.125 Q571.9063,1145.625 571.2188,1144.5625 Q570.5313,1143.4844 570.5313,1142.2031 L570.5313,1141.0469 Q570.5313,1139.7188 571.1406,1138.5781 Q571.7656,1137.4219 572.8594,1136.8125 Q573.9531,1136.1875 575.1875,1136.1875 Q575.9219,1136.1875 576.5625,1136.3594 Q577.2188,1136.5156 577.7656,1136.875 Z " fill="#000000"/><text fill="#000000" font-family="sans-serif" font-size="14" lengthAdjust="spacing" textLength="92" x="589" y="1146.7285">OpenQuestion</text><line style="stroke:#181818;stroke-width:0.5;" x1="561" x2="683" y1="1157" y2="1157"/><line style="stroke:#181818;stroke-width:0.5;" x1="561" x2="683" y1="1165" y2="1165"/></g><!--MD5=[b07065dfc0d0e09965ec10bfc328bb3e]
class Option--><g id="elem_Option"><rect codeLine="78" fill="#F1F1F1" height="48" id="Option" rx="2.5" ry="2.5" style="stroke:#181818;stroke-width:0.5;" width="74" x="283" y="1330.5"/><ellipse cx="298" cy="1346.5" fill="#ADD1B2" rx="11" ry="11" style="stroke:#181818;stroke-width:1.0;"/><path d="M300.7656,1342.375 Q300.9219,1342.1563 301.1094,1342.0469 Q301.2969,1341.9375 301.5156,1341.9375 Q301.8906,1341.9375 302.125,1342.2031 Q302.3594,1342.4531 302.3594,1343.0625 L302.3594,1344.5156 Q302.3594,1345.125 302.125,1345.3906 Q301.8906,1345.6563 301.5156,1345.6563 Q301.1719,1345.6563 300.9688,1345.4531 Q300.7656,1345.2656 300.6563,1344.75 Q300.6094,1344.3906 300.4219,1344.2031 Q300.0938,1343.8281 299.4844,1343.6094 Q298.875,1343.3906 298.25,1343.3906 Q297.4844,1343.3906 296.8438,1343.7188 Q296.2188,1344.0469 295.7188,1344.7969 Q295.2344,1345.5469 295.2344,1346.5781 L295.2344,1347.6719 Q295.2344,1348.9063 296.125,1349.7344 Q297.0156,1350.5469 298.6094,1350.5469 Q299.5469,1350.5469 300.2031,1350.2969 Q300.5938,1350.1406 301.0156,1349.7031 Q301.2813,1349.4375 301.4219,1349.3594 Q301.5781,1349.2813 301.7813,1349.2813 Q302.1094,1349.2813 302.3594,1349.5469 Q302.625,1349.7969 302.625,1350.1406 Q302.625,1350.4844 302.2813,1350.8906 Q301.7813,1351.4688 300.9844,1351.7969 Q299.9063,1352.25 298.6094,1352.25 Q297.0938,1352.25 295.8906,1351.625 Q294.9063,1351.125 294.2188,1350.0625 Q293.5313,1348.9844 293.5313,1347.7031 L293.5313,1346.5469 Q293.5313,1345.2188 294.1406,1344.0781 Q294.7656,1342.9219 295.8594,1342.3125 Q296.9531,1341.6875 298.1875,1341.6875 Q298.9219,1341.6875 299.5625,1341.8594 Q300.2188,1342.0156 300.7656,1342.375 Z " fill="#000000"/><text fill="#000000" font-family="sans-serif" font-size="14" lengthAdjust="spacing" textLength="42" x="312" y="1352.2285">Option</text><line style="stroke:#181818;stroke-width:0.5;" x1="284" x2="356" y1="1362.5" y2="1362.5"/><line style="stroke:#181818;stroke-width:0.5;" x1="284" x2="356" y1="1370.5" y2="1370.5"/></g><!--MD5=[bc629657279eaa9349f412646650f2c5]
class Correct--><g id="elem_Correct"><rect codeLine="80" fill="#F1F1F1" height="48" id="Correct" rx="2.5" ry="2.5" style="stroke:#181818;stroke-width:0.5;" width="79" x="222.5" y="1466"/><ellipse cx="237.5" cy="1482" fill="#ADD1B2" rx="11" ry="11" style="stroke:#181818;stroke-width:1.0;"/><path d="M240.2656,1477.875 Q240.4219,1477.6563 240.6094,1477.5469 Q240.7969,1477.4375 241.0156,1477.4375 Q241.3906,1477.4375 241.625,1477.7031 Q241.8594,1477.9531 241.8594,1478.5625 L241.8594,1480.0156 Q241.8594,1480.625 241.625,1480.8906 Q241.3906,1481.1563 241.0156,1481.1563 Q240.6719,1481.1563 240.4688,1480.9531 Q240.2656,1480.7656 240.1563,1480.25 Q240.1094,1479.8906 239.9219,1479.7031 Q239.5938,1479.3281 238.9844,1479.1094 Q238.375,1478.8906 237.75,1478.8906 Q236.9844,1478.8906 236.3438,1479.2188 Q235.7188,1479.5469 235.2188,1480.2969 Q234.7344,1481.0469 234.7344,1482.0781 L234.7344,1483.1719 Q234.7344,1484.4063 235.625,1485.2344 Q236.5156,1486.0469 238.1094,1486.0469 Q239.0469,1486.0469 239.7031,1485.7969 Q240.0938,1485.6406 240.5156,1485.2031 Q240.7813,1484.9375 240.9219,1484.8594 Q241.0781,1484.7813 241.2813,1484.7813 Q241.6094,1484.7813 241.8594,1485.0469 Q242.125,1485.2969 242.125,1485.6406 Q242.125,1485.9844 241.7813,1486.3906 Q241.2813,1486.9688 240.4844,1487.2969 Q239.4063,1487.75 238.1094,1487.75 Q236.5938,1487.75 235.3906,1487.125 Q234.4063,1486.625 233.7188,1485.5625 Q233.0313,1484.4844 233.0313,1483.2031 L233.0313,1482.0469 Q233.0313,1480.7188 233.6406,1479.5781 Q234.2656,1478.4219 235.3594,1477.8125 Q236.4531,1477.1875 237.6875,1477.1875 Q238.4219,1477.1875 239.0625,1477.3594 Q239.7188,1477.5156 240.2656,1477.875 Z " fill="#000000"/><text fill="#000000" font-family="sans-serif" font-size="14" lengthAdjust="spacing" textLength="47" x="251.5" y="1487.7285">Correct</text><line style="stroke:#181818;stroke-width:0.5;" x1="223.5" x2="300.5" y1="1498" y2="1498"/><line style="stroke:#181818;stroke-width:0.5;" x1="223.5" x2="300.5" y1="1506" y2="1506"/></g><!--MD5=[37923dc032bbfca87d4413e584fa2cda]
class Incorrect--><g id="elem_Incorrect"><rect codeLine="82" fill="#F1F1F1" height="48" id="Incorrect" rx="2.5" ry="2.5" style="stroke:#181818;stroke-width:0.5;" width="87" x="348.5" y="1466"/><ellipse cx="363.5" cy="1482" fill="#ADD1B2" rx="11" ry="11" style="stroke:#181818;stroke-width:1.0;"/><path d="M366.2656,1477.875 Q366.4219,1477.6563 366.6094,1477.5469 Q366.7969,1477.4375 367.0156,1477.4375 Q367.3906,1477.4375 367.625,1477.7031 Q367.8594,1477.9531 367.8594,1478.5625 L367.8594,1480.0156 Q367.8594,1480.625 367.625,1480.8906 Q367.3906,1481.1563 367.0156,1481.1563 Q366.6719,1481.1563 366.4688,1480.9531 Q366.2656,1480.7656 366.1563,1480.25 Q366.1094,1479.8906 365.9219,1479.7031 Q365.5938,1479.3281 364.9844,1479.1094 Q364.375,1478.8906 363.75,1478.8906 Q362.9844,1478.8906 362.3438,1479.2188 Q361.7188,1479.5469 361.2188,1480.2969 Q360.7344,1481.0469 360.7344,1482.0781 L360.7344,1483.1719 Q360.7344,1484.4063 361.625,1485.2344 Q362.5156,1486.0469 364.1094,1486.0469 Q365.0469,1486.0469 365.7031,1485.7969 Q366.0938,1485.6406 366.5156,1485.2031 Q366.7813,1484.9375 366.9219,1484.8594 Q367.0781,1484.7813 367.2813,1484.7813 Q367.6094,1484.7813 367.8594,1485.0469 Q368.125,1485.2969 368.125,1485.6406 Q368.125,1485.9844 367.7813,1486.3906 Q367.2813,1486.9688 366.4844,1487.2969 Q365.4063,1487.75 364.1094,1487.75 Q362.5938,1487.75 361.3906,1487.125 Q360.4063,1486.625 359.7188,1485.5625 Q359.0313,1484.4844 359.0313,1483.2031 L359.0313,1482.0469 Q359.0313,1480.7188 359.6406,1479.5781 Q360.2656,1478.4219 361.3594,1477.8125 Q362.4531,1477.1875 363.6875,1477.1875 Q364.4219,1477.1875 365.0625,1477.3594 Q365.7188,1477.5156 366.2656,1477.875 Z " fill="#000000"/><text fill="#000000" font-family="sans-serif" font-size="14" lengthAdjust="spacing" textLength="55" x="377.5" y="1487.7285">Incorrect</text><line style="stroke:#181818;stroke-width:0.5;" x1="349.5" x2="434.5" y1="1498" y2="1498"/><line style="stroke:#181818;stroke-width:0.5;" x1="349.5" x2="434.5" y1="1506" y2="1506"/></g><!--MD5=[54a8e627be4ee6aab370a2a8960cc8d7]
class OpenAnswer--><g id="elem_OpenAnswer"><rect codeLine="84" fill="#F1F1F1" height="100.8281" id="OpenAnswer" rx="2.5" ry="2.5" style="stroke:#181818;stroke-width:0.5;" width="145" x="708.5" y="1304"/><ellipse cx="737.9" cy="1320" fill="#ADD1B2" rx="11" ry="11" style="stroke:#181818;stroke-width:1.0;"/><path d="M740.6656,1315.875 Q740.8219,1315.6563 741.0094,1315.5469 Q741.1969,1315.4375 741.4156,1315.4375 Q741.7906,1315.4375 742.025,1315.7031 Q742.2594,1315.9531 742.2594,1316.5625 L742.2594,1318.0156 Q742.2594,1318.625 742.025,1318.8906 Q741.7906,1319.1563 741.4156,1319.1563 Q741.0719,1319.1563 740.8688,1318.9531 Q740.6656,1318.7656 740.5563,1318.25 Q740.5094,1317.8906 740.3219,1317.7031 Q739.9938,1317.3281 739.3844,1317.1094 Q738.775,1316.8906 738.15,1316.8906 Q737.3844,1316.8906 736.7438,1317.2188 Q736.1188,1317.5469 735.6188,1318.2969 Q735.1344,1319.0469 735.1344,1320.0781 L735.1344,1321.1719 Q735.1344,1322.4063 736.025,1323.2344 Q736.9156,1324.0469 738.5094,1324.0469 Q739.4469,1324.0469 740.1031,1323.7969 Q740.4938,1323.6406 740.9156,1323.2031 Q741.1813,1322.9375 741.3219,1322.8594 Q741.4781,1322.7813 741.6813,1322.7813 Q742.0094,1322.7813 742.2594,1323.0469 Q742.525,1323.2969 742.525,1323.6406 Q742.525,1323.9844 742.1813,1324.3906 Q741.6813,1324.9688 740.8844,1325.2969 Q739.8063,1325.75 738.5094,1325.75 Q736.9938,1325.75 735.7906,1325.125 Q734.8063,1324.625 734.1188,1323.5625 Q733.4313,1322.4844 733.4313,1321.2031 L733.4313,1320.0469 Q733.4313,1318.7188 734.0406,1317.5781 Q734.6656,1316.4219 735.7594,1315.8125 Q736.8531,1315.1875 738.0875,1315.1875 Q738.8219,1315.1875 739.4625,1315.3594 Q740.1188,1315.5156 740.6656,1315.875 Z " fill="#000000"/><text fill="#000000" font-family="sans-serif" font-size="14" lengthAdjust="spacing" textLength="81" x="755.1" y="1325.7285">OpenAnswer</text><line style="stroke:#181818;stroke-width:0.5;" x1="709.5" x2="852.5" y1="1336" y2="1336"/><rect fill="none" height="6" style="stroke:#C82930;stroke-width:1.0;" width="6" x="716.5" y="1347.3047"/><text fill="#000000" font-family="sans-serif" font-size="14" lengthAdjust="spacing" textLength="119" x="728.5" y="1354.5332">isUsefulToConcept</text><rect fill="none" height="6" style="stroke:#C82930;stroke-width:1.0;" width="6" x="716.5" y="1364.9141"/><text fill="#000000" font-family="sans-serif" font-size="14" lengthAdjust="spacing" textLength="47" x="728.5" y="1372.1426">content</text><rect fill="none" height="6" style="stroke:#C82930;stroke-width:1.0;" width="6" x="716.5" y="1382.5234"/><text fill="#000000" font-family="sans-serif" font-size="14" lengthAdjust="spacing" textLength="78" x="728.5" y="1389.752">evaluatedBy</text><line style="stroke:#181818;stroke-width:0.5;" x1="709.5" x2="852.5" y1="1396.8281" y2="1396.8281"/></g><!--MD5=[bed984ae8b00ce24eb0f64fea27a6507]
class SelectedOption--><g id="elem_SelectedOption"><rect codeLine="90" fill="#F1F1F1" height="48" id="SelectedOption" rx="2.5" ry="2.5" style="stroke:#181818;stroke-width:0.5;" width="129" x="47.5" y="1330.5"/><ellipse cx="62.5" cy="1346.5" fill="#ADD1B2" rx="11" ry="11" style="stroke:#181818;stroke-width:1.0;"/><path d="M65.2656,1342.375 Q65.4219,1342.1563 65.6094,1342.0469 Q65.7969,1341.9375 66.0156,1341.9375 Q66.3906,1341.9375 66.625,1342.2031 Q66.8594,1342.4531 66.8594,1343.0625 L66.8594,1344.5156 Q66.8594,1345.125 66.625,1345.3906 Q66.3906,1345.6563 66.0156,1345.6563 Q65.6719,1345.6563 65.4688,1345.4531 Q65.2656,1345.2656 65.1563,1344.75 Q65.1094,1344.3906 64.9219,1344.2031 Q64.5938,1343.8281 63.9844,1343.6094 Q63.375,1343.3906 62.75,1343.3906 Q61.9844,1343.3906 61.3438,1343.7188 Q60.7188,1344.0469 60.2188,1344.7969 Q59.7344,1345.5469 59.7344,1346.5781 L59.7344,1347.6719 Q59.7344,1348.9063 60.625,1349.7344 Q61.5156,1350.5469 63.1094,1350.5469 Q64.0469,1350.5469 64.7031,1350.2969 Q65.0938,1350.1406 65.5156,1349.7031 Q65.7813,1349.4375 65.9219,1349.3594 Q66.0781,1349.2813 66.2813,1349.2813 Q66.6094,1349.2813 66.8594,1349.5469 Q67.125,1349.7969 67.125,1350.1406 Q67.125,1350.4844 66.7813,1350.8906 Q66.2813,1351.4688 65.4844,1351.7969 Q64.4063,1352.25 63.1094,1352.25 Q61.5938,1352.25 60.3906,1351.625 Q59.4063,1351.125 58.7188,1350.0625 Q58.0313,1348.9844 58.0313,1347.7031 L58.0313,1346.5469 Q58.0313,1345.2188 58.6406,1344.0781 Q59.2656,1342.9219 60.3594,1342.3125 Q61.4531,1341.6875 62.6875,1341.6875 Q63.4219,1341.6875 64.0625,1341.8594 Q64.7188,1342.0156 65.2656,1342.375 Z " fill="#000000"/><text fill="#000000" font-family="sans-serif" font-size="14" lengthAdjust="spacing" textLength="97" x="76.5" y="1352.2285">SelectedOption</text><line style="stroke:#181818;stroke-width:0.5;" x1="48.5" x2="175.5" y1="1362.5" y2="1362.5"/><line style="stroke:#181818;stroke-width:0.5;" x1="48.5" x2="175.5" y1="1370.5" y2="1370.5"/></g><!--MD5=[b355d11dc5a9142e22f9a644da54834e]
class Explication--><g id="elem_Explication"><rect fill="#F1F1F1" height="48" id="Explication" rx="2.5" ry="2.5" style="stroke:#181818;stroke-width:0.5;" width="99" x="1163.5" y="1330.5"/><ellipse cx="1178.5" cy="1346.5" fill="#ADD1B2" rx="11" ry="11" style="stroke:#181818;stroke-width:1.0;"/><path d="M1181.2656,1342.375 Q1181.4219,1342.1563 1181.6094,1342.0469 Q1181.7969,1341.9375 1182.0156,1341.9375 Q1182.3906,1341.9375 1182.625,1342.2031 Q1182.8594,1342.4531 1182.8594,1343.0625 L1182.8594,1344.5156 Q1182.8594,1345.125 1182.625,1345.3906 Q1182.3906,1345.6563 1182.0156,1345.6563 Q1181.6719,1345.6563 1181.4688,1345.4531 Q1181.2656,1345.2656 1181.1563,1344.75 Q1181.1094,1344.3906 1180.9219,1344.2031 Q1180.5938,1343.8281 1179.9844,1343.6094 Q1179.375,1343.3906 1178.75,1343.3906 Q1177.9844,1343.3906 1177.3438,1343.7188 Q1176.7188,1344.0469 1176.2188,1344.7969 Q1175.7344,1345.5469 1175.7344,1346.5781 L1175.7344,1347.6719 Q1175.7344,1348.9063 1176.625,1349.7344 Q1177.5156,1350.5469 1179.1094,1350.5469 Q1180.0469,1350.5469 1180.7031,1350.2969 Q1181.0938,1350.1406 1181.5156,1349.7031 Q1181.7813,1349.4375 1181.9219,1349.3594 Q1182.0781,1349.2813 1182.2813,1349.2813 Q1182.6094,1349.2813 1182.8594,1349.5469 Q1183.125,1349.7969 1183.125,1350.1406 Q1183.125,1350.4844 1182.7813,1350.8906 Q1182.2813,1351.4688 1181.4844,1351.7969 Q1180.4063,1352.25 1179.1094,1352.25 Q1177.5938,1352.25 1176.3906,1351.625 Q1175.4063,1351.125 1174.7188,1350.0625 Q1174.0313,1348.9844 1174.0313,1347.7031 L1174.0313,1346.5469 Q1174.0313,1345.2188 1174.6406,1344.0781 Q1175.2656,1342.9219 1176.3594,1342.3125 Q1177.4531,1341.6875 1178.6875,1341.6875 Q1179.4219,1341.6875 1180.0625,1341.8594 Q1180.7188,1342.0156 1181.2656,1342.375 Z " fill="#000000"/><text fill="#000000" font-family="sans-serif" font-size="14" lengthAdjust="spacing" textLength="67" x="1192.5" y="1352.2285">Explication</text><line style="stroke:#181818;stroke-width:0.5;" x1="1164.5" x2="1261.5" y1="1362.5" y2="1362.5"/><line style="stroke:#181818;stroke-width:0.5;" x1="1164.5" x2="1261.5" y1="1370.5" y2="1370.5"/></g><!--MD5=[14dcd1c6f0ba10ad7a0e543e42252a17]
class Solution--><g id="elem_Solution"><rect fill="#F1F1F1" height="48" id="Solution" rx="2.5" ry="2.5" style="stroke:#181818;stroke-width:0.5;" width="83" x="739.5" y="1466"/><ellipse cx="754.5" cy="1482" fill="#ADD1B2" rx="11" ry="11" style="stroke:#181818;stroke-width:1.0;"/><path d="M757.2656,1477.875 Q757.4219,1477.6563 757.6094,1477.5469 Q757.7969,1477.4375 758.0156,1477.4375 Q758.3906,1477.4375 758.625,1477.7031 Q758.8594,1477.9531 758.8594,1478.5625 L758.8594,1480.0156 Q758.8594,1480.625 758.625,1480.8906 Q758.3906,1481.1563 758.0156,1481.1563 Q757.6719,1481.1563 757.4688,1480.9531 Q757.2656,1480.7656 757.1563,1480.25 Q757.1094,1479.8906 756.9219,1479.7031 Q756.5938,1479.3281 755.9844,1479.1094 Q755.375,1478.8906 754.75,1478.8906 Q753.9844,1478.8906 753.3438,1479.2188 Q752.7188,1479.5469 752.2188,1480.2969 Q751.7344,1481.0469 751.7344,1482.0781 L751.7344,1483.1719 Q751.7344,1484.4063 752.625,1485.2344 Q753.5156,1486.0469 755.1094,1486.0469 Q756.0469,1486.0469 756.7031,1485.7969 Q757.0938,1485.6406 757.5156,1485.2031 Q757.7813,1484.9375 757.9219,1484.8594 Q758.0781,1484.7813 758.2813,1484.7813 Q758.6094,1484.7813 758.8594,1485.0469 Q759.125,1485.2969 759.125,1485.6406 Q759.125,1485.9844 758.7813,1486.3906 Q758.2813,1486.9688 757.4844,1487.2969 Q756.4063,1487.75 755.1094,1487.75 Q753.5938,1487.75 752.3906,1487.125 Q751.4063,1486.625 750.7188,1485.5625 Q750.0313,1484.4844 750.0313,1483.2031 L750.0313,1482.0469 Q750.0313,1480.7188 750.6406,1479.5781 Q751.2656,1478.4219 752.3594,1477.8125 Q753.4531,1477.1875 754.6875,1477.1875 Q755.4219,1477.1875 756.0625,1477.3594 Q756.7188,1477.5156 757.2656,1477.875 Z " fill="#000000"/><text fill="#000000" font-family="sans-serif" font-size="14" lengthAdjust="spacing" textLength="51" x="768.5" y="1487.7285">Solution</text><line style="stroke:#181818;stroke-width:0.5;" x1="740.5" x2="821.5" y1="1498" y2="1498"/><line style="stroke:#181818;stroke-width:0.5;" x1="740.5" x2="821.5" y1="1506" y2="1506"/></g><!--MD5=[8235d596e40eaa310e25cb7e3d92ec72]
reverse link Community to User--><g id="link_Community_User"><path codeLine="95" d="M794.07,67.13 C786.76,82.29 778.17,100.13 770.59,115.86 " fill="none" id="Community-backto-User" style="stroke:#181818;stroke-width:1.0;"/><polygon fill="#181818" points="799.86,55.13,793.6524,58.7996,794.6522,65.9411,800.8598,62.2715,799.86,55.13" style="stroke:#181818;stroke-width:1.0;"/><text fill="#000000" font-family="sans-serif" font-size="13" lengthAdjust="spacing" textLength="22" x="750.0127" y="105.1445">2..n</text></g><!--MD5=[8b55897a5ea9705e017b96a45c367fde]
reverse link Community to Category--><g id="link_Community_Category"><path codeLine="96" d="M822.74,67.82 C827.44,82.65 832.73,100.08 837,116 C847.2,154.01 857,197.83 863.62,228.89 " fill="none" id="Community-backto-Category" style="stroke:#181818;stroke-width:1.0;"/><polygon fill="none" points="818.65,55.04,816.673,61.9748,822.314,66.4669,824.291,59.5321,818.65,55.04" style="stroke:#181818;stroke-width:1.0;"/><text fill="#000000" font-family="sans-serif" font-size="13" lengthAdjust="spacing" textLength="22" x="838.4102" y="218.1795">0..n</text></g><!--MD5=[c98fdacbcd4eb224c2d9d26b53646e58]
reverse link Category to Category--><g id="link_Category_Category"><path codeLine="98" d="M942.97,252.14 C955.65,254.53 964.5,260.65 964.5,270.5 C964.5,283.5 949.08,290 929.81,290 " fill="none" id="Category-backto-Category" style="stroke:#181818;stroke-width:1.0;"/><polygon fill="none" points="929.81,251,935.4403,255.5055,941.7647,252.0413,936.1345,247.5357,929.81,251" style="stroke:#181818;stroke-width:1.0;"/><text fill="#000000" font-family="sans-serif" font-size="13" lengthAdjust="spacing" textLength="83" x="970.5" y="275.9951">Subcategories</text><text fill="#000000" font-family="sans-serif" font-size="13" lengthAdjust="spacing" textLength="22" x="937.3361" y="288.7602">0..n</text></g><!--MD5=[d87c224b488f6c9759d0a77cb4053101]
reverse link User to Teacher--><g id="link_User_Teacher"><path codeLine="100" d="M751.56,219.29 C751.93,259.07 752.4,309.47 752.7,341.73 " fill="none" id="User-backto-Teacher" style="stroke:#181818;stroke-width:1.0;"/><polygon fill="none" points="744.56,219.1,751.38,199.03,758.56,218.97,744.56,219.1" style="stroke:#181818;stroke-width:1.0;"/></g><!--MD5=[29fe19ce294944fa80f389ae9bd987a4]
reverse link User to Student--><g id="link_User_Student"><path codeLine="101" d="M713.87,216.07 C685.36,260.27 647.49,318.98 626.89,350.91 " fill="none" id="User-backto-Student" style="stroke:#181818;stroke-width:1.0;"/><polygon fill="none" points="708.13,212.05,724.86,199.03,719.9,219.64,708.13,212.05" style="stroke:#181818;stroke-width:1.0;"/></g><!--MD5=[a8afb83bcf8ff3e1e4f8554b4cb258ee]
link Teacher to Concept--><g id="link_Teacher_Concept"><path codeLine="103" d="M766.3,408.09 C784.53,452.05 817.78,532.24 842.14,590.97 " fill="none" id="Teacher-to-Concept" style="stroke:#181818;stroke-width:1.0;stroke-dasharray:7.0,7.0;"/><polygon fill="#181818" points="844.17,595.87,844.4159,586.0242,842.254,591.2517,837.0266,589.0898,844.17,595.87" style="stroke:#181818;stroke-width:1.0;"/></g><!--MD5=[338c593997b7e5d530c3a07b33e0a9dd]
reverse link Category to Concept--><g id="link_Category_Concept"><path codeLine="104" d="M872,325.67 C872,396.21 872,519.52 872,595.91 " fill="none" id="Category-backto-Concept" style="stroke:#181818;stroke-width:1.0;"/><polygon fill="none" points="872,312.29,868,318.29,872,324.29,876,318.29,872,312.29" style="stroke:#181818;stroke-width:1.0;"/><text fill="#000000" font-family="sans-serif" font-size="13" lengthAdjust="spacing" textLength="22" x="848.7969" y="585.0994">0..n</text></g><!--MD5=[18141af66d78099ce63b3b3d94bf7770]
reverse link Concept to Question--><g id="link_Concept_Question"><path codeLine="106" d="M798.16,702.02 C746.4,727.97 676.16,763.18 616.97,792.86 " fill="none" id="Concept-backto-Question" style="stroke:#181818;stroke-width:1.0;"/><polygon fill="none" points="809.9,696.13,802.7437,695.2426,799.1722,701.5071,806.3284,702.3945,809.9,696.13" style="stroke:#181818;stroke-width:1.0;"/><text fill="#000000" font-family="sans-serif" font-size="13" lengthAdjust="spacing" textLength="22" x="607.7632" y="782.1672">0..n</text></g><!--MD5=[543bb2115b5a10697a67507a00f6a2f4]
reverse link Concept to Definition--><g id="link_Concept_Definition"><path codeLine="108" d="M932.44,742.53 C945.57,759.38 959.25,776.92 971.68,792.87 " fill="none" id="Concept-backto-Definition" style="stroke:#181818;stroke-width:1.0;"/><polygon fill="none" points="924.35,732.15,924.8797,739.3416,931.7219,741.6187,931.1922,734.4271,924.35,732.15" style="stroke:#181818;stroke-width:1.0;"/><text fill="#000000" font-family="sans-serif" font-size="13" lengthAdjust="spacing" textLength="22" x="942.816" y="782.1784">0..n</text></g><!--MD5=[38796b68b5180f699f927fbe8d179b6a]
reverse link Definition to Justification--><g id="link_Definition_Justification"><path codeLine="109" d="M1060.83,922.52 C1092.95,973.45 1136.03,1041.79 1166.33,1089.84 " fill="none" id="Definition-backto-Justification" style="stroke:#181818;stroke-width:1.0;"/><polygon fill="none" points="1053.75,911.28,1053.5699,918.4889,1060.1549,921.4277,1060.3351,914.2189,1053.75,911.28" style="stroke:#181818;stroke-width:1.0;"/><text fill="#000000" font-family="sans-serif" font-size="13" lengthAdjust="spacing" textLength="77" x="1133" y="996.9951">isFake = true</text><text fill="#000000" font-family="sans-serif" font-size="13" lengthAdjust="spacing" textLength="22" x="1138.5202" y="1079.1448">0..n</text></g><!--MD5=[5b13a3dd25e80832e08dfc192ea141c9]
reverse link Justification to Explication--><g id="link_Justification_Explication"><path codeLine="110" d="M1206.5,1221.25 C1208.38,1259.44 1210.56,1303.94 1211.86,1330.36 " fill="none" id="Justification-backto-Explication" style="stroke:#181818;stroke-width:1.0;"/><polygon fill="none" points="1205.85,1208.04,1202.1519,1214.2306,1206.444,1220.0253,1210.1421,1213.8347,1205.85,1208.04" style="stroke:#181818;stroke-width:1.0;"/><text fill="#000000" font-family="sans-serif" font-size="13" lengthAdjust="spacing" textLength="77" x="1209" y="1270.4951">isFake = true</text></g><!--MD5=[54f9360500e0fd532969fc16f437bbea]
reverse link Concept to Relation--><g id="link_Concept_Relation"><path codeLine="111" d="M870.28,745.16 C868.96,806.37 867.19,888.8 866.07,940.79 " fill="none" id="Concept-backto-Relation" style="stroke:#181818;stroke-width:1.0;"/><polygon fill="none" points="870.56,732.05,866.4356,737.9652,870.3095,744.0474,874.4339,738.1322,870.56,732.05" style="stroke:#181818;stroke-width:1.0;"/><text fill="#000000" font-family="sans-serif" font-size="13" lengthAdjust="spacing" textLength="22" x="842.6736" y="930.0658">0..n</text></g><!--MD5=[a87ccfb1ad401ebc9457283edda68da5]
link Student to Evaluation--><g id="link_Student_Evaluation"><path codeLine="113" d="M612,399.22 C612,417.31 612,442.79 612,463.73 " fill="none" id="Student-to-Evaluation" style="stroke:#181818;stroke-width:1.0;"/><polygon fill="#181818" points="612,468.95,616,459.95,612,463.95,608,459.95,612,468.95" style="stroke:#181818;stroke-width:1.0;"/><text fill="#000000" font-family="sans-serif" font-size="13" lengthAdjust="spacing" textLength="22" x="587.7313" y="458.0551">0..n</text></g><!--MD5=[7ea0c49f743e358ac875b85df2ad47d3]
link Evaluation to Test--><g id="link_Evaluation_Test"><path codeLine="114" d="M592.98,535.38 C577.45,561.81 555.51,599.16 539.37,626.62 " fill="none" id="Evaluation-to-Test" style="stroke:#181818;stroke-width:1.0;"/><polygon fill="#181818" points="536.83,630.94,544.8318,625.1979,539.3582,626.6263,537.9299,621.1527,536.83,630.94" style="stroke:#181818;stroke-width:1.0;"/></g><!--MD5=[67b6cc77f9c51a9ece6c1301ad2aff24]
link Teacher to Evaluation--><g id="link_Teacher_Evaluation"><path codeLine="116" d="M716.69,408.19 C696.87,425.76 672.3,447.55 651.94,465.59 " fill="none" id="Teacher-to-Evaluation" style="stroke:#181818;stroke-width:1.0;stroke-dasharray:7.0,7.0;"/><polygon fill="#181818" points="648.19,468.92,657.5798,465.9482,651.9333,465.6053,652.2762,459.9588,648.19,468.92" style="stroke:#181818;stroke-width:1.0;"/></g><!--MD5=[2628e164b67c1f40dc35481def287ee4]
link Definition to OpenAnswer--><g id="link_Definition_OpenAnswer"><path codeLine="117" d="M1022.18,911.11 C1026.24,988.8 1023.28,1128.07 963,1226 C938.32,1266.1 895.81,1296.94 858.08,1318.24 " fill="none" id="Definition-to-OpenAnswer" style="stroke:#181818;stroke-width:1.0;stroke-dasharray:7.0,7.0;"/><polygon fill="#181818" points="853.5,1320.79,863.3088,1319.9022,857.8674,1318.3557,859.4139,1312.9144,853.5,1320.79" style="stroke:#181818;stroke-width:1.0;"/><text fill="#000000" font-family="sans-serif" font-size="13" lengthAdjust="spacing" textLength="108" x="1015" y="1154.4951">isUsefulToConcept</text></g><!--MD5=[1d8c82c42e54aaccde68dcd6fc5dc993]
link Justification to OpenAnswer--><g id="link_Justification_OpenAnswer"><path codeLine="118" d="M1150.3,1204.32 C1141.55,1212.06 1132.29,1219.57 1123,1226 C1041.47,1282.45 931.82,1317.53 858.89,1336.27 " fill="none" id="Justification-to-OpenAnswer" style="stroke:#181818;stroke-width:1.0;stroke-dasharray:7.0,7.0;"/><polygon fill="#181818" points="853.7,1337.59,863.4073,1339.2541,858.5465,1336.3605,861.4401,1331.4997,853.7,1337.59" style="stroke:#181818;stroke-width:1.0;"/><text fill="#000000" font-family="sans-serif" font-size="13" lengthAdjust="spacing" textLength="108" x="1073" y="1270.4951">isUsefulToConcept</text></g><!--MD5=[02ef75cdf8d99a84fff5c5d571d09b39]
link Relation to OpenAnswer--><g id="link_Relation_OpenAnswer"><path codeLine="119" d="M853.41,1042.32 C837.74,1109.66 809.9,1229.3 793.69,1298.98 " fill="none" id="Relation-to-OpenAnswer" style="stroke:#181818;stroke-width:1.0;stroke-dasharray:7.0,7.0;"/><polygon fill="#181818" points="792.54,1303.91,798.468,1296.045,793.6685,1299.039,790.6745,1294.2394,792.54,1303.91" style="stroke:#181818;stroke-width:1.0;"/><text fill="#000000" font-family="sans-serif" font-size="13" lengthAdjust="spacing" textLength="108" x="846" y="1154.4951">isUsefulToConcept</text></g><!--MD5=[f64dc83838b757ef1728d7fab5cb079d]
link Evaluation to OpenAnswer--><g id="link_Evaluation_OpenAnswer"><path codeLine="121" d="M637.21,535.21 C649.34,552.34 662.96,574.3 671,596 C695.4,661.88 754.54,1135.74 774.38,1298.66 " fill="none" id="Evaluation-to-OpenAnswer" style="stroke:#181818;stroke-width:1.0;stroke-dasharray:7.0,7.0;"/><polygon fill="#181818" points="775.02,1303.85,777.9128,1294.4356,774.4209,1298.886,769.9704,1295.3941,775.02,1303.85" style="stroke:#181818;stroke-width:1.0;"/><text fill="#000000" font-family="sans-serif" font-size="13" lengthAdjust="spacing" textLength="127" x="725" y="857.4951">manual (! isEvaluated)</text></g><!--MD5=[1fbef7c23275e6fc2ed02dd14078f225]
link Evaluation to SelectedOption--><g id="link_Evaluation_SelectedOption"><path codeLine="122" d="M562.92,505.42 C418.65,513.87 6,548.07 6,663 C6,663 6,663 6,1150 C6,1219.95 55.87,1289.69 87.2,1326.59 " fill="none" id="Evaluation-to-SelectedOption" style="stroke:#181818;stroke-width:1.0;stroke-dasharray:7.0,7.0;"/><polygon fill="#181818" points="90.55,1330.49,87.7123,1321.0588,87.289,1326.6998,81.648,1326.2764,90.55,1330.49" style="stroke:#181818;stroke-width:1.0;"/><text fill="#000000" font-family="sans-serif" font-size="13" lengthAdjust="spacing" textLength="57" x="7" y="857.4951">automatic</text></g><!--MD5=[37c1e8dba486a8108983e1d119d6febb]
reverse link Test to Question--><g id="link_Test_Question"><path codeLine="124" d="M513.84,710.46 C511.58,735.23 508.75,766.16 506.33,792.69 " fill="none" id="Test-backto-Question" style="stroke:#181818;stroke-width:1.0;"/><polygon fill="#181818" points="515.04,697.4,510.5099,703.0105,513.9464,709.3501,518.4766,703.7396,515.04,697.4" style="stroke:#181818;stroke-width:1.0;"/><text fill="#000000" font-family="sans-serif" font-size="13" lengthAdjust="spacing" textLength="22" x="483.639" y="781.9765">1..n</text></g><!--MD5=[5ea4867893d7a476c54f91c2252dd0f8]
reverse link Question to MultipleChoiceQuestion--><g id="link_Question_MultipleChoiceQuestion"><path codeLine="125" d="M445.33,927.65 C396.83,992.68 329.5,1082.96 298.24,1124.89 " fill="none" id="Question-backto-MultipleChoiceQuestion" style="stroke:#181818;stroke-width:1.0;"/><polygon fill="none" points="439.97,923.13,457.54,911.28,451.19,931.5,439.97,923.13" style="stroke:#181818;stroke-width:1.0;"/></g><!--MD5=[e68d8486b151d64b61c7f5b6e40a3de9]
reverse link Question to OpenQuestion--><g id="link_Question_OpenQuestion"><path codeLine="126" d="M532.64,930.14 C559.23,994.98 595.54,1083.49 612.52,1124.89 " fill="none" id="Question-backto-OpenQuestion" style="stroke:#181818;stroke-width:1.0;"/><polygon fill="none" points="526.02,932.44,524.91,911.28,538.97,927.13,526.02,932.44" style="stroke:#181818;stroke-width:1.0;"/></g><!--MD5=[eff6b19138ddb6af13849faaf0a4f1bc]
reverse link Question to Statement--><g id="link_Question_Statement"><path codeLine="127" d="M386.17,918.01 C320.3,958.06 238.05,1012.93 173,1072 C155.15,1088.21 137.36,1109.03 124.76,1124.78 " fill="none" id="Question-backto-Statement" style="stroke:#181818;stroke-width:1.0;"/><polygon fill="#181818" points="397.43,911.21,390.2262,910.8847,387.1552,917.4091,394.359,917.7345,397.43,911.21" style="stroke:#181818;stroke-width:1.0;"/></g><!--MD5=[185adfbec1fc38ddaede86a7c2f0e161]
reverse link MultipleChoiceQuestion to Option--><g id="link_MultipleChoiceQuestion_Option"><path codeLine="128" d="M287.93,1186.17 C295.93,1227.89 308.84,1295.25 315.58,1330.43 " fill="none" id="MultipleChoiceQuestion-backto-Option" style="stroke:#181818;stroke-width:1.0;"/><polygon fill="#181818" points="285.47,1173.34,282.6684,1179.9846,287.7244,1185.1263,290.526,1178.4817,285.47,1173.34" style="stroke:#181818;stroke-width:1.0;"/><text fill="#000000" font-family="sans-serif" font-size="13" lengthAdjust="spacing" textLength="22" x="289.6286" y="1319.7522">2..n</text></g><!--MD5=[8b4b6ce4502ba24ddb3ea6e9e3ffd79d]
reverse link Option to Incorrect--><g id="link_Option_Incorrect"><path codeLine="129" d="M342.07,1396.41 C354.3,1419.1 369.07,1446.49 379.36,1465.56 " fill="none" id="Option-backto-Incorrect" style="stroke:#181818;stroke-width:1.0;"/><polygon fill="none" points="335.87,1399.68,332.54,1378.75,348.2,1393.03,335.87,1399.68" style="stroke:#181818;stroke-width:1.0;"/></g><!--MD5=[e9c99f228a0238815f6b3520e77f42c1]
reverse link Option to Correct--><g id="link_Option_Correct"><path codeLine="130" d="M301.78,1397.44 C292.01,1419.92 280.35,1446.77 272.18,1465.56 " fill="none" id="Option-backto-Correct" style="stroke:#181818;stroke-width:1.0;"/><polygon fill="none" points="295.51,1394.31,309.9,1378.75,308.35,1399.89,295.51,1394.31" style="stroke:#181818;stroke-width:1.0;"/></g><!--MD5=[af3bf499bed903ad0ed1598fcccf7b9c]
reverse link MultipleChoiceQuestion to Correct--><g id="link_MultipleChoiceQuestion_Correct"><path codeLine="131" d="M276.32,1186.36 C272.52,1217.52 267.42,1263.63 265,1304 C261.51,1362.2 261.46,1430.86 261.73,1465.9 " fill="none" id="MultipleChoiceQuestion-backto-Correct" style="stroke:#181818;stroke-width:1.0;"/><polygon fill="#181818" points="277.96,1173.17,273.2519,1178.632,276.4829,1185.0787,281.1911,1179.6167,277.96,1173.17" style="stroke:#181818;stroke-width:1.0;"/></g><!--MD5=[c33b5950e601fddbef86daa9f7dbaee3]
reverse link MultipleChoiceQuestion to Incorrect--><g id="link_MultipleChoiceQuestion_Incorrect"><path codeLine="132" d="M307.42,1183.8 C329.22,1213.65 358.93,1259.25 374,1304 C392.8,1359.81 393.94,1430.07 393.05,1465.81 " fill="none" id="MultipleChoiceQuestion-backto-Incorrect" style="stroke:#181818;stroke-width:1.0;"/><polygon fill="#181818" points="299.5,1173.17,299.8715,1180.3715,306.662,1182.7984,306.2905,1175.5969,299.5,1173.17" style="stroke:#181818;stroke-width:1.0;"/><text fill="#000000" font-family="sans-serif" font-size="13" lengthAdjust="spacing" textLength="22" x="368.5003" y="1455.1015">1..n</text></g><!--MD5=[a41781f1f1e8030a8e1780e035976660]
reverse link MultipleChoiceQuestion to SelectedOption--><g id="link_MultipleChoiceQuestion_SelectedOption"><path codeLine="133" d="M253.18,1183.49 C218.75,1224.96 161.01,1294.49 131.16,1330.43 " fill="none" id="MultipleChoiceQuestion-backto-SelectedOption" style="stroke:#181818;stroke-width:1.0;"/><polygon fill="none" points="261.61,1173.34,254.7001,1175.4022,253.946,1182.5738,260.8559,1180.5116,261.61,1173.34" style="stroke:#181818;stroke-width:1.0;"/><text fill="#000000" font-family="sans-serif" font-size="13" lengthAdjust="spacing" textLength="22" x="111.251" y="1319.7522">0..n</text></g><!--MD5=[ddd0ba9ff0adad4c5f8027dfa32b4028]
reverse link OpenQuestion to OpenAnswer--><g id="link_OpenQuestion_OpenAnswer"><path codeLine="134" d="M645.21,1184.24 C662.67,1209.52 687.53,1244.51 711,1274 C718.79,1283.78 727.38,1293.98 735.79,1303.68 " fill="none" id="OpenQuestion-backto-OpenAnswer" style="stroke:#181818;stroke-width:1.0;"/><polygon fill="none" points="637.74,1173.36,637.8389,1180.5704,644.5327,1183.2523,644.4338,1176.0419,637.74,1173.36" style="stroke:#181818;stroke-width:1.0;"/><text fill="#000000" font-family="sans-serif" font-size="13" lengthAdjust="spacing" textLength="22" x="706.2368" y="1293.3063">0..n</text></g><!--MD5=[5d713b1c0eb5d19b54b4791b73108c83]
reverse link Question to Answer--><g id="link_Question_Answer"><path codeLine="135" d="M492.53,924.4 C487.23,969.02 480.42,1026.45 475.03,1071.93 " fill="none" id="Question-backto-Answer" style="stroke:#181818;stroke-width:1.0;"/><polygon fill="none" points="494.09,911.28,489.4118,916.7676,492.678,923.1966,497.3562,917.709,494.09,911.28" style="stroke:#181818;stroke-width:1.0;"/><text fill="#000000" font-family="sans-serif" font-size="13" lengthAdjust="spacing" textLength="22" x="452.8361" y="1061.0853">0..n</text></g><!--MD5=[d836dd5f24b2050a0870c879f4cc72e6]
reverse link Answer to OpenAnswer--><g id="link_Answer_OpenAnswer"><path codeLine="136" d="M540.67,1225 C541.11,1225.34 541.55,1225.67 542,1226 C594.05,1264.57 659.28,1298.55 708.44,1321.71 " fill="none" id="Answer-backto-OpenAnswer" style="stroke:#181818;stroke-width:1.0;"/><polygon fill="none" points="536.15,1230.36,525.08,1212.29,545,1219.51,536.15,1230.36" style="stroke:#181818;stroke-width:1.0;"/></g><!--MD5=[c9991b0162c2b5928e47e95121f6f5d4]
reverse link Answer to SelectedOption--><g id="link_Answer_SelectedOption"><path codeLine="137" d="M390.97,1224.62 C390.32,1225.08 389.66,1225.54 389,1226 C321.84,1272.45 235.05,1309.22 176.66,1331.1 " fill="none" id="Answer-backto-SelectedOption" style="stroke:#181818;stroke-width:1.0;"/><polygon fill="none" points="386.73,1219.05,406.8,1212.26,395.34,1230.09,386.73,1219.05" style="stroke:#181818;stroke-width:1.0;"/></g><!--MD5=[98aa07428d46824cc2b88ba1e197bb35]
link OpenAnswer to Solution--><g id="link_OpenAnswer_Solution"><path codeLine="138" d="M781,1405.21 C781,1423.86 781,1444.41 781,1460.49 " fill="none" id="OpenAnswer-to-Solution" style="stroke:#181818;stroke-width:1.0;"/><polygon fill="#181818" points="781,1465.77,785,1456.77,781,1460.77,777,1456.77,781,1465.77" style="stroke:#181818;stroke-width:1.0;"/></g><!--MD5=[c02f0dea339a9dd7823b00686807b2d7]
@startuml OpoTestDomain

class Community

class User {
    - username
    - categorySelected
}

class Teacher {
    -conceptSelected
}

class Student

class Evaluation {
    - result
}

class Category {
    -subcategories
    -concepts
}

class Test {
    - questions[ category.getAllQuestions() ]
}

class Concept {
    - keyword
    - fakekeywords[ ]
    - definitions[ ]
    - relations[ ]
    - questions[ ]
}

class Definition {
    - content
    - isFake
    - createdDate
    - justifications[ ]
}

class Justification {
    - content
    - isFake
    - createdDate
    - explication
}

class Relation {
    - contents[ ]
    - isFake
    - createdDate
}

class Question {
    - statementImplementor
    - answers[ ]
    # void setStatementImplementor()
    + bool isAnsweredBy(studentName)
}

class Statement

class Answer {
    - content
    - isOK
    - isEvaluated
    - studentName
    - createdDate
    - evaluatedDate
}

class MultipleChoiceQuestion

class OpenQuestion

class Option

class Correct

Class Incorrect

class OpenAnswer {
    - isUsefulToConcept
    - content
    - evaluatedBy
}

Class SelectedOption {

}


Community *- -"2..n" User
Community o- -"0..n" Category

Category o- -"0..n" Category : Subcategories

User <|- - Teacher
User <|- - Student

Teacher ..> Concept
Category o- -"0..n" Concept
'Concept - -o Category
Concept o- -"0..n" Question
'Question - -o Concept
Concept o- -"0..n" Definition
Definition o- -"0..n" Justification: isFake = true
Justification o- - Explication: isFake = true
Concept o- -"0..n" Relation

Student - ->"0..n" Evaluation
Evaluation - -> Test

Teacher ..> Evaluation
Definition ..> OpenAnswer :isUsefulToConcept
Justification ..> OpenAnswer :isUsefulToConcept
Relation ..> OpenAnswer :isUsefulToConcept

Evaluation ..> OpenAnswer : manual (! isEvaluated)
Evaluation ..> SelectedOption : automatic

Test *- -"1..n" Question
Question <|- - MultipleChoiceQuestion
Question <|- - OpenQuestion
Question *- -   Statement
MultipleChoiceQuestion *- -"2..n" Option
Option <|- - Incorrect
Option <|- - Correct
MultipleChoiceQuestion *- - Correct
MultipleChoiceQuestion *- -"1..n" Incorrect
MultipleChoiceQuestion o- -"0..n" SelectedOption
OpenQuestion o- -"0..n" OpenAnswer
Question o- -"0..n" Answer
Answer <|- - OpenAnswer
Answer <|- - SelectedOption
OpenAnswer - -> Solution


@enduml

@startuml OpoTestDomain

class Community

class User {
    - username
    - categorySelected
}

class Teacher {
    -conceptSelected
}

class Student

class Evaluation {
    - result
}

class Category {
    -subcategories
    -concepts
}

class Test {
    - questions[ category.getAllQuestions() ]
}

class Concept {
    - keyword
    - fakekeywords[ ]
    - definitions[ ]
    - relations[ ]
    - questions[ ]
}

class Definition {
    - content
    - isFake
    - createdDate
    - justifications[ ]
}

class Justification {
    - content
    - isFake
    - createdDate
    - explication
}

class Relation {
    - contents[ ]
    - isFake
    - createdDate
}

class Question {
    - statementImplementor
    - answers[ ]
    # void setStatementImplementor()
    + bool isAnsweredBy(studentName)
}

class Statement

class Answer {
    - content
    - isOK
    - isEvaluated
    - studentName
    - createdDate
    - evaluatedDate
}

class MultipleChoiceQuestion

class OpenQuestion

class Option

class Correct

Class Incorrect

class OpenAnswer {
    - isUsefulToConcept
    - content
    - evaluatedBy
}

Class SelectedOption {

}


Community *- -"2..n" User
Community o- -"0..n" Category

Category o- -"0..n" Category : Subcategories

User <|- - Teacher
User <|- - Student

Teacher ..> Concept
Category o- -"0..n" Concept
Concept o- -"0..n" Question
Concept o- -"0..n" Definition
Definition o- -"0..n" Justification: isFake = true
Justification o- - Explication: isFake = true
Concept o- -"0..n" Relation

Student - ->"0..n" Evaluation
Evaluation - -> Test

Teacher ..> Evaluation
Definition ..> OpenAnswer :isUsefulToConcept
Justification ..> OpenAnswer :isUsefulToConcept
Relation ..> OpenAnswer :isUsefulToConcept

Evaluation ..> OpenAnswer : manual (! isEvaluated)
Evaluation ..> SelectedOption : automatic

Test *- -"1..n" Question
Question <|- - MultipleChoiceQuestion
Question <|- - OpenQuestion
Question *- -   Statement
MultipleChoiceQuestion *- -"2..n" Option
Option <|- - Incorrect
Option <|- - Correct
MultipleChoiceQuestion *- - Correct
MultipleChoiceQuestion *- -"1..n" Incorrect
MultipleChoiceQuestion o- -"0..n" SelectedOption
OpenQuestion o- -"0..n" OpenAnswer
Question o- -"0..n" Answer
Answer <|- - OpenAnswer
Answer <|- - SelectedOption
OpenAnswer - -> Solution


@enduml

PlantUML version 1.2022.7(Mon Aug 22 18:01:30 WEST 2022)
(GPL source distribution)
Java Runtime: OpenJDK Runtime Environment
JVM: OpenJDK 64-Bit Server VM
Default Encoding: Cp1252
Language: es
Country: ES
--></g></svg>