<?xml version="1.0" encoding="UTF-8" standalone="no"?><svg xmlns="http://www.w3.org/2000/svg" xmlns:xlink="http://www.w3.org/1999/xlink" contentStyleType="text/css" height="1169px" preserveAspectRatio="none" style="width:473px;height:1169px;background:#FFFFFF;" version="1.1" viewBox="0 0 473 1169" width="473px" zoomAndPan="magnify"><defs/><g><!--MD5=[668d633d11bedc8952753581a2dda3db]
class Community--><g id="elem_Community"><rect codeLine="2" fill="#F1F1F1" height="48" id="Community" rx="2.5" ry="2.5" style="stroke:#181818;stroke-width:0.5;" width="102" x="281" y="7"/><ellipse cx="296" cy="23" fill="#ADD1B2" rx="11" ry="11" style="stroke:#181818;stroke-width:1.0;"/><path d="M298.7656,18.875 Q298.9219,18.6563 299.1094,18.5469 Q299.2969,18.4375 299.5156,18.4375 Q299.8906,18.4375 300.125,18.7031 Q300.3594,18.9531 300.3594,19.5625 L300.3594,21.0156 Q300.3594,21.625 300.125,21.8906 Q299.8906,22.1563 299.5156,22.1563 Q299.1719,22.1563 298.9688,21.9531 Q298.7656,21.7656 298.6563,21.25 Q298.6094,20.8906 298.4219,20.7031 Q298.0938,20.3281 297.4844,20.1094 Q296.875,19.8906 296.25,19.8906 Q295.4844,19.8906 294.8438,20.2188 Q294.2188,20.5469 293.7188,21.2969 Q293.2344,22.0469 293.2344,23.0781 L293.2344,24.1719 Q293.2344,25.4063 294.125,26.2344 Q295.0156,27.0469 296.6094,27.0469 Q297.5469,27.0469 298.2031,26.7969 Q298.5938,26.6406 299.0156,26.2031 Q299.2813,25.9375 299.4219,25.8594 Q299.5781,25.7813 299.7813,25.7813 Q300.1094,25.7813 300.3594,26.0469 Q300.625,26.2969 300.625,26.6406 Q300.625,26.9844 300.2813,27.3906 Q299.7813,27.9688 298.9844,28.2969 Q297.9063,28.75 296.6094,28.75 Q295.0938,28.75 293.8906,28.125 Q292.9063,27.625 292.2188,26.5625 Q291.5313,25.4844 291.5313,24.2031 L291.5313,23.0469 Q291.5313,21.7188 292.1406,20.5781 Q292.7656,19.4219 293.8594,18.8125 Q294.9531,18.1875 296.1875,18.1875 Q296.9219,18.1875 297.5625,18.3594 Q298.2188,18.5156 298.7656,18.875 Z " fill="#000000"/><text fill="#000000" font-family="sans-serif" font-size="14" lengthAdjust="spacing" textLength="70" x="310" y="28.7285">Community</text><line style="stroke:#181818;stroke-width:0.5;" x1="282" x2="382" y1="39" y2="39"/><line style="stroke:#181818;stroke-width:0.5;" x1="282" x2="382" y1="47" y2="47"/></g><!--MD5=[3fd616f346a44cd59a91eb10b19e157c]
class User--><g id="elem_User"><rect codeLine="4" fill="#F1F1F1" height="48" id="User" rx="2.5" ry="2.5" style="stroke:#181818;stroke-width:0.5;" width="61" x="250.5" y="116"/><ellipse cx="265.5" cy="132" fill="#ADD1B2" rx="11" ry="11" style="stroke:#181818;stroke-width:1.0;"/><path d="M268.2656,127.875 Q268.4219,127.6563 268.6094,127.5469 Q268.7969,127.4375 269.0156,127.4375 Q269.3906,127.4375 269.625,127.7031 Q269.8594,127.9531 269.8594,128.5625 L269.8594,130.0156 Q269.8594,130.625 269.625,130.8906 Q269.3906,131.1563 269.0156,131.1563 Q268.6719,131.1563 268.4688,130.9531 Q268.2656,130.7656 268.1563,130.25 Q268.1094,129.8906 267.9219,129.7031 Q267.5938,129.3281 266.9844,129.1094 Q266.375,128.8906 265.75,128.8906 Q264.9844,128.8906 264.3438,129.2188 Q263.7188,129.5469 263.2188,130.2969 Q262.7344,131.0469 262.7344,132.0781 L262.7344,133.1719 Q262.7344,134.4063 263.625,135.2344 Q264.5156,136.0469 266.1094,136.0469 Q267.0469,136.0469 267.7031,135.7969 Q268.0938,135.6406 268.5156,135.2031 Q268.7813,134.9375 268.9219,134.8594 Q269.0781,134.7813 269.2813,134.7813 Q269.6094,134.7813 269.8594,135.0469 Q270.125,135.2969 270.125,135.6406 Q270.125,135.9844 269.7813,136.3906 Q269.2813,136.9688 268.4844,137.2969 Q267.4063,137.75 266.1094,137.75 Q264.5938,137.75 263.3906,137.125 Q262.4063,136.625 261.7188,135.5625 Q261.0313,134.4844 261.0313,133.2031 L261.0313,132.0469 Q261.0313,130.7188 261.6406,129.5781 Q262.2656,128.4219 263.3594,127.8125 Q264.4531,127.1875 265.6875,127.1875 Q266.4219,127.1875 267.0625,127.3594 Q267.7188,127.5156 268.2656,127.875 Z " fill="#000000"/><text fill="#000000" font-family="sans-serif" font-size="14" lengthAdjust="spacing" textLength="29" x="279.5" y="137.7285">User</text><line style="stroke:#181818;stroke-width:0.5;" x1="251.5" x2="310.5" y1="148" y2="148"/><line style="stroke:#181818;stroke-width:0.5;" x1="251.5" x2="310.5" y1="156" y2="156"/></g><!--MD5=[e76a510855fdf825c81877c657b1fc23]
class Reviewer--><g id="elem_Reviewer"><rect codeLine="6" fill="#F1F1F1" height="48" id="Reviewer" rx="2.5" ry="2.5" style="stroke:#181818;stroke-width:0.5;" width="90" x="256" y="381"/><ellipse cx="271" cy="397" fill="#ADD1B2" rx="11" ry="11" style="stroke:#181818;stroke-width:1.0;"/><path d="M273.7656,392.875 Q273.9219,392.6563 274.1094,392.5469 Q274.2969,392.4375 274.5156,392.4375 Q274.8906,392.4375 275.125,392.7031 Q275.3594,392.9531 275.3594,393.5625 L275.3594,395.0156 Q275.3594,395.625 275.125,395.8906 Q274.8906,396.1563 274.5156,396.1563 Q274.1719,396.1563 273.9688,395.9531 Q273.7656,395.7656 273.6563,395.25 Q273.6094,394.8906 273.4219,394.7031 Q273.0938,394.3281 272.4844,394.1094 Q271.875,393.8906 271.25,393.8906 Q270.4844,393.8906 269.8438,394.2188 Q269.2188,394.5469 268.7188,395.2969 Q268.2344,396.0469 268.2344,397.0781 L268.2344,398.1719 Q268.2344,399.4063 269.125,400.2344 Q270.0156,401.0469 271.6094,401.0469 Q272.5469,401.0469 273.2031,400.7969 Q273.5938,400.6406 274.0156,400.2031 Q274.2813,399.9375 274.4219,399.8594 Q274.5781,399.7813 274.7813,399.7813 Q275.1094,399.7813 275.3594,400.0469 Q275.625,400.2969 275.625,400.6406 Q275.625,400.9844 275.2813,401.3906 Q274.7813,401.9688 273.9844,402.2969 Q272.9063,402.75 271.6094,402.75 Q270.0938,402.75 268.8906,402.125 Q267.9063,401.625 267.2188,400.5625 Q266.5313,399.4844 266.5313,398.2031 L266.5313,397.0469 Q266.5313,395.7188 267.1406,394.5781 Q267.7656,393.4219 268.8594,392.8125 Q269.9531,392.1875 271.1875,392.1875 Q271.9219,392.1875 272.5625,392.3594 Q273.2188,392.5156 273.7656,392.875 Z " fill="#000000"/><text fill="#000000" font-family="sans-serif" font-size="14" lengthAdjust="spacing" textLength="58" x="285" y="402.7285">Reviewer</text><line style="stroke:#181818;stroke-width:0.5;" x1="257" x2="345" y1="413" y2="413"/><line style="stroke:#181818;stroke-width:0.5;" x1="257" x2="345" y1="421" y2="421"/></g><!--MD5=[559db66c208d2736f857be4b8ed380a2]
class Editor--><g id="elem_Editor"><rect codeLine="8" fill="#F1F1F1" height="48" id="Editor" rx="2.5" ry="2.5" style="stroke:#181818;stroke-width:0.5;" width="69" x="246.5" y="272"/><ellipse cx="261.5" cy="288" fill="#ADD1B2" rx="11" ry="11" style="stroke:#181818;stroke-width:1.0;"/><path d="M264.2656,283.875 Q264.4219,283.6563 264.6094,283.5469 Q264.7969,283.4375 265.0156,283.4375 Q265.3906,283.4375 265.625,283.7031 Q265.8594,283.9531 265.8594,284.5625 L265.8594,286.0156 Q265.8594,286.625 265.625,286.8906 Q265.3906,287.1563 265.0156,287.1563 Q264.6719,287.1563 264.4688,286.9531 Q264.2656,286.7656 264.1563,286.25 Q264.1094,285.8906 263.9219,285.7031 Q263.5938,285.3281 262.9844,285.1094 Q262.375,284.8906 261.75,284.8906 Q260.9844,284.8906 260.3438,285.2188 Q259.7188,285.5469 259.2188,286.2969 Q258.7344,287.0469 258.7344,288.0781 L258.7344,289.1719 Q258.7344,290.4063 259.625,291.2344 Q260.5156,292.0469 262.1094,292.0469 Q263.0469,292.0469 263.7031,291.7969 Q264.0938,291.6406 264.5156,291.2031 Q264.7813,290.9375 264.9219,290.8594 Q265.0781,290.7813 265.2813,290.7813 Q265.6094,290.7813 265.8594,291.0469 Q266.125,291.2969 266.125,291.6406 Q266.125,291.9844 265.7813,292.3906 Q265.2813,292.9688 264.4844,293.2969 Q263.4063,293.75 262.1094,293.75 Q260.5938,293.75 259.3906,293.125 Q258.4063,292.625 257.7188,291.5625 Q257.0313,290.4844 257.0313,289.2031 L257.0313,288.0469 Q257.0313,286.7188 257.6406,285.5781 Q258.2656,284.4219 259.3594,283.8125 Q260.4531,283.1875 261.6875,283.1875 Q262.4219,283.1875 263.0625,283.3594 Q263.7188,283.5156 264.2656,283.875 Z " fill="#000000"/><text fill="#000000" font-family="sans-serif" font-size="14" lengthAdjust="spacing" textLength="37" x="275.5" y="293.7285">Editor</text><line style="stroke:#181818;stroke-width:0.5;" x1="247.5" x2="314.5" y1="304" y2="304"/><line style="stroke:#181818;stroke-width:0.5;" x1="247.5" x2="314.5" y1="312" y2="312"/></g><!--MD5=[a0a1f7f9662f43ef0ece806266f72a6f]
class Executor--><g id="elem_Executor"><rect codeLine="10" fill="#F1F1F1" height="48" id="Executor" rx="2.5" ry="2.5" style="stroke:#181818;stroke-width:0.5;" width="87" x="121.5" y="272"/><ellipse cx="136.5" cy="288" fill="#ADD1B2" rx="11" ry="11" style="stroke:#181818;stroke-width:1.0;"/><path d="M139.2656,283.875 Q139.4219,283.6563 139.6094,283.5469 Q139.7969,283.4375 140.0156,283.4375 Q140.3906,283.4375 140.625,283.7031 Q140.8594,283.9531 140.8594,284.5625 L140.8594,286.0156 Q140.8594,286.625 140.625,286.8906 Q140.3906,287.1563 140.0156,287.1563 Q139.6719,287.1563 139.4688,286.9531 Q139.2656,286.7656 139.1563,286.25 Q139.1094,285.8906 138.9219,285.7031 Q138.5938,285.3281 137.9844,285.1094 Q137.375,284.8906 136.75,284.8906 Q135.9844,284.8906 135.3438,285.2188 Q134.7188,285.5469 134.2188,286.2969 Q133.7344,287.0469 133.7344,288.0781 L133.7344,289.1719 Q133.7344,290.4063 134.625,291.2344 Q135.5156,292.0469 137.1094,292.0469 Q138.0469,292.0469 138.7031,291.7969 Q139.0938,291.6406 139.5156,291.2031 Q139.7813,290.9375 139.9219,290.8594 Q140.0781,290.7813 140.2813,290.7813 Q140.6094,290.7813 140.8594,291.0469 Q141.125,291.2969 141.125,291.6406 Q141.125,291.9844 140.7813,292.3906 Q140.2813,292.9688 139.4844,293.2969 Q138.4063,293.75 137.1094,293.75 Q135.5938,293.75 134.3906,293.125 Q133.4063,292.625 132.7188,291.5625 Q132.0313,290.4844 132.0313,289.2031 L132.0313,288.0469 Q132.0313,286.7188 132.6406,285.5781 Q133.2656,284.4219 134.3594,283.8125 Q135.4531,283.1875 136.6875,283.1875 Q137.4219,283.1875 138.0625,283.3594 Q138.7188,283.5156 139.2656,283.875 Z " fill="#000000"/><text fill="#000000" font-family="sans-serif" font-size="14" lengthAdjust="spacing" textLength="55" x="150.5" y="293.7285">Executor</text><line style="stroke:#181818;stroke-width:0.5;" x1="122.5" x2="207.5" y1="304" y2="304"/><line style="stroke:#181818;stroke-width:0.5;" x1="122.5" x2="207.5" y1="312" y2="312"/></g><!--MD5=[71e8807956d33805e77353b9d7e2df39]
class Evaluation--><g id="elem_Evaluation"><rect codeLine="12" fill="#F1F1F1" height="48" id="Evaluation" rx="2.5" ry="2.5" style="stroke:#181818;stroke-width:0.5;" width="98" x="52" y="381"/><ellipse cx="67" cy="397" fill="#ADD1B2" rx="11" ry="11" style="stroke:#181818;stroke-width:1.0;"/><path d="M69.7656,392.875 Q69.9219,392.6563 70.1094,392.5469 Q70.2969,392.4375 70.5156,392.4375 Q70.8906,392.4375 71.125,392.7031 Q71.3594,392.9531 71.3594,393.5625 L71.3594,395.0156 Q71.3594,395.625 71.125,395.8906 Q70.8906,396.1563 70.5156,396.1563 Q70.1719,396.1563 69.9688,395.9531 Q69.7656,395.7656 69.6563,395.25 Q69.6094,394.8906 69.4219,394.7031 Q69.0938,394.3281 68.4844,394.1094 Q67.875,393.8906 67.25,393.8906 Q66.4844,393.8906 65.8438,394.2188 Q65.2188,394.5469 64.7188,395.2969 Q64.2344,396.0469 64.2344,397.0781 L64.2344,398.1719 Q64.2344,399.4063 65.125,400.2344 Q66.0156,401.0469 67.6094,401.0469 Q68.5469,401.0469 69.2031,400.7969 Q69.5938,400.6406 70.0156,400.2031 Q70.2813,399.9375 70.4219,399.8594 Q70.5781,399.7813 70.7813,399.7813 Q71.1094,399.7813 71.3594,400.0469 Q71.625,400.2969 71.625,400.6406 Q71.625,400.9844 71.2813,401.3906 Q70.7813,401.9688 69.9844,402.2969 Q68.9063,402.75 67.6094,402.75 Q66.0938,402.75 64.8906,402.125 Q63.9063,401.625 63.2188,400.5625 Q62.5313,399.4844 62.5313,398.2031 L62.5313,397.0469 Q62.5313,395.7188 63.1406,394.5781 Q63.7656,393.4219 64.8594,392.8125 Q65.9531,392.1875 67.1875,392.1875 Q67.9219,392.1875 68.5625,392.3594 Q69.2188,392.5156 69.7656,392.875 Z " fill="#000000"/><text fill="#000000" font-family="sans-serif" font-size="14" lengthAdjust="spacing" textLength="66" x="81" y="402.7285">Evaluation</text><line style="stroke:#181818;stroke-width:0.5;" x1="53" x2="149" y1="413" y2="413"/><line style="stroke:#181818;stroke-width:0.5;" x1="53" x2="149" y1="421" y2="421"/></g><!--MD5=[a96594a83e2ecdc78cbf17c2ddf01934]
class Category--><g id="elem_Category"><rect codeLine="14" fill="#F1F1F1" height="48" id="Category" rx="2.5" ry="2.5" style="stroke:#181818;stroke-width:0.5;" width="90" x="7" y="896"/><ellipse cx="22" cy="912" fill="#ADD1B2" rx="11" ry="11" style="stroke:#181818;stroke-width:1.0;"/><path d="M24.7656,907.875 Q24.9219,907.6563 25.1094,907.5469 Q25.2969,907.4375 25.5156,907.4375 Q25.8906,907.4375 26.125,907.7031 Q26.3594,907.9531 26.3594,908.5625 L26.3594,910.0156 Q26.3594,910.625 26.125,910.8906 Q25.8906,911.1563 25.5156,911.1563 Q25.1719,911.1563 24.9688,910.9531 Q24.7656,910.7656 24.6563,910.25 Q24.6094,909.8906 24.4219,909.7031 Q24.0938,909.3281 23.4844,909.1094 Q22.875,908.8906 22.25,908.8906 Q21.4844,908.8906 20.8438,909.2188 Q20.2188,909.5469 19.7188,910.2969 Q19.2344,911.0469 19.2344,912.0781 L19.2344,913.1719 Q19.2344,914.4063 20.125,915.2344 Q21.0156,916.0469 22.6094,916.0469 Q23.5469,916.0469 24.2031,915.7969 Q24.5938,915.6406 25.0156,915.2031 Q25.2813,914.9375 25.4219,914.8594 Q25.5781,914.7813 25.7813,914.7813 Q26.1094,914.7813 26.3594,915.0469 Q26.625,915.2969 26.625,915.6406 Q26.625,915.9844 26.2813,916.3906 Q25.7813,916.9688 24.9844,917.2969 Q23.9063,917.75 22.6094,917.75 Q21.0938,917.75 19.8906,917.125 Q18.9063,916.625 18.2188,915.5625 Q17.5313,914.4844 17.5313,913.2031 L17.5313,912.0469 Q17.5313,910.7188 18.1406,909.5781 Q18.7656,908.4219 19.8594,907.8125 Q20.9531,907.1875 22.1875,907.1875 Q22.9219,907.1875 23.5625,907.3594 Q24.2188,907.5156 24.7656,907.875 Z " fill="#000000"/><text fill="#000000" font-family="sans-serif" font-size="14" lengthAdjust="spacing" textLength="58" x="36" y="917.7285">Category</text><line style="stroke:#181818;stroke-width:0.5;" x1="8" x2="96" y1="928" y2="928"/><line style="stroke:#181818;stroke-width:0.5;" x1="8" x2="96" y1="936" y2="936"/></g><!--MD5=[df38be88ccee13e832d6fafd6288a4ca]
class Test--><g id="elem_Test"><rect codeLine="16" fill="#F1F1F1" height="65.6094" id="Test" rx="2.5" ry="2.5" style="stroke:#181818;stroke-width:0.5;" width="78" x="66" y="590"/><ellipse cx="89.1" cy="606" fill="#ADD1B2" rx="11" ry="11" style="stroke:#181818;stroke-width:1.0;"/><path d="M91.8656,601.875 Q92.0219,601.6563 92.2094,601.5469 Q92.3969,601.4375 92.6156,601.4375 Q92.9906,601.4375 93.225,601.7031 Q93.4594,601.9531 93.4594,602.5625 L93.4594,604.0156 Q93.4594,604.625 93.225,604.8906 Q92.9906,605.1563 92.6156,605.1563 Q92.2719,605.1563 92.0688,604.9531 Q91.8656,604.7656 91.7563,604.25 Q91.7094,603.8906 91.5219,603.7031 Q91.1938,603.3281 90.5844,603.1094 Q89.975,602.8906 89.35,602.8906 Q88.5844,602.8906 87.9438,603.2188 Q87.3188,603.5469 86.8188,604.2969 Q86.3344,605.0469 86.3344,606.0781 L86.3344,607.1719 Q86.3344,608.4063 87.225,609.2344 Q88.1156,610.0469 89.7094,610.0469 Q90.6469,610.0469 91.3031,609.7969 Q91.6938,609.6406 92.1156,609.2031 Q92.3813,608.9375 92.5219,608.8594 Q92.6781,608.7813 92.8813,608.7813 Q93.2094,608.7813 93.4594,609.0469 Q93.725,609.2969 93.725,609.6406 Q93.725,609.9844 93.3813,610.3906 Q92.8813,610.9688 92.0844,611.2969 Q91.0063,611.75 89.7094,611.75 Q88.1938,611.75 86.9906,611.125 Q86.0063,610.625 85.3188,609.5625 Q84.6313,608.4844 84.6313,607.2031 L84.6313,606.0469 Q84.6313,604.7188 85.2406,603.5781 Q85.8656,602.4219 86.9594,601.8125 Q88.0531,601.1875 89.2875,601.1875 Q90.0219,601.1875 90.6625,601.3594 Q91.3188,601.5156 91.8656,601.875 Z " fill="#000000"/><text fill="#000000" font-family="sans-serif" font-size="14" lengthAdjust="spacing" textLength="28" x="104.9" y="611.7285">Test</text><line style="stroke:#181818;stroke-width:0.5;" x1="67" x2="143" y1="622" y2="622"/><text fill="#000000" font-family="sans-serif" font-size="14" lengthAdjust="spacing" textLength="66" x="72" y="640.5332">categories</text><line style="stroke:#181818;stroke-width:0.5;" x1="67" x2="143" y1="647.6094" y2="647.6094"/></g><!--MD5=[686fa95824735602dd15f07aadf69888]
class PendingReviewQuestions--><g id="elem_PendingReviewQuestions"><rect codeLine="20" fill="#F1F1F1" height="48" id="PendingReviewQuestions" rx="2.5" ry="2.5" style="stroke:#181818;stroke-width:0.5;" width="193" x="251.5" y="599"/><ellipse cx="266.5" cy="615" fill="#ADD1B2" rx="11" ry="11" style="stroke:#181818;stroke-width:1.0;"/><path d="M269.2656,610.875 Q269.4219,610.6563 269.6094,610.5469 Q269.7969,610.4375 270.0156,610.4375 Q270.3906,610.4375 270.625,610.7031 Q270.8594,610.9531 270.8594,611.5625 L270.8594,613.0156 Q270.8594,613.625 270.625,613.8906 Q270.3906,614.1563 270.0156,614.1563 Q269.6719,614.1563 269.4688,613.9531 Q269.2656,613.7656 269.1563,613.25 Q269.1094,612.8906 268.9219,612.7031 Q268.5938,612.3281 267.9844,612.1094 Q267.375,611.8906 266.75,611.8906 Q265.9844,611.8906 265.3438,612.2188 Q264.7188,612.5469 264.2188,613.2969 Q263.7344,614.0469 263.7344,615.0781 L263.7344,616.1719 Q263.7344,617.4063 264.625,618.2344 Q265.5156,619.0469 267.1094,619.0469 Q268.0469,619.0469 268.7031,618.7969 Q269.0938,618.6406 269.5156,618.2031 Q269.7813,617.9375 269.9219,617.8594 Q270.0781,617.7813 270.2813,617.7813 Q270.6094,617.7813 270.8594,618.0469 Q271.125,618.2969 271.125,618.6406 Q271.125,618.9844 270.7813,619.3906 Q270.2813,619.9688 269.4844,620.2969 Q268.4063,620.75 267.1094,620.75 Q265.5938,620.75 264.3906,620.125 Q263.4063,619.625 262.7188,618.5625 Q262.0313,617.4844 262.0313,616.2031 L262.0313,615.0469 Q262.0313,613.7188 262.6406,612.5781 Q263.2656,611.4219 264.3594,610.8125 Q265.4531,610.1875 266.6875,610.1875 Q267.4219,610.1875 268.0625,610.3594 Q268.7188,610.5156 269.2656,610.875 Z " fill="#000000"/><text fill="#000000" font-family="sans-serif" font-size="14" lengthAdjust="spacing" textLength="161" x="280.5" y="620.7285">PendingReviewQuestions</text><line style="stroke:#181818;stroke-width:0.5;" x1="252.5" x2="443.5" y1="631" y2="631"/><line style="stroke:#181818;stroke-width:0.5;" x1="252.5" x2="443.5" y1="639" y2="639"/></g><!--MD5=[cbddb90c6383c26762130850ded55635]
class ReviewedQuestions--><g id="elem_ReviewedQuestions"><rect codeLine="22" fill="#F1F1F1" height="48" id="ReviewedQuestions" rx="2.5" ry="2.5" style="stroke:#181818;stroke-width:0.5;" width="157" x="309.5" y="194"/><ellipse cx="324.5" cy="210" fill="#ADD1B2" rx="11" ry="11" style="stroke:#181818;stroke-width:1.0;"/><path d="M327.2656,205.875 Q327.4219,205.6563 327.6094,205.5469 Q327.7969,205.4375 328.0156,205.4375 Q328.3906,205.4375 328.625,205.7031 Q328.8594,205.9531 328.8594,206.5625 L328.8594,208.0156 Q328.8594,208.625 328.625,208.8906 Q328.3906,209.1563 328.0156,209.1563 Q327.6719,209.1563 327.4688,208.9531 Q327.2656,208.7656 327.1563,208.25 Q327.1094,207.8906 326.9219,207.7031 Q326.5938,207.3281 325.9844,207.1094 Q325.375,206.8906 324.75,206.8906 Q323.9844,206.8906 323.3438,207.2188 Q322.7188,207.5469 322.2188,208.2969 Q321.7344,209.0469 321.7344,210.0781 L321.7344,211.1719 Q321.7344,212.4063 322.625,213.2344 Q323.5156,214.0469 325.1094,214.0469 Q326.0469,214.0469 326.7031,213.7969 Q327.0938,213.6406 327.5156,213.2031 Q327.7813,212.9375 327.9219,212.8594 Q328.0781,212.7813 328.2813,212.7813 Q328.6094,212.7813 328.8594,213.0469 Q329.125,213.2969 329.125,213.6406 Q329.125,213.9844 328.7813,214.3906 Q328.2813,214.9688 327.4844,215.2969 Q326.4063,215.75 325.1094,215.75 Q323.5938,215.75 322.3906,215.125 Q321.4063,214.625 320.7188,213.5625 Q320.0313,212.4844 320.0313,211.2031 L320.0313,210.0469 Q320.0313,208.7188 320.6406,207.5781 Q321.2656,206.4219 322.3594,205.8125 Q323.4531,205.1875 324.6875,205.1875 Q325.4219,205.1875 326.0625,205.3594 Q326.7188,205.5156 327.2656,205.875 Z " fill="#000000"/><text fill="#000000" font-family="sans-serif" font-size="14" lengthAdjust="spacing" textLength="125" x="338.5" y="215.7285">ReviewedQuestions</text><line style="stroke:#181818;stroke-width:0.5;" x1="310.5" x2="465.5" y1="226" y2="226"/><line style="stroke:#181818;stroke-width:0.5;" x1="310.5" x2="465.5" y1="234" y2="234"/></g><!--MD5=[9d451b2f92d848a8e2d1a4dab2b1c6bf]
class Concept--><g id="elem_Concept"><rect codeLine="24" fill="#F1F1F1" height="100.8281" id="Concept" rx="2.5" ry="2.5" style="stroke:#181818;stroke-width:0.5;" width="126" x="137" y="459"/><ellipse cx="170.45" cy="475" fill="#ADD1B2" rx="11" ry="11" style="stroke:#181818;stroke-width:1.0;"/><path d="M173.2156,470.875 Q173.3719,470.6563 173.5594,470.5469 Q173.7469,470.4375 173.9656,470.4375 Q174.3406,470.4375 174.575,470.7031 Q174.8094,470.9531 174.8094,471.5625 L174.8094,473.0156 Q174.8094,473.625 174.575,473.8906 Q174.3406,474.1563 173.9656,474.1563 Q173.6219,474.1563 173.4188,473.9531 Q173.2156,473.7656 173.1063,473.25 Q173.0594,472.8906 172.8719,472.7031 Q172.5438,472.3281 171.9344,472.1094 Q171.325,471.8906 170.7,471.8906 Q169.9344,471.8906 169.2938,472.2188 Q168.6688,472.5469 168.1688,473.2969 Q167.6844,474.0469 167.6844,475.0781 L167.6844,476.1719 Q167.6844,477.4063 168.575,478.2344 Q169.4656,479.0469 171.0594,479.0469 Q171.9969,479.0469 172.6531,478.7969 Q173.0438,478.6406 173.4656,478.2031 Q173.7313,477.9375 173.8719,477.8594 Q174.0281,477.7813 174.2313,477.7813 Q174.5594,477.7813 174.8094,478.0469 Q175.075,478.2969 175.075,478.6406 Q175.075,478.9844 174.7313,479.3906 Q174.2313,479.9688 173.4344,480.2969 Q172.3563,480.75 171.0594,480.75 Q169.5438,480.75 168.3406,480.125 Q167.3563,479.625 166.6688,478.5625 Q165.9813,477.4844 165.9813,476.2031 L165.9813,475.0469 Q165.9813,473.7188 166.5906,472.5781 Q167.2156,471.4219 168.3094,470.8125 Q169.4031,470.1875 170.6375,470.1875 Q171.3719,470.1875 172.0125,470.3594 Q172.6688,470.5156 173.2156,470.875 Z " fill="#000000"/><text fill="#000000" font-family="sans-serif" font-size="14" lengthAdjust="spacing" textLength="53" x="188.55" y="480.7285">Concept</text><line style="stroke:#181818;stroke-width:0.5;" x1="138" x2="262" y1="491" y2="491"/><text fill="#000000" font-family="sans-serif" font-size="14" lengthAdjust="spacing" textLength="103" x="143" y="509.5332">correctDefinition</text><text fill="#000000" font-family="sans-serif" font-size="14" lengthAdjust="spacing" textLength="114" x="143" y="527.1426">incorrectDefinition</text><text fill="#000000" font-family="sans-serif" font-size="14" lengthAdjust="spacing" textLength="51" x="143" y="544.752">strategy</text><line style="stroke:#181818;stroke-width:0.5;" x1="138" x2="262" y1="551.8281" y2="551.8281"/></g><!--MD5=[fc7123defb831ecdd44b2d9bcef6cceb]
class Question--><g id="elem_Question"><rect codeLine="30" fill="#F1F1F1" height="118.4375" id="Question" rx="2.5" ry="2.5" style="stroke:#181818;stroke-width:0.5;" width="89" x="153.5" y="717"/><ellipse cx="168.5" cy="733" fill="#ADD1B2" rx="11" ry="11" style="stroke:#181818;stroke-width:1.0;"/><path d="M171.2656,728.875 Q171.4219,728.6563 171.6094,728.5469 Q171.7969,728.4375 172.0156,728.4375 Q172.3906,728.4375 172.625,728.7031 Q172.8594,728.9531 172.8594,729.5625 L172.8594,731.0156 Q172.8594,731.625 172.625,731.8906 Q172.3906,732.1563 172.0156,732.1563 Q171.6719,732.1563 171.4688,731.9531 Q171.2656,731.7656 171.1563,731.25 Q171.1094,730.8906 170.9219,730.7031 Q170.5938,730.3281 169.9844,730.1094 Q169.375,729.8906 168.75,729.8906 Q167.9844,729.8906 167.3438,730.2188 Q166.7188,730.5469 166.2188,731.2969 Q165.7344,732.0469 165.7344,733.0781 L165.7344,734.1719 Q165.7344,735.4063 166.625,736.2344 Q167.5156,737.0469 169.1094,737.0469 Q170.0469,737.0469 170.7031,736.7969 Q171.0938,736.6406 171.5156,736.2031 Q171.7813,735.9375 171.9219,735.8594 Q172.0781,735.7813 172.2813,735.7813 Q172.6094,735.7813 172.8594,736.0469 Q173.125,736.2969 173.125,736.6406 Q173.125,736.9844 172.7813,737.3906 Q172.2813,737.9688 171.4844,738.2969 Q170.4063,738.75 169.1094,738.75 Q167.5938,738.75 166.3906,738.125 Q165.4063,737.625 164.7188,736.5625 Q164.0313,735.4844 164.0313,734.2031 L164.0313,733.0469 Q164.0313,731.7188 164.6406,730.5781 Q165.2656,729.4219 166.3594,728.8125 Q167.4531,728.1875 168.6875,728.1875 Q169.4219,728.1875 170.0625,728.3594 Q170.7188,728.5156 171.2656,728.875 Z " fill="#000000"/><text fill="#000000" font-family="sans-serif" font-size="14" lengthAdjust="spacing" textLength="57" x="182.5" y="738.7285">Question</text><line style="stroke:#181818;stroke-width:0.5;" x1="154.5" x2="241.5" y1="749" y2="749"/><text fill="#000000" font-family="sans-serif" font-size="14" lengthAdjust="spacing" textLength="28" x="159.5" y="767.5332">date</text><text fill="#000000" font-family="sans-serif" font-size="14" lengthAdjust="spacing" textLength="71" x="159.5" y="785.1426">isReviewed</text><text fill="#000000" font-family="sans-serif" font-size="14" lengthAdjust="spacing" textLength="48" x="159.5" y="802.752">isPublic</text><text fill="#000000" font-family="sans-serif" font-size="14" lengthAdjust="spacing" textLength="12" x="159.5" y="820.3613">...</text><line style="stroke:#181818;stroke-width:0.5;" x1="154.5" x2="241.5" y1="827.4375" y2="827.4375"/></g><!--MD5=[a61a298976b7d1d94498f45c2ebfa10b]
class Statement--><g id="elem_Statement"><rect codeLine="37" fill="#F1F1F1" height="48" id="Statement" rx="2.5" ry="2.5" style="stroke:#181818;stroke-width:0.5;" width="96" x="150" y="896"/><ellipse cx="165" cy="912" fill="#ADD1B2" rx="11" ry="11" style="stroke:#181818;stroke-width:1.0;"/><path d="M167.7656,907.875 Q167.9219,907.6563 168.1094,907.5469 Q168.2969,907.4375 168.5156,907.4375 Q168.8906,907.4375 169.125,907.7031 Q169.3594,907.9531 169.3594,908.5625 L169.3594,910.0156 Q169.3594,910.625 169.125,910.8906 Q168.8906,911.1563 168.5156,911.1563 Q168.1719,911.1563 167.9688,910.9531 Q167.7656,910.7656 167.6563,910.25 Q167.6094,909.8906 167.4219,909.7031 Q167.0938,909.3281 166.4844,909.1094 Q165.875,908.8906 165.25,908.8906 Q164.4844,908.8906 163.8438,909.2188 Q163.2188,909.5469 162.7188,910.2969 Q162.2344,911.0469 162.2344,912.0781 L162.2344,913.1719 Q162.2344,914.4063 163.125,915.2344 Q164.0156,916.0469 165.6094,916.0469 Q166.5469,916.0469 167.2031,915.7969 Q167.5938,915.6406 168.0156,915.2031 Q168.2813,914.9375 168.4219,914.8594 Q168.5781,914.7813 168.7813,914.7813 Q169.1094,914.7813 169.3594,915.0469 Q169.625,915.2969 169.625,915.6406 Q169.625,915.9844 169.2813,916.3906 Q168.7813,916.9688 167.9844,917.2969 Q166.9063,917.75 165.6094,917.75 Q164.0938,917.75 162.8906,917.125 Q161.9063,916.625 161.2188,915.5625 Q160.5313,914.4844 160.5313,913.2031 L160.5313,912.0469 Q160.5313,910.7188 161.1406,909.5781 Q161.7656,908.4219 162.8594,907.8125 Q163.9531,907.1875 165.1875,907.1875 Q165.9219,907.1875 166.5625,907.3594 Q167.2188,907.5156 167.7656,907.875 Z " fill="#000000"/><text fill="#000000" font-family="sans-serif" font-size="14" lengthAdjust="spacing" textLength="64" x="179" y="917.7285">Statement</text><line style="stroke:#181818;stroke-width:0.5;" x1="151" x2="245" y1="928" y2="928"/><line style="stroke:#181818;stroke-width:0.5;" x1="151" x2="245" y1="936" y2="936"/></g><!--MD5=[f9fadfa5a66b7e5a67b370cd443ffe52]
class Answer--><g id="elem_Answer"><rect codeLine="39" fill="#F1F1F1" height="48" id="Answer" rx="2.5" ry="2.5" style="stroke:#181818;stroke-width:0.5;" width="78" x="281" y="896"/><ellipse cx="296" cy="912" fill="#ADD1B2" rx="11" ry="11" style="stroke:#181818;stroke-width:1.0;"/><path d="M298.7656,907.875 Q298.9219,907.6563 299.1094,907.5469 Q299.2969,907.4375 299.5156,907.4375 Q299.8906,907.4375 300.125,907.7031 Q300.3594,907.9531 300.3594,908.5625 L300.3594,910.0156 Q300.3594,910.625 300.125,910.8906 Q299.8906,911.1563 299.5156,911.1563 Q299.1719,911.1563 298.9688,910.9531 Q298.7656,910.7656 298.6563,910.25 Q298.6094,909.8906 298.4219,909.7031 Q298.0938,909.3281 297.4844,909.1094 Q296.875,908.8906 296.25,908.8906 Q295.4844,908.8906 294.8438,909.2188 Q294.2188,909.5469 293.7188,910.2969 Q293.2344,911.0469 293.2344,912.0781 L293.2344,913.1719 Q293.2344,914.4063 294.125,915.2344 Q295.0156,916.0469 296.6094,916.0469 Q297.5469,916.0469 298.2031,915.7969 Q298.5938,915.6406 299.0156,915.2031 Q299.2813,914.9375 299.4219,914.8594 Q299.5781,914.7813 299.7813,914.7813 Q300.1094,914.7813 300.3594,915.0469 Q300.625,915.2969 300.625,915.6406 Q300.625,915.9844 300.2813,916.3906 Q299.7813,916.9688 298.9844,917.2969 Q297.9063,917.75 296.6094,917.75 Q295.0938,917.75 293.8906,917.125 Q292.9063,916.625 292.2188,915.5625 Q291.5313,914.4844 291.5313,913.2031 L291.5313,912.0469 Q291.5313,910.7188 292.1406,909.5781 Q292.7656,908.4219 293.8594,907.8125 Q294.9531,907.1875 296.1875,907.1875 Q296.9219,907.1875 297.5625,907.3594 Q298.2188,907.5156 298.7656,907.875 Z " fill="#000000"/><text fill="#000000" font-family="sans-serif" font-size="14" lengthAdjust="spacing" textLength="46" x="310" y="917.7285">Answer</text><line style="stroke:#181818;stroke-width:0.5;" x1="282" x2="358" y1="928" y2="928"/><line style="stroke:#181818;stroke-width:0.5;" x1="282" x2="358" y1="936" y2="936"/></g><!--MD5=[bc629657279eaa9349f412646650f2c5]
class Correct--><g id="elem_Correct"><rect codeLine="41" fill="#F1F1F1" height="48" id="Correct" rx="2.5" ry="2.5" style="stroke:#181818;stroke-width:0.5;" width="79" x="240.5" y="1005"/><ellipse cx="255.5" cy="1021" fill="#ADD1B2" rx="11" ry="11" style="stroke:#181818;stroke-width:1.0;"/><path d="M258.2656,1016.875 Q258.4219,1016.6563 258.6094,1016.5469 Q258.7969,1016.4375 259.0156,1016.4375 Q259.3906,1016.4375 259.625,1016.7031 Q259.8594,1016.9531 259.8594,1017.5625 L259.8594,1019.0156 Q259.8594,1019.625 259.625,1019.8906 Q259.3906,1020.1563 259.0156,1020.1563 Q258.6719,1020.1563 258.4688,1019.9531 Q258.2656,1019.7656 258.1563,1019.25 Q258.1094,1018.8906 257.9219,1018.7031 Q257.5938,1018.3281 256.9844,1018.1094 Q256.375,1017.8906 255.75,1017.8906 Q254.9844,1017.8906 254.3438,1018.2188 Q253.7188,1018.5469 253.2188,1019.2969 Q252.7344,1020.0469 252.7344,1021.0781 L252.7344,1022.1719 Q252.7344,1023.4063 253.625,1024.2344 Q254.5156,1025.0469 256.1094,1025.0469 Q257.0469,1025.0469 257.7031,1024.7969 Q258.0938,1024.6406 258.5156,1024.2031 Q258.7813,1023.9375 258.9219,1023.8594 Q259.0781,1023.7813 259.2813,1023.7813 Q259.6094,1023.7813 259.8594,1024.0469 Q260.125,1024.2969 260.125,1024.6406 Q260.125,1024.9844 259.7813,1025.3906 Q259.2813,1025.9688 258.4844,1026.2969 Q257.4063,1026.75 256.1094,1026.75 Q254.5938,1026.75 253.3906,1026.125 Q252.4063,1025.625 251.7188,1024.5625 Q251.0313,1023.4844 251.0313,1022.2031 L251.0313,1021.0469 Q251.0313,1019.7188 251.6406,1018.5781 Q252.2656,1017.4219 253.3594,1016.8125 Q254.4531,1016.1875 255.6875,1016.1875 Q256.4219,1016.1875 257.0625,1016.3594 Q257.7188,1016.5156 258.2656,1016.875 Z " fill="#000000"/><text fill="#000000" font-family="sans-serif" font-size="14" lengthAdjust="spacing" textLength="47" x="269.5" y="1026.7285">Correct</text><line style="stroke:#181818;stroke-width:0.5;" x1="241.5" x2="318.5" y1="1037" y2="1037"/><line style="stroke:#181818;stroke-width:0.5;" x1="241.5" x2="318.5" y1="1045" y2="1045"/></g><!--MD5=[37923dc032bbfca87d4413e584fa2cda]
class Incorrect--><g id="elem_Incorrect"><rect codeLine="43" fill="#F1F1F1" height="48" id="Incorrect" rx="2.5" ry="2.5" style="stroke:#181818;stroke-width:0.5;" width="87" x="354.5" y="1005"/><ellipse cx="369.5" cy="1021" fill="#ADD1B2" rx="11" ry="11" style="stroke:#181818;stroke-width:1.0;"/><path d="M372.2656,1016.875 Q372.4219,1016.6563 372.6094,1016.5469 Q372.7969,1016.4375 373.0156,1016.4375 Q373.3906,1016.4375 373.625,1016.7031 Q373.8594,1016.9531 373.8594,1017.5625 L373.8594,1019.0156 Q373.8594,1019.625 373.625,1019.8906 Q373.3906,1020.1563 373.0156,1020.1563 Q372.6719,1020.1563 372.4688,1019.9531 Q372.2656,1019.7656 372.1563,1019.25 Q372.1094,1018.8906 371.9219,1018.7031 Q371.5938,1018.3281 370.9844,1018.1094 Q370.375,1017.8906 369.75,1017.8906 Q368.9844,1017.8906 368.3438,1018.2188 Q367.7188,1018.5469 367.2188,1019.2969 Q366.7344,1020.0469 366.7344,1021.0781 L366.7344,1022.1719 Q366.7344,1023.4063 367.625,1024.2344 Q368.5156,1025.0469 370.1094,1025.0469 Q371.0469,1025.0469 371.7031,1024.7969 Q372.0938,1024.6406 372.5156,1024.2031 Q372.7813,1023.9375 372.9219,1023.8594 Q373.0781,1023.7813 373.2813,1023.7813 Q373.6094,1023.7813 373.8594,1024.0469 Q374.125,1024.2969 374.125,1024.6406 Q374.125,1024.9844 373.7813,1025.3906 Q373.2813,1025.9688 372.4844,1026.2969 Q371.4063,1026.75 370.1094,1026.75 Q368.5938,1026.75 367.3906,1026.125 Q366.4063,1025.625 365.7188,1024.5625 Q365.0313,1023.4844 365.0313,1022.2031 L365.0313,1021.0469 Q365.0313,1019.7188 365.6406,1018.5781 Q366.2656,1017.4219 367.3594,1016.8125 Q368.4531,1016.1875 369.6875,1016.1875 Q370.4219,1016.1875 371.0625,1016.3594 Q371.7188,1016.5156 372.2656,1016.875 Z " fill="#000000"/><text fill="#000000" font-family="sans-serif" font-size="14" lengthAdjust="spacing" textLength="55" x="383.5" y="1026.7285">Incorrect</text><line style="stroke:#181818;stroke-width:0.5;" x1="355.5" x2="440.5" y1="1037" y2="1037"/><line style="stroke:#181818;stroke-width:0.5;" x1="355.5" x2="440.5" y1="1045" y2="1045"/></g><!--MD5=[b355d11dc5a9142e22f9a644da54834e]
class Explication--><g id="elem_Explication"><rect codeLine="45" fill="#F1F1F1" height="48" id="Explication" rx="2.5" ry="2.5" style="stroke:#181818;stroke-width:0.5;" width="99" x="348.5" y="1114"/><ellipse cx="363.5" cy="1130" fill="#ADD1B2" rx="11" ry="11" style="stroke:#181818;stroke-width:1.0;"/><path d="M366.2656,1125.875 Q366.4219,1125.6563 366.6094,1125.5469 Q366.7969,1125.4375 367.0156,1125.4375 Q367.3906,1125.4375 367.625,1125.7031 Q367.8594,1125.9531 367.8594,1126.5625 L367.8594,1128.0156 Q367.8594,1128.625 367.625,1128.8906 Q367.3906,1129.1563 367.0156,1129.1563 Q366.6719,1129.1563 366.4688,1128.9531 Q366.2656,1128.7656 366.1563,1128.25 Q366.1094,1127.8906 365.9219,1127.7031 Q365.5938,1127.3281 364.9844,1127.1094 Q364.375,1126.8906 363.75,1126.8906 Q362.9844,1126.8906 362.3438,1127.2188 Q361.7188,1127.5469 361.2188,1128.2969 Q360.7344,1129.0469 360.7344,1130.0781 L360.7344,1131.1719 Q360.7344,1132.4063 361.625,1133.2344 Q362.5156,1134.0469 364.1094,1134.0469 Q365.0469,1134.0469 365.7031,1133.7969 Q366.0938,1133.6406 366.5156,1133.2031 Q366.7813,1132.9375 366.9219,1132.8594 Q367.0781,1132.7813 367.2813,1132.7813 Q367.6094,1132.7813 367.8594,1133.0469 Q368.125,1133.2969 368.125,1133.6406 Q368.125,1133.9844 367.7813,1134.3906 Q367.2813,1134.9688 366.4844,1135.2969 Q365.4063,1135.75 364.1094,1135.75 Q362.5938,1135.75 361.3906,1135.125 Q360.4063,1134.625 359.7188,1133.5625 Q359.0313,1132.4844 359.0313,1131.2031 L359.0313,1130.0469 Q359.0313,1128.7188 359.6406,1127.5781 Q360.2656,1126.4219 361.3594,1125.8125 Q362.4531,1125.1875 363.6875,1125.1875 Q364.4219,1125.1875 365.0625,1125.3594 Q365.7188,1125.5156 366.2656,1125.875 Z " fill="#000000"/><text fill="#000000" font-family="sans-serif" font-size="14" lengthAdjust="spacing" textLength="67" x="377.5" y="1135.7285">Explication</text><line style="stroke:#181818;stroke-width:0.5;" x1="349.5" x2="446.5" y1="1146" y2="1146"/><line style="stroke:#181818;stroke-width:0.5;" x1="349.5" x2="446.5" y1="1154" y2="1154"/></g><!--MD5=[12743b4aa7b2bf3d8e383437eb99df68]
link Community to User--><g id="link_Community_User"><path codeLine="48" d="M315.7647,66.0514 C315.7647,66.0514 303.36,92.08 297.79,103.78 " fill="none" id="Community-User" style="stroke:#181818;stroke-width:1.0;"/><polygon fill="#181818" points="292.04,115.83,299.5181,109.4208,294.1877,111.3148,292.2938,105.9844,292.04,115.83" style="stroke:#181818;stroke-width:1.0;"/><line style="stroke:#181818;stroke-width:1.0;" x1="294.1877" x2="297.64" y1="111.3148" y2="104.095"/><polygon fill="#181818" points="320.93,55.22,314.7369,58.9139,315.7647,66.0514,321.9578,62.3575,320.93,55.22" style="stroke:#181818;stroke-width:1.0;"/><text fill="#000000" font-family="sans-serif" font-size="13" lengthAdjust="spacing" textLength="20" x="272.3065" y="105.1266">1..*</text></g><!--MD5=[d52df4b853bdc5342fb2d805f548bc5a]
link Community to ReviewedQuestions--><g id="link_Community_ReviewedQuestions"><path codeLine="49" d="M342.4608,66.5441 C342.4608,66.5441 367.33,148.72 377.22,181.4 " fill="none" id="Community-ReviewedQuestions" style="stroke:#181818;stroke-width:1.0;"/><polygon fill="#181818" points="381.02,193.94,382.2374,184.1667,379.5697,189.155,374.5814,186.4872,381.02,193.94" style="stroke:#181818;stroke-width:1.0;"/><line style="stroke:#181818;stroke-width:1.0;" x1="379.5697" x2="377.255" y1="189.155" y2="181.5"/><polygon fill="#181818" points="338.98,55.06,336.8924,61.9623,342.4608,66.5441,344.5484,59.6418,338.98,55.06" style="stroke:#181818;stroke-width:1.0;"/></g><!--MD5=[7016372388c7ac2652db8515880aaa11]
reverse link User to Editor--><g id="link_User_Editor"><path codeLine="52" d="M281,184.37 C281,212.74 281,248.71 281,271.79 " fill="none" id="User-backto-Editor" style="stroke:#181818;stroke-width:1.0;"/><polygon fill="none" points="274,184.06,281,164.06,288,184.06,274,184.06" style="stroke:#181818;stroke-width:1.0;"/></g><!--MD5=[60e4945ab784e9eaf709bb3168dd25a4]
reverse link Editor to Reviewer--><g id="link_Editor_Reviewer"><path codeLine="53" d="M289.05,340.09 C291.66,354.01 294.44,368.92 296.67,380.83 " fill="none" id="Editor-backto-Reviewer" style="stroke:#181818;stroke-width:1.0;"/><polygon fill="none" points="282.13,341.16,285.34,320.22,295.9,338.59,282.13,341.16" style="stroke:#181818;stroke-width:1.0;"/></g><!--MD5=[d8a655080454bab67f6091cbff4cee86]
reverse link User to Executor--><g id="link_User_Executor"><path codeLine="54" d="M251.45,180.23 C229.65,209.17 200.73,247.57 182.49,271.79 " fill="none" id="User-backto-Executor" style="stroke:#181818;stroke-width:1.0;"/><polygon fill="none" points="246.01,175.82,263.63,164.06,257.19,184.24,246.01,175.82" style="stroke:#181818;stroke-width:1.0;"/></g><!--MD5=[12c2d56d27338edb90331faec7f87d5c]
link PendingReviewQuestions to Question--><g id="link_PendingReviewQuestions_Question"><path codeLine="56" d="M316.4377,655.7782 C316.4377,655.7782 273.21,699.29 251.87,720.77 " fill="none" id="PendingReviewQuestions-Question" style="stroke:#181818;stroke-width:1.0;"/><polygon fill="#181818" points="242.59,730.11,251.7714,726.5459,246.1145,726.5635,246.097,720.9067,242.59,730.11" style="stroke:#181818;stroke-width:1.0;"/><line style="stroke:#181818;stroke-width:1.0;" x1="246.1145" x2="251.75" y1="726.5635" y2="720.89"/><polygon fill="#181818" points="324.89,647.26,317.8245,648.7017,316.4377,655.7782,323.5033,654.3365,324.89,647.26" style="stroke:#181818;stroke-width:1.0;"/></g><!--MD5=[0bcbc359f19ed69453d76421891bdbfe]
link ReviewedQuestions to PendingReviewQuestions--><g id="link_ReviewedQuestions_PendingReviewQuestions"><path codeLine="57" d="M391.4493,254.1258 C391.4493,254.1258 402.95,451.55 377,560 C374.83,569.08 371.25,578.44 367.34,587.03 " fill="none" id="ReviewedQuestions-PendingReviewQuestions" style="stroke:#181818;stroke-width:1.0;"/><polygon fill="#181818" points="361.5,598.97,369.05,592.6457,363.6986,594.4793,361.865,589.1279,361.5,598.97" style="stroke:#181818;stroke-width:1.0;"/><line style="stroke:#181818;stroke-width:1.0;" x1="363.6986" x2="367.215" y1="594.4793" y2="587.3"/><polygon fill="#181818" points="390.42,242.17,386.9494,248.491,391.4493,254.1258,394.9199,247.8048,390.42,242.17" style="stroke:#181818;stroke-width:1.0;"/></g><!--MD5=[3e23c87a985df3c2da55c80a43bfcd45]
link Executor to Evaluation--><g id="link_Executor_Evaluation"><path codeLine="59" d="M151.11,320.22 C141.22,336.76 127.87,359.07 117.44,376.51 " fill="none" id="Executor-to-Evaluation" style="stroke:#181818;stroke-width:1.0;"/><polygon fill="#181818" points="114.86,380.83,122.9121,375.1587,117.4262,376.5388,116.0461,371.0528,114.86,380.83" style="stroke:#181818;stroke-width:1.0;"/><text fill="#000000" font-family="sans-serif" font-size="13" lengthAdjust="spacing" textLength="20" x="95.8491" y="370.1266">0..*</text></g><!--MD5=[7ea0c49f743e358ac875b85df2ad47d3]
link Evaluation to Test--><g id="link_Evaluation_Test"><path codeLine="60" d="M101.43,429.12 C102.12,466.42 103.49,540.23 104.31,584.95 " fill="none" id="Evaluation-to-Test" style="stroke:#181818;stroke-width:1.0;"/><polygon fill="#181818" points="104.41,589.98,108.2292,580.9018,104.31,584.981,100.2308,581.0618,104.41,589.98" style="stroke:#181818;stroke-width:1.0;"/></g><!--MD5=[dbcaedebb070bbdd4f1f81456a517a7e]
link Editor to Concept--><g id="link_Editor_Concept"><path codeLine="62" d="M267.58,320.35 C258.42,336.92 246.48,359.86 238,381 C228.61,404.42 220.31,431.06 213.89,453.92 " fill="none" id="Editor-to-Concept" style="stroke:#181818;stroke-width:1.0;stroke-dasharray:7.0,7.0;"/><polygon fill="#181818" points="212.55,458.74,218.821,451.1456,213.8934,453.9238,211.1152,448.9962,212.55,458.74" style="stroke:#181818;stroke-width:1.0;"/></g><!--MD5=[207a0f949a870d7c1e6d57d91b948c31]
link Concept to Question--><g id="link_Concept_Question"><path codeLine="63" d="M199.62,560.25 C199.3,603.13 198.83,665.28 198.48,711.7 " fill="none" id="Concept-to-Question" style="stroke:#181818;stroke-width:1.0;stroke-dasharray:7.0,7.0;"/><polygon fill="#181818" points="198.44,716.71,202.4914,707.733,198.4686,711.7101,194.4915,707.6873,198.44,716.71" style="stroke:#181818;stroke-width:1.0;"/></g><!--MD5=[796801260e32b64433c17f058a688d43]
link Reviewer to PendingReviewQuestions--><g id="link_Reviewer_PendingReviewQuestions"><path codeLine="64" d="M304.94,429.07 C310.22,459.29 320.19,513.85 331,560 C333.6,571.11 336.84,583.24 339.79,593.8 " fill="none" id="Reviewer-to-PendingReviewQuestions" style="stroke:#181818;stroke-width:1.0;stroke-dasharray:7.0,7.0;"/><polygon fill="#181818" points="341.21,598.85,342.618,589.1023,339.8534,594.0376,334.9181,591.2729,341.21,598.85" style="stroke:#181818;stroke-width:1.0;"/><text fill="#000000" font-family="sans-serif" font-size="13" lengthAdjust="spacing" textLength="40" x="332" y="514.9951">Review</text></g><!--MD5=[bb3d97f09542411db1527b071cca8268]
link Test to Question--><g id="link_Test_Question"><path codeLine="66" d="M131.0158,666.2358 C131.0158,666.2358 147.18,692.48 155.19,705.48 " fill="none" id="Test-Question" style="stroke:#181818;stroke-width:1.0;"/><polygon fill="#181818" points="162.16,716.81,160.8399,707.05,159.5352,712.5544,154.0309,711.2497,162.16,716.81" style="stroke:#181818;stroke-width:1.0;"/><line style="stroke:#181818;stroke-width:1.0;" x1="159.5352" x2="155.345" y1="712.5544" y2="705.74"/><polygon fill="#181818" points="124.72,656.02,124.4626,663.2265,131.0158,666.2358,131.2732,659.0293,124.72,656.02" style="stroke:#181818;stroke-width:1.0;"/><text fill="#000000" font-family="sans-serif" font-size="13" lengthAdjust="spacing" textLength="27" x="129.1467" y="706.1111">10..*</text></g><!--MD5=[6eeca14f8a2ed45d1117f4ed4af75b7e]
link Question to Statement--><g id="link_Question_Statement"><path codeLine="67" d="M198,847.17 C198,847.17 198,872.21 198,882.8 " fill="none" id="Question-Statement" style="stroke:#181818;stroke-width:1.0;"/><polygon fill="#181818" points="198,895.82,202,886.82,198,890.82,194,886.82,198,895.82" style="stroke:#181818;stroke-width:1.0;"/><line style="stroke:#181818;stroke-width:1.0;" x1="198" x2="198" y1="890.82" y2="882.82"/><polygon fill="#181818" points="198,835.17,194,841.17,198,847.17,202,841.17,198,835.17" style="stroke:#181818;stroke-width:1.0;"/></g><!--MD5=[6926d5174a3032b1dcc6c5d6f900c16b]
link Question to Answer--><g id="link_Question_Answer"><path codeLine="68" d="M250.5614,838.1708 C250.5614,838.1708 279.53,871.9 291.5,885.83 " fill="none" id="Question-Answer" style="stroke:#181818;stroke-width:1.0;"/><polygon fill="#181818" points="300.14,895.89,297.3075,886.4572,296.8811,892.098,291.2403,891.6715,300.14,895.89" style="stroke:#181818;stroke-width:1.0;"/><line style="stroke:#181818;stroke-width:1.0;" x1="296.8811" x2="291.67" y1="892.098" y2="886.025"/><polygon fill="#181818" points="242.74,829.07,243.6171,836.2276,250.5614,838.1708,249.6843,831.0133,242.74,829.07" style="stroke:#181818;stroke-width:1.0;"/><text fill="#000000" font-family="sans-serif" font-size="13" lengthAdjust="spacing" textLength="7" x="287.154" y="885.202">4</text></g><!--MD5=[b1491d38e87214202fddacec717a9c8d]
reverse link Answer to Correct--><g id="link_Answer_Correct"><path codeLine="69" d="M304.26,963.1 C298.95,977.31 293.22,992.64 288.66,1004.83 " fill="none" id="Answer-backto-Correct" style="stroke:#181818;stroke-width:1.0;"/><polygon fill="none" points="297.76,960.5,311.32,944.22,310.87,965.4,297.76,960.5" style="stroke:#181818;stroke-width:1.0;"/></g><!--MD5=[a6181c8180a1587156cddad319d63c9e]
reverse link Answer to Incorrect--><g id="link_Answer_Incorrect"><path codeLine="70" d="M348.92,960.67 C359.76,975.54 371.71,991.94 381.11,1004.83 " fill="none" id="Answer-backto-Incorrect" style="stroke:#181818;stroke-width:1.0;"/><polygon fill="none" points="343.05,964.5,336.92,944.22,354.36,956.26,343.05,964.5" style="stroke:#181818;stroke-width:1.0;"/></g><!--MD5=[891313bc93ffc8e08861e1b0b6a61544]
reverse link Incorrect to Explication--><g id="link_Incorrect_Explication"><path codeLine="71" d="M398,1066.3 C398,1082.02 398,1099.96 398,1113.83 " fill="none" id="Incorrect-backto-Explication" style="stroke:#181818;stroke-width:1.0;"/><polygon fill="none" points="398,1053.22,394,1059.22,398,1065.22,402,1059.22,398,1053.22" style="stroke:#181818;stroke-width:1.0;"/></g><!--MD5=[98df2f76ab45609c36aa45d6b9c3faee]
link Question to Category--><g id="link_Question_Category"><path codeLine="73" d="M144.8034,828.7525 C144.8034,828.7525 102.91,869.49 85.63,886.29 " fill="none" id="Question-Category" style="stroke:#181818;stroke-width:1.0;"/><polygon fill="#181818" points="75.99,895.67,85.2283,892.2562,79.5719,892.1815,79.6466,886.5251,75.99,895.67" style="stroke:#181818;stroke-width:1.0;"/><line style="stroke:#181818;stroke-width:1.0;" x1="79.5719" x2="85.305" y1="892.1815" y2="886.61"/><polygon fill="#181818" points="153.4,820.38,146.3109,821.7007,144.8034,828.7525,151.8925,827.4318,153.4,820.38" style="stroke:#181818;stroke-width:1.0;"/></g><!--MD5=[a5725b0440277e7b298212d4ab098951]
link Category to Category--><g id="link_Category_Category"><path codeLine="74" d="M109.2281,910.1712 C109.2281,910.1712 132,914.46 132,920 C132,925.54 123.03,928.8 110.6,929.8 " fill="none" id="Category-Category" style="stroke:#181818;stroke-width:1.0;"/><polygon fill="#181818" points="97.23,930.04,106.299,933.881,102.2292,929.952,106.1582,925.8822,97.23,930.04" style="stroke:#181818;stroke-width:1.0;"/><line style="stroke:#181818;stroke-width:1.0;" x1="102.2292" x2="110.23" y1="929.952" y2="929.805"/><polygon fill="#181818" points="97.23,909.96,103.1587,914.065,109.2281,910.1712,103.2995,906.0662,97.23,909.96" style="stroke:#181818;stroke-width:1.0;"/><text fill="#000000" font-family="sans-serif" font-size="13" lengthAdjust="spacing" textLength="20" x="104.9967" y="927.8467">0..*</text></g><!--MD5=[593f947b28a5ac9eed6736aff210b920]
@startuml OpoTestDomain

class Community

class User

class Reviewer

class Editor 

class Executor

class Evaluation

class Category 

class Test {
    categories
}

class PendingReviewQuestions

class ReviewedQuestions

class Concept {
    correctDefinition
    incorrectDefinition
    strategy
}

class Question {
    date
    isReviewed
    isPublic
    ...
}

class Statement

class Answer 

class Correct

Class Incorrect

Class Explication


Community *- -> "1..*" User
Community *- -> ReviewedQuestions


User <|- - Editor
Editor <|- -  Reviewer
User <|- - Executor

PendingReviewQuestions *- -> Question
ReviewedQuestions *- -> PendingReviewQuestions

Executor - -> "0..*" Evaluation
Evaluation - -> Test

Editor ..> Concept
Concept ..> Question
Reviewer ..> PendingReviewQuestions : Review

Test *- -> "10..*" Question
Question *- ->   Statement
Question *- -> "4" Answer
Answer <|- - Correct
Answer <|- - Incorrect
Incorrect o- - Explication

Question *- -> Category
Category *- ->"0..*" Category







@end

PlantUML version 1.2022.7(Mon Aug 22 18:01:30 WEST 2022)
(GPL source distribution)
Java Runtime: OpenJDK Runtime Environment
JVM: OpenJDK 64-Bit Server VM
Default Encoding: Cp1252
Language: es
Country: ES
--></g></svg>