<?xml version="1.0" encoding="UTF-8" standalone="no"?><svg xmlns="http://www.w3.org/2000/svg" xmlns:xlink="http://www.w3.org/1999/xlink" contentStyleType="text/css" height="1017px" preserveAspectRatio="none" style="width:749px;height:1017px;background:#FFFFFF;" version="1.1" viewBox="0 0 749 1017" width="749px" zoomAndPan="magnify"><defs/><g><!--MD5=[ebcf87c1ae8daa9293e64489194cef3e]
cluster Public--><g id="cluster_Public"><path d="M416.5,774 L460.5,774 A3.75,3.75 0 0 1 463,776.5 L470,797.6094 L739.5,797.6094 A2.5,2.5 0 0 1 742,800.1094 L742,871.5 A2.5,2.5 0 0 1 739.5,874 L416.5,874 A2.5,2.5 0 0 1 414,871.5 L414,776.5 A2.5,2.5 0 0 1 416.5,774 " fill="none" style="stroke:#000000;stroke-width:1.5;"/><line style="stroke:#000000;stroke-width:1.5;" x1="414" x2="470" y1="797.6094" y2="797.6094"/><text fill="#000000" font-family="sans-serif" font-size="14" font-weight="bold" lengthAdjust="spacing" textLength="43" x="418" y="790.5332">Public</text></g><!--MD5=[9e78572f11a177212a236870223a0978]
cluster Private--><g id="cluster_Private"><path d="M8.5,429 L59.5,429 A3.75,3.75 0 0 1 62,431.5 L69,452.6094 L387.5,452.6094 A2.5,2.5 0 0 1 390,455.1094 L390,1007.5 A2.5,2.5 0 0 1 387.5,1010 L8.5,1010 A2.5,2.5 0 0 1 6,1007.5 L6,431.5 A2.5,2.5 0 0 1 8.5,429 " fill="none" style="stroke:#000000;stroke-width:1.5;"/><line style="stroke:#000000;stroke-width:1.5;" x1="6" x2="69" y1="452.6094" y2="452.6094"/><text fill="#000000" font-family="sans-serif" font-size="14" font-weight="bold" lengthAdjust="spacing" textLength="50" x="10" y="445.5332">Private</text></g><!--MD5=[cbd32269a73795b08f4bc51eadb87cef]
class Tests--><g id="elem_Tests"><rect codeLine="16" fill="#F1F1F1" height="48" id="Tests" rx="2.5" ry="2.5" style="stroke:#181818;stroke-width:0.5;" width="67" x="658.5" y="810"/><ellipse cx="673.5" cy="826" fill="#ADD1B2" rx="11" ry="11" style="stroke:#181818;stroke-width:1.0;"/><path d="M676.2656,821.875 Q676.4219,821.6563 676.6094,821.5469 Q676.7969,821.4375 677.0156,821.4375 Q677.3906,821.4375 677.625,821.7031 Q677.8594,821.9531 677.8594,822.5625 L677.8594,824.0156 Q677.8594,824.625 677.625,824.8906 Q677.3906,825.1563 677.0156,825.1563 Q676.6719,825.1563 676.4688,824.9531 Q676.2656,824.7656 676.1563,824.25 Q676.1094,823.8906 675.9219,823.7031 Q675.5938,823.3281 674.9844,823.1094 Q674.375,822.8906 673.75,822.8906 Q672.9844,822.8906 672.3438,823.2188 Q671.7188,823.5469 671.2188,824.2969 Q670.7344,825.0469 670.7344,826.0781 L670.7344,827.1719 Q670.7344,828.4063 671.625,829.2344 Q672.5156,830.0469 674.1094,830.0469 Q675.0469,830.0469 675.7031,829.7969 Q676.0938,829.6406 676.5156,829.2031 Q676.7813,828.9375 676.9219,828.8594 Q677.0781,828.7813 677.2813,828.7813 Q677.6094,828.7813 677.8594,829.0469 Q678.125,829.2969 678.125,829.6406 Q678.125,829.9844 677.7813,830.3906 Q677.2813,830.9688 676.4844,831.2969 Q675.4063,831.75 674.1094,831.75 Q672.5938,831.75 671.3906,831.125 Q670.4063,830.625 669.7188,829.5625 Q669.0313,828.4844 669.0313,827.2031 L669.0313,826.0469 Q669.0313,824.7188 669.6406,823.5781 Q670.2656,822.4219 671.3594,821.8125 Q672.4531,821.1875 673.6875,821.1875 Q674.4219,821.1875 675.0625,821.3594 Q675.7188,821.5156 676.2656,821.875 Z " fill="#000000"/><text fill="#000000" font-family="sans-serif" font-size="14" lengthAdjust="spacing" textLength="35" x="687.5" y="831.7285">Tests</text><line style="stroke:#181818;stroke-width:0.5;" x1="659.5" x2="724.5" y1="842" y2="842"/><line style="stroke:#181818;stroke-width:0.5;" x1="659.5" x2="724.5" y1="850" y2="850"/></g><!--MD5=[686fa95824735602dd15f07aadf69888]
class PendingReviewQuestions--><g id="elem_PendingReviewQuestions"><rect codeLine="18" fill="#F1F1F1" height="48" id="PendingReviewQuestions" rx="2.5" ry="2.5" style="stroke:#181818;stroke-width:0.5;" width="193" x="430.5" y="810"/><ellipse cx="445.5" cy="826" fill="#ADD1B2" rx="11" ry="11" style="stroke:#181818;stroke-width:1.0;"/><path d="M448.2656,821.875 Q448.4219,821.6563 448.6094,821.5469 Q448.7969,821.4375 449.0156,821.4375 Q449.3906,821.4375 449.625,821.7031 Q449.8594,821.9531 449.8594,822.5625 L449.8594,824.0156 Q449.8594,824.625 449.625,824.8906 Q449.3906,825.1563 449.0156,825.1563 Q448.6719,825.1563 448.4688,824.9531 Q448.2656,824.7656 448.1563,824.25 Q448.1094,823.8906 447.9219,823.7031 Q447.5938,823.3281 446.9844,823.1094 Q446.375,822.8906 445.75,822.8906 Q444.9844,822.8906 444.3438,823.2188 Q443.7188,823.5469 443.2188,824.2969 Q442.7344,825.0469 442.7344,826.0781 L442.7344,827.1719 Q442.7344,828.4063 443.625,829.2344 Q444.5156,830.0469 446.1094,830.0469 Q447.0469,830.0469 447.7031,829.7969 Q448.0938,829.6406 448.5156,829.2031 Q448.7813,828.9375 448.9219,828.8594 Q449.0781,828.7813 449.2813,828.7813 Q449.6094,828.7813 449.8594,829.0469 Q450.125,829.2969 450.125,829.6406 Q450.125,829.9844 449.7813,830.3906 Q449.2813,830.9688 448.4844,831.2969 Q447.4063,831.75 446.1094,831.75 Q444.5938,831.75 443.3906,831.125 Q442.4063,830.625 441.7188,829.5625 Q441.0313,828.4844 441.0313,827.2031 L441.0313,826.0469 Q441.0313,824.7188 441.6406,823.5781 Q442.2656,822.4219 443.3594,821.8125 Q444.4531,821.1875 445.6875,821.1875 Q446.4219,821.1875 447.0625,821.3594 Q447.7188,821.5156 448.2656,821.875 Z " fill="#000000"/><text fill="#000000" font-family="sans-serif" font-size="14" lengthAdjust="spacing" textLength="161" x="459.5" y="831.7285">PendingReviewQuestions</text><line style="stroke:#181818;stroke-width:0.5;" x1="431.5" x2="622.5" y1="842" y2="842"/><line style="stroke:#181818;stroke-width:0.5;" x1="431.5" x2="622.5" y1="850" y2="850"/></g><!--MD5=[a96594a83e2ecdc78cbf17c2ddf01934]
class Category--><g id="elem_Category"><rect codeLine="24" fill="#F1F1F1" height="48" id="Category" rx="2.5" ry="2.5" style="stroke:#181818;stroke-width:0.5;" width="90" x="22" y="810"/><ellipse cx="37" cy="826" fill="#ADD1B2" rx="11" ry="11" style="stroke:#181818;stroke-width:1.0;"/><path d="M39.7656,821.875 Q39.9219,821.6563 40.1094,821.5469 Q40.2969,821.4375 40.5156,821.4375 Q40.8906,821.4375 41.125,821.7031 Q41.3594,821.9531 41.3594,822.5625 L41.3594,824.0156 Q41.3594,824.625 41.125,824.8906 Q40.8906,825.1563 40.5156,825.1563 Q40.1719,825.1563 39.9688,824.9531 Q39.7656,824.7656 39.6563,824.25 Q39.6094,823.8906 39.4219,823.7031 Q39.0938,823.3281 38.4844,823.1094 Q37.875,822.8906 37.25,822.8906 Q36.4844,822.8906 35.8438,823.2188 Q35.2188,823.5469 34.7188,824.2969 Q34.2344,825.0469 34.2344,826.0781 L34.2344,827.1719 Q34.2344,828.4063 35.125,829.2344 Q36.0156,830.0469 37.6094,830.0469 Q38.5469,830.0469 39.2031,829.7969 Q39.5938,829.6406 40.0156,829.2031 Q40.2813,828.9375 40.4219,828.8594 Q40.5781,828.7813 40.7813,828.7813 Q41.1094,828.7813 41.3594,829.0469 Q41.625,829.2969 41.625,829.6406 Q41.625,829.9844 41.2813,830.3906 Q40.7813,830.9688 39.9844,831.2969 Q38.9063,831.75 37.6094,831.75 Q36.0938,831.75 34.8906,831.125 Q33.9063,830.625 33.2188,829.5625 Q32.5313,828.4844 32.5313,827.2031 L32.5313,826.0469 Q32.5313,824.7188 33.1406,823.5781 Q33.7656,822.4219 34.8594,821.8125 Q35.9531,821.1875 37.1875,821.1875 Q37.9219,821.1875 38.5625,821.3594 Q39.2188,821.5156 39.7656,821.875 Z " fill="#000000"/><text fill="#000000" font-family="sans-serif" font-size="14" lengthAdjust="spacing" textLength="58" x="51" y="831.7285">Category</text><line style="stroke:#181818;stroke-width:0.5;" x1="23" x2="111" y1="842" y2="842"/><line style="stroke:#181818;stroke-width:0.5;" x1="23" x2="111" y1="850" y2="850"/></g><!--MD5=[df38be88ccee13e832d6fafd6288a4ca]
class Test--><g id="elem_Test"><rect codeLine="26" fill="#F1F1F1" height="48" id="Test" rx="2.5" ry="2.5" style="stroke:#181818;stroke-width:0.5;" width="60" x="314" y="465"/><ellipse cx="329" cy="481" fill="#ADD1B2" rx="11" ry="11" style="stroke:#181818;stroke-width:1.0;"/><path d="M331.7656,476.875 Q331.9219,476.6563 332.1094,476.5469 Q332.2969,476.4375 332.5156,476.4375 Q332.8906,476.4375 333.125,476.7031 Q333.3594,476.9531 333.3594,477.5625 L333.3594,479.0156 Q333.3594,479.625 333.125,479.8906 Q332.8906,480.1563 332.5156,480.1563 Q332.1719,480.1563 331.9688,479.9531 Q331.7656,479.7656 331.6563,479.25 Q331.6094,478.8906 331.4219,478.7031 Q331.0938,478.3281 330.4844,478.1094 Q329.875,477.8906 329.25,477.8906 Q328.4844,477.8906 327.8438,478.2188 Q327.2188,478.5469 326.7188,479.2969 Q326.2344,480.0469 326.2344,481.0781 L326.2344,482.1719 Q326.2344,483.4063 327.125,484.2344 Q328.0156,485.0469 329.6094,485.0469 Q330.5469,485.0469 331.2031,484.7969 Q331.5938,484.6406 332.0156,484.2031 Q332.2813,483.9375 332.4219,483.8594 Q332.5781,483.7813 332.7813,483.7813 Q333.1094,483.7813 333.3594,484.0469 Q333.625,484.2969 333.625,484.6406 Q333.625,484.9844 333.2813,485.3906 Q332.7813,485.9688 331.9844,486.2969 Q330.9063,486.75 329.6094,486.75 Q328.0938,486.75 326.8906,486.125 Q325.9063,485.625 325.2188,484.5625 Q324.5313,483.4844 324.5313,482.2031 L324.5313,481.0469 Q324.5313,479.7188 325.1406,478.5781 Q325.7656,477.4219 326.8594,476.8125 Q327.9531,476.1875 329.1875,476.1875 Q329.9219,476.1875 330.5625,476.3594 Q331.2188,476.5156 331.7656,476.875 Z " fill="#000000"/><text fill="#000000" font-family="sans-serif" font-size="14" lengthAdjust="spacing" textLength="28" x="343" y="486.7285">Test</text><line style="stroke:#181818;stroke-width:0.5;" x1="315" x2="373" y1="497" y2="497"/><line style="stroke:#181818;stroke-width:0.5;" x1="315" x2="373" y1="505" y2="505"/></g><!--MD5=[fc7123defb831ecdd44b2d9bcef6cceb]
class Question--><g id="elem_Question"><rect codeLine="28" fill="#F1F1F1" height="136.0469" id="Question" rx="2.5" ry="2.5" style="stroke:#181818;stroke-width:0.5;" width="89" x="284.5" y="574"/><ellipse cx="299.5" cy="590" fill="#ADD1B2" rx="11" ry="11" style="stroke:#181818;stroke-width:1.0;"/><path d="M302.2656,585.875 Q302.4219,585.6563 302.6094,585.5469 Q302.7969,585.4375 303.0156,585.4375 Q303.3906,585.4375 303.625,585.7031 Q303.8594,585.9531 303.8594,586.5625 L303.8594,588.0156 Q303.8594,588.625 303.625,588.8906 Q303.3906,589.1563 303.0156,589.1563 Q302.6719,589.1563 302.4688,588.9531 Q302.2656,588.7656 302.1563,588.25 Q302.1094,587.8906 301.9219,587.7031 Q301.5938,587.3281 300.9844,587.1094 Q300.375,586.8906 299.75,586.8906 Q298.9844,586.8906 298.3438,587.2188 Q297.7188,587.5469 297.2188,588.2969 Q296.7344,589.0469 296.7344,590.0781 L296.7344,591.1719 Q296.7344,592.4063 297.625,593.2344 Q298.5156,594.0469 300.1094,594.0469 Q301.0469,594.0469 301.7031,593.7969 Q302.0938,593.6406 302.5156,593.2031 Q302.7813,592.9375 302.9219,592.8594 Q303.0781,592.7813 303.2813,592.7813 Q303.6094,592.7813 303.8594,593.0469 Q304.125,593.2969 304.125,593.6406 Q304.125,593.9844 303.7813,594.3906 Q303.2813,594.9688 302.4844,595.2969 Q301.4063,595.75 300.1094,595.75 Q298.5938,595.75 297.3906,595.125 Q296.4063,594.625 295.7188,593.5625 Q295.0313,592.4844 295.0313,591.2031 L295.0313,590.0469 Q295.0313,588.7188 295.6406,587.5781 Q296.2656,586.4219 297.3594,585.8125 Q298.4531,585.1875 299.6875,585.1875 Q300.4219,585.1875 301.0625,585.3594 Q301.7188,585.5156 302.2656,585.875 Z " fill="#000000"/><text fill="#000000" font-family="sans-serif" font-size="14" lengthAdjust="spacing" textLength="57" x="313.5" y="595.7285">Question</text><line style="stroke:#181818;stroke-width:0.5;" x1="285.5" x2="372.5" y1="606" y2="606"/><text fill="#000000" font-family="sans-serif" font-size="14" lengthAdjust="spacing" textLength="28" x="290.5" y="624.5332">date</text><text fill="#000000" font-family="sans-serif" font-size="14" lengthAdjust="spacing" textLength="56" x="290.5" y="642.1426">reviewed</text><text fill="#000000" font-family="sans-serif" font-size="14" lengthAdjust="spacing" textLength="51" x="290.5" y="659.752">difficulty</text><text fill="#000000" font-family="sans-serif" font-size="14" lengthAdjust="spacing" textLength="27" x="290.5" y="677.3613">type</text><text fill="#000000" font-family="sans-serif" font-size="14" lengthAdjust="spacing" textLength="12" x="290.5" y="694.9707">...</text><line style="stroke:#181818;stroke-width:0.5;" x1="285.5" x2="372.5" y1="702.0469" y2="702.0469"/></g><!--MD5=[a61a298976b7d1d94498f45c2ebfa10b]
class Statement--><g id="elem_Statement"><rect codeLine="36" fill="#F1F1F1" height="65.6094" id="Statement" rx="2.5" ry="2.5" style="stroke:#181818;stroke-width:0.5;" width="96" x="165" y="801"/><ellipse cx="180" cy="817" fill="#ADD1B2" rx="11" ry="11" style="stroke:#181818;stroke-width:1.0;"/><path d="M182.7656,812.875 Q182.9219,812.6563 183.1094,812.5469 Q183.2969,812.4375 183.5156,812.4375 Q183.8906,812.4375 184.125,812.7031 Q184.3594,812.9531 184.3594,813.5625 L184.3594,815.0156 Q184.3594,815.625 184.125,815.8906 Q183.8906,816.1563 183.5156,816.1563 Q183.1719,816.1563 182.9688,815.9531 Q182.7656,815.7656 182.6563,815.25 Q182.6094,814.8906 182.4219,814.7031 Q182.0938,814.3281 181.4844,814.1094 Q180.875,813.8906 180.25,813.8906 Q179.4844,813.8906 178.8438,814.2188 Q178.2188,814.5469 177.7188,815.2969 Q177.2344,816.0469 177.2344,817.0781 L177.2344,818.1719 Q177.2344,819.4063 178.125,820.2344 Q179.0156,821.0469 180.6094,821.0469 Q181.5469,821.0469 182.2031,820.7969 Q182.5938,820.6406 183.0156,820.2031 Q183.2813,819.9375 183.4219,819.8594 Q183.5781,819.7813 183.7813,819.7813 Q184.1094,819.7813 184.3594,820.0469 Q184.625,820.2969 184.625,820.6406 Q184.625,820.9844 184.2813,821.3906 Q183.7813,821.9688 182.9844,822.2969 Q181.9063,822.75 180.6094,822.75 Q179.0938,822.75 177.8906,822.125 Q176.9063,821.625 176.2188,820.5625 Q175.5313,819.4844 175.5313,818.2031 L175.5313,817.0469 Q175.5313,815.7188 176.1406,814.5781 Q176.7656,813.4219 177.8594,812.8125 Q178.9531,812.1875 180.1875,812.1875 Q180.9219,812.1875 181.5625,812.3594 Q182.2188,812.5156 182.7656,812.875 Z " fill="#000000"/><text fill="#000000" font-family="sans-serif" font-size="14" lengthAdjust="spacing" textLength="64" x="194" y="822.7285">Statement</text><line style="stroke:#181818;stroke-width:0.5;" x1="166" x2="260" y1="833" y2="833"/><text fill="#000000" font-family="sans-serif" font-size="14" lengthAdjust="spacing" textLength="51" x="171" y="851.5332">difficulty</text><line style="stroke:#181818;stroke-width:0.5;" x1="166" x2="260" y1="858.6094" y2="858.6094"/></g><!--MD5=[f9fadfa5a66b7e5a67b370cd443ffe52]
class Answer--><g id="elem_Answer"><rect codeLine="40" fill="#F1F1F1" height="48" id="Answer" rx="2.5" ry="2.5" style="stroke:#181818;stroke-width:0.5;" width="78" x="296" y="810"/><ellipse cx="311" cy="826" fill="#ADD1B2" rx="11" ry="11" style="stroke:#181818;stroke-width:1.0;"/><path d="M313.7656,821.875 Q313.9219,821.6563 314.1094,821.5469 Q314.2969,821.4375 314.5156,821.4375 Q314.8906,821.4375 315.125,821.7031 Q315.3594,821.9531 315.3594,822.5625 L315.3594,824.0156 Q315.3594,824.625 315.125,824.8906 Q314.8906,825.1563 314.5156,825.1563 Q314.1719,825.1563 313.9688,824.9531 Q313.7656,824.7656 313.6563,824.25 Q313.6094,823.8906 313.4219,823.7031 Q313.0938,823.3281 312.4844,823.1094 Q311.875,822.8906 311.25,822.8906 Q310.4844,822.8906 309.8438,823.2188 Q309.2188,823.5469 308.7188,824.2969 Q308.2344,825.0469 308.2344,826.0781 L308.2344,827.1719 Q308.2344,828.4063 309.125,829.2344 Q310.0156,830.0469 311.6094,830.0469 Q312.5469,830.0469 313.2031,829.7969 Q313.5938,829.6406 314.0156,829.2031 Q314.2813,828.9375 314.4219,828.8594 Q314.5781,828.7813 314.7813,828.7813 Q315.1094,828.7813 315.3594,829.0469 Q315.625,829.2969 315.625,829.6406 Q315.625,829.9844 315.2813,830.3906 Q314.7813,830.9688 313.9844,831.2969 Q312.9063,831.75 311.6094,831.75 Q310.0938,831.75 308.8906,831.125 Q307.9063,830.625 307.2188,829.5625 Q306.5313,828.4844 306.5313,827.2031 L306.5313,826.0469 Q306.5313,824.7188 307.1406,823.5781 Q307.7656,822.4219 308.8594,821.8125 Q309.9531,821.1875 311.1875,821.1875 Q311.9219,821.1875 312.5625,821.3594 Q313.2188,821.5156 313.7656,821.875 Z " fill="#000000"/><text fill="#000000" font-family="sans-serif" font-size="14" lengthAdjust="spacing" textLength="46" x="325" y="831.7285">Answer</text><line style="stroke:#181818;stroke-width:0.5;" x1="297" x2="373" y1="842" y2="842"/><line style="stroke:#181818;stroke-width:0.5;" x1="297" x2="373" y1="850" y2="850"/></g><!--MD5=[bc629657279eaa9349f412646650f2c5]
class Correct--><g id="elem_Correct"><rect codeLine="42" fill="#F1F1F1" height="48" id="Correct" rx="2.5" ry="2.5" style="stroke:#181818;stroke-width:0.5;" width="79" x="184.5" y="937"/><ellipse cx="199.5" cy="953" fill="#ADD1B2" rx="11" ry="11" style="stroke:#181818;stroke-width:1.0;"/><path d="M202.2656,948.875 Q202.4219,948.6563 202.6094,948.5469 Q202.7969,948.4375 203.0156,948.4375 Q203.3906,948.4375 203.625,948.7031 Q203.8594,948.9531 203.8594,949.5625 L203.8594,951.0156 Q203.8594,951.625 203.625,951.8906 Q203.3906,952.1563 203.0156,952.1563 Q202.6719,952.1563 202.4688,951.9531 Q202.2656,951.7656 202.1563,951.25 Q202.1094,950.8906 201.9219,950.7031 Q201.5938,950.3281 200.9844,950.1094 Q200.375,949.8906 199.75,949.8906 Q198.9844,949.8906 198.3438,950.2188 Q197.7188,950.5469 197.2188,951.2969 Q196.7344,952.0469 196.7344,953.0781 L196.7344,954.1719 Q196.7344,955.4063 197.625,956.2344 Q198.5156,957.0469 200.1094,957.0469 Q201.0469,957.0469 201.7031,956.7969 Q202.0938,956.6406 202.5156,956.2031 Q202.7813,955.9375 202.9219,955.8594 Q203.0781,955.7813 203.2813,955.7813 Q203.6094,955.7813 203.8594,956.0469 Q204.125,956.2969 204.125,956.6406 Q204.125,956.9844 203.7813,957.3906 Q203.2813,957.9688 202.4844,958.2969 Q201.4063,958.75 200.1094,958.75 Q198.5938,958.75 197.3906,958.125 Q196.4063,957.625 195.7188,956.5625 Q195.0313,955.4844 195.0313,954.2031 L195.0313,953.0469 Q195.0313,951.7188 195.6406,950.5781 Q196.2656,949.4219 197.3594,948.8125 Q198.4531,948.1875 199.6875,948.1875 Q200.4219,948.1875 201.0625,948.3594 Q201.7188,948.5156 202.2656,948.875 Z " fill="#000000"/><text fill="#000000" font-family="sans-serif" font-size="14" lengthAdjust="spacing" textLength="47" x="213.5" y="958.7285">Correct</text><line style="stroke:#181818;stroke-width:0.5;" x1="185.5" x2="262.5" y1="969" y2="969"/><line style="stroke:#181818;stroke-width:0.5;" x1="185.5" x2="262.5" y1="977" y2="977"/></g><!--MD5=[d4df30b25862551bb6e4155e35efa20d]
class Wrong--><g id="elem_Wrong"><rect codeLine="44" fill="#F1F1F1" height="65.6094" id="Wrong" rx="2.5" ry="2.5" style="stroke:#181818;stroke-width:0.5;" width="74" x="299" y="928"/><ellipse cx="314" cy="944" fill="#ADD1B2" rx="11" ry="11" style="stroke:#181818;stroke-width:1.0;"/><path d="M316.7656,939.875 Q316.9219,939.6563 317.1094,939.5469 Q317.2969,939.4375 317.5156,939.4375 Q317.8906,939.4375 318.125,939.7031 Q318.3594,939.9531 318.3594,940.5625 L318.3594,942.0156 Q318.3594,942.625 318.125,942.8906 Q317.8906,943.1563 317.5156,943.1563 Q317.1719,943.1563 316.9688,942.9531 Q316.7656,942.7656 316.6563,942.25 Q316.6094,941.8906 316.4219,941.7031 Q316.0938,941.3281 315.4844,941.1094 Q314.875,940.8906 314.25,940.8906 Q313.4844,940.8906 312.8438,941.2188 Q312.2188,941.5469 311.7188,942.2969 Q311.2344,943.0469 311.2344,944.0781 L311.2344,945.1719 Q311.2344,946.4063 312.125,947.2344 Q313.0156,948.0469 314.6094,948.0469 Q315.5469,948.0469 316.2031,947.7969 Q316.5938,947.6406 317.0156,947.2031 Q317.2813,946.9375 317.4219,946.8594 Q317.5781,946.7813 317.7813,946.7813 Q318.1094,946.7813 318.3594,947.0469 Q318.625,947.2969 318.625,947.6406 Q318.625,947.9844 318.2813,948.3906 Q317.7813,948.9688 316.9844,949.2969 Q315.9063,949.75 314.6094,949.75 Q313.0938,949.75 311.8906,949.125 Q310.9063,948.625 310.2188,947.5625 Q309.5313,946.4844 309.5313,945.2031 L309.5313,944.0469 Q309.5313,942.7188 310.1406,941.5781 Q310.7656,940.4219 311.8594,939.8125 Q312.9531,939.1875 314.1875,939.1875 Q314.9219,939.1875 315.5625,939.3594 Q316.2188,939.5156 316.7656,939.875 Z " fill="#000000"/><text fill="#000000" font-family="sans-serif" font-size="14" lengthAdjust="spacing" textLength="42" x="328" y="949.7285">Wrong</text><line style="stroke:#181818;stroke-width:0.5;" x1="300" x2="372" y1="960" y2="960"/><text fill="#000000" font-family="sans-serif" font-size="14" lengthAdjust="spacing" textLength="51" x="305" y="978.5332">difficulty</text><line style="stroke:#181818;stroke-width:0.5;" x1="300" x2="372" y1="985.6094" y2="985.6094"/></g><!--MD5=[668d633d11bedc8952753581a2dda3db]
class Community--><g id="elem_Community"><rect codeLine="2" fill="#F1F1F1" height="48" id="Community" rx="2.5" ry="2.5" style="stroke:#181818;stroke-width:0.5;" width="102" x="553" y="7"/><ellipse cx="568" cy="23" fill="#ADD1B2" rx="11" ry="11" style="stroke:#181818;stroke-width:1.0;"/><path d="M570.7656,18.875 Q570.9219,18.6563 571.1094,18.5469 Q571.2969,18.4375 571.5156,18.4375 Q571.8906,18.4375 572.125,18.7031 Q572.3594,18.9531 572.3594,19.5625 L572.3594,21.0156 Q572.3594,21.625 572.125,21.8906 Q571.8906,22.1563 571.5156,22.1563 Q571.1719,22.1563 570.9688,21.9531 Q570.7656,21.7656 570.6563,21.25 Q570.6094,20.8906 570.4219,20.7031 Q570.0938,20.3281 569.4844,20.1094 Q568.875,19.8906 568.25,19.8906 Q567.4844,19.8906 566.8438,20.2188 Q566.2188,20.5469 565.7188,21.2969 Q565.2344,22.0469 565.2344,23.0781 L565.2344,24.1719 Q565.2344,25.4063 566.125,26.2344 Q567.0156,27.0469 568.6094,27.0469 Q569.5469,27.0469 570.2031,26.7969 Q570.5938,26.6406 571.0156,26.2031 Q571.2813,25.9375 571.4219,25.8594 Q571.5781,25.7813 571.7813,25.7813 Q572.1094,25.7813 572.3594,26.0469 Q572.625,26.2969 572.625,26.6406 Q572.625,26.9844 572.2813,27.3906 Q571.7813,27.9688 570.9844,28.2969 Q569.9063,28.75 568.6094,28.75 Q567.0938,28.75 565.8906,28.125 Q564.9063,27.625 564.2188,26.5625 Q563.5313,25.4844 563.5313,24.2031 L563.5313,23.0469 Q563.5313,21.7188 564.1406,20.5781 Q564.7656,19.4219 565.8594,18.8125 Q566.9531,18.1875 568.1875,18.1875 Q568.9219,18.1875 569.5625,18.3594 Q570.2188,18.5156 570.7656,18.875 Z " fill="#000000"/><text fill="#000000" font-family="sans-serif" font-size="14" lengthAdjust="spacing" textLength="70" x="582" y="28.7285">Community</text><line style="stroke:#181818;stroke-width:0.5;" x1="554" x2="654" y1="39" y2="39"/><line style="stroke:#181818;stroke-width:0.5;" x1="554" x2="654" y1="47" y2="47"/></g><!--MD5=[3fd616f346a44cd59a91eb10b19e157c]
class User--><g id="elem_User"><rect codeLine="4" fill="#F1F1F1" height="48" id="User" rx="2.5" ry="2.5" style="stroke:#181818;stroke-width:0.5;" width="61" x="487.5" y="116"/><ellipse cx="502.5" cy="132" fill="#ADD1B2" rx="11" ry="11" style="stroke:#181818;stroke-width:1.0;"/><path d="M505.2656,127.875 Q505.4219,127.6563 505.6094,127.5469 Q505.7969,127.4375 506.0156,127.4375 Q506.3906,127.4375 506.625,127.7031 Q506.8594,127.9531 506.8594,128.5625 L506.8594,130.0156 Q506.8594,130.625 506.625,130.8906 Q506.3906,131.1563 506.0156,131.1563 Q505.6719,131.1563 505.4688,130.9531 Q505.2656,130.7656 505.1563,130.25 Q505.1094,129.8906 504.9219,129.7031 Q504.5938,129.3281 503.9844,129.1094 Q503.375,128.8906 502.75,128.8906 Q501.9844,128.8906 501.3438,129.2188 Q500.7188,129.5469 500.2188,130.2969 Q499.7344,131.0469 499.7344,132.0781 L499.7344,133.1719 Q499.7344,134.4063 500.625,135.2344 Q501.5156,136.0469 503.1094,136.0469 Q504.0469,136.0469 504.7031,135.7969 Q505.0938,135.6406 505.5156,135.2031 Q505.7813,134.9375 505.9219,134.8594 Q506.0781,134.7813 506.2813,134.7813 Q506.6094,134.7813 506.8594,135.0469 Q507.125,135.2969 507.125,135.6406 Q507.125,135.9844 506.7813,136.3906 Q506.2813,136.9688 505.4844,137.2969 Q504.4063,137.75 503.1094,137.75 Q501.5938,137.75 500.3906,137.125 Q499.4063,136.625 498.7188,135.5625 Q498.0313,134.4844 498.0313,133.2031 L498.0313,132.0469 Q498.0313,130.7188 498.6406,129.5781 Q499.2656,128.4219 500.3594,127.8125 Q501.4531,127.1875 502.6875,127.1875 Q503.4219,127.1875 504.0625,127.3594 Q504.7188,127.5156 505.2656,127.875 Z " fill="#000000"/><text fill="#000000" font-family="sans-serif" font-size="14" lengthAdjust="spacing" textLength="29" x="516.5" y="137.7285">User</text><line style="stroke:#181818;stroke-width:0.5;" x1="488.5" x2="547.5" y1="148" y2="148"/><line style="stroke:#181818;stroke-width:0.5;" x1="488.5" x2="547.5" y1="156" y2="156"/></g><!--MD5=[e76a510855fdf825c81877c657b1fc23]
class Reviewer--><g id="elem_Reviewer"><rect codeLine="6" fill="#F1F1F1" height="48" id="Reviewer" rx="2.5" ry="2.5" style="stroke:#181818;stroke-width:0.5;" width="90" x="476" y="618"/><ellipse cx="491" cy="634" fill="#ADD1B2" rx="11" ry="11" style="stroke:#181818;stroke-width:1.0;"/><path d="M493.7656,629.875 Q493.9219,629.6563 494.1094,629.5469 Q494.2969,629.4375 494.5156,629.4375 Q494.8906,629.4375 495.125,629.7031 Q495.3594,629.9531 495.3594,630.5625 L495.3594,632.0156 Q495.3594,632.625 495.125,632.8906 Q494.8906,633.1563 494.5156,633.1563 Q494.1719,633.1563 493.9688,632.9531 Q493.7656,632.7656 493.6563,632.25 Q493.6094,631.8906 493.4219,631.7031 Q493.0938,631.3281 492.4844,631.1094 Q491.875,630.8906 491.25,630.8906 Q490.4844,630.8906 489.8438,631.2188 Q489.2188,631.5469 488.7188,632.2969 Q488.2344,633.0469 488.2344,634.0781 L488.2344,635.1719 Q488.2344,636.4063 489.125,637.2344 Q490.0156,638.0469 491.6094,638.0469 Q492.5469,638.0469 493.2031,637.7969 Q493.5938,637.6406 494.0156,637.2031 Q494.2813,636.9375 494.4219,636.8594 Q494.5781,636.7813 494.7813,636.7813 Q495.1094,636.7813 495.3594,637.0469 Q495.625,637.2969 495.625,637.6406 Q495.625,637.9844 495.2813,638.3906 Q494.7813,638.9688 493.9844,639.2969 Q492.9063,639.75 491.6094,639.75 Q490.0938,639.75 488.8906,639.125 Q487.9063,638.625 487.2188,637.5625 Q486.5313,636.4844 486.5313,635.2031 L486.5313,634.0469 Q486.5313,632.7188 487.1406,631.5781 Q487.7656,630.4219 488.8594,629.8125 Q489.9531,629.1875 491.1875,629.1875 Q491.9219,629.1875 492.5625,629.3594 Q493.2188,629.5156 493.7656,629.875 Z " fill="#000000"/><text fill="#000000" font-family="sans-serif" font-size="14" lengthAdjust="spacing" textLength="58" x="505" y="639.7285">Reviewer</text><line style="stroke:#181818;stroke-width:0.5;" x1="477" x2="565" y1="650" y2="650"/><line style="stroke:#181818;stroke-width:0.5;" x1="477" x2="565" y1="658" y2="658"/></g><!--MD5=[559db66c208d2736f857be4b8ed380a2]
class Editor--><g id="elem_Editor"><rect codeLine="8" fill="#F1F1F1" height="48" id="Editor" rx="2.5" ry="2.5" style="stroke:#181818;stroke-width:0.5;" width="69" x="483.5" y="465"/><ellipse cx="498.5" cy="481" fill="#ADD1B2" rx="11" ry="11" style="stroke:#181818;stroke-width:1.0;"/><path d="M501.2656,476.875 Q501.4219,476.6563 501.6094,476.5469 Q501.7969,476.4375 502.0156,476.4375 Q502.3906,476.4375 502.625,476.7031 Q502.8594,476.9531 502.8594,477.5625 L502.8594,479.0156 Q502.8594,479.625 502.625,479.8906 Q502.3906,480.1563 502.0156,480.1563 Q501.6719,480.1563 501.4688,479.9531 Q501.2656,479.7656 501.1563,479.25 Q501.1094,478.8906 500.9219,478.7031 Q500.5938,478.3281 499.9844,478.1094 Q499.375,477.8906 498.75,477.8906 Q497.9844,477.8906 497.3438,478.2188 Q496.7188,478.5469 496.2188,479.2969 Q495.7344,480.0469 495.7344,481.0781 L495.7344,482.1719 Q495.7344,483.4063 496.625,484.2344 Q497.5156,485.0469 499.1094,485.0469 Q500.0469,485.0469 500.7031,484.7969 Q501.0938,484.6406 501.5156,484.2031 Q501.7813,483.9375 501.9219,483.8594 Q502.0781,483.7813 502.2813,483.7813 Q502.6094,483.7813 502.8594,484.0469 Q503.125,484.2969 503.125,484.6406 Q503.125,484.9844 502.7813,485.3906 Q502.2813,485.9688 501.4844,486.2969 Q500.4063,486.75 499.1094,486.75 Q497.5938,486.75 496.3906,486.125 Q495.4063,485.625 494.7188,484.5625 Q494.0313,483.4844 494.0313,482.2031 L494.0313,481.0469 Q494.0313,479.7188 494.6406,478.5781 Q495.2656,477.4219 496.3594,476.8125 Q497.4531,476.1875 498.6875,476.1875 Q499.4219,476.1875 500.0625,476.3594 Q500.7188,476.5156 501.2656,476.875 Z " fill="#000000"/><text fill="#000000" font-family="sans-serif" font-size="14" lengthAdjust="spacing" textLength="37" x="512.5" y="486.7285">Editor</text><line style="stroke:#181818;stroke-width:0.5;" x1="484.5" x2="551.5" y1="497" y2="497"/><line style="stroke:#181818;stroke-width:0.5;" x1="484.5" x2="551.5" y1="505" y2="505"/></g><!--MD5=[a0a1f7f9662f43ef0ece806266f72a6f]
class Executor--><g id="elem_Executor"><rect codeLine="10" fill="#F1F1F1" height="48" id="Executor" rx="2.5" ry="2.5" style="stroke:#181818;stroke-width:0.5;" width="87" x="305.5" y="225"/><ellipse cx="320.5" cy="241" fill="#ADD1B2" rx="11" ry="11" style="stroke:#181818;stroke-width:1.0;"/><path d="M323.2656,236.875 Q323.4219,236.6563 323.6094,236.5469 Q323.7969,236.4375 324.0156,236.4375 Q324.3906,236.4375 324.625,236.7031 Q324.8594,236.9531 324.8594,237.5625 L324.8594,239.0156 Q324.8594,239.625 324.625,239.8906 Q324.3906,240.1563 324.0156,240.1563 Q323.6719,240.1563 323.4688,239.9531 Q323.2656,239.7656 323.1563,239.25 Q323.1094,238.8906 322.9219,238.7031 Q322.5938,238.3281 321.9844,238.1094 Q321.375,237.8906 320.75,237.8906 Q319.9844,237.8906 319.3438,238.2188 Q318.7188,238.5469 318.2188,239.2969 Q317.7344,240.0469 317.7344,241.0781 L317.7344,242.1719 Q317.7344,243.4063 318.625,244.2344 Q319.5156,245.0469 321.1094,245.0469 Q322.0469,245.0469 322.7031,244.7969 Q323.0938,244.6406 323.5156,244.2031 Q323.7813,243.9375 323.9219,243.8594 Q324.0781,243.7813 324.2813,243.7813 Q324.6094,243.7813 324.8594,244.0469 Q325.125,244.2969 325.125,244.6406 Q325.125,244.9844 324.7813,245.3906 Q324.2813,245.9688 323.4844,246.2969 Q322.4063,246.75 321.1094,246.75 Q319.5938,246.75 318.3906,246.125 Q317.4063,245.625 316.7188,244.5625 Q316.0313,243.4844 316.0313,242.2031 L316.0313,241.0469 Q316.0313,239.7188 316.6406,238.5781 Q317.2656,237.4219 318.3594,236.8125 Q319.4531,236.1875 320.6875,236.1875 Q321.4219,236.1875 322.0625,236.3594 Q322.7188,236.5156 323.2656,236.875 Z " fill="#000000"/><text fill="#000000" font-family="sans-serif" font-size="14" lengthAdjust="spacing" textLength="55" x="334.5" y="246.7285">Executor</text><line style="stroke:#181818;stroke-width:0.5;" x1="306.5" x2="391.5" y1="257" y2="257"/><line style="stroke:#181818;stroke-width:0.5;" x1="306.5" x2="391.5" y1="265" y2="265"/></g><!--MD5=[71e8807956d33805e77353b9d7e2df39]
class Evaluation--><g id="elem_Evaluation"><rect codeLine="12" fill="#F1F1F1" height="48" id="Evaluation" rx="2.5" ry="2.5" style="stroke:#181818;stroke-width:0.5;" width="98" x="296" y="334"/><ellipse cx="311" cy="350" fill="#ADD1B2" rx="11" ry="11" style="stroke:#181818;stroke-width:1.0;"/><path d="M313.7656,345.875 Q313.9219,345.6563 314.1094,345.5469 Q314.2969,345.4375 314.5156,345.4375 Q314.8906,345.4375 315.125,345.7031 Q315.3594,345.9531 315.3594,346.5625 L315.3594,348.0156 Q315.3594,348.625 315.125,348.8906 Q314.8906,349.1563 314.5156,349.1563 Q314.1719,349.1563 313.9688,348.9531 Q313.7656,348.7656 313.6563,348.25 Q313.6094,347.8906 313.4219,347.7031 Q313.0938,347.3281 312.4844,347.1094 Q311.875,346.8906 311.25,346.8906 Q310.4844,346.8906 309.8438,347.2188 Q309.2188,347.5469 308.7188,348.2969 Q308.2344,349.0469 308.2344,350.0781 L308.2344,351.1719 Q308.2344,352.4063 309.125,353.2344 Q310.0156,354.0469 311.6094,354.0469 Q312.5469,354.0469 313.2031,353.7969 Q313.5938,353.6406 314.0156,353.2031 Q314.2813,352.9375 314.4219,352.8594 Q314.5781,352.7813 314.7813,352.7813 Q315.1094,352.7813 315.3594,353.0469 Q315.625,353.2969 315.625,353.6406 Q315.625,353.9844 315.2813,354.3906 Q314.7813,354.9688 313.9844,355.2969 Q312.9063,355.75 311.6094,355.75 Q310.0938,355.75 308.8906,355.125 Q307.9063,354.625 307.2188,353.5625 Q306.5313,352.4844 306.5313,351.2031 L306.5313,350.0469 Q306.5313,348.7188 307.1406,347.5781 Q307.7656,346.4219 308.8594,345.8125 Q309.9531,345.1875 311.1875,345.1875 Q311.9219,345.1875 312.5625,345.3594 Q313.2188,345.5156 313.7656,345.875 Z " fill="#000000"/><text fill="#000000" font-family="sans-serif" font-size="14" lengthAdjust="spacing" textLength="66" x="325" y="355.7285">Evaluation</text><line style="stroke:#181818;stroke-width:0.5;" x1="297" x2="393" y1="366" y2="366"/><line style="stroke:#181818;stroke-width:0.5;" x1="297" x2="393" y1="374" y2="374"/></g><!--MD5=[12743b4aa7b2bf3d8e383437eb99df68]
link Community to User--><g id="link_Community_User"><path codeLine="50" d="M577.8212,64.5724 C577.8212,64.5724 555.12,92.82 544.85,105.59 " fill="none" id="Community-User" style="stroke:#181818;stroke-width:1.0;"/><polygon fill="#181818" points="536.62,115.83,545.3804,111.3295,539.7562,111.9359,539.1498,106.3116,536.62,115.83" style="stroke:#181818;stroke-width:1.0;"/><line style="stroke:#181818;stroke-width:1.0;" x1="539.7562" x2="544.765" y1="111.9359" y2="105.695"/><polygon fill="#181818" points="585.34,55.22,578.4631,57.3899,577.8212,64.5724,584.698,62.4025,585.34,55.22" style="stroke:#181818;stroke-width:1.0;"/><text fill="#000000" font-family="sans-serif" font-size="13" lengthAdjust="spacing" textLength="20" x="518.8289" y="105.1266">1..*</text></g><!--MD5=[218de807dea6c457cd03d741184fc906]
link Community to Tests--><g id="link_Community_Tests"><path codeLine="51" d="M647.8151,62.8523 C647.8151,62.8523 691,108.93 691,139 C691,139 691,139 691,643 C691,696.5 691.4,758.47 691.7,796.71 " fill="none" id="Community-Tests" style="stroke:#181818;stroke-width:1.0;"/><polygon fill="#181818" points="691.8,809.89,695.7307,800.8595,691.7615,804.8901,687.7309,800.921,691.8,809.89" style="stroke:#181818;stroke-width:1.0;"/><line style="stroke:#181818;stroke-width:1.0;" x1="691.7615" x2="691.7" y1="804.8901" y2="796.895"/><polygon fill="#181818" points="638.63,55.13,640.6484,62.0529,647.8151,62.8523,645.7966,55.9295,638.63,55.13" style="stroke:#181818;stroke-width:1.0;"/></g><!--MD5=[7016372388c7ac2652db8515880aaa11]
reverse link User to Editor--><g id="link_User_Editor"><path codeLine="54" d="M518,184.5 C518,258.75 518,407.44 518,464.74 " fill="none" id="User-backto-Editor" style="stroke:#181818;stroke-width:1.0;"/><polygon fill="none" points="511,184.04,518,164.04,525,184.04,511,184.04" style="stroke:#181818;stroke-width:1.0;"/></g><!--MD5=[60e4945ab784e9eaf709bb3168dd25a4]
reverse link Editor to Reviewer--><g id="link_Editor_Reviewer"><path codeLine="55" d="M518.86,533.5 C519.41,561.05 520.1,595.58 520.54,617.96 " fill="none" id="Editor-backto-Reviewer" style="stroke:#181818;stroke-width:1.0;"/><polygon fill="none" points="511.86,533.4,518.46,513.26,525.86,533.12,511.86,533.4" style="stroke:#181818;stroke-width:1.0;"/></g><!--MD5=[d8a655080454bab67f6091cbff4cee86]
reverse link User to Executor--><g id="link_User_Executor"><path codeLine="56" d="M469.39,165.8 C453.67,174.28 436.34,184.13 421,194 C406.28,203.47 390.66,214.99 377.75,224.95 " fill="none" id="User-backto-Executor" style="stroke:#181818;stroke-width:1.0;"/><polygon fill="none" points="466.25,159.54,487.2,156.38,472.79,171.91,466.25,159.54" style="stroke:#181818;stroke-width:1.0;"/></g><!--MD5=[76cecde56a704a8af4e77d242905ce83]
link User to Test--><g id="link_User_Test"><path codeLine="58" d="M504.8681,175.3431 C504.8681,175.3431 449.92,311.31 412,382 C398.72,406.76 381.64,433.37 367.92,453.73 " fill="none" id="User-Test" style="stroke:#181818;stroke-width:1.0;"/><polygon fill="#181818" points="360.49,464.65,368.8615,459.4618,363.304,460.517,362.2487,454.9594,360.49,464.65" style="stroke:#181818;stroke-width:1.0;"/><line style="stroke:#181818;stroke-width:1.0;" x1="363.304" x2="367.8" y1="460.517" y2="453.9"/><polygon fill="none" points="509.22,164.16,503.3164,168.3009,504.8681,175.3431,510.7717,171.2022,509.22,164.16" style="stroke:#181818;stroke-width:1.0;"/><text fill="#000000" font-family="sans-serif" font-size="13" lengthAdjust="spacing" textLength="20" x="342.0719" y="454.3027">0..*</text></g><!--MD5=[71601f1bec533155edb6fe7c05ed6d88]
link User to Tests--><g id="link_User_Tests"><path codeLine="59" d="M548.6,156.54 C578.65,174.23 620,206.17 620,248 C620,248 620,248 620,643 C620,703.94 652.78,769.15 674.11,805.12 " fill="none" id="User-to-Tests" style="stroke:#181818;stroke-width:1.0;stroke-dasharray:7.0,7.0;"/><polygon fill="#181818" points="676.91,809.78,675.7095,800.0046,674.3375,805.4925,668.8496,804.1205,676.91,809.78" style="stroke:#181818;stroke-width:1.0;"/></g><!--MD5=[08a64cbc114af4ffc1ca5f9cc4866941]
link Question to PendingReviewQuestions--><g id="link_Question_PendingReviewQuestions"><path codeLine="60" d="M373.93,686.11 C412.41,723.04 466.62,775.06 499.14,806.26 " fill="none" id="Question-to-PendingReviewQuestions" style="stroke:#181818;stroke-width:1.0;stroke-dasharray:7.0,7.0;"/><polygon fill="#181818" points="502.99,809.96,499.2879,800.8334,499.3908,806.4893,493.7349,806.5922,502.99,809.96" style="stroke:#181818;stroke-width:1.0;"/></g><!--MD5=[3e23c87a985df3c2da55c80a43bfcd45]
link Executor to Evaluation--><g id="link_Executor_Evaluation"><path codeLine="62" d="M348.13,273.22 C347.52,289.48 346.71,311.32 346.06,328.62 " fill="none" id="Executor-to-Evaluation" style="stroke:#181818;stroke-width:1.0;"/><polygon fill="#181818" points="345.87,333.83,350.2013,324.9847,346.0556,328.8334,342.2068,324.6877,345.87,333.83" style="stroke:#181818;stroke-width:1.0;"/></g><!--MD5=[7ea0c49f743e358ac875b85df2ad47d3]
link Evaluation to Test--><g id="link_Evaluation_Test"><path codeLine="63" d="M344.82,382.06 C344.65,403.76 344.4,436.3 344.22,459.59 " fill="none" id="Evaluation-to-Test" style="stroke:#181818;stroke-width:1.0;"/><polygon fill="#181818" points="344.18,464.7,348.257,455.7346,344.2229,459.7002,340.2573,455.666,344.18,464.7" style="stroke:#181818;stroke-width:1.0;"/></g><!--MD5=[a4471ebd030acd5c90145d584608083d]
link Editor to Question--><g id="link_Editor_Question"><path codeLine="65" d="M488.88,513.26 C459.33,536.87 413.05,573.85 377.87,601.96 " fill="none" id="Editor-to-Question" style="stroke:#181818;stroke-width:1.0;stroke-dasharray:7.0,7.0;"/><polygon fill="#181818" points="373.63,605.34,383.1633,602.8667,377.5427,602.227,378.1824,596.6064,373.63,605.34" style="stroke:#181818;stroke-width:1.0;"/></g><!--MD5=[796801260e32b64433c17f058a688d43]
link Reviewer to PendingReviewQuestions--><g id="link_Reviewer_PendingReviewQuestions"><path codeLine="66" d="M521.74,666.3 C522.84,701.15 524.91,766.78 526.1,804.46 " fill="none" id="Reviewer-to-PendingReviewQuestions" style="stroke:#181818;stroke-width:1.0;stroke-dasharray:7.0,7.0;"/><polygon fill="#181818" points="526.27,809.81,529.9853,800.6888,526.1129,804.8125,521.9893,800.9401,526.27,809.81" style="stroke:#181818;stroke-width:1.0;"/><text fill="#000000" font-family="sans-serif" font-size="13" lengthAdjust="spacing" textLength="40" x="525" y="754.4951">Review</text></g><!--MD5=[bb3d97f09542411db1527b071cca8268]
link Test to Question--><g id="link_Test_Question"><path codeLine="68" d="M340.5025,525.2011 C340.5025,525.2011 338.15,548.9 336.96,560.91 " fill="none" id="Test-Question" style="stroke:#181818;stroke-width:1.0;"/><polygon fill="#181818" points="335.66,573.95,340.531,565.39,336.1548,568.9745,332.5703,564.5983,335.66,573.95" style="stroke:#181818;stroke-width:1.0;"/><line style="stroke:#181818;stroke-width:1.0;" x1="336.1548" x2="336.945" y1="568.9745" y2="561.01"/><polygon fill="#181818" points="341.69,513.26,337.1159,518.8347,340.5025,525.2011,345.0766,519.6264,341.69,513.26" style="stroke:#181818;stroke-width:1.0;"/><text fill="#000000" font-family="sans-serif" font-size="13" lengthAdjust="spacing" textLength="20" x="315.2947" y="563.1438">1..*</text></g><!--MD5=[6eeca14f8a2ed45d1117f4ed4af75b7e]
link Question to Statement--><g id="link_Question_Statement"><path codeLine="69" d="M281.6906,720.4943 C281.6906,720.4943 251.76,769.52 239.45,789.68 " fill="none" id="Question-Statement" style="stroke:#181818;stroke-width:1.0;"/><polygon fill="#181818" points="232.55,800.99,240.655,795.3946,235.1564,796.723,233.8279,791.2244,232.55,800.99" style="stroke:#181818;stroke-width:1.0;"/><line style="stroke:#181818;stroke-width:1.0;" x1="235.1564" x2="239.32" y1="796.723" y2="789.89"/><polygon fill="#181818" points="287.94,710.25,281.4005,713.289,281.6906,720.4943,288.2301,717.4553,287.94,710.25" style="stroke:#181818;stroke-width:1.0;"/></g><!--MD5=[6926d5174a3032b1dcc6c5d6f900c16b]
link Question to Answer--><g id="link_Question_Answer"><path codeLine="70" d="M331.5026,722.2439 C331.5026,722.2439 333.2,776.15 333.86,796.95 " fill="none" id="Question-Answer" style="stroke:#181818;stroke-width:1.0;"/><polygon fill="#181818" points="334.27,809.95,337.9813,800.8272,334.1107,804.9525,329.9854,801.082,334.27,809.95" style="stroke:#181818;stroke-width:1.0;"/><line style="stroke:#181818;stroke-width:1.0;" x1="334.1107" x2="333.86" y1="804.9525" y2="796.955"/><polygon fill="#181818" points="331.12,710.25,327.3134,716.3745,331.5026,722.2439,335.3093,716.1194,331.12,710.25" style="stroke:#181818;stroke-width:1.0;"/><text fill="#000000" font-family="sans-serif" font-size="13" lengthAdjust="spacing" textLength="20" x="311.5204" y="799.2773">1..*</text></g><!--MD5=[b1491d38e87214202fddacec717a9c8d]
reverse link Answer to Correct--><g id="link_Answer_Correct"><path codeLine="71" d="M300.88,873.42 C282.44,894.19 260.29,919.14 244.51,936.91 " fill="none" id="Answer-backto-Correct" style="stroke:#181818;stroke-width:1.0;"/><polygon fill="none" points="295.87,868.53,314.38,858.22,306.34,877.82,295.87,868.53" style="stroke:#181818;stroke-width:1.0;"/></g><!--MD5=[c5fa946b130b0916f113c48ddc2b138d]
reverse link Answer to Wrong--><g id="link_Answer_Wrong"><path codeLine="72" d="M335.35,878.43 C335.48,894.7 335.62,912.89 335.74,927.95 " fill="none" id="Answer-backto-Wrong" style="stroke:#181818;stroke-width:1.0;"/><polygon fill="none" points="328.35,878.27,335.19,858.22,342.35,878.16,328.35,878.27" style="stroke:#181818;stroke-width:1.0;"/></g><!--MD5=[98df2f76ab45609c36aa45d6b9c3faee]
link Question to Category--><g id="link_Question_Category"><path codeLine="74" d="M274.265,678.2701 C274.265,678.2701 188.85,735.33 148,766 C133.23,777.09 117.48,789.88 103.83,801.3 " fill="none" id="Question-Category" style="stroke:#181818;stroke-width:1.0;"/><polygon fill="#181818" points="93.86,809.71,103.3187,806.9653,97.6821,806.4864,98.161,800.8499,93.86,809.71" style="stroke:#181818;stroke-width:1.0;"/><line style="stroke:#181818;stroke-width:1.0;" x1="97.6821" x2="103.795" y1="806.4864" y2="801.33"/><polygon fill="#181818" points="284.3,671.69,277.0891,671.6351,274.265,678.2701,281.4759,678.3251,284.3,671.69" style="stroke:#181818;stroke-width:1.0;"/></g><!--MD5=[a5725b0440277e7b298212d4ab098951]
link Category to Category--><g id="link_Category_Category"><path codeLine="75" d="M124.2277,822.7173 C124.2277,822.7173 147,827.64 147,834 C147,840.36 138.03,844.11 125.6,845.25 " fill="none" id="Category-Category" style="stroke:#181818;stroke-width:1.0;"/><polygon fill="#181818" points="112.23,845.52,121.3073,849.3412,117.229,845.4211,121.1491,841.3428,112.23,845.52" style="stroke:#181818;stroke-width:1.0;"/><line style="stroke:#181818;stroke-width:1.0;" x1="117.229" x2="125.23" y1="845.4211" y2="845.26"/><polygon fill="#181818" points="112.23,822.48,118.1497,826.5979,124.2277,822.7173,118.3079,818.5994,112.23,822.48" style="stroke:#181818;stroke-width:1.0;"/><text fill="#000000" font-family="sans-serif" font-size="13" lengthAdjust="spacing" textLength="20" x="119.9967" y="843.5348">1..*</text></g><!--MD5=[055f4516e5ee47f2ca14d165bc41b461]
@startuml OpoTestDomain

class Community

class User

class Reviewer

class Editor 

class Executor

class Evaluation

package Public {

    class Tests

    class PendingReviewQuestions

}

package Private {

    class Category 

    class Test 

    class Question {
        date
        reviewed
        difficulty
        type
        ...
    }

    class Statement {
        difficulty
    }

    class Answer 

    class Correct

    Class Wrong {
        difficulty
    }

}

Community *- -> "1..*" User
Community *- -> Tests


User <|- - Editor
Editor <|- -  Reviewer
User <|- - Executor

User o- -> "0..*" Test
User ..> Tests
Question ..> PendingReviewQuestions

Executor - -> Evaluation
Evaluation - -> Test

Editor ..> Question
Reviewer ..> PendingReviewQuestions : Review

Test *- -> "1..*" Question
Question *- ->  Statement
Question *- -> "1..*" Answer
Answer <|- - Correct
Answer <|- - Wrong

Question *- -> Category
Category *- ->"1..*" Category







@end

PlantUML version 1.2022.7(Mon Aug 22 18:01:30 WEST 2022)
(GPL source distribution)
Java Runtime: OpenJDK Runtime Environment
JVM: OpenJDK 64-Bit Server VM
Default Encoding: Cp1252
Language: es
Country: ES
--></g></svg>