<?xml version="1.0" encoding="UTF-8" standalone="no"?><svg xmlns="http://www.w3.org/2000/svg" xmlns:xlink="http://www.w3.org/1999/xlink" contentStyleType="text/css" height="1017px" preserveAspectRatio="none" style="width:751px;height:1017px;background:#FFFFFF;" version="1.1" viewBox="0 0 751 1017" width="751px" zoomAndPan="magnify"><defs/><g><!--MD5=[ebcf87c1ae8daa9293e64489194cef3e]
cluster Public--><g id="cluster_Public"><path d="M418.5,774 L462.5,774 A3.75,3.75 0 0 1 465,776.5 L472,797.6094 L741.5,797.6094 A2.5,2.5 0 0 1 744,800.1094 L744,871.5 A2.5,2.5 0 0 1 741.5,874 L418.5,874 A2.5,2.5 0 0 1 416,871.5 L416,776.5 A2.5,2.5 0 0 1 418.5,774 " fill="none" style="stroke:#000000;stroke-width:1.5;"/><line style="stroke:#000000;stroke-width:1.5;" x1="416" x2="472" y1="797.6094" y2="797.6094"/><text fill="#000000" font-family="sans-serif" font-size="14" font-weight="bold" lengthAdjust="spacing" textLength="43" x="420" y="790.5332">Public</text></g><!--MD5=[9e78572f11a177212a236870223a0978]
cluster Private--><g id="cluster_Private"><path d="M8.5,429 L59.5,429 A3.75,3.75 0 0 1 62,431.5 L69,452.6094 L389.5,452.6094 A2.5,2.5 0 0 1 392,455.1094 L392,1007.5 A2.5,2.5 0 0 1 389.5,1010 L8.5,1010 A2.5,2.5 0 0 1 6,1007.5 L6,431.5 A2.5,2.5 0 0 1 8.5,429 " fill="none" style="stroke:#000000;stroke-width:1.5;"/><line style="stroke:#000000;stroke-width:1.5;" x1="6" x2="69" y1="452.6094" y2="452.6094"/><text fill="#000000" font-family="sans-serif" font-size="14" font-weight="bold" lengthAdjust="spacing" textLength="50" x="10" y="445.5332">Private</text></g><!--MD5=[cbd32269a73795b08f4bc51eadb87cef]
class Tests--><g id="elem_Tests"><rect codeLine="16" fill="#F1F1F1" height="48" id="Tests" rx="2.5" ry="2.5" style="stroke:#181818;stroke-width:0.5;" width="67" x="660.5" y="810"/><ellipse cx="675.5" cy="826" fill="#ADD1B2" rx="11" ry="11" style="stroke:#181818;stroke-width:1.0;"/><path d="M678.2656,821.875 Q678.4219,821.6563 678.6094,821.5469 Q678.7969,821.4375 679.0156,821.4375 Q679.3906,821.4375 679.625,821.7031 Q679.8594,821.9531 679.8594,822.5625 L679.8594,824.0156 Q679.8594,824.625 679.625,824.8906 Q679.3906,825.1563 679.0156,825.1563 Q678.6719,825.1563 678.4688,824.9531 Q678.2656,824.7656 678.1563,824.25 Q678.1094,823.8906 677.9219,823.7031 Q677.5938,823.3281 676.9844,823.1094 Q676.375,822.8906 675.75,822.8906 Q674.9844,822.8906 674.3438,823.2188 Q673.7188,823.5469 673.2188,824.2969 Q672.7344,825.0469 672.7344,826.0781 L672.7344,827.1719 Q672.7344,828.4063 673.625,829.2344 Q674.5156,830.0469 676.1094,830.0469 Q677.0469,830.0469 677.7031,829.7969 Q678.0938,829.6406 678.5156,829.2031 Q678.7813,828.9375 678.9219,828.8594 Q679.0781,828.7813 679.2813,828.7813 Q679.6094,828.7813 679.8594,829.0469 Q680.125,829.2969 680.125,829.6406 Q680.125,829.9844 679.7813,830.3906 Q679.2813,830.9688 678.4844,831.2969 Q677.4063,831.75 676.1094,831.75 Q674.5938,831.75 673.3906,831.125 Q672.4063,830.625 671.7188,829.5625 Q671.0313,828.4844 671.0313,827.2031 L671.0313,826.0469 Q671.0313,824.7188 671.6406,823.5781 Q672.2656,822.4219 673.3594,821.8125 Q674.4531,821.1875 675.6875,821.1875 Q676.4219,821.1875 677.0625,821.3594 Q677.7188,821.5156 678.2656,821.875 Z " fill="#000000"/><text fill="#000000" font-family="sans-serif" font-size="14" lengthAdjust="spacing" textLength="35" x="689.5" y="831.7285">Tests</text><line style="stroke:#181818;stroke-width:0.5;" x1="661.5" x2="726.5" y1="842" y2="842"/><line style="stroke:#181818;stroke-width:0.5;" x1="661.5" x2="726.5" y1="850" y2="850"/></g><!--MD5=[686fa95824735602dd15f07aadf69888]
class PendingReviewQuestions--><g id="elem_PendingReviewQuestions"><rect codeLine="18" fill="#F1F1F1" height="48" id="PendingReviewQuestions" rx="2.5" ry="2.5" style="stroke:#181818;stroke-width:0.5;" width="193" x="432.5" y="810"/><ellipse cx="447.5" cy="826" fill="#ADD1B2" rx="11" ry="11" style="stroke:#181818;stroke-width:1.0;"/><path d="M450.2656,821.875 Q450.4219,821.6563 450.6094,821.5469 Q450.7969,821.4375 451.0156,821.4375 Q451.3906,821.4375 451.625,821.7031 Q451.8594,821.9531 451.8594,822.5625 L451.8594,824.0156 Q451.8594,824.625 451.625,824.8906 Q451.3906,825.1563 451.0156,825.1563 Q450.6719,825.1563 450.4688,824.9531 Q450.2656,824.7656 450.1563,824.25 Q450.1094,823.8906 449.9219,823.7031 Q449.5938,823.3281 448.9844,823.1094 Q448.375,822.8906 447.75,822.8906 Q446.9844,822.8906 446.3438,823.2188 Q445.7188,823.5469 445.2188,824.2969 Q444.7344,825.0469 444.7344,826.0781 L444.7344,827.1719 Q444.7344,828.4063 445.625,829.2344 Q446.5156,830.0469 448.1094,830.0469 Q449.0469,830.0469 449.7031,829.7969 Q450.0938,829.6406 450.5156,829.2031 Q450.7813,828.9375 450.9219,828.8594 Q451.0781,828.7813 451.2813,828.7813 Q451.6094,828.7813 451.8594,829.0469 Q452.125,829.2969 452.125,829.6406 Q452.125,829.9844 451.7813,830.3906 Q451.2813,830.9688 450.4844,831.2969 Q449.4063,831.75 448.1094,831.75 Q446.5938,831.75 445.3906,831.125 Q444.4063,830.625 443.7188,829.5625 Q443.0313,828.4844 443.0313,827.2031 L443.0313,826.0469 Q443.0313,824.7188 443.6406,823.5781 Q444.2656,822.4219 445.3594,821.8125 Q446.4531,821.1875 447.6875,821.1875 Q448.4219,821.1875 449.0625,821.3594 Q449.7188,821.5156 450.2656,821.875 Z " fill="#000000"/><text fill="#000000" font-family="sans-serif" font-size="14" lengthAdjust="spacing" textLength="161" x="461.5" y="831.7285">PendingReviewQuestions</text><line style="stroke:#181818;stroke-width:0.5;" x1="433.5" x2="624.5" y1="842" y2="842"/><line style="stroke:#181818;stroke-width:0.5;" x1="433.5" x2="624.5" y1="850" y2="850"/></g><!--MD5=[a96594a83e2ecdc78cbf17c2ddf01934]
class Category--><g id="elem_Category"><rect codeLine="24" fill="#F1F1F1" height="48" id="Category" rx="2.5" ry="2.5" style="stroke:#181818;stroke-width:0.5;" width="90" x="37" y="810"/><ellipse cx="52" cy="826" fill="#ADD1B2" rx="11" ry="11" style="stroke:#181818;stroke-width:1.0;"/><path d="M54.7656,821.875 Q54.9219,821.6563 55.1094,821.5469 Q55.2969,821.4375 55.5156,821.4375 Q55.8906,821.4375 56.125,821.7031 Q56.3594,821.9531 56.3594,822.5625 L56.3594,824.0156 Q56.3594,824.625 56.125,824.8906 Q55.8906,825.1563 55.5156,825.1563 Q55.1719,825.1563 54.9688,824.9531 Q54.7656,824.7656 54.6563,824.25 Q54.6094,823.8906 54.4219,823.7031 Q54.0938,823.3281 53.4844,823.1094 Q52.875,822.8906 52.25,822.8906 Q51.4844,822.8906 50.8438,823.2188 Q50.2188,823.5469 49.7188,824.2969 Q49.2344,825.0469 49.2344,826.0781 L49.2344,827.1719 Q49.2344,828.4063 50.125,829.2344 Q51.0156,830.0469 52.6094,830.0469 Q53.5469,830.0469 54.2031,829.7969 Q54.5938,829.6406 55.0156,829.2031 Q55.2813,828.9375 55.4219,828.8594 Q55.5781,828.7813 55.7813,828.7813 Q56.1094,828.7813 56.3594,829.0469 Q56.625,829.2969 56.625,829.6406 Q56.625,829.9844 56.2813,830.3906 Q55.7813,830.9688 54.9844,831.2969 Q53.9063,831.75 52.6094,831.75 Q51.0938,831.75 49.8906,831.125 Q48.9063,830.625 48.2188,829.5625 Q47.5313,828.4844 47.5313,827.2031 L47.5313,826.0469 Q47.5313,824.7188 48.1406,823.5781 Q48.7656,822.4219 49.8594,821.8125 Q50.9531,821.1875 52.1875,821.1875 Q52.9219,821.1875 53.5625,821.3594 Q54.2188,821.5156 54.7656,821.875 Z " fill="#000000"/><text fill="#000000" font-family="sans-serif" font-size="14" lengthAdjust="spacing" textLength="58" x="66" y="831.7285">Category</text><line style="stroke:#181818;stroke-width:0.5;" x1="38" x2="126" y1="842" y2="842"/><line style="stroke:#181818;stroke-width:0.5;" x1="38" x2="126" y1="850" y2="850"/></g><!--MD5=[9c1df00e5aaf042f20970631c477ed7b]
class Subcategory--><g id="elem_Subcategory"><rect codeLine="26" fill="#F1F1F1" height="48" id="Subcategory" rx="2.5" ry="2.5" style="stroke:#181818;stroke-width:0.5;" width="112" x="22" y="937"/><ellipse cx="37" cy="953" fill="#ADD1B2" rx="11" ry="11" style="stroke:#181818;stroke-width:1.0;"/><path d="M39.7656,948.875 Q39.9219,948.6563 40.1094,948.5469 Q40.2969,948.4375 40.5156,948.4375 Q40.8906,948.4375 41.125,948.7031 Q41.3594,948.9531 41.3594,949.5625 L41.3594,951.0156 Q41.3594,951.625 41.125,951.8906 Q40.8906,952.1563 40.5156,952.1563 Q40.1719,952.1563 39.9688,951.9531 Q39.7656,951.7656 39.6563,951.25 Q39.6094,950.8906 39.4219,950.7031 Q39.0938,950.3281 38.4844,950.1094 Q37.875,949.8906 37.25,949.8906 Q36.4844,949.8906 35.8438,950.2188 Q35.2188,950.5469 34.7188,951.2969 Q34.2344,952.0469 34.2344,953.0781 L34.2344,954.1719 Q34.2344,955.4063 35.125,956.2344 Q36.0156,957.0469 37.6094,957.0469 Q38.5469,957.0469 39.2031,956.7969 Q39.5938,956.6406 40.0156,956.2031 Q40.2813,955.9375 40.4219,955.8594 Q40.5781,955.7813 40.7813,955.7813 Q41.1094,955.7813 41.3594,956.0469 Q41.625,956.2969 41.625,956.6406 Q41.625,956.9844 41.2813,957.3906 Q40.7813,957.9688 39.9844,958.2969 Q38.9063,958.75 37.6094,958.75 Q36.0938,958.75 34.8906,958.125 Q33.9063,957.625 33.2188,956.5625 Q32.5313,955.4844 32.5313,954.2031 L32.5313,953.0469 Q32.5313,951.7188 33.1406,950.5781 Q33.7656,949.4219 34.8594,948.8125 Q35.9531,948.1875 37.1875,948.1875 Q37.9219,948.1875 38.5625,948.3594 Q39.2188,948.5156 39.7656,948.875 Z " fill="#000000"/><text fill="#000000" font-family="sans-serif" font-size="14" lengthAdjust="spacing" textLength="80" x="51" y="958.7285">Subcategory</text><line style="stroke:#181818;stroke-width:0.5;" x1="23" x2="133" y1="969" y2="969"/><line style="stroke:#181818;stroke-width:0.5;" x1="23" x2="133" y1="977" y2="977"/></g><!--MD5=[df38be88ccee13e832d6fafd6288a4ca]
class Test--><g id="elem_Test"><rect codeLine="28" fill="#F1F1F1" height="48" id="Test" rx="2.5" ry="2.5" style="stroke:#181818;stroke-width:0.5;" width="60" x="316" y="465"/><ellipse cx="331" cy="481" fill="#ADD1B2" rx="11" ry="11" style="stroke:#181818;stroke-width:1.0;"/><path d="M333.7656,476.875 Q333.9219,476.6563 334.1094,476.5469 Q334.2969,476.4375 334.5156,476.4375 Q334.8906,476.4375 335.125,476.7031 Q335.3594,476.9531 335.3594,477.5625 L335.3594,479.0156 Q335.3594,479.625 335.125,479.8906 Q334.8906,480.1563 334.5156,480.1563 Q334.1719,480.1563 333.9688,479.9531 Q333.7656,479.7656 333.6563,479.25 Q333.6094,478.8906 333.4219,478.7031 Q333.0938,478.3281 332.4844,478.1094 Q331.875,477.8906 331.25,477.8906 Q330.4844,477.8906 329.8438,478.2188 Q329.2188,478.5469 328.7188,479.2969 Q328.2344,480.0469 328.2344,481.0781 L328.2344,482.1719 Q328.2344,483.4063 329.125,484.2344 Q330.0156,485.0469 331.6094,485.0469 Q332.5469,485.0469 333.2031,484.7969 Q333.5938,484.6406 334.0156,484.2031 Q334.2813,483.9375 334.4219,483.8594 Q334.5781,483.7813 334.7813,483.7813 Q335.1094,483.7813 335.3594,484.0469 Q335.625,484.2969 335.625,484.6406 Q335.625,484.9844 335.2813,485.3906 Q334.7813,485.9688 333.9844,486.2969 Q332.9063,486.75 331.6094,486.75 Q330.0938,486.75 328.8906,486.125 Q327.9063,485.625 327.2188,484.5625 Q326.5313,483.4844 326.5313,482.2031 L326.5313,481.0469 Q326.5313,479.7188 327.1406,478.5781 Q327.7656,477.4219 328.8594,476.8125 Q329.9531,476.1875 331.1875,476.1875 Q331.9219,476.1875 332.5625,476.3594 Q333.2188,476.5156 333.7656,476.875 Z " fill="#000000"/><text fill="#000000" font-family="sans-serif" font-size="14" lengthAdjust="spacing" textLength="28" x="345" y="486.7285">Test</text><line style="stroke:#181818;stroke-width:0.5;" x1="317" x2="375" y1="497" y2="497"/><line style="stroke:#181818;stroke-width:0.5;" x1="317" x2="375" y1="505" y2="505"/></g><!--MD5=[fc7123defb831ecdd44b2d9bcef6cceb]
class Question--><g id="elem_Question"><rect codeLine="30" fill="#F1F1F1" height="136.0469" id="Question" rx="2.5" ry="2.5" style="stroke:#181818;stroke-width:0.5;" width="89" x="286.5" y="574"/><ellipse cx="301.5" cy="590" fill="#ADD1B2" rx="11" ry="11" style="stroke:#181818;stroke-width:1.0;"/><path d="M304.2656,585.875 Q304.4219,585.6563 304.6094,585.5469 Q304.7969,585.4375 305.0156,585.4375 Q305.3906,585.4375 305.625,585.7031 Q305.8594,585.9531 305.8594,586.5625 L305.8594,588.0156 Q305.8594,588.625 305.625,588.8906 Q305.3906,589.1563 305.0156,589.1563 Q304.6719,589.1563 304.4688,588.9531 Q304.2656,588.7656 304.1563,588.25 Q304.1094,587.8906 303.9219,587.7031 Q303.5938,587.3281 302.9844,587.1094 Q302.375,586.8906 301.75,586.8906 Q300.9844,586.8906 300.3438,587.2188 Q299.7188,587.5469 299.2188,588.2969 Q298.7344,589.0469 298.7344,590.0781 L298.7344,591.1719 Q298.7344,592.4063 299.625,593.2344 Q300.5156,594.0469 302.1094,594.0469 Q303.0469,594.0469 303.7031,593.7969 Q304.0938,593.6406 304.5156,593.2031 Q304.7813,592.9375 304.9219,592.8594 Q305.0781,592.7813 305.2813,592.7813 Q305.6094,592.7813 305.8594,593.0469 Q306.125,593.2969 306.125,593.6406 Q306.125,593.9844 305.7813,594.3906 Q305.2813,594.9688 304.4844,595.2969 Q303.4063,595.75 302.1094,595.75 Q300.5938,595.75 299.3906,595.125 Q298.4063,594.625 297.7188,593.5625 Q297.0313,592.4844 297.0313,591.2031 L297.0313,590.0469 Q297.0313,588.7188 297.6406,587.5781 Q298.2656,586.4219 299.3594,585.8125 Q300.4531,585.1875 301.6875,585.1875 Q302.4219,585.1875 303.0625,585.3594 Q303.7188,585.5156 304.2656,585.875 Z " fill="#000000"/><text fill="#000000" font-family="sans-serif" font-size="14" lengthAdjust="spacing" textLength="57" x="315.5" y="595.7285">Question</text><line style="stroke:#181818;stroke-width:0.5;" x1="287.5" x2="374.5" y1="606" y2="606"/><text fill="#000000" font-family="sans-serif" font-size="14" lengthAdjust="spacing" textLength="28" x="292.5" y="624.5332">date</text><text fill="#000000" font-family="sans-serif" font-size="14" lengthAdjust="spacing" textLength="56" x="292.5" y="642.1426">reviewed</text><text fill="#000000" font-family="sans-serif" font-size="14" lengthAdjust="spacing" textLength="51" x="292.5" y="659.752">difficulty</text><text fill="#000000" font-family="sans-serif" font-size="14" lengthAdjust="spacing" textLength="27" x="292.5" y="677.3613">type</text><text fill="#000000" font-family="sans-serif" font-size="14" lengthAdjust="spacing" textLength="12" x="292.5" y="694.9707">...</text><line style="stroke:#181818;stroke-width:0.5;" x1="287.5" x2="374.5" y1="702.0469" y2="702.0469"/></g><!--MD5=[a61a298976b7d1d94498f45c2ebfa10b]
class Statement--><g id="elem_Statement"><rect codeLine="38" fill="#F1F1F1" height="65.6094" id="Statement" rx="2.5" ry="2.5" style="stroke:#181818;stroke-width:0.5;" width="96" x="165" y="801"/><ellipse cx="180" cy="817" fill="#ADD1B2" rx="11" ry="11" style="stroke:#181818;stroke-width:1.0;"/><path d="M182.7656,812.875 Q182.9219,812.6563 183.1094,812.5469 Q183.2969,812.4375 183.5156,812.4375 Q183.8906,812.4375 184.125,812.7031 Q184.3594,812.9531 184.3594,813.5625 L184.3594,815.0156 Q184.3594,815.625 184.125,815.8906 Q183.8906,816.1563 183.5156,816.1563 Q183.1719,816.1563 182.9688,815.9531 Q182.7656,815.7656 182.6563,815.25 Q182.6094,814.8906 182.4219,814.7031 Q182.0938,814.3281 181.4844,814.1094 Q180.875,813.8906 180.25,813.8906 Q179.4844,813.8906 178.8438,814.2188 Q178.2188,814.5469 177.7188,815.2969 Q177.2344,816.0469 177.2344,817.0781 L177.2344,818.1719 Q177.2344,819.4063 178.125,820.2344 Q179.0156,821.0469 180.6094,821.0469 Q181.5469,821.0469 182.2031,820.7969 Q182.5938,820.6406 183.0156,820.2031 Q183.2813,819.9375 183.4219,819.8594 Q183.5781,819.7813 183.7813,819.7813 Q184.1094,819.7813 184.3594,820.0469 Q184.625,820.2969 184.625,820.6406 Q184.625,820.9844 184.2813,821.3906 Q183.7813,821.9688 182.9844,822.2969 Q181.9063,822.75 180.6094,822.75 Q179.0938,822.75 177.8906,822.125 Q176.9063,821.625 176.2188,820.5625 Q175.5313,819.4844 175.5313,818.2031 L175.5313,817.0469 Q175.5313,815.7188 176.1406,814.5781 Q176.7656,813.4219 177.8594,812.8125 Q178.9531,812.1875 180.1875,812.1875 Q180.9219,812.1875 181.5625,812.3594 Q182.2188,812.5156 182.7656,812.875 Z " fill="#000000"/><text fill="#000000" font-family="sans-serif" font-size="14" lengthAdjust="spacing" textLength="64" x="194" y="822.7285">Statement</text><line style="stroke:#181818;stroke-width:0.5;" x1="166" x2="260" y1="833" y2="833"/><text fill="#000000" font-family="sans-serif" font-size="14" lengthAdjust="spacing" textLength="51" x="171" y="851.5332">difficulty</text><line style="stroke:#181818;stroke-width:0.5;" x1="166" x2="260" y1="858.6094" y2="858.6094"/></g><!--MD5=[f9fadfa5a66b7e5a67b370cd443ffe52]
class Answer--><g id="elem_Answer"><rect codeLine="42" fill="#F1F1F1" height="48" id="Answer" rx="2.5" ry="2.5" style="stroke:#181818;stroke-width:0.5;" width="78" x="296" y="810"/><ellipse cx="311" cy="826" fill="#ADD1B2" rx="11" ry="11" style="stroke:#181818;stroke-width:1.0;"/><path d="M313.7656,821.875 Q313.9219,821.6563 314.1094,821.5469 Q314.2969,821.4375 314.5156,821.4375 Q314.8906,821.4375 315.125,821.7031 Q315.3594,821.9531 315.3594,822.5625 L315.3594,824.0156 Q315.3594,824.625 315.125,824.8906 Q314.8906,825.1563 314.5156,825.1563 Q314.1719,825.1563 313.9688,824.9531 Q313.7656,824.7656 313.6563,824.25 Q313.6094,823.8906 313.4219,823.7031 Q313.0938,823.3281 312.4844,823.1094 Q311.875,822.8906 311.25,822.8906 Q310.4844,822.8906 309.8438,823.2188 Q309.2188,823.5469 308.7188,824.2969 Q308.2344,825.0469 308.2344,826.0781 L308.2344,827.1719 Q308.2344,828.4063 309.125,829.2344 Q310.0156,830.0469 311.6094,830.0469 Q312.5469,830.0469 313.2031,829.7969 Q313.5938,829.6406 314.0156,829.2031 Q314.2813,828.9375 314.4219,828.8594 Q314.5781,828.7813 314.7813,828.7813 Q315.1094,828.7813 315.3594,829.0469 Q315.625,829.2969 315.625,829.6406 Q315.625,829.9844 315.2813,830.3906 Q314.7813,830.9688 313.9844,831.2969 Q312.9063,831.75 311.6094,831.75 Q310.0938,831.75 308.8906,831.125 Q307.9063,830.625 307.2188,829.5625 Q306.5313,828.4844 306.5313,827.2031 L306.5313,826.0469 Q306.5313,824.7188 307.1406,823.5781 Q307.7656,822.4219 308.8594,821.8125 Q309.9531,821.1875 311.1875,821.1875 Q311.9219,821.1875 312.5625,821.3594 Q313.2188,821.5156 313.7656,821.875 Z " fill="#000000"/><text fill="#000000" font-family="sans-serif" font-size="14" lengthAdjust="spacing" textLength="46" x="325" y="831.7285">Answer</text><line style="stroke:#181818;stroke-width:0.5;" x1="297" x2="373" y1="842" y2="842"/><line style="stroke:#181818;stroke-width:0.5;" x1="297" x2="373" y1="850" y2="850"/></g><!--MD5=[bc629657279eaa9349f412646650f2c5]
class Correct--><g id="elem_Correct"><rect codeLine="44" fill="#F1F1F1" height="48" id="Correct" rx="2.5" ry="2.5" style="stroke:#181818;stroke-width:0.5;" width="79" x="187.5" y="937"/><ellipse cx="202.5" cy="953" fill="#ADD1B2" rx="11" ry="11" style="stroke:#181818;stroke-width:1.0;"/><path d="M205.2656,948.875 Q205.4219,948.6563 205.6094,948.5469 Q205.7969,948.4375 206.0156,948.4375 Q206.3906,948.4375 206.625,948.7031 Q206.8594,948.9531 206.8594,949.5625 L206.8594,951.0156 Q206.8594,951.625 206.625,951.8906 Q206.3906,952.1563 206.0156,952.1563 Q205.6719,952.1563 205.4688,951.9531 Q205.2656,951.7656 205.1563,951.25 Q205.1094,950.8906 204.9219,950.7031 Q204.5938,950.3281 203.9844,950.1094 Q203.375,949.8906 202.75,949.8906 Q201.9844,949.8906 201.3438,950.2188 Q200.7188,950.5469 200.2188,951.2969 Q199.7344,952.0469 199.7344,953.0781 L199.7344,954.1719 Q199.7344,955.4063 200.625,956.2344 Q201.5156,957.0469 203.1094,957.0469 Q204.0469,957.0469 204.7031,956.7969 Q205.0938,956.6406 205.5156,956.2031 Q205.7813,955.9375 205.9219,955.8594 Q206.0781,955.7813 206.2813,955.7813 Q206.6094,955.7813 206.8594,956.0469 Q207.125,956.2969 207.125,956.6406 Q207.125,956.9844 206.7813,957.3906 Q206.2813,957.9688 205.4844,958.2969 Q204.4063,958.75 203.1094,958.75 Q201.5938,958.75 200.3906,958.125 Q199.4063,957.625 198.7188,956.5625 Q198.0313,955.4844 198.0313,954.2031 L198.0313,953.0469 Q198.0313,951.7188 198.6406,950.5781 Q199.2656,949.4219 200.3594,948.8125 Q201.4531,948.1875 202.6875,948.1875 Q203.4219,948.1875 204.0625,948.3594 Q204.7188,948.5156 205.2656,948.875 Z " fill="#000000"/><text fill="#000000" font-family="sans-serif" font-size="14" lengthAdjust="spacing" textLength="47" x="216.5" y="958.7285">Correct</text><line style="stroke:#181818;stroke-width:0.5;" x1="188.5" x2="265.5" y1="969" y2="969"/><line style="stroke:#181818;stroke-width:0.5;" x1="188.5" x2="265.5" y1="977" y2="977"/></g><!--MD5=[d4df30b25862551bb6e4155e35efa20d]
class Wrong--><g id="elem_Wrong"><rect codeLine="46" fill="#F1F1F1" height="65.6094" id="Wrong" rx="2.5" ry="2.5" style="stroke:#181818;stroke-width:0.5;" width="74" x="302" y="928"/><ellipse cx="317" cy="944" fill="#ADD1B2" rx="11" ry="11" style="stroke:#181818;stroke-width:1.0;"/><path d="M319.7656,939.875 Q319.9219,939.6563 320.1094,939.5469 Q320.2969,939.4375 320.5156,939.4375 Q320.8906,939.4375 321.125,939.7031 Q321.3594,939.9531 321.3594,940.5625 L321.3594,942.0156 Q321.3594,942.625 321.125,942.8906 Q320.8906,943.1563 320.5156,943.1563 Q320.1719,943.1563 319.9688,942.9531 Q319.7656,942.7656 319.6563,942.25 Q319.6094,941.8906 319.4219,941.7031 Q319.0938,941.3281 318.4844,941.1094 Q317.875,940.8906 317.25,940.8906 Q316.4844,940.8906 315.8438,941.2188 Q315.2188,941.5469 314.7188,942.2969 Q314.2344,943.0469 314.2344,944.0781 L314.2344,945.1719 Q314.2344,946.4063 315.125,947.2344 Q316.0156,948.0469 317.6094,948.0469 Q318.5469,948.0469 319.2031,947.7969 Q319.5938,947.6406 320.0156,947.2031 Q320.2813,946.9375 320.4219,946.8594 Q320.5781,946.7813 320.7813,946.7813 Q321.1094,946.7813 321.3594,947.0469 Q321.625,947.2969 321.625,947.6406 Q321.625,947.9844 321.2813,948.3906 Q320.7813,948.9688 319.9844,949.2969 Q318.9063,949.75 317.6094,949.75 Q316.0938,949.75 314.8906,949.125 Q313.9063,948.625 313.2188,947.5625 Q312.5313,946.4844 312.5313,945.2031 L312.5313,944.0469 Q312.5313,942.7188 313.1406,941.5781 Q313.7656,940.4219 314.8594,939.8125 Q315.9531,939.1875 317.1875,939.1875 Q317.9219,939.1875 318.5625,939.3594 Q319.2188,939.5156 319.7656,939.875 Z " fill="#000000"/><text fill="#000000" font-family="sans-serif" font-size="14" lengthAdjust="spacing" textLength="42" x="331" y="949.7285">Wrong</text><line style="stroke:#181818;stroke-width:0.5;" x1="303" x2="375" y1="960" y2="960"/><text fill="#000000" font-family="sans-serif" font-size="14" lengthAdjust="spacing" textLength="51" x="308" y="978.5332">difficulty</text><line style="stroke:#181818;stroke-width:0.5;" x1="303" x2="375" y1="985.6094" y2="985.6094"/></g><!--MD5=[668d633d11bedc8952753581a2dda3db]
class Community--><g id="elem_Community"><rect codeLine="2" fill="#F1F1F1" height="48" id="Community" rx="2.5" ry="2.5" style="stroke:#181818;stroke-width:0.5;" width="102" x="555" y="7"/><ellipse cx="570" cy="23" fill="#ADD1B2" rx="11" ry="11" style="stroke:#181818;stroke-width:1.0;"/><path d="M572.7656,18.875 Q572.9219,18.6563 573.1094,18.5469 Q573.2969,18.4375 573.5156,18.4375 Q573.8906,18.4375 574.125,18.7031 Q574.3594,18.9531 574.3594,19.5625 L574.3594,21.0156 Q574.3594,21.625 574.125,21.8906 Q573.8906,22.1563 573.5156,22.1563 Q573.1719,22.1563 572.9688,21.9531 Q572.7656,21.7656 572.6563,21.25 Q572.6094,20.8906 572.4219,20.7031 Q572.0938,20.3281 571.4844,20.1094 Q570.875,19.8906 570.25,19.8906 Q569.4844,19.8906 568.8438,20.2188 Q568.2188,20.5469 567.7188,21.2969 Q567.2344,22.0469 567.2344,23.0781 L567.2344,24.1719 Q567.2344,25.4063 568.125,26.2344 Q569.0156,27.0469 570.6094,27.0469 Q571.5469,27.0469 572.2031,26.7969 Q572.5938,26.6406 573.0156,26.2031 Q573.2813,25.9375 573.4219,25.8594 Q573.5781,25.7813 573.7813,25.7813 Q574.1094,25.7813 574.3594,26.0469 Q574.625,26.2969 574.625,26.6406 Q574.625,26.9844 574.2813,27.3906 Q573.7813,27.9688 572.9844,28.2969 Q571.9063,28.75 570.6094,28.75 Q569.0938,28.75 567.8906,28.125 Q566.9063,27.625 566.2188,26.5625 Q565.5313,25.4844 565.5313,24.2031 L565.5313,23.0469 Q565.5313,21.7188 566.1406,20.5781 Q566.7656,19.4219 567.8594,18.8125 Q568.9531,18.1875 570.1875,18.1875 Q570.9219,18.1875 571.5625,18.3594 Q572.2188,18.5156 572.7656,18.875 Z " fill="#000000"/><text fill="#000000" font-family="sans-serif" font-size="14" lengthAdjust="spacing" textLength="70" x="584" y="28.7285">Community</text><line style="stroke:#181818;stroke-width:0.5;" x1="556" x2="656" y1="39" y2="39"/><line style="stroke:#181818;stroke-width:0.5;" x1="556" x2="656" y1="47" y2="47"/></g><!--MD5=[3fd616f346a44cd59a91eb10b19e157c]
class User--><g id="elem_User"><rect codeLine="4" fill="#F1F1F1" height="48" id="User" rx="2.5" ry="2.5" style="stroke:#181818;stroke-width:0.5;" width="61" x="489.5" y="116"/><ellipse cx="504.5" cy="132" fill="#ADD1B2" rx="11" ry="11" style="stroke:#181818;stroke-width:1.0;"/><path d="M507.2656,127.875 Q507.4219,127.6563 507.6094,127.5469 Q507.7969,127.4375 508.0156,127.4375 Q508.3906,127.4375 508.625,127.7031 Q508.8594,127.9531 508.8594,128.5625 L508.8594,130.0156 Q508.8594,130.625 508.625,130.8906 Q508.3906,131.1563 508.0156,131.1563 Q507.6719,131.1563 507.4688,130.9531 Q507.2656,130.7656 507.1563,130.25 Q507.1094,129.8906 506.9219,129.7031 Q506.5938,129.3281 505.9844,129.1094 Q505.375,128.8906 504.75,128.8906 Q503.9844,128.8906 503.3438,129.2188 Q502.7188,129.5469 502.2188,130.2969 Q501.7344,131.0469 501.7344,132.0781 L501.7344,133.1719 Q501.7344,134.4063 502.625,135.2344 Q503.5156,136.0469 505.1094,136.0469 Q506.0469,136.0469 506.7031,135.7969 Q507.0938,135.6406 507.5156,135.2031 Q507.7813,134.9375 507.9219,134.8594 Q508.0781,134.7813 508.2813,134.7813 Q508.6094,134.7813 508.8594,135.0469 Q509.125,135.2969 509.125,135.6406 Q509.125,135.9844 508.7813,136.3906 Q508.2813,136.9688 507.4844,137.2969 Q506.4063,137.75 505.1094,137.75 Q503.5938,137.75 502.3906,137.125 Q501.4063,136.625 500.7188,135.5625 Q500.0313,134.4844 500.0313,133.2031 L500.0313,132.0469 Q500.0313,130.7188 500.6406,129.5781 Q501.2656,128.4219 502.3594,127.8125 Q503.4531,127.1875 504.6875,127.1875 Q505.4219,127.1875 506.0625,127.3594 Q506.7188,127.5156 507.2656,127.875 Z " fill="#000000"/><text fill="#000000" font-family="sans-serif" font-size="14" lengthAdjust="spacing" textLength="29" x="518.5" y="137.7285">User</text><line style="stroke:#181818;stroke-width:0.5;" x1="490.5" x2="549.5" y1="148" y2="148"/><line style="stroke:#181818;stroke-width:0.5;" x1="490.5" x2="549.5" y1="156" y2="156"/></g><!--MD5=[e76a510855fdf825c81877c657b1fc23]
class Reviewer--><g id="elem_Reviewer"><rect codeLine="6" fill="#F1F1F1" height="48" id="Reviewer" rx="2.5" ry="2.5" style="stroke:#181818;stroke-width:0.5;" width="90" x="478" y="618"/><ellipse cx="493" cy="634" fill="#ADD1B2" rx="11" ry="11" style="stroke:#181818;stroke-width:1.0;"/><path d="M495.7656,629.875 Q495.9219,629.6563 496.1094,629.5469 Q496.2969,629.4375 496.5156,629.4375 Q496.8906,629.4375 497.125,629.7031 Q497.3594,629.9531 497.3594,630.5625 L497.3594,632.0156 Q497.3594,632.625 497.125,632.8906 Q496.8906,633.1563 496.5156,633.1563 Q496.1719,633.1563 495.9688,632.9531 Q495.7656,632.7656 495.6563,632.25 Q495.6094,631.8906 495.4219,631.7031 Q495.0938,631.3281 494.4844,631.1094 Q493.875,630.8906 493.25,630.8906 Q492.4844,630.8906 491.8438,631.2188 Q491.2188,631.5469 490.7188,632.2969 Q490.2344,633.0469 490.2344,634.0781 L490.2344,635.1719 Q490.2344,636.4063 491.125,637.2344 Q492.0156,638.0469 493.6094,638.0469 Q494.5469,638.0469 495.2031,637.7969 Q495.5938,637.6406 496.0156,637.2031 Q496.2813,636.9375 496.4219,636.8594 Q496.5781,636.7813 496.7813,636.7813 Q497.1094,636.7813 497.3594,637.0469 Q497.625,637.2969 497.625,637.6406 Q497.625,637.9844 497.2813,638.3906 Q496.7813,638.9688 495.9844,639.2969 Q494.9063,639.75 493.6094,639.75 Q492.0938,639.75 490.8906,639.125 Q489.9063,638.625 489.2188,637.5625 Q488.5313,636.4844 488.5313,635.2031 L488.5313,634.0469 Q488.5313,632.7188 489.1406,631.5781 Q489.7656,630.4219 490.8594,629.8125 Q491.9531,629.1875 493.1875,629.1875 Q493.9219,629.1875 494.5625,629.3594 Q495.2188,629.5156 495.7656,629.875 Z " fill="#000000"/><text fill="#000000" font-family="sans-serif" font-size="14" lengthAdjust="spacing" textLength="58" x="507" y="639.7285">Reviewer</text><line style="stroke:#181818;stroke-width:0.5;" x1="479" x2="567" y1="650" y2="650"/><line style="stroke:#181818;stroke-width:0.5;" x1="479" x2="567" y1="658" y2="658"/></g><!--MD5=[559db66c208d2736f857be4b8ed380a2]
class Editor--><g id="elem_Editor"><rect codeLine="8" fill="#F1F1F1" height="48" id="Editor" rx="2.5" ry="2.5" style="stroke:#181818;stroke-width:0.5;" width="69" x="485.5" y="465"/><ellipse cx="500.5" cy="481" fill="#ADD1B2" rx="11" ry="11" style="stroke:#181818;stroke-width:1.0;"/><path d="M503.2656,476.875 Q503.4219,476.6563 503.6094,476.5469 Q503.7969,476.4375 504.0156,476.4375 Q504.3906,476.4375 504.625,476.7031 Q504.8594,476.9531 504.8594,477.5625 L504.8594,479.0156 Q504.8594,479.625 504.625,479.8906 Q504.3906,480.1563 504.0156,480.1563 Q503.6719,480.1563 503.4688,479.9531 Q503.2656,479.7656 503.1563,479.25 Q503.1094,478.8906 502.9219,478.7031 Q502.5938,478.3281 501.9844,478.1094 Q501.375,477.8906 500.75,477.8906 Q499.9844,477.8906 499.3438,478.2188 Q498.7188,478.5469 498.2188,479.2969 Q497.7344,480.0469 497.7344,481.0781 L497.7344,482.1719 Q497.7344,483.4063 498.625,484.2344 Q499.5156,485.0469 501.1094,485.0469 Q502.0469,485.0469 502.7031,484.7969 Q503.0938,484.6406 503.5156,484.2031 Q503.7813,483.9375 503.9219,483.8594 Q504.0781,483.7813 504.2813,483.7813 Q504.6094,483.7813 504.8594,484.0469 Q505.125,484.2969 505.125,484.6406 Q505.125,484.9844 504.7813,485.3906 Q504.2813,485.9688 503.4844,486.2969 Q502.4063,486.75 501.1094,486.75 Q499.5938,486.75 498.3906,486.125 Q497.4063,485.625 496.7188,484.5625 Q496.0313,483.4844 496.0313,482.2031 L496.0313,481.0469 Q496.0313,479.7188 496.6406,478.5781 Q497.2656,477.4219 498.3594,476.8125 Q499.4531,476.1875 500.6875,476.1875 Q501.4219,476.1875 502.0625,476.3594 Q502.7188,476.5156 503.2656,476.875 Z " fill="#000000"/><text fill="#000000" font-family="sans-serif" font-size="14" lengthAdjust="spacing" textLength="37" x="514.5" y="486.7285">Editor</text><line style="stroke:#181818;stroke-width:0.5;" x1="486.5" x2="553.5" y1="497" y2="497"/><line style="stroke:#181818;stroke-width:0.5;" x1="486.5" x2="553.5" y1="505" y2="505"/></g><!--MD5=[a0a1f7f9662f43ef0ece806266f72a6f]
class Executor--><g id="elem_Executor"><rect codeLine="10" fill="#F1F1F1" height="48" id="Executor" rx="2.5" ry="2.5" style="stroke:#181818;stroke-width:0.5;" width="87" x="307.5" y="225"/><ellipse cx="322.5" cy="241" fill="#ADD1B2" rx="11" ry="11" style="stroke:#181818;stroke-width:1.0;"/><path d="M325.2656,236.875 Q325.4219,236.6563 325.6094,236.5469 Q325.7969,236.4375 326.0156,236.4375 Q326.3906,236.4375 326.625,236.7031 Q326.8594,236.9531 326.8594,237.5625 L326.8594,239.0156 Q326.8594,239.625 326.625,239.8906 Q326.3906,240.1563 326.0156,240.1563 Q325.6719,240.1563 325.4688,239.9531 Q325.2656,239.7656 325.1563,239.25 Q325.1094,238.8906 324.9219,238.7031 Q324.5938,238.3281 323.9844,238.1094 Q323.375,237.8906 322.75,237.8906 Q321.9844,237.8906 321.3438,238.2188 Q320.7188,238.5469 320.2188,239.2969 Q319.7344,240.0469 319.7344,241.0781 L319.7344,242.1719 Q319.7344,243.4063 320.625,244.2344 Q321.5156,245.0469 323.1094,245.0469 Q324.0469,245.0469 324.7031,244.7969 Q325.0938,244.6406 325.5156,244.2031 Q325.7813,243.9375 325.9219,243.8594 Q326.0781,243.7813 326.2813,243.7813 Q326.6094,243.7813 326.8594,244.0469 Q327.125,244.2969 327.125,244.6406 Q327.125,244.9844 326.7813,245.3906 Q326.2813,245.9688 325.4844,246.2969 Q324.4063,246.75 323.1094,246.75 Q321.5938,246.75 320.3906,246.125 Q319.4063,245.625 318.7188,244.5625 Q318.0313,243.4844 318.0313,242.2031 L318.0313,241.0469 Q318.0313,239.7188 318.6406,238.5781 Q319.2656,237.4219 320.3594,236.8125 Q321.4531,236.1875 322.6875,236.1875 Q323.4219,236.1875 324.0625,236.3594 Q324.7188,236.5156 325.2656,236.875 Z " fill="#000000"/><text fill="#000000" font-family="sans-serif" font-size="14" lengthAdjust="spacing" textLength="55" x="336.5" y="246.7285">Executor</text><line style="stroke:#181818;stroke-width:0.5;" x1="308.5" x2="393.5" y1="257" y2="257"/><line style="stroke:#181818;stroke-width:0.5;" x1="308.5" x2="393.5" y1="265" y2="265"/></g><!--MD5=[71e8807956d33805e77353b9d7e2df39]
class Evaluation--><g id="elem_Evaluation"><rect codeLine="12" fill="#F1F1F1" height="48" id="Evaluation" rx="2.5" ry="2.5" style="stroke:#181818;stroke-width:0.5;" width="98" x="298" y="334"/><ellipse cx="313" cy="350" fill="#ADD1B2" rx="11" ry="11" style="stroke:#181818;stroke-width:1.0;"/><path d="M315.7656,345.875 Q315.9219,345.6563 316.1094,345.5469 Q316.2969,345.4375 316.5156,345.4375 Q316.8906,345.4375 317.125,345.7031 Q317.3594,345.9531 317.3594,346.5625 L317.3594,348.0156 Q317.3594,348.625 317.125,348.8906 Q316.8906,349.1563 316.5156,349.1563 Q316.1719,349.1563 315.9688,348.9531 Q315.7656,348.7656 315.6563,348.25 Q315.6094,347.8906 315.4219,347.7031 Q315.0938,347.3281 314.4844,347.1094 Q313.875,346.8906 313.25,346.8906 Q312.4844,346.8906 311.8438,347.2188 Q311.2188,347.5469 310.7188,348.2969 Q310.2344,349.0469 310.2344,350.0781 L310.2344,351.1719 Q310.2344,352.4063 311.125,353.2344 Q312.0156,354.0469 313.6094,354.0469 Q314.5469,354.0469 315.2031,353.7969 Q315.5938,353.6406 316.0156,353.2031 Q316.2813,352.9375 316.4219,352.8594 Q316.5781,352.7813 316.7813,352.7813 Q317.1094,352.7813 317.3594,353.0469 Q317.625,353.2969 317.625,353.6406 Q317.625,353.9844 317.2813,354.3906 Q316.7813,354.9688 315.9844,355.2969 Q314.9063,355.75 313.6094,355.75 Q312.0938,355.75 310.8906,355.125 Q309.9063,354.625 309.2188,353.5625 Q308.5313,352.4844 308.5313,351.2031 L308.5313,350.0469 Q308.5313,348.7188 309.1406,347.5781 Q309.7656,346.4219 310.8594,345.8125 Q311.9531,345.1875 313.1875,345.1875 Q313.9219,345.1875 314.5625,345.3594 Q315.2188,345.5156 315.7656,345.875 Z " fill="#000000"/><text fill="#000000" font-family="sans-serif" font-size="14" lengthAdjust="spacing" textLength="66" x="327" y="355.7285">Evaluation</text><line style="stroke:#181818;stroke-width:0.5;" x1="299" x2="395" y1="366" y2="366"/><line style="stroke:#181818;stroke-width:0.5;" x1="299" x2="395" y1="374" y2="374"/></g><!--MD5=[12743b4aa7b2bf3d8e383437eb99df68]
link Community to User--><g id="link_Community_User"><path codeLine="52" d="M579.8212,64.5724 C579.8212,64.5724 557.12,92.82 546.85,105.59 " fill="none" id="Community-User" style="stroke:#181818;stroke-width:1.0;"/><polygon fill="#181818" points="538.62,115.83,547.3804,111.3295,541.7562,111.9359,541.1498,106.3116,538.62,115.83" style="stroke:#181818;stroke-width:1.0;"/><line style="stroke:#181818;stroke-width:1.0;" x1="541.7562" x2="546.765" y1="111.9359" y2="105.695"/><polygon fill="#181818" points="587.34,55.22,580.4631,57.3899,579.8212,64.5724,586.698,62.4025,587.34,55.22" style="stroke:#181818;stroke-width:1.0;"/><text fill="#000000" font-family="sans-serif" font-size="13" lengthAdjust="spacing" textLength="20" x="520.8289" y="105.1266">1..*</text></g><!--MD5=[218de807dea6c457cd03d741184fc906]
link Community to Tests--><g id="link_Community_Tests"><path codeLine="53" d="M649.8151,62.8523 C649.8151,62.8523 693,108.93 693,139 C693,139 693,139 693,643 C693,696.5 693.4,758.47 693.7,796.71 " fill="none" id="Community-Tests" style="stroke:#181818;stroke-width:1.0;"/><polygon fill="#181818" points="693.8,809.89,697.7307,800.8595,693.7615,804.8901,689.7309,800.921,693.8,809.89" style="stroke:#181818;stroke-width:1.0;"/><line style="stroke:#181818;stroke-width:1.0;" x1="693.7615" x2="693.7" y1="804.8901" y2="796.895"/><polygon fill="#181818" points="640.63,55.13,642.6484,62.0529,649.8151,62.8523,647.7966,55.9295,640.63,55.13" style="stroke:#181818;stroke-width:1.0;"/></g><!--MD5=[7016372388c7ac2652db8515880aaa11]
reverse link User to Editor--><g id="link_User_Editor"><path codeLine="56" d="M520,184.5 C520,258.75 520,407.44 520,464.74 " fill="none" id="User-backto-Editor" style="stroke:#181818;stroke-width:1.0;"/><polygon fill="none" points="513,184.04,520,164.04,527,184.04,513,184.04" style="stroke:#181818;stroke-width:1.0;"/></g><!--MD5=[60e4945ab784e9eaf709bb3168dd25a4]
reverse link Editor to Reviewer--><g id="link_Editor_Reviewer"><path codeLine="57" d="M520.86,533.5 C521.41,561.05 522.1,595.58 522.54,617.96 " fill="none" id="Editor-backto-Reviewer" style="stroke:#181818;stroke-width:1.0;"/><polygon fill="none" points="513.86,533.4,520.46,513.26,527.86,533.12,513.86,533.4" style="stroke:#181818;stroke-width:1.0;"/></g><!--MD5=[d8a655080454bab67f6091cbff4cee86]
reverse link User to Executor--><g id="link_User_Executor"><path codeLine="58" d="M471.39,165.8 C455.67,174.28 438.34,184.13 423,194 C408.28,203.47 392.66,214.99 379.75,224.95 " fill="none" id="User-backto-Executor" style="stroke:#181818;stroke-width:1.0;"/><polygon fill="none" points="468.25,159.54,489.2,156.38,474.79,171.91,468.25,159.54" style="stroke:#181818;stroke-width:1.0;"/></g><!--MD5=[76cecde56a704a8af4e77d242905ce83]
link User to Test--><g id="link_User_Test"><path codeLine="60" d="M506.8681,175.3431 C506.8681,175.3431 451.92,311.31 414,382 C400.72,406.76 383.64,433.37 369.92,453.73 " fill="none" id="User-Test" style="stroke:#181818;stroke-width:1.0;"/><polygon fill="#181818" points="362.49,464.65,370.8615,459.4618,365.304,460.517,364.2487,454.9594,362.49,464.65" style="stroke:#181818;stroke-width:1.0;"/><line style="stroke:#181818;stroke-width:1.0;" x1="365.304" x2="369.8" y1="460.517" y2="453.9"/><polygon fill="none" points="511.22,164.16,505.3164,168.3009,506.8681,175.3431,512.7717,171.2022,511.22,164.16" style="stroke:#181818;stroke-width:1.0;"/><text fill="#000000" font-family="sans-serif" font-size="13" lengthAdjust="spacing" textLength="20" x="344.0719" y="454.3027">0..*</text></g><!--MD5=[71601f1bec533155edb6fe7c05ed6d88]
link User to Tests--><g id="link_User_Tests"><path codeLine="61" d="M550.6,156.54 C580.65,174.23 622,206.17 622,248 C622,248 622,248 622,643 C622,703.94 654.78,769.15 676.11,805.12 " fill="none" id="User-to-Tests" style="stroke:#181818;stroke-width:1.0;stroke-dasharray:7.0,7.0;"/><polygon fill="#181818" points="678.91,809.78,677.7095,800.0046,676.3375,805.4925,670.8496,804.1205,678.91,809.78" style="stroke:#181818;stroke-width:1.0;"/></g><!--MD5=[08a64cbc114af4ffc1ca5f9cc4866941]
link Question to PendingReviewQuestions--><g id="link_Question_PendingReviewQuestions"><path codeLine="62" d="M375.93,686.11 C414.41,723.04 468.62,775.06 501.14,806.26 " fill="none" id="Question-to-PendingReviewQuestions" style="stroke:#181818;stroke-width:1.0;stroke-dasharray:7.0,7.0;"/><polygon fill="#181818" points="504.99,809.96,501.2879,800.8334,501.3908,806.4893,495.7349,806.5922,504.99,809.96" style="stroke:#181818;stroke-width:1.0;"/></g><!--MD5=[3e23c87a985df3c2da55c80a43bfcd45]
link Executor to Evaluation--><g id="link_Executor_Evaluation"><path codeLine="64" d="M350.13,273.22 C349.52,289.48 348.71,311.32 348.06,328.62 " fill="none" id="Executor-to-Evaluation" style="stroke:#181818;stroke-width:1.0;"/><polygon fill="#181818" points="347.87,333.83,352.2013,324.9847,348.0556,328.8334,344.2068,324.6877,347.87,333.83" style="stroke:#181818;stroke-width:1.0;"/></g><!--MD5=[7ea0c49f743e358ac875b85df2ad47d3]
link Evaluation to Test--><g id="link_Evaluation_Test"><path codeLine="65" d="M346.82,382.06 C346.65,403.76 346.4,436.3 346.22,459.59 " fill="none" id="Evaluation-to-Test" style="stroke:#181818;stroke-width:1.0;"/><polygon fill="#181818" points="346.18,464.7,350.257,455.7346,346.2229,459.7002,342.2573,455.666,346.18,464.7" style="stroke:#181818;stroke-width:1.0;"/></g><!--MD5=[a4471ebd030acd5c90145d584608083d]
link Editor to Question--><g id="link_Editor_Question"><path codeLine="67" d="M490.88,513.26 C461.33,536.87 415.05,573.85 379.87,601.96 " fill="none" id="Editor-to-Question" style="stroke:#181818;stroke-width:1.0;stroke-dasharray:7.0,7.0;"/><polygon fill="#181818" points="375.63,605.34,385.1633,602.8667,379.5427,602.227,380.1824,596.6064,375.63,605.34" style="stroke:#181818;stroke-width:1.0;"/></g><!--MD5=[796801260e32b64433c17f058a688d43]
link Reviewer to PendingReviewQuestions--><g id="link_Reviewer_PendingReviewQuestions"><path codeLine="68" d="M523.74,666.3 C524.84,701.15 526.91,766.78 528.1,804.46 " fill="none" id="Reviewer-to-PendingReviewQuestions" style="stroke:#181818;stroke-width:1.0;stroke-dasharray:7.0,7.0;"/><polygon fill="#181818" points="528.27,809.81,531.9853,800.6888,528.1129,804.8125,523.9893,800.9401,528.27,809.81" style="stroke:#181818;stroke-width:1.0;"/><text fill="#000000" font-family="sans-serif" font-size="13" lengthAdjust="spacing" textLength="40" x="527" y="754.4951">Review</text></g><!--MD5=[bb3d97f09542411db1527b071cca8268]
link Test to Question--><g id="link_Test_Question"><path codeLine="70" d="M342.5025,525.2011 C342.5025,525.2011 340.15,548.9 338.96,560.91 " fill="none" id="Test-Question" style="stroke:#181818;stroke-width:1.0;"/><polygon fill="#181818" points="337.66,573.95,342.531,565.39,338.1548,568.9745,334.5703,564.5983,337.66,573.95" style="stroke:#181818;stroke-width:1.0;"/><line style="stroke:#181818;stroke-width:1.0;" x1="338.1548" x2="338.945" y1="568.9745" y2="561.01"/><polygon fill="#181818" points="343.69,513.26,339.1159,518.8347,342.5025,525.2011,347.0766,519.6264,343.69,513.26" style="stroke:#181818;stroke-width:1.0;"/><text fill="#000000" font-family="sans-serif" font-size="13" lengthAdjust="spacing" textLength="20" x="317.2947" y="563.1438">1..*</text></g><!--MD5=[6eeca14f8a2ed45d1117f4ed4af75b7e]
link Question to Statement--><g id="link_Question_Statement"><path codeLine="71" d="M282.8997,720.4445 C282.8997,720.4445 252.43,769.52 239.91,789.68 " fill="none" id="Question-Statement" style="stroke:#181818;stroke-width:1.0;"/><polygon fill="#181818" points="232.88,800.99,241.0259,795.4543,235.5176,796.7423,234.2296,791.234,232.88,800.99" style="stroke:#181818;stroke-width:1.0;"/><line style="stroke:#181818;stroke-width:1.0;" x1="235.5176" x2="239.745" y1="796.7423" y2="789.94"/><polygon fill="#181818" points="289.23,710.25,282.6667,713.2371,282.8997,720.4445,289.463,717.4573,289.23,710.25" style="stroke:#181818;stroke-width:1.0;"/></g><!--MD5=[6926d5174a3032b1dcc6c5d6f900c16b]
link Question to Answer--><g id="link_Question_Answer"><path codeLine="72" d="M332.6705,722.2474 C332.6705,722.2474 333.8,776.15 334.24,796.95 " fill="none" id="Question-Answer" style="stroke:#181818;stroke-width:1.0;"/><polygon fill="#181818" points="334.51,809.95,338.3213,800.8685,334.4056,804.9511,330.323,801.0355,334.51,809.95" style="stroke:#181818;stroke-width:1.0;"/><line style="stroke:#181818;stroke-width:1.0;" x1="334.4056" x2="334.24" y1="804.9511" y2="796.955"/><polygon fill="#181818" points="332.42,710.25,328.5461,716.3322,332.6705,722.2474,336.5444,716.1652,332.42,710.25" style="stroke:#181818;stroke-width:1.0;"/><text fill="#000000" font-family="sans-serif" font-size="13" lengthAdjust="spacing" textLength="20" x="311.8219" y="799.2773">1..*</text></g><!--MD5=[b1491d38e87214202fddacec717a9c8d]
reverse link Answer to Correct--><g id="link_Answer_Correct"><path codeLine="73" d="M301.8,873.42 C283.86,894.19 262.31,919.14 246.95,936.91 " fill="none" id="Answer-backto-Correct" style="stroke:#181818;stroke-width:1.0;"/><polygon fill="none" points="296.57,868.78,314.94,858.22,307.16,877.93,296.57,868.78" style="stroke:#181818;stroke-width:1.0;"/></g><!--MD5=[c5fa946b130b0916f113c48ddc2b138d]
reverse link Answer to Wrong--><g id="link_Answer_Wrong"><path codeLine="74" d="M336.39,878.43 C336.91,894.7 337.49,912.89 337.97,927.95 " fill="none" id="Answer-backto-Wrong" style="stroke:#181818;stroke-width:1.0;"/><polygon fill="none" points="329.39,878.43,335.74,858.22,343.38,877.98,329.39,878.43" style="stroke:#181818;stroke-width:1.0;"/></g><!--MD5=[98df2f76ab45609c36aa45d6b9c3faee]
link Question to Category--><g id="link_Question_Category"><path codeLine="76" d="M276.1555,675.8103 C276.1555,675.8103 188.32,732.56 148,766 C135.46,776.4 122.67,788.87 111.73,800.22 " fill="none" id="Question-Category" style="stroke:#181818;stroke-width:1.0;"/><polygon fill="#181818" points="102.64,809.82,111.7299,806.0286,106.0752,806.1869,105.9169,800.5323,102.64,809.82" style="stroke:#181818;stroke-width:1.0;"/><line style="stroke:#181818;stroke-width:1.0;" x1="106.0752" x2="111.575" y1="806.1869" y2="800.375"/><polygon fill="#181818" points="286.35,669.48,279.1427,669.247,276.1555,675.8103,283.3629,676.0433,286.35,669.48" style="stroke:#181818;stroke-width:1.0;"/></g><!--MD5=[74baf885d61ec4386e3ee7603dbfa36d]
link Category to Subcategory--><g id="link_Category_Subcategory"><path codeLine="77" d="M80.8778,870.2139 C80.8778,870.2139 79.68,907.35 79.16,923.87 " fill="none" id="Category-Subcategory" style="stroke:#181818;stroke-width:1.0;"/><polygon fill="#181818" points="78.74,936.91,83.0249,928.0421,78.8994,931.9125,75.029,927.787,78.74,936.91" style="stroke:#181818;stroke-width:1.0;"/><line style="stroke:#181818;stroke-width:1.0;" x1="78.8994" x2="79.155" y1="931.9125" y2="923.915"/><polygon fill="#181818" points="81.26,858.22,77.0709,864.0895,80.8778,870.2139,85.0669,864.3444,81.26,858.22" style="stroke:#181818;stroke-width:1.0;"/><text fill="#000000" font-family="sans-serif" font-size="13" lengthAdjust="spacing" textLength="20" x="56.3671" y="926.2271">0..*</text></g><!--MD5=[9fcd097923e43aa36fd60abdf791faf3]
link Subcategory to Subcategory--><g id="link_Subcategory_Subcategory"><path codeLine="78" d="M146.4153,949.9733 C146.4153,949.9733 169,955.08 169,961 C169,966.92 160.15,970.58 147.53,971.98 " fill="none" id="Subcategory-Subcategory" style="stroke:#181818;stroke-width:1.0;"/><polygon fill="#181818" points="134.43,972.62,143.6168,976.1701,139.4239,972.3728,143.2212,968.1799,134.43,972.62" style="stroke:#181818;stroke-width:1.0;"/><line style="stroke:#181818;stroke-width:1.0;" x1="139.4239" x2="147.415" y1="972.3728" y2="971.985"/><polygon fill="#181818" points="134.43,949.38,140.2249,953.6718,146.4153,949.9733,140.6204,945.6816,134.43,949.38" style="stroke:#181818;stroke-width:1.0;"/><text fill="#000000" font-family="sans-serif" font-size="13" lengthAdjust="spacing" textLength="20" x="142.111" y="970.554">0..*</text></g><!--MD5=[9f1e913ff80dce69841b880873d5ae1e]
@startuml OpoTestDomain

class Community

class User

class Reviewer

class Editor 

class Executor

class Evaluation

package Public {

    class Tests

    class PendingReviewQuestions

}

package Private {

    class Category 

    class Subcategory 

    class Test 

    class Question {
        date
        reviewed
        difficulty
        type
        ...
    }

    class Statement {
        difficulty
    }

    class Answer 

    class Correct

    Class Wrong {
        difficulty
    }

}

Community *- -> "1..*" User
Community *- -> Tests


User <|- - Editor
Editor <|- -  Reviewer
User <|- - Executor

User o- -> "0..*" Test
User ..> Tests
Question ..> PendingReviewQuestions

Executor - -> Evaluation
Evaluation - -> Test

Editor ..> Question
Reviewer ..> PendingReviewQuestions : Review

Test *- -> "1..*" Question
Question *- ->  Statement
Question *- -> "1..*" Answer
Answer <|- - Correct
Answer <|- - Wrong

Question *- -> Category
Category *- ->"0..*" Subcategory
Subcategory *- ->"0..*" Subcategory






@end

PlantUML version 1.2022.7(Mon Aug 22 18:01:30 WEST 2022)
(GPL source distribution)
Java Runtime: OpenJDK Runtime Environment
JVM: OpenJDK 64-Bit Server VM
Default Encoding: Cp1252
Language: es
Country: ES
--></g></svg>