<?xml version="1.0" encoding="UTF-8" standalone="no"?><svg xmlns="http://www.w3.org/2000/svg" xmlns:xlink="http://www.w3.org/1999/xlink" contentStyleType="text/css" height="1217px" preserveAspectRatio="none" style="width:923px;height:1217px;background:#FFFFFF;" version="1.1" viewBox="0 0 923 1217" width="923px" zoomAndPan="magnify"><defs/><g><!--MD5=[668d633d11bedc8952753581a2dda3db]
class Community--><g id="elem_Community"><rect codeLine="2" fill="#F1F1F1" height="48" id="Community" rx="2.5" ry="2.5" style="stroke:#181818;stroke-width:0.5;" width="102" x="715.5" y="7"/><ellipse cx="730.5" cy="23" fill="#ADD1B2" rx="11" ry="11" style="stroke:#181818;stroke-width:1.0;"/><path d="M733.2656,18.875 Q733.4219,18.6563 733.6094,18.5469 Q733.7969,18.4375 734.0156,18.4375 Q734.3906,18.4375 734.625,18.7031 Q734.8594,18.9531 734.8594,19.5625 L734.8594,21.0156 Q734.8594,21.625 734.625,21.8906 Q734.3906,22.1563 734.0156,22.1563 Q733.6719,22.1563 733.4688,21.9531 Q733.2656,21.7656 733.1563,21.25 Q733.1094,20.8906 732.9219,20.7031 Q732.5938,20.3281 731.9844,20.1094 Q731.375,19.8906 730.75,19.8906 Q729.9844,19.8906 729.3438,20.2188 Q728.7188,20.5469 728.2188,21.2969 Q727.7344,22.0469 727.7344,23.0781 L727.7344,24.1719 Q727.7344,25.4063 728.625,26.2344 Q729.5156,27.0469 731.1094,27.0469 Q732.0469,27.0469 732.7031,26.7969 Q733.0938,26.6406 733.5156,26.2031 Q733.7813,25.9375 733.9219,25.8594 Q734.0781,25.7813 734.2813,25.7813 Q734.6094,25.7813 734.8594,26.0469 Q735.125,26.2969 735.125,26.6406 Q735.125,26.9844 734.7813,27.3906 Q734.2813,27.9688 733.4844,28.2969 Q732.4063,28.75 731.1094,28.75 Q729.5938,28.75 728.3906,28.125 Q727.4063,27.625 726.7188,26.5625 Q726.0313,25.4844 726.0313,24.2031 L726.0313,23.0469 Q726.0313,21.7188 726.6406,20.5781 Q727.2656,19.4219 728.3594,18.8125 Q729.4531,18.1875 730.6875,18.1875 Q731.4219,18.1875 732.0625,18.3594 Q732.7188,18.5156 733.2656,18.875 Z " fill="#000000"/><text fill="#000000" font-family="sans-serif" font-size="14" lengthAdjust="spacing" textLength="70" x="744.5" y="28.7285">Community</text><line style="stroke:#181818;stroke-width:0.5;" x1="716.5" x2="816.5" y1="39" y2="39"/><line style="stroke:#181818;stroke-width:0.5;" x1="716.5" x2="816.5" y1="47" y2="47"/></g><!--MD5=[3fd616f346a44cd59a91eb10b19e157c]
class User--><g id="elem_User"><rect codeLine="4" fill="#F1F1F1" height="48" id="User" rx="2.5" ry="2.5" style="stroke:#181818;stroke-width:0.5;" width="61" x="587" y="116"/><ellipse cx="602" cy="132" fill="#ADD1B2" rx="11" ry="11" style="stroke:#181818;stroke-width:1.0;"/><path d="M604.7656,127.875 Q604.9219,127.6563 605.1094,127.5469 Q605.2969,127.4375 605.5156,127.4375 Q605.8906,127.4375 606.125,127.7031 Q606.3594,127.9531 606.3594,128.5625 L606.3594,130.0156 Q606.3594,130.625 606.125,130.8906 Q605.8906,131.1563 605.5156,131.1563 Q605.1719,131.1563 604.9688,130.9531 Q604.7656,130.7656 604.6563,130.25 Q604.6094,129.8906 604.4219,129.7031 Q604.0938,129.3281 603.4844,129.1094 Q602.875,128.8906 602.25,128.8906 Q601.4844,128.8906 600.8438,129.2188 Q600.2188,129.5469 599.7188,130.2969 Q599.2344,131.0469 599.2344,132.0781 L599.2344,133.1719 Q599.2344,134.4063 600.125,135.2344 Q601.0156,136.0469 602.6094,136.0469 Q603.5469,136.0469 604.2031,135.7969 Q604.5938,135.6406 605.0156,135.2031 Q605.2813,134.9375 605.4219,134.8594 Q605.5781,134.7813 605.7813,134.7813 Q606.1094,134.7813 606.3594,135.0469 Q606.625,135.2969 606.625,135.6406 Q606.625,135.9844 606.2813,136.3906 Q605.7813,136.9688 604.9844,137.2969 Q603.9063,137.75 602.6094,137.75 Q601.0938,137.75 599.8906,137.125 Q598.9063,136.625 598.2188,135.5625 Q597.5313,134.4844 597.5313,133.2031 L597.5313,132.0469 Q597.5313,130.7188 598.1406,129.5781 Q598.7656,128.4219 599.8594,127.8125 Q600.9531,127.1875 602.1875,127.1875 Q602.9219,127.1875 603.5625,127.3594 Q604.2188,127.5156 604.7656,127.875 Z " fill="#000000"/><text fill="#000000" font-family="sans-serif" font-size="14" lengthAdjust="spacing" textLength="29" x="616" y="137.7285">User</text><line style="stroke:#181818;stroke-width:0.5;" x1="588" x2="647" y1="148" y2="148"/><line style="stroke:#181818;stroke-width:0.5;" x1="588" x2="647" y1="156" y2="156"/></g><!--MD5=[61a83f88cb8b7d3a80bc8c481f3736bf]
class Teacher--><g id="elem_Teacher"><rect codeLine="6" fill="#F1F1F1" height="48" id="Teacher" rx="2.5" ry="2.5" style="stroke:#181818;stroke-width:0.5;" width="85" x="575" y="552"/><ellipse cx="590" cy="568" fill="#ADD1B2" rx="11" ry="11" style="stroke:#181818;stroke-width:1.0;"/><path d="M592.7656,563.875 Q592.9219,563.6563 593.1094,563.5469 Q593.2969,563.4375 593.5156,563.4375 Q593.8906,563.4375 594.125,563.7031 Q594.3594,563.9531 594.3594,564.5625 L594.3594,566.0156 Q594.3594,566.625 594.125,566.8906 Q593.8906,567.1563 593.5156,567.1563 Q593.1719,567.1563 592.9688,566.9531 Q592.7656,566.7656 592.6563,566.25 Q592.6094,565.8906 592.4219,565.7031 Q592.0938,565.3281 591.4844,565.1094 Q590.875,564.8906 590.25,564.8906 Q589.4844,564.8906 588.8438,565.2188 Q588.2188,565.5469 587.7188,566.2969 Q587.2344,567.0469 587.2344,568.0781 L587.2344,569.1719 Q587.2344,570.4063 588.125,571.2344 Q589.0156,572.0469 590.6094,572.0469 Q591.5469,572.0469 592.2031,571.7969 Q592.5938,571.6406 593.0156,571.2031 Q593.2813,570.9375 593.4219,570.8594 Q593.5781,570.7813 593.7813,570.7813 Q594.1094,570.7813 594.3594,571.0469 Q594.625,571.2969 594.625,571.6406 Q594.625,571.9844 594.2813,572.3906 Q593.7813,572.9688 592.9844,573.2969 Q591.9063,573.75 590.6094,573.75 Q589.0938,573.75 587.8906,573.125 Q586.9063,572.625 586.2188,571.5625 Q585.5313,570.4844 585.5313,569.2031 L585.5313,568.0469 Q585.5313,566.7188 586.1406,565.5781 Q586.7656,564.4219 587.8594,563.8125 Q588.9531,563.1875 590.1875,563.1875 Q590.9219,563.1875 591.5625,563.3594 Q592.2188,563.5156 592.7656,563.875 Z " fill="#000000"/><text fill="#000000" font-family="sans-serif" font-size="14" lengthAdjust="spacing" textLength="53" x="604" y="573.7285">Teacher</text><line style="stroke:#181818;stroke-width:0.5;" x1="576" x2="659" y1="584" y2="584"/><line style="stroke:#181818;stroke-width:0.5;" x1="576" x2="659" y1="592" y2="592"/></g><!--MD5=[d6181cb537bdc20c0a3007a98a56832d]
class Student--><g id="elem_Student"><rect codeLine="8" fill="#F1F1F1" height="48" id="Student" rx="2.5" ry="2.5" style="stroke:#181818;stroke-width:0.5;" width="81" x="476" y="225"/><ellipse cx="491" cy="241" fill="#ADD1B2" rx="11" ry="11" style="stroke:#181818;stroke-width:1.0;"/><path d="M493.7656,236.875 Q493.9219,236.6563 494.1094,236.5469 Q494.2969,236.4375 494.5156,236.4375 Q494.8906,236.4375 495.125,236.7031 Q495.3594,236.9531 495.3594,237.5625 L495.3594,239.0156 Q495.3594,239.625 495.125,239.8906 Q494.8906,240.1563 494.5156,240.1563 Q494.1719,240.1563 493.9688,239.9531 Q493.7656,239.7656 493.6563,239.25 Q493.6094,238.8906 493.4219,238.7031 Q493.0938,238.3281 492.4844,238.1094 Q491.875,237.8906 491.25,237.8906 Q490.4844,237.8906 489.8438,238.2188 Q489.2188,238.5469 488.7188,239.2969 Q488.2344,240.0469 488.2344,241.0781 L488.2344,242.1719 Q488.2344,243.4063 489.125,244.2344 Q490.0156,245.0469 491.6094,245.0469 Q492.5469,245.0469 493.2031,244.7969 Q493.5938,244.6406 494.0156,244.2031 Q494.2813,243.9375 494.4219,243.8594 Q494.5781,243.7813 494.7813,243.7813 Q495.1094,243.7813 495.3594,244.0469 Q495.625,244.2969 495.625,244.6406 Q495.625,244.9844 495.2813,245.3906 Q494.7813,245.9688 493.9844,246.2969 Q492.9063,246.75 491.6094,246.75 Q490.0938,246.75 488.8906,246.125 Q487.9063,245.625 487.2188,244.5625 Q486.5313,243.4844 486.5313,242.2031 L486.5313,241.0469 Q486.5313,239.7188 487.1406,238.5781 Q487.7656,237.4219 488.8594,236.8125 Q489.9531,236.1875 491.1875,236.1875 Q491.9219,236.1875 492.5625,236.3594 Q493.2188,236.5156 493.7656,236.875 Z " fill="#000000"/><text fill="#000000" font-family="sans-serif" font-size="14" lengthAdjust="spacing" textLength="49" x="505" y="246.7285">Student</text><line style="stroke:#181818;stroke-width:0.5;" x1="477" x2="556" y1="257" y2="257"/><line style="stroke:#181818;stroke-width:0.5;" x1="477" x2="556" y1="265" y2="265"/></g><!--MD5=[71e8807956d33805e77353b9d7e2df39]
class Evaluation--><g id="elem_Evaluation"><rect codeLine="10" fill="#F1F1F1" height="48" id="Evaluation" rx="2.5" ry="2.5" style="stroke:#181818;stroke-width:0.5;" width="98" x="455.5" y="334"/><ellipse cx="470.5" cy="350" fill="#ADD1B2" rx="11" ry="11" style="stroke:#181818;stroke-width:1.0;"/><path d="M473.2656,345.875 Q473.4219,345.6563 473.6094,345.5469 Q473.7969,345.4375 474.0156,345.4375 Q474.3906,345.4375 474.625,345.7031 Q474.8594,345.9531 474.8594,346.5625 L474.8594,348.0156 Q474.8594,348.625 474.625,348.8906 Q474.3906,349.1563 474.0156,349.1563 Q473.6719,349.1563 473.4688,348.9531 Q473.2656,348.7656 473.1563,348.25 Q473.1094,347.8906 472.9219,347.7031 Q472.5938,347.3281 471.9844,347.1094 Q471.375,346.8906 470.75,346.8906 Q469.9844,346.8906 469.3438,347.2188 Q468.7188,347.5469 468.2188,348.2969 Q467.7344,349.0469 467.7344,350.0781 L467.7344,351.1719 Q467.7344,352.4063 468.625,353.2344 Q469.5156,354.0469 471.1094,354.0469 Q472.0469,354.0469 472.7031,353.7969 Q473.0938,353.6406 473.5156,353.2031 Q473.7813,352.9375 473.9219,352.8594 Q474.0781,352.7813 474.2813,352.7813 Q474.6094,352.7813 474.8594,353.0469 Q475.125,353.2969 475.125,353.6406 Q475.125,353.9844 474.7813,354.3906 Q474.2813,354.9688 473.4844,355.2969 Q472.4063,355.75 471.1094,355.75 Q469.5938,355.75 468.3906,355.125 Q467.4063,354.625 466.7188,353.5625 Q466.0313,352.4844 466.0313,351.2031 L466.0313,350.0469 Q466.0313,348.7188 466.6406,347.5781 Q467.2656,346.4219 468.3594,345.8125 Q469.4531,345.1875 470.6875,345.1875 Q471.4219,345.1875 472.0625,345.3594 Q472.7188,345.5156 473.2656,345.875 Z " fill="#000000"/><text fill="#000000" font-family="sans-serif" font-size="14" lengthAdjust="spacing" textLength="66" x="484.5" y="355.7285">Evaluation</text><line style="stroke:#181818;stroke-width:0.5;" x1="456.5" x2="552.5" y1="366" y2="366"/><line style="stroke:#181818;stroke-width:0.5;" x1="456.5" x2="552.5" y1="374" y2="374"/></g><!--MD5=[a96594a83e2ecdc78cbf17c2ddf01934]
class Category--><g id="elem_Category"><rect codeLine="12" fill="#F1F1F1" height="48" id="Category" rx="2.5" ry="2.5" style="stroke:#181818;stroke-width:0.5;" width="90" x="572.5" y="788"/><ellipse cx="587.5" cy="804" fill="#ADD1B2" rx="11" ry="11" style="stroke:#181818;stroke-width:1.0;"/><path d="M590.2656,799.875 Q590.4219,799.6563 590.6094,799.5469 Q590.7969,799.4375 591.0156,799.4375 Q591.3906,799.4375 591.625,799.7031 Q591.8594,799.9531 591.8594,800.5625 L591.8594,802.0156 Q591.8594,802.625 591.625,802.8906 Q591.3906,803.1563 591.0156,803.1563 Q590.6719,803.1563 590.4688,802.9531 Q590.2656,802.7656 590.1563,802.25 Q590.1094,801.8906 589.9219,801.7031 Q589.5938,801.3281 588.9844,801.1094 Q588.375,800.8906 587.75,800.8906 Q586.9844,800.8906 586.3438,801.2188 Q585.7188,801.5469 585.2188,802.2969 Q584.7344,803.0469 584.7344,804.0781 L584.7344,805.1719 Q584.7344,806.4063 585.625,807.2344 Q586.5156,808.0469 588.1094,808.0469 Q589.0469,808.0469 589.7031,807.7969 Q590.0938,807.6406 590.5156,807.2031 Q590.7813,806.9375 590.9219,806.8594 Q591.0781,806.7813 591.2813,806.7813 Q591.6094,806.7813 591.8594,807.0469 Q592.125,807.2969 592.125,807.6406 Q592.125,807.9844 591.7813,808.3906 Q591.2813,808.9688 590.4844,809.2969 Q589.4063,809.75 588.1094,809.75 Q586.5938,809.75 585.3906,809.125 Q584.4063,808.625 583.7188,807.5625 Q583.0313,806.4844 583.0313,805.2031 L583.0313,804.0469 Q583.0313,802.7188 583.6406,801.5781 Q584.2656,800.4219 585.3594,799.8125 Q586.4531,799.1875 587.6875,799.1875 Q588.4219,799.1875 589.0625,799.3594 Q589.7188,799.5156 590.2656,799.875 Z " fill="#000000"/><text fill="#000000" font-family="sans-serif" font-size="14" lengthAdjust="spacing" textLength="58" x="601.5" y="809.7285">Category</text><line style="stroke:#181818;stroke-width:0.5;" x1="573.5" x2="661.5" y1="820" y2="820"/><line style="stroke:#181818;stroke-width:0.5;" x1="573.5" x2="661.5" y1="828" y2="828"/></g><!--MD5=[df38be88ccee13e832d6fafd6288a4ca]
class Test--><g id="elem_Test"><rect codeLine="14" fill="#F1F1F1" height="48" id="Test" rx="2.5" ry="2.5" style="stroke:#181818;stroke-width:0.5;" width="60" x="418.5" y="443"/><ellipse cx="433.5" cy="459" fill="#ADD1B2" rx="11" ry="11" style="stroke:#181818;stroke-width:1.0;"/><path d="M436.2656,454.875 Q436.4219,454.6563 436.6094,454.5469 Q436.7969,454.4375 437.0156,454.4375 Q437.3906,454.4375 437.625,454.7031 Q437.8594,454.9531 437.8594,455.5625 L437.8594,457.0156 Q437.8594,457.625 437.625,457.8906 Q437.3906,458.1563 437.0156,458.1563 Q436.6719,458.1563 436.4688,457.9531 Q436.2656,457.7656 436.1563,457.25 Q436.1094,456.8906 435.9219,456.7031 Q435.5938,456.3281 434.9844,456.1094 Q434.375,455.8906 433.75,455.8906 Q432.9844,455.8906 432.3438,456.2188 Q431.7188,456.5469 431.2188,457.2969 Q430.7344,458.0469 430.7344,459.0781 L430.7344,460.1719 Q430.7344,461.4063 431.625,462.2344 Q432.5156,463.0469 434.1094,463.0469 Q435.0469,463.0469 435.7031,462.7969 Q436.0938,462.6406 436.5156,462.2031 Q436.7813,461.9375 436.9219,461.8594 Q437.0781,461.7813 437.2813,461.7813 Q437.6094,461.7813 437.8594,462.0469 Q438.125,462.2969 438.125,462.6406 Q438.125,462.9844 437.7813,463.3906 Q437.2813,463.9688 436.4844,464.2969 Q435.4063,464.75 434.1094,464.75 Q432.5938,464.75 431.3906,464.125 Q430.4063,463.625 429.7188,462.5625 Q429.0313,461.4844 429.0313,460.2031 L429.0313,459.0469 Q429.0313,457.7188 429.6406,456.5781 Q430.2656,455.4219 431.3594,454.8125 Q432.4531,454.1875 433.6875,454.1875 Q434.4219,454.1875 435.0625,454.3594 Q435.7188,454.5156 436.2656,454.875 Z " fill="#000000"/><text fill="#000000" font-family="sans-serif" font-size="14" lengthAdjust="spacing" textLength="28" x="447.5" y="464.7285">Test</text><line style="stroke:#181818;stroke-width:0.5;" x1="419.5" x2="477.5" y1="475" y2="475"/><line style="stroke:#181818;stroke-width:0.5;" x1="419.5" x2="477.5" y1="483" y2="483"/></g><!--MD5=[251997ad79b4d4948a25d3b27294058e]
class AnswersToReview--><g id="elem_AnswersToReview"><rect codeLine="16" fill="#F1F1F1" height="48" id="AnswersToReview" rx="2.5" ry="2.5" style="stroke:#181818;stroke-width:0.5;" width="147" x="418" y="1053"/><ellipse cx="433" cy="1069" fill="#ADD1B2" rx="11" ry="11" style="stroke:#181818;stroke-width:1.0;"/><path d="M435.7656,1064.875 Q435.9219,1064.6563 436.1094,1064.5469 Q436.2969,1064.4375 436.5156,1064.4375 Q436.8906,1064.4375 437.125,1064.7031 Q437.3594,1064.9531 437.3594,1065.5625 L437.3594,1067.0156 Q437.3594,1067.625 437.125,1067.8906 Q436.8906,1068.1563 436.5156,1068.1563 Q436.1719,1068.1563 435.9688,1067.9531 Q435.7656,1067.7656 435.6563,1067.25 Q435.6094,1066.8906 435.4219,1066.7031 Q435.0938,1066.3281 434.4844,1066.1094 Q433.875,1065.8906 433.25,1065.8906 Q432.4844,1065.8906 431.8438,1066.2188 Q431.2188,1066.5469 430.7188,1067.2969 Q430.2344,1068.0469 430.2344,1069.0781 L430.2344,1070.1719 Q430.2344,1071.4063 431.125,1072.2344 Q432.0156,1073.0469 433.6094,1073.0469 Q434.5469,1073.0469 435.2031,1072.7969 Q435.5938,1072.6406 436.0156,1072.2031 Q436.2813,1071.9375 436.4219,1071.8594 Q436.5781,1071.7813 436.7813,1071.7813 Q437.1094,1071.7813 437.3594,1072.0469 Q437.625,1072.2969 437.625,1072.6406 Q437.625,1072.9844 437.2813,1073.3906 Q436.7813,1073.9688 435.9844,1074.2969 Q434.9063,1074.75 433.6094,1074.75 Q432.0938,1074.75 430.8906,1074.125 Q429.9063,1073.625 429.2188,1072.5625 Q428.5313,1071.4844 428.5313,1070.2031 L428.5313,1069.0469 Q428.5313,1067.7188 429.1406,1066.5781 Q429.7656,1065.4219 430.8594,1064.8125 Q431.9531,1064.1875 433.1875,1064.1875 Q433.9219,1064.1875 434.5625,1064.3594 Q435.2188,1064.5156 435.7656,1064.875 Z " fill="#000000"/><text fill="#000000" font-family="sans-serif" font-size="14" lengthAdjust="spacing" textLength="115" x="447" y="1074.7285">AnswersToReview</text><line style="stroke:#181818;stroke-width:0.5;" x1="419" x2="564" y1="1085" y2="1085"/><line style="stroke:#181818;stroke-width:0.5;" x1="419" x2="564" y1="1093" y2="1093"/></g><!--MD5=[9d451b2f92d848a8e2d1a4dab2b1c6bf]
class Concept--><g id="elem_Concept"><rect codeLine="18" fill="#F1F1F1" height="65.6094" id="Concept" rx="2.5" ry="2.5" style="stroke:#181818;stroke-width:0.5;" width="85" x="449" y="661"/><ellipse cx="464" cy="677" fill="#ADD1B2" rx="11" ry="11" style="stroke:#181818;stroke-width:1.0;"/><path d="M466.7656,672.875 Q466.9219,672.6563 467.1094,672.5469 Q467.2969,672.4375 467.5156,672.4375 Q467.8906,672.4375 468.125,672.7031 Q468.3594,672.9531 468.3594,673.5625 L468.3594,675.0156 Q468.3594,675.625 468.125,675.8906 Q467.8906,676.1563 467.5156,676.1563 Q467.1719,676.1563 466.9688,675.9531 Q466.7656,675.7656 466.6563,675.25 Q466.6094,674.8906 466.4219,674.7031 Q466.0938,674.3281 465.4844,674.1094 Q464.875,673.8906 464.25,673.8906 Q463.4844,673.8906 462.8438,674.2188 Q462.2188,674.5469 461.7188,675.2969 Q461.2344,676.0469 461.2344,677.0781 L461.2344,678.1719 Q461.2344,679.4063 462.125,680.2344 Q463.0156,681.0469 464.6094,681.0469 Q465.5469,681.0469 466.2031,680.7969 Q466.5938,680.6406 467.0156,680.2031 Q467.2813,679.9375 467.4219,679.8594 Q467.5781,679.7813 467.7813,679.7813 Q468.1094,679.7813 468.3594,680.0469 Q468.625,680.2969 468.625,680.6406 Q468.625,680.9844 468.2813,681.3906 Q467.7813,681.9688 466.9844,682.2969 Q465.9063,682.75 464.6094,682.75 Q463.0938,682.75 461.8906,682.125 Q460.9063,681.625 460.2188,680.5625 Q459.5313,679.4844 459.5313,678.2031 L459.5313,677.0469 Q459.5313,675.7188 460.1406,674.5781 Q460.7656,673.4219 461.8594,672.8125 Q462.9531,672.1875 464.1875,672.1875 Q464.9219,672.1875 465.5625,672.3594 Q466.2188,672.5156 466.7656,672.875 Z " fill="#000000"/><text fill="#000000" font-family="sans-serif" font-size="14" lengthAdjust="spacing" textLength="53" x="478" y="682.7285">Concept</text><line style="stroke:#181818;stroke-width:0.5;" x1="450" x2="533" y1="693" y2="693"/><text fill="#000000" font-family="sans-serif" font-size="14" lengthAdjust="spacing" textLength="52" x="455" y="711.5332">keyword</text><line style="stroke:#181818;stroke-width:0.5;" x1="450" x2="533" y1="718.6094" y2="718.6094"/></g><!--MD5=[f7b1256a464262a81d5827fb39e684fb]
class Open--><g id="elem_Open"><rect codeLine="22" fill="#F1F1F1" height="48" id="Open" rx="2.5" ry="2.5" style="stroke:#181818;stroke-width:0.5;" width="67" x="7" y="1162"/><ellipse cx="22" cy="1178" fill="#ADD1B2" rx="11" ry="11" style="stroke:#181818;stroke-width:1.0;"/><path d="M24.7656,1173.875 Q24.9219,1173.6563 25.1094,1173.5469 Q25.2969,1173.4375 25.5156,1173.4375 Q25.8906,1173.4375 26.125,1173.7031 Q26.3594,1173.9531 26.3594,1174.5625 L26.3594,1176.0156 Q26.3594,1176.625 26.125,1176.8906 Q25.8906,1177.1563 25.5156,1177.1563 Q25.1719,1177.1563 24.9688,1176.9531 Q24.7656,1176.7656 24.6563,1176.25 Q24.6094,1175.8906 24.4219,1175.7031 Q24.0938,1175.3281 23.4844,1175.1094 Q22.875,1174.8906 22.25,1174.8906 Q21.4844,1174.8906 20.8438,1175.2188 Q20.2188,1175.5469 19.7188,1176.2969 Q19.2344,1177.0469 19.2344,1178.0781 L19.2344,1179.1719 Q19.2344,1180.4063 20.125,1181.2344 Q21.0156,1182.0469 22.6094,1182.0469 Q23.5469,1182.0469 24.2031,1181.7969 Q24.5938,1181.6406 25.0156,1181.2031 Q25.2813,1180.9375 25.4219,1180.8594 Q25.5781,1180.7813 25.7813,1180.7813 Q26.1094,1180.7813 26.3594,1181.0469 Q26.625,1181.2969 26.625,1181.6406 Q26.625,1181.9844 26.2813,1182.3906 Q25.7813,1182.9688 24.9844,1183.2969 Q23.9063,1183.75 22.6094,1183.75 Q21.0938,1183.75 19.8906,1183.125 Q18.9063,1182.625 18.2188,1181.5625 Q17.5313,1180.4844 17.5313,1179.2031 L17.5313,1178.0469 Q17.5313,1176.7188 18.1406,1175.5781 Q18.7656,1174.4219 19.8594,1173.8125 Q20.9531,1173.1875 22.1875,1173.1875 Q22.9219,1173.1875 23.5625,1173.3594 Q24.2188,1173.5156 24.7656,1173.875 Z " fill="#000000"/><text fill="#000000" font-family="sans-serif" font-size="14" lengthAdjust="spacing" textLength="35" x="36" y="1183.7285">Open</text><line style="stroke:#181818;stroke-width:0.5;" x1="8" x2="73" y1="1194" y2="1194"/><line style="stroke:#181818;stroke-width:0.5;" x1="8" x2="73" y1="1202" y2="1202"/></g><!--MD5=[fc7123defb831ecdd44b2d9bcef6cceb]
class Question--><g id="elem_Question"><rect codeLine="24" fill="#F1F1F1" height="48" id="Question" rx="2.5" ry="2.5" style="stroke:#181818;stroke-width:0.5;" width="89" x="395" y="552"/><ellipse cx="410" cy="568" fill="#ADD1B2" rx="11" ry="11" style="stroke:#181818;stroke-width:1.0;"/><path d="M412.7656,563.875 Q412.9219,563.6563 413.1094,563.5469 Q413.2969,563.4375 413.5156,563.4375 Q413.8906,563.4375 414.125,563.7031 Q414.3594,563.9531 414.3594,564.5625 L414.3594,566.0156 Q414.3594,566.625 414.125,566.8906 Q413.8906,567.1563 413.5156,567.1563 Q413.1719,567.1563 412.9688,566.9531 Q412.7656,566.7656 412.6563,566.25 Q412.6094,565.8906 412.4219,565.7031 Q412.0938,565.3281 411.4844,565.1094 Q410.875,564.8906 410.25,564.8906 Q409.4844,564.8906 408.8438,565.2188 Q408.2188,565.5469 407.7188,566.2969 Q407.2344,567.0469 407.2344,568.0781 L407.2344,569.1719 Q407.2344,570.4063 408.125,571.2344 Q409.0156,572.0469 410.6094,572.0469 Q411.5469,572.0469 412.2031,571.7969 Q412.5938,571.6406 413.0156,571.2031 Q413.2813,570.9375 413.4219,570.8594 Q413.5781,570.7813 413.7813,570.7813 Q414.1094,570.7813 414.3594,571.0469 Q414.625,571.2969 414.625,571.6406 Q414.625,571.9844 414.2813,572.3906 Q413.7813,572.9688 412.9844,573.2969 Q411.9063,573.75 410.6094,573.75 Q409.0938,573.75 407.8906,573.125 Q406.9063,572.625 406.2188,571.5625 Q405.5313,570.4844 405.5313,569.2031 L405.5313,568.0469 Q405.5313,566.7188 406.1406,565.5781 Q406.7656,564.4219 407.8594,563.8125 Q408.9531,563.1875 410.1875,563.1875 Q410.9219,563.1875 411.5625,563.3594 Q412.2188,563.5156 412.7656,563.875 Z " fill="#000000"/><text fill="#000000" font-family="sans-serif" font-size="14" lengthAdjust="spacing" textLength="57" x="424" y="573.7285">Question</text><line style="stroke:#181818;stroke-width:0.5;" x1="396" x2="483" y1="584" y2="584"/><line style="stroke:#181818;stroke-width:0.5;" x1="396" x2="483" y1="592" y2="592"/></g><!--MD5=[210f05ad84ecfe37f8378e5618b7165d]
class MultipleChoice--><g id="elem_MultipleChoice"><rect codeLine="26" fill="#F1F1F1" height="48" id="MultipleChoice" rx="2.5" ry="2.5" style="stroke:#181818;stroke-width:0.5;" width="124" x="144.5" y="788"/><ellipse cx="159.5" cy="804" fill="#ADD1B2" rx="11" ry="11" style="stroke:#181818;stroke-width:1.0;"/><path d="M162.2656,799.875 Q162.4219,799.6563 162.6094,799.5469 Q162.7969,799.4375 163.0156,799.4375 Q163.3906,799.4375 163.625,799.7031 Q163.8594,799.9531 163.8594,800.5625 L163.8594,802.0156 Q163.8594,802.625 163.625,802.8906 Q163.3906,803.1563 163.0156,803.1563 Q162.6719,803.1563 162.4688,802.9531 Q162.2656,802.7656 162.1563,802.25 Q162.1094,801.8906 161.9219,801.7031 Q161.5938,801.3281 160.9844,801.1094 Q160.375,800.8906 159.75,800.8906 Q158.9844,800.8906 158.3438,801.2188 Q157.7188,801.5469 157.2188,802.2969 Q156.7344,803.0469 156.7344,804.0781 L156.7344,805.1719 Q156.7344,806.4063 157.625,807.2344 Q158.5156,808.0469 160.1094,808.0469 Q161.0469,808.0469 161.7031,807.7969 Q162.0938,807.6406 162.5156,807.2031 Q162.7813,806.9375 162.9219,806.8594 Q163.0781,806.7813 163.2813,806.7813 Q163.6094,806.7813 163.8594,807.0469 Q164.125,807.2969 164.125,807.6406 Q164.125,807.9844 163.7813,808.3906 Q163.2813,808.9688 162.4844,809.2969 Q161.4063,809.75 160.1094,809.75 Q158.5938,809.75 157.3906,809.125 Q156.4063,808.625 155.7188,807.5625 Q155.0313,806.4844 155.0313,805.2031 L155.0313,804.0469 Q155.0313,802.7188 155.6406,801.5781 Q156.2656,800.4219 157.3594,799.8125 Q158.4531,799.1875 159.6875,799.1875 Q160.4219,799.1875 161.0625,799.3594 Q161.7188,799.5156 162.2656,799.875 Z " fill="#000000"/><text fill="#000000" font-family="sans-serif" font-size="14" lengthAdjust="spacing" textLength="92" x="173.5" y="809.7285">MultipleChoice</text><line style="stroke:#181818;stroke-width:0.5;" x1="145.5" x2="267.5" y1="820" y2="820"/><line style="stroke:#181818;stroke-width:0.5;" x1="145.5" x2="267.5" y1="828" y2="828"/></g><!--MD5=[a61a298976b7d1d94498f45c2ebfa10b]
class Statement--><g id="elem_Statement"><rect codeLine="28" fill="#F1F1F1" height="48" id="Statement" rx="2.5" ry="2.5" style="stroke:#181818;stroke-width:0.5;" width="96" x="94.5" y="670"/><ellipse cx="109.5" cy="686" fill="#ADD1B2" rx="11" ry="11" style="stroke:#181818;stroke-width:1.0;"/><path d="M112.2656,681.875 Q112.4219,681.6563 112.6094,681.5469 Q112.7969,681.4375 113.0156,681.4375 Q113.3906,681.4375 113.625,681.7031 Q113.8594,681.9531 113.8594,682.5625 L113.8594,684.0156 Q113.8594,684.625 113.625,684.8906 Q113.3906,685.1563 113.0156,685.1563 Q112.6719,685.1563 112.4688,684.9531 Q112.2656,684.7656 112.1563,684.25 Q112.1094,683.8906 111.9219,683.7031 Q111.5938,683.3281 110.9844,683.1094 Q110.375,682.8906 109.75,682.8906 Q108.9844,682.8906 108.3438,683.2188 Q107.7188,683.5469 107.2188,684.2969 Q106.7344,685.0469 106.7344,686.0781 L106.7344,687.1719 Q106.7344,688.4063 107.625,689.2344 Q108.5156,690.0469 110.1094,690.0469 Q111.0469,690.0469 111.7031,689.7969 Q112.0938,689.6406 112.5156,689.2031 Q112.7813,688.9375 112.9219,688.8594 Q113.0781,688.7813 113.2813,688.7813 Q113.6094,688.7813 113.8594,689.0469 Q114.125,689.2969 114.125,689.6406 Q114.125,689.9844 113.7813,690.3906 Q113.2813,690.9688 112.4844,691.2969 Q111.4063,691.75 110.1094,691.75 Q108.5938,691.75 107.3906,691.125 Q106.4063,690.625 105.7188,689.5625 Q105.0313,688.4844 105.0313,687.2031 L105.0313,686.0469 Q105.0313,684.7188 105.6406,683.5781 Q106.2656,682.4219 107.3594,681.8125 Q108.4531,681.1875 109.6875,681.1875 Q110.4219,681.1875 111.0625,681.3594 Q111.7188,681.5156 112.2656,681.875 Z " fill="#000000"/><text fill="#000000" font-family="sans-serif" font-size="14" lengthAdjust="spacing" textLength="64" x="123.5" y="691.7285">Statement</text><line style="stroke:#181818;stroke-width:0.5;" x1="95.5" x2="189.5" y1="702" y2="702"/><line style="stroke:#181818;stroke-width:0.5;" x1="95.5" x2="189.5" y1="710" y2="710"/></g><!--MD5=[f9fadfa5a66b7e5a67b370cd443ffe52]
class Answer--><g id="elem_Answer"><rect codeLine="30" fill="#F1F1F1" height="48" id="Answer" rx="2.5" ry="2.5" style="stroke:#181818;stroke-width:0.5;" width="78" x="225.5" y="670"/><ellipse cx="240.5" cy="686" fill="#ADD1B2" rx="11" ry="11" style="stroke:#181818;stroke-width:1.0;"/><path d="M243.2656,681.875 Q243.4219,681.6563 243.6094,681.5469 Q243.7969,681.4375 244.0156,681.4375 Q244.3906,681.4375 244.625,681.7031 Q244.8594,681.9531 244.8594,682.5625 L244.8594,684.0156 Q244.8594,684.625 244.625,684.8906 Q244.3906,685.1563 244.0156,685.1563 Q243.6719,685.1563 243.4688,684.9531 Q243.2656,684.7656 243.1563,684.25 Q243.1094,683.8906 242.9219,683.7031 Q242.5938,683.3281 241.9844,683.1094 Q241.375,682.8906 240.75,682.8906 Q239.9844,682.8906 239.3438,683.2188 Q238.7188,683.5469 238.2188,684.2969 Q237.7344,685.0469 237.7344,686.0781 L237.7344,687.1719 Q237.7344,688.4063 238.625,689.2344 Q239.5156,690.0469 241.1094,690.0469 Q242.0469,690.0469 242.7031,689.7969 Q243.0938,689.6406 243.5156,689.2031 Q243.7813,688.9375 243.9219,688.8594 Q244.0781,688.7813 244.2813,688.7813 Q244.6094,688.7813 244.8594,689.0469 Q245.125,689.2969 245.125,689.6406 Q245.125,689.9844 244.7813,690.3906 Q244.2813,690.9688 243.4844,691.2969 Q242.4063,691.75 241.1094,691.75 Q239.5938,691.75 238.3906,691.125 Q237.4063,690.625 236.7188,689.5625 Q236.0313,688.4844 236.0313,687.2031 L236.0313,686.0469 Q236.0313,684.7188 236.6406,683.5781 Q237.2656,682.4219 238.3594,681.8125 Q239.4531,681.1875 240.6875,681.1875 Q241.4219,681.1875 242.0625,681.3594 Q242.7188,681.5156 243.2656,681.875 Z " fill="#000000"/><text fill="#000000" font-family="sans-serif" font-size="14" lengthAdjust="spacing" textLength="46" x="254.5" y="691.7285">Answer</text><line style="stroke:#181818;stroke-width:0.5;" x1="226.5" x2="302.5" y1="702" y2="702"/><line style="stroke:#181818;stroke-width:0.5;" x1="226.5" x2="302.5" y1="710" y2="710"/></g><!--MD5=[bc629657279eaa9349f412646650f2c5]
class Correct--><g id="elem_Correct"><rect codeLine="32" fill="#F1F1F1" height="48" id="Correct" rx="2.5" ry="2.5" style="stroke:#181818;stroke-width:0.5;" width="79" x="237" y="944"/><ellipse cx="252" cy="960" fill="#ADD1B2" rx="11" ry="11" style="stroke:#181818;stroke-width:1.0;"/><path d="M254.7656,955.875 Q254.9219,955.6563 255.1094,955.5469 Q255.2969,955.4375 255.5156,955.4375 Q255.8906,955.4375 256.125,955.7031 Q256.3594,955.9531 256.3594,956.5625 L256.3594,958.0156 Q256.3594,958.625 256.125,958.8906 Q255.8906,959.1563 255.5156,959.1563 Q255.1719,959.1563 254.9688,958.9531 Q254.7656,958.7656 254.6563,958.25 Q254.6094,957.8906 254.4219,957.7031 Q254.0938,957.3281 253.4844,957.1094 Q252.875,956.8906 252.25,956.8906 Q251.4844,956.8906 250.8438,957.2188 Q250.2188,957.5469 249.7188,958.2969 Q249.2344,959.0469 249.2344,960.0781 L249.2344,961.1719 Q249.2344,962.4063 250.125,963.2344 Q251.0156,964.0469 252.6094,964.0469 Q253.5469,964.0469 254.2031,963.7969 Q254.5938,963.6406 255.0156,963.2031 Q255.2813,962.9375 255.4219,962.8594 Q255.5781,962.7813 255.7813,962.7813 Q256.1094,962.7813 256.3594,963.0469 Q256.625,963.2969 256.625,963.6406 Q256.625,963.9844 256.2813,964.3906 Q255.7813,964.9688 254.9844,965.2969 Q253.9063,965.75 252.6094,965.75 Q251.0938,965.75 249.8906,965.125 Q248.9063,964.625 248.2188,963.5625 Q247.5313,962.4844 247.5313,961.2031 L247.5313,960.0469 Q247.5313,958.7188 248.1406,957.5781 Q248.7656,956.4219 249.8594,955.8125 Q250.9531,955.1875 252.1875,955.1875 Q252.9219,955.1875 253.5625,955.3594 Q254.2188,955.5156 254.7656,955.875 Z " fill="#000000"/><text fill="#000000" font-family="sans-serif" font-size="14" lengthAdjust="spacing" textLength="47" x="266" y="965.7285">Correct</text><line style="stroke:#181818;stroke-width:0.5;" x1="238" x2="315" y1="976" y2="976"/><line style="stroke:#181818;stroke-width:0.5;" x1="238" x2="315" y1="984" y2="984"/></g><!--MD5=[37923dc032bbfca87d4413e584fa2cda]
class Incorrect--><g id="elem_Incorrect"><rect codeLine="34" fill="#F1F1F1" height="48" id="Incorrect" rx="2.5" ry="2.5" style="stroke:#181818;stroke-width:0.5;" width="87" x="100" y="944"/><ellipse cx="115" cy="960" fill="#ADD1B2" rx="11" ry="11" style="stroke:#181818;stroke-width:1.0;"/><path d="M117.7656,955.875 Q117.9219,955.6563 118.1094,955.5469 Q118.2969,955.4375 118.5156,955.4375 Q118.8906,955.4375 119.125,955.7031 Q119.3594,955.9531 119.3594,956.5625 L119.3594,958.0156 Q119.3594,958.625 119.125,958.8906 Q118.8906,959.1563 118.5156,959.1563 Q118.1719,959.1563 117.9688,958.9531 Q117.7656,958.7656 117.6563,958.25 Q117.6094,957.8906 117.4219,957.7031 Q117.0938,957.3281 116.4844,957.1094 Q115.875,956.8906 115.25,956.8906 Q114.4844,956.8906 113.8438,957.2188 Q113.2188,957.5469 112.7188,958.2969 Q112.2344,959.0469 112.2344,960.0781 L112.2344,961.1719 Q112.2344,962.4063 113.125,963.2344 Q114.0156,964.0469 115.6094,964.0469 Q116.5469,964.0469 117.2031,963.7969 Q117.5938,963.6406 118.0156,963.2031 Q118.2813,962.9375 118.4219,962.8594 Q118.5781,962.7813 118.7813,962.7813 Q119.1094,962.7813 119.3594,963.0469 Q119.625,963.2969 119.625,963.6406 Q119.625,963.9844 119.2813,964.3906 Q118.7813,964.9688 117.9844,965.2969 Q116.9063,965.75 115.6094,965.75 Q114.0938,965.75 112.8906,965.125 Q111.9063,964.625 111.2188,963.5625 Q110.5313,962.4844 110.5313,961.2031 L110.5313,960.0469 Q110.5313,958.7188 111.1406,957.5781 Q111.7656,956.4219 112.8594,955.8125 Q113.9531,955.1875 115.1875,955.1875 Q115.9219,955.1875 116.5625,955.3594 Q117.2188,955.5156 117.7656,955.875 Z " fill="#000000"/><text fill="#000000" font-family="sans-serif" font-size="14" lengthAdjust="spacing" textLength="55" x="129" y="965.7285">Incorrect</text><line style="stroke:#181818;stroke-width:0.5;" x1="101" x2="186" y1="976" y2="976"/><line style="stroke:#181818;stroke-width:0.5;" x1="101" x2="186" y1="984" y2="984"/></g><!--MD5=[af22135d5be6ed11ccd2d02fa51653b3]
class Definition--><g id="elem_Definition"><rect fill="#F1F1F1" height="48" id="Definition" rx="2.5" ry="2.5" style="stroke:#181818;stroke-width:0.5;" width="91" x="446" y="788"/><ellipse cx="461" cy="804" fill="#ADD1B2" rx="11" ry="11" style="stroke:#181818;stroke-width:1.0;"/><path d="M463.7656,799.875 Q463.9219,799.6563 464.1094,799.5469 Q464.2969,799.4375 464.5156,799.4375 Q464.8906,799.4375 465.125,799.7031 Q465.3594,799.9531 465.3594,800.5625 L465.3594,802.0156 Q465.3594,802.625 465.125,802.8906 Q464.8906,803.1563 464.5156,803.1563 Q464.1719,803.1563 463.9688,802.9531 Q463.7656,802.7656 463.6563,802.25 Q463.6094,801.8906 463.4219,801.7031 Q463.0938,801.3281 462.4844,801.1094 Q461.875,800.8906 461.25,800.8906 Q460.4844,800.8906 459.8438,801.2188 Q459.2188,801.5469 458.7188,802.2969 Q458.2344,803.0469 458.2344,804.0781 L458.2344,805.1719 Q458.2344,806.4063 459.125,807.2344 Q460.0156,808.0469 461.6094,808.0469 Q462.5469,808.0469 463.2031,807.7969 Q463.5938,807.6406 464.0156,807.2031 Q464.2813,806.9375 464.4219,806.8594 Q464.5781,806.7813 464.7813,806.7813 Q465.1094,806.7813 465.3594,807.0469 Q465.625,807.2969 465.625,807.6406 Q465.625,807.9844 465.2813,808.3906 Q464.7813,808.9688 463.9844,809.2969 Q462.9063,809.75 461.6094,809.75 Q460.0938,809.75 458.8906,809.125 Q457.9063,808.625 457.2188,807.5625 Q456.5313,806.4844 456.5313,805.2031 L456.5313,804.0469 Q456.5313,802.7188 457.1406,801.5781 Q457.7656,800.4219 458.8594,799.8125 Q459.9531,799.1875 461.1875,799.1875 Q461.9219,799.1875 462.5625,799.3594 Q463.2188,799.5156 463.7656,799.875 Z " fill="#000000"/><text fill="#000000" font-family="sans-serif" font-size="14" lengthAdjust="spacing" textLength="59" x="475" y="809.7285">Definition</text><line style="stroke:#181818;stroke-width:0.5;" x1="447" x2="536" y1="820" y2="820"/><line style="stroke:#181818;stroke-width:0.5;" x1="447" x2="536" y1="828" y2="828"/></g><!--MD5=[9b4de504215638550a8bb9c080b7ee00]
class Justification--><g id="elem_Justification"><rect fill="#F1F1F1" height="48" id="Justification" rx="2.5" ry="2.5" style="stroke:#181818;stroke-width:0.5;" width="105" x="439" y="944"/><ellipse cx="454" cy="960" fill="#ADD1B2" rx="11" ry="11" style="stroke:#181818;stroke-width:1.0;"/><path d="M456.7656,955.875 Q456.9219,955.6563 457.1094,955.5469 Q457.2969,955.4375 457.5156,955.4375 Q457.8906,955.4375 458.125,955.7031 Q458.3594,955.9531 458.3594,956.5625 L458.3594,958.0156 Q458.3594,958.625 458.125,958.8906 Q457.8906,959.1563 457.5156,959.1563 Q457.1719,959.1563 456.9688,958.9531 Q456.7656,958.7656 456.6563,958.25 Q456.6094,957.8906 456.4219,957.7031 Q456.0938,957.3281 455.4844,957.1094 Q454.875,956.8906 454.25,956.8906 Q453.4844,956.8906 452.8438,957.2188 Q452.2188,957.5469 451.7188,958.2969 Q451.2344,959.0469 451.2344,960.0781 L451.2344,961.1719 Q451.2344,962.4063 452.125,963.2344 Q453.0156,964.0469 454.6094,964.0469 Q455.5469,964.0469 456.2031,963.7969 Q456.5938,963.6406 457.0156,963.2031 Q457.2813,962.9375 457.4219,962.8594 Q457.5781,962.7813 457.7813,962.7813 Q458.1094,962.7813 458.3594,963.0469 Q458.625,963.2969 458.625,963.6406 Q458.625,963.9844 458.2813,964.3906 Q457.7813,964.9688 456.9844,965.2969 Q455.9063,965.75 454.6094,965.75 Q453.0938,965.75 451.8906,965.125 Q450.9063,964.625 450.2188,963.5625 Q449.5313,962.4844 449.5313,961.2031 L449.5313,960.0469 Q449.5313,958.7188 450.1406,957.5781 Q450.7656,956.4219 451.8594,955.8125 Q452.9531,955.1875 454.1875,955.1875 Q454.9219,955.1875 455.5625,955.3594 Q456.2188,955.5156 456.7656,955.875 Z " fill="#000000"/><text fill="#000000" font-family="sans-serif" font-size="14" lengthAdjust="spacing" textLength="73" x="468" y="965.7285">Justification</text><line style="stroke:#181818;stroke-width:0.5;" x1="440" x2="543" y1="976" y2="976"/><line style="stroke:#181818;stroke-width:0.5;" x1="440" x2="543" y1="984" y2="984"/></g><!--MD5=[534474e9f05b14d7c70186ae077f30e0]
class Relation--><g id="elem_Relation"><rect fill="#F1F1F1" height="48" id="Relation" rx="2.5" ry="2.5" style="stroke:#181818;stroke-width:0.5;" width="84" x="347.5" y="866"/><ellipse cx="362.5" cy="882" fill="#ADD1B2" rx="11" ry="11" style="stroke:#181818;stroke-width:1.0;"/><path d="M365.2656,877.875 Q365.4219,877.6563 365.6094,877.5469 Q365.7969,877.4375 366.0156,877.4375 Q366.3906,877.4375 366.625,877.7031 Q366.8594,877.9531 366.8594,878.5625 L366.8594,880.0156 Q366.8594,880.625 366.625,880.8906 Q366.3906,881.1563 366.0156,881.1563 Q365.6719,881.1563 365.4688,880.9531 Q365.2656,880.7656 365.1563,880.25 Q365.1094,879.8906 364.9219,879.7031 Q364.5938,879.3281 363.9844,879.1094 Q363.375,878.8906 362.75,878.8906 Q361.9844,878.8906 361.3438,879.2188 Q360.7188,879.5469 360.2188,880.2969 Q359.7344,881.0469 359.7344,882.0781 L359.7344,883.1719 Q359.7344,884.4063 360.625,885.2344 Q361.5156,886.0469 363.1094,886.0469 Q364.0469,886.0469 364.7031,885.7969 Q365.0938,885.6406 365.5156,885.2031 Q365.7813,884.9375 365.9219,884.8594 Q366.0781,884.7813 366.2813,884.7813 Q366.6094,884.7813 366.8594,885.0469 Q367.125,885.2969 367.125,885.6406 Q367.125,885.9844 366.7813,886.3906 Q366.2813,886.9688 365.4844,887.2969 Q364.4063,887.75 363.1094,887.75 Q361.5938,887.75 360.3906,887.125 Q359.4063,886.625 358.7188,885.5625 Q358.0313,884.4844 358.0313,883.2031 L358.0313,882.0469 Q358.0313,880.7188 358.6406,879.5781 Q359.2656,878.4219 360.3594,877.8125 Q361.4531,877.1875 362.6875,877.1875 Q363.4219,877.1875 364.0625,877.3594 Q364.7188,877.5156 365.2656,877.875 Z " fill="#000000"/><text fill="#000000" font-family="sans-serif" font-size="14" lengthAdjust="spacing" textLength="52" x="376.5" y="887.7285">Relation</text><line style="stroke:#181818;stroke-width:0.5;" x1="348.5" x2="430.5" y1="898" y2="898"/><line style="stroke:#181818;stroke-width:0.5;" x1="348.5" x2="430.5" y1="906" y2="906"/></g><!--MD5=[8235d596e40eaa310e25cb7e3d92ec72]
reverse link Community to User--><g id="link_Community_User"><path codeLine="36" d="M723.53,62.86 C699.46,80.14 669.99,101.3 648.24,116.92 " fill="none" id="Community-backto-User" style="stroke:#181818;stroke-width:1.0;"/><polygon fill="#181818" points="734.17,55.22,726.9629,55.4617,724.4141,62.2073,731.6212,61.9656,734.17,55.22" style="stroke:#181818;stroke-width:1.0;"/><text fill="#000000" font-family="sans-serif" font-size="13" lengthAdjust="spacing" textLength="22" x="655.9358" y="108.7172">2..n</text></g><!--MD5=[8b55897a5ea9705e017b96a45c367fde]
reverse link Community to Category--><g id="link_Community_Category"><path codeLine="37" d="M829.92,50 C870.85,65.93 916.5,93.82 916.5,139 C916.5,139 916.5,139 916.5,695 C916.5,748.8 746.12,787.48 662.59,803.21 " fill="none" id="Community-backto-Category" style="stroke:#181818;stroke-width:1.0;"/><polygon fill="none" points="817.7,45.53,821.9652,51.3444,828.9729,49.6436,824.7077,43.8292,817.7,45.53" style="stroke:#181818;stroke-width:1.0;"/><text fill="#000000" font-family="sans-serif" font-size="13" lengthAdjust="spacing" textLength="22" x="670.4777" y="798.3687">0..n</text></g><!--MD5=[d87c224b488f6c9759d0a77cb4053101]
reverse link User to Teacher--><g id="link_User_Teacher"><path codeLine="39" d="M617.5,184.41 C617.5,203.86 617.5,227.08 617.5,248 C617.5,248 617.5,248 617.5,468 C617.5,496.79 617.5,529.95 617.5,551.62 " fill="none" id="User-backto-Teacher" style="stroke:#181818;stroke-width:1.0;"/><polygon fill="none" points="610.5,184.38,617.5,164.38,624.5,184.38,610.5,184.38" style="stroke:#181818;stroke-width:1.0;"/></g><!--MD5=[29fe19ce294944fa80f389ae9bd987a4]
reverse link User to Student--><g id="link_User_Student"><path codeLine="40" d="M581.43,179.22 C567.03,194.46 550.94,211.52 538.37,224.83 " fill="none" id="User-backto-Student" style="stroke:#181818;stroke-width:1.0;"/><polygon fill="none" points="576.77,173.96,595.58,164.22,586.95,183.57,576.77,173.96" style="stroke:#181818;stroke-width:1.0;"/></g><!--MD5=[bb1d32ab59579a621cfba34f7b5d5287]
link Teacher to Category--><g id="link_Teacher_Category"><path codeLine="42" d="M617.5,600.29 C617.5,643.48 617.5,735.83 617.5,782.6 " fill="none" id="Teacher-to-Category" style="stroke:#181818;stroke-width:1.0;stroke-dasharray:7.0,7.0;"/><polygon fill="#181818" points="617.5,787.8,621.5,778.8,617.5,782.8,613.5,778.8,617.5,787.8" style="stroke:#181818;stroke-width:1.0;"/></g><!--MD5=[a8afb83bcf8ff3e1e4f8554b4cb258ee]
link Teacher to Concept--><g id="link_Teacher_Concept"><path codeLine="43" d="M592.3,600.2 C574.59,616.5 550.55,638.64 530.39,657.2 " fill="none" id="Teacher-to-Concept" style="stroke:#181818;stroke-width:1.0;stroke-dasharray:7.0,7.0;"/><polygon fill="#181818" points="526.67,660.62,536.004,657.4773,530.3522,657.2375,530.592,651.5857,526.67,660.62" style="stroke:#181818;stroke-width:1.0;"/></g><!--MD5=[f4125322de8968b604c5431ed9c8902a]
link Concept to Category--><g id="link_Concept_Category"><path codeLine="44" d="M526.26,727 C543.8,743.15 565.02,762.68 582.58,778.85 " fill="none" id="Concept-to-Category" style="stroke:#181818;stroke-width:1.0;"/><polygon fill="none" points="592.44,787.93,590.7304,780.9245,583.6062,779.8082,585.3158,786.8137,592.44,787.93" style="stroke:#181818;stroke-width:1.0;"/></g><!--MD5=[ed083f2d1ee1d19af9b715a82f936d84]
link Question to Concept--><g id="link_Question_Concept"><path codeLine="45" d="M449.9,600.2 C456.09,614 464.14,631.98 471.52,648.43 " fill="none" id="Question-to-Concept" style="stroke:#181818;stroke-width:1.0;"/><polygon fill="none" points="476.98,660.62,478.1794,653.5093,472.077,649.6673,470.8776,656.778,476.98,660.62" style="stroke:#181818;stroke-width:1.0;"/></g><!--MD5=[543bb2115b5a10697a67507a00f6a2f4]
reverse link Concept to Definition--><g id="link_Concept_Definition"><path codeLine="46" d="M491.5,740.25 C491.5,756.57 491.5,774.3 491.5,787.93 " fill="none" id="Concept-backto-Definition" style="stroke:#181818;stroke-width:1.0;"/><polygon fill="none" points="491.5,727,487.5,733,491.5,739,495.5,733,491.5,727" style="stroke:#181818;stroke-width:1.0;"/></g><!--MD5=[38796b68b5180f699f927fbe8d179b6a]
reverse link Definition to Justification--><g id="link_Definition_Justification"><path codeLine="47" d="M491.5,849.41 C491.5,878.63 491.5,918.77 491.5,943.79 " fill="none" id="Definition-backto-Justification" style="stroke:#181818;stroke-width:1.0;"/><polygon fill="none" points="491.5,836.06,487.5,842.06,491.5,848.06,495.5,842.06,491.5,836.06" style="stroke:#181818;stroke-width:1.0;"/></g><!--MD5=[54f9360500e0fd532969fc16f437bbea]
reverse link Concept to Relation--><g id="link_Concept_Relation"><path codeLine="48" d="M459.57,737.74 C448.89,753.12 437.45,770.9 428.5,788 C415.08,813.65 403.69,844.99 396.75,865.89 " fill="none" id="Concept-backto-Relation" style="stroke:#181818;stroke-width:1.0;"/><polygon fill="none" points="467.16,727.01,460.4292,729.5976,460.2289,736.8059,466.9598,734.2183,467.16,727.01" style="stroke:#181818;stroke-width:1.0;"/></g><!--MD5=[a87ccfb1ad401ebc9457283edda68da5]
link Student to Evaluation--><g id="link_Student_Evaluation"><path codeLine="50" d="M513.9,273.22 C512.07,289.48 509.62,311.32 507.68,328.62 " fill="none" id="Student-to-Evaluation" style="stroke:#181818;stroke-width:1.0;"/><polygon fill="#181818" points="507.1,333.83,512.0775,325.3315,507.6569,328.8611,504.1272,324.4405,507.1,333.83" style="stroke:#181818;stroke-width:1.0;"/><text fill="#000000" font-family="sans-serif" font-size="13" lengthAdjust="spacing" textLength="22" x="482.9475" y="323.1266">0..n</text></g><!--MD5=[7ea0c49f743e358ac875b85df2ad47d3]
link Evaluation to Test--><g id="link_Evaluation_Test"><path codeLine="51" d="M492.35,382.22 C483.76,398.62 472.21,420.69 463.12,438.06 " fill="none" id="Evaluation-to-Test" style="stroke:#181818;stroke-width:1.0;"/><polygon fill="#181818" points="460.63,442.83,468.3435,436.7061,462.9458,438.3986,461.2533,433.0009,460.63,442.83" style="stroke:#181818;stroke-width:1.0;"/></g><!--MD5=[8a7243ae91709da90210a15ecf99eed9]
link Teacher to AnswersToReview--><g id="link_Teacher_AnswersToReview"><path codeLine="53" d="M660.12,579.83 C726.11,586.78 845.5,610.73 845.5,693 C845.5,693 845.5,693 845.5,969 C845.5,1026.06 674.84,1055.47 570.51,1068.11 " fill="none" id="Teacher-to-AnswersToReview" style="stroke:#181818;stroke-width:1.0;stroke-dasharray:7.0,7.0;"/><polygon fill="#181818" points="565.28,1068.74,574.6872,1071.6563,570.2455,1068.1533,573.7485,1063.7116,565.28,1068.74" style="stroke:#181818;stroke-width:1.0;"/><text fill="#000000" font-family="sans-serif" font-size="13" lengthAdjust="spacing" textLength="40" x="846.5" y="817.4951">Review</text></g><!--MD5=[89e5e5f1faa3021bb2d0c44db39802ce]
reverse link AnswersToReview to Open--><g id="link_AnswersToReview_Open"><path codeLine="54" d="M404.92,1098.54 C304.34,1122.4 143.37,1160.59 74.04,1177.04 " fill="none" id="AnswersToReview-backto-Open" style="stroke:#181818;stroke-width:1.0;"/><polygon fill="#181818" points="417.78,1095.49,411.0166,1092.9888,406.1065,1098.27,412.8699,1100.7712,417.78,1095.49" style="stroke:#181818;stroke-width:1.0;"/><text fill="#000000" font-family="sans-serif" font-size="13" lengthAdjust="spacing" textLength="22" x="81.9737" y="1171.5454">1..n</text></g><!--MD5=[d0493fe3f8433ad70d7ac94d8da863ff]
reverse link Definition to AnswersToReview--><g id="link_Definition_AnswersToReview"><path codeLine="55" d="M515.02,840.15 C542.29,875.08 581.15,937.73 561.5,992 C552.91,1015.74 534.35,1037.49 518.5,1052.9 " fill="none" id="Definition-backto-AnswersToReview" style="stroke:#181818;stroke-width:1.0;stroke-dasharray:7.0,7.0;"/><polygon fill="#181818" points="511.75,836.03,514.185,845.5731,514.8473,839.9551,520.4652,840.6174,511.75,836.03" style="stroke:#181818;stroke-width:1.0;"/></g><!--MD5=[1a4d83db36a33f2fbcdef02fb8712ac7]
reverse link Justification to AnswersToReview--><g id="link_Justification_AnswersToReview"><path codeLine="56" d="M491.5,997.43 C491.5,1014.74 491.5,1036.57 491.5,1052.83 " fill="none" id="Justification-backto-AnswersToReview" style="stroke:#181818;stroke-width:1.0;stroke-dasharray:7.0,7.0;"/><polygon fill="#181818" points="491.5,992.22,487.5,1001.22,491.5,997.22,495.5,1001.22,491.5,992.22" style="stroke:#181818;stroke-width:1.0;"/></g><!--MD5=[ca1db39ba97a6974584bf41ab4f0a9b1]
reverse link Relation to AnswersToReview--><g id="link_Relation_AnswersToReview"><path codeLine="57" d="M395.27,918.96 C400.31,939.92 408.83,968.85 421.5,992 C433.9,1014.65 452.88,1036.94 467.95,1052.86 " fill="none" id="Relation-backto-AnswersToReview" style="stroke:#181818;stroke-width:1.0;stroke-dasharray:7.0,7.0;"/><polygon fill="#181818" points="394.12,914.08,392.2814,923.7557,395.262,918.9478,400.0699,921.9285,394.12,914.08" style="stroke:#181818;stroke-width:1.0;"/></g><!--MD5=[37c1e8dba486a8108983e1d119d6febb]
reverse link Test to Question--><g id="link_Test_Question"><path codeLine="61" d="M445.45,504.3 C444.12,520.02 442.62,537.96 441.45,551.83 " fill="none" id="Test-backto-Question" style="stroke:#181818;stroke-width:1.0;"/><polygon fill="#181818" points="446.55,491.22,442.063,496.865,445.548,503.1781,450.035,497.533,446.55,491.22" style="stroke:#181818;stroke-width:1.0;"/><text fill="#000000" font-family="sans-serif" font-size="13" lengthAdjust="spacing" textLength="22" x="417.1309" y="541.1266">1..n</text></g><!--MD5=[eff6b19138ddb6af13849faaf0a4f1bc]
reverse link Question to Statement--><g id="link_Question_Statement"><path codeLine="62" d="M382.43,595.7 C335.05,611.7 266.17,636.03 207.5,661 C201.02,663.76 194.26,666.84 187.66,669.98 " fill="none" id="Question-backto-Statement" style="stroke:#181818;stroke-width:1.0;"/><polygon fill="#181818" points="394.89,591.52,387.9284,589.6396,383.5151,595.3424,390.4767,597.2228,394.89,591.52" style="stroke:#181818;stroke-width:1.0;"/></g><!--MD5=[5d713b1c0eb5d19b54b4791b73108c83]
reverse link Question to Answer--><g id="link_Question_Answer"><path codeLine="63" d="M393.65,607.39 C364.18,626.93 326.48,651.92 299.43,669.84 " fill="none" id="Question-backto-Answer" style="stroke:#181818;stroke-width:1.0;"/><polygon fill="none" points="404.51,600.2,397.2989,600.178,394.5051,606.8259,401.7162,606.8479,404.51,600.2" style="stroke:#181818;stroke-width:1.0;"/></g><!--MD5=[edac056e3da0b394aa7eb7158b920fdf]
reverse link MultipleChoice to Incorrect--><g id="link_MultipleChoice_Incorrect"><path codeLine="64" d="M192.09,848.22 C180.1,877.53 163.37,918.43 153,943.79 " fill="none" id="MultipleChoice-backto-Incorrect" style="stroke:#181818;stroke-width:1.0;"/><polygon fill="#181818" points="197.07,836.06,191.0955,840.0979,192.5249,847.1659,198.4994,843.128,197.07,836.06" style="stroke:#181818;stroke-width:1.0;"/></g><!--MD5=[dbc39d3c7bd5d7c9396f15d8cd3d35b5]
reverse link MultipleChoice to Correct--><g id="link_MultipleChoice_Correct"><path codeLine="65" d="M222.51,848.22 C235.83,877.53 254.42,918.43 265.95,943.79 " fill="none" id="MultipleChoice-backto-Correct" style="stroke:#181818;stroke-width:1.0;"/><polygon fill="#181818" points="216.98,836.06,215.8188,843.177,221.9417,846.9862,223.1029,839.8692,216.98,836.06" style="stroke:#181818;stroke-width:1.0;"/></g><!--MD5=[b1491d38e87214202fddacec717a9c8d]
reverse link Answer to Correct--><g id="link_Answer_Correct"><path codeLine="66" d="M276.23,737.69 C279.98,753.38 283.65,771.37 285.5,788 C291.71,843.66 284.74,909.54 280.05,943.76 " fill="none" id="Answer-backto-Correct" style="stroke:#181818;stroke-width:1.0;"/><polygon fill="none" points="269.38,739.18,271.21,718.07,282.95,735.71,269.38,739.18" style="stroke:#181818;stroke-width:1.0;"/></g><!--MD5=[a6181c8180a1587156cddad319d63c9e]
reverse link Answer to Incorrect--><g id="link_Answer_Incorrect"><path codeLine="67" d="M209.15,728.82 C172.88,751.57 131.3,778.99 126.5,788 C99.67,838.43 119.89,908.23 133.6,943.94 " fill="none" id="Answer-backto-Incorrect" style="stroke:#181818;stroke-width:1.0;"/><polygon fill="none" points="205.67,722.74,226.35,718.13,213.06,734.63,205.67,722.74" style="stroke:#181818;stroke-width:1.0;"/></g><!--MD5=[35a2f5aaea9a8dec5ab6cfc0884a901f]
reverse link Answer to Open--><g id="link_Answer_Open"><path codeLine="68" d="M207.77,726.86 C207.68,726.91 207.59,726.95 207.5,727 C126.14,768.01 20.5,719.89 20.5,811 C20.5,811 20.5,811 20.5,1078 C20.5,1107.29 27.83,1140.34 33.62,1161.86 " fill="none" id="Answer-backto-Open" style="stroke:#181818;stroke-width:1.0;"/><polygon fill="none" points="204.24,720.81,225.19,717.67,210.77,733.2,204.24,720.81" style="stroke:#181818;stroke-width:1.0;"/></g><!--MD5=[61f2a68054b14cfb90a478a57a4fa54c]
reverse link Answer to MultipleChoice--><g id="link_Answer_MultipleChoice"><path codeLine="69" d="M243.92,736.16 C235.24,753.51 225.46,773.07 218.08,787.84 " fill="none" id="Answer-backto-MultipleChoice" style="stroke:#181818;stroke-width:1.0;"/><polygon fill="none" points="237.7,732.95,252.9,718.2,250.22,739.21,237.7,732.95" style="stroke:#181818;stroke-width:1.0;"/></g><!--MD5=[c98fdacbcd4eb224c2d9d26b53646e58]
reverse link Category to Category--><g id="link_Category_Category"><path codeLine="72" d="M676.1,802.2 C688.53,803.2 697.5,806.46 697.5,812 C697.5,819.38 681.55,822.73 662.73,822.04 " fill="none" id="Category-backto-Category" style="stroke:#181818;stroke-width:1.0;"/><polygon fill="none" points="662.73,801.96,668.6587,806.065,674.7281,802.1712,668.7995,798.0662,662.73,801.96" style="stroke:#181818;stroke-width:1.0;"/><text fill="#000000" font-family="sans-serif" font-size="13" lengthAdjust="spacing" textLength="83" x="703.5" y="817.4951">Subcategories</text><text fill="#000000" font-family="sans-serif" font-size="13" lengthAdjust="spacing" textLength="22" x="670.6373" y="819.8467">0..n</text></g><!--MD5=[9b3c6c4b61cc9b566dd777b736707a91]
@startuml OpoTestDomain

class Community

class User

class Teacher

class Student

class Evaluation

class Category 

class Test 

class AnswersToReview

class Concept {
    keyword
}

class Open 

class Question

class MultipleChoice

class Statement

class Answer 

class Correct

Class Incorrect

Community *- - "2..n" User
Community o- - "0..n" Category

User <|- - Teacher
User <|- - Student

Teacher ..> Category
Teacher ..> Concept
Concept - -o Category
Question - -o Concept
Concept o- - Definition
Definition o- - Justification
Concept o- - Relation

Student - -> "0..n" Evaluation
Evaluation - -> Test

Teacher ..> AnswersToReview : Review
AnswersToReview *- - "1..n" Open
Definition <.. AnswersToReview
Justification <.. AnswersToReview
Relation <.. AnswersToReview

'Question <|- - MultipleChoice
'Question <|- - Open
Test *- - "1..n" Question
Question *- -   Statement
Question o- - Answer
MultipleChoice *- - Incorrect
MultipleChoice *- - Correct
Answer <|- - Correct
Answer <|- - Incorrect
Answer <|- - Open
Answer <|- - MultipleChoice


Category o- -"0..n" Category : Subcategories



@enduml

@startuml OpoTestDomain

class Community

class User

class Teacher

class Student

class Evaluation

class Category 

class Test 

class AnswersToReview

class Concept {
    keyword
}

class Open 

class Question

class MultipleChoice

class Statement

class Answer 

class Correct

Class Incorrect

Community *- - "2..n" User
Community o- - "0..n" Category

User <|- - Teacher
User <|- - Student

Teacher ..> Category
Teacher ..> Concept
Concept - -o Category
Question - -o Concept
Concept o- - Definition
Definition o- - Justification
Concept o- - Relation

Student - -> "0..n" Evaluation
Evaluation - -> Test

Teacher ..> AnswersToReview : Review
AnswersToReview *- - "1..n" Open
Definition <.. AnswersToReview
Justification <.. AnswersToReview
Relation <.. AnswersToReview

Test *- - "1..n" Question
Question *- -   Statement
Question o- - Answer
MultipleChoice *- - Incorrect
MultipleChoice *- - Correct
Answer <|- - Correct
Answer <|- - Incorrect
Answer <|- - Open
Answer <|- - MultipleChoice


Category o- -"0..n" Category : Subcategories



@enduml

PlantUML version 1.2022.7(Mon Aug 22 18:01:30 WEST 2022)
(GPL source distribution)
Java Runtime: OpenJDK Runtime Environment
JVM: OpenJDK 64-Bit Server VM
Default Encoding: Cp1252
Language: es
Country: ES
--></g></svg>