<?xml version="1.0" encoding="UTF-8" standalone="no"?><svg xmlns="http://www.w3.org/2000/svg" xmlns:xlink="http://www.w3.org/1999/xlink" contentStyleType="text/css" height="1535px" preserveAspectRatio="none" style="width:1396px;height:1535px;background:#FFFFFF;" version="1.1" viewBox="0 0 1396 1535" width="1396px" zoomAndPan="magnify"><defs/><g><!--MD5=[668d633d11bedc8952753581a2dda3db]
class Community--><g id="elem_Community"><rect codeLine="2" fill="#F1F1F1" height="48" id="Community" rx="2.5" ry="2.5" style="stroke:#181818;stroke-width:0.5;" width="102" x="1069.5" y="7"/><ellipse cx="1084.5" cy="23" fill="#ADD1B2" rx="11" ry="11" style="stroke:#181818;stroke-width:1.0;"/><path d="M1087.2656,18.875 Q1087.4219,18.6563 1087.6094,18.5469 Q1087.7969,18.4375 1088.0156,18.4375 Q1088.3906,18.4375 1088.625,18.7031 Q1088.8594,18.9531 1088.8594,19.5625 L1088.8594,21.0156 Q1088.8594,21.625 1088.625,21.8906 Q1088.3906,22.1563 1088.0156,22.1563 Q1087.6719,22.1563 1087.4688,21.9531 Q1087.2656,21.7656 1087.1563,21.25 Q1087.1094,20.8906 1086.9219,20.7031 Q1086.5938,20.3281 1085.9844,20.1094 Q1085.375,19.8906 1084.75,19.8906 Q1083.9844,19.8906 1083.3438,20.2188 Q1082.7188,20.5469 1082.2188,21.2969 Q1081.7344,22.0469 1081.7344,23.0781 L1081.7344,24.1719 Q1081.7344,25.4063 1082.625,26.2344 Q1083.5156,27.0469 1085.1094,27.0469 Q1086.0469,27.0469 1086.7031,26.7969 Q1087.0938,26.6406 1087.5156,26.2031 Q1087.7813,25.9375 1087.9219,25.8594 Q1088.0781,25.7813 1088.2813,25.7813 Q1088.6094,25.7813 1088.8594,26.0469 Q1089.125,26.2969 1089.125,26.6406 Q1089.125,26.9844 1088.7813,27.3906 Q1088.2813,27.9688 1087.4844,28.2969 Q1086.4063,28.75 1085.1094,28.75 Q1083.5938,28.75 1082.3906,28.125 Q1081.4063,27.625 1080.7188,26.5625 Q1080.0313,25.4844 1080.0313,24.2031 L1080.0313,23.0469 Q1080.0313,21.7188 1080.6406,20.5781 Q1081.2656,19.4219 1082.3594,18.8125 Q1083.4531,18.1875 1084.6875,18.1875 Q1085.4219,18.1875 1086.0625,18.3594 Q1086.7188,18.5156 1087.2656,18.875 Z " fill="#000000"/><text fill="#000000" font-family="sans-serif" font-size="14" lengthAdjust="spacing" textLength="70" x="1098.5" y="28.7285">Community</text><line style="stroke:#181818;stroke-width:0.5;" x1="1070.5" x2="1170.5" y1="39" y2="39"/><line style="stroke:#181818;stroke-width:0.5;" x1="1070.5" x2="1170.5" y1="47" y2="47"/></g><!--MD5=[3fd616f346a44cd59a91eb10b19e157c]
class User--><g id="elem_User"><rect codeLine="4" fill="#F1F1F1" height="83.2188" id="User" rx="2.5" ry="2.5" style="stroke:#181818;stroke-width:0.5;" width="136" x="955.5" y="116"/><ellipse cx="1004.75" cy="132" fill="#ADD1B2" rx="11" ry="11" style="stroke:#181818;stroke-width:1.0;"/><path d="M1007.5156,127.875 Q1007.6719,127.6563 1007.8594,127.5469 Q1008.0469,127.4375 1008.2656,127.4375 Q1008.6406,127.4375 1008.875,127.7031 Q1009.1094,127.9531 1009.1094,128.5625 L1009.1094,130.0156 Q1009.1094,130.625 1008.875,130.8906 Q1008.6406,131.1563 1008.2656,131.1563 Q1007.9219,131.1563 1007.7188,130.9531 Q1007.5156,130.7656 1007.4063,130.25 Q1007.3594,129.8906 1007.1719,129.7031 Q1006.8438,129.3281 1006.2344,129.1094 Q1005.625,128.8906 1005,128.8906 Q1004.2344,128.8906 1003.5938,129.2188 Q1002.9688,129.5469 1002.4688,130.2969 Q1001.9844,131.0469 1001.9844,132.0781 L1001.9844,133.1719 Q1001.9844,134.4063 1002.875,135.2344 Q1003.7656,136.0469 1005.3594,136.0469 Q1006.2969,136.0469 1006.9531,135.7969 Q1007.3438,135.6406 1007.7656,135.2031 Q1008.0313,134.9375 1008.1719,134.8594 Q1008.3281,134.7813 1008.5313,134.7813 Q1008.8594,134.7813 1009.1094,135.0469 Q1009.375,135.2969 1009.375,135.6406 Q1009.375,135.9844 1009.0313,136.3906 Q1008.5313,136.9688 1007.7344,137.2969 Q1006.6563,137.75 1005.3594,137.75 Q1003.8438,137.75 1002.6406,137.125 Q1001.6563,136.625 1000.9688,135.5625 Q1000.2813,134.4844 1000.2813,133.2031 L1000.2813,132.0469 Q1000.2813,130.7188 1000.8906,129.5781 Q1001.5156,128.4219 1002.6094,127.8125 Q1003.7031,127.1875 1004.9375,127.1875 Q1005.6719,127.1875 1006.3125,127.3594 Q1006.9688,127.5156 1007.5156,127.875 Z " fill="#000000"/><text fill="#000000" font-family="sans-serif" font-size="14" lengthAdjust="spacing" textLength="29" x="1025.25" y="137.7285">User</text><line style="stroke:#181818;stroke-width:0.5;" x1="956.5" x2="1090.5" y1="148" y2="148"/><rect fill="none" height="6" style="stroke:#C82930;stroke-width:1.0;" width="6" x="963.5" y="159.3047"/><text fill="#000000" font-family="sans-serif" font-size="14" lengthAdjust="spacing" textLength="63" x="975.5" y="166.5332">username</text><rect fill="none" height="6" style="stroke:#C82930;stroke-width:1.0;" width="6" x="963.5" y="176.9141"/><text fill="#000000" font-family="sans-serif" font-size="14" lengthAdjust="spacing" textLength="110" x="975.5" y="184.1426">categorySelected</text><line style="stroke:#181818;stroke-width:0.5;" x1="956.5" x2="1090.5" y1="191.2188" y2="191.2188"/></g><!--MD5=[61a83f88cb8b7d3a80bc8c481f3736bf]
class Teacher--><g id="elem_Teacher"><rect codeLine="9" fill="#F1F1F1" height="65.6094" id="Teacher" rx="2.5" ry="2.5" style="stroke:#181818;stroke-width:0.5;" width="131" x="958" y="260"/><ellipse cx="993.7" cy="276" fill="#ADD1B2" rx="11" ry="11" style="stroke:#181818;stroke-width:1.0;"/><path d="M996.4656,271.875 Q996.6219,271.6563 996.8094,271.5469 Q996.9969,271.4375 997.2156,271.4375 Q997.5906,271.4375 997.825,271.7031 Q998.0594,271.9531 998.0594,272.5625 L998.0594,274.0156 Q998.0594,274.625 997.825,274.8906 Q997.5906,275.1563 997.2156,275.1563 Q996.8719,275.1563 996.6688,274.9531 Q996.4656,274.7656 996.3563,274.25 Q996.3094,273.8906 996.1219,273.7031 Q995.7938,273.3281 995.1844,273.1094 Q994.575,272.8906 993.95,272.8906 Q993.1844,272.8906 992.5438,273.2188 Q991.9188,273.5469 991.4188,274.2969 Q990.9344,275.0469 990.9344,276.0781 L990.9344,277.1719 Q990.9344,278.4063 991.825,279.2344 Q992.7156,280.0469 994.3094,280.0469 Q995.2469,280.0469 995.9031,279.7969 Q996.2938,279.6406 996.7156,279.2031 Q996.9813,278.9375 997.1219,278.8594 Q997.2781,278.7813 997.4813,278.7813 Q997.8094,278.7813 998.0594,279.0469 Q998.325,279.2969 998.325,279.6406 Q998.325,279.9844 997.9813,280.3906 Q997.4813,280.9688 996.6844,281.2969 Q995.6063,281.75 994.3094,281.75 Q992.7938,281.75 991.5906,281.125 Q990.6063,280.625 989.9188,279.5625 Q989.2313,278.4844 989.2313,277.2031 L989.2313,276.0469 Q989.2313,274.7188 989.8406,273.5781 Q990.4656,272.4219 991.5594,271.8125 Q992.6531,271.1875 993.8875,271.1875 Q994.6219,271.1875 995.2625,271.3594 Q995.9188,271.5156 996.4656,271.875 Z " fill="#000000"/><text fill="#000000" font-family="sans-serif" font-size="14" lengthAdjust="spacing" textLength="53" x="1012.3" y="281.7285">Teacher</text><line style="stroke:#181818;stroke-width:0.5;" x1="959" x2="1088" y1="292" y2="292"/><rect fill="none" height="6" style="stroke:#C82930;stroke-width:1.0;" width="6" x="966" y="303.3047"/><text fill="#000000" font-family="sans-serif" font-size="14" lengthAdjust="spacing" textLength="105" x="978" y="310.5332">conceptSelected</text><line style="stroke:#181818;stroke-width:0.5;" x1="959" x2="1088" y1="317.6094" y2="317.6094"/></g><!--MD5=[d6181cb537bdc20c0a3007a98a56832d]
class Student--><g id="elem_Student"><rect codeLine="13" fill="#F1F1F1" height="48" id="Student" rx="2.5" ry="2.5" style="stroke:#181818;stroke-width:0.5;" width="81" x="823" y="269"/><ellipse cx="838" cy="285" fill="#ADD1B2" rx="11" ry="11" style="stroke:#181818;stroke-width:1.0;"/><path d="M840.7656,280.875 Q840.9219,280.6563 841.1094,280.5469 Q841.2969,280.4375 841.5156,280.4375 Q841.8906,280.4375 842.125,280.7031 Q842.3594,280.9531 842.3594,281.5625 L842.3594,283.0156 Q842.3594,283.625 842.125,283.8906 Q841.8906,284.1563 841.5156,284.1563 Q841.1719,284.1563 840.9688,283.9531 Q840.7656,283.7656 840.6563,283.25 Q840.6094,282.8906 840.4219,282.7031 Q840.0938,282.3281 839.4844,282.1094 Q838.875,281.8906 838.25,281.8906 Q837.4844,281.8906 836.8438,282.2188 Q836.2188,282.5469 835.7188,283.2969 Q835.2344,284.0469 835.2344,285.0781 L835.2344,286.1719 Q835.2344,287.4063 836.125,288.2344 Q837.0156,289.0469 838.6094,289.0469 Q839.5469,289.0469 840.2031,288.7969 Q840.5938,288.6406 841.0156,288.2031 Q841.2813,287.9375 841.4219,287.8594 Q841.5781,287.7813 841.7813,287.7813 Q842.1094,287.7813 842.3594,288.0469 Q842.625,288.2969 842.625,288.6406 Q842.625,288.9844 842.2813,289.3906 Q841.7813,289.9688 840.9844,290.2969 Q839.9063,290.75 838.6094,290.75 Q837.0938,290.75 835.8906,290.125 Q834.9063,289.625 834.2188,288.5625 Q833.5313,287.4844 833.5313,286.2031 L833.5313,285.0469 Q833.5313,283.7188 834.1406,282.5781 Q834.7656,281.4219 835.8594,280.8125 Q836.9531,280.1875 838.1875,280.1875 Q838.9219,280.1875 839.5625,280.3594 Q840.2188,280.5156 840.7656,280.875 Z " fill="#000000"/><text fill="#000000" font-family="sans-serif" font-size="14" lengthAdjust="spacing" textLength="49" x="852" y="290.7285">Student</text><line style="stroke:#181818;stroke-width:0.5;" x1="824" x2="903" y1="301" y2="301"/><line style="stroke:#181818;stroke-width:0.5;" x1="824" x2="903" y1="309" y2="309"/></g><!--MD5=[71e8807956d33805e77353b9d7e2df39]
class Evaluation--><g id="elem_Evaluation"><rect codeLine="15" fill="#F1F1F1" height="65.6094" id="Evaluation" rx="2.5" ry="2.5" style="stroke:#181818;stroke-width:0.5;" width="98" x="670.5" y="387"/><ellipse cx="685.5" cy="403" fill="#ADD1B2" rx="11" ry="11" style="stroke:#181818;stroke-width:1.0;"/><path d="M688.2656,398.875 Q688.4219,398.6563 688.6094,398.5469 Q688.7969,398.4375 689.0156,398.4375 Q689.3906,398.4375 689.625,398.7031 Q689.8594,398.9531 689.8594,399.5625 L689.8594,401.0156 Q689.8594,401.625 689.625,401.8906 Q689.3906,402.1563 689.0156,402.1563 Q688.6719,402.1563 688.4688,401.9531 Q688.2656,401.7656 688.1563,401.25 Q688.1094,400.8906 687.9219,400.7031 Q687.5938,400.3281 686.9844,400.1094 Q686.375,399.8906 685.75,399.8906 Q684.9844,399.8906 684.3438,400.2188 Q683.7188,400.5469 683.2188,401.2969 Q682.7344,402.0469 682.7344,403.0781 L682.7344,404.1719 Q682.7344,405.4063 683.625,406.2344 Q684.5156,407.0469 686.1094,407.0469 Q687.0469,407.0469 687.7031,406.7969 Q688.0938,406.6406 688.5156,406.2031 Q688.7813,405.9375 688.9219,405.8594 Q689.0781,405.7813 689.2813,405.7813 Q689.6094,405.7813 689.8594,406.0469 Q690.125,406.2969 690.125,406.6406 Q690.125,406.9844 689.7813,407.3906 Q689.2813,407.9688 688.4844,408.2969 Q687.4063,408.75 686.1094,408.75 Q684.5938,408.75 683.3906,408.125 Q682.4063,407.625 681.7188,406.5625 Q681.0313,405.4844 681.0313,404.2031 L681.0313,403.0469 Q681.0313,401.7188 681.6406,400.5781 Q682.2656,399.4219 683.3594,398.8125 Q684.4531,398.1875 685.6875,398.1875 Q686.4219,398.1875 687.0625,398.3594 Q687.7188,398.5156 688.2656,398.875 Z " fill="#000000"/><text fill="#000000" font-family="sans-serif" font-size="14" lengthAdjust="spacing" textLength="66" x="699.5" y="408.7285">Evaluation</text><line style="stroke:#181818;stroke-width:0.5;" x1="671.5" x2="767.5" y1="419" y2="419"/><rect fill="none" height="6" style="stroke:#C82930;stroke-width:1.0;" width="6" x="678.5" y="430.3047"/><text fill="#000000" font-family="sans-serif" font-size="14" lengthAdjust="spacing" textLength="35" x="690.5" y="437.5332">result</text><line style="stroke:#181818;stroke-width:0.5;" x1="671.5" x2="767.5" y1="444.6094" y2="444.6094"/></g><!--MD5=[a96594a83e2ecdc78cbf17c2ddf01934]
class Category--><g id="elem_Category"><rect codeLine="19" fill="#F1F1F1" height="100.8281" id="Category" rx="2.5" ry="2.5" style="stroke:#181818;stroke-width:0.5;" width="115" x="1144" y="514"/><ellipse cx="1170.25" cy="530" fill="#ADD1B2" rx="11" ry="11" style="stroke:#181818;stroke-width:1.0;"/><path d="M1173.0156,525.875 Q1173.1719,525.6563 1173.3594,525.5469 Q1173.5469,525.4375 1173.7656,525.4375 Q1174.1406,525.4375 1174.375,525.7031 Q1174.6094,525.9531 1174.6094,526.5625 L1174.6094,528.0156 Q1174.6094,528.625 1174.375,528.8906 Q1174.1406,529.1563 1173.7656,529.1563 Q1173.4219,529.1563 1173.2188,528.9531 Q1173.0156,528.7656 1172.9063,528.25 Q1172.8594,527.8906 1172.6719,527.7031 Q1172.3438,527.3281 1171.7344,527.1094 Q1171.125,526.8906 1170.5,526.8906 Q1169.7344,526.8906 1169.0938,527.2188 Q1168.4688,527.5469 1167.9688,528.2969 Q1167.4844,529.0469 1167.4844,530.0781 L1167.4844,531.1719 Q1167.4844,532.4063 1168.375,533.2344 Q1169.2656,534.0469 1170.8594,534.0469 Q1171.7969,534.0469 1172.4531,533.7969 Q1172.8438,533.6406 1173.2656,533.2031 Q1173.5313,532.9375 1173.6719,532.8594 Q1173.8281,532.7813 1174.0313,532.7813 Q1174.3594,532.7813 1174.6094,533.0469 Q1174.875,533.2969 1174.875,533.6406 Q1174.875,533.9844 1174.5313,534.3906 Q1174.0313,534.9688 1173.2344,535.2969 Q1172.1563,535.75 1170.8594,535.75 Q1169.3438,535.75 1168.1406,535.125 Q1167.1563,534.625 1166.4688,533.5625 Q1165.7813,532.4844 1165.7813,531.2031 L1165.7813,530.0469 Q1165.7813,528.7188 1166.3906,527.5781 Q1167.0156,526.4219 1168.1094,525.8125 Q1169.2031,525.1875 1170.4375,525.1875 Q1171.1719,525.1875 1171.8125,525.3594 Q1172.4688,525.5156 1173.0156,525.875 Z " fill="#000000"/><text fill="#000000" font-family="sans-serif" font-size="14" lengthAdjust="spacing" textLength="58" x="1186.75" y="535.7285">Category</text><line style="stroke:#181818;stroke-width:0.5;" x1="1145" x2="1258" y1="546" y2="546"/><rect fill="none" height="6" style="stroke:#C82930;stroke-width:1.0;" width="6" x="1152" y="557.3047"/><text fill="#000000" font-family="sans-serif" font-size="14" lengthAdjust="spacing" textLength="89" x="1164" y="564.5332">subcategories</text><rect fill="none" height="6" style="stroke:#C82930;stroke-width:1.0;" width="6" x="1152" y="574.9141"/><text fill="#000000" font-family="sans-serif" font-size="14" lengthAdjust="spacing" textLength="69" x="1164" y="582.1426">concepts[ ]</text><rect fill="none" height="6" style="stroke:#C82930;stroke-width:1.0;" width="6" x="1152" y="592.5234"/><text fill="#000000" font-family="sans-serif" font-size="14" lengthAdjust="spacing" textLength="73" x="1164" y="599.752">questions[ ]</text><line style="stroke:#181818;stroke-width:0.5;" x1="1145" x2="1258" y1="606.8281" y2="606.8281"/></g><!--MD5=[df38be88ccee13e832d6fafd6288a4ca]
class Test--><g id="elem_Test"><rect codeLine="25" fill="#F1F1F1" height="65.6094" id="Test" rx="2.5" ry="2.5" style="stroke:#181818;stroke-width:0.5;" width="271" x="584" y="531.5"/><ellipse cx="701.25" cy="547.5" fill="#ADD1B2" rx="11" ry="11" style="stroke:#181818;stroke-width:1.0;"/><path d="M704.0156,543.375 Q704.1719,543.1563 704.3594,543.0469 Q704.5469,542.9375 704.7656,542.9375 Q705.1406,542.9375 705.375,543.2031 Q705.6094,543.4531 705.6094,544.0625 L705.6094,545.5156 Q705.6094,546.125 705.375,546.3906 Q705.1406,546.6563 704.7656,546.6563 Q704.4219,546.6563 704.2188,546.4531 Q704.0156,546.2656 703.9063,545.75 Q703.8594,545.3906 703.6719,545.2031 Q703.3438,544.8281 702.7344,544.6094 Q702.125,544.3906 701.5,544.3906 Q700.7344,544.3906 700.0938,544.7188 Q699.4688,545.0469 698.9688,545.7969 Q698.4844,546.5469 698.4844,547.5781 L698.4844,548.6719 Q698.4844,549.9063 699.375,550.7344 Q700.2656,551.5469 701.8594,551.5469 Q702.7969,551.5469 703.4531,551.2969 Q703.8438,551.1406 704.2656,550.7031 Q704.5313,550.4375 704.6719,550.3594 Q704.8281,550.2813 705.0313,550.2813 Q705.3594,550.2813 705.6094,550.5469 Q705.875,550.7969 705.875,551.1406 Q705.875,551.4844 705.5313,551.8906 Q705.0313,552.4688 704.2344,552.7969 Q703.1563,553.25 701.8594,553.25 Q700.3438,553.25 699.1406,552.625 Q698.1563,552.125 697.4688,551.0625 Q696.7813,549.9844 696.7813,548.7031 L696.7813,547.5469 Q696.7813,546.2188 697.3906,545.0781 Q698.0156,543.9219 699.1094,543.3125 Q700.2031,542.6875 701.4375,542.6875 Q702.1719,542.6875 702.8125,542.8594 Q703.4688,543.0156 704.0156,543.375 Z " fill="#000000"/><text fill="#000000" font-family="sans-serif" font-size="14" lengthAdjust="spacing" textLength="28" x="721.75" y="553.2285">Test</text><line style="stroke:#181818;stroke-width:0.5;" x1="585" x2="854" y1="563.5" y2="563.5"/><line style="stroke:#181818;stroke-width:0.5;" x1="585" x2="854" y1="571.5" y2="571.5"/><rect fill="#F24D5C" height="6" style="stroke:#C82930;stroke-width:1.0;" width="6" x="592" y="582.8047"/><text fill="#000000" font-family="sans-serif" font-size="14" lengthAdjust="spacing" textLength="245" x="604" y="590.0332">questions[ category.getAllQuestions() ]</text></g><!--MD5=[9d451b2f92d848a8e2d1a4dab2b1c6bf]
class Concept--><g id="elem_Concept"><rect codeLine="29" fill="#F1F1F1" height="118.4375" id="Concept" rx="2.5" ry="2.5" style="stroke:#181818;stroke-width:0.5;" width="124" x="1038.5" y="891"/><ellipse cx="1071.05" cy="907" fill="#ADD1B2" rx="11" ry="11" style="stroke:#181818;stroke-width:1.0;"/><path d="M1073.8156,902.875 Q1073.9719,902.6563 1074.1594,902.5469 Q1074.3469,902.4375 1074.5656,902.4375 Q1074.9406,902.4375 1075.175,902.7031 Q1075.4094,902.9531 1075.4094,903.5625 L1075.4094,905.0156 Q1075.4094,905.625 1075.175,905.8906 Q1074.9406,906.1563 1074.5656,906.1563 Q1074.2219,906.1563 1074.0188,905.9531 Q1073.8156,905.7656 1073.7063,905.25 Q1073.6594,904.8906 1073.4719,904.7031 Q1073.1438,904.3281 1072.5344,904.1094 Q1071.925,903.8906 1071.3,903.8906 Q1070.5344,903.8906 1069.8938,904.2188 Q1069.2688,904.5469 1068.7688,905.2969 Q1068.2844,906.0469 1068.2844,907.0781 L1068.2844,908.1719 Q1068.2844,909.4063 1069.175,910.2344 Q1070.0656,911.0469 1071.6594,911.0469 Q1072.5969,911.0469 1073.2531,910.7969 Q1073.6438,910.6406 1074.0656,910.2031 Q1074.3313,909.9375 1074.4719,909.8594 Q1074.6281,909.7813 1074.8313,909.7813 Q1075.1594,909.7813 1075.4094,910.0469 Q1075.675,910.2969 1075.675,910.6406 Q1075.675,910.9844 1075.3313,911.3906 Q1074.8313,911.9688 1074.0344,912.2969 Q1072.9563,912.75 1071.6594,912.75 Q1070.1438,912.75 1068.9406,912.125 Q1067.9563,911.625 1067.2688,910.5625 Q1066.5813,909.4844 1066.5813,908.2031 L1066.5813,907.0469 Q1066.5813,905.7188 1067.1906,904.5781 Q1067.8156,903.4219 1068.9094,902.8125 Q1070.0031,902.1875 1071.2375,902.1875 Q1071.9719,902.1875 1072.6125,902.3594 Q1073.2688,902.5156 1073.8156,902.875 Z " fill="#000000"/><text fill="#000000" font-family="sans-serif" font-size="14" lengthAdjust="spacing" textLength="53" x="1088.95" y="912.7285">Concept</text><line style="stroke:#181818;stroke-width:0.5;" x1="1039.5" x2="1161.5" y1="923" y2="923"/><rect fill="none" height="6" style="stroke:#C82930;stroke-width:1.0;" width="6" x="1046.5" y="934.3047"/><text fill="#000000" font-family="sans-serif" font-size="14" lengthAdjust="spacing" textLength="52" x="1058.5" y="941.5332">keyword</text><rect fill="none" height="6" style="stroke:#C82930;stroke-width:1.0;" width="6" x="1046.5" y="951.9141"/><text fill="#000000" font-family="sans-serif" font-size="14" lengthAdjust="spacing" textLength="98" x="1058.5" y="959.1426">fakekeywords[ ]</text><rect fill="none" height="6" style="stroke:#C82930;stroke-width:1.0;" width="6" x="1046.5" y="969.5234"/><text fill="#000000" font-family="sans-serif" font-size="14" lengthAdjust="spacing" textLength="76" x="1058.5" y="976.752">definitions[ ]</text><rect fill="none" height="6" style="stroke:#C82930;stroke-width:1.0;" width="6" x="1046.5" y="987.1328"/><text fill="#000000" font-family="sans-serif" font-size="14" lengthAdjust="spacing" textLength="66" x="1058.5" y="994.3613">relations[ ]</text><line style="stroke:#181818;stroke-width:0.5;" x1="1039.5" x2="1161.5" y1="1001.4375" y2="1001.4375"/></g><!--MD5=[af22135d5be6ed11ccd2d02fa51653b3]
class Definition--><g id="elem_Definition"><rect codeLine="37" fill="#F1F1F1" height="118.4375" id="Definition" rx="2.5" ry="2.5" style="stroke:#181818;stroke-width:0.5;" width="115" x="933" y="1088"/><ellipse cx="958.8" cy="1104" fill="#ADD1B2" rx="11" ry="11" style="stroke:#181818;stroke-width:1.0;"/><path d="M961.5656,1099.875 Q961.7219,1099.6563 961.9094,1099.5469 Q962.0969,1099.4375 962.3156,1099.4375 Q962.6906,1099.4375 962.925,1099.7031 Q963.1594,1099.9531 963.1594,1100.5625 L963.1594,1102.0156 Q963.1594,1102.625 962.925,1102.8906 Q962.6906,1103.1563 962.3156,1103.1563 Q961.9719,1103.1563 961.7688,1102.9531 Q961.5656,1102.7656 961.4563,1102.25 Q961.4094,1101.8906 961.2219,1101.7031 Q960.8938,1101.3281 960.2844,1101.1094 Q959.675,1100.8906 959.05,1100.8906 Q958.2844,1100.8906 957.6438,1101.2188 Q957.0188,1101.5469 956.5188,1102.2969 Q956.0344,1103.0469 956.0344,1104.0781 L956.0344,1105.1719 Q956.0344,1106.4063 956.925,1107.2344 Q957.8156,1108.0469 959.4094,1108.0469 Q960.3469,1108.0469 961.0031,1107.7969 Q961.3938,1107.6406 961.8156,1107.2031 Q962.0813,1106.9375 962.2219,1106.8594 Q962.3781,1106.7813 962.5813,1106.7813 Q962.9094,1106.7813 963.1594,1107.0469 Q963.425,1107.2969 963.425,1107.6406 Q963.425,1107.9844 963.0813,1108.3906 Q962.5813,1108.9688 961.7844,1109.2969 Q960.7063,1109.75 959.4094,1109.75 Q957.8938,1109.75 956.6906,1109.125 Q955.7063,1108.625 955.0188,1107.5625 Q954.3313,1106.4844 954.3313,1105.2031 L954.3313,1104.0469 Q954.3313,1102.7188 954.9406,1101.5781 Q955.5656,1100.4219 956.6594,1099.8125 Q957.7531,1099.1875 958.9875,1099.1875 Q959.7219,1099.1875 960.3625,1099.3594 Q961.0188,1099.5156 961.5656,1099.875 Z " fill="#000000"/><text fill="#000000" font-family="sans-serif" font-size="14" lengthAdjust="spacing" textLength="59" x="975.2" y="1109.7285">Definition</text><line style="stroke:#181818;stroke-width:0.5;" x1="934" x2="1047" y1="1120" y2="1120"/><rect fill="none" height="6" style="stroke:#C82930;stroke-width:1.0;" width="6" x="941" y="1131.3047"/><text fill="#000000" font-family="sans-serif" font-size="14" lengthAdjust="spacing" textLength="47" x="953" y="1138.5332">content</text><rect fill="none" height="6" style="stroke:#C82930;stroke-width:1.0;" width="6" x="941" y="1148.9141"/><text fill="#000000" font-family="sans-serif" font-size="14" lengthAdjust="spacing" textLength="42" x="953" y="1156.1426">isFake</text><rect fill="none" height="6" style="stroke:#C82930;stroke-width:1.0;" width="6" x="941" y="1166.5234"/><text fill="#000000" font-family="sans-serif" font-size="14" lengthAdjust="spacing" textLength="78" x="953" y="1173.752">createdDate</text><rect fill="none" height="6" style="stroke:#C82930;stroke-width:1.0;" width="6" x="941" y="1184.1328"/><text fill="#000000" font-family="sans-serif" font-size="14" lengthAdjust="spacing" textLength="89" x="953" y="1191.3613">justifications[ ]</text><line style="stroke:#181818;stroke-width:0.5;" x1="934" x2="1047" y1="1198.4375" y2="1198.4375"/></g><!--MD5=[9b4de504215638550a8bb9c080b7ee00]
class Justification--><g id="elem_Justification"><rect codeLine="44" fill="#F1F1F1" height="118.4375" id="Justification" rx="2.5" ry="2.5" style="stroke:#181818;stroke-width:0.5;" width="105" x="938" y="1284"/><ellipse cx="953" cy="1300" fill="#ADD1B2" rx="11" ry="11" style="stroke:#181818;stroke-width:1.0;"/><path d="M955.7656,1295.875 Q955.9219,1295.6563 956.1094,1295.5469 Q956.2969,1295.4375 956.5156,1295.4375 Q956.8906,1295.4375 957.125,1295.7031 Q957.3594,1295.9531 957.3594,1296.5625 L957.3594,1298.0156 Q957.3594,1298.625 957.125,1298.8906 Q956.8906,1299.1563 956.5156,1299.1563 Q956.1719,1299.1563 955.9688,1298.9531 Q955.7656,1298.7656 955.6563,1298.25 Q955.6094,1297.8906 955.4219,1297.7031 Q955.0938,1297.3281 954.4844,1297.1094 Q953.875,1296.8906 953.25,1296.8906 Q952.4844,1296.8906 951.8438,1297.2188 Q951.2188,1297.5469 950.7188,1298.2969 Q950.2344,1299.0469 950.2344,1300.0781 L950.2344,1301.1719 Q950.2344,1302.4063 951.125,1303.2344 Q952.0156,1304.0469 953.6094,1304.0469 Q954.5469,1304.0469 955.2031,1303.7969 Q955.5938,1303.6406 956.0156,1303.2031 Q956.2813,1302.9375 956.4219,1302.8594 Q956.5781,1302.7813 956.7813,1302.7813 Q957.1094,1302.7813 957.3594,1303.0469 Q957.625,1303.2969 957.625,1303.6406 Q957.625,1303.9844 957.2813,1304.3906 Q956.7813,1304.9688 955.9844,1305.2969 Q954.9063,1305.75 953.6094,1305.75 Q952.0938,1305.75 950.8906,1305.125 Q949.9063,1304.625 949.2188,1303.5625 Q948.5313,1302.4844 948.5313,1301.2031 L948.5313,1300.0469 Q948.5313,1298.7188 949.1406,1297.5781 Q949.7656,1296.4219 950.8594,1295.8125 Q951.9531,1295.1875 953.1875,1295.1875 Q953.9219,1295.1875 954.5625,1295.3594 Q955.2188,1295.5156 955.7656,1295.875 Z " fill="#000000"/><text fill="#000000" font-family="sans-serif" font-size="14" lengthAdjust="spacing" textLength="73" x="967" y="1305.7285">Justification</text><line style="stroke:#181818;stroke-width:0.5;" x1="939" x2="1042" y1="1316" y2="1316"/><rect fill="none" height="6" style="stroke:#C82930;stroke-width:1.0;" width="6" x="946" y="1327.3047"/><text fill="#000000" font-family="sans-serif" font-size="14" lengthAdjust="spacing" textLength="47" x="958" y="1334.5332">content</text><rect fill="none" height="6" style="stroke:#C82930;stroke-width:1.0;" width="6" x="946" y="1344.9141"/><text fill="#000000" font-family="sans-serif" font-size="14" lengthAdjust="spacing" textLength="42" x="958" y="1352.1426">isFake</text><rect fill="none" height="6" style="stroke:#C82930;stroke-width:1.0;" width="6" x="946" y="1362.5234"/><text fill="#000000" font-family="sans-serif" font-size="14" lengthAdjust="spacing" textLength="78" x="958" y="1369.752">createdDate</text><rect fill="none" height="6" style="stroke:#C82930;stroke-width:1.0;" width="6" x="946" y="1380.1328"/><text fill="#000000" font-family="sans-serif" font-size="14" lengthAdjust="spacing" textLength="66" x="958" y="1387.3613">explication</text><line style="stroke:#181818;stroke-width:0.5;" x1="939" x2="1042" y1="1394.4375" y2="1394.4375"/></g><!--MD5=[534474e9f05b14d7c70186ae077f30e0]
class Relation--><g id="elem_Relation"><rect codeLine="51" fill="#F1F1F1" height="100.8281" id="Relation" rx="2.5" ry="2.5" style="stroke:#181818;stroke-width:0.5;" width="104" x="1083.5" y="1096.5"/><ellipse cx="1107.5" cy="1112.5" fill="#ADD1B2" rx="11" ry="11" style="stroke:#181818;stroke-width:1.0;"/><path d="M1110.2656,1108.375 Q1110.4219,1108.1563 1110.6094,1108.0469 Q1110.7969,1107.9375 1111.0156,1107.9375 Q1111.3906,1107.9375 1111.625,1108.2031 Q1111.8594,1108.4531 1111.8594,1109.0625 L1111.8594,1110.5156 Q1111.8594,1111.125 1111.625,1111.3906 Q1111.3906,1111.6563 1111.0156,1111.6563 Q1110.6719,1111.6563 1110.4688,1111.4531 Q1110.2656,1111.2656 1110.1563,1110.75 Q1110.1094,1110.3906 1109.9219,1110.2031 Q1109.5938,1109.8281 1108.9844,1109.6094 Q1108.375,1109.3906 1107.75,1109.3906 Q1106.9844,1109.3906 1106.3438,1109.7188 Q1105.7188,1110.0469 1105.2188,1110.7969 Q1104.7344,1111.5469 1104.7344,1112.5781 L1104.7344,1113.6719 Q1104.7344,1114.9063 1105.625,1115.7344 Q1106.5156,1116.5469 1108.1094,1116.5469 Q1109.0469,1116.5469 1109.7031,1116.2969 Q1110.0938,1116.1406 1110.5156,1115.7031 Q1110.7813,1115.4375 1110.9219,1115.3594 Q1111.0781,1115.2813 1111.2813,1115.2813 Q1111.6094,1115.2813 1111.8594,1115.5469 Q1112.125,1115.7969 1112.125,1116.1406 Q1112.125,1116.4844 1111.7813,1116.8906 Q1111.2813,1117.4688 1110.4844,1117.7969 Q1109.4063,1118.25 1108.1094,1118.25 Q1106.5938,1118.25 1105.3906,1117.625 Q1104.4063,1117.125 1103.7188,1116.0625 Q1103.0313,1114.9844 1103.0313,1113.7031 L1103.0313,1112.5469 Q1103.0313,1111.2188 1103.6406,1110.0781 Q1104.2656,1108.9219 1105.3594,1108.3125 Q1106.4531,1107.6875 1107.6875,1107.6875 Q1108.4219,1107.6875 1109.0625,1107.8594 Q1109.7188,1108.0156 1110.2656,1108.375 Z " fill="#000000"/><text fill="#000000" font-family="sans-serif" font-size="14" lengthAdjust="spacing" textLength="52" x="1123.5" y="1118.2285">Relation</text><line style="stroke:#181818;stroke-width:0.5;" x1="1084.5" x2="1186.5" y1="1128.5" y2="1128.5"/><rect fill="none" height="6" style="stroke:#C82930;stroke-width:1.0;" width="6" x="1091.5" y="1139.8047"/><text fill="#000000" font-family="sans-serif" font-size="14" lengthAdjust="spacing" textLength="66" x="1103.5" y="1147.0332">contents[ ]</text><rect fill="none" height="6" style="stroke:#C82930;stroke-width:1.0;" width="6" x="1091.5" y="1157.4141"/><text fill="#000000" font-family="sans-serif" font-size="14" lengthAdjust="spacing" textLength="42" x="1103.5" y="1164.6426">isFake</text><rect fill="none" height="6" style="stroke:#C82930;stroke-width:1.0;" width="6" x="1091.5" y="1175.0234"/><text fill="#000000" font-family="sans-serif" font-size="14" lengthAdjust="spacing" textLength="78" x="1103.5" y="1182.252">createdDate</text><line style="stroke:#181818;stroke-width:0.5;" x1="1084.5" x2="1186.5" y1="1189.3281" y2="1189.3281"/></g><!--MD5=[fc7123defb831ecdd44b2d9bcef6cceb]
class Question--><g id="elem_Question"><rect codeLine="57" fill="#F1F1F1" height="136.0469" id="Question" rx="2.5" ry="2.5" style="stroke:#181818;stroke-width:0.5;" width="238" x="600.5" y="676"/><ellipse cx="686.75" cy="692" fill="#ADD1B2" rx="11" ry="11" style="stroke:#181818;stroke-width:1.0;"/><path d="M689.5156,687.875 Q689.6719,687.6563 689.8594,687.5469 Q690.0469,687.4375 690.2656,687.4375 Q690.6406,687.4375 690.875,687.7031 Q691.1094,687.9531 691.1094,688.5625 L691.1094,690.0156 Q691.1094,690.625 690.875,690.8906 Q690.6406,691.1563 690.2656,691.1563 Q689.9219,691.1563 689.7188,690.9531 Q689.5156,690.7656 689.4063,690.25 Q689.3594,689.8906 689.1719,689.7031 Q688.8438,689.3281 688.2344,689.1094 Q687.625,688.8906 687,688.8906 Q686.2344,688.8906 685.5938,689.2188 Q684.9688,689.5469 684.4688,690.2969 Q683.9844,691.0469 683.9844,692.0781 L683.9844,693.1719 Q683.9844,694.4063 684.875,695.2344 Q685.7656,696.0469 687.3594,696.0469 Q688.2969,696.0469 688.9531,695.7969 Q689.3438,695.6406 689.7656,695.2031 Q690.0313,694.9375 690.1719,694.8594 Q690.3281,694.7813 690.5313,694.7813 Q690.8594,694.7813 691.1094,695.0469 Q691.375,695.2969 691.375,695.6406 Q691.375,695.9844 691.0313,696.3906 Q690.5313,696.9688 689.7344,697.2969 Q688.6563,697.75 687.3594,697.75 Q685.8438,697.75 684.6406,697.125 Q683.6563,696.625 682.9688,695.5625 Q682.2813,694.4844 682.2813,693.2031 L682.2813,692.0469 Q682.2813,690.7188 682.8906,689.5781 Q683.5156,688.4219 684.6094,687.8125 Q685.7031,687.1875 686.9375,687.1875 Q687.6719,687.1875 688.3125,687.3594 Q688.9688,687.5156 689.5156,687.875 Z " fill="#000000"/><text fill="#000000" font-family="sans-serif" font-size="14" lengthAdjust="spacing" textLength="57" x="707.25" y="697.7285">Question</text><line style="stroke:#181818;stroke-width:0.5;" x1="601.5" x2="837.5" y1="708" y2="708"/><rect fill="none" height="6" style="stroke:#C82930;stroke-width:1.0;" width="6" x="608.5" y="719.3047"/><text fill="#000000" font-family="sans-serif" font-size="14" lengthAdjust="spacing" textLength="62" x="620.5" y="726.5332">statement</text><rect fill="none" height="6" style="stroke:#C82930;stroke-width:1.0;" width="6" x="608.5" y="736.9141"/><text fill="#000000" font-family="sans-serif" font-size="14" lengthAdjust="spacing" textLength="139" x="620.5" y="744.1426">statementImplementor</text><rect fill="none" height="6" style="stroke:#C82930;stroke-width:1.0;" width="6" x="608.5" y="754.5234"/><text fill="#000000" font-family="sans-serif" font-size="14" lengthAdjust="spacing" textLength="64" x="620.5" y="761.752">answers[ ]</text><line style="stroke:#181818;stroke-width:0.5;" x1="601.5" x2="837.5" y1="768.8281" y2="768.8281"/><polygon fill="#FFFF44" points="611.5,778.1328,615.5,782.1328,611.5,786.1328,607.5,782.1328" style="stroke:#B38D22;stroke-width:1.0;"/><text fill="#000000" font-family="sans-serif" font-size="14" lengthAdjust="spacing" textLength="200" x="620.5" y="787.3613">void setStatementImplementor()</text><ellipse cx="611.5" cy="800.7422" fill="#84BE84" rx="3" ry="3" style="stroke:#038048;stroke-width:1.0;"/><text fill="#000000" font-family="sans-serif" font-size="14" lengthAdjust="spacing" textLength="212" x="620.5" y="804.9707">bool isAnsweredBy(studentName)</text></g><!--MD5=[c5a45057bd8260f278ba302c5f5fe264]
class StatementImplementor--><g id="elem_StatementImplementor"><rect codeLine="65" fill="#F1F1F1" height="118.4375" id="StatementImplementor" rx="2.5" ry="2.5" style="stroke:#181818;stroke-width:0.5;" width="173" x="874" y="685"/><ellipse cx="889" cy="701" fill="#ADD1B2" rx="11" ry="11" style="stroke:#181818;stroke-width:1.0;"/><path d="M891.7656,696.875 Q891.9219,696.6563 892.1094,696.5469 Q892.2969,696.4375 892.5156,696.4375 Q892.8906,696.4375 893.125,696.7031 Q893.3594,696.9531 893.3594,697.5625 L893.3594,699.0156 Q893.3594,699.625 893.125,699.8906 Q892.8906,700.1563 892.5156,700.1563 Q892.1719,700.1563 891.9688,699.9531 Q891.7656,699.7656 891.6563,699.25 Q891.6094,698.8906 891.4219,698.7031 Q891.0938,698.3281 890.4844,698.1094 Q889.875,697.8906 889.25,697.8906 Q888.4844,697.8906 887.8438,698.2188 Q887.2188,698.5469 886.7188,699.2969 Q886.2344,700.0469 886.2344,701.0781 L886.2344,702.1719 Q886.2344,703.4063 887.125,704.2344 Q888.0156,705.0469 889.6094,705.0469 Q890.5469,705.0469 891.2031,704.7969 Q891.5938,704.6406 892.0156,704.2031 Q892.2813,703.9375 892.4219,703.8594 Q892.5781,703.7813 892.7813,703.7813 Q893.1094,703.7813 893.3594,704.0469 Q893.625,704.2969 893.625,704.6406 Q893.625,704.9844 893.2813,705.3906 Q892.7813,705.9688 891.9844,706.2969 Q890.9063,706.75 889.6094,706.75 Q888.0938,706.75 886.8906,706.125 Q885.9063,705.625 885.2188,704.5625 Q884.5313,703.4844 884.5313,702.2031 L884.5313,701.0469 Q884.5313,699.7188 885.1406,698.5781 Q885.7656,697.4219 886.8594,696.8125 Q887.9531,696.1875 889.1875,696.1875 Q889.9219,696.1875 890.5625,696.3594 Q891.2188,696.5156 891.7656,696.875 Z " fill="#000000"/><text fill="#000000" font-family="sans-serif" font-size="14" lengthAdjust="spacing" textLength="141" x="903" y="706.7285">StatementImplementor</text><line style="stroke:#181818;stroke-width:0.5;" x1="875" x2="1046" y1="717" y2="717"/><rect fill="none" height="6" style="stroke:#C82930;stroke-width:1.0;" width="6" x="882" y="728.3047"/><text fill="#000000" font-family="sans-serif" font-size="14" lengthAdjust="spacing" textLength="50" x="894" y="735.5332">concept</text><rect fill="none" height="6" style="stroke:#C82930;stroke-width:1.0;" width="6" x="882" y="745.9141"/><text fill="#000000" font-family="sans-serif" font-size="14" lengthAdjust="spacing" textLength="56" x="894" y="753.1426">solutions</text><line style="stroke:#181818;stroke-width:0.5;" x1="875" x2="1046" y1="760.2188" y2="760.2188"/><ellipse cx="885" cy="774.5234" fill="#84BE84" rx="3" ry="3" style="stroke:#038048;stroke-width:1.0;"/><text fill="#000000" font-family="sans-serif" font-size="14" lengthAdjust="spacing" textLength="104" x="894" y="778.752">addToConcept()</text><ellipse cx="885" cy="792.1328" fill="#84BE84" rx="3" ry="3" style="stroke:#038048;stroke-width:1.0;"/><text fill="#000000" font-family="sans-serif" font-size="14" lengthAdjust="spacing" textLength="88" x="894" y="796.3613">getSolutions()</text></g><!--MD5=[f9fadfa5a66b7e5a67b370cd443ffe52]
class Answer--><g id="elem_Answer"><rect codeLine="72" fill="#F1F1F1" height="153.6563" id="Answer" rx="2.5" ry="2.5" style="stroke:#181818;stroke-width:0.5;" width="118" x="504.5" y="873"/><ellipse cx="537.5" cy="889" fill="#ADD1B2" rx="11" ry="11" style="stroke:#181818;stroke-width:1.0;"/><path d="M540.2656,884.875 Q540.4219,884.6563 540.6094,884.5469 Q540.7969,884.4375 541.0156,884.4375 Q541.3906,884.4375 541.625,884.7031 Q541.8594,884.9531 541.8594,885.5625 L541.8594,887.0156 Q541.8594,887.625 541.625,887.8906 Q541.3906,888.1563 541.0156,888.1563 Q540.6719,888.1563 540.4688,887.9531 Q540.2656,887.7656 540.1563,887.25 Q540.1094,886.8906 539.9219,886.7031 Q539.5938,886.3281 538.9844,886.1094 Q538.375,885.8906 537.75,885.8906 Q536.9844,885.8906 536.3438,886.2188 Q535.7188,886.5469 535.2188,887.2969 Q534.7344,888.0469 534.7344,889.0781 L534.7344,890.1719 Q534.7344,891.4063 535.625,892.2344 Q536.5156,893.0469 538.1094,893.0469 Q539.0469,893.0469 539.7031,892.7969 Q540.0938,892.6406 540.5156,892.2031 Q540.7813,891.9375 540.9219,891.8594 Q541.0781,891.7813 541.2813,891.7813 Q541.6094,891.7813 541.8594,892.0469 Q542.125,892.2969 542.125,892.6406 Q542.125,892.9844 541.7813,893.3906 Q541.2813,893.9688 540.4844,894.2969 Q539.4063,894.75 538.1094,894.75 Q536.5938,894.75 535.3906,894.125 Q534.4063,893.625 533.7188,892.5625 Q533.0313,891.4844 533.0313,890.2031 L533.0313,889.0469 Q533.0313,887.7188 533.6406,886.5781 Q534.2656,885.4219 535.3594,884.8125 Q536.4531,884.1875 537.6875,884.1875 Q538.4219,884.1875 539.0625,884.3594 Q539.7188,884.5156 540.2656,884.875 Z " fill="#000000"/><text fill="#000000" font-family="sans-serif" font-size="14" lengthAdjust="spacing" textLength="46" x="555.5" y="894.7285">Answer</text><line style="stroke:#181818;stroke-width:0.5;" x1="505.5" x2="621.5" y1="905" y2="905"/><rect fill="none" height="6" style="stroke:#C82930;stroke-width:1.0;" width="6" x="512.5" y="916.3047"/><text fill="#000000" font-family="sans-serif" font-size="14" lengthAdjust="spacing" textLength="47" x="524.5" y="923.5332">content</text><rect fill="none" height="6" style="stroke:#C82930;stroke-width:1.0;" width="6" x="512.5" y="933.9141"/><text fill="#000000" font-family="sans-serif" font-size="14" lengthAdjust="spacing" textLength="30" x="524.5" y="941.1426">isOK</text><rect fill="none" height="6" style="stroke:#C82930;stroke-width:1.0;" width="6" x="512.5" y="951.5234"/><text fill="#000000" font-family="sans-serif" font-size="14" lengthAdjust="spacing" textLength="73" x="524.5" y="958.752">isEvaluated</text><rect fill="none" height="6" style="stroke:#C82930;stroke-width:1.0;" width="6" x="512.5" y="969.1328"/><text fill="#000000" font-family="sans-serif" font-size="14" lengthAdjust="spacing" textLength="83" x="524.5" y="976.3613">studentName</text><rect fill="none" height="6" style="stroke:#C82930;stroke-width:1.0;" width="6" x="512.5" y="986.7422"/><text fill="#000000" font-family="sans-serif" font-size="14" lengthAdjust="spacing" textLength="78" x="524.5" y="993.9707">createdDate</text><rect fill="none" height="6" style="stroke:#C82930;stroke-width:1.0;" width="6" x="512.5" y="1004.3516"/><text fill="#000000" font-family="sans-serif" font-size="14" lengthAdjust="spacing" textLength="92" x="524.5" y="1011.5801">evaluatedDate</text><line style="stroke:#181818;stroke-width:0.5;" x1="505.5" x2="621.5" y1="1018.6563" y2="1018.6563"/></g><!--MD5=[46bd26b9d192b770379839f45ce3e013]
class MultipleChoiceQuestion--><g id="elem_MultipleChoiceQuestion"><rect codeLine="81" fill="#F1F1F1" height="48" id="MultipleChoiceQuestion" rx="2.5" ry="2.5" style="stroke:#181818;stroke-width:0.5;" width="181" x="73" y="926"/><ellipse cx="88" cy="942" fill="#ADD1B2" rx="11" ry="11" style="stroke:#181818;stroke-width:1.0;"/><path d="M90.7656,937.875 Q90.9219,937.6563 91.1094,937.5469 Q91.2969,937.4375 91.5156,937.4375 Q91.8906,937.4375 92.125,937.7031 Q92.3594,937.9531 92.3594,938.5625 L92.3594,940.0156 Q92.3594,940.625 92.125,940.8906 Q91.8906,941.1563 91.5156,941.1563 Q91.1719,941.1563 90.9688,940.9531 Q90.7656,940.7656 90.6563,940.25 Q90.6094,939.8906 90.4219,939.7031 Q90.0938,939.3281 89.4844,939.1094 Q88.875,938.8906 88.25,938.8906 Q87.4844,938.8906 86.8438,939.2188 Q86.2188,939.5469 85.7188,940.2969 Q85.2344,941.0469 85.2344,942.0781 L85.2344,943.1719 Q85.2344,944.4063 86.125,945.2344 Q87.0156,946.0469 88.6094,946.0469 Q89.5469,946.0469 90.2031,945.7969 Q90.5938,945.6406 91.0156,945.2031 Q91.2813,944.9375 91.4219,944.8594 Q91.5781,944.7813 91.7813,944.7813 Q92.1094,944.7813 92.3594,945.0469 Q92.625,945.2969 92.625,945.6406 Q92.625,945.9844 92.2813,946.3906 Q91.7813,946.9688 90.9844,947.2969 Q89.9063,947.75 88.6094,947.75 Q87.0938,947.75 85.8906,947.125 Q84.9063,946.625 84.2188,945.5625 Q83.5313,944.4844 83.5313,943.2031 L83.5313,942.0469 Q83.5313,940.7188 84.1406,939.5781 Q84.7656,938.4219 85.8594,937.8125 Q86.9531,937.1875 88.1875,937.1875 Q88.9219,937.1875 89.5625,937.3594 Q90.2188,937.5156 90.7656,937.875 Z " fill="#000000"/><text fill="#000000" font-family="sans-serif" font-size="14" lengthAdjust="spacing" textLength="149" x="102" y="947.7285">MultipleChoiceQuestion</text><line style="stroke:#181818;stroke-width:0.5;" x1="74" x2="253" y1="958" y2="958"/><line style="stroke:#181818;stroke-width:0.5;" x1="74" x2="253" y1="966" y2="966"/></g><!--MD5=[c5be3d7e9ffcf6502258095b57411394]
class OpenQuestion--><g id="elem_OpenQuestion"><rect codeLine="83" fill="#F1F1F1" height="48" id="OpenQuestion" rx="2.5" ry="2.5" style="stroke:#181818;stroke-width:0.5;" width="124" x="657.5" y="926"/><ellipse cx="672.5" cy="942" fill="#ADD1B2" rx="11" ry="11" style="stroke:#181818;stroke-width:1.0;"/><path d="M675.2656,937.875 Q675.4219,937.6563 675.6094,937.5469 Q675.7969,937.4375 676.0156,937.4375 Q676.3906,937.4375 676.625,937.7031 Q676.8594,937.9531 676.8594,938.5625 L676.8594,940.0156 Q676.8594,940.625 676.625,940.8906 Q676.3906,941.1563 676.0156,941.1563 Q675.6719,941.1563 675.4688,940.9531 Q675.2656,940.7656 675.1563,940.25 Q675.1094,939.8906 674.9219,939.7031 Q674.5938,939.3281 673.9844,939.1094 Q673.375,938.8906 672.75,938.8906 Q671.9844,938.8906 671.3438,939.2188 Q670.7188,939.5469 670.2188,940.2969 Q669.7344,941.0469 669.7344,942.0781 L669.7344,943.1719 Q669.7344,944.4063 670.625,945.2344 Q671.5156,946.0469 673.1094,946.0469 Q674.0469,946.0469 674.7031,945.7969 Q675.0938,945.6406 675.5156,945.2031 Q675.7813,944.9375 675.9219,944.8594 Q676.0781,944.7813 676.2813,944.7813 Q676.6094,944.7813 676.8594,945.0469 Q677.125,945.2969 677.125,945.6406 Q677.125,945.9844 676.7813,946.3906 Q676.2813,946.9688 675.4844,947.2969 Q674.4063,947.75 673.1094,947.75 Q671.5938,947.75 670.3906,947.125 Q669.4063,946.625 668.7188,945.5625 Q668.0313,944.4844 668.0313,943.2031 L668.0313,942.0469 Q668.0313,940.7188 668.6406,939.5781 Q669.2656,938.4219 670.3594,937.8125 Q671.4531,937.1875 672.6875,937.1875 Q673.4219,937.1875 674.0625,937.3594 Q674.7188,937.5156 675.2656,937.875 Z " fill="#000000"/><text fill="#000000" font-family="sans-serif" font-size="14" lengthAdjust="spacing" textLength="92" x="686.5" y="947.7285">OpenQuestion</text><line style="stroke:#181818;stroke-width:0.5;" x1="658.5" x2="780.5" y1="958" y2="958"/><line style="stroke:#181818;stroke-width:0.5;" x1="658.5" x2="780.5" y1="966" y2="966"/></g><!--MD5=[b07065dfc0d0e09965ec10bfc328bb3e]
class Option--><g id="elem_Option"><rect codeLine="85" fill="#F1F1F1" height="48" id="Option" rx="2.5" ry="2.5" style="stroke:#181818;stroke-width:0.5;" width="74" x="71.5" y="1123"/><ellipse cx="86.5" cy="1139" fill="#ADD1B2" rx="11" ry="11" style="stroke:#181818;stroke-width:1.0;"/><path d="M89.2656,1134.875 Q89.4219,1134.6563 89.6094,1134.5469 Q89.7969,1134.4375 90.0156,1134.4375 Q90.3906,1134.4375 90.625,1134.7031 Q90.8594,1134.9531 90.8594,1135.5625 L90.8594,1137.0156 Q90.8594,1137.625 90.625,1137.8906 Q90.3906,1138.1563 90.0156,1138.1563 Q89.6719,1138.1563 89.4688,1137.9531 Q89.2656,1137.7656 89.1563,1137.25 Q89.1094,1136.8906 88.9219,1136.7031 Q88.5938,1136.3281 87.9844,1136.1094 Q87.375,1135.8906 86.75,1135.8906 Q85.9844,1135.8906 85.3438,1136.2188 Q84.7188,1136.5469 84.2188,1137.2969 Q83.7344,1138.0469 83.7344,1139.0781 L83.7344,1140.1719 Q83.7344,1141.4063 84.625,1142.2344 Q85.5156,1143.0469 87.1094,1143.0469 Q88.0469,1143.0469 88.7031,1142.7969 Q89.0938,1142.6406 89.5156,1142.2031 Q89.7813,1141.9375 89.9219,1141.8594 Q90.0781,1141.7813 90.2813,1141.7813 Q90.6094,1141.7813 90.8594,1142.0469 Q91.125,1142.2969 91.125,1142.6406 Q91.125,1142.9844 90.7813,1143.3906 Q90.2813,1143.9688 89.4844,1144.2969 Q88.4063,1144.75 87.1094,1144.75 Q85.5938,1144.75 84.3906,1144.125 Q83.4063,1143.625 82.7188,1142.5625 Q82.0313,1141.4844 82.0313,1140.2031 L82.0313,1139.0469 Q82.0313,1137.7188 82.6406,1136.5781 Q83.2656,1135.4219 84.3594,1134.8125 Q85.4531,1134.1875 86.6875,1134.1875 Q87.4219,1134.1875 88.0625,1134.3594 Q88.7188,1134.5156 89.2656,1134.875 Z " fill="#000000"/><text fill="#000000" font-family="sans-serif" font-size="14" lengthAdjust="spacing" textLength="42" x="100.5" y="1144.7285">Option</text><line style="stroke:#181818;stroke-width:0.5;" x1="72.5" x2="144.5" y1="1155" y2="1155"/><line style="stroke:#181818;stroke-width:0.5;" x1="72.5" x2="144.5" y1="1163" y2="1163"/></g><!--MD5=[bc629657279eaa9349f412646650f2c5]
class Correct--><g id="elem_Correct"><rect codeLine="87" fill="#F1F1F1" height="48" id="Correct" rx="2.5" ry="2.5" style="stroke:#181818;stroke-width:0.5;" width="79" x="141" y="1319"/><ellipse cx="156" cy="1335" fill="#ADD1B2" rx="11" ry="11" style="stroke:#181818;stroke-width:1.0;"/><path d="M158.7656,1330.875 Q158.9219,1330.6563 159.1094,1330.5469 Q159.2969,1330.4375 159.5156,1330.4375 Q159.8906,1330.4375 160.125,1330.7031 Q160.3594,1330.9531 160.3594,1331.5625 L160.3594,1333.0156 Q160.3594,1333.625 160.125,1333.8906 Q159.8906,1334.1563 159.5156,1334.1563 Q159.1719,1334.1563 158.9688,1333.9531 Q158.7656,1333.7656 158.6563,1333.25 Q158.6094,1332.8906 158.4219,1332.7031 Q158.0938,1332.3281 157.4844,1332.1094 Q156.875,1331.8906 156.25,1331.8906 Q155.4844,1331.8906 154.8438,1332.2188 Q154.2188,1332.5469 153.7188,1333.2969 Q153.2344,1334.0469 153.2344,1335.0781 L153.2344,1336.1719 Q153.2344,1337.4063 154.125,1338.2344 Q155.0156,1339.0469 156.6094,1339.0469 Q157.5469,1339.0469 158.2031,1338.7969 Q158.5938,1338.6406 159.0156,1338.2031 Q159.2813,1337.9375 159.4219,1337.8594 Q159.5781,1337.7813 159.7813,1337.7813 Q160.1094,1337.7813 160.3594,1338.0469 Q160.625,1338.2969 160.625,1338.6406 Q160.625,1338.9844 160.2813,1339.3906 Q159.7813,1339.9688 158.9844,1340.2969 Q157.9063,1340.75 156.6094,1340.75 Q155.0938,1340.75 153.8906,1340.125 Q152.9063,1339.625 152.2188,1338.5625 Q151.5313,1337.4844 151.5313,1336.2031 L151.5313,1335.0469 Q151.5313,1333.7188 152.1406,1332.5781 Q152.7656,1331.4219 153.8594,1330.8125 Q154.9531,1330.1875 156.1875,1330.1875 Q156.9219,1330.1875 157.5625,1330.3594 Q158.2188,1330.5156 158.7656,1330.875 Z " fill="#000000"/><text fill="#000000" font-family="sans-serif" font-size="14" lengthAdjust="spacing" textLength="47" x="170" y="1340.7285">Correct</text><line style="stroke:#181818;stroke-width:0.5;" x1="142" x2="219" y1="1351" y2="1351"/><line style="stroke:#181818;stroke-width:0.5;" x1="142" x2="219" y1="1359" y2="1359"/></g><!--MD5=[37923dc032bbfca87d4413e584fa2cda]
class Incorrect--><g id="elem_Incorrect"><rect codeLine="89" fill="#F1F1F1" height="48" id="Incorrect" rx="2.5" ry="2.5" style="stroke:#181818;stroke-width:0.5;" width="87" x="7" y="1319"/><ellipse cx="22" cy="1335" fill="#ADD1B2" rx="11" ry="11" style="stroke:#181818;stroke-width:1.0;"/><path d="M24.7656,1330.875 Q24.9219,1330.6563 25.1094,1330.5469 Q25.2969,1330.4375 25.5156,1330.4375 Q25.8906,1330.4375 26.125,1330.7031 Q26.3594,1330.9531 26.3594,1331.5625 L26.3594,1333.0156 Q26.3594,1333.625 26.125,1333.8906 Q25.8906,1334.1563 25.5156,1334.1563 Q25.1719,1334.1563 24.9688,1333.9531 Q24.7656,1333.7656 24.6563,1333.25 Q24.6094,1332.8906 24.4219,1332.7031 Q24.0938,1332.3281 23.4844,1332.1094 Q22.875,1331.8906 22.25,1331.8906 Q21.4844,1331.8906 20.8438,1332.2188 Q20.2188,1332.5469 19.7188,1333.2969 Q19.2344,1334.0469 19.2344,1335.0781 L19.2344,1336.1719 Q19.2344,1337.4063 20.125,1338.2344 Q21.0156,1339.0469 22.6094,1339.0469 Q23.5469,1339.0469 24.2031,1338.7969 Q24.5938,1338.6406 25.0156,1338.2031 Q25.2813,1337.9375 25.4219,1337.8594 Q25.5781,1337.7813 25.7813,1337.7813 Q26.1094,1337.7813 26.3594,1338.0469 Q26.625,1338.2969 26.625,1338.6406 Q26.625,1338.9844 26.2813,1339.3906 Q25.7813,1339.9688 24.9844,1340.2969 Q23.9063,1340.75 22.6094,1340.75 Q21.0938,1340.75 19.8906,1340.125 Q18.9063,1339.625 18.2188,1338.5625 Q17.5313,1337.4844 17.5313,1336.2031 L17.5313,1335.0469 Q17.5313,1333.7188 18.1406,1332.5781 Q18.7656,1331.4219 19.8594,1330.8125 Q20.9531,1330.1875 22.1875,1330.1875 Q22.9219,1330.1875 23.5625,1330.3594 Q24.2188,1330.5156 24.7656,1330.875 Z " fill="#000000"/><text fill="#000000" font-family="sans-serif" font-size="14" lengthAdjust="spacing" textLength="55" x="36" y="1340.7285">Incorrect</text><line style="stroke:#181818;stroke-width:0.5;" x1="8" x2="93" y1="1351" y2="1351"/><line style="stroke:#181818;stroke-width:0.5;" x1="8" x2="93" y1="1359" y2="1359"/></g><!--MD5=[54a8e627be4ee6aab370a2a8960cc8d7]
class OpenAnswer--><g id="elem_OpenAnswer"><rect codeLine="91" fill="#F1F1F1" height="83.2188" id="OpenAnswer" rx="2.5" ry="2.5" style="stroke:#181818;stroke-width:0.5;" width="113" x="554" y="1105.5"/><ellipse cx="569" cy="1121.5" fill="#ADD1B2" rx="11" ry="11" style="stroke:#181818;stroke-width:1.0;"/><path d="M571.7656,1117.375 Q571.9219,1117.1563 572.1094,1117.0469 Q572.2969,1116.9375 572.5156,1116.9375 Q572.8906,1116.9375 573.125,1117.2031 Q573.3594,1117.4531 573.3594,1118.0625 L573.3594,1119.5156 Q573.3594,1120.125 573.125,1120.3906 Q572.8906,1120.6563 572.5156,1120.6563 Q572.1719,1120.6563 571.9688,1120.4531 Q571.7656,1120.2656 571.6563,1119.75 Q571.6094,1119.3906 571.4219,1119.2031 Q571.0938,1118.8281 570.4844,1118.6094 Q569.875,1118.3906 569.25,1118.3906 Q568.4844,1118.3906 567.8438,1118.7188 Q567.2188,1119.0469 566.7188,1119.7969 Q566.2344,1120.5469 566.2344,1121.5781 L566.2344,1122.6719 Q566.2344,1123.9063 567.125,1124.7344 Q568.0156,1125.5469 569.6094,1125.5469 Q570.5469,1125.5469 571.2031,1125.2969 Q571.5938,1125.1406 572.0156,1124.7031 Q572.2813,1124.4375 572.4219,1124.3594 Q572.5781,1124.2813 572.7813,1124.2813 Q573.1094,1124.2813 573.3594,1124.5469 Q573.625,1124.7969 573.625,1125.1406 Q573.625,1125.4844 573.2813,1125.8906 Q572.7813,1126.4688 571.9844,1126.7969 Q570.9063,1127.25 569.6094,1127.25 Q568.0938,1127.25 566.8906,1126.625 Q565.9063,1126.125 565.2188,1125.0625 Q564.5313,1123.9844 564.5313,1122.7031 L564.5313,1121.5469 Q564.5313,1120.2188 565.1406,1119.0781 Q565.7656,1117.9219 566.8594,1117.3125 Q567.9531,1116.6875 569.1875,1116.6875 Q569.9219,1116.6875 570.5625,1116.8594 Q571.2188,1117.0156 571.7656,1117.375 Z " fill="#000000"/><text fill="#000000" font-family="sans-serif" font-size="14" lengthAdjust="spacing" textLength="81" x="583" y="1127.2285">OpenAnswer</text><line style="stroke:#181818;stroke-width:0.5;" x1="555" x2="666" y1="1137.5" y2="1137.5"/><rect fill="none" height="6" style="stroke:#C82930;stroke-width:1.0;" width="6" x="562" y="1148.8047"/><text fill="#000000" font-family="sans-serif" font-size="14" lengthAdjust="spacing" textLength="47" x="574" y="1156.0332">content</text><rect fill="none" height="6" style="stroke:#C82930;stroke-width:1.0;" width="6" x="562" y="1166.4141"/><text fill="#000000" font-family="sans-serif" font-size="14" lengthAdjust="spacing" textLength="78" x="574" y="1173.6426">evaluatedBy</text><line style="stroke:#181818;stroke-width:0.5;" x1="555" x2="666" y1="1180.7188" y2="1180.7188"/></g><!--MD5=[bed984ae8b00ce24eb0f64fea27a6507]
class SelectedOption--><g id="elem_SelectedOption"><rect codeLine="96" fill="#F1F1F1" height="48" id="SelectedOption" rx="2.5" ry="2.5" style="stroke:#181818;stroke-width:0.5;" width="129" x="252" y="1123"/><ellipse cx="267" cy="1139" fill="#ADD1B2" rx="11" ry="11" style="stroke:#181818;stroke-width:1.0;"/><path d="M269.7656,1134.875 Q269.9219,1134.6563 270.1094,1134.5469 Q270.2969,1134.4375 270.5156,1134.4375 Q270.8906,1134.4375 271.125,1134.7031 Q271.3594,1134.9531 271.3594,1135.5625 L271.3594,1137.0156 Q271.3594,1137.625 271.125,1137.8906 Q270.8906,1138.1563 270.5156,1138.1563 Q270.1719,1138.1563 269.9688,1137.9531 Q269.7656,1137.7656 269.6563,1137.25 Q269.6094,1136.8906 269.4219,1136.7031 Q269.0938,1136.3281 268.4844,1136.1094 Q267.875,1135.8906 267.25,1135.8906 Q266.4844,1135.8906 265.8438,1136.2188 Q265.2188,1136.5469 264.7188,1137.2969 Q264.2344,1138.0469 264.2344,1139.0781 L264.2344,1140.1719 Q264.2344,1141.4063 265.125,1142.2344 Q266.0156,1143.0469 267.6094,1143.0469 Q268.5469,1143.0469 269.2031,1142.7969 Q269.5938,1142.6406 270.0156,1142.2031 Q270.2813,1141.9375 270.4219,1141.8594 Q270.5781,1141.7813 270.7813,1141.7813 Q271.1094,1141.7813 271.3594,1142.0469 Q271.625,1142.2969 271.625,1142.6406 Q271.625,1142.9844 271.2813,1143.3906 Q270.7813,1143.9688 269.9844,1144.2969 Q268.9063,1144.75 267.6094,1144.75 Q266.0938,1144.75 264.8906,1144.125 Q263.9063,1143.625 263.2188,1142.5625 Q262.5313,1141.4844 262.5313,1140.2031 L262.5313,1139.0469 Q262.5313,1137.7188 263.1406,1136.5781 Q263.7656,1135.4219 264.8594,1134.8125 Q265.9531,1134.1875 267.1875,1134.1875 Q267.9219,1134.1875 268.5625,1134.3594 Q269.2188,1134.5156 269.7656,1134.875 Z " fill="#000000"/><text fill="#000000" font-family="sans-serif" font-size="14" lengthAdjust="spacing" textLength="97" x="281" y="1144.7285">SelectedOption</text><line style="stroke:#181818;stroke-width:0.5;" x1="253" x2="380" y1="1155" y2="1155"/><line style="stroke:#181818;stroke-width:0.5;" x1="253" x2="380" y1="1163" y2="1163"/></g><!--MD5=[b355d11dc5a9142e22f9a644da54834e]
class Explication--><g id="elem_Explication"><rect fill="#F1F1F1" height="48" id="Explication" rx="2.5" ry="2.5" style="stroke:#181818;stroke-width:0.5;" width="99" x="941" y="1480"/><ellipse cx="956" cy="1496" fill="#ADD1B2" rx="11" ry="11" style="stroke:#181818;stroke-width:1.0;"/><path d="M958.7656,1491.875 Q958.9219,1491.6563 959.1094,1491.5469 Q959.2969,1491.4375 959.5156,1491.4375 Q959.8906,1491.4375 960.125,1491.7031 Q960.3594,1491.9531 960.3594,1492.5625 L960.3594,1494.0156 Q960.3594,1494.625 960.125,1494.8906 Q959.8906,1495.1563 959.5156,1495.1563 Q959.1719,1495.1563 958.9688,1494.9531 Q958.7656,1494.7656 958.6563,1494.25 Q958.6094,1493.8906 958.4219,1493.7031 Q958.0938,1493.3281 957.4844,1493.1094 Q956.875,1492.8906 956.25,1492.8906 Q955.4844,1492.8906 954.8438,1493.2188 Q954.2188,1493.5469 953.7188,1494.2969 Q953.2344,1495.0469 953.2344,1496.0781 L953.2344,1497.1719 Q953.2344,1498.4063 954.125,1499.2344 Q955.0156,1500.0469 956.6094,1500.0469 Q957.5469,1500.0469 958.2031,1499.7969 Q958.5938,1499.6406 959.0156,1499.2031 Q959.2813,1498.9375 959.4219,1498.8594 Q959.5781,1498.7813 959.7813,1498.7813 Q960.1094,1498.7813 960.3594,1499.0469 Q960.625,1499.2969 960.625,1499.6406 Q960.625,1499.9844 960.2813,1500.3906 Q959.7813,1500.9688 958.9844,1501.2969 Q957.9063,1501.75 956.6094,1501.75 Q955.0938,1501.75 953.8906,1501.125 Q952.9063,1500.625 952.2188,1499.5625 Q951.5313,1498.4844 951.5313,1497.2031 L951.5313,1496.0469 Q951.5313,1494.7188 952.1406,1493.5781 Q952.7656,1492.4219 953.8594,1491.8125 Q954.9531,1491.1875 956.1875,1491.1875 Q956.9219,1491.1875 957.5625,1491.3594 Q958.2188,1491.5156 958.7656,1491.875 Z " fill="#000000"/><text fill="#000000" font-family="sans-serif" font-size="14" lengthAdjust="spacing" textLength="67" x="970" y="1501.7285">Explication</text><line style="stroke:#181818;stroke-width:0.5;" x1="942" x2="1039" y1="1512" y2="1512"/><line style="stroke:#181818;stroke-width:0.5;" x1="942" x2="1039" y1="1520" y2="1520"/></g><!--MD5=[14dcd1c6f0ba10ad7a0e543e42252a17]
class Solution--><g id="elem_Solution"><rect fill="#F1F1F1" height="48" id="Solution" rx="2.5" ry="2.5" style="stroke:#181818;stroke-width:0.5;" width="83" x="753" y="1123"/><ellipse cx="768" cy="1139" fill="#ADD1B2" rx="11" ry="11" style="stroke:#181818;stroke-width:1.0;"/><path d="M770.7656,1134.875 Q770.9219,1134.6563 771.1094,1134.5469 Q771.2969,1134.4375 771.5156,1134.4375 Q771.8906,1134.4375 772.125,1134.7031 Q772.3594,1134.9531 772.3594,1135.5625 L772.3594,1137.0156 Q772.3594,1137.625 772.125,1137.8906 Q771.8906,1138.1563 771.5156,1138.1563 Q771.1719,1138.1563 770.9688,1137.9531 Q770.7656,1137.7656 770.6563,1137.25 Q770.6094,1136.8906 770.4219,1136.7031 Q770.0938,1136.3281 769.4844,1136.1094 Q768.875,1135.8906 768.25,1135.8906 Q767.4844,1135.8906 766.8438,1136.2188 Q766.2188,1136.5469 765.7188,1137.2969 Q765.2344,1138.0469 765.2344,1139.0781 L765.2344,1140.1719 Q765.2344,1141.4063 766.125,1142.2344 Q767.0156,1143.0469 768.6094,1143.0469 Q769.5469,1143.0469 770.2031,1142.7969 Q770.5938,1142.6406 771.0156,1142.2031 Q771.2813,1141.9375 771.4219,1141.8594 Q771.5781,1141.7813 771.7813,1141.7813 Q772.1094,1141.7813 772.3594,1142.0469 Q772.625,1142.2969 772.625,1142.6406 Q772.625,1142.9844 772.2813,1143.3906 Q771.7813,1143.9688 770.9844,1144.2969 Q769.9063,1144.75 768.6094,1144.75 Q767.0938,1144.75 765.8906,1144.125 Q764.9063,1143.625 764.2188,1142.5625 Q763.5313,1141.4844 763.5313,1140.2031 L763.5313,1139.0469 Q763.5313,1137.7188 764.1406,1136.5781 Q764.7656,1135.4219 765.8594,1134.8125 Q766.9531,1134.1875 768.1875,1134.1875 Q768.9219,1134.1875 769.5625,1134.3594 Q770.2188,1134.5156 770.7656,1134.875 Z " fill="#000000"/><text fill="#000000" font-family="sans-serif" font-size="14" lengthAdjust="spacing" textLength="51" x="782" y="1144.7285">Solution</text><line style="stroke:#181818;stroke-width:0.5;" x1="754" x2="835" y1="1155" y2="1155"/><line style="stroke:#181818;stroke-width:0.5;" x1="754" x2="835" y1="1163" y2="1163"/></g><!--MD5=[8235d596e40eaa310e25cb7e3d92ec72]
reverse link Community to User--><g id="link_Community_User"><path codeLine="100" d="M1094.19,65.77 C1082.15,81.22 1067.79,99.65 1055.17,115.86 " fill="none" id="Community-backto-User" style="stroke:#181818;stroke-width:1.0;"/><polygon fill="#181818" points="1102.48,55.13,1095.6359,57.4011,1095.0999,64.5923,1101.9441,62.3212,1102.48,55.13" style="stroke:#181818;stroke-width:1.0;"/><text fill="#000000" font-family="sans-serif" font-size="13" lengthAdjust="spacing" textLength="22" x="1036.5935" y="105.1445">2..n</text></g><!--MD5=[8b55897a5ea9705e017b96a45c367fde]
reverse link Community to Category--><g id="link_Community_Category"><path codeLine="101" d="M1147.39,65.73 C1163.74,89.64 1181.5,123.25 1181.5,156.5 C1181.5,156.5 1181.5,156.5 1181.5,421 C1181.5,452.1 1186.23,486.66 1191.09,513.95 " fill="none" id="Community-backto-Category" style="stroke:#181818;stroke-width:1.0;"/><polygon fill="none" points="1139.8,55.15,1140.0463,62.3569,1146.7936,64.9014,1146.5473,57.6945,1139.8,55.15" style="stroke:#181818;stroke-width:1.0;"/><text fill="#000000" font-family="sans-serif" font-size="13" lengthAdjust="spacing" textLength="22" x="1166.0792" y="503.2483">0..n</text></g><!--MD5=[c98fdacbcd4eb224c2d9d26b53646e58]
reverse link Category to Category--><g id="link_Category_Category"><path codeLine="103" d="M1272.47,550.38 C1285.15,552.22 1294,556.92 1294,564.5 C1294,574.5 1278.58,579.5 1259.31,579.5 " fill="none" id="Category-backto-Category" style="stroke:#181818;stroke-width:1.0;"/><polygon fill="none" points="1259.31,549.5,1265.0284,553.8932,1271.283,550.3044,1265.5646,545.9112,1259.31,549.5" style="stroke:#181818;stroke-width:1.0;"/><text fill="#000000" font-family="sans-serif" font-size="13" lengthAdjust="spacing" textLength="83" x="1300" y="569.9951">Subcategories</text><text fill="#000000" font-family="sans-serif" font-size="13" lengthAdjust="spacing" textLength="22" x="1266.8361" y="577.7894">0..n</text></g><!--MD5=[d87c224b488f6c9759d0a77cb4053101]
reverse link User to Teacher--><g id="link_User_Teacher"><path codeLine="105" d="M1023.5,219.29 C1023.5,233.32 1023.5,247.7 1023.5,259.93 " fill="none" id="User-backto-Teacher" style="stroke:#181818;stroke-width:1.0;"/><polygon fill="none" points="1016.5,219.28,1023.5,199.28,1030.5,219.28,1016.5,219.28" style="stroke:#181818;stroke-width:1.0;"/></g><!--MD5=[29fe19ce294944fa80f389ae9bd987a4]
reverse link User to Student--><g id="link_User_Student"><path codeLine="106" d="M959.06,212.27 C935.41,232 909.88,253.3 891.16,268.92 " fill="none" id="User-backto-Student" style="stroke:#181818;stroke-width:1.0;"/><polygon fill="none" points="954.78,206.72,974.63,199.28,963.75,217.47,954.78,206.72" style="stroke:#181818;stroke-width:1.0;"/></g><!--MD5=[a8afb83bcf8ff3e1e4f8554b4cb258ee]
link Teacher to Concept--><g id="link_Teacher_Concept"><path codeLine="108" d="M1027.27,326.04 C1039.29,428.36 1076.94,748.6 1093.06,885.69 " fill="none" id="Teacher-to-Concept" style="stroke:#181818;stroke-width:1.0;stroke-dasharray:7.0,7.0;"/><polygon fill="#181818" points="1093.67,890.89,1096.5863,881.4828,1093.0833,885.9245,1088.6416,882.4215,1093.67,890.89" style="stroke:#181818;stroke-width:1.0;"/></g><!--MD5=[338c593997b7e5d530c3a07b33e0a9dd]
reverse link Category to Concept--><g id="link_Category_Concept"><path codeLine="109" d="M1185.09,627.82 C1165.92,700.59 1134.48,819.98 1115.81,890.89 " fill="none" id="Category-backto-Concept" style="stroke:#181818;stroke-width:1.0;"/><polygon fill="none" points="1188.4,615.24,1183.0077,620.0278,1185.3532,626.8468,1190.7455,622.059,1188.4,615.24" style="stroke:#181818;stroke-width:1.0;"/><text fill="#000000" font-family="sans-serif" font-size="13" lengthAdjust="spacing" textLength="22" x="1094.3353" y="880.2008">0..n</text></g><!--MD5=[be86f0f0d8c7a6763b3fe4655a4ceaae]
reverse link Category to Question--><g id="link_Category_Question"><path codeLine="110" d="M1131.16,584.78 C1060.68,604.86 949.61,638.55 856.5,676 C850.6,678.37 844.61,680.89 838.59,683.5 " fill="none" id="Category-backto-Question" style="stroke:#181818;stroke-width:1.0;"/><polygon fill="none" points="1143.83,581.2,1136.9673,578.9857,1132.2838,584.4688,1139.1465,586.6831,1143.83,581.2" style="stroke:#181818;stroke-width:1.0;"/><text fill="#000000" font-family="sans-serif" font-size="13" lengthAdjust="spacing" textLength="26" x="843.0146" y="674.2172">0..m</text></g><!--MD5=[074ce40d5b18530ff145870ab80c27fe]
reverse link StatementImplementor to Concept--><g id="link_StatementImplementor_Concept"><path codeLine="111" d="M1007.88,814.03 C1024.98,838.96 1044.11,866.83 1060.52,890.74 " fill="none" id="StatementImplementor-backto-Concept" style="stroke:#181818;stroke-width:1.0;"/><polygon fill="#181818" points="1000.43,803.19,1000.5289,810.4004,1007.2227,813.0823,1007.1238,805.8719,1000.43,803.19" style="stroke:#181818;stroke-width:1.0;"/></g><!--MD5=[543bb2115b5a10697a67507a00f6a2f4]
reverse link Concept to Definition--><g id="link_Concept_Definition"><path codeLine="112" d="M1061.11,1020.83 C1048.75,1042.75 1035.24,1066.69 1023.38,1087.72 " fill="none" id="Concept-backto-Definition" style="stroke:#181818;stroke-width:1.0;"/><polygon fill="none" points="1067.65,1009.24,1061.2174,1012.4992,1061.7518,1019.6904,1068.1844,1016.4313,1067.65,1009.24" style="stroke:#181818;stroke-width:1.0;"/><text fill="#000000" font-family="sans-serif" font-size="13" lengthAdjust="spacing" textLength="15" x="1011.4732" y="1077.0101">0..</text></g><!--MD5=[38796b68b5180f699f927fbe8d179b6a]
reverse link Definition to Justification--><g id="link_Definition_Justification"><path codeLine="113" d="M990.5,1219.48 C990.5,1240.67 990.5,1263.6 990.5,1283.83 " fill="none" id="Definition-backto-Justification" style="stroke:#181818;stroke-width:1.0;"/><polygon fill="none" points="990.5,1206.21,986.5,1212.21,990.5,1218.21,994.5,1212.21,990.5,1206.21" style="stroke:#181818;stroke-width:1.0;"/><text fill="#000000" font-family="sans-serif" font-size="13" lengthAdjust="spacing" textLength="77" x="991.5" y="1250.4951">isFake = true</text><text fill="#000000" font-family="sans-serif" font-size="13" lengthAdjust="spacing" textLength="26" x="962.9156" y="1273.1335">0..m</text></g><!--MD5=[5b13a3dd25e80832e08dfc192ea141c9]
reverse link Justification to Explication--><g id="link_Justification_Explication"><path codeLine="114" d="M990.5,1415.46 C990.5,1438.74 990.5,1462.94 990.5,1479.99 " fill="none" id="Justification-backto-Explication" style="stroke:#181818;stroke-width:1.0;"/><polygon fill="none" points="990.5,1402.3,986.5,1408.3,990.5,1414.3,994.5,1408.3,990.5,1402.3" style="stroke:#181818;stroke-width:1.0;"/><text fill="#000000" font-family="sans-serif" font-size="13" lengthAdjust="spacing" textLength="77" x="991.5" y="1446.4951">isFake = true</text></g><!--MD5=[54f9360500e0fd532969fc16f437bbea]
reverse link Concept to Relation--><g id="link_Concept_Relation"><path codeLine="115" d="M1113.28,1022.22 C1117.7,1046.81 1122.54,1073.81 1126.58,1096.29 " fill="none" id="Concept-backto-Relation" style="stroke:#181818;stroke-width:1.0;"/><polygon fill="none" points="1110.95,1009.24,1108.0742,1015.8528,1113.0723,1021.0508,1115.9481,1014.438,1110.95,1009.24" style="stroke:#181818;stroke-width:1.0;"/><text fill="#000000" font-family="sans-serif" font-size="13" lengthAdjust="spacing" textLength="26" x="1097.4975" y="1085.5658">0..m</text></g><!--MD5=[a87ccfb1ad401ebc9457283edda68da5]
link Student to Evaluation--><g id="link_Student_Evaluation"><path codeLine="117" d="M836.75,317.22 C815.29,335.85 784.8,362.31 760.3,383.59 " fill="none" id="Student-to-Evaluation" style="stroke:#181818;stroke-width:1.0;"/><polygon fill="#181818" points="756.42,386.95,765.845,384.0919,760.2032,383.6808,760.6143,378.0389,756.42,386.95" style="stroke:#181818;stroke-width:1.0;"/><text fill="#000000" font-family="sans-serif" font-size="13" lengthAdjust="spacing" textLength="22" x="739.766" y="376.0551">0..n</text></g><!--MD5=[7ea0c49f743e358ac875b85df2ad47d3]
link Evaluation to Test--><g id="link_Evaluation_Test"><path codeLine="118" d="M719.5,453.34 C719.5,475.02 719.5,503.63 719.5,526.27 " fill="none" id="Evaluation-to-Test" style="stroke:#181818;stroke-width:1.0;"/><polygon fill="#181818" points="719.5,531.29,723.5,522.29,719.5,526.29,715.5,522.29,719.5,531.29" style="stroke:#181818;stroke-width:1.0;"/></g><!--MD5=[67b6cc77f9c51a9ece6c1301ad2aff24]
link Teacher to Evaluation--><g id="link_Teacher_Evaluation"><path codeLine="120" d="M957.91,320.97 C902.79,343.64 824.96,375.64 773.41,396.83 " fill="none" id="Teacher-to-Evaluation" style="stroke:#181818;stroke-width:1.0;stroke-dasharray:7.0,7.0;"/><polygon fill="#181818" points="768.5,398.85,778.3448,399.1327,773.1255,396.9513,775.3068,391.7319,768.5,398.85" style="stroke:#181818;stroke-width:1.0;"/></g><!--MD5=[f64dc83838b757ef1728d7fab5cb079d]
link Evaluation to OpenAnswer--><g id="link_Evaluation_OpenAnswer"><path codeLine="125" d="M670.21,423.93 C589.12,431.71 436.5,460.08 436.5,563.5 C436.5,563.5 436.5,563.5 436.5,951 C436.5,1020.73 499.21,1077.01 549.33,1110.86 " fill="none" id="Evaluation-to-OpenAnswer" style="stroke:#181818;stroke-width:1.0;stroke-dasharray:7.0,7.0;"/><polygon fill="#181818" points="553.53,1113.67,548.2472,1105.3578,549.3654,1110.9031,543.8201,1112.0213,553.53,1113.67" style="stroke:#181818;stroke-width:1.0;"/><text fill="#000000" font-family="sans-serif" font-size="13" lengthAdjust="spacing" textLength="127" x="437.5" y="749.4951">manual (! isEvaluated)</text></g><!--MD5=[1fbef7c23275e6fc2ed02dd14078f225]
link Evaluation to SelectedOption--><g id="link_Evaluation_SelectedOption"><path codeLine="126" d="M670.21,427.43 C560.85,443.08 307.5,487.53 307.5,563.5 C307.5,563.5 307.5,563.5 307.5,951 C307.5,1010.27 311.7,1079.57 314.36,1117.53 " fill="none" id="Evaluation-to-SelectedOption" style="stroke:#181818;stroke-width:1.0;stroke-dasharray:7.0,7.0;"/><polygon fill="#181818" points="314.74,1122.9,318.0886,1113.6379,314.3838,1117.9127,310.1089,1114.2079,314.74,1122.9" style="stroke:#181818;stroke-width:1.0;"/><text fill="#000000" font-family="sans-serif" font-size="13" lengthAdjust="spacing" textLength="57" x="308.5" y="749.4951">automatic</text></g><!--MD5=[37c1e8dba486a8108983e1d119d6febb]
reverse link Test to Question--><g id="link_Test_Question"><path codeLine="128" d="M719.5,610.65 C719.5,630.42 719.5,654.03 719.5,675.8 " fill="none" id="Test-backto-Question" style="stroke:#181818;stroke-width:1.0;"/><polygon fill="#181818" points="719.5,597.64,715.5,603.64,719.5,609.64,723.5,603.64,719.5,597.64" style="stroke:#181818;stroke-width:1.0;"/><text fill="#000000" font-family="sans-serif" font-size="13" lengthAdjust="spacing" textLength="22" x="696.2969" y="664.9774">1..n</text></g><!--MD5=[5ea4867893d7a476c54f91c2252dd0f8]
reverse link Question to MultipleChoiceQuestion--><g id="link_Question_MultipleChoiceQuestion"><path codeLine="129" d="M581.83,808.66 C579.03,809.8 576.26,810.91 573.5,812 C459.38,857.1 323.79,900.47 240.71,925.93 " fill="none" id="Question-backto-MultipleChoiceQuestion" style="stroke:#181818;stroke-width:1.0;"/><polygon fill="none" points="579.28,802.14,600.44,800.91,584.67,815.06,579.28,802.14" style="stroke:#181818;stroke-width:1.0;"/></g><!--MD5=[e68d8486b151d64b61c7f5b6e40a3de9]
reverse link Question to OpenQuestion--><g id="link_Question_OpenQuestion"><path codeLine="130" d="M719.5,832.39 C719.5,866.6 719.5,903.04 719.5,925.91 " fill="none" id="Question-backto-OpenQuestion" style="stroke:#181818;stroke-width:1.0;"/><polygon fill="none" points="712.5,832.08,719.5,812.08,726.5,832.08,712.5,832.08" style="stroke:#181818;stroke-width:1.0;"/></g><!--MD5=[97481891219dae41f522c9ce6709b94d]
reverse link Question to StatementImplementor--><g id="link_Question_StatementImplementor"><path codeLine="131" d="M851.8,744 C859.14,744 866.49,744 873.83,744 " fill="none" id="Question-backto-StatementImplementor" style="stroke:#181818;stroke-width:1.0;"/><polygon fill="#181818" points="838.59,744,844.59,748,850.59,744,844.59,740,838.59,744" style="stroke:#181818;stroke-width:1.0;"/></g><!--MD5=[185adfbec1fc38ddaede86a7c2f0e161]
reverse link MultipleChoiceQuestion to Option--><g id="link_MultipleChoiceQuestion_Option"><path codeLine="132" d="M153.38,986.87 C142.19,1026.54 124.5,1089.27 115.02,1122.9 " fill="none" id="MultipleChoiceQuestion-backto-Option" style="stroke:#181818;stroke-width:1.0;"/><polygon fill="#181818" points="156.97,974.13,151.4904,978.8177,153.71,985.6787,159.1895,980.991,156.97,974.13" style="stroke:#181818;stroke-width:1.0;"/><text fill="#000000" font-family="sans-serif" font-size="13" lengthAdjust="spacing" textLength="22" x="91.872" y="1112.2145">2..n</text></g><!--MD5=[8b4b6ce4502ba24ddb3ea6e9e3ffd79d]
reverse link Option to Incorrect--><g id="link_Option_Incorrect"><path codeLine="133" d="M95.86,1190.28 C84.08,1229.68 66.94,1287 57.46,1318.71 " fill="none" id="Option-backto-Incorrect" style="stroke:#181818;stroke-width:1.0;"/><polygon fill="none" points="89.18,1188.17,101.62,1171.02,102.6,1192.18,89.18,1188.17" style="stroke:#181818;stroke-width:1.0;"/></g><!--MD5=[e9c99f228a0238815f6b3520e77f42c1]
reverse link Option to Correct--><g id="link_Option_Correct"><path codeLine="134" d="M124.09,1190 C138.72,1229.42 160.06,1286.93 171.86,1318.71 " fill="none" id="Option-backto-Correct" style="stroke:#181818;stroke-width:1.0;"/><polygon fill="none" points="117.44,1192.2,117.04,1171.02,130.56,1187.33,117.44,1192.2" style="stroke:#181818;stroke-width:1.0;"/></g><!--MD5=[af3bf499bed903ad0ed1598fcccf7b9c]
reverse link MultipleChoiceQuestion to Correct--><g id="link_MultipleChoiceQuestion_Correct"><path codeLine="135" d="M165.08,987.36 C168.53,1066.69 176.65,1253.38 179.49,1318.83 " fill="none" id="MultipleChoiceQuestion-backto-Correct" style="stroke:#181818;stroke-width:1.0;"/><polygon fill="#181818" points="164.51,974.29,160.7709,980.4559,165.0244,986.279,168.7635,980.113,164.51,974.29" style="stroke:#181818;stroke-width:1.0;"/></g><!--MD5=[c33b5950e601fddbef86daa9f7dbaee3]
reverse link MultipleChoiceQuestion to Incorrect--><g id="link_MultipleChoiceQuestion_Incorrect"><path codeLine="136" d="M127.08,983.17 C101.11,1008.66 68.28,1046.75 53.5,1088 C24.63,1168.54 37.79,1272.88 45.86,1318.69 " fill="none" id="MultipleChoiceQuestion-backto-Incorrect" style="stroke:#181818;stroke-width:1.0;"/><polygon fill="#181818" points="136.64,974.03,129.5379,975.2789,127.9591,982.3151,135.0613,981.0662,136.64,974.03" style="stroke:#181818;stroke-width:1.0;"/><text fill="#000000" font-family="sans-serif" font-size="13" lengthAdjust="spacing" textLength="22" x="19.8522" y="1307.9507">1..n</text></g><!--MD5=[a41781f1f1e8030a8e1780e035976660]
reverse link MultipleChoiceQuestion to SelectedOption--><g id="link_MultipleChoiceQuestion_SelectedOption"><path codeLine="137" d="M189.84,984.57 C220.83,1024.07 271.47,1088.61 298.37,1122.9 " fill="none" id="MultipleChoiceQuestion-backto-SelectedOption" style="stroke:#181818;stroke-width:1.0;"/><polygon fill="none" points="181.65,974.13,182.2081,981.3195,189.0592,983.5695,188.5011,976.38,181.65,974.13" style="stroke:#181818;stroke-width:1.0;"/><text fill="#000000" font-family="sans-serif" font-size="13" lengthAdjust="spacing" textLength="22" x="268.9054" y="1112.2145">0..n</text></g><!--MD5=[ddd0ba9ff0adad4c5f8027dfa32b4028]
reverse link OpenQuestion to OpenAnswer--><g id="link_OpenQuestion_OpenAnswer"><path codeLine="138" d="M700.14,985.63 C681.43,1019.11 653.08,1069.83 633.28,1105.24 " fill="none" id="OpenQuestion-backto-OpenAnswer" style="stroke:#181818;stroke-width:1.0;"/><polygon fill="none" points="706.57,974.13,700.1521,977.418,700.7188,984.6068,707.1367,981.3188,706.57,974.13" style="stroke:#181818;stroke-width:1.0;"/><text fill="#000000" font-family="sans-serif" font-size="13" lengthAdjust="spacing" textLength="22" x="613.2311" y="1094.5046">0..n</text></g><!--MD5=[5d713b1c0eb5d19b54b4791b73108c83]
reverse link Question to Answer--><g id="link_Question_Answer"><path codeLine="139" d="M660.08,822.7 C647.55,839.09 634.34,856.36 621.85,872.69 " fill="none" id="Question-backto-Answer" style="stroke:#181818;stroke-width:1.0;"/><polygon fill="none" points="668.2,812.08,661.3776,814.4156,660.9096,821.6115,667.732,819.2759,668.2,812.08" style="stroke:#181818;stroke-width:1.0;"/><text fill="#000000" font-family="sans-serif" font-size="13" lengthAdjust="spacing" textLength="22" x="604.363" y="862.0871">0..n</text></g><!--MD5=[d836dd5f24b2050a0870c879f4cc72e6]
reverse link Answer to OpenAnswer--><g id="link_Answer_OpenAnswer"><path codeLine="140" d="M586.6,1046.83 C591.56,1067.42 596.55,1088.12 600.67,1105.23 " fill="none" id="Answer-backto-OpenAnswer" style="stroke:#181818;stroke-width:1.0;"/><polygon fill="none" points="579.75,1048.31,581.87,1027.23,593.36,1045.03,579.75,1048.31" style="stroke:#181818;stroke-width:1.0;"/></g><!--MD5=[c9991b0162c2b5928e47e95121f6f5d4]
reverse link Answer to SelectedOption--><g id="link_Answer_SelectedOption"><path codeLine="141" d="M488.52,1010.19 C440.4,1048.18 380.61,1095.39 345.68,1122.96 " fill="none" id="Answer-backto-SelectedOption" style="stroke:#181818;stroke-width:1.0;"/><polygon fill="none" points="484.3,1004.61,504.34,997.71,492.98,1015.59,484.3,1004.61" style="stroke:#181818;stroke-width:1.0;"/></g><!--MD5=[98aa07428d46824cc2b88ba1e197bb35]
link OpenAnswer to Solution--><g id="link_OpenAnswer_Solution"><path codeLine="142" d="M667.28,1147 C691.43,1147 715.58,1147 739.73,1147 " fill="none" id="OpenAnswer-to-Solution" style="stroke:#181818;stroke-width:1.0;"/><polygon fill="#181818" points="752.76,1147,746.76,1143,740.76,1147,746.76,1151,752.76,1147" style="stroke:#181818;stroke-width:1.0;"/></g><!--MD5=[d5c0e741f0a12e9aa4c3ac739b934865]
reverse link StatementImplementor to Solution--><g id="link_StatementImplementor_Solution"><path codeLine="143" d="M931.28,815.57 C893.2,907.58 828.57,1063.69 804.2,1122.58 " fill="none" id="StatementImplementor-backto-Solution" style="stroke:#181818;stroke-width:1.0;"/><polygon fill="none" points="936.36,803.31,930.3681,807.3222,931.7671,814.3963,937.759,810.3841,936.36,803.31" style="stroke:#181818;stroke-width:1.0;"/><text fill="#000000" font-family="sans-serif" font-size="13" lengthAdjust="spacing" textLength="26" x="777.3956" y="1112.2156">1..m</text></g><!--MD5=[b05bc98666c8749e73bc32bc5cbb9bfa]
@startuml OpoTestDomain

class Community

class User {
    - username
    - categorySelected
}

class Teacher {
    -conceptSelected
}

class Student

class Evaluation {
    - result
}

class Category {
    - subcategories
    - concepts[ ]
    - questions[ ]
}

class Test {
    - questions[ category.getAllQuestions() ]
}

class Concept {
    - keyword
    - fakekeywords[ ]
    - definitions[ ]
    - relations[ ]
    
}

class Definition {
    - content
    - isFake
    - createdDate
    - justifications[ ]
}

class Justification {
    - content
    - isFake
    - createdDate
    - explication
}

class Relation {
    - contents[ ]
    - isFake
    - createdDate
}

class Question {
    - statement
    - statementImplementor
    - answers[ ]
    # void setStatementImplementor()
    + bool isAnsweredBy(studentName)
}

class StatementImplementor {
    - concept
    - solutions
    + addToConcept()
    + getSolutions()
}

class Answer {
    - content
    - isOK
    - isEvaluated
    - studentName
    - createdDate
    - evaluatedDate
}

class MultipleChoiceQuestion

class OpenQuestion

class Option

class Correct

Class Incorrect

class OpenAnswer {
    - content
    - evaluatedBy
}

Class SelectedOption {

}

Community *- -"2..n" User
Community o- -"0..n" Category

Category o- -"0..n" Category : Subcategories

User <|- - Teacher
User <|- - Student

Teacher ..> Concept
Category o- -"0..n" Concept
Category o- -"0..m" Question
StatementImplementor *- - Concept
Concept o- -"0.." Definition
Definition o- -"0..m" Justification: isFake = true
Justification o- - Explication: isFake = true
Concept o- -"0..m" Relation

Student - ->"0..n" Evaluation
Evaluation - -> Test

Teacher ..> Evaluation
'Definition ..> OpenAnswer :isUsefulToConcept
'Justification ..> OpenAnswer :isUsefulToConcept
'Relation ..> OpenAnswer :isUsefulToConcept

Evaluation ..> OpenAnswer : manual (! isEvaluated)
Evaluation ..> SelectedOption : automatic

Test *- -"1..n" Question
Question <|- - MultipleChoiceQuestion
Question <|- - OpenQuestion
Question *-  StatementImplementor
MultipleChoiceQuestion *- -"2..n" Option
Option <|- - Incorrect
Option <|- - Correct
MultipleChoiceQuestion *- - Correct
MultipleChoiceQuestion *- -"1..n" Incorrect
MultipleChoiceQuestion o- -"0..n" SelectedOption
OpenQuestion o- -"0..n" OpenAnswer
Question o- -"0..n" Answer
Answer <|- - OpenAnswer
Answer <|- - SelectedOption
OpenAnswer -* Solution
StatementImplementor o- -"1..m" Solution

@enduml

@startuml OpoTestDomain

class Community

class User {
    - username
    - categorySelected
}

class Teacher {
    -conceptSelected
}

class Student

class Evaluation {
    - result
}

class Category {
    - subcategories
    - concepts[ ]
    - questions[ ]
}

class Test {
    - questions[ category.getAllQuestions() ]
}

class Concept {
    - keyword
    - fakekeywords[ ]
    - definitions[ ]
    - relations[ ]
    
}

class Definition {
    - content
    - isFake
    - createdDate
    - justifications[ ]
}

class Justification {
    - content
    - isFake
    - createdDate
    - explication
}

class Relation {
    - contents[ ]
    - isFake
    - createdDate
}

class Question {
    - statement
    - statementImplementor
    - answers[ ]
    # void setStatementImplementor()
    + bool isAnsweredBy(studentName)
}

class StatementImplementor {
    - concept
    - solutions
    + addToConcept()
    + getSolutions()
}

class Answer {
    - content
    - isOK
    - isEvaluated
    - studentName
    - createdDate
    - evaluatedDate
}

class MultipleChoiceQuestion

class OpenQuestion

class Option

class Correct

Class Incorrect

class OpenAnswer {
    - content
    - evaluatedBy
}

Class SelectedOption {

}

Community *- -"2..n" User
Community o- -"0..n" Category

Category o- -"0..n" Category : Subcategories

User <|- - Teacher
User <|- - Student

Teacher ..> Concept
Category o- -"0..n" Concept
Category o- -"0..m" Question
StatementImplementor *- - Concept
Concept o- -"0.." Definition
Definition o- -"0..m" Justification: isFake = true
Justification o- - Explication: isFake = true
Concept o- -"0..m" Relation

Student - ->"0..n" Evaluation
Evaluation - -> Test

Teacher ..> Evaluation

Evaluation ..> OpenAnswer : manual (! isEvaluated)
Evaluation ..> SelectedOption : automatic

Test *- -"1..n" Question
Question <|- - MultipleChoiceQuestion
Question <|- - OpenQuestion
Question *-  StatementImplementor
MultipleChoiceQuestion *- -"2..n" Option
Option <|- - Incorrect
Option <|- - Correct
MultipleChoiceQuestion *- - Correct
MultipleChoiceQuestion *- -"1..n" Incorrect
MultipleChoiceQuestion o- -"0..n" SelectedOption
OpenQuestion o- -"0..n" OpenAnswer
Question o- -"0..n" Answer
Answer <|- - OpenAnswer
Answer <|- - SelectedOption
OpenAnswer -* Solution
StatementImplementor o- -"1..m" Solution

@enduml

PlantUML version 1.2022.7(Mon Aug 22 18:01:30 WEST 2022)
(GPL source distribution)
Java Runtime: OpenJDK Runtime Environment
JVM: OpenJDK 64-Bit Server VM
Default Encoding: Cp1252
Language: es
Country: ES
--></g></svg>