<?xml version="1.0" encoding="UTF-8" standalone="no"?><svg xmlns="http://www.w3.org/2000/svg" xmlns:xlink="http://www.w3.org/1999/xlink" contentStyleType="text/css" height="1259px" preserveAspectRatio="none" style="width:1261px;height:1259px;background:#FFFFFF;" version="1.1" viewBox="0 0 1261 1259" width="1261px" zoomAndPan="magnify"><defs/><g><!--MD5=[668d633d11bedc8952753581a2dda3db]
class Community--><g id="elem_Community"><rect codeLine="2" fill="#F1F1F1" height="48" id="Community" rx="2.5" ry="2.5" style="stroke:#181818;stroke-width:0.5;" width="102" x="978" y="7"/><ellipse cx="993" cy="23" fill="#ADD1B2" rx="11" ry="11" style="stroke:#181818;stroke-width:1.0;"/><path d="M995.7656,18.875 Q995.9219,18.6563 996.1094,18.5469 Q996.2969,18.4375 996.5156,18.4375 Q996.8906,18.4375 997.125,18.7031 Q997.3594,18.9531 997.3594,19.5625 L997.3594,21.0156 Q997.3594,21.625 997.125,21.8906 Q996.8906,22.1563 996.5156,22.1563 Q996.1719,22.1563 995.9688,21.9531 Q995.7656,21.7656 995.6563,21.25 Q995.6094,20.8906 995.4219,20.7031 Q995.0938,20.3281 994.4844,20.1094 Q993.875,19.8906 993.25,19.8906 Q992.4844,19.8906 991.8438,20.2188 Q991.2188,20.5469 990.7188,21.2969 Q990.2344,22.0469 990.2344,23.0781 L990.2344,24.1719 Q990.2344,25.4063 991.125,26.2344 Q992.0156,27.0469 993.6094,27.0469 Q994.5469,27.0469 995.2031,26.7969 Q995.5938,26.6406 996.0156,26.2031 Q996.2813,25.9375 996.4219,25.8594 Q996.5781,25.7813 996.7813,25.7813 Q997.1094,25.7813 997.3594,26.0469 Q997.625,26.2969 997.625,26.6406 Q997.625,26.9844 997.2813,27.3906 Q996.7813,27.9688 995.9844,28.2969 Q994.9063,28.75 993.6094,28.75 Q992.0938,28.75 990.8906,28.125 Q989.9063,27.625 989.2188,26.5625 Q988.5313,25.4844 988.5313,24.2031 L988.5313,23.0469 Q988.5313,21.7188 989.1406,20.5781 Q989.7656,19.4219 990.8594,18.8125 Q991.9531,18.1875 993.1875,18.1875 Q993.9219,18.1875 994.5625,18.3594 Q995.2188,18.5156 995.7656,18.875 Z " fill="#000000"/><text fill="#000000" font-family="sans-serif" font-size="14" lengthAdjust="spacing" textLength="70" x="1007" y="28.7285">Community</text><line style="stroke:#181818;stroke-width:0.5;" x1="979" x2="1079" y1="39" y2="39"/><line style="stroke:#181818;stroke-width:0.5;" x1="979" x2="1079" y1="47" y2="47"/></g><!--MD5=[3fd616f346a44cd59a91eb10b19e157c]
class User--><g id="elem_User"><rect codeLine="4" fill="#F1F1F1" height="48" id="User" rx="2.5" ry="2.5" style="stroke:#181818;stroke-width:0.5;" width="61" x="939.5" y="116"/><ellipse cx="954.5" cy="132" fill="#ADD1B2" rx="11" ry="11" style="stroke:#181818;stroke-width:1.0;"/><path d="M957.2656,127.875 Q957.4219,127.6563 957.6094,127.5469 Q957.7969,127.4375 958.0156,127.4375 Q958.3906,127.4375 958.625,127.7031 Q958.8594,127.9531 958.8594,128.5625 L958.8594,130.0156 Q958.8594,130.625 958.625,130.8906 Q958.3906,131.1563 958.0156,131.1563 Q957.6719,131.1563 957.4688,130.9531 Q957.2656,130.7656 957.1563,130.25 Q957.1094,129.8906 956.9219,129.7031 Q956.5938,129.3281 955.9844,129.1094 Q955.375,128.8906 954.75,128.8906 Q953.9844,128.8906 953.3438,129.2188 Q952.7188,129.5469 952.2188,130.2969 Q951.7344,131.0469 951.7344,132.0781 L951.7344,133.1719 Q951.7344,134.4063 952.625,135.2344 Q953.5156,136.0469 955.1094,136.0469 Q956.0469,136.0469 956.7031,135.7969 Q957.0938,135.6406 957.5156,135.2031 Q957.7813,134.9375 957.9219,134.8594 Q958.0781,134.7813 958.2813,134.7813 Q958.6094,134.7813 958.8594,135.0469 Q959.125,135.2969 959.125,135.6406 Q959.125,135.9844 958.7813,136.3906 Q958.2813,136.9688 957.4844,137.2969 Q956.4063,137.75 955.1094,137.75 Q953.5938,137.75 952.3906,137.125 Q951.4063,136.625 950.7188,135.5625 Q950.0313,134.4844 950.0313,133.2031 L950.0313,132.0469 Q950.0313,130.7188 950.6406,129.5781 Q951.2656,128.4219 952.3594,127.8125 Q953.4531,127.1875 954.6875,127.1875 Q955.4219,127.1875 956.0625,127.3594 Q956.7188,127.5156 957.2656,127.875 Z " fill="#000000"/><text fill="#000000" font-family="sans-serif" font-size="14" lengthAdjust="spacing" textLength="29" x="968.5" y="137.7285">User</text><line style="stroke:#181818;stroke-width:0.5;" x1="940.5" x2="999.5" y1="148" y2="148"/><line style="stroke:#181818;stroke-width:0.5;" x1="940.5" x2="999.5" y1="156" y2="156"/></g><!--MD5=[61a83f88cb8b7d3a80bc8c481f3736bf]
class Teacher--><g id="elem_Teacher"><rect codeLine="6" fill="#F1F1F1" height="48" id="Teacher" rx="2.5" ry="2.5" style="stroke:#181818;stroke-width:0.5;" width="85" x="927.5" y="225"/><ellipse cx="942.5" cy="241" fill="#ADD1B2" rx="11" ry="11" style="stroke:#181818;stroke-width:1.0;"/><path d="M945.2656,236.875 Q945.4219,236.6563 945.6094,236.5469 Q945.7969,236.4375 946.0156,236.4375 Q946.3906,236.4375 946.625,236.7031 Q946.8594,236.9531 946.8594,237.5625 L946.8594,239.0156 Q946.8594,239.625 946.625,239.8906 Q946.3906,240.1563 946.0156,240.1563 Q945.6719,240.1563 945.4688,239.9531 Q945.2656,239.7656 945.1563,239.25 Q945.1094,238.8906 944.9219,238.7031 Q944.5938,238.3281 943.9844,238.1094 Q943.375,237.8906 942.75,237.8906 Q941.9844,237.8906 941.3438,238.2188 Q940.7188,238.5469 940.2188,239.2969 Q939.7344,240.0469 939.7344,241.0781 L939.7344,242.1719 Q939.7344,243.4063 940.625,244.2344 Q941.5156,245.0469 943.1094,245.0469 Q944.0469,245.0469 944.7031,244.7969 Q945.0938,244.6406 945.5156,244.2031 Q945.7813,243.9375 945.9219,243.8594 Q946.0781,243.7813 946.2813,243.7813 Q946.6094,243.7813 946.8594,244.0469 Q947.125,244.2969 947.125,244.6406 Q947.125,244.9844 946.7813,245.3906 Q946.2813,245.9688 945.4844,246.2969 Q944.4063,246.75 943.1094,246.75 Q941.5938,246.75 940.3906,246.125 Q939.4063,245.625 938.7188,244.5625 Q938.0313,243.4844 938.0313,242.2031 L938.0313,241.0469 Q938.0313,239.7188 938.6406,238.5781 Q939.2656,237.4219 940.3594,236.8125 Q941.4531,236.1875 942.6875,236.1875 Q943.4219,236.1875 944.0625,236.3594 Q944.7188,236.5156 945.2656,236.875 Z " fill="#000000"/><text fill="#000000" font-family="sans-serif" font-size="14" lengthAdjust="spacing" textLength="53" x="956.5" y="246.7285">Teacher</text><line style="stroke:#181818;stroke-width:0.5;" x1="928.5" x2="1011.5" y1="257" y2="257"/><line style="stroke:#181818;stroke-width:0.5;" x1="928.5" x2="1011.5" y1="265" y2="265"/></g><!--MD5=[d6181cb537bdc20c0a3007a98a56832d]
class Student--><g id="elem_Student"><rect codeLine="8" fill="#F1F1F1" height="48" id="Student" rx="2.5" ry="2.5" style="stroke:#181818;stroke-width:0.5;" width="81" x="789.5" y="225"/><ellipse cx="804.5" cy="241" fill="#ADD1B2" rx="11" ry="11" style="stroke:#181818;stroke-width:1.0;"/><path d="M807.2656,236.875 Q807.4219,236.6563 807.6094,236.5469 Q807.7969,236.4375 808.0156,236.4375 Q808.3906,236.4375 808.625,236.7031 Q808.8594,236.9531 808.8594,237.5625 L808.8594,239.0156 Q808.8594,239.625 808.625,239.8906 Q808.3906,240.1563 808.0156,240.1563 Q807.6719,240.1563 807.4688,239.9531 Q807.2656,239.7656 807.1563,239.25 Q807.1094,238.8906 806.9219,238.7031 Q806.5938,238.3281 805.9844,238.1094 Q805.375,237.8906 804.75,237.8906 Q803.9844,237.8906 803.3438,238.2188 Q802.7188,238.5469 802.2188,239.2969 Q801.7344,240.0469 801.7344,241.0781 L801.7344,242.1719 Q801.7344,243.4063 802.625,244.2344 Q803.5156,245.0469 805.1094,245.0469 Q806.0469,245.0469 806.7031,244.7969 Q807.0938,244.6406 807.5156,244.2031 Q807.7813,243.9375 807.9219,243.8594 Q808.0781,243.7813 808.2813,243.7813 Q808.6094,243.7813 808.8594,244.0469 Q809.125,244.2969 809.125,244.6406 Q809.125,244.9844 808.7813,245.3906 Q808.2813,245.9688 807.4844,246.2969 Q806.4063,246.75 805.1094,246.75 Q803.5938,246.75 802.3906,246.125 Q801.4063,245.625 800.7188,244.5625 Q800.0313,243.4844 800.0313,242.2031 L800.0313,241.0469 Q800.0313,239.7188 800.6406,238.5781 Q801.2656,237.4219 802.3594,236.8125 Q803.4531,236.1875 804.6875,236.1875 Q805.4219,236.1875 806.0625,236.3594 Q806.7188,236.5156 807.2656,236.875 Z " fill="#000000"/><text fill="#000000" font-family="sans-serif" font-size="14" lengthAdjust="spacing" textLength="49" x="818.5" y="246.7285">Student</text><line style="stroke:#181818;stroke-width:0.5;" x1="790.5" x2="869.5" y1="257" y2="257"/><line style="stroke:#181818;stroke-width:0.5;" x1="790.5" x2="869.5" y1="265" y2="265"/></g><!--MD5=[71e8807956d33805e77353b9d7e2df39]
class Evaluation--><g id="elem_Evaluation"><rect codeLine="10" fill="#F1F1F1" height="48" id="Evaluation" rx="2.5" ry="2.5" style="stroke:#181818;stroke-width:0.5;" width="98" x="689" y="334"/><ellipse cx="704" cy="350" fill="#ADD1B2" rx="11" ry="11" style="stroke:#181818;stroke-width:1.0;"/><path d="M706.7656,345.875 Q706.9219,345.6563 707.1094,345.5469 Q707.2969,345.4375 707.5156,345.4375 Q707.8906,345.4375 708.125,345.7031 Q708.3594,345.9531 708.3594,346.5625 L708.3594,348.0156 Q708.3594,348.625 708.125,348.8906 Q707.8906,349.1563 707.5156,349.1563 Q707.1719,349.1563 706.9688,348.9531 Q706.7656,348.7656 706.6563,348.25 Q706.6094,347.8906 706.4219,347.7031 Q706.0938,347.3281 705.4844,347.1094 Q704.875,346.8906 704.25,346.8906 Q703.4844,346.8906 702.8438,347.2188 Q702.2188,347.5469 701.7188,348.2969 Q701.2344,349.0469 701.2344,350.0781 L701.2344,351.1719 Q701.2344,352.4063 702.125,353.2344 Q703.0156,354.0469 704.6094,354.0469 Q705.5469,354.0469 706.2031,353.7969 Q706.5938,353.6406 707.0156,353.2031 Q707.2813,352.9375 707.4219,352.8594 Q707.5781,352.7813 707.7813,352.7813 Q708.1094,352.7813 708.3594,353.0469 Q708.625,353.2969 708.625,353.6406 Q708.625,353.9844 708.2813,354.3906 Q707.7813,354.9688 706.9844,355.2969 Q705.9063,355.75 704.6094,355.75 Q703.0938,355.75 701.8906,355.125 Q700.9063,354.625 700.2188,353.5625 Q699.5313,352.4844 699.5313,351.2031 L699.5313,350.0469 Q699.5313,348.7188 700.1406,347.5781 Q700.7656,346.4219 701.8594,345.8125 Q702.9531,345.1875 704.1875,345.1875 Q704.9219,345.1875 705.5625,345.3594 Q706.2188,345.5156 706.7656,345.875 Z " fill="#000000"/><text fill="#000000" font-family="sans-serif" font-size="14" lengthAdjust="spacing" textLength="66" x="718" y="355.7285">Evaluation</text><line style="stroke:#181818;stroke-width:0.5;" x1="690" x2="786" y1="366" y2="366"/><line style="stroke:#181818;stroke-width:0.5;" x1="690" x2="786" y1="374" y2="374"/></g><!--MD5=[2741598bdf59a7d7e0d5c97658fd3022]
class Result--><g id="elem_Result"><rect codeLine="12" fill="#F1F1F1" height="48" id="Result" rx="2.5" ry="2.5" style="stroke:#181818;stroke-width:0.5;" width="72" x="554" y="443"/><ellipse cx="569" cy="459" fill="#ADD1B2" rx="11" ry="11" style="stroke:#181818;stroke-width:1.0;"/><path d="M571.7656,454.875 Q571.9219,454.6563 572.1094,454.5469 Q572.2969,454.4375 572.5156,454.4375 Q572.8906,454.4375 573.125,454.7031 Q573.3594,454.9531 573.3594,455.5625 L573.3594,457.0156 Q573.3594,457.625 573.125,457.8906 Q572.8906,458.1563 572.5156,458.1563 Q572.1719,458.1563 571.9688,457.9531 Q571.7656,457.7656 571.6563,457.25 Q571.6094,456.8906 571.4219,456.7031 Q571.0938,456.3281 570.4844,456.1094 Q569.875,455.8906 569.25,455.8906 Q568.4844,455.8906 567.8438,456.2188 Q567.2188,456.5469 566.7188,457.2969 Q566.2344,458.0469 566.2344,459.0781 L566.2344,460.1719 Q566.2344,461.4063 567.125,462.2344 Q568.0156,463.0469 569.6094,463.0469 Q570.5469,463.0469 571.2031,462.7969 Q571.5938,462.6406 572.0156,462.2031 Q572.2813,461.9375 572.4219,461.8594 Q572.5781,461.7813 572.7813,461.7813 Q573.1094,461.7813 573.3594,462.0469 Q573.625,462.2969 573.625,462.6406 Q573.625,462.9844 573.2813,463.3906 Q572.7813,463.9688 571.9844,464.2969 Q570.9063,464.75 569.6094,464.75 Q568.0938,464.75 566.8906,464.125 Q565.9063,463.625 565.2188,462.5625 Q564.5313,461.4844 564.5313,460.2031 L564.5313,459.0469 Q564.5313,457.7188 565.1406,456.5781 Q565.7656,455.4219 566.8594,454.8125 Q567.9531,454.1875 569.1875,454.1875 Q569.9219,454.1875 570.5625,454.3594 Q571.2188,454.5156 571.7656,454.875 Z " fill="#000000"/><text fill="#000000" font-family="sans-serif" font-size="14" lengthAdjust="spacing" textLength="40" x="583" y="464.7285">Result</text><line style="stroke:#181818;stroke-width:0.5;" x1="555" x2="625" y1="475" y2="475"/><line style="stroke:#181818;stroke-width:0.5;" x1="555" x2="625" y1="483" y2="483"/></g><!--MD5=[a96594a83e2ecdc78cbf17c2ddf01934]
class Category--><g id="elem_Category"><rect codeLine="14" fill="#F1F1F1" height="48" id="Category" rx="2.5" ry="2.5" style="stroke:#181818;stroke-width:0.5;" width="90" x="1034" y="887"/><ellipse cx="1049" cy="903" fill="#ADD1B2" rx="11" ry="11" style="stroke:#181818;stroke-width:1.0;"/><path d="M1051.7656,898.875 Q1051.9219,898.6563 1052.1094,898.5469 Q1052.2969,898.4375 1052.5156,898.4375 Q1052.8906,898.4375 1053.125,898.7031 Q1053.3594,898.9531 1053.3594,899.5625 L1053.3594,901.0156 Q1053.3594,901.625 1053.125,901.8906 Q1052.8906,902.1563 1052.5156,902.1563 Q1052.1719,902.1563 1051.9688,901.9531 Q1051.7656,901.7656 1051.6563,901.25 Q1051.6094,900.8906 1051.4219,900.7031 Q1051.0938,900.3281 1050.4844,900.1094 Q1049.875,899.8906 1049.25,899.8906 Q1048.4844,899.8906 1047.8438,900.2188 Q1047.2188,900.5469 1046.7188,901.2969 Q1046.2344,902.0469 1046.2344,903.0781 L1046.2344,904.1719 Q1046.2344,905.4063 1047.125,906.2344 Q1048.0156,907.0469 1049.6094,907.0469 Q1050.5469,907.0469 1051.2031,906.7969 Q1051.5938,906.6406 1052.0156,906.2031 Q1052.2813,905.9375 1052.4219,905.8594 Q1052.5781,905.7813 1052.7813,905.7813 Q1053.1094,905.7813 1053.3594,906.0469 Q1053.625,906.2969 1053.625,906.6406 Q1053.625,906.9844 1053.2813,907.3906 Q1052.7813,907.9688 1051.9844,908.2969 Q1050.9063,908.75 1049.6094,908.75 Q1048.0938,908.75 1046.8906,908.125 Q1045.9063,907.625 1045.2188,906.5625 Q1044.5313,905.4844 1044.5313,904.2031 L1044.5313,903.0469 Q1044.5313,901.7188 1045.1406,900.5781 Q1045.7656,899.4219 1046.8594,898.8125 Q1047.9531,898.1875 1049.1875,898.1875 Q1049.9219,898.1875 1050.5625,898.3594 Q1051.2188,898.5156 1051.7656,898.875 Z " fill="#000000"/><text fill="#000000" font-family="sans-serif" font-size="14" lengthAdjust="spacing" textLength="58" x="1063" y="908.7285">Category</text><line style="stroke:#181818;stroke-width:0.5;" x1="1035" x2="1123" y1="919" y2="919"/><line style="stroke:#181818;stroke-width:0.5;" x1="1035" x2="1123" y1="927" y2="927"/></g><!--MD5=[df38be88ccee13e832d6fafd6288a4ca]
class Test--><g id="elem_Test"><rect codeLine="16" fill="#F1F1F1" height="48" id="Test" rx="2.5" ry="2.5" style="stroke:#181818;stroke-width:0.5;" width="60" x="661" y="443"/><ellipse cx="676" cy="459" fill="#ADD1B2" rx="11" ry="11" style="stroke:#181818;stroke-width:1.0;"/><path d="M678.7656,454.875 Q678.9219,454.6563 679.1094,454.5469 Q679.2969,454.4375 679.5156,454.4375 Q679.8906,454.4375 680.125,454.7031 Q680.3594,454.9531 680.3594,455.5625 L680.3594,457.0156 Q680.3594,457.625 680.125,457.8906 Q679.8906,458.1563 679.5156,458.1563 Q679.1719,458.1563 678.9688,457.9531 Q678.7656,457.7656 678.6563,457.25 Q678.6094,456.8906 678.4219,456.7031 Q678.0938,456.3281 677.4844,456.1094 Q676.875,455.8906 676.25,455.8906 Q675.4844,455.8906 674.8438,456.2188 Q674.2188,456.5469 673.7188,457.2969 Q673.2344,458.0469 673.2344,459.0781 L673.2344,460.1719 Q673.2344,461.4063 674.125,462.2344 Q675.0156,463.0469 676.6094,463.0469 Q677.5469,463.0469 678.2031,462.7969 Q678.5938,462.6406 679.0156,462.2031 Q679.2813,461.9375 679.4219,461.8594 Q679.5781,461.7813 679.7813,461.7813 Q680.1094,461.7813 680.3594,462.0469 Q680.625,462.2969 680.625,462.6406 Q680.625,462.9844 680.2813,463.3906 Q679.7813,463.9688 678.9844,464.2969 Q677.9063,464.75 676.6094,464.75 Q675.0938,464.75 673.8906,464.125 Q672.9063,463.625 672.2188,462.5625 Q671.5313,461.4844 671.5313,460.2031 L671.5313,459.0469 Q671.5313,457.7188 672.1406,456.5781 Q672.7656,455.4219 673.8594,454.8125 Q674.9531,454.1875 676.1875,454.1875 Q676.9219,454.1875 677.5625,454.3594 Q678.2188,454.5156 678.7656,454.875 Z " fill="#000000"/><text fill="#000000" font-family="sans-serif" font-size="14" lengthAdjust="spacing" textLength="28" x="690" y="464.7285">Test</text><line style="stroke:#181818;stroke-width:0.5;" x1="662" x2="720" y1="475" y2="475"/><line style="stroke:#181818;stroke-width:0.5;" x1="662" x2="720" y1="483" y2="483"/></g><!--MD5=[9d451b2f92d848a8e2d1a4dab2b1c6bf]
class Concept--><g id="elem_Concept"><rect codeLine="18" fill="#F1F1F1" height="83.2188" id="Concept" rx="2.5" ry="2.5" style="stroke:#181818;stroke-width:0.5;" width="85" x="938.5" y="696"/><ellipse cx="953.5" cy="712" fill="#ADD1B2" rx="11" ry="11" style="stroke:#181818;stroke-width:1.0;"/><path d="M956.2656,707.875 Q956.4219,707.6563 956.6094,707.5469 Q956.7969,707.4375 957.0156,707.4375 Q957.3906,707.4375 957.625,707.7031 Q957.8594,707.9531 957.8594,708.5625 L957.8594,710.0156 Q957.8594,710.625 957.625,710.8906 Q957.3906,711.1563 957.0156,711.1563 Q956.6719,711.1563 956.4688,710.9531 Q956.2656,710.7656 956.1563,710.25 Q956.1094,709.8906 955.9219,709.7031 Q955.5938,709.3281 954.9844,709.1094 Q954.375,708.8906 953.75,708.8906 Q952.9844,708.8906 952.3438,709.2188 Q951.7188,709.5469 951.2188,710.2969 Q950.7344,711.0469 950.7344,712.0781 L950.7344,713.1719 Q950.7344,714.4063 951.625,715.2344 Q952.5156,716.0469 954.1094,716.0469 Q955.0469,716.0469 955.7031,715.7969 Q956.0938,715.6406 956.5156,715.2031 Q956.7813,714.9375 956.9219,714.8594 Q957.0781,714.7813 957.2813,714.7813 Q957.6094,714.7813 957.8594,715.0469 Q958.125,715.2969 958.125,715.6406 Q958.125,715.9844 957.7813,716.3906 Q957.2813,716.9688 956.4844,717.2969 Q955.4063,717.75 954.1094,717.75 Q952.5938,717.75 951.3906,717.125 Q950.4063,716.625 949.7188,715.5625 Q949.0313,714.4844 949.0313,713.2031 L949.0313,712.0469 Q949.0313,710.7188 949.6406,709.5781 Q950.2656,708.4219 951.3594,707.8125 Q952.4531,707.1875 953.6875,707.1875 Q954.4219,707.1875 955.0625,707.3594 Q955.7188,707.5156 956.2656,707.875 Z " fill="#000000"/><text fill="#000000" font-family="sans-serif" font-size="14" lengthAdjust="spacing" textLength="53" x="967.5" y="717.7285">Concept</text><line style="stroke:#181818;stroke-width:0.5;" x1="939.5" x2="1022.5" y1="728" y2="728"/><rect fill="none" height="6" style="stroke:#C82930;stroke-width:1.0;" width="6" x="946.5" y="739.3047"/><text fill="#000000" font-family="sans-serif" font-size="14" lengthAdjust="spacing" textLength="52" x="958.5" y="746.5332">keyword</text><rect fill="none" height="6" style="stroke:#C82930;stroke-width:1.0;" width="6" x="946.5" y="756.9141"/><text fill="#000000" font-family="sans-serif" font-size="14" lengthAdjust="spacing" textLength="31" x="958.5" y="764.1426">state</text><line style="stroke:#181818;stroke-width:0.5;" x1="939.5" x2="1022.5" y1="771.2188" y2="771.2188"/></g><!--MD5=[fc7123defb831ecdd44b2d9bcef6cceb]
class Question--><g id="elem_Question"><rect codeLine="23" fill="#F1F1F1" height="83.2188" id="Question" rx="2.5" ry="2.5" style="stroke:#181818;stroke-width:0.5;" width="120" x="520" y="552"/><ellipse cx="548.95" cy="568" fill="#ADD1B2" rx="11" ry="11" style="stroke:#181818;stroke-width:1.0;"/><path d="M551.7156,563.875 Q551.8719,563.6563 552.0594,563.5469 Q552.2469,563.4375 552.4656,563.4375 Q552.8406,563.4375 553.075,563.7031 Q553.3094,563.9531 553.3094,564.5625 L553.3094,566.0156 Q553.3094,566.625 553.075,566.8906 Q552.8406,567.1563 552.4656,567.1563 Q552.1219,567.1563 551.9188,566.9531 Q551.7156,566.7656 551.6063,566.25 Q551.5594,565.8906 551.3719,565.7031 Q551.0438,565.3281 550.4344,565.1094 Q549.825,564.8906 549.2,564.8906 Q548.4344,564.8906 547.7938,565.2188 Q547.1688,565.5469 546.6688,566.2969 Q546.1844,567.0469 546.1844,568.0781 L546.1844,569.1719 Q546.1844,570.4063 547.075,571.2344 Q547.9656,572.0469 549.5594,572.0469 Q550.4969,572.0469 551.1531,571.7969 Q551.5438,571.6406 551.9656,571.2031 Q552.2313,570.9375 552.3719,570.8594 Q552.5281,570.7813 552.7313,570.7813 Q553.0594,570.7813 553.3094,571.0469 Q553.575,571.2969 553.575,571.6406 Q553.575,571.9844 553.2313,572.3906 Q552.7313,572.9688 551.9344,573.2969 Q550.8563,573.75 549.5594,573.75 Q548.0438,573.75 546.8406,573.125 Q545.8563,572.625 545.1688,571.5625 Q544.4813,570.4844 544.4813,569.2031 L544.4813,568.0469 Q544.4813,566.7188 545.0906,565.5781 Q545.7156,564.4219 546.8094,563.8125 Q547.9031,563.1875 549.1375,563.1875 Q549.8719,563.1875 550.5125,563.3594 Q551.1688,563.5156 551.7156,563.875 Z " fill="#000000"/><text fill="#000000" font-family="sans-serif" font-size="14" lengthAdjust="spacing" textLength="57" x="566.05" y="573.7285">Question</text><line style="stroke:#181818;stroke-width:0.5;" x1="521" x2="639" y1="584" y2="584"/><rect fill="none" height="6" style="stroke:#C82930;stroke-width:1.0;" width="6" x="528" y="595.3047"/><text fill="#000000" font-family="sans-serif" font-size="14" lengthAdjust="spacing" textLength="94" x="540" y="602.5332">statementType</text><rect fill="none" height="6" style="stroke:#C82930;stroke-width:1.0;" width="6" x="528" y="612.9141"/><text fill="#000000" font-family="sans-serif" font-size="14" lengthAdjust="spacing" textLength="77" x="540" y="620.1426">answerType</text><line style="stroke:#181818;stroke-width:0.5;" x1="521" x2="639" y1="627.2188" y2="627.2188"/></g><!--MD5=[a61a298976b7d1d94498f45c2ebfa10b]
class Statement--><g id="elem_Statement"><rect codeLine="28" fill="#F1F1F1" height="48" id="Statement" rx="2.5" ry="2.5" style="stroke:#181818;stroke-width:0.5;" width="96" x="495" y="713.5"/><ellipse cx="510" cy="729.5" fill="#ADD1B2" rx="11" ry="11" style="stroke:#181818;stroke-width:1.0;"/><path d="M512.7656,725.375 Q512.9219,725.1563 513.1094,725.0469 Q513.2969,724.9375 513.5156,724.9375 Q513.8906,724.9375 514.125,725.2031 Q514.3594,725.4531 514.3594,726.0625 L514.3594,727.5156 Q514.3594,728.125 514.125,728.3906 Q513.8906,728.6563 513.5156,728.6563 Q513.1719,728.6563 512.9688,728.4531 Q512.7656,728.2656 512.6563,727.75 Q512.6094,727.3906 512.4219,727.2031 Q512.0938,726.8281 511.4844,726.6094 Q510.875,726.3906 510.25,726.3906 Q509.4844,726.3906 508.8438,726.7188 Q508.2188,727.0469 507.7188,727.7969 Q507.2344,728.5469 507.2344,729.5781 L507.2344,730.6719 Q507.2344,731.9063 508.125,732.7344 Q509.0156,733.5469 510.6094,733.5469 Q511.5469,733.5469 512.2031,733.2969 Q512.5938,733.1406 513.0156,732.7031 Q513.2813,732.4375 513.4219,732.3594 Q513.5781,732.2813 513.7813,732.2813 Q514.1094,732.2813 514.3594,732.5469 Q514.625,732.7969 514.625,733.1406 Q514.625,733.4844 514.2813,733.8906 Q513.7813,734.4688 512.9844,734.7969 Q511.9063,735.25 510.6094,735.25 Q509.0938,735.25 507.8906,734.625 Q506.9063,734.125 506.2188,733.0625 Q505.5313,731.9844 505.5313,730.7031 L505.5313,729.5469 Q505.5313,728.2188 506.1406,727.0781 Q506.7656,725.9219 507.8594,725.3125 Q508.9531,724.6875 510.1875,724.6875 Q510.9219,724.6875 511.5625,724.8594 Q512.2188,725.0156 512.7656,725.375 Z " fill="#000000"/><text fill="#000000" font-family="sans-serif" font-size="14" lengthAdjust="spacing" textLength="64" x="524" y="735.2285">Statement</text><line style="stroke:#181818;stroke-width:0.5;" x1="496" x2="590" y1="745.5" y2="745.5"/><line style="stroke:#181818;stroke-width:0.5;" x1="496" x2="590" y1="753.5" y2="753.5"/></g><!--MD5=[f9fadfa5a66b7e5a67b370cd443ffe52]
class Answer--><g id="elem_Answer"><rect codeLine="30" fill="#F1F1F1" height="65.6094" id="Answer" rx="2.5" ry="2.5" style="stroke:#181818;stroke-width:0.5;" width="78" x="626" y="704.5"/><ellipse cx="641" cy="720.5" fill="#ADD1B2" rx="11" ry="11" style="stroke:#181818;stroke-width:1.0;"/><path d="M643.7656,716.375 Q643.9219,716.1563 644.1094,716.0469 Q644.2969,715.9375 644.5156,715.9375 Q644.8906,715.9375 645.125,716.2031 Q645.3594,716.4531 645.3594,717.0625 L645.3594,718.5156 Q645.3594,719.125 645.125,719.3906 Q644.8906,719.6563 644.5156,719.6563 Q644.1719,719.6563 643.9688,719.4531 Q643.7656,719.2656 643.6563,718.75 Q643.6094,718.3906 643.4219,718.2031 Q643.0938,717.8281 642.4844,717.6094 Q641.875,717.3906 641.25,717.3906 Q640.4844,717.3906 639.8438,717.7188 Q639.2188,718.0469 638.7188,718.7969 Q638.2344,719.5469 638.2344,720.5781 L638.2344,721.6719 Q638.2344,722.9063 639.125,723.7344 Q640.0156,724.5469 641.6094,724.5469 Q642.5469,724.5469 643.2031,724.2969 Q643.5938,724.1406 644.0156,723.7031 Q644.2813,723.4375 644.4219,723.3594 Q644.5781,723.2813 644.7813,723.2813 Q645.1094,723.2813 645.3594,723.5469 Q645.625,723.7969 645.625,724.1406 Q645.625,724.4844 645.2813,724.8906 Q644.7813,725.4688 643.9844,725.7969 Q642.9063,726.25 641.6094,726.25 Q640.0938,726.25 638.8906,725.625 Q637.9063,725.125 637.2188,724.0625 Q636.5313,722.9844 636.5313,721.7031 L636.5313,720.5469 Q636.5313,719.2188 637.1406,718.0781 Q637.7656,716.9219 638.8594,716.3125 Q639.9531,715.6875 641.1875,715.6875 Q641.9219,715.6875 642.5625,715.8594 Q643.2188,716.0156 643.7656,716.375 Z " fill="#000000"/><text fill="#000000" font-family="sans-serif" font-size="14" lengthAdjust="spacing" textLength="46" x="655" y="726.2285">Answer</text><line style="stroke:#181818;stroke-width:0.5;" x1="627" x2="703" y1="736.5" y2="736.5"/><rect fill="none" height="6" style="stroke:#C82930;stroke-width:1.0;" width="6" x="634" y="747.8047"/><text fill="#000000" font-family="sans-serif" font-size="14" lengthAdjust="spacing" textLength="30" x="646" y="755.0332">isOK</text><line style="stroke:#181818;stroke-width:0.5;" x1="627" x2="703" y1="762.1094" y2="762.1094"/></g><!--MD5=[46bd26b9d192b770379839f45ce3e013]
class MultipleChoiceQuestion--><g id="elem_MultipleChoiceQuestion"><rect codeLine="34" fill="#F1F1F1" height="48" id="MultipleChoiceQuestion" rx="2.5" ry="2.5" style="stroke:#181818;stroke-width:0.5;" width="181" x="278.5" y="713.5"/><ellipse cx="293.5" cy="729.5" fill="#ADD1B2" rx="11" ry="11" style="stroke:#181818;stroke-width:1.0;"/><path d="M296.2656,725.375 Q296.4219,725.1563 296.6094,725.0469 Q296.7969,724.9375 297.0156,724.9375 Q297.3906,724.9375 297.625,725.2031 Q297.8594,725.4531 297.8594,726.0625 L297.8594,727.5156 Q297.8594,728.125 297.625,728.3906 Q297.3906,728.6563 297.0156,728.6563 Q296.6719,728.6563 296.4688,728.4531 Q296.2656,728.2656 296.1563,727.75 Q296.1094,727.3906 295.9219,727.2031 Q295.5938,726.8281 294.9844,726.6094 Q294.375,726.3906 293.75,726.3906 Q292.9844,726.3906 292.3438,726.7188 Q291.7188,727.0469 291.2188,727.7969 Q290.7344,728.5469 290.7344,729.5781 L290.7344,730.6719 Q290.7344,731.9063 291.625,732.7344 Q292.5156,733.5469 294.1094,733.5469 Q295.0469,733.5469 295.7031,733.2969 Q296.0938,733.1406 296.5156,732.7031 Q296.7813,732.4375 296.9219,732.3594 Q297.0781,732.2813 297.2813,732.2813 Q297.6094,732.2813 297.8594,732.5469 Q298.125,732.7969 298.125,733.1406 Q298.125,733.4844 297.7813,733.8906 Q297.2813,734.4688 296.4844,734.7969 Q295.4063,735.25 294.1094,735.25 Q292.5938,735.25 291.3906,734.625 Q290.4063,734.125 289.7188,733.0625 Q289.0313,731.9844 289.0313,730.7031 L289.0313,729.5469 Q289.0313,728.2188 289.6406,727.0781 Q290.2656,725.9219 291.3594,725.3125 Q292.4531,724.6875 293.6875,724.6875 Q294.4219,724.6875 295.0625,724.8594 Q295.7188,725.0156 296.2656,725.375 Z " fill="#000000"/><text fill="#000000" font-family="sans-serif" font-size="14" lengthAdjust="spacing" textLength="149" x="307.5" y="735.2285">MultipleChoiceQuestion</text><line style="stroke:#181818;stroke-width:0.5;" x1="279.5" x2="458.5" y1="745.5" y2="745.5"/><line style="stroke:#181818;stroke-width:0.5;" x1="279.5" x2="458.5" y1="753.5" y2="753.5"/></g><!--MD5=[c5be3d7e9ffcf6502258095b57411394]
class OpenQuestion--><g id="elem_OpenQuestion"><rect codeLine="36" fill="#F1F1F1" height="48" id="OpenQuestion" rx="2.5" ry="2.5" style="stroke:#181818;stroke-width:0.5;" width="124" x="7" y="809"/><ellipse cx="22" cy="825" fill="#ADD1B2" rx="11" ry="11" style="stroke:#181818;stroke-width:1.0;"/><path d="M24.7656,820.875 Q24.9219,820.6563 25.1094,820.5469 Q25.2969,820.4375 25.5156,820.4375 Q25.8906,820.4375 26.125,820.7031 Q26.3594,820.9531 26.3594,821.5625 L26.3594,823.0156 Q26.3594,823.625 26.125,823.8906 Q25.8906,824.1563 25.5156,824.1563 Q25.1719,824.1563 24.9688,823.9531 Q24.7656,823.7656 24.6563,823.25 Q24.6094,822.8906 24.4219,822.7031 Q24.0938,822.3281 23.4844,822.1094 Q22.875,821.8906 22.25,821.8906 Q21.4844,821.8906 20.8438,822.2188 Q20.2188,822.5469 19.7188,823.2969 Q19.2344,824.0469 19.2344,825.0781 L19.2344,826.1719 Q19.2344,827.4063 20.125,828.2344 Q21.0156,829.0469 22.6094,829.0469 Q23.5469,829.0469 24.2031,828.7969 Q24.5938,828.6406 25.0156,828.2031 Q25.2813,827.9375 25.4219,827.8594 Q25.5781,827.7813 25.7813,827.7813 Q26.1094,827.7813 26.3594,828.0469 Q26.625,828.2969 26.625,828.6406 Q26.625,828.9844 26.2813,829.3906 Q25.7813,829.9688 24.9844,830.2969 Q23.9063,830.75 22.6094,830.75 Q21.0938,830.75 19.8906,830.125 Q18.9063,829.625 18.2188,828.5625 Q17.5313,827.4844 17.5313,826.2031 L17.5313,825.0469 Q17.5313,823.7188 18.1406,822.5781 Q18.7656,821.4219 19.8594,820.8125 Q20.9531,820.1875 22.1875,820.1875 Q22.9219,820.1875 23.5625,820.3594 Q24.2188,820.5156 24.7656,820.875 Z " fill="#000000"/><text fill="#000000" font-family="sans-serif" font-size="14" lengthAdjust="spacing" textLength="92" x="36" y="830.7285">OpenQuestion</text><line style="stroke:#181818;stroke-width:0.5;" x1="8" x2="130" y1="841" y2="841"/><line style="stroke:#181818;stroke-width:0.5;" x1="8" x2="130" y1="849" y2="849"/></g><!--MD5=[b07065dfc0d0e09965ec10bfc328bb3e]
class Option--><g id="elem_Option"><rect codeLine="38" fill="#F1F1F1" height="48" id="Option" rx="2.5" ry="2.5" style="stroke:#181818;stroke-width:0.5;" width="74" x="446" y="887"/><ellipse cx="461" cy="903" fill="#ADD1B2" rx="11" ry="11" style="stroke:#181818;stroke-width:1.0;"/><path d="M463.7656,898.875 Q463.9219,898.6563 464.1094,898.5469 Q464.2969,898.4375 464.5156,898.4375 Q464.8906,898.4375 465.125,898.7031 Q465.3594,898.9531 465.3594,899.5625 L465.3594,901.0156 Q465.3594,901.625 465.125,901.8906 Q464.8906,902.1563 464.5156,902.1563 Q464.1719,902.1563 463.9688,901.9531 Q463.7656,901.7656 463.6563,901.25 Q463.6094,900.8906 463.4219,900.7031 Q463.0938,900.3281 462.4844,900.1094 Q461.875,899.8906 461.25,899.8906 Q460.4844,899.8906 459.8438,900.2188 Q459.2188,900.5469 458.7188,901.2969 Q458.2344,902.0469 458.2344,903.0781 L458.2344,904.1719 Q458.2344,905.4063 459.125,906.2344 Q460.0156,907.0469 461.6094,907.0469 Q462.5469,907.0469 463.2031,906.7969 Q463.5938,906.6406 464.0156,906.2031 Q464.2813,905.9375 464.4219,905.8594 Q464.5781,905.7813 464.7813,905.7813 Q465.1094,905.7813 465.3594,906.0469 Q465.625,906.2969 465.625,906.6406 Q465.625,906.9844 465.2813,907.3906 Q464.7813,907.9688 463.9844,908.2969 Q462.9063,908.75 461.6094,908.75 Q460.0938,908.75 458.8906,908.125 Q457.9063,907.625 457.2188,906.5625 Q456.5313,905.4844 456.5313,904.2031 L456.5313,903.0469 Q456.5313,901.7188 457.1406,900.5781 Q457.7656,899.4219 458.8594,898.8125 Q459.9531,898.1875 461.1875,898.1875 Q461.9219,898.1875 462.5625,898.3594 Q463.2188,898.5156 463.7656,898.875 Z " fill="#000000"/><text fill="#000000" font-family="sans-serif" font-size="14" lengthAdjust="spacing" textLength="42" x="475" y="908.7285">Option</text><line style="stroke:#181818;stroke-width:0.5;" x1="447" x2="519" y1="919" y2="919"/><line style="stroke:#181818;stroke-width:0.5;" x1="447" x2="519" y1="927" y2="927"/></g><!--MD5=[bc629657279eaa9349f412646650f2c5]
class Correct--><g id="elem_Correct"><rect codeLine="40" fill="#F1F1F1" height="48" id="Correct" rx="2.5" ry="2.5" style="stroke:#181818;stroke-width:0.5;" width="79" x="500.5" y="1043"/><ellipse cx="515.5" cy="1059" fill="#ADD1B2" rx="11" ry="11" style="stroke:#181818;stroke-width:1.0;"/><path d="M518.2656,1054.875 Q518.4219,1054.6563 518.6094,1054.5469 Q518.7969,1054.4375 519.0156,1054.4375 Q519.3906,1054.4375 519.625,1054.7031 Q519.8594,1054.9531 519.8594,1055.5625 L519.8594,1057.0156 Q519.8594,1057.625 519.625,1057.8906 Q519.3906,1058.1563 519.0156,1058.1563 Q518.6719,1058.1563 518.4688,1057.9531 Q518.2656,1057.7656 518.1563,1057.25 Q518.1094,1056.8906 517.9219,1056.7031 Q517.5938,1056.3281 516.9844,1056.1094 Q516.375,1055.8906 515.75,1055.8906 Q514.9844,1055.8906 514.3438,1056.2188 Q513.7188,1056.5469 513.2188,1057.2969 Q512.7344,1058.0469 512.7344,1059.0781 L512.7344,1060.1719 Q512.7344,1061.4063 513.625,1062.2344 Q514.5156,1063.0469 516.1094,1063.0469 Q517.0469,1063.0469 517.7031,1062.7969 Q518.0938,1062.6406 518.5156,1062.2031 Q518.7813,1061.9375 518.9219,1061.8594 Q519.0781,1061.7813 519.2813,1061.7813 Q519.6094,1061.7813 519.8594,1062.0469 Q520.125,1062.2969 520.125,1062.6406 Q520.125,1062.9844 519.7813,1063.3906 Q519.2813,1063.9688 518.4844,1064.2969 Q517.4063,1064.75 516.1094,1064.75 Q514.5938,1064.75 513.3906,1064.125 Q512.4063,1063.625 511.7188,1062.5625 Q511.0313,1061.4844 511.0313,1060.2031 L511.0313,1059.0469 Q511.0313,1057.7188 511.6406,1056.5781 Q512.2656,1055.4219 513.3594,1054.8125 Q514.4531,1054.1875 515.6875,1054.1875 Q516.4219,1054.1875 517.0625,1054.3594 Q517.7188,1054.5156 518.2656,1054.875 Z " fill="#000000"/><text fill="#000000" font-family="sans-serif" font-size="14" lengthAdjust="spacing" textLength="47" x="529.5" y="1064.7285">Correct</text><line style="stroke:#181818;stroke-width:0.5;" x1="501.5" x2="578.5" y1="1075" y2="1075"/><line style="stroke:#181818;stroke-width:0.5;" x1="501.5" x2="578.5" y1="1083" y2="1083"/></g><!--MD5=[37923dc032bbfca87d4413e584fa2cda]
class Incorrect--><g id="elem_Incorrect"><rect codeLine="42" fill="#F1F1F1" height="48" id="Incorrect" rx="2.5" ry="2.5" style="stroke:#181818;stroke-width:0.5;" width="87" x="310.5" y="1043"/><ellipse cx="325.5" cy="1059" fill="#ADD1B2" rx="11" ry="11" style="stroke:#181818;stroke-width:1.0;"/><path d="M328.2656,1054.875 Q328.4219,1054.6563 328.6094,1054.5469 Q328.7969,1054.4375 329.0156,1054.4375 Q329.3906,1054.4375 329.625,1054.7031 Q329.8594,1054.9531 329.8594,1055.5625 L329.8594,1057.0156 Q329.8594,1057.625 329.625,1057.8906 Q329.3906,1058.1563 329.0156,1058.1563 Q328.6719,1058.1563 328.4688,1057.9531 Q328.2656,1057.7656 328.1563,1057.25 Q328.1094,1056.8906 327.9219,1056.7031 Q327.5938,1056.3281 326.9844,1056.1094 Q326.375,1055.8906 325.75,1055.8906 Q324.9844,1055.8906 324.3438,1056.2188 Q323.7188,1056.5469 323.2188,1057.2969 Q322.7344,1058.0469 322.7344,1059.0781 L322.7344,1060.1719 Q322.7344,1061.4063 323.625,1062.2344 Q324.5156,1063.0469 326.1094,1063.0469 Q327.0469,1063.0469 327.7031,1062.7969 Q328.0938,1062.6406 328.5156,1062.2031 Q328.7813,1061.9375 328.9219,1061.8594 Q329.0781,1061.7813 329.2813,1061.7813 Q329.6094,1061.7813 329.8594,1062.0469 Q330.125,1062.2969 330.125,1062.6406 Q330.125,1062.9844 329.7813,1063.3906 Q329.2813,1063.9688 328.4844,1064.2969 Q327.4063,1064.75 326.1094,1064.75 Q324.5938,1064.75 323.3906,1064.125 Q322.4063,1063.625 321.7188,1062.5625 Q321.0313,1061.4844 321.0313,1060.2031 L321.0313,1059.0469 Q321.0313,1057.7188 321.6406,1056.5781 Q322.2656,1055.4219 323.3594,1054.8125 Q324.4531,1054.1875 325.6875,1054.1875 Q326.4219,1054.1875 327.0625,1054.3594 Q327.7188,1054.5156 328.2656,1054.875 Z " fill="#000000"/><text fill="#000000" font-family="sans-serif" font-size="14" lengthAdjust="spacing" textLength="55" x="339.5" y="1064.7285">Incorrect</text><line style="stroke:#181818;stroke-width:0.5;" x1="311.5" x2="396.5" y1="1075" y2="1075"/><line style="stroke:#181818;stroke-width:0.5;" x1="311.5" x2="396.5" y1="1083" y2="1083"/></g><!--MD5=[f7b1256a464262a81d5827fb39e684fb]
class Open--><g id="elem_Open"><rect codeLine="44" fill="#F1F1F1" height="83.2188" id="Open" rx="2.5" ry="2.5" style="stroke:#181818;stroke-width:0.5;" width="145" x="745.5" y="1169"/><ellipse cx="796.25" cy="1185" fill="#ADD1B2" rx="11" ry="11" style="stroke:#181818;stroke-width:1.0;"/><path d="M799.0156,1180.875 Q799.1719,1180.6563 799.3594,1180.5469 Q799.5469,1180.4375 799.7656,1180.4375 Q800.1406,1180.4375 800.375,1180.7031 Q800.6094,1180.9531 800.6094,1181.5625 L800.6094,1183.0156 Q800.6094,1183.625 800.375,1183.8906 Q800.1406,1184.1563 799.7656,1184.1563 Q799.4219,1184.1563 799.2188,1183.9531 Q799.0156,1183.7656 798.9063,1183.25 Q798.8594,1182.8906 798.6719,1182.7031 Q798.3438,1182.3281 797.7344,1182.1094 Q797.125,1181.8906 796.5,1181.8906 Q795.7344,1181.8906 795.0938,1182.2188 Q794.4688,1182.5469 793.9688,1183.2969 Q793.4844,1184.0469 793.4844,1185.0781 L793.4844,1186.1719 Q793.4844,1187.4063 794.375,1188.2344 Q795.2656,1189.0469 796.8594,1189.0469 Q797.7969,1189.0469 798.4531,1188.7969 Q798.8438,1188.6406 799.2656,1188.2031 Q799.5313,1187.9375 799.6719,1187.8594 Q799.8281,1187.7813 800.0313,1187.7813 Q800.3594,1187.7813 800.6094,1188.0469 Q800.875,1188.2969 800.875,1188.6406 Q800.875,1188.9844 800.5313,1189.3906 Q800.0313,1189.9688 799.2344,1190.2969 Q798.1563,1190.75 796.8594,1190.75 Q795.3438,1190.75 794.1406,1190.125 Q793.1563,1189.625 792.4688,1188.5625 Q791.7813,1187.4844 791.7813,1186.2031 L791.7813,1185.0469 Q791.7813,1183.7188 792.3906,1182.5781 Q793.0156,1181.4219 794.1094,1180.8125 Q795.2031,1180.1875 796.4375,1180.1875 Q797.1719,1180.1875 797.8125,1180.3594 Q798.4688,1180.5156 799.0156,1180.875 Z " fill="#000000"/><text fill="#000000" font-family="sans-serif" font-size="14" lengthAdjust="spacing" textLength="35" x="816.75" y="1190.7285">Open</text><line style="stroke:#181818;stroke-width:0.5;" x1="746.5" x2="889.5" y1="1201" y2="1201"/><rect fill="none" height="6" style="stroke:#C82930;stroke-width:1.0;" width="6" x="753.5" y="1212.3047"/><text fill="#000000" font-family="sans-serif" font-size="14" lengthAdjust="spacing" textLength="73" x="765.5" y="1219.5332">isEvaluated</text><rect fill="none" height="6" style="stroke:#C82930;stroke-width:1.0;" width="6" x="753.5" y="1229.9141"/><text fill="#000000" font-family="sans-serif" font-size="14" lengthAdjust="spacing" textLength="119" x="765.5" y="1237.1426">isUsefulToConcept</text><line style="stroke:#181818;stroke-width:0.5;" x1="746.5" x2="889.5" y1="1244.2188" y2="1244.2188"/></g><!--MD5=[bed984ae8b00ce24eb0f64fea27a6507]
class SelectedOption--><g id="elem_SelectedOption"><rect codeLine="49" fill="#F1F1F1" height="48" id="SelectedOption" rx="2.5" ry="2.5" style="stroke:#181818;stroke-width:0.5;" width="129" x="281.5" y="887"/><ellipse cx="296.5" cy="903" fill="#ADD1B2" rx="11" ry="11" style="stroke:#181818;stroke-width:1.0;"/><path d="M299.2656,898.875 Q299.4219,898.6563 299.6094,898.5469 Q299.7969,898.4375 300.0156,898.4375 Q300.3906,898.4375 300.625,898.7031 Q300.8594,898.9531 300.8594,899.5625 L300.8594,901.0156 Q300.8594,901.625 300.625,901.8906 Q300.3906,902.1563 300.0156,902.1563 Q299.6719,902.1563 299.4688,901.9531 Q299.2656,901.7656 299.1563,901.25 Q299.1094,900.8906 298.9219,900.7031 Q298.5938,900.3281 297.9844,900.1094 Q297.375,899.8906 296.75,899.8906 Q295.9844,899.8906 295.3438,900.2188 Q294.7188,900.5469 294.2188,901.2969 Q293.7344,902.0469 293.7344,903.0781 L293.7344,904.1719 Q293.7344,905.4063 294.625,906.2344 Q295.5156,907.0469 297.1094,907.0469 Q298.0469,907.0469 298.7031,906.7969 Q299.0938,906.6406 299.5156,906.2031 Q299.7813,905.9375 299.9219,905.8594 Q300.0781,905.7813 300.2813,905.7813 Q300.6094,905.7813 300.8594,906.0469 Q301.125,906.2969 301.125,906.6406 Q301.125,906.9844 300.7813,907.3906 Q300.2813,907.9688 299.4844,908.2969 Q298.4063,908.75 297.1094,908.75 Q295.5938,908.75 294.3906,908.125 Q293.4063,907.625 292.7188,906.5625 Q292.0313,905.4844 292.0313,904.2031 L292.0313,903.0469 Q292.0313,901.7188 292.6406,900.5781 Q293.2656,899.4219 294.3594,898.8125 Q295.4531,898.1875 296.6875,898.1875 Q297.4219,898.1875 298.0625,898.3594 Q298.7188,898.5156 299.2656,898.875 Z " fill="#000000"/><text fill="#000000" font-family="sans-serif" font-size="14" lengthAdjust="spacing" textLength="97" x="310.5" y="908.7285">SelectedOption</text><line style="stroke:#181818;stroke-width:0.5;" x1="282.5" x2="409.5" y1="919" y2="919"/><line style="stroke:#181818;stroke-width:0.5;" x1="282.5" x2="409.5" y1="927" y2="927"/></g><!--MD5=[af22135d5be6ed11ccd2d02fa51653b3]
class Definition--><g id="elem_Definition"><rect fill="#F1F1F1" height="48" id="Definition" rx="2.5" ry="2.5" style="stroke:#181818;stroke-width:0.5;" width="91" x="836.5" y="887"/><ellipse cx="851.5" cy="903" fill="#ADD1B2" rx="11" ry="11" style="stroke:#181818;stroke-width:1.0;"/><path d="M854.2656,898.875 Q854.4219,898.6563 854.6094,898.5469 Q854.7969,898.4375 855.0156,898.4375 Q855.3906,898.4375 855.625,898.7031 Q855.8594,898.9531 855.8594,899.5625 L855.8594,901.0156 Q855.8594,901.625 855.625,901.8906 Q855.3906,902.1563 855.0156,902.1563 Q854.6719,902.1563 854.4688,901.9531 Q854.2656,901.7656 854.1563,901.25 Q854.1094,900.8906 853.9219,900.7031 Q853.5938,900.3281 852.9844,900.1094 Q852.375,899.8906 851.75,899.8906 Q850.9844,899.8906 850.3438,900.2188 Q849.7188,900.5469 849.2188,901.2969 Q848.7344,902.0469 848.7344,903.0781 L848.7344,904.1719 Q848.7344,905.4063 849.625,906.2344 Q850.5156,907.0469 852.1094,907.0469 Q853.0469,907.0469 853.7031,906.7969 Q854.0938,906.6406 854.5156,906.2031 Q854.7813,905.9375 854.9219,905.8594 Q855.0781,905.7813 855.2813,905.7813 Q855.6094,905.7813 855.8594,906.0469 Q856.125,906.2969 856.125,906.6406 Q856.125,906.9844 855.7813,907.3906 Q855.2813,907.9688 854.4844,908.2969 Q853.4063,908.75 852.1094,908.75 Q850.5938,908.75 849.3906,908.125 Q848.4063,907.625 847.7188,906.5625 Q847.0313,905.4844 847.0313,904.2031 L847.0313,903.0469 Q847.0313,901.7188 847.6406,900.5781 Q848.2656,899.4219 849.3594,898.8125 Q850.4531,898.1875 851.6875,898.1875 Q852.4219,898.1875 853.0625,898.3594 Q853.7188,898.5156 854.2656,898.875 Z " fill="#000000"/><text fill="#000000" font-family="sans-serif" font-size="14" lengthAdjust="spacing" textLength="59" x="865.5" y="908.7285">Definition</text><line style="stroke:#181818;stroke-width:0.5;" x1="837.5" x2="926.5" y1="919" y2="919"/><line style="stroke:#181818;stroke-width:0.5;" x1="837.5" x2="926.5" y1="927" y2="927"/></g><!--MD5=[9b4de504215638550a8bb9c080b7ee00]
class Justification--><g id="elem_Justification"><rect fill="#F1F1F1" height="48" id="Justification" rx="2.5" ry="2.5" style="stroke:#181818;stroke-width:0.5;" width="105" x="1007.5" y="1043"/><ellipse cx="1022.5" cy="1059" fill="#ADD1B2" rx="11" ry="11" style="stroke:#181818;stroke-width:1.0;"/><path d="M1025.2656,1054.875 Q1025.4219,1054.6563 1025.6094,1054.5469 Q1025.7969,1054.4375 1026.0156,1054.4375 Q1026.3906,1054.4375 1026.625,1054.7031 Q1026.8594,1054.9531 1026.8594,1055.5625 L1026.8594,1057.0156 Q1026.8594,1057.625 1026.625,1057.8906 Q1026.3906,1058.1563 1026.0156,1058.1563 Q1025.6719,1058.1563 1025.4688,1057.9531 Q1025.2656,1057.7656 1025.1563,1057.25 Q1025.1094,1056.8906 1024.9219,1056.7031 Q1024.5938,1056.3281 1023.9844,1056.1094 Q1023.375,1055.8906 1022.75,1055.8906 Q1021.9844,1055.8906 1021.3438,1056.2188 Q1020.7188,1056.5469 1020.2188,1057.2969 Q1019.7344,1058.0469 1019.7344,1059.0781 L1019.7344,1060.1719 Q1019.7344,1061.4063 1020.625,1062.2344 Q1021.5156,1063.0469 1023.1094,1063.0469 Q1024.0469,1063.0469 1024.7031,1062.7969 Q1025.0938,1062.6406 1025.5156,1062.2031 Q1025.7813,1061.9375 1025.9219,1061.8594 Q1026.0781,1061.7813 1026.2813,1061.7813 Q1026.6094,1061.7813 1026.8594,1062.0469 Q1027.125,1062.2969 1027.125,1062.6406 Q1027.125,1062.9844 1026.7813,1063.3906 Q1026.2813,1063.9688 1025.4844,1064.2969 Q1024.4063,1064.75 1023.1094,1064.75 Q1021.5938,1064.75 1020.3906,1064.125 Q1019.4063,1063.625 1018.7188,1062.5625 Q1018.0313,1061.4844 1018.0313,1060.2031 L1018.0313,1059.0469 Q1018.0313,1057.7188 1018.6406,1056.5781 Q1019.2656,1055.4219 1020.3594,1054.8125 Q1021.4531,1054.1875 1022.6875,1054.1875 Q1023.4219,1054.1875 1024.0625,1054.3594 Q1024.7188,1054.5156 1025.2656,1054.875 Z " fill="#000000"/><text fill="#000000" font-family="sans-serif" font-size="14" lengthAdjust="spacing" textLength="73" x="1036.5" y="1064.7285">Justification</text><line style="stroke:#181818;stroke-width:0.5;" x1="1008.5" x2="1111.5" y1="1075" y2="1075"/><line style="stroke:#181818;stroke-width:0.5;" x1="1008.5" x2="1111.5" y1="1083" y2="1083"/></g><!--MD5=[b355d11dc5a9142e22f9a644da54834e]
class Explication--><g id="elem_Explication"><rect fill="#F1F1F1" height="48" id="Explication" rx="2.5" ry="2.5" style="stroke:#181818;stroke-width:0.5;" width="99" x="1010.5" y="1186.5"/><ellipse cx="1025.5" cy="1202.5" fill="#ADD1B2" rx="11" ry="11" style="stroke:#181818;stroke-width:1.0;"/><path d="M1028.2656,1198.375 Q1028.4219,1198.1563 1028.6094,1198.0469 Q1028.7969,1197.9375 1029.0156,1197.9375 Q1029.3906,1197.9375 1029.625,1198.2031 Q1029.8594,1198.4531 1029.8594,1199.0625 L1029.8594,1200.5156 Q1029.8594,1201.125 1029.625,1201.3906 Q1029.3906,1201.6563 1029.0156,1201.6563 Q1028.6719,1201.6563 1028.4688,1201.4531 Q1028.2656,1201.2656 1028.1563,1200.75 Q1028.1094,1200.3906 1027.9219,1200.2031 Q1027.5938,1199.8281 1026.9844,1199.6094 Q1026.375,1199.3906 1025.75,1199.3906 Q1024.9844,1199.3906 1024.3438,1199.7188 Q1023.7188,1200.0469 1023.2188,1200.7969 Q1022.7344,1201.5469 1022.7344,1202.5781 L1022.7344,1203.6719 Q1022.7344,1204.9063 1023.625,1205.7344 Q1024.5156,1206.5469 1026.1094,1206.5469 Q1027.0469,1206.5469 1027.7031,1206.2969 Q1028.0938,1206.1406 1028.5156,1205.7031 Q1028.7813,1205.4375 1028.9219,1205.3594 Q1029.0781,1205.2813 1029.2813,1205.2813 Q1029.6094,1205.2813 1029.8594,1205.5469 Q1030.125,1205.7969 1030.125,1206.1406 Q1030.125,1206.4844 1029.7813,1206.8906 Q1029.2813,1207.4688 1028.4844,1207.7969 Q1027.4063,1208.25 1026.1094,1208.25 Q1024.5938,1208.25 1023.3906,1207.625 Q1022.4063,1207.125 1021.7188,1206.0625 Q1021.0313,1204.9844 1021.0313,1203.7031 L1021.0313,1202.5469 Q1021.0313,1201.2188 1021.6406,1200.0781 Q1022.2656,1198.9219 1023.3594,1198.3125 Q1024.4531,1197.6875 1025.6875,1197.6875 Q1026.4219,1197.6875 1027.0625,1197.8594 Q1027.7188,1198.0156 1028.2656,1198.375 Z " fill="#000000"/><text fill="#000000" font-family="sans-serif" font-size="14" lengthAdjust="spacing" textLength="67" x="1039.5" y="1208.2285">Explication</text><line style="stroke:#181818;stroke-width:0.5;" x1="1011.5" x2="1108.5" y1="1218.5" y2="1218.5"/><line style="stroke:#181818;stroke-width:0.5;" x1="1011.5" x2="1108.5" y1="1226.5" y2="1226.5"/></g><!--MD5=[534474e9f05b14d7c70186ae077f30e0]
class Relation--><g id="elem_Relation"><rect fill="#F1F1F1" height="48" id="Relation" rx="2.5" ry="2.5" style="stroke:#181818;stroke-width:0.5;" width="84" x="1014" y="965"/><ellipse cx="1029" cy="981" fill="#ADD1B2" rx="11" ry="11" style="stroke:#181818;stroke-width:1.0;"/><path d="M1031.7656,976.875 Q1031.9219,976.6563 1032.1094,976.5469 Q1032.2969,976.4375 1032.5156,976.4375 Q1032.8906,976.4375 1033.125,976.7031 Q1033.3594,976.9531 1033.3594,977.5625 L1033.3594,979.0156 Q1033.3594,979.625 1033.125,979.8906 Q1032.8906,980.1563 1032.5156,980.1563 Q1032.1719,980.1563 1031.9688,979.9531 Q1031.7656,979.7656 1031.6563,979.25 Q1031.6094,978.8906 1031.4219,978.7031 Q1031.0938,978.3281 1030.4844,978.1094 Q1029.875,977.8906 1029.25,977.8906 Q1028.4844,977.8906 1027.8438,978.2188 Q1027.2188,978.5469 1026.7188,979.2969 Q1026.2344,980.0469 1026.2344,981.0781 L1026.2344,982.1719 Q1026.2344,983.4063 1027.125,984.2344 Q1028.0156,985.0469 1029.6094,985.0469 Q1030.5469,985.0469 1031.2031,984.7969 Q1031.5938,984.6406 1032.0156,984.2031 Q1032.2813,983.9375 1032.4219,983.8594 Q1032.5781,983.7813 1032.7813,983.7813 Q1033.1094,983.7813 1033.3594,984.0469 Q1033.625,984.2969 1033.625,984.6406 Q1033.625,984.9844 1033.2813,985.3906 Q1032.7813,985.9688 1031.9844,986.2969 Q1030.9063,986.75 1029.6094,986.75 Q1028.0938,986.75 1026.8906,986.125 Q1025.9063,985.625 1025.2188,984.5625 Q1024.5313,983.4844 1024.5313,982.2031 L1024.5313,981.0469 Q1024.5313,979.7188 1025.1406,978.5781 Q1025.7656,977.4219 1026.8594,976.8125 Q1027.9531,976.1875 1029.1875,976.1875 Q1029.9219,976.1875 1030.5625,976.3594 Q1031.2188,976.5156 1031.7656,976.875 Z " fill="#000000"/><text fill="#000000" font-family="sans-serif" font-size="14" lengthAdjust="spacing" textLength="52" x="1043" y="986.7285">Relation</text><line style="stroke:#181818;stroke-width:0.5;" x1="1015" x2="1097" y1="997" y2="997"/><line style="stroke:#181818;stroke-width:0.5;" x1="1015" x2="1097" y1="1005" y2="1005"/></g><!--MD5=[8235d596e40eaa310e25cb7e3d92ec72]
reverse link Community to User--><g id="link_Community_User"><path codeLine="52" d="M1009.77,66.88 C1000.92,82.93 990.66,101.54 982.78,115.83 " fill="none" id="Community-backto-User" style="stroke:#181818;stroke-width:1.0;"/><polygon fill="#181818" points="1016.2,55.22,1009.7983,58.5395,1010.4003,65.7254,1016.8019,62.4059,1016.2,55.22" style="stroke:#181818;stroke-width:1.0;"/><text fill="#000000" font-family="sans-serif" font-size="13" lengthAdjust="spacing" textLength="22" x="961.2361" y="105.1266">2..n</text></g><!--MD5=[8b55897a5ea9705e017b96a45c367fde]
reverse link Community to Category--><g id="link_Community_Category"><path codeLine="53" d="M1053.26,66.4 C1065.18,86.58 1077,113.13 1077,139 C1077,139 1077,139 1077,738.5 C1077,791.65 1077.97,854.06 1078.56,886.98 " fill="none" id="Community-backto-Category" style="stroke:#181818;stroke-width:1.0;"/><polygon fill="none" points="1046.33,55.31,1046.1146,62.5179,1052.6852,65.4889,1052.9006,58.2811,1046.33,55.31" style="stroke:#181818;stroke-width:1.0;"/><text fill="#000000" font-family="sans-serif" font-size="13" lengthAdjust="spacing" textLength="22" x="1053.6285" y="876.315">0..n</text></g><!--MD5=[c98fdacbcd4eb224c2d9d26b53646e58]
reverse link Category to Category--><g id="link_Category_Category"><path codeLine="55" d="M1137.6,896.85 C1150.03,898.28 1159,903 1159,911 C1159,921.66 1143.05,926.5 1124.23,925.5 " fill="none" id="Category-backto-Category" style="stroke:#181818;stroke-width:1.0;"/><polygon fill="none" points="1124.23,896.5,1130.1225,900.6568,1136.2258,896.8164,1130.3334,892.6596,1124.23,896.5" style="stroke:#181818;stroke-width:1.0;"/><text fill="#000000" font-family="sans-serif" font-size="13" lengthAdjust="spacing" textLength="83" x="1165" y="916.4951">Subcategories</text><text fill="#000000" font-family="sans-serif" font-size="13" lengthAdjust="spacing" textLength="22" x="1132.1373" y="923.9339">0..n</text></g><!--MD5=[d87c224b488f6c9759d0a77cb4053101]
reverse link User to Teacher--><g id="link_User_Teacher"><path codeLine="57" d="M970,184.58 C970,198.36 970,213.06 970,224.83 " fill="none" id="User-backto-Teacher" style="stroke:#181818;stroke-width:1.0;"/><polygon fill="none" points="963,184.22,970,164.22,977,184.22,963,184.22" style="stroke:#181818;stroke-width:1.0;"/></g><!--MD5=[29fe19ce294944fa80f389ae9bd987a4]
reverse link User to Student--><g id="link_User_Student"><path codeLine="58" d="M923.43,176.59 C902.65,192.48 878.74,210.75 860.32,224.83 " fill="none" id="User-backto-Student" style="stroke:#181818;stroke-width:1.0;"/><polygon fill="none" points="919.48,170.8,939.62,164.22,927.98,181.92,919.48,170.8" style="stroke:#181818;stroke-width:1.0;"/></g><!--MD5=[a8afb83bcf8ff3e1e4f8554b4cb258ee]
link Teacher to Concept--><g id="link_Teacher_Concept"><path codeLine="60" d="M973.79,273.31 C976.97,294.94 981,328.05 981,357 C981,357 981,357 981,594.5 C981,626.64 981,662.88 981,690.7 " fill="none" id="Teacher-to-Concept" style="stroke:#181818;stroke-width:1.0;stroke-dasharray:7.0,7.0;"/><polygon fill="#181818" points="981,695.8,985,686.8,981,690.8,977,686.8,981,695.8" style="stroke:#181818;stroke-width:1.0;"/><text fill="#000000" font-family="sans-serif" font-size="13" lengthAdjust="spacing" textLength="22" x="957.1781" y="685.0746">0..n</text></g><!--MD5=[f4125322de8968b604c5431ed9c8902a]
link Concept to Category--><g id="link_Concept_Category"><path codeLine="61" d="M1004.22,779.14 C1020.89,808.31 1043.12,847.2 1059,874.99 " fill="none" id="Concept-to-Category" style="stroke:#181818;stroke-width:1.0;"/><polygon fill="none" points="1065.59,886.53,1066.0891,879.3362,1059.6406,876.1086,1059.1415,883.3025,1065.59,886.53" style="stroke:#181818;stroke-width:1.0;"/></g><!--MD5=[ed083f2d1ee1d19af9b715a82f936d84]
link Question to Concept--><g id="link_Question_Concept"><path codeLine="62" d="M640.05,608.53 C707.51,625.29 819.53,656.13 911,696 C916.28,698.3 921.67,700.91 927,703.66 " fill="none" id="Question-to-Concept" style="stroke:#181818;stroke-width:1.0;"/><polygon fill="none" points="938.48,709.86,935.0978,703.4912,927.9182,704.1637,931.3003,710.5325,938.48,709.86" style="stroke:#181818;stroke-width:1.0;"/></g><!--MD5=[543bb2115b5a10697a67507a00f6a2f4]
reverse link Concept to Definition--><g id="link_Concept_Definition"><path codeLine="63" d="M950.95,790.55 C932.49,822.53 909.74,861.95 895.55,886.53 " fill="none" id="Concept-backto-Definition" style="stroke:#181818;stroke-width:1.0;"/><polygon fill="none" points="957.54,779.14,951.0758,782.3359,951.5395,789.532,958.0038,786.3362,957.54,779.14" style="stroke:#181818;stroke-width:1.0;"/></g><!--MD5=[38796b68b5180f699f927fbe8d179b6a]
reverse link Definition to Justification--><g id="link_Definition_Justification"><path codeLine="64" d="M918.67,943.73 C952.74,973.21 1002.68,1016.41 1033.17,1042.79 " fill="none" id="Definition-backto-Justification" style="stroke:#181818;stroke-width:1.0;"/><polygon fill="none" points="908.65,935.06,910.566,942.0119,917.72,942.9172,915.8041,935.9652,908.65,935.06" style="stroke:#181818;stroke-width:1.0;"/></g><!--MD5=[5b13a3dd25e80832e08dfc192ea141c9]
reverse link Justification to Explication--><g id="link_Justification_Explication"><path codeLine="65" d="M1060,1104.11 C1060,1130.02 1060,1164.16 1060,1186.46 " fill="none" id="Justification-backto-Explication" style="stroke:#181818;stroke-width:1.0;"/><polygon fill="none" points="1060,1091.05,1056,1097.05,1060,1103.05,1064,1097.05,1060,1091.05" style="stroke:#181818;stroke-width:1.0;"/></g><!--MD5=[54f9360500e0fd532969fc16f437bbea]
reverse link Concept to Relation--><g id="link_Concept_Relation"><path codeLine="66" d="M984.29,792.31 C988.31,832.91 997.23,889.23 1017,935 C1021.58,945.59 1028.61,956.08 1035.45,964.89 " fill="none" id="Concept-backto-Relation" style="stroke:#181818;stroke-width:1.0;"/><polygon fill="none" points="983.11,779.18,979.6665,785.5158,984.1905,791.1313,987.634,784.7955,983.11,779.18" style="stroke:#181818;stroke-width:1.0;"/></g><!--MD5=[a87ccfb1ad401ebc9457283edda68da5]
link Student to Evaluation--><g id="link_Student_Evaluation"><path codeLine="68" d="M810.04,273.22 C795.69,289.9 776.31,312.45 761.26,329.95 " fill="none" id="Student-to-Evaluation" style="stroke:#181818;stroke-width:1.0;"/><polygon fill="#181818" points="757.92,333.83,766.822,329.6164,761.181,330.0398,760.7577,324.3988,757.92,333.83" style="stroke:#181818;stroke-width:1.0;"/><text fill="#000000" font-family="sans-serif" font-size="13" lengthAdjust="spacing" textLength="22" x="738.2058" y="323.1266">0..n</text></g><!--MD5=[7ea0c49f743e358ac875b85df2ad47d3]
link Evaluation to Test--><g id="link_Evaluation_Test"><path codeLine="69" d="M727.8,382.22 C720.6,398.62 710.9,420.69 703.27,438.06 " fill="none" id="Evaluation-to-Test" style="stroke:#181818;stroke-width:1.0;"/><polygon fill="#181818" points="701.18,442.83,708.452,436.1879,703.1841,438.2492,701.1227,432.9813,701.18,442.83" style="stroke:#181818;stroke-width:1.0;"/></g><!--MD5=[a2e747a1485550e1f078495d463b7eef]
link Evaluation to Result--><g id="link_Evaluation_Result"><path codeLine="70" d="M705.89,382.22 C682.42,399.18 650.57,422.21 626.2,439.83 " fill="none" id="Evaluation-to-Result" style="stroke:#181818;stroke-width:1.0;"/><polygon fill="#181818" points="622.05,442.83,631.6886,440.8058,626.1041,439.9036,627.0063,434.3191,622.05,442.83" style="stroke:#181818;stroke-width:1.0;"/></g><!--MD5=[67b6cc77f9c51a9ece6c1301ad2aff24]
link Teacher to Evaluation--><g id="link_Teacher_Evaluation"><path codeLine="72" d="M927.45,269.63 C889.28,287.23 833.1,313.14 791.82,332.18 " fill="none" id="Teacher-to-Evaluation" style="stroke:#181818;stroke-width:1.0;stroke-dasharray:7.0,7.0;"/><polygon fill="#181818" points="787.12,334.35,796.9678,334.2044,791.6585,332.252,793.611,326.9428,787.12,334.35" style="stroke:#181818;stroke-width:1.0;"/></g><!--MD5=[c3245c7e9b373b58245ab9f4ffee1ea7]
link Definition to Open--><g id="link_Definition_Open"><path codeLine="73" d="M876.98,935.34 C866.39,984.54 841.64,1099.61 827.8,1163.94 " fill="none" id="Definition-to-Open" style="stroke:#181818;stroke-width:1.0;stroke-dasharray:7.0,7.0;"/><polygon fill="#181818" points="826.74,1168.86,832.5481,1160.906,827.7945,1163.9725,824.728,1159.2188,826.74,1168.86" style="stroke:#181818;stroke-width:1.0;"/><text fill="#000000" font-family="sans-serif" font-size="13" lengthAdjust="spacing" textLength="108" x="855" y="1072.4951">isUsefulToConcept</text></g><!--MD5=[6ad1517f84722569c30aadeb4fcbcb40]
link Justification to Open--><g id="link_Justification_Open"><path codeLine="74" d="M1007.5,1088.93 C986.65,1097.92 962.74,1109.09 942,1121 C918.88,1134.27 894.75,1150.8 873.98,1165.98 " fill="none" id="Justification-to-Open" style="stroke:#181818;stroke-width:1.0;stroke-dasharray:7.0,7.0;"/><polygon fill="#181818" points="869.87,1169,879.4921,1166.8989,873.9007,1166.0413,874.7582,1160.4499,869.87,1169" style="stroke:#181818;stroke-width:1.0;"/><text fill="#000000" font-family="sans-serif" font-size="13" lengthAdjust="spacing" textLength="108" x="943" y="1135.4951">isUsefulToConcept</text></g><!--MD5=[74e09a0ee898588e1e5422c7bd3ee035]
link Relation to Open--><g id="link_Relation_Open"><path codeLine="75" d="M1098.07,1010.16 C1110.67,1018.45 1122.99,1029.37 1130,1043 C1139.75,1061.98 1139.94,1072.13 1130,1091 C1107.36,1133.97 980.55,1171.49 895.73,1192.26 " fill="none" id="Relation-to-Open" style="stroke:#181818;stroke-width:1.0;stroke-dasharray:7.0,7.0;"/><polygon fill="#181818" points="890.71,1193.48,900.397,1195.2584,895.5706,1192.3077,898.5213,1187.4814,890.71,1193.48" style="stroke:#181818;stroke-width:1.0;"/><text fill="#000000" font-family="sans-serif" font-size="13" lengthAdjust="spacing" textLength="108" x="1138" y="1072.4951">isUsefulToConcept</text></g><!--MD5=[8040e392a4e2c0c05930d645a14a6e94]
reverse link Evaluation to Open--><g id="link_Evaluation_Open"><path codeLine="77" d="M752.81,386.68 C762.74,407.8 774,437.94 774,466 C774,466 774,466 774,1068 C774,1103.12 786.51,1141.01 798.19,1168.74 " fill="none" id="Evaluation-backto-Open" style="stroke:#181818;stroke-width:1.0;stroke-dasharray:7.0,7.0;"/><polygon fill="#181818" points="750.59,382.05,750.8734,391.8948,752.7513,386.5587,758.0874,388.4367,750.59,382.05" style="stroke:#181818;stroke-width:1.0;"/><text fill="#000000" font-family="sans-serif" font-size="13" lengthAdjust="spacing" textLength="127" x="775" y="742.9951">manual (! isEvaluated)</text></g><!--MD5=[633f8dfcb7b6c7cb49429b789d025168]
reverse link Evaluation to SelectedOption--><g id="link_Evaluation_SelectedOption"><path codeLine="78" d="M683.92,363.24 C539.2,375.3 154,412.42 154,466 C154,466 154,466 154,738.5 C154,810.91 230.89,860.35 287.35,886.9 " fill="none" id="Evaluation-backto-SelectedOption" style="stroke:#181818;stroke-width:1.0;stroke-dasharray:7.0,7.0;"/><polygon fill="#181818" points="688.96,362.82,679.6689,359.5526,683.976,363.2199,680.3087,367.5269,688.96,362.82" style="stroke:#181818;stroke-width:1.0;"/><text fill="#000000" font-family="sans-serif" font-size="13" lengthAdjust="spacing" textLength="57" x="155" y="598.9951">automatic</text></g><!--MD5=[37c1e8dba486a8108983e1d119d6febb]
reverse link Test to Question--><g id="link_Test_Question"><path codeLine="80" d="M661.69,500.88 C647.75,516.51 630.96,535.34 616.24,551.86 " fill="none" id="Test-backto-Question" style="stroke:#181818;stroke-width:1.0;"/><polygon fill="#181818" points="670.38,491.13,663.4019,492.9481,662.3962,500.0887,669.3743,498.2706,670.38,491.13" style="stroke:#181818;stroke-width:1.0;"/><text fill="#000000" font-family="sans-serif" font-size="13" lengthAdjust="spacing" textLength="22" x="598.4204" y="541.1445">1..n</text></g><!--MD5=[5ea4867893d7a476c54f91c2252dd0f8]
reverse link Question to MultipleChoiceQuestion--><g id="link_Question_MultipleChoiceQuestion"><path codeLine="81" d="M502.92,646.37 C468.71,669.4 430.19,695.32 403.27,713.44 " fill="none" id="Question-backto-MultipleChoiceQuestion" style="stroke:#181818;stroke-width:1.0;"/><polygon fill="none" points="499.32,640.36,519.82,635,507.13,651.98,499.32,640.36" style="stroke:#181818;stroke-width:1.0;"/></g><!--MD5=[e68d8486b151d64b61c7f5b6e40a3de9]
reverse link Question to OpenQuestion--><g id="link_Question_OpenQuestion"><path codeLine="82" d="M500.43,612.53 C434.25,629.22 338.67,657.31 261,696 C197.38,727.69 131.54,779.13 95.9,808.83 " fill="none" id="Question-backto-OpenQuestion" style="stroke:#181818;stroke-width:1.0;"/><polygon fill="none" points="498.88,605.71,519.97,607.72,502.22,619.3,498.88,605.71" style="stroke:#181818;stroke-width:1.0;"/></g><!--MD5=[eff6b19138ddb6af13849faaf0a4f1bc]
reverse link Question to Statement--><g id="link_Question_Statement"><path codeLine="83" d="M566.11,647.82 C560.2,670.5 553.62,695.76 548.99,713.5 " fill="none" id="Question-backto-Statement" style="stroke:#181818;stroke-width:1.0;"/><polygon fill="#181818" points="569.4,635.19,564.0128,639.9835,566.3656,646.8,571.7528,642.0065,569.4,635.19" style="stroke:#181818;stroke-width:1.0;"/></g><!--MD5=[185adfbec1fc38ddaede86a7c2f0e161]
reverse link MultipleChoiceQuestion to Option--><g id="link_MultipleChoiceQuestion_Option"><path codeLine="84" d="M391.83,772.85 C414.37,806.75 448.2,857.65 467.69,886.96 " fill="none" id="MultipleChoiceQuestion-backto-Option" style="stroke:#181818;stroke-width:1.0;"/><polygon fill="#181818" points="384.37,761.63,384.3546,768.8411,391.0051,771.6288,391.0205,764.4177,384.37,761.63" style="stroke:#181818;stroke-width:1.0;"/><text fill="#000000" font-family="sans-serif" font-size="13" lengthAdjust="spacing" textLength="22" x="438.9481" y="876.2899">2..n</text></g><!--MD5=[8b4b6ce4502ba24ddb3ea6e9e3ffd79d]
reverse link Option to Incorrect--><g id="link_Option_Incorrect"><path codeLine="85" d="M450.82,950.42 C426.5,979.45 393.92,1018.34 373.44,1042.79 " fill="none" id="Option-backto-Incorrect" style="stroke:#181818;stroke-width:1.0;"/><polygon fill="none" points="445.48,945.89,463.69,935.06,456.21,954.88,445.48,945.89" style="stroke:#181818;stroke-width:1.0;"/></g><!--MD5=[e9c99f228a0238815f6b3520e77f42c1]
reverse link Option to Correct--><g id="link_Option_Correct"><path codeLine="86" d="M498.59,954.11 C509.16,982.68 522.74,1019.37 531.41,1042.79 " fill="none" id="Option-backto-Correct" style="stroke:#181818;stroke-width:1.0;"/><polygon fill="none" points="491.91,956.24,491.53,935.06,505.04,951.38,491.91,956.24" style="stroke:#181818;stroke-width:1.0;"/></g><!--MD5=[af3bf499bed903ad0ed1598fcccf7b9c]
reverse link MultipleChoiceQuestion to Correct--><g id="link_MultipleChoiceQuestion_Correct"><path codeLine="87" d="M423.54,768.48 C463.65,794.02 514.89,834.86 537,887 C559.08,939.08 551.28,1007.58 544.93,1042.83 " fill="none" id="MultipleChoiceQuestion-backto-Correct" style="stroke:#181818;stroke-width:1.0;"/><polygon fill="#181818" points="412.28,761.53,415.277,768.0888,422.484,767.8449,419.487,761.2861,412.28,761.53" style="stroke:#181818;stroke-width:1.0;"/></g><!--MD5=[c33b5950e601fddbef86daa9f7dbaee3]
reverse link MultipleChoiceQuestion to Incorrect--><g id="link_MultipleChoiceQuestion_Incorrect"><path codeLine="88" d="M336.64,771.29 C311.36,799.37 278.22,842.24 264,887 C245.19,946.17 296.37,1009.85 329.08,1042.99 " fill="none" id="MultipleChoiceQuestion-backto-Incorrect" style="stroke:#181818;stroke-width:1.0;"/><polygon fill="#181818" points="345.54,761.64,338.5318,763.3387,337.4045,770.4612,344.4126,768.7624,345.54,761.64" style="stroke:#181818;stroke-width:1.0;"/><text fill="#000000" font-family="sans-serif" font-size="13" lengthAdjust="spacing" textLength="22" x="297.8755" y="1032.3276">1..n</text></g><!--MD5=[a41781f1f1e8030a8e1780e035976660]
reverse link MultipleChoiceQuestion to SelectedOption--><g id="link_MultipleChoiceQuestion_SelectedOption"><path codeLine="89" d="M364.15,774.64 C359.61,808.53 352.95,858.16 349.09,886.96 " fill="none" id="MultipleChoiceQuestion-backto-SelectedOption" style="stroke:#181818;stroke-width:1.0;"/><polygon fill="none" points="365.9,761.63,361.1378,767.0449,364.3045,773.5235,369.0668,768.1086,365.9,761.63" style="stroke:#181818;stroke-width:1.0;"/><text fill="#000000" font-family="sans-serif" font-size="13" lengthAdjust="spacing" textLength="22" x="325.0631" y="876.2899">0..n</text></g><!--MD5=[796dfdab8991771f793f93ccedef4380]
reverse link OpenQuestion to Open--><g id="link_OpenQuestion_Open"><path codeLine="90" d="M88.96,868.61 C123.16,924.65 198.53,1034.64 293,1091 C437.64,1177.3 638.87,1200.82 745.29,1207.18 " fill="none" id="OpenQuestion-backto-Open" style="stroke:#181818;stroke-width:1.0;"/><polygon fill="none" points="82.1,857.19,81.7638,864.3933,88.2836,867.4741,88.6199,860.2708,82.1,857.19" style="stroke:#181818;stroke-width:1.0;"/><text fill="#000000" font-family="sans-serif" font-size="13" lengthAdjust="spacing" textLength="22" x="715.573" y="1203.6377">0..n</text></g><!--MD5=[5d713b1c0eb5d19b54b4791b73108c83]
reverse link Question to Answer--><g id="link_Question_Answer"><path codeLine="91" d="M611.19,646.61 C622.77,665.96 635.56,687.32 645.77,704.37 " fill="none" id="Question-backto-Answer" style="stroke:#181818;stroke-width:1.0;"/><polygon fill="none" points="604.36,635.19,604.0061,642.3924,610.5184,645.4892,610.8723,638.2868,604.36,635.19" style="stroke:#181818;stroke-width:1.0;"/><text fill="#000000" font-family="sans-serif" font-size="13" lengthAdjust="spacing" textLength="22" x="617.5351" y="693.4586">0..n</text></g><!--MD5=[35a2f5aaea9a8dec5ab6cfc0884a901f]
reverse link Answer to Open--><g id="link_Answer_Open"><path codeLine="92" d="M666.46,790.89 C670.67,870.6 686.79,1025.1 748,1139 C753.72,1149.64 761.54,1159.73 769.89,1168.77 " fill="none" id="Answer-backto-Open" style="stroke:#181818;stroke-width:1.0;"/><polygon fill="none" points="659.45,791,665.56,770.71,673.44,790.38,659.45,791" style="stroke:#181818;stroke-width:1.0;"/></g><!--MD5=[c9991b0162c2b5928e47e95121f6f5d4]
reverse link Answer to SelectedOption--><g id="link_Answer_SelectedOption"><path codeLine="93" d="M609.11,778.33 C608.74,778.55 608.37,778.78 608,779 C537.59,821.28 451.74,862.35 397.96,886.91 " fill="none" id="Answer-backto-SelectedOption" style="stroke:#181818;stroke-width:1.0;"/><polygon fill="none" points="605.38,772.41,625.97,767.41,612.99,784.16,605.38,772.41" style="stroke:#181818;stroke-width:1.0;"/></g><!--MD5=[971579f09543848dce3868964a316d35]
@startuml OpoTestDomain

class Community

class User

class Teacher

class Student

class Evaluation

class Result

class Category 

class Test 

class Concept {
    - keyword
    - state
}

class Question {
    - statementType
    - answerType
}

class Statement

class Answer {
    - isOK
}

class MultipleChoiceQuestion

class OpenQuestion

class Option

class Correct

Class Incorrect

class Open {
    - isEvaluated
    - isUsefulToConcept
}

Class SelectedOption


Community *- -"2..n" User
Community o- -"0..n" Category

Category o- -"0..n" Category : Subcategories

User <|- - Teacher
User <|- - Student

Teacher ..>"0..n" Concept
Concept - -o Category
Question - -o Concept
Concept o- - Definition
Definition o- - Justification
Justification o- - Explication
Concept o- - Relation

Student - ->"0..n" Evaluation
Evaluation - -> Test
Evaluation - -> Result

Teacher ..> Evaluation
Definition ..> Open :isUsefulToConcept
Justification ..> Open :isUsefulToConcept
Relation ..> Open :isUsefulToConcept

Evaluation <.. Open : manual (! isEvaluated)
Evaluation <.. SelectedOption : automatic

Test *- -"1..n" Question
Question <|- - MultipleChoiceQuestion
Question <|- - OpenQuestion
Question *- -   Statement
MultipleChoiceQuestion *- -"2..n" Option
Option <|- - Incorrect
Option <|- - Correct
MultipleChoiceQuestion *- - Correct
MultipleChoiceQuestion *- -"1..n" Incorrect
MultipleChoiceQuestion o- -"0..n" SelectedOption
OpenQuestion o- -"0..n" Open
Question o- -"0..n" Answer
Answer <|- - Open
Answer <|- - SelectedOption


@enduml

PlantUML version 1.2022.7(Mon Aug 22 18:01:30 WEST 2022)
(GPL source distribution)
Java Runtime: OpenJDK Runtime Environment
JVM: OpenJDK 64-Bit Server VM
Default Encoding: Cp1252
Language: es
Country: ES
--></g></svg>