<?xml version="1.0" encoding="UTF-8" standalone="no"?><svg xmlns="http://www.w3.org/2000/svg" xmlns:xlink="http://www.w3.org/1999/xlink" contentStyleType="text/css" height="774px" preserveAspectRatio="none" style="width:816px;height:774px;background:#FFFFFF;" version="1.1" viewBox="0 0 816 774" width="816px" zoomAndPan="magnify"><defs/><g><!--MD5=[ebcf87c1ae8daa9293e64489194cef3e]
cluster Public--><g id="cluster_Public"><path d="M61.5,538 L105.5,538 A3.75,3.75 0 0 1 108,540.5 L115,561.6094 L355.5,561.6094 A2.5,2.5 0 0 1 358,564.1094 L358,635.5 A2.5,2.5 0 0 1 355.5,638 L61.5,638 A2.5,2.5 0 0 1 59,635.5 L59,540.5 A2.5,2.5 0 0 1 61.5,538 " fill="none" style="stroke:#000000;stroke-width:1.5;"/><line style="stroke:#000000;stroke-width:1.5;" x1="59" x2="115" y1="561.6094" y2="561.6094"/><text fill="#000000" font-family="sans-serif" font-size="14" font-weight="bold" lengthAdjust="spacing" textLength="43" x="63" y="554.5332">Public</text></g><!--MD5=[9e78572f11a177212a236870223a0978]
cluster Private--><g id="cluster_Private"><path d="M443.5,211 L494.5,211 A3.75,3.75 0 0 1 497,213.5 L504,234.6094 L806.5,234.6094 A2.5,2.5 0 0 1 809,237.1094 L809,764.5 A2.5,2.5 0 0 1 806.5,767 L443.5,767 A2.5,2.5 0 0 1 441,764.5 L441,213.5 A2.5,2.5 0 0 1 443.5,211 " fill="none" style="stroke:#000000;stroke-width:1.5;"/><line style="stroke:#000000;stroke-width:1.5;" x1="441" x2="504" y1="234.6094" y2="234.6094"/><text fill="#000000" font-family="sans-serif" font-size="14" font-weight="bold" lengthAdjust="spacing" textLength="50" x="445" y="227.5332">Private</text></g><!--MD5=[cbd32269a73795b08f4bc51eadb87cef]
class Tests--><g id="elem_Tests"><rect codeLine="14" fill="#F1F1F1" height="48" id="Tests" rx="2.5" ry="2.5" style="stroke:#181818;stroke-width:0.5;" width="67" x="75.5" y="574"/><ellipse cx="90.5" cy="590" fill="#ADD1B2" rx="11" ry="11" style="stroke:#181818;stroke-width:1.0;"/><path d="M93.2656,585.875 Q93.4219,585.6563 93.6094,585.5469 Q93.7969,585.4375 94.0156,585.4375 Q94.3906,585.4375 94.625,585.7031 Q94.8594,585.9531 94.8594,586.5625 L94.8594,588.0156 Q94.8594,588.625 94.625,588.8906 Q94.3906,589.1563 94.0156,589.1563 Q93.6719,589.1563 93.4688,588.9531 Q93.2656,588.7656 93.1563,588.25 Q93.1094,587.8906 92.9219,587.7031 Q92.5938,587.3281 91.9844,587.1094 Q91.375,586.8906 90.75,586.8906 Q89.9844,586.8906 89.3438,587.2188 Q88.7188,587.5469 88.2188,588.2969 Q87.7344,589.0469 87.7344,590.0781 L87.7344,591.1719 Q87.7344,592.4063 88.625,593.2344 Q89.5156,594.0469 91.1094,594.0469 Q92.0469,594.0469 92.7031,593.7969 Q93.0938,593.6406 93.5156,593.2031 Q93.7813,592.9375 93.9219,592.8594 Q94.0781,592.7813 94.2813,592.7813 Q94.6094,592.7813 94.8594,593.0469 Q95.125,593.2969 95.125,593.6406 Q95.125,593.9844 94.7813,594.3906 Q94.2813,594.9688 93.4844,595.2969 Q92.4063,595.75 91.1094,595.75 Q89.5938,595.75 88.3906,595.125 Q87.4063,594.625 86.7188,593.5625 Q86.0313,592.4844 86.0313,591.2031 L86.0313,590.0469 Q86.0313,588.7188 86.6406,587.5781 Q87.2656,586.4219 88.3594,585.8125 Q89.4531,585.1875 90.6875,585.1875 Q91.4219,585.1875 92.0625,585.3594 Q92.7188,585.5156 93.2656,585.875 Z " fill="#000000"/><text fill="#000000" font-family="sans-serif" font-size="14" lengthAdjust="spacing" textLength="35" x="104.5" y="595.7285">Tests</text><line style="stroke:#181818;stroke-width:0.5;" x1="76.5" x2="141.5" y1="606" y2="606"/><line style="stroke:#181818;stroke-width:0.5;" x1="76.5" x2="141.5" y1="614" y2="614"/></g><!--MD5=[55799210f7a393014b0f22345c263e17]
class PendingReviewTests--><g id="elem_PendingReviewTests"><rect codeLine="16" fill="#F1F1F1" height="48" id="PendingReviewTests" rx="2.5" ry="2.5" style="stroke:#181818;stroke-width:0.5;" width="164" x="178" y="574"/><ellipse cx="193" cy="590" fill="#ADD1B2" rx="11" ry="11" style="stroke:#181818;stroke-width:1.0;"/><path d="M195.7656,585.875 Q195.9219,585.6563 196.1094,585.5469 Q196.2969,585.4375 196.5156,585.4375 Q196.8906,585.4375 197.125,585.7031 Q197.3594,585.9531 197.3594,586.5625 L197.3594,588.0156 Q197.3594,588.625 197.125,588.8906 Q196.8906,589.1563 196.5156,589.1563 Q196.1719,589.1563 195.9688,588.9531 Q195.7656,588.7656 195.6563,588.25 Q195.6094,587.8906 195.4219,587.7031 Q195.0938,587.3281 194.4844,587.1094 Q193.875,586.8906 193.25,586.8906 Q192.4844,586.8906 191.8438,587.2188 Q191.2188,587.5469 190.7188,588.2969 Q190.2344,589.0469 190.2344,590.0781 L190.2344,591.1719 Q190.2344,592.4063 191.125,593.2344 Q192.0156,594.0469 193.6094,594.0469 Q194.5469,594.0469 195.2031,593.7969 Q195.5938,593.6406 196.0156,593.2031 Q196.2813,592.9375 196.4219,592.8594 Q196.5781,592.7813 196.7813,592.7813 Q197.1094,592.7813 197.3594,593.0469 Q197.625,593.2969 197.625,593.6406 Q197.625,593.9844 197.2813,594.3906 Q196.7813,594.9688 195.9844,595.2969 Q194.9063,595.75 193.6094,595.75 Q192.0938,595.75 190.8906,595.125 Q189.9063,594.625 189.2188,593.5625 Q188.5313,592.4844 188.5313,591.2031 L188.5313,590.0469 Q188.5313,588.7188 189.1406,587.5781 Q189.7656,586.4219 190.8594,585.8125 Q191.9531,585.1875 193.1875,585.1875 Q193.9219,585.1875 194.5625,585.3594 Q195.2188,585.5156 195.7656,585.875 Z " fill="#000000"/><text fill="#000000" font-family="sans-serif" font-size="14" lengthAdjust="spacing" textLength="132" x="207" y="595.7285">PendingReviewTests</text><line style="stroke:#181818;stroke-width:0.5;" x1="179" x2="341" y1="606" y2="606"/><line style="stroke:#181818;stroke-width:0.5;" x1="179" x2="341" y1="614" y2="614"/></g><!--MD5=[a96594a83e2ecdc78cbf17c2ddf01934]
class Category--><g id="elem_Category"><rect codeLine="22" fill="#F1F1F1" height="48" id="Category" rx="2.5" ry="2.5" style="stroke:#181818;stroke-width:0.5;" width="90" x="457" y="574"/><ellipse cx="472" cy="590" fill="#ADD1B2" rx="11" ry="11" style="stroke:#181818;stroke-width:1.0;"/><path d="M474.7656,585.875 Q474.9219,585.6563 475.1094,585.5469 Q475.2969,585.4375 475.5156,585.4375 Q475.8906,585.4375 476.125,585.7031 Q476.3594,585.9531 476.3594,586.5625 L476.3594,588.0156 Q476.3594,588.625 476.125,588.8906 Q475.8906,589.1563 475.5156,589.1563 Q475.1719,589.1563 474.9688,588.9531 Q474.7656,588.7656 474.6563,588.25 Q474.6094,587.8906 474.4219,587.7031 Q474.0938,587.3281 473.4844,587.1094 Q472.875,586.8906 472.25,586.8906 Q471.4844,586.8906 470.8438,587.2188 Q470.2188,587.5469 469.7188,588.2969 Q469.2344,589.0469 469.2344,590.0781 L469.2344,591.1719 Q469.2344,592.4063 470.125,593.2344 Q471.0156,594.0469 472.6094,594.0469 Q473.5469,594.0469 474.2031,593.7969 Q474.5938,593.6406 475.0156,593.2031 Q475.2813,592.9375 475.4219,592.8594 Q475.5781,592.7813 475.7813,592.7813 Q476.1094,592.7813 476.3594,593.0469 Q476.625,593.2969 476.625,593.6406 Q476.625,593.9844 476.2813,594.3906 Q475.7813,594.9688 474.9844,595.2969 Q473.9063,595.75 472.6094,595.75 Q471.0938,595.75 469.8906,595.125 Q468.9063,594.625 468.2188,593.5625 Q467.5313,592.4844 467.5313,591.2031 L467.5313,590.0469 Q467.5313,588.7188 468.1406,587.5781 Q468.7656,586.4219 469.8594,585.8125 Q470.9531,585.1875 472.1875,585.1875 Q472.9219,585.1875 473.5625,585.3594 Q474.2188,585.5156 474.7656,585.875 Z " fill="#000000"/><text fill="#000000" font-family="sans-serif" font-size="14" lengthAdjust="spacing" textLength="58" x="486" y="595.7285">Category</text><line style="stroke:#181818;stroke-width:0.5;" x1="458" x2="546" y1="606" y2="606"/><line style="stroke:#181818;stroke-width:0.5;" x1="458" x2="546" y1="614" y2="614"/></g><!--MD5=[9c1df00e5aaf042f20970631c477ed7b]
class Subcategory--><g id="elem_Subcategory"><rect codeLine="24" fill="#F1F1F1" height="48" id="Subcategory" rx="2.5" ry="2.5" style="stroke:#181818;stroke-width:0.5;" width="112" x="457" y="694"/><ellipse cx="472" cy="710" fill="#ADD1B2" rx="11" ry="11" style="stroke:#181818;stroke-width:1.0;"/><path d="M474.7656,705.875 Q474.9219,705.6563 475.1094,705.5469 Q475.2969,705.4375 475.5156,705.4375 Q475.8906,705.4375 476.125,705.7031 Q476.3594,705.9531 476.3594,706.5625 L476.3594,708.0156 Q476.3594,708.625 476.125,708.8906 Q475.8906,709.1563 475.5156,709.1563 Q475.1719,709.1563 474.9688,708.9531 Q474.7656,708.7656 474.6563,708.25 Q474.6094,707.8906 474.4219,707.7031 Q474.0938,707.3281 473.4844,707.1094 Q472.875,706.8906 472.25,706.8906 Q471.4844,706.8906 470.8438,707.2188 Q470.2188,707.5469 469.7188,708.2969 Q469.2344,709.0469 469.2344,710.0781 L469.2344,711.1719 Q469.2344,712.4063 470.125,713.2344 Q471.0156,714.0469 472.6094,714.0469 Q473.5469,714.0469 474.2031,713.7969 Q474.5938,713.6406 475.0156,713.2031 Q475.2813,712.9375 475.4219,712.8594 Q475.5781,712.7813 475.7813,712.7813 Q476.1094,712.7813 476.3594,713.0469 Q476.625,713.2969 476.625,713.6406 Q476.625,713.9844 476.2813,714.3906 Q475.7813,714.9688 474.9844,715.2969 Q473.9063,715.75 472.6094,715.75 Q471.0938,715.75 469.8906,715.125 Q468.9063,714.625 468.2188,713.5625 Q467.5313,712.4844 467.5313,711.2031 L467.5313,710.0469 Q467.5313,708.7188 468.1406,707.5781 Q468.7656,706.4219 469.8594,705.8125 Q470.9531,705.1875 472.1875,705.1875 Q472.9219,705.1875 473.5625,705.3594 Q474.2188,705.5156 474.7656,705.875 Z " fill="#000000"/><text fill="#000000" font-family="sans-serif" font-size="14" lengthAdjust="spacing" textLength="80" x="486" y="715.7285">Subcategory</text><line style="stroke:#181818;stroke-width:0.5;" x1="458" x2="568" y1="726" y2="726"/><line style="stroke:#181818;stroke-width:0.5;" x1="458" x2="568" y1="734" y2="734"/></g><!--MD5=[df38be88ccee13e832d6fafd6288a4ca]
class Test--><g id="elem_Test"><rect codeLine="26" fill="#F1F1F1" height="48" id="Test" rx="2.5" ry="2.5" style="stroke:#181818;stroke-width:0.5;" width="60" x="460" y="247"/><ellipse cx="475" cy="263" fill="#ADD1B2" rx="11" ry="11" style="stroke:#181818;stroke-width:1.0;"/><path d="M477.7656,258.875 Q477.9219,258.6563 478.1094,258.5469 Q478.2969,258.4375 478.5156,258.4375 Q478.8906,258.4375 479.125,258.7031 Q479.3594,258.9531 479.3594,259.5625 L479.3594,261.0156 Q479.3594,261.625 479.125,261.8906 Q478.8906,262.1563 478.5156,262.1563 Q478.1719,262.1563 477.9688,261.9531 Q477.7656,261.7656 477.6563,261.25 Q477.6094,260.8906 477.4219,260.7031 Q477.0938,260.3281 476.4844,260.1094 Q475.875,259.8906 475.25,259.8906 Q474.4844,259.8906 473.8438,260.2188 Q473.2188,260.5469 472.7188,261.2969 Q472.2344,262.0469 472.2344,263.0781 L472.2344,264.1719 Q472.2344,265.4063 473.125,266.2344 Q474.0156,267.0469 475.6094,267.0469 Q476.5469,267.0469 477.2031,266.7969 Q477.5938,266.6406 478.0156,266.2031 Q478.2813,265.9375 478.4219,265.8594 Q478.5781,265.7813 478.7813,265.7813 Q479.1094,265.7813 479.3594,266.0469 Q479.625,266.2969 479.625,266.6406 Q479.625,266.9844 479.2813,267.3906 Q478.7813,267.9688 477.9844,268.2969 Q476.9063,268.75 475.6094,268.75 Q474.0938,268.75 472.8906,268.125 Q471.9063,267.625 471.2188,266.5625 Q470.5313,265.4844 470.5313,264.2031 L470.5313,263.0469 Q470.5313,261.7188 471.1406,260.5781 Q471.7656,259.4219 472.8594,258.8125 Q473.9531,258.1875 475.1875,258.1875 Q475.9219,258.1875 476.5625,258.3594 Q477.2188,258.5156 477.7656,258.875 Z " fill="#000000"/><text fill="#000000" font-family="sans-serif" font-size="14" lengthAdjust="spacing" textLength="28" x="489" y="268.7285">Test</text><line style="stroke:#181818;stroke-width:0.5;" x1="461" x2="519" y1="279" y2="279"/><line style="stroke:#181818;stroke-width:0.5;" x1="461" x2="519" y1="287" y2="287"/></g><!--MD5=[fc7123defb831ecdd44b2d9bcef6cceb]
class Question--><g id="elem_Question"><rect codeLine="28" fill="#F1F1F1" height="100.8281" id="Question" rx="2.5" ry="2.5" style="stroke:#181818;stroke-width:0.5;" width="89" x="457.5" y="373"/><ellipse cx="472.5" cy="389" fill="#ADD1B2" rx="11" ry="11" style="stroke:#181818;stroke-width:1.0;"/><path d="M475.2656,384.875 Q475.4219,384.6563 475.6094,384.5469 Q475.7969,384.4375 476.0156,384.4375 Q476.3906,384.4375 476.625,384.7031 Q476.8594,384.9531 476.8594,385.5625 L476.8594,387.0156 Q476.8594,387.625 476.625,387.8906 Q476.3906,388.1563 476.0156,388.1563 Q475.6719,388.1563 475.4688,387.9531 Q475.2656,387.7656 475.1563,387.25 Q475.1094,386.8906 474.9219,386.7031 Q474.5938,386.3281 473.9844,386.1094 Q473.375,385.8906 472.75,385.8906 Q471.9844,385.8906 471.3438,386.2188 Q470.7188,386.5469 470.2188,387.2969 Q469.7344,388.0469 469.7344,389.0781 L469.7344,390.1719 Q469.7344,391.4063 470.625,392.2344 Q471.5156,393.0469 473.1094,393.0469 Q474.0469,393.0469 474.7031,392.7969 Q475.0938,392.6406 475.5156,392.2031 Q475.7813,391.9375 475.9219,391.8594 Q476.0781,391.7813 476.2813,391.7813 Q476.6094,391.7813 476.8594,392.0469 Q477.125,392.2969 477.125,392.6406 Q477.125,392.9844 476.7813,393.3906 Q476.2813,393.9688 475.4844,394.2969 Q474.4063,394.75 473.1094,394.75 Q471.5938,394.75 470.3906,394.125 Q469.4063,393.625 468.7188,392.5625 Q468.0313,391.4844 468.0313,390.2031 L468.0313,389.0469 Q468.0313,387.7188 468.6406,386.5781 Q469.2656,385.4219 470.3594,384.8125 Q471.4531,384.1875 472.6875,384.1875 Q473.4219,384.1875 474.0625,384.3594 Q474.7188,384.5156 475.2656,384.875 Z " fill="#000000"/><text fill="#000000" font-family="sans-serif" font-size="14" lengthAdjust="spacing" textLength="57" x="486.5" y="394.7285">Question</text><line style="stroke:#181818;stroke-width:0.5;" x1="458.5" x2="545.5" y1="405" y2="405"/><text fill="#000000" font-family="sans-serif" font-size="14" lengthAdjust="spacing" textLength="28" x="463.5" y="423.5332">date</text><text fill="#000000" font-family="sans-serif" font-size="14" lengthAdjust="spacing" textLength="56" x="463.5" y="441.1426">reviewed</text><text fill="#000000" font-family="sans-serif" font-size="14" lengthAdjust="spacing" textLength="12" x="463.5" y="458.752">...</text><line style="stroke:#181818;stroke-width:0.5;" x1="458.5" x2="545.5" y1="465.8281" y2="465.8281"/></g><!--MD5=[a61a298976b7d1d94498f45c2ebfa10b]
class Statement--><g id="elem_Statement"><rect codeLine="34" fill="#F1F1F1" height="48" id="Statement" rx="2.5" ry="2.5" style="stroke:#181818;stroke-width:0.5;" width="96" x="582" y="574"/><ellipse cx="597" cy="590" fill="#ADD1B2" rx="11" ry="11" style="stroke:#181818;stroke-width:1.0;"/><path d="M599.7656,585.875 Q599.9219,585.6563 600.1094,585.5469 Q600.2969,585.4375 600.5156,585.4375 Q600.8906,585.4375 601.125,585.7031 Q601.3594,585.9531 601.3594,586.5625 L601.3594,588.0156 Q601.3594,588.625 601.125,588.8906 Q600.8906,589.1563 600.5156,589.1563 Q600.1719,589.1563 599.9688,588.9531 Q599.7656,588.7656 599.6563,588.25 Q599.6094,587.8906 599.4219,587.7031 Q599.0938,587.3281 598.4844,587.1094 Q597.875,586.8906 597.25,586.8906 Q596.4844,586.8906 595.8438,587.2188 Q595.2188,587.5469 594.7188,588.2969 Q594.2344,589.0469 594.2344,590.0781 L594.2344,591.1719 Q594.2344,592.4063 595.125,593.2344 Q596.0156,594.0469 597.6094,594.0469 Q598.5469,594.0469 599.2031,593.7969 Q599.5938,593.6406 600.0156,593.2031 Q600.2813,592.9375 600.4219,592.8594 Q600.5781,592.7813 600.7813,592.7813 Q601.1094,592.7813 601.3594,593.0469 Q601.625,593.2969 601.625,593.6406 Q601.625,593.9844 601.2813,594.3906 Q600.7813,594.9688 599.9844,595.2969 Q598.9063,595.75 597.6094,595.75 Q596.0938,595.75 594.8906,595.125 Q593.9063,594.625 593.2188,593.5625 Q592.5313,592.4844 592.5313,591.2031 L592.5313,590.0469 Q592.5313,588.7188 593.1406,587.5781 Q593.7656,586.4219 594.8594,585.8125 Q595.9531,585.1875 597.1875,585.1875 Q597.9219,585.1875 598.5625,585.3594 Q599.2188,585.5156 599.7656,585.875 Z " fill="#000000"/><text fill="#000000" font-family="sans-serif" font-size="14" lengthAdjust="spacing" textLength="64" x="611" y="595.7285">Statement</text><line style="stroke:#181818;stroke-width:0.5;" x1="583" x2="677" y1="606" y2="606"/><line style="stroke:#181818;stroke-width:0.5;" x1="583" x2="677" y1="614" y2="614"/></g><!--MD5=[f9fadfa5a66b7e5a67b370cd443ffe52]
class Answer--><g id="elem_Answer"><rect codeLine="36" fill="#F1F1F1" height="48" id="Answer" rx="2.5" ry="2.5" style="stroke:#181818;stroke-width:0.5;" width="78" x="713" y="574"/><ellipse cx="728" cy="590" fill="#ADD1B2" rx="11" ry="11" style="stroke:#181818;stroke-width:1.0;"/><path d="M730.7656,585.875 Q730.9219,585.6563 731.1094,585.5469 Q731.2969,585.4375 731.5156,585.4375 Q731.8906,585.4375 732.125,585.7031 Q732.3594,585.9531 732.3594,586.5625 L732.3594,588.0156 Q732.3594,588.625 732.125,588.8906 Q731.8906,589.1563 731.5156,589.1563 Q731.1719,589.1563 730.9688,588.9531 Q730.7656,588.7656 730.6563,588.25 Q730.6094,587.8906 730.4219,587.7031 Q730.0938,587.3281 729.4844,587.1094 Q728.875,586.8906 728.25,586.8906 Q727.4844,586.8906 726.8438,587.2188 Q726.2188,587.5469 725.7188,588.2969 Q725.2344,589.0469 725.2344,590.0781 L725.2344,591.1719 Q725.2344,592.4063 726.125,593.2344 Q727.0156,594.0469 728.6094,594.0469 Q729.5469,594.0469 730.2031,593.7969 Q730.5938,593.6406 731.0156,593.2031 Q731.2813,592.9375 731.4219,592.8594 Q731.5781,592.7813 731.7813,592.7813 Q732.1094,592.7813 732.3594,593.0469 Q732.625,593.2969 732.625,593.6406 Q732.625,593.9844 732.2813,594.3906 Q731.7813,594.9688 730.9844,595.2969 Q729.9063,595.75 728.6094,595.75 Q727.0938,595.75 725.8906,595.125 Q724.9063,594.625 724.2188,593.5625 Q723.5313,592.4844 723.5313,591.2031 L723.5313,590.0469 Q723.5313,588.7188 724.1406,587.5781 Q724.7656,586.4219 725.8594,585.8125 Q726.9531,585.1875 728.1875,585.1875 Q728.9219,585.1875 729.5625,585.3594 Q730.2188,585.5156 730.7656,585.875 Z " fill="#000000"/><text fill="#000000" font-family="sans-serif" font-size="14" lengthAdjust="spacing" textLength="46" x="742" y="595.7285">Answer</text><line style="stroke:#181818;stroke-width:0.5;" x1="714" x2="790" y1="606" y2="606"/><line style="stroke:#181818;stroke-width:0.5;" x1="714" x2="790" y1="614" y2="614"/></g><!--MD5=[bc629657279eaa9349f412646650f2c5]
class Correct--><g id="elem_Correct"><rect codeLine="38" fill="#F1F1F1" height="48" id="Correct" rx="2.5" ry="2.5" style="stroke:#181818;stroke-width:0.5;" width="79" x="604.5" y="694"/><ellipse cx="619.5" cy="710" fill="#ADD1B2" rx="11" ry="11" style="stroke:#181818;stroke-width:1.0;"/><path d="M622.2656,705.875 Q622.4219,705.6563 622.6094,705.5469 Q622.7969,705.4375 623.0156,705.4375 Q623.3906,705.4375 623.625,705.7031 Q623.8594,705.9531 623.8594,706.5625 L623.8594,708.0156 Q623.8594,708.625 623.625,708.8906 Q623.3906,709.1563 623.0156,709.1563 Q622.6719,709.1563 622.4688,708.9531 Q622.2656,708.7656 622.1563,708.25 Q622.1094,707.8906 621.9219,707.7031 Q621.5938,707.3281 620.9844,707.1094 Q620.375,706.8906 619.75,706.8906 Q618.9844,706.8906 618.3438,707.2188 Q617.7188,707.5469 617.2188,708.2969 Q616.7344,709.0469 616.7344,710.0781 L616.7344,711.1719 Q616.7344,712.4063 617.625,713.2344 Q618.5156,714.0469 620.1094,714.0469 Q621.0469,714.0469 621.7031,713.7969 Q622.0938,713.6406 622.5156,713.2031 Q622.7813,712.9375 622.9219,712.8594 Q623.0781,712.7813 623.2813,712.7813 Q623.6094,712.7813 623.8594,713.0469 Q624.125,713.2969 624.125,713.6406 Q624.125,713.9844 623.7813,714.3906 Q623.2813,714.9688 622.4844,715.2969 Q621.4063,715.75 620.1094,715.75 Q618.5938,715.75 617.3906,715.125 Q616.4063,714.625 615.7188,713.5625 Q615.0313,712.4844 615.0313,711.2031 L615.0313,710.0469 Q615.0313,708.7188 615.6406,707.5781 Q616.2656,706.4219 617.3594,705.8125 Q618.4531,705.1875 619.6875,705.1875 Q620.4219,705.1875 621.0625,705.3594 Q621.7188,705.5156 622.2656,705.875 Z " fill="#000000"/><text fill="#000000" font-family="sans-serif" font-size="14" lengthAdjust="spacing" textLength="47" x="633.5" y="715.7285">Correct</text><line style="stroke:#181818;stroke-width:0.5;" x1="605.5" x2="682.5" y1="726" y2="726"/><line style="stroke:#181818;stroke-width:0.5;" x1="605.5" x2="682.5" y1="734" y2="734"/></g><!--MD5=[d4df30b25862551bb6e4155e35efa20d]
class Wrong--><g id="elem_Wrong"><rect codeLine="40" fill="#F1F1F1" height="65.6094" id="Wrong" rx="2.5" ry="2.5" style="stroke:#181818;stroke-width:0.5;" width="74" x="719" y="685"/><ellipse cx="734" cy="701" fill="#ADD1B2" rx="11" ry="11" style="stroke:#181818;stroke-width:1.0;"/><path d="M736.7656,696.875 Q736.9219,696.6563 737.1094,696.5469 Q737.2969,696.4375 737.5156,696.4375 Q737.8906,696.4375 738.125,696.7031 Q738.3594,696.9531 738.3594,697.5625 L738.3594,699.0156 Q738.3594,699.625 738.125,699.8906 Q737.8906,700.1563 737.5156,700.1563 Q737.1719,700.1563 736.9688,699.9531 Q736.7656,699.7656 736.6563,699.25 Q736.6094,698.8906 736.4219,698.7031 Q736.0938,698.3281 735.4844,698.1094 Q734.875,697.8906 734.25,697.8906 Q733.4844,697.8906 732.8438,698.2188 Q732.2188,698.5469 731.7188,699.2969 Q731.2344,700.0469 731.2344,701.0781 L731.2344,702.1719 Q731.2344,703.4063 732.125,704.2344 Q733.0156,705.0469 734.6094,705.0469 Q735.5469,705.0469 736.2031,704.7969 Q736.5938,704.6406 737.0156,704.2031 Q737.2813,703.9375 737.4219,703.8594 Q737.5781,703.7813 737.7813,703.7813 Q738.1094,703.7813 738.3594,704.0469 Q738.625,704.2969 738.625,704.6406 Q738.625,704.9844 738.2813,705.3906 Q737.7813,705.9688 736.9844,706.2969 Q735.9063,706.75 734.6094,706.75 Q733.0938,706.75 731.8906,706.125 Q730.9063,705.625 730.2188,704.5625 Q729.5313,703.4844 729.5313,702.2031 L729.5313,701.0469 Q729.5313,699.7188 730.1406,698.5781 Q730.7656,697.4219 731.8594,696.8125 Q732.9531,696.1875 734.1875,696.1875 Q734.9219,696.1875 735.5625,696.3594 Q736.2188,696.5156 736.7656,696.875 Z " fill="#000000"/><text fill="#000000" font-family="sans-serif" font-size="14" lengthAdjust="spacing" textLength="42" x="748" y="706.7285">Wrong</text><line style="stroke:#181818;stroke-width:0.5;" x1="720" x2="792" y1="717" y2="717"/><text fill="#000000" font-family="sans-serif" font-size="14" lengthAdjust="spacing" textLength="51" x="725" y="735.5332">difficulty</text><line style="stroke:#181818;stroke-width:0.5;" x1="720" x2="792" y1="742.6094" y2="742.6094"/></g><!--MD5=[668d633d11bedc8952753581a2dda3db]
class Community--><g id="elem_Community"><rect codeLine="2" fill="#F1F1F1" height="48" id="Community" rx="2.5" ry="2.5" style="stroke:#181818;stroke-width:0.5;" width="102" x="7" y="7"/><ellipse cx="22" cy="23" fill="#ADD1B2" rx="11" ry="11" style="stroke:#181818;stroke-width:1.0;"/><path d="M24.7656,18.875 Q24.9219,18.6563 25.1094,18.5469 Q25.2969,18.4375 25.5156,18.4375 Q25.8906,18.4375 26.125,18.7031 Q26.3594,18.9531 26.3594,19.5625 L26.3594,21.0156 Q26.3594,21.625 26.125,21.8906 Q25.8906,22.1563 25.5156,22.1563 Q25.1719,22.1563 24.9688,21.9531 Q24.7656,21.7656 24.6563,21.25 Q24.6094,20.8906 24.4219,20.7031 Q24.0938,20.3281 23.4844,20.1094 Q22.875,19.8906 22.25,19.8906 Q21.4844,19.8906 20.8438,20.2188 Q20.2188,20.5469 19.7188,21.2969 Q19.2344,22.0469 19.2344,23.0781 L19.2344,24.1719 Q19.2344,25.4063 20.125,26.2344 Q21.0156,27.0469 22.6094,27.0469 Q23.5469,27.0469 24.2031,26.7969 Q24.5938,26.6406 25.0156,26.2031 Q25.2813,25.9375 25.4219,25.8594 Q25.5781,25.7813 25.7813,25.7813 Q26.1094,25.7813 26.3594,26.0469 Q26.625,26.2969 26.625,26.6406 Q26.625,26.9844 26.2813,27.3906 Q25.7813,27.9688 24.9844,28.2969 Q23.9063,28.75 22.6094,28.75 Q21.0938,28.75 19.8906,28.125 Q18.9063,27.625 18.2188,26.5625 Q17.5313,25.4844 17.5313,24.2031 L17.5313,23.0469 Q17.5313,21.7188 18.1406,20.5781 Q18.7656,19.4219 19.8594,18.8125 Q20.9531,18.1875 22.1875,18.1875 Q22.9219,18.1875 23.5625,18.3594 Q24.2188,18.5156 24.7656,18.875 Z " fill="#000000"/><text fill="#000000" font-family="sans-serif" font-size="14" lengthAdjust="spacing" textLength="70" x="36" y="28.7285">Community</text><line style="stroke:#181818;stroke-width:0.5;" x1="8" x2="108" y1="39" y2="39"/><line style="stroke:#181818;stroke-width:0.5;" x1="8" x2="108" y1="47" y2="47"/></g><!--MD5=[3fd616f346a44cd59a91eb10b19e157c]
class User--><g id="elem_User"><rect codeLine="4" fill="#F1F1F1" height="48" id="User" rx="2.5" ry="2.5" style="stroke:#181818;stroke-width:0.5;" width="61" x="197.5" y="116"/><ellipse cx="212.5" cy="132" fill="#ADD1B2" rx="11" ry="11" style="stroke:#181818;stroke-width:1.0;"/><path d="M215.2656,127.875 Q215.4219,127.6563 215.6094,127.5469 Q215.7969,127.4375 216.0156,127.4375 Q216.3906,127.4375 216.625,127.7031 Q216.8594,127.9531 216.8594,128.5625 L216.8594,130.0156 Q216.8594,130.625 216.625,130.8906 Q216.3906,131.1563 216.0156,131.1563 Q215.6719,131.1563 215.4688,130.9531 Q215.2656,130.7656 215.1563,130.25 Q215.1094,129.8906 214.9219,129.7031 Q214.5938,129.3281 213.9844,129.1094 Q213.375,128.8906 212.75,128.8906 Q211.9844,128.8906 211.3438,129.2188 Q210.7188,129.5469 210.2188,130.2969 Q209.7344,131.0469 209.7344,132.0781 L209.7344,133.1719 Q209.7344,134.4063 210.625,135.2344 Q211.5156,136.0469 213.1094,136.0469 Q214.0469,136.0469 214.7031,135.7969 Q215.0938,135.6406 215.5156,135.2031 Q215.7813,134.9375 215.9219,134.8594 Q216.0781,134.7813 216.2813,134.7813 Q216.6094,134.7813 216.8594,135.0469 Q217.125,135.2969 217.125,135.6406 Q217.125,135.9844 216.7813,136.3906 Q216.2813,136.9688 215.4844,137.2969 Q214.4063,137.75 213.1094,137.75 Q211.5938,137.75 210.3906,137.125 Q209.4063,136.625 208.7188,135.5625 Q208.0313,134.4844 208.0313,133.2031 L208.0313,132.0469 Q208.0313,130.7188 208.6406,129.5781 Q209.2656,128.4219 210.3594,127.8125 Q211.4531,127.1875 212.6875,127.1875 Q213.4219,127.1875 214.0625,127.3594 Q214.7188,127.5156 215.2656,127.875 Z " fill="#000000"/><text fill="#000000" font-family="sans-serif" font-size="14" lengthAdjust="spacing" textLength="29" x="226.5" y="137.7285">User</text><line style="stroke:#181818;stroke-width:0.5;" x1="198.5" x2="257.5" y1="148" y2="148"/><line style="stroke:#181818;stroke-width:0.5;" x1="198.5" x2="257.5" y1="156" y2="156"/></g><!--MD5=[e76a510855fdf825c81877c657b1fc23]
class Reviewer--><g id="elem_Reviewer"><rect codeLine="6" fill="#F1F1F1" height="48" id="Reviewer" rx="2.5" ry="2.5" style="stroke:#181818;stroke-width:0.5;" width="90" x="247" y="399.5"/><ellipse cx="262" cy="415.5" fill="#ADD1B2" rx="11" ry="11" style="stroke:#181818;stroke-width:1.0;"/><path d="M264.7656,411.375 Q264.9219,411.1563 265.1094,411.0469 Q265.2969,410.9375 265.5156,410.9375 Q265.8906,410.9375 266.125,411.2031 Q266.3594,411.4531 266.3594,412.0625 L266.3594,413.5156 Q266.3594,414.125 266.125,414.3906 Q265.8906,414.6563 265.5156,414.6563 Q265.1719,414.6563 264.9688,414.4531 Q264.7656,414.2656 264.6563,413.75 Q264.6094,413.3906 264.4219,413.2031 Q264.0938,412.8281 263.4844,412.6094 Q262.875,412.3906 262.25,412.3906 Q261.4844,412.3906 260.8438,412.7188 Q260.2188,413.0469 259.7188,413.7969 Q259.2344,414.5469 259.2344,415.5781 L259.2344,416.6719 Q259.2344,417.9063 260.125,418.7344 Q261.0156,419.5469 262.6094,419.5469 Q263.5469,419.5469 264.2031,419.2969 Q264.5938,419.1406 265.0156,418.7031 Q265.2813,418.4375 265.4219,418.3594 Q265.5781,418.2813 265.7813,418.2813 Q266.1094,418.2813 266.3594,418.5469 Q266.625,418.7969 266.625,419.1406 Q266.625,419.4844 266.2813,419.8906 Q265.7813,420.4688 264.9844,420.7969 Q263.9063,421.25 262.6094,421.25 Q261.0938,421.25 259.8906,420.625 Q258.9063,420.125 258.2188,419.0625 Q257.5313,417.9844 257.5313,416.7031 L257.5313,415.5469 Q257.5313,414.2188 258.1406,413.0781 Q258.7656,411.9219 259.8594,411.3125 Q260.9531,410.6875 262.1875,410.6875 Q262.9219,410.6875 263.5625,410.8594 Q264.2188,411.0156 264.7656,411.375 Z " fill="#000000"/><text fill="#000000" font-family="sans-serif" font-size="14" lengthAdjust="spacing" textLength="58" x="276" y="421.2285">Reviewer</text><line style="stroke:#181818;stroke-width:0.5;" x1="248" x2="336" y1="431.5" y2="431.5"/><line style="stroke:#181818;stroke-width:0.5;" x1="248" x2="336" y1="439.5" y2="439.5"/></g><!--MD5=[559db66c208d2736f857be4b8ed380a2]
class Editor--><g id="elem_Editor"><rect codeLine="8" fill="#F1F1F1" height="48" id="Editor" rx="2.5" ry="2.5" style="stroke:#181818;stroke-width:0.5;" width="69" x="355.5" y="247"/><ellipse cx="370.5" cy="263" fill="#ADD1B2" rx="11" ry="11" style="stroke:#181818;stroke-width:1.0;"/><path d="M373.2656,258.875 Q373.4219,258.6563 373.6094,258.5469 Q373.7969,258.4375 374.0156,258.4375 Q374.3906,258.4375 374.625,258.7031 Q374.8594,258.9531 374.8594,259.5625 L374.8594,261.0156 Q374.8594,261.625 374.625,261.8906 Q374.3906,262.1563 374.0156,262.1563 Q373.6719,262.1563 373.4688,261.9531 Q373.2656,261.7656 373.1563,261.25 Q373.1094,260.8906 372.9219,260.7031 Q372.5938,260.3281 371.9844,260.1094 Q371.375,259.8906 370.75,259.8906 Q369.9844,259.8906 369.3438,260.2188 Q368.7188,260.5469 368.2188,261.2969 Q367.7344,262.0469 367.7344,263.0781 L367.7344,264.1719 Q367.7344,265.4063 368.625,266.2344 Q369.5156,267.0469 371.1094,267.0469 Q372.0469,267.0469 372.7031,266.7969 Q373.0938,266.6406 373.5156,266.2031 Q373.7813,265.9375 373.9219,265.8594 Q374.0781,265.7813 374.2813,265.7813 Q374.6094,265.7813 374.8594,266.0469 Q375.125,266.2969 375.125,266.6406 Q375.125,266.9844 374.7813,267.3906 Q374.2813,267.9688 373.4844,268.2969 Q372.4063,268.75 371.1094,268.75 Q369.5938,268.75 368.3906,268.125 Q367.4063,267.625 366.7188,266.5625 Q366.0313,265.4844 366.0313,264.2031 L366.0313,263.0469 Q366.0313,261.7188 366.6406,260.5781 Q367.2656,259.4219 368.3594,258.8125 Q369.4531,258.1875 370.6875,258.1875 Q371.4219,258.1875 372.0625,258.3594 Q372.7188,258.5156 373.2656,258.875 Z " fill="#000000"/><text fill="#000000" font-family="sans-serif" font-size="14" lengthAdjust="spacing" textLength="37" x="384.5" y="268.7285">Editor</text><line style="stroke:#181818;stroke-width:0.5;" x1="356.5" x2="423.5" y1="279" y2="279"/><line style="stroke:#181818;stroke-width:0.5;" x1="356.5" x2="423.5" y1="287" y2="287"/></g><!--MD5=[a0a1f7f9662f43ef0ece806266f72a6f]
class Executor--><g id="elem_Executor"><rect codeLine="10" fill="#F1F1F1" height="48" id="Executor" rx="2.5" ry="2.5" style="stroke:#181818;stroke-width:0.5;" width="87" x="233.5" y="247"/><ellipse cx="248.5" cy="263" fill="#ADD1B2" rx="11" ry="11" style="stroke:#181818;stroke-width:1.0;"/><path d="M251.2656,258.875 Q251.4219,258.6563 251.6094,258.5469 Q251.7969,258.4375 252.0156,258.4375 Q252.3906,258.4375 252.625,258.7031 Q252.8594,258.9531 252.8594,259.5625 L252.8594,261.0156 Q252.8594,261.625 252.625,261.8906 Q252.3906,262.1563 252.0156,262.1563 Q251.6719,262.1563 251.4688,261.9531 Q251.2656,261.7656 251.1563,261.25 Q251.1094,260.8906 250.9219,260.7031 Q250.5938,260.3281 249.9844,260.1094 Q249.375,259.8906 248.75,259.8906 Q247.9844,259.8906 247.3438,260.2188 Q246.7188,260.5469 246.2188,261.2969 Q245.7344,262.0469 245.7344,263.0781 L245.7344,264.1719 Q245.7344,265.4063 246.625,266.2344 Q247.5156,267.0469 249.1094,267.0469 Q250.0469,267.0469 250.7031,266.7969 Q251.0938,266.6406 251.5156,266.2031 Q251.7813,265.9375 251.9219,265.8594 Q252.0781,265.7813 252.2813,265.7813 Q252.6094,265.7813 252.8594,266.0469 Q253.125,266.2969 253.125,266.6406 Q253.125,266.9844 252.7813,267.3906 Q252.2813,267.9688 251.4844,268.2969 Q250.4063,268.75 249.1094,268.75 Q247.5938,268.75 246.3906,268.125 Q245.4063,267.625 244.7188,266.5625 Q244.0313,265.4844 244.0313,264.2031 L244.0313,263.0469 Q244.0313,261.7188 244.6406,260.5781 Q245.2656,259.4219 246.3594,258.8125 Q247.4531,258.1875 248.6875,258.1875 Q249.4219,258.1875 250.0625,258.3594 Q250.7188,258.5156 251.2656,258.875 Z " fill="#000000"/><text fill="#000000" font-family="sans-serif" font-size="14" lengthAdjust="spacing" textLength="55" x="262.5" y="268.7285">Executor</text><line style="stroke:#181818;stroke-width:0.5;" x1="234.5" x2="319.5" y1="279" y2="279"/><line style="stroke:#181818;stroke-width:0.5;" x1="234.5" x2="319.5" y1="287" y2="287"/></g><!--MD5=[12743b4aa7b2bf3d8e383437eb99df68]
link Community to User--><g id="link_Community_User"><path codeLine="46" d="M105.0496,61.6061 C105.0496,61.6061 161.89,97.39 186.11,112.63 " fill="none" id="Community-User" style="stroke:#181818;stroke-width:1.0;"/><polygon fill="#181818" points="197.43,119.76,191.9342,111.5871,193.1953,117.1016,187.6808,118.3627,197.43,119.76" style="stroke:#181818;stroke-width:1.0;"/><line style="stroke:#181818;stroke-width:1.0;" x1="193.1953" x2="186.43" y1="117.1016" y2="112.835"/><polygon fill="#181818" points="94.89,55.22,97.8411,61.7996,105.0496,61.6061,102.0985,55.0265,94.89,55.22" style="stroke:#181818;stroke-width:1.0;"/><text fill="#000000" font-family="sans-serif" font-size="13" lengthAdjust="spacing" textLength="20" x="169.4428" y="111.73">1..*</text></g><!--MD5=[218de807dea6c457cd03d741184fc906]
link Community to Tests--><g id="link_Community_Tests"><path codeLine="47" d="M48.1538,66.7676 C48.1538,66.7676 38,114.97 38,139 C38,139 38,139 38,424.5 C38,475.63 65.01,529.31 85.71,562.94 " fill="none" id="Community-Tests" style="stroke:#181818;stroke-width:1.0;"/><polygon fill="#181818" points="92.71,573.96,91.2593,564.2186,90.0285,569.7399,84.5071,568.509,92.71,573.96" style="stroke:#181818;stroke-width:1.0;"/><line style="stroke:#181818;stroke-width:1.0;" x1="90.0285" x2="85.74" y1="569.7399" y2="562.99"/><polygon fill="#181818" points="51.12,55.14,45.761,59.9651,48.1538,66.7676,53.5128,61.9426,51.12,55.14" style="stroke:#181818;stroke-width:1.0;"/></g><!--MD5=[7016372388c7ac2652db8515880aaa11]
reverse link User to Editor--><g id="link_User_Editor"><path codeLine="50" d="M276.78,163.16 C296.92,173.61 319.76,187.26 338,203 C352.6,215.6 365.88,232.85 375.36,246.69 " fill="none" id="User-backto-Editor" style="stroke:#181818;stroke-width:1.0;"/><polygon fill="none" points="273.37,169.28,258.54,154.15,279.57,156.73,273.37,169.28" style="stroke:#181818;stroke-width:1.0;"/></g><!--MD5=[60e4945ab784e9eaf709bb3168dd25a4]
reverse link Editor to Reviewer--><g id="link_Editor_Reviewer"><path codeLine="51" d="M363.94,312.02 C345.86,339.78 322.41,375.81 307.28,399.04 " fill="none" id="Editor-backto-Reviewer" style="stroke:#181818;stroke-width:1.0;"/><polygon fill="none" points="358.12,308.13,374.9,295.19,369.85,315.77,358.12,308.13" style="stroke:#181818;stroke-width:1.0;"/></g><!--MD5=[d8a655080454bab67f6091cbff4cee86]
reverse link User to Executor--><g id="link_User_Executor"><path codeLine="52" d="M243.9,182.87 C251.95,204.05 261.41,228.95 268.15,246.7 " fill="none" id="User-backto-Executor" style="stroke:#181818;stroke-width:1.0;"/><polygon fill="none" points="237.32,185.24,236.76,164.06,250.41,180.27,237.32,185.24" style="stroke:#181818;stroke-width:1.0;"/></g><!--MD5=[76cecde56a704a8af4e77d242905ce83]
link User to Test--><g id="link_User_Test"><path codeLine="54" d="M270.6287,145.0371 C270.6287,145.0371 390.52,166.59 442,203 C453.83,211.37 463.81,223.59 471.55,235.32 " fill="none" id="User-Test" style="stroke:#181818;stroke-width:1.0;"/><polygon fill="#181818" points="478.54,246.72,477.2473,236.9563,475.9272,242.457,470.4265,241.1368,478.54,246.72" style="stroke:#181818;stroke-width:1.0;"/><line style="stroke:#181818;stroke-width:1.0;" x1="475.9272" x2="471.745" y1="242.457" y2="235.635"/><polygon fill="none" points="258.72,143.56,264.182,148.2681,270.6287,145.0371,265.1667,140.3289,258.72,143.56" style="stroke:#181818;stroke-width:1.0;"/><text fill="#000000" font-family="sans-serif" font-size="13" lengthAdjust="spacing" textLength="20" x="453.0409" y="235.9884">0..*</text></g><!--MD5=[71601f1bec533155edb6fe7c05ed6d88]
link User to Tests--><g id="link_User_Tests"><path codeLine="55" d="M217.19,164.21 C212.12,175.71 206.26,189.9 202,203 C158.34,337.24 125.94,503.37 114.01,568.72 " fill="none" id="User-to-Tests" style="stroke:#181818;stroke-width:1.0;stroke-dasharray:7.0,7.0;"/><polygon fill="#181818" points="113.05,573.98,118.6017,565.845,113.9482,569.0613,110.7318,564.4079,113.05,573.98" style="stroke:#181818;stroke-width:1.0;"/></g><!--MD5=[116a6024682202cac1fe2b946d56dfe9]
link User to PendingReviewTests--><g id="link_User_PendingReviewTests"><path codeLine="56" d="M222.44,164.11 C219.93,175.7 217.25,190.01 216,203 C204.49,323.05 210.95,354.91 230,474 C235.25,506.83 244.77,543.8 251.68,568.56 " fill="none" id="User-to-PendingReviewTests" style="stroke:#181818;stroke-width:1.0;stroke-dasharray:7.0,7.0;"/><polygon fill="#181818" points="253.11,573.65,254.518,563.9023,251.7534,568.8376,246.8181,566.0729,253.11,573.65" style="stroke:#181818;stroke-width:1.0;"/><text fill="#000000" font-family="sans-serif" font-size="13" lengthAdjust="spacing" textLength="40" x="212" y="339.4951">Upload</text></g><!--MD5=[1744f965fd3d5edb87166b51ff2085c2]
link Test to PendingReviewTests--><g id="link_Test_PendingReviewTests"><path codeLine="57" d="M476.33,295.14 C449.42,340.16 386.88,442.11 326,522 C313.41,538.52 298.16,555.99 285.49,569.92 " fill="none" id="Test-to-PendingReviewTests" style="stroke:#181818;stroke-width:1.0;stroke-dasharray:7.0,7.0;"/><polygon fill="#181818" points="281.99,573.74,291.0167,569.8006,285.3654,570.0513,285.1147,564.4,281.99,573.74" style="stroke:#181818;stroke-width:1.0;"/></g><!--MD5=[a4471ebd030acd5c90145d584608083d]
link Editor to Question--><g id="link_Editor_Question"><path codeLine="59" d="M407.25,295.19 C421.82,314.75 443.23,343.53 462.02,368.78 " fill="none" id="Editor-to-Question" style="stroke:#181818;stroke-width:1.0;stroke-dasharray:7.0,7.0;"/><polygon fill="#181818" points="465.01,372.8,462.8484,363.1913,462.026,368.788,456.4293,367.9657,465.01,372.8" style="stroke:#181818;stroke-width:1.0;"/></g><!--MD5=[c1755e2c7c86169693602138d58f8d9b]
link Reviewer to PendingReviewTests--><g id="link_Reviewer_PendingReviewTests"><path codeLine="60" d="M287.68,447.76 C281.87,479.1 271.53,534.83 265.27,568.61 " fill="none" id="Reviewer-to-PendingReviewTests" style="stroke:#181818;stroke-width:1.0;stroke-dasharray:7.0,7.0;"/><polygon fill="#181818" points="264.3,573.83,269.8787,565.7135,265.2145,568.9143,262.0137,564.2502,264.3,573.83" style="stroke:#181818;stroke-width:1.0;"/><text fill="#000000" font-family="sans-serif" font-size="13" lengthAdjust="spacing" textLength="40" x="277" y="518.4951">Review</text></g><!--MD5=[bb3d97f09542411db1527b071cca8268]
link Test to Question--><g id="link_Test_Question"><path codeLine="62" d="M492.8127,307.1513 C492.8127,307.1513 495.59,342.16 496.99,359.66 " fill="none" id="Test-Question" style="stroke:#181818;stroke-width:1.0;"/><polygon fill="#181818" points="498.04,372.8,501.3153,363.5117,497.6443,367.8157,493.3403,364.1448,498.04,372.8" style="stroke:#181818;stroke-width:1.0;"/><line style="stroke:#181818;stroke-width:1.0;" x1="497.6443" x2="497.005" y1="367.8157" y2="359.84"/><polygon fill="#181818" points="491.85,295.19,488.3442,301.4916,492.8127,307.1513,496.3185,300.8498,491.85,295.19" style="stroke:#181818;stroke-width:1.0;"/><text fill="#000000" font-family="sans-serif" font-size="13" lengthAdjust="spacing" textLength="20" x="476.0769" y="362.0772">1..*</text></g><!--MD5=[6eeca14f8a2ed45d1117f4ed4af75b7e]
link Question to Statement--><g id="link_Question_Statement"><path codeLine="63" d="M546.182,484.0184 C546.182,484.0184 588.57,541.17 605.08,563.41 " fill="none" id="Question-Statement" style="stroke:#181818;stroke-width:1.0;"/><polygon fill="#181818" points="612.92,573.98,610.7643,564.37,609.9385,569.9662,604.3422,569.1404,612.92,573.98" style="stroke:#181818;stroke-width:1.0;"/><line style="stroke:#181818;stroke-width:1.0;" x1="609.9385" x2="605.175" y1="569.9662" y2="563.545"/><polygon fill="#181818" points="539.02,474.39,539.3915,481.5915,546.182,484.0184,545.8105,476.8169,539.02,474.39" style="stroke:#181818;stroke-width:1.0;"/></g><!--MD5=[6926d5174a3032b1dcc6c5d6f900c16b]
link Question to Answer--><g id="link_Question_Answer"><path codeLine="64" d="M557.4334,447.8158 C557.4334,447.8158 653.98,495.58 696,530 C707.73,539.61 718.84,551.94 728.03,563.4 " fill="none" id="Question-Answer" style="stroke:#181818;stroke-width:1.0;"/><polygon fill="#181818" points="736.21,574,733.8751,564.4319,733.154,570.0426,727.5433,569.3215,736.21,574" style="stroke:#181818;stroke-width:1.0;"/><line style="stroke:#181818;stroke-width:1.0;" x1="733.154" x2="728.27" y1="570.0426" y2="563.7"/><polygon fill="#181818" points="546.5,442.87,550.3181,448.9873,557.4334,447.8158,553.6153,441.6984,546.5,442.87" style="stroke:#181818;stroke-width:1.0;"/><text fill="#000000" font-family="sans-serif" font-size="13" lengthAdjust="spacing" textLength="20" x="709.6013" y="563.3402">1..*</text></g><!--MD5=[b1491d38e87214202fddacec717a9c8d]
reverse link Answer to Correct--><g id="link_Answer_Correct"><path codeLine="65" d="M717.19,637.04 C700.14,655.66 680.17,677.48 665.4,693.62 " fill="none" id="Answer-backto-Correct" style="stroke:#181818;stroke-width:1.0;"/><polygon fill="none" points="712.25,632.06,730.92,622.03,722.58,641.51,712.25,632.06" style="stroke:#181818;stroke-width:1.0;"/></g><!--MD5=[c5fa946b130b0916f113c48ddc2b138d]
reverse link Answer to Wrong--><g id="link_Answer_Wrong"><path codeLine="66" d="M753.47,642.45 C753.95,656.41 754.46,671.63 754.9,684.65 " fill="none" id="Answer-backto-Wrong" style="stroke:#181818;stroke-width:1.0;"/><polygon fill="none" points="746.46,642.26,752.78,622.03,760.45,641.78,746.46,642.26" style="stroke:#181818;stroke-width:1.0;"/></g><!--MD5=[98df2f76ab45609c36aa45d6b9c3faee]
link Question to Category--><g id="link_Question_Category"><path codeLine="68" d="M502,486.39 C502,486.39 502,539.48 502,560.7 " fill="none" id="Question-Category" style="stroke:#181818;stroke-width:1.0;"/><polygon fill="#181818" points="502,573.98,506,564.98,502,568.98,498,564.98,502,573.98" style="stroke:#181818;stroke-width:1.0;"/><line style="stroke:#181818;stroke-width:1.0;" x1="502" x2="502" y1="568.98" y2="560.98"/><polygon fill="#181818" points="502,474.39,498,480.39,502,486.39,506,480.39,502,474.39" style="stroke:#181818;stroke-width:1.0;"/></g><!--MD5=[74baf885d61ec4386e3ee7603dbfa36d]
link Category to Subcategory--><g id="link_Category_Subcategory"><path codeLine="69" d="M505.2709,633.9775 C505.2709,633.9775 508.25,666.09 509.6,680.55 " fill="none" id="Category-Subcategory" style="stroke:#181818;stroke-width:1.0;"/><polygon fill="#181818" points="510.82,693.62,513.972,684.2892,510.3584,688.6414,506.0062,685.0277,510.82,693.62" style="stroke:#181818;stroke-width:1.0;"/><line style="stroke:#181818;stroke-width:1.0;" x1="510.3584" x2="509.61" y1="688.6414" y2="680.68"/><polygon fill="#181818" points="504.15,622.03,500.7279,628.3774,505.2709,633.9775,508.693,627.6301,504.15,622.03" style="stroke:#181818;stroke-width:1.0;"/><text fill="#000000" font-family="sans-serif" font-size="13" lengthAdjust="spacing" textLength="20" x="487.8511" y="683.2653">0..*</text></g><!--MD5=[cc348d06d3839b7ad58830b94e06dd2a]
@startuml OpoTestDomain

class Community

class User

class Reviewer

class Editor 

class Executor 

package Public {

    class Tests

    class PendingReviewTests

}

package Private {

    class Category 

    class Subcategory 

    class Test 

    class Question {
        date
        reviewed
        ...
    }

    class Statement

    class Answer 

    class Correct

    Class Wrong {
        difficulty
    }

}

Community *- -> "1..*" User
Community *- -> Tests


User <|- - Editor
Editor <|- -  Reviewer
User <|- - Executor

User o- -> "0..*" Test
User ..> Tests
User ..> PendingReviewTests : Upload
Test ..> PendingReviewTests

Editor ..> Question
Reviewer ..> PendingReviewTests : Review

Test *- -> "1..*" Question
Question *- ->  Statement
Question *- -> "1..*" Answer
Answer <|- - Correct
Answer <|- - Wrong

Question *- -> Category
Category *- ->"0..*" Subcategory






@end

PlantUML version 1.2022.7(Mon Aug 22 18:01:30 WEST 2022)
(GPL source distribution)
Java Runtime: OpenJDK Runtime Environment
JVM: OpenJDK 64-Bit Server VM
Default Encoding: Cp1252
Language: es
Country: ES
--></g></svg>