<?xml version="1.0" encoding="UTF-8" standalone="no"?><svg xmlns="http://www.w3.org/2000/svg" xmlns:xlink="http://www.w3.org/1999/xlink" contentStyleType="text/css" height="977px" preserveAspectRatio="none" style="width:451px;height:977px;background:#FFFFFF;" version="1.1" viewBox="0 0 451 977" width="451px" zoomAndPan="magnify"><defs/><g><!--MD5=[668d633d11bedc8952753581a2dda3db]
class Community--><g id="elem_Community"><rect codeLine="2" fill="#F1F1F1" height="48" id="Community" rx="2.5" ry="2.5" style="stroke:#181818;stroke-width:0.5;" width="102" x="252" y="7"/><ellipse cx="267" cy="23" fill="#ADD1B2" rx="11" ry="11" style="stroke:#181818;stroke-width:1.0;"/><path d="M269.7656,18.875 Q269.9219,18.6563 270.1094,18.5469 Q270.2969,18.4375 270.5156,18.4375 Q270.8906,18.4375 271.125,18.7031 Q271.3594,18.9531 271.3594,19.5625 L271.3594,21.0156 Q271.3594,21.625 271.125,21.8906 Q270.8906,22.1563 270.5156,22.1563 Q270.1719,22.1563 269.9688,21.9531 Q269.7656,21.7656 269.6563,21.25 Q269.6094,20.8906 269.4219,20.7031 Q269.0938,20.3281 268.4844,20.1094 Q267.875,19.8906 267.25,19.8906 Q266.4844,19.8906 265.8438,20.2188 Q265.2188,20.5469 264.7188,21.2969 Q264.2344,22.0469 264.2344,23.0781 L264.2344,24.1719 Q264.2344,25.4063 265.125,26.2344 Q266.0156,27.0469 267.6094,27.0469 Q268.5469,27.0469 269.2031,26.7969 Q269.5938,26.6406 270.0156,26.2031 Q270.2813,25.9375 270.4219,25.8594 Q270.5781,25.7813 270.7813,25.7813 Q271.1094,25.7813 271.3594,26.0469 Q271.625,26.2969 271.625,26.6406 Q271.625,26.9844 271.2813,27.3906 Q270.7813,27.9688 269.9844,28.2969 Q268.9063,28.75 267.6094,28.75 Q266.0938,28.75 264.8906,28.125 Q263.9063,27.625 263.2188,26.5625 Q262.5313,25.4844 262.5313,24.2031 L262.5313,23.0469 Q262.5313,21.7188 263.1406,20.5781 Q263.7656,19.4219 264.8594,18.8125 Q265.9531,18.1875 267.1875,18.1875 Q267.9219,18.1875 268.5625,18.3594 Q269.2188,18.5156 269.7656,18.875 Z " fill="#000000"/><text fill="#000000" font-family="sans-serif" font-size="14" lengthAdjust="spacing" textLength="70" x="281" y="28.7285">Community</text><line style="stroke:#181818;stroke-width:0.5;" x1="253" x2="353" y1="39" y2="39"/><line style="stroke:#181818;stroke-width:0.5;" x1="253" x2="353" y1="47" y2="47"/></g><!--MD5=[3fd616f346a44cd59a91eb10b19e157c]
class User--><g id="elem_User"><rect codeLine="4" fill="#F1F1F1" height="48" id="User" rx="2.5" ry="2.5" style="stroke:#181818;stroke-width:0.5;" width="61" x="222.5" y="116"/><ellipse cx="237.5" cy="132" fill="#ADD1B2" rx="11" ry="11" style="stroke:#181818;stroke-width:1.0;"/><path d="M240.2656,127.875 Q240.4219,127.6563 240.6094,127.5469 Q240.7969,127.4375 241.0156,127.4375 Q241.3906,127.4375 241.625,127.7031 Q241.8594,127.9531 241.8594,128.5625 L241.8594,130.0156 Q241.8594,130.625 241.625,130.8906 Q241.3906,131.1563 241.0156,131.1563 Q240.6719,131.1563 240.4688,130.9531 Q240.2656,130.7656 240.1563,130.25 Q240.1094,129.8906 239.9219,129.7031 Q239.5938,129.3281 238.9844,129.1094 Q238.375,128.8906 237.75,128.8906 Q236.9844,128.8906 236.3438,129.2188 Q235.7188,129.5469 235.2188,130.2969 Q234.7344,131.0469 234.7344,132.0781 L234.7344,133.1719 Q234.7344,134.4063 235.625,135.2344 Q236.5156,136.0469 238.1094,136.0469 Q239.0469,136.0469 239.7031,135.7969 Q240.0938,135.6406 240.5156,135.2031 Q240.7813,134.9375 240.9219,134.8594 Q241.0781,134.7813 241.2813,134.7813 Q241.6094,134.7813 241.8594,135.0469 Q242.125,135.2969 242.125,135.6406 Q242.125,135.9844 241.7813,136.3906 Q241.2813,136.9688 240.4844,137.2969 Q239.4063,137.75 238.1094,137.75 Q236.5938,137.75 235.3906,137.125 Q234.4063,136.625 233.7188,135.5625 Q233.0313,134.4844 233.0313,133.2031 L233.0313,132.0469 Q233.0313,130.7188 233.6406,129.5781 Q234.2656,128.4219 235.3594,127.8125 Q236.4531,127.1875 237.6875,127.1875 Q238.4219,127.1875 239.0625,127.3594 Q239.7188,127.5156 240.2656,127.875 Z " fill="#000000"/><text fill="#000000" font-family="sans-serif" font-size="14" lengthAdjust="spacing" textLength="29" x="251.5" y="137.7285">User</text><line style="stroke:#181818;stroke-width:0.5;" x1="223.5" x2="282.5" y1="148" y2="148"/><line style="stroke:#181818;stroke-width:0.5;" x1="223.5" x2="282.5" y1="156" y2="156"/></g><!--MD5=[e76a510855fdf825c81877c657b1fc23]
class Reviewer--><g id="elem_Reviewer"><rect codeLine="6" fill="#F1F1F1" height="48" id="Reviewer" rx="2.5" ry="2.5" style="stroke:#181818;stroke-width:0.5;" width="90" x="251" y="381"/><ellipse cx="266" cy="397" fill="#ADD1B2" rx="11" ry="11" style="stroke:#181818;stroke-width:1.0;"/><path d="M268.7656,392.875 Q268.9219,392.6563 269.1094,392.5469 Q269.2969,392.4375 269.5156,392.4375 Q269.8906,392.4375 270.125,392.7031 Q270.3594,392.9531 270.3594,393.5625 L270.3594,395.0156 Q270.3594,395.625 270.125,395.8906 Q269.8906,396.1563 269.5156,396.1563 Q269.1719,396.1563 268.9688,395.9531 Q268.7656,395.7656 268.6563,395.25 Q268.6094,394.8906 268.4219,394.7031 Q268.0938,394.3281 267.4844,394.1094 Q266.875,393.8906 266.25,393.8906 Q265.4844,393.8906 264.8438,394.2188 Q264.2188,394.5469 263.7188,395.2969 Q263.2344,396.0469 263.2344,397.0781 L263.2344,398.1719 Q263.2344,399.4063 264.125,400.2344 Q265.0156,401.0469 266.6094,401.0469 Q267.5469,401.0469 268.2031,400.7969 Q268.5938,400.6406 269.0156,400.2031 Q269.2813,399.9375 269.4219,399.8594 Q269.5781,399.7813 269.7813,399.7813 Q270.1094,399.7813 270.3594,400.0469 Q270.625,400.2969 270.625,400.6406 Q270.625,400.9844 270.2813,401.3906 Q269.7813,401.9688 268.9844,402.2969 Q267.9063,402.75 266.6094,402.75 Q265.0938,402.75 263.8906,402.125 Q262.9063,401.625 262.2188,400.5625 Q261.5313,399.4844 261.5313,398.2031 L261.5313,397.0469 Q261.5313,395.7188 262.1406,394.5781 Q262.7656,393.4219 263.8594,392.8125 Q264.9531,392.1875 266.1875,392.1875 Q266.9219,392.1875 267.5625,392.3594 Q268.2188,392.5156 268.7656,392.875 Z " fill="#000000"/><text fill="#000000" font-family="sans-serif" font-size="14" lengthAdjust="spacing" textLength="58" x="280" y="402.7285">Reviewer</text><line style="stroke:#181818;stroke-width:0.5;" x1="252" x2="340" y1="413" y2="413"/><line style="stroke:#181818;stroke-width:0.5;" x1="252" x2="340" y1="421" y2="421"/></g><!--MD5=[559db66c208d2736f857be4b8ed380a2]
class Editor--><g id="elem_Editor"><rect codeLine="8" fill="#F1F1F1" height="48" id="Editor" rx="2.5" ry="2.5" style="stroke:#181818;stroke-width:0.5;" width="69" x="218.5" y="272"/><ellipse cx="233.5" cy="288" fill="#ADD1B2" rx="11" ry="11" style="stroke:#181818;stroke-width:1.0;"/><path d="M236.2656,283.875 Q236.4219,283.6563 236.6094,283.5469 Q236.7969,283.4375 237.0156,283.4375 Q237.3906,283.4375 237.625,283.7031 Q237.8594,283.9531 237.8594,284.5625 L237.8594,286.0156 Q237.8594,286.625 237.625,286.8906 Q237.3906,287.1563 237.0156,287.1563 Q236.6719,287.1563 236.4688,286.9531 Q236.2656,286.7656 236.1563,286.25 Q236.1094,285.8906 235.9219,285.7031 Q235.5938,285.3281 234.9844,285.1094 Q234.375,284.8906 233.75,284.8906 Q232.9844,284.8906 232.3438,285.2188 Q231.7188,285.5469 231.2188,286.2969 Q230.7344,287.0469 230.7344,288.0781 L230.7344,289.1719 Q230.7344,290.4063 231.625,291.2344 Q232.5156,292.0469 234.1094,292.0469 Q235.0469,292.0469 235.7031,291.7969 Q236.0938,291.6406 236.5156,291.2031 Q236.7813,290.9375 236.9219,290.8594 Q237.0781,290.7813 237.2813,290.7813 Q237.6094,290.7813 237.8594,291.0469 Q238.125,291.2969 238.125,291.6406 Q238.125,291.9844 237.7813,292.3906 Q237.2813,292.9688 236.4844,293.2969 Q235.4063,293.75 234.1094,293.75 Q232.5938,293.75 231.3906,293.125 Q230.4063,292.625 229.7188,291.5625 Q229.0313,290.4844 229.0313,289.2031 L229.0313,288.0469 Q229.0313,286.7188 229.6406,285.5781 Q230.2656,284.4219 231.3594,283.8125 Q232.4531,283.1875 233.6875,283.1875 Q234.4219,283.1875 235.0625,283.3594 Q235.7188,283.5156 236.2656,283.875 Z " fill="#000000"/><text fill="#000000" font-family="sans-serif" font-size="14" lengthAdjust="spacing" textLength="37" x="247.5" y="293.7285">Editor</text><line style="stroke:#181818;stroke-width:0.5;" x1="219.5" x2="286.5" y1="304" y2="304"/><line style="stroke:#181818;stroke-width:0.5;" x1="219.5" x2="286.5" y1="312" y2="312"/></g><!--MD5=[a0a1f7f9662f43ef0ece806266f72a6f]
class Executor--><g id="elem_Executor"><rect codeLine="10" fill="#F1F1F1" height="48" id="Executor" rx="2.5" ry="2.5" style="stroke:#181818;stroke-width:0.5;" width="87" x="85.5" y="272"/><ellipse cx="100.5" cy="288" fill="#ADD1B2" rx="11" ry="11" style="stroke:#181818;stroke-width:1.0;"/><path d="M103.2656,283.875 Q103.4219,283.6563 103.6094,283.5469 Q103.7969,283.4375 104.0156,283.4375 Q104.3906,283.4375 104.625,283.7031 Q104.8594,283.9531 104.8594,284.5625 L104.8594,286.0156 Q104.8594,286.625 104.625,286.8906 Q104.3906,287.1563 104.0156,287.1563 Q103.6719,287.1563 103.4688,286.9531 Q103.2656,286.7656 103.1563,286.25 Q103.1094,285.8906 102.9219,285.7031 Q102.5938,285.3281 101.9844,285.1094 Q101.375,284.8906 100.75,284.8906 Q99.9844,284.8906 99.3438,285.2188 Q98.7188,285.5469 98.2188,286.2969 Q97.7344,287.0469 97.7344,288.0781 L97.7344,289.1719 Q97.7344,290.4063 98.625,291.2344 Q99.5156,292.0469 101.1094,292.0469 Q102.0469,292.0469 102.7031,291.7969 Q103.0938,291.6406 103.5156,291.2031 Q103.7813,290.9375 103.9219,290.8594 Q104.0781,290.7813 104.2813,290.7813 Q104.6094,290.7813 104.8594,291.0469 Q105.125,291.2969 105.125,291.6406 Q105.125,291.9844 104.7813,292.3906 Q104.2813,292.9688 103.4844,293.2969 Q102.4063,293.75 101.1094,293.75 Q99.5938,293.75 98.3906,293.125 Q97.4063,292.625 96.7188,291.5625 Q96.0313,290.4844 96.0313,289.2031 L96.0313,288.0469 Q96.0313,286.7188 96.6406,285.5781 Q97.2656,284.4219 98.3594,283.8125 Q99.4531,283.1875 100.6875,283.1875 Q101.4219,283.1875 102.0625,283.3594 Q102.7188,283.5156 103.2656,283.875 Z " fill="#000000"/><text fill="#000000" font-family="sans-serif" font-size="14" lengthAdjust="spacing" textLength="55" x="114.5" y="293.7285">Executor</text><line style="stroke:#181818;stroke-width:0.5;" x1="86.5" x2="171.5" y1="304" y2="304"/><line style="stroke:#181818;stroke-width:0.5;" x1="86.5" x2="171.5" y1="312" y2="312"/></g><!--MD5=[71e8807956d33805e77353b9d7e2df39]
class Evaluation--><g id="elem_Evaluation"><rect codeLine="12" fill="#F1F1F1" height="48" id="Evaluation" rx="2.5" ry="2.5" style="stroke:#181818;stroke-width:0.5;" width="98" x="47" y="381"/><ellipse cx="62" cy="397" fill="#ADD1B2" rx="11" ry="11" style="stroke:#181818;stroke-width:1.0;"/><path d="M64.7656,392.875 Q64.9219,392.6563 65.1094,392.5469 Q65.2969,392.4375 65.5156,392.4375 Q65.8906,392.4375 66.125,392.7031 Q66.3594,392.9531 66.3594,393.5625 L66.3594,395.0156 Q66.3594,395.625 66.125,395.8906 Q65.8906,396.1563 65.5156,396.1563 Q65.1719,396.1563 64.9688,395.9531 Q64.7656,395.7656 64.6563,395.25 Q64.6094,394.8906 64.4219,394.7031 Q64.0938,394.3281 63.4844,394.1094 Q62.875,393.8906 62.25,393.8906 Q61.4844,393.8906 60.8438,394.2188 Q60.2188,394.5469 59.7188,395.2969 Q59.2344,396.0469 59.2344,397.0781 L59.2344,398.1719 Q59.2344,399.4063 60.125,400.2344 Q61.0156,401.0469 62.6094,401.0469 Q63.5469,401.0469 64.2031,400.7969 Q64.5938,400.6406 65.0156,400.2031 Q65.2813,399.9375 65.4219,399.8594 Q65.5781,399.7813 65.7813,399.7813 Q66.1094,399.7813 66.3594,400.0469 Q66.625,400.2969 66.625,400.6406 Q66.625,400.9844 66.2813,401.3906 Q65.7813,401.9688 64.9844,402.2969 Q63.9063,402.75 62.6094,402.75 Q61.0938,402.75 59.8906,402.125 Q58.9063,401.625 58.2188,400.5625 Q57.5313,399.4844 57.5313,398.2031 L57.5313,397.0469 Q57.5313,395.7188 58.1406,394.5781 Q58.7656,393.4219 59.8594,392.8125 Q60.9531,392.1875 62.1875,392.1875 Q62.9219,392.1875 63.5625,392.3594 Q64.2188,392.5156 64.7656,392.875 Z " fill="#000000"/><text fill="#000000" font-family="sans-serif" font-size="14" lengthAdjust="spacing" textLength="66" x="76" y="402.7285">Evaluation</text><line style="stroke:#181818;stroke-width:0.5;" x1="48" x2="144" y1="413" y2="413"/><line style="stroke:#181818;stroke-width:0.5;" x1="48" x2="144" y1="421" y2="421"/></g><!--MD5=[a96594a83e2ecdc78cbf17c2ddf01934]
class Category--><g id="elem_Category"><rect codeLine="14" fill="#F1F1F1" height="48" id="Category" rx="2.5" ry="2.5" style="stroke:#181818;stroke-width:0.5;" width="90" x="7" y="813"/><ellipse cx="22" cy="829" fill="#ADD1B2" rx="11" ry="11" style="stroke:#181818;stroke-width:1.0;"/><path d="M24.7656,824.875 Q24.9219,824.6563 25.1094,824.5469 Q25.2969,824.4375 25.5156,824.4375 Q25.8906,824.4375 26.125,824.7031 Q26.3594,824.9531 26.3594,825.5625 L26.3594,827.0156 Q26.3594,827.625 26.125,827.8906 Q25.8906,828.1563 25.5156,828.1563 Q25.1719,828.1563 24.9688,827.9531 Q24.7656,827.7656 24.6563,827.25 Q24.6094,826.8906 24.4219,826.7031 Q24.0938,826.3281 23.4844,826.1094 Q22.875,825.8906 22.25,825.8906 Q21.4844,825.8906 20.8438,826.2188 Q20.2188,826.5469 19.7188,827.2969 Q19.2344,828.0469 19.2344,829.0781 L19.2344,830.1719 Q19.2344,831.4063 20.125,832.2344 Q21.0156,833.0469 22.6094,833.0469 Q23.5469,833.0469 24.2031,832.7969 Q24.5938,832.6406 25.0156,832.2031 Q25.2813,831.9375 25.4219,831.8594 Q25.5781,831.7813 25.7813,831.7813 Q26.1094,831.7813 26.3594,832.0469 Q26.625,832.2969 26.625,832.6406 Q26.625,832.9844 26.2813,833.3906 Q25.7813,833.9688 24.9844,834.2969 Q23.9063,834.75 22.6094,834.75 Q21.0938,834.75 19.8906,834.125 Q18.9063,833.625 18.2188,832.5625 Q17.5313,831.4844 17.5313,830.2031 L17.5313,829.0469 Q17.5313,827.7188 18.1406,826.5781 Q18.7656,825.4219 19.8594,824.8125 Q20.9531,824.1875 22.1875,824.1875 Q22.9219,824.1875 23.5625,824.3594 Q24.2188,824.5156 24.7656,824.875 Z " fill="#000000"/><text fill="#000000" font-family="sans-serif" font-size="14" lengthAdjust="spacing" textLength="58" x="36" y="834.7285">Category</text><line style="stroke:#181818;stroke-width:0.5;" x1="8" x2="96" y1="845" y2="845"/><line style="stroke:#181818;stroke-width:0.5;" x1="8" x2="96" y1="853" y2="853"/></g><!--MD5=[df38be88ccee13e832d6fafd6288a4ca]
class Test--><g id="elem_Test"><rect codeLine="16" fill="#F1F1F1" height="48" id="Test" rx="2.5" ry="2.5" style="stroke:#181818;stroke-width:0.5;" width="60" x="80" y="507"/><ellipse cx="95" cy="523" fill="#ADD1B2" rx="11" ry="11" style="stroke:#181818;stroke-width:1.0;"/><path d="M97.7656,518.875 Q97.9219,518.6563 98.1094,518.5469 Q98.2969,518.4375 98.5156,518.4375 Q98.8906,518.4375 99.125,518.7031 Q99.3594,518.9531 99.3594,519.5625 L99.3594,521.0156 Q99.3594,521.625 99.125,521.8906 Q98.8906,522.1563 98.5156,522.1563 Q98.1719,522.1563 97.9688,521.9531 Q97.7656,521.7656 97.6563,521.25 Q97.6094,520.8906 97.4219,520.7031 Q97.0938,520.3281 96.4844,520.1094 Q95.875,519.8906 95.25,519.8906 Q94.4844,519.8906 93.8438,520.2188 Q93.2188,520.5469 92.7188,521.2969 Q92.2344,522.0469 92.2344,523.0781 L92.2344,524.1719 Q92.2344,525.4063 93.125,526.2344 Q94.0156,527.0469 95.6094,527.0469 Q96.5469,527.0469 97.2031,526.7969 Q97.5938,526.6406 98.0156,526.2031 Q98.2813,525.9375 98.4219,525.8594 Q98.5781,525.7813 98.7813,525.7813 Q99.1094,525.7813 99.3594,526.0469 Q99.625,526.2969 99.625,526.6406 Q99.625,526.9844 99.2813,527.3906 Q98.7813,527.9688 97.9844,528.2969 Q96.9063,528.75 95.6094,528.75 Q94.0938,528.75 92.8906,528.125 Q91.9063,527.625 91.2188,526.5625 Q90.5313,525.4844 90.5313,524.2031 L90.5313,523.0469 Q90.5313,521.7188 91.1406,520.5781 Q91.7656,519.4219 92.8594,518.8125 Q93.9531,518.1875 95.1875,518.1875 Q95.9219,518.1875 96.5625,518.3594 Q97.2188,518.5156 97.7656,518.875 Z " fill="#000000"/><text fill="#000000" font-family="sans-serif" font-size="14" lengthAdjust="spacing" textLength="28" x="109" y="528.7285">Test</text><line style="stroke:#181818;stroke-width:0.5;" x1="81" x2="139" y1="539" y2="539"/><line style="stroke:#181818;stroke-width:0.5;" x1="81" x2="139" y1="547" y2="547"/></g><!--MD5=[686fa95824735602dd15f07aadf69888]
class PendingReviewQuestions--><g id="elem_PendingReviewQuestions"><rect codeLine="18" fill="#F1F1F1" height="48" id="PendingReviewQuestions" rx="2.5" ry="2.5" style="stroke:#181818;stroke-width:0.5;" width="193" x="251.5" y="507"/><ellipse cx="266.5" cy="523" fill="#ADD1B2" rx="11" ry="11" style="stroke:#181818;stroke-width:1.0;"/><path d="M269.2656,518.875 Q269.4219,518.6563 269.6094,518.5469 Q269.7969,518.4375 270.0156,518.4375 Q270.3906,518.4375 270.625,518.7031 Q270.8594,518.9531 270.8594,519.5625 L270.8594,521.0156 Q270.8594,521.625 270.625,521.8906 Q270.3906,522.1563 270.0156,522.1563 Q269.6719,522.1563 269.4688,521.9531 Q269.2656,521.7656 269.1563,521.25 Q269.1094,520.8906 268.9219,520.7031 Q268.5938,520.3281 267.9844,520.1094 Q267.375,519.8906 266.75,519.8906 Q265.9844,519.8906 265.3438,520.2188 Q264.7188,520.5469 264.2188,521.2969 Q263.7344,522.0469 263.7344,523.0781 L263.7344,524.1719 Q263.7344,525.4063 264.625,526.2344 Q265.5156,527.0469 267.1094,527.0469 Q268.0469,527.0469 268.7031,526.7969 Q269.0938,526.6406 269.5156,526.2031 Q269.7813,525.9375 269.9219,525.8594 Q270.0781,525.7813 270.2813,525.7813 Q270.6094,525.7813 270.8594,526.0469 Q271.125,526.2969 271.125,526.6406 Q271.125,526.9844 270.7813,527.3906 Q270.2813,527.9688 269.4844,528.2969 Q268.4063,528.75 267.1094,528.75 Q265.5938,528.75 264.3906,528.125 Q263.4063,527.625 262.7188,526.5625 Q262.0313,525.4844 262.0313,524.2031 L262.0313,523.0469 Q262.0313,521.7188 262.6406,520.5781 Q263.2656,519.4219 264.3594,518.8125 Q265.4531,518.1875 266.6875,518.1875 Q267.4219,518.1875 268.0625,518.3594 Q268.7188,518.5156 269.2656,518.875 Z " fill="#000000"/><text fill="#000000" font-family="sans-serif" font-size="14" lengthAdjust="spacing" textLength="161" x="280.5" y="528.7285">PendingReviewQuestions</text><line style="stroke:#181818;stroke-width:0.5;" x1="252.5" x2="443.5" y1="539" y2="539"/><line style="stroke:#181818;stroke-width:0.5;" x1="252.5" x2="443.5" y1="547" y2="547"/></g><!--MD5=[373ae88a10f78ace1fc54598d82915f0]
class AvailableQuestions--><g id="elem_AvailableQuestions"><rect codeLine="20" fill="#F1F1F1" height="48" id="AvailableQuestions" rx="2.5" ry="2.5" style="stroke:#181818;stroke-width:0.5;" width="153" x="290.5" y="194"/><ellipse cx="305.5" cy="210" fill="#ADD1B2" rx="11" ry="11" style="stroke:#181818;stroke-width:1.0;"/><path d="M308.2656,205.875 Q308.4219,205.6563 308.6094,205.5469 Q308.7969,205.4375 309.0156,205.4375 Q309.3906,205.4375 309.625,205.7031 Q309.8594,205.9531 309.8594,206.5625 L309.8594,208.0156 Q309.8594,208.625 309.625,208.8906 Q309.3906,209.1563 309.0156,209.1563 Q308.6719,209.1563 308.4688,208.9531 Q308.2656,208.7656 308.1563,208.25 Q308.1094,207.8906 307.9219,207.7031 Q307.5938,207.3281 306.9844,207.1094 Q306.375,206.8906 305.75,206.8906 Q304.9844,206.8906 304.3438,207.2188 Q303.7188,207.5469 303.2188,208.2969 Q302.7344,209.0469 302.7344,210.0781 L302.7344,211.1719 Q302.7344,212.4063 303.625,213.2344 Q304.5156,214.0469 306.1094,214.0469 Q307.0469,214.0469 307.7031,213.7969 Q308.0938,213.6406 308.5156,213.2031 Q308.7813,212.9375 308.9219,212.8594 Q309.0781,212.7813 309.2813,212.7813 Q309.6094,212.7813 309.8594,213.0469 Q310.125,213.2969 310.125,213.6406 Q310.125,213.9844 309.7813,214.3906 Q309.2813,214.9688 308.4844,215.2969 Q307.4063,215.75 306.1094,215.75 Q304.5938,215.75 303.3906,215.125 Q302.4063,214.625 301.7188,213.5625 Q301.0313,212.4844 301.0313,211.2031 L301.0313,210.0469 Q301.0313,208.7188 301.6406,207.5781 Q302.2656,206.4219 303.3594,205.8125 Q304.4531,205.1875 305.6875,205.1875 Q306.4219,205.1875 307.0625,205.3594 Q307.7188,205.5156 308.2656,205.875 Z " fill="#000000"/><text fill="#000000" font-family="sans-serif" font-size="14" lengthAdjust="spacing" textLength="121" x="319.5" y="215.7285">AvailableQuestions</text><line style="stroke:#181818;stroke-width:0.5;" x1="291.5" x2="442.5" y1="226" y2="226"/><line style="stroke:#181818;stroke-width:0.5;" x1="291.5" x2="442.5" y1="234" y2="234"/></g><!--MD5=[fc7123defb831ecdd44b2d9bcef6cceb]
class Question--><g id="elem_Question"><rect codeLine="22" fill="#F1F1F1" height="136.0469" id="Question" rx="2.5" ry="2.5" style="stroke:#181818;stroke-width:0.5;" width="96" x="150" y="616"/><ellipse cx="168.15" cy="632" fill="#ADD1B2" rx="11" ry="11" style="stroke:#181818;stroke-width:1.0;"/><path d="M170.9156,627.875 Q171.0719,627.6563 171.2594,627.5469 Q171.4469,627.4375 171.6656,627.4375 Q172.0406,627.4375 172.275,627.7031 Q172.5094,627.9531 172.5094,628.5625 L172.5094,630.0156 Q172.5094,630.625 172.275,630.8906 Q172.0406,631.1563 171.6656,631.1563 Q171.3219,631.1563 171.1188,630.9531 Q170.9156,630.7656 170.8063,630.25 Q170.7594,629.8906 170.5719,629.7031 Q170.2438,629.3281 169.6344,629.1094 Q169.025,628.8906 168.4,628.8906 Q167.6344,628.8906 166.9938,629.2188 Q166.3688,629.5469 165.8688,630.2969 Q165.3844,631.0469 165.3844,632.0781 L165.3844,633.1719 Q165.3844,634.4063 166.275,635.2344 Q167.1656,636.0469 168.7594,636.0469 Q169.6969,636.0469 170.3531,635.7969 Q170.7438,635.6406 171.1656,635.2031 Q171.4313,634.9375 171.5719,634.8594 Q171.7281,634.7813 171.9313,634.7813 Q172.2594,634.7813 172.5094,635.0469 Q172.775,635.2969 172.775,635.6406 Q172.775,635.9844 172.4313,636.3906 Q171.9313,636.9688 171.1344,637.2969 Q170.0563,637.75 168.7594,637.75 Q167.2438,637.75 166.0406,637.125 Q165.0563,636.625 164.3688,635.5625 Q163.6813,634.4844 163.6813,633.2031 L163.6813,632.0469 Q163.6813,630.7188 164.2906,629.5781 Q164.9156,628.4219 166.0094,627.8125 Q167.1031,627.1875 168.3375,627.1875 Q169.0719,627.1875 169.7125,627.3594 Q170.3688,627.5156 170.9156,627.875 Z " fill="#000000"/><text fill="#000000" font-family="sans-serif" font-size="14" lengthAdjust="spacing" textLength="57" x="182.85" y="637.7285">Question</text><line style="stroke:#181818;stroke-width:0.5;" x1="151" x2="245" y1="648" y2="648"/><text fill="#000000" font-family="sans-serif" font-size="14" lengthAdjust="spacing" textLength="28" x="156" y="666.5332">date</text><text fill="#000000" font-family="sans-serif" font-size="14" lengthAdjust="spacing" textLength="56" x="156" y="684.1426">reviewed</text><text fill="#000000" font-family="sans-serif" font-size="14" lengthAdjust="spacing" textLength="27" x="156" y="701.752">type</text><text fill="#000000" font-family="sans-serif" font-size="14" lengthAdjust="spacing" textLength="84" x="156" y="719.3613">public/private</text><text fill="#000000" font-family="sans-serif" font-size="14" lengthAdjust="spacing" textLength="12" x="156" y="736.9707">...</text><line style="stroke:#181818;stroke-width:0.5;" x1="151" x2="245" y1="744.0469" y2="744.0469"/></g><!--MD5=[a61a298976b7d1d94498f45c2ebfa10b]
class Statement--><g id="elem_Statement"><rect codeLine="30" fill="#F1F1F1" height="48" id="Statement" rx="2.5" ry="2.5" style="stroke:#181818;stroke-width:0.5;" width="96" x="150" y="813"/><ellipse cx="165" cy="829" fill="#ADD1B2" rx="11" ry="11" style="stroke:#181818;stroke-width:1.0;"/><path d="M167.7656,824.875 Q167.9219,824.6563 168.1094,824.5469 Q168.2969,824.4375 168.5156,824.4375 Q168.8906,824.4375 169.125,824.7031 Q169.3594,824.9531 169.3594,825.5625 L169.3594,827.0156 Q169.3594,827.625 169.125,827.8906 Q168.8906,828.1563 168.5156,828.1563 Q168.1719,828.1563 167.9688,827.9531 Q167.7656,827.7656 167.6563,827.25 Q167.6094,826.8906 167.4219,826.7031 Q167.0938,826.3281 166.4844,826.1094 Q165.875,825.8906 165.25,825.8906 Q164.4844,825.8906 163.8438,826.2188 Q163.2188,826.5469 162.7188,827.2969 Q162.2344,828.0469 162.2344,829.0781 L162.2344,830.1719 Q162.2344,831.4063 163.125,832.2344 Q164.0156,833.0469 165.6094,833.0469 Q166.5469,833.0469 167.2031,832.7969 Q167.5938,832.6406 168.0156,832.2031 Q168.2813,831.9375 168.4219,831.8594 Q168.5781,831.7813 168.7813,831.7813 Q169.1094,831.7813 169.3594,832.0469 Q169.625,832.2969 169.625,832.6406 Q169.625,832.9844 169.2813,833.3906 Q168.7813,833.9688 167.9844,834.2969 Q166.9063,834.75 165.6094,834.75 Q164.0938,834.75 162.8906,834.125 Q161.9063,833.625 161.2188,832.5625 Q160.5313,831.4844 160.5313,830.2031 L160.5313,829.0469 Q160.5313,827.7188 161.1406,826.5781 Q161.7656,825.4219 162.8594,824.8125 Q163.9531,824.1875 165.1875,824.1875 Q165.9219,824.1875 166.5625,824.3594 Q167.2188,824.5156 167.7656,824.875 Z " fill="#000000"/><text fill="#000000" font-family="sans-serif" font-size="14" lengthAdjust="spacing" textLength="64" x="179" y="834.7285">Statement</text><line style="stroke:#181818;stroke-width:0.5;" x1="151" x2="245" y1="845" y2="845"/><line style="stroke:#181818;stroke-width:0.5;" x1="151" x2="245" y1="853" y2="853"/></g><!--MD5=[f9fadfa5a66b7e5a67b370cd443ffe52]
class Answer--><g id="elem_Answer"><rect codeLine="32" fill="#F1F1F1" height="48" id="Answer" rx="2.5" ry="2.5" style="stroke:#181818;stroke-width:0.5;" width="78" x="281" y="813"/><ellipse cx="296" cy="829" fill="#ADD1B2" rx="11" ry="11" style="stroke:#181818;stroke-width:1.0;"/><path d="M298.7656,824.875 Q298.9219,824.6563 299.1094,824.5469 Q299.2969,824.4375 299.5156,824.4375 Q299.8906,824.4375 300.125,824.7031 Q300.3594,824.9531 300.3594,825.5625 L300.3594,827.0156 Q300.3594,827.625 300.125,827.8906 Q299.8906,828.1563 299.5156,828.1563 Q299.1719,828.1563 298.9688,827.9531 Q298.7656,827.7656 298.6563,827.25 Q298.6094,826.8906 298.4219,826.7031 Q298.0938,826.3281 297.4844,826.1094 Q296.875,825.8906 296.25,825.8906 Q295.4844,825.8906 294.8438,826.2188 Q294.2188,826.5469 293.7188,827.2969 Q293.2344,828.0469 293.2344,829.0781 L293.2344,830.1719 Q293.2344,831.4063 294.125,832.2344 Q295.0156,833.0469 296.6094,833.0469 Q297.5469,833.0469 298.2031,832.7969 Q298.5938,832.6406 299.0156,832.2031 Q299.2813,831.9375 299.4219,831.8594 Q299.5781,831.7813 299.7813,831.7813 Q300.1094,831.7813 300.3594,832.0469 Q300.625,832.2969 300.625,832.6406 Q300.625,832.9844 300.2813,833.3906 Q299.7813,833.9688 298.9844,834.2969 Q297.9063,834.75 296.6094,834.75 Q295.0938,834.75 293.8906,834.125 Q292.9063,833.625 292.2188,832.5625 Q291.5313,831.4844 291.5313,830.2031 L291.5313,829.0469 Q291.5313,827.7188 292.1406,826.5781 Q292.7656,825.4219 293.8594,824.8125 Q294.9531,824.1875 296.1875,824.1875 Q296.9219,824.1875 297.5625,824.3594 Q298.2188,824.5156 298.7656,824.875 Z " fill="#000000"/><text fill="#000000" font-family="sans-serif" font-size="14" lengthAdjust="spacing" textLength="46" x="310" y="834.7285">Answer</text><line style="stroke:#181818;stroke-width:0.5;" x1="282" x2="358" y1="845" y2="845"/><line style="stroke:#181818;stroke-width:0.5;" x1="282" x2="358" y1="853" y2="853"/></g><!--MD5=[bc629657279eaa9349f412646650f2c5]
class Correct--><g id="elem_Correct"><rect codeLine="34" fill="#F1F1F1" height="48" id="Correct" rx="2.5" ry="2.5" style="stroke:#181818;stroke-width:0.5;" width="79" x="224.5" y="922"/><ellipse cx="239.5" cy="938" fill="#ADD1B2" rx="11" ry="11" style="stroke:#181818;stroke-width:1.0;"/><path d="M242.2656,933.875 Q242.4219,933.6563 242.6094,933.5469 Q242.7969,933.4375 243.0156,933.4375 Q243.3906,933.4375 243.625,933.7031 Q243.8594,933.9531 243.8594,934.5625 L243.8594,936.0156 Q243.8594,936.625 243.625,936.8906 Q243.3906,937.1563 243.0156,937.1563 Q242.6719,937.1563 242.4688,936.9531 Q242.2656,936.7656 242.1563,936.25 Q242.1094,935.8906 241.9219,935.7031 Q241.5938,935.3281 240.9844,935.1094 Q240.375,934.8906 239.75,934.8906 Q238.9844,934.8906 238.3438,935.2188 Q237.7188,935.5469 237.2188,936.2969 Q236.7344,937.0469 236.7344,938.0781 L236.7344,939.1719 Q236.7344,940.4063 237.625,941.2344 Q238.5156,942.0469 240.1094,942.0469 Q241.0469,942.0469 241.7031,941.7969 Q242.0938,941.6406 242.5156,941.2031 Q242.7813,940.9375 242.9219,940.8594 Q243.0781,940.7813 243.2813,940.7813 Q243.6094,940.7813 243.8594,941.0469 Q244.125,941.2969 244.125,941.6406 Q244.125,941.9844 243.7813,942.3906 Q243.2813,942.9688 242.4844,943.2969 Q241.4063,943.75 240.1094,943.75 Q238.5938,943.75 237.3906,943.125 Q236.4063,942.625 235.7188,941.5625 Q235.0313,940.4844 235.0313,939.2031 L235.0313,938.0469 Q235.0313,936.7188 235.6406,935.5781 Q236.2656,934.4219 237.3594,933.8125 Q238.4531,933.1875 239.6875,933.1875 Q240.4219,933.1875 241.0625,933.3594 Q241.7188,933.5156 242.2656,933.875 Z " fill="#000000"/><text fill="#000000" font-family="sans-serif" font-size="14" lengthAdjust="spacing" textLength="47" x="253.5" y="943.7285">Correct</text><line style="stroke:#181818;stroke-width:0.5;" x1="225.5" x2="302.5" y1="954" y2="954"/><line style="stroke:#181818;stroke-width:0.5;" x1="225.5" x2="302.5" y1="962" y2="962"/></g><!--MD5=[d4df30b25862551bb6e4155e35efa20d]
class Wrong--><g id="elem_Wrong"><rect codeLine="36" fill="#F1F1F1" height="48" id="Wrong" rx="2.5" ry="2.5" style="stroke:#181818;stroke-width:0.5;" width="74" x="339" y="922"/><ellipse cx="354" cy="938" fill="#ADD1B2" rx="11" ry="11" style="stroke:#181818;stroke-width:1.0;"/><path d="M356.7656,933.875 Q356.9219,933.6563 357.1094,933.5469 Q357.2969,933.4375 357.5156,933.4375 Q357.8906,933.4375 358.125,933.7031 Q358.3594,933.9531 358.3594,934.5625 L358.3594,936.0156 Q358.3594,936.625 358.125,936.8906 Q357.8906,937.1563 357.5156,937.1563 Q357.1719,937.1563 356.9688,936.9531 Q356.7656,936.7656 356.6563,936.25 Q356.6094,935.8906 356.4219,935.7031 Q356.0938,935.3281 355.4844,935.1094 Q354.875,934.8906 354.25,934.8906 Q353.4844,934.8906 352.8438,935.2188 Q352.2188,935.5469 351.7188,936.2969 Q351.2344,937.0469 351.2344,938.0781 L351.2344,939.1719 Q351.2344,940.4063 352.125,941.2344 Q353.0156,942.0469 354.6094,942.0469 Q355.5469,942.0469 356.2031,941.7969 Q356.5938,941.6406 357.0156,941.2031 Q357.2813,940.9375 357.4219,940.8594 Q357.5781,940.7813 357.7813,940.7813 Q358.1094,940.7813 358.3594,941.0469 Q358.625,941.2969 358.625,941.6406 Q358.625,941.9844 358.2813,942.3906 Q357.7813,942.9688 356.9844,943.2969 Q355.9063,943.75 354.6094,943.75 Q353.0938,943.75 351.8906,943.125 Q350.9063,942.625 350.2188,941.5625 Q349.5313,940.4844 349.5313,939.2031 L349.5313,938.0469 Q349.5313,936.7188 350.1406,935.5781 Q350.7656,934.4219 351.8594,933.8125 Q352.9531,933.1875 354.1875,933.1875 Q354.9219,933.1875 355.5625,933.3594 Q356.2188,933.5156 356.7656,933.875 Z " fill="#000000"/><text fill="#000000" font-family="sans-serif" font-size="14" lengthAdjust="spacing" textLength="42" x="368" y="943.7285">Wrong</text><line style="stroke:#181818;stroke-width:0.5;" x1="340" x2="412" y1="954" y2="954"/><line style="stroke:#181818;stroke-width:0.5;" x1="340" x2="412" y1="962" y2="962"/></g><!--MD5=[12743b4aa7b2bf3d8e383437eb99df68]
link Community to User--><g id="link_Community_User"><path codeLine="39" d="M287.0703,66.0918 C287.0703,66.0918 274.92,92.08 269.46,103.78 " fill="none" id="Community-User" style="stroke:#181818;stroke-width:1.0;"/><polygon fill="#181818" points="263.83,115.83,271.2701,109.3768,265.951,111.3022,264.0256,105.9831,263.83,115.83" style="stroke:#181818;stroke-width:1.0;"/><line style="stroke:#181818;stroke-width:1.0;" x1="265.951" x2="269.33" y1="111.3022" y2="104.05"/><polygon fill="#181818" points="292.15,55.22,285.9862,58.9627,287.0703,66.0918,293.2341,62.3491,292.15,55.22" style="stroke:#181818;stroke-width:1.0;"/><text fill="#000000" font-family="sans-serif" font-size="13" lengthAdjust="spacing" textLength="20" x="244.0427" y="105.1266">1..*</text></g><!--MD5=[6cd8e6e9602c3fa64d344d9541acb572]
link Community to AvailableQuestions--><g id="link_Community_AvailableQuestions"><path codeLine="40" d="M314.9089,66.3986 C314.9089,66.3986 343.38,148.72 354.68,181.4 " fill="none" id="Community-AvailableQuestions" style="stroke:#181818;stroke-width:1.0;"/><polygon fill="#181818" points="359.02,193.94,359.8528,184.1264,357.3829,189.2156,352.2938,186.7457,359.02,193.94" style="stroke:#181818;stroke-width:1.0;"/><line style="stroke:#181818;stroke-width:1.0;" x1="357.3829" x2="354.77" y1="189.2156" y2="181.66"/><polygon fill="#181818" points="310.98,55.06,309.1649,62.0389,314.9089,66.3986,316.724,59.4196,310.98,55.06" style="stroke:#181818;stroke-width:1.0;"/></g><!--MD5=[7016372388c7ac2652db8515880aaa11]
reverse link User to Editor--><g id="link_User_Editor"><path codeLine="43" d="M253,184.37 C253,212.74 253,248.71 253,271.79 " fill="none" id="User-backto-Editor" style="stroke:#181818;stroke-width:1.0;"/><polygon fill="none" points="246,184.06,253,164.06,260,184.06,246,184.06" style="stroke:#181818;stroke-width:1.0;"/></g><!--MD5=[60e4945ab784e9eaf709bb3168dd25a4]
reverse link Editor to Reviewer--><g id="link_Editor_Reviewer"><path codeLine="44" d="M269.92,339.1 C275.63,353.31 281.79,368.64 286.69,380.83 " fill="none" id="Editor-backto-Reviewer" style="stroke:#181818;stroke-width:1.0;"/><polygon fill="none" points="263.29,341.39,262.33,320.22,276.28,336.16,263.29,341.39" style="stroke:#181818;stroke-width:1.0;"/></g><!--MD5=[d8a655080454bab67f6091cbff4cee86]
reverse link User to Executor--><g id="link_User_Executor"><path codeLine="45" d="M221.74,179.82 C198.4,208.81 167.28,247.46 147.69,271.79 " fill="none" id="User-backto-Executor" style="stroke:#181818;stroke-width:1.0;"/><polygon fill="none" points="216.44,175.24,234.44,164.06,227.34,184.02,216.44,175.24" style="stroke:#181818;stroke-width:1.0;"/></g><!--MD5=[12c2d56d27338edb90331faec7f87d5c]
link PendingReviewQuestions to Question--><g id="link_PendingReviewQuestions_Question"><path codeLine="47" d="M316.4377,563.7782 C316.4377,563.7782 275.82,604.66 255.48,625.14 " fill="none" id="PendingReviewQuestions-Question" style="stroke:#181818;stroke-width:1.0;"/><polygon fill="#181818" points="246.29,634.39,255.4686,630.8188,249.8118,630.8408,249.7898,625.1839,246.29,634.39" style="stroke:#181818;stroke-width:1.0;"/><line style="stroke:#181818;stroke-width:1.0;" x1="249.8118" x2="255.45" y1="630.8408" y2="625.165"/><polygon fill="#181818" points="324.89,555.26,317.8245,556.7017,316.4377,563.7782,323.5033,562.3365,324.89,555.26" style="stroke:#181818;stroke-width:1.0;"/></g><!--MD5=[3b289939cf5a6bed4409fd9e4e7d7178]
link AvailableQuestions to PendingReviewQuestions--><g id="link_AvailableQuestions_PendingReviewQuestions"><path codeLine="48" d="M372.6995,253.9933 C372.6995,253.9933 388.76,399.35 372,477 C370.72,482.94 368.72,489.01 366.4,494.82 " fill="none" id="AvailableQuestions-PendingReviewQuestions" style="stroke:#181818;stroke-width:1.0;"/><polygon fill="#181818" points="360.99,506.99,368.2953,500.3845,363.0171,502.4194,360.9823,497.1411,360.99,506.99" style="stroke:#181818;stroke-width:1.0;"/><line style="stroke:#181818;stroke-width:1.0;" x1="363.0171" x2="366.27" y1="502.4194" y2="495.115"/><polygon fill="#181818" points="370.96,242.12,367.872,248.6365,372.6995,253.9933,375.7875,247.4768,370.96,242.12" style="stroke:#181818;stroke-width:1.0;"/></g><!--MD5=[3e23c87a985df3c2da55c80a43bfcd45]
link Executor to Evaluation--><g id="link_Executor_Evaluation"><path codeLine="50" d="M121.84,320.22 C116.82,336.48 110.09,358.32 104.75,375.62 " fill="none" id="Executor-to-Evaluation" style="stroke:#181818;stroke-width:1.0;"/><polygon fill="#181818" points="103.15,380.83,109.6448,373.4261,104.6365,376.0561,102.0065,371.0477,103.15,380.83" style="stroke:#181818;stroke-width:1.0;"/><text fill="#000000" font-family="sans-serif" font-size="13" lengthAdjust="spacing" textLength="20" x="82.4197" y="370.1266">0..*</text></g><!--MD5=[7ea0c49f743e358ac875b85df2ad47d3]
link Evaluation to Test--><g id="link_Evaluation_Test"><path codeLine="51" d="M98.6,429.03 C100.91,449.52 104.31,479.56 106.79,501.55 " fill="none" id="Evaluation-to-Test" style="stroke:#181818;stroke-width:1.0;"/><polygon fill="#181818" points="107.37,506.67,110.313,497.2711,106.7974,501.7029,102.3657,498.1873,107.37,506.67" style="stroke:#181818;stroke-width:1.0;"/></g><!--MD5=[a4471ebd030acd5c90145d584608083d]
link Editor to Question--><g id="link_Editor_Question"><path codeLine="53" d="M246.74,320.02 C242.37,336.82 236.67,360.18 233,381 C219.25,458.99 209.59,549.29 203.96,610.69 " fill="none" id="Editor-to-Question" style="stroke:#181818;stroke-width:1.0;stroke-dasharray:7.0,7.0;"/><polygon fill="#181818" points="203.49,615.8,208.2951,607.2028,203.9465,610.8209,200.3285,606.4724,203.49,615.8" style="stroke:#181818;stroke-width:1.0;"/></g><!--MD5=[796801260e32b64433c17f058a688d43]
link Reviewer to PendingReviewQuestions--><g id="link_Reviewer_PendingReviewQuestions"><path codeLine="54" d="M305.66,429.03 C314.29,449.61 326.95,479.81 336.18,501.82 " fill="none" id="Reviewer-to-PendingReviewQuestions" style="stroke:#181818;stroke-width:1.0;stroke-dasharray:7.0,7.0;"/><polygon fill="#181818" points="338.22,506.67,338.414,496.8231,336.2797,502.0618,331.0409,499.9275,338.22,506.67" style="stroke:#181818;stroke-width:1.0;"/><text fill="#000000" font-family="sans-serif" font-size="13" lengthAdjust="spacing" textLength="40" x="327" y="473.4951">Review</text></g><!--MD5=[bb3d97f09542411db1527b071cca8268]
link Test to Question--><g id="link_Test_Question"><path codeLine="56" d="M129.6114,565.6225 C129.6114,565.6225 144.49,591.18 152.17,604.37 " fill="none" id="Test-Question" style="stroke:#181818;stroke-width:1.0;"/><polygon fill="#181818" points="158.92,615.95,157.8449,606.16,156.4027,611.6299,150.9328,610.1877,158.92,615.95" style="stroke:#181818;stroke-width:1.0;"/><line style="stroke:#181818;stroke-width:1.0;" x1="156.4027" x2="152.38" y1="611.6299" y2="604.72"/><polygon fill="#181818" points="123.56,555.26,123.1315,562.4584,129.6114,565.6225,130.0398,558.4241,123.56,555.26" style="stroke:#181818;stroke-width:1.0;"/><text fill="#000000" font-family="sans-serif" font-size="13" lengthAdjust="spacing" textLength="27" x="126.1691" y="605.1438">10..*</text></g><!--MD5=[6eeca14f8a2ed45d1117f4ed4af75b7e]
link Question to Statement--><g id="link_Question_Statement"><path codeLine="57" d="M198,764.11 C198,764.11 198,789.03 198,799.5 " fill="none" id="Question-Statement" style="stroke:#181818;stroke-width:1.0;"/><polygon fill="#181818" points="198,812.82,202,803.82,198,807.82,194,803.82,198,812.82" style="stroke:#181818;stroke-width:1.0;"/><line style="stroke:#181818;stroke-width:1.0;" x1="198" x2="198" y1="807.82" y2="799.82"/><polygon fill="#181818" points="198,752.11,194,758.11,198,764.11,202,758.11,198,752.11" style="stroke:#181818;stroke-width:1.0;"/></g><!--MD5=[6926d5174a3032b1dcc6c5d6f900c16b]
link Question to Answer--><g id="link_Question_Answer"><path codeLine="58" d="M253.7613,754.0143 C253.7613,754.0143 281.67,788.56 293.08,802.68 " fill="none" id="Question-Answer" style="stroke:#181818;stroke-width:1.0;"/><polygon fill="#181818" points="301.31,812.87,298.7655,803.3555,298.1678,808.9807,292.5426,808.383,301.31,812.87" style="stroke:#181818;stroke-width:1.0;"/><line style="stroke:#181818;stroke-width:1.0;" x1="298.1678" x2="293.14" y1="808.9807" y2="802.75"/><polygon fill="#181818" points="246.22,744.68,246.8792,751.8609,253.7613,754.0143,253.1021,746.8334,246.22,744.68" style="stroke:#181818;stroke-width:1.0;"/><text fill="#000000" font-family="sans-serif" font-size="13" lengthAdjust="spacing" textLength="20" x="273.9582" y="802.1768">1..*</text></g><!--MD5=[b1491d38e87214202fddacec717a9c8d]
reverse link Answer to Correct--><g id="link_Answer_Correct"><path codeLine="59" d="M298.48,879.13 C290.9,893.6 282.65,909.36 276.13,921.83 " fill="none" id="Answer-backto-Correct" style="stroke:#181818;stroke-width:1.0;"/><polygon fill="none" points="292.37,875.69,307.85,861.22,304.78,882.18,292.37,875.69" style="stroke:#181818;stroke-width:1.0;"/></g><!--MD5=[c5fa946b130b0916f113c48ddc2b138d]
reverse link Answer to Wrong--><g id="link_Answer_Wrong"><path codeLine="60" d="M341.52,879.13 C349.1,893.6 357.35,909.36 363.87,921.83 " fill="none" id="Answer-backto-Wrong" style="stroke:#181818;stroke-width:1.0;"/><polygon fill="none" points="335.22,882.18,332.15,861.22,347.63,875.69,335.22,882.18" style="stroke:#181818;stroke-width:1.0;"/></g><!--MD5=[98df2f76ab45609c36aa45d6b9c3faee]
link Question to Category--><g id="link_Question_Category"><path codeLine="62" d="M141.4443,743.4826 C141.4443,743.4826 100.35,786 83.68,803.23 " fill="none" id="Question-Category" style="stroke:#181818;stroke-width:1.0;"/><polygon fill="#181818" points="74.41,812.82,83.5407,809.128,77.8846,809.2246,77.788,803.5686,74.41,812.82" style="stroke:#181818;stroke-width:1.0;"/><line style="stroke:#181818;stroke-width:1.0;" x1="77.8846" x2="83.445" y1="809.2246" y2="803.475"/><polygon fill="#181818" points="149.79,734.86,142.7429,736.3894,141.4443,743.4826,148.4913,741.9532,149.79,734.86" style="stroke:#181818;stroke-width:1.0;"/></g><!--MD5=[a5725b0440277e7b298212d4ab098951]
link Category to Category--><g id="link_Category_Category"><path codeLine="63" d="M109.2281,827.1712 C109.2281,827.1712 132,831.46 132,837 C132,842.54 123.03,845.8 110.6,846.8 " fill="none" id="Category-Category" style="stroke:#181818;stroke-width:1.0;"/><polygon fill="#181818" points="97.23,847.04,106.299,850.881,102.2292,846.952,106.1582,842.8822,97.23,847.04" style="stroke:#181818;stroke-width:1.0;"/><line style="stroke:#181818;stroke-width:1.0;" x1="102.2292" x2="110.23" y1="846.952" y2="846.805"/><polygon fill="#181818" points="97.23,826.96,103.1587,831.065,109.2281,827.1712,103.2995,823.0662,97.23,826.96" style="stroke:#181818;stroke-width:1.0;"/><text fill="#000000" font-family="sans-serif" font-size="13" lengthAdjust="spacing" textLength="20" x="104.9967" y="844.8467">0..*</text></g><!--MD5=[ae81ac300bb7feae05390be32c02fe85]
@startuml OpoTestDomain

class Community

class User

class Reviewer

class Editor 

class Executor

class Evaluation

class Category 

class Test

class PendingReviewQuestions

class AvailableQuestions 

class Question {
    date
    reviewed
    type
    public/private
    ...
}

class Statement

class Answer 

class Correct

Class Wrong


Community *- -> "1..*" User
Community *- -> AvailableQuestions


User <|- - Editor
Editor <|- -  Reviewer
User <|- - Executor

PendingReviewQuestions *- -> Question
AvailableQuestions *- -> PendingReviewQuestions

Executor - -> "0..*" Evaluation
Evaluation - -> Test

Editor ..> Question
Reviewer ..> PendingReviewQuestions : Review

Test *- -> "10..*" Question
Question *- ->   Statement
Question *- -> "1..*" Answer
Answer <|- - Correct
Answer <|- - Wrong

Question *- -> Category
Category *- ->"0..*" Category







@end

PlantUML version 1.2022.7(Mon Aug 22 18:01:30 WEST 2022)
(GPL source distribution)
Java Runtime: OpenJDK Runtime Environment
JVM: OpenJDK 64-Bit Server VM
Default Encoding: Cp1252
Language: es
Country: ES
--></g></svg>