<?xml version="1.0" encoding="UTF-8" standalone="no"?><svg xmlns="http://www.w3.org/2000/svg" xmlns:xlink="http://www.w3.org/1999/xlink" contentStyleType="text/css" height="796px" preserveAspectRatio="none" style="width:510px;height:796px;background:#FFFFFF;" version="1.1" viewBox="0 0 510 796" width="510px" zoomAndPan="magnify"><defs/><g><!--MD5=[668d633d11bedc8952753581a2dda3db]
class Community--><g id="elem_Community"><rect codeLine="2" fill="#F1F1F1" height="48" id="Community" rx="2.5" ry="2.5" style="stroke:#181818;stroke-width:0.5;" width="102" x="163.5" y="7"/><ellipse cx="178.5" cy="23" fill="#ADD1B2" rx="11" ry="11" style="stroke:#181818;stroke-width:1.0;"/><path d="M181.2656,18.875 Q181.4219,18.6563 181.6094,18.5469 Q181.7969,18.4375 182.0156,18.4375 Q182.3906,18.4375 182.625,18.7031 Q182.8594,18.9531 182.8594,19.5625 L182.8594,21.0156 Q182.8594,21.625 182.625,21.8906 Q182.3906,22.1563 182.0156,22.1563 Q181.6719,22.1563 181.4688,21.9531 Q181.2656,21.7656 181.1563,21.25 Q181.1094,20.8906 180.9219,20.7031 Q180.5938,20.3281 179.9844,20.1094 Q179.375,19.8906 178.75,19.8906 Q177.9844,19.8906 177.3438,20.2188 Q176.7188,20.5469 176.2188,21.2969 Q175.7344,22.0469 175.7344,23.0781 L175.7344,24.1719 Q175.7344,25.4063 176.625,26.2344 Q177.5156,27.0469 179.1094,27.0469 Q180.0469,27.0469 180.7031,26.7969 Q181.0938,26.6406 181.5156,26.2031 Q181.7813,25.9375 181.9219,25.8594 Q182.0781,25.7813 182.2813,25.7813 Q182.6094,25.7813 182.8594,26.0469 Q183.125,26.2969 183.125,26.6406 Q183.125,26.9844 182.7813,27.3906 Q182.2813,27.9688 181.4844,28.2969 Q180.4063,28.75 179.1094,28.75 Q177.5938,28.75 176.3906,28.125 Q175.4063,27.625 174.7188,26.5625 Q174.0313,25.4844 174.0313,24.2031 L174.0313,23.0469 Q174.0313,21.7188 174.6406,20.5781 Q175.2656,19.4219 176.3594,18.8125 Q177.4531,18.1875 178.6875,18.1875 Q179.4219,18.1875 180.0625,18.3594 Q180.7188,18.5156 181.2656,18.875 Z " fill="#000000"/><text fill="#000000" font-family="sans-serif" font-size="14" lengthAdjust="spacing" textLength="70" x="192.5" y="28.7285">Community</text><line style="stroke:#181818;stroke-width:0.5;" x1="164.5" x2="264.5" y1="39" y2="39"/><line style="stroke:#181818;stroke-width:0.5;" x1="164.5" x2="264.5" y1="47" y2="47"/></g><!--MD5=[3fd616f346a44cd59a91eb10b19e157c]
class User--><g id="elem_User"><rect codeLine="4" fill="#F1F1F1" height="83.2188" id="User" rx="2.5" ry="2.5" style="stroke:#181818;stroke-width:0.5;" width="153" x="138" y="115"/><ellipse cx="195.75" cy="131" fill="#ADD1B2" rx="11" ry="11" style="stroke:#181818;stroke-width:1.0;"/><path d="M198.5156,126.875 Q198.6719,126.6563 198.8594,126.5469 Q199.0469,126.4375 199.2656,126.4375 Q199.6406,126.4375 199.875,126.7031 Q200.1094,126.9531 200.1094,127.5625 L200.1094,129.0156 Q200.1094,129.625 199.875,129.8906 Q199.6406,130.1563 199.2656,130.1563 Q198.9219,130.1563 198.7188,129.9531 Q198.5156,129.7656 198.4063,129.25 Q198.3594,128.8906 198.1719,128.7031 Q197.8438,128.3281 197.2344,128.1094 Q196.625,127.8906 196,127.8906 Q195.2344,127.8906 194.5938,128.2188 Q193.9688,128.5469 193.4688,129.2969 Q192.9844,130.0469 192.9844,131.0781 L192.9844,132.1719 Q192.9844,133.4063 193.875,134.2344 Q194.7656,135.0469 196.3594,135.0469 Q197.2969,135.0469 197.9531,134.7969 Q198.3438,134.6406 198.7656,134.2031 Q199.0313,133.9375 199.1719,133.8594 Q199.3281,133.7813 199.5313,133.7813 Q199.8594,133.7813 200.1094,134.0469 Q200.375,134.2969 200.375,134.6406 Q200.375,134.9844 200.0313,135.3906 Q199.5313,135.9688 198.7344,136.2969 Q197.6563,136.75 196.3594,136.75 Q194.8438,136.75 193.6406,136.125 Q192.6563,135.625 191.9688,134.5625 Q191.2813,133.4844 191.2813,132.2031 L191.2813,131.0469 Q191.2813,129.7188 191.8906,128.5781 Q192.5156,127.4219 193.6094,126.8125 Q194.7031,126.1875 195.9375,126.1875 Q196.6719,126.1875 197.3125,126.3594 Q197.9688,126.5156 198.5156,126.875 Z " fill="#000000"/><text fill="#000000" font-family="sans-serif" font-size="14" lengthAdjust="spacing" textLength="29" x="216.25" y="136.7285">User</text><line style="stroke:#181818;stroke-width:0.5;" x1="139" x2="290" y1="147" y2="147"/><polygon fill="none" points="149,156.3047,153,160.3047,149,164.3047,145,160.3047" style="stroke:#B38D22;stroke-width:1.0;"/><text fill="#000000" font-family="sans-serif" font-size="14" lengthAdjust="spacing" textLength="24" x="158" y="165.5332">role</text><line style="stroke:#181818;stroke-width:0.5;" x1="139" x2="290" y1="172.6094" y2="172.6094"/><polygon fill="#FFFF44" points="149,181.9141,153,185.9141,149,189.9141,145,185.9141" style="stroke:#B38D22;stroke-width:1.0;"/><text fill="#000000" font-family="sans-serif" font-size="14" lengthAdjust="spacing" textLength="127" x="158" y="191.1426">Test composeTest()</text></g><!--MD5=[559db66c208d2736f857be4b8ed380a2]
class Editor--><g id="elem_Editor"><rect codeLine="9" fill="#F1F1F1" height="48" id="Editor" rx="2.5" ry="2.5" style="stroke:#181818;stroke-width:0.5;" width="69" x="7" y="267"/><ellipse cx="22" cy="283" fill="#ADD1B2" rx="11" ry="11" style="stroke:#181818;stroke-width:1.0;"/><path d="M24.7656,278.875 Q24.9219,278.6563 25.1094,278.5469 Q25.2969,278.4375 25.5156,278.4375 Q25.8906,278.4375 26.125,278.7031 Q26.3594,278.9531 26.3594,279.5625 L26.3594,281.0156 Q26.3594,281.625 26.125,281.8906 Q25.8906,282.1563 25.5156,282.1563 Q25.1719,282.1563 24.9688,281.9531 Q24.7656,281.7656 24.6563,281.25 Q24.6094,280.8906 24.4219,280.7031 Q24.0938,280.3281 23.4844,280.1094 Q22.875,279.8906 22.25,279.8906 Q21.4844,279.8906 20.8438,280.2188 Q20.2188,280.5469 19.7188,281.2969 Q19.2344,282.0469 19.2344,283.0781 L19.2344,284.1719 Q19.2344,285.4063 20.125,286.2344 Q21.0156,287.0469 22.6094,287.0469 Q23.5469,287.0469 24.2031,286.7969 Q24.5938,286.6406 25.0156,286.2031 Q25.2813,285.9375 25.4219,285.8594 Q25.5781,285.7813 25.7813,285.7813 Q26.1094,285.7813 26.3594,286.0469 Q26.625,286.2969 26.625,286.6406 Q26.625,286.9844 26.2813,287.3906 Q25.7813,287.9688 24.9844,288.2969 Q23.9063,288.75 22.6094,288.75 Q21.0938,288.75 19.8906,288.125 Q18.9063,287.625 18.2188,286.5625 Q17.5313,285.4844 17.5313,284.2031 L17.5313,283.0469 Q17.5313,281.7188 18.1406,280.5781 Q18.7656,279.4219 19.8594,278.8125 Q20.9531,278.1875 22.1875,278.1875 Q22.9219,278.1875 23.5625,278.3594 Q24.2188,278.5156 24.7656,278.875 Z " fill="#000000"/><text fill="#000000" font-family="sans-serif" font-size="14" lengthAdjust="spacing" textLength="37" x="36" y="288.7285">Editor</text><line style="stroke:#181818;stroke-width:0.5;" x1="8" x2="75" y1="299" y2="299"/><line style="stroke:#181818;stroke-width:0.5;" x1="8" x2="75" y1="307" y2="307"/></g><!--MD5=[e76a510855fdf825c81877c657b1fc23]
class Reviewer--><g id="elem_Reviewer"><rect codeLine="13" fill="#F1F1F1" height="48" id="Reviewer" rx="2.5" ry="2.5" style="stroke:#181818;stroke-width:0.5;" width="90" x="111.5" y="267"/><ellipse cx="126.5" cy="283" fill="#ADD1B2" rx="11" ry="11" style="stroke:#181818;stroke-width:1.0;"/><path d="M129.2656,278.875 Q129.4219,278.6563 129.6094,278.5469 Q129.7969,278.4375 130.0156,278.4375 Q130.3906,278.4375 130.625,278.7031 Q130.8594,278.9531 130.8594,279.5625 L130.8594,281.0156 Q130.8594,281.625 130.625,281.8906 Q130.3906,282.1563 130.0156,282.1563 Q129.6719,282.1563 129.4688,281.9531 Q129.2656,281.7656 129.1563,281.25 Q129.1094,280.8906 128.9219,280.7031 Q128.5938,280.3281 127.9844,280.1094 Q127.375,279.8906 126.75,279.8906 Q125.9844,279.8906 125.3438,280.2188 Q124.7188,280.5469 124.2188,281.2969 Q123.7344,282.0469 123.7344,283.0781 L123.7344,284.1719 Q123.7344,285.4063 124.625,286.2344 Q125.5156,287.0469 127.1094,287.0469 Q128.0469,287.0469 128.7031,286.7969 Q129.0938,286.6406 129.5156,286.2031 Q129.7813,285.9375 129.9219,285.8594 Q130.0781,285.7813 130.2813,285.7813 Q130.6094,285.7813 130.8594,286.0469 Q131.125,286.2969 131.125,286.6406 Q131.125,286.9844 130.7813,287.3906 Q130.2813,287.9688 129.4844,288.2969 Q128.4063,288.75 127.1094,288.75 Q125.5938,288.75 124.3906,288.125 Q123.4063,287.625 122.7188,286.5625 Q122.0313,285.4844 122.0313,284.2031 L122.0313,283.0469 Q122.0313,281.7188 122.6406,280.5781 Q123.2656,279.4219 124.3594,278.8125 Q125.4531,278.1875 126.6875,278.1875 Q127.4219,278.1875 128.0625,278.3594 Q128.7188,278.5156 129.2656,278.875 Z " fill="#000000"/><text fill="#000000" font-family="sans-serif" font-size="14" lengthAdjust="spacing" textLength="58" x="140.5" y="288.7285">Reviewer</text><line style="stroke:#181818;stroke-width:0.5;" x1="112.5" x2="200.5" y1="299" y2="299"/><line style="stroke:#181818;stroke-width:0.5;" x1="112.5" x2="200.5" y1="307" y2="307"/></g><!--MD5=[2cb47ba637a0d19583e6199456f6ad0b]
class Player--><g id="elem_Player"><rect codeLine="17" fill="#F1F1F1" height="48" id="Player" rx="2.5" ry="2.5" style="stroke:#181818;stroke-width:0.5;" width="72" x="236.5" y="267"/><ellipse cx="251.5" cy="283" fill="#ADD1B2" rx="11" ry="11" style="stroke:#181818;stroke-width:1.0;"/><path d="M254.2656,278.875 Q254.4219,278.6563 254.6094,278.5469 Q254.7969,278.4375 255.0156,278.4375 Q255.3906,278.4375 255.625,278.7031 Q255.8594,278.9531 255.8594,279.5625 L255.8594,281.0156 Q255.8594,281.625 255.625,281.8906 Q255.3906,282.1563 255.0156,282.1563 Q254.6719,282.1563 254.4688,281.9531 Q254.2656,281.7656 254.1563,281.25 Q254.1094,280.8906 253.9219,280.7031 Q253.5938,280.3281 252.9844,280.1094 Q252.375,279.8906 251.75,279.8906 Q250.9844,279.8906 250.3438,280.2188 Q249.7188,280.5469 249.2188,281.2969 Q248.7344,282.0469 248.7344,283.0781 L248.7344,284.1719 Q248.7344,285.4063 249.625,286.2344 Q250.5156,287.0469 252.1094,287.0469 Q253.0469,287.0469 253.7031,286.7969 Q254.0938,286.6406 254.5156,286.2031 Q254.7813,285.9375 254.9219,285.8594 Q255.0781,285.7813 255.2813,285.7813 Q255.6094,285.7813 255.8594,286.0469 Q256.125,286.2969 256.125,286.6406 Q256.125,286.9844 255.7813,287.3906 Q255.2813,287.9688 254.4844,288.2969 Q253.4063,288.75 252.1094,288.75 Q250.5938,288.75 249.3906,288.125 Q248.4063,287.625 247.7188,286.5625 Q247.0313,285.4844 247.0313,284.2031 L247.0313,283.0469 Q247.0313,281.7188 247.6406,280.5781 Q248.2656,279.4219 249.3594,278.8125 Q250.4531,278.1875 251.6875,278.1875 Q252.4219,278.1875 253.0625,278.3594 Q253.7188,278.5156 254.2656,278.875 Z " fill="#000000"/><text fill="#000000" font-family="sans-serif" font-size="14" lengthAdjust="spacing" textLength="40" x="265.5" y="288.7285">Player</text><line style="stroke:#181818;stroke-width:0.5;" x1="237.5" x2="307.5" y1="299" y2="299"/><line style="stroke:#181818;stroke-width:0.5;" x1="237.5" x2="307.5" y1="307" y2="307"/></g><!--MD5=[a96594a83e2ecdc78cbf17c2ddf01934]
class Category--><g id="elem_Category"><rect codeLine="21" fill="#F1F1F1" height="65.6094" id="Category" rx="2.5" ry="2.5" style="stroke:#181818;stroke-width:0.5;" width="90" x="294.5" y="615"/><ellipse cx="309.5" cy="631" fill="#EB937F" rx="11" ry="11" style="stroke:#181818;stroke-width:1.0;"/><path d="M308.3594,631.7969 L308.3594,634.2969 L312.6875,634.2969 L312.6875,633.375 Q312.6875,632.7656 312.9219,632.5 Q313.1719,632.2344 313.5469,632.2344 Q313.9219,632.2344 314.1563,632.5 Q314.3906,632.7656 314.3906,633.375 L314.3906,636 L306.3906,636 Q305.7656,636 305.5,635.7656 Q305.25,635.5313 305.25,635.1406 Q305.25,634.7656 305.5156,634.5313 Q305.7813,634.2969 306.3906,634.2969 L306.6563,634.2969 L306.6563,627.6406 L306.3906,627.6406 Q305.7656,627.6406 305.5,627.4063 Q305.25,627.1719 305.25,626.7813 Q305.25,626.4063 305.5,626.1719 Q305.7656,625.9375 306.3906,625.9375 L314.0156,625.9375 L314.0156,628.5313 Q314.0156,629.1406 313.7813,629.4063 Q313.5625,629.6563 313.1719,629.6563 Q312.7969,629.6563 312.5625,629.4063 Q312.3281,629.1406 312.3281,628.5313 L312.3281,627.6406 L308.3594,627.6406 L308.3594,630.0938 L309.8438,630.0938 Q309.8438,629.4375 309.9688,629.25 Q310.2344,628.8438 310.7031,628.8438 Q311.0781,628.8438 311.3125,629.1094 Q311.5469,629.3594 311.5469,629.9688 L311.5469,631.9375 Q311.5469,632.4844 311.4219,632.6719 Q311.1563,633.0625 310.7031,633.0625 Q310.2344,633.0625 309.9688,632.6563 Q309.8438,632.4688 309.8438,631.7969 L308.3594,631.7969 Z " fill="#000000"/><text fill="#000000" font-family="sans-serif" font-size="14" lengthAdjust="spacing" textLength="58" x="323.5" y="636.7285">Category</text><line style="stroke:#181818;stroke-width:0.5;" x1="295.5" x2="383.5" y1="647" y2="647"/><line style="stroke:#181818;stroke-width:0.5;" x1="295.5" x2="383.5" y1="655" y2="655"/><text fill="#000000" font-family="sans-serif" font-size="14" lengthAdjust="spacing" textLength="50" x="300.5" y="673.5332">create()</text></g><!--MD5=[9c1df00e5aaf042f20970631c477ed7b]
class Subcategory--><g id="elem_Subcategory"><rect codeLine="25" fill="#F1F1F1" height="48" id="Subcategory" rx="2.5" ry="2.5" style="stroke:#181818;stroke-width:0.5;" width="112" x="283.5" y="741"/><ellipse cx="298.5" cy="757" fill="#EB937F" rx="11" ry="11" style="stroke:#181818;stroke-width:1.0;"/><path d="M297.3594,757.7969 L297.3594,760.2969 L301.6875,760.2969 L301.6875,759.375 Q301.6875,758.7656 301.9219,758.5 Q302.1719,758.2344 302.5469,758.2344 Q302.9219,758.2344 303.1563,758.5 Q303.3906,758.7656 303.3906,759.375 L303.3906,762 L295.3906,762 Q294.7656,762 294.5,761.7656 Q294.25,761.5313 294.25,761.1406 Q294.25,760.7656 294.5156,760.5313 Q294.7813,760.2969 295.3906,760.2969 L295.6563,760.2969 L295.6563,753.6406 L295.3906,753.6406 Q294.7656,753.6406 294.5,753.4063 Q294.25,753.1719 294.25,752.7813 Q294.25,752.4063 294.5,752.1719 Q294.7656,751.9375 295.3906,751.9375 L303.0156,751.9375 L303.0156,754.5313 Q303.0156,755.1406 302.7813,755.4063 Q302.5625,755.6563 302.1719,755.6563 Q301.7969,755.6563 301.5625,755.4063 Q301.3281,755.1406 301.3281,754.5313 L301.3281,753.6406 L297.3594,753.6406 L297.3594,756.0938 L298.8438,756.0938 Q298.8438,755.4375 298.9688,755.25 Q299.2344,754.8438 299.7031,754.8438 Q300.0781,754.8438 300.3125,755.1094 Q300.5469,755.3594 300.5469,755.9688 L300.5469,757.9375 Q300.5469,758.4844 300.4219,758.6719 Q300.1563,759.0625 299.7031,759.0625 Q299.2344,759.0625 298.9688,758.6563 Q298.8438,758.4688 298.8438,757.7969 L297.3594,757.7969 Z " fill="#000000"/><text fill="#000000" font-family="sans-serif" font-size="14" lengthAdjust="spacing" textLength="80" x="312.5" y="762.7285">Subcategory</text><line style="stroke:#181818;stroke-width:0.5;" x1="284.5" x2="394.5" y1="773" y2="773"/><line style="stroke:#181818;stroke-width:0.5;" x1="284.5" x2="394.5" y1="781" y2="781"/></g><!--MD5=[df38be88ccee13e832d6fafd6288a4ca]
class Test--><g id="elem_Test"><rect codeLine="29" fill="#F1F1F1" height="65.6094" id="Test" rx="2.5" ry="2.5" style="stroke:#181818;stroke-width:0.5;" width="113" x="344" y="258"/><ellipse cx="382.85" cy="274" fill="#ADD1B2" rx="11" ry="11" style="stroke:#181818;stroke-width:1.0;"/><path d="M385.6156,269.875 Q385.7719,269.6563 385.9594,269.5469 Q386.1469,269.4375 386.3656,269.4375 Q386.7406,269.4375 386.975,269.7031 Q387.2094,269.9531 387.2094,270.5625 L387.2094,272.0156 Q387.2094,272.625 386.975,272.8906 Q386.7406,273.1563 386.3656,273.1563 Q386.0219,273.1563 385.8188,272.9531 Q385.6156,272.7656 385.5063,272.25 Q385.4594,271.8906 385.2719,271.7031 Q384.9438,271.3281 384.3344,271.1094 Q383.725,270.8906 383.1,270.8906 Q382.3344,270.8906 381.6938,271.2188 Q381.0688,271.5469 380.5688,272.2969 Q380.0844,273.0469 380.0844,274.0781 L380.0844,275.1719 Q380.0844,276.4063 380.975,277.2344 Q381.8656,278.0469 383.4594,278.0469 Q384.3969,278.0469 385.0531,277.7969 Q385.4438,277.6406 385.8656,277.2031 Q386.1313,276.9375 386.2719,276.8594 Q386.4281,276.7813 386.6313,276.7813 Q386.9594,276.7813 387.2094,277.0469 Q387.475,277.2969 387.475,277.6406 Q387.475,277.9844 387.1313,278.3906 Q386.6313,278.9688 385.8344,279.2969 Q384.7563,279.75 383.4594,279.75 Q381.9438,279.75 380.7406,279.125 Q379.7563,278.625 379.0688,277.5625 Q378.3813,276.4844 378.3813,275.2031 L378.3813,274.0469 Q378.3813,272.7188 378.9906,271.5781 Q379.6156,270.4219 380.7094,269.8125 Q381.8031,269.1875 383.0375,269.1875 Q383.7719,269.1875 384.4125,269.3594 Q385.0688,269.5156 385.6156,269.875 Z " fill="#000000"/><text fill="#000000" font-family="sans-serif" font-size="14" lengthAdjust="spacing" textLength="28" x="402.15" y="279.7285">Test</text><line style="stroke:#181818;stroke-width:0.5;" x1="345" x2="456" y1="290" y2="290"/><polygon fill="none" points="355,299.3047,359,303.3047,355,307.3047,351,303.3047" style="stroke:#B38D22;stroke-width:1.0;"/><text fill="#000000" font-family="sans-serif" font-size="14" lengthAdjust="spacing" textLength="87" x="364" y="308.5332">List questions</text><line style="stroke:#181818;stroke-width:0.5;" x1="345" x2="456" y1="315.6094" y2="315.6094"/></g><!--MD5=[fc7123defb831ecdd44b2d9bcef6cceb]
class Question--><g id="elem_Question"><rect codeLine="33" fill="#F1F1F1" height="171.2656" id="Question" rx="2.5" ry="2.5" style="stroke:#181818;stroke-width:0.5;" width="107" x="347" y="384"/><ellipse cx="370.1" cy="400" fill="#ADD1B2" rx="11" ry="11" style="stroke:#181818;stroke-width:1.0;"/><path d="M372.8656,395.875 Q373.0219,395.6563 373.2094,395.5469 Q373.3969,395.4375 373.6156,395.4375 Q373.9906,395.4375 374.225,395.7031 Q374.4594,395.9531 374.4594,396.5625 L374.4594,398.0156 Q374.4594,398.625 374.225,398.8906 Q373.9906,399.1563 373.6156,399.1563 Q373.2719,399.1563 373.0688,398.9531 Q372.8656,398.7656 372.7563,398.25 Q372.7094,397.8906 372.5219,397.7031 Q372.1938,397.3281 371.5844,397.1094 Q370.975,396.8906 370.35,396.8906 Q369.5844,396.8906 368.9438,397.2188 Q368.3188,397.5469 367.8188,398.2969 Q367.3344,399.0469 367.3344,400.0781 L367.3344,401.1719 Q367.3344,402.4063 368.225,403.2344 Q369.1156,404.0469 370.7094,404.0469 Q371.6469,404.0469 372.3031,403.7969 Q372.6938,403.6406 373.1156,403.2031 Q373.3813,402.9375 373.5219,402.8594 Q373.6781,402.7813 373.8813,402.7813 Q374.2094,402.7813 374.4594,403.0469 Q374.725,403.2969 374.725,403.6406 Q374.725,403.9844 374.3813,404.3906 Q373.8813,404.9688 373.0844,405.2969 Q372.0063,405.75 370.7094,405.75 Q369.1938,405.75 367.9906,405.125 Q367.0063,404.625 366.3188,403.5625 Q365.6313,402.4844 365.6313,401.2031 L365.6313,400.0469 Q365.6313,398.7188 366.2406,397.5781 Q366.8656,396.4219 367.9594,395.8125 Q369.0531,395.1875 370.2875,395.1875 Q371.0219,395.1875 371.6625,395.3594 Q372.3188,395.5156 372.8656,395.875 Z " fill="#000000"/><text fill="#000000" font-family="sans-serif" font-size="14" lengthAdjust="spacing" textLength="57" x="385.9" y="405.7285">Question</text><line style="stroke:#181818;stroke-width:0.5;" x1="348" x2="453" y1="416" y2="416"/><polygon fill="none" points="358,425.3047,362,429.3047,358,433.3047,354,429.3047" style="stroke:#B38D22;stroke-width:1.0;"/><text fill="#000000" font-family="sans-serif" font-size="14" lengthAdjust="spacing" textLength="45" x="367" y="434.5332">creator</text><polygon fill="none" points="358,442.9141,362,446.9141,358,450.9141,354,446.9141" style="stroke:#B38D22;stroke-width:1.0;"/><text fill="#000000" font-family="sans-serif" font-size="14" lengthAdjust="spacing" textLength="81" x="367" y="452.1426">creationDate</text><polygon fill="none" points="358,460.5234,362,464.5234,358,468.5234,354,464.5234" style="stroke:#B38D22;stroke-width:1.0;"/><text fill="#000000" font-family="sans-serif" font-size="14" lengthAdjust="spacing" textLength="53" x="367" y="469.752">reviewer</text><polygon fill="none" points="358,478.1328,362,482.1328,358,486.1328,354,482.1328" style="stroke:#B38D22;stroke-width:1.0;"/><text fill="#000000" font-family="sans-serif" font-size="14" lengthAdjust="spacing" textLength="70" x="367" y="487.3613">reviewDate</text><text fill="#000000" font-family="sans-serif" font-size="14" lengthAdjust="spacing" textLength="4" x="367" y="504.9707"> </text><polygon fill="none" points="358,513.3516,362,517.3516,358,521.3516,354,517.3516" style="stroke:#B38D22;stroke-width:1.0;"/><text fill="#000000" font-family="sans-serif" font-size="14" lengthAdjust="spacing" textLength="62" x="367" y="522.5801">statement</text><polygon fill="none" points="358,530.9609,362,534.9609,358,538.9609,354,534.9609" style="stroke:#B38D22;stroke-width:1.0;"/><text fill="#000000" font-family="sans-serif" font-size="14" lengthAdjust="spacing" textLength="78" x="367" y="540.1895">List answers</text><line style="stroke:#181818;stroke-width:0.5;" x1="348" x2="453" y1="547.2656" y2="547.2656"/></g><!--MD5=[f9fadfa5a66b7e5a67b370cd443ffe52]
class Answer--><g id="elem_Answer"><rect codeLine="43" fill="#F1F1F1" height="65.6094" id="Answer" rx="2.5" ry="2.5" style="stroke:#181818;stroke-width:0.5;" width="83" x="420" y="615"/><ellipse cx="437.25" cy="631" fill="#ADD1B2" rx="11" ry="11" style="stroke:#181818;stroke-width:1.0;"/><path d="M440.0156,626.875 Q440.1719,626.6563 440.3594,626.5469 Q440.5469,626.4375 440.7656,626.4375 Q441.1406,626.4375 441.375,626.7031 Q441.6094,626.9531 441.6094,627.5625 L441.6094,629.0156 Q441.6094,629.625 441.375,629.8906 Q441.1406,630.1563 440.7656,630.1563 Q440.4219,630.1563 440.2188,629.9531 Q440.0156,629.7656 439.9063,629.25 Q439.8594,628.8906 439.6719,628.7031 Q439.3438,628.3281 438.7344,628.1094 Q438.125,627.8906 437.5,627.8906 Q436.7344,627.8906 436.0938,628.2188 Q435.4688,628.5469 434.9688,629.2969 Q434.4844,630.0469 434.4844,631.0781 L434.4844,632.1719 Q434.4844,633.4063 435.375,634.2344 Q436.2656,635.0469 437.8594,635.0469 Q438.7969,635.0469 439.4531,634.7969 Q439.8438,634.6406 440.2656,634.2031 Q440.5313,633.9375 440.6719,633.8594 Q440.8281,633.7813 441.0313,633.7813 Q441.3594,633.7813 441.6094,634.0469 Q441.875,634.2969 441.875,634.6406 Q441.875,634.9844 441.5313,635.3906 Q441.0313,635.9688 440.2344,636.2969 Q439.1563,636.75 437.8594,636.75 Q436.3438,636.75 435.1406,636.125 Q434.1563,635.625 433.4688,634.5625 Q432.7813,633.4844 432.7813,632.2031 L432.7813,631.0469 Q432.7813,629.7188 433.3906,628.5781 Q434.0156,627.4219 435.1094,626.8125 Q436.2031,626.1875 437.4375,626.1875 Q438.1719,626.1875 438.8125,626.3594 Q439.4688,626.5156 440.0156,626.875 Z " fill="#000000"/><text fill="#000000" font-family="sans-serif" font-size="14" lengthAdjust="spacing" textLength="46" x="451.75" y="636.7285">Answer</text><line style="stroke:#181818;stroke-width:0.5;" x1="421" x2="502" y1="647" y2="647"/><polygon fill="none" points="431,656.3047,435,660.3047,431,664.3047,427,660.3047" style="stroke:#B38D22;stroke-width:1.0;"/><text fill="#000000" font-family="sans-serif" font-size="14" lengthAdjust="spacing" textLength="57" x="440" y="665.5332">isCorrect</text><line style="stroke:#181818;stroke-width:0.5;" x1="421" x2="502" y1="672.6094" y2="672.6094"/></g><!--MD5=[8235d596e40eaa310e25cb7e3d92ec72]
reverse link Community to User--><g id="link_Community_User"><path codeLine="47" d="M214.5,68.39 C214.5,82.99 214.5,99.87 214.5,114.87 " fill="none" id="Community-backto-User" style="stroke:#181818;stroke-width:1.0;"/><polygon fill="#181818" points="214.5,55.23,210.5,61.23,214.5,67.23,218.5,61.23,214.5,55.23" style="stroke:#181818;stroke-width:1.0;"/><text fill="#000000" font-family="sans-serif" font-size="13" lengthAdjust="spacing" textLength="20" x="192.8438" y="104.1561">1..*</text></g><!--MD5=[7016372388c7ac2652db8515880aaa11]
reverse link User to Editor--><g id="link_User_Editor"><path codeLine="49" d="M145.22,210.56 C119.68,230.12 92.05,251.28 71.74,266.84 " fill="none" id="User-backto-Editor" style="stroke:#181818;stroke-width:1.0;"/><polygon fill="none" points="141.05,204.94,161.18,198.34,149.56,216.05,141.05,204.94" style="stroke:#181818;stroke-width:1.0;"/></g><!--MD5=[4902e3a4a9d2276f7686a6b1652e1669]
reverse link User to Reviewer--><g id="link_User_Reviewer"><path codeLine="50" d="M188.58,216.72 C180.81,234.47 172.74,252.9 166.64,266.84 " fill="none" id="User-backto-Reviewer" style="stroke:#181818;stroke-width:1.0;"/><polygon fill="none" points="182.19,213.85,196.62,198.34,195.02,219.46,182.19,213.85" style="stroke:#181818;stroke-width:1.0;"/></g><!--MD5=[702f68b2ad22fef5191ac7472ca929ab]
reverse link User to Player--><g id="link_User_Player"><path codeLine="51" d="M240.42,216.72 C248.19,234.47 256.26,252.9 262.36,266.84 " fill="none" id="User-backto-Player" style="stroke:#181818;stroke-width:1.0;"/><polygon fill="none" points="233.98,219.46,232.38,198.34,246.81,213.85,233.98,219.46" style="stroke:#181818;stroke-width:1.0;"/></g><!--MD5=[85d1918dc023e693545104f3b89c7c67]
reverse link User to Test--><g id="link_User_Test"><path codeLine="53" d="M282.19,205.72 C306.53,223.06 333.38,242.19 355.34,257.83 " fill="none" id="User-backto-Test" style="stroke:#181818;stroke-width:1.0;"/><polygon fill="none" points="271.57,198.15,274.1352,204.8894,281.3428,205.1136,278.7776,198.3742,271.57,198.15" style="stroke:#181818;stroke-width:1.0;"/></g><!--MD5=[bb3d97f09542411db1527b071cca8268]
link Test to Question--><g id="link_Test_Question"><path codeLine="55" d="M400.5,336.37 C400.5,336.37 400.5,359.28 400.5,370.76 " fill="none" id="Test-Question" style="stroke:#181818;stroke-width:1.0;"/><polygon fill="#181818" points="400.5,383.76,404.5,374.76,400.5,378.76,396.5,374.76,400.5,383.76" style="stroke:#181818;stroke-width:1.0;"/><line style="stroke:#181818;stroke-width:1.0;" x1="400.5" x2="400.5" y1="378.76" y2="370.76"/><polygon fill="#181818" points="400.5,324.37,396.5,330.37,400.5,336.37,404.5,330.37,400.5,324.37" style="stroke:#181818;stroke-width:1.0;"/><text fill="#000000" font-family="sans-serif" font-size="13" lengthAdjust="spacing" textLength="20" x="379.6406" y="373.203">1..*</text></g><!--MD5=[6926d5174a3032b1dcc6c5d6f900c16b]
link Question to Answer--><g id="link_Question_Answer"><path codeLine="56" d="M433.6672,566.4727 C433.6672,566.4727 442.34,591.55 446.04,602.28 " fill="none" id="Question-Answer" style="stroke:#181818;stroke-width:1.0;"/><polygon fill="#181818" points="450.35,614.74,451.1965,604.9276,448.7195,610.0133,443.6338,607.5363,450.35,614.74" style="stroke:#181818;stroke-width:1.0;"/><line style="stroke:#181818;stroke-width:1.0;" x1="448.7195" x2="446.105" y1="610.0133" y2="602.455"/><polygon fill="#181818" points="429.75,555.13,427.9277,562.1071,433.6672,566.4727,435.4895,559.4956,429.75,555.13" style="stroke:#181818;stroke-width:1.0;"/><text fill="#000000" font-family="sans-serif" font-size="13" lengthAdjust="spacing" textLength="20" x="426.1861" y="604.1851">1..*</text></g><!--MD5=[98df2f76ab45609c36aa45d6b9c3faee]
link Question to Category--><g id="link_Question_Category"><path codeLine="58" d="M367.3328,566.4727 C367.3328,566.4727 358.66,591.55 354.96,602.28 " fill="none" id="Question-Category" style="stroke:#181818;stroke-width:1.0;"/><polygon fill="#181818" points="350.65,614.74,357.3662,607.5363,352.2805,610.0133,349.8035,604.9276,350.65,614.74" style="stroke:#181818;stroke-width:1.0;"/><line style="stroke:#181818;stroke-width:1.0;" x1="352.2805" x2="354.895" y1="610.0133" y2="602.455"/><polygon fill="#181818" points="371.25,555.13,365.5105,559.4956,367.3328,566.4727,373.0723,562.1071,371.25,555.13" style="stroke:#181818;stroke-width:1.0;"/></g><!--MD5=[74baf885d61ec4386e3ee7603dbfa36d]
link Category to Subcategory--><g id="link_Category_Subcategory"><path codeLine="59" d="M339.5,693.03 C339.5,693.03 339.5,717 339.5,727.66 " fill="none" id="Category-Subcategory" style="stroke:#181818;stroke-width:1.0;"/><polygon fill="#181818" points="339.5,740.89,343.5,731.89,339.5,735.89,335.5,731.89,339.5,740.89" style="stroke:#181818;stroke-width:1.0;"/><line style="stroke:#181818;stroke-width:1.0;" x1="339.5" x2="339.5" y1="735.89" y2="727.89"/><polygon fill="#181818" points="339.5,681.03,335.5,687.03,339.5,693.03,343.5,687.03,339.5,681.03" style="stroke:#181818;stroke-width:1.0;"/><text fill="#000000" font-family="sans-serif" font-size="13" lengthAdjust="spacing" textLength="20" x="316.9375" y="730.202">0..*</text></g><!--MD5=[0679d54fdfb7f58cfca592e33c4b0aba]
@startuml OpoTestDomain

class Community {}

class User {
    #role
    #Test composeTest()
}

class Editor {

}

class Reviewer {

}

class Player {

}

enum Category {
    create()
}

enum Subcategory {

}

class Test {
    #List questions
}

class Question {
    #creator
    #creationDate
    #reviewer
    #reviewDate

    #statement
    #List answers

}
class Answer {
    # isCorrect
}

Community *- - "1..*" User

User <|- - Editor
User <|- -  Reviewer
User <|- - Player

User o- - Test

Test *- -> "1..*" Question
Question *- -> "1..*" Answer

Question *- -> Category
Category *- ->"0..*" Subcategory




@end

PlantUML version 1.2022.7(Mon Aug 22 18:01:30 WEST 2022)
(GPL source distribution)
Java Runtime: OpenJDK Runtime Environment
JVM: OpenJDK 64-Bit Server VM
Default Encoding: Cp1252
Language: es
Country: ES
--></g></svg>