<?xml version="1.0" encoding="UTF-8" standalone="no"?><svg xmlns="http://www.w3.org/2000/svg" xmlns:xlink="http://www.w3.org/1999/xlink" contentStyleType="text/css" height="972px" preserveAspectRatio="none" style="width:821px;height:972px;background:#FFFFFF;" version="1.1" viewBox="0 0 821 972" width="821px" zoomAndPan="magnify"><defs/><g><!--MD5=[668d633d11bedc8952753581a2dda3db]
class Community--><g id="elem_Community"><rect codeLine="2" fill="#F1F1F1" height="48" id="Community" rx="2.5" ry="2.5" style="stroke:#181818;stroke-width:0.5;" width="102" x="275.08" y="7"/><ellipse cx="290.08" cy="23" fill="#ADD1B2" rx="11" ry="11" style="stroke:#181818;stroke-width:1.0;"/><path d="M292.8456,18.875 Q293.0019,18.6563 293.1894,18.5469 Q293.3769,18.4375 293.5956,18.4375 Q293.9706,18.4375 294.205,18.7031 Q294.4394,18.9531 294.4394,19.5625 L294.4394,21.0156 Q294.4394,21.625 294.205,21.8906 Q293.9706,22.1563 293.5956,22.1563 Q293.2519,22.1563 293.0488,21.9531 Q292.8456,21.7656 292.7363,21.25 Q292.6894,20.8906 292.5019,20.7031 Q292.1738,20.3281 291.5644,20.1094 Q290.955,19.8906 290.33,19.8906 Q289.5644,19.8906 288.9238,20.2188 Q288.2988,20.5469 287.7988,21.2969 Q287.3144,22.0469 287.3144,23.0781 L287.3144,24.1719 Q287.3144,25.4063 288.205,26.2344 Q289.0956,27.0469 290.6894,27.0469 Q291.6269,27.0469 292.2831,26.7969 Q292.6738,26.6406 293.0956,26.2031 Q293.3613,25.9375 293.5019,25.8594 Q293.6581,25.7813 293.8613,25.7813 Q294.1894,25.7813 294.4394,26.0469 Q294.705,26.2969 294.705,26.6406 Q294.705,26.9844 294.3613,27.3906 Q293.8613,27.9688 293.0644,28.2969 Q291.9863,28.75 290.6894,28.75 Q289.1738,28.75 287.9706,28.125 Q286.9863,27.625 286.2988,26.5625 Q285.6113,25.4844 285.6113,24.2031 L285.6113,23.0469 Q285.6113,21.7188 286.2206,20.5781 Q286.8456,19.4219 287.9394,18.8125 Q289.0331,18.1875 290.2675,18.1875 Q291.0019,18.1875 291.6425,18.3594 Q292.2988,18.5156 292.8456,18.875 Z " fill="#000000"/><text fill="#000000" font-family="sans-serif" font-size="14" lengthAdjust="spacing" textLength="70" x="304.08" y="28.7285">Community</text><line style="stroke:#181818;stroke-width:0.5;" x1="276.08" x2="376.08" y1="39" y2="39"/><line style="stroke:#181818;stroke-width:0.5;" x1="276.08" x2="376.08" y1="47" y2="47"/></g><!--MD5=[3fd616f346a44cd59a91eb10b19e157c]
class User--><g id="elem_User"><rect codeLine="4" fill="#F1F1F1" height="48" id="User" rx="2.5" ry="2.5" style="stroke:#181818;stroke-width:0.5;" width="61" x="295.58" y="116"/><ellipse cx="310.58" cy="132" fill="#ADD1B2" rx="11" ry="11" style="stroke:#181818;stroke-width:1.0;"/><path d="M313.3456,127.875 Q313.5019,127.6563 313.6894,127.5469 Q313.8769,127.4375 314.0956,127.4375 Q314.4706,127.4375 314.705,127.7031 Q314.9394,127.9531 314.9394,128.5625 L314.9394,130.0156 Q314.9394,130.625 314.705,130.8906 Q314.4706,131.1563 314.0956,131.1563 Q313.7519,131.1563 313.5488,130.9531 Q313.3456,130.7656 313.2363,130.25 Q313.1894,129.8906 313.0019,129.7031 Q312.6738,129.3281 312.0644,129.1094 Q311.455,128.8906 310.83,128.8906 Q310.0644,128.8906 309.4238,129.2188 Q308.7988,129.5469 308.2988,130.2969 Q307.8144,131.0469 307.8144,132.0781 L307.8144,133.1719 Q307.8144,134.4063 308.705,135.2344 Q309.5956,136.0469 311.1894,136.0469 Q312.1269,136.0469 312.7831,135.7969 Q313.1738,135.6406 313.5956,135.2031 Q313.8613,134.9375 314.0019,134.8594 Q314.1581,134.7813 314.3613,134.7813 Q314.6894,134.7813 314.9394,135.0469 Q315.205,135.2969 315.205,135.6406 Q315.205,135.9844 314.8613,136.3906 Q314.3613,136.9688 313.5644,137.2969 Q312.4863,137.75 311.1894,137.75 Q309.6738,137.75 308.4706,137.125 Q307.4863,136.625 306.7988,135.5625 Q306.1113,134.4844 306.1113,133.2031 L306.1113,132.0469 Q306.1113,130.7188 306.7206,129.5781 Q307.3456,128.4219 308.4394,127.8125 Q309.5331,127.1875 310.7675,127.1875 Q311.5019,127.1875 312.1425,127.3594 Q312.7988,127.5156 313.3456,127.875 Z " fill="#000000"/><text fill="#000000" font-family="sans-serif" font-size="14" lengthAdjust="spacing" textLength="29" x="324.58" y="137.7285">User</text><line style="stroke:#181818;stroke-width:0.5;" x1="296.58" x2="355.58" y1="148" y2="148"/><line style="stroke:#181818;stroke-width:0.5;" x1="296.58" x2="355.58" y1="156" y2="156"/></g><!--MD5=[e76a510855fdf825c81877c657b1fc23]
class Reviewer--><g id="elem_Reviewer"><rect codeLine="6" fill="#F1F1F1" height="48" id="Reviewer" rx="2.5" ry="2.5" style="stroke:#181818;stroke-width:0.5;" width="90" x="7.08" y="465"/><ellipse cx="22.08" cy="481" fill="#ADD1B2" rx="11" ry="11" style="stroke:#181818;stroke-width:1.0;"/><path d="M24.8456,476.875 Q25.0019,476.6563 25.1894,476.5469 Q25.3769,476.4375 25.5956,476.4375 Q25.9706,476.4375 26.205,476.7031 Q26.4394,476.9531 26.4394,477.5625 L26.4394,479.0156 Q26.4394,479.625 26.205,479.8906 Q25.9706,480.1563 25.5956,480.1563 Q25.2519,480.1563 25.0488,479.9531 Q24.8456,479.7656 24.7363,479.25 Q24.6894,478.8906 24.5019,478.7031 Q24.1738,478.3281 23.5644,478.1094 Q22.955,477.8906 22.33,477.8906 Q21.5644,477.8906 20.9238,478.2188 Q20.2988,478.5469 19.7988,479.2969 Q19.3144,480.0469 19.3144,481.0781 L19.3144,482.1719 Q19.3144,483.4063 20.205,484.2344 Q21.0956,485.0469 22.6894,485.0469 Q23.6269,485.0469 24.2831,484.7969 Q24.6738,484.6406 25.0956,484.2031 Q25.3613,483.9375 25.5019,483.8594 Q25.6581,483.7813 25.8613,483.7813 Q26.1894,483.7813 26.4394,484.0469 Q26.705,484.2969 26.705,484.6406 Q26.705,484.9844 26.3613,485.3906 Q25.8613,485.9688 25.0644,486.2969 Q23.9863,486.75 22.6894,486.75 Q21.1738,486.75 19.9706,486.125 Q18.9863,485.625 18.2988,484.5625 Q17.6113,483.4844 17.6113,482.2031 L17.6113,481.0469 Q17.6113,479.7188 18.2206,478.5781 Q18.8456,477.4219 19.9394,476.8125 Q21.0331,476.1875 22.2675,476.1875 Q23.0019,476.1875 23.6425,476.3594 Q24.2988,476.5156 24.8456,476.875 Z " fill="#000000"/><text fill="#000000" font-family="sans-serif" font-size="14" lengthAdjust="spacing" textLength="58" x="36.08" y="486.7285">Reviewer</text><line style="stroke:#181818;stroke-width:0.5;" x1="8.08" x2="96.08" y1="497" y2="497"/><line style="stroke:#181818;stroke-width:0.5;" x1="8.08" x2="96.08" y1="505" y2="505"/></g><!--MD5=[559db66c208d2736f857be4b8ed380a2]
class Editor--><g id="elem_Editor"><rect codeLine="8" fill="#F1F1F1" height="48" id="Editor" rx="2.5" ry="2.5" style="stroke:#181818;stroke-width:0.5;" width="69" x="235.58" y="225"/><ellipse cx="250.58" cy="241" fill="#ADD1B2" rx="11" ry="11" style="stroke:#181818;stroke-width:1.0;"/><path d="M253.3456,236.875 Q253.5019,236.6563 253.6894,236.5469 Q253.8769,236.4375 254.0956,236.4375 Q254.4706,236.4375 254.705,236.7031 Q254.9394,236.9531 254.9394,237.5625 L254.9394,239.0156 Q254.9394,239.625 254.705,239.8906 Q254.4706,240.1563 254.0956,240.1563 Q253.7519,240.1563 253.5488,239.9531 Q253.3456,239.7656 253.2363,239.25 Q253.1894,238.8906 253.0019,238.7031 Q252.6738,238.3281 252.0644,238.1094 Q251.455,237.8906 250.83,237.8906 Q250.0644,237.8906 249.4238,238.2188 Q248.7988,238.5469 248.2988,239.2969 Q247.8144,240.0469 247.8144,241.0781 L247.8144,242.1719 Q247.8144,243.4063 248.705,244.2344 Q249.5956,245.0469 251.1894,245.0469 Q252.1269,245.0469 252.7831,244.7969 Q253.1738,244.6406 253.5956,244.2031 Q253.8613,243.9375 254.0019,243.8594 Q254.1581,243.7813 254.3613,243.7813 Q254.6894,243.7813 254.9394,244.0469 Q255.205,244.2969 255.205,244.6406 Q255.205,244.9844 254.8613,245.3906 Q254.3613,245.9688 253.5644,246.2969 Q252.4863,246.75 251.1894,246.75 Q249.6738,246.75 248.4706,246.125 Q247.4863,245.625 246.7988,244.5625 Q246.1113,243.4844 246.1113,242.2031 L246.1113,241.0469 Q246.1113,239.7188 246.7206,238.5781 Q247.3456,237.4219 248.4394,236.8125 Q249.5331,236.1875 250.7675,236.1875 Q251.5019,236.1875 252.1425,236.3594 Q252.7988,236.5156 253.3456,236.875 Z " fill="#000000"/><text fill="#000000" font-family="sans-serif" font-size="14" lengthAdjust="spacing" textLength="37" x="264.58" y="246.7285">Editor</text><line style="stroke:#181818;stroke-width:0.5;" x1="236.58" x2="303.58" y1="257" y2="257"/><line style="stroke:#181818;stroke-width:0.5;" x1="236.58" x2="303.58" y1="265" y2="265"/></g><!--MD5=[a0a1f7f9662f43ef0ece806266f72a6f]
class Executor--><g id="elem_Executor"><rect codeLine="10" fill="#F1F1F1" height="48" id="Executor" rx="2.5" ry="2.5" style="stroke:#181818;stroke-width:0.5;" width="87" x="461.58" y="225"/><ellipse cx="476.58" cy="241" fill="#ADD1B2" rx="11" ry="11" style="stroke:#181818;stroke-width:1.0;"/><path d="M479.3456,236.875 Q479.5019,236.6563 479.6894,236.5469 Q479.8769,236.4375 480.0956,236.4375 Q480.4706,236.4375 480.705,236.7031 Q480.9394,236.9531 480.9394,237.5625 L480.9394,239.0156 Q480.9394,239.625 480.705,239.8906 Q480.4706,240.1563 480.0956,240.1563 Q479.7519,240.1563 479.5488,239.9531 Q479.3456,239.7656 479.2363,239.25 Q479.1894,238.8906 479.0019,238.7031 Q478.6738,238.3281 478.0644,238.1094 Q477.455,237.8906 476.83,237.8906 Q476.0644,237.8906 475.4238,238.2188 Q474.7988,238.5469 474.2988,239.2969 Q473.8144,240.0469 473.8144,241.0781 L473.8144,242.1719 Q473.8144,243.4063 474.705,244.2344 Q475.5956,245.0469 477.1894,245.0469 Q478.1269,245.0469 478.7831,244.7969 Q479.1738,244.6406 479.5956,244.2031 Q479.8613,243.9375 480.0019,243.8594 Q480.1581,243.7813 480.3613,243.7813 Q480.6894,243.7813 480.9394,244.0469 Q481.205,244.2969 481.205,244.6406 Q481.205,244.9844 480.8613,245.3906 Q480.3613,245.9688 479.5644,246.2969 Q478.4863,246.75 477.1894,246.75 Q475.6738,246.75 474.4706,246.125 Q473.4863,245.625 472.7988,244.5625 Q472.1113,243.4844 472.1113,242.2031 L472.1113,241.0469 Q472.1113,239.7188 472.7206,238.5781 Q473.3456,237.4219 474.4394,236.8125 Q475.5331,236.1875 476.7675,236.1875 Q477.5019,236.1875 478.1425,236.3594 Q478.7988,236.5156 479.3456,236.875 Z " fill="#000000"/><text fill="#000000" font-family="sans-serif" font-size="14" lengthAdjust="spacing" textLength="55" x="490.58" y="246.7285">Executor</text><line style="stroke:#181818;stroke-width:0.5;" x1="462.58" x2="547.58" y1="257" y2="257"/><line style="stroke:#181818;stroke-width:0.5;" x1="462.58" x2="547.58" y1="265" y2="265"/></g><!--MD5=[71e8807956d33805e77353b9d7e2df39]
class Evaluation--><g id="elem_Evaluation"><rect codeLine="12" fill="#F1F1F1" height="48" id="Evaluation" rx="2.5" ry="2.5" style="stroke:#181818;stroke-width:0.5;" width="98" x="664.08" y="360.5"/><ellipse cx="679.08" cy="376.5" fill="#ADD1B2" rx="11" ry="11" style="stroke:#181818;stroke-width:1.0;"/><path d="M681.8456,372.375 Q682.0019,372.1563 682.1894,372.0469 Q682.3769,371.9375 682.5956,371.9375 Q682.9706,371.9375 683.205,372.2031 Q683.4394,372.4531 683.4394,373.0625 L683.4394,374.5156 Q683.4394,375.125 683.205,375.3906 Q682.9706,375.6563 682.5956,375.6563 Q682.2519,375.6563 682.0488,375.4531 Q681.8456,375.2656 681.7363,374.75 Q681.6894,374.3906 681.5019,374.2031 Q681.1738,373.8281 680.5644,373.6094 Q679.955,373.3906 679.33,373.3906 Q678.5644,373.3906 677.9238,373.7188 Q677.2988,374.0469 676.7988,374.7969 Q676.3144,375.5469 676.3144,376.5781 L676.3144,377.6719 Q676.3144,378.9063 677.205,379.7344 Q678.0956,380.5469 679.6894,380.5469 Q680.6269,380.5469 681.2831,380.2969 Q681.6738,380.1406 682.0956,379.7031 Q682.3613,379.4375 682.5019,379.3594 Q682.6581,379.2813 682.8613,379.2813 Q683.1894,379.2813 683.4394,379.5469 Q683.705,379.7969 683.705,380.1406 Q683.705,380.4844 683.3613,380.8906 Q682.8613,381.4688 682.0644,381.7969 Q680.9863,382.25 679.6894,382.25 Q678.1738,382.25 676.9706,381.625 Q675.9863,381.125 675.2988,380.0625 Q674.6113,378.9844 674.6113,377.7031 L674.6113,376.5469 Q674.6113,375.2188 675.2206,374.0781 Q675.8456,372.9219 676.9394,372.3125 Q678.0331,371.6875 679.2675,371.6875 Q680.0019,371.6875 680.6425,371.8594 Q681.2988,372.0156 681.8456,372.375 Z " fill="#000000"/><text fill="#000000" font-family="sans-serif" font-size="14" lengthAdjust="spacing" textLength="66" x="693.08" y="382.2285">Evaluation</text><line style="stroke:#181818;stroke-width:0.5;" x1="665.08" x2="761.08" y1="392.5" y2="392.5"/><line style="stroke:#181818;stroke-width:0.5;" x1="665.08" x2="761.08" y1="400.5" y2="400.5"/></g><!--MD5=[a96594a83e2ecdc78cbf17c2ddf01934]
class Category--><g id="elem_Category"><rect codeLine="14" fill="#F1F1F1" height="48" id="Category" rx="2.5" ry="2.5" style="stroke:#181818;stroke-width:0.5;" width="90" x="409.08" y="543"/><ellipse cx="424.08" cy="559" fill="#ADD1B2" rx="11" ry="11" style="stroke:#181818;stroke-width:1.0;"/><path d="M426.8456,554.875 Q427.0019,554.6563 427.1894,554.5469 Q427.3769,554.4375 427.5956,554.4375 Q427.9706,554.4375 428.205,554.7031 Q428.4394,554.9531 428.4394,555.5625 L428.4394,557.0156 Q428.4394,557.625 428.205,557.8906 Q427.9706,558.1563 427.5956,558.1563 Q427.2519,558.1563 427.0488,557.9531 Q426.8456,557.7656 426.7363,557.25 Q426.6894,556.8906 426.5019,556.7031 Q426.1738,556.3281 425.5644,556.1094 Q424.955,555.8906 424.33,555.8906 Q423.5644,555.8906 422.9238,556.2188 Q422.2988,556.5469 421.7988,557.2969 Q421.3144,558.0469 421.3144,559.0781 L421.3144,560.1719 Q421.3144,561.4063 422.205,562.2344 Q423.0956,563.0469 424.6894,563.0469 Q425.6269,563.0469 426.2831,562.7969 Q426.6738,562.6406 427.0956,562.2031 Q427.3613,561.9375 427.5019,561.8594 Q427.6581,561.7813 427.8613,561.7813 Q428.1894,561.7813 428.4394,562.0469 Q428.705,562.2969 428.705,562.6406 Q428.705,562.9844 428.3613,563.3906 Q427.8613,563.9688 427.0644,564.2969 Q425.9863,564.75 424.6894,564.75 Q423.1738,564.75 421.9706,564.125 Q420.9863,563.625 420.2988,562.5625 Q419.6113,561.4844 419.6113,560.2031 L419.6113,559.0469 Q419.6113,557.7188 420.2206,556.5781 Q420.8456,555.4219 421.9394,554.8125 Q423.0331,554.1875 424.2675,554.1875 Q425.0019,554.1875 425.6425,554.3594 Q426.2988,554.5156 426.8456,554.875 Z " fill="#000000"/><text fill="#000000" font-family="sans-serif" font-size="14" lengthAdjust="spacing" textLength="58" x="438.08" y="564.7285">Category</text><line style="stroke:#181818;stroke-width:0.5;" x1="410.08" x2="498.08" y1="575" y2="575"/><line style="stroke:#181818;stroke-width:0.5;" x1="410.08" x2="498.08" y1="583" y2="583"/></g><!--MD5=[df38be88ccee13e832d6fafd6288a4ca]
class Test--><g id="elem_Test"><rect codeLine="16" fill="#F1F1F1" height="48" id="Test" rx="2.5" ry="2.5" style="stroke:#181818;stroke-width:0.5;" width="60" x="754.08" y="543"/><ellipse cx="769.08" cy="559" fill="#ADD1B2" rx="11" ry="11" style="stroke:#181818;stroke-width:1.0;"/><path d="M771.8456,554.875 Q772.0019,554.6563 772.1894,554.5469 Q772.3769,554.4375 772.5956,554.4375 Q772.9706,554.4375 773.205,554.7031 Q773.4394,554.9531 773.4394,555.5625 L773.4394,557.0156 Q773.4394,557.625 773.205,557.8906 Q772.9706,558.1563 772.5956,558.1563 Q772.2519,558.1563 772.0488,557.9531 Q771.8456,557.7656 771.7363,557.25 Q771.6894,556.8906 771.5019,556.7031 Q771.1738,556.3281 770.5644,556.1094 Q769.955,555.8906 769.33,555.8906 Q768.5644,555.8906 767.9238,556.2188 Q767.2988,556.5469 766.7988,557.2969 Q766.3144,558.0469 766.3144,559.0781 L766.3144,560.1719 Q766.3144,561.4063 767.205,562.2344 Q768.0956,563.0469 769.6894,563.0469 Q770.6269,563.0469 771.2831,562.7969 Q771.6738,562.6406 772.0956,562.2031 Q772.3613,561.9375 772.5019,561.8594 Q772.6581,561.7813 772.8613,561.7813 Q773.1894,561.7813 773.4394,562.0469 Q773.705,562.2969 773.705,562.6406 Q773.705,562.9844 773.3613,563.3906 Q772.8613,563.9688 772.0644,564.2969 Q770.9863,564.75 769.6894,564.75 Q768.1738,564.75 766.9706,564.125 Q765.9863,563.625 765.2988,562.5625 Q764.6113,561.4844 764.6113,560.2031 L764.6113,559.0469 Q764.6113,557.7188 765.2206,556.5781 Q765.8456,555.4219 766.9394,554.8125 Q768.0331,554.1875 769.2675,554.1875 Q770.0019,554.1875 770.6425,554.3594 Q771.2988,554.5156 771.8456,554.875 Z " fill="#000000"/><text fill="#000000" font-family="sans-serif" font-size="14" lengthAdjust="spacing" textLength="28" x="783.08" y="564.7285">Test</text><line style="stroke:#181818;stroke-width:0.5;" x1="755.08" x2="813.08" y1="575" y2="575"/><line style="stroke:#181818;stroke-width:0.5;" x1="755.08" x2="813.08" y1="583" y2="583"/></g><!--MD5=[251997ad79b4d4948a25d3b27294058e]
class AnswersToReview--><g id="elem_AnswersToReview"><rect codeLine="18" fill="#F1F1F1" height="48" id="AnswersToReview" rx="2.5" ry="2.5" style="stroke:#181818;stroke-width:0.5;" width="147" x="149.58" y="808"/><ellipse cx="164.58" cy="824" fill="#ADD1B2" rx="11" ry="11" style="stroke:#181818;stroke-width:1.0;"/><path d="M167.3456,819.875 Q167.5019,819.6563 167.6894,819.5469 Q167.8769,819.4375 168.0956,819.4375 Q168.4706,819.4375 168.705,819.7031 Q168.9394,819.9531 168.9394,820.5625 L168.9394,822.0156 Q168.9394,822.625 168.705,822.8906 Q168.4706,823.1563 168.0956,823.1563 Q167.7519,823.1563 167.5488,822.9531 Q167.3456,822.7656 167.2363,822.25 Q167.1894,821.8906 167.0019,821.7031 Q166.6738,821.3281 166.0644,821.1094 Q165.455,820.8906 164.83,820.8906 Q164.0644,820.8906 163.4238,821.2188 Q162.7988,821.5469 162.2988,822.2969 Q161.8144,823.0469 161.8144,824.0781 L161.8144,825.1719 Q161.8144,826.4063 162.705,827.2344 Q163.5956,828.0469 165.1894,828.0469 Q166.1269,828.0469 166.7831,827.7969 Q167.1738,827.6406 167.5956,827.2031 Q167.8613,826.9375 168.0019,826.8594 Q168.1581,826.7813 168.3613,826.7813 Q168.6894,826.7813 168.9394,827.0469 Q169.205,827.2969 169.205,827.6406 Q169.205,827.9844 168.8613,828.3906 Q168.3613,828.9688 167.5644,829.2969 Q166.4863,829.75 165.1894,829.75 Q163.6738,829.75 162.4706,829.125 Q161.4863,828.625 160.7988,827.5625 Q160.1113,826.4844 160.1113,825.2031 L160.1113,824.0469 Q160.1113,822.7188 160.7206,821.5781 Q161.3456,820.4219 162.4394,819.8125 Q163.5331,819.1875 164.7675,819.1875 Q165.5019,819.1875 166.1425,819.3594 Q166.7988,819.5156 167.3456,819.875 Z " fill="#000000"/><text fill="#000000" font-family="sans-serif" font-size="14" lengthAdjust="spacing" textLength="115" x="178.58" y="829.7285">AnswersToReview</text><line style="stroke:#181818;stroke-width:0.5;" x1="150.58" x2="295.58" y1="840" y2="840"/><line style="stroke:#181818;stroke-width:0.5;" x1="150.58" x2="295.58" y1="848" y2="848"/></g><!--MD5=[9d451b2f92d848a8e2d1a4dab2b1c6bf]
class Concept--><g id="elem_Concept"><rect codeLine="20" fill="#F1F1F1" height="100.8281" id="Concept" rx="2.5" ry="2.5" style="stroke:#181818;stroke-width:0.5;" width="85" x="227.58" y="334"/><ellipse cx="242.58" cy="350" fill="#ADD1B2" rx="11" ry="11" style="stroke:#181818;stroke-width:1.0;"/><path d="M245.3456,345.875 Q245.5019,345.6563 245.6894,345.5469 Q245.8769,345.4375 246.0956,345.4375 Q246.4706,345.4375 246.705,345.7031 Q246.9394,345.9531 246.9394,346.5625 L246.9394,348.0156 Q246.9394,348.625 246.705,348.8906 Q246.4706,349.1563 246.0956,349.1563 Q245.7519,349.1563 245.5488,348.9531 Q245.3456,348.7656 245.2363,348.25 Q245.1894,347.8906 245.0019,347.7031 Q244.6738,347.3281 244.0644,347.1094 Q243.455,346.8906 242.83,346.8906 Q242.0644,346.8906 241.4238,347.2188 Q240.7988,347.5469 240.2988,348.2969 Q239.8144,349.0469 239.8144,350.0781 L239.8144,351.1719 Q239.8144,352.4063 240.705,353.2344 Q241.5956,354.0469 243.1894,354.0469 Q244.1269,354.0469 244.7831,353.7969 Q245.1738,353.6406 245.5956,353.2031 Q245.8613,352.9375 246.0019,352.8594 Q246.1581,352.7813 246.3613,352.7813 Q246.6894,352.7813 246.9394,353.0469 Q247.205,353.2969 247.205,353.6406 Q247.205,353.9844 246.8613,354.3906 Q246.3613,354.9688 245.5644,355.2969 Q244.4863,355.75 243.1894,355.75 Q241.6738,355.75 240.4706,355.125 Q239.4863,354.625 238.7988,353.5625 Q238.1113,352.4844 238.1113,351.2031 L238.1113,350.0469 Q238.1113,348.7188 238.7206,347.5781 Q239.3456,346.4219 240.4394,345.8125 Q241.5331,345.1875 242.7675,345.1875 Q243.5019,345.1875 244.1425,345.3594 Q244.7988,345.5156 245.3456,345.875 Z " fill="#000000"/><text fill="#000000" font-family="sans-serif" font-size="14" lengthAdjust="spacing" textLength="53" x="256.58" y="355.7285">Concept</text><line style="stroke:#181818;stroke-width:0.5;" x1="228.58" x2="311.58" y1="366" y2="366"/><text fill="#000000" font-family="sans-serif" font-size="14" lengthAdjust="spacing" textLength="52" x="233.58" y="384.5332">keyword</text><text fill="#000000" font-family="sans-serif" font-size="14" lengthAdjust="spacing" textLength="29" x="233.58" y="402.1426">level</text><text fill="#000000" font-family="sans-serif" font-size="14" lengthAdjust="spacing" textLength="12" x="233.58" y="419.752">...</text><line style="stroke:#181818;stroke-width:0.5;" x1="228.58" x2="311.58" y1="426.8281" y2="426.8281"/></g><!--MD5=[f7b1256a464262a81d5827fb39e684fb]
class Open--><g id="elem_Open"><rect codeLine="26" fill="#F1F1F1" height="48" id="Open" rx="2.5" ry="2.5" style="stroke:#181818;stroke-width:0.5;" width="67" x="306.58" y="543"/><ellipse cx="321.58" cy="559" fill="#ADD1B2" rx="11" ry="11" style="stroke:#181818;stroke-width:1.0;"/><path d="M324.3456,554.875 Q324.5019,554.6563 324.6894,554.5469 Q324.8769,554.4375 325.0956,554.4375 Q325.4706,554.4375 325.705,554.7031 Q325.9394,554.9531 325.9394,555.5625 L325.9394,557.0156 Q325.9394,557.625 325.705,557.8906 Q325.4706,558.1563 325.0956,558.1563 Q324.7519,558.1563 324.5488,557.9531 Q324.3456,557.7656 324.2363,557.25 Q324.1894,556.8906 324.0019,556.7031 Q323.6738,556.3281 323.0644,556.1094 Q322.455,555.8906 321.83,555.8906 Q321.0644,555.8906 320.4238,556.2188 Q319.7988,556.5469 319.2988,557.2969 Q318.8144,558.0469 318.8144,559.0781 L318.8144,560.1719 Q318.8144,561.4063 319.705,562.2344 Q320.5956,563.0469 322.1894,563.0469 Q323.1269,563.0469 323.7831,562.7969 Q324.1738,562.6406 324.5956,562.2031 Q324.8613,561.9375 325.0019,561.8594 Q325.1581,561.7813 325.3613,561.7813 Q325.6894,561.7813 325.9394,562.0469 Q326.205,562.2969 326.205,562.6406 Q326.205,562.9844 325.8613,563.3906 Q325.3613,563.9688 324.5644,564.2969 Q323.4863,564.75 322.1894,564.75 Q320.6738,564.75 319.4706,564.125 Q318.4863,563.625 317.7988,562.5625 Q317.1113,561.4844 317.1113,560.2031 L317.1113,559.0469 Q317.1113,557.7188 317.7206,556.5781 Q318.3456,555.4219 319.4394,554.8125 Q320.5331,554.1875 321.7675,554.1875 Q322.5019,554.1875 323.1425,554.3594 Q323.7988,554.5156 324.3456,554.875 Z " fill="#000000"/><text fill="#000000" font-family="sans-serif" font-size="14" lengthAdjust="spacing" textLength="35" x="335.58" y="564.7285">Open</text><line style="stroke:#181818;stroke-width:0.5;" x1="307.58" x2="372.58" y1="575" y2="575"/><line style="stroke:#181818;stroke-width:0.5;" x1="307.58" x2="372.58" y1="583" y2="583"/></g><!--MD5=[fc7123defb831ecdd44b2d9bcef6cceb]
class Question--><g id="elem_Question"><rect codeLine="28" fill="#F1F1F1" height="48" id="Question" rx="2.5" ry="2.5" style="stroke:#181818;stroke-width:0.5;" width="89" x="475.58" y="360.5"/><ellipse cx="490.58" cy="376.5" fill="#ADD1B2" rx="11" ry="11" style="stroke:#181818;stroke-width:1.0;"/><path d="M493.3456,372.375 Q493.5019,372.1563 493.6894,372.0469 Q493.8769,371.9375 494.0956,371.9375 Q494.4706,371.9375 494.705,372.2031 Q494.9394,372.4531 494.9394,373.0625 L494.9394,374.5156 Q494.9394,375.125 494.705,375.3906 Q494.4706,375.6563 494.0956,375.6563 Q493.7519,375.6563 493.5488,375.4531 Q493.3456,375.2656 493.2363,374.75 Q493.1894,374.3906 493.0019,374.2031 Q492.6738,373.8281 492.0644,373.6094 Q491.455,373.3906 490.83,373.3906 Q490.0644,373.3906 489.4238,373.7188 Q488.7988,374.0469 488.2988,374.7969 Q487.8144,375.5469 487.8144,376.5781 L487.8144,377.6719 Q487.8144,378.9063 488.705,379.7344 Q489.5956,380.5469 491.1894,380.5469 Q492.1269,380.5469 492.7831,380.2969 Q493.1738,380.1406 493.5956,379.7031 Q493.8613,379.4375 494.0019,379.3594 Q494.1581,379.2813 494.3613,379.2813 Q494.6894,379.2813 494.9394,379.5469 Q495.205,379.7969 495.205,380.1406 Q495.205,380.4844 494.8613,380.8906 Q494.3613,381.4688 493.5644,381.7969 Q492.4863,382.25 491.1894,382.25 Q489.6738,382.25 488.4706,381.625 Q487.4863,381.125 486.7988,380.0625 Q486.1113,378.9844 486.1113,377.7031 L486.1113,376.5469 Q486.1113,375.2188 486.7206,374.0781 Q487.3456,372.9219 488.4394,372.3125 Q489.5331,371.6875 490.7675,371.6875 Q491.5019,371.6875 492.1425,371.8594 Q492.7988,372.0156 493.3456,372.375 Z " fill="#000000"/><text fill="#000000" font-family="sans-serif" font-size="14" lengthAdjust="spacing" textLength="57" x="504.58" y="382.2285">Question</text><line style="stroke:#181818;stroke-width:0.5;" x1="476.58" x2="563.58" y1="392.5" y2="392.5"/><line style="stroke:#181818;stroke-width:0.5;" x1="476.58" x2="563.58" y1="400.5" y2="400.5"/></g><!--MD5=[210f05ad84ecfe37f8378e5618b7165d]
class MultipleChoice--><g id="elem_MultipleChoice"><rect codeLine="30" fill="#F1F1F1" height="48" id="MultipleChoice" rx="2.5" ry="2.5" style="stroke:#181818;stroke-width:0.5;" width="124" x="508.08" y="699"/><ellipse cx="523.08" cy="715" fill="#ADD1B2" rx="11" ry="11" style="stroke:#181818;stroke-width:1.0;"/><path d="M525.8456,710.875 Q526.0019,710.6563 526.1894,710.5469 Q526.3769,710.4375 526.5956,710.4375 Q526.9706,710.4375 527.205,710.7031 Q527.4394,710.9531 527.4394,711.5625 L527.4394,713.0156 Q527.4394,713.625 527.205,713.8906 Q526.9706,714.1563 526.5956,714.1563 Q526.2519,714.1563 526.0487,713.9531 Q525.8456,713.7656 525.7362,713.25 Q525.6894,712.8906 525.5019,712.7031 Q525.1737,712.3281 524.5644,712.1094 Q523.955,711.8906 523.33,711.8906 Q522.5644,711.8906 521.9237,712.2188 Q521.2987,712.5469 520.7987,713.2969 Q520.3144,714.0469 520.3144,715.0781 L520.3144,716.1719 Q520.3144,717.4063 521.205,718.2344 Q522.0956,719.0469 523.6894,719.0469 Q524.6269,719.0469 525.2831,718.7969 Q525.6737,718.6406 526.0956,718.2031 Q526.3612,717.9375 526.5019,717.8594 Q526.6581,717.7813 526.8612,717.7813 Q527.1894,717.7813 527.4394,718.0469 Q527.705,718.2969 527.705,718.6406 Q527.705,718.9844 527.3612,719.3906 Q526.8612,719.9688 526.0644,720.2969 Q524.9862,720.75 523.6894,720.75 Q522.1737,720.75 520.9706,720.125 Q519.9862,719.625 519.2987,718.5625 Q518.6112,717.4844 518.6112,716.2031 L518.6112,715.0469 Q518.6112,713.7188 519.2206,712.5781 Q519.8456,711.4219 520.9394,710.8125 Q522.0331,710.1875 523.2675,710.1875 Q524.0019,710.1875 524.6425,710.3594 Q525.2987,710.5156 525.8456,710.875 Z " fill="#000000"/><text fill="#000000" font-family="sans-serif" font-size="14" lengthAdjust="spacing" textLength="92" x="537.08" y="720.7285">MultipleChoice</text><line style="stroke:#181818;stroke-width:0.5;" x1="509.08" x2="631.08" y1="731" y2="731"/><line style="stroke:#181818;stroke-width:0.5;" x1="509.08" x2="631.08" y1="739" y2="739"/></g><!--MD5=[a61a298976b7d1d94498f45c2ebfa10b]
class Statement--><g id="elem_Statement"><rect codeLine="32" fill="#F1F1F1" height="48" id="Statement" rx="2.5" ry="2.5" style="stroke:#181818;stroke-width:0.5;" width="96" x="623.08" y="543"/><ellipse cx="638.08" cy="559" fill="#ADD1B2" rx="11" ry="11" style="stroke:#181818;stroke-width:1.0;"/><path d="M640.8456,554.875 Q641.0019,554.6563 641.1894,554.5469 Q641.3769,554.4375 641.5956,554.4375 Q641.9706,554.4375 642.205,554.7031 Q642.4394,554.9531 642.4394,555.5625 L642.4394,557.0156 Q642.4394,557.625 642.205,557.8906 Q641.9706,558.1563 641.5956,558.1563 Q641.2519,558.1563 641.0488,557.9531 Q640.8456,557.7656 640.7363,557.25 Q640.6894,556.8906 640.5019,556.7031 Q640.1738,556.3281 639.5644,556.1094 Q638.955,555.8906 638.33,555.8906 Q637.5644,555.8906 636.9238,556.2188 Q636.2988,556.5469 635.7988,557.2969 Q635.3144,558.0469 635.3144,559.0781 L635.3144,560.1719 Q635.3144,561.4063 636.205,562.2344 Q637.0956,563.0469 638.6894,563.0469 Q639.6269,563.0469 640.2831,562.7969 Q640.6738,562.6406 641.0956,562.2031 Q641.3613,561.9375 641.5019,561.8594 Q641.6581,561.7813 641.8613,561.7813 Q642.1894,561.7813 642.4394,562.0469 Q642.705,562.2969 642.705,562.6406 Q642.705,562.9844 642.3613,563.3906 Q641.8613,563.9688 641.0644,564.2969 Q639.9863,564.75 638.6894,564.75 Q637.1738,564.75 635.9706,564.125 Q634.9863,563.625 634.2988,562.5625 Q633.6113,561.4844 633.6113,560.2031 L633.6113,559.0469 Q633.6113,557.7188 634.2206,556.5781 Q634.8456,555.4219 635.9394,554.8125 Q637.0331,554.1875 638.2675,554.1875 Q639.0019,554.1875 639.6425,554.3594 Q640.2988,554.5156 640.8456,554.875 Z " fill="#000000"/><text fill="#000000" font-family="sans-serif" font-size="14" lengthAdjust="spacing" textLength="64" x="652.08" y="564.7285">Statement</text><line style="stroke:#181818;stroke-width:0.5;" x1="624.08" x2="718.08" y1="575" y2="575"/><line style="stroke:#181818;stroke-width:0.5;" x1="624.08" x2="718.08" y1="583" y2="583"/></g><!--MD5=[f9fadfa5a66b7e5a67b370cd443ffe52]
class Answer--><g id="elem_Answer"><rect codeLine="34" fill="#F1F1F1" height="48" id="Answer" rx="2.5" ry="2.5" style="stroke:#181818;stroke-width:0.5;" width="78" x="667.08" y="699"/><ellipse cx="682.08" cy="715" fill="#ADD1B2" rx="11" ry="11" style="stroke:#181818;stroke-width:1.0;"/><path d="M684.8456,710.875 Q685.0019,710.6563 685.1894,710.5469 Q685.3769,710.4375 685.5956,710.4375 Q685.9706,710.4375 686.205,710.7031 Q686.4394,710.9531 686.4394,711.5625 L686.4394,713.0156 Q686.4394,713.625 686.205,713.8906 Q685.9706,714.1563 685.5956,714.1563 Q685.2519,714.1563 685.0488,713.9531 Q684.8456,713.7656 684.7363,713.25 Q684.6894,712.8906 684.5019,712.7031 Q684.1738,712.3281 683.5644,712.1094 Q682.955,711.8906 682.33,711.8906 Q681.5644,711.8906 680.9238,712.2188 Q680.2988,712.5469 679.7988,713.2969 Q679.3144,714.0469 679.3144,715.0781 L679.3144,716.1719 Q679.3144,717.4063 680.205,718.2344 Q681.0956,719.0469 682.6894,719.0469 Q683.6269,719.0469 684.2831,718.7969 Q684.6738,718.6406 685.0956,718.2031 Q685.3613,717.9375 685.5019,717.8594 Q685.6581,717.7813 685.8613,717.7813 Q686.1894,717.7813 686.4394,718.0469 Q686.705,718.2969 686.705,718.6406 Q686.705,718.9844 686.3613,719.3906 Q685.8613,719.9688 685.0644,720.2969 Q683.9863,720.75 682.6894,720.75 Q681.1738,720.75 679.9706,720.125 Q678.9863,719.625 678.2988,718.5625 Q677.6113,717.4844 677.6113,716.2031 L677.6113,715.0469 Q677.6113,713.7188 678.2206,712.5781 Q678.8456,711.4219 679.9394,710.8125 Q681.0331,710.1875 682.2675,710.1875 Q683.0019,710.1875 683.6425,710.3594 Q684.2988,710.5156 684.8456,710.875 Z " fill="#000000"/><text fill="#000000" font-family="sans-serif" font-size="14" lengthAdjust="spacing" textLength="46" x="696.08" y="720.7285">Answer</text><line style="stroke:#181818;stroke-width:0.5;" x1="668.08" x2="744.08" y1="731" y2="731"/><line style="stroke:#181818;stroke-width:0.5;" x1="668.08" x2="744.08" y1="739" y2="739"/></g><!--MD5=[bc629657279eaa9349f412646650f2c5]
class Correct--><g id="elem_Correct"><rect codeLine="36" fill="#F1F1F1" height="48" id="Correct" rx="2.5" ry="2.5" style="stroke:#181818;stroke-width:0.5;" width="79" x="576.58" y="808"/><ellipse cx="591.58" cy="824" fill="#ADD1B2" rx="11" ry="11" style="stroke:#181818;stroke-width:1.0;"/><path d="M594.3456,819.875 Q594.5019,819.6563 594.6894,819.5469 Q594.8769,819.4375 595.0956,819.4375 Q595.4706,819.4375 595.705,819.7031 Q595.9394,819.9531 595.9394,820.5625 L595.9394,822.0156 Q595.9394,822.625 595.705,822.8906 Q595.4706,823.1563 595.0956,823.1563 Q594.7519,823.1563 594.5488,822.9531 Q594.3456,822.7656 594.2363,822.25 Q594.1894,821.8906 594.0019,821.7031 Q593.6738,821.3281 593.0644,821.1094 Q592.455,820.8906 591.83,820.8906 Q591.0644,820.8906 590.4238,821.2188 Q589.7988,821.5469 589.2988,822.2969 Q588.8144,823.0469 588.8144,824.0781 L588.8144,825.1719 Q588.8144,826.4063 589.705,827.2344 Q590.5956,828.0469 592.1894,828.0469 Q593.1269,828.0469 593.7831,827.7969 Q594.1738,827.6406 594.5956,827.2031 Q594.8613,826.9375 595.0019,826.8594 Q595.1581,826.7813 595.3613,826.7813 Q595.6894,826.7813 595.9394,827.0469 Q596.205,827.2969 596.205,827.6406 Q596.205,827.9844 595.8613,828.3906 Q595.3613,828.9688 594.5644,829.2969 Q593.4863,829.75 592.1894,829.75 Q590.6738,829.75 589.4706,829.125 Q588.4863,828.625 587.7988,827.5625 Q587.1113,826.4844 587.1113,825.2031 L587.1113,824.0469 Q587.1113,822.7188 587.7206,821.5781 Q588.3456,820.4219 589.4394,819.8125 Q590.5331,819.1875 591.7675,819.1875 Q592.5019,819.1875 593.1425,819.3594 Q593.7988,819.5156 594.3456,819.875 Z " fill="#000000"/><text fill="#000000" font-family="sans-serif" font-size="14" lengthAdjust="spacing" textLength="47" x="605.58" y="829.7285">Correct</text><line style="stroke:#181818;stroke-width:0.5;" x1="577.58" x2="654.58" y1="840" y2="840"/><line style="stroke:#181818;stroke-width:0.5;" x1="577.58" x2="654.58" y1="848" y2="848"/></g><!--MD5=[37923dc032bbfca87d4413e584fa2cda]
class Incorrect--><g id="elem_Incorrect"><rect codeLine="38" fill="#F1F1F1" height="48" id="Incorrect" rx="2.5" ry="2.5" style="stroke:#181818;stroke-width:0.5;" width="87" x="454.58" y="808"/><ellipse cx="469.58" cy="824" fill="#ADD1B2" rx="11" ry="11" style="stroke:#181818;stroke-width:1.0;"/><path d="M472.3456,819.875 Q472.5019,819.6563 472.6894,819.5469 Q472.8769,819.4375 473.0956,819.4375 Q473.4706,819.4375 473.705,819.7031 Q473.9394,819.9531 473.9394,820.5625 L473.9394,822.0156 Q473.9394,822.625 473.705,822.8906 Q473.4706,823.1563 473.0956,823.1563 Q472.7519,823.1563 472.5488,822.9531 Q472.3456,822.7656 472.2363,822.25 Q472.1894,821.8906 472.0019,821.7031 Q471.6738,821.3281 471.0644,821.1094 Q470.455,820.8906 469.83,820.8906 Q469.0644,820.8906 468.4238,821.2188 Q467.7988,821.5469 467.2988,822.2969 Q466.8144,823.0469 466.8144,824.0781 L466.8144,825.1719 Q466.8144,826.4063 467.705,827.2344 Q468.5956,828.0469 470.1894,828.0469 Q471.1269,828.0469 471.7831,827.7969 Q472.1738,827.6406 472.5956,827.2031 Q472.8613,826.9375 473.0019,826.8594 Q473.1581,826.7813 473.3613,826.7813 Q473.6894,826.7813 473.9394,827.0469 Q474.205,827.2969 474.205,827.6406 Q474.205,827.9844 473.8613,828.3906 Q473.3613,828.9688 472.5644,829.2969 Q471.4863,829.75 470.1894,829.75 Q468.6738,829.75 467.4706,829.125 Q466.4863,828.625 465.7988,827.5625 Q465.1113,826.4844 465.1113,825.2031 L465.1113,824.0469 Q465.1113,822.7188 465.7206,821.5781 Q466.3456,820.4219 467.4394,819.8125 Q468.5331,819.1875 469.7675,819.1875 Q470.5019,819.1875 471.1425,819.3594 Q471.7988,819.5156 472.3456,819.875 Z " fill="#000000"/><text fill="#000000" font-family="sans-serif" font-size="14" lengthAdjust="spacing" textLength="55" x="483.58" y="829.7285">Incorrect</text><line style="stroke:#181818;stroke-width:0.5;" x1="455.58" x2="540.58" y1="840" y2="840"/><line style="stroke:#181818;stroke-width:0.5;" x1="455.58" x2="540.58" y1="848" y2="848"/></g><!--MD5=[7a7df4cc8beee4d5ec4845ad980cbb28]
class OpenField--><g id="elem_OpenField"><rect fill="#F1F1F1" height="48" id="OpenField" rx="2.5" ry="2.5" style="stroke:#181818;stroke-width:0.5;" width="98" x="351.08" y="917"/><ellipse cx="366.08" cy="933" fill="#ADD1B2" rx="11" ry="11" style="stroke:#181818;stroke-width:1.0;"/><path d="M368.8456,928.875 Q369.0019,928.6563 369.1894,928.5469 Q369.3769,928.4375 369.5956,928.4375 Q369.9706,928.4375 370.205,928.7031 Q370.4394,928.9531 370.4394,929.5625 L370.4394,931.0156 Q370.4394,931.625 370.205,931.8906 Q369.9706,932.1563 369.5956,932.1563 Q369.2519,932.1563 369.0488,931.9531 Q368.8456,931.7656 368.7363,931.25 Q368.6894,930.8906 368.5019,930.7031 Q368.1738,930.3281 367.5644,930.1094 Q366.955,929.8906 366.33,929.8906 Q365.5644,929.8906 364.9238,930.2188 Q364.2988,930.5469 363.7988,931.2969 Q363.3144,932.0469 363.3144,933.0781 L363.3144,934.1719 Q363.3144,935.4063 364.205,936.2344 Q365.0956,937.0469 366.6894,937.0469 Q367.6269,937.0469 368.2831,936.7969 Q368.6738,936.6406 369.0956,936.2031 Q369.3613,935.9375 369.5019,935.8594 Q369.6581,935.7813 369.8613,935.7813 Q370.1894,935.7813 370.4394,936.0469 Q370.705,936.2969 370.705,936.6406 Q370.705,936.9844 370.3613,937.3906 Q369.8613,937.9688 369.0644,938.2969 Q367.9863,938.75 366.6894,938.75 Q365.1738,938.75 363.9706,938.125 Q362.9863,937.625 362.2988,936.5625 Q361.6113,935.4844 361.6113,934.2031 L361.6113,933.0469 Q361.6113,931.7188 362.2206,930.5781 Q362.8456,929.4219 363.9394,928.8125 Q365.0331,928.1875 366.2675,928.1875 Q367.0019,928.1875 367.6425,928.3594 Q368.2988,928.5156 368.8456,928.875 Z " fill="#000000"/><text fill="#000000" font-family="sans-serif" font-size="14" lengthAdjust="spacing" textLength="66" x="380.08" y="938.7285">OpenField</text><line style="stroke:#181818;stroke-width:0.5;" x1="352.08" x2="448.08" y1="949" y2="949"/><line style="stroke:#181818;stroke-width:0.5;" x1="352.08" x2="448.08" y1="957" y2="957"/></g><!--MD5=[af22135d5be6ed11ccd2d02fa51653b3]
class Definition--><g id="elem_Definition"><rect fill="#F1F1F1" height="48" id="Definition" rx="2.5" ry="2.5" style="stroke:#181818;stroke-width:0.5;" width="91" x="180.58" y="543"/><ellipse cx="195.58" cy="559" fill="#ADD1B2" rx="11" ry="11" style="stroke:#181818;stroke-width:1.0;"/><path d="M198.3456,554.875 Q198.5019,554.6563 198.6894,554.5469 Q198.8769,554.4375 199.0956,554.4375 Q199.4706,554.4375 199.705,554.7031 Q199.9394,554.9531 199.9394,555.5625 L199.9394,557.0156 Q199.9394,557.625 199.705,557.8906 Q199.4706,558.1563 199.0956,558.1563 Q198.7519,558.1563 198.5488,557.9531 Q198.3456,557.7656 198.2363,557.25 Q198.1894,556.8906 198.0019,556.7031 Q197.6738,556.3281 197.0644,556.1094 Q196.455,555.8906 195.83,555.8906 Q195.0644,555.8906 194.4238,556.2188 Q193.7988,556.5469 193.2988,557.2969 Q192.8144,558.0469 192.8144,559.0781 L192.8144,560.1719 Q192.8144,561.4063 193.705,562.2344 Q194.5956,563.0469 196.1894,563.0469 Q197.1269,563.0469 197.7831,562.7969 Q198.1738,562.6406 198.5956,562.2031 Q198.8613,561.9375 199.0019,561.8594 Q199.1581,561.7813 199.3613,561.7813 Q199.6894,561.7813 199.9394,562.0469 Q200.205,562.2969 200.205,562.6406 Q200.205,562.9844 199.8613,563.3906 Q199.3613,563.9688 198.5644,564.2969 Q197.4863,564.75 196.1894,564.75 Q194.6738,564.75 193.4706,564.125 Q192.4863,563.625 191.7988,562.5625 Q191.1113,561.4844 191.1113,560.2031 L191.1113,559.0469 Q191.1113,557.7188 191.7206,556.5781 Q192.3456,555.4219 193.4394,554.8125 Q194.5331,554.1875 195.7675,554.1875 Q196.5019,554.1875 197.1425,554.3594 Q197.7988,554.5156 198.3456,554.875 Z " fill="#000000"/><text fill="#000000" font-family="sans-serif" font-size="14" lengthAdjust="spacing" textLength="59" x="209.58" y="564.7285">Definition</text><line style="stroke:#181818;stroke-width:0.5;" x1="181.58" x2="270.58" y1="575" y2="575"/><line style="stroke:#181818;stroke-width:0.5;" x1="181.58" x2="270.58" y1="583" y2="583"/></g><!--MD5=[9b4de504215638550a8bb9c080b7ee00]
class Justification--><g id="elem_Justification"><rect fill="#F1F1F1" height="48" id="Justification" rx="2.5" ry="2.5" style="stroke:#181818;stroke-width:0.5;" width="105" x="170.58" y="699"/><ellipse cx="185.58" cy="715" fill="#ADD1B2" rx="11" ry="11" style="stroke:#181818;stroke-width:1.0;"/><path d="M188.3456,710.875 Q188.5019,710.6563 188.6894,710.5469 Q188.8769,710.4375 189.0956,710.4375 Q189.4706,710.4375 189.705,710.7031 Q189.9394,710.9531 189.9394,711.5625 L189.9394,713.0156 Q189.9394,713.625 189.705,713.8906 Q189.4706,714.1563 189.0956,714.1563 Q188.7519,714.1563 188.5488,713.9531 Q188.3456,713.7656 188.2363,713.25 Q188.1894,712.8906 188.0019,712.7031 Q187.6738,712.3281 187.0644,712.1094 Q186.455,711.8906 185.83,711.8906 Q185.0644,711.8906 184.4238,712.2188 Q183.7988,712.5469 183.2988,713.2969 Q182.8144,714.0469 182.8144,715.0781 L182.8144,716.1719 Q182.8144,717.4063 183.705,718.2344 Q184.5956,719.0469 186.1894,719.0469 Q187.1269,719.0469 187.7831,718.7969 Q188.1738,718.6406 188.5956,718.2031 Q188.8613,717.9375 189.0019,717.8594 Q189.1581,717.7813 189.3613,717.7813 Q189.6894,717.7813 189.9394,718.0469 Q190.205,718.2969 190.205,718.6406 Q190.205,718.9844 189.8613,719.3906 Q189.3613,719.9688 188.5644,720.2969 Q187.4863,720.75 186.1894,720.75 Q184.6738,720.75 183.4706,720.125 Q182.4863,719.625 181.7988,718.5625 Q181.1113,717.4844 181.1113,716.2031 L181.1113,715.0469 Q181.1113,713.7188 181.7206,712.5781 Q182.3456,711.4219 183.4394,710.8125 Q184.5331,710.1875 185.7675,710.1875 Q186.5019,710.1875 187.1425,710.3594 Q187.7988,710.5156 188.3456,710.875 Z " fill="#000000"/><text fill="#000000" font-family="sans-serif" font-size="14" lengthAdjust="spacing" textLength="73" x="199.58" y="720.7285">Justification</text><line style="stroke:#181818;stroke-width:0.5;" x1="171.58" x2="274.58" y1="731" y2="731"/><line style="stroke:#181818;stroke-width:0.5;" x1="171.58" x2="274.58" y1="739" y2="739"/></g><!--MD5=[534474e9f05b14d7c70186ae077f30e0]
class Relation--><g id="elem_Relation"><rect fill="#F1F1F1" height="48" id="Relation" rx="2.5" ry="2.5" style="stroke:#181818;stroke-width:0.5;" width="84" x="90.08" y="621"/><ellipse cx="105.08" cy="637" fill="#ADD1B2" rx="11" ry="11" style="stroke:#181818;stroke-width:1.0;"/><path d="M107.8456,632.875 Q108.0019,632.6563 108.1894,632.5469 Q108.3769,632.4375 108.5956,632.4375 Q108.9706,632.4375 109.205,632.7031 Q109.4394,632.9531 109.4394,633.5625 L109.4394,635.0156 Q109.4394,635.625 109.205,635.8906 Q108.9706,636.1563 108.5956,636.1563 Q108.2519,636.1563 108.0488,635.9531 Q107.8456,635.7656 107.7363,635.25 Q107.6894,634.8906 107.5019,634.7031 Q107.1738,634.3281 106.5644,634.1094 Q105.955,633.8906 105.33,633.8906 Q104.5644,633.8906 103.9238,634.2188 Q103.2988,634.5469 102.7988,635.2969 Q102.3144,636.0469 102.3144,637.0781 L102.3144,638.1719 Q102.3144,639.4063 103.205,640.2344 Q104.0956,641.0469 105.6894,641.0469 Q106.6269,641.0469 107.2831,640.7969 Q107.6738,640.6406 108.0956,640.2031 Q108.3613,639.9375 108.5019,639.8594 Q108.6581,639.7813 108.8613,639.7813 Q109.1894,639.7813 109.4394,640.0469 Q109.705,640.2969 109.705,640.6406 Q109.705,640.9844 109.3613,641.3906 Q108.8613,641.9688 108.0644,642.2969 Q106.9863,642.75 105.6894,642.75 Q104.1738,642.75 102.9706,642.125 Q101.9863,641.625 101.2988,640.5625 Q100.6113,639.4844 100.6113,638.2031 L100.6113,637.0469 Q100.6113,635.7188 101.2206,634.5781 Q101.8456,633.4219 102.9394,632.8125 Q104.0331,632.1875 105.2675,632.1875 Q106.0019,632.1875 106.6425,632.3594 Q107.2988,632.5156 107.8456,632.875 Z " fill="#000000"/><text fill="#000000" font-family="sans-serif" font-size="14" lengthAdjust="spacing" textLength="52" x="119.08" y="642.7285">Relation</text><line style="stroke:#181818;stroke-width:0.5;" x1="91.08" x2="173.08" y1="653" y2="653"/><line style="stroke:#181818;stroke-width:0.5;" x1="91.08" x2="173.08" y1="661" y2="661"/></g><!--MD5=[12743b4aa7b2bf3d8e383437eb99df68]
link Community to User--><g id="link_Community_User"><path codeLine="40" d="M326.08,67.22 C326.08,67.22 326.08,91.5 326.08,102.56 " fill="none" id="Community-User" style="stroke:#181818;stroke-width:1.0;"/><polygon fill="#181818" points="326.08,115.83,330.08,106.83,326.08,110.83,322.08,106.83,326.08,115.83" style="stroke:#181818;stroke-width:1.0;"/><line style="stroke:#181818;stroke-width:1.0;" x1="326.08" x2="326.08" y1="110.83" y2="102.83"/><polygon fill="#181818" points="326.08,55.22,322.08,61.22,326.08,67.22,330.08,61.22,326.08,55.22" style="stroke:#181818;stroke-width:1.0;"/><text fill="#000000" font-family="sans-serif" font-size="13" lengthAdjust="spacing" textLength="20" x="303.5175" y="105.1266">1..*</text></g><!--MD5=[7016372388c7ac2652db8515880aaa11]
reverse link User to Editor--><g id="link_User_Editor"><path codeLine="44" d="M304.56,182.13 C296.98,196.6 288.73,212.36 282.21,224.83 " fill="none" id="User-backto-Editor" style="stroke:#181818;stroke-width:1.0;"/><polygon fill="none" points="298.45,178.69,313.93,164.22,310.86,185.18,298.45,178.69" style="stroke:#181818;stroke-width:1.0;"/></g><!--MD5=[60e4945ab784e9eaf709bb3168dd25a4]
reverse link Editor to Reviewer--><g id="link_Editor_Reviewer"><path codeLine="45" d="M235.23,288.05 C189.63,337.83 111.14,423.53 73.47,464.65 " fill="none" id="Editor-backto-Reviewer" style="stroke:#181818;stroke-width:1.0;"/><polygon fill="none" points="230.11,283.27,248.78,273.25,240.43,292.73,230.11,283.27" style="stroke:#181818;stroke-width:1.0;"/></g><!--MD5=[d8a655080454bab67f6091cbff4cee86]
reverse link User to Executor--><g id="link_User_Executor"><path codeLine="46" d="M374.15,169.74 C403.02,186.99 439.26,208.65 466.29,224.81 " fill="none" id="User-backto-Executor" style="stroke:#181818;stroke-width:1.0;"/><polygon fill="none" points="370.43,175.66,356.85,159.39,377.61,163.65,370.43,175.66" style="stroke:#181818;stroke-width:1.0;"/></g><!--MD5=[affac43304043ba8fb26272df4af1a5a]
reverse link AnswersToReview to OpenField--><g id="link_AnswersToReview_OpenField"><path codeLine="48" d="M266.09,859 C295.3,876.66 333.59,899.8 361.75,916.83 " fill="none" id="AnswersToReview-backto-OpenField" style="stroke:#181818;stroke-width:1.0;"/><polygon fill="#181818" points="261.49,856.22,267.1178,864.3026,265.7673,858.8093,271.2606,857.4589,261.49,856.22" style="stroke:#181818;stroke-width:1.0;"/></g><!--MD5=[d0493fe3f8433ad70d7ac94d8da863ff]
reverse link Definition to AnswersToReview--><g id="link_Definition_AnswersToReview"><path codeLine="49" d="M248.82,595.24 C275.17,630.28 312.62,693.03 293.08,747 C284.49,770.74 265.93,792.49 250.08,807.9 " fill="none" id="Definition-backto-AnswersToReview" style="stroke:#181818;stroke-width:1.0;"/><polygon fill="#181818" points="245.67,591.11,247.9468,600.6921,248.7019,595.0858,254.3082,595.841,245.67,591.11" style="stroke:#181818;stroke-width:1.0;"/></g><!--MD5=[1a4d83db36a33f2fbcdef02fb8712ac7]
reverse link Justification to AnswersToReview--><g id="link_Justification_AnswersToReview"><path codeLine="50" d="M223.08,752.43 C223.08,769.74 223.08,791.57 223.08,807.83 " fill="none" id="Justification-backto-AnswersToReview" style="stroke:#181818;stroke-width:1.0;"/><polygon fill="#181818" points="223.08,747.22,219.08,756.22,223.08,752.22,227.08,756.22,223.08,747.22" style="stroke:#181818;stroke-width:1.0;"/></g><!--MD5=[ca1db39ba97a6974584bf41ab4f0a9b1]
reverse link Relation to AnswersToReview--><g id="link_Relation_AnswersToReview"><path codeLine="51" d="M134.24,674.23 C136.7,695.17 141.95,723.95 153.08,747 C164.22,770.08 183.08,792.18 198.42,807.91 " fill="none" id="Relation-backto-AnswersToReview" style="stroke:#181818;stroke-width:1.0;"/><polygon fill="#181818" points="133.67,669.09,130.6972,678.4795,134.2269,674.0589,138.6475,677.5885,133.67,669.09" style="stroke:#181818;stroke-width:1.0;"/></g><!--MD5=[92bb550ca98ac9a22eac22022873985a]
reverse link Concept to Category--><g id="link_Concept_Category"><path codeLine="53" d="M322.05,436.48 C357.67,471.43 403.25,516.14 430.47,542.84 " fill="none" id="Concept-backto-Category" style="stroke:#181818;stroke-width:1.0;"/><polygon fill="#181818" points="312.76,427.36,314.2456,434.4164,321.3306,435.7591,319.845,428.7027,312.76,427.36" style="stroke:#181818;stroke-width:1.0;"/></g><!--MD5=[543bb2115b5a10697a67507a00f6a2f4]
reverse link Concept to Definition--><g id="link_Concept_Definition"><path codeLine="54" d="M254.84,448 C246.86,480.73 237.57,518.86 231.76,542.71 " fill="none" id="Concept-backto-Definition" style="stroke:#181818;stroke-width:1.0;"/><polygon fill="none" points="257.94,435.3,252.6301,440.1791,255.0917,446.9571,260.4015,442.078,257.94,435.3" style="stroke:#181818;stroke-width:1.0;"/></g><!--MD5=[38796b68b5180f699f927fbe8d179b6a]
reverse link Definition to Justification--><g id="link_Definition_Justification"><path codeLine="55" d="M225.37,604.41 C224.8,633.63 224.02,673.77 223.53,698.79 " fill="none" id="Definition-backto-Justification" style="stroke:#181818;stroke-width:1.0;"/><polygon fill="none" points="225.63,591.06,221.5121,596.9797,225.3927,603.0577,229.5106,597.1379,225.63,591.06" style="stroke:#181818;stroke-width:1.0;"/></g><!--MD5=[54f9360500e0fd532969fc16f437bbea]
reverse link Concept to Relation--><g id="link_Concept_Relation"><path codeLine="56" d="M222.85,445.8 C202.36,474.11 179.37,509.04 163.08,543 C150.86,568.47 142.13,599.84 137.1,620.8 " fill="none" id="Concept-backto-Relation" style="stroke:#181818;stroke-width:1.0;"/><polygon fill="none" points="230.57,435.29,223.7952,437.7602,223.4696,444.9639,230.2445,442.4938,230.57,435.29" style="stroke:#181818;stroke-width:1.0;"/></g><!--MD5=[3e23c87a985df3c2da55c80a43bfcd45]
link Executor to Evaluation--><g id="link_Executor_Evaluation"><path codeLine="58" d="M541.31,273.25 C577.88,296.73 634.26,332.91 672.36,357.37 " fill="none" id="Executor-to-Evaluation" style="stroke:#181818;stroke-width:1.0;"/><polygon fill="#181818" points="676.92,360.29,671.5124,352.0585,672.7141,357.5862,667.1864,358.7879,676.92,360.29" style="stroke:#181818;stroke-width:1.0;"/><text fill="#000000" font-family="sans-serif" font-size="13" lengthAdjust="spacing" textLength="20" x="645.0915" y="349.5763">0..*</text></g><!--MD5=[7ea0c49f743e358ac875b85df2ad47d3]
link Evaluation to Test--><g id="link_Evaluation_Test"><path codeLine="59" d="M722.22,408.73 C735.21,441.76 759,502.24 772.99,537.8 " fill="none" id="Evaluation-to-Test" style="stroke:#181818;stroke-width:1.0;"/><polygon fill="#181818" points="774.98,542.86,775.414,533.0207,773.1526,538.2059,767.9674,535.9445,774.98,542.86" style="stroke:#181818;stroke-width:1.0;"/></g><!--MD5=[dbcaedebb070bbdd4f1f81456a517a7e]
link Editor to Concept--><g id="link_Editor_Concept"><path codeLine="61" d="M270.08,273.25 C270.08,288.55 270.08,309.24 270.08,328.57 " fill="none" id="Editor-to-Concept" style="stroke:#181818;stroke-width:1.0;stroke-dasharray:7.0,7.0;"/><polygon fill="#181818" points="270.08,333.98,274.08,324.98,270.08,328.98,266.08,324.98,270.08,333.98" style="stroke:#181818;stroke-width:1.0;"/></g><!--MD5=[e00da6149d048e8cd500d4b4c25ee479]
reverse link Concept to Open--><g id="link_Concept_Open"><path codeLine="62" d="M291.33,440.3 C304.62,474.57 321.06,516.96 331.05,542.71 " fill="none" id="Concept-backto-Open" style="stroke:#181818;stroke-width:1.0;stroke-dasharray:7.0,7.0;"/><polygon fill="#181818" points="289.39,435.3,288.9036,445.1368,291.1926,439.9638,296.3656,442.2527,289.39,435.3" style="stroke:#181818;stroke-width:1.0;"/></g><!--MD5=[9fac5a92095d82c34ec834b068648827]
link Reviewer to AnswersToReview--><g id="link_Reviewer_AnswersToReview"><path codeLine="64" d="M41.59,513.28 C27.28,548.67 6,617.35 30.08,669 C59.27,731.61 125.88,778.62 172.64,805.45 " fill="none" id="Reviewer-to-AnswersToReview" style="stroke:#181818;stroke-width:1.0;stroke-dasharray:7.0,7.0;"/><polygon fill="#181818" points="177.1,807.98,171.2563,800.0521,172.7544,805.507,167.2995,807.0051,177.1,807.98" style="stroke:#181818;stroke-width:1.0;"/><text fill="#000000" font-family="sans-serif" font-size="13" lengthAdjust="spacing" textLength="40" x="31.08" y="650.4951">Review</text></g><!--MD5=[f5bccbd5bfaa05fddfe2ae56cb719779]
reverse link Question to MultipleChoice--><g id="link_Question_MultipleChoice"><path codeLine="65" d="M526.47,428.53 C537.16,500.48 558.32,642.83 566.62,698.71 " fill="none" id="Question-backto-MultipleChoice" style="stroke:#181818;stroke-width:1.0;"/><polygon fill="none" points="519.53,429.44,523.52,408.63,533.38,427.38,519.53,429.44" style="stroke:#181818;stroke-width:1.0;"/></g><!--MD5=[4cad30c456caf6c2d8ef64c6efcf5ce1]
reverse link Question to Open--><g id="link_Question_Open"><path codeLine="66" d="M482.66,423.02 C446.65,459.13 393.35,512.58 363.15,542.86 " fill="none" id="Question-backto-Open" style="stroke:#181818;stroke-width:1.0;"/><polygon fill="none" points="477.84,417.95,496.92,408.73,487.75,427.83,477.84,417.95" style="stroke:#181818;stroke-width:1.0;"/></g><!--MD5=[5eec2fbe828b8b9d7ed14afe7140b3be]
link Test to MultipleChoice--><g id="link_Test_MultipleChoice"><path codeLine="67" d="M744.1356,596.7572 C744.1356,596.7572 650.86,663.87 612.93,691.16 " fill="none" id="Test-MultipleChoice" style="stroke:#181818;stroke-width:1.0;"/><polygon fill="#181818" points="602.23,698.86,611.8699,696.8419,606.286,695.9362,607.1917,690.3523,602.23,698.86" style="stroke:#181818;stroke-width:1.0;"/><line style="stroke:#181818;stroke-width:1.0;" x1="606.286" x2="612.78" y1="695.9362" y2="691.27"/><polygon fill="#181818" points="753.87,589.74,746.6637,590.0038,744.1356,596.7572,751.3419,596.4934,753.87,589.74" style="stroke:#181818;stroke-width:1.0;"/><text fill="#000000" font-family="sans-serif" font-size="13" lengthAdjust="spacing" textLength="27" x="580.0091" y="688.1643">10..*</text></g><!--MD5=[6eeca14f8a2ed45d1117f4ed4af75b7e]
link Question to Statement--><g id="link_Question_Statement"><path codeLine="68" d="M552.2557,417.3344 C552.2557,417.3344 582.7,449.15 596.08,465 C614.3,486.59 633.25,512.14 647.54,532.15 " fill="none" id="Question-Statement" style="stroke:#181818;stroke-width:1.0;"/><polygon fill="#181818" points="655.18,542.92,653.2383,533.2644,652.2884,538.841,646.7119,537.891,655.18,542.92" style="stroke:#181818;stroke-width:1.0;"/><line style="stroke:#181818;stroke-width:1.0;" x1="652.2884" x2="647.66" y1="538.841" y2="532.31"/><polygon fill="#181818" points="543.83,408.79,545.1947,415.8708,552.2557,417.3344,550.891,410.2536,543.83,408.79" style="stroke:#181818;stroke-width:1.0;"/></g><!--MD5=[b606ea97d1bd54a2189a4243b9816b60]
link MultipleChoice to Incorrect--><g id="link_MultipleChoice_Incorrect"><path codeLine="69" d="M547.7611,757.1761 C547.7611,757.1761 529.42,784.43 521.18,796.67 " fill="none" id="MultipleChoice-Incorrect" style="stroke:#181818;stroke-width:1.0;"/><polygon fill="#181818" points="513.67,807.83,522.0161,802.601,516.4638,803.6833,515.3815,798.131,513.67,807.83" style="stroke:#181818;stroke-width:1.0;"/><line style="stroke:#181818;stroke-width:1.0;" x1="516.4638" x2="520.93" y1="803.6833" y2="797.04"/><polygon fill="#181818" points="554.46,747.22,547.7918,749.9651,547.7611,757.1761,554.4292,754.431,554.46,747.22" style="stroke:#181818;stroke-width:1.0;"/><text fill="#000000" font-family="sans-serif" font-size="13" lengthAdjust="spacing" textLength="7" x="509.7681" y="797.1266">3</text></g><!--MD5=[b43950544a8cc7846c72b475b4fd230d]
link MultipleChoice to Correct--><g id="link_MultipleChoice_Correct"><path codeLine="70" d="M584.8061,758.2415 C584.8061,758.2415 595.91,784.08 600.94,795.78 " fill="none" id="MultipleChoice-Correct" style="stroke:#181818;stroke-width:1.0;"/><polygon fill="#181818" points="606.12,807.83,606.2442,797.9819,604.1471,803.2357,598.8933,801.1386,606.12,807.83" style="stroke:#181818;stroke-width:1.0;"/><line style="stroke:#181818;stroke-width:1.0;" x1="604.1471" x2="600.98" y1="803.2357" y2="795.885"/><polygon fill="#181818" points="580.06,747.22,578.7592,754.3128,584.8061,758.2415,586.1069,751.1487,580.06,747.22" style="stroke:#181818;stroke-width:1.0;"/></g><!--MD5=[b1491d38e87214202fddacec717a9c8d]
reverse link Answer to Correct--><g id="link_Answer_Correct"><path codeLine="71" d="M673.53,762.7 C660.81,777.82 646.65,794.66 635.57,807.83 " fill="none" id="Answer-backto-Correct" style="stroke:#181818;stroke-width:1.0;"/><polygon fill="none" points="668.32,758.02,686.55,747.22,679.03,767.03,668.32,758.02" style="stroke:#181818;stroke-width:1.0;"/></g><!--MD5=[a6181c8180a1587156cddad319d63c9e]
reverse link Answer to Incorrect--><g id="link_Answer_Incorrect"><path codeLine="72" d="M649.13,753.3 C615.24,770.73 572.92,792.5 541.7,808.56 " fill="none" id="Answer-backto-Incorrect" style="stroke:#181818;stroke-width:1.0;"/><polygon fill="none" points="645.97,747.05,666.96,744.13,652.37,759.5,645.97,747.05" style="stroke:#181818;stroke-width:1.0;"/></g><!--MD5=[f8d4517273a291fe1b4647de6925b9ab]
reverse link Answer to OpenField--><g id="link_Answer_OpenField"><path codeLine="73" d="M705.82,767.04 C703.37,795.7 695.55,832.3 673.08,856 C614.15,918.17 510.44,934.69 449.22,938.85 " fill="none" id="Answer-backto-OpenField" style="stroke:#181818;stroke-width:1.0;"/><polygon fill="none" points="698.83,766.66,706.79,747.02,712.81,767.34,698.83,766.66" style="stroke:#181818;stroke-width:1.0;"/></g><!--MD5=[59461357328b13f33e0e2dce35b637f1]
reverse link Open to OpenField--><g id="link_Open_OpenField"><path codeLine="74" d="M345.93,604.25 C358.17,680.13 386.19,853.86 396.33,916.74 " fill="none" id="Open-backto-OpenField" style="stroke:#181818;stroke-width:1.0;"/><polygon fill="#181818" points="343.83,591.27,340.8364,597.8304,345.7408,603.1169,348.7344,596.5565,343.83,591.27" style="stroke:#181818;stroke-width:1.0;"/></g><!--MD5=[98df2f76ab45609c36aa45d6b9c3faee]
link Question to Category--><g id="link_Question_Category"><path codeLine="76" d="M507.4648,419.9986 C507.4648,419.9986 478.72,498.63 467.15,530.26 " fill="none" id="Question-Category" style="stroke:#181818;stroke-width:1.0;"/><polygon fill="#181818" points="462.54,542.86,469.3828,535.7765,464.254,538.163,461.8676,533.0341,462.54,542.86" style="stroke:#181818;stroke-width:1.0;"/><line style="stroke:#181818;stroke-width:1.0;" x1="464.254" x2="467.005" y1="538.163" y2="530.65"/><polygon fill="#181818" points="511.59,408.73,505.7712,412.9892,507.4648,419.9986,513.2836,415.7394,511.59,408.73" style="stroke:#181818;stroke-width:1.0;"/></g><!--MD5=[a5725b0440277e7b298212d4ab098951]
link Category to Category--><g id="link_Category_Category"><path codeLine="77" d="M511.3058,552.8164 C511.3058,552.8164 534.08,559 534.08,567 C534.08,575 525.11,579.72 512.68,581.15 " fill="none" id="Category-Category" style="stroke:#181818;stroke-width:1.0;"/><polygon fill="#181818" points="499.31,581.5,508.4123,585.2613,504.3083,581.3682,508.2014,577.2641,499.31,581.5" style="stroke:#181818;stroke-width:1.0;"/><line style="stroke:#181818;stroke-width:1.0;" x1="504.3083" x2="512.31" y1="581.3682" y2="581.16"/><polygon fill="#181818" points="499.31,552.5,505.2025,556.6568,511.3058,552.8164,505.4134,548.6596,499.31,552.5" style="stroke:#181818;stroke-width:1.0;"/><text fill="#000000" font-family="sans-serif" font-size="13" lengthAdjust="spacing" textLength="20" x="507.0767" y="579.9339">0..*</text></g><!--MD5=[f51594c98d1250dec339e46943b2f2b6]
@startuml OpoTestDomain

class Community

class User

class Reviewer

class Editor 

class Executor

class Evaluation

class Category 

class Test 

class AnswersToReview

class Concept {
    keyword
    level
    ...
}

class Open 

class Question

class MultipleChoice

class Statement

class Answer 

class Correct

Class Incorrect

Community *- -> "1..*" User
'Community *- -> Concept


User <|- - Editor
Editor <|- -  Reviewer
User <|- - Executor

AnswersToReview <- - OpenField
Definition <- - AnswersToReview
Justification <- - AnswersToReview
Relation <- - AnswersToReview

Concept *- - Category
Concept o- - Definition
Definition o- - Justification
Concept o- - Relation

Executor - -> "0..*" Evaluation
Evaluation - -> Test

Editor ..> Concept
Concept <.. Open
'OpenQuestion - -> Question
Reviewer ..> AnswersToReview : Review
Question <|- - MultipleChoice
Question <|- - Open
Test *- -> "10..*" MultipleChoice
Question *- ->   Statement
MultipleChoice *- -> "3" Incorrect
MultipleChoice *- ->   Correct
Answer <|- - Correct
Answer <|- - Incorrect
Answer <|- - OpenField
Open *- -OpenField

Question *- -> Category
Category *- ->"0..*" Category



@enduml

@startuml OpoTestDomain

class Community

class User

class Reviewer

class Editor 

class Executor

class Evaluation

class Category 

class Test 

class AnswersToReview

class Concept {
    keyword
    level
    ...
}

class Open 

class Question

class MultipleChoice

class Statement

class Answer 

class Correct

Class Incorrect

Community *- -> "1..*" User


User <|- - Editor
Editor <|- -  Reviewer
User <|- - Executor

AnswersToReview <- - OpenField
Definition <- - AnswersToReview
Justification <- - AnswersToReview
Relation <- - AnswersToReview

Concept *- - Category
Concept o- - Definition
Definition o- - Justification
Concept o- - Relation

Executor - -> "0..*" Evaluation
Evaluation - -> Test

Editor ..> Concept
Concept <.. Open
Reviewer ..> AnswersToReview : Review
Question <|- - MultipleChoice
Question <|- - Open
Test *- -> "10..*" MultipleChoice
Question *- ->   Statement
MultipleChoice *- -> "3" Incorrect
MultipleChoice *- ->   Correct
Answer <|- - Correct
Answer <|- - Incorrect
Answer <|- - OpenField
Open *- -OpenField

Question *- -> Category
Category *- ->"0..*" Category



@enduml

PlantUML version 1.2022.7(Mon Aug 22 18:01:30 WEST 2022)
(GPL source distribution)
Java Runtime: OpenJDK Runtime Environment
JVM: OpenJDK 64-Bit Server VM
Default Encoding: Cp1252
Language: es
Country: ES
--></g></svg>