<?xml version="1.0" encoding="UTF-8" standalone="no"?><svg xmlns="http://www.w3.org/2000/svg" xmlns:xlink="http://www.w3.org/1999/xlink" contentStyleType="text/css" height="1282px" preserveAspectRatio="none" style="width:1148px;height:1282px;background:#FFFFFF;" version="1.1" viewBox="0 0 1148 1282" width="1148px" zoomAndPan="magnify"><defs/><g><!--MD5=[668d633d11bedc8952753581a2dda3db]
class Community--><g id="elem_Community"><rect codeLine="2" fill="#F1F1F1" height="48" id="Community" rx="2.5" ry="2.5" style="stroke:#181818;stroke-width:0.5;" width="102" x="820.5" y="7"/><ellipse cx="835.5" cy="23" fill="#ADD1B2" rx="11" ry="11" style="stroke:#181818;stroke-width:1.0;"/><path d="M838.2656,18.875 Q838.4219,18.6563 838.6094,18.5469 Q838.7969,18.4375 839.0156,18.4375 Q839.3906,18.4375 839.625,18.7031 Q839.8594,18.9531 839.8594,19.5625 L839.8594,21.0156 Q839.8594,21.625 839.625,21.8906 Q839.3906,22.1563 839.0156,22.1563 Q838.6719,22.1563 838.4688,21.9531 Q838.2656,21.7656 838.1563,21.25 Q838.1094,20.8906 837.9219,20.7031 Q837.5938,20.3281 836.9844,20.1094 Q836.375,19.8906 835.75,19.8906 Q834.9844,19.8906 834.3438,20.2188 Q833.7188,20.5469 833.2188,21.2969 Q832.7344,22.0469 832.7344,23.0781 L832.7344,24.1719 Q832.7344,25.4063 833.625,26.2344 Q834.5156,27.0469 836.1094,27.0469 Q837.0469,27.0469 837.7031,26.7969 Q838.0938,26.6406 838.5156,26.2031 Q838.7813,25.9375 838.9219,25.8594 Q839.0781,25.7813 839.2813,25.7813 Q839.6094,25.7813 839.8594,26.0469 Q840.125,26.2969 840.125,26.6406 Q840.125,26.9844 839.7813,27.3906 Q839.2813,27.9688 838.4844,28.2969 Q837.4063,28.75 836.1094,28.75 Q834.5938,28.75 833.3906,28.125 Q832.4063,27.625 831.7188,26.5625 Q831.0313,25.4844 831.0313,24.2031 L831.0313,23.0469 Q831.0313,21.7188 831.6406,20.5781 Q832.2656,19.4219 833.3594,18.8125 Q834.4531,18.1875 835.6875,18.1875 Q836.4219,18.1875 837.0625,18.3594 Q837.7188,18.5156 838.2656,18.875 Z " fill="#000000"/><text fill="#000000" font-family="sans-serif" font-size="14" lengthAdjust="spacing" textLength="70" x="849.5" y="28.7285">Community</text><line style="stroke:#181818;stroke-width:0.5;" x1="821.5" x2="921.5" y1="39" y2="39"/><line style="stroke:#181818;stroke-width:0.5;" x1="821.5" x2="921.5" y1="47" y2="47"/></g><!--MD5=[3fd616f346a44cd59a91eb10b19e157c]
class User--><g id="elem_User"><rect codeLine="4" fill="#F1F1F1" height="48" id="User" rx="2.5" ry="2.5" style="stroke:#181818;stroke-width:0.5;" width="61" x="754" y="116"/><ellipse cx="769" cy="132" fill="#ADD1B2" rx="11" ry="11" style="stroke:#181818;stroke-width:1.0;"/><path d="M771.7656,127.875 Q771.9219,127.6563 772.1094,127.5469 Q772.2969,127.4375 772.5156,127.4375 Q772.8906,127.4375 773.125,127.7031 Q773.3594,127.9531 773.3594,128.5625 L773.3594,130.0156 Q773.3594,130.625 773.125,130.8906 Q772.8906,131.1563 772.5156,131.1563 Q772.1719,131.1563 771.9688,130.9531 Q771.7656,130.7656 771.6563,130.25 Q771.6094,129.8906 771.4219,129.7031 Q771.0938,129.3281 770.4844,129.1094 Q769.875,128.8906 769.25,128.8906 Q768.4844,128.8906 767.8438,129.2188 Q767.2188,129.5469 766.7188,130.2969 Q766.2344,131.0469 766.2344,132.0781 L766.2344,133.1719 Q766.2344,134.4063 767.125,135.2344 Q768.0156,136.0469 769.6094,136.0469 Q770.5469,136.0469 771.2031,135.7969 Q771.5938,135.6406 772.0156,135.2031 Q772.2813,134.9375 772.4219,134.8594 Q772.5781,134.7813 772.7813,134.7813 Q773.1094,134.7813 773.3594,135.0469 Q773.625,135.2969 773.625,135.6406 Q773.625,135.9844 773.2813,136.3906 Q772.7813,136.9688 771.9844,137.2969 Q770.9063,137.75 769.6094,137.75 Q768.0938,137.75 766.8906,137.125 Q765.9063,136.625 765.2188,135.5625 Q764.5313,134.4844 764.5313,133.2031 L764.5313,132.0469 Q764.5313,130.7188 765.1406,129.5781 Q765.7656,128.4219 766.8594,127.8125 Q767.9531,127.1875 769.1875,127.1875 Q769.9219,127.1875 770.5625,127.3594 Q771.2188,127.5156 771.7656,127.875 Z " fill="#000000"/><text fill="#000000" font-family="sans-serif" font-size="14" lengthAdjust="spacing" textLength="29" x="783" y="137.7285">User</text><line style="stroke:#181818;stroke-width:0.5;" x1="755" x2="814" y1="148" y2="148"/><line style="stroke:#181818;stroke-width:0.5;" x1="755" x2="814" y1="156" y2="156"/></g><!--MD5=[61a83f88cb8b7d3a80bc8c481f3736bf]
class Teacher--><g id="elem_Teacher"><rect codeLine="6" fill="#F1F1F1" height="48" id="Teacher" rx="2.5" ry="2.5" style="stroke:#181818;stroke-width:0.5;" width="85" x="742" y="225"/><ellipse cx="757" cy="241" fill="#ADD1B2" rx="11" ry="11" style="stroke:#181818;stroke-width:1.0;"/><path d="M759.7656,236.875 Q759.9219,236.6563 760.1094,236.5469 Q760.2969,236.4375 760.5156,236.4375 Q760.8906,236.4375 761.125,236.7031 Q761.3594,236.9531 761.3594,237.5625 L761.3594,239.0156 Q761.3594,239.625 761.125,239.8906 Q760.8906,240.1563 760.5156,240.1563 Q760.1719,240.1563 759.9688,239.9531 Q759.7656,239.7656 759.6563,239.25 Q759.6094,238.8906 759.4219,238.7031 Q759.0938,238.3281 758.4844,238.1094 Q757.875,237.8906 757.25,237.8906 Q756.4844,237.8906 755.8438,238.2188 Q755.2188,238.5469 754.7188,239.2969 Q754.2344,240.0469 754.2344,241.0781 L754.2344,242.1719 Q754.2344,243.4063 755.125,244.2344 Q756.0156,245.0469 757.6094,245.0469 Q758.5469,245.0469 759.2031,244.7969 Q759.5938,244.6406 760.0156,244.2031 Q760.2813,243.9375 760.4219,243.8594 Q760.5781,243.7813 760.7813,243.7813 Q761.1094,243.7813 761.3594,244.0469 Q761.625,244.2969 761.625,244.6406 Q761.625,244.9844 761.2813,245.3906 Q760.7813,245.9688 759.9844,246.2969 Q758.9063,246.75 757.6094,246.75 Q756.0938,246.75 754.8906,246.125 Q753.9063,245.625 753.2188,244.5625 Q752.5313,243.4844 752.5313,242.2031 L752.5313,241.0469 Q752.5313,239.7188 753.1406,238.5781 Q753.7656,237.4219 754.8594,236.8125 Q755.9531,236.1875 757.1875,236.1875 Q757.9219,236.1875 758.5625,236.3594 Q759.2188,236.5156 759.7656,236.875 Z " fill="#000000"/><text fill="#000000" font-family="sans-serif" font-size="14" lengthAdjust="spacing" textLength="53" x="771" y="246.7285">Teacher</text><line style="stroke:#181818;stroke-width:0.5;" x1="743" x2="826" y1="257" y2="257"/><line style="stroke:#181818;stroke-width:0.5;" x1="743" x2="826" y1="265" y2="265"/></g><!--MD5=[d6181cb537bdc20c0a3007a98a56832d]
class Student--><g id="elem_Student"><rect codeLine="8" fill="#F1F1F1" height="48" id="Student" rx="2.5" ry="2.5" style="stroke:#181818;stroke-width:0.5;" width="81" x="623" y="225"/><ellipse cx="638" cy="241" fill="#ADD1B2" rx="11" ry="11" style="stroke:#181818;stroke-width:1.0;"/><path d="M640.7656,236.875 Q640.9219,236.6563 641.1094,236.5469 Q641.2969,236.4375 641.5156,236.4375 Q641.8906,236.4375 642.125,236.7031 Q642.3594,236.9531 642.3594,237.5625 L642.3594,239.0156 Q642.3594,239.625 642.125,239.8906 Q641.8906,240.1563 641.5156,240.1563 Q641.1719,240.1563 640.9688,239.9531 Q640.7656,239.7656 640.6563,239.25 Q640.6094,238.8906 640.4219,238.7031 Q640.0938,238.3281 639.4844,238.1094 Q638.875,237.8906 638.25,237.8906 Q637.4844,237.8906 636.8438,238.2188 Q636.2188,238.5469 635.7188,239.2969 Q635.2344,240.0469 635.2344,241.0781 L635.2344,242.1719 Q635.2344,243.4063 636.125,244.2344 Q637.0156,245.0469 638.6094,245.0469 Q639.5469,245.0469 640.2031,244.7969 Q640.5938,244.6406 641.0156,244.2031 Q641.2813,243.9375 641.4219,243.8594 Q641.5781,243.7813 641.7813,243.7813 Q642.1094,243.7813 642.3594,244.0469 Q642.625,244.2969 642.625,244.6406 Q642.625,244.9844 642.2813,245.3906 Q641.7813,245.9688 640.9844,246.2969 Q639.9063,246.75 638.6094,246.75 Q637.0938,246.75 635.8906,246.125 Q634.9063,245.625 634.2188,244.5625 Q633.5313,243.4844 633.5313,242.2031 L633.5313,241.0469 Q633.5313,239.7188 634.1406,238.5781 Q634.7656,237.4219 635.8594,236.8125 Q636.9531,236.1875 638.1875,236.1875 Q638.9219,236.1875 639.5625,236.3594 Q640.2188,236.5156 640.7656,236.875 Z " fill="#000000"/><text fill="#000000" font-family="sans-serif" font-size="14" lengthAdjust="spacing" textLength="49" x="652" y="246.7285">Student</text><line style="stroke:#181818;stroke-width:0.5;" x1="624" x2="703" y1="257" y2="257"/><line style="stroke:#181818;stroke-width:0.5;" x1="624" x2="703" y1="265" y2="265"/></g><!--MD5=[71e8807956d33805e77353b9d7e2df39]
class Evaluation--><g id="elem_Evaluation"><rect codeLine="10" fill="#F1F1F1" height="48" id="Evaluation" rx="2.5" ry="2.5" style="stroke:#181818;stroke-width:0.5;" width="98" x="574.5" y="334"/><ellipse cx="589.5" cy="350" fill="#ADD1B2" rx="11" ry="11" style="stroke:#181818;stroke-width:1.0;"/><path d="M592.2656,345.875 Q592.4219,345.6563 592.6094,345.5469 Q592.7969,345.4375 593.0156,345.4375 Q593.3906,345.4375 593.625,345.7031 Q593.8594,345.9531 593.8594,346.5625 L593.8594,348.0156 Q593.8594,348.625 593.625,348.8906 Q593.3906,349.1563 593.0156,349.1563 Q592.6719,349.1563 592.4688,348.9531 Q592.2656,348.7656 592.1563,348.25 Q592.1094,347.8906 591.9219,347.7031 Q591.5938,347.3281 590.9844,347.1094 Q590.375,346.8906 589.75,346.8906 Q588.9844,346.8906 588.3438,347.2188 Q587.7188,347.5469 587.2188,348.2969 Q586.7344,349.0469 586.7344,350.0781 L586.7344,351.1719 Q586.7344,352.4063 587.625,353.2344 Q588.5156,354.0469 590.1094,354.0469 Q591.0469,354.0469 591.7031,353.7969 Q592.0938,353.6406 592.5156,353.2031 Q592.7813,352.9375 592.9219,352.8594 Q593.0781,352.7813 593.2813,352.7813 Q593.6094,352.7813 593.8594,353.0469 Q594.125,353.2969 594.125,353.6406 Q594.125,353.9844 593.7813,354.3906 Q593.2813,354.9688 592.4844,355.2969 Q591.4063,355.75 590.1094,355.75 Q588.5938,355.75 587.3906,355.125 Q586.4063,354.625 585.7188,353.5625 Q585.0313,352.4844 585.0313,351.2031 L585.0313,350.0469 Q585.0313,348.7188 585.6406,347.5781 Q586.2656,346.4219 587.3594,345.8125 Q588.4531,345.1875 589.6875,345.1875 Q590.4219,345.1875 591.0625,345.3594 Q591.7188,345.5156 592.2656,345.875 Z " fill="#000000"/><text fill="#000000" font-family="sans-serif" font-size="14" lengthAdjust="spacing" textLength="66" x="603.5" y="355.7285">Evaluation</text><line style="stroke:#181818;stroke-width:0.5;" x1="575.5" x2="671.5" y1="366" y2="366"/><line style="stroke:#181818;stroke-width:0.5;" x1="575.5" x2="671.5" y1="374" y2="374"/></g><!--MD5=[2741598bdf59a7d7e0d5c97658fd3022]
class Result--><g id="elem_Result"><rect codeLine="12" fill="#F1F1F1" height="48" id="Result" rx="2.5" ry="2.5" style="stroke:#181818;stroke-width:0.5;" width="72" x="458.5" y="443"/><ellipse cx="473.5" cy="459" fill="#ADD1B2" rx="11" ry="11" style="stroke:#181818;stroke-width:1.0;"/><path d="M476.2656,454.875 Q476.4219,454.6563 476.6094,454.5469 Q476.7969,454.4375 477.0156,454.4375 Q477.3906,454.4375 477.625,454.7031 Q477.8594,454.9531 477.8594,455.5625 L477.8594,457.0156 Q477.8594,457.625 477.625,457.8906 Q477.3906,458.1563 477.0156,458.1563 Q476.6719,458.1563 476.4688,457.9531 Q476.2656,457.7656 476.1563,457.25 Q476.1094,456.8906 475.9219,456.7031 Q475.5938,456.3281 474.9844,456.1094 Q474.375,455.8906 473.75,455.8906 Q472.9844,455.8906 472.3438,456.2188 Q471.7188,456.5469 471.2188,457.2969 Q470.7344,458.0469 470.7344,459.0781 L470.7344,460.1719 Q470.7344,461.4063 471.625,462.2344 Q472.5156,463.0469 474.1094,463.0469 Q475.0469,463.0469 475.7031,462.7969 Q476.0938,462.6406 476.5156,462.2031 Q476.7813,461.9375 476.9219,461.8594 Q477.0781,461.7813 477.2813,461.7813 Q477.6094,461.7813 477.8594,462.0469 Q478.125,462.2969 478.125,462.6406 Q478.125,462.9844 477.7813,463.3906 Q477.2813,463.9688 476.4844,464.2969 Q475.4063,464.75 474.1094,464.75 Q472.5938,464.75 471.3906,464.125 Q470.4063,463.625 469.7188,462.5625 Q469.0313,461.4844 469.0313,460.2031 L469.0313,459.0469 Q469.0313,457.7188 469.6406,456.5781 Q470.2656,455.4219 471.3594,454.8125 Q472.4531,454.1875 473.6875,454.1875 Q474.4219,454.1875 475.0625,454.3594 Q475.7188,454.5156 476.2656,454.875 Z " fill="#000000"/><text fill="#000000" font-family="sans-serif" font-size="14" lengthAdjust="spacing" textLength="40" x="487.5" y="464.7285">Result</text><line style="stroke:#181818;stroke-width:0.5;" x1="459.5" x2="529.5" y1="475" y2="475"/><line style="stroke:#181818;stroke-width:0.5;" x1="459.5" x2="529.5" y1="483" y2="483"/></g><!--MD5=[a96594a83e2ecdc78cbf17c2ddf01934]
class Category--><g id="elem_Category"><rect codeLine="14" fill="#F1F1F1" height="48" id="Category" rx="2.5" ry="2.5" style="stroke:#181818;stroke-width:0.5;" width="90" x="921.5" y="853"/><ellipse cx="936.5" cy="869" fill="#ADD1B2" rx="11" ry="11" style="stroke:#181818;stroke-width:1.0;"/><path d="M939.2656,864.875 Q939.4219,864.6563 939.6094,864.5469 Q939.7969,864.4375 940.0156,864.4375 Q940.3906,864.4375 940.625,864.7031 Q940.8594,864.9531 940.8594,865.5625 L940.8594,867.0156 Q940.8594,867.625 940.625,867.8906 Q940.3906,868.1563 940.0156,868.1563 Q939.6719,868.1563 939.4688,867.9531 Q939.2656,867.7656 939.1563,867.25 Q939.1094,866.8906 938.9219,866.7031 Q938.5938,866.3281 937.9844,866.1094 Q937.375,865.8906 936.75,865.8906 Q935.9844,865.8906 935.3438,866.2188 Q934.7188,866.5469 934.2188,867.2969 Q933.7344,868.0469 933.7344,869.0781 L933.7344,870.1719 Q933.7344,871.4063 934.625,872.2344 Q935.5156,873.0469 937.1094,873.0469 Q938.0469,873.0469 938.7031,872.7969 Q939.0938,872.6406 939.5156,872.2031 Q939.7813,871.9375 939.9219,871.8594 Q940.0781,871.7813 940.2813,871.7813 Q940.6094,871.7813 940.8594,872.0469 Q941.125,872.2969 941.125,872.6406 Q941.125,872.9844 940.7813,873.3906 Q940.2813,873.9688 939.4844,874.2969 Q938.4063,874.75 937.1094,874.75 Q935.5938,874.75 934.3906,874.125 Q933.4063,873.625 932.7188,872.5625 Q932.0313,871.4844 932.0313,870.2031 L932.0313,869.0469 Q932.0313,867.7188 932.6406,866.5781 Q933.2656,865.4219 934.3594,864.8125 Q935.4531,864.1875 936.6875,864.1875 Q937.4219,864.1875 938.0625,864.3594 Q938.7188,864.5156 939.2656,864.875 Z " fill="#000000"/><text fill="#000000" font-family="sans-serif" font-size="14" lengthAdjust="spacing" textLength="58" x="950.5" y="874.7285">Category</text><line style="stroke:#181818;stroke-width:0.5;" x1="922.5" x2="1010.5" y1="885" y2="885"/><line style="stroke:#181818;stroke-width:0.5;" x1="922.5" x2="1010.5" y1="893" y2="893"/></g><!--MD5=[df38be88ccee13e832d6fafd6288a4ca]
class Test--><g id="elem_Test"><rect codeLine="16" fill="#F1F1F1" height="48" id="Test" rx="2.5" ry="2.5" style="stroke:#181818;stroke-width:0.5;" width="60" x="565.5" y="443"/><ellipse cx="580.5" cy="459" fill="#ADD1B2" rx="11" ry="11" style="stroke:#181818;stroke-width:1.0;"/><path d="M583.2656,454.875 Q583.4219,454.6563 583.6094,454.5469 Q583.7969,454.4375 584.0156,454.4375 Q584.3906,454.4375 584.625,454.7031 Q584.8594,454.9531 584.8594,455.5625 L584.8594,457.0156 Q584.8594,457.625 584.625,457.8906 Q584.3906,458.1563 584.0156,458.1563 Q583.6719,458.1563 583.4688,457.9531 Q583.2656,457.7656 583.1563,457.25 Q583.1094,456.8906 582.9219,456.7031 Q582.5938,456.3281 581.9844,456.1094 Q581.375,455.8906 580.75,455.8906 Q579.9844,455.8906 579.3438,456.2188 Q578.7188,456.5469 578.2188,457.2969 Q577.7344,458.0469 577.7344,459.0781 L577.7344,460.1719 Q577.7344,461.4063 578.625,462.2344 Q579.5156,463.0469 581.1094,463.0469 Q582.0469,463.0469 582.7031,462.7969 Q583.0938,462.6406 583.5156,462.2031 Q583.7813,461.9375 583.9219,461.8594 Q584.0781,461.7813 584.2813,461.7813 Q584.6094,461.7813 584.8594,462.0469 Q585.125,462.2969 585.125,462.6406 Q585.125,462.9844 584.7813,463.3906 Q584.2813,463.9688 583.4844,464.2969 Q582.4063,464.75 581.1094,464.75 Q579.5938,464.75 578.3906,464.125 Q577.4063,463.625 576.7188,462.5625 Q576.0313,461.4844 576.0313,460.2031 L576.0313,459.0469 Q576.0313,457.7188 576.6406,456.5781 Q577.2656,455.4219 578.3594,454.8125 Q579.4531,454.1875 580.6875,454.1875 Q581.4219,454.1875 582.0625,454.3594 Q582.7188,454.5156 583.2656,454.875 Z " fill="#000000"/><text fill="#000000" font-family="sans-serif" font-size="14" lengthAdjust="spacing" textLength="28" x="594.5" y="464.7285">Test</text><line style="stroke:#181818;stroke-width:0.5;" x1="566.5" x2="624.5" y1="475" y2="475"/><line style="stroke:#181818;stroke-width:0.5;" x1="566.5" x2="624.5" y1="483" y2="483"/></g><!--MD5=[251997ad79b4d4948a25d3b27294058e]
class AnswersToReview--><g id="elem_AnswersToReview"><rect codeLine="18" fill="#F1F1F1" height="48" id="AnswersToReview" rx="2.5" ry="2.5" style="stroke:#181818;stroke-width:0.5;" width="147" x="633" y="1118"/><ellipse cx="648" cy="1134" fill="#ADD1B2" rx="11" ry="11" style="stroke:#181818;stroke-width:1.0;"/><path d="M650.7656,1129.875 Q650.9219,1129.6563 651.1094,1129.5469 Q651.2969,1129.4375 651.5156,1129.4375 Q651.8906,1129.4375 652.125,1129.7031 Q652.3594,1129.9531 652.3594,1130.5625 L652.3594,1132.0156 Q652.3594,1132.625 652.125,1132.8906 Q651.8906,1133.1563 651.5156,1133.1563 Q651.1719,1133.1563 650.9688,1132.9531 Q650.7656,1132.7656 650.6563,1132.25 Q650.6094,1131.8906 650.4219,1131.7031 Q650.0938,1131.3281 649.4844,1131.1094 Q648.875,1130.8906 648.25,1130.8906 Q647.4844,1130.8906 646.8438,1131.2188 Q646.2188,1131.5469 645.7188,1132.2969 Q645.2344,1133.0469 645.2344,1134.0781 L645.2344,1135.1719 Q645.2344,1136.4063 646.125,1137.2344 Q647.0156,1138.0469 648.6094,1138.0469 Q649.5469,1138.0469 650.2031,1137.7969 Q650.5938,1137.6406 651.0156,1137.2031 Q651.2813,1136.9375 651.4219,1136.8594 Q651.5781,1136.7813 651.7813,1136.7813 Q652.1094,1136.7813 652.3594,1137.0469 Q652.625,1137.2969 652.625,1137.6406 Q652.625,1137.9844 652.2813,1138.3906 Q651.7813,1138.9688 650.9844,1139.2969 Q649.9063,1139.75 648.6094,1139.75 Q647.0938,1139.75 645.8906,1139.125 Q644.9063,1138.625 644.2188,1137.5625 Q643.5313,1136.4844 643.5313,1135.2031 L643.5313,1134.0469 Q643.5313,1132.7188 644.1406,1131.5781 Q644.7656,1130.4219 645.8594,1129.8125 Q646.9531,1129.1875 648.1875,1129.1875 Q648.9219,1129.1875 649.5625,1129.3594 Q650.2188,1129.5156 650.7656,1129.875 Z " fill="#000000"/><text fill="#000000" font-family="sans-serif" font-size="14" lengthAdjust="spacing" textLength="115" x="662" y="1139.7285">AnswersToReview</text><line style="stroke:#181818;stroke-width:0.5;" x1="634" x2="779" y1="1150" y2="1150"/><line style="stroke:#181818;stroke-width:0.5;" x1="634" x2="779" y1="1158" y2="1158"/></g><!--MD5=[9d451b2f92d848a8e2d1a4dab2b1c6bf]
class Concept--><g id="elem_Concept"><rect codeLine="20" fill="#F1F1F1" height="65.6094" id="Concept" rx="2.5" ry="2.5" style="stroke:#181818;stroke-width:0.5;" width="85" x="758" y="679"/><ellipse cx="773" cy="695" fill="#ADD1B2" rx="11" ry="11" style="stroke:#181818;stroke-width:1.0;"/><path d="M775.7656,690.875 Q775.9219,690.6563 776.1094,690.5469 Q776.2969,690.4375 776.5156,690.4375 Q776.8906,690.4375 777.125,690.7031 Q777.3594,690.9531 777.3594,691.5625 L777.3594,693.0156 Q777.3594,693.625 777.125,693.8906 Q776.8906,694.1563 776.5156,694.1563 Q776.1719,694.1563 775.9688,693.9531 Q775.7656,693.7656 775.6563,693.25 Q775.6094,692.8906 775.4219,692.7031 Q775.0938,692.3281 774.4844,692.1094 Q773.875,691.8906 773.25,691.8906 Q772.4844,691.8906 771.8438,692.2188 Q771.2188,692.5469 770.7188,693.2969 Q770.2344,694.0469 770.2344,695.0781 L770.2344,696.1719 Q770.2344,697.4063 771.125,698.2344 Q772.0156,699.0469 773.6094,699.0469 Q774.5469,699.0469 775.2031,698.7969 Q775.5938,698.6406 776.0156,698.2031 Q776.2813,697.9375 776.4219,697.8594 Q776.5781,697.7813 776.7813,697.7813 Q777.1094,697.7813 777.3594,698.0469 Q777.625,698.2969 777.625,698.6406 Q777.625,698.9844 777.2813,699.3906 Q776.7813,699.9688 775.9844,700.2969 Q774.9063,700.75 773.6094,700.75 Q772.0938,700.75 770.8906,700.125 Q769.9063,699.625 769.2188,698.5625 Q768.5313,697.4844 768.5313,696.2031 L768.5313,695.0469 Q768.5313,693.7188 769.1406,692.5781 Q769.7656,691.4219 770.8594,690.8125 Q771.9531,690.1875 773.1875,690.1875 Q773.9219,690.1875 774.5625,690.3594 Q775.2188,690.5156 775.7656,690.875 Z " fill="#000000"/><text fill="#000000" font-family="sans-serif" font-size="14" lengthAdjust="spacing" textLength="53" x="787" y="700.7285">Concept</text><line style="stroke:#181818;stroke-width:0.5;" x1="759" x2="842" y1="711" y2="711"/><text fill="#000000" font-family="sans-serif" font-size="14" lengthAdjust="spacing" textLength="52" x="764" y="729.5332">keyword</text><line style="stroke:#181818;stroke-width:0.5;" x1="759" x2="842" y1="736.6094" y2="736.6094"/></g><!--MD5=[fc7123defb831ecdd44b2d9bcef6cceb]
class Question--><g id="elem_Question"><rect codeLine="24" fill="#F1F1F1" height="65.6094" id="Question" rx="2.5" ry="2.5" style="stroke:#181818;stroke-width:0.5;" width="89" x="471" y="552"/><ellipse cx="486" cy="568" fill="#ADD1B2" rx="11" ry="11" style="stroke:#181818;stroke-width:1.0;"/><path d="M488.7656,563.875 Q488.9219,563.6563 489.1094,563.5469 Q489.2969,563.4375 489.5156,563.4375 Q489.8906,563.4375 490.125,563.7031 Q490.3594,563.9531 490.3594,564.5625 L490.3594,566.0156 Q490.3594,566.625 490.125,566.8906 Q489.8906,567.1563 489.5156,567.1563 Q489.1719,567.1563 488.9688,566.9531 Q488.7656,566.7656 488.6563,566.25 Q488.6094,565.8906 488.4219,565.7031 Q488.0938,565.3281 487.4844,565.1094 Q486.875,564.8906 486.25,564.8906 Q485.4844,564.8906 484.8438,565.2188 Q484.2188,565.5469 483.7188,566.2969 Q483.2344,567.0469 483.2344,568.0781 L483.2344,569.1719 Q483.2344,570.4063 484.125,571.2344 Q485.0156,572.0469 486.6094,572.0469 Q487.5469,572.0469 488.2031,571.7969 Q488.5938,571.6406 489.0156,571.2031 Q489.2813,570.9375 489.4219,570.8594 Q489.5781,570.7813 489.7813,570.7813 Q490.1094,570.7813 490.3594,571.0469 Q490.625,571.2969 490.625,571.6406 Q490.625,571.9844 490.2813,572.3906 Q489.7813,572.9688 488.9844,573.2969 Q487.9063,573.75 486.6094,573.75 Q485.0938,573.75 483.8906,573.125 Q482.9063,572.625 482.2188,571.5625 Q481.5313,570.4844 481.5313,569.2031 L481.5313,568.0469 Q481.5313,566.7188 482.1406,565.5781 Q482.7656,564.4219 483.8594,563.8125 Q484.9531,563.1875 486.1875,563.1875 Q486.9219,563.1875 487.5625,563.3594 Q488.2188,563.5156 488.7656,563.875 Z " fill="#000000"/><text fill="#000000" font-family="sans-serif" font-size="14" lengthAdjust="spacing" textLength="57" x="500" y="573.7285">Question</text><line style="stroke:#181818;stroke-width:0.5;" x1="472" x2="559" y1="584" y2="584"/><text fill="#000000" font-family="sans-serif" font-size="14" lengthAdjust="spacing" textLength="29" x="477" y="602.5332">level</text><line style="stroke:#181818;stroke-width:0.5;" x1="472" x2="559" y1="609.6094" y2="609.6094"/></g><!--MD5=[a61a298976b7d1d94498f45c2ebfa10b]
class Statement--><g id="elem_Statement"><rect codeLine="28" fill="#F1F1F1" height="48" id="Statement" rx="2.5" ry="2.5" style="stroke:#181818;stroke-width:0.5;" width="96" x="441.5" y="688"/><ellipse cx="456.5" cy="704" fill="#ADD1B2" rx="11" ry="11" style="stroke:#181818;stroke-width:1.0;"/><path d="M459.2656,699.875 Q459.4219,699.6563 459.6094,699.5469 Q459.7969,699.4375 460.0156,699.4375 Q460.3906,699.4375 460.625,699.7031 Q460.8594,699.9531 460.8594,700.5625 L460.8594,702.0156 Q460.8594,702.625 460.625,702.8906 Q460.3906,703.1563 460.0156,703.1563 Q459.6719,703.1563 459.4688,702.9531 Q459.2656,702.7656 459.1563,702.25 Q459.1094,701.8906 458.9219,701.7031 Q458.5938,701.3281 457.9844,701.1094 Q457.375,700.8906 456.75,700.8906 Q455.9844,700.8906 455.3438,701.2188 Q454.7188,701.5469 454.2188,702.2969 Q453.7344,703.0469 453.7344,704.0781 L453.7344,705.1719 Q453.7344,706.4063 454.625,707.2344 Q455.5156,708.0469 457.1094,708.0469 Q458.0469,708.0469 458.7031,707.7969 Q459.0938,707.6406 459.5156,707.2031 Q459.7813,706.9375 459.9219,706.8594 Q460.0781,706.7813 460.2813,706.7813 Q460.6094,706.7813 460.8594,707.0469 Q461.125,707.2969 461.125,707.6406 Q461.125,707.9844 460.7813,708.3906 Q460.2813,708.9688 459.4844,709.2969 Q458.4063,709.75 457.1094,709.75 Q455.5938,709.75 454.3906,709.125 Q453.4063,708.625 452.7188,707.5625 Q452.0313,706.4844 452.0313,705.2031 L452.0313,704.0469 Q452.0313,702.7188 452.6406,701.5781 Q453.2656,700.4219 454.3594,699.8125 Q455.4531,699.1875 456.6875,699.1875 Q457.4219,699.1875 458.0625,699.3594 Q458.7188,699.5156 459.2656,699.875 Z " fill="#000000"/><text fill="#000000" font-family="sans-serif" font-size="14" lengthAdjust="spacing" textLength="64" x="470.5" y="709.7285">Statement</text><line style="stroke:#181818;stroke-width:0.5;" x1="442.5" x2="536.5" y1="720" y2="720"/><line style="stroke:#181818;stroke-width:0.5;" x1="442.5" x2="536.5" y1="728" y2="728"/></g><!--MD5=[f9fadfa5a66b7e5a67b370cd443ffe52]
class Answer--><g id="elem_Answer"><rect codeLine="30" fill="#F1F1F1" height="48" id="Answer" rx="2.5" ry="2.5" style="stroke:#181818;stroke-width:0.5;" width="78" x="96.5" y="688"/><ellipse cx="111.5" cy="704" fill="#ADD1B2" rx="11" ry="11" style="stroke:#181818;stroke-width:1.0;"/><path d="M114.2656,699.875 Q114.4219,699.6563 114.6094,699.5469 Q114.7969,699.4375 115.0156,699.4375 Q115.3906,699.4375 115.625,699.7031 Q115.8594,699.9531 115.8594,700.5625 L115.8594,702.0156 Q115.8594,702.625 115.625,702.8906 Q115.3906,703.1563 115.0156,703.1563 Q114.6719,703.1563 114.4688,702.9531 Q114.2656,702.7656 114.1563,702.25 Q114.1094,701.8906 113.9219,701.7031 Q113.5938,701.3281 112.9844,701.1094 Q112.375,700.8906 111.75,700.8906 Q110.9844,700.8906 110.3438,701.2188 Q109.7188,701.5469 109.2188,702.2969 Q108.7344,703.0469 108.7344,704.0781 L108.7344,705.1719 Q108.7344,706.4063 109.625,707.2344 Q110.5156,708.0469 112.1094,708.0469 Q113.0469,708.0469 113.7031,707.7969 Q114.0938,707.6406 114.5156,707.2031 Q114.7813,706.9375 114.9219,706.8594 Q115.0781,706.7813 115.2813,706.7813 Q115.6094,706.7813 115.8594,707.0469 Q116.125,707.2969 116.125,707.6406 Q116.125,707.9844 115.7813,708.3906 Q115.2813,708.9688 114.4844,709.2969 Q113.4063,709.75 112.1094,709.75 Q110.5938,709.75 109.3906,709.125 Q108.4063,708.625 107.7188,707.5625 Q107.0313,706.4844 107.0313,705.2031 L107.0313,704.0469 Q107.0313,702.7188 107.6406,701.5781 Q108.2656,700.4219 109.3594,699.8125 Q110.4531,699.1875 111.6875,699.1875 Q112.4219,699.1875 113.0625,699.3594 Q113.7188,699.5156 114.2656,699.875 Z " fill="#000000"/><text fill="#000000" font-family="sans-serif" font-size="14" lengthAdjust="spacing" textLength="46" x="125.5" y="709.7285">Answer</text><line style="stroke:#181818;stroke-width:0.5;" x1="97.5" x2="173.5" y1="720" y2="720"/><line style="stroke:#181818;stroke-width:0.5;" x1="97.5" x2="173.5" y1="728" y2="728"/></g><!--MD5=[f7b1256a464262a81d5827fb39e684fb]
class Open--><g id="elem_Open"><rect codeLine="32" fill="#F1F1F1" height="48" id="Open" rx="2.5" ry="2.5" style="stroke:#181818;stroke-width:0.5;" width="67" x="7" y="775"/><ellipse cx="22" cy="791" fill="#ADD1B2" rx="11" ry="11" style="stroke:#181818;stroke-width:1.0;"/><path d="M24.7656,786.875 Q24.9219,786.6563 25.1094,786.5469 Q25.2969,786.4375 25.5156,786.4375 Q25.8906,786.4375 26.125,786.7031 Q26.3594,786.9531 26.3594,787.5625 L26.3594,789.0156 Q26.3594,789.625 26.125,789.8906 Q25.8906,790.1563 25.5156,790.1563 Q25.1719,790.1563 24.9688,789.9531 Q24.7656,789.7656 24.6563,789.25 Q24.6094,788.8906 24.4219,788.7031 Q24.0938,788.3281 23.4844,788.1094 Q22.875,787.8906 22.25,787.8906 Q21.4844,787.8906 20.8438,788.2188 Q20.2188,788.5469 19.7188,789.2969 Q19.2344,790.0469 19.2344,791.0781 L19.2344,792.1719 Q19.2344,793.4063 20.125,794.2344 Q21.0156,795.0469 22.6094,795.0469 Q23.5469,795.0469 24.2031,794.7969 Q24.5938,794.6406 25.0156,794.2031 Q25.2813,793.9375 25.4219,793.8594 Q25.5781,793.7813 25.7813,793.7813 Q26.1094,793.7813 26.3594,794.0469 Q26.625,794.2969 26.625,794.6406 Q26.625,794.9844 26.2813,795.3906 Q25.7813,795.9688 24.9844,796.2969 Q23.9063,796.75 22.6094,796.75 Q21.0938,796.75 19.8906,796.125 Q18.9063,795.625 18.2188,794.5625 Q17.5313,793.4844 17.5313,792.2031 L17.5313,791.0469 Q17.5313,789.7188 18.1406,788.5781 Q18.7656,787.4219 19.8594,786.8125 Q20.9531,786.1875 22.1875,786.1875 Q22.9219,786.1875 23.5625,786.3594 Q24.2188,786.5156 24.7656,786.875 Z " fill="#000000"/><text fill="#000000" font-family="sans-serif" font-size="14" lengthAdjust="spacing" textLength="35" x="36" y="796.7285">Open</text><line style="stroke:#181818;stroke-width:0.5;" x1="8" x2="73" y1="807" y2="807"/><line style="stroke:#181818;stroke-width:0.5;" x1="8" x2="73" y1="815" y2="815"/></g><!--MD5=[210f05ad84ecfe37f8378e5618b7165d]
class MultipleChoice--><g id="elem_MultipleChoice"><rect codeLine="34" fill="#F1F1F1" height="48" id="MultipleChoice" rx="2.5" ry="2.5" style="stroke:#181818;stroke-width:0.5;" width="124" x="282.5" y="688"/><ellipse cx="297.5" cy="704" fill="#ADD1B2" rx="11" ry="11" style="stroke:#181818;stroke-width:1.0;"/><path d="M300.2656,699.875 Q300.4219,699.6563 300.6094,699.5469 Q300.7969,699.4375 301.0156,699.4375 Q301.3906,699.4375 301.625,699.7031 Q301.8594,699.9531 301.8594,700.5625 L301.8594,702.0156 Q301.8594,702.625 301.625,702.8906 Q301.3906,703.1563 301.0156,703.1563 Q300.6719,703.1563 300.4688,702.9531 Q300.2656,702.7656 300.1563,702.25 Q300.1094,701.8906 299.9219,701.7031 Q299.5938,701.3281 298.9844,701.1094 Q298.375,700.8906 297.75,700.8906 Q296.9844,700.8906 296.3438,701.2188 Q295.7188,701.5469 295.2188,702.2969 Q294.7344,703.0469 294.7344,704.0781 L294.7344,705.1719 Q294.7344,706.4063 295.625,707.2344 Q296.5156,708.0469 298.1094,708.0469 Q299.0469,708.0469 299.7031,707.7969 Q300.0938,707.6406 300.5156,707.2031 Q300.7813,706.9375 300.9219,706.8594 Q301.0781,706.7813 301.2813,706.7813 Q301.6094,706.7813 301.8594,707.0469 Q302.125,707.2969 302.125,707.6406 Q302.125,707.9844 301.7813,708.3906 Q301.2813,708.9688 300.4844,709.2969 Q299.4063,709.75 298.1094,709.75 Q296.5938,709.75 295.3906,709.125 Q294.4063,708.625 293.7188,707.5625 Q293.0313,706.4844 293.0313,705.2031 L293.0313,704.0469 Q293.0313,702.7188 293.6406,701.5781 Q294.2656,700.4219 295.3594,699.8125 Q296.4531,699.1875 297.6875,699.1875 Q298.4219,699.1875 299.0625,699.3594 Q299.7188,699.5156 300.2656,699.875 Z " fill="#000000"/><text fill="#000000" font-family="sans-serif" font-size="14" lengthAdjust="spacing" textLength="92" x="311.5" y="709.7285">MultipleChoice</text><line style="stroke:#181818;stroke-width:0.5;" x1="283.5" x2="405.5" y1="720" y2="720"/><line style="stroke:#181818;stroke-width:0.5;" x1="283.5" x2="405.5" y1="728" y2="728"/></g><!--MD5=[b07065dfc0d0e09965ec10bfc328bb3e]
class Option--><g id="elem_Option"><rect codeLine="36" fill="#F1F1F1" height="48" id="Option" rx="2.5" ry="2.5" style="stroke:#181818;stroke-width:0.5;" width="74" x="394.5" y="853"/><ellipse cx="409.5" cy="869" fill="#ADD1B2" rx="11" ry="11" style="stroke:#181818;stroke-width:1.0;"/><path d="M412.2656,864.875 Q412.4219,864.6563 412.6094,864.5469 Q412.7969,864.4375 413.0156,864.4375 Q413.3906,864.4375 413.625,864.7031 Q413.8594,864.9531 413.8594,865.5625 L413.8594,867.0156 Q413.8594,867.625 413.625,867.8906 Q413.3906,868.1563 413.0156,868.1563 Q412.6719,868.1563 412.4688,867.9531 Q412.2656,867.7656 412.1563,867.25 Q412.1094,866.8906 411.9219,866.7031 Q411.5938,866.3281 410.9844,866.1094 Q410.375,865.8906 409.75,865.8906 Q408.9844,865.8906 408.3438,866.2188 Q407.7188,866.5469 407.2188,867.2969 Q406.7344,868.0469 406.7344,869.0781 L406.7344,870.1719 Q406.7344,871.4063 407.625,872.2344 Q408.5156,873.0469 410.1094,873.0469 Q411.0469,873.0469 411.7031,872.7969 Q412.0938,872.6406 412.5156,872.2031 Q412.7813,871.9375 412.9219,871.8594 Q413.0781,871.7813 413.2813,871.7813 Q413.6094,871.7813 413.8594,872.0469 Q414.125,872.2969 414.125,872.6406 Q414.125,872.9844 413.7813,873.3906 Q413.2813,873.9688 412.4844,874.2969 Q411.4063,874.75 410.1094,874.75 Q408.5938,874.75 407.3906,874.125 Q406.4063,873.625 405.7188,872.5625 Q405.0313,871.4844 405.0313,870.2031 L405.0313,869.0469 Q405.0313,867.7188 405.6406,866.5781 Q406.2656,865.4219 407.3594,864.8125 Q408.4531,864.1875 409.6875,864.1875 Q410.4219,864.1875 411.0625,864.3594 Q411.7188,864.5156 412.2656,864.875 Z " fill="#000000"/><text fill="#000000" font-family="sans-serif" font-size="14" lengthAdjust="spacing" textLength="42" x="423.5" y="874.7285">Option</text><line style="stroke:#181818;stroke-width:0.5;" x1="395.5" x2="467.5" y1="885" y2="885"/><line style="stroke:#181818;stroke-width:0.5;" x1="395.5" x2="467.5" y1="893" y2="893"/></g><!--MD5=[bc629657279eaa9349f412646650f2c5]
class Correct--><g id="elem_Correct"><rect codeLine="38" fill="#F1F1F1" height="48" id="Correct" rx="2.5" ry="2.5" style="stroke:#181818;stroke-width:0.5;" width="79" x="313" y="1009"/><ellipse cx="328" cy="1025" fill="#ADD1B2" rx="11" ry="11" style="stroke:#181818;stroke-width:1.0;"/><path d="M330.7656,1020.875 Q330.9219,1020.6563 331.1094,1020.5469 Q331.2969,1020.4375 331.5156,1020.4375 Q331.8906,1020.4375 332.125,1020.7031 Q332.3594,1020.9531 332.3594,1021.5625 L332.3594,1023.0156 Q332.3594,1023.625 332.125,1023.8906 Q331.8906,1024.1563 331.5156,1024.1563 Q331.1719,1024.1563 330.9688,1023.9531 Q330.7656,1023.7656 330.6563,1023.25 Q330.6094,1022.8906 330.4219,1022.7031 Q330.0938,1022.3281 329.4844,1022.1094 Q328.875,1021.8906 328.25,1021.8906 Q327.4844,1021.8906 326.8438,1022.2188 Q326.2188,1022.5469 325.7188,1023.2969 Q325.2344,1024.0469 325.2344,1025.0781 L325.2344,1026.1719 Q325.2344,1027.4063 326.125,1028.2344 Q327.0156,1029.0469 328.6094,1029.0469 Q329.5469,1029.0469 330.2031,1028.7969 Q330.5938,1028.6406 331.0156,1028.2031 Q331.2813,1027.9375 331.4219,1027.8594 Q331.5781,1027.7813 331.7813,1027.7813 Q332.1094,1027.7813 332.3594,1028.0469 Q332.625,1028.2969 332.625,1028.6406 Q332.625,1028.9844 332.2813,1029.3906 Q331.7813,1029.9688 330.9844,1030.2969 Q329.9063,1030.75 328.6094,1030.75 Q327.0938,1030.75 325.8906,1030.125 Q324.9063,1029.625 324.2188,1028.5625 Q323.5313,1027.4844 323.5313,1026.2031 L323.5313,1025.0469 Q323.5313,1023.7188 324.1406,1022.5781 Q324.7656,1021.4219 325.8594,1020.8125 Q326.9531,1020.1875 328.1875,1020.1875 Q328.9219,1020.1875 329.5625,1020.3594 Q330.2188,1020.5156 330.7656,1020.875 Z " fill="#000000"/><text fill="#000000" font-family="sans-serif" font-size="14" lengthAdjust="spacing" textLength="47" x="342" y="1030.7285">Correct</text><line style="stroke:#181818;stroke-width:0.5;" x1="314" x2="391" y1="1041" y2="1041"/><line style="stroke:#181818;stroke-width:0.5;" x1="314" x2="391" y1="1049" y2="1049"/></g><!--MD5=[37923dc032bbfca87d4413e584fa2cda]
class Incorrect--><g id="elem_Incorrect"><rect codeLine="40" fill="#F1F1F1" height="48" id="Incorrect" rx="2.5" ry="2.5" style="stroke:#181818;stroke-width:0.5;" width="87" x="438" y="1009"/><ellipse cx="453" cy="1025" fill="#ADD1B2" rx="11" ry="11" style="stroke:#181818;stroke-width:1.0;"/><path d="M455.7656,1020.875 Q455.9219,1020.6563 456.1094,1020.5469 Q456.2969,1020.4375 456.5156,1020.4375 Q456.8906,1020.4375 457.125,1020.7031 Q457.3594,1020.9531 457.3594,1021.5625 L457.3594,1023.0156 Q457.3594,1023.625 457.125,1023.8906 Q456.8906,1024.1563 456.5156,1024.1563 Q456.1719,1024.1563 455.9688,1023.9531 Q455.7656,1023.7656 455.6563,1023.25 Q455.6094,1022.8906 455.4219,1022.7031 Q455.0938,1022.3281 454.4844,1022.1094 Q453.875,1021.8906 453.25,1021.8906 Q452.4844,1021.8906 451.8438,1022.2188 Q451.2188,1022.5469 450.7188,1023.2969 Q450.2344,1024.0469 450.2344,1025.0781 L450.2344,1026.1719 Q450.2344,1027.4063 451.125,1028.2344 Q452.0156,1029.0469 453.6094,1029.0469 Q454.5469,1029.0469 455.2031,1028.7969 Q455.5938,1028.6406 456.0156,1028.2031 Q456.2813,1027.9375 456.4219,1027.8594 Q456.5781,1027.7813 456.7813,1027.7813 Q457.1094,1027.7813 457.3594,1028.0469 Q457.625,1028.2969 457.625,1028.6406 Q457.625,1028.9844 457.2813,1029.3906 Q456.7813,1029.9688 455.9844,1030.2969 Q454.9063,1030.75 453.6094,1030.75 Q452.0938,1030.75 450.8906,1030.125 Q449.9063,1029.625 449.2188,1028.5625 Q448.5313,1027.4844 448.5313,1026.2031 L448.5313,1025.0469 Q448.5313,1023.7188 449.1406,1022.5781 Q449.7656,1021.4219 450.8594,1020.8125 Q451.9531,1020.1875 453.1875,1020.1875 Q453.9219,1020.1875 454.5625,1020.3594 Q455.2188,1020.5156 455.7656,1020.875 Z " fill="#000000"/><text fill="#000000" font-family="sans-serif" font-size="14" lengthAdjust="spacing" textLength="55" x="467" y="1030.7285">Incorrect</text><line style="stroke:#181818;stroke-width:0.5;" x1="439" x2="524" y1="1041" y2="1041"/><line style="stroke:#181818;stroke-width:0.5;" x1="439" x2="524" y1="1049" y2="1049"/></g><!--MD5=[7a7df4cc8beee4d5ec4845ad980cbb28]
class OpenField--><g id="elem_OpenField"><rect codeLine="42" fill="#F1F1F1" height="48" id="OpenField" rx="2.5" ry="2.5" style="stroke:#181818;stroke-width:0.5;" width="98" x="56.5" y="1227"/><ellipse cx="71.5" cy="1243" fill="#ADD1B2" rx="11" ry="11" style="stroke:#181818;stroke-width:1.0;"/><path d="M74.2656,1238.875 Q74.4219,1238.6563 74.6094,1238.5469 Q74.7969,1238.4375 75.0156,1238.4375 Q75.3906,1238.4375 75.625,1238.7031 Q75.8594,1238.9531 75.8594,1239.5625 L75.8594,1241.0156 Q75.8594,1241.625 75.625,1241.8906 Q75.3906,1242.1563 75.0156,1242.1563 Q74.6719,1242.1563 74.4688,1241.9531 Q74.2656,1241.7656 74.1563,1241.25 Q74.1094,1240.8906 73.9219,1240.7031 Q73.5938,1240.3281 72.9844,1240.1094 Q72.375,1239.8906 71.75,1239.8906 Q70.9844,1239.8906 70.3438,1240.2188 Q69.7188,1240.5469 69.2188,1241.2969 Q68.7344,1242.0469 68.7344,1243.0781 L68.7344,1244.1719 Q68.7344,1245.4063 69.625,1246.2344 Q70.5156,1247.0469 72.1094,1247.0469 Q73.0469,1247.0469 73.7031,1246.7969 Q74.0938,1246.6406 74.5156,1246.2031 Q74.7813,1245.9375 74.9219,1245.8594 Q75.0781,1245.7813 75.2813,1245.7813 Q75.6094,1245.7813 75.8594,1246.0469 Q76.125,1246.2969 76.125,1246.6406 Q76.125,1246.9844 75.7813,1247.3906 Q75.2813,1247.9688 74.4844,1248.2969 Q73.4063,1248.75 72.1094,1248.75 Q70.5938,1248.75 69.3906,1248.125 Q68.4063,1247.625 67.7188,1246.5625 Q67.0313,1245.4844 67.0313,1244.2031 L67.0313,1243.0469 Q67.0313,1241.7188 67.6406,1240.5781 Q68.2656,1239.4219 69.3594,1238.8125 Q70.4531,1238.1875 71.6875,1238.1875 Q72.4219,1238.1875 73.0625,1238.3594 Q73.7188,1238.5156 74.2656,1238.875 Z " fill="#000000"/><text fill="#000000" font-family="sans-serif" font-size="14" lengthAdjust="spacing" textLength="66" x="85.5" y="1248.7285">OpenField</text><line style="stroke:#181818;stroke-width:0.5;" x1="57.5" x2="153.5" y1="1259" y2="1259"/><line style="stroke:#181818;stroke-width:0.5;" x1="57.5" x2="153.5" y1="1267" y2="1267"/></g><!--MD5=[bed984ae8b00ce24eb0f64fea27a6507]
class SelectedOption--><g id="elem_SelectedOption"><rect codeLine="44" fill="#F1F1F1" height="48" id="SelectedOption" rx="2.5" ry="2.5" style="stroke:#181818;stroke-width:0.5;" width="129" x="159" y="853"/><ellipse cx="174" cy="869" fill="#ADD1B2" rx="11" ry="11" style="stroke:#181818;stroke-width:1.0;"/><path d="M176.7656,864.875 Q176.9219,864.6563 177.1094,864.5469 Q177.2969,864.4375 177.5156,864.4375 Q177.8906,864.4375 178.125,864.7031 Q178.3594,864.9531 178.3594,865.5625 L178.3594,867.0156 Q178.3594,867.625 178.125,867.8906 Q177.8906,868.1563 177.5156,868.1563 Q177.1719,868.1563 176.9688,867.9531 Q176.7656,867.7656 176.6563,867.25 Q176.6094,866.8906 176.4219,866.7031 Q176.0938,866.3281 175.4844,866.1094 Q174.875,865.8906 174.25,865.8906 Q173.4844,865.8906 172.8438,866.2188 Q172.2188,866.5469 171.7188,867.2969 Q171.2344,868.0469 171.2344,869.0781 L171.2344,870.1719 Q171.2344,871.4063 172.125,872.2344 Q173.0156,873.0469 174.6094,873.0469 Q175.5469,873.0469 176.2031,872.7969 Q176.5938,872.6406 177.0156,872.2031 Q177.2813,871.9375 177.4219,871.8594 Q177.5781,871.7813 177.7813,871.7813 Q178.1094,871.7813 178.3594,872.0469 Q178.625,872.2969 178.625,872.6406 Q178.625,872.9844 178.2813,873.3906 Q177.7813,873.9688 176.9844,874.2969 Q175.9063,874.75 174.6094,874.75 Q173.0938,874.75 171.8906,874.125 Q170.9063,873.625 170.2188,872.5625 Q169.5313,871.4844 169.5313,870.2031 L169.5313,869.0469 Q169.5313,867.7188 170.1406,866.5781 Q170.7656,865.4219 171.8594,864.8125 Q172.9531,864.1875 174.1875,864.1875 Q174.9219,864.1875 175.5625,864.3594 Q176.2188,864.5156 176.7656,864.875 Z " fill="#000000"/><text fill="#000000" font-family="sans-serif" font-size="14" lengthAdjust="spacing" textLength="97" x="188" y="874.7285">SelectedOption</text><line style="stroke:#181818;stroke-width:0.5;" x1="160" x2="287" y1="885" y2="885"/><line style="stroke:#181818;stroke-width:0.5;" x1="160" x2="287" y1="893" y2="893"/></g><!--MD5=[af22135d5be6ed11ccd2d02fa51653b3]
class Definition--><g id="elem_Definition"><rect fill="#F1F1F1" height="48" id="Definition" rx="2.5" ry="2.5" style="stroke:#181818;stroke-width:0.5;" width="91" x="724" y="853"/><ellipse cx="739" cy="869" fill="#ADD1B2" rx="11" ry="11" style="stroke:#181818;stroke-width:1.0;"/><path d="M741.7656,864.875 Q741.9219,864.6563 742.1094,864.5469 Q742.2969,864.4375 742.5156,864.4375 Q742.8906,864.4375 743.125,864.7031 Q743.3594,864.9531 743.3594,865.5625 L743.3594,867.0156 Q743.3594,867.625 743.125,867.8906 Q742.8906,868.1563 742.5156,868.1563 Q742.1719,868.1563 741.9688,867.9531 Q741.7656,867.7656 741.6563,867.25 Q741.6094,866.8906 741.4219,866.7031 Q741.0938,866.3281 740.4844,866.1094 Q739.875,865.8906 739.25,865.8906 Q738.4844,865.8906 737.8438,866.2188 Q737.2188,866.5469 736.7188,867.2969 Q736.2344,868.0469 736.2344,869.0781 L736.2344,870.1719 Q736.2344,871.4063 737.125,872.2344 Q738.0156,873.0469 739.6094,873.0469 Q740.5469,873.0469 741.2031,872.7969 Q741.5938,872.6406 742.0156,872.2031 Q742.2813,871.9375 742.4219,871.8594 Q742.5781,871.7813 742.7813,871.7813 Q743.1094,871.7813 743.3594,872.0469 Q743.625,872.2969 743.625,872.6406 Q743.625,872.9844 743.2813,873.3906 Q742.7813,873.9688 741.9844,874.2969 Q740.9063,874.75 739.6094,874.75 Q738.0938,874.75 736.8906,874.125 Q735.9063,873.625 735.2188,872.5625 Q734.5313,871.4844 734.5313,870.2031 L734.5313,869.0469 Q734.5313,867.7188 735.1406,866.5781 Q735.7656,865.4219 736.8594,864.8125 Q737.9531,864.1875 739.1875,864.1875 Q739.9219,864.1875 740.5625,864.3594 Q741.2188,864.5156 741.7656,864.875 Z " fill="#000000"/><text fill="#000000" font-family="sans-serif" font-size="14" lengthAdjust="spacing" textLength="59" x="753" y="874.7285">Definition</text><line style="stroke:#181818;stroke-width:0.5;" x1="725" x2="814" y1="885" y2="885"/><line style="stroke:#181818;stroke-width:0.5;" x1="725" x2="814" y1="893" y2="893"/></g><!--MD5=[9b4de504215638550a8bb9c080b7ee00]
class Justification--><g id="elem_Justification"><rect fill="#F1F1F1" height="48" id="Justification" rx="2.5" ry="2.5" style="stroke:#181818;stroke-width:0.5;" width="105" x="795" y="1009"/><ellipse cx="810" cy="1025" fill="#ADD1B2" rx="11" ry="11" style="stroke:#181818;stroke-width:1.0;"/><path d="M812.7656,1020.875 Q812.9219,1020.6563 813.1094,1020.5469 Q813.2969,1020.4375 813.5156,1020.4375 Q813.8906,1020.4375 814.125,1020.7031 Q814.3594,1020.9531 814.3594,1021.5625 L814.3594,1023.0156 Q814.3594,1023.625 814.125,1023.8906 Q813.8906,1024.1563 813.5156,1024.1563 Q813.1719,1024.1563 812.9688,1023.9531 Q812.7656,1023.7656 812.6563,1023.25 Q812.6094,1022.8906 812.4219,1022.7031 Q812.0938,1022.3281 811.4844,1022.1094 Q810.875,1021.8906 810.25,1021.8906 Q809.4844,1021.8906 808.8438,1022.2188 Q808.2188,1022.5469 807.7188,1023.2969 Q807.2344,1024.0469 807.2344,1025.0781 L807.2344,1026.1719 Q807.2344,1027.4063 808.125,1028.2344 Q809.0156,1029.0469 810.6094,1029.0469 Q811.5469,1029.0469 812.2031,1028.7969 Q812.5938,1028.6406 813.0156,1028.2031 Q813.2813,1027.9375 813.4219,1027.8594 Q813.5781,1027.7813 813.7813,1027.7813 Q814.1094,1027.7813 814.3594,1028.0469 Q814.625,1028.2969 814.625,1028.6406 Q814.625,1028.9844 814.2813,1029.3906 Q813.7813,1029.9688 812.9844,1030.2969 Q811.9063,1030.75 810.6094,1030.75 Q809.0938,1030.75 807.8906,1030.125 Q806.9063,1029.625 806.2188,1028.5625 Q805.5313,1027.4844 805.5313,1026.2031 L805.5313,1025.0469 Q805.5313,1023.7188 806.1406,1022.5781 Q806.7656,1021.4219 807.8594,1020.8125 Q808.9531,1020.1875 810.1875,1020.1875 Q810.9219,1020.1875 811.5625,1020.3594 Q812.2188,1020.5156 812.7656,1020.875 Z " fill="#000000"/><text fill="#000000" font-family="sans-serif" font-size="14" lengthAdjust="spacing" textLength="73" x="824" y="1030.7285">Justification</text><line style="stroke:#181818;stroke-width:0.5;" x1="796" x2="899" y1="1041" y2="1041"/><line style="stroke:#181818;stroke-width:0.5;" x1="796" x2="899" y1="1049" y2="1049"/></g><!--MD5=[b355d11dc5a9142e22f9a644da54834e]
class Explication--><g id="elem_Explication"><rect fill="#F1F1F1" height="48" id="Explication" rx="2.5" ry="2.5" style="stroke:#181818;stroke-width:0.5;" width="99" x="945" y="1118"/><ellipse cx="960" cy="1134" fill="#ADD1B2" rx="11" ry="11" style="stroke:#181818;stroke-width:1.0;"/><path d="M962.7656,1129.875 Q962.9219,1129.6563 963.1094,1129.5469 Q963.2969,1129.4375 963.5156,1129.4375 Q963.8906,1129.4375 964.125,1129.7031 Q964.3594,1129.9531 964.3594,1130.5625 L964.3594,1132.0156 Q964.3594,1132.625 964.125,1132.8906 Q963.8906,1133.1563 963.5156,1133.1563 Q963.1719,1133.1563 962.9688,1132.9531 Q962.7656,1132.7656 962.6563,1132.25 Q962.6094,1131.8906 962.4219,1131.7031 Q962.0938,1131.3281 961.4844,1131.1094 Q960.875,1130.8906 960.25,1130.8906 Q959.4844,1130.8906 958.8438,1131.2188 Q958.2188,1131.5469 957.7188,1132.2969 Q957.2344,1133.0469 957.2344,1134.0781 L957.2344,1135.1719 Q957.2344,1136.4063 958.125,1137.2344 Q959.0156,1138.0469 960.6094,1138.0469 Q961.5469,1138.0469 962.2031,1137.7969 Q962.5938,1137.6406 963.0156,1137.2031 Q963.2813,1136.9375 963.4219,1136.8594 Q963.5781,1136.7813 963.7813,1136.7813 Q964.1094,1136.7813 964.3594,1137.0469 Q964.625,1137.2969 964.625,1137.6406 Q964.625,1137.9844 964.2813,1138.3906 Q963.7813,1138.9688 962.9844,1139.2969 Q961.9063,1139.75 960.6094,1139.75 Q959.0938,1139.75 957.8906,1139.125 Q956.9063,1138.625 956.2188,1137.5625 Q955.5313,1136.4844 955.5313,1135.2031 L955.5313,1134.0469 Q955.5313,1132.7188 956.1406,1131.5781 Q956.7656,1130.4219 957.8594,1129.8125 Q958.9531,1129.1875 960.1875,1129.1875 Q960.9219,1129.1875 961.5625,1129.3594 Q962.2188,1129.5156 962.7656,1129.875 Z " fill="#000000"/><text fill="#000000" font-family="sans-serif" font-size="14" lengthAdjust="spacing" textLength="67" x="974" y="1139.7285">Explication</text><line style="stroke:#181818;stroke-width:0.5;" x1="946" x2="1043" y1="1150" y2="1150"/><line style="stroke:#181818;stroke-width:0.5;" x1="946" x2="1043" y1="1158" y2="1158"/></g><!--MD5=[534474e9f05b14d7c70186ae077f30e0]
class Relation--><g id="elem_Relation"><rect fill="#F1F1F1" height="48" id="Relation" rx="2.5" ry="2.5" style="stroke:#181818;stroke-width:0.5;" width="84" x="853.5" y="931"/><ellipse cx="868.5" cy="947" fill="#ADD1B2" rx="11" ry="11" style="stroke:#181818;stroke-width:1.0;"/><path d="M871.2656,942.875 Q871.4219,942.6563 871.6094,942.5469 Q871.7969,942.4375 872.0156,942.4375 Q872.3906,942.4375 872.625,942.7031 Q872.8594,942.9531 872.8594,943.5625 L872.8594,945.0156 Q872.8594,945.625 872.625,945.8906 Q872.3906,946.1563 872.0156,946.1563 Q871.6719,946.1563 871.4688,945.9531 Q871.2656,945.7656 871.1563,945.25 Q871.1094,944.8906 870.9219,944.7031 Q870.5938,944.3281 869.9844,944.1094 Q869.375,943.8906 868.75,943.8906 Q867.9844,943.8906 867.3438,944.2188 Q866.7188,944.5469 866.2188,945.2969 Q865.7344,946.0469 865.7344,947.0781 L865.7344,948.1719 Q865.7344,949.4063 866.625,950.2344 Q867.5156,951.0469 869.1094,951.0469 Q870.0469,951.0469 870.7031,950.7969 Q871.0938,950.6406 871.5156,950.2031 Q871.7813,949.9375 871.9219,949.8594 Q872.0781,949.7813 872.2813,949.7813 Q872.6094,949.7813 872.8594,950.0469 Q873.125,950.2969 873.125,950.6406 Q873.125,950.9844 872.7813,951.3906 Q872.2813,951.9688 871.4844,952.2969 Q870.4063,952.75 869.1094,952.75 Q867.5938,952.75 866.3906,952.125 Q865.4063,951.625 864.7188,950.5625 Q864.0313,949.4844 864.0313,948.2031 L864.0313,947.0469 Q864.0313,945.7188 864.6406,944.5781 Q865.2656,943.4219 866.3594,942.8125 Q867.4531,942.1875 868.6875,942.1875 Q869.4219,942.1875 870.0625,942.3594 Q870.7188,942.5156 871.2656,942.875 Z " fill="#000000"/><text fill="#000000" font-family="sans-serif" font-size="14" lengthAdjust="spacing" textLength="52" x="882.5" y="952.7285">Relation</text><line style="stroke:#181818;stroke-width:0.5;" x1="854.5" x2="936.5" y1="963" y2="963"/><line style="stroke:#181818;stroke-width:0.5;" x1="854.5" x2="936.5" y1="971" y2="971"/></g><!--MD5=[8235d596e40eaa310e25cb7e3d92ec72]
reverse link Community to User--><g id="link_Community_User"><path codeLine="47" d="M844.29,65.47 C830.98,81.83 815.3,101.11 803.34,115.83 " fill="none" id="Community-backto-User" style="stroke:#181818;stroke-width:1.0;"/><polygon fill="#181818" points="852.62,55.22,845.7313,57.3521,845.0499,64.5309,851.9386,62.3988,852.62,55.22" style="stroke:#181818;stroke-width:1.0;"/><text fill="#000000" font-family="sans-serif" font-size="13" lengthAdjust="spacing" textLength="22" x="783.349" y="105.1266">2..n</text></g><!--MD5=[8b55897a5ea9705e017b96a45c367fde]
reverse link Community to Category--><g id="link_Community_Category"><path codeLine="48" d="M918.43,63.29 C940.7,82.16 962.5,108.44 962.5,139 C962.5,139 962.5,139 962.5,713 C962.5,762.82 964.39,821.18 965.57,852.79 " fill="none" id="Community-backto-Category" style="stroke:#181818;stroke-width:1.0;"/><polygon fill="none" points="908.25,55.16,910.4411,62.0301,917.6256,62.6499,915.4344,55.7798,908.25,55.16" style="stroke:#181818;stroke-width:1.0;"/><text fill="#000000" font-family="sans-serif" font-size="13" lengthAdjust="spacing" textLength="22" x="940.5129" y="842.0763">0..n</text></g><!--MD5=[c98fdacbcd4eb224c2d9d26b53646e58]
reverse link Category to Category--><g id="link_Category_Category"><path codeLine="50" d="M1025.1,862.85 C1037.53,864.28 1046.5,869 1046.5,877 C1046.5,887.66 1030.55,892.5 1011.73,891.5 " fill="none" id="Category-backto-Category" style="stroke:#181818;stroke-width:1.0;"/><polygon fill="none" points="1011.73,862.5,1017.6225,866.6568,1023.7258,862.8164,1017.8334,858.6596,1011.73,862.5" style="stroke:#181818;stroke-width:1.0;"/><text fill="#000000" font-family="sans-serif" font-size="13" lengthAdjust="spacing" textLength="83" x="1052.5" y="882.4951">Subcategories</text><text fill="#000000" font-family="sans-serif" font-size="13" lengthAdjust="spacing" textLength="22" x="1019.6373" y="889.9339">0..n</text></g><!--MD5=[d87c224b488f6c9759d0a77cb4053101]
reverse link User to Teacher--><g id="link_User_Teacher"><path codeLine="52" d="M784.5,184.58 C784.5,198.36 784.5,213.06 784.5,224.83 " fill="none" id="User-backto-Teacher" style="stroke:#181818;stroke-width:1.0;"/><polygon fill="none" points="777.5,184.22,784.5,164.22,791.5,184.22,777.5,184.22" style="stroke:#181818;stroke-width:1.0;"/></g><!--MD5=[29fe19ce294944fa80f389ae9bd987a4]
reverse link User to Student--><g id="link_User_Student"><path codeLine="53" d="M743.18,177.54 C725.47,193.2 705.31,211.03 689.7,224.83 " fill="none" id="User-backto-Student" style="stroke:#181818;stroke-width:1.0;"/><polygon fill="none" points="738.63,172.22,758.24,164.22,747.9,182.71,738.63,172.22" style="stroke:#181818;stroke-width:1.0;"/></g><!--MD5=[a8afb83bcf8ff3e1e4f8554b4cb258ee]
link Teacher to Concept--><g id="link_Teacher_Concept"><path codeLine="55" d="M786.56,273.36 C788.3,295.02 790.5,328.16 790.5,357 C790.5,357 790.5,357 790.5,586 C790.5,615.57 793.32,648.96 795.96,673.78 " fill="none" id="Teacher-to-Concept" style="stroke:#181818;stroke-width:1.0;"/><polygon fill="#181818" points="796.52,678.94,799.5194,669.559,795.9772,673.9695,791.5667,670.4274,796.52,678.94" style="stroke:#181818;stroke-width:1.0;"/><text fill="#000000" font-family="sans-serif" font-size="13" lengthAdjust="spacing" textLength="22" x="771.4304" y="668.043">0..n</text></g><!--MD5=[f4125322de8968b604c5431ed9c8902a]
link Concept to Category--><g id="link_Concept_Category"><path codeLine="56" d="M843.19,736.51 C860.2,747.02 879.3,760.34 894.5,775 C914.94,794.71 933.42,820.91 946.54,841.69 " fill="none" id="Concept-to-Category" style="stroke:#181818;stroke-width:1.0;"/><polygon fill="none" points="953.44,852.9,953.7015,845.6936,947.1501,842.6806,946.8886,849.8869,953.44,852.9" style="stroke:#181818;stroke-width:1.0;"/></g><!--MD5=[ed083f2d1ee1d19af9b715a82f936d84]
link Question to Concept--><g id="link_Question_Concept"><path codeLine="57" d="M560.09,604.97 C603.65,623.58 671.79,652.89 730.5,679 C735.51,681.23 740.72,683.57 745.93,685.92 " fill="none" id="Question-to-Concept" style="stroke:#181818;stroke-width:1.0;"/><polygon fill="none" points="757.99,691.4,754.1841,685.275,747.0665,686.4324,750.8724,692.5574,757.99,691.4" style="stroke:#181818;stroke-width:1.0;"/></g><!--MD5=[543bb2115b5a10697a67507a00f6a2f4]
reverse link Concept to Definition--><g id="link_Concept_Definition"><path codeLine="58" d="M791.9,758.19 C786.06,788.91 778.58,828.27 773.91,852.81 " fill="none" id="Concept-backto-Definition" style="stroke:#181818;stroke-width:1.0;"/><polygon fill="none" points="794.38,745.2,789.3296,750.3471,792.1383,756.9888,797.1887,751.8416,794.38,745.2" style="stroke:#181818;stroke-width:1.0;"/></g><!--MD5=[38796b68b5180f699f927fbe8d179b6a]
reverse link Definition to Justification--><g id="link_Definition_Justification"><path codeLine="59" d="M787.14,912.83 C802,942.17 822.84,983.32 835.74,1008.79 " fill="none" id="Definition-backto-Justification" style="stroke:#181818;stroke-width:1.0;"/><polygon fill="none" points="781.18,901.06,780.3207,908.2197,786.5992,911.7666,787.4585,904.6069,781.18,901.06" style="stroke:#181818;stroke-width:1.0;"/></g><!--MD5=[5b13a3dd25e80832e08dfc192ea141c9]
reverse link Justification to Explication--><g id="link_Justification_Explication"><path codeLine="60" d="M889.98,1064.92 C913.17,1081.8 941.39,1102.34 962.67,1117.83 " fill="none" id="Justification-backto-Explication" style="stroke:#181818;stroke-width:1.0;"/><polygon fill="none" points="879.4,1057.22,881.9014,1063.9834,889.1065,1064.2757,886.6052,1057.5123,879.4,1057.22" style="stroke:#181818;stroke-width:1.0;"/></g><!--MD5=[54f9360500e0fd532969fc16f437bbea]
reverse link Concept to Relation--><g id="link_Concept_Relation"><path codeLine="61" d="M817.97,757.32 C838.18,808.58 870.67,891.01 886.39,930.9 " fill="none" id="Concept-backto-Relation" style="stroke:#181818;stroke-width:1.0;"/><polygon fill="none" points="813.12,745,811.5999,752.0491,817.5221,756.1634,819.0422,749.1143,813.12,745" style="stroke:#181818;stroke-width:1.0;"/></g><!--MD5=[a87ccfb1ad401ebc9457283edda68da5]
link Student to Evaluation--><g id="link_Student_Evaluation"><path codeLine="63" d="M654.82,273.22 C648.69,289.62 640.44,311.69 633.94,329.06 " fill="none" id="Student-to-Evaluation" style="stroke:#181818;stroke-width:1.0;"/><polygon fill="#181818" points="632.16,333.83,639.0654,326.8075,633.9156,329.1484,631.5748,323.9985,632.16,333.83" style="stroke:#181818;stroke-width:1.0;"/><text fill="#000000" font-family="sans-serif" font-size="13" lengthAdjust="spacing" textLength="22" x="609.5604" y="323.1266">0..n</text></g><!--MD5=[7ea0c49f743e358ac875b85df2ad47d3]
link Evaluation to Test--><g id="link_Evaluation_Test"><path codeLine="64" d="M617.42,382.22 C613.17,398.48 607.45,420.32 602.93,437.62 " fill="none" id="Evaluation-to-Test" style="stroke:#181818;stroke-width:1.0;"/><polygon fill="#181818" points="601.56,442.83,607.6986,435.1282,602.8198,437.9913,599.9566,433.1125,601.56,442.83" style="stroke:#181818;stroke-width:1.0;"/></g><!--MD5=[a2e747a1485550e1f078495d463b7eef]
link Evaluation to Result--><g id="link_Evaluation_Result"><path codeLine="65" d="M595.51,382.22 C575.14,399.11 547.53,422.02 526.32,439.61 " fill="none" id="Evaluation-to-Result" style="stroke:#181818;stroke-width:1.0;"/><polygon fill="#181818" points="522.44,442.83,531.9216,440.1655,526.2893,439.6389,526.8159,434.0067,522.44,442.83" style="stroke:#181818;stroke-width:1.0;"/></g><!--MD5=[67b6cc77f9c51a9ece6c1301ad2aff24]
link Teacher to Evaluation--><g id="link_Teacher_Evaluation"><path codeLine="67" d="M749.57,273.22 C723.93,290.25 689.11,313.4 662.55,331.04 " fill="none" id="Teacher-to-Evaluation" style="stroke:#181818;stroke-width:1.0;stroke-dasharray:7.0,7.0;"/><polygon fill="#181818" points="658.37,333.83,668.0799,332.1813,662.5346,331.0631,663.6528,325.5178,658.37,333.83" style="stroke:#181818;stroke-width:1.0;"/></g><!--MD5=[affac43304043ba8fb26272df4af1a5a]
reverse link AnswersToReview to OpenField--><g id="link_AnswersToReview_OpenField"><path codeLine="68" d="M619.62,1158.47 C491.55,1181.27 256.27,1223.16 154.52,1241.27 " fill="none" id="AnswersToReview-backto-OpenField" style="stroke:#181818;stroke-width:1.0;"/><polygon fill="#181818" points="632.81,1156.12,626.2034,1153.2299,620.9946,1158.2167,627.6012,1161.1068,632.81,1156.12" style="stroke:#181818;stroke-width:1.0;"/><text fill="#000000" font-family="sans-serif" font-size="13" lengthAdjust="spacing" textLength="22" x="162.5852" y="1236.4063">1..n</text></g><!--MD5=[d0493fe3f8433ad70d7ac94d8da863ff]
reverse link Definition to AnswersToReview--><g id="link_Definition_AnswersToReview"><path codeLine="69" d="M762.74,906.21 C750.22,958.47 723.65,1069.41 712.08,1117.71 " fill="none" id="Definition-backto-AnswersToReview" style="stroke:#181818;stroke-width:1.0;stroke-dasharray:7.0,7.0;"/><polygon fill="#181818" points="763.91,901.34,757.9166,909.1553,762.741,906.2014,765.6949,911.0258,763.91,901.34" style="stroke:#181818;stroke-width:1.0;"/></g><!--MD5=[1a4d83db36a33f2fbcdef02fb8712ac7]
reverse link Justification to AnswersToReview--><g id="link_Justification_AnswersToReview"><path codeLine="70" d="M812.66,1060.44 C789.47,1078.04 759.29,1100.94 737.04,1117.83 " fill="none" id="Justification-backto-AnswersToReview" style="stroke:#181818;stroke-width:1.0;stroke-dasharray:7.0,7.0;"/><polygon fill="#181818" points="816.91,1057.22,807.3279,1059.4968,812.9342,1060.2519,812.179,1065.8582,816.91,1057.22" style="stroke:#181818;stroke-width:1.0;"/></g><!--MD5=[ca1db39ba97a6974584bf41ab4f0a9b1]
reverse link Relation to AnswersToReview--><g id="link_Relation_AnswersToReview"><path codeLine="71" d="M912.22,983.65 C922.91,1005.28 932.26,1035.23 917.5,1057 C886.96,1102.03 828.03,1122.92 780.2,1132.61 " fill="none" id="Relation-backto-AnswersToReview" style="stroke:#181818;stroke-width:1.0;stroke-dasharray:7.0,7.0;"/><polygon fill="#181818" points="909.92,979.17,910.4676,989.0036,912.2016,983.6191,917.5861,985.3531,909.92,979.17" style="stroke:#181818;stroke-width:1.0;"/></g><!--MD5=[8098576c667d4ac97e7e9c684b3abdab]
reverse link Evaluation to AnswersToReview--><g id="link_Evaluation_AnswersToReview"><path codeLine="73" d="M646.83,386.56 C661.82,407.09 678.5,436.56 678.5,466 C678.5,466 678.5,466 678.5,649 C678.5,829.95 697.61,1047.73 704.26,1117.97 " fill="none" id="Evaluation-backto-AnswersToReview" style="stroke:#181818;stroke-width:1.0;stroke-dasharray:7.0,7.0;"/><polygon fill="#181818" points="643.67,382.32,645.848,391.925,646.6608,386.3269,652.259,387.1397,643.67,382.32" style="stroke:#181818;stroke-width:1.0;"/><text fill="#000000" font-family="sans-serif" font-size="13" lengthAdjust="spacing" textLength="42" x="681.5" y="717.4951">manual</text></g><!--MD5=[633f8dfcb7b6c7cb49429b789d025168]
reverse link Evaluation to SelectedOption--><g id="link_Evaluation_SelectedOption"><path codeLine="74" d="M569.21,362.36 C460.95,370.54 228.5,396.24 228.5,466 C228.5,466 228.5,466 228.5,713 C228.5,762.83 226.14,821.19 224.66,852.79 " fill="none" id="Evaluation-backto-SelectedOption" style="stroke:#181818;stroke-width:1.0;stroke-dasharray:7.0,7.0;"/><polygon fill="#181818" points="574.27,361.98,564.9977,358.6597,569.2838,362.3515,565.592,366.6376,574.27,361.98" style="stroke:#181818;stroke-width:1.0;"/><text fill="#000000" font-family="sans-serif" font-size="13" lengthAdjust="spacing" textLength="57" x="229.5" y="590.4951">automatic</text></g><!--MD5=[37c1e8dba486a8108983e1d119d6febb]
reverse link Test to Question--><g id="link_Test_Question"><path codeLine="76" d="M572.04,502.01 C561.24,517.67 548.49,536.16 537.83,551.62 " fill="none" id="Test-backto-Question" style="stroke:#181818;stroke-width:1.0;"/><polygon fill="#181818" points="579.5,491.2,572.7997,493.8656,572.6832,501.0758,579.3835,498.4102,579.5,491.2" style="stroke:#181818;stroke-width:1.0;"/><text fill="#000000" font-family="sans-serif" font-size="13" lengthAdjust="spacing" textLength="22" x="518.0606" y="541.0415">1..n</text></g><!--MD5=[f5bccbd5bfaa05fddfe2ae56cb719779]
reverse link Question to MultipleChoice--><g id="link_Question_MultipleChoice"><path codeLine="77" d="M454.99,630.23 C428.31,649.74 398.06,671.84 375.97,687.99 " fill="none" id="Question-backto-MultipleChoice" style="stroke:#181818;stroke-width:1.0;"/><polygon fill="none" points="451.19,624.34,471.46,618.19,459.45,635.64,451.19,624.34" style="stroke:#181818;stroke-width:1.0;"/></g><!--MD5=[4cad30c456caf6c2d8ef64c6efcf5ce1]
reverse link Question to Open--><g id="link_Question_Open"><path codeLine="78" d="M450.79,596.1 C335.96,614.56 105.97,654.13 78.5,679 C51.33,703.6 43.47,747.58 41.27,774.63 " fill="none" id="Question-backto-Open" style="stroke:#181818;stroke-width:1.0;"/><polygon fill="none" points="449.96,589.15,470.82,592.91,452.17,602.97,449.96,589.15" style="stroke:#181818;stroke-width:1.0;"/></g><!--MD5=[eff6b19138ddb6af13849faaf0a4f1bc]
reverse link Question to Statement--><g id="link_Question_Statement"><path codeLine="79" d="M506.13,631.07 C502.11,650.36 497.6,672.07 494.29,687.99 " fill="none" id="Question-backto-Statement" style="stroke:#181818;stroke-width:1.0;"/><polygon fill="#181818" points="508.8,618.19,503.6638,623.2515,506.3604,629.9394,511.4967,624.8779,508.8,618.19" style="stroke:#181818;stroke-width:1.0;"/></g><!--MD5=[ead2da4d06dc47ab4b58230ab7355ef0]
reverse link MultipleChoice to Option--><g id="link_MultipleChoice_Option"><path codeLine="80" d="M363.08,747.8 C380,779.51 404.51,825.43 419.14,852.85 " fill="none" id="MultipleChoice-backto-Option" style="stroke:#181818;stroke-width:1.0;"/><polygon fill="#181818" points="356.78,736.01,356.0792,743.187,362.4346,746.5942,363.1354,739.4172,356.78,736.01" style="stroke:#181818;stroke-width:1.0;"/><text fill="#000000" font-family="sans-serif" font-size="13" lengthAdjust="spacing" textLength="22" x="391.154" y="842.1517">2..n</text></g><!--MD5=[8b4b6ce4502ba24ddb3ea6e9e3ffd79d]
reverse link Option to Incorrect--><g id="link_Option_Incorrect"><path codeLine="81" d="M445.17,920.11 C454.45,948.68 466.36,985.37 473.96,1008.79 " fill="none" id="Option-backto-Incorrect" style="stroke:#181818;stroke-width:1.0;"/><polygon fill="none" points="438.5,922.24,438.99,901.06,451.82,917.92,438.5,922.24" style="stroke:#181818;stroke-width:1.0;"/></g><!--MD5=[e9c99f228a0238815f6b3520e77f42c1]
reverse link Option to Correct--><g id="link_Option_Correct"><path codeLine="82" d="M410.53,918.87 C395.79,947.61 376.6,985.02 364.41,1008.79 " fill="none" id="Option-backto-Correct" style="stroke:#181818;stroke-width:1.0;"/><polygon fill="none" points="404.32,915.66,419.67,901.06,416.77,922.05,404.32,915.66" style="stroke:#181818;stroke-width:1.0;"/></g><!--MD5=[dbc39d3c7bd5d7c9396f15d8cd3d35b5]
reverse link MultipleChoice to Correct--><g id="link_MultipleChoice_Correct"><path codeLine="83" d="M345.42,749.57 C347.08,815.86 350.55,954.08 351.92,1008.89 " fill="none" id="MultipleChoice-backto-Correct" style="stroke:#181818;stroke-width:1.0;"/><polygon fill="#181818" points="345.08,736.2,341.2329,742.2992,345.3832,748.1962,349.2303,742.097,345.08,736.2" style="stroke:#181818;stroke-width:1.0;"/></g><!--MD5=[edac056e3da0b394aa7eb7158b920fdf]
reverse link MultipleChoice to Incorrect--><g id="link_MultipleChoice_Incorrect"><path codeLine="84" d="M392.02,743.58 C425.65,768.39 467.8,806.78 485.5,853 C505.68,905.69 495.23,973.64 487.44,1008.73 " fill="none" id="MultipleChoice-backto-Incorrect" style="stroke:#181818;stroke-width:1.0;"/><polygon fill="#181818" points="381.44,736.01,383.9888,742.7556,391.1959,742.9973,388.6471,736.2517,381.44,736.01" style="stroke:#181818;stroke-width:1.0;"/><text fill="#000000" font-family="sans-serif" font-size="13" lengthAdjust="spacing" textLength="22" x="464.1434" y="998.001">1..n</text></g><!--MD5=[7f85988a8424233e6b2a524ae8a6ac9b]
reverse link MultipleChoice to SelectedOption--><g id="link_MultipleChoice_SelectedOption"><path codeLine="85" d="M319.6,746.55 C296.04,778.28 261.31,825.07 240.69,852.85 " fill="none" id="MultipleChoice-backto-SelectedOption" style="stroke:#181818;stroke-width:1.0;"/><polygon fill="#181818" points="327.42,736.01,320.6295,738.4369,320.258,745.6384,327.0485,743.2115,327.42,736.01" style="stroke:#181818;stroke-width:1.0;"/></g><!--MD5=[59461357328b13f33e0e2dce35b637f1]
reverse link Open to OpenField--><g id="link_Open_OpenField"><path codeLine="86" d="M38.28,836.42 C36.57,867.61 34.5,913.74 34.5,954 C34.5,954 34.5,954 34.5,1143 C34.5,1176.22 58.55,1207.02 78.66,1226.96 " fill="none" id="Open-backto-OpenField" style="stroke:#181818;stroke-width:1.0;"/><polygon fill="#181818" points="39.03,823.21,34.6939,828.9718,38.3447,835.1904,42.6808,829.4287,39.03,823.21" style="stroke:#181818;stroke-width:1.0;"/></g><!--MD5=[f8d4517273a291fe1b4647de6925b9ab]
reverse link Answer to OpenField--><g id="link_Answer_OpenField"><path codeLine="87" d="M123.17,756 C114.9,788.63 105.5,834.77 105.5,876 C105.5,876 105.5,876 105.5,1143 C105.5,1171.79 105.5,1204.95 105.5,1226.62 " fill="none" id="Answer-backto-OpenField" style="stroke:#181818;stroke-width:1.0;"/><polygon fill="none" points="116.53,753.74,128.47,736.24,130.05,757.37,116.53,753.74" style="stroke:#181818;stroke-width:1.0;"/></g><!--MD5=[c9991b0162c2b5928e47e95121f6f5d4]
reverse link Answer to SelectedOption--><g id="link_Answer_SelectedOption"><path codeLine="88" d="M157.55,753.85 C174.44,785.12 197.12,827.13 211,852.85 " fill="none" id="Answer-backto-SelectedOption" style="stroke:#181818;stroke-width:1.0;"/><polygon fill="none" points="151.26,756.93,147.92,736.01,163.58,750.28,151.26,756.93" style="stroke:#181818;stroke-width:1.0;"/></g><!--MD5=[2b8bf374309ff4b673033666bb85618b]
reverse link Question to AnswersToReview--><g id="link_Question_AnswersToReview"><path codeLine="89" d="M536.03,630.39 C542.55,645.58 549.38,662.83 554.5,679 C610.72,856.43 548.8,928.36 644.5,1088 C651.34,1099.42 661.52,1109.6 671.66,1117.91 " fill="none" id="Question-backto-AnswersToReview" style="stroke:#181818;stroke-width:1.0;"/><polygon fill="none" points="530.68,618.17,529.4212,625.2704,535.4912,629.1633,536.75,622.0629,530.68,618.17" style="stroke:#181818;stroke-width:1.0;"/></g><!--MD5=[4a2d24906f5fceab0d69784fc697a58a]
@startuml OpoTestDomain

class Community

class User

class Teacher

class Student

class Evaluation

class Result

class Category 

class Test 

class AnswersToReview

class Concept {
    keyword
}

class Question {
    level
}

class Statement

class Answer 

class Open 

class MultipleChoice

class Option

class Correct

Class Incorrect

class OpenField

Class SelectedOption


Community *- - "2..n" User
Community o- - "0..n" Category

Category o- -"0..n" Category : Subcategories

User <|- - Teacher
User <|- - Student

Teacher - ->"0..n" Concept
Concept - -o Category
Question - -o Concept
Concept o- - Definition
Definition o- - Justification
Justification o- - Explication
Concept o- - Relation

Student - -> "0..n" Evaluation
Evaluation - -> Test
Evaluation - -> Result

Teacher ..> Evaluation
AnswersToReview *- - "1..n" OpenField
Definition <.. AnswersToReview
Justification <.. AnswersToReview
Relation <.. AnswersToReview

Evaluation <.. AnswersToReview : manual
Evaluation <.. SelectedOption : automatic

Test *- - "1..n" Question
Question <|- - MultipleChoice
Question <|- - Open
Question *- -   Statement
MultipleChoice *- - "2..n" Option
Option <|- - Incorrect
Option <|- - Correct
MultipleChoice *- - Correct
MultipleChoice *- - "1..n" Incorrect
MultipleChoice *- - SelectedOption
Open *- - OpenField
Answer <|- - OpenField
Answer <|- - SelectedOption
Question o- - AnswersToReview

@enduml

PlantUML version 1.2022.7(Mon Aug 22 18:01:30 WEST 2022)
(GPL source distribution)
Java Runtime: OpenJDK Runtime Environment
JVM: OpenJDK 64-Bit Server VM
Default Encoding: Cp1252
Language: es
Country: ES
--></g></svg>