<?xml version="1.0" encoding="UTF-8" standalone="no"?><svg xmlns="http://www.w3.org/2000/svg" xmlns:xlink="http://www.w3.org/1999/xlink" contentStyleType="text/css" height="1282px" preserveAspectRatio="none" style="width:1148px;height:1282px;background:#FFFFFF;" version="1.1" viewBox="0 0 1148 1282" width="1148px" zoomAndPan="magnify"><defs/><g><!--MD5=[668d633d11bedc8952753581a2dda3db]
class Community--><g id="elem_Community"><rect codeLine="2" fill="#F1F1F1" height="48" id="Community" rx="2.5" ry="2.5" style="stroke:#181818;stroke-width:0.5;" width="102" x="840.5" y="7"/><ellipse cx="855.5" cy="23" fill="#ADD1B2" rx="11" ry="11" style="stroke:#181818;stroke-width:1.0;"/><path d="M858.2656,18.875 Q858.4219,18.6563 858.6094,18.5469 Q858.7969,18.4375 859.0156,18.4375 Q859.3906,18.4375 859.625,18.7031 Q859.8594,18.9531 859.8594,19.5625 L859.8594,21.0156 Q859.8594,21.625 859.625,21.8906 Q859.3906,22.1563 859.0156,22.1563 Q858.6719,22.1563 858.4688,21.9531 Q858.2656,21.7656 858.1563,21.25 Q858.1094,20.8906 857.9219,20.7031 Q857.5938,20.3281 856.9844,20.1094 Q856.375,19.8906 855.75,19.8906 Q854.9844,19.8906 854.3438,20.2188 Q853.7188,20.5469 853.2188,21.2969 Q852.7344,22.0469 852.7344,23.0781 L852.7344,24.1719 Q852.7344,25.4063 853.625,26.2344 Q854.5156,27.0469 856.1094,27.0469 Q857.0469,27.0469 857.7031,26.7969 Q858.0938,26.6406 858.5156,26.2031 Q858.7813,25.9375 858.9219,25.8594 Q859.0781,25.7813 859.2813,25.7813 Q859.6094,25.7813 859.8594,26.0469 Q860.125,26.2969 860.125,26.6406 Q860.125,26.9844 859.7813,27.3906 Q859.2813,27.9688 858.4844,28.2969 Q857.4063,28.75 856.1094,28.75 Q854.5938,28.75 853.3906,28.125 Q852.4063,27.625 851.7188,26.5625 Q851.0313,25.4844 851.0313,24.2031 L851.0313,23.0469 Q851.0313,21.7188 851.6406,20.5781 Q852.2656,19.4219 853.3594,18.8125 Q854.4531,18.1875 855.6875,18.1875 Q856.4219,18.1875 857.0625,18.3594 Q857.7188,18.5156 858.2656,18.875 Z " fill="#000000"/><text fill="#000000" font-family="sans-serif" font-size="14" lengthAdjust="spacing" textLength="70" x="869.5" y="28.7285">Community</text><line style="stroke:#181818;stroke-width:0.5;" x1="841.5" x2="941.5" y1="39" y2="39"/><line style="stroke:#181818;stroke-width:0.5;" x1="841.5" x2="941.5" y1="47" y2="47"/></g><!--MD5=[3fd616f346a44cd59a91eb10b19e157c]
class User--><g id="elem_User"><rect codeLine="4" fill="#F1F1F1" height="48" id="User" rx="2.5" ry="2.5" style="stroke:#181818;stroke-width:0.5;" width="61" x="755" y="116"/><ellipse cx="770" cy="132" fill="#ADD1B2" rx="11" ry="11" style="stroke:#181818;stroke-width:1.0;"/><path d="M772.7656,127.875 Q772.9219,127.6563 773.1094,127.5469 Q773.2969,127.4375 773.5156,127.4375 Q773.8906,127.4375 774.125,127.7031 Q774.3594,127.9531 774.3594,128.5625 L774.3594,130.0156 Q774.3594,130.625 774.125,130.8906 Q773.8906,131.1563 773.5156,131.1563 Q773.1719,131.1563 772.9688,130.9531 Q772.7656,130.7656 772.6563,130.25 Q772.6094,129.8906 772.4219,129.7031 Q772.0938,129.3281 771.4844,129.1094 Q770.875,128.8906 770.25,128.8906 Q769.4844,128.8906 768.8438,129.2188 Q768.2188,129.5469 767.7188,130.2969 Q767.2344,131.0469 767.2344,132.0781 L767.2344,133.1719 Q767.2344,134.4063 768.125,135.2344 Q769.0156,136.0469 770.6094,136.0469 Q771.5469,136.0469 772.2031,135.7969 Q772.5938,135.6406 773.0156,135.2031 Q773.2813,134.9375 773.4219,134.8594 Q773.5781,134.7813 773.7813,134.7813 Q774.1094,134.7813 774.3594,135.0469 Q774.625,135.2969 774.625,135.6406 Q774.625,135.9844 774.2813,136.3906 Q773.7813,136.9688 772.9844,137.2969 Q771.9063,137.75 770.6094,137.75 Q769.0938,137.75 767.8906,137.125 Q766.9063,136.625 766.2188,135.5625 Q765.5313,134.4844 765.5313,133.2031 L765.5313,132.0469 Q765.5313,130.7188 766.1406,129.5781 Q766.7656,128.4219 767.8594,127.8125 Q768.9531,127.1875 770.1875,127.1875 Q770.9219,127.1875 771.5625,127.3594 Q772.2188,127.5156 772.7656,127.875 Z " fill="#000000"/><text fill="#000000" font-family="sans-serif" font-size="14" lengthAdjust="spacing" textLength="29" x="784" y="137.7285">User</text><line style="stroke:#181818;stroke-width:0.5;" x1="756" x2="815" y1="148" y2="148"/><line style="stroke:#181818;stroke-width:0.5;" x1="756" x2="815" y1="156" y2="156"/></g><!--MD5=[61a83f88cb8b7d3a80bc8c481f3736bf]
class Teacher--><g id="elem_Teacher"><rect codeLine="6" fill="#F1F1F1" height="48" id="Teacher" rx="2.5" ry="2.5" style="stroke:#181818;stroke-width:0.5;" width="85" x="743" y="225"/><ellipse cx="758" cy="241" fill="#ADD1B2" rx="11" ry="11" style="stroke:#181818;stroke-width:1.0;"/><path d="M760.7656,236.875 Q760.9219,236.6563 761.1094,236.5469 Q761.2969,236.4375 761.5156,236.4375 Q761.8906,236.4375 762.125,236.7031 Q762.3594,236.9531 762.3594,237.5625 L762.3594,239.0156 Q762.3594,239.625 762.125,239.8906 Q761.8906,240.1563 761.5156,240.1563 Q761.1719,240.1563 760.9688,239.9531 Q760.7656,239.7656 760.6563,239.25 Q760.6094,238.8906 760.4219,238.7031 Q760.0938,238.3281 759.4844,238.1094 Q758.875,237.8906 758.25,237.8906 Q757.4844,237.8906 756.8438,238.2188 Q756.2188,238.5469 755.7188,239.2969 Q755.2344,240.0469 755.2344,241.0781 L755.2344,242.1719 Q755.2344,243.4063 756.125,244.2344 Q757.0156,245.0469 758.6094,245.0469 Q759.5469,245.0469 760.2031,244.7969 Q760.5938,244.6406 761.0156,244.2031 Q761.2813,243.9375 761.4219,243.8594 Q761.5781,243.7813 761.7813,243.7813 Q762.1094,243.7813 762.3594,244.0469 Q762.625,244.2969 762.625,244.6406 Q762.625,244.9844 762.2813,245.3906 Q761.7813,245.9688 760.9844,246.2969 Q759.9063,246.75 758.6094,246.75 Q757.0938,246.75 755.8906,246.125 Q754.9063,245.625 754.2188,244.5625 Q753.5313,243.4844 753.5313,242.2031 L753.5313,241.0469 Q753.5313,239.7188 754.1406,238.5781 Q754.7656,237.4219 755.8594,236.8125 Q756.9531,236.1875 758.1875,236.1875 Q758.9219,236.1875 759.5625,236.3594 Q760.2188,236.5156 760.7656,236.875 Z " fill="#000000"/><text fill="#000000" font-family="sans-serif" font-size="14" lengthAdjust="spacing" textLength="53" x="772" y="246.7285">Teacher</text><line style="stroke:#181818;stroke-width:0.5;" x1="744" x2="827" y1="257" y2="257"/><line style="stroke:#181818;stroke-width:0.5;" x1="744" x2="827" y1="265" y2="265"/></g><!--MD5=[d6181cb537bdc20c0a3007a98a56832d]
class Student--><g id="elem_Student"><rect codeLine="8" fill="#F1F1F1" height="48" id="Student" rx="2.5" ry="2.5" style="stroke:#181818;stroke-width:0.5;" width="81" x="622" y="225"/><ellipse cx="637" cy="241" fill="#ADD1B2" rx="11" ry="11" style="stroke:#181818;stroke-width:1.0;"/><path d="M639.7656,236.875 Q639.9219,236.6563 640.1094,236.5469 Q640.2969,236.4375 640.5156,236.4375 Q640.8906,236.4375 641.125,236.7031 Q641.3594,236.9531 641.3594,237.5625 L641.3594,239.0156 Q641.3594,239.625 641.125,239.8906 Q640.8906,240.1563 640.5156,240.1563 Q640.1719,240.1563 639.9688,239.9531 Q639.7656,239.7656 639.6563,239.25 Q639.6094,238.8906 639.4219,238.7031 Q639.0938,238.3281 638.4844,238.1094 Q637.875,237.8906 637.25,237.8906 Q636.4844,237.8906 635.8438,238.2188 Q635.2188,238.5469 634.7188,239.2969 Q634.2344,240.0469 634.2344,241.0781 L634.2344,242.1719 Q634.2344,243.4063 635.125,244.2344 Q636.0156,245.0469 637.6094,245.0469 Q638.5469,245.0469 639.2031,244.7969 Q639.5938,244.6406 640.0156,244.2031 Q640.2813,243.9375 640.4219,243.8594 Q640.5781,243.7813 640.7813,243.7813 Q641.1094,243.7813 641.3594,244.0469 Q641.625,244.2969 641.625,244.6406 Q641.625,244.9844 641.2813,245.3906 Q640.7813,245.9688 639.9844,246.2969 Q638.9063,246.75 637.6094,246.75 Q636.0938,246.75 634.8906,246.125 Q633.9063,245.625 633.2188,244.5625 Q632.5313,243.4844 632.5313,242.2031 L632.5313,241.0469 Q632.5313,239.7188 633.1406,238.5781 Q633.7656,237.4219 634.8594,236.8125 Q635.9531,236.1875 637.1875,236.1875 Q637.9219,236.1875 638.5625,236.3594 Q639.2188,236.5156 639.7656,236.875 Z " fill="#000000"/><text fill="#000000" font-family="sans-serif" font-size="14" lengthAdjust="spacing" textLength="49" x="651" y="246.7285">Student</text><line style="stroke:#181818;stroke-width:0.5;" x1="623" x2="702" y1="257" y2="257"/><line style="stroke:#181818;stroke-width:0.5;" x1="623" x2="702" y1="265" y2="265"/></g><!--MD5=[71e8807956d33805e77353b9d7e2df39]
class Evaluation--><g id="elem_Evaluation"><rect codeLine="10" fill="#F1F1F1" height="48" id="Evaluation" rx="2.5" ry="2.5" style="stroke:#181818;stroke-width:0.5;" width="98" x="568.5" y="334"/><ellipse cx="583.5" cy="350" fill="#ADD1B2" rx="11" ry="11" style="stroke:#181818;stroke-width:1.0;"/><path d="M586.2656,345.875 Q586.4219,345.6563 586.6094,345.5469 Q586.7969,345.4375 587.0156,345.4375 Q587.3906,345.4375 587.625,345.7031 Q587.8594,345.9531 587.8594,346.5625 L587.8594,348.0156 Q587.8594,348.625 587.625,348.8906 Q587.3906,349.1563 587.0156,349.1563 Q586.6719,349.1563 586.4688,348.9531 Q586.2656,348.7656 586.1563,348.25 Q586.1094,347.8906 585.9219,347.7031 Q585.5938,347.3281 584.9844,347.1094 Q584.375,346.8906 583.75,346.8906 Q582.9844,346.8906 582.3438,347.2188 Q581.7188,347.5469 581.2188,348.2969 Q580.7344,349.0469 580.7344,350.0781 L580.7344,351.1719 Q580.7344,352.4063 581.625,353.2344 Q582.5156,354.0469 584.1094,354.0469 Q585.0469,354.0469 585.7031,353.7969 Q586.0938,353.6406 586.5156,353.2031 Q586.7813,352.9375 586.9219,352.8594 Q587.0781,352.7813 587.2813,352.7813 Q587.6094,352.7813 587.8594,353.0469 Q588.125,353.2969 588.125,353.6406 Q588.125,353.9844 587.7813,354.3906 Q587.2813,354.9688 586.4844,355.2969 Q585.4063,355.75 584.1094,355.75 Q582.5938,355.75 581.3906,355.125 Q580.4063,354.625 579.7188,353.5625 Q579.0313,352.4844 579.0313,351.2031 L579.0313,350.0469 Q579.0313,348.7188 579.6406,347.5781 Q580.2656,346.4219 581.3594,345.8125 Q582.4531,345.1875 583.6875,345.1875 Q584.4219,345.1875 585.0625,345.3594 Q585.7188,345.5156 586.2656,345.875 Z " fill="#000000"/><text fill="#000000" font-family="sans-serif" font-size="14" lengthAdjust="spacing" textLength="66" x="597.5" y="355.7285">Evaluation</text><line style="stroke:#181818;stroke-width:0.5;" x1="569.5" x2="665.5" y1="366" y2="366"/><line style="stroke:#181818;stroke-width:0.5;" x1="569.5" x2="665.5" y1="374" y2="374"/></g><!--MD5=[2741598bdf59a7d7e0d5c97658fd3022]
class Result--><g id="elem_Result"><rect codeLine="12" fill="#F1F1F1" height="48" id="Result" rx="2.5" ry="2.5" style="stroke:#181818;stroke-width:0.5;" width="72" x="457.5" y="443"/><ellipse cx="472.5" cy="459" fill="#ADD1B2" rx="11" ry="11" style="stroke:#181818;stroke-width:1.0;"/><path d="M475.2656,454.875 Q475.4219,454.6563 475.6094,454.5469 Q475.7969,454.4375 476.0156,454.4375 Q476.3906,454.4375 476.625,454.7031 Q476.8594,454.9531 476.8594,455.5625 L476.8594,457.0156 Q476.8594,457.625 476.625,457.8906 Q476.3906,458.1563 476.0156,458.1563 Q475.6719,458.1563 475.4688,457.9531 Q475.2656,457.7656 475.1563,457.25 Q475.1094,456.8906 474.9219,456.7031 Q474.5938,456.3281 473.9844,456.1094 Q473.375,455.8906 472.75,455.8906 Q471.9844,455.8906 471.3438,456.2188 Q470.7188,456.5469 470.2188,457.2969 Q469.7344,458.0469 469.7344,459.0781 L469.7344,460.1719 Q469.7344,461.4063 470.625,462.2344 Q471.5156,463.0469 473.1094,463.0469 Q474.0469,463.0469 474.7031,462.7969 Q475.0938,462.6406 475.5156,462.2031 Q475.7813,461.9375 475.9219,461.8594 Q476.0781,461.7813 476.2813,461.7813 Q476.6094,461.7813 476.8594,462.0469 Q477.125,462.2969 477.125,462.6406 Q477.125,462.9844 476.7813,463.3906 Q476.2813,463.9688 475.4844,464.2969 Q474.4063,464.75 473.1094,464.75 Q471.5938,464.75 470.3906,464.125 Q469.4063,463.625 468.7188,462.5625 Q468.0313,461.4844 468.0313,460.2031 L468.0313,459.0469 Q468.0313,457.7188 468.6406,456.5781 Q469.2656,455.4219 470.3594,454.8125 Q471.4531,454.1875 472.6875,454.1875 Q473.4219,454.1875 474.0625,454.3594 Q474.7188,454.5156 475.2656,454.875 Z " fill="#000000"/><text fill="#000000" font-family="sans-serif" font-size="14" lengthAdjust="spacing" textLength="40" x="486.5" y="464.7285">Result</text><line style="stroke:#181818;stroke-width:0.5;" x1="458.5" x2="528.5" y1="475" y2="475"/><line style="stroke:#181818;stroke-width:0.5;" x1="458.5" x2="528.5" y1="483" y2="483"/></g><!--MD5=[a96594a83e2ecdc78cbf17c2ddf01934]
class Category--><g id="elem_Category"><rect codeLine="14" fill="#F1F1F1" height="48" id="Category" rx="2.5" ry="2.5" style="stroke:#181818;stroke-width:0.5;" width="90" x="921.5" y="853"/><ellipse cx="936.5" cy="869" fill="#ADD1B2" rx="11" ry="11" style="stroke:#181818;stroke-width:1.0;"/><path d="M939.2656,864.875 Q939.4219,864.6563 939.6094,864.5469 Q939.7969,864.4375 940.0156,864.4375 Q940.3906,864.4375 940.625,864.7031 Q940.8594,864.9531 940.8594,865.5625 L940.8594,867.0156 Q940.8594,867.625 940.625,867.8906 Q940.3906,868.1563 940.0156,868.1563 Q939.6719,868.1563 939.4688,867.9531 Q939.2656,867.7656 939.1563,867.25 Q939.1094,866.8906 938.9219,866.7031 Q938.5938,866.3281 937.9844,866.1094 Q937.375,865.8906 936.75,865.8906 Q935.9844,865.8906 935.3438,866.2188 Q934.7188,866.5469 934.2188,867.2969 Q933.7344,868.0469 933.7344,869.0781 L933.7344,870.1719 Q933.7344,871.4063 934.625,872.2344 Q935.5156,873.0469 937.1094,873.0469 Q938.0469,873.0469 938.7031,872.7969 Q939.0938,872.6406 939.5156,872.2031 Q939.7813,871.9375 939.9219,871.8594 Q940.0781,871.7813 940.2813,871.7813 Q940.6094,871.7813 940.8594,872.0469 Q941.125,872.2969 941.125,872.6406 Q941.125,872.9844 940.7813,873.3906 Q940.2813,873.9688 939.4844,874.2969 Q938.4063,874.75 937.1094,874.75 Q935.5938,874.75 934.3906,874.125 Q933.4063,873.625 932.7188,872.5625 Q932.0313,871.4844 932.0313,870.2031 L932.0313,869.0469 Q932.0313,867.7188 932.6406,866.5781 Q933.2656,865.4219 934.3594,864.8125 Q935.4531,864.1875 936.6875,864.1875 Q937.4219,864.1875 938.0625,864.3594 Q938.7188,864.5156 939.2656,864.875 Z " fill="#000000"/><text fill="#000000" font-family="sans-serif" font-size="14" lengthAdjust="spacing" textLength="58" x="950.5" y="874.7285">Category</text><line style="stroke:#181818;stroke-width:0.5;" x1="922.5" x2="1010.5" y1="885" y2="885"/><line style="stroke:#181818;stroke-width:0.5;" x1="922.5" x2="1010.5" y1="893" y2="893"/></g><!--MD5=[df38be88ccee13e832d6fafd6288a4ca]
class Test--><g id="elem_Test"><rect codeLine="16" fill="#F1F1F1" height="48" id="Test" rx="2.5" ry="2.5" style="stroke:#181818;stroke-width:0.5;" width="60" x="564.5" y="443"/><ellipse cx="579.5" cy="459" fill="#ADD1B2" rx="11" ry="11" style="stroke:#181818;stroke-width:1.0;"/><path d="M582.2656,454.875 Q582.4219,454.6563 582.6094,454.5469 Q582.7969,454.4375 583.0156,454.4375 Q583.3906,454.4375 583.625,454.7031 Q583.8594,454.9531 583.8594,455.5625 L583.8594,457.0156 Q583.8594,457.625 583.625,457.8906 Q583.3906,458.1563 583.0156,458.1563 Q582.6719,458.1563 582.4688,457.9531 Q582.2656,457.7656 582.1563,457.25 Q582.1094,456.8906 581.9219,456.7031 Q581.5938,456.3281 580.9844,456.1094 Q580.375,455.8906 579.75,455.8906 Q578.9844,455.8906 578.3438,456.2188 Q577.7188,456.5469 577.2188,457.2969 Q576.7344,458.0469 576.7344,459.0781 L576.7344,460.1719 Q576.7344,461.4063 577.625,462.2344 Q578.5156,463.0469 580.1094,463.0469 Q581.0469,463.0469 581.7031,462.7969 Q582.0938,462.6406 582.5156,462.2031 Q582.7813,461.9375 582.9219,461.8594 Q583.0781,461.7813 583.2813,461.7813 Q583.6094,461.7813 583.8594,462.0469 Q584.125,462.2969 584.125,462.6406 Q584.125,462.9844 583.7813,463.3906 Q583.2813,463.9688 582.4844,464.2969 Q581.4063,464.75 580.1094,464.75 Q578.5938,464.75 577.3906,464.125 Q576.4063,463.625 575.7188,462.5625 Q575.0313,461.4844 575.0313,460.2031 L575.0313,459.0469 Q575.0313,457.7188 575.6406,456.5781 Q576.2656,455.4219 577.3594,454.8125 Q578.4531,454.1875 579.6875,454.1875 Q580.4219,454.1875 581.0625,454.3594 Q581.7188,454.5156 582.2656,454.875 Z " fill="#000000"/><text fill="#000000" font-family="sans-serif" font-size="14" lengthAdjust="spacing" textLength="28" x="593.5" y="464.7285">Test</text><line style="stroke:#181818;stroke-width:0.5;" x1="565.5" x2="623.5" y1="475" y2="475"/><line style="stroke:#181818;stroke-width:0.5;" x1="565.5" x2="623.5" y1="483" y2="483"/></g><!--MD5=[251997ad79b4d4948a25d3b27294058e]
class AnswersToReview--><g id="elem_AnswersToReview"><rect codeLine="18" fill="#F1F1F1" height="48" id="AnswersToReview" rx="2.5" ry="2.5" style="stroke:#181818;stroke-width:0.5;" width="147" x="633" y="1118"/><ellipse cx="648" cy="1134" fill="#ADD1B2" rx="11" ry="11" style="stroke:#181818;stroke-width:1.0;"/><path d="M650.7656,1129.875 Q650.9219,1129.6563 651.1094,1129.5469 Q651.2969,1129.4375 651.5156,1129.4375 Q651.8906,1129.4375 652.125,1129.7031 Q652.3594,1129.9531 652.3594,1130.5625 L652.3594,1132.0156 Q652.3594,1132.625 652.125,1132.8906 Q651.8906,1133.1563 651.5156,1133.1563 Q651.1719,1133.1563 650.9688,1132.9531 Q650.7656,1132.7656 650.6563,1132.25 Q650.6094,1131.8906 650.4219,1131.7031 Q650.0938,1131.3281 649.4844,1131.1094 Q648.875,1130.8906 648.25,1130.8906 Q647.4844,1130.8906 646.8438,1131.2188 Q646.2188,1131.5469 645.7188,1132.2969 Q645.2344,1133.0469 645.2344,1134.0781 L645.2344,1135.1719 Q645.2344,1136.4063 646.125,1137.2344 Q647.0156,1138.0469 648.6094,1138.0469 Q649.5469,1138.0469 650.2031,1137.7969 Q650.5938,1137.6406 651.0156,1137.2031 Q651.2813,1136.9375 651.4219,1136.8594 Q651.5781,1136.7813 651.7813,1136.7813 Q652.1094,1136.7813 652.3594,1137.0469 Q652.625,1137.2969 652.625,1137.6406 Q652.625,1137.9844 652.2813,1138.3906 Q651.7813,1138.9688 650.9844,1139.2969 Q649.9063,1139.75 648.6094,1139.75 Q647.0938,1139.75 645.8906,1139.125 Q644.9063,1138.625 644.2188,1137.5625 Q643.5313,1136.4844 643.5313,1135.2031 L643.5313,1134.0469 Q643.5313,1132.7188 644.1406,1131.5781 Q644.7656,1130.4219 645.8594,1129.8125 Q646.9531,1129.1875 648.1875,1129.1875 Q648.9219,1129.1875 649.5625,1129.3594 Q650.2188,1129.5156 650.7656,1129.875 Z " fill="#000000"/><text fill="#000000" font-family="sans-serif" font-size="14" lengthAdjust="spacing" textLength="115" x="662" y="1139.7285">AnswersToReview</text><line style="stroke:#181818;stroke-width:0.5;" x1="634" x2="779" y1="1150" y2="1150"/><line style="stroke:#181818;stroke-width:0.5;" x1="634" x2="779" y1="1158" y2="1158"/></g><!--MD5=[9d451b2f92d848a8e2d1a4dab2b1c6bf]
class Concept--><g id="elem_Concept"><rect codeLine="20" fill="#F1F1F1" height="65.6094" id="Concept" rx="2.5" ry="2.5" style="stroke:#181818;stroke-width:0.5;" width="85" x="757" y="679"/><ellipse cx="772" cy="695" fill="#ADD1B2" rx="11" ry="11" style="stroke:#181818;stroke-width:1.0;"/><path d="M774.7656,690.875 Q774.9219,690.6563 775.1094,690.5469 Q775.2969,690.4375 775.5156,690.4375 Q775.8906,690.4375 776.125,690.7031 Q776.3594,690.9531 776.3594,691.5625 L776.3594,693.0156 Q776.3594,693.625 776.125,693.8906 Q775.8906,694.1563 775.5156,694.1563 Q775.1719,694.1563 774.9688,693.9531 Q774.7656,693.7656 774.6563,693.25 Q774.6094,692.8906 774.4219,692.7031 Q774.0938,692.3281 773.4844,692.1094 Q772.875,691.8906 772.25,691.8906 Q771.4844,691.8906 770.8438,692.2188 Q770.2188,692.5469 769.7188,693.2969 Q769.2344,694.0469 769.2344,695.0781 L769.2344,696.1719 Q769.2344,697.4063 770.125,698.2344 Q771.0156,699.0469 772.6094,699.0469 Q773.5469,699.0469 774.2031,698.7969 Q774.5938,698.6406 775.0156,698.2031 Q775.2813,697.9375 775.4219,697.8594 Q775.5781,697.7813 775.7813,697.7813 Q776.1094,697.7813 776.3594,698.0469 Q776.625,698.2969 776.625,698.6406 Q776.625,698.9844 776.2813,699.3906 Q775.7813,699.9688 774.9844,700.2969 Q773.9063,700.75 772.6094,700.75 Q771.0938,700.75 769.8906,700.125 Q768.9063,699.625 768.2188,698.5625 Q767.5313,697.4844 767.5313,696.2031 L767.5313,695.0469 Q767.5313,693.7188 768.1406,692.5781 Q768.7656,691.4219 769.8594,690.8125 Q770.9531,690.1875 772.1875,690.1875 Q772.9219,690.1875 773.5625,690.3594 Q774.2188,690.5156 774.7656,690.875 Z " fill="#000000"/><text fill="#000000" font-family="sans-serif" font-size="14" lengthAdjust="spacing" textLength="53" x="786" y="700.7285">Concept</text><line style="stroke:#181818;stroke-width:0.5;" x1="758" x2="841" y1="711" y2="711"/><text fill="#000000" font-family="sans-serif" font-size="14" lengthAdjust="spacing" textLength="52" x="763" y="729.5332">keyword</text><line style="stroke:#181818;stroke-width:0.5;" x1="758" x2="841" y1="736.6094" y2="736.6094"/></g><!--MD5=[fc7123defb831ecdd44b2d9bcef6cceb]
class Question--><g id="elem_Question"><rect codeLine="24" fill="#F1F1F1" height="65.6094" id="Question" rx="2.5" ry="2.5" style="stroke:#181818;stroke-width:0.5;" width="89" x="490" y="552"/><ellipse cx="505" cy="568" fill="#ADD1B2" rx="11" ry="11" style="stroke:#181818;stroke-width:1.0;"/><path d="M507.7656,563.875 Q507.9219,563.6563 508.1094,563.5469 Q508.2969,563.4375 508.5156,563.4375 Q508.8906,563.4375 509.125,563.7031 Q509.3594,563.9531 509.3594,564.5625 L509.3594,566.0156 Q509.3594,566.625 509.125,566.8906 Q508.8906,567.1563 508.5156,567.1563 Q508.1719,567.1563 507.9688,566.9531 Q507.7656,566.7656 507.6563,566.25 Q507.6094,565.8906 507.4219,565.7031 Q507.0938,565.3281 506.4844,565.1094 Q505.875,564.8906 505.25,564.8906 Q504.4844,564.8906 503.8438,565.2188 Q503.2188,565.5469 502.7188,566.2969 Q502.2344,567.0469 502.2344,568.0781 L502.2344,569.1719 Q502.2344,570.4063 503.125,571.2344 Q504.0156,572.0469 505.6094,572.0469 Q506.5469,572.0469 507.2031,571.7969 Q507.5938,571.6406 508.0156,571.2031 Q508.2813,570.9375 508.4219,570.8594 Q508.5781,570.7813 508.7813,570.7813 Q509.1094,570.7813 509.3594,571.0469 Q509.625,571.2969 509.625,571.6406 Q509.625,571.9844 509.2813,572.3906 Q508.7813,572.9688 507.9844,573.2969 Q506.9063,573.75 505.6094,573.75 Q504.0938,573.75 502.8906,573.125 Q501.9063,572.625 501.2188,571.5625 Q500.5313,570.4844 500.5313,569.2031 L500.5313,568.0469 Q500.5313,566.7188 501.1406,565.5781 Q501.7656,564.4219 502.8594,563.8125 Q503.9531,563.1875 505.1875,563.1875 Q505.9219,563.1875 506.5625,563.3594 Q507.2188,563.5156 507.7656,563.875 Z " fill="#000000"/><text fill="#000000" font-family="sans-serif" font-size="14" lengthAdjust="spacing" textLength="57" x="519" y="573.7285">Question</text><line style="stroke:#181818;stroke-width:0.5;" x1="491" x2="578" y1="584" y2="584"/><text fill="#000000" font-family="sans-serif" font-size="14" lengthAdjust="spacing" textLength="29" x="496" y="602.5332">level</text><line style="stroke:#181818;stroke-width:0.5;" x1="491" x2="578" y1="609.6094" y2="609.6094"/></g><!--MD5=[a61a298976b7d1d94498f45c2ebfa10b]
class Statement--><g id="elem_Statement"><rect codeLine="28" fill="#F1F1F1" height="48" id="Statement" rx="2.5" ry="2.5" style="stroke:#181818;stroke-width:0.5;" width="96" x="440.5" y="688"/><ellipse cx="455.5" cy="704" fill="#ADD1B2" rx="11" ry="11" style="stroke:#181818;stroke-width:1.0;"/><path d="M458.2656,699.875 Q458.4219,699.6563 458.6094,699.5469 Q458.7969,699.4375 459.0156,699.4375 Q459.3906,699.4375 459.625,699.7031 Q459.8594,699.9531 459.8594,700.5625 L459.8594,702.0156 Q459.8594,702.625 459.625,702.8906 Q459.3906,703.1563 459.0156,703.1563 Q458.6719,703.1563 458.4688,702.9531 Q458.2656,702.7656 458.1563,702.25 Q458.1094,701.8906 457.9219,701.7031 Q457.5938,701.3281 456.9844,701.1094 Q456.375,700.8906 455.75,700.8906 Q454.9844,700.8906 454.3438,701.2188 Q453.7188,701.5469 453.2188,702.2969 Q452.7344,703.0469 452.7344,704.0781 L452.7344,705.1719 Q452.7344,706.4063 453.625,707.2344 Q454.5156,708.0469 456.1094,708.0469 Q457.0469,708.0469 457.7031,707.7969 Q458.0938,707.6406 458.5156,707.2031 Q458.7813,706.9375 458.9219,706.8594 Q459.0781,706.7813 459.2813,706.7813 Q459.6094,706.7813 459.8594,707.0469 Q460.125,707.2969 460.125,707.6406 Q460.125,707.9844 459.7813,708.3906 Q459.2813,708.9688 458.4844,709.2969 Q457.4063,709.75 456.1094,709.75 Q454.5938,709.75 453.3906,709.125 Q452.4063,708.625 451.7188,707.5625 Q451.0313,706.4844 451.0313,705.2031 L451.0313,704.0469 Q451.0313,702.7188 451.6406,701.5781 Q452.2656,700.4219 453.3594,699.8125 Q454.4531,699.1875 455.6875,699.1875 Q456.4219,699.1875 457.0625,699.3594 Q457.7188,699.5156 458.2656,699.875 Z " fill="#000000"/><text fill="#000000" font-family="sans-serif" font-size="14" lengthAdjust="spacing" textLength="64" x="469.5" y="709.7285">Statement</text><line style="stroke:#181818;stroke-width:0.5;" x1="441.5" x2="535.5" y1="720" y2="720"/><line style="stroke:#181818;stroke-width:0.5;" x1="441.5" x2="535.5" y1="728" y2="728"/></g><!--MD5=[f9fadfa5a66b7e5a67b370cd443ffe52]
class Answer--><g id="elem_Answer"><rect codeLine="30" fill="#F1F1F1" height="48" id="Answer" rx="2.5" ry="2.5" style="stroke:#181818;stroke-width:0.5;" width="78" x="95.5" y="688"/><ellipse cx="110.5" cy="704" fill="#ADD1B2" rx="11" ry="11" style="stroke:#181818;stroke-width:1.0;"/><path d="M113.2656,699.875 Q113.4219,699.6563 113.6094,699.5469 Q113.7969,699.4375 114.0156,699.4375 Q114.3906,699.4375 114.625,699.7031 Q114.8594,699.9531 114.8594,700.5625 L114.8594,702.0156 Q114.8594,702.625 114.625,702.8906 Q114.3906,703.1563 114.0156,703.1563 Q113.6719,703.1563 113.4688,702.9531 Q113.2656,702.7656 113.1563,702.25 Q113.1094,701.8906 112.9219,701.7031 Q112.5938,701.3281 111.9844,701.1094 Q111.375,700.8906 110.75,700.8906 Q109.9844,700.8906 109.3438,701.2188 Q108.7188,701.5469 108.2188,702.2969 Q107.7344,703.0469 107.7344,704.0781 L107.7344,705.1719 Q107.7344,706.4063 108.625,707.2344 Q109.5156,708.0469 111.1094,708.0469 Q112.0469,708.0469 112.7031,707.7969 Q113.0938,707.6406 113.5156,707.2031 Q113.7813,706.9375 113.9219,706.8594 Q114.0781,706.7813 114.2813,706.7813 Q114.6094,706.7813 114.8594,707.0469 Q115.125,707.2969 115.125,707.6406 Q115.125,707.9844 114.7813,708.3906 Q114.2813,708.9688 113.4844,709.2969 Q112.4063,709.75 111.1094,709.75 Q109.5938,709.75 108.3906,709.125 Q107.4063,708.625 106.7188,707.5625 Q106.0313,706.4844 106.0313,705.2031 L106.0313,704.0469 Q106.0313,702.7188 106.6406,701.5781 Q107.2656,700.4219 108.3594,699.8125 Q109.4531,699.1875 110.6875,699.1875 Q111.4219,699.1875 112.0625,699.3594 Q112.7188,699.5156 113.2656,699.875 Z " fill="#000000"/><text fill="#000000" font-family="sans-serif" font-size="14" lengthAdjust="spacing" textLength="46" x="124.5" y="709.7285">Answer</text><line style="stroke:#181818;stroke-width:0.5;" x1="96.5" x2="172.5" y1="720" y2="720"/><line style="stroke:#181818;stroke-width:0.5;" x1="96.5" x2="172.5" y1="728" y2="728"/></g><!--MD5=[f7b1256a464262a81d5827fb39e684fb]
class Open--><g id="elem_Open"><rect codeLine="32" fill="#F1F1F1" height="48" id="Open" rx="2.5" ry="2.5" style="stroke:#181818;stroke-width:0.5;" width="67" x="7" y="775"/><ellipse cx="22" cy="791" fill="#ADD1B2" rx="11" ry="11" style="stroke:#181818;stroke-width:1.0;"/><path d="M24.7656,786.875 Q24.9219,786.6563 25.1094,786.5469 Q25.2969,786.4375 25.5156,786.4375 Q25.8906,786.4375 26.125,786.7031 Q26.3594,786.9531 26.3594,787.5625 L26.3594,789.0156 Q26.3594,789.625 26.125,789.8906 Q25.8906,790.1563 25.5156,790.1563 Q25.1719,790.1563 24.9688,789.9531 Q24.7656,789.7656 24.6563,789.25 Q24.6094,788.8906 24.4219,788.7031 Q24.0938,788.3281 23.4844,788.1094 Q22.875,787.8906 22.25,787.8906 Q21.4844,787.8906 20.8438,788.2188 Q20.2188,788.5469 19.7188,789.2969 Q19.2344,790.0469 19.2344,791.0781 L19.2344,792.1719 Q19.2344,793.4063 20.125,794.2344 Q21.0156,795.0469 22.6094,795.0469 Q23.5469,795.0469 24.2031,794.7969 Q24.5938,794.6406 25.0156,794.2031 Q25.2813,793.9375 25.4219,793.8594 Q25.5781,793.7813 25.7813,793.7813 Q26.1094,793.7813 26.3594,794.0469 Q26.625,794.2969 26.625,794.6406 Q26.625,794.9844 26.2813,795.3906 Q25.7813,795.9688 24.9844,796.2969 Q23.9063,796.75 22.6094,796.75 Q21.0938,796.75 19.8906,796.125 Q18.9063,795.625 18.2188,794.5625 Q17.5313,793.4844 17.5313,792.2031 L17.5313,791.0469 Q17.5313,789.7188 18.1406,788.5781 Q18.7656,787.4219 19.8594,786.8125 Q20.9531,786.1875 22.1875,786.1875 Q22.9219,786.1875 23.5625,786.3594 Q24.2188,786.5156 24.7656,786.875 Z " fill="#000000"/><text fill="#000000" font-family="sans-serif" font-size="14" lengthAdjust="spacing" textLength="35" x="36" y="796.7285">Open</text><line style="stroke:#181818;stroke-width:0.5;" x1="8" x2="73" y1="807" y2="807"/><line style="stroke:#181818;stroke-width:0.5;" x1="8" x2="73" y1="815" y2="815"/></g><!--MD5=[210f05ad84ecfe37f8378e5618b7165d]
class MultipleChoice--><g id="elem_MultipleChoice"><rect codeLine="34" fill="#F1F1F1" height="48" id="MultipleChoice" rx="2.5" ry="2.5" style="stroke:#181818;stroke-width:0.5;" width="124" x="281.5" y="688"/><ellipse cx="296.5" cy="704" fill="#ADD1B2" rx="11" ry="11" style="stroke:#181818;stroke-width:1.0;"/><path d="M299.2656,699.875 Q299.4219,699.6563 299.6094,699.5469 Q299.7969,699.4375 300.0156,699.4375 Q300.3906,699.4375 300.625,699.7031 Q300.8594,699.9531 300.8594,700.5625 L300.8594,702.0156 Q300.8594,702.625 300.625,702.8906 Q300.3906,703.1563 300.0156,703.1563 Q299.6719,703.1563 299.4688,702.9531 Q299.2656,702.7656 299.1563,702.25 Q299.1094,701.8906 298.9219,701.7031 Q298.5938,701.3281 297.9844,701.1094 Q297.375,700.8906 296.75,700.8906 Q295.9844,700.8906 295.3438,701.2188 Q294.7188,701.5469 294.2188,702.2969 Q293.7344,703.0469 293.7344,704.0781 L293.7344,705.1719 Q293.7344,706.4063 294.625,707.2344 Q295.5156,708.0469 297.1094,708.0469 Q298.0469,708.0469 298.7031,707.7969 Q299.0938,707.6406 299.5156,707.2031 Q299.7813,706.9375 299.9219,706.8594 Q300.0781,706.7813 300.2813,706.7813 Q300.6094,706.7813 300.8594,707.0469 Q301.125,707.2969 301.125,707.6406 Q301.125,707.9844 300.7813,708.3906 Q300.2813,708.9688 299.4844,709.2969 Q298.4063,709.75 297.1094,709.75 Q295.5938,709.75 294.3906,709.125 Q293.4063,708.625 292.7188,707.5625 Q292.0313,706.4844 292.0313,705.2031 L292.0313,704.0469 Q292.0313,702.7188 292.6406,701.5781 Q293.2656,700.4219 294.3594,699.8125 Q295.4531,699.1875 296.6875,699.1875 Q297.4219,699.1875 298.0625,699.3594 Q298.7188,699.5156 299.2656,699.875 Z " fill="#000000"/><text fill="#000000" font-family="sans-serif" font-size="14" lengthAdjust="spacing" textLength="92" x="310.5" y="709.7285">MultipleChoice</text><line style="stroke:#181818;stroke-width:0.5;" x1="282.5" x2="404.5" y1="720" y2="720"/><line style="stroke:#181818;stroke-width:0.5;" x1="282.5" x2="404.5" y1="728" y2="728"/></g><!--MD5=[b07065dfc0d0e09965ec10bfc328bb3e]
class Option--><g id="elem_Option"><rect codeLine="36" fill="#F1F1F1" height="48" id="Option" rx="2.5" ry="2.5" style="stroke:#181818;stroke-width:0.5;" width="74" x="394.5" y="853"/><ellipse cx="409.5" cy="869" fill="#ADD1B2" rx="11" ry="11" style="stroke:#181818;stroke-width:1.0;"/><path d="M412.2656,864.875 Q412.4219,864.6563 412.6094,864.5469 Q412.7969,864.4375 413.0156,864.4375 Q413.3906,864.4375 413.625,864.7031 Q413.8594,864.9531 413.8594,865.5625 L413.8594,867.0156 Q413.8594,867.625 413.625,867.8906 Q413.3906,868.1563 413.0156,868.1563 Q412.6719,868.1563 412.4688,867.9531 Q412.2656,867.7656 412.1563,867.25 Q412.1094,866.8906 411.9219,866.7031 Q411.5938,866.3281 410.9844,866.1094 Q410.375,865.8906 409.75,865.8906 Q408.9844,865.8906 408.3438,866.2188 Q407.7188,866.5469 407.2188,867.2969 Q406.7344,868.0469 406.7344,869.0781 L406.7344,870.1719 Q406.7344,871.4063 407.625,872.2344 Q408.5156,873.0469 410.1094,873.0469 Q411.0469,873.0469 411.7031,872.7969 Q412.0938,872.6406 412.5156,872.2031 Q412.7813,871.9375 412.9219,871.8594 Q413.0781,871.7813 413.2813,871.7813 Q413.6094,871.7813 413.8594,872.0469 Q414.125,872.2969 414.125,872.6406 Q414.125,872.9844 413.7813,873.3906 Q413.2813,873.9688 412.4844,874.2969 Q411.4063,874.75 410.1094,874.75 Q408.5938,874.75 407.3906,874.125 Q406.4063,873.625 405.7188,872.5625 Q405.0313,871.4844 405.0313,870.2031 L405.0313,869.0469 Q405.0313,867.7188 405.6406,866.5781 Q406.2656,865.4219 407.3594,864.8125 Q408.4531,864.1875 409.6875,864.1875 Q410.4219,864.1875 411.0625,864.3594 Q411.7188,864.5156 412.2656,864.875 Z " fill="#000000"/><text fill="#000000" font-family="sans-serif" font-size="14" lengthAdjust="spacing" textLength="42" x="423.5" y="874.7285">Option</text><line style="stroke:#181818;stroke-width:0.5;" x1="395.5" x2="467.5" y1="885" y2="885"/><line style="stroke:#181818;stroke-width:0.5;" x1="395.5" x2="467.5" y1="893" y2="893"/></g><!--MD5=[bc629657279eaa9349f412646650f2c5]
class Correct--><g id="elem_Correct"><rect codeLine="38" fill="#F1F1F1" height="48" id="Correct" rx="2.5" ry="2.5" style="stroke:#181818;stroke-width:0.5;" width="79" x="313" y="1009"/><ellipse cx="328" cy="1025" fill="#ADD1B2" rx="11" ry="11" style="stroke:#181818;stroke-width:1.0;"/><path d="M330.7656,1020.875 Q330.9219,1020.6563 331.1094,1020.5469 Q331.2969,1020.4375 331.5156,1020.4375 Q331.8906,1020.4375 332.125,1020.7031 Q332.3594,1020.9531 332.3594,1021.5625 L332.3594,1023.0156 Q332.3594,1023.625 332.125,1023.8906 Q331.8906,1024.1563 331.5156,1024.1563 Q331.1719,1024.1563 330.9688,1023.9531 Q330.7656,1023.7656 330.6563,1023.25 Q330.6094,1022.8906 330.4219,1022.7031 Q330.0938,1022.3281 329.4844,1022.1094 Q328.875,1021.8906 328.25,1021.8906 Q327.4844,1021.8906 326.8438,1022.2188 Q326.2188,1022.5469 325.7188,1023.2969 Q325.2344,1024.0469 325.2344,1025.0781 L325.2344,1026.1719 Q325.2344,1027.4063 326.125,1028.2344 Q327.0156,1029.0469 328.6094,1029.0469 Q329.5469,1029.0469 330.2031,1028.7969 Q330.5938,1028.6406 331.0156,1028.2031 Q331.2813,1027.9375 331.4219,1027.8594 Q331.5781,1027.7813 331.7813,1027.7813 Q332.1094,1027.7813 332.3594,1028.0469 Q332.625,1028.2969 332.625,1028.6406 Q332.625,1028.9844 332.2813,1029.3906 Q331.7813,1029.9688 330.9844,1030.2969 Q329.9063,1030.75 328.6094,1030.75 Q327.0938,1030.75 325.8906,1030.125 Q324.9063,1029.625 324.2188,1028.5625 Q323.5313,1027.4844 323.5313,1026.2031 L323.5313,1025.0469 Q323.5313,1023.7188 324.1406,1022.5781 Q324.7656,1021.4219 325.8594,1020.8125 Q326.9531,1020.1875 328.1875,1020.1875 Q328.9219,1020.1875 329.5625,1020.3594 Q330.2188,1020.5156 330.7656,1020.875 Z " fill="#000000"/><text fill="#000000" font-family="sans-serif" font-size="14" lengthAdjust="spacing" textLength="47" x="342" y="1030.7285">Correct</text><line style="stroke:#181818;stroke-width:0.5;" x1="314" x2="391" y1="1041" y2="1041"/><line style="stroke:#181818;stroke-width:0.5;" x1="314" x2="391" y1="1049" y2="1049"/></g><!--MD5=[37923dc032bbfca87d4413e584fa2cda]
class Incorrect--><g id="elem_Incorrect"><rect codeLine="40" fill="#F1F1F1" height="48" id="Incorrect" rx="2.5" ry="2.5" style="stroke:#181818;stroke-width:0.5;" width="87" x="438" y="1009"/><ellipse cx="453" cy="1025" fill="#ADD1B2" rx="11" ry="11" style="stroke:#181818;stroke-width:1.0;"/><path d="M455.7656,1020.875 Q455.9219,1020.6563 456.1094,1020.5469 Q456.2969,1020.4375 456.5156,1020.4375 Q456.8906,1020.4375 457.125,1020.7031 Q457.3594,1020.9531 457.3594,1021.5625 L457.3594,1023.0156 Q457.3594,1023.625 457.125,1023.8906 Q456.8906,1024.1563 456.5156,1024.1563 Q456.1719,1024.1563 455.9688,1023.9531 Q455.7656,1023.7656 455.6563,1023.25 Q455.6094,1022.8906 455.4219,1022.7031 Q455.0938,1022.3281 454.4844,1022.1094 Q453.875,1021.8906 453.25,1021.8906 Q452.4844,1021.8906 451.8438,1022.2188 Q451.2188,1022.5469 450.7188,1023.2969 Q450.2344,1024.0469 450.2344,1025.0781 L450.2344,1026.1719 Q450.2344,1027.4063 451.125,1028.2344 Q452.0156,1029.0469 453.6094,1029.0469 Q454.5469,1029.0469 455.2031,1028.7969 Q455.5938,1028.6406 456.0156,1028.2031 Q456.2813,1027.9375 456.4219,1027.8594 Q456.5781,1027.7813 456.7813,1027.7813 Q457.1094,1027.7813 457.3594,1028.0469 Q457.625,1028.2969 457.625,1028.6406 Q457.625,1028.9844 457.2813,1029.3906 Q456.7813,1029.9688 455.9844,1030.2969 Q454.9063,1030.75 453.6094,1030.75 Q452.0938,1030.75 450.8906,1030.125 Q449.9063,1029.625 449.2188,1028.5625 Q448.5313,1027.4844 448.5313,1026.2031 L448.5313,1025.0469 Q448.5313,1023.7188 449.1406,1022.5781 Q449.7656,1021.4219 450.8594,1020.8125 Q451.9531,1020.1875 453.1875,1020.1875 Q453.9219,1020.1875 454.5625,1020.3594 Q455.2188,1020.5156 455.7656,1020.875 Z " fill="#000000"/><text fill="#000000" font-family="sans-serif" font-size="14" lengthAdjust="spacing" textLength="55" x="467" y="1030.7285">Incorrect</text><line style="stroke:#181818;stroke-width:0.5;" x1="439" x2="524" y1="1041" y2="1041"/><line style="stroke:#181818;stroke-width:0.5;" x1="439" x2="524" y1="1049" y2="1049"/></g><!--MD5=[7a7df4cc8beee4d5ec4845ad980cbb28]
class OpenField--><g id="elem_OpenField"><rect codeLine="42" fill="#F1F1F1" height="48" id="OpenField" rx="2.5" ry="2.5" style="stroke:#181818;stroke-width:0.5;" width="98" x="56.5" y="1227"/><ellipse cx="71.5" cy="1243" fill="#ADD1B2" rx="11" ry="11" style="stroke:#181818;stroke-width:1.0;"/><path d="M74.2656,1238.875 Q74.4219,1238.6563 74.6094,1238.5469 Q74.7969,1238.4375 75.0156,1238.4375 Q75.3906,1238.4375 75.625,1238.7031 Q75.8594,1238.9531 75.8594,1239.5625 L75.8594,1241.0156 Q75.8594,1241.625 75.625,1241.8906 Q75.3906,1242.1563 75.0156,1242.1563 Q74.6719,1242.1563 74.4688,1241.9531 Q74.2656,1241.7656 74.1563,1241.25 Q74.1094,1240.8906 73.9219,1240.7031 Q73.5938,1240.3281 72.9844,1240.1094 Q72.375,1239.8906 71.75,1239.8906 Q70.9844,1239.8906 70.3438,1240.2188 Q69.7188,1240.5469 69.2188,1241.2969 Q68.7344,1242.0469 68.7344,1243.0781 L68.7344,1244.1719 Q68.7344,1245.4063 69.625,1246.2344 Q70.5156,1247.0469 72.1094,1247.0469 Q73.0469,1247.0469 73.7031,1246.7969 Q74.0938,1246.6406 74.5156,1246.2031 Q74.7813,1245.9375 74.9219,1245.8594 Q75.0781,1245.7813 75.2813,1245.7813 Q75.6094,1245.7813 75.8594,1246.0469 Q76.125,1246.2969 76.125,1246.6406 Q76.125,1246.9844 75.7813,1247.3906 Q75.2813,1247.9688 74.4844,1248.2969 Q73.4063,1248.75 72.1094,1248.75 Q70.5938,1248.75 69.3906,1248.125 Q68.4063,1247.625 67.7188,1246.5625 Q67.0313,1245.4844 67.0313,1244.2031 L67.0313,1243.0469 Q67.0313,1241.7188 67.6406,1240.5781 Q68.2656,1239.4219 69.3594,1238.8125 Q70.4531,1238.1875 71.6875,1238.1875 Q72.4219,1238.1875 73.0625,1238.3594 Q73.7188,1238.5156 74.2656,1238.875 Z " fill="#000000"/><text fill="#000000" font-family="sans-serif" font-size="14" lengthAdjust="spacing" textLength="66" x="85.5" y="1248.7285">OpenField</text><line style="stroke:#181818;stroke-width:0.5;" x1="57.5" x2="153.5" y1="1259" y2="1259"/><line style="stroke:#181818;stroke-width:0.5;" x1="57.5" x2="153.5" y1="1267" y2="1267"/></g><!--MD5=[bed984ae8b00ce24eb0f64fea27a6507]
class SelectedOption--><g id="elem_SelectedOption"><rect codeLine="44" fill="#F1F1F1" height="48" id="SelectedOption" rx="2.5" ry="2.5" style="stroke:#181818;stroke-width:0.5;" width="129" x="159" y="853"/><ellipse cx="174" cy="869" fill="#ADD1B2" rx="11" ry="11" style="stroke:#181818;stroke-width:1.0;"/><path d="M176.7656,864.875 Q176.9219,864.6563 177.1094,864.5469 Q177.2969,864.4375 177.5156,864.4375 Q177.8906,864.4375 178.125,864.7031 Q178.3594,864.9531 178.3594,865.5625 L178.3594,867.0156 Q178.3594,867.625 178.125,867.8906 Q177.8906,868.1563 177.5156,868.1563 Q177.1719,868.1563 176.9688,867.9531 Q176.7656,867.7656 176.6563,867.25 Q176.6094,866.8906 176.4219,866.7031 Q176.0938,866.3281 175.4844,866.1094 Q174.875,865.8906 174.25,865.8906 Q173.4844,865.8906 172.8438,866.2188 Q172.2188,866.5469 171.7188,867.2969 Q171.2344,868.0469 171.2344,869.0781 L171.2344,870.1719 Q171.2344,871.4063 172.125,872.2344 Q173.0156,873.0469 174.6094,873.0469 Q175.5469,873.0469 176.2031,872.7969 Q176.5938,872.6406 177.0156,872.2031 Q177.2813,871.9375 177.4219,871.8594 Q177.5781,871.7813 177.7813,871.7813 Q178.1094,871.7813 178.3594,872.0469 Q178.625,872.2969 178.625,872.6406 Q178.625,872.9844 178.2813,873.3906 Q177.7813,873.9688 176.9844,874.2969 Q175.9063,874.75 174.6094,874.75 Q173.0938,874.75 171.8906,874.125 Q170.9063,873.625 170.2188,872.5625 Q169.5313,871.4844 169.5313,870.2031 L169.5313,869.0469 Q169.5313,867.7188 170.1406,866.5781 Q170.7656,865.4219 171.8594,864.8125 Q172.9531,864.1875 174.1875,864.1875 Q174.9219,864.1875 175.5625,864.3594 Q176.2188,864.5156 176.7656,864.875 Z " fill="#000000"/><text fill="#000000" font-family="sans-serif" font-size="14" lengthAdjust="spacing" textLength="97" x="188" y="874.7285">SelectedOption</text><line style="stroke:#181818;stroke-width:0.5;" x1="160" x2="287" y1="885" y2="885"/><line style="stroke:#181818;stroke-width:0.5;" x1="160" x2="287" y1="893" y2="893"/></g><!--MD5=[af22135d5be6ed11ccd2d02fa51653b3]
class Definition--><g id="elem_Definition"><rect fill="#F1F1F1" height="48" id="Definition" rx="2.5" ry="2.5" style="stroke:#181818;stroke-width:0.5;" width="91" x="724" y="853"/><ellipse cx="739" cy="869" fill="#ADD1B2" rx="11" ry="11" style="stroke:#181818;stroke-width:1.0;"/><path d="M741.7656,864.875 Q741.9219,864.6563 742.1094,864.5469 Q742.2969,864.4375 742.5156,864.4375 Q742.8906,864.4375 743.125,864.7031 Q743.3594,864.9531 743.3594,865.5625 L743.3594,867.0156 Q743.3594,867.625 743.125,867.8906 Q742.8906,868.1563 742.5156,868.1563 Q742.1719,868.1563 741.9688,867.9531 Q741.7656,867.7656 741.6563,867.25 Q741.6094,866.8906 741.4219,866.7031 Q741.0938,866.3281 740.4844,866.1094 Q739.875,865.8906 739.25,865.8906 Q738.4844,865.8906 737.8438,866.2188 Q737.2188,866.5469 736.7188,867.2969 Q736.2344,868.0469 736.2344,869.0781 L736.2344,870.1719 Q736.2344,871.4063 737.125,872.2344 Q738.0156,873.0469 739.6094,873.0469 Q740.5469,873.0469 741.2031,872.7969 Q741.5938,872.6406 742.0156,872.2031 Q742.2813,871.9375 742.4219,871.8594 Q742.5781,871.7813 742.7813,871.7813 Q743.1094,871.7813 743.3594,872.0469 Q743.625,872.2969 743.625,872.6406 Q743.625,872.9844 743.2813,873.3906 Q742.7813,873.9688 741.9844,874.2969 Q740.9063,874.75 739.6094,874.75 Q738.0938,874.75 736.8906,874.125 Q735.9063,873.625 735.2188,872.5625 Q734.5313,871.4844 734.5313,870.2031 L734.5313,869.0469 Q734.5313,867.7188 735.1406,866.5781 Q735.7656,865.4219 736.8594,864.8125 Q737.9531,864.1875 739.1875,864.1875 Q739.9219,864.1875 740.5625,864.3594 Q741.2188,864.5156 741.7656,864.875 Z " fill="#000000"/><text fill="#000000" font-family="sans-serif" font-size="14" lengthAdjust="spacing" textLength="59" x="753" y="874.7285">Definition</text><line style="stroke:#181818;stroke-width:0.5;" x1="725" x2="814" y1="885" y2="885"/><line style="stroke:#181818;stroke-width:0.5;" x1="725" x2="814" y1="893" y2="893"/></g><!--MD5=[9b4de504215638550a8bb9c080b7ee00]
class Justification--><g id="elem_Justification"><rect fill="#F1F1F1" height="48" id="Justification" rx="2.5" ry="2.5" style="stroke:#181818;stroke-width:0.5;" width="105" x="795" y="1009"/><ellipse cx="810" cy="1025" fill="#ADD1B2" rx="11" ry="11" style="stroke:#181818;stroke-width:1.0;"/><path d="M812.7656,1020.875 Q812.9219,1020.6563 813.1094,1020.5469 Q813.2969,1020.4375 813.5156,1020.4375 Q813.8906,1020.4375 814.125,1020.7031 Q814.3594,1020.9531 814.3594,1021.5625 L814.3594,1023.0156 Q814.3594,1023.625 814.125,1023.8906 Q813.8906,1024.1563 813.5156,1024.1563 Q813.1719,1024.1563 812.9688,1023.9531 Q812.7656,1023.7656 812.6563,1023.25 Q812.6094,1022.8906 812.4219,1022.7031 Q812.0938,1022.3281 811.4844,1022.1094 Q810.875,1021.8906 810.25,1021.8906 Q809.4844,1021.8906 808.8438,1022.2188 Q808.2188,1022.5469 807.7188,1023.2969 Q807.2344,1024.0469 807.2344,1025.0781 L807.2344,1026.1719 Q807.2344,1027.4063 808.125,1028.2344 Q809.0156,1029.0469 810.6094,1029.0469 Q811.5469,1029.0469 812.2031,1028.7969 Q812.5938,1028.6406 813.0156,1028.2031 Q813.2813,1027.9375 813.4219,1027.8594 Q813.5781,1027.7813 813.7813,1027.7813 Q814.1094,1027.7813 814.3594,1028.0469 Q814.625,1028.2969 814.625,1028.6406 Q814.625,1028.9844 814.2813,1029.3906 Q813.7813,1029.9688 812.9844,1030.2969 Q811.9063,1030.75 810.6094,1030.75 Q809.0938,1030.75 807.8906,1030.125 Q806.9063,1029.625 806.2188,1028.5625 Q805.5313,1027.4844 805.5313,1026.2031 L805.5313,1025.0469 Q805.5313,1023.7188 806.1406,1022.5781 Q806.7656,1021.4219 807.8594,1020.8125 Q808.9531,1020.1875 810.1875,1020.1875 Q810.9219,1020.1875 811.5625,1020.3594 Q812.2188,1020.5156 812.7656,1020.875 Z " fill="#000000"/><text fill="#000000" font-family="sans-serif" font-size="14" lengthAdjust="spacing" textLength="73" x="824" y="1030.7285">Justification</text><line style="stroke:#181818;stroke-width:0.5;" x1="796" x2="899" y1="1041" y2="1041"/><line style="stroke:#181818;stroke-width:0.5;" x1="796" x2="899" y1="1049" y2="1049"/></g><!--MD5=[534474e9f05b14d7c70186ae077f30e0]
class Relation--><g id="elem_Relation"><rect fill="#F1F1F1" height="48" id="Relation" rx="2.5" ry="2.5" style="stroke:#181818;stroke-width:0.5;" width="84" x="853.5" y="931"/><ellipse cx="868.5" cy="947" fill="#ADD1B2" rx="11" ry="11" style="stroke:#181818;stroke-width:1.0;"/><path d="M871.2656,942.875 Q871.4219,942.6563 871.6094,942.5469 Q871.7969,942.4375 872.0156,942.4375 Q872.3906,942.4375 872.625,942.7031 Q872.8594,942.9531 872.8594,943.5625 L872.8594,945.0156 Q872.8594,945.625 872.625,945.8906 Q872.3906,946.1563 872.0156,946.1563 Q871.6719,946.1563 871.4688,945.9531 Q871.2656,945.7656 871.1563,945.25 Q871.1094,944.8906 870.9219,944.7031 Q870.5938,944.3281 869.9844,944.1094 Q869.375,943.8906 868.75,943.8906 Q867.9844,943.8906 867.3438,944.2188 Q866.7188,944.5469 866.2188,945.2969 Q865.7344,946.0469 865.7344,947.0781 L865.7344,948.1719 Q865.7344,949.4063 866.625,950.2344 Q867.5156,951.0469 869.1094,951.0469 Q870.0469,951.0469 870.7031,950.7969 Q871.0938,950.6406 871.5156,950.2031 Q871.7813,949.9375 871.9219,949.8594 Q872.0781,949.7813 872.2813,949.7813 Q872.6094,949.7813 872.8594,950.0469 Q873.125,950.2969 873.125,950.6406 Q873.125,950.9844 872.7813,951.3906 Q872.2813,951.9688 871.4844,952.2969 Q870.4063,952.75 869.1094,952.75 Q867.5938,952.75 866.3906,952.125 Q865.4063,951.625 864.7188,950.5625 Q864.0313,949.4844 864.0313,948.2031 L864.0313,947.0469 Q864.0313,945.7188 864.6406,944.5781 Q865.2656,943.4219 866.3594,942.8125 Q867.4531,942.1875 868.6875,942.1875 Q869.4219,942.1875 870.0625,942.3594 Q870.7188,942.5156 871.2656,942.875 Z " fill="#000000"/><text fill="#000000" font-family="sans-serif" font-size="14" lengthAdjust="spacing" textLength="52" x="882.5" y="952.7285">Relation</text><line style="stroke:#181818;stroke-width:0.5;" x1="854.5" x2="936.5" y1="963" y2="963"/><line style="stroke:#181818;stroke-width:0.5;" x1="854.5" x2="936.5" y1="971" y2="971"/></g><!--MD5=[8235d596e40eaa310e25cb7e3d92ec72]
reverse link Community to User--><g id="link_Community_User"><path codeLine="47" d="M859.27,64.54 C842.86,81.1 823.31,100.83 808.46,115.83 " fill="none" id="Community-backto-User" style="stroke:#181818;stroke-width:1.0;"/><polygon fill="#181818" points="868.5,55.22,861.4345,56.6617,860.0477,63.7382,867.1133,62.2965,868.5,55.22" style="stroke:#181818;stroke-width:1.0;"/><text fill="#000000" font-family="sans-serif" font-size="13" lengthAdjust="spacing" textLength="22" x="789.5248" y="105.1266">2..n</text></g><!--MD5=[8b55897a5ea9705e017b96a45c367fde]
reverse link Community to Category--><g id="link_Community_Category"><path codeLine="48" d="M927.46,64.61 C945.06,84.18 962.5,110.71 962.5,139 C962.5,139 962.5,139 962.5,713 C962.5,762.82 964.39,821.18 965.57,852.79 " fill="none" id="Community-backto-Category" style="stroke:#181818;stroke-width:1.0;"/><polygon fill="none" points="918.34,55.04,919.5835,62.1431,926.6185,63.7271,925.375,56.6241,918.34,55.04" style="stroke:#181818;stroke-width:1.0;"/><text fill="#000000" font-family="sans-serif" font-size="13" lengthAdjust="spacing" textLength="22" x="940.5129" y="842.0763">0..n</text></g><!--MD5=[c98fdacbcd4eb224c2d9d26b53646e58]
reverse link Category to Category--><g id="link_Category_Category"><path codeLine="50" d="M1025.1,862.85 C1037.53,864.28 1046.5,869 1046.5,877 C1046.5,887.66 1030.55,892.5 1011.73,891.5 " fill="none" id="Category-backto-Category" style="stroke:#181818;stroke-width:1.0;"/><polygon fill="none" points="1011.73,862.5,1017.6225,866.6568,1023.7258,862.8164,1017.8334,858.6596,1011.73,862.5" style="stroke:#181818;stroke-width:1.0;"/><text fill="#000000" font-family="sans-serif" font-size="13" lengthAdjust="spacing" textLength="83" x="1052.5" y="882.4951">Subcategories</text><text fill="#000000" font-family="sans-serif" font-size="13" lengthAdjust="spacing" textLength="22" x="1019.6373" y="889.9339">0..n</text></g><!--MD5=[d87c224b488f6c9759d0a77cb4053101]
reverse link User to Teacher--><g id="link_User_Teacher"><path codeLine="52" d="M785.5,184.58 C785.5,198.36 785.5,213.06 785.5,224.83 " fill="none" id="User-backto-Teacher" style="stroke:#181818;stroke-width:1.0;"/><polygon fill="none" points="778.5,184.22,785.5,164.22,792.5,184.22,778.5,184.22" style="stroke:#181818;stroke-width:1.0;"/></g><!--MD5=[29fe19ce294944fa80f389ae9bd987a4]
reverse link User to Student--><g id="link_User_Student"><path codeLine="53" d="M743.5,177.54 C725.49,193.2 705,211.03 689.14,224.83 " fill="none" id="User-backto-Student" style="stroke:#181818;stroke-width:1.0;"/><polygon fill="none" points="739.13,172.06,758.81,164.22,748.32,182.63,739.13,172.06" style="stroke:#181818;stroke-width:1.0;"/></g><!--MD5=[a8afb83bcf8ff3e1e4f8554b4cb258ee]
link Teacher to Concept--><g id="link_Teacher_Concept"><path codeLine="55" d="M786.53,273.37 C787.4,295.05 788.5,328.2 788.5,357 C788.5,357 788.5,357 788.5,586 C788.5,615.59 791.6,648.97 794.5,673.79 " fill="none" id="Teacher-to-Concept" style="stroke:#181818;stroke-width:1.0;"/><polygon fill="#181818" points="795.12,678.95,798.0128,669.5356,794.5209,673.986,790.0704,670.4941,795.12,678.95" style="stroke:#181818;stroke-width:1.0;"/><text fill="#000000" font-family="sans-serif" font-size="13" lengthAdjust="spacing" textLength="22" x="769.9479" y="668.0551">0..n</text></g><!--MD5=[f4125322de8968b604c5431ed9c8902a]
link Concept to Category--><g id="link_Concept_Category"><path codeLine="56" d="M842.18,736.15 C859.49,746.69 879.01,760.14 894.5,775 C914.99,794.66 933.47,820.86 946.58,841.65 " fill="none" id="Concept-to-Category" style="stroke:#181818;stroke-width:1.0;"/><polygon fill="none" points="953.47,852.87,953.7383,845.6639,947.1897,842.6447,946.9214,849.8508,953.47,852.87" style="stroke:#181818;stroke-width:1.0;"/></g><!--MD5=[ed083f2d1ee1d19af9b715a82f936d84]
link Question to Concept--><g id="link_Question_Concept"><path codeLine="57" d="M579.15,607.06 C624.84,628.62 695.9,662.13 744.9,685.25 " fill="none" id="Question-to-Concept" style="stroke:#181818;stroke-width:1.0;"/><polygon fill="none" points="756.86,690.89,753.1357,684.7151,746.0034,685.7779,749.7277,691.9528,756.86,690.89" style="stroke:#181818;stroke-width:1.0;"/></g><!--MD5=[543bb2115b5a10697a67507a00f6a2f4]
reverse link Concept to Definition--><g id="link_Concept_Definition"><path codeLine="58" d="M791.18,758.19 C785.53,788.91 778.29,828.27 773.77,852.81 " fill="none" id="Concept-backto-Definition" style="stroke:#181818;stroke-width:1.0;"/><polygon fill="none" points="793.57,745.2,788.5541,750.3808,791.4071,757.0035,796.4231,751.8227,793.57,745.2" style="stroke:#181818;stroke-width:1.0;"/></g><!--MD5=[38796b68b5180f699f927fbe8d179b6a]
reverse link Definition to Justification--><g id="link_Definition_Justification"><path codeLine="59" d="M787.14,912.83 C802,942.17 822.84,983.32 835.74,1008.79 " fill="none" id="Definition-backto-Justification" style="stroke:#181818;stroke-width:1.0;"/><polygon fill="none" points="781.18,901.06,780.3207,908.2197,786.5992,911.7666,787.4585,904.6069,781.18,901.06" style="stroke:#181818;stroke-width:1.0;"/></g><!--MD5=[54f9360500e0fd532969fc16f437bbea]
reverse link Concept to Relation--><g id="link_Concept_Relation"><path codeLine="60" d="M817.15,757.32 C837.57,808.58 870.41,891.01 886.3,930.9 " fill="none" id="Concept-backto-Relation" style="stroke:#181818;stroke-width:1.0;"/><polygon fill="none" points="812.25,745,810.7472,752.0528,816.6794,756.1526,818.1822,749.0998,812.25,745" style="stroke:#181818;stroke-width:1.0;"/></g><!--MD5=[a87ccfb1ad401ebc9457283edda68da5]
link Student to Evaluation--><g id="link_Student_Evaluation"><path codeLine="62" d="M652.74,273.22 C645.84,289.62 636.55,311.69 629.25,329.06 " fill="none" id="Student-to-Evaluation" style="stroke:#181818;stroke-width:1.0;"/><polygon fill="#181818" points="627.25,333.83,634.4291,327.0875,629.1903,329.2218,627.056,323.9831,627.25,333.83" style="stroke:#181818;stroke-width:1.0;"/><text fill="#000000" font-family="sans-serif" font-size="13" lengthAdjust="spacing" textLength="22" x="604.9297" y="323.1266">0..n</text></g><!--MD5=[7ea0c49f743e358ac875b85df2ad47d3]
link Evaluation to Test--><g id="link_Evaluation_Test"><path codeLine="63" d="M612.51,382.22 C609.01,398.48 604.32,420.32 600.6,437.62 " fill="none" id="Evaluation-to-Test" style="stroke:#181818;stroke-width:1.0;"/><polygon fill="#181818" points="599.48,442.83,605.2929,434.8795,600.5374,437.9431,597.4738,433.1876,599.48,442.83" style="stroke:#181818;stroke-width:1.0;"/></g><!--MD5=[a2e747a1485550e1f078495d463b7eef]
link Evaluation to Result--><g id="link_Evaluation_Result"><path codeLine="64" d="M590.59,382.22 C571.09,399.04 544.69,421.83 524.34,439.39 " fill="none" id="Evaluation-to-Result" style="stroke:#181818;stroke-width:1.0;"/><polygon fill="#181818" points="520.35,442.83,529.7812,439.9923,524.1402,439.569,524.5636,433.928,520.35,442.83" style="stroke:#181818;stroke-width:1.0;"/></g><!--MD5=[67b6cc77f9c51a9ece6c1301ad2aff24]
link Teacher to Evaluation--><g id="link_Teacher_Evaluation"><path codeLine="66" d="M749.05,273.22 C722.3,290.25 685.96,313.4 658.25,331.04 " fill="none" id="Teacher-to-Evaluation" style="stroke:#181818;stroke-width:1.0;stroke-dasharray:7.0,7.0;"/><polygon fill="#181818" points="653.88,333.83,663.6195,332.3664,658.0965,331.1428,659.3201,325.6199,653.88,333.83" style="stroke:#181818;stroke-width:1.0;"/></g><!--MD5=[affac43304043ba8fb26272df4af1a5a]
reverse link AnswersToReview to OpenField--><g id="link_AnswersToReview_OpenField"><path codeLine="67" d="M619.62,1158.47 C491.55,1181.27 256.27,1223.16 154.52,1241.27 " fill="none" id="AnswersToReview-backto-OpenField" style="stroke:#181818;stroke-width:1.0;"/><polygon fill="#181818" points="632.81,1156.12,626.2034,1153.2299,620.9946,1158.2167,627.6012,1161.1068,632.81,1156.12" style="stroke:#181818;stroke-width:1.0;"/><text fill="#000000" font-family="sans-serif" font-size="13" lengthAdjust="spacing" textLength="22" x="162.5852" y="1236.4063">1..n</text></g><!--MD5=[d0493fe3f8433ad70d7ac94d8da863ff]
reverse link Definition to AnswersToReview--><g id="link_Definition_AnswersToReview"><path codeLine="68" d="M762.74,906.21 C750.22,958.47 723.65,1069.41 712.08,1117.71 " fill="none" id="Definition-backto-AnswersToReview" style="stroke:#181818;stroke-width:1.0;stroke-dasharray:7.0,7.0;"/><polygon fill="#181818" points="763.91,901.34,757.9166,909.1553,762.741,906.2014,765.6949,911.0258,763.91,901.34" style="stroke:#181818;stroke-width:1.0;"/></g><!--MD5=[1a4d83db36a33f2fbcdef02fb8712ac7]
reverse link Justification to AnswersToReview--><g id="link_Justification_AnswersToReview"><path codeLine="69" d="M812.66,1060.44 C789.47,1078.04 759.29,1100.94 737.04,1117.83 " fill="none" id="Justification-backto-AnswersToReview" style="stroke:#181818;stroke-width:1.0;stroke-dasharray:7.0,7.0;"/><polygon fill="#181818" points="816.91,1057.22,807.3279,1059.4968,812.9342,1060.2519,812.179,1065.8582,816.91,1057.22" style="stroke:#181818;stroke-width:1.0;"/></g><!--MD5=[ca1db39ba97a6974584bf41ab4f0a9b1]
reverse link Relation to AnswersToReview--><g id="link_Relation_AnswersToReview"><path codeLine="70" d="M912.22,983.65 C922.91,1005.28 932.26,1035.23 917.5,1057 C886.96,1102.03 828.03,1122.92 780.2,1132.61 " fill="none" id="Relation-backto-AnswersToReview" style="stroke:#181818;stroke-width:1.0;stroke-dasharray:7.0,7.0;"/><polygon fill="#181818" points="909.92,979.17,910.4676,989.0036,912.2016,983.6191,917.5861,985.3531,909.92,979.17" style="stroke:#181818;stroke-width:1.0;"/></g><!--MD5=[8098576c667d4ac97e7e9c684b3abdab]
reverse link Evaluation to AnswersToReview--><g id="link_Evaluation_AnswersToReview"><path codeLine="72" d="M642.75,385.95 C659.15,406.33 677.5,435.85 677.5,466 C677.5,466 677.5,466 677.5,649 C677.5,829.97 697.29,1047.73 704.18,1117.97 " fill="none" id="Evaluation-backto-AnswersToReview" style="stroke:#181818;stroke-width:1.0;stroke-dasharray:7.0,7.0;"/><polygon fill="#181818" points="639.5,382,642.1472,391.4864,642.684,385.8551,648.3154,386.392,639.5,382" style="stroke:#181818;stroke-width:1.0;"/><text fill="#000000" font-family="sans-serif" font-size="13" lengthAdjust="spacing" textLength="42" x="680.5" y="717.4951">manual</text></g><!--MD5=[633f8dfcb7b6c7cb49429b789d025168]
reverse link Evaluation to SelectedOption--><g id="link_Evaluation_SelectedOption"><path codeLine="73" d="M563.36,362.49 C456.02,370.91 226.5,396.98 226.5,466 C226.5,466 226.5,466 226.5,713 C226.5,762.81 225.08,821.18 224.2,852.79 " fill="none" id="Evaluation-backto-SelectedOption" style="stroke:#181818;stroke-width:1.0;stroke-dasharray:7.0,7.0;"/><polygon fill="#181818" points="568.38,362.11,559.0983,358.8161,563.3949,362.4957,559.7153,366.7923,568.38,362.11" style="stroke:#181818;stroke-width:1.0;"/><text fill="#000000" font-family="sans-serif" font-size="13" lengthAdjust="spacing" textLength="57" x="227.5" y="590.4951">automatic</text></g><!--MD5=[37c1e8dba486a8108983e1d119d6febb]
reverse link Test to Question--><g id="link_Test_Question"><path codeLine="75" d="M576.43,502.93 C568.44,518.39 559.09,536.46 551.25,551.62 " fill="none" id="Test-backto-Question" style="stroke:#181818;stroke-width:1.0;"/><polygon fill="#181818" points="582.5,491.2,576.1904,494.6912,576.9862,501.8582,583.2959,498.3671,582.5,491.2" style="stroke:#181818;stroke-width:1.0;"/><text fill="#000000" font-family="sans-serif" font-size="13" lengthAdjust="spacing" textLength="22" x="530.382" y="541.0415">1..n</text></g><!--MD5=[f5bccbd5bfaa05fddfe2ae56cb719779]
reverse link Question to MultipleChoice--><g id="link_Question_MultipleChoice"><path codeLine="76" d="M472.64,626.48 C441.56,646.82 405.03,670.73 378.77,687.92 " fill="none" id="Question-backto-MultipleChoice" style="stroke:#181818;stroke-width:1.0;"/><polygon fill="none" points="469.15,620.4,489.72,615.31,476.82,632.12,469.15,620.4" style="stroke:#181818;stroke-width:1.0;"/></g><!--MD5=[4cad30c456caf6c2d8ef64c6efcf5ce1]
reverse link Question to Open--><g id="link_Question_Open"><path codeLine="77" d="M469.77,595.45 C350.7,613.38 106.43,652.84 77.5,679 C50.38,703.52 42.94,747.53 41.02,774.61 " fill="none" id="Question-backto-Open" style="stroke:#181818;stroke-width:1.0;"/><polygon fill="none" points="468.97,588.49,489.79,592.47,471.04,602.34,468.97,588.49" style="stroke:#181818;stroke-width:1.0;"/></g><!--MD5=[eff6b19138ddb6af13849faaf0a4f1bc]
reverse link Question to Statement--><g id="link_Question_Statement"><path codeLine="78" d="M518.12,630.51 C510.97,649.95 502.88,671.92 496.97,687.99 " fill="none" id="Question-backto-Statement" style="stroke:#181818;stroke-width:1.0;"/><polygon fill="#181818" points="522.65,618.19,516.8252,622.441,518.5089,629.4528,524.3337,625.2018,522.65,618.19" style="stroke:#181818;stroke-width:1.0;"/></g><!--MD5=[ead2da4d06dc47ab4b58230ab7355ef0]
reverse link MultipleChoice to Option--><g id="link_MultipleChoice_Option"><path codeLine="79" d="M362.29,747.8 C379.4,779.51 404.2,825.43 419,852.85 " fill="none" id="MultipleChoice-backto-Option" style="stroke:#181818;stroke-width:1.0;"/><polygon fill="#181818" points="355.92,736.01,355.2475,743.1897,361.6163,746.5718,362.2888,739.3922,355.92,736.01" style="stroke:#181818;stroke-width:1.0;"/><text fill="#000000" font-family="sans-serif" font-size="13" lengthAdjust="spacing" textLength="22" x="390.9781" y="842.1517">2..n</text></g><!--MD5=[8b4b6ce4502ba24ddb3ea6e9e3ffd79d]
reverse link Option to Incorrect--><g id="link_Option_Incorrect"><path codeLine="80" d="M445.17,920.11 C454.45,948.68 466.36,985.37 473.96,1008.79 " fill="none" id="Option-backto-Incorrect" style="stroke:#181818;stroke-width:1.0;"/><polygon fill="none" points="438.5,922.24,438.99,901.06,451.82,917.92,438.5,922.24" style="stroke:#181818;stroke-width:1.0;"/></g><!--MD5=[e9c99f228a0238815f6b3520e77f42c1]
reverse link Option to Correct--><g id="link_Option_Correct"><path codeLine="81" d="M410.53,918.87 C395.79,947.61 376.6,985.02 364.41,1008.79 " fill="none" id="Option-backto-Correct" style="stroke:#181818;stroke-width:1.0;"/><polygon fill="none" points="404.32,915.66,419.67,901.06,416.77,922.05,404.32,915.66" style="stroke:#181818;stroke-width:1.0;"/></g><!--MD5=[dbc39d3c7bd5d7c9396f15d8cd3d35b5]
reverse link MultipleChoice to Correct--><g id="link_MultipleChoice_Correct"><path codeLine="82" d="M344.53,749.57 C346.4,815.86 350.3,954.08 351.85,1008.89 " fill="none" id="MultipleChoice-backto-Correct" style="stroke:#181818;stroke-width:1.0;"/><polygon fill="#181818" points="344.15,736.2,340.3163,742.3076,344.4795,748.1955,348.3133,742.0879,344.15,736.2" style="stroke:#181818;stroke-width:1.0;"/></g><!--MD5=[edac056e3da0b394aa7eb7158b920fdf]
reverse link MultipleChoice to Incorrect--><g id="link_MultipleChoice_Incorrect"><path codeLine="83" d="M391.71,743.72 C425.55,768.49 467.79,806.76 485.5,853 C505.68,905.69 495.23,973.64 487.44,1008.73 " fill="none" id="MultipleChoice-backto-Incorrect" style="stroke:#181818;stroke-width:1.0;"/><polygon fill="#181818" points="381.06,736.15,383.6355,742.8855,390.8435,743.0986,388.268,736.3632,381.06,736.15" style="stroke:#181818;stroke-width:1.0;"/><text fill="#000000" font-family="sans-serif" font-size="13" lengthAdjust="spacing" textLength="22" x="464.1434" y="998.001">1..n</text></g><!--MD5=[7f85988a8424233e6b2a524ae8a6ac9b]
reverse link MultipleChoice to SelectedOption--><g id="link_MultipleChoice_SelectedOption"><path codeLine="84" d="M318.8,746.55 C295.44,778.28 261,825.07 240.55,852.85 " fill="none" id="MultipleChoice-backto-SelectedOption" style="stroke:#181818;stroke-width:1.0;"/><polygon fill="#181818" points="326.56,736.01,319.783,738.4742,319.4511,745.6776,326.2281,743.2135,326.56,736.01" style="stroke:#181818;stroke-width:1.0;"/></g><!--MD5=[59461357328b13f33e0e2dce35b637f1]
reverse link Open to OpenField--><g id="link_Open_OpenField"><path codeLine="85" d="M38.28,836.42 C36.57,867.61 34.5,913.74 34.5,954 C34.5,954 34.5,954 34.5,1143 C34.5,1176.22 58.55,1207.02 78.66,1226.96 " fill="none" id="Open-backto-OpenField" style="stroke:#181818;stroke-width:1.0;"/><polygon fill="#181818" points="39.03,823.21,34.6939,828.9718,38.3447,835.1904,42.6808,829.4287,39.03,823.21" style="stroke:#181818;stroke-width:1.0;"/></g><!--MD5=[f8d4517273a291fe1b4647de6925b9ab]
reverse link Answer to OpenField--><g id="link_Answer_OpenField"><path codeLine="86" d="M122.58,756.02 C114.58,788.67 105.5,834.82 105.5,876 C105.5,876 105.5,876 105.5,1143 C105.5,1171.79 105.5,1204.95 105.5,1226.62 " fill="none" id="Answer-backto-OpenField" style="stroke:#181818;stroke-width:1.0;"/><polygon fill="none" points="115.91,753.86,127.7,736.25,129.47,757.37,115.91,753.86" style="stroke:#181818;stroke-width:1.0;"/></g><!--MD5=[c9991b0162c2b5928e47e95121f6f5d4]
reverse link Answer to SelectedOption--><g id="link_Answer_SelectedOption"><path codeLine="87" d="M156.81,753.85 C173.88,785.12 196.82,827.13 210.86,852.85 " fill="none" id="Answer-backto-SelectedOption" style="stroke:#181818;stroke-width:1.0;"/><polygon fill="none" points="150.5,756.92,147.06,736.01,162.79,750.21,150.5,756.92" style="stroke:#181818;stroke-width:1.0;"/></g><!--MD5=[2b8bf374309ff4b673033666bb85618b]
reverse link Question to AnswersToReview--><g id="link_Question_AnswersToReview"><path codeLine="88" d="M543.95,630.94 C569.52,752.26 638.54,1078.04 644.5,1088 C651.34,1099.42 661.52,1109.6 671.66,1117.91 " fill="none" id="Question-backto-AnswersToReview" style="stroke:#181818;stroke-width:1.0;"/><polygon fill="none" points="541.26,618.18,538.5849,624.8766,543.7374,629.9215,546.4125,623.2249,541.26,618.18" style="stroke:#181818;stroke-width:1.0;"/></g><!--MD5=[6424800c3d9cfb9ea6f762ccac5fe99e]
@startuml OpoTestDomain

class Community

class User

class Teacher

class Student

class Evaluation

class Result

class Category 

class Test 

class AnswersToReview

class Concept {
    keyword
}

class Question {
    level
}

class Statement

class Answer 

class Open 

class MultipleChoice

class Option

class Correct

Class Incorrect

class OpenField

Class SelectedOption


Community *- - "2..n" User
Community o- - "0..n" Category

Category o- -"0..n" Category : Subcategories

User <|- - Teacher
User <|- - Student

Teacher - ->"0..n" Concept
Concept - -o Category
Question - -o Concept
Concept o- - Definition
Definition o- - Justification
Concept o- - Relation

Student - -> "0..n" Evaluation
Evaluation - -> Test
Evaluation - -> Result

Teacher ..> Evaluation
AnswersToReview *- - "1..n" OpenField
Definition <.. AnswersToReview
Justification <.. AnswersToReview
Relation <.. AnswersToReview

Evaluation <.. AnswersToReview : manual
Evaluation <.. SelectedOption : automatic

Test *- - "1..n" Question
Question <|- - MultipleChoice
Question <|- - Open
Question *- -   Statement
MultipleChoice *- - "2..n" Option
Option <|- - Incorrect
Option <|- - Correct
MultipleChoice *- - Correct
MultipleChoice *- - "1..n" Incorrect
MultipleChoice *- - SelectedOption
Open *- - OpenField
Answer <|- - OpenField
Answer <|- - SelectedOption
Question o- - AnswersToReview

@enduml

PlantUML version 1.2022.7(Mon Aug 22 18:01:30 WEST 2022)
(GPL source distribution)
Java Runtime: OpenJDK Runtime Environment
JVM: OpenJDK 64-Bit Server VM
Default Encoding: Cp1252
Language: es
Country: ES
--></g></svg>