<?xml version="1.0" encoding="UTF-8" standalone="no"?><svg xmlns="http://www.w3.org/2000/svg" xmlns:xlink="http://www.w3.org/1999/xlink" contentStyleType="text/css" height="545px" preserveAspectRatio="none" style="width:275px;height:545px;background:#FFFFFF;" version="1.1" viewBox="0 0 275 545" width="275px" zoomAndPan="magnify"><defs/><g><!--MD5=[3fd616f346a44cd59a91eb10b19e157c]
class User--><g id="elem_User"><rect codeLine="2" fill="#F1F1F1" height="65.6094" id="User" rx="2.5" ry="2.5" style="stroke:#181818;stroke-width:0.5;" width="61" x="9" y="7"/><ellipse cx="24" cy="23" fill="#ADD1B2" rx="11" ry="11" style="stroke:#181818;stroke-width:1.0;"/><path d="M26.7656,18.875 Q26.9219,18.6563 27.1094,18.5469 Q27.2969,18.4375 27.5156,18.4375 Q27.8906,18.4375 28.125,18.7031 Q28.3594,18.9531 28.3594,19.5625 L28.3594,21.0156 Q28.3594,21.625 28.125,21.8906 Q27.8906,22.1563 27.5156,22.1563 Q27.1719,22.1563 26.9688,21.9531 Q26.7656,21.7656 26.6563,21.25 Q26.6094,20.8906 26.4219,20.7031 Q26.0938,20.3281 25.4844,20.1094 Q24.875,19.8906 24.25,19.8906 Q23.4844,19.8906 22.8438,20.2188 Q22.2188,20.5469 21.7188,21.2969 Q21.2344,22.0469 21.2344,23.0781 L21.2344,24.1719 Q21.2344,25.4063 22.125,26.2344 Q23.0156,27.0469 24.6094,27.0469 Q25.5469,27.0469 26.2031,26.7969 Q26.5938,26.6406 27.0156,26.2031 Q27.2813,25.9375 27.4219,25.8594 Q27.5781,25.7813 27.7813,25.7813 Q28.1094,25.7813 28.3594,26.0469 Q28.625,26.2969 28.625,26.6406 Q28.625,26.9844 28.2813,27.3906 Q27.7813,27.9688 26.9844,28.2969 Q25.9063,28.75 24.6094,28.75 Q23.0938,28.75 21.8906,28.125 Q20.9063,27.625 20.2188,26.5625 Q19.5313,25.4844 19.5313,24.2031 L19.5313,23.0469 Q19.5313,21.7188 20.1406,20.5781 Q20.7656,19.4219 21.8594,18.8125 Q22.9531,18.1875 24.1875,18.1875 Q24.9219,18.1875 25.5625,18.3594 Q26.2188,18.5156 26.7656,18.875 Z " fill="#000000"/><text fill="#000000" font-family="sans-serif" font-size="14" lengthAdjust="spacing" textLength="29" x="38" y="28.7285">User</text><line style="stroke:#181818;stroke-width:0.5;" x1="10" x2="69" y1="39" y2="39"/><polygon fill="none" points="20,48.3047,24,52.3047,20,56.3047,16,52.3047" style="stroke:#B38D22;stroke-width:1.0;"/><text fill="#000000" font-family="sans-serif" font-size="14" lengthAdjust="spacing" textLength="24" x="29" y="57.5332">role</text><line style="stroke:#181818;stroke-width:0.5;" x1="10" x2="69" y1="64.6094" y2="64.6094"/></g><!--MD5=[a96594a83e2ecdc78cbf17c2ddf01934]
class Category--><g id="elem_Category"><rect codeLine="7" fill="#F1F1F1" height="65.6094" id="Category" rx="2.5" ry="2.5" style="stroke:#181818;stroke-width:0.5;" width="90" x="59.5" y="364"/><ellipse cx="74.5" cy="380" fill="#EB937F" rx="11" ry="11" style="stroke:#181818;stroke-width:1.0;"/><path d="M73.3594,380.7969 L73.3594,383.2969 L77.6875,383.2969 L77.6875,382.375 Q77.6875,381.7656 77.9219,381.5 Q78.1719,381.2344 78.5469,381.2344 Q78.9219,381.2344 79.1563,381.5 Q79.3906,381.7656 79.3906,382.375 L79.3906,385 L71.3906,385 Q70.7656,385 70.5,384.7656 Q70.25,384.5313 70.25,384.1406 Q70.25,383.7656 70.5156,383.5313 Q70.7813,383.2969 71.3906,383.2969 L71.6563,383.2969 L71.6563,376.6406 L71.3906,376.6406 Q70.7656,376.6406 70.5,376.4063 Q70.25,376.1719 70.25,375.7813 Q70.25,375.4063 70.5,375.1719 Q70.7656,374.9375 71.3906,374.9375 L79.0156,374.9375 L79.0156,377.5313 Q79.0156,378.1406 78.7813,378.4063 Q78.5625,378.6563 78.1719,378.6563 Q77.7969,378.6563 77.5625,378.4063 Q77.3281,378.1406 77.3281,377.5313 L77.3281,376.6406 L73.3594,376.6406 L73.3594,379.0938 L74.8438,379.0938 Q74.8438,378.4375 74.9688,378.25 Q75.2344,377.8438 75.7031,377.8438 Q76.0781,377.8438 76.3125,378.1094 Q76.5469,378.3594 76.5469,378.9688 L76.5469,380.9375 Q76.5469,381.4844 76.4219,381.6719 Q76.1563,382.0625 75.7031,382.0625 Q75.2344,382.0625 74.9688,381.6563 Q74.8438,381.4688 74.8438,380.7969 L73.3594,380.7969 Z " fill="#000000"/><text fill="#000000" font-family="sans-serif" font-size="14" lengthAdjust="spacing" textLength="58" x="88.5" y="385.7285">Category</text><line style="stroke:#181818;stroke-width:0.5;" x1="60.5" x2="148.5" y1="396" y2="396"/><line style="stroke:#181818;stroke-width:0.5;" x1="60.5" x2="148.5" y1="404" y2="404"/><text fill="#000000" font-family="sans-serif" font-size="14" lengthAdjust="spacing" textLength="50" x="65.5" y="422.5332">create()</text></g><!--MD5=[9c1df00e5aaf042f20970631c477ed7b]
class Subcategory--><g id="elem_Subcategory"><rect codeLine="11" fill="#F1F1F1" height="48" id="Subcategory" rx="2.5" ry="2.5" style="stroke:#181818;stroke-width:0.5;" width="112" x="48.5" y="490"/><ellipse cx="63.5" cy="506" fill="#EB937F" rx="11" ry="11" style="stroke:#181818;stroke-width:1.0;"/><path d="M62.3594,506.7969 L62.3594,509.2969 L66.6875,509.2969 L66.6875,508.375 Q66.6875,507.7656 66.9219,507.5 Q67.1719,507.2344 67.5469,507.2344 Q67.9219,507.2344 68.1563,507.5 Q68.3906,507.7656 68.3906,508.375 L68.3906,511 L60.3906,511 Q59.7656,511 59.5,510.7656 Q59.25,510.5313 59.25,510.1406 Q59.25,509.7656 59.5156,509.5313 Q59.7813,509.2969 60.3906,509.2969 L60.6563,509.2969 L60.6563,502.6406 L60.3906,502.6406 Q59.7656,502.6406 59.5,502.4063 Q59.25,502.1719 59.25,501.7813 Q59.25,501.4063 59.5,501.1719 Q59.7656,500.9375 60.3906,500.9375 L68.0156,500.9375 L68.0156,503.5313 Q68.0156,504.1406 67.7813,504.4063 Q67.5625,504.6563 67.1719,504.6563 Q66.7969,504.6563 66.5625,504.4063 Q66.3281,504.1406 66.3281,503.5313 L66.3281,502.6406 L62.3594,502.6406 L62.3594,505.0938 L63.8438,505.0938 Q63.8438,504.4375 63.9688,504.25 Q64.2344,503.8438 64.7031,503.8438 Q65.0781,503.8438 65.3125,504.1094 Q65.5469,504.3594 65.5469,504.9688 L65.5469,506.9375 Q65.5469,507.4844 65.4219,507.6719 Q65.1563,508.0625 64.7031,508.0625 Q64.2344,508.0625 63.9688,507.6563 Q63.8438,507.4688 63.8438,506.7969 L62.3594,506.7969 Z " fill="#000000"/><text fill="#000000" font-family="sans-serif" font-size="14" lengthAdjust="spacing" textLength="80" x="77.5" y="511.7285">Subcategory</text><line style="stroke:#181818;stroke-width:0.5;" x1="49.5" x2="159.5" y1="522" y2="522"/><line style="stroke:#181818;stroke-width:0.5;" x1="49.5" x2="159.5" y1="530" y2="530"/></g><!--MD5=[df38be88ccee13e832d6fafd6288a4ca]
class Test--><g id="elem_Test"><rect codeLine="15" fill="#F1F1F1" height="65.6094" id="Test" rx="2.5" ry="2.5" style="stroke:#181818;stroke-width:0.5;" width="121" x="105" y="7"/><ellipse cx="147.45" cy="23" fill="#ADD1B2" rx="11" ry="11" style="stroke:#181818;stroke-width:1.0;"/><path d="M150.2156,18.875 Q150.3719,18.6563 150.5594,18.5469 Q150.7469,18.4375 150.9656,18.4375 Q151.3406,18.4375 151.575,18.7031 Q151.8094,18.9531 151.8094,19.5625 L151.8094,21.0156 Q151.8094,21.625 151.575,21.8906 Q151.3406,22.1563 150.9656,22.1563 Q150.6219,22.1563 150.4188,21.9531 Q150.2156,21.7656 150.1063,21.25 Q150.0594,20.8906 149.8719,20.7031 Q149.5438,20.3281 148.9344,20.1094 Q148.325,19.8906 147.7,19.8906 Q146.9344,19.8906 146.2938,20.2188 Q145.6688,20.5469 145.1688,21.2969 Q144.6844,22.0469 144.6844,23.0781 L144.6844,24.1719 Q144.6844,25.4063 145.575,26.2344 Q146.4656,27.0469 148.0594,27.0469 Q148.9969,27.0469 149.6531,26.7969 Q150.0438,26.6406 150.4656,26.2031 Q150.7313,25.9375 150.8719,25.8594 Q151.0281,25.7813 151.2313,25.7813 Q151.5594,25.7813 151.8094,26.0469 Q152.075,26.2969 152.075,26.6406 Q152.075,26.9844 151.7313,27.3906 Q151.2313,27.9688 150.4344,28.2969 Q149.3563,28.75 148.0594,28.75 Q146.5438,28.75 145.3406,28.125 Q144.3563,27.625 143.6688,26.5625 Q142.9813,25.4844 142.9813,24.2031 L142.9813,23.0469 Q142.9813,21.7188 143.5906,20.5781 Q144.2156,19.4219 145.3094,18.8125 Q146.4031,18.1875 147.6375,18.1875 Q148.3719,18.1875 149.0125,18.3594 Q149.6688,18.5156 150.2156,18.875 Z " fill="#000000"/><text fill="#000000" font-family="sans-serif" font-size="14" lengthAdjust="spacing" textLength="28" x="167.55" y="28.7285">Test</text><line style="stroke:#181818;stroke-width:0.5;" x1="106" x2="225" y1="39" y2="39"/><polygon fill="none" points="116,48.3047,120,52.3047,116,56.3047,112,52.3047" style="stroke:#B38D22;stroke-width:1.0;"/><text fill="#000000" font-family="sans-serif" font-size="14" lengthAdjust="spacing" textLength="95" x="125" y="57.5332">List[] questions</text><line style="stroke:#181818;stroke-width:0.5;" x1="106" x2="225" y1="64.6094" y2="64.6094"/></g><!--MD5=[fc7123defb831ecdd44b2d9bcef6cceb]
class Question--><g id="elem_Question"><rect codeLine="19" fill="#F1F1F1" height="171.2656" id="Question" rx="2.5" ry="2.5" style="stroke:#181818;stroke-width:0.5;" width="112" x="109.5" y="133"/><ellipse cx="134.85" cy="149" fill="#ADD1B2" rx="11" ry="11" style="stroke:#181818;stroke-width:1.0;"/><path d="M137.6156,144.875 Q137.7719,144.6563 137.9594,144.5469 Q138.1469,144.4375 138.3656,144.4375 Q138.7406,144.4375 138.975,144.7031 Q139.2094,144.9531 139.2094,145.5625 L139.2094,147.0156 Q139.2094,147.625 138.975,147.8906 Q138.7406,148.1563 138.3656,148.1563 Q138.0219,148.1563 137.8188,147.9531 Q137.6156,147.7656 137.5063,147.25 Q137.4594,146.8906 137.2719,146.7031 Q136.9438,146.3281 136.3344,146.1094 Q135.725,145.8906 135.1,145.8906 Q134.3344,145.8906 133.6938,146.2188 Q133.0688,146.5469 132.5688,147.2969 Q132.0844,148.0469 132.0844,149.0781 L132.0844,150.1719 Q132.0844,151.4063 132.975,152.2344 Q133.8656,153.0469 135.4594,153.0469 Q136.3969,153.0469 137.0531,152.7969 Q137.4438,152.6406 137.8656,152.2031 Q138.1313,151.9375 138.2719,151.8594 Q138.4281,151.7813 138.6313,151.7813 Q138.9594,151.7813 139.2094,152.0469 Q139.475,152.2969 139.475,152.6406 Q139.475,152.9844 139.1313,153.3906 Q138.6313,153.9688 137.8344,154.2969 Q136.7563,154.75 135.4594,154.75 Q133.9438,154.75 132.7406,154.125 Q131.7563,153.625 131.0688,152.5625 Q130.3813,151.4844 130.3813,150.2031 L130.3813,149.0469 Q130.3813,147.7188 130.9906,146.5781 Q131.6156,145.4219 132.7094,144.8125 Q133.8031,144.1875 135.0375,144.1875 Q135.7719,144.1875 136.4125,144.3594 Q137.0688,144.5156 137.6156,144.875 Z " fill="#000000"/><text fill="#000000" font-family="sans-serif" font-size="14" lengthAdjust="spacing" textLength="57" x="151.15" y="154.7285">Question</text><line style="stroke:#181818;stroke-width:0.5;" x1="110.5" x2="220.5" y1="165" y2="165"/><polygon fill="none" points="120.5,174.3047,124.5,178.3047,120.5,182.3047,116.5,178.3047" style="stroke:#B38D22;stroke-width:1.0;"/><text fill="#000000" font-family="sans-serif" font-size="14" lengthAdjust="spacing" textLength="45" x="129.5" y="183.5332">creator</text><polygon fill="none" points="120.5,191.9141,124.5,195.9141,120.5,199.9141,116.5,195.9141" style="stroke:#B38D22;stroke-width:1.0;"/><text fill="#000000" font-family="sans-serif" font-size="14" lengthAdjust="spacing" textLength="81" x="129.5" y="201.1426">creationDate</text><polygon fill="none" points="120.5,209.5234,124.5,213.5234,120.5,217.5234,116.5,213.5234" style="stroke:#B38D22;stroke-width:1.0;"/><text fill="#000000" font-family="sans-serif" font-size="14" lengthAdjust="spacing" textLength="53" x="129.5" y="218.752">reviewer</text><polygon fill="none" points="120.5,227.1328,124.5,231.1328,120.5,235.1328,116.5,231.1328" style="stroke:#B38D22;stroke-width:1.0;"/><text fill="#000000" font-family="sans-serif" font-size="14" lengthAdjust="spacing" textLength="70" x="129.5" y="236.3613">reviewDate</text><text fill="#000000" font-family="sans-serif" font-size="14" lengthAdjust="spacing" textLength="4" x="129.5" y="253.9707"> </text><polygon fill="none" points="120.5,262.3516,124.5,266.3516,120.5,270.3516,116.5,266.3516" style="stroke:#B38D22;stroke-width:1.0;"/><text fill="#000000" font-family="sans-serif" font-size="14" lengthAdjust="spacing" textLength="62" x="129.5" y="271.5801">statement</text><polygon fill="none" points="120.5,279.9609,124.5,283.9609,120.5,287.9609,116.5,283.9609" style="stroke:#B38D22;stroke-width:1.0;"/><text fill="#000000" font-family="sans-serif" font-size="14" lengthAdjust="spacing" textLength="86" x="129.5" y="289.1895">List[] answers</text><line style="stroke:#181818;stroke-width:0.5;" x1="110.5" x2="220.5" y1="296.2656" y2="296.2656"/></g><!--MD5=[f9fadfa5a66b7e5a67b370cd443ffe52]
class Answer--><g id="elem_Answer"><rect codeLine="29" fill="#F1F1F1" height="65.6094" id="Answer" rx="2.5" ry="2.5" style="stroke:#181818;stroke-width:0.5;" width="83" x="185" y="364"/><ellipse cx="202.25" cy="380" fill="#ADD1B2" rx="11" ry="11" style="stroke:#181818;stroke-width:1.0;"/><path d="M205.0156,375.875 Q205.1719,375.6563 205.3594,375.5469 Q205.5469,375.4375 205.7656,375.4375 Q206.1406,375.4375 206.375,375.7031 Q206.6094,375.9531 206.6094,376.5625 L206.6094,378.0156 Q206.6094,378.625 206.375,378.8906 Q206.1406,379.1563 205.7656,379.1563 Q205.4219,379.1563 205.2188,378.9531 Q205.0156,378.7656 204.9063,378.25 Q204.8594,377.8906 204.6719,377.7031 Q204.3438,377.3281 203.7344,377.1094 Q203.125,376.8906 202.5,376.8906 Q201.7344,376.8906 201.0938,377.2188 Q200.4688,377.5469 199.9688,378.2969 Q199.4844,379.0469 199.4844,380.0781 L199.4844,381.1719 Q199.4844,382.4063 200.375,383.2344 Q201.2656,384.0469 202.8594,384.0469 Q203.7969,384.0469 204.4531,383.7969 Q204.8438,383.6406 205.2656,383.2031 Q205.5313,382.9375 205.6719,382.8594 Q205.8281,382.7813 206.0313,382.7813 Q206.3594,382.7813 206.6094,383.0469 Q206.875,383.2969 206.875,383.6406 Q206.875,383.9844 206.5313,384.3906 Q206.0313,384.9688 205.2344,385.2969 Q204.1563,385.75 202.8594,385.75 Q201.3438,385.75 200.1406,385.125 Q199.1563,384.625 198.4688,383.5625 Q197.7813,382.4844 197.7813,381.2031 L197.7813,380.0469 Q197.7813,378.7188 198.3906,377.5781 Q199.0156,376.4219 200.1094,375.8125 Q201.2031,375.1875 202.4375,375.1875 Q203.1719,375.1875 203.8125,375.3594 Q204.4688,375.5156 205.0156,375.875 Z " fill="#000000"/><text fill="#000000" font-family="sans-serif" font-size="14" lengthAdjust="spacing" textLength="46" x="216.75" y="385.7285">Answer</text><line style="stroke:#181818;stroke-width:0.5;" x1="186" x2="267" y1="396" y2="396"/><polygon fill="none" points="196,405.3047,200,409.3047,196,413.3047,192,409.3047" style="stroke:#B38D22;stroke-width:1.0;"/><text fill="#000000" font-family="sans-serif" font-size="14" lengthAdjust="spacing" textLength="57" x="205" y="414.5332">isCorrect</text><line style="stroke:#181818;stroke-width:0.5;" x1="186" x2="267" y1="421.6094" y2="421.6094"/></g><!--MD5=[bb3d97f09542411db1527b071cca8268]
link Test to Question--><g id="link_Test_Question"><path codeLine="34" d="M165.5,85.37 C165.5,85.37 165.5,108.28 165.5,119.76 " fill="none" id="Test-Question" style="stroke:#181818;stroke-width:1.0;"/><polygon fill="#181818" points="165.5,132.76,169.5,123.76,165.5,127.76,161.5,123.76,165.5,132.76" style="stroke:#181818;stroke-width:1.0;"/><line style="stroke:#181818;stroke-width:1.0;" x1="165.5" x2="165.5" y1="127.76" y2="119.76"/><polygon fill="#181818" points="165.5,73.37,161.5,79.37,165.5,85.37,169.5,79.37,165.5,73.37" style="stroke:#181818;stroke-width:1.0;"/><text fill="#000000" font-family="sans-serif" font-size="13" lengthAdjust="spacing" textLength="20" x="144.6406" y="122.203">1..*</text></g><!--MD5=[6926d5174a3032b1dcc6c5d6f900c16b]
link Question to Answer--><g id="link_Question_Answer"><path codeLine="35" d="M198.6672,315.4727 C198.6672,315.4727 207.34,340.55 211.04,351.28 " fill="none" id="Question-Answer" style="stroke:#181818;stroke-width:1.0;"/><polygon fill="#181818" points="215.35,363.74,216.1965,353.9276,213.7195,359.0133,208.6338,356.5363,215.35,363.74" style="stroke:#181818;stroke-width:1.0;"/><line style="stroke:#181818;stroke-width:1.0;" x1="213.7195" x2="211.105" y1="359.0133" y2="351.455"/><polygon fill="#181818" points="194.75,304.13,192.9277,311.1071,198.6672,315.4727,200.4895,308.4956,194.75,304.13" style="stroke:#181818;stroke-width:1.0;"/><text fill="#000000" font-family="sans-serif" font-size="13" lengthAdjust="spacing" textLength="20" x="191.1861" y="353.1851">1..*</text></g><!--MD5=[98df2f76ab45609c36aa45d6b9c3faee]
link Question to Category--><g id="link_Question_Category"><path codeLine="37" d="M132.3328,315.4727 C132.3328,315.4727 123.66,340.55 119.96,351.28 " fill="none" id="Question-Category" style="stroke:#181818;stroke-width:1.0;"/><polygon fill="#181818" points="115.65,363.74,122.3662,356.5363,117.2805,359.0133,114.8035,353.9276,115.65,363.74" style="stroke:#181818;stroke-width:1.0;"/><line style="stroke:#181818;stroke-width:1.0;" x1="117.2805" x2="119.895" y1="359.0133" y2="351.455"/><polygon fill="#181818" points="136.25,304.13,130.5105,308.4956,132.3328,315.4727,138.0723,311.1071,136.25,304.13" style="stroke:#181818;stroke-width:1.0;"/></g><!--MD5=[74baf885d61ec4386e3ee7603dbfa36d]
link Category to Subcategory--><g id="link_Category_Subcategory"><path codeLine="38" d="M104.5,442.03 C104.5,442.03 104.5,466 104.5,476.66 " fill="none" id="Category-Subcategory" style="stroke:#181818;stroke-width:1.0;"/><polygon fill="#181818" points="104.5,489.89,108.5,480.89,104.5,484.89,100.5,480.89,104.5,489.89" style="stroke:#181818;stroke-width:1.0;"/><line style="stroke:#181818;stroke-width:1.0;" x1="104.5" x2="104.5" y1="484.89" y2="476.89"/><polygon fill="#181818" points="104.5,430.03,100.5,436.03,104.5,442.03,108.5,436.03,104.5,430.03" style="stroke:#181818;stroke-width:1.0;"/><text fill="#000000" font-family="sans-serif" font-size="13" lengthAdjust="spacing" textLength="20" x="81.9375" y="479.202">0..*</text></g><!--MD5=[ac920082853d6adb74ead49fa73865a8]
@startuml OpoTestDomain

class User {
    #role

}

enum Category {
    create()
}

enum Subcategory {

}

class Test {
    #List[] questions
}

class Question {
    #creator
    #creationDate
    #reviewer
    #reviewDate

    #statement
    #List[] answers

}
class Answer {
    # isCorrect
}


Test *- -> "1..*" Question
Question *- -> "1..*" Answer

Question *- -> Category
Category *- ->"0..*" Subcategory




@end

PlantUML version 1.2022.7(Mon Aug 22 18:01:30 WEST 2022)
(GPL source distribution)
Java Runtime: OpenJDK Runtime Environment
JVM: OpenJDK 64-Bit Server VM
Default Encoding: Cp1252
Language: es
Country: ES
--></g></svg>