<?xml version="1.0" encoding="UTF-8" standalone="no"?><svg xmlns="http://www.w3.org/2000/svg" xmlns:xlink="http://www.w3.org/1999/xlink" contentStyleType="text/css" height="826px" preserveAspectRatio="none" style="width:821px;height:826px;background:#FFFFFF;" version="1.1" viewBox="0 0 821 826" width="821px" zoomAndPan="magnify"><defs/><g><!--MD5=[b5bdbd94dd7731126382556d75316f93]
cluster Online--><g id="cluster_Online"><path d="M8.5,337 L55.5,337 A3.75,3.75 0 0 1 58,339.5 L65,360.6094 L340.5,360.6094 A2.5,2.5 0 0 1 343,363.1094 L343,434.5 A2.5,2.5 0 0 1 340.5,437 L8.5,437 A2.5,2.5 0 0 1 6,434.5 L6,339.5 A2.5,2.5 0 0 1 8.5,337 " fill="none" style="stroke:#000000;stroke-width:1.5;"/><line style="stroke:#000000;stroke-width:1.5;" x1="6" x2="65" y1="360.6094" y2="360.6094"/><text fill="#000000" font-family="sans-serif" font-size="14" font-weight="bold" lengthAdjust="spacing" textLength="46" x="10" y="353.5332">Online</text></g><!--MD5=[f5a96cac5c48dbb9583fb250ad4259bd]
cluster Offline--><g id="cluster_Offline"><path d="M448.5,337 L496.5,337 A3.75,3.75 0 0 1 499,339.5 L506,360.6094 L811.5,360.6094 A2.5,2.5 0 0 1 814,363.1094 L814,816.5 A2.5,2.5 0 0 1 811.5,819 L448.5,819 A2.5,2.5 0 0 1 446,816.5 L446,339.5 A2.5,2.5 0 0 1 448.5,337 " fill="none" style="stroke:#000000;stroke-width:1.5;"/><line style="stroke:#000000;stroke-width:1.5;" x1="446" x2="506" y1="360.6094" y2="360.6094"/><text fill="#000000" font-family="sans-serif" font-size="14" font-weight="bold" lengthAdjust="spacing" textLength="47" x="450" y="353.5332">Offline</text></g><!--MD5=[4f124e809ddc967986d0b9911189347b]
class PublicTests--><g id="elem_PublicTests"><rect codeLine="14" fill="#F1F1F1" height="48" id="PublicTests" rx="2.5" ry="2.5" style="stroke:#181818;stroke-width:0.5;" width="105" x="22.5" y="373"/><ellipse cx="37.5" cy="389" fill="#ADD1B2" rx="11" ry="11" style="stroke:#181818;stroke-width:1.0;"/><path d="M40.2656,384.875 Q40.4219,384.6563 40.6094,384.5469 Q40.7969,384.4375 41.0156,384.4375 Q41.3906,384.4375 41.625,384.7031 Q41.8594,384.9531 41.8594,385.5625 L41.8594,387.0156 Q41.8594,387.625 41.625,387.8906 Q41.3906,388.1563 41.0156,388.1563 Q40.6719,388.1563 40.4688,387.9531 Q40.2656,387.7656 40.1563,387.25 Q40.1094,386.8906 39.9219,386.7031 Q39.5938,386.3281 38.9844,386.1094 Q38.375,385.8906 37.75,385.8906 Q36.9844,385.8906 36.3438,386.2188 Q35.7188,386.5469 35.2188,387.2969 Q34.7344,388.0469 34.7344,389.0781 L34.7344,390.1719 Q34.7344,391.4063 35.625,392.2344 Q36.5156,393.0469 38.1094,393.0469 Q39.0469,393.0469 39.7031,392.7969 Q40.0938,392.6406 40.5156,392.2031 Q40.7813,391.9375 40.9219,391.8594 Q41.0781,391.7813 41.2813,391.7813 Q41.6094,391.7813 41.8594,392.0469 Q42.125,392.2969 42.125,392.6406 Q42.125,392.9844 41.7813,393.3906 Q41.2813,393.9688 40.4844,394.2969 Q39.4063,394.75 38.1094,394.75 Q36.5938,394.75 35.3906,394.125 Q34.4063,393.625 33.7188,392.5625 Q33.0313,391.4844 33.0313,390.2031 L33.0313,389.0469 Q33.0313,387.7188 33.6406,386.5781 Q34.2656,385.4219 35.3594,384.8125 Q36.4531,384.1875 37.6875,384.1875 Q38.4219,384.1875 39.0625,384.3594 Q39.7188,384.5156 40.2656,384.875 Z " fill="#000000"/><text fill="#000000" font-family="sans-serif" font-size="14" lengthAdjust="spacing" textLength="73" x="51.5" y="394.7285">PublicTests</text><line style="stroke:#181818;stroke-width:0.5;" x1="23.5" x2="126.5" y1="405" y2="405"/><line style="stroke:#181818;stroke-width:0.5;" x1="23.5" x2="126.5" y1="413" y2="413"/></g><!--MD5=[55799210f7a393014b0f22345c263e17]
class PendingReviewTests--><g id="elem_PendingReviewTests"><rect codeLine="16" fill="#F1F1F1" height="48" id="PendingReviewTests" rx="2.5" ry="2.5" style="stroke:#181818;stroke-width:0.5;" width="164" x="163" y="373"/><ellipse cx="178" cy="389" fill="#ADD1B2" rx="11" ry="11" style="stroke:#181818;stroke-width:1.0;"/><path d="M180.7656,384.875 Q180.9219,384.6563 181.1094,384.5469 Q181.2969,384.4375 181.5156,384.4375 Q181.8906,384.4375 182.125,384.7031 Q182.3594,384.9531 182.3594,385.5625 L182.3594,387.0156 Q182.3594,387.625 182.125,387.8906 Q181.8906,388.1563 181.5156,388.1563 Q181.1719,388.1563 180.9688,387.9531 Q180.7656,387.7656 180.6563,387.25 Q180.6094,386.8906 180.4219,386.7031 Q180.0938,386.3281 179.4844,386.1094 Q178.875,385.8906 178.25,385.8906 Q177.4844,385.8906 176.8438,386.2188 Q176.2188,386.5469 175.7188,387.2969 Q175.2344,388.0469 175.2344,389.0781 L175.2344,390.1719 Q175.2344,391.4063 176.125,392.2344 Q177.0156,393.0469 178.6094,393.0469 Q179.5469,393.0469 180.2031,392.7969 Q180.5938,392.6406 181.0156,392.2031 Q181.2813,391.9375 181.4219,391.8594 Q181.5781,391.7813 181.7813,391.7813 Q182.1094,391.7813 182.3594,392.0469 Q182.625,392.2969 182.625,392.6406 Q182.625,392.9844 182.2813,393.3906 Q181.7813,393.9688 180.9844,394.2969 Q179.9063,394.75 178.6094,394.75 Q177.0938,394.75 175.8906,394.125 Q174.9063,393.625 174.2188,392.5625 Q173.5313,391.4844 173.5313,390.2031 L173.5313,389.0469 Q173.5313,387.7188 174.1406,386.5781 Q174.7656,385.4219 175.8594,384.8125 Q176.9531,384.1875 178.1875,384.1875 Q178.9219,384.1875 179.5625,384.3594 Q180.2188,384.5156 180.7656,384.875 Z " fill="#000000"/><text fill="#000000" font-family="sans-serif" font-size="14" lengthAdjust="spacing" textLength="132" x="192" y="394.7285">PendingReviewTests</text><line style="stroke:#181818;stroke-width:0.5;" x1="164" x2="326" y1="405" y2="405"/><line style="stroke:#181818;stroke-width:0.5;" x1="164" x2="326" y1="413" y2="413"/></g><!--MD5=[a96594a83e2ecdc78cbf17c2ddf01934]
class Category--><g id="elem_Category"><rect codeLine="22" fill="#F1F1F1" height="48" id="Category" rx="2.5" ry="2.5" style="stroke:#181818;stroke-width:0.5;" width="90" x="464" y="646"/><ellipse cx="479" cy="662" fill="#ADD1B2" rx="11" ry="11" style="stroke:#181818;stroke-width:1.0;"/><path d="M481.7656,657.875 Q481.9219,657.6563 482.1094,657.5469 Q482.2969,657.4375 482.5156,657.4375 Q482.8906,657.4375 483.125,657.7031 Q483.3594,657.9531 483.3594,658.5625 L483.3594,660.0156 Q483.3594,660.625 483.125,660.8906 Q482.8906,661.1563 482.5156,661.1563 Q482.1719,661.1563 481.9688,660.9531 Q481.7656,660.7656 481.6563,660.25 Q481.6094,659.8906 481.4219,659.7031 Q481.0938,659.3281 480.4844,659.1094 Q479.875,658.8906 479.25,658.8906 Q478.4844,658.8906 477.8438,659.2188 Q477.2188,659.5469 476.7188,660.2969 Q476.2344,661.0469 476.2344,662.0781 L476.2344,663.1719 Q476.2344,664.4063 477.125,665.2344 Q478.0156,666.0469 479.6094,666.0469 Q480.5469,666.0469 481.2031,665.7969 Q481.5938,665.6406 482.0156,665.2031 Q482.2813,664.9375 482.4219,664.8594 Q482.5781,664.7813 482.7813,664.7813 Q483.1094,664.7813 483.3594,665.0469 Q483.625,665.2969 483.625,665.6406 Q483.625,665.9844 483.2813,666.3906 Q482.7813,666.9688 481.9844,667.2969 Q480.9063,667.75 479.6094,667.75 Q478.0938,667.75 476.8906,667.125 Q475.9063,666.625 475.2188,665.5625 Q474.5313,664.4844 474.5313,663.2031 L474.5313,662.0469 Q474.5313,660.7188 475.1406,659.5781 Q475.7656,658.4219 476.8594,657.8125 Q477.9531,657.1875 479.1875,657.1875 Q479.9219,657.1875 480.5625,657.3594 Q481.2188,657.5156 481.7656,657.875 Z " fill="#000000"/><text fill="#000000" font-family="sans-serif" font-size="14" lengthAdjust="spacing" textLength="58" x="493" y="667.7285">Category</text><line style="stroke:#181818;stroke-width:0.5;" x1="465" x2="553" y1="678" y2="678"/><line style="stroke:#181818;stroke-width:0.5;" x1="465" x2="553" y1="686" y2="686"/></g><!--MD5=[9c1df00e5aaf042f20970631c477ed7b]
class Subcategory--><g id="elem_Subcategory"><rect codeLine="24" fill="#F1F1F1" height="48" id="Subcategory" rx="2.5" ry="2.5" style="stroke:#181818;stroke-width:0.5;" width="112" x="462" y="755"/><ellipse cx="477" cy="771" fill="#ADD1B2" rx="11" ry="11" style="stroke:#181818;stroke-width:1.0;"/><path d="M479.7656,766.875 Q479.9219,766.6563 480.1094,766.5469 Q480.2969,766.4375 480.5156,766.4375 Q480.8906,766.4375 481.125,766.7031 Q481.3594,766.9531 481.3594,767.5625 L481.3594,769.0156 Q481.3594,769.625 481.125,769.8906 Q480.8906,770.1563 480.5156,770.1563 Q480.1719,770.1563 479.9688,769.9531 Q479.7656,769.7656 479.6563,769.25 Q479.6094,768.8906 479.4219,768.7031 Q479.0938,768.3281 478.4844,768.1094 Q477.875,767.8906 477.25,767.8906 Q476.4844,767.8906 475.8438,768.2188 Q475.2188,768.5469 474.7188,769.2969 Q474.2344,770.0469 474.2344,771.0781 L474.2344,772.1719 Q474.2344,773.4063 475.125,774.2344 Q476.0156,775.0469 477.6094,775.0469 Q478.5469,775.0469 479.2031,774.7969 Q479.5938,774.6406 480.0156,774.2031 Q480.2813,773.9375 480.4219,773.8594 Q480.5781,773.7813 480.7813,773.7813 Q481.1094,773.7813 481.3594,774.0469 Q481.625,774.2969 481.625,774.6406 Q481.625,774.9844 481.2813,775.3906 Q480.7813,775.9688 479.9844,776.2969 Q478.9063,776.75 477.6094,776.75 Q476.0938,776.75 474.8906,776.125 Q473.9063,775.625 473.2188,774.5625 Q472.5313,773.4844 472.5313,772.2031 L472.5313,771.0469 Q472.5313,769.7188 473.1406,768.5781 Q473.7656,767.4219 474.8594,766.8125 Q475.9531,766.1875 477.1875,766.1875 Q477.9219,766.1875 478.5625,766.3594 Q479.2188,766.5156 479.7656,766.875 Z " fill="#000000"/><text fill="#000000" font-family="sans-serif" font-size="14" lengthAdjust="spacing" textLength="80" x="491" y="776.7285">Subcategory</text><line style="stroke:#181818;stroke-width:0.5;" x1="463" x2="573" y1="787" y2="787"/><line style="stroke:#181818;stroke-width:0.5;" x1="463" x2="573" y1="795" y2="795"/></g><!--MD5=[df38be88ccee13e832d6fafd6288a4ca]
class Test--><g id="elem_Test"><rect codeLine="26" fill="#F1F1F1" height="48" id="Test" rx="2.5" ry="2.5" style="stroke:#181818;stroke-width:0.5;" width="60" x="549" y="373"/><ellipse cx="564" cy="389" fill="#ADD1B2" rx="11" ry="11" style="stroke:#181818;stroke-width:1.0;"/><path d="M566.7656,384.875 Q566.9219,384.6563 567.1094,384.5469 Q567.2969,384.4375 567.5156,384.4375 Q567.8906,384.4375 568.125,384.7031 Q568.3594,384.9531 568.3594,385.5625 L568.3594,387.0156 Q568.3594,387.625 568.125,387.8906 Q567.8906,388.1563 567.5156,388.1563 Q567.1719,388.1563 566.9688,387.9531 Q566.7656,387.7656 566.6563,387.25 Q566.6094,386.8906 566.4219,386.7031 Q566.0938,386.3281 565.4844,386.1094 Q564.875,385.8906 564.25,385.8906 Q563.4844,385.8906 562.8438,386.2188 Q562.2188,386.5469 561.7188,387.2969 Q561.2344,388.0469 561.2344,389.0781 L561.2344,390.1719 Q561.2344,391.4063 562.125,392.2344 Q563.0156,393.0469 564.6094,393.0469 Q565.5469,393.0469 566.2031,392.7969 Q566.5938,392.6406 567.0156,392.2031 Q567.2813,391.9375 567.4219,391.8594 Q567.5781,391.7813 567.7813,391.7813 Q568.1094,391.7813 568.3594,392.0469 Q568.625,392.2969 568.625,392.6406 Q568.625,392.9844 568.2813,393.3906 Q567.7813,393.9688 566.9844,394.2969 Q565.9063,394.75 564.6094,394.75 Q563.0938,394.75 561.8906,394.125 Q560.9063,393.625 560.2188,392.5625 Q559.5313,391.4844 559.5313,390.2031 L559.5313,389.0469 Q559.5313,387.7188 560.1406,386.5781 Q560.7656,385.4219 561.8594,384.8125 Q562.9531,384.1875 564.1875,384.1875 Q564.9219,384.1875 565.5625,384.3594 Q566.2188,384.5156 566.7656,384.875 Z " fill="#000000"/><text fill="#000000" font-family="sans-serif" font-size="14" lengthAdjust="spacing" textLength="28" x="578" y="394.7285">Test</text><line style="stroke:#181818;stroke-width:0.5;" x1="550" x2="608" y1="405" y2="405"/><line style="stroke:#181818;stroke-width:0.5;" x1="550" x2="608" y1="413" y2="413"/></g><!--MD5=[fc7123defb831ecdd44b2d9bcef6cceb]
class Question--><g id="elem_Question"><rect codeLine="28" fill="#F1F1F1" height="100.8281" id="Question" rx="2.5" ry="2.5" style="stroke:#181818;stroke-width:0.5;" width="89" x="592.5" y="484"/><ellipse cx="607.5" cy="500" fill="#ADD1B2" rx="11" ry="11" style="stroke:#181818;stroke-width:1.0;"/><path d="M610.2656,495.875 Q610.4219,495.6563 610.6094,495.5469 Q610.7969,495.4375 611.0156,495.4375 Q611.3906,495.4375 611.625,495.7031 Q611.8594,495.9531 611.8594,496.5625 L611.8594,498.0156 Q611.8594,498.625 611.625,498.8906 Q611.3906,499.1563 611.0156,499.1563 Q610.6719,499.1563 610.4688,498.9531 Q610.2656,498.7656 610.1563,498.25 Q610.1094,497.8906 609.9219,497.7031 Q609.5938,497.3281 608.9844,497.1094 Q608.375,496.8906 607.75,496.8906 Q606.9844,496.8906 606.3438,497.2188 Q605.7188,497.5469 605.2188,498.2969 Q604.7344,499.0469 604.7344,500.0781 L604.7344,501.1719 Q604.7344,502.4063 605.625,503.2344 Q606.5156,504.0469 608.1094,504.0469 Q609.0469,504.0469 609.7031,503.7969 Q610.0938,503.6406 610.5156,503.2031 Q610.7813,502.9375 610.9219,502.8594 Q611.0781,502.7813 611.2813,502.7813 Q611.6094,502.7813 611.8594,503.0469 Q612.125,503.2969 612.125,503.6406 Q612.125,503.9844 611.7813,504.3906 Q611.2813,504.9688 610.4844,505.2969 Q609.4063,505.75 608.1094,505.75 Q606.5938,505.75 605.3906,505.125 Q604.4063,504.625 603.7188,503.5625 Q603.0313,502.4844 603.0313,501.2031 L603.0313,500.0469 Q603.0313,498.7188 603.6406,497.5781 Q604.2656,496.4219 605.3594,495.8125 Q606.4531,495.1875 607.6875,495.1875 Q608.4219,495.1875 609.0625,495.3594 Q609.7188,495.5156 610.2656,495.875 Z " fill="#000000"/><text fill="#000000" font-family="sans-serif" font-size="14" lengthAdjust="spacing" textLength="57" x="621.5" y="505.7285">Question</text><line style="stroke:#181818;stroke-width:0.5;" x1="593.5" x2="680.5" y1="516" y2="516"/><text fill="#000000" font-family="sans-serif" font-size="14" lengthAdjust="spacing" textLength="28" x="598.5" y="534.5332">date</text><text fill="#000000" font-family="sans-serif" font-size="14" lengthAdjust="spacing" textLength="56" x="598.5" y="552.1426">reviewed</text><text fill="#000000" font-family="sans-serif" font-size="14" lengthAdjust="spacing" textLength="12" x="598.5" y="569.752">...</text><line style="stroke:#181818;stroke-width:0.5;" x1="593.5" x2="680.5" y1="576.8281" y2="576.8281"/></g><!--MD5=[a61a298976b7d1d94498f45c2ebfa10b]
class Statement--><g id="elem_Statement"><rect codeLine="34" fill="#F1F1F1" height="48" id="Statement" rx="2.5" ry="2.5" style="stroke:#181818;stroke-width:0.5;" width="96" x="589" y="646"/><ellipse cx="604" cy="662" fill="#ADD1B2" rx="11" ry="11" style="stroke:#181818;stroke-width:1.0;"/><path d="M606.7656,657.875 Q606.9219,657.6563 607.1094,657.5469 Q607.2969,657.4375 607.5156,657.4375 Q607.8906,657.4375 608.125,657.7031 Q608.3594,657.9531 608.3594,658.5625 L608.3594,660.0156 Q608.3594,660.625 608.125,660.8906 Q607.8906,661.1563 607.5156,661.1563 Q607.1719,661.1563 606.9688,660.9531 Q606.7656,660.7656 606.6563,660.25 Q606.6094,659.8906 606.4219,659.7031 Q606.0938,659.3281 605.4844,659.1094 Q604.875,658.8906 604.25,658.8906 Q603.4844,658.8906 602.8438,659.2188 Q602.2188,659.5469 601.7188,660.2969 Q601.2344,661.0469 601.2344,662.0781 L601.2344,663.1719 Q601.2344,664.4063 602.125,665.2344 Q603.0156,666.0469 604.6094,666.0469 Q605.5469,666.0469 606.2031,665.7969 Q606.5938,665.6406 607.0156,665.2031 Q607.2813,664.9375 607.4219,664.8594 Q607.5781,664.7813 607.7813,664.7813 Q608.1094,664.7813 608.3594,665.0469 Q608.625,665.2969 608.625,665.6406 Q608.625,665.9844 608.2813,666.3906 Q607.7813,666.9688 606.9844,667.2969 Q605.9063,667.75 604.6094,667.75 Q603.0938,667.75 601.8906,667.125 Q600.9063,666.625 600.2188,665.5625 Q599.5313,664.4844 599.5313,663.2031 L599.5313,662.0469 Q599.5313,660.7188 600.1406,659.5781 Q600.7656,658.4219 601.8594,657.8125 Q602.9531,657.1875 604.1875,657.1875 Q604.9219,657.1875 605.5625,657.3594 Q606.2188,657.5156 606.7656,657.875 Z " fill="#000000"/><text fill="#000000" font-family="sans-serif" font-size="14" lengthAdjust="spacing" textLength="64" x="618" y="667.7285">Statement</text><line style="stroke:#181818;stroke-width:0.5;" x1="590" x2="684" y1="678" y2="678"/><line style="stroke:#181818;stroke-width:0.5;" x1="590" x2="684" y1="686" y2="686"/></g><!--MD5=[f9fadfa5a66b7e5a67b370cd443ffe52]
class Answer--><g id="elem_Answer"><rect codeLine="36" fill="#F1F1F1" height="48" id="Answer" rx="2.5" ry="2.5" style="stroke:#181818;stroke-width:0.5;" width="78" x="720" y="646"/><ellipse cx="735" cy="662" fill="#ADD1B2" rx="11" ry="11" style="stroke:#181818;stroke-width:1.0;"/><path d="M737.7656,657.875 Q737.9219,657.6563 738.1094,657.5469 Q738.2969,657.4375 738.5156,657.4375 Q738.8906,657.4375 739.125,657.7031 Q739.3594,657.9531 739.3594,658.5625 L739.3594,660.0156 Q739.3594,660.625 739.125,660.8906 Q738.8906,661.1563 738.5156,661.1563 Q738.1719,661.1563 737.9688,660.9531 Q737.7656,660.7656 737.6563,660.25 Q737.6094,659.8906 737.4219,659.7031 Q737.0938,659.3281 736.4844,659.1094 Q735.875,658.8906 735.25,658.8906 Q734.4844,658.8906 733.8438,659.2188 Q733.2188,659.5469 732.7188,660.2969 Q732.2344,661.0469 732.2344,662.0781 L732.2344,663.1719 Q732.2344,664.4063 733.125,665.2344 Q734.0156,666.0469 735.6094,666.0469 Q736.5469,666.0469 737.2031,665.7969 Q737.5938,665.6406 738.0156,665.2031 Q738.2813,664.9375 738.4219,664.8594 Q738.5781,664.7813 738.7813,664.7813 Q739.1094,664.7813 739.3594,665.0469 Q739.625,665.2969 739.625,665.6406 Q739.625,665.9844 739.2813,666.3906 Q738.7813,666.9688 737.9844,667.2969 Q736.9063,667.75 735.6094,667.75 Q734.0938,667.75 732.8906,667.125 Q731.9063,666.625 731.2188,665.5625 Q730.5313,664.4844 730.5313,663.2031 L730.5313,662.0469 Q730.5313,660.7188 731.1406,659.5781 Q731.7656,658.4219 732.8594,657.8125 Q733.9531,657.1875 735.1875,657.1875 Q735.9219,657.1875 736.5625,657.3594 Q737.2188,657.5156 737.7656,657.875 Z " fill="#000000"/><text fill="#000000" font-family="sans-serif" font-size="14" lengthAdjust="spacing" textLength="46" x="749" y="667.7285">Answer</text><line style="stroke:#181818;stroke-width:0.5;" x1="721" x2="797" y1="678" y2="678"/><line style="stroke:#181818;stroke-width:0.5;" x1="721" x2="797" y1="686" y2="686"/></g><!--MD5=[bc629657279eaa9349f412646650f2c5]
class Correct--><g id="elem_Correct"><rect codeLine="38" fill="#F1F1F1" height="48" id="Correct" rx="2.5" ry="2.5" style="stroke:#181818;stroke-width:0.5;" width="79" x="609.5" y="755"/><ellipse cx="624.5" cy="771" fill="#ADD1B2" rx="11" ry="11" style="stroke:#181818;stroke-width:1.0;"/><path d="M627.2656,766.875 Q627.4219,766.6563 627.6094,766.5469 Q627.7969,766.4375 628.0156,766.4375 Q628.3906,766.4375 628.625,766.7031 Q628.8594,766.9531 628.8594,767.5625 L628.8594,769.0156 Q628.8594,769.625 628.625,769.8906 Q628.3906,770.1563 628.0156,770.1563 Q627.6719,770.1563 627.4688,769.9531 Q627.2656,769.7656 627.1563,769.25 Q627.1094,768.8906 626.9219,768.7031 Q626.5938,768.3281 625.9844,768.1094 Q625.375,767.8906 624.75,767.8906 Q623.9844,767.8906 623.3438,768.2188 Q622.7188,768.5469 622.2188,769.2969 Q621.7344,770.0469 621.7344,771.0781 L621.7344,772.1719 Q621.7344,773.4063 622.625,774.2344 Q623.5156,775.0469 625.1094,775.0469 Q626.0469,775.0469 626.7031,774.7969 Q627.0938,774.6406 627.5156,774.2031 Q627.7813,773.9375 627.9219,773.8594 Q628.0781,773.7813 628.2813,773.7813 Q628.6094,773.7813 628.8594,774.0469 Q629.125,774.2969 629.125,774.6406 Q629.125,774.9844 628.7813,775.3906 Q628.2813,775.9688 627.4844,776.2969 Q626.4063,776.75 625.1094,776.75 Q623.5938,776.75 622.3906,776.125 Q621.4063,775.625 620.7188,774.5625 Q620.0313,773.4844 620.0313,772.2031 L620.0313,771.0469 Q620.0313,769.7188 620.6406,768.5781 Q621.2656,767.4219 622.3594,766.8125 Q623.4531,766.1875 624.6875,766.1875 Q625.4219,766.1875 626.0625,766.3594 Q626.7188,766.5156 627.2656,766.875 Z " fill="#000000"/><text fill="#000000" font-family="sans-serif" font-size="14" lengthAdjust="spacing" textLength="47" x="638.5" y="776.7285">Correct</text><line style="stroke:#181818;stroke-width:0.5;" x1="610.5" x2="687.5" y1="787" y2="787"/><line style="stroke:#181818;stroke-width:0.5;" x1="610.5" x2="687.5" y1="795" y2="795"/></g><!--MD5=[d4df30b25862551bb6e4155e35efa20d]
class Wrong--><g id="elem_Wrong"><rect codeLine="40" fill="#F1F1F1" height="48" id="Wrong" rx="2.5" ry="2.5" style="stroke:#181818;stroke-width:0.5;" width="74" x="724" y="755"/><ellipse cx="739" cy="771" fill="#ADD1B2" rx="11" ry="11" style="stroke:#181818;stroke-width:1.0;"/><path d="M741.7656,766.875 Q741.9219,766.6563 742.1094,766.5469 Q742.2969,766.4375 742.5156,766.4375 Q742.8906,766.4375 743.125,766.7031 Q743.3594,766.9531 743.3594,767.5625 L743.3594,769.0156 Q743.3594,769.625 743.125,769.8906 Q742.8906,770.1563 742.5156,770.1563 Q742.1719,770.1563 741.9688,769.9531 Q741.7656,769.7656 741.6563,769.25 Q741.6094,768.8906 741.4219,768.7031 Q741.0938,768.3281 740.4844,768.1094 Q739.875,767.8906 739.25,767.8906 Q738.4844,767.8906 737.8438,768.2188 Q737.2188,768.5469 736.7188,769.2969 Q736.2344,770.0469 736.2344,771.0781 L736.2344,772.1719 Q736.2344,773.4063 737.125,774.2344 Q738.0156,775.0469 739.6094,775.0469 Q740.5469,775.0469 741.2031,774.7969 Q741.5938,774.6406 742.0156,774.2031 Q742.2813,773.9375 742.4219,773.8594 Q742.5781,773.7813 742.7813,773.7813 Q743.1094,773.7813 743.3594,774.0469 Q743.625,774.2969 743.625,774.6406 Q743.625,774.9844 743.2813,775.3906 Q742.7813,775.9688 741.9844,776.2969 Q740.9063,776.75 739.6094,776.75 Q738.0938,776.75 736.8906,776.125 Q735.9063,775.625 735.2188,774.5625 Q734.5313,773.4844 734.5313,772.2031 L734.5313,771.0469 Q734.5313,769.7188 735.1406,768.5781 Q735.7656,767.4219 736.8594,766.8125 Q737.9531,766.1875 739.1875,766.1875 Q739.9219,766.1875 740.5625,766.3594 Q741.2188,766.5156 741.7656,766.875 Z " fill="#000000"/><text fill="#000000" font-family="sans-serif" font-size="14" lengthAdjust="spacing" textLength="42" x="753" y="776.7285">Wrong</text><line style="stroke:#181818;stroke-width:0.5;" x1="725" x2="797" y1="787" y2="787"/><line style="stroke:#181818;stroke-width:0.5;" x1="725" x2="797" y1="795" y2="795"/></g><!--MD5=[668d633d11bedc8952753581a2dda3db]
class Community--><g id="elem_Community"><rect codeLine="2" fill="#F1F1F1" height="48" id="Community" rx="2.5" ry="2.5" style="stroke:#181818;stroke-width:0.5;" width="102" x="25" y="7"/><ellipse cx="40" cy="23" fill="#ADD1B2" rx="11" ry="11" style="stroke:#181818;stroke-width:1.0;"/><path d="M42.7656,18.875 Q42.9219,18.6563 43.1094,18.5469 Q43.2969,18.4375 43.5156,18.4375 Q43.8906,18.4375 44.125,18.7031 Q44.3594,18.9531 44.3594,19.5625 L44.3594,21.0156 Q44.3594,21.625 44.125,21.8906 Q43.8906,22.1563 43.5156,22.1563 Q43.1719,22.1563 42.9688,21.9531 Q42.7656,21.7656 42.6563,21.25 Q42.6094,20.8906 42.4219,20.7031 Q42.0938,20.3281 41.4844,20.1094 Q40.875,19.8906 40.25,19.8906 Q39.4844,19.8906 38.8438,20.2188 Q38.2188,20.5469 37.7188,21.2969 Q37.2344,22.0469 37.2344,23.0781 L37.2344,24.1719 Q37.2344,25.4063 38.125,26.2344 Q39.0156,27.0469 40.6094,27.0469 Q41.5469,27.0469 42.2031,26.7969 Q42.5938,26.6406 43.0156,26.2031 Q43.2813,25.9375 43.4219,25.8594 Q43.5781,25.7813 43.7813,25.7813 Q44.1094,25.7813 44.3594,26.0469 Q44.625,26.2969 44.625,26.6406 Q44.625,26.9844 44.2813,27.3906 Q43.7813,27.9688 42.9844,28.2969 Q41.9063,28.75 40.6094,28.75 Q39.0938,28.75 37.8906,28.125 Q36.9063,27.625 36.2188,26.5625 Q35.5313,25.4844 35.5313,24.2031 L35.5313,23.0469 Q35.5313,21.7188 36.1406,20.5781 Q36.7656,19.4219 37.8594,18.8125 Q38.9531,18.1875 40.1875,18.1875 Q40.9219,18.1875 41.5625,18.3594 Q42.2188,18.5156 42.7656,18.875 Z " fill="#000000"/><text fill="#000000" font-family="sans-serif" font-size="14" lengthAdjust="spacing" textLength="70" x="54" y="28.7285">Community</text><line style="stroke:#181818;stroke-width:0.5;" x1="26" x2="126" y1="39" y2="39"/><line style="stroke:#181818;stroke-width:0.5;" x1="26" x2="126" y1="47" y2="47"/></g><!--MD5=[3fd616f346a44cd59a91eb10b19e157c]
class User--><g id="elem_User"><rect codeLine="4" fill="#F1F1F1" height="48" id="User" rx="2.5" ry="2.5" style="stroke:#181818;stroke-width:0.5;" width="61" x="329.5" y="116"/><ellipse cx="344.5" cy="132" fill="#ADD1B2" rx="11" ry="11" style="stroke:#181818;stroke-width:1.0;"/><path d="M347.2656,127.875 Q347.4219,127.6563 347.6094,127.5469 Q347.7969,127.4375 348.0156,127.4375 Q348.3906,127.4375 348.625,127.7031 Q348.8594,127.9531 348.8594,128.5625 L348.8594,130.0156 Q348.8594,130.625 348.625,130.8906 Q348.3906,131.1563 348.0156,131.1563 Q347.6719,131.1563 347.4688,130.9531 Q347.2656,130.7656 347.1563,130.25 Q347.1094,129.8906 346.9219,129.7031 Q346.5938,129.3281 345.9844,129.1094 Q345.375,128.8906 344.75,128.8906 Q343.9844,128.8906 343.3438,129.2188 Q342.7188,129.5469 342.2188,130.2969 Q341.7344,131.0469 341.7344,132.0781 L341.7344,133.1719 Q341.7344,134.4063 342.625,135.2344 Q343.5156,136.0469 345.1094,136.0469 Q346.0469,136.0469 346.7031,135.7969 Q347.0938,135.6406 347.5156,135.2031 Q347.7813,134.9375 347.9219,134.8594 Q348.0781,134.7813 348.2813,134.7813 Q348.6094,134.7813 348.8594,135.0469 Q349.125,135.2969 349.125,135.6406 Q349.125,135.9844 348.7813,136.3906 Q348.2813,136.9688 347.4844,137.2969 Q346.4063,137.75 345.1094,137.75 Q343.5938,137.75 342.3906,137.125 Q341.4063,136.625 340.7188,135.5625 Q340.0313,134.4844 340.0313,133.2031 L340.0313,132.0469 Q340.0313,130.7188 340.6406,129.5781 Q341.2656,128.4219 342.3594,127.8125 Q343.4531,127.1875 344.6875,127.1875 Q345.4219,127.1875 346.0625,127.3594 Q346.7188,127.5156 347.2656,127.875 Z " fill="#000000"/><text fill="#000000" font-family="sans-serif" font-size="14" lengthAdjust="spacing" textLength="29" x="358.5" y="137.7285">User</text><line style="stroke:#181818;stroke-width:0.5;" x1="330.5" x2="389.5" y1="148" y2="148"/><line style="stroke:#181818;stroke-width:0.5;" x1="330.5" x2="389.5" y1="156" y2="156"/></g><!--MD5=[e76a510855fdf825c81877c657b1fc23]
class Reviewer--><g id="elem_Reviewer"><rect codeLine="6" fill="#F1F1F1" height="48" id="Reviewer" rx="2.5" ry="2.5" style="stroke:#181818;stroke-width:0.5;" width="90" x="200" y="225"/><ellipse cx="215" cy="241" fill="#ADD1B2" rx="11" ry="11" style="stroke:#181818;stroke-width:1.0;"/><path d="M217.7656,236.875 Q217.9219,236.6563 218.1094,236.5469 Q218.2969,236.4375 218.5156,236.4375 Q218.8906,236.4375 219.125,236.7031 Q219.3594,236.9531 219.3594,237.5625 L219.3594,239.0156 Q219.3594,239.625 219.125,239.8906 Q218.8906,240.1563 218.5156,240.1563 Q218.1719,240.1563 217.9688,239.9531 Q217.7656,239.7656 217.6563,239.25 Q217.6094,238.8906 217.4219,238.7031 Q217.0938,238.3281 216.4844,238.1094 Q215.875,237.8906 215.25,237.8906 Q214.4844,237.8906 213.8438,238.2188 Q213.2188,238.5469 212.7188,239.2969 Q212.2344,240.0469 212.2344,241.0781 L212.2344,242.1719 Q212.2344,243.4063 213.125,244.2344 Q214.0156,245.0469 215.6094,245.0469 Q216.5469,245.0469 217.2031,244.7969 Q217.5938,244.6406 218.0156,244.2031 Q218.2813,243.9375 218.4219,243.8594 Q218.5781,243.7813 218.7813,243.7813 Q219.1094,243.7813 219.3594,244.0469 Q219.625,244.2969 219.625,244.6406 Q219.625,244.9844 219.2813,245.3906 Q218.7813,245.9688 217.9844,246.2969 Q216.9063,246.75 215.6094,246.75 Q214.0938,246.75 212.8906,246.125 Q211.9063,245.625 211.2188,244.5625 Q210.5313,243.4844 210.5313,242.2031 L210.5313,241.0469 Q210.5313,239.7188 211.1406,238.5781 Q211.7656,237.4219 212.8594,236.8125 Q213.9531,236.1875 215.1875,236.1875 Q215.9219,236.1875 216.5625,236.3594 Q217.2188,236.5156 217.7656,236.875 Z " fill="#000000"/><text fill="#000000" font-family="sans-serif" font-size="14" lengthAdjust="spacing" textLength="58" x="229" y="246.7285">Reviewer</text><line style="stroke:#181818;stroke-width:0.5;" x1="201" x2="289" y1="257" y2="257"/><line style="stroke:#181818;stroke-width:0.5;" x1="201" x2="289" y1="265" y2="265"/></g><!--MD5=[559db66c208d2736f857be4b8ed380a2]
class Editor--><g id="elem_Editor"><rect codeLine="8" fill="#F1F1F1" height="48" id="Editor" rx="2.5" ry="2.5" style="stroke:#181818;stroke-width:0.5;" width="69" x="631.5" y="225"/><ellipse cx="646.5" cy="241" fill="#ADD1B2" rx="11" ry="11" style="stroke:#181818;stroke-width:1.0;"/><path d="M649.2656,236.875 Q649.4219,236.6563 649.6094,236.5469 Q649.7969,236.4375 650.0156,236.4375 Q650.3906,236.4375 650.625,236.7031 Q650.8594,236.9531 650.8594,237.5625 L650.8594,239.0156 Q650.8594,239.625 650.625,239.8906 Q650.3906,240.1563 650.0156,240.1563 Q649.6719,240.1563 649.4688,239.9531 Q649.2656,239.7656 649.1563,239.25 Q649.1094,238.8906 648.9219,238.7031 Q648.5938,238.3281 647.9844,238.1094 Q647.375,237.8906 646.75,237.8906 Q645.9844,237.8906 645.3438,238.2188 Q644.7188,238.5469 644.2188,239.2969 Q643.7344,240.0469 643.7344,241.0781 L643.7344,242.1719 Q643.7344,243.4063 644.625,244.2344 Q645.5156,245.0469 647.1094,245.0469 Q648.0469,245.0469 648.7031,244.7969 Q649.0938,244.6406 649.5156,244.2031 Q649.7813,243.9375 649.9219,243.8594 Q650.0781,243.7813 650.2813,243.7813 Q650.6094,243.7813 650.8594,244.0469 Q651.125,244.2969 651.125,244.6406 Q651.125,244.9844 650.7813,245.3906 Q650.2813,245.9688 649.4844,246.2969 Q648.4063,246.75 647.1094,246.75 Q645.5938,246.75 644.3906,246.125 Q643.4063,245.625 642.7188,244.5625 Q642.0313,243.4844 642.0313,242.2031 L642.0313,241.0469 Q642.0313,239.7188 642.6406,238.5781 Q643.2656,237.4219 644.3594,236.8125 Q645.4531,236.1875 646.6875,236.1875 Q647.4219,236.1875 648.0625,236.3594 Q648.7188,236.5156 649.2656,236.875 Z " fill="#000000"/><text fill="#000000" font-family="sans-serif" font-size="14" lengthAdjust="spacing" textLength="37" x="660.5" y="246.7285">Editor</text><line style="stroke:#181818;stroke-width:0.5;" x1="632.5" x2="699.5" y1="257" y2="257"/><line style="stroke:#181818;stroke-width:0.5;" x1="632.5" x2="699.5" y1="265" y2="265"/></g><!--MD5=[a0a1f7f9662f43ef0ece806266f72a6f]
class Executor--><g id="elem_Executor"><rect codeLine="10" fill="#F1F1F1" height="48" id="Executor" rx="2.5" ry="2.5" style="stroke:#181818;stroke-width:0.5;" width="87" x="437.5" y="225"/><ellipse cx="452.5" cy="241" fill="#ADD1B2" rx="11" ry="11" style="stroke:#181818;stroke-width:1.0;"/><path d="M455.2656,236.875 Q455.4219,236.6563 455.6094,236.5469 Q455.7969,236.4375 456.0156,236.4375 Q456.3906,236.4375 456.625,236.7031 Q456.8594,236.9531 456.8594,237.5625 L456.8594,239.0156 Q456.8594,239.625 456.625,239.8906 Q456.3906,240.1563 456.0156,240.1563 Q455.6719,240.1563 455.4688,239.9531 Q455.2656,239.7656 455.1563,239.25 Q455.1094,238.8906 454.9219,238.7031 Q454.5938,238.3281 453.9844,238.1094 Q453.375,237.8906 452.75,237.8906 Q451.9844,237.8906 451.3438,238.2188 Q450.7188,238.5469 450.2188,239.2969 Q449.7344,240.0469 449.7344,241.0781 L449.7344,242.1719 Q449.7344,243.4063 450.625,244.2344 Q451.5156,245.0469 453.1094,245.0469 Q454.0469,245.0469 454.7031,244.7969 Q455.0938,244.6406 455.5156,244.2031 Q455.7813,243.9375 455.9219,243.8594 Q456.0781,243.7813 456.2813,243.7813 Q456.6094,243.7813 456.8594,244.0469 Q457.125,244.2969 457.125,244.6406 Q457.125,244.9844 456.7813,245.3906 Q456.2813,245.9688 455.4844,246.2969 Q454.4063,246.75 453.1094,246.75 Q451.5938,246.75 450.3906,246.125 Q449.4063,245.625 448.7188,244.5625 Q448.0313,243.4844 448.0313,242.2031 L448.0313,241.0469 Q448.0313,239.7188 448.6406,238.5781 Q449.2656,237.4219 450.3594,236.8125 Q451.4531,236.1875 452.6875,236.1875 Q453.4219,236.1875 454.0625,236.3594 Q454.7188,236.5156 455.2656,236.875 Z " fill="#000000"/><text fill="#000000" font-family="sans-serif" font-size="14" lengthAdjust="spacing" textLength="55" x="466.5" y="246.7285">Executor</text><line style="stroke:#181818;stroke-width:0.5;" x1="438.5" x2="523.5" y1="257" y2="257"/><line style="stroke:#181818;stroke-width:0.5;" x1="438.5" x2="523.5" y1="265" y2="265"/></g><!--MD5=[12743b4aa7b2bf3d8e383437eb99df68]
link Community to User--><g id="link_Community_User"><path codeLine="44" d="M138.3278,55.4852 C138.3278,55.4852 269.99,105.09 317.22,122.88 " fill="none" id="Community-User" style="stroke:#181818;stroke-width:1.0;"/><polygon fill="#181818" points="329.44,127.48,322.4211,120.571,324.7593,125.722,319.6082,128.0601,329.44,127.48" style="stroke:#181818;stroke-width:1.0;"/><line style="stroke:#181818;stroke-width:1.0;" x1="324.7593" x2="317.27" y1="125.722" y2="122.9"/><polygon fill="#181818" points="127.1,51.25,131.3022,57.1102,138.3278,55.4852,134.1256,49.625,127.1,51.25" style="stroke:#181818;stroke-width:1.0;"/><text fill="#000000" font-family="sans-serif" font-size="13" lengthAdjust="spacing" textLength="20" x="301.4548" y="120.9698">1..*</text></g><!--MD5=[93fb1e2f441c6e3f7d66805878eae3c4]
link Community to PublicTests--><g id="link_Community_PublicTests"><path codeLine="45" d="M56.6081,65.9687 C56.6081,65.9687 51.38,79.06 50,85 C27.38,182.45 50.41,301.17 65,359.74 " fill="none" id="Community-PublicTests" style="stroke:#181818;stroke-width:1.0;"/><polygon fill="#181818" points="68.31,372.62,69.9379,362.9066,67.0624,367.7781,62.1909,364.9027,68.31,372.62" style="stroke:#181818;stroke-width:1.0;"/><line style="stroke:#181818;stroke-width:1.0;" x1="67.0624" x2="65.075" y1="367.7781" y2="360.035"/><polygon fill="#181818" points="61.8,55.15,55.5978,58.8287,56.6081,65.9687,62.8103,62.29,61.8,55.15" style="stroke:#181818;stroke-width:1.0;"/></g><!--MD5=[2e45d3e07d4f631a8ef348f37ac5cb97]
link Community to PendingReviewTests--><g id="link_Community_PendingReviewTests"><path codeLine="46" d="M90.2937,66.1909 C90.2937,66.1909 147.64,200.74 182,273 C196.28,303.03 213.56,336.59 226.41,361.06 " fill="none" id="Community-PendingReviewTests" style="stroke:#181818;stroke-width:1.0;"/><polygon fill="#181818" points="232.51,372.63,231.8454,362.8036,230.1756,368.2084,224.7708,366.5386,232.51,372.63" style="stroke:#181818;stroke-width:1.0;"/><line style="stroke:#181818;stroke-width:1.0;" x1="230.1756" x2="226.445" y1="368.2084" y2="361.125"/><polygon fill="#181818" points="85.64,55.13,84.2799,62.2117,90.2937,66.1909,91.6538,59.1092,85.64,55.13" style="stroke:#181818;stroke-width:1.0;"/></g><!--MD5=[7016372388c7ac2652db8515880aaa11]
reverse link User to Editor--><g id="link_User_Editor"><path codeLine="48" d="M410.51,144.59 C461.64,149.87 541.79,162.78 604,194 C619.31,201.68 633.89,214.03 645.06,224.98 " fill="none" id="User-backto-Editor" style="stroke:#181818;stroke-width:1.0;"/><polygon fill="none" points="409.8,151.55,390.52,142.76,411.07,137.61,409.8,151.55" style="stroke:#181818;stroke-width:1.0;"/></g><!--MD5=[4902e3a4a9d2276f7686a6b1652e1669]
reverse link User to Reviewer--><g id="link_User_Reviewer"><path codeLine="49" d="M320.21,178.02 C303.51,193.56 284.59,211.17 269.9,224.83 " fill="none" id="User-backto-Reviewer" style="stroke:#181818;stroke-width:1.0;"/><polygon fill="none" points="315.64,172.72,335.05,164.22,325.17,182.97,315.64,172.72" style="stroke:#181818;stroke-width:1.0;"/></g><!--MD5=[d8a655080454bab67f6091cbff4cee86]
reverse link User to Executor--><g id="link_User_Executor"><path codeLine="50" d="M401.32,177.54 C419.03,193.2 439.19,211.03 454.8,224.83 " fill="none" id="User-backto-Executor" style="stroke:#181818;stroke-width:1.0;"/><polygon fill="none" points="396.6,182.71,386.26,164.22,405.87,172.22,396.6,182.71" style="stroke:#181818;stroke-width:1.0;"/></g><!--MD5=[76cecde56a704a8af4e77d242905ce83]
link User to Test--><g id="link_User_Test"><path codeLine="52" d="M402.3289,149.1247 C402.3289,149.1247 507.33,181.76 542,225 C572.83,263.46 579.44,321.87 580.15,359.48 " fill="none" id="User-Test" style="stroke:#181818;stroke-width:1.0;"/><polygon fill="#181818" points="580.17,372.8,584.1601,363.7956,580.1645,367.8,576.1601,363.8044,580.17,372.8" style="stroke:#181818;stroke-width:1.0;"/><line style="stroke:#181818;stroke-width:1.0;" x1="580.1645" x2="580.15" y1="367.8" y2="359.795"/><polygon fill="none" points="390.64,146.41,395.5796,151.6636,402.3289,149.1247,397.3893,143.871,390.64,146.41" style="stroke:#181818;stroke-width:1.0;"/><text fill="#000000" font-family="sans-serif" font-size="13" lengthAdjust="spacing" textLength="20" x="557.9073" y="362.0889">0..*</text></g><!--MD5=[843ca88fee3ebad4297bc418e7122709]
link User to PublicTests--><g id="link_User_PublicTests"><path codeLine="53" d="M329.28,149.59 C291.19,161.47 225.94,185.97 182,225 C136.02,265.84 102.77,331.12 86.42,368.09 " fill="none" id="User-to-PublicTests" style="stroke:#181818;stroke-width:1.0;stroke-dasharray:7.0,7.0;"/><polygon fill="#181818" points="84.32,372.89,91.5844,366.2395,86.3188,368.3069,84.2515,363.0414,84.32,372.89" style="stroke:#181818;stroke-width:1.0;"/></g><!--MD5=[116a6024682202cac1fe2b946d56dfe9]
link User to PendingReviewTests--><g id="link_User_PendingReviewTests"><path codeLine="54" d="M353.59,164.18 C343.48,199.19 322.16,267.16 295,321 C286.63,337.59 275.27,354.92 265.49,368.74 " fill="none" id="User-to-PendingReviewTests" style="stroke:#181818;stroke-width:1.0;stroke-dasharray:7.0,7.0;"/><polygon fill="#181818" points="262.52,372.91,271.011,367.9198,265.4302,368.8442,264.5058,363.2634,262.52,372.91" style="stroke:#181818;stroke-width:1.0;"/><text fill="#000000" font-family="sans-serif" font-size="13" lengthAdjust="spacing" textLength="40" x="335" y="254.4951">Upload</text></g><!--MD5=[a4471ebd030acd5c90145d584608083d]
link Editor to Question--><g id="link_Editor_Question"><path codeLine="56" d="M663.63,273.2 C659.07,317.77 648.97,416.45 642.61,478.69 " fill="none" id="Editor-to-Question" style="stroke:#181818;stroke-width:1.0;stroke-dasharray:7.0,7.0;"/><polygon fill="#181818" points="642.08,483.85,646.9849,475.3094,642.5945,478.8765,639.0273,474.4862,642.08,483.85" style="stroke:#181818;stroke-width:1.0;"/></g><!--MD5=[9687096680ceb68b8868c74d4d2dcde7]
link Editor to Test--><g id="link_Editor_Test"><path codeLine="57" d="M652.21,273.13 C636.81,298.98 611.9,340.79 595.48,368.34 " fill="none" id="Editor-to-Test" style="stroke:#181818;stroke-width:1.0;stroke-dasharray:7.0,7.0;"/><polygon fill="#181818" points="592.72,372.97,600.7665,367.2908,595.2819,368.6762,593.8965,363.1917,592.72,372.97" style="stroke:#181818;stroke-width:1.0;"/></g><!--MD5=[c1755e2c7c86169693602138d58f8d9b]
link Reviewer to PendingReviewTests--><g id="link_Reviewer_PendingReviewTests"><path codeLine="58" d="M245,273.13 C245,298.76 245,340.1 245,367.66 " fill="none" id="Reviewer-to-PendingReviewTests" style="stroke:#181818;stroke-width:1.0;stroke-dasharray:7.0,7.0;"/><polygon fill="#181818" points="245,372.97,249,363.97,245,367.97,241,363.97,245,372.97" style="stroke:#181818;stroke-width:1.0;"/><text fill="#000000" font-family="sans-serif" font-size="13" lengthAdjust="spacing" textLength="40" x="246" y="317.4951">Review</text></g><!--MD5=[d68e14fa05102e75aae2c1360907bae4]
link Executor to Test--><g id="link_Executor_Test"><path codeLine="59" d="M496.53,273.13 C513.95,299.08 542.17,341.14 560.66,368.68 " fill="none" id="Executor-to-Test" style="stroke:#181818;stroke-width:1.0;stroke-dasharray:7.0,7.0;"/><polygon fill="#181818" points="563.54,372.97,561.8528,363.2667,560.7566,368.8163,555.207,367.7201,563.54,372.97" style="stroke:#181818;stroke-width:1.0;"/></g><!--MD5=[bb3d97f09542411db1527b071cca8268]
link Test to Question--><g id="link_Test_Question"><path codeLine="61" d="M593.6891,432.3231 C593.6891,432.3231 605,458.73 610.64,471.91 " fill="none" id="Test-Question" style="stroke:#181818;stroke-width:1.0;"/><polygon fill="#181818" points="615.76,483.87,615.8942,474.0221,613.7917,479.2737,608.5401,477.1713,615.76,483.87" style="stroke:#181818;stroke-width:1.0;"/><line style="stroke:#181818;stroke-width:1.0;" x1="613.7917" x2="610.64" y1="479.2737" y2="471.92"/><polygon fill="#181818" points="588.97,421.29,587.6518,428.3796,593.6891,432.3231,595.0073,425.2335,588.97,421.29" style="stroke:#181818;stroke-width:1.0;"/><text fill="#000000" font-family="sans-serif" font-size="13" lengthAdjust="spacing" textLength="20" x="591.3669" y="473.1571">1..*</text></g><!--MD5=[6eeca14f8a2ed45d1117f4ed4af75b7e]
link Question to Statement--><g id="link_Question_Statement"><path codeLine="62" d="M637,597.21 C637,597.21 637,622.04 637,632.67 " fill="none" id="Question-Statement" style="stroke:#181818;stroke-width:1.0;"/><polygon fill="#181818" points="637,645.77,641,636.77,637,640.77,633,636.77,637,645.77" style="stroke:#181818;stroke-width:1.0;"/><line style="stroke:#181818;stroke-width:1.0;" x1="637" x2="637" y1="640.77" y2="632.77"/><polygon fill="#181818" points="637,585.21,633,591.21,637,597.21,641,591.21,637,585.21" style="stroke:#181818;stroke-width:1.0;"/></g><!--MD5=[6926d5174a3032b1dcc6c5d6f900c16b]
link Question to Answer--><g id="link_Question_Answer"><path codeLine="63" d="M689.8409,593.303 C689.8409,593.303 717.43,623.52 729.03,636.2 " fill="none" id="Question-Answer" style="stroke:#181818;stroke-width:1.0;"/><polygon fill="#181818" points="737.84,645.85,734.7222,636.5077,734.4674,642.1588,728.8162,641.9039,737.84,645.85" style="stroke:#181818;stroke-width:1.0;"/><line style="stroke:#181818;stroke-width:1.0;" x1="734.4674" x2="729.07" y1="642.1588" y2="636.25"/><polygon fill="#181818" points="681.74,584.45,682.8395,591.5768,689.8409,593.303,688.7415,586.1762,681.74,584.45" style="stroke:#181818;stroke-width:1.0;"/><text fill="#000000" font-family="sans-serif" font-size="13" lengthAdjust="spacing" textLength="20" x="709.8553" y="635.1517">1..*</text></g><!--MD5=[b1491d38e87214202fddacec717a9c8d]
reverse link Answer to Correct--><g id="link_Answer_Correct"><path codeLine="64" d="M720.7,708.26 C704.78,723.74 686.8,741.24 672.82,754.83 " fill="none" id="Answer-backto-Correct" style="stroke:#181818;stroke-width:1.0;"/><polygon fill="none" points="715.91,703.15,735.13,694.22,725.68,713.18,715.91,703.15" style="stroke:#181818;stroke-width:1.0;"/></g><!--MD5=[c5fa946b130b0916f113c48ddc2b138d]
reverse link Answer to Wrong--><g id="link_Answer_Wrong"><path codeLine="65" d="M759.81,714.58 C760.07,728.36 760.35,743.06 760.57,754.83 " fill="none" id="Answer-backto-Wrong" style="stroke:#181818;stroke-width:1.0;"/><polygon fill="none" points="752.81,714.34,759.43,694.22,766.81,714.08,752.81,714.34" style="stroke:#181818;stroke-width:1.0;"/></g><!--MD5=[98df2f76ab45609c36aa45d6b9c3faee]
link Question to Category--><g id="link_Question_Category"><path codeLine="67" d="M583.9314,590.858 C583.9314,590.858 553.43,622.66 540.59,636.05 " fill="none" id="Question-Category" style="stroke:#181818;stroke-width:1.0;"/><polygon fill="#181818" points="531.28,645.76,540.3962,642.0324,534.7406,642.1511,534.622,636.4955,531.28,645.76" style="stroke:#181818;stroke-width:1.0;"/><line style="stroke:#181818;stroke-width:1.0;" x1="534.7406" x2="540.275" y1="642.1511" y2="636.38"/><polygon fill="#181818" points="592.23,582.19,585.1914,583.7578,583.9314,590.858,590.97,589.2902,592.23,582.19" style="stroke:#181818;stroke-width:1.0;"/></g><!--MD5=[74baf885d61ec4386e3ee7603dbfa36d]
link Category to Subcategory--><g id="link_Category_Subcategory"><path codeLine="68" d="M511.952,706.1781 C511.952,706.1781 514,730.5 514.94,741.56 " fill="none" id="Category-Subcategory" style="stroke:#181818;stroke-width:1.0;"/><polygon fill="#181818" points="516.05,754.83,519.2743,745.5239,515.627,749.8479,511.303,746.2006,516.05,754.83" style="stroke:#181818;stroke-width:1.0;"/><line style="stroke:#181818;stroke-width:1.0;" x1="515.627" x2="514.965" y1="749.8479" y2="741.875"/><polygon fill="#181818" points="510.95,694.22,507.465,700.533,511.952,706.1781,515.437,699.865,510.95,694.22" style="stroke:#181818;stroke-width:1.0;"/><text fill="#000000" font-family="sans-serif" font-size="13" lengthAdjust="spacing" textLength="20" x="492.9878" y="744.1266">0..*</text></g><!--MD5=[e089c58d6542e8b0bafa9114484b53bc]
@startuml OpoTestDomain

class Community

class User

class Reviewer

class Editor 

class Executor 

package Online {

    class PublicTests

    class PendingReviewTests

}

package Offline {

    class Category 

    class Subcategory 

    class Test 

    class Question {
        date
        reviewed
        ...
    }

    class Statement

    class Answer 

    class Correct

    Class Wrong

}

Community *- -> "1..*" User
Community *- -> PublicTests
Community *- -> PendingReviewTests

User <|- - Editor
User <|- -  Reviewer
User <|- - Executor

User o- -> "0..*" Test
User ..> PublicTests
User ..> PendingReviewTests : Upload

Editor ..> Question
Editor ..> Test
Reviewer ..> PendingReviewTests : Review
Executor ..> Test

Test *- -> "1..*" Question
Question *- ->  Statement
Question *- -> "1..*" Answer
Answer <|- - Correct
Answer <|- - Wrong

Question *- -> Category
Category *- ->"0..*" Subcategory






@end

PlantUML version 1.2022.7(Mon Aug 22 18:01:30 WEST 2022)
(GPL source distribution)
Java Runtime: OpenJDK Runtime Environment
JVM: OpenJDK 64-Bit Server VM
Default Encoding: Cp1252
Language: es
Country: ES
--></g></svg>