<?xml version="1.0" encoding="UTF-8" standalone="no"?><svg xmlns="http://www.w3.org/2000/svg" xmlns:xlink="http://www.w3.org/1999/xlink" contentStyleType="text/css" height="796px" preserveAspectRatio="none" style="width:453px;height:796px;background:#FFFFFF;" version="1.1" viewBox="0 0 453 796" width="453px" zoomAndPan="magnify"><defs/><g><!--MD5=[668d633d11bedc8952753581a2dda3db]
class Community--><g id="elem_Community"><rect codeLine="2" fill="#F1F1F1" height="48" id="Community" rx="2.5" ry="2.5" style="stroke:#181818;stroke-width:0.5;" width="102" x="7" y="7"/><ellipse cx="22" cy="23" fill="#ADD1B2" rx="11" ry="11" style="stroke:#181818;stroke-width:1.0;"/><path d="M24.7656,18.875 Q24.9219,18.6563 25.1094,18.5469 Q25.2969,18.4375 25.5156,18.4375 Q25.8906,18.4375 26.125,18.7031 Q26.3594,18.9531 26.3594,19.5625 L26.3594,21.0156 Q26.3594,21.625 26.125,21.8906 Q25.8906,22.1563 25.5156,22.1563 Q25.1719,22.1563 24.9688,21.9531 Q24.7656,21.7656 24.6563,21.25 Q24.6094,20.8906 24.4219,20.7031 Q24.0938,20.3281 23.4844,20.1094 Q22.875,19.8906 22.25,19.8906 Q21.4844,19.8906 20.8438,20.2188 Q20.2188,20.5469 19.7188,21.2969 Q19.2344,22.0469 19.2344,23.0781 L19.2344,24.1719 Q19.2344,25.4063 20.125,26.2344 Q21.0156,27.0469 22.6094,27.0469 Q23.5469,27.0469 24.2031,26.7969 Q24.5938,26.6406 25.0156,26.2031 Q25.2813,25.9375 25.4219,25.8594 Q25.5781,25.7813 25.7813,25.7813 Q26.1094,25.7813 26.3594,26.0469 Q26.625,26.2969 26.625,26.6406 Q26.625,26.9844 26.2813,27.3906 Q25.7813,27.9688 24.9844,28.2969 Q23.9063,28.75 22.6094,28.75 Q21.0938,28.75 19.8906,28.125 Q18.9063,27.625 18.2188,26.5625 Q17.5313,25.4844 17.5313,24.2031 L17.5313,23.0469 Q17.5313,21.7188 18.1406,20.5781 Q18.7656,19.4219 19.8594,18.8125 Q20.9531,18.1875 22.1875,18.1875 Q22.9219,18.1875 23.5625,18.3594 Q24.2188,18.5156 24.7656,18.875 Z " fill="#000000"/><text fill="#000000" font-family="sans-serif" font-size="14" lengthAdjust="spacing" textLength="70" x="36" y="28.7285">Community</text><line style="stroke:#181818;stroke-width:0.5;" x1="8" x2="108" y1="39" y2="39"/><line style="stroke:#181818;stroke-width:0.5;" x1="8" x2="108" y1="47" y2="47"/></g><!--MD5=[3fd616f346a44cd59a91eb10b19e157c]
class User--><g id="elem_User"><rect codeLine="4" fill="#F1F1F1" height="83.2188" id="User" rx="2.5" ry="2.5" style="stroke:#181818;stroke-width:0.5;" width="153" x="159.5" y="115"/><ellipse cx="217.25" cy="131" fill="#ADD1B2" rx="11" ry="11" style="stroke:#181818;stroke-width:1.0;"/><path d="M220.0156,126.875 Q220.1719,126.6563 220.3594,126.5469 Q220.5469,126.4375 220.7656,126.4375 Q221.1406,126.4375 221.375,126.7031 Q221.6094,126.9531 221.6094,127.5625 L221.6094,129.0156 Q221.6094,129.625 221.375,129.8906 Q221.1406,130.1563 220.7656,130.1563 Q220.4219,130.1563 220.2188,129.9531 Q220.0156,129.7656 219.9063,129.25 Q219.8594,128.8906 219.6719,128.7031 Q219.3438,128.3281 218.7344,128.1094 Q218.125,127.8906 217.5,127.8906 Q216.7344,127.8906 216.0938,128.2188 Q215.4688,128.5469 214.9688,129.2969 Q214.4844,130.0469 214.4844,131.0781 L214.4844,132.1719 Q214.4844,133.4063 215.375,134.2344 Q216.2656,135.0469 217.8594,135.0469 Q218.7969,135.0469 219.4531,134.7969 Q219.8438,134.6406 220.2656,134.2031 Q220.5313,133.9375 220.6719,133.8594 Q220.8281,133.7813 221.0313,133.7813 Q221.3594,133.7813 221.6094,134.0469 Q221.875,134.2969 221.875,134.6406 Q221.875,134.9844 221.5313,135.3906 Q221.0313,135.9688 220.2344,136.2969 Q219.1563,136.75 217.8594,136.75 Q216.3438,136.75 215.1406,136.125 Q214.1563,135.625 213.4688,134.5625 Q212.7813,133.4844 212.7813,132.2031 L212.7813,131.0469 Q212.7813,129.7188 213.3906,128.5781 Q214.0156,127.4219 215.1094,126.8125 Q216.2031,126.1875 217.4375,126.1875 Q218.1719,126.1875 218.8125,126.3594 Q219.4688,126.5156 220.0156,126.875 Z " fill="#000000"/><text fill="#000000" font-family="sans-serif" font-size="14" lengthAdjust="spacing" textLength="29" x="237.75" y="136.7285">User</text><line style="stroke:#181818;stroke-width:0.5;" x1="160.5" x2="311.5" y1="147" y2="147"/><polygon fill="none" points="170.5,156.3047,174.5,160.3047,170.5,164.3047,166.5,160.3047" style="stroke:#B38D22;stroke-width:1.0;"/><text fill="#000000" font-family="sans-serif" font-size="14" lengthAdjust="spacing" textLength="24" x="179.5" y="165.5332">role</text><line style="stroke:#181818;stroke-width:0.5;" x1="160.5" x2="311.5" y1="172.6094" y2="172.6094"/><polygon fill="#FFFF44" points="170.5,181.9141,174.5,185.9141,170.5,189.9141,166.5,185.9141" style="stroke:#B38D22;stroke-width:1.0;"/><text fill="#000000" font-family="sans-serif" font-size="14" lengthAdjust="spacing" textLength="127" x="179.5" y="191.1426">Test composeTest()</text></g><!--MD5=[559db66c208d2736f857be4b8ed380a2]
class Editor--><g id="elem_Editor"><rect codeLine="9" fill="#F1F1F1" height="48" id="Editor" rx="2.5" ry="2.5" style="stroke:#181818;stroke-width:0.5;" width="69" x="144.5" y="7"/><ellipse cx="159.5" cy="23" fill="#ADD1B2" rx="11" ry="11" style="stroke:#181818;stroke-width:1.0;"/><path d="M162.2656,18.875 Q162.4219,18.6563 162.6094,18.5469 Q162.7969,18.4375 163.0156,18.4375 Q163.3906,18.4375 163.625,18.7031 Q163.8594,18.9531 163.8594,19.5625 L163.8594,21.0156 Q163.8594,21.625 163.625,21.8906 Q163.3906,22.1563 163.0156,22.1563 Q162.6719,22.1563 162.4688,21.9531 Q162.2656,21.7656 162.1563,21.25 Q162.1094,20.8906 161.9219,20.7031 Q161.5938,20.3281 160.9844,20.1094 Q160.375,19.8906 159.75,19.8906 Q158.9844,19.8906 158.3438,20.2188 Q157.7188,20.5469 157.2188,21.2969 Q156.7344,22.0469 156.7344,23.0781 L156.7344,24.1719 Q156.7344,25.4063 157.625,26.2344 Q158.5156,27.0469 160.1094,27.0469 Q161.0469,27.0469 161.7031,26.7969 Q162.0938,26.6406 162.5156,26.2031 Q162.7813,25.9375 162.9219,25.8594 Q163.0781,25.7813 163.2813,25.7813 Q163.6094,25.7813 163.8594,26.0469 Q164.125,26.2969 164.125,26.6406 Q164.125,26.9844 163.7813,27.3906 Q163.2813,27.9688 162.4844,28.2969 Q161.4063,28.75 160.1094,28.75 Q158.5938,28.75 157.3906,28.125 Q156.4063,27.625 155.7188,26.5625 Q155.0313,25.4844 155.0313,24.2031 L155.0313,23.0469 Q155.0313,21.7188 155.6406,20.5781 Q156.2656,19.4219 157.3594,18.8125 Q158.4531,18.1875 159.6875,18.1875 Q160.4219,18.1875 161.0625,18.3594 Q161.7188,18.5156 162.2656,18.875 Z " fill="#000000"/><text fill="#000000" font-family="sans-serif" font-size="14" lengthAdjust="spacing" textLength="37" x="173.5" y="28.7285">Editor</text><line style="stroke:#181818;stroke-width:0.5;" x1="145.5" x2="212.5" y1="39" y2="39"/><line style="stroke:#181818;stroke-width:0.5;" x1="145.5" x2="212.5" y1="47" y2="47"/></g><!--MD5=[e76a510855fdf825c81877c657b1fc23]
class Reviewer--><g id="elem_Reviewer"><rect codeLine="13" fill="#F1F1F1" height="48" id="Reviewer" rx="2.5" ry="2.5" style="stroke:#181818;stroke-width:0.5;" width="90" x="249" y="7"/><ellipse cx="264" cy="23" fill="#ADD1B2" rx="11" ry="11" style="stroke:#181818;stroke-width:1.0;"/><path d="M266.7656,18.875 Q266.9219,18.6563 267.1094,18.5469 Q267.2969,18.4375 267.5156,18.4375 Q267.8906,18.4375 268.125,18.7031 Q268.3594,18.9531 268.3594,19.5625 L268.3594,21.0156 Q268.3594,21.625 268.125,21.8906 Q267.8906,22.1563 267.5156,22.1563 Q267.1719,22.1563 266.9688,21.9531 Q266.7656,21.7656 266.6563,21.25 Q266.6094,20.8906 266.4219,20.7031 Q266.0938,20.3281 265.4844,20.1094 Q264.875,19.8906 264.25,19.8906 Q263.4844,19.8906 262.8438,20.2188 Q262.2188,20.5469 261.7188,21.2969 Q261.2344,22.0469 261.2344,23.0781 L261.2344,24.1719 Q261.2344,25.4063 262.125,26.2344 Q263.0156,27.0469 264.6094,27.0469 Q265.5469,27.0469 266.2031,26.7969 Q266.5938,26.6406 267.0156,26.2031 Q267.2813,25.9375 267.4219,25.8594 Q267.5781,25.7813 267.7813,25.7813 Q268.1094,25.7813 268.3594,26.0469 Q268.625,26.2969 268.625,26.6406 Q268.625,26.9844 268.2813,27.3906 Q267.7813,27.9688 266.9844,28.2969 Q265.9063,28.75 264.6094,28.75 Q263.0938,28.75 261.8906,28.125 Q260.9063,27.625 260.2188,26.5625 Q259.5313,25.4844 259.5313,24.2031 L259.5313,23.0469 Q259.5313,21.7188 260.1406,20.5781 Q260.7656,19.4219 261.8594,18.8125 Q262.9531,18.1875 264.1875,18.1875 Q264.9219,18.1875 265.5625,18.3594 Q266.2188,18.5156 266.7656,18.875 Z " fill="#000000"/><text fill="#000000" font-family="sans-serif" font-size="14" lengthAdjust="spacing" textLength="58" x="278" y="28.7285">Reviewer</text><line style="stroke:#181818;stroke-width:0.5;" x1="250" x2="338" y1="39" y2="39"/><line style="stroke:#181818;stroke-width:0.5;" x1="250" x2="338" y1="47" y2="47"/></g><!--MD5=[2cb47ba637a0d19583e6199456f6ad0b]
class Player--><g id="elem_Player"><rect codeLine="17" fill="#F1F1F1" height="48" id="Player" rx="2.5" ry="2.5" style="stroke:#181818;stroke-width:0.5;" width="72" x="374" y="7"/><ellipse cx="389" cy="23" fill="#ADD1B2" rx="11" ry="11" style="stroke:#181818;stroke-width:1.0;"/><path d="M391.7656,18.875 Q391.9219,18.6563 392.1094,18.5469 Q392.2969,18.4375 392.5156,18.4375 Q392.8906,18.4375 393.125,18.7031 Q393.3594,18.9531 393.3594,19.5625 L393.3594,21.0156 Q393.3594,21.625 393.125,21.8906 Q392.8906,22.1563 392.5156,22.1563 Q392.1719,22.1563 391.9688,21.9531 Q391.7656,21.7656 391.6563,21.25 Q391.6094,20.8906 391.4219,20.7031 Q391.0938,20.3281 390.4844,20.1094 Q389.875,19.8906 389.25,19.8906 Q388.4844,19.8906 387.8438,20.2188 Q387.2188,20.5469 386.7188,21.2969 Q386.2344,22.0469 386.2344,23.0781 L386.2344,24.1719 Q386.2344,25.4063 387.125,26.2344 Q388.0156,27.0469 389.6094,27.0469 Q390.5469,27.0469 391.2031,26.7969 Q391.5938,26.6406 392.0156,26.2031 Q392.2813,25.9375 392.4219,25.8594 Q392.5781,25.7813 392.7813,25.7813 Q393.1094,25.7813 393.3594,26.0469 Q393.625,26.2969 393.625,26.6406 Q393.625,26.9844 393.2813,27.3906 Q392.7813,27.9688 391.9844,28.2969 Q390.9063,28.75 389.6094,28.75 Q388.0938,28.75 386.8906,28.125 Q385.9063,27.625 385.2188,26.5625 Q384.5313,25.4844 384.5313,24.2031 L384.5313,23.0469 Q384.5313,21.7188 385.1406,20.5781 Q385.7656,19.4219 386.8594,18.8125 Q387.9531,18.1875 389.1875,18.1875 Q389.9219,18.1875 390.5625,18.3594 Q391.2188,18.5156 391.7656,18.875 Z " fill="#000000"/><text fill="#000000" font-family="sans-serif" font-size="14" lengthAdjust="spacing" textLength="40" x="403" y="28.7285">Player</text><line style="stroke:#181818;stroke-width:0.5;" x1="375" x2="445" y1="39" y2="39"/><line style="stroke:#181818;stroke-width:0.5;" x1="375" x2="445" y1="47" y2="47"/></g><!--MD5=[a96594a83e2ecdc78cbf17c2ddf01934]
class Category--><g id="elem_Category"><rect codeLine="21" fill="#F1F1F1" height="65.6094" id="Category" rx="2.5" ry="2.5" style="stroke:#181818;stroke-width:0.5;" width="90" x="130" y="615"/><ellipse cx="145" cy="631" fill="#EB937F" rx="11" ry="11" style="stroke:#181818;stroke-width:1.0;"/><path d="M143.8594,631.7969 L143.8594,634.2969 L148.1875,634.2969 L148.1875,633.375 Q148.1875,632.7656 148.4219,632.5 Q148.6719,632.2344 149.0469,632.2344 Q149.4219,632.2344 149.6563,632.5 Q149.8906,632.7656 149.8906,633.375 L149.8906,636 L141.8906,636 Q141.2656,636 141,635.7656 Q140.75,635.5313 140.75,635.1406 Q140.75,634.7656 141.0156,634.5313 Q141.2813,634.2969 141.8906,634.2969 L142.1563,634.2969 L142.1563,627.6406 L141.8906,627.6406 Q141.2656,627.6406 141,627.4063 Q140.75,627.1719 140.75,626.7813 Q140.75,626.4063 141,626.1719 Q141.2656,625.9375 141.8906,625.9375 L149.5156,625.9375 L149.5156,628.5313 Q149.5156,629.1406 149.2813,629.4063 Q149.0625,629.6563 148.6719,629.6563 Q148.2969,629.6563 148.0625,629.4063 Q147.8281,629.1406 147.8281,628.5313 L147.8281,627.6406 L143.8594,627.6406 L143.8594,630.0938 L145.3438,630.0938 Q145.3438,629.4375 145.4688,629.25 Q145.7344,628.8438 146.2031,628.8438 Q146.5781,628.8438 146.8125,629.1094 Q147.0469,629.3594 147.0469,629.9688 L147.0469,631.9375 Q147.0469,632.4844 146.9219,632.6719 Q146.6563,633.0625 146.2031,633.0625 Q145.7344,633.0625 145.4688,632.6563 Q145.3438,632.4688 145.3438,631.7969 L143.8594,631.7969 Z " fill="#000000"/><text fill="#000000" font-family="sans-serif" font-size="14" lengthAdjust="spacing" textLength="58" x="159" y="636.7285">Category</text><line style="stroke:#181818;stroke-width:0.5;" x1="131" x2="219" y1="647" y2="647"/><line style="stroke:#181818;stroke-width:0.5;" x1="131" x2="219" y1="655" y2="655"/><text fill="#000000" font-family="sans-serif" font-size="14" lengthAdjust="spacing" textLength="50" x="136" y="673.5332">create()</text></g><!--MD5=[9c1df00e5aaf042f20970631c477ed7b]
class Subcategory--><g id="elem_Subcategory"><rect codeLine="25" fill="#F1F1F1" height="48" id="Subcategory" rx="2.5" ry="2.5" style="stroke:#181818;stroke-width:0.5;" width="112" x="119" y="741"/><ellipse cx="134" cy="757" fill="#EB937F" rx="11" ry="11" style="stroke:#181818;stroke-width:1.0;"/><path d="M132.8594,757.7969 L132.8594,760.2969 L137.1875,760.2969 L137.1875,759.375 Q137.1875,758.7656 137.4219,758.5 Q137.6719,758.2344 138.0469,758.2344 Q138.4219,758.2344 138.6563,758.5 Q138.8906,758.7656 138.8906,759.375 L138.8906,762 L130.8906,762 Q130.2656,762 130,761.7656 Q129.75,761.5313 129.75,761.1406 Q129.75,760.7656 130.0156,760.5313 Q130.2813,760.2969 130.8906,760.2969 L131.1563,760.2969 L131.1563,753.6406 L130.8906,753.6406 Q130.2656,753.6406 130,753.4063 Q129.75,753.1719 129.75,752.7813 Q129.75,752.4063 130,752.1719 Q130.2656,751.9375 130.8906,751.9375 L138.5156,751.9375 L138.5156,754.5313 Q138.5156,755.1406 138.2813,755.4063 Q138.0625,755.6563 137.6719,755.6563 Q137.2969,755.6563 137.0625,755.4063 Q136.8281,755.1406 136.8281,754.5313 L136.8281,753.6406 L132.8594,753.6406 L132.8594,756.0938 L134.3438,756.0938 Q134.3438,755.4375 134.4688,755.25 Q134.7344,754.8438 135.2031,754.8438 Q135.5781,754.8438 135.8125,755.1094 Q136.0469,755.3594 136.0469,755.9688 L136.0469,757.9375 Q136.0469,758.4844 135.9219,758.6719 Q135.6563,759.0625 135.2031,759.0625 Q134.7344,759.0625 134.4688,758.6563 Q134.3438,758.4688 134.3438,757.7969 L132.8594,757.7969 Z " fill="#000000"/><text fill="#000000" font-family="sans-serif" font-size="14" lengthAdjust="spacing" textLength="80" x="148" y="762.7285">Subcategory</text><line style="stroke:#181818;stroke-width:0.5;" x1="120" x2="230" y1="773" y2="773"/><line style="stroke:#181818;stroke-width:0.5;" x1="120" x2="230" y1="781" y2="781"/></g><!--MD5=[df38be88ccee13e832d6fafd6288a4ca]
class Test--><g id="elem_Test"><rect codeLine="29" fill="#F1F1F1" height="65.6094" id="Test" rx="2.5" ry="2.5" style="stroke:#181818;stroke-width:0.5;" width="121" x="175.5" y="258"/><ellipse cx="217.95" cy="274" fill="#ADD1B2" rx="11" ry="11" style="stroke:#181818;stroke-width:1.0;"/><path d="M220.7156,269.875 Q220.8719,269.6563 221.0594,269.5469 Q221.2469,269.4375 221.4656,269.4375 Q221.8406,269.4375 222.075,269.7031 Q222.3094,269.9531 222.3094,270.5625 L222.3094,272.0156 Q222.3094,272.625 222.075,272.8906 Q221.8406,273.1563 221.4656,273.1563 Q221.1219,273.1563 220.9188,272.9531 Q220.7156,272.7656 220.6063,272.25 Q220.5594,271.8906 220.3719,271.7031 Q220.0438,271.3281 219.4344,271.1094 Q218.825,270.8906 218.2,270.8906 Q217.4344,270.8906 216.7938,271.2188 Q216.1688,271.5469 215.6688,272.2969 Q215.1844,273.0469 215.1844,274.0781 L215.1844,275.1719 Q215.1844,276.4063 216.075,277.2344 Q216.9656,278.0469 218.5594,278.0469 Q219.4969,278.0469 220.1531,277.7969 Q220.5438,277.6406 220.9656,277.2031 Q221.2313,276.9375 221.3719,276.8594 Q221.5281,276.7813 221.7313,276.7813 Q222.0594,276.7813 222.3094,277.0469 Q222.575,277.2969 222.575,277.6406 Q222.575,277.9844 222.2313,278.3906 Q221.7313,278.9688 220.9344,279.2969 Q219.8563,279.75 218.5594,279.75 Q217.0438,279.75 215.8406,279.125 Q214.8563,278.625 214.1688,277.5625 Q213.4813,276.4844 213.4813,275.2031 L213.4813,274.0469 Q213.4813,272.7188 214.0906,271.5781 Q214.7156,270.4219 215.8094,269.8125 Q216.9031,269.1875 218.1375,269.1875 Q218.8719,269.1875 219.5125,269.3594 Q220.1688,269.5156 220.7156,269.875 Z " fill="#000000"/><text fill="#000000" font-family="sans-serif" font-size="14" lengthAdjust="spacing" textLength="28" x="238.05" y="279.7285">Test</text><line style="stroke:#181818;stroke-width:0.5;" x1="176.5" x2="295.5" y1="290" y2="290"/><polygon fill="none" points="186.5,299.3047,190.5,303.3047,186.5,307.3047,182.5,303.3047" style="stroke:#B38D22;stroke-width:1.0;"/><text fill="#000000" font-family="sans-serif" font-size="14" lengthAdjust="spacing" textLength="95" x="195.5" y="308.5332">List[] questions</text><line style="stroke:#181818;stroke-width:0.5;" x1="176.5" x2="295.5" y1="315.6094" y2="315.6094"/></g><!--MD5=[fc7123defb831ecdd44b2d9bcef6cceb]
class Question--><g id="elem_Question"><rect codeLine="33" fill="#F1F1F1" height="171.2656" id="Question" rx="2.5" ry="2.5" style="stroke:#181818;stroke-width:0.5;" width="112" x="180" y="384"/><ellipse cx="205.35" cy="400" fill="#ADD1B2" rx="11" ry="11" style="stroke:#181818;stroke-width:1.0;"/><path d="M208.1156,395.875 Q208.2719,395.6563 208.4594,395.5469 Q208.6469,395.4375 208.8656,395.4375 Q209.2406,395.4375 209.475,395.7031 Q209.7094,395.9531 209.7094,396.5625 L209.7094,398.0156 Q209.7094,398.625 209.475,398.8906 Q209.2406,399.1563 208.8656,399.1563 Q208.5219,399.1563 208.3188,398.9531 Q208.1156,398.7656 208.0063,398.25 Q207.9594,397.8906 207.7719,397.7031 Q207.4438,397.3281 206.8344,397.1094 Q206.225,396.8906 205.6,396.8906 Q204.8344,396.8906 204.1938,397.2188 Q203.5688,397.5469 203.0688,398.2969 Q202.5844,399.0469 202.5844,400.0781 L202.5844,401.1719 Q202.5844,402.4063 203.475,403.2344 Q204.3656,404.0469 205.9594,404.0469 Q206.8969,404.0469 207.5531,403.7969 Q207.9438,403.6406 208.3656,403.2031 Q208.6313,402.9375 208.7719,402.8594 Q208.9281,402.7813 209.1313,402.7813 Q209.4594,402.7813 209.7094,403.0469 Q209.975,403.2969 209.975,403.6406 Q209.975,403.9844 209.6313,404.3906 Q209.1313,404.9688 208.3344,405.2969 Q207.2563,405.75 205.9594,405.75 Q204.4438,405.75 203.2406,405.125 Q202.2563,404.625 201.5688,403.5625 Q200.8813,402.4844 200.8813,401.2031 L200.8813,400.0469 Q200.8813,398.7188 201.4906,397.5781 Q202.1156,396.4219 203.2094,395.8125 Q204.3031,395.1875 205.5375,395.1875 Q206.2719,395.1875 206.9125,395.3594 Q207.5688,395.5156 208.1156,395.875 Z " fill="#000000"/><text fill="#000000" font-family="sans-serif" font-size="14" lengthAdjust="spacing" textLength="57" x="221.65" y="405.7285">Question</text><line style="stroke:#181818;stroke-width:0.5;" x1="181" x2="291" y1="416" y2="416"/><polygon fill="none" points="191,425.3047,195,429.3047,191,433.3047,187,429.3047" style="stroke:#B38D22;stroke-width:1.0;"/><text fill="#000000" font-family="sans-serif" font-size="14" lengthAdjust="spacing" textLength="45" x="200" y="434.5332">creator</text><polygon fill="none" points="191,442.9141,195,446.9141,191,450.9141,187,446.9141" style="stroke:#B38D22;stroke-width:1.0;"/><text fill="#000000" font-family="sans-serif" font-size="14" lengthAdjust="spacing" textLength="81" x="200" y="452.1426">creationDate</text><polygon fill="none" points="191,460.5234,195,464.5234,191,468.5234,187,464.5234" style="stroke:#B38D22;stroke-width:1.0;"/><text fill="#000000" font-family="sans-serif" font-size="14" lengthAdjust="spacing" textLength="53" x="200" y="469.752">reviewer</text><polygon fill="none" points="191,478.1328,195,482.1328,191,486.1328,187,482.1328" style="stroke:#B38D22;stroke-width:1.0;"/><text fill="#000000" font-family="sans-serif" font-size="14" lengthAdjust="spacing" textLength="70" x="200" y="487.3613">reviewDate</text><text fill="#000000" font-family="sans-serif" font-size="14" lengthAdjust="spacing" textLength="4" x="200" y="504.9707"> </text><polygon fill="none" points="191,513.3516,195,517.3516,191,521.3516,187,517.3516" style="stroke:#B38D22;stroke-width:1.0;"/><text fill="#000000" font-family="sans-serif" font-size="14" lengthAdjust="spacing" textLength="62" x="200" y="522.5801">statement</text><polygon fill="none" points="191,530.9609,195,534.9609,191,538.9609,187,534.9609" style="stroke:#B38D22;stroke-width:1.0;"/><text fill="#000000" font-family="sans-serif" font-size="14" lengthAdjust="spacing" textLength="86" x="200" y="540.1895">List[] answers</text><line style="stroke:#181818;stroke-width:0.5;" x1="181" x2="291" y1="547.2656" y2="547.2656"/></g><!--MD5=[f9fadfa5a66b7e5a67b370cd443ffe52]
class Answer--><g id="elem_Answer"><rect codeLine="43" fill="#F1F1F1" height="65.6094" id="Answer" rx="2.5" ry="2.5" style="stroke:#181818;stroke-width:0.5;" width="83" x="255.5" y="615"/><ellipse cx="272.75" cy="631" fill="#ADD1B2" rx="11" ry="11" style="stroke:#181818;stroke-width:1.0;"/><path d="M275.5156,626.875 Q275.6719,626.6563 275.8594,626.5469 Q276.0469,626.4375 276.2656,626.4375 Q276.6406,626.4375 276.875,626.7031 Q277.1094,626.9531 277.1094,627.5625 L277.1094,629.0156 Q277.1094,629.625 276.875,629.8906 Q276.6406,630.1563 276.2656,630.1563 Q275.9219,630.1563 275.7188,629.9531 Q275.5156,629.7656 275.4063,629.25 Q275.3594,628.8906 275.1719,628.7031 Q274.8438,628.3281 274.2344,628.1094 Q273.625,627.8906 273,627.8906 Q272.2344,627.8906 271.5938,628.2188 Q270.9688,628.5469 270.4688,629.2969 Q269.9844,630.0469 269.9844,631.0781 L269.9844,632.1719 Q269.9844,633.4063 270.875,634.2344 Q271.7656,635.0469 273.3594,635.0469 Q274.2969,635.0469 274.9531,634.7969 Q275.3438,634.6406 275.7656,634.2031 Q276.0313,633.9375 276.1719,633.8594 Q276.3281,633.7813 276.5313,633.7813 Q276.8594,633.7813 277.1094,634.0469 Q277.375,634.2969 277.375,634.6406 Q277.375,634.9844 277.0313,635.3906 Q276.5313,635.9688 275.7344,636.2969 Q274.6563,636.75 273.3594,636.75 Q271.8438,636.75 270.6406,636.125 Q269.6563,635.625 268.9688,634.5625 Q268.2813,633.4844 268.2813,632.2031 L268.2813,631.0469 Q268.2813,629.7188 268.8906,628.5781 Q269.5156,627.4219 270.6094,626.8125 Q271.7031,626.1875 272.9375,626.1875 Q273.6719,626.1875 274.3125,626.3594 Q274.9688,626.5156 275.5156,626.875 Z " fill="#000000"/><text fill="#000000" font-family="sans-serif" font-size="14" lengthAdjust="spacing" textLength="46" x="287.25" y="636.7285">Answer</text><line style="stroke:#181818;stroke-width:0.5;" x1="256.5" x2="337.5" y1="647" y2="647"/><polygon fill="none" points="266.5,656.3047,270.5,660.3047,266.5,664.3047,262.5,660.3047" style="stroke:#B38D22;stroke-width:1.0;"/><text fill="#000000" font-family="sans-serif" font-size="14" lengthAdjust="spacing" textLength="57" x="275.5" y="665.5332">isCorrect</text><line style="stroke:#181818;stroke-width:0.5;" x1="256.5" x2="337.5" y1="672.6094" y2="672.6094"/></g><!--MD5=[8235d596e40eaa310e25cb7e3d92ec72]
reverse link Community to User--><g id="link_Community_User"><path codeLine="47" d="M102.18,62.65 C124.91,78.43 152.93,97.86 177.44,114.87 " fill="none" id="Community-backto-User" style="stroke:#181818;stroke-width:1.0;"/><polygon fill="#181818" points="91.48,55.23,94.1293,61.9368,101.3392,62.0708,98.6899,55.364,91.48,55.23" style="stroke:#181818;stroke-width:1.0;"/><text fill="#000000" font-family="sans-serif" font-size="13" lengthAdjust="spacing" textLength="20" x="146.0847" y="104.1561">1..*</text></g><!--MD5=[7db2dac0e573868dbeb5c0d1800409d0]
reverse link Editor to User--><g id="link_Editor_User"><path codeLine="49" d="M198.12,73.44 C204.29,86.79 211.11,101.57 217.25,114.87 " fill="none" id="Editor-backto-User" style="stroke:#181818;stroke-width:1.0;"/><polygon fill="none" points="191.75,76.32,189.72,55.23,204.46,70.46,191.75,76.32" style="stroke:#181818;stroke-width:1.0;"/></g><!--MD5=[759adeacf13448ac422b005af06f35b2]
reverse link Reviewer to User--><g id="link_Reviewer_User"><path codeLine="50" d="M274.54,73.44 C268.27,86.79 261.33,101.57 255.08,114.87 " fill="none" id="Reviewer-backto-User" style="stroke:#181818;stroke-width:1.0;"/><polygon fill="none" points="268.25,70.36,283.09,55.23,280.92,76.31,268.25,70.36" style="stroke:#181818;stroke-width:1.0;"/></g><!--MD5=[02f36e01e966f9911ab616b886036f2b]
reverse link Player to User--><g id="link_Player_User"><path codeLine="51" d="M360.95,66.82 C339.89,81.76 315.14,99.33 293.25,114.87 " fill="none" id="Player-backto-User" style="stroke:#181818;stroke-width:1.0;"/><polygon fill="none" points="356.91,61.1,377.27,55.23,365.01,72.51,356.91,61.1" style="stroke:#181818;stroke-width:1.0;"/></g><!--MD5=[85d1918dc023e693545104f3b89c7c67]
reverse link User to Test--><g id="link_User_Test"><path codeLine="53" d="M236,211.78 C236,227.46 236,244.06 236,257.92 " fill="none" id="User-backto-Test" style="stroke:#181818;stroke-width:1.0;"/><polygon fill="none" points="236,198.34,232,204.34,236,210.34,240,204.34,236,198.34" style="stroke:#181818;stroke-width:1.0;"/></g><!--MD5=[bb3d97f09542411db1527b071cca8268]
link Test to Question--><g id="link_Test_Question"><path codeLine="55" d="M236,336.37 C236,336.37 236,359.28 236,370.76 " fill="none" id="Test-Question" style="stroke:#181818;stroke-width:1.0;"/><polygon fill="#181818" points="236,383.76,240,374.76,236,378.76,232,374.76,236,383.76" style="stroke:#181818;stroke-width:1.0;"/><line style="stroke:#181818;stroke-width:1.0;" x1="236" x2="236" y1="378.76" y2="370.76"/><polygon fill="#181818" points="236,324.37,232,330.37,236,336.37,240,330.37,236,324.37" style="stroke:#181818;stroke-width:1.0;"/><text fill="#000000" font-family="sans-serif" font-size="13" lengthAdjust="spacing" textLength="20" x="215.1406" y="373.203">1..*</text></g><!--MD5=[6926d5174a3032b1dcc6c5d6f900c16b]
link Question to Answer--><g id="link_Question_Answer"><path codeLine="56" d="M269.1672,566.4727 C269.1672,566.4727 277.84,591.55 281.54,602.28 " fill="none" id="Question-Answer" style="stroke:#181818;stroke-width:1.0;"/><polygon fill="#181818" points="285.85,614.74,286.6965,604.9276,284.2195,610.0133,279.1338,607.5363,285.85,614.74" style="stroke:#181818;stroke-width:1.0;"/><line style="stroke:#181818;stroke-width:1.0;" x1="284.2195" x2="281.605" y1="610.0133" y2="602.455"/><polygon fill="#181818" points="265.25,555.13,263.4277,562.1071,269.1672,566.4727,270.9895,559.4956,265.25,555.13" style="stroke:#181818;stroke-width:1.0;"/><text fill="#000000" font-family="sans-serif" font-size="13" lengthAdjust="spacing" textLength="20" x="261.6861" y="604.1851">1..*</text></g><!--MD5=[98df2f76ab45609c36aa45d6b9c3faee]
link Question to Category--><g id="link_Question_Category"><path codeLine="58" d="M202.8328,566.4727 C202.8328,566.4727 194.16,591.55 190.46,602.28 " fill="none" id="Question-Category" style="stroke:#181818;stroke-width:1.0;"/><polygon fill="#181818" points="186.15,614.74,192.8662,607.5363,187.7805,610.0133,185.3035,604.9276,186.15,614.74" style="stroke:#181818;stroke-width:1.0;"/><line style="stroke:#181818;stroke-width:1.0;" x1="187.7805" x2="190.395" y1="610.0133" y2="602.455"/><polygon fill="#181818" points="206.75,555.13,201.0105,559.4956,202.8328,566.4727,208.5723,562.1071,206.75,555.13" style="stroke:#181818;stroke-width:1.0;"/></g><!--MD5=[74baf885d61ec4386e3ee7603dbfa36d]
link Category to Subcategory--><g id="link_Category_Subcategory"><path codeLine="59" d="M175,693.03 C175,693.03 175,717 175,727.66 " fill="none" id="Category-Subcategory" style="stroke:#181818;stroke-width:1.0;"/><polygon fill="#181818" points="175,740.89,179,731.89,175,735.89,171,731.89,175,740.89" style="stroke:#181818;stroke-width:1.0;"/><line style="stroke:#181818;stroke-width:1.0;" x1="175" x2="175" y1="735.89" y2="727.89"/><polygon fill="#181818" points="175,681.03,171,687.03,175,693.03,179,687.03,175,681.03" style="stroke:#181818;stroke-width:1.0;"/><text fill="#000000" font-family="sans-serif" font-size="13" lengthAdjust="spacing" textLength="20" x="152.4375" y="730.202">0..*</text></g><!--MD5=[1d3060989bc4dea98ceffd181634067e]
@startuml OpoTestDomain

class Community {}

class User {
    #role
    #Test composeTest()
}

class Editor {

}

class Reviewer {

}

class Player {

}

enum Category {
    create()
}

enum Subcategory {

}

class Test {
    #List[] questions
}

class Question {
    #creator
    #creationDate
    #reviewer
    #reviewDate

    #statement
    #List[] answers

}
class Answer {
    # isCorrect
}

Community *- - "1..*" User

Editor <|- - User
Reviewer <|- - User
Player <|- - User

User o- - Test

Test *- -> "1..*" Question
Question *- -> "1..*" Answer

Question *- -> Category
Category *- ->"0..*" Subcategory




@end

PlantUML version 1.2022.7(Mon Aug 22 18:01:30 WEST 2022)
(GPL source distribution)
Java Runtime: OpenJDK Runtime Environment
JVM: OpenJDK 64-Bit Server VM
Default Encoding: Cp1252
Language: es
Country: ES
--></g></svg>