<?xml version="1.0" encoding="UTF-8" standalone="no"?><svg xmlns="http://www.w3.org/2000/svg" xmlns:xlink="http://www.w3.org/1999/xlink" contentStyleType="text/css" height="938px" preserveAspectRatio="none" style="width:543px;height:938px;background:#FFFFFF;" version="1.1" viewBox="0 0 543 938" width="543px" zoomAndPan="magnify"><defs/><g><!--MD5=[668d633d11bedc8952753581a2dda3db]
class Community--><g id="elem_Community"><rect codeLine="2" fill="#F1F1F1" height="48" id="Community" rx="2.5" ry="2.5" style="stroke:#181818;stroke-width:0.5;" width="102" x="294" y="7"/><ellipse cx="309" cy="23" fill="#ADD1B2" rx="11" ry="11" style="stroke:#181818;stroke-width:1.0;"/><path d="M311.7656,18.875 Q311.9219,18.6563 312.1094,18.5469 Q312.2969,18.4375 312.5156,18.4375 Q312.8906,18.4375 313.125,18.7031 Q313.3594,18.9531 313.3594,19.5625 L313.3594,21.0156 Q313.3594,21.625 313.125,21.8906 Q312.8906,22.1563 312.5156,22.1563 Q312.1719,22.1563 311.9688,21.9531 Q311.7656,21.7656 311.6563,21.25 Q311.6094,20.8906 311.4219,20.7031 Q311.0938,20.3281 310.4844,20.1094 Q309.875,19.8906 309.25,19.8906 Q308.4844,19.8906 307.8438,20.2188 Q307.2188,20.5469 306.7188,21.2969 Q306.2344,22.0469 306.2344,23.0781 L306.2344,24.1719 Q306.2344,25.4063 307.125,26.2344 Q308.0156,27.0469 309.6094,27.0469 Q310.5469,27.0469 311.2031,26.7969 Q311.5938,26.6406 312.0156,26.2031 Q312.2813,25.9375 312.4219,25.8594 Q312.5781,25.7813 312.7813,25.7813 Q313.1094,25.7813 313.3594,26.0469 Q313.625,26.2969 313.625,26.6406 Q313.625,26.9844 313.2813,27.3906 Q312.7813,27.9688 311.9844,28.2969 Q310.9063,28.75 309.6094,28.75 Q308.0938,28.75 306.8906,28.125 Q305.9063,27.625 305.2188,26.5625 Q304.5313,25.4844 304.5313,24.2031 L304.5313,23.0469 Q304.5313,21.7188 305.1406,20.5781 Q305.7656,19.4219 306.8594,18.8125 Q307.9531,18.1875 309.1875,18.1875 Q309.9219,18.1875 310.5625,18.3594 Q311.2188,18.5156 311.7656,18.875 Z " fill="#000000"/><text fill="#000000" font-family="sans-serif" font-size="14" lengthAdjust="spacing" textLength="70" x="323" y="28.7285">Community</text><line style="stroke:#181818;stroke-width:0.5;" x1="295" x2="395" y1="39" y2="39"/><line style="stroke:#181818;stroke-width:0.5;" x1="295" x2="395" y1="47" y2="47"/></g><!--MD5=[3fd616f346a44cd59a91eb10b19e157c]
class User--><g id="elem_User"><rect codeLine="4" fill="#F1F1F1" height="48" id="User" rx="2.5" ry="2.5" style="stroke:#181818;stroke-width:0.5;" width="61" x="263.5" y="116"/><ellipse cx="278.5" cy="132" fill="#ADD1B2" rx="11" ry="11" style="stroke:#181818;stroke-width:1.0;"/><path d="M281.2656,127.875 Q281.4219,127.6563 281.6094,127.5469 Q281.7969,127.4375 282.0156,127.4375 Q282.3906,127.4375 282.625,127.7031 Q282.8594,127.9531 282.8594,128.5625 L282.8594,130.0156 Q282.8594,130.625 282.625,130.8906 Q282.3906,131.1563 282.0156,131.1563 Q281.6719,131.1563 281.4688,130.9531 Q281.2656,130.7656 281.1563,130.25 Q281.1094,129.8906 280.9219,129.7031 Q280.5938,129.3281 279.9844,129.1094 Q279.375,128.8906 278.75,128.8906 Q277.9844,128.8906 277.3438,129.2188 Q276.7188,129.5469 276.2188,130.2969 Q275.7344,131.0469 275.7344,132.0781 L275.7344,133.1719 Q275.7344,134.4063 276.625,135.2344 Q277.5156,136.0469 279.1094,136.0469 Q280.0469,136.0469 280.7031,135.7969 Q281.0938,135.6406 281.5156,135.2031 Q281.7813,134.9375 281.9219,134.8594 Q282.0781,134.7813 282.2813,134.7813 Q282.6094,134.7813 282.8594,135.0469 Q283.125,135.2969 283.125,135.6406 Q283.125,135.9844 282.7813,136.3906 Q282.2813,136.9688 281.4844,137.2969 Q280.4063,137.75 279.1094,137.75 Q277.5938,137.75 276.3906,137.125 Q275.4063,136.625 274.7188,135.5625 Q274.0313,134.4844 274.0313,133.2031 L274.0313,132.0469 Q274.0313,130.7188 274.6406,129.5781 Q275.2656,128.4219 276.3594,127.8125 Q277.4531,127.1875 278.6875,127.1875 Q279.4219,127.1875 280.0625,127.3594 Q280.7188,127.5156 281.2656,127.875 Z " fill="#000000"/><text fill="#000000" font-family="sans-serif" font-size="14" lengthAdjust="spacing" textLength="29" x="292.5" y="137.7285">User</text><line style="stroke:#181818;stroke-width:0.5;" x1="264.5" x2="323.5" y1="148" y2="148"/><line style="stroke:#181818;stroke-width:0.5;" x1="264.5" x2="323.5" y1="156" y2="156"/></g><!--MD5=[e76a510855fdf825c81877c657b1fc23]
class Reviewer--><g id="elem_Reviewer"><rect codeLine="6" fill="#F1F1F1" height="48" id="Reviewer" rx="2.5" ry="2.5" style="stroke:#181818;stroke-width:0.5;" width="90" x="331" y="416"/><ellipse cx="346" cy="432" fill="#ADD1B2" rx="11" ry="11" style="stroke:#181818;stroke-width:1.0;"/><path d="M348.7656,427.875 Q348.9219,427.6563 349.1094,427.5469 Q349.2969,427.4375 349.5156,427.4375 Q349.8906,427.4375 350.125,427.7031 Q350.3594,427.9531 350.3594,428.5625 L350.3594,430.0156 Q350.3594,430.625 350.125,430.8906 Q349.8906,431.1563 349.5156,431.1563 Q349.1719,431.1563 348.9688,430.9531 Q348.7656,430.7656 348.6563,430.25 Q348.6094,429.8906 348.4219,429.7031 Q348.0938,429.3281 347.4844,429.1094 Q346.875,428.8906 346.25,428.8906 Q345.4844,428.8906 344.8438,429.2188 Q344.2188,429.5469 343.7188,430.2969 Q343.2344,431.0469 343.2344,432.0781 L343.2344,433.1719 Q343.2344,434.4063 344.125,435.2344 Q345.0156,436.0469 346.6094,436.0469 Q347.5469,436.0469 348.2031,435.7969 Q348.5938,435.6406 349.0156,435.2031 Q349.2813,434.9375 349.4219,434.8594 Q349.5781,434.7813 349.7813,434.7813 Q350.1094,434.7813 350.3594,435.0469 Q350.625,435.2969 350.625,435.6406 Q350.625,435.9844 350.2813,436.3906 Q349.7813,436.9688 348.9844,437.2969 Q347.9063,437.75 346.6094,437.75 Q345.0938,437.75 343.8906,437.125 Q342.9063,436.625 342.2188,435.5625 Q341.5313,434.4844 341.5313,433.2031 L341.5313,432.0469 Q341.5313,430.7188 342.1406,429.5781 Q342.7656,428.4219 343.8594,427.8125 Q344.9531,427.1875 346.1875,427.1875 Q346.9219,427.1875 347.5625,427.3594 Q348.2188,427.5156 348.7656,427.875 Z " fill="#000000"/><text fill="#000000" font-family="sans-serif" font-size="14" lengthAdjust="spacing" textLength="58" x="360" y="437.7285">Reviewer</text><line style="stroke:#181818;stroke-width:0.5;" x1="332" x2="420" y1="448" y2="448"/><line style="stroke:#181818;stroke-width:0.5;" x1="332" x2="420" y1="456" y2="456"/></g><!--MD5=[559db66c208d2736f857be4b8ed380a2]
class Editor--><g id="elem_Editor"><rect codeLine="8" fill="#F1F1F1" height="48" id="Editor" rx="2.5" ry="2.5" style="stroke:#181818;stroke-width:0.5;" width="69" x="259.5" y="272"/><ellipse cx="274.5" cy="288" fill="#ADD1B2" rx="11" ry="11" style="stroke:#181818;stroke-width:1.0;"/><path d="M277.2656,283.875 Q277.4219,283.6563 277.6094,283.5469 Q277.7969,283.4375 278.0156,283.4375 Q278.3906,283.4375 278.625,283.7031 Q278.8594,283.9531 278.8594,284.5625 L278.8594,286.0156 Q278.8594,286.625 278.625,286.8906 Q278.3906,287.1563 278.0156,287.1563 Q277.6719,287.1563 277.4688,286.9531 Q277.2656,286.7656 277.1563,286.25 Q277.1094,285.8906 276.9219,285.7031 Q276.5938,285.3281 275.9844,285.1094 Q275.375,284.8906 274.75,284.8906 Q273.9844,284.8906 273.3438,285.2188 Q272.7188,285.5469 272.2188,286.2969 Q271.7344,287.0469 271.7344,288.0781 L271.7344,289.1719 Q271.7344,290.4063 272.625,291.2344 Q273.5156,292.0469 275.1094,292.0469 Q276.0469,292.0469 276.7031,291.7969 Q277.0938,291.6406 277.5156,291.2031 Q277.7813,290.9375 277.9219,290.8594 Q278.0781,290.7813 278.2813,290.7813 Q278.6094,290.7813 278.8594,291.0469 Q279.125,291.2969 279.125,291.6406 Q279.125,291.9844 278.7813,292.3906 Q278.2813,292.9688 277.4844,293.2969 Q276.4063,293.75 275.1094,293.75 Q273.5938,293.75 272.3906,293.125 Q271.4063,292.625 270.7188,291.5625 Q270.0313,290.4844 270.0313,289.2031 L270.0313,288.0469 Q270.0313,286.7188 270.6406,285.5781 Q271.2656,284.4219 272.3594,283.8125 Q273.4531,283.1875 274.6875,283.1875 Q275.4219,283.1875 276.0625,283.3594 Q276.7188,283.5156 277.2656,283.875 Z " fill="#000000"/><text fill="#000000" font-family="sans-serif" font-size="14" lengthAdjust="spacing" textLength="37" x="288.5" y="293.7285">Editor</text><line style="stroke:#181818;stroke-width:0.5;" x1="260.5" x2="327.5" y1="304" y2="304"/><line style="stroke:#181818;stroke-width:0.5;" x1="260.5" x2="327.5" y1="312" y2="312"/></g><!--MD5=[a0a1f7f9662f43ef0ece806266f72a6f]
class Executor--><g id="elem_Executor"><rect codeLine="10" fill="#F1F1F1" height="48" id="Executor" rx="2.5" ry="2.5" style="stroke:#181818;stroke-width:0.5;" width="87" x="132.5" y="272"/><ellipse cx="147.5" cy="288" fill="#ADD1B2" rx="11" ry="11" style="stroke:#181818;stroke-width:1.0;"/><path d="M150.2656,283.875 Q150.4219,283.6563 150.6094,283.5469 Q150.7969,283.4375 151.0156,283.4375 Q151.3906,283.4375 151.625,283.7031 Q151.8594,283.9531 151.8594,284.5625 L151.8594,286.0156 Q151.8594,286.625 151.625,286.8906 Q151.3906,287.1563 151.0156,287.1563 Q150.6719,287.1563 150.4688,286.9531 Q150.2656,286.7656 150.1563,286.25 Q150.1094,285.8906 149.9219,285.7031 Q149.5938,285.3281 148.9844,285.1094 Q148.375,284.8906 147.75,284.8906 Q146.9844,284.8906 146.3438,285.2188 Q145.7188,285.5469 145.2188,286.2969 Q144.7344,287.0469 144.7344,288.0781 L144.7344,289.1719 Q144.7344,290.4063 145.625,291.2344 Q146.5156,292.0469 148.1094,292.0469 Q149.0469,292.0469 149.7031,291.7969 Q150.0938,291.6406 150.5156,291.2031 Q150.7813,290.9375 150.9219,290.8594 Q151.0781,290.7813 151.2813,290.7813 Q151.6094,290.7813 151.8594,291.0469 Q152.125,291.2969 152.125,291.6406 Q152.125,291.9844 151.7813,292.3906 Q151.2813,292.9688 150.4844,293.2969 Q149.4063,293.75 148.1094,293.75 Q146.5938,293.75 145.3906,293.125 Q144.4063,292.625 143.7188,291.5625 Q143.0313,290.4844 143.0313,289.2031 L143.0313,288.0469 Q143.0313,286.7188 143.6406,285.5781 Q144.2656,284.4219 145.3594,283.8125 Q146.4531,283.1875 147.6875,283.1875 Q148.4219,283.1875 149.0625,283.3594 Q149.7188,283.5156 150.2656,283.875 Z " fill="#000000"/><text fill="#000000" font-family="sans-serif" font-size="14" lengthAdjust="spacing" textLength="55" x="161.5" y="293.7285">Executor</text><line style="stroke:#181818;stroke-width:0.5;" x1="133.5" x2="218.5" y1="304" y2="304"/><line style="stroke:#181818;stroke-width:0.5;" x1="133.5" x2="218.5" y1="312" y2="312"/></g><!--MD5=[71e8807956d33805e77353b9d7e2df39]
class Evaluation--><g id="elem_Evaluation"><rect codeLine="12" fill="#F1F1F1" height="48" id="Evaluation" rx="2.5" ry="2.5" style="stroke:#181818;stroke-width:0.5;" width="98" x="65" y="416"/><ellipse cx="80" cy="432" fill="#ADD1B2" rx="11" ry="11" style="stroke:#181818;stroke-width:1.0;"/><path d="M82.7656,427.875 Q82.9219,427.6563 83.1094,427.5469 Q83.2969,427.4375 83.5156,427.4375 Q83.8906,427.4375 84.125,427.7031 Q84.3594,427.9531 84.3594,428.5625 L84.3594,430.0156 Q84.3594,430.625 84.125,430.8906 Q83.8906,431.1563 83.5156,431.1563 Q83.1719,431.1563 82.9688,430.9531 Q82.7656,430.7656 82.6563,430.25 Q82.6094,429.8906 82.4219,429.7031 Q82.0938,429.3281 81.4844,429.1094 Q80.875,428.8906 80.25,428.8906 Q79.4844,428.8906 78.8438,429.2188 Q78.2188,429.5469 77.7188,430.2969 Q77.2344,431.0469 77.2344,432.0781 L77.2344,433.1719 Q77.2344,434.4063 78.125,435.2344 Q79.0156,436.0469 80.6094,436.0469 Q81.5469,436.0469 82.2031,435.7969 Q82.5938,435.6406 83.0156,435.2031 Q83.2813,434.9375 83.4219,434.8594 Q83.5781,434.7813 83.7813,434.7813 Q84.1094,434.7813 84.3594,435.0469 Q84.625,435.2969 84.625,435.6406 Q84.625,435.9844 84.2813,436.3906 Q83.7813,436.9688 82.9844,437.2969 Q81.9063,437.75 80.6094,437.75 Q79.0938,437.75 77.8906,437.125 Q76.9063,436.625 76.2188,435.5625 Q75.5313,434.4844 75.5313,433.2031 L75.5313,432.0469 Q75.5313,430.7188 76.1406,429.5781 Q76.7656,428.4219 77.8594,427.8125 Q78.9531,427.1875 80.1875,427.1875 Q80.9219,427.1875 81.5625,427.3594 Q82.2188,427.5156 82.7656,427.875 Z " fill="#000000"/><text fill="#000000" font-family="sans-serif" font-size="14" lengthAdjust="spacing" textLength="66" x="94" y="437.7285">Evaluation</text><line style="stroke:#181818;stroke-width:0.5;" x1="66" x2="162" y1="448" y2="448"/><line style="stroke:#181818;stroke-width:0.5;" x1="66" x2="162" y1="456" y2="456"/></g><!--MD5=[a96594a83e2ecdc78cbf17c2ddf01934]
class Category--><g id="elem_Category"><rect codeLine="14" fill="#F1F1F1" height="48" id="Category" rx="2.5" ry="2.5" style="stroke:#181818;stroke-width:0.5;" width="90" x="7" y="883"/><ellipse cx="22" cy="899" fill="#ADD1B2" rx="11" ry="11" style="stroke:#181818;stroke-width:1.0;"/><path d="M24.7656,894.875 Q24.9219,894.6563 25.1094,894.5469 Q25.2969,894.4375 25.5156,894.4375 Q25.8906,894.4375 26.125,894.7031 Q26.3594,894.9531 26.3594,895.5625 L26.3594,897.0156 Q26.3594,897.625 26.125,897.8906 Q25.8906,898.1563 25.5156,898.1563 Q25.1719,898.1563 24.9688,897.9531 Q24.7656,897.7656 24.6563,897.25 Q24.6094,896.8906 24.4219,896.7031 Q24.0938,896.3281 23.4844,896.1094 Q22.875,895.8906 22.25,895.8906 Q21.4844,895.8906 20.8438,896.2188 Q20.2188,896.5469 19.7188,897.2969 Q19.2344,898.0469 19.2344,899.0781 L19.2344,900.1719 Q19.2344,901.4063 20.125,902.2344 Q21.0156,903.0469 22.6094,903.0469 Q23.5469,903.0469 24.2031,902.7969 Q24.5938,902.6406 25.0156,902.2031 Q25.2813,901.9375 25.4219,901.8594 Q25.5781,901.7813 25.7813,901.7813 Q26.1094,901.7813 26.3594,902.0469 Q26.625,902.2969 26.625,902.6406 Q26.625,902.9844 26.2813,903.3906 Q25.7813,903.9688 24.9844,904.2969 Q23.9063,904.75 22.6094,904.75 Q21.0938,904.75 19.8906,904.125 Q18.9063,903.625 18.2188,902.5625 Q17.5313,901.4844 17.5313,900.2031 L17.5313,899.0469 Q17.5313,897.7188 18.1406,896.5781 Q18.7656,895.4219 19.8594,894.8125 Q20.9531,894.1875 22.1875,894.1875 Q22.9219,894.1875 23.5625,894.3594 Q24.2188,894.5156 24.7656,894.875 Z " fill="#000000"/><text fill="#000000" font-family="sans-serif" font-size="14" lengthAdjust="spacing" textLength="58" x="36" y="904.7285">Category</text><line style="stroke:#181818;stroke-width:0.5;" x1="8" x2="96" y1="915" y2="915"/><line style="stroke:#181818;stroke-width:0.5;" x1="8" x2="96" y1="923" y2="923"/></g><!--MD5=[df38be88ccee13e832d6fafd6288a4ca]
class Test--><g id="elem_Test"><rect codeLine="16" fill="#F1F1F1" height="65.6094" id="Test" rx="2.5" ry="2.5" style="stroke:#181818;stroke-width:0.5;" width="78" x="80" y="577"/><ellipse cx="103.1" cy="593" fill="#ADD1B2" rx="11" ry="11" style="stroke:#181818;stroke-width:1.0;"/><path d="M105.8656,588.875 Q106.0219,588.6563 106.2094,588.5469 Q106.3969,588.4375 106.6156,588.4375 Q106.9906,588.4375 107.225,588.7031 Q107.4594,588.9531 107.4594,589.5625 L107.4594,591.0156 Q107.4594,591.625 107.225,591.8906 Q106.9906,592.1563 106.6156,592.1563 Q106.2719,592.1563 106.0688,591.9531 Q105.8656,591.7656 105.7563,591.25 Q105.7094,590.8906 105.5219,590.7031 Q105.1938,590.3281 104.5844,590.1094 Q103.975,589.8906 103.35,589.8906 Q102.5844,589.8906 101.9438,590.2188 Q101.3188,590.5469 100.8188,591.2969 Q100.3344,592.0469 100.3344,593.0781 L100.3344,594.1719 Q100.3344,595.4063 101.225,596.2344 Q102.1156,597.0469 103.7094,597.0469 Q104.6469,597.0469 105.3031,596.7969 Q105.6938,596.6406 106.1156,596.2031 Q106.3813,595.9375 106.5219,595.8594 Q106.6781,595.7813 106.8813,595.7813 Q107.2094,595.7813 107.4594,596.0469 Q107.725,596.2969 107.725,596.6406 Q107.725,596.9844 107.3813,597.3906 Q106.8813,597.9688 106.0844,598.2969 Q105.0063,598.75 103.7094,598.75 Q102.1938,598.75 100.9906,598.125 Q100.0063,597.625 99.3188,596.5625 Q98.6313,595.4844 98.6313,594.2031 L98.6313,593.0469 Q98.6313,591.7188 99.2406,590.5781 Q99.8656,589.4219 100.9594,588.8125 Q102.0531,588.1875 103.2875,588.1875 Q104.0219,588.1875 104.6625,588.3594 Q105.3188,588.5156 105.8656,588.875 Z " fill="#000000"/><text fill="#000000" font-family="sans-serif" font-size="14" lengthAdjust="spacing" textLength="28" x="118.9" y="598.7285">Test</text><line style="stroke:#181818;stroke-width:0.5;" x1="81" x2="157" y1="609" y2="609"/><text fill="#000000" font-family="sans-serif" font-size="14" lengthAdjust="spacing" textLength="66" x="86" y="627.5332">categories</text><line style="stroke:#181818;stroke-width:0.5;" x1="81" x2="157" y1="634.6094" y2="634.6094"/></g><!--MD5=[686fa95824735602dd15f07aadf69888]
class PendingReviewQuestions--><g id="elem_PendingReviewQuestions"><rect codeLine="20" fill="#F1F1F1" height="48" id="PendingReviewQuestions" rx="2.5" ry="2.5" style="stroke:#181818;stroke-width:0.5;" width="193" x="315.5" y="586"/><ellipse cx="330.5" cy="602" fill="#ADD1B2" rx="11" ry="11" style="stroke:#181818;stroke-width:1.0;"/><path d="M333.2656,597.875 Q333.4219,597.6563 333.6094,597.5469 Q333.7969,597.4375 334.0156,597.4375 Q334.3906,597.4375 334.625,597.7031 Q334.8594,597.9531 334.8594,598.5625 L334.8594,600.0156 Q334.8594,600.625 334.625,600.8906 Q334.3906,601.1563 334.0156,601.1563 Q333.6719,601.1563 333.4688,600.9531 Q333.2656,600.7656 333.1563,600.25 Q333.1094,599.8906 332.9219,599.7031 Q332.5938,599.3281 331.9844,599.1094 Q331.375,598.8906 330.75,598.8906 Q329.9844,598.8906 329.3438,599.2188 Q328.7188,599.5469 328.2188,600.2969 Q327.7344,601.0469 327.7344,602.0781 L327.7344,603.1719 Q327.7344,604.4063 328.625,605.2344 Q329.5156,606.0469 331.1094,606.0469 Q332.0469,606.0469 332.7031,605.7969 Q333.0938,605.6406 333.5156,605.2031 Q333.7813,604.9375 333.9219,604.8594 Q334.0781,604.7813 334.2813,604.7813 Q334.6094,604.7813 334.8594,605.0469 Q335.125,605.2969 335.125,605.6406 Q335.125,605.9844 334.7813,606.3906 Q334.2813,606.9688 333.4844,607.2969 Q332.4063,607.75 331.1094,607.75 Q329.5938,607.75 328.3906,607.125 Q327.4063,606.625 326.7188,605.5625 Q326.0313,604.4844 326.0313,603.2031 L326.0313,602.0469 Q326.0313,600.7188 326.6406,599.5781 Q327.2656,598.4219 328.3594,597.8125 Q329.4531,597.1875 330.6875,597.1875 Q331.4219,597.1875 332.0625,597.3594 Q332.7188,597.5156 333.2656,597.875 Z " fill="#000000"/><text fill="#000000" font-family="sans-serif" font-size="14" lengthAdjust="spacing" textLength="161" x="344.5" y="607.7285">PendingReviewQuestions</text><line style="stroke:#181818;stroke-width:0.5;" x1="316.5" x2="507.5" y1="618" y2="618"/><line style="stroke:#181818;stroke-width:0.5;" x1="316.5" x2="507.5" y1="626" y2="626"/></g><!--MD5=[cbddb90c6383c26762130850ded55635]
class ReviewedQuestions--><g id="elem_ReviewedQuestions"><rect codeLine="22" fill="#F1F1F1" height="48" id="ReviewedQuestions" rx="2.5" ry="2.5" style="stroke:#181818;stroke-width:0.5;" width="157" x="379.5" y="194"/><ellipse cx="394.5" cy="210" fill="#ADD1B2" rx="11" ry="11" style="stroke:#181818;stroke-width:1.0;"/><path d="M397.2656,205.875 Q397.4219,205.6563 397.6094,205.5469 Q397.7969,205.4375 398.0156,205.4375 Q398.3906,205.4375 398.625,205.7031 Q398.8594,205.9531 398.8594,206.5625 L398.8594,208.0156 Q398.8594,208.625 398.625,208.8906 Q398.3906,209.1563 398.0156,209.1563 Q397.6719,209.1563 397.4688,208.9531 Q397.2656,208.7656 397.1563,208.25 Q397.1094,207.8906 396.9219,207.7031 Q396.5938,207.3281 395.9844,207.1094 Q395.375,206.8906 394.75,206.8906 Q393.9844,206.8906 393.3438,207.2188 Q392.7188,207.5469 392.2188,208.2969 Q391.7344,209.0469 391.7344,210.0781 L391.7344,211.1719 Q391.7344,212.4063 392.625,213.2344 Q393.5156,214.0469 395.1094,214.0469 Q396.0469,214.0469 396.7031,213.7969 Q397.0938,213.6406 397.5156,213.2031 Q397.7813,212.9375 397.9219,212.8594 Q398.0781,212.7813 398.2813,212.7813 Q398.6094,212.7813 398.8594,213.0469 Q399.125,213.2969 399.125,213.6406 Q399.125,213.9844 398.7813,214.3906 Q398.2813,214.9688 397.4844,215.2969 Q396.4063,215.75 395.1094,215.75 Q393.5938,215.75 392.3906,215.125 Q391.4063,214.625 390.7188,213.5625 Q390.0313,212.4844 390.0313,211.2031 L390.0313,210.0469 Q390.0313,208.7188 390.6406,207.5781 Q391.2656,206.4219 392.3594,205.8125 Q393.4531,205.1875 394.6875,205.1875 Q395.4219,205.1875 396.0625,205.3594 Q396.7188,205.5156 397.2656,205.875 Z " fill="#000000"/><text fill="#000000" font-family="sans-serif" font-size="14" lengthAdjust="spacing" textLength="125" x="408.5" y="215.7285">ReviewedQuestions</text><line style="stroke:#181818;stroke-width:0.5;" x1="380.5" x2="535.5" y1="226" y2="226"/><line style="stroke:#181818;stroke-width:0.5;" x1="380.5" x2="535.5" y1="234" y2="234"/></g><!--MD5=[9d451b2f92d848a8e2d1a4dab2b1c6bf]
class Concept--><g id="elem_Concept"><rect codeLine="24" fill="#F1F1F1" height="118.4375" id="Concept" rx="2.5" ry="2.5" style="stroke:#181818;stroke-width:0.5;" width="98" x="198" y="381"/><ellipse cx="218.85" cy="397" fill="#ADD1B2" rx="11" ry="11" style="stroke:#181818;stroke-width:1.0;"/><path d="M221.6156,392.875 Q221.7719,392.6563 221.9594,392.5469 Q222.1469,392.4375 222.3656,392.4375 Q222.7406,392.4375 222.975,392.7031 Q223.2094,392.9531 223.2094,393.5625 L223.2094,395.0156 Q223.2094,395.625 222.975,395.8906 Q222.7406,396.1563 222.3656,396.1563 Q222.0219,396.1563 221.8188,395.9531 Q221.6156,395.7656 221.5063,395.25 Q221.4594,394.8906 221.2719,394.7031 Q220.9438,394.3281 220.3344,394.1094 Q219.725,393.8906 219.1,393.8906 Q218.3344,393.8906 217.6938,394.2188 Q217.0688,394.5469 216.5688,395.2969 Q216.0844,396.0469 216.0844,397.0781 L216.0844,398.1719 Q216.0844,399.4063 216.975,400.2344 Q217.8656,401.0469 219.4594,401.0469 Q220.3969,401.0469 221.0531,400.7969 Q221.4438,400.6406 221.8656,400.2031 Q222.1313,399.9375 222.2719,399.8594 Q222.4281,399.7813 222.6313,399.7813 Q222.9594,399.7813 223.2094,400.0469 Q223.475,400.2969 223.475,400.6406 Q223.475,400.9844 223.1313,401.3906 Q222.6313,401.9688 221.8344,402.2969 Q220.7563,402.75 219.4594,402.75 Q217.9438,402.75 216.7406,402.125 Q215.7563,401.625 215.0688,400.5625 Q214.3813,399.4844 214.3813,398.2031 L214.3813,397.0469 Q214.3813,395.7188 214.9906,394.5781 Q215.6156,393.4219 216.7094,392.8125 Q217.8031,392.1875 219.0375,392.1875 Q219.7719,392.1875 220.4125,392.3594 Q221.0688,392.5156 221.6156,392.875 Z " fill="#000000"/><text fill="#000000" font-family="sans-serif" font-size="14" lengthAdjust="spacing" textLength="53" x="234.15" y="402.7285">Concept</text><line style="stroke:#181818;stroke-width:0.5;" x1="199" x2="295" y1="413" y2="413"/><text fill="#000000" font-family="sans-serif" font-size="14" lengthAdjust="spacing" textLength="52" x="204" y="431.5332">keyword</text><text fill="#000000" font-family="sans-serif" font-size="14" lengthAdjust="spacing" textLength="57" x="204" y="449.1426">definition</text><text fill="#000000" font-family="sans-serif" font-size="14" lengthAdjust="spacing" textLength="86" x="204" y="466.752">fakeDefinition</text><text fill="#000000" font-family="sans-serif" font-size="14" lengthAdjust="spacing" textLength="12" x="204" y="484.3613">...</text><line style="stroke:#181818;stroke-width:0.5;" x1="199" x2="295" y1="491.4375" y2="491.4375"/></g><!--MD5=[377953f0e8c8c0131a700fca43c84158]
class Strategy--><g id="elem_Strategy"><rect codeLine="31" fill="#F1F1F1" height="65.6094" id="Strategy" rx="2.5" ry="2.5" style="stroke:#181818;stroke-width:0.5;" width="85" x="195.5" y="577"/><ellipse cx="210.5" cy="593" fill="#ADD1B2" rx="11" ry="11" style="stroke:#181818;stroke-width:1.0;"/><path d="M213.2656,588.875 Q213.4219,588.6563 213.6094,588.5469 Q213.7969,588.4375 214.0156,588.4375 Q214.3906,588.4375 214.625,588.7031 Q214.8594,588.9531 214.8594,589.5625 L214.8594,591.0156 Q214.8594,591.625 214.625,591.8906 Q214.3906,592.1563 214.0156,592.1563 Q213.6719,592.1563 213.4688,591.9531 Q213.2656,591.7656 213.1563,591.25 Q213.1094,590.8906 212.9219,590.7031 Q212.5938,590.3281 211.9844,590.1094 Q211.375,589.8906 210.75,589.8906 Q209.9844,589.8906 209.3438,590.2188 Q208.7188,590.5469 208.2188,591.2969 Q207.7344,592.0469 207.7344,593.0781 L207.7344,594.1719 Q207.7344,595.4063 208.625,596.2344 Q209.5156,597.0469 211.1094,597.0469 Q212.0469,597.0469 212.7031,596.7969 Q213.0938,596.6406 213.5156,596.2031 Q213.7813,595.9375 213.9219,595.8594 Q214.0781,595.7813 214.2813,595.7813 Q214.6094,595.7813 214.8594,596.0469 Q215.125,596.2969 215.125,596.6406 Q215.125,596.9844 214.7813,597.3906 Q214.2813,597.9688 213.4844,598.2969 Q212.4063,598.75 211.1094,598.75 Q209.5938,598.75 208.3906,598.125 Q207.4063,597.625 206.7188,596.5625 Q206.0313,595.4844 206.0313,594.2031 L206.0313,593.0469 Q206.0313,591.7188 206.6406,590.5781 Q207.2656,589.4219 208.3594,588.8125 Q209.4531,588.1875 210.6875,588.1875 Q211.4219,588.1875 212.0625,588.3594 Q212.7188,588.5156 213.2656,588.875 Z " fill="#000000"/><text fill="#000000" font-family="sans-serif" font-size="14" lengthAdjust="spacing" textLength="53" x="224.5" y="598.7285">Strategy</text><line style="stroke:#181818;stroke-width:0.5;" x1="196.5" x2="279.5" y1="609" y2="609"/><text fill="#000000" font-family="sans-serif" font-size="14" lengthAdjust="spacing" textLength="54" x="201.5" y="627.5332">template</text><line style="stroke:#181818;stroke-width:0.5;" x1="196.5" x2="279.5" y1="634.6094" y2="634.6094"/></g><!--MD5=[fc7123defb831ecdd44b2d9bcef6cceb]
class Question--><g id="elem_Question"><rect codeLine="35" fill="#F1F1F1" height="118.4375" id="Question" rx="2.5" ry="2.5" style="stroke:#181818;stroke-width:0.5;" width="89" x="193.5" y="704"/><ellipse cx="208.5" cy="720" fill="#ADD1B2" rx="11" ry="11" style="stroke:#181818;stroke-width:1.0;"/><path d="M211.2656,715.875 Q211.4219,715.6563 211.6094,715.5469 Q211.7969,715.4375 212.0156,715.4375 Q212.3906,715.4375 212.625,715.7031 Q212.8594,715.9531 212.8594,716.5625 L212.8594,718.0156 Q212.8594,718.625 212.625,718.8906 Q212.3906,719.1563 212.0156,719.1563 Q211.6719,719.1563 211.4688,718.9531 Q211.2656,718.7656 211.1563,718.25 Q211.1094,717.8906 210.9219,717.7031 Q210.5938,717.3281 209.9844,717.1094 Q209.375,716.8906 208.75,716.8906 Q207.9844,716.8906 207.3438,717.2188 Q206.7188,717.5469 206.2188,718.2969 Q205.7344,719.0469 205.7344,720.0781 L205.7344,721.1719 Q205.7344,722.4063 206.625,723.2344 Q207.5156,724.0469 209.1094,724.0469 Q210.0469,724.0469 210.7031,723.7969 Q211.0938,723.6406 211.5156,723.2031 Q211.7813,722.9375 211.9219,722.8594 Q212.0781,722.7813 212.2813,722.7813 Q212.6094,722.7813 212.8594,723.0469 Q213.125,723.2969 213.125,723.6406 Q213.125,723.9844 212.7813,724.3906 Q212.2813,724.9688 211.4844,725.2969 Q210.4063,725.75 209.1094,725.75 Q207.5938,725.75 206.3906,725.125 Q205.4063,724.625 204.7188,723.5625 Q204.0313,722.4844 204.0313,721.2031 L204.0313,720.0469 Q204.0313,718.7188 204.6406,717.5781 Q205.2656,716.4219 206.3594,715.8125 Q207.4531,715.1875 208.6875,715.1875 Q209.4219,715.1875 210.0625,715.3594 Q210.7188,715.5156 211.2656,715.875 Z " fill="#000000"/><text fill="#000000" font-family="sans-serif" font-size="14" lengthAdjust="spacing" textLength="57" x="222.5" y="725.7285">Question</text><line style="stroke:#181818;stroke-width:0.5;" x1="194.5" x2="281.5" y1="736" y2="736"/><text fill="#000000" font-family="sans-serif" font-size="14" lengthAdjust="spacing" textLength="28" x="199.5" y="754.5332">date</text><text fill="#000000" font-family="sans-serif" font-size="14" lengthAdjust="spacing" textLength="71" x="199.5" y="772.1426">isReviewed</text><text fill="#000000" font-family="sans-serif" font-size="14" lengthAdjust="spacing" textLength="48" x="199.5" y="789.752">isPublic</text><text fill="#000000" font-family="sans-serif" font-size="14" lengthAdjust="spacing" textLength="12" x="199.5" y="807.3613">...</text><line style="stroke:#181818;stroke-width:0.5;" x1="194.5" x2="281.5" y1="814.4375" y2="814.4375"/></g><!--MD5=[a61a298976b7d1d94498f45c2ebfa10b]
class Statement--><g id="elem_Statement"><rect codeLine="42" fill="#F1F1F1" height="48" id="Statement" rx="2.5" ry="2.5" style="stroke:#181818;stroke-width:0.5;" width="96" x="150" y="883"/><ellipse cx="165" cy="899" fill="#ADD1B2" rx="11" ry="11" style="stroke:#181818;stroke-width:1.0;"/><path d="M167.7656,894.875 Q167.9219,894.6563 168.1094,894.5469 Q168.2969,894.4375 168.5156,894.4375 Q168.8906,894.4375 169.125,894.7031 Q169.3594,894.9531 169.3594,895.5625 L169.3594,897.0156 Q169.3594,897.625 169.125,897.8906 Q168.8906,898.1563 168.5156,898.1563 Q168.1719,898.1563 167.9688,897.9531 Q167.7656,897.7656 167.6563,897.25 Q167.6094,896.8906 167.4219,896.7031 Q167.0938,896.3281 166.4844,896.1094 Q165.875,895.8906 165.25,895.8906 Q164.4844,895.8906 163.8438,896.2188 Q163.2188,896.5469 162.7188,897.2969 Q162.2344,898.0469 162.2344,899.0781 L162.2344,900.1719 Q162.2344,901.4063 163.125,902.2344 Q164.0156,903.0469 165.6094,903.0469 Q166.5469,903.0469 167.2031,902.7969 Q167.5938,902.6406 168.0156,902.2031 Q168.2813,901.9375 168.4219,901.8594 Q168.5781,901.7813 168.7813,901.7813 Q169.1094,901.7813 169.3594,902.0469 Q169.625,902.2969 169.625,902.6406 Q169.625,902.9844 169.2813,903.3906 Q168.7813,903.9688 167.9844,904.2969 Q166.9063,904.75 165.6094,904.75 Q164.0938,904.75 162.8906,904.125 Q161.9063,903.625 161.2188,902.5625 Q160.5313,901.4844 160.5313,900.2031 L160.5313,899.0469 Q160.5313,897.7188 161.1406,896.5781 Q161.7656,895.4219 162.8594,894.8125 Q163.9531,894.1875 165.1875,894.1875 Q165.9219,894.1875 166.5625,894.3594 Q167.2188,894.5156 167.7656,894.875 Z " fill="#000000"/><text fill="#000000" font-family="sans-serif" font-size="14" lengthAdjust="spacing" textLength="64" x="179" y="904.7285">Statement</text><line style="stroke:#181818;stroke-width:0.5;" x1="151" x2="245" y1="915" y2="915"/><line style="stroke:#181818;stroke-width:0.5;" x1="151" x2="245" y1="923" y2="923"/></g><!--MD5=[f9fadfa5a66b7e5a67b370cd443ffe52]
class Answer--><g id="elem_Answer"><rect codeLine="44" fill="#F1F1F1" height="48" id="Answer" rx="2.5" ry="2.5" style="stroke:#181818;stroke-width:0.5;" width="78" x="320" y="739"/><ellipse cx="335" cy="755" fill="#ADD1B2" rx="11" ry="11" style="stroke:#181818;stroke-width:1.0;"/><path d="M337.7656,750.875 Q337.9219,750.6563 338.1094,750.5469 Q338.2969,750.4375 338.5156,750.4375 Q338.8906,750.4375 339.125,750.7031 Q339.3594,750.9531 339.3594,751.5625 L339.3594,753.0156 Q339.3594,753.625 339.125,753.8906 Q338.8906,754.1563 338.5156,754.1563 Q338.1719,754.1563 337.9688,753.9531 Q337.7656,753.7656 337.6563,753.25 Q337.6094,752.8906 337.4219,752.7031 Q337.0938,752.3281 336.4844,752.1094 Q335.875,751.8906 335.25,751.8906 Q334.4844,751.8906 333.8438,752.2188 Q333.2188,752.5469 332.7188,753.2969 Q332.2344,754.0469 332.2344,755.0781 L332.2344,756.1719 Q332.2344,757.4063 333.125,758.2344 Q334.0156,759.0469 335.6094,759.0469 Q336.5469,759.0469 337.2031,758.7969 Q337.5938,758.6406 338.0156,758.2031 Q338.2813,757.9375 338.4219,757.8594 Q338.5781,757.7813 338.7813,757.7813 Q339.1094,757.7813 339.3594,758.0469 Q339.625,758.2969 339.625,758.6406 Q339.625,758.9844 339.2813,759.3906 Q338.7813,759.9688 337.9844,760.2969 Q336.9063,760.75 335.6094,760.75 Q334.0938,760.75 332.8906,760.125 Q331.9063,759.625 331.2188,758.5625 Q330.5313,757.4844 330.5313,756.2031 L330.5313,755.0469 Q330.5313,753.7188 331.1406,752.5781 Q331.7656,751.4219 332.8594,750.8125 Q333.9531,750.1875 335.1875,750.1875 Q335.9219,750.1875 336.5625,750.3594 Q337.2188,750.5156 337.7656,750.875 Z " fill="#000000"/><text fill="#000000" font-family="sans-serif" font-size="14" lengthAdjust="spacing" textLength="46" x="349" y="760.7285">Answer</text><line style="stroke:#181818;stroke-width:0.5;" x1="321" x2="397" y1="771" y2="771"/><line style="stroke:#181818;stroke-width:0.5;" x1="321" x2="397" y1="779" y2="779"/></g><!--MD5=[bc629657279eaa9349f412646650f2c5]
class Correct--><g id="elem_Correct"><rect codeLine="46" fill="#F1F1F1" height="48" id="Correct" rx="2.5" ry="2.5" style="stroke:#181818;stroke-width:0.5;" width="79" x="281.5" y="883"/><ellipse cx="296.5" cy="899" fill="#ADD1B2" rx="11" ry="11" style="stroke:#181818;stroke-width:1.0;"/><path d="M299.2656,894.875 Q299.4219,894.6563 299.6094,894.5469 Q299.7969,894.4375 300.0156,894.4375 Q300.3906,894.4375 300.625,894.7031 Q300.8594,894.9531 300.8594,895.5625 L300.8594,897.0156 Q300.8594,897.625 300.625,897.8906 Q300.3906,898.1563 300.0156,898.1563 Q299.6719,898.1563 299.4688,897.9531 Q299.2656,897.7656 299.1563,897.25 Q299.1094,896.8906 298.9219,896.7031 Q298.5938,896.3281 297.9844,896.1094 Q297.375,895.8906 296.75,895.8906 Q295.9844,895.8906 295.3438,896.2188 Q294.7188,896.5469 294.2188,897.2969 Q293.7344,898.0469 293.7344,899.0781 L293.7344,900.1719 Q293.7344,901.4063 294.625,902.2344 Q295.5156,903.0469 297.1094,903.0469 Q298.0469,903.0469 298.7031,902.7969 Q299.0938,902.6406 299.5156,902.2031 Q299.7813,901.9375 299.9219,901.8594 Q300.0781,901.7813 300.2813,901.7813 Q300.6094,901.7813 300.8594,902.0469 Q301.125,902.2969 301.125,902.6406 Q301.125,902.9844 300.7813,903.3906 Q300.2813,903.9688 299.4844,904.2969 Q298.4063,904.75 297.1094,904.75 Q295.5938,904.75 294.3906,904.125 Q293.4063,903.625 292.7188,902.5625 Q292.0313,901.4844 292.0313,900.2031 L292.0313,899.0469 Q292.0313,897.7188 292.6406,896.5781 Q293.2656,895.4219 294.3594,894.8125 Q295.4531,894.1875 296.6875,894.1875 Q297.4219,894.1875 298.0625,894.3594 Q298.7188,894.5156 299.2656,894.875 Z " fill="#000000"/><text fill="#000000" font-family="sans-serif" font-size="14" lengthAdjust="spacing" textLength="47" x="310.5" y="904.7285">Correct</text><line style="stroke:#181818;stroke-width:0.5;" x1="282.5" x2="359.5" y1="915" y2="915"/><line style="stroke:#181818;stroke-width:0.5;" x1="282.5" x2="359.5" y1="923" y2="923"/></g><!--MD5=[37923dc032bbfca87d4413e584fa2cda]
class Incorrect--><g id="elem_Incorrect"><rect codeLine="48" fill="#F1F1F1" height="48" id="Incorrect" rx="2.5" ry="2.5" style="stroke:#181818;stroke-width:0.5;" width="87" x="395.5" y="883"/><ellipse cx="410.5" cy="899" fill="#ADD1B2" rx="11" ry="11" style="stroke:#181818;stroke-width:1.0;"/><path d="M413.2656,894.875 Q413.4219,894.6563 413.6094,894.5469 Q413.7969,894.4375 414.0156,894.4375 Q414.3906,894.4375 414.625,894.7031 Q414.8594,894.9531 414.8594,895.5625 L414.8594,897.0156 Q414.8594,897.625 414.625,897.8906 Q414.3906,898.1563 414.0156,898.1563 Q413.6719,898.1563 413.4688,897.9531 Q413.2656,897.7656 413.1563,897.25 Q413.1094,896.8906 412.9219,896.7031 Q412.5938,896.3281 411.9844,896.1094 Q411.375,895.8906 410.75,895.8906 Q409.9844,895.8906 409.3438,896.2188 Q408.7188,896.5469 408.2188,897.2969 Q407.7344,898.0469 407.7344,899.0781 L407.7344,900.1719 Q407.7344,901.4063 408.625,902.2344 Q409.5156,903.0469 411.1094,903.0469 Q412.0469,903.0469 412.7031,902.7969 Q413.0938,902.6406 413.5156,902.2031 Q413.7813,901.9375 413.9219,901.8594 Q414.0781,901.7813 414.2813,901.7813 Q414.6094,901.7813 414.8594,902.0469 Q415.125,902.2969 415.125,902.6406 Q415.125,902.9844 414.7813,903.3906 Q414.2813,903.9688 413.4844,904.2969 Q412.4063,904.75 411.1094,904.75 Q409.5938,904.75 408.3906,904.125 Q407.4063,903.625 406.7188,902.5625 Q406.0313,901.4844 406.0313,900.2031 L406.0313,899.0469 Q406.0313,897.7188 406.6406,896.5781 Q407.2656,895.4219 408.3594,894.8125 Q409.4531,894.1875 410.6875,894.1875 Q411.4219,894.1875 412.0625,894.3594 Q412.7188,894.5156 413.2656,894.875 Z " fill="#000000"/><text fill="#000000" font-family="sans-serif" font-size="14" lengthAdjust="spacing" textLength="55" x="424.5" y="904.7285">Incorrect</text><line style="stroke:#181818;stroke-width:0.5;" x1="396.5" x2="481.5" y1="915" y2="915"/><line style="stroke:#181818;stroke-width:0.5;" x1="396.5" x2="481.5" y1="923" y2="923"/></g><!--MD5=[12743b4aa7b2bf3d8e383437eb99df68]
link Community to User--><g id="link_Community_User"><path codeLine="50" d="M328.7647,66.0514 C328.7647,66.0514 316.36,92.08 310.79,103.78 " fill="none" id="Community-User" style="stroke:#181818;stroke-width:1.0;"/><polygon fill="#181818" points="305.04,115.83,312.5181,109.4208,307.1877,111.3148,305.2938,105.9844,305.04,115.83" style="stroke:#181818;stroke-width:1.0;"/><line style="stroke:#181818;stroke-width:1.0;" x1="307.1877" x2="310.64" y1="111.3148" y2="104.095"/><polygon fill="#181818" points="333.93,55.22,327.7369,58.9139,328.7647,66.0514,334.9578,62.3575,333.93,55.22" style="stroke:#181818;stroke-width:1.0;"/><text fill="#000000" font-family="sans-serif" font-size="13" lengthAdjust="spacing" textLength="20" x="285.3065" y="105.1266">1..*</text></g><!--MD5=[d52df4b853bdc5342fb2d805f548bc5a]
link Community to ReviewedQuestions--><g id="link_Community_ReviewedQuestions"><path codeLine="51" d="M365.3353,65.3007 C365.3353,65.3007 416.69,149.36 436.95,182.54 " fill="none" id="Community-ReviewedQuestions" style="stroke:#181818;stroke-width:1.0;"/><polygon fill="#181818" points="443.92,193.94,442.6421,184.1744,441.3136,189.673,435.815,188.3446,443.92,193.94" style="stroke:#181818;stroke-width:1.0;"/><line style="stroke:#181818;stroke-width:1.0;" x1="441.3136" x2="437.14" y1="189.673" y2="182.85"/><polygon fill="#181818" points="359.08,55.06,358.7941,62.2654,365.3353,65.3007,365.6212,58.0953,359.08,55.06" style="stroke:#181818;stroke-width:1.0;"/></g><!--MD5=[7016372388c7ac2652db8515880aaa11]
reverse link User to Editor--><g id="link_User_Editor"><path codeLine="54" d="M294,184.37 C294,212.74 294,248.71 294,271.79 " fill="none" id="User-backto-Editor" style="stroke:#181818;stroke-width:1.0;"/><polygon fill="none" points="287,184.06,294,164.06,301,184.06,287,184.06" style="stroke:#181818;stroke-width:1.0;"/></g><!--MD5=[60e4945ab784e9eaf709bb3168dd25a4]
reverse link Editor to Reviewer--><g id="link_Editor_Reviewer"><path codeLine="55" d="M317.46,337.62 C332.11,362.99 350.44,394.74 362.65,415.88 " fill="none" id="Editor-backto-Reviewer" style="stroke:#181818;stroke-width:1.0;"/><polygon fill="none" points="311.3,340.95,307.36,320.13,323.42,333.95,311.3,340.95" style="stroke:#181818;stroke-width:1.0;"/></g><!--MD5=[d8a655080454bab67f6091cbff4cee86]
reverse link User to Executor--><g id="link_User_Executor"><path codeLine="56" d="M263.94,180.23 C241.77,209.17 212.34,247.57 193.79,271.79 " fill="none" id="User-backto-Executor" style="stroke:#181818;stroke-width:1.0;"/><polygon fill="none" points="258.61,175.67,276.33,164.06,269.73,184.19,258.61,175.67" style="stroke:#181818;stroke-width:1.0;"/></g><!--MD5=[12c2d56d27338edb90331faec7f87d5c]
link PendingReviewQuestions to Question--><g id="link_PendingReviewQuestions_Question"><path codeLine="58" d="M374.99,641.7426 C374.99,641.7426 325.77,683.19 302,704 C298.84,706.77 295.61,709.62 292.35,712.51 " fill="none" id="PendingReviewQuestions-Question" style="stroke:#181818;stroke-width:1.0;"/><polygon fill="#181818" points="282.58,721.24,291.9559,718.2247,286.3079,717.908,286.6246,712.26,282.58,721.24" style="stroke:#181818;stroke-width:1.0;"/><line style="stroke:#181818;stroke-width:1.0;" x1="286.3079" x2="292.28" y1="717.908" y2="712.58"/><polygon fill="#181818" points="384.2,634.05,377.0308,634.8263,374.99,641.7426,382.1592,640.9663,384.2,634.05" style="stroke:#181818;stroke-width:1.0;"/></g><!--MD5=[0bcbc359f19ed69453d76421891bdbfe]
link ReviewedQuestions to PendingReviewQuestions--><g id="link_ReviewedQuestions_PendingReviewQuestions"><path codeLine="59" d="M462.7235,254.1953 C462.7235,254.1953 478.71,444.74 449,547 C446.24,556.52 441.65,566.07 436.63,574.73 " fill="none" id="ReviewedQuestions-PendingReviewQuestions" style="stroke:#181818;stroke-width:1.0;"/><polygon fill="#181818" points="429.65,585.89,437.8094,580.3742,432.298,581.6488,431.0235,576.1374,429.65,585.89" style="stroke:#181818;stroke-width:1.0;"/><line style="stroke:#181818;stroke-width:1.0;" x1="432.298" x2="436.54" y1="581.6488" y2="574.87"/><polygon fill="#181818" points="461.3,242.28,458.04,248.7121,462.7235,254.1953,465.9835,247.7631,461.3,242.28" style="stroke:#181818;stroke-width:1.0;"/></g><!--MD5=[3e23c87a985df3c2da55c80a43bfcd45]
link Executor to Evaluation--><g id="link_Executor_Evaluation"><path codeLine="61" d="M165.9,320.13 C155.05,344.99 137.79,384.5 126.19,411.07 " fill="none" id="Executor-to-Evaluation" style="stroke:#181818;stroke-width:1.0;"/><polygon fill="#181818" points="124.1,415.88,131.3644,409.2295,126.0988,411.2969,124.0315,406.0314,124.1,415.88" style="stroke:#181818;stroke-width:1.0;"/><text fill="#000000" font-family="sans-serif" font-size="13" lengthAdjust="spacing" textLength="20" x="104.1256" y="405.1894">0..*</text></g><!--MD5=[7ea0c49f743e358ac875b85df2ad47d3]
link Evaluation to Test--><g id="link_Evaluation_Test"><path codeLine="62" d="M114.68,464.01 C115.51,491.73 116.91,538.68 117.89,571.63 " fill="none" id="Evaluation-to-Test" style="stroke:#181818;stroke-width:1.0;"/><polygon fill="#181818" points="118.04,576.79,121.7553,567.6688,117.8829,571.7925,113.7593,567.9201,118.04,576.79" style="stroke:#181818;stroke-width:1.0;"/></g><!--MD5=[dbcaedebb070bbdd4f1f81456a517a7e]
link Editor to Concept--><g id="link_Editor_Concept"><path codeLine="64" d="M286.34,320.13 C281.29,335.41 274.4,356.22 267.8,376.17 " fill="none" id="Editor-to-Concept" style="stroke:#181818;stroke-width:1.0;stroke-dasharray:7.0,7.0;"/><polygon fill="#181818" points="266.22,380.94,272.8476,373.6548,267.7926,376.1937,265.2536,371.1387,266.22,380.94" style="stroke:#181818;stroke-width:1.0;"/></g><!--MD5=[daee3ad66e1a6c049a66c1881482d57c]
reverse link Concept to Strategy--><g id="link_Concept_Strategy"><path codeLine="65" d="M243.6,504.5 C242.28,529.15 240.82,556.3 239.73,576.75 " fill="none" id="Concept-backto-Strategy" style="stroke:#181818;stroke-width:1.0;stroke-dasharray:7.0,7.0;"/><polygon fill="#181818" points="243.88,499.29,239.423,508.0727,243.6232,504.2834,247.4125,508.4836,243.88,499.29" style="stroke:#181818;stroke-width:1.0;"/></g><!--MD5=[14f9c4268ca272d347b75106876f2c10]
link Strategy to Question--><g id="link_Strategy_Question"><path codeLine="66" d="M238,643.02 C238,659.17 238,679.33 238,698.45 " fill="none" id="Strategy-to-Question" style="stroke:#181818;stroke-width:1.0;"/><polygon fill="#181818" points="238,703.81,242,694.81,238,698.81,234,694.81,238,703.81" style="stroke:#181818;stroke-width:1.0;"/></g><!--MD5=[796801260e32b64433c17f058a688d43]
link Reviewer to PendingReviewQuestions--><g id="link_Reviewer_PendingReviewQuestions"><path codeLine="67" d="M380.93,464.01 C387.44,494.37 398.89,547.82 405.92,580.65 " fill="none" id="Reviewer-to-PendingReviewQuestions" style="stroke:#181818;stroke-width:1.0;stroke-dasharray:7.0,7.0;"/><polygon fill="#181818" points="407.01,585.73,409.0489,576.0945,405.9692,580.8395,401.2241,577.7598,407.01,585.73" style="stroke:#181818;stroke-width:1.0;"/><text fill="#000000" font-family="sans-serif" font-size="13" lengthAdjust="spacing" textLength="40" x="400" y="543.4951">Review</text></g><!--MD5=[bb3d97f09542411db1527b071cca8268]
link Test to Question--><g id="link_Test_Question"><path codeLine="69" d="M151.6638,652.448 C151.6638,652.448 174.01,680.8 185.01,694.76 " fill="none" id="Test-Question" style="stroke:#181818;stroke-width:1.0;"/><polygon fill="#181818" points="193.33,705.32,190.9049,695.7744,190.2368,701.3917,184.6195,700.7236,193.33,705.32" style="stroke:#181818;stroke-width:1.0;"/><line style="stroke:#181818;stroke-width:1.0;" x1="190.2368" x2="185.285" y1="701.3917" y2="695.115"/><polygon fill="#181818" points="144.24,643.02,144.8092,650.2086,151.6638,652.448,151.0946,645.2594,144.24,643.02" style="stroke:#181818;stroke-width:1.0;"/><text fill="#000000" font-family="sans-serif" font-size="13" lengthAdjust="spacing" textLength="27" x="158.5134" y="693.9836">10..*</text></g><!--MD5=[6eeca14f8a2ed45d1117f4ed4af75b7e]
link Question to Statement--><g id="link_Question_Statement"><path codeLine="70" d="M218.3756,833.7231 C218.3756,833.7231 211.18,859.23 208.13,870.02 " fill="none" id="Question-Statement" style="stroke:#181818;stroke-width:1.0;"/><polygon fill="#181818" points="204.53,882.82,210.8223,875.2433,205.8869,878.0076,203.1225,873.0722,204.53,882.82" style="stroke:#181818;stroke-width:1.0;"/><line style="stroke:#181818;stroke-width:1.0;" x1="205.8869" x2="208.06" y1="878.0076" y2="870.305"/><polygon fill="#181818" points="221.62,822.17,216.1468,826.8651,218.3756,833.7231,223.8489,829.028,221.62,822.17" style="stroke:#181818;stroke-width:1.0;"/></g><!--MD5=[bcbd408316bb9144f3569d3bcde56d28]
link Question to Incorrect--><g id="link_Question_Incorrect"><path codeLine="71" d="M291.77,813.9726 C291.77,813.9726 298.86,819.65 302,822 C328.33,841.73 359.48,861.11 385.41,876.28 " fill="none" id="Question-Incorrect" style="stroke:#181818;stroke-width:1.0;"/><polygon fill="#181818" points="396.93,882.93,391.1405,874.9624,392.6014,880.4274,387.1364,881.8883,396.93,882.93" style="stroke:#181818;stroke-width:1.0;"/><line style="stroke:#181818;stroke-width:1.0;" x1="392.6014" x2="385.675" y1="880.4274" y2="876.425"/><polygon fill="#181818" points="282.56,806.28,284.6008,813.1963,291.77,813.9726,289.7292,807.0563,282.56,806.28" style="stroke:#181818;stroke-width:1.0;"/><text fill="#000000" font-family="sans-serif" font-size="13" lengthAdjust="spacing" textLength="7" x="380.5312" y="873.8469">3</text></g><!--MD5=[fad82a5e9ec53f6abc538956bca6f09b]
link Question to Correct--><g id="link_Question_Correct"><path codeLine="72" d="M268.7913,833.0952 C268.7913,833.0952 276.32,846.99 280,853 C283.91,859.39 288.45,865.91 293.05,872.1 " fill="none" id="Question-Correct" style="stroke:#181818;stroke-width:1.0;"/><polygon fill="#181818" points="301.28,882.78,298.9599,873.2083,298.2301,878.8179,292.6205,878.0881,301.28,882.78" style="stroke:#181818;stroke-width:1.0;"/><line style="stroke:#181818;stroke-width:1.0;" x1="298.2301" x2="293.345" y1="878.8179" y2="872.485"/><polygon fill="#181818" points="263.33,822.41,262.4989,829.5731,268.7913,833.0952,269.6224,825.9322,263.33,822.41" style="stroke:#181818;stroke-width:1.0;"/></g><!--MD5=[b1491d38e87214202fddacec717a9c8d]
reverse link Answer to Correct--><g id="link_Answer_Correct"><path codeLine="73" d="M347.63,806.49 C340.93,831.53 332.71,862.25 327.19,882.88 " fill="none" id="Answer-backto-Correct" style="stroke:#181818;stroke-width:1.0;"/><polygon fill="none" points="340.88,804.64,352.81,787.13,354.4,808.26,340.88,804.64" style="stroke:#181818;stroke-width:1.0;"/></g><!--MD5=[a6181c8180a1587156cddad319d63c9e]
reverse link Answer to Incorrect--><g id="link_Answer_Incorrect"><path codeLine="74" d="M381.88,804.62 C396.18,829.99 414.06,861.74 425.97,882.88 " fill="none" id="Answer-backto-Incorrect" style="stroke:#181818;stroke-width:1.0;"/><polygon fill="none" points="375.75,807.99,372.03,787.13,387.95,801.12,375.75,807.99" style="stroke:#181818;stroke-width:1.0;"/></g><!--MD5=[98df2f76ab45609c36aa45d6b9c3faee]
link Question to Category--><g id="link_Question_Category"><path codeLine="76" d="M183.9136,805.294 C183.9136,805.294 119.19,854.71 92.68,874.94 " fill="none" id="Question-Category" style="stroke:#181818;stroke-width:1.0;"/><polygon fill="#181818" points="82.25,882.91,91.8323,880.6341,86.2261,879.8785,86.9818,874.2723,82.25,882.91" style="stroke:#181818;stroke-width:1.0;"/><line style="stroke:#181818;stroke-width:1.0;" x1="86.2261" x2="92.58" y1="879.8785" y2="875.02"/><polygon fill="#181818" points="193.45,798.01,186.2538,798.4732,183.9136,805.294,191.1098,804.8308,193.45,798.01" style="stroke:#181818;stroke-width:1.0;"/></g><!--MD5=[a5725b0440277e7b298212d4ab098951]
link Category to Category--><g id="link_Category_Category"><path codeLine="77" d="M109.2281,897.1712 C109.2281,897.1712 132,901.46 132,907 C132,912.54 123.03,915.8 110.6,916.8 " fill="none" id="Category-Category" style="stroke:#181818;stroke-width:1.0;"/><polygon fill="#181818" points="97.23,917.04,106.299,920.881,102.2292,916.952,106.1582,912.8822,97.23,917.04" style="stroke:#181818;stroke-width:1.0;"/><line style="stroke:#181818;stroke-width:1.0;" x1="102.2292" x2="110.23" y1="916.952" y2="916.805"/><polygon fill="#181818" points="97.23,896.96,103.1587,901.065,109.2281,897.1712,103.2995,893.0662,97.23,896.96" style="stroke:#181818;stroke-width:1.0;"/><text fill="#000000" font-family="sans-serif" font-size="13" lengthAdjust="spacing" textLength="20" x="104.9967" y="914.8467">0..*</text></g><!--MD5=[81659012dccc3c6fb425c2aa388e7869]
@startuml OpoTestDomain

class Community

class User

class Reviewer

class Editor 

class Executor

class Evaluation

class Category 

class Test {
    categories
}

class PendingReviewQuestions

class ReviewedQuestions

class Concept {
    keyword
    definition
    fakeDefinition
    ...
}

class Strategy {
    template
}

class Question {
    date
    isReviewed
    isPublic
    ...
}

class Statement

class Answer 

class Correct

Class Incorrect

Community *- -> "1..*" User
Community *- -> ReviewedQuestions


User <|- - Editor
Editor <|- -  Reviewer
User <|- - Executor

PendingReviewQuestions *- -> Question
ReviewedQuestions *- -> PendingReviewQuestions

Executor - -> "0..*" Evaluation
Evaluation - -> Test

Editor ..> Concept
Concept <.. Strategy
Strategy - -> Question
Reviewer ..> PendingReviewQuestions : Review

Test *- -> "10..*" Question
Question *- ->   Statement
Question *- -> "3" Incorrect
Question *- ->   Correct
Answer <|- - Correct
Answer <|- - Incorrect

Question *- -> Category
Category *- ->"0..*" Category







@end

PlantUML version 1.2022.7(Mon Aug 22 18:01:30 WEST 2022)
(GPL source distribution)
Java Runtime: OpenJDK Runtime Environment
JVM: OpenJDK 64-Bit Server VM
Default Encoding: Cp1252
Language: es
Country: ES
--></g></svg>