<?xml version="1.0" encoding="UTF-8" standalone="no"?><svg xmlns="http://www.w3.org/2000/svg" xmlns:xlink="http://www.w3.org/1999/xlink" contentStyleType="text/css" height="990px" preserveAspectRatio="none" style="width:946px;height:990px;background:#FFFFFF;" version="1.1" viewBox="0 0 946 990" width="946px" zoomAndPan="magnify"><defs/><g><!--MD5=[668d633d11bedc8952753581a2dda3db]
class Community--><g id="elem_Community"><rect codeLine="2" fill="#F1F1F1" height="48" id="Community" rx="2.5" ry="2.5" style="stroke:#181818;stroke-width:0.5;" width="102" x="215.09" y="7"/><ellipse cx="230.09" cy="23" fill="#ADD1B2" rx="11" ry="11" style="stroke:#181818;stroke-width:1.0;"/><path d="M232.8556,18.875 Q233.0119,18.6563 233.1994,18.5469 Q233.3869,18.4375 233.6056,18.4375 Q233.9806,18.4375 234.215,18.7031 Q234.4494,18.9531 234.4494,19.5625 L234.4494,21.0156 Q234.4494,21.625 234.215,21.8906 Q233.9806,22.1563 233.6056,22.1563 Q233.2619,22.1563 233.0588,21.9531 Q232.8556,21.7656 232.7463,21.25 Q232.6994,20.8906 232.5119,20.7031 Q232.1838,20.3281 231.5744,20.1094 Q230.965,19.8906 230.34,19.8906 Q229.5744,19.8906 228.9338,20.2188 Q228.3088,20.5469 227.8088,21.2969 Q227.3244,22.0469 227.3244,23.0781 L227.3244,24.1719 Q227.3244,25.4063 228.215,26.2344 Q229.1056,27.0469 230.6994,27.0469 Q231.6369,27.0469 232.2931,26.7969 Q232.6838,26.6406 233.1056,26.2031 Q233.3713,25.9375 233.5119,25.8594 Q233.6681,25.7813 233.8713,25.7813 Q234.1994,25.7813 234.4494,26.0469 Q234.715,26.2969 234.715,26.6406 Q234.715,26.9844 234.3713,27.3906 Q233.8713,27.9688 233.0744,28.2969 Q231.9963,28.75 230.6994,28.75 Q229.1838,28.75 227.9806,28.125 Q226.9963,27.625 226.3088,26.5625 Q225.6213,25.4844 225.6213,24.2031 L225.6213,23.0469 Q225.6213,21.7188 226.2306,20.5781 Q226.8556,19.4219 227.9494,18.8125 Q229.0431,18.1875 230.2775,18.1875 Q231.0119,18.1875 231.6525,18.3594 Q232.3088,18.5156 232.8556,18.875 Z " fill="#000000"/><text fill="#000000" font-family="sans-serif" font-size="14" lengthAdjust="spacing" textLength="70" x="244.09" y="28.7285">Community</text><line style="stroke:#181818;stroke-width:0.5;" x1="216.09" x2="316.09" y1="39" y2="39"/><line style="stroke:#181818;stroke-width:0.5;" x1="216.09" x2="316.09" y1="47" y2="47"/></g><!--MD5=[3fd616f346a44cd59a91eb10b19e157c]
class User--><g id="elem_User"><rect codeLine="4" fill="#F1F1F1" height="48" id="User" rx="2.5" ry="2.5" style="stroke:#181818;stroke-width:0.5;" width="61" x="187.59" y="116"/><ellipse cx="202.59" cy="132" fill="#ADD1B2" rx="11" ry="11" style="stroke:#181818;stroke-width:1.0;"/><path d="M205.3556,127.875 Q205.5119,127.6563 205.6994,127.5469 Q205.8869,127.4375 206.1056,127.4375 Q206.4806,127.4375 206.715,127.7031 Q206.9494,127.9531 206.9494,128.5625 L206.9494,130.0156 Q206.9494,130.625 206.715,130.8906 Q206.4806,131.1563 206.1056,131.1563 Q205.7619,131.1563 205.5588,130.9531 Q205.3556,130.7656 205.2463,130.25 Q205.1994,129.8906 205.0119,129.7031 Q204.6838,129.3281 204.0744,129.1094 Q203.465,128.8906 202.84,128.8906 Q202.0744,128.8906 201.4338,129.2188 Q200.8088,129.5469 200.3088,130.2969 Q199.8244,131.0469 199.8244,132.0781 L199.8244,133.1719 Q199.8244,134.4063 200.715,135.2344 Q201.6056,136.0469 203.1994,136.0469 Q204.1369,136.0469 204.7931,135.7969 Q205.1838,135.6406 205.6056,135.2031 Q205.8713,134.9375 206.0119,134.8594 Q206.1681,134.7813 206.3713,134.7813 Q206.6994,134.7813 206.9494,135.0469 Q207.215,135.2969 207.215,135.6406 Q207.215,135.9844 206.8713,136.3906 Q206.3713,136.9688 205.5744,137.2969 Q204.4963,137.75 203.1994,137.75 Q201.6838,137.75 200.4806,137.125 Q199.4963,136.625 198.8088,135.5625 Q198.1213,134.4844 198.1213,133.2031 L198.1213,132.0469 Q198.1213,130.7188 198.7306,129.5781 Q199.3556,128.4219 200.4494,127.8125 Q201.5431,127.1875 202.7775,127.1875 Q203.5119,127.1875 204.1525,127.3594 Q204.8088,127.5156 205.3556,127.875 Z " fill="#000000"/><text fill="#000000" font-family="sans-serif" font-size="14" lengthAdjust="spacing" textLength="29" x="216.59" y="137.7285">User</text><line style="stroke:#181818;stroke-width:0.5;" x1="188.59" x2="247.59" y1="148" y2="148"/><line style="stroke:#181818;stroke-width:0.5;" x1="188.59" x2="247.59" y1="156" y2="156"/></g><!--MD5=[e76a510855fdf825c81877c657b1fc23]
class Reviewer--><g id="elem_Reviewer"><rect codeLine="6" fill="#F1F1F1" height="48" id="Reviewer" rx="2.5" ry="2.5" style="stroke:#181818;stroke-width:0.5;" width="90" x="20.09" y="465"/><ellipse cx="35.09" cy="481" fill="#ADD1B2" rx="11" ry="11" style="stroke:#181818;stroke-width:1.0;"/><path d="M37.8556,476.875 Q38.0119,476.6563 38.1994,476.5469 Q38.3869,476.4375 38.6056,476.4375 Q38.9806,476.4375 39.215,476.7031 Q39.4494,476.9531 39.4494,477.5625 L39.4494,479.0156 Q39.4494,479.625 39.215,479.8906 Q38.9806,480.1563 38.6056,480.1563 Q38.2619,480.1563 38.0588,479.9531 Q37.8556,479.7656 37.7463,479.25 Q37.6994,478.8906 37.5119,478.7031 Q37.1838,478.3281 36.5744,478.1094 Q35.965,477.8906 35.34,477.8906 Q34.5744,477.8906 33.9338,478.2188 Q33.3088,478.5469 32.8088,479.2969 Q32.3244,480.0469 32.3244,481.0781 L32.3244,482.1719 Q32.3244,483.4063 33.215,484.2344 Q34.1056,485.0469 35.6994,485.0469 Q36.6369,485.0469 37.2931,484.7969 Q37.6838,484.6406 38.1056,484.2031 Q38.3713,483.9375 38.5119,483.8594 Q38.6681,483.7813 38.8713,483.7813 Q39.1994,483.7813 39.4494,484.0469 Q39.715,484.2969 39.715,484.6406 Q39.715,484.9844 39.3713,485.3906 Q38.8713,485.9688 38.0744,486.2969 Q36.9963,486.75 35.6994,486.75 Q34.1838,486.75 32.9806,486.125 Q31.9963,485.625 31.3088,484.5625 Q30.6213,483.4844 30.6213,482.2031 L30.6213,481.0469 Q30.6213,479.7188 31.2306,478.5781 Q31.8556,477.4219 32.9494,476.8125 Q34.0431,476.1875 35.2775,476.1875 Q36.0119,476.1875 36.6525,476.3594 Q37.3088,476.5156 37.8556,476.875 Z " fill="#000000"/><text fill="#000000" font-family="sans-serif" font-size="14" lengthAdjust="spacing" textLength="58" x="49.09" y="486.7285">Reviewer</text><line style="stroke:#181818;stroke-width:0.5;" x1="21.09" x2="109.09" y1="497" y2="497"/><line style="stroke:#181818;stroke-width:0.5;" x1="21.09" x2="109.09" y1="505" y2="505"/></g><!--MD5=[559db66c208d2736f857be4b8ed380a2]
class Editor--><g id="elem_Editor"><rect codeLine="8" fill="#F1F1F1" height="48" id="Editor" rx="2.5" ry="2.5" style="stroke:#181818;stroke-width:0.5;" width="69" x="70.59" y="225"/><ellipse cx="85.59" cy="241" fill="#ADD1B2" rx="11" ry="11" style="stroke:#181818;stroke-width:1.0;"/><path d="M88.3556,236.875 Q88.5119,236.6563 88.6994,236.5469 Q88.8869,236.4375 89.1056,236.4375 Q89.4806,236.4375 89.715,236.7031 Q89.9494,236.9531 89.9494,237.5625 L89.9494,239.0156 Q89.9494,239.625 89.715,239.8906 Q89.4806,240.1563 89.1056,240.1563 Q88.7619,240.1563 88.5588,239.9531 Q88.3556,239.7656 88.2463,239.25 Q88.1994,238.8906 88.0119,238.7031 Q87.6838,238.3281 87.0744,238.1094 Q86.465,237.8906 85.84,237.8906 Q85.0744,237.8906 84.4338,238.2188 Q83.8088,238.5469 83.3088,239.2969 Q82.8244,240.0469 82.8244,241.0781 L82.8244,242.1719 Q82.8244,243.4063 83.715,244.2344 Q84.6056,245.0469 86.1994,245.0469 Q87.1369,245.0469 87.7931,244.7969 Q88.1838,244.6406 88.6056,244.2031 Q88.8713,243.9375 89.0119,243.8594 Q89.1681,243.7813 89.3713,243.7813 Q89.6994,243.7813 89.9494,244.0469 Q90.215,244.2969 90.215,244.6406 Q90.215,244.9844 89.8713,245.3906 Q89.3713,245.9688 88.5744,246.2969 Q87.4963,246.75 86.1994,246.75 Q84.6838,246.75 83.4806,246.125 Q82.4963,245.625 81.8088,244.5625 Q81.1213,243.4844 81.1213,242.2031 L81.1213,241.0469 Q81.1213,239.7188 81.7306,238.5781 Q82.3556,237.4219 83.4494,236.8125 Q84.5431,236.1875 85.7775,236.1875 Q86.5119,236.1875 87.1525,236.3594 Q87.8088,236.5156 88.3556,236.875 Z " fill="#000000"/><text fill="#000000" font-family="sans-serif" font-size="14" lengthAdjust="spacing" textLength="37" x="99.59" y="246.7285">Editor</text><line style="stroke:#181818;stroke-width:0.5;" x1="71.59" x2="138.59" y1="257" y2="257"/><line style="stroke:#181818;stroke-width:0.5;" x1="71.59" x2="138.59" y1="265" y2="265"/></g><!--MD5=[a0a1f7f9662f43ef0ece806266f72a6f]
class Executor--><g id="elem_Executor"><rect codeLine="10" fill="#F1F1F1" height="48" id="Executor" rx="2.5" ry="2.5" style="stroke:#181818;stroke-width:0.5;" width="87" x="174.59" y="225"/><ellipse cx="189.59" cy="241" fill="#ADD1B2" rx="11" ry="11" style="stroke:#181818;stroke-width:1.0;"/><path d="M192.3556,236.875 Q192.5119,236.6563 192.6994,236.5469 Q192.8869,236.4375 193.1056,236.4375 Q193.4806,236.4375 193.715,236.7031 Q193.9494,236.9531 193.9494,237.5625 L193.9494,239.0156 Q193.9494,239.625 193.715,239.8906 Q193.4806,240.1563 193.1056,240.1563 Q192.7619,240.1563 192.5588,239.9531 Q192.3556,239.7656 192.2463,239.25 Q192.1994,238.8906 192.0119,238.7031 Q191.6838,238.3281 191.0744,238.1094 Q190.465,237.8906 189.84,237.8906 Q189.0744,237.8906 188.4338,238.2188 Q187.8088,238.5469 187.3088,239.2969 Q186.8244,240.0469 186.8244,241.0781 L186.8244,242.1719 Q186.8244,243.4063 187.715,244.2344 Q188.6056,245.0469 190.1994,245.0469 Q191.1369,245.0469 191.7931,244.7969 Q192.1838,244.6406 192.6056,244.2031 Q192.8713,243.9375 193.0119,243.8594 Q193.1681,243.7813 193.3713,243.7813 Q193.6994,243.7813 193.9494,244.0469 Q194.215,244.2969 194.215,244.6406 Q194.215,244.9844 193.8713,245.3906 Q193.3713,245.9688 192.5744,246.2969 Q191.4963,246.75 190.1994,246.75 Q188.6838,246.75 187.4806,246.125 Q186.4963,245.625 185.8088,244.5625 Q185.1213,243.4844 185.1213,242.2031 L185.1213,241.0469 Q185.1213,239.7188 185.7306,238.5781 Q186.3556,237.4219 187.4494,236.8125 Q188.5431,236.1875 189.7775,236.1875 Q190.5119,236.1875 191.1525,236.3594 Q191.8088,236.5156 192.3556,236.875 Z " fill="#000000"/><text fill="#000000" font-family="sans-serif" font-size="14" lengthAdjust="spacing" textLength="55" x="203.59" y="246.7285">Executor</text><line style="stroke:#181818;stroke-width:0.5;" x1="175.59" x2="260.59" y1="257" y2="257"/><line style="stroke:#181818;stroke-width:0.5;" x1="175.59" x2="260.59" y1="265" y2="265"/></g><!--MD5=[71e8807956d33805e77353b9d7e2df39]
class Evaluation--><g id="elem_Evaluation"><rect codeLine="12" fill="#F1F1F1" height="48" id="Evaluation" rx="2.5" ry="2.5" style="stroke:#181818;stroke-width:0.5;" width="98" x="379.09" y="360.5"/><ellipse cx="394.09" cy="376.5" fill="#ADD1B2" rx="11" ry="11" style="stroke:#181818;stroke-width:1.0;"/><path d="M396.8556,372.375 Q397.0119,372.1563 397.1994,372.0469 Q397.3869,371.9375 397.6056,371.9375 Q397.9806,371.9375 398.215,372.2031 Q398.4494,372.4531 398.4494,373.0625 L398.4494,374.5156 Q398.4494,375.125 398.215,375.3906 Q397.9806,375.6563 397.6056,375.6563 Q397.2619,375.6563 397.0588,375.4531 Q396.8556,375.2656 396.7463,374.75 Q396.6994,374.3906 396.5119,374.2031 Q396.1838,373.8281 395.5744,373.6094 Q394.965,373.3906 394.34,373.3906 Q393.5744,373.3906 392.9338,373.7188 Q392.3088,374.0469 391.8088,374.7969 Q391.3244,375.5469 391.3244,376.5781 L391.3244,377.6719 Q391.3244,378.9063 392.215,379.7344 Q393.1056,380.5469 394.6994,380.5469 Q395.6369,380.5469 396.2931,380.2969 Q396.6838,380.1406 397.1056,379.7031 Q397.3713,379.4375 397.5119,379.3594 Q397.6681,379.2813 397.8713,379.2813 Q398.1994,379.2813 398.4494,379.5469 Q398.715,379.7969 398.715,380.1406 Q398.715,380.4844 398.3713,380.8906 Q397.8713,381.4688 397.0744,381.7969 Q395.9963,382.25 394.6994,382.25 Q393.1838,382.25 391.9806,381.625 Q390.9963,381.125 390.3088,380.0625 Q389.6213,378.9844 389.6213,377.7031 L389.6213,376.5469 Q389.6213,375.2188 390.2306,374.0781 Q390.8556,372.9219 391.9494,372.3125 Q393.0431,371.6875 394.2775,371.6875 Q395.0119,371.6875 395.6525,371.8594 Q396.3088,372.0156 396.8556,372.375 Z " fill="#000000"/><text fill="#000000" font-family="sans-serif" font-size="14" lengthAdjust="spacing" textLength="66" x="408.09" y="382.2285">Evaluation</text><line style="stroke:#181818;stroke-width:0.5;" x1="380.09" x2="476.09" y1="392.5" y2="392.5"/><line style="stroke:#181818;stroke-width:0.5;" x1="380.09" x2="476.09" y1="400.5" y2="400.5"/></g><!--MD5=[a96594a83e2ecdc78cbf17c2ddf01934]
class Category--><g id="elem_Category"><rect codeLine="14" fill="#F1F1F1" height="48" id="Category" rx="2.5" ry="2.5" style="stroke:#181818;stroke-width:0.5;" width="90" x="700.09" y="826"/><ellipse cx="715.09" cy="842" fill="#ADD1B2" rx="11" ry="11" style="stroke:#181818;stroke-width:1.0;"/><path d="M717.8556,837.875 Q718.0119,837.6563 718.1994,837.5469 Q718.3869,837.4375 718.6056,837.4375 Q718.9806,837.4375 719.215,837.7031 Q719.4494,837.9531 719.4494,838.5625 L719.4494,840.0156 Q719.4494,840.625 719.215,840.8906 Q718.9806,841.1563 718.6056,841.1563 Q718.2619,841.1563 718.0588,840.9531 Q717.8556,840.7656 717.7463,840.25 Q717.6994,839.8906 717.5119,839.7031 Q717.1838,839.3281 716.5744,839.1094 Q715.965,838.8906 715.34,838.8906 Q714.5744,838.8906 713.9338,839.2188 Q713.3088,839.5469 712.8088,840.2969 Q712.3244,841.0469 712.3244,842.0781 L712.3244,843.1719 Q712.3244,844.4063 713.215,845.2344 Q714.1056,846.0469 715.6994,846.0469 Q716.6369,846.0469 717.2931,845.7969 Q717.6838,845.6406 718.1056,845.2031 Q718.3713,844.9375 718.5119,844.8594 Q718.6681,844.7813 718.8713,844.7813 Q719.1994,844.7813 719.4494,845.0469 Q719.715,845.2969 719.715,845.6406 Q719.715,845.9844 719.3713,846.3906 Q718.8713,846.9688 718.0744,847.2969 Q716.9963,847.75 715.6994,847.75 Q714.1838,847.75 712.9806,847.125 Q711.9963,846.625 711.3088,845.5625 Q710.6213,844.4844 710.6213,843.2031 L710.6213,842.0469 Q710.6213,840.7188 711.2306,839.5781 Q711.8556,838.4219 712.9494,837.8125 Q714.0431,837.1875 715.2775,837.1875 Q716.0119,837.1875 716.6525,837.3594 Q717.3088,837.5156 717.8556,837.875 Z " fill="#000000"/><text fill="#000000" font-family="sans-serif" font-size="14" lengthAdjust="spacing" textLength="58" x="729.09" y="847.7285">Category</text><line style="stroke:#181818;stroke-width:0.5;" x1="701.09" x2="789.09" y1="858" y2="858"/><line style="stroke:#181818;stroke-width:0.5;" x1="701.09" x2="789.09" y1="866" y2="866"/></g><!--MD5=[df38be88ccee13e832d6fafd6288a4ca]
class Test--><g id="elem_Test"><rect codeLine="16" fill="#F1F1F1" height="65.6094" id="Test" rx="2.5" ry="2.5" style="stroke:#181818;stroke-width:0.5;" width="78" x="525.09" y="543"/><ellipse cx="548.19" cy="559" fill="#ADD1B2" rx="11" ry="11" style="stroke:#181818;stroke-width:1.0;"/><path d="M550.9556,554.875 Q551.1119,554.6563 551.2994,554.5469 Q551.4869,554.4375 551.7056,554.4375 Q552.0806,554.4375 552.315,554.7031 Q552.5494,554.9531 552.5494,555.5625 L552.5494,557.0156 Q552.5494,557.625 552.315,557.8906 Q552.0806,558.1563 551.7056,558.1563 Q551.3619,558.1563 551.1588,557.9531 Q550.9556,557.7656 550.8463,557.25 Q550.7994,556.8906 550.6119,556.7031 Q550.2838,556.3281 549.6744,556.1094 Q549.065,555.8906 548.44,555.8906 Q547.6744,555.8906 547.0338,556.2188 Q546.4088,556.5469 545.9088,557.2969 Q545.4244,558.0469 545.4244,559.0781 L545.4244,560.1719 Q545.4244,561.4063 546.315,562.2344 Q547.2056,563.0469 548.7994,563.0469 Q549.7369,563.0469 550.3931,562.7969 Q550.7838,562.6406 551.2056,562.2031 Q551.4713,561.9375 551.6119,561.8594 Q551.7681,561.7813 551.9713,561.7813 Q552.2994,561.7813 552.5494,562.0469 Q552.815,562.2969 552.815,562.6406 Q552.815,562.9844 552.4713,563.3906 Q551.9713,563.9688 551.1744,564.2969 Q550.0963,564.75 548.7994,564.75 Q547.2838,564.75 546.0806,564.125 Q545.0963,563.625 544.4088,562.5625 Q543.7213,561.4844 543.7213,560.2031 L543.7213,559.0469 Q543.7213,557.7188 544.3306,556.5781 Q544.9556,555.4219 546.0494,554.8125 Q547.1431,554.1875 548.3775,554.1875 Q549.1119,554.1875 549.7525,554.3594 Q550.4088,554.5156 550.9556,554.875 Z " fill="#000000"/><text fill="#000000" font-family="sans-serif" font-size="14" lengthAdjust="spacing" textLength="28" x="563.99" y="564.7285">Test</text><line style="stroke:#181818;stroke-width:0.5;" x1="526.09" x2="602.09" y1="575" y2="575"/><text fill="#000000" font-family="sans-serif" font-size="14" lengthAdjust="spacing" textLength="66" x="531.09" y="593.5332">categories</text><line style="stroke:#181818;stroke-width:0.5;" x1="526.09" x2="602.09" y1="600.6094" y2="600.6094"/></g><!--MD5=[251997ad79b4d4948a25d3b27294058e]
class AnswersToReview--><g id="elem_AnswersToReview"><rect codeLine="20" fill="#F1F1F1" height="48" id="AnswersToReview" rx="2.5" ry="2.5" style="stroke:#181818;stroke-width:0.5;" width="147" x="124.59" y="826"/><ellipse cx="139.59" cy="842" fill="#ADD1B2" rx="11" ry="11" style="stroke:#181818;stroke-width:1.0;"/><path d="M142.3556,837.875 Q142.5119,837.6563 142.6994,837.5469 Q142.8869,837.4375 143.1056,837.4375 Q143.4806,837.4375 143.715,837.7031 Q143.9494,837.9531 143.9494,838.5625 L143.9494,840.0156 Q143.9494,840.625 143.715,840.8906 Q143.4806,841.1563 143.1056,841.1563 Q142.7619,841.1563 142.5588,840.9531 Q142.3556,840.7656 142.2463,840.25 Q142.1994,839.8906 142.0119,839.7031 Q141.6838,839.3281 141.0744,839.1094 Q140.465,838.8906 139.84,838.8906 Q139.0744,838.8906 138.4338,839.2188 Q137.8088,839.5469 137.3088,840.2969 Q136.8244,841.0469 136.8244,842.0781 L136.8244,843.1719 Q136.8244,844.4063 137.715,845.2344 Q138.6056,846.0469 140.1994,846.0469 Q141.1369,846.0469 141.7931,845.7969 Q142.1838,845.6406 142.6056,845.2031 Q142.8713,844.9375 143.0119,844.8594 Q143.1681,844.7813 143.3713,844.7813 Q143.6994,844.7813 143.9494,845.0469 Q144.215,845.2969 144.215,845.6406 Q144.215,845.9844 143.8713,846.3906 Q143.3713,846.9688 142.5744,847.2969 Q141.4963,847.75 140.1994,847.75 Q138.6838,847.75 137.4806,847.125 Q136.4963,846.625 135.8088,845.5625 Q135.1213,844.4844 135.1213,843.2031 L135.1213,842.0469 Q135.1213,840.7188 135.7306,839.5781 Q136.3556,838.4219 137.4494,837.8125 Q138.5431,837.1875 139.7775,837.1875 Q140.5119,837.1875 141.1525,837.3594 Q141.8088,837.5156 142.3556,837.875 Z " fill="#000000"/><text fill="#000000" font-family="sans-serif" font-size="14" lengthAdjust="spacing" textLength="115" x="153.59" y="847.7285">AnswersToReview</text><line style="stroke:#181818;stroke-width:0.5;" x1="125.59" x2="270.59" y1="858" y2="858"/><line style="stroke:#181818;stroke-width:0.5;" x1="125.59" x2="270.59" y1="866" y2="866"/></g><!--MD5=[9d451b2f92d848a8e2d1a4dab2b1c6bf]
class Concept--><g id="elem_Concept"><rect codeLine="22" fill="#F1F1F1" height="100.8281" id="Concept" rx="2.5" ry="2.5" style="stroke:#181818;stroke-width:0.5;" width="85" x="209.59" y="334"/><ellipse cx="224.59" cy="350" fill="#ADD1B2" rx="11" ry="11" style="stroke:#181818;stroke-width:1.0;"/><path d="M227.3556,345.875 Q227.5119,345.6563 227.6994,345.5469 Q227.8869,345.4375 228.1056,345.4375 Q228.4806,345.4375 228.715,345.7031 Q228.9494,345.9531 228.9494,346.5625 L228.9494,348.0156 Q228.9494,348.625 228.715,348.8906 Q228.4806,349.1563 228.1056,349.1563 Q227.7619,349.1563 227.5588,348.9531 Q227.3556,348.7656 227.2463,348.25 Q227.1994,347.8906 227.0119,347.7031 Q226.6838,347.3281 226.0744,347.1094 Q225.465,346.8906 224.84,346.8906 Q224.0744,346.8906 223.4338,347.2188 Q222.8088,347.5469 222.3088,348.2969 Q221.8244,349.0469 221.8244,350.0781 L221.8244,351.1719 Q221.8244,352.4063 222.715,353.2344 Q223.6056,354.0469 225.1994,354.0469 Q226.1369,354.0469 226.7931,353.7969 Q227.1838,353.6406 227.6056,353.2031 Q227.8713,352.9375 228.0119,352.8594 Q228.1681,352.7813 228.3713,352.7813 Q228.6994,352.7813 228.9494,353.0469 Q229.215,353.2969 229.215,353.6406 Q229.215,353.9844 228.8713,354.3906 Q228.3713,354.9688 227.5744,355.2969 Q226.4963,355.75 225.1994,355.75 Q223.6838,355.75 222.4806,355.125 Q221.4963,354.625 220.8088,353.5625 Q220.1213,352.4844 220.1213,351.2031 L220.1213,350.0469 Q220.1213,348.7188 220.7306,347.5781 Q221.3556,346.4219 222.4494,345.8125 Q223.5431,345.1875 224.7775,345.1875 Q225.5119,345.1875 226.1525,345.3594 Q226.8088,345.5156 227.3556,345.875 Z " fill="#000000"/><text fill="#000000" font-family="sans-serif" font-size="14" lengthAdjust="spacing" textLength="53" x="238.59" y="355.7285">Concept</text><line style="stroke:#181818;stroke-width:0.5;" x1="210.59" x2="293.59" y1="366" y2="366"/><text fill="#000000" font-family="sans-serif" font-size="14" lengthAdjust="spacing" textLength="52" x="215.59" y="384.5332">keyword</text><text fill="#000000" font-family="sans-serif" font-size="14" lengthAdjust="spacing" textLength="29" x="215.59" y="402.1426">level</text><text fill="#000000" font-family="sans-serif" font-size="14" lengthAdjust="spacing" textLength="12" x="215.59" y="419.752">...</text><line style="stroke:#181818;stroke-width:0.5;" x1="210.59" x2="293.59" y1="426.8281" y2="426.8281"/></g><!--MD5=[c5be3d7e9ffcf6502258095b57411394]
class OpenQuestion--><g id="elem_OpenQuestion"><rect codeLine="28" fill="#F1F1F1" height="48" id="OpenQuestion" rx="2.5" ry="2.5" style="stroke:#181818;stroke-width:0.5;" width="124" x="242.09" y="935"/><ellipse cx="257.09" cy="951" fill="#ADD1B2" rx="11" ry="11" style="stroke:#181818;stroke-width:1.0;"/><path d="M259.8556,946.875 Q260.0119,946.6563 260.1994,946.5469 Q260.3869,946.4375 260.6056,946.4375 Q260.9806,946.4375 261.215,946.7031 Q261.4494,946.9531 261.4494,947.5625 L261.4494,949.0156 Q261.4494,949.625 261.215,949.8906 Q260.9806,950.1563 260.6056,950.1563 Q260.2619,950.1563 260.0588,949.9531 Q259.8556,949.7656 259.7463,949.25 Q259.6994,948.8906 259.5119,948.7031 Q259.1838,948.3281 258.5744,948.1094 Q257.965,947.8906 257.34,947.8906 Q256.5744,947.8906 255.9338,948.2188 Q255.3088,948.5469 254.8088,949.2969 Q254.3244,950.0469 254.3244,951.0781 L254.3244,952.1719 Q254.3244,953.4063 255.215,954.2344 Q256.1056,955.0469 257.6994,955.0469 Q258.6369,955.0469 259.2931,954.7969 Q259.6838,954.6406 260.1056,954.2031 Q260.3713,953.9375 260.5119,953.8594 Q260.6681,953.7813 260.8713,953.7813 Q261.1994,953.7813 261.4494,954.0469 Q261.715,954.2969 261.715,954.6406 Q261.715,954.9844 261.3713,955.3906 Q260.8713,955.9688 260.0744,956.2969 Q258.9963,956.75 257.6994,956.75 Q256.1838,956.75 254.9806,956.125 Q253.9963,955.625 253.3088,954.5625 Q252.6213,953.4844 252.6213,952.2031 L252.6213,951.0469 Q252.6213,949.7188 253.2306,948.5781 Q253.8556,947.4219 254.9494,946.8125 Q256.0431,946.1875 257.2775,946.1875 Q258.0119,946.1875 258.6525,946.3594 Q259.3088,946.5156 259.8556,946.875 Z " fill="#000000"/><text fill="#000000" font-family="sans-serif" font-size="14" lengthAdjust="spacing" textLength="92" x="271.09" y="956.7285">OpenQuestion</text><line style="stroke:#181818;stroke-width:0.5;" x1="243.09" x2="365.09" y1="967" y2="967"/><line style="stroke:#181818;stroke-width:0.5;" x1="243.09" x2="365.09" y1="975" y2="975"/></g><!--MD5=[fc7123defb831ecdd44b2d9bcef6cceb]
class Question--><g id="elem_Question"><rect codeLine="31" fill="#F1F1F1" height="48" id="Question" rx="2.5" ry="2.5" style="stroke:#181818;stroke-width:0.5;" width="89" x="581.59" y="717"/><ellipse cx="596.59" cy="733" fill="#ADD1B2" rx="11" ry="11" style="stroke:#181818;stroke-width:1.0;"/><path d="M599.3556,728.875 Q599.5119,728.6563 599.6994,728.5469 Q599.8869,728.4375 600.1056,728.4375 Q600.4806,728.4375 600.715,728.7031 Q600.9494,728.9531 600.9494,729.5625 L600.9494,731.0156 Q600.9494,731.625 600.715,731.8906 Q600.4806,732.1563 600.1056,732.1563 Q599.7619,732.1563 599.5588,731.9531 Q599.3556,731.7656 599.2463,731.25 Q599.1994,730.8906 599.0119,730.7031 Q598.6838,730.3281 598.0744,730.1094 Q597.465,729.8906 596.84,729.8906 Q596.0744,729.8906 595.4338,730.2188 Q594.8088,730.5469 594.3088,731.2969 Q593.8244,732.0469 593.8244,733.0781 L593.8244,734.1719 Q593.8244,735.4063 594.715,736.2344 Q595.6056,737.0469 597.1994,737.0469 Q598.1369,737.0469 598.7931,736.7969 Q599.1838,736.6406 599.6056,736.2031 Q599.8713,735.9375 600.0119,735.8594 Q600.1681,735.7813 600.3713,735.7813 Q600.6994,735.7813 600.9494,736.0469 Q601.215,736.2969 601.215,736.6406 Q601.215,736.9844 600.8713,737.3906 Q600.3713,737.9688 599.5744,738.2969 Q598.4963,738.75 597.1994,738.75 Q595.6838,738.75 594.4806,738.125 Q593.4963,737.625 592.8088,736.5625 Q592.1213,735.4844 592.1213,734.2031 L592.1213,733.0469 Q592.1213,731.7188 592.7306,730.5781 Q593.3556,729.4219 594.4494,728.8125 Q595.5431,728.1875 596.7775,728.1875 Q597.5119,728.1875 598.1525,728.3594 Q598.8088,728.5156 599.3556,728.875 Z " fill="#000000"/><text fill="#000000" font-family="sans-serif" font-size="14" lengthAdjust="spacing" textLength="57" x="610.59" y="738.7285">Question</text><line style="stroke:#181818;stroke-width:0.5;" x1="582.59" x2="669.59" y1="749" y2="749"/><line style="stroke:#181818;stroke-width:0.5;" x1="582.59" x2="669.59" y1="757" y2="757"/></g><!--MD5=[a61a298976b7d1d94498f45c2ebfa10b]
class Statement--><g id="elem_Statement"><rect codeLine="34" fill="#F1F1F1" height="48" id="Statement" rx="2.5" ry="2.5" style="stroke:#181818;stroke-width:0.5;" width="96" x="843.09" y="826"/><ellipse cx="858.09" cy="842" fill="#ADD1B2" rx="11" ry="11" style="stroke:#181818;stroke-width:1.0;"/><path d="M860.8556,837.875 Q861.0119,837.6563 861.1994,837.5469 Q861.3869,837.4375 861.6056,837.4375 Q861.9806,837.4375 862.215,837.7031 Q862.4494,837.9531 862.4494,838.5625 L862.4494,840.0156 Q862.4494,840.625 862.215,840.8906 Q861.9806,841.1563 861.6056,841.1563 Q861.2619,841.1563 861.0588,840.9531 Q860.8556,840.7656 860.7463,840.25 Q860.6994,839.8906 860.5119,839.7031 Q860.1838,839.3281 859.5744,839.1094 Q858.965,838.8906 858.34,838.8906 Q857.5744,838.8906 856.9338,839.2188 Q856.3088,839.5469 855.8088,840.2969 Q855.3244,841.0469 855.3244,842.0781 L855.3244,843.1719 Q855.3244,844.4063 856.215,845.2344 Q857.1056,846.0469 858.6994,846.0469 Q859.6369,846.0469 860.2931,845.7969 Q860.6838,845.6406 861.1056,845.2031 Q861.3713,844.9375 861.5119,844.8594 Q861.6681,844.7813 861.8713,844.7813 Q862.1994,844.7813 862.4494,845.0469 Q862.715,845.2969 862.715,845.6406 Q862.715,845.9844 862.3713,846.3906 Q861.8713,846.9688 861.0744,847.2969 Q859.9963,847.75 858.6994,847.75 Q857.1838,847.75 855.9806,847.125 Q854.9963,846.625 854.3088,845.5625 Q853.6213,844.4844 853.6213,843.2031 L853.6213,842.0469 Q853.6213,840.7188 854.2306,839.5781 Q854.8556,838.4219 855.9494,837.8125 Q857.0431,837.1875 858.2775,837.1875 Q859.0119,837.1875 859.6525,837.3594 Q860.3088,837.5156 860.8556,837.875 Z " fill="#000000"/><text fill="#000000" font-family="sans-serif" font-size="14" lengthAdjust="spacing" textLength="64" x="872.09" y="847.7285">Statement</text><line style="stroke:#181818;stroke-width:0.5;" x1="844.09" x2="938.09" y1="858" y2="858"/><line style="stroke:#181818;stroke-width:0.5;" x1="844.09" x2="938.09" y1="866" y2="866"/></g><!--MD5=[f9fadfa5a66b7e5a67b370cd443ffe52]
class Answer--><g id="elem_Answer"><rect codeLine="36" fill="#F1F1F1" height="48" id="Answer" rx="2.5" ry="2.5" style="stroke:#181818;stroke-width:0.5;" width="78" x="466.09" y="717"/><ellipse cx="481.09" cy="733" fill="#ADD1B2" rx="11" ry="11" style="stroke:#181818;stroke-width:1.0;"/><path d="M483.8556,728.875 Q484.0119,728.6563 484.1994,728.5469 Q484.3869,728.4375 484.6056,728.4375 Q484.9806,728.4375 485.215,728.7031 Q485.4494,728.9531 485.4494,729.5625 L485.4494,731.0156 Q485.4494,731.625 485.215,731.8906 Q484.9806,732.1563 484.6056,732.1563 Q484.2619,732.1563 484.0588,731.9531 Q483.8556,731.7656 483.7463,731.25 Q483.6994,730.8906 483.5119,730.7031 Q483.1838,730.3281 482.5744,730.1094 Q481.965,729.8906 481.34,729.8906 Q480.5744,729.8906 479.9338,730.2188 Q479.3088,730.5469 478.8088,731.2969 Q478.3244,732.0469 478.3244,733.0781 L478.3244,734.1719 Q478.3244,735.4063 479.215,736.2344 Q480.1056,737.0469 481.6994,737.0469 Q482.6369,737.0469 483.2931,736.7969 Q483.6838,736.6406 484.1056,736.2031 Q484.3713,735.9375 484.5119,735.8594 Q484.6681,735.7813 484.8713,735.7813 Q485.1994,735.7813 485.4494,736.0469 Q485.715,736.2969 485.715,736.6406 Q485.715,736.9844 485.3713,737.3906 Q484.8713,737.9688 484.0744,738.2969 Q482.9963,738.75 481.6994,738.75 Q480.1838,738.75 478.9806,738.125 Q477.9963,737.625 477.3088,736.5625 Q476.6213,735.4844 476.6213,734.2031 L476.6213,733.0469 Q476.6213,731.7188 477.2306,730.5781 Q477.8556,729.4219 478.9494,728.8125 Q480.0431,728.1875 481.2775,728.1875 Q482.0119,728.1875 482.6525,728.3594 Q483.3088,728.5156 483.8556,728.875 Z " fill="#000000"/><text fill="#000000" font-family="sans-serif" font-size="14" lengthAdjust="spacing" textLength="46" x="495.09" y="738.7285">Answer</text><line style="stroke:#181818;stroke-width:0.5;" x1="467.09" x2="543.09" y1="749" y2="749"/><line style="stroke:#181818;stroke-width:0.5;" x1="467.09" x2="543.09" y1="757" y2="757"/></g><!--MD5=[bc629657279eaa9349f412646650f2c5]
class Correct--><g id="elem_Correct"><rect codeLine="38" fill="#F1F1F1" height="48" id="Correct" rx="2.5" ry="2.5" style="stroke:#181818;stroke-width:0.5;" width="79" x="463.59" y="826"/><ellipse cx="478.59" cy="842" fill="#ADD1B2" rx="11" ry="11" style="stroke:#181818;stroke-width:1.0;"/><path d="M481.3556,837.875 Q481.5119,837.6563 481.6994,837.5469 Q481.8869,837.4375 482.1056,837.4375 Q482.4806,837.4375 482.715,837.7031 Q482.9494,837.9531 482.9494,838.5625 L482.9494,840.0156 Q482.9494,840.625 482.715,840.8906 Q482.4806,841.1563 482.1056,841.1563 Q481.7619,841.1563 481.5588,840.9531 Q481.3556,840.7656 481.2463,840.25 Q481.1994,839.8906 481.0119,839.7031 Q480.6838,839.3281 480.0744,839.1094 Q479.465,838.8906 478.84,838.8906 Q478.0744,838.8906 477.4338,839.2188 Q476.8088,839.5469 476.3088,840.2969 Q475.8244,841.0469 475.8244,842.0781 L475.8244,843.1719 Q475.8244,844.4063 476.715,845.2344 Q477.6056,846.0469 479.1994,846.0469 Q480.1369,846.0469 480.7931,845.7969 Q481.1838,845.6406 481.6056,845.2031 Q481.8713,844.9375 482.0119,844.8594 Q482.1681,844.7813 482.3713,844.7813 Q482.6994,844.7813 482.9494,845.0469 Q483.215,845.2969 483.215,845.6406 Q483.215,845.9844 482.8713,846.3906 Q482.3713,846.9688 481.5744,847.2969 Q480.4963,847.75 479.1994,847.75 Q477.6838,847.75 476.4806,847.125 Q475.4963,846.625 474.8088,845.5625 Q474.1213,844.4844 474.1213,843.2031 L474.1213,842.0469 Q474.1213,840.7188 474.7306,839.5781 Q475.3556,838.4219 476.4494,837.8125 Q477.5431,837.1875 478.7775,837.1875 Q479.5119,837.1875 480.1525,837.3594 Q480.8088,837.5156 481.3556,837.875 Z " fill="#000000"/><text fill="#000000" font-family="sans-serif" font-size="14" lengthAdjust="spacing" textLength="47" x="492.59" y="847.7285">Correct</text><line style="stroke:#181818;stroke-width:0.5;" x1="464.59" x2="541.59" y1="858" y2="858"/><line style="stroke:#181818;stroke-width:0.5;" x1="464.59" x2="541.59" y1="866" y2="866"/></g><!--MD5=[37923dc032bbfca87d4413e584fa2cda]
class Incorrect--><g id="elem_Incorrect"><rect codeLine="40" fill="#F1F1F1" height="48" id="Incorrect" rx="2.5" ry="2.5" style="stroke:#181818;stroke-width:0.5;" width="87" x="577.59" y="826"/><ellipse cx="592.59" cy="842" fill="#ADD1B2" rx="11" ry="11" style="stroke:#181818;stroke-width:1.0;"/><path d="M595.3556,837.875 Q595.5119,837.6563 595.6994,837.5469 Q595.8869,837.4375 596.1056,837.4375 Q596.4806,837.4375 596.715,837.7031 Q596.9494,837.9531 596.9494,838.5625 L596.9494,840.0156 Q596.9494,840.625 596.715,840.8906 Q596.4806,841.1563 596.1056,841.1563 Q595.7619,841.1563 595.5588,840.9531 Q595.3556,840.7656 595.2463,840.25 Q595.1994,839.8906 595.0119,839.7031 Q594.6838,839.3281 594.0744,839.1094 Q593.465,838.8906 592.84,838.8906 Q592.0744,838.8906 591.4338,839.2188 Q590.8088,839.5469 590.3088,840.2969 Q589.8244,841.0469 589.8244,842.0781 L589.8244,843.1719 Q589.8244,844.4063 590.715,845.2344 Q591.6056,846.0469 593.1994,846.0469 Q594.1369,846.0469 594.7931,845.7969 Q595.1838,845.6406 595.6056,845.2031 Q595.8713,844.9375 596.0119,844.8594 Q596.1681,844.7813 596.3713,844.7813 Q596.6994,844.7813 596.9494,845.0469 Q597.215,845.2969 597.215,845.6406 Q597.215,845.9844 596.8713,846.3906 Q596.3713,846.9688 595.5744,847.2969 Q594.4963,847.75 593.1994,847.75 Q591.6838,847.75 590.4806,847.125 Q589.4963,846.625 588.8088,845.5625 Q588.1213,844.4844 588.1213,843.2031 L588.1213,842.0469 Q588.1213,840.7188 588.7306,839.5781 Q589.3556,838.4219 590.4494,837.8125 Q591.5431,837.1875 592.7775,837.1875 Q593.5119,837.1875 594.1525,837.3594 Q594.8088,837.5156 595.3556,837.875 Z " fill="#000000"/><text fill="#000000" font-family="sans-serif" font-size="14" lengthAdjust="spacing" textLength="55" x="606.59" y="847.7285">Incorrect</text><line style="stroke:#181818;stroke-width:0.5;" x1="578.59" x2="663.59" y1="858" y2="858"/><line style="stroke:#181818;stroke-width:0.5;" x1="578.59" x2="663.59" y1="866" y2="866"/></g><!--MD5=[af22135d5be6ed11ccd2d02fa51653b3]
class Definition--><g id="elem_Definition"><rect fill="#F1F1F1" height="48" id="Definition" rx="2.5" ry="2.5" style="stroke:#181818;stroke-width:0.5;" width="91" x="206.59" y="552"/><ellipse cx="221.59" cy="568" fill="#ADD1B2" rx="11" ry="11" style="stroke:#181818;stroke-width:1.0;"/><path d="M224.3556,563.875 Q224.5119,563.6563 224.6994,563.5469 Q224.8869,563.4375 225.1056,563.4375 Q225.4806,563.4375 225.715,563.7031 Q225.9494,563.9531 225.9494,564.5625 L225.9494,566.0156 Q225.9494,566.625 225.715,566.8906 Q225.4806,567.1563 225.1056,567.1563 Q224.7619,567.1563 224.5588,566.9531 Q224.3556,566.7656 224.2463,566.25 Q224.1994,565.8906 224.0119,565.7031 Q223.6838,565.3281 223.0744,565.1094 Q222.465,564.8906 221.84,564.8906 Q221.0744,564.8906 220.4338,565.2188 Q219.8088,565.5469 219.3088,566.2969 Q218.8244,567.0469 218.8244,568.0781 L218.8244,569.1719 Q218.8244,570.4063 219.715,571.2344 Q220.6056,572.0469 222.1994,572.0469 Q223.1369,572.0469 223.7931,571.7969 Q224.1838,571.6406 224.6056,571.2031 Q224.8713,570.9375 225.0119,570.8594 Q225.1681,570.7813 225.3713,570.7813 Q225.6994,570.7813 225.9494,571.0469 Q226.215,571.2969 226.215,571.6406 Q226.215,571.9844 225.8713,572.3906 Q225.3713,572.9688 224.5744,573.2969 Q223.4963,573.75 222.1994,573.75 Q220.6838,573.75 219.4806,573.125 Q218.4963,572.625 217.8088,571.5625 Q217.1213,570.4844 217.1213,569.2031 L217.1213,568.0469 Q217.1213,566.7188 217.7306,565.5781 Q218.3556,564.4219 219.4494,563.8125 Q220.5431,563.1875 221.7775,563.1875 Q222.5119,563.1875 223.1525,563.3594 Q223.8088,563.5156 224.3556,563.875 Z " fill="#000000"/><text fill="#000000" font-family="sans-serif" font-size="14" lengthAdjust="spacing" textLength="59" x="235.59" y="573.7285">Definition</text><line style="stroke:#181818;stroke-width:0.5;" x1="207.59" x2="296.59" y1="584" y2="584"/><line style="stroke:#181818;stroke-width:0.5;" x1="207.59" x2="296.59" y1="592" y2="592"/></g><!--MD5=[9b4de504215638550a8bb9c080b7ee00]
class Justification--><g id="elem_Justification"><rect fill="#F1F1F1" height="48" id="Justification" rx="2.5" ry="2.5" style="stroke:#181818;stroke-width:0.5;" width="105" x="251.59" y="717"/><ellipse cx="266.59" cy="733" fill="#ADD1B2" rx="11" ry="11" style="stroke:#181818;stroke-width:1.0;"/><path d="M269.3556,728.875 Q269.5119,728.6563 269.6994,728.5469 Q269.8869,728.4375 270.1056,728.4375 Q270.4806,728.4375 270.715,728.7031 Q270.9494,728.9531 270.9494,729.5625 L270.9494,731.0156 Q270.9494,731.625 270.715,731.8906 Q270.4806,732.1563 270.1056,732.1563 Q269.7619,732.1563 269.5588,731.9531 Q269.3556,731.7656 269.2463,731.25 Q269.1994,730.8906 269.0119,730.7031 Q268.6838,730.3281 268.0744,730.1094 Q267.465,729.8906 266.84,729.8906 Q266.0744,729.8906 265.4338,730.2188 Q264.8088,730.5469 264.3088,731.2969 Q263.8244,732.0469 263.8244,733.0781 L263.8244,734.1719 Q263.8244,735.4063 264.715,736.2344 Q265.6056,737.0469 267.1994,737.0469 Q268.1369,737.0469 268.7931,736.7969 Q269.1838,736.6406 269.6056,736.2031 Q269.8713,735.9375 270.0119,735.8594 Q270.1681,735.7813 270.3713,735.7813 Q270.6994,735.7813 270.9494,736.0469 Q271.215,736.2969 271.215,736.6406 Q271.215,736.9844 270.8713,737.3906 Q270.3713,737.9688 269.5744,738.2969 Q268.4963,738.75 267.1994,738.75 Q265.6838,738.75 264.4806,738.125 Q263.4963,737.625 262.8088,736.5625 Q262.1213,735.4844 262.1213,734.2031 L262.1213,733.0469 Q262.1213,731.7188 262.7306,730.5781 Q263.3556,729.4219 264.4494,728.8125 Q265.5431,728.1875 266.7775,728.1875 Q267.5119,728.1875 268.1525,728.3594 Q268.8088,728.5156 269.3556,728.875 Z " fill="#000000"/><text fill="#000000" font-family="sans-serif" font-size="14" lengthAdjust="spacing" textLength="73" x="280.59" y="738.7285">Justification</text><line style="stroke:#181818;stroke-width:0.5;" x1="252.59" x2="355.59" y1="749" y2="749"/><line style="stroke:#181818;stroke-width:0.5;" x1="252.59" x2="355.59" y1="757" y2="757"/></g><!--MD5=[534474e9f05b14d7c70186ae077f30e0]
class Relation--><g id="elem_Relation"><rect fill="#F1F1F1" height="48" id="Relation" rx="2.5" ry="2.5" style="stroke:#181818;stroke-width:0.5;" width="84" x="91.09" y="639"/><ellipse cx="106.09" cy="655" fill="#ADD1B2" rx="11" ry="11" style="stroke:#181818;stroke-width:1.0;"/><path d="M108.8556,650.875 Q109.0119,650.6563 109.1994,650.5469 Q109.3869,650.4375 109.6056,650.4375 Q109.9806,650.4375 110.215,650.7031 Q110.4494,650.9531 110.4494,651.5625 L110.4494,653.0156 Q110.4494,653.625 110.215,653.8906 Q109.9806,654.1563 109.6056,654.1563 Q109.2619,654.1563 109.0588,653.9531 Q108.8556,653.7656 108.7463,653.25 Q108.6994,652.8906 108.5119,652.7031 Q108.1838,652.3281 107.5744,652.1094 Q106.965,651.8906 106.34,651.8906 Q105.5744,651.8906 104.9338,652.2188 Q104.3088,652.5469 103.8088,653.2969 Q103.3244,654.0469 103.3244,655.0781 L103.3244,656.1719 Q103.3244,657.4063 104.215,658.2344 Q105.1056,659.0469 106.6994,659.0469 Q107.6369,659.0469 108.2931,658.7969 Q108.6838,658.6406 109.1056,658.2031 Q109.3713,657.9375 109.5119,657.8594 Q109.6681,657.7813 109.8713,657.7813 Q110.1994,657.7813 110.4494,658.0469 Q110.715,658.2969 110.715,658.6406 Q110.715,658.9844 110.3713,659.3906 Q109.8713,659.9688 109.0744,660.2969 Q107.9963,660.75 106.6994,660.75 Q105.1838,660.75 103.9806,660.125 Q102.9963,659.625 102.3088,658.5625 Q101.6213,657.4844 101.6213,656.2031 L101.6213,655.0469 Q101.6213,653.7188 102.2306,652.5781 Q102.8556,651.4219 103.9494,650.8125 Q105.0431,650.1875 106.2775,650.1875 Q107.0119,650.1875 107.6525,650.3594 Q108.3088,650.5156 108.8556,650.875 Z " fill="#000000"/><text fill="#000000" font-family="sans-serif" font-size="14" lengthAdjust="spacing" textLength="52" x="120.09" y="660.7285">Relation</text><line style="stroke:#181818;stroke-width:0.5;" x1="92.09" x2="174.09" y1="671" y2="671"/><line style="stroke:#181818;stroke-width:0.5;" x1="92.09" x2="174.09" y1="679" y2="679"/></g><!--MD5=[12743b4aa7b2bf3d8e383437eb99df68]
link Community to User--><g id="link_Community_User"><path codeLine="42" d="M250.767,66.1727 C250.767,66.1727 239.14,92.08 233.89,103.78 " fill="none" id="Community-User" style="stroke:#181818;stroke-width:1.0;"/><polygon fill="#181818" points="228.48,115.83,235.8147,109.2572,230.5275,111.2684,228.5162,105.9812,228.48,115.83" style="stroke:#181818;stroke-width:1.0;"/><line style="stroke:#181818;stroke-width:1.0;" x1="230.5275" x2="233.805" y1="111.2684" y2="103.965"/><polygon fill="#181818" points="255.67,55.22,249.5676,59.062,250.767,66.1727,256.8694,62.3307,255.67,55.22" style="stroke:#181818;stroke-width:1.0;"/><text fill="#000000" font-family="sans-serif" font-size="13" lengthAdjust="spacing" textLength="20" x="208.5799" y="105.1266">1..*</text></g><!--MD5=[2e75cbd22d918ac3202494a8f21c4b7e]
link Community to Concept--><g id="link_Community_Concept"><path codeLine="43" d="M271.7472,66.8892 C271.7472,66.8892 287.8,200.65 279.09,273 C277.19,288.78 273.82,305.55 270.08,321.14 " fill="none" id="Community-Concept" style="stroke:#181818;stroke-width:1.0;"/><polygon fill="#181818" points="266.89,333.91,272.9555,326.1505,268.104,329.0596,265.1948,324.2081,266.89,333.91" style="stroke:#181818;stroke-width:1.0;"/><line style="stroke:#181818;stroke-width:1.0;" x1="268.104" x2="270.045" y1="329.0596" y2="321.295"/><polygon fill="#181818" points="269.98,55.02,266.9072,61.5436,271.7472,66.8892,274.82,60.3655,269.98,55.02" style="stroke:#181818;stroke-width:1.0;"/></g><!--MD5=[7016372388c7ac2652db8515880aaa11]
reverse link User to Editor--><g id="link_User_Editor"><path codeLine="46" d="M179,178.02 C162.58,193.56 143.99,211.17 129.56,224.83 " fill="none" id="User-backto-Editor" style="stroke:#181818;stroke-width:1.0;"/><polygon fill="none" points="174.24,172.89,193.57,164.22,183.86,183.05,174.24,172.89" style="stroke:#181818;stroke-width:1.0;"/></g><!--MD5=[60e4945ab784e9eaf709bb3168dd25a4]
reverse link Editor to Reviewer--><g id="link_Editor_Reviewer"><path codeLine="47" d="M97.86,293.01 C89.4,343.34 75.7,424.86 69.01,464.65 " fill="none" id="Editor-backto-Reviewer" style="stroke:#181818;stroke-width:1.0;"/><polygon fill="none" points="90.96,291.82,101.18,273.25,104.77,294.14,90.96,291.82" style="stroke:#181818;stroke-width:1.0;"/></g><!--MD5=[d8a655080454bab67f6091cbff4cee86]
reverse link User to Executor--><g id="link_User_Executor"><path codeLine="48" d="M218.09,184.58 C218.09,198.36 218.09,213.06 218.09,224.83 " fill="none" id="User-backto-Executor" style="stroke:#181818;stroke-width:1.0;"/><polygon fill="none" points="211.09,184.22,218.09,164.22,225.09,184.22,211.09,184.22" style="stroke:#181818;stroke-width:1.0;"/></g><!--MD5=[8988500cc7d5a7a5953e16366f05393a]
reverse link AnswersToReview to OpenQuestion--><g id="link_AnswersToReview_OpenQuestion"><path codeLine="50" d="M224.94,878.1 C242.28,895.61 264.62,918.15 281.13,934.83 " fill="none" id="AnswersToReview-backto-OpenQuestion" style="stroke:#181818;stroke-width:1.0;"/><polygon fill="#181818" points="221.09,874.22,224.5883,883.4266,224.6112,877.7698,230.268,877.7927,221.09,874.22" style="stroke:#181818;stroke-width:1.0;"/></g><!--MD5=[d0493fe3f8433ad70d7ac94d8da863ff]
reverse link Definition to AnswersToReview--><g id="link_Definition_AnswersToReview"><path codeLine="51" d="M246.49,605.21 C235.77,659.19 212.56,776.14 202.68,825.87 " fill="none" id="Definition-backto-AnswersToReview" style="stroke:#181818;stroke-width:1.0;"/><polygon fill="#181818" points="247.49,600.19,241.7936,608.2244,246.5039,605.0918,249.6365,609.8021,247.49,600.19" style="stroke:#181818;stroke-width:1.0;"/></g><!--MD5=[1a4d83db36a33f2fbcdef02fb8712ac7]
reverse link Justification to AnswersToReview--><g id="link_Justification_AnswersToReview"><path codeLine="52" d="M277.24,769.1 C259.9,786.61 237.56,809.15 221.05,825.83 " fill="none" id="Justification-backto-AnswersToReview" style="stroke:#181818;stroke-width:1.0;"/><polygon fill="#181818" points="281.09,765.22,271.912,768.7927,277.5688,768.7698,277.5917,774.4266,281.09,765.22" style="stroke:#181818;stroke-width:1.0;"/></g><!--MD5=[ca1db39ba97a6974584bf41ab4f0a9b1]
reverse link Relation to AnswersToReview--><g id="link_Relation_AnswersToReview"><path codeLine="53" d="M139.94,692.16 C146.85,719.2 158.45,761 172.09,796 C176,806.03 181.07,816.74 185.7,825.9 " fill="none" id="Relation-backto-AnswersToReview" style="stroke:#181818;stroke-width:1.0;"/><polygon fill="#181818" points="138.7,687.29,137.0359,696.9973,139.9295,692.1365,144.7903,695.0301,138.7,687.29" style="stroke:#181818;stroke-width:1.0;"/></g><!--MD5=[543bb2115b5a10697a67507a00f6a2f4]
reverse link Concept to Definition--><g id="link_Concept_Definition"><path codeLine="55" d="M252.09,448.54 C252.09,484.09 252.09,526.38 252.09,551.93 " fill="none" id="Concept-backto-Definition" style="stroke:#181818;stroke-width:1.0;"/><polygon fill="none" points="252.09,435.29,248.09,441.29,252.09,447.29,256.09,441.29,252.09,435.29" style="stroke:#181818;stroke-width:1.0;"/></g><!--MD5=[38796b68b5180f699f927fbe8d179b6a]
reverse link Definition to Justification--><g id="link_Definition_Justification"><path codeLine="56" d="M263.46,612.65 C273.57,644.32 288.04,689.67 296.7,716.85 " fill="none" id="Definition-backto-Justification" style="stroke:#181818;stroke-width:1.0;"/><polygon fill="none" points="259.43,600.01,257.4458,606.9427,263.082,611.4408,265.0663,604.508,259.43,600.01" style="stroke:#181818;stroke-width:1.0;"/></g><!--MD5=[54f9360500e0fd532969fc16f437bbea]
reverse link Concept to Relation--><g id="link_Concept_Relation"><path codeLine="57" d="M225.47,447.34 C199.4,507.93 161.04,597.06 143.07,638.81 " fill="none" id="Concept-backto-Relation" style="stroke:#181818;stroke-width:1.0;"/><polygon fill="none" points="230.68,435.25,224.6331,439.1787,225.9339,446.2715,231.9808,442.3428,230.68,435.25" style="stroke:#181818;stroke-width:1.0;"/></g><!--MD5=[3e23c87a985df3c2da55c80a43bfcd45]
link Executor to Evaluation--><g id="link_Executor_Evaluation"><path codeLine="59" d="M254.67,273.25 C291.59,296.73 348.52,332.91 386.98,357.37 " fill="none" id="Executor-to-Evaluation" style="stroke:#181818;stroke-width:1.0;"/><polygon fill="#181818" points="391.58,360.29,386.1399,352.0799,387.3635,357.6028,381.8405,358.8264,391.58,360.29" style="stroke:#181818;stroke-width:1.0;"/><text fill="#000000" font-family="sans-serif" font-size="13" lengthAdjust="spacing" textLength="20" x="359.6618" y="349.5763">0..*</text></g><!--MD5=[7ea0c49f743e358ac875b85df2ad47d3]
link Evaluation to Test--><g id="link_Evaluation_Test"><path codeLine="60" d="M444.77,408.74 C468.03,441.16 510.47,500.29 537.96,538.59 " fill="none" id="Evaluation-to-Test" style="stroke:#181818;stroke-width:1.0;"/><polygon fill="#181818" points="540.9,542.69,538.8981,533.0467,537.983,538.6291,532.4007,537.7139,540.9,542.69" style="stroke:#181818;stroke-width:1.0;"/></g><!--MD5=[dbcaedebb070bbdd4f1f81456a517a7e]
link Editor to Concept--><g id="link_Editor_Concept"><path codeLine="62" d="M130.7,273.25 C151.31,291.97 180.82,318.78 205.59,341.27 " fill="none" id="Editor-to-Concept" style="stroke:#181818;stroke-width:1.0;stroke-dasharray:7.0,7.0;"/><polygon fill="#181818" points="209.52,344.84,205.5443,335.8292,205.8177,341.4795,200.1675,341.7529,209.52,344.84" style="stroke:#181818;stroke-width:1.0;"/></g><!--MD5=[f3154c50d89c8fec986e56ef836e5177]
reverse link Concept to OpenQuestion--><g id="link_Concept_OpenQuestion"><path codeLine="63" d="M299.01,414.37 C345.59,447.05 410.09,504.94 410.09,575 C410.09,575 410.09,575 410.09,851 C410.09,887.87 377.93,916.58 349.04,934.94 " fill="none" id="Concept-backto-OpenQuestion" style="stroke:#181818;stroke-width:1.0;stroke-dasharray:7.0,7.0;"/><polygon fill="#181818" points="294.85,411.49,299.9668,419.9054,298.9589,414.339,304.5252,413.3311,294.85,411.49" style="stroke:#181818;stroke-width:1.0;"/></g><!--MD5=[9fac5a92095d82c34ec834b068648827]
link Reviewer to AnswersToReview--><g id="link_Reviewer_AnswersToReview"><path codeLine="65" d="M53.07,513.1 C35.12,550.91 6,627.71 31.09,687 C56.3,746.58 115.33,795.02 156,822.94 " fill="none" id="Reviewer-to-AnswersToReview" style="stroke:#181818;stroke-width:1.0;stroke-dasharray:7.0,7.0;"/><polygon fill="#181818" points="160.37,825.91,155.1864,817.5356,156.2386,823.0938,150.6804,824.1459,160.37,825.91" style="stroke:#181818;stroke-width:1.0;"/><text fill="#000000" font-family="sans-serif" font-size="13" lengthAdjust="spacing" textLength="40" x="32.09" y="668.4951">Review</text></g><!--MD5=[bb3d97f09542411db1527b071cca8268]
link Test to Question--><g id="link_Test_Question"><path codeLine="67" d="M580.6026,620.4174 C580.6026,620.4174 603.31,680.11 612.6,704.53 " fill="none" id="Test-Question" style="stroke:#181818;stroke-width:1.0;"/><polygon fill="#181818" points="617.27,716.81,617.8021,706.9755,615.4891,712.1379,610.3267,709.825,617.27,716.81" style="stroke:#181818;stroke-width:1.0;"/><line style="stroke:#181818;stroke-width:1.0;" x1="615.4891" x2="612.65" y1="712.1379" y2="704.66"/><polygon fill="#181818" points="576.34,609.2,574.7322,616.2296,580.6026,620.4174,582.2104,613.3878,576.34,609.2" style="stroke:#181818;stroke-width:1.0;"/><text fill="#000000" font-family="sans-serif" font-size="13" lengthAdjust="spacing" textLength="27" x="584.5505" y="706.1015">10..*</text></g><!--MD5=[6eeca14f8a2ed45d1117f4ed4af75b7e]
link Question to Statement--><g id="link_Question_Statement"><path codeLine="68" d="M681.8662,764.5253 C681.8662,764.5253 786.25,806.67 830.59,824.57 " fill="none" id="Question-Statement" style="stroke:#181818;stroke-width:1.0;"/><polygon fill="#181818" points="842.66,829.44,835.8138,822.3598,838.0241,827.567,832.8169,829.7773,842.66,829.44" style="stroke:#181818;stroke-width:1.0;"/><line style="stroke:#181818;stroke-width:1.0;" x1="838.0241" x2="830.605" y1="827.567" y2="824.58"/><polygon fill="#181818" points="670.74,760.03,674.8047,765.9864,681.8662,764.5253,677.8015,758.5689,670.74,760.03" style="stroke:#181818;stroke-width:1.0;"/></g><!--MD5=[bcbd408316bb9144f3569d3bcde56d28]
link Question to Incorrect--><g id="link_Question_Incorrect"><path codeLine="69" d="M624.443,777.2066 C624.443,777.2066 623.31,801.5 622.79,812.56 " fill="none" id="Question-Incorrect" style="stroke:#181818;stroke-width:1.0;"/><polygon fill="#181818" points="622.17,825.83,626.5811,817.0242,622.4008,820.8353,618.5897,816.655,622.17,825.83" style="stroke:#181818;stroke-width:1.0;"/><line style="stroke:#181818;stroke-width:1.0;" x1="622.4008" x2="622.775" y1="820.8353" y2="812.84"/><polygon fill="#181818" points="625.01,765.22,620.731,771.0243,624.443,777.2066,628.722,771.4023,625.01,765.22" style="stroke:#181818;stroke-width:1.0;"/><text fill="#000000" font-family="sans-serif" font-size="13" lengthAdjust="spacing" textLength="7" x="614.5499" y="815.1266">3</text></g><!--MD5=[fad82a5e9ec53f6abc538956bca6f09b]
link Question to Correct--><g id="link_Question_Correct"><path codeLine="70" d="M590.3479,773.0977 C590.3479,773.0977 555.38,803.52 539.64,817.21 " fill="none" id="Question-Correct" style="stroke:#181818;stroke-width:1.0;"/><polygon fill="#181818" points="529.73,825.83,539.1471,822.9459,533.5041,822.5503,533.8996,816.9073,529.73,825.83" style="stroke:#181818;stroke-width:1.0;"/><line style="stroke:#181818;stroke-width:1.0;" x1="533.5041" x2="539.535" y1="822.5503" y2="817.295"/><polygon fill="#181818" points="599.4,765.22,592.248,766.1415,590.3479,773.0977,597.4998,772.1762,599.4,765.22" style="stroke:#181818;stroke-width:1.0;"/></g><!--MD5=[b1491d38e87214202fddacec717a9c8d]
reverse link Answer to Correct--><g id="link_Answer_Correct"><path codeLine="71" d="M504.28,785.58 C504.02,799.36 503.74,814.06 503.52,825.83 " fill="none" id="Answer-backto-Correct" style="stroke:#181818;stroke-width:1.0;"/><polygon fill="none" points="497.28,785.08,504.66,765.22,511.28,785.34,497.28,785.08" style="stroke:#181818;stroke-width:1.0;"/></g><!--MD5=[a6181c8180a1587156cddad319d63c9e]
reverse link Answer to Incorrect--><g id="link_Answer_Incorrect"><path codeLine="72" d="M544.96,778.78 C561.88,794.38 581.08,812.1 595.97,825.83 " fill="none" id="Answer-backto-Incorrect" style="stroke:#181818;stroke-width:1.0;"/><polygon fill="none" points="540.22,783.92,530.26,765.22,549.71,773.63,540.22,783.92" style="stroke:#181818;stroke-width:1.0;"/></g><!--MD5=[98df2f76ab45609c36aa45d6b9c3faee]
link Question to Category--><g id="link_Question_Category"><path codeLine="74" d="M660.8322,773.2447 C660.8322,773.2447 694.29,803.32 709.34,816.86 " fill="none" id="Question-Category" style="stroke:#181818;stroke-width:1.0;"/><polygon fill="#181818" points="719.32,825.83,715.2967,816.8404,715.6,822.4891,709.9513,822.7924,719.32,825.83" style="stroke:#181818;stroke-width:1.0;"/><line style="stroke:#181818;stroke-width:1.0;" x1="715.6" x2="709.65" y1="822.4891" y2="817.135"/><polygon fill="#181818" points="651.91,765.22,653.6962,772.2064,660.8322,773.2447,659.046,766.2583,651.91,765.22" style="stroke:#181818;stroke-width:1.0;"/></g><!--MD5=[a5725b0440277e7b298212d4ab098951]
link Category to Category--><g id="link_Category_Category"><path codeLine="75" d="M802.3181,840.1712 C802.3181,840.1712 825.09,844.46 825.09,850 C825.09,855.54 816.12,858.8 803.69,859.8 " fill="none" id="Category-Category" style="stroke:#181818;stroke-width:1.0;"/><polygon fill="#181818" points="790.32,860.04,799.389,863.881,795.3192,859.952,799.2482,855.8822,790.32,860.04" style="stroke:#181818;stroke-width:1.0;"/><line style="stroke:#181818;stroke-width:1.0;" x1="795.3192" x2="803.32" y1="859.952" y2="859.805"/><polygon fill="#181818" points="790.32,839.96,796.2487,844.065,802.3181,840.1712,796.3895,836.0662,790.32,839.96" style="stroke:#181818;stroke-width:1.0;"/><text fill="#000000" font-family="sans-serif" font-size="13" lengthAdjust="spacing" textLength="20" x="798.0867" y="857.8467">0..*</text></g><!--MD5=[e32c185f33a6a7505be3d176783fe700]
@startuml OpoTestDomain

class Community

class User

class Reviewer

class Editor 

class Executor

class Evaluation

class Category 

class Test {
    categories
}

class AnswersToReview

class Concept {
    keyword
    level
    ...
}

class OpenQuestion {
}

class Question {
}

class Statement

class Answer 

class Correct

Class Incorrect

Community *- -> "1..*" User
Community *- -> Concept


User <|- - Editor
Editor <|- -  Reviewer
User <|- - Executor

AnswersToReview <- - OpenQuestion
Definition <- - AnswersToReview
Justification <- - AnswersToReview
Relation <- - AnswersToReview

Concept o- - Definition
Definition o- - Justification
Concept o- - Relation

Executor - -> "0..*" Evaluation
Evaluation - -> Test

Editor ..> Concept
Concept <.. OpenQuestion
'OpenQuestion - -> Question
Reviewer ..> AnswersToReview : Review

Test *- -> "10..*" Question
Question *- ->   Statement
Question *- -> "3" Incorrect
Question *- ->   Correct
Answer <|- - Correct
Answer <|- - Incorrect

Question *- -> Category
Category *- ->"0..*" Category







@end

@startuml OpoTestDomain

class Community

class User

class Reviewer

class Editor 

class Executor

class Evaluation

class Category 

class Test {
    categories
}

class AnswersToReview

class Concept {
    keyword
    level
    ...
}

class OpenQuestion {
}

class Question {
}

class Statement

class Answer 

class Correct

Class Incorrect

Community *- -> "1..*" User
Community *- -> Concept


User <|- - Editor
Editor <|- -  Reviewer
User <|- - Executor

AnswersToReview <- - OpenQuestion
Definition <- - AnswersToReview
Justification <- - AnswersToReview
Relation <- - AnswersToReview

Concept o- - Definition
Definition o- - Justification
Concept o- - Relation

Executor - -> "0..*" Evaluation
Evaluation - -> Test

Editor ..> Concept
Concept <.. OpenQuestion
Reviewer ..> AnswersToReview : Review

Test *- -> "10..*" Question
Question *- ->   Statement
Question *- -> "3" Incorrect
Question *- ->   Correct
Answer <|- - Correct
Answer <|- - Incorrect

Question *- -> Category
Category *- ->"0..*" Category







@end

PlantUML version 1.2022.7(Mon Aug 22 18:01:30 WEST 2022)
(GPL source distribution)
Java Runtime: OpenJDK Runtime Environment
JVM: OpenJDK 64-Bit Server VM
Default Encoding: Cp1252
Language: es
Country: ES
--></g></svg>