<?xml version="1.0" encoding="UTF-8" standalone="no"?><svg xmlns="http://www.w3.org/2000/svg" xmlns:xlink="http://www.w3.org/1999/xlink" contentStyleType="text/css" height="977px" preserveAspectRatio="none" style="width:482px;height:977px;background:#FFFFFF;" version="1.1" viewBox="0 0 482 977" width="482px" zoomAndPan="magnify"><defs/><g><!--MD5=[668d633d11bedc8952753581a2dda3db]
class Community--><g id="elem_Community"><rect codeLine="2" fill="#F1F1F1" height="48" id="Community" rx="2.5" ry="2.5" style="stroke:#181818;stroke-width:0.5;" width="102" x="187" y="7"/><ellipse cx="202" cy="23" fill="#ADD1B2" rx="11" ry="11" style="stroke:#181818;stroke-width:1.0;"/><path d="M204.7656,18.875 Q204.9219,18.6563 205.1094,18.5469 Q205.2969,18.4375 205.5156,18.4375 Q205.8906,18.4375 206.125,18.7031 Q206.3594,18.9531 206.3594,19.5625 L206.3594,21.0156 Q206.3594,21.625 206.125,21.8906 Q205.8906,22.1563 205.5156,22.1563 Q205.1719,22.1563 204.9688,21.9531 Q204.7656,21.7656 204.6563,21.25 Q204.6094,20.8906 204.4219,20.7031 Q204.0938,20.3281 203.4844,20.1094 Q202.875,19.8906 202.25,19.8906 Q201.4844,19.8906 200.8438,20.2188 Q200.2188,20.5469 199.7188,21.2969 Q199.2344,22.0469 199.2344,23.0781 L199.2344,24.1719 Q199.2344,25.4063 200.125,26.2344 Q201.0156,27.0469 202.6094,27.0469 Q203.5469,27.0469 204.2031,26.7969 Q204.5938,26.6406 205.0156,26.2031 Q205.2813,25.9375 205.4219,25.8594 Q205.5781,25.7813 205.7813,25.7813 Q206.1094,25.7813 206.3594,26.0469 Q206.625,26.2969 206.625,26.6406 Q206.625,26.9844 206.2813,27.3906 Q205.7813,27.9688 204.9844,28.2969 Q203.9063,28.75 202.6094,28.75 Q201.0938,28.75 199.8906,28.125 Q198.9063,27.625 198.2188,26.5625 Q197.5313,25.4844 197.5313,24.2031 L197.5313,23.0469 Q197.5313,21.7188 198.1406,20.5781 Q198.7656,19.4219 199.8594,18.8125 Q200.9531,18.1875 202.1875,18.1875 Q202.9219,18.1875 203.5625,18.3594 Q204.2188,18.5156 204.7656,18.875 Z " fill="#000000"/><text fill="#000000" font-family="sans-serif" font-size="14" lengthAdjust="spacing" textLength="70" x="216" y="28.7285">Community</text><line style="stroke:#181818;stroke-width:0.5;" x1="188" x2="288" y1="39" y2="39"/><line style="stroke:#181818;stroke-width:0.5;" x1="188" x2="288" y1="47" y2="47"/></g><!--MD5=[3fd616f346a44cd59a91eb10b19e157c]
class User--><g id="elem_User"><rect codeLine="4" fill="#F1F1F1" height="48" id="User" rx="2.5" ry="2.5" style="stroke:#181818;stroke-width:0.5;" width="61" x="147.5" y="116"/><ellipse cx="162.5" cy="132" fill="#ADD1B2" rx="11" ry="11" style="stroke:#181818;stroke-width:1.0;"/><path d="M165.2656,127.875 Q165.4219,127.6563 165.6094,127.5469 Q165.7969,127.4375 166.0156,127.4375 Q166.3906,127.4375 166.625,127.7031 Q166.8594,127.9531 166.8594,128.5625 L166.8594,130.0156 Q166.8594,130.625 166.625,130.8906 Q166.3906,131.1563 166.0156,131.1563 Q165.6719,131.1563 165.4688,130.9531 Q165.2656,130.7656 165.1563,130.25 Q165.1094,129.8906 164.9219,129.7031 Q164.5938,129.3281 163.9844,129.1094 Q163.375,128.8906 162.75,128.8906 Q161.9844,128.8906 161.3438,129.2188 Q160.7188,129.5469 160.2188,130.2969 Q159.7344,131.0469 159.7344,132.0781 L159.7344,133.1719 Q159.7344,134.4063 160.625,135.2344 Q161.5156,136.0469 163.1094,136.0469 Q164.0469,136.0469 164.7031,135.7969 Q165.0938,135.6406 165.5156,135.2031 Q165.7813,134.9375 165.9219,134.8594 Q166.0781,134.7813 166.2813,134.7813 Q166.6094,134.7813 166.8594,135.0469 Q167.125,135.2969 167.125,135.6406 Q167.125,135.9844 166.7813,136.3906 Q166.2813,136.9688 165.4844,137.2969 Q164.4063,137.75 163.1094,137.75 Q161.5938,137.75 160.3906,137.125 Q159.4063,136.625 158.7188,135.5625 Q158.0313,134.4844 158.0313,133.2031 L158.0313,132.0469 Q158.0313,130.7188 158.6406,129.5781 Q159.2656,128.4219 160.3594,127.8125 Q161.4531,127.1875 162.6875,127.1875 Q163.4219,127.1875 164.0625,127.3594 Q164.7188,127.5156 165.2656,127.875 Z " fill="#000000"/><text fill="#000000" font-family="sans-serif" font-size="14" lengthAdjust="spacing" textLength="29" x="176.5" y="137.7285">User</text><line style="stroke:#181818;stroke-width:0.5;" x1="148.5" x2="207.5" y1="148" y2="148"/><line style="stroke:#181818;stroke-width:0.5;" x1="148.5" x2="207.5" y1="156" y2="156"/></g><!--MD5=[e76a510855fdf825c81877c657b1fc23]
class Reviewer--><g id="elem_Reviewer"><rect codeLine="6" fill="#F1F1F1" height="48" id="Reviewer" rx="2.5" ry="2.5" style="stroke:#181818;stroke-width:0.5;" width="90" x="282" y="381"/><ellipse cx="297" cy="397" fill="#ADD1B2" rx="11" ry="11" style="stroke:#181818;stroke-width:1.0;"/><path d="M299.7656,392.875 Q299.9219,392.6563 300.1094,392.5469 Q300.2969,392.4375 300.5156,392.4375 Q300.8906,392.4375 301.125,392.7031 Q301.3594,392.9531 301.3594,393.5625 L301.3594,395.0156 Q301.3594,395.625 301.125,395.8906 Q300.8906,396.1563 300.5156,396.1563 Q300.1719,396.1563 299.9688,395.9531 Q299.7656,395.7656 299.6563,395.25 Q299.6094,394.8906 299.4219,394.7031 Q299.0938,394.3281 298.4844,394.1094 Q297.875,393.8906 297.25,393.8906 Q296.4844,393.8906 295.8438,394.2188 Q295.2188,394.5469 294.7188,395.2969 Q294.2344,396.0469 294.2344,397.0781 L294.2344,398.1719 Q294.2344,399.4063 295.125,400.2344 Q296.0156,401.0469 297.6094,401.0469 Q298.5469,401.0469 299.2031,400.7969 Q299.5938,400.6406 300.0156,400.2031 Q300.2813,399.9375 300.4219,399.8594 Q300.5781,399.7813 300.7813,399.7813 Q301.1094,399.7813 301.3594,400.0469 Q301.625,400.2969 301.625,400.6406 Q301.625,400.9844 301.2813,401.3906 Q300.7813,401.9688 299.9844,402.2969 Q298.9063,402.75 297.6094,402.75 Q296.0938,402.75 294.8906,402.125 Q293.9063,401.625 293.2188,400.5625 Q292.5313,399.4844 292.5313,398.2031 L292.5313,397.0469 Q292.5313,395.7188 293.1406,394.5781 Q293.7656,393.4219 294.8594,392.8125 Q295.9531,392.1875 297.1875,392.1875 Q297.9219,392.1875 298.5625,392.3594 Q299.2188,392.5156 299.7656,392.875 Z " fill="#000000"/><text fill="#000000" font-family="sans-serif" font-size="14" lengthAdjust="spacing" textLength="58" x="311" y="402.7285">Reviewer</text><line style="stroke:#181818;stroke-width:0.5;" x1="283" x2="371" y1="413" y2="413"/><line style="stroke:#181818;stroke-width:0.5;" x1="283" x2="371" y1="421" y2="421"/></g><!--MD5=[559db66c208d2736f857be4b8ed380a2]
class Editor--><g id="elem_Editor"><rect codeLine="8" fill="#F1F1F1" height="48" id="Editor" rx="2.5" ry="2.5" style="stroke:#181818;stroke-width:0.5;" width="69" x="211.5" y="272"/><ellipse cx="226.5" cy="288" fill="#ADD1B2" rx="11" ry="11" style="stroke:#181818;stroke-width:1.0;"/><path d="M229.2656,283.875 Q229.4219,283.6563 229.6094,283.5469 Q229.7969,283.4375 230.0156,283.4375 Q230.3906,283.4375 230.625,283.7031 Q230.8594,283.9531 230.8594,284.5625 L230.8594,286.0156 Q230.8594,286.625 230.625,286.8906 Q230.3906,287.1563 230.0156,287.1563 Q229.6719,287.1563 229.4688,286.9531 Q229.2656,286.7656 229.1563,286.25 Q229.1094,285.8906 228.9219,285.7031 Q228.5938,285.3281 227.9844,285.1094 Q227.375,284.8906 226.75,284.8906 Q225.9844,284.8906 225.3438,285.2188 Q224.7188,285.5469 224.2188,286.2969 Q223.7344,287.0469 223.7344,288.0781 L223.7344,289.1719 Q223.7344,290.4063 224.625,291.2344 Q225.5156,292.0469 227.1094,292.0469 Q228.0469,292.0469 228.7031,291.7969 Q229.0938,291.6406 229.5156,291.2031 Q229.7813,290.9375 229.9219,290.8594 Q230.0781,290.7813 230.2813,290.7813 Q230.6094,290.7813 230.8594,291.0469 Q231.125,291.2969 231.125,291.6406 Q231.125,291.9844 230.7813,292.3906 Q230.2813,292.9688 229.4844,293.2969 Q228.4063,293.75 227.1094,293.75 Q225.5938,293.75 224.3906,293.125 Q223.4063,292.625 222.7188,291.5625 Q222.0313,290.4844 222.0313,289.2031 L222.0313,288.0469 Q222.0313,286.7188 222.6406,285.5781 Q223.2656,284.4219 224.3594,283.8125 Q225.4531,283.1875 226.6875,283.1875 Q227.4219,283.1875 228.0625,283.3594 Q228.7188,283.5156 229.2656,283.875 Z " fill="#000000"/><text fill="#000000" font-family="sans-serif" font-size="14" lengthAdjust="spacing" textLength="37" x="240.5" y="293.7285">Editor</text><line style="stroke:#181818;stroke-width:0.5;" x1="212.5" x2="279.5" y1="304" y2="304"/><line style="stroke:#181818;stroke-width:0.5;" x1="212.5" x2="279.5" y1="312" y2="312"/></g><!--MD5=[a0a1f7f9662f43ef0ece806266f72a6f]
class Executor--><g id="elem_Executor"><rect codeLine="10" fill="#F1F1F1" height="48" id="Executor" rx="2.5" ry="2.5" style="stroke:#181818;stroke-width:0.5;" width="87" x="16.5" y="272"/><ellipse cx="31.5" cy="288" fill="#ADD1B2" rx="11" ry="11" style="stroke:#181818;stroke-width:1.0;"/><path d="M34.2656,283.875 Q34.4219,283.6563 34.6094,283.5469 Q34.7969,283.4375 35.0156,283.4375 Q35.3906,283.4375 35.625,283.7031 Q35.8594,283.9531 35.8594,284.5625 L35.8594,286.0156 Q35.8594,286.625 35.625,286.8906 Q35.3906,287.1563 35.0156,287.1563 Q34.6719,287.1563 34.4688,286.9531 Q34.2656,286.7656 34.1563,286.25 Q34.1094,285.8906 33.9219,285.7031 Q33.5938,285.3281 32.9844,285.1094 Q32.375,284.8906 31.75,284.8906 Q30.9844,284.8906 30.3438,285.2188 Q29.7188,285.5469 29.2188,286.2969 Q28.7344,287.0469 28.7344,288.0781 L28.7344,289.1719 Q28.7344,290.4063 29.625,291.2344 Q30.5156,292.0469 32.1094,292.0469 Q33.0469,292.0469 33.7031,291.7969 Q34.0938,291.6406 34.5156,291.2031 Q34.7813,290.9375 34.9219,290.8594 Q35.0781,290.7813 35.2813,290.7813 Q35.6094,290.7813 35.8594,291.0469 Q36.125,291.2969 36.125,291.6406 Q36.125,291.9844 35.7813,292.3906 Q35.2813,292.9688 34.4844,293.2969 Q33.4063,293.75 32.1094,293.75 Q30.5938,293.75 29.3906,293.125 Q28.4063,292.625 27.7188,291.5625 Q27.0313,290.4844 27.0313,289.2031 L27.0313,288.0469 Q27.0313,286.7188 27.6406,285.5781 Q28.2656,284.4219 29.3594,283.8125 Q30.4531,283.1875 31.6875,283.1875 Q32.4219,283.1875 33.0625,283.3594 Q33.7188,283.5156 34.2656,283.875 Z " fill="#000000"/><text fill="#000000" font-family="sans-serif" font-size="14" lengthAdjust="spacing" textLength="55" x="45.5" y="293.7285">Executor</text><line style="stroke:#181818;stroke-width:0.5;" x1="17.5" x2="102.5" y1="304" y2="304"/><line style="stroke:#181818;stroke-width:0.5;" x1="17.5" x2="102.5" y1="312" y2="312"/></g><!--MD5=[71e8807956d33805e77353b9d7e2df39]
class Evaluation--><g id="elem_Evaluation"><rect codeLine="12" fill="#F1F1F1" height="48" id="Evaluation" rx="2.5" ry="2.5" style="stroke:#181818;stroke-width:0.5;" width="98" x="7" y="381"/><ellipse cx="22" cy="397" fill="#ADD1B2" rx="11" ry="11" style="stroke:#181818;stroke-width:1.0;"/><path d="M24.7656,392.875 Q24.9219,392.6563 25.1094,392.5469 Q25.2969,392.4375 25.5156,392.4375 Q25.8906,392.4375 26.125,392.7031 Q26.3594,392.9531 26.3594,393.5625 L26.3594,395.0156 Q26.3594,395.625 26.125,395.8906 Q25.8906,396.1563 25.5156,396.1563 Q25.1719,396.1563 24.9688,395.9531 Q24.7656,395.7656 24.6563,395.25 Q24.6094,394.8906 24.4219,394.7031 Q24.0938,394.3281 23.4844,394.1094 Q22.875,393.8906 22.25,393.8906 Q21.4844,393.8906 20.8438,394.2188 Q20.2188,394.5469 19.7188,395.2969 Q19.2344,396.0469 19.2344,397.0781 L19.2344,398.1719 Q19.2344,399.4063 20.125,400.2344 Q21.0156,401.0469 22.6094,401.0469 Q23.5469,401.0469 24.2031,400.7969 Q24.5938,400.6406 25.0156,400.2031 Q25.2813,399.9375 25.4219,399.8594 Q25.5781,399.7813 25.7813,399.7813 Q26.1094,399.7813 26.3594,400.0469 Q26.625,400.2969 26.625,400.6406 Q26.625,400.9844 26.2813,401.3906 Q25.7813,401.9688 24.9844,402.2969 Q23.9063,402.75 22.6094,402.75 Q21.0938,402.75 19.8906,402.125 Q18.9063,401.625 18.2188,400.5625 Q17.5313,399.4844 17.5313,398.2031 L17.5313,397.0469 Q17.5313,395.7188 18.1406,394.5781 Q18.7656,393.4219 19.8594,392.8125 Q20.9531,392.1875 22.1875,392.1875 Q22.9219,392.1875 23.5625,392.3594 Q24.2188,392.5156 24.7656,392.875 Z " fill="#000000"/><text fill="#000000" font-family="sans-serif" font-size="14" lengthAdjust="spacing" textLength="66" x="36" y="402.7285">Evaluation</text><line style="stroke:#181818;stroke-width:0.5;" x1="8" x2="104" y1="413" y2="413"/><line style="stroke:#181818;stroke-width:0.5;" x1="8" x2="104" y1="421" y2="421"/></g><!--MD5=[a96594a83e2ecdc78cbf17c2ddf01934]
class Category--><g id="elem_Category"><rect codeLine="14" fill="#F1F1F1" height="48" id="Category" rx="2.5" ry="2.5" style="stroke:#181818;stroke-width:0.5;" width="90" x="38" y="813"/><ellipse cx="53" cy="829" fill="#ADD1B2" rx="11" ry="11" style="stroke:#181818;stroke-width:1.0;"/><path d="M55.7656,824.875 Q55.9219,824.6563 56.1094,824.5469 Q56.2969,824.4375 56.5156,824.4375 Q56.8906,824.4375 57.125,824.7031 Q57.3594,824.9531 57.3594,825.5625 L57.3594,827.0156 Q57.3594,827.625 57.125,827.8906 Q56.8906,828.1563 56.5156,828.1563 Q56.1719,828.1563 55.9688,827.9531 Q55.7656,827.7656 55.6563,827.25 Q55.6094,826.8906 55.4219,826.7031 Q55.0938,826.3281 54.4844,826.1094 Q53.875,825.8906 53.25,825.8906 Q52.4844,825.8906 51.8438,826.2188 Q51.2188,826.5469 50.7188,827.2969 Q50.2344,828.0469 50.2344,829.0781 L50.2344,830.1719 Q50.2344,831.4063 51.125,832.2344 Q52.0156,833.0469 53.6094,833.0469 Q54.5469,833.0469 55.2031,832.7969 Q55.5938,832.6406 56.0156,832.2031 Q56.2813,831.9375 56.4219,831.8594 Q56.5781,831.7813 56.7813,831.7813 Q57.1094,831.7813 57.3594,832.0469 Q57.625,832.2969 57.625,832.6406 Q57.625,832.9844 57.2813,833.3906 Q56.7813,833.9688 55.9844,834.2969 Q54.9063,834.75 53.6094,834.75 Q52.0938,834.75 50.8906,834.125 Q49.9063,833.625 49.2188,832.5625 Q48.5313,831.4844 48.5313,830.2031 L48.5313,829.0469 Q48.5313,827.7188 49.1406,826.5781 Q49.7656,825.4219 50.8594,824.8125 Q51.9531,824.1875 53.1875,824.1875 Q53.9219,824.1875 54.5625,824.3594 Q55.2188,824.5156 55.7656,824.875 Z " fill="#000000"/><text fill="#000000" font-family="sans-serif" font-size="14" lengthAdjust="spacing" textLength="58" x="67" y="834.7285">Category</text><line style="stroke:#181818;stroke-width:0.5;" x1="39" x2="127" y1="845" y2="845"/><line style="stroke:#181818;stroke-width:0.5;" x1="39" x2="127" y1="853" y2="853"/></g><!--MD5=[df38be88ccee13e832d6fafd6288a4ca]
class Test--><g id="elem_Test"><rect codeLine="16" fill="#F1F1F1" height="48" id="Test" rx="2.5" ry="2.5" style="stroke:#181818;stroke-width:0.5;" width="60" x="116" y="507"/><ellipse cx="131" cy="523" fill="#ADD1B2" rx="11" ry="11" style="stroke:#181818;stroke-width:1.0;"/><path d="M133.7656,518.875 Q133.9219,518.6563 134.1094,518.5469 Q134.2969,518.4375 134.5156,518.4375 Q134.8906,518.4375 135.125,518.7031 Q135.3594,518.9531 135.3594,519.5625 L135.3594,521.0156 Q135.3594,521.625 135.125,521.8906 Q134.8906,522.1563 134.5156,522.1563 Q134.1719,522.1563 133.9688,521.9531 Q133.7656,521.7656 133.6563,521.25 Q133.6094,520.8906 133.4219,520.7031 Q133.0938,520.3281 132.4844,520.1094 Q131.875,519.8906 131.25,519.8906 Q130.4844,519.8906 129.8438,520.2188 Q129.2188,520.5469 128.7188,521.2969 Q128.2344,522.0469 128.2344,523.0781 L128.2344,524.1719 Q128.2344,525.4063 129.125,526.2344 Q130.0156,527.0469 131.6094,527.0469 Q132.5469,527.0469 133.2031,526.7969 Q133.5938,526.6406 134.0156,526.2031 Q134.2813,525.9375 134.4219,525.8594 Q134.5781,525.7813 134.7813,525.7813 Q135.1094,525.7813 135.3594,526.0469 Q135.625,526.2969 135.625,526.6406 Q135.625,526.9844 135.2813,527.3906 Q134.7813,527.9688 133.9844,528.2969 Q132.9063,528.75 131.6094,528.75 Q130.0938,528.75 128.8906,528.125 Q127.9063,527.625 127.2188,526.5625 Q126.5313,525.4844 126.5313,524.2031 L126.5313,523.0469 Q126.5313,521.7188 127.1406,520.5781 Q127.7656,519.4219 128.8594,518.8125 Q129.9531,518.1875 131.1875,518.1875 Q131.9219,518.1875 132.5625,518.3594 Q133.2188,518.5156 133.7656,518.875 Z " fill="#000000"/><text fill="#000000" font-family="sans-serif" font-size="14" lengthAdjust="spacing" textLength="28" x="145" y="528.7285">Test</text><line style="stroke:#181818;stroke-width:0.5;" x1="117" x2="175" y1="539" y2="539"/><line style="stroke:#181818;stroke-width:0.5;" x1="117" x2="175" y1="547" y2="547"/></g><!--MD5=[686fa95824735602dd15f07aadf69888]
class PendingReviewQuestions--><g id="elem_PendingReviewQuestions"><rect codeLine="18" fill="#F1F1F1" height="48" id="PendingReviewQuestions" rx="2.5" ry="2.5" style="stroke:#181818;stroke-width:0.5;" width="193" x="282.5" y="507"/><ellipse cx="297.5" cy="523" fill="#ADD1B2" rx="11" ry="11" style="stroke:#181818;stroke-width:1.0;"/><path d="M300.2656,518.875 Q300.4219,518.6563 300.6094,518.5469 Q300.7969,518.4375 301.0156,518.4375 Q301.3906,518.4375 301.625,518.7031 Q301.8594,518.9531 301.8594,519.5625 L301.8594,521.0156 Q301.8594,521.625 301.625,521.8906 Q301.3906,522.1563 301.0156,522.1563 Q300.6719,522.1563 300.4688,521.9531 Q300.2656,521.7656 300.1563,521.25 Q300.1094,520.8906 299.9219,520.7031 Q299.5938,520.3281 298.9844,520.1094 Q298.375,519.8906 297.75,519.8906 Q296.9844,519.8906 296.3438,520.2188 Q295.7188,520.5469 295.2188,521.2969 Q294.7344,522.0469 294.7344,523.0781 L294.7344,524.1719 Q294.7344,525.4063 295.625,526.2344 Q296.5156,527.0469 298.1094,527.0469 Q299.0469,527.0469 299.7031,526.7969 Q300.0938,526.6406 300.5156,526.2031 Q300.7813,525.9375 300.9219,525.8594 Q301.0781,525.7813 301.2813,525.7813 Q301.6094,525.7813 301.8594,526.0469 Q302.125,526.2969 302.125,526.6406 Q302.125,526.9844 301.7813,527.3906 Q301.2813,527.9688 300.4844,528.2969 Q299.4063,528.75 298.1094,528.75 Q296.5938,528.75 295.3906,528.125 Q294.4063,527.625 293.7188,526.5625 Q293.0313,525.4844 293.0313,524.2031 L293.0313,523.0469 Q293.0313,521.7188 293.6406,520.5781 Q294.2656,519.4219 295.3594,518.8125 Q296.4531,518.1875 297.6875,518.1875 Q298.4219,518.1875 299.0625,518.3594 Q299.7188,518.5156 300.2656,518.875 Z " fill="#000000"/><text fill="#000000" font-family="sans-serif" font-size="14" lengthAdjust="spacing" textLength="161" x="311.5" y="528.7285">PendingReviewQuestions</text><line style="stroke:#181818;stroke-width:0.5;" x1="283.5" x2="474.5" y1="539" y2="539"/><line style="stroke:#181818;stroke-width:0.5;" x1="283.5" x2="474.5" y1="547" y2="547"/></g><!--MD5=[373ae88a10f78ace1fc54598d82915f0]
class AvailableQuestions--><g id="elem_AvailableQuestions"><rect codeLine="20" fill="#F1F1F1" height="48" id="AvailableQuestions" rx="2.5" ry="2.5" style="stroke:#181818;stroke-width:0.5;" width="153" x="296.5" y="194"/><ellipse cx="311.5" cy="210" fill="#ADD1B2" rx="11" ry="11" style="stroke:#181818;stroke-width:1.0;"/><path d="M314.2656,205.875 Q314.4219,205.6563 314.6094,205.5469 Q314.7969,205.4375 315.0156,205.4375 Q315.3906,205.4375 315.625,205.7031 Q315.8594,205.9531 315.8594,206.5625 L315.8594,208.0156 Q315.8594,208.625 315.625,208.8906 Q315.3906,209.1563 315.0156,209.1563 Q314.6719,209.1563 314.4688,208.9531 Q314.2656,208.7656 314.1563,208.25 Q314.1094,207.8906 313.9219,207.7031 Q313.5938,207.3281 312.9844,207.1094 Q312.375,206.8906 311.75,206.8906 Q310.9844,206.8906 310.3438,207.2188 Q309.7188,207.5469 309.2188,208.2969 Q308.7344,209.0469 308.7344,210.0781 L308.7344,211.1719 Q308.7344,212.4063 309.625,213.2344 Q310.5156,214.0469 312.1094,214.0469 Q313.0469,214.0469 313.7031,213.7969 Q314.0938,213.6406 314.5156,213.2031 Q314.7813,212.9375 314.9219,212.8594 Q315.0781,212.7813 315.2813,212.7813 Q315.6094,212.7813 315.8594,213.0469 Q316.125,213.2969 316.125,213.6406 Q316.125,213.9844 315.7813,214.3906 Q315.2813,214.9688 314.4844,215.2969 Q313.4063,215.75 312.1094,215.75 Q310.5938,215.75 309.3906,215.125 Q308.4063,214.625 307.7188,213.5625 Q307.0313,212.4844 307.0313,211.2031 L307.0313,210.0469 Q307.0313,208.7188 307.6406,207.5781 Q308.2656,206.4219 309.3594,205.8125 Q310.4531,205.1875 311.6875,205.1875 Q312.4219,205.1875 313.0625,205.3594 Q313.7188,205.5156 314.2656,205.875 Z " fill="#000000"/><text fill="#000000" font-family="sans-serif" font-size="14" lengthAdjust="spacing" textLength="121" x="325.5" y="215.7285">AvailableQuestions</text><line style="stroke:#181818;stroke-width:0.5;" x1="297.5" x2="448.5" y1="226" y2="226"/><line style="stroke:#181818;stroke-width:0.5;" x1="297.5" x2="448.5" y1="234" y2="234"/></g><!--MD5=[fc7123defb831ecdd44b2d9bcef6cceb]
class Question--><g id="elem_Question"><rect codeLine="22" fill="#F1F1F1" height="136.0469" id="Question" rx="2.5" ry="2.5" style="stroke:#181818;stroke-width:0.5;" width="96" x="181" y="616"/><ellipse cx="199.15" cy="632" fill="#ADD1B2" rx="11" ry="11" style="stroke:#181818;stroke-width:1.0;"/><path d="M201.9156,627.875 Q202.0719,627.6563 202.2594,627.5469 Q202.4469,627.4375 202.6656,627.4375 Q203.0406,627.4375 203.275,627.7031 Q203.5094,627.9531 203.5094,628.5625 L203.5094,630.0156 Q203.5094,630.625 203.275,630.8906 Q203.0406,631.1563 202.6656,631.1563 Q202.3219,631.1563 202.1188,630.9531 Q201.9156,630.7656 201.8063,630.25 Q201.7594,629.8906 201.5719,629.7031 Q201.2438,629.3281 200.6344,629.1094 Q200.025,628.8906 199.4,628.8906 Q198.6344,628.8906 197.9938,629.2188 Q197.3688,629.5469 196.8688,630.2969 Q196.3844,631.0469 196.3844,632.0781 L196.3844,633.1719 Q196.3844,634.4063 197.275,635.2344 Q198.1656,636.0469 199.7594,636.0469 Q200.6969,636.0469 201.3531,635.7969 Q201.7438,635.6406 202.1656,635.2031 Q202.4313,634.9375 202.5719,634.8594 Q202.7281,634.7813 202.9313,634.7813 Q203.2594,634.7813 203.5094,635.0469 Q203.775,635.2969 203.775,635.6406 Q203.775,635.9844 203.4313,636.3906 Q202.9313,636.9688 202.1344,637.2969 Q201.0563,637.75 199.7594,637.75 Q198.2438,637.75 197.0406,637.125 Q196.0563,636.625 195.3688,635.5625 Q194.6813,634.4844 194.6813,633.2031 L194.6813,632.0469 Q194.6813,630.7188 195.2906,629.5781 Q195.9156,628.4219 197.0094,627.8125 Q198.1031,627.1875 199.3375,627.1875 Q200.0719,627.1875 200.7125,627.3594 Q201.3688,627.5156 201.9156,627.875 Z " fill="#000000"/><text fill="#000000" font-family="sans-serif" font-size="14" lengthAdjust="spacing" textLength="57" x="213.85" y="637.7285">Question</text><line style="stroke:#181818;stroke-width:0.5;" x1="182" x2="276" y1="648" y2="648"/><text fill="#000000" font-family="sans-serif" font-size="14" lengthAdjust="spacing" textLength="28" x="187" y="666.5332">date</text><text fill="#000000" font-family="sans-serif" font-size="14" lengthAdjust="spacing" textLength="56" x="187" y="684.1426">reviewed</text><text fill="#000000" font-family="sans-serif" font-size="14" lengthAdjust="spacing" textLength="27" x="187" y="701.752">type</text><text fill="#000000" font-family="sans-serif" font-size="14" lengthAdjust="spacing" textLength="84" x="187" y="719.3613">public/private</text><text fill="#000000" font-family="sans-serif" font-size="14" lengthAdjust="spacing" textLength="12" x="187" y="736.9707">...</text><line style="stroke:#181818;stroke-width:0.5;" x1="182" x2="276" y1="744.0469" y2="744.0469"/></g><!--MD5=[a61a298976b7d1d94498f45c2ebfa10b]
class Statement--><g id="elem_Statement"><rect codeLine="30" fill="#F1F1F1" height="48" id="Statement" rx="2.5" ry="2.5" style="stroke:#181818;stroke-width:0.5;" width="96" x="181" y="813"/><ellipse cx="196" cy="829" fill="#ADD1B2" rx="11" ry="11" style="stroke:#181818;stroke-width:1.0;"/><path d="M198.7656,824.875 Q198.9219,824.6563 199.1094,824.5469 Q199.2969,824.4375 199.5156,824.4375 Q199.8906,824.4375 200.125,824.7031 Q200.3594,824.9531 200.3594,825.5625 L200.3594,827.0156 Q200.3594,827.625 200.125,827.8906 Q199.8906,828.1563 199.5156,828.1563 Q199.1719,828.1563 198.9688,827.9531 Q198.7656,827.7656 198.6563,827.25 Q198.6094,826.8906 198.4219,826.7031 Q198.0938,826.3281 197.4844,826.1094 Q196.875,825.8906 196.25,825.8906 Q195.4844,825.8906 194.8438,826.2188 Q194.2188,826.5469 193.7188,827.2969 Q193.2344,828.0469 193.2344,829.0781 L193.2344,830.1719 Q193.2344,831.4063 194.125,832.2344 Q195.0156,833.0469 196.6094,833.0469 Q197.5469,833.0469 198.2031,832.7969 Q198.5938,832.6406 199.0156,832.2031 Q199.2813,831.9375 199.4219,831.8594 Q199.5781,831.7813 199.7813,831.7813 Q200.1094,831.7813 200.3594,832.0469 Q200.625,832.2969 200.625,832.6406 Q200.625,832.9844 200.2813,833.3906 Q199.7813,833.9688 198.9844,834.2969 Q197.9063,834.75 196.6094,834.75 Q195.0938,834.75 193.8906,834.125 Q192.9063,833.625 192.2188,832.5625 Q191.5313,831.4844 191.5313,830.2031 L191.5313,829.0469 Q191.5313,827.7188 192.1406,826.5781 Q192.7656,825.4219 193.8594,824.8125 Q194.9531,824.1875 196.1875,824.1875 Q196.9219,824.1875 197.5625,824.3594 Q198.2188,824.5156 198.7656,824.875 Z " fill="#000000"/><text fill="#000000" font-family="sans-serif" font-size="14" lengthAdjust="spacing" textLength="64" x="210" y="834.7285">Statement</text><line style="stroke:#181818;stroke-width:0.5;" x1="182" x2="276" y1="845" y2="845"/><line style="stroke:#181818;stroke-width:0.5;" x1="182" x2="276" y1="853" y2="853"/></g><!--MD5=[f9fadfa5a66b7e5a67b370cd443ffe52]
class Answer--><g id="elem_Answer"><rect codeLine="32" fill="#F1F1F1" height="48" id="Answer" rx="2.5" ry="2.5" style="stroke:#181818;stroke-width:0.5;" width="78" x="312" y="813"/><ellipse cx="327" cy="829" fill="#ADD1B2" rx="11" ry="11" style="stroke:#181818;stroke-width:1.0;"/><path d="M329.7656,824.875 Q329.9219,824.6563 330.1094,824.5469 Q330.2969,824.4375 330.5156,824.4375 Q330.8906,824.4375 331.125,824.7031 Q331.3594,824.9531 331.3594,825.5625 L331.3594,827.0156 Q331.3594,827.625 331.125,827.8906 Q330.8906,828.1563 330.5156,828.1563 Q330.1719,828.1563 329.9688,827.9531 Q329.7656,827.7656 329.6563,827.25 Q329.6094,826.8906 329.4219,826.7031 Q329.0938,826.3281 328.4844,826.1094 Q327.875,825.8906 327.25,825.8906 Q326.4844,825.8906 325.8438,826.2188 Q325.2188,826.5469 324.7188,827.2969 Q324.2344,828.0469 324.2344,829.0781 L324.2344,830.1719 Q324.2344,831.4063 325.125,832.2344 Q326.0156,833.0469 327.6094,833.0469 Q328.5469,833.0469 329.2031,832.7969 Q329.5938,832.6406 330.0156,832.2031 Q330.2813,831.9375 330.4219,831.8594 Q330.5781,831.7813 330.7813,831.7813 Q331.1094,831.7813 331.3594,832.0469 Q331.625,832.2969 331.625,832.6406 Q331.625,832.9844 331.2813,833.3906 Q330.7813,833.9688 329.9844,834.2969 Q328.9063,834.75 327.6094,834.75 Q326.0938,834.75 324.8906,834.125 Q323.9063,833.625 323.2188,832.5625 Q322.5313,831.4844 322.5313,830.2031 L322.5313,829.0469 Q322.5313,827.7188 323.1406,826.5781 Q323.7656,825.4219 324.8594,824.8125 Q325.9531,824.1875 327.1875,824.1875 Q327.9219,824.1875 328.5625,824.3594 Q329.2188,824.5156 329.7656,824.875 Z " fill="#000000"/><text fill="#000000" font-family="sans-serif" font-size="14" lengthAdjust="spacing" textLength="46" x="341" y="834.7285">Answer</text><line style="stroke:#181818;stroke-width:0.5;" x1="313" x2="389" y1="845" y2="845"/><line style="stroke:#181818;stroke-width:0.5;" x1="313" x2="389" y1="853" y2="853"/></g><!--MD5=[bc629657279eaa9349f412646650f2c5]
class Correct--><g id="elem_Correct"><rect codeLine="34" fill="#F1F1F1" height="48" id="Correct" rx="2.5" ry="2.5" style="stroke:#181818;stroke-width:0.5;" width="79" x="255.5" y="922"/><ellipse cx="270.5" cy="938" fill="#ADD1B2" rx="11" ry="11" style="stroke:#181818;stroke-width:1.0;"/><path d="M273.2656,933.875 Q273.4219,933.6563 273.6094,933.5469 Q273.7969,933.4375 274.0156,933.4375 Q274.3906,933.4375 274.625,933.7031 Q274.8594,933.9531 274.8594,934.5625 L274.8594,936.0156 Q274.8594,936.625 274.625,936.8906 Q274.3906,937.1563 274.0156,937.1563 Q273.6719,937.1563 273.4688,936.9531 Q273.2656,936.7656 273.1563,936.25 Q273.1094,935.8906 272.9219,935.7031 Q272.5938,935.3281 271.9844,935.1094 Q271.375,934.8906 270.75,934.8906 Q269.9844,934.8906 269.3438,935.2188 Q268.7188,935.5469 268.2188,936.2969 Q267.7344,937.0469 267.7344,938.0781 L267.7344,939.1719 Q267.7344,940.4063 268.625,941.2344 Q269.5156,942.0469 271.1094,942.0469 Q272.0469,942.0469 272.7031,941.7969 Q273.0938,941.6406 273.5156,941.2031 Q273.7813,940.9375 273.9219,940.8594 Q274.0781,940.7813 274.2813,940.7813 Q274.6094,940.7813 274.8594,941.0469 Q275.125,941.2969 275.125,941.6406 Q275.125,941.9844 274.7813,942.3906 Q274.2813,942.9688 273.4844,943.2969 Q272.4063,943.75 271.1094,943.75 Q269.5938,943.75 268.3906,943.125 Q267.4063,942.625 266.7188,941.5625 Q266.0313,940.4844 266.0313,939.2031 L266.0313,938.0469 Q266.0313,936.7188 266.6406,935.5781 Q267.2656,934.4219 268.3594,933.8125 Q269.4531,933.1875 270.6875,933.1875 Q271.4219,933.1875 272.0625,933.3594 Q272.7188,933.5156 273.2656,933.875 Z " fill="#000000"/><text fill="#000000" font-family="sans-serif" font-size="14" lengthAdjust="spacing" textLength="47" x="284.5" y="943.7285">Correct</text><line style="stroke:#181818;stroke-width:0.5;" x1="256.5" x2="333.5" y1="954" y2="954"/><line style="stroke:#181818;stroke-width:0.5;" x1="256.5" x2="333.5" y1="962" y2="962"/></g><!--MD5=[d4df30b25862551bb6e4155e35efa20d]
class Wrong--><g id="elem_Wrong"><rect codeLine="36" fill="#F1F1F1" height="48" id="Wrong" rx="2.5" ry="2.5" style="stroke:#181818;stroke-width:0.5;" width="74" x="370" y="922"/><ellipse cx="385" cy="938" fill="#ADD1B2" rx="11" ry="11" style="stroke:#181818;stroke-width:1.0;"/><path d="M387.7656,933.875 Q387.9219,933.6563 388.1094,933.5469 Q388.2969,933.4375 388.5156,933.4375 Q388.8906,933.4375 389.125,933.7031 Q389.3594,933.9531 389.3594,934.5625 L389.3594,936.0156 Q389.3594,936.625 389.125,936.8906 Q388.8906,937.1563 388.5156,937.1563 Q388.1719,937.1563 387.9688,936.9531 Q387.7656,936.7656 387.6563,936.25 Q387.6094,935.8906 387.4219,935.7031 Q387.0938,935.3281 386.4844,935.1094 Q385.875,934.8906 385.25,934.8906 Q384.4844,934.8906 383.8438,935.2188 Q383.2188,935.5469 382.7188,936.2969 Q382.2344,937.0469 382.2344,938.0781 L382.2344,939.1719 Q382.2344,940.4063 383.125,941.2344 Q384.0156,942.0469 385.6094,942.0469 Q386.5469,942.0469 387.2031,941.7969 Q387.5938,941.6406 388.0156,941.2031 Q388.2813,940.9375 388.4219,940.8594 Q388.5781,940.7813 388.7813,940.7813 Q389.1094,940.7813 389.3594,941.0469 Q389.625,941.2969 389.625,941.6406 Q389.625,941.9844 389.2813,942.3906 Q388.7813,942.9688 387.9844,943.2969 Q386.9063,943.75 385.6094,943.75 Q384.0938,943.75 382.8906,943.125 Q381.9063,942.625 381.2188,941.5625 Q380.5313,940.4844 380.5313,939.2031 L380.5313,938.0469 Q380.5313,936.7188 381.1406,935.5781 Q381.7656,934.4219 382.8594,933.8125 Q383.9531,933.1875 385.1875,933.1875 Q385.9219,933.1875 386.5625,933.3594 Q387.2188,933.5156 387.7656,933.875 Z " fill="#000000"/><text fill="#000000" font-family="sans-serif" font-size="14" lengthAdjust="spacing" textLength="42" x="399" y="943.7285">Wrong</text><line style="stroke:#181818;stroke-width:0.5;" x1="371" x2="443" y1="954" y2="954"/><line style="stroke:#181818;stroke-width:0.5;" x1="371" x2="443" y1="962" y2="962"/></g><!--MD5=[12743b4aa7b2bf3d8e383437eb99df68]
link Community to User--><g id="link_Community_User"><path codeLine="39" d="M219.1131,65.688 C219.1131,65.688 204.14,92.39 197.4,104.41 " fill="none" id="Community-User" style="stroke:#181818;stroke-width:1.0;"/><polygon fill="#181818" points="190.99,115.83,198.8795,109.9346,193.4345,111.4683,191.9008,106.0233,190.99,115.83" style="stroke:#181818;stroke-width:1.0;"/><line style="stroke:#181818;stroke-width:1.0;" x1="193.4345" x2="197.35" y1="111.4683" y2="104.485"/><polygon fill="#181818" points="224.98,55.22,218.5572,58.4984,219.1131,65.688,225.5359,62.4096,224.98,55.22" style="stroke:#181818;stroke-width:1.0;"/><text fill="#000000" font-family="sans-serif" font-size="13" lengthAdjust="spacing" textLength="20" x="171.7562" y="105.1266">1..*</text></g><!--MD5=[6cd8e6e9602c3fa64d344d9541acb572]
link Community to AvailableQuestions--><g id="link_Community_AvailableQuestions"><path codeLine="40" d="M261.8906,64.7557 C261.8906,64.7557 324.13,150.03 348.45,183.36 " fill="none" id="Community-AvailableQuestions" style="stroke:#181818;stroke-width:1.0;"/><polygon fill="#181818" points="356.18,193.94,354.1004,184.3132,353.2303,189.9027,347.6408,189.0327,356.18,193.94" style="stroke:#181818;stroke-width:1.0;"/><line style="stroke:#181818;stroke-width:1.0;" x1="353.2303" x2="348.515" y1="189.9027" y2="183.445"/><polygon fill="#181818" points="254.82,55.06,255.1234,62.2647,261.8906,64.7557,261.5872,57.551,254.82,55.06" style="stroke:#181818;stroke-width:1.0;"/></g><!--MD5=[7016372388c7ac2652db8515880aaa11]
reverse link User to Editor--><g id="link_User_Editor"><path codeLine="43" d="M196.41,182.7 C209.05,211.32 225.36,248.25 235.75,271.79 " fill="none" id="User-backto-Editor" style="stroke:#181818;stroke-width:1.0;"/><polygon fill="none" points="189.86,185.18,188.18,164.06,202.66,179.52,189.86,185.18" style="stroke:#181818;stroke-width:1.0;"/></g><!--MD5=[60e4945ab784e9eaf709bb3168dd25a4]
reverse link Editor to Reviewer--><g id="link_Editor_Reviewer"><path codeLine="44" d="M275.66,336.18 C287.01,351.18 299.59,367.8 309.46,380.83 " fill="none" id="Editor-backto-Reviewer" style="stroke:#181818;stroke-width:1.0;"/><polygon fill="none" points="270.07,340.39,263.58,320.22,281.23,331.94,270.07,340.39" style="stroke:#181818;stroke-width:1.0;"/></g><!--MD5=[d8a655080454bab67f6091cbff4cee86]
reverse link User to Executor--><g id="link_User_Executor"><path codeLine="45" d="M143.71,179.65 C139.69,184.43 135.71,189.29 132,194 C111.62,219.88 89.88,250.91 75.69,271.68 " fill="none" id="User-backto-Executor" style="stroke:#181818;stroke-width:1.0;"/><polygon fill="none" points="138.77,174.66,157.13,164.08,149.38,183.8,138.77,174.66" style="stroke:#181818;stroke-width:1.0;"/></g><!--MD5=[76cecde56a704a8af4e77d242905ce83]
link User to Test--><g id="link_User_Test"><path codeLine="47" d="M175.1011,176.1292 C175.1011,176.1292 155.07,419.73 148.97,493.85 " fill="none" id="User-Test" style="stroke:#181818;stroke-width:1.0;"/><polygon fill="#181818" points="147.9,506.95,152.6281,498.3102,148.312,501.967,144.6553,497.651,147.9,506.95" style="stroke:#181818;stroke-width:1.0;"/><line style="stroke:#181818;stroke-width:1.0;" x1="148.312" x2="148.965" y1="501.967" y2="493.995"/><polygon fill="none" points="176.09,164.17,171.6092,169.82,175.1011,176.1292,179.5819,170.4792,176.09,164.17" style="stroke:#181818;stroke-width:1.0;"/><text fill="#000000" font-family="sans-serif" font-size="13" lengthAdjust="spacing" textLength="20" x="125.8244" y="496.2773">0..*</text></g><!--MD5=[12c2d56d27338edb90331faec7f87d5c]
link PendingReviewQuestions to Question--><g id="link_PendingReviewQuestions_Question"><path codeLine="48" d="M347.4377,563.7782 C347.4377,563.7782 306.82,604.66 286.48,625.14 " fill="none" id="PendingReviewQuestions-Question" style="stroke:#181818;stroke-width:1.0;"/><polygon fill="#181818" points="277.29,634.39,286.4686,630.8188,280.8118,630.8408,280.7898,625.1839,277.29,634.39" style="stroke:#181818;stroke-width:1.0;"/><line style="stroke:#181818;stroke-width:1.0;" x1="280.8118" x2="286.45" y1="630.8408" y2="625.165"/><polygon fill="#181818" points="355.89,555.26,348.8245,556.7017,347.4377,563.7782,354.5033,562.3365,355.89,555.26" style="stroke:#181818;stroke-width:1.0;"/></g><!--MD5=[3b289939cf5a6bed4409fd9e4e7d7178]
link AvailableQuestions to PendingReviewQuestions--><g id="link_AvailableQuestions_PendingReviewQuestions"><path codeLine="49" d="M378.7451,253.931 C378.7451,253.931 398.47,386.3 403,459 C403.5,466.98 404.69,469.18 403,477 C401.72,482.94 399.72,489.01 397.4,494.82 " fill="none" id="AvailableQuestions-PendingReviewQuestions" style="stroke:#181818;stroke-width:1.0;"/><polygon fill="#181818" points="391.99,506.99,399.2953,500.3845,394.0171,502.4194,391.9823,497.1411,391.99,506.99" style="stroke:#181818;stroke-width:1.0;"/><line style="stroke:#181818;stroke-width:1.0;" x1="394.0171" x2="397.27" y1="502.4194" y2="495.115"/><polygon fill="#181818" points="376.86,242.08,373.8522,248.6339,378.7451,253.931,381.7529,247.3771,376.86,242.08" style="stroke:#181818;stroke-width:1.0;"/></g><!--MD5=[3e23c87a985df3c2da55c80a43bfcd45]
link Executor to Evaluation--><g id="link_Executor_Evaluation"><path codeLine="51" d="M59.13,320.22 C58.52,336.48 57.71,358.32 57.06,375.62 " fill="none" id="Executor-to-Evaluation" style="stroke:#181818;stroke-width:1.0;"/><polygon fill="#181818" points="56.87,380.83,61.2013,371.9847,57.0556,375.8334,53.2068,371.6877,56.87,380.83" style="stroke:#181818;stroke-width:1.0;"/></g><!--MD5=[7ea0c49f743e358ac875b85df2ad47d3]
link Evaluation to Test--><g id="link_Evaluation_Test"><path codeLine="52" d="M72.72,429.03 C87.78,449.78 109.94,480.32 125.95,502.38 " fill="none" id="Evaluation-to-Test" style="stroke:#181818;stroke-width:1.0;"/><polygon fill="#181818" points="129.07,506.67,127.0458,497.0314,126.1436,502.6159,120.5591,501.7137,129.07,506.67" style="stroke:#181818;stroke-width:1.0;"/></g><!--MD5=[a4471ebd030acd5c90145d584608083d]
link Editor to Question--><g id="link_Editor_Question"><path codeLine="54" d="M244.97,320.28 C242.5,376.53 236.1,521.76 232.2,610.45 " fill="none" id="Editor-to-Question" style="stroke:#181818;stroke-width:1.0;stroke-dasharray:7.0,7.0;"/><polygon fill="#181818" points="231.96,615.68,236.3428,606.8601,232.1747,610.6846,228.3502,606.5165,231.96,615.68" style="stroke:#181818;stroke-width:1.0;"/></g><!--MD5=[796801260e32b64433c17f058a688d43]
link Reviewer to PendingReviewQuestions--><g id="link_Reviewer_PendingReviewQuestions"><path codeLine="55" d="M336.66,429.03 C345.29,449.61 357.95,479.81 367.18,501.82 " fill="none" id="Reviewer-to-PendingReviewQuestions" style="stroke:#181818;stroke-width:1.0;stroke-dasharray:7.0,7.0;"/><polygon fill="#181818" points="369.22,506.67,369.414,496.8231,367.2797,502.0618,362.0409,499.9275,369.22,506.67" style="stroke:#181818;stroke-width:1.0;"/><text fill="#000000" font-family="sans-serif" font-size="13" lengthAdjust="spacing" textLength="40" x="357" y="473.4951">Review</text></g><!--MD5=[bb3d97f09542411db1527b071cca8268]
link Test to Question--><g id="link_Test_Question"><path codeLine="57" d="M164.574,565.774 C164.574,565.774 178.53,591.18 185.78,604.37 " fill="none" id="Test-Question" style="stroke:#181818;stroke-width:1.0;"/><polygon fill="#181818" points="192.14,615.95,191.3067,606.1365,189.73,611.5692,184.2973,609.9925,192.14,615.95" style="stroke:#181818;stroke-width:1.0;"/><line style="stroke:#181818;stroke-width:1.0;" x1="189.73" x2="185.88" y1="611.5692" y2="604.555"/><polygon fill="#181818" points="158.79,555.26,158.1773,562.445,164.574,565.774,165.1867,558.589,158.79,555.26" style="stroke:#181818;stroke-width:1.0;"/><text fill="#000000" font-family="sans-serif" font-size="13" lengthAdjust="spacing" textLength="27" x="159.6319" y="605.1438">10..*</text></g><!--MD5=[6eeca14f8a2ed45d1117f4ed4af75b7e]
link Question to Statement--><g id="link_Question_Statement"><path codeLine="58" d="M229,764.11 C229,764.11 229,789.03 229,799.5 " fill="none" id="Question-Statement" style="stroke:#181818;stroke-width:1.0;"/><polygon fill="#181818" points="229,812.82,233,803.82,229,807.82,225,803.82,229,812.82" style="stroke:#181818;stroke-width:1.0;"/><line style="stroke:#181818;stroke-width:1.0;" x1="229" x2="229" y1="807.82" y2="799.82"/><polygon fill="#181818" points="229,752.11,225,758.11,229,764.11,233,758.11,229,752.11" style="stroke:#181818;stroke-width:1.0;"/></g><!--MD5=[6926d5174a3032b1dcc6c5d6f900c16b]
link Question to Answer--><g id="link_Question_Answer"><path codeLine="59" d="M284.7613,754.0143 C284.7613,754.0143 312.67,788.56 324.08,802.68 " fill="none" id="Question-Answer" style="stroke:#181818;stroke-width:1.0;"/><polygon fill="#181818" points="332.31,812.87,329.7655,803.3555,329.1678,808.9807,323.5426,808.383,332.31,812.87" style="stroke:#181818;stroke-width:1.0;"/><line style="stroke:#181818;stroke-width:1.0;" x1="329.1678" x2="324.14" y1="808.9807" y2="802.75"/><polygon fill="#181818" points="277.22,744.68,277.8792,751.8609,284.7613,754.0143,284.1021,746.8334,277.22,744.68" style="stroke:#181818;stroke-width:1.0;"/><text fill="#000000" font-family="sans-serif" font-size="13" lengthAdjust="spacing" textLength="20" x="304.9582" y="802.1768">1..*</text></g><!--MD5=[b1491d38e87214202fddacec717a9c8d]
reverse link Answer to Correct--><g id="link_Answer_Correct"><path codeLine="60" d="M329.48,879.13 C321.9,893.6 313.65,909.36 307.13,921.83 " fill="none" id="Answer-backto-Correct" style="stroke:#181818;stroke-width:1.0;"/><polygon fill="none" points="323.37,875.69,338.85,861.22,335.78,882.18,323.37,875.69" style="stroke:#181818;stroke-width:1.0;"/></g><!--MD5=[c5fa946b130b0916f113c48ddc2b138d]
reverse link Answer to Wrong--><g id="link_Answer_Wrong"><path codeLine="61" d="M372.52,879.13 C380.1,893.6 388.35,909.36 394.87,921.83 " fill="none" id="Answer-backto-Wrong" style="stroke:#181818;stroke-width:1.0;"/><polygon fill="none" points="366.22,882.18,363.15,861.22,378.63,875.69,366.22,882.18" style="stroke:#181818;stroke-width:1.0;"/></g><!--MD5=[98df2f76ab45609c36aa45d6b9c3faee]
link Question to Category--><g id="link_Question_Category"><path codeLine="63" d="M172.4443,743.4826 C172.4443,743.4826 131.35,786 114.68,803.23 " fill="none" id="Question-Category" style="stroke:#181818;stroke-width:1.0;"/><polygon fill="#181818" points="105.41,812.82,114.5407,809.128,108.8846,809.2246,108.788,803.5686,105.41,812.82" style="stroke:#181818;stroke-width:1.0;"/><line style="stroke:#181818;stroke-width:1.0;" x1="108.8846" x2="114.445" y1="809.2246" y2="803.475"/><polygon fill="#181818" points="180.79,734.86,173.7429,736.3894,172.4443,743.4826,179.4913,741.9532,180.79,734.86" style="stroke:#181818;stroke-width:1.0;"/></g><!--MD5=[a5725b0440277e7b298212d4ab098951]
link Category to Category--><g id="link_Category_Category"><path codeLine="64" d="M140.2281,827.1712 C140.2281,827.1712 163,831.46 163,837 C163,842.54 154.03,845.8 141.6,846.8 " fill="none" id="Category-Category" style="stroke:#181818;stroke-width:1.0;"/><polygon fill="#181818" points="128.23,847.04,137.299,850.881,133.2292,846.952,137.1582,842.8822,128.23,847.04" style="stroke:#181818;stroke-width:1.0;"/><line style="stroke:#181818;stroke-width:1.0;" x1="133.2292" x2="141.23" y1="846.952" y2="846.805"/><polygon fill="#181818" points="128.23,826.96,134.1587,831.065,140.2281,827.1712,134.2995,823.0662,128.23,826.96" style="stroke:#181818;stroke-width:1.0;"/><text fill="#000000" font-family="sans-serif" font-size="13" lengthAdjust="spacing" textLength="20" x="135.9967" y="844.8467">1..*</text></g><!--MD5=[0f59031a44e1670736e1bd1e0dd0d065]
@startuml OpoTestDomain

class Community

class User

class Reviewer

class Editor 

class Executor

class Evaluation

class Category 

class Test

class PendingReviewQuestions

class AvailableQuestions 

class Question {
    date
    reviewed
    type
    public/private
    ...
}

class Statement

class Answer 

class Correct

Class Wrong


Community *- -> "1..*" User
Community *- -> AvailableQuestions


User <|- - Editor
Editor <|- -  Reviewer
User <|- - Executor

User o- -> "0..*" Test
PendingReviewQuestions *- -> Question
AvailableQuestions *- -> PendingReviewQuestions

Executor - -> Evaluation
Evaluation - -> Test

Editor ..> Question
Reviewer ..> PendingReviewQuestions : Review

Test *- -> "10..*" Question
Question *- ->  Statement
Question *- -> "1..*" Answer
Answer <|- - Correct
Answer <|- - Wrong

Question *- -> Category
Category *- ->"1..*" Category







@end

PlantUML version 1.2022.7(Mon Aug 22 18:01:30 WEST 2022)
(GPL source distribution)
Java Runtime: OpenJDK Runtime Environment
JVM: OpenJDK 64-Bit Server VM
Default Encoding: Cp1252
Language: es
Country: ES
--></g></svg>