<?xml version="1.0" encoding="UTF-8" standalone="no"?><svg xmlns="http://www.w3.org/2000/svg" xmlns:xlink="http://www.w3.org/1999/xlink" contentStyleType="text/css" height="1477px" preserveAspectRatio="none" style="width:1233px;height:1477px;background:#FFFFFF;" version="1.1" viewBox="0 0 1233 1477" width="1233px" zoomAndPan="magnify"><defs/><g><!--MD5=[668d633d11bedc8952753581a2dda3db]
class Community--><g id="elem_Community"><rect codeLine="2" fill="#F1F1F1" height="48" id="Community" rx="2.5" ry="2.5" style="stroke:#181818;stroke-width:0.5;" width="111" x="882" y="7"/><ellipse cx="897" cy="23" fill="#ADD1B2" rx="11" ry="11" style="stroke:#181818;stroke-width:1.0;"/><path d="M899.4731,29.1431 Q898.8921,29.4419 898.2529,29.5913 Q897.6138,29.7407 896.9082,29.7407 Q894.4014,29.7407 893.0815,28.0889 Q891.7617,26.437 891.7617,23.3159 Q891.7617,20.1865 893.0815,18.5347 Q894.4014,16.8828 896.9082,16.8828 Q897.6138,16.8828 898.2612,17.0322 Q898.9087,17.1816 899.4731,17.4805 L899.4731,20.2031 Q898.8423,19.6221 898.2488,19.3523 Q897.6553,19.0825 897.0244,19.0825 Q895.6797,19.0825 894.9949,20.1492 Q894.3101,21.2158 894.3101,23.3159 Q894.3101,25.4077 894.9949,26.4744 Q895.6797,27.541 897.0244,27.541 Q897.6553,27.541 898.2488,27.2712 Q898.8423,27.0015 899.4731,26.4204 Z " fill="#000000"/><text fill="#000000" font-family="sans-serif" font-size="14" lengthAdjust="spacing" textLength="79" x="911" y="28.291">Community</text><line style="stroke:#181818;stroke-width:0.5;" x1="883" x2="992" y1="39" y2="39"/><line style="stroke:#181818;stroke-width:0.5;" x1="883" x2="992" y1="47" y2="47"/></g><!--MD5=[3fd616f346a44cd59a91eb10b19e157c]
class User--><g id="elem_User"><rect codeLine="4" fill="#F1F1F1" height="48" id="User" rx="2.5" ry="2.5" style="stroke:#181818;stroke-width:0.5;" width="63" x="750" y="136"/><ellipse cx="765" cy="152" fill="#ADD1B2" rx="11" ry="11" style="stroke:#181818;stroke-width:1.0;"/><path d="M767.4731,158.1431 Q766.8921,158.4419 766.2529,158.5913 Q765.6138,158.7407 764.9082,158.7407 Q762.4014,158.7407 761.0815,157.0889 Q759.7617,155.437 759.7617,152.3159 Q759.7617,149.1865 761.0815,147.5347 Q762.4014,145.8828 764.9082,145.8828 Q765.6138,145.8828 766.2612,146.0322 Q766.9087,146.1816 767.4731,146.4805 L767.4731,149.2031 Q766.8423,148.6221 766.2488,148.3523 Q765.6553,148.0825 765.0244,148.0825 Q763.6797,148.0825 762.9949,149.1492 Q762.3101,150.2158 762.3101,152.3159 Q762.3101,154.4077 762.9949,155.4744 Q763.6797,156.541 765.0244,156.541 Q765.6553,156.541 766.2488,156.2712 Q766.8423,156.0015 767.4731,155.4204 Z " fill="#000000"/><text fill="#000000" font-family="sans-serif" font-size="14" lengthAdjust="spacing" textLength="31" x="779" y="157.291">User</text><line style="stroke:#181818;stroke-width:0.5;" x1="751" x2="812" y1="168" y2="168"/><line style="stroke:#181818;stroke-width:0.5;" x1="751" x2="812" y1="176" y2="176"/></g><!--MD5=[61a83f88cb8b7d3a80bc8c481f3736bf]
class Teacher--><g id="elem_Teacher"><rect codeLine="6" fill="#F1F1F1" height="48" id="Teacher" rx="2.5" ry="2.5" style="stroke:#181818;stroke-width:0.5;" width="87" x="738" y="265"/><ellipse cx="753" cy="281" fill="#ADD1B2" rx="11" ry="11" style="stroke:#181818;stroke-width:1.0;"/><path d="M755.4731,287.1431 Q754.8921,287.4419 754.2529,287.5913 Q753.6138,287.7407 752.9082,287.7407 Q750.4014,287.7407 749.0815,286.0889 Q747.7617,284.437 747.7617,281.3159 Q747.7617,278.1865 749.0815,276.5347 Q750.4014,274.8828 752.9082,274.8828 Q753.6138,274.8828 754.2612,275.0322 Q754.9087,275.1816 755.4731,275.4805 L755.4731,278.2031 Q754.8423,277.6221 754.2488,277.3523 Q753.6553,277.0825 753.0244,277.0825 Q751.6797,277.0825 750.9949,278.1492 Q750.3101,279.2158 750.3101,281.3159 Q750.3101,283.4077 750.9949,284.4744 Q751.6797,285.541 753.0244,285.541 Q753.6553,285.541 754.2488,285.2712 Q754.8423,285.0015 755.4731,284.4204 Z " fill="#000000"/><text fill="#000000" font-family="sans-serif" font-size="14" lengthAdjust="spacing" textLength="55" x="767" y="286.291">Teacher</text><line style="stroke:#181818;stroke-width:0.5;" x1="739" x2="824" y1="297" y2="297"/><line style="stroke:#181818;stroke-width:0.5;" x1="739" x2="824" y1="305" y2="305"/></g><!--MD5=[d6181cb537bdc20c0a3007a98a56832d]
class Student--><g id="elem_Student"><rect codeLine="8" fill="#F1F1F1" height="48" id="Student" rx="2.5" ry="2.5" style="stroke:#181818;stroke-width:0.5;" width="85" x="589" y="265"/><ellipse cx="604" cy="281" fill="#ADD1B2" rx="11" ry="11" style="stroke:#181818;stroke-width:1.0;"/><path d="M606.4731,287.1431 Q605.8921,287.4419 605.2529,287.5913 Q604.6138,287.7407 603.9082,287.7407 Q601.4014,287.7407 600.0815,286.0889 Q598.7617,284.437 598.7617,281.3159 Q598.7617,278.1865 600.0815,276.5347 Q601.4014,274.8828 603.9082,274.8828 Q604.6138,274.8828 605.2612,275.0322 Q605.9087,275.1816 606.4731,275.4805 L606.4731,278.2031 Q605.8423,277.6221 605.2488,277.3523 Q604.6553,277.0825 604.0244,277.0825 Q602.6797,277.0825 601.9949,278.1492 Q601.3101,279.2158 601.3101,281.3159 Q601.3101,283.4077 601.9949,284.4744 Q602.6797,285.541 604.0244,285.541 Q604.6553,285.541 605.2488,285.2712 Q605.8423,285.0015 606.4731,284.4204 Z " fill="#000000"/><text fill="#000000" font-family="sans-serif" font-size="14" lengthAdjust="spacing" textLength="53" x="618" y="286.291">Student</text><line style="stroke:#181818;stroke-width:0.5;" x1="590" x2="673" y1="297" y2="297"/><line style="stroke:#181818;stroke-width:0.5;" x1="590" x2="673" y1="305" y2="305"/></g><!--MD5=[71e8807956d33805e77353b9d7e2df39]
class Evaluation--><g id="elem_Evaluation"><rect codeLine="10" fill="#F1F1F1" height="48" id="Evaluation" rx="2.5" ry="2.5" style="stroke:#181818;stroke-width:0.5;" width="103" x="358" y="394"/><ellipse cx="373" cy="410" fill="#ADD1B2" rx="11" ry="11" style="stroke:#181818;stroke-width:1.0;"/><path d="M375.4731,416.1431 Q374.8921,416.4419 374.2529,416.5913 Q373.6138,416.7407 372.9082,416.7407 Q370.4014,416.7407 369.0815,415.0889 Q367.7617,413.437 367.7617,410.3159 Q367.7617,407.1865 369.0815,405.5347 Q370.4014,403.8828 372.9082,403.8828 Q373.6138,403.8828 374.2612,404.0322 Q374.9087,404.1816 375.4731,404.4805 L375.4731,407.2031 Q374.8423,406.6221 374.2488,406.3523 Q373.6553,406.0825 373.0244,406.0825 Q371.6797,406.0825 370.9949,407.1492 Q370.3101,408.2158 370.3101,410.3159 Q370.3101,412.4077 370.9949,413.4744 Q371.6797,414.541 373.0244,414.541 Q373.6553,414.541 374.2488,414.2712 Q374.8423,414.0015 375.4731,413.4204 Z " fill="#000000"/><text fill="#000000" font-family="sans-serif" font-size="14" lengthAdjust="spacing" textLength="71" x="387" y="415.291">Evaluation</text><line style="stroke:#181818;stroke-width:0.5;" x1="359" x2="460" y1="426" y2="426"/><line style="stroke:#181818;stroke-width:0.5;" x1="359" x2="460" y1="434" y2="434"/></g><!--MD5=[2741598bdf59a7d7e0d5c97658fd3022]
class Result--><g id="elem_Result"><rect codeLine="12" fill="#F1F1F1" height="48" id="Result" rx="2.5" ry="2.5" style="stroke:#181818;stroke-width:0.5;" width="74" x="202.5" y="523"/><ellipse cx="217.5" cy="539" fill="#ADD1B2" rx="11" ry="11" style="stroke:#181818;stroke-width:1.0;"/><path d="M219.9731,545.1431 Q219.3921,545.4419 218.7529,545.5913 Q218.1138,545.7407 217.4082,545.7407 Q214.9014,545.7407 213.5815,544.0889 Q212.2617,542.437 212.2617,539.3159 Q212.2617,536.1865 213.5815,534.5347 Q214.9014,532.8828 217.4082,532.8828 Q218.1138,532.8828 218.7612,533.0322 Q219.4087,533.1816 219.9731,533.4805 L219.9731,536.2031 Q219.3423,535.6221 218.7488,535.3523 Q218.1553,535.0825 217.5244,535.0825 Q216.1797,535.0825 215.4949,536.1492 Q214.8101,537.2158 214.8101,539.3159 Q214.8101,541.4077 215.4949,542.4744 Q216.1797,543.541 217.5244,543.541 Q218.1553,543.541 218.7488,543.2712 Q219.3423,543.0015 219.9731,542.4204 Z " fill="#000000"/><text fill="#000000" font-family="sans-serif" font-size="14" lengthAdjust="spacing" textLength="42" x="231.5" y="544.291">Result</text><line style="stroke:#181818;stroke-width:0.5;" x1="203.5" x2="275.5" y1="555" y2="555"/><line style="stroke:#181818;stroke-width:0.5;" x1="203.5" x2="275.5" y1="563" y2="563"/></g><!--MD5=[a96594a83e2ecdc78cbf17c2ddf01934]
class Category--><g id="elem_Category"><rect codeLine="14" fill="#F1F1F1" height="48" id="Category" rx="2.5" ry="2.5" style="stroke:#181818;stroke-width:0.5;" width="94" x="973.5" y="1029"/><ellipse cx="988.5" cy="1045" fill="#ADD1B2" rx="11" ry="11" style="stroke:#181818;stroke-width:1.0;"/><path d="M990.9731,1051.1431 Q990.3921,1051.4419 989.7529,1051.5913 Q989.1138,1051.7407 988.4082,1051.7407 Q985.9014,1051.7407 984.5815,1050.0889 Q983.2617,1048.437 983.2617,1045.3159 Q983.2617,1042.1865 984.5815,1040.5347 Q985.9014,1038.8828 988.4082,1038.8828 Q989.1138,1038.8828 989.7612,1039.0322 Q990.4087,1039.1816 990.9731,1039.4805 L990.9731,1042.2031 Q990.3423,1041.6221 989.7488,1041.3523 Q989.1553,1041.0825 988.5244,1041.0825 Q987.1797,1041.0825 986.4949,1042.1492 Q985.8101,1043.2158 985.8101,1045.3159 Q985.8101,1047.4077 986.4949,1048.4744 Q987.1797,1049.541 988.5244,1049.541 Q989.1553,1049.541 989.7488,1049.2712 Q990.3423,1049.0015 990.9731,1048.4204 Z " fill="#000000"/><text fill="#000000" font-family="sans-serif" font-size="14" lengthAdjust="spacing" textLength="62" x="1002.5" y="1050.291">Category</text><line style="stroke:#181818;stroke-width:0.5;" x1="974.5" x2="1066.5" y1="1061" y2="1061"/><line style="stroke:#181818;stroke-width:0.5;" x1="974.5" x2="1066.5" y1="1069" y2="1069"/></g><!--MD5=[df38be88ccee13e832d6fafd6288a4ca]
class Test--><g id="elem_Test"><rect codeLine="16" fill="#F1F1F1" height="48" id="Test" rx="2.5" ry="2.5" style="stroke:#181818;stroke-width:0.5;" width="61" x="509" y="523"/><ellipse cx="524" cy="539" fill="#ADD1B2" rx="11" ry="11" style="stroke:#181818;stroke-width:1.0;"/><path d="M526.4731,545.1431 Q525.8921,545.4419 525.2529,545.5913 Q524.6138,545.7407 523.9082,545.7407 Q521.4014,545.7407 520.0815,544.0889 Q518.7617,542.437 518.7617,539.3159 Q518.7617,536.1865 520.0815,534.5347 Q521.4014,532.8828 523.9082,532.8828 Q524.6138,532.8828 525.2612,533.0322 Q525.9087,533.1816 526.4731,533.4805 L526.4731,536.2031 Q525.8423,535.6221 525.2488,535.3523 Q524.6553,535.0825 524.0244,535.0825 Q522.6797,535.0825 521.9949,536.1492 Q521.3101,537.2158 521.3101,539.3159 Q521.3101,541.4077 521.9949,542.4744 Q522.6797,543.541 524.0244,543.541 Q524.6553,543.541 525.2488,543.2712 Q525.8423,543.0015 526.4731,542.4204 Z " fill="#000000"/><text fill="#000000" font-family="sans-serif" font-size="14" lengthAdjust="spacing" textLength="29" x="538" y="544.291">Test</text><line style="stroke:#181818;stroke-width:0.5;" x1="510" x2="569" y1="555" y2="555"/><line style="stroke:#181818;stroke-width:0.5;" x1="510" x2="569" y1="563" y2="563"/></g><!--MD5=[251997ad79b4d4948a25d3b27294058e]
class AnswersToReview--><g id="elem_AnswersToReview"><rect codeLine="18" fill="#F1F1F1" height="48" id="AnswersToReview" rx="2.5" ry="2.5" style="stroke:#181818;stroke-width:0.5;" width="155" x="1028" y="7"/><ellipse cx="1043" cy="23" fill="#ADD1B2" rx="11" ry="11" style="stroke:#181818;stroke-width:1.0;"/><path d="M1045.4731,29.1431 Q1044.8921,29.4419 1044.2529,29.5913 Q1043.6138,29.7407 1042.9082,29.7407 Q1040.4014,29.7407 1039.0815,28.0889 Q1037.7617,26.437 1037.7617,23.3159 Q1037.7617,20.1865 1039.0815,18.5347 Q1040.4014,16.8828 1042.9082,16.8828 Q1043.6138,16.8828 1044.2612,17.0322 Q1044.9087,17.1816 1045.4731,17.4805 L1045.4731,20.2031 Q1044.8423,19.6221 1044.2488,19.3523 Q1043.6553,19.0825 1043.0244,19.0825 Q1041.6797,19.0825 1040.9949,20.1492 Q1040.3101,21.2158 1040.3101,23.3159 Q1040.3101,25.4077 1040.9949,26.4744 Q1041.6797,27.541 1043.0244,27.541 Q1043.6553,27.541 1044.2488,27.2712 Q1044.8423,27.0015 1045.4731,26.4204 Z " fill="#000000"/><text fill="#000000" font-family="sans-serif" font-size="14" lengthAdjust="spacing" textLength="123" x="1057" y="28.291">AnswersToReview</text><line style="stroke:#181818;stroke-width:0.5;" x1="1029" x2="1182" y1="39" y2="39"/><line style="stroke:#181818;stroke-width:0.5;" x1="1029" x2="1182" y1="47" y2="47"/></g><!--MD5=[9d451b2f92d848a8e2d1a4dab2b1c6bf]
class Concept--><g id="elem_Concept"><rect codeLine="20" fill="#F1F1F1" height="64.4883" id="Concept" rx="2.5" ry="2.5" style="stroke:#181818;stroke-width:0.5;" width="89" x="852" y="817"/><ellipse cx="867" cy="833" fill="#ADD1B2" rx="11" ry="11" style="stroke:#181818;stroke-width:1.0;"/><path d="M869.4731,839.1431 Q868.8921,839.4419 868.2529,839.5913 Q867.6138,839.7407 866.9082,839.7407 Q864.4014,839.7407 863.0815,838.0889 Q861.7617,836.437 861.7617,833.3159 Q861.7617,830.1865 863.0815,828.5347 Q864.4014,826.8828 866.9082,826.8828 Q867.6138,826.8828 868.2612,827.0322 Q868.9087,827.1816 869.4731,827.4805 L869.4731,830.2031 Q868.8423,829.6221 868.2488,829.3523 Q867.6553,829.0825 867.0244,829.0825 Q865.6797,829.0825 864.9949,830.1492 Q864.3101,831.2158 864.3101,833.3159 Q864.3101,835.4077 864.9949,836.4744 Q865.6797,837.541 867.0244,837.541 Q867.6553,837.541 868.2488,837.2712 Q868.8423,837.0015 869.4731,836.4204 Z " fill="#000000"/><text fill="#000000" font-family="sans-serif" font-size="14" lengthAdjust="spacing" textLength="57" x="881" y="838.291">Concept</text><line style="stroke:#181818;stroke-width:0.5;" x1="853" x2="940" y1="849" y2="849"/><rect fill="none" height="6" style="stroke:#C82930;stroke-width:1.0;" width="6" x="860" y="859.7441"/><text fill="#000000" font-family="sans-serif" font-size="14" lengthAdjust="spacing" textLength="58" x="872" y="866.5352">keyword</text><line style="stroke:#181818;stroke-width:0.5;" x1="853" x2="940" y1="873.4883" y2="873.4883"/></g><!--MD5=[fc7123defb831ecdd44b2d9bcef6cceb]
class Question--><g id="elem_Question"><rect codeLine="24" fill="#F1F1F1" height="64.4883" id="Question" rx="2.5" ry="2.5" style="stroke:#181818;stroke-width:0.5;" width="94" x="542.5" y="652"/><ellipse cx="557.5" cy="668" fill="#ADD1B2" rx="11" ry="11" style="stroke:#181818;stroke-width:1.0;"/><path d="M559.9731,674.1431 Q559.3921,674.4419 558.7529,674.5913 Q558.1138,674.7407 557.4082,674.7407 Q554.9014,674.7407 553.5815,673.0889 Q552.2617,671.437 552.2617,668.3159 Q552.2617,665.1865 553.5815,663.5347 Q554.9014,661.8828 557.4082,661.8828 Q558.1138,661.8828 558.7612,662.0322 Q559.4087,662.1816 559.9731,662.4805 L559.9731,665.2031 Q559.3423,664.6221 558.7488,664.3523 Q558.1553,664.0825 557.5244,664.0825 Q556.1797,664.0825 555.4949,665.1492 Q554.8101,666.2158 554.8101,668.3159 Q554.8101,670.4077 555.4949,671.4744 Q556.1797,672.541 557.5244,672.541 Q558.1553,672.541 558.7488,672.2712 Q559.3423,672.0015 559.9731,671.4204 Z " fill="#000000"/><text fill="#000000" font-family="sans-serif" font-size="14" lengthAdjust="spacing" textLength="62" x="571.5" y="673.291">Question</text><line style="stroke:#181818;stroke-width:0.5;" x1="543.5" x2="635.5" y1="684" y2="684"/><rect fill="none" height="6" style="stroke:#C82930;stroke-width:1.0;" width="6" x="550.5" y="694.7441"/><text fill="#000000" font-family="sans-serif" font-size="14" lengthAdjust="spacing" textLength="31" x="562.5" y="701.5352">level</text><line style="stroke:#181818;stroke-width:0.5;" x1="543.5" x2="635.5" y1="708.4883" y2="708.4883"/></g><!--MD5=[a61a298976b7d1d94498f45c2ebfa10b]
class Statement--><g id="elem_Statement"><rect codeLine="28" fill="#F1F1F1" height="48" id="Statement" rx="2.5" ry="2.5" style="stroke:#181818;stroke-width:0.5;" width="101" x="692" y="825"/><ellipse cx="707" cy="841" fill="#ADD1B2" rx="11" ry="11" style="stroke:#181818;stroke-width:1.0;"/><path d="M709.4731,847.1431 Q708.8921,847.4419 708.2529,847.5913 Q707.6138,847.7407 706.9082,847.7407 Q704.4014,847.7407 703.0815,846.0889 Q701.7617,844.437 701.7617,841.3159 Q701.7617,838.1865 703.0815,836.5347 Q704.4014,834.8828 706.9082,834.8828 Q707.6138,834.8828 708.2612,835.0322 Q708.9087,835.1816 709.4731,835.4805 L709.4731,838.2031 Q708.8423,837.6221 708.2488,837.3523 Q707.6553,837.0825 707.0244,837.0825 Q705.6797,837.0825 704.9949,838.1492 Q704.3101,839.2158 704.3101,841.3159 Q704.3101,843.4077 704.9949,844.4744 Q705.6797,845.541 707.0244,845.541 Q707.6553,845.541 708.2488,845.2712 Q708.8423,845.0015 709.4731,844.4204 Z " fill="#000000"/><text fill="#000000" font-family="sans-serif" font-size="14" lengthAdjust="spacing" textLength="69" x="721" y="846.291">Statement</text><line style="stroke:#181818;stroke-width:0.5;" x1="693" x2="792" y1="857" y2="857"/><line style="stroke:#181818;stroke-width:0.5;" x1="693" x2="792" y1="865" y2="865"/></g><!--MD5=[f9fadfa5a66b7e5a67b370cd443ffe52]
class Answer--><g id="elem_Answer"><rect codeLine="30" fill="#F1F1F1" height="48" id="Answer" rx="2.5" ry="2.5" style="stroke:#181818;stroke-width:0.5;" width="83" x="7" y="825"/><ellipse cx="22" cy="841" fill="#ADD1B2" rx="11" ry="11" style="stroke:#181818;stroke-width:1.0;"/><path d="M24.4731,847.1431 Q23.8921,847.4419 23.2529,847.5913 Q22.6138,847.7407 21.9082,847.7407 Q19.4014,847.7407 18.0815,846.0889 Q16.7617,844.437 16.7617,841.3159 Q16.7617,838.1865 18.0815,836.5347 Q19.4014,834.8828 21.9082,834.8828 Q22.6138,834.8828 23.2612,835.0322 Q23.9087,835.1816 24.4731,835.4805 L24.4731,838.2031 Q23.8423,837.6221 23.2488,837.3523 Q22.6553,837.0825 22.0244,837.0825 Q20.6797,837.0825 19.9949,838.1492 Q19.3101,839.2158 19.3101,841.3159 Q19.3101,843.4077 19.9949,844.4744 Q20.6797,845.541 22.0244,845.541 Q22.6553,845.541 23.2488,845.2712 Q23.8423,845.0015 24.4731,844.4204 Z " fill="#000000"/><text fill="#000000" font-family="sans-serif" font-size="14" lengthAdjust="spacing" textLength="51" x="36" y="846.291">Answer</text><line style="stroke:#181818;stroke-width:0.5;" x1="8" x2="89" y1="857" y2="857"/><line style="stroke:#181818;stroke-width:0.5;" x1="8" x2="89" y1="865" y2="865"/></g><!--MD5=[f7b1256a464262a81d5827fb39e684fb]
class Open--><g id="elem_Open"><rect codeLine="32" fill="#F1F1F1" height="48" id="Open" rx="2.5" ry="2.5" style="stroke:#181818;stroke-width:0.5;" width="69" x="359" y="931"/><ellipse cx="374" cy="947" fill="#ADD1B2" rx="11" ry="11" style="stroke:#181818;stroke-width:1.0;"/><path d="M376.4731,953.1431 Q375.8921,953.4419 375.2529,953.5913 Q374.6138,953.7407 373.9082,953.7407 Q371.4014,953.7407 370.0815,952.0889 Q368.7617,950.437 368.7617,947.3159 Q368.7617,944.1865 370.0815,942.5347 Q371.4014,940.8828 373.9082,940.8828 Q374.6138,940.8828 375.2612,941.0322 Q375.9087,941.1816 376.4731,941.4805 L376.4731,944.2031 Q375.8423,943.6221 375.2488,943.3523 Q374.6553,943.0825 374.0244,943.0825 Q372.6797,943.0825 371.9949,944.1492 Q371.3101,945.2158 371.3101,947.3159 Q371.3101,949.4077 371.9949,950.4744 Q372.6797,951.541 374.0244,951.541 Q374.6553,951.541 375.2488,951.2712 Q375.8423,951.0015 376.4731,950.4204 Z " fill="#000000"/><text fill="#000000" font-family="sans-serif" font-size="14" lengthAdjust="spacing" textLength="37" x="388" y="952.291">Open</text><line style="stroke:#181818;stroke-width:0.5;" x1="360" x2="427" y1="963" y2="963"/><line style="stroke:#181818;stroke-width:0.5;" x1="360" x2="427" y1="971" y2="971"/></g><!--MD5=[210f05ad84ecfe37f8378e5618b7165d]
class MultipleChoice--><g id="elem_MultipleChoice"><rect codeLine="34" fill="#F1F1F1" height="48" id="MultipleChoice" rx="2.5" ry="2.5" style="stroke:#181818;stroke-width:0.5;" width="134" x="522.5" y="825"/><ellipse cx="537.5" cy="841" fill="#ADD1B2" rx="11" ry="11" style="stroke:#181818;stroke-width:1.0;"/><path d="M539.9731,847.1431 Q539.3921,847.4419 538.7529,847.5913 Q538.1138,847.7407 537.4082,847.7407 Q534.9014,847.7407 533.5815,846.0889 Q532.2617,844.437 532.2617,841.3159 Q532.2617,838.1865 533.5815,836.5347 Q534.9014,834.8828 537.4082,834.8828 Q538.1138,834.8828 538.7612,835.0322 Q539.4087,835.1816 539.9731,835.4805 L539.9731,838.2031 Q539.3423,837.6221 538.7488,837.3523 Q538.1553,837.0825 537.5244,837.0825 Q536.1797,837.0825 535.4949,838.1492 Q534.8101,839.2158 534.8101,841.3159 Q534.8101,843.4077 535.4949,844.4744 Q536.1797,845.541 537.5244,845.541 Q538.1553,845.541 538.7488,845.2712 Q539.3423,845.0015 539.9731,844.4204 Z " fill="#000000"/><text fill="#000000" font-family="sans-serif" font-size="14" lengthAdjust="spacing" textLength="102" x="551.5" y="846.291">MultipleChoice</text><line style="stroke:#181818;stroke-width:0.5;" x1="523.5" x2="655.5" y1="857" y2="857"/><line style="stroke:#181818;stroke-width:0.5;" x1="523.5" x2="655.5" y1="865" y2="865"/></g><!--MD5=[b07065dfc0d0e09965ec10bfc328bb3e]
class Option--><g id="elem_Option"><rect codeLine="36" fill="#F1F1F1" height="48" id="Option" rx="2.5" ry="2.5" style="stroke:#181818;stroke-width:0.5;" width="79" x="534" y="1029"/><ellipse cx="549" cy="1045" fill="#ADD1B2" rx="11" ry="11" style="stroke:#181818;stroke-width:1.0;"/><path d="M551.4731,1051.1431 Q550.8921,1051.4419 550.2529,1051.5913 Q549.6138,1051.7407 548.9082,1051.7407 Q546.4014,1051.7407 545.0815,1050.0889 Q543.7617,1048.437 543.7617,1045.3159 Q543.7617,1042.1865 545.0815,1040.5347 Q546.4014,1038.8828 548.9082,1038.8828 Q549.6138,1038.8828 550.2612,1039.0322 Q550.9087,1039.1816 551.4731,1039.4805 L551.4731,1042.2031 Q550.8423,1041.6221 550.2488,1041.3523 Q549.6553,1041.0825 549.0244,1041.0825 Q547.6797,1041.0825 546.9949,1042.1492 Q546.3101,1043.2158 546.3101,1045.3159 Q546.3101,1047.4077 546.9949,1048.4744 Q547.6797,1049.541 549.0244,1049.541 Q549.6553,1049.541 550.2488,1049.2712 Q550.8423,1049.0015 551.4731,1048.4204 Z " fill="#000000"/><text fill="#000000" font-family="sans-serif" font-size="14" lengthAdjust="spacing" textLength="47" x="563" y="1050.291">Option</text><line style="stroke:#181818;stroke-width:0.5;" x1="535" x2="612" y1="1061" y2="1061"/><line style="stroke:#181818;stroke-width:0.5;" x1="535" x2="612" y1="1069" y2="1069"/></g><!--MD5=[bc629657279eaa9349f412646650f2c5]
class Correct--><g id="elem_Correct"><rect codeLine="38" fill="#F1F1F1" height="48" id="Correct" rx="2.5" ry="2.5" style="stroke:#181818;stroke-width:0.5;" width="83" x="578" y="1225"/><ellipse cx="593" cy="1241" fill="#ADD1B2" rx="11" ry="11" style="stroke:#181818;stroke-width:1.0;"/><path d="M595.4731,1247.1431 Q594.8921,1247.4419 594.2529,1247.5913 Q593.6138,1247.7407 592.9082,1247.7407 Q590.4014,1247.7407 589.0815,1246.0889 Q587.7617,1244.437 587.7617,1241.3159 Q587.7617,1238.1865 589.0815,1236.5347 Q590.4014,1234.8828 592.9082,1234.8828 Q593.6138,1234.8828 594.2612,1235.0322 Q594.9087,1235.1816 595.4731,1235.4805 L595.4731,1238.2031 Q594.8423,1237.6221 594.2488,1237.3523 Q593.6553,1237.0825 593.0244,1237.0825 Q591.6797,1237.0825 590.9949,1238.1492 Q590.3101,1239.2158 590.3101,1241.3159 Q590.3101,1243.4077 590.9949,1244.4744 Q591.6797,1245.541 593.0244,1245.541 Q593.6553,1245.541 594.2488,1245.2712 Q594.8423,1245.0015 595.4731,1244.4204 Z " fill="#000000"/><text fill="#000000" font-family="sans-serif" font-size="14" lengthAdjust="spacing" textLength="51" x="607" y="1246.291">Correct</text><line style="stroke:#181818;stroke-width:0.5;" x1="579" x2="660" y1="1257" y2="1257"/><line style="stroke:#181818;stroke-width:0.5;" x1="579" x2="660" y1="1265" y2="1265"/></g><!--MD5=[37923dc032bbfca87d4413e584fa2cda]
class Incorrect--><g id="elem_Incorrect"><rect codeLine="40" fill="#F1F1F1" height="48" id="Incorrect" rx="2.5" ry="2.5" style="stroke:#181818;stroke-width:0.5;" width="93" x="426" y="1225"/><ellipse cx="441" cy="1241" fill="#ADD1B2" rx="11" ry="11" style="stroke:#181818;stroke-width:1.0;"/><path d="M443.4731,1247.1431 Q442.8921,1247.4419 442.2529,1247.5913 Q441.6138,1247.7407 440.9082,1247.7407 Q438.4014,1247.7407 437.0815,1246.0889 Q435.7617,1244.437 435.7617,1241.3159 Q435.7617,1238.1865 437.0815,1236.5347 Q438.4014,1234.8828 440.9082,1234.8828 Q441.6138,1234.8828 442.2612,1235.0322 Q442.9087,1235.1816 443.4731,1235.4805 L443.4731,1238.2031 Q442.8423,1237.6221 442.2488,1237.3523 Q441.6553,1237.0825 441.0244,1237.0825 Q439.6797,1237.0825 438.9949,1238.1492 Q438.3101,1239.2158 438.3101,1241.3159 Q438.3101,1243.4077 438.9949,1244.4744 Q439.6797,1245.541 441.0244,1245.541 Q441.6553,1245.541 442.2488,1245.2712 Q442.8423,1245.0015 443.4731,1244.4204 Z " fill="#000000"/><text fill="#000000" font-family="sans-serif" font-size="14" lengthAdjust="spacing" textLength="61" x="455" y="1246.291">Incorrect</text><line style="stroke:#181818;stroke-width:0.5;" x1="427" x2="518" y1="1257" y2="1257"/><line style="stroke:#181818;stroke-width:0.5;" x1="427" x2="518" y1="1265" y2="1265"/></g><!--MD5=[7a7df4cc8beee4d5ec4845ad980cbb28]
class OpenField--><g id="elem_OpenField"><rect codeLine="42" fill="#F1F1F1" height="80.9766" id="OpenField" rx="2.5" ry="2.5" style="stroke:#181818;stroke-width:0.5;" width="112" x="484.5" y="1390"/><ellipse cx="504" cy="1406" fill="#ADD1B2" rx="11" ry="11" style="stroke:#181818;stroke-width:1.0;"/><path d="M506.4731,1412.1431 Q505.8921,1412.4419 505.2529,1412.5913 Q504.6138,1412.7407 503.9082,1412.7407 Q501.4014,1412.7407 500.0815,1411.0889 Q498.7617,1409.437 498.7617,1406.3159 Q498.7617,1403.1865 500.0815,1401.5347 Q501.4014,1399.8828 503.9082,1399.8828 Q504.6138,1399.8828 505.2612,1400.0322 Q505.9087,1400.1816 506.4731,1400.4805 L506.4731,1403.2031 Q505.8423,1402.6221 505.2488,1402.3523 Q504.6553,1402.0825 504.0244,1402.0825 Q502.6797,1402.0825 501.9949,1403.1492 Q501.3101,1404.2158 501.3101,1406.3159 Q501.3101,1408.4077 501.9949,1409.4744 Q502.6797,1410.541 504.0244,1410.541 Q504.6553,1410.541 505.2488,1410.2712 Q505.8423,1410.0015 506.4731,1409.4204 Z " fill="#000000"/><text fill="#000000" font-family="sans-serif" font-size="14" lengthAdjust="spacing" textLength="70" x="519" y="1411.291">OpenField</text><line style="stroke:#181818;stroke-width:0.5;" x1="485.5" x2="595.5" y1="1422" y2="1422"/><rect fill="none" height="6" style="stroke:#C82930;stroke-width:1.0;" width="6" x="492.5" y="1432.7441"/><text fill="#000000" font-family="sans-serif" font-size="14" lengthAdjust="spacing" textLength="77" x="504.5" y="1439.5352">isEvaluated</text><rect fill="none" height="6" style="stroke:#C82930;stroke-width:1.0;" width="6" x="492.5" y="1449.2324"/><text fill="#000000" font-family="sans-serif" font-size="14" lengthAdjust="spacing" textLength="86" x="504.5" y="1456.0234">isToConcept</text><line style="stroke:#181818;stroke-width:0.5;" x1="485.5" x2="595.5" y1="1462.9766" y2="1462.9766"/></g><!--MD5=[bed984ae8b00ce24eb0f64fea27a6507]
class SelectedOption--><g id="elem_SelectedOption"><rect codeLine="47" fill="#F1F1F1" height="48" id="SelectedOption" rx="2.5" ry="2.5" style="stroke:#181818;stroke-width:0.5;" width="136" x="88.5" y="1029"/><ellipse cx="103.5" cy="1045" fill="#ADD1B2" rx="11" ry="11" style="stroke:#181818;stroke-width:1.0;"/><path d="M105.9731,1051.1431 Q105.3921,1051.4419 104.7529,1051.5913 Q104.1138,1051.7407 103.4082,1051.7407 Q100.9014,1051.7407 99.5815,1050.0889 Q98.2617,1048.437 98.2617,1045.3159 Q98.2617,1042.1865 99.5815,1040.5347 Q100.9014,1038.8828 103.4082,1038.8828 Q104.1138,1038.8828 104.7612,1039.0322 Q105.4087,1039.1816 105.9731,1039.4805 L105.9731,1042.2031 Q105.3423,1041.6221 104.7488,1041.3523 Q104.1553,1041.0825 103.5244,1041.0825 Q102.1797,1041.0825 101.4949,1042.1492 Q100.8101,1043.2158 100.8101,1045.3159 Q100.8101,1047.4077 101.4949,1048.4744 Q102.1797,1049.541 103.5244,1049.541 Q104.1553,1049.541 104.7488,1049.2712 Q105.3423,1049.0015 105.9731,1048.4204 Z " fill="#000000"/><text fill="#000000" font-family="sans-serif" font-size="14" lengthAdjust="spacing" textLength="104" x="117.5" y="1050.291">SelectedOption</text><line style="stroke:#181818;stroke-width:0.5;" x1="89.5" x2="223.5" y1="1061" y2="1061"/><line style="stroke:#181818;stroke-width:0.5;" x1="89.5" x2="223.5" y1="1069" y2="1069"/></g><!--MD5=[af22135d5be6ed11ccd2d02fa51653b3]
class Definition--><g id="elem_Definition"><rect fill="#F1F1F1" height="48" id="Definition" rx="2.5" ry="2.5" style="stroke:#181818;stroke-width:0.5;" width="99" x="744" y="1029"/><ellipse cx="759" cy="1045" fill="#ADD1B2" rx="11" ry="11" style="stroke:#181818;stroke-width:1.0;"/><path d="M761.4731,1051.1431 Q760.8921,1051.4419 760.2529,1051.5913 Q759.6138,1051.7407 758.9082,1051.7407 Q756.4014,1051.7407 755.0815,1050.0889 Q753.7617,1048.437 753.7617,1045.3159 Q753.7617,1042.1865 755.0815,1040.5347 Q756.4014,1038.8828 758.9082,1038.8828 Q759.6138,1038.8828 760.2612,1039.0322 Q760.9087,1039.1816 761.4731,1039.4805 L761.4731,1042.2031 Q760.8423,1041.6221 760.2488,1041.3523 Q759.6553,1041.0825 759.0244,1041.0825 Q757.6797,1041.0825 756.9949,1042.1492 Q756.3101,1043.2158 756.3101,1045.3159 Q756.3101,1047.4077 756.9949,1048.4744 Q757.6797,1049.541 759.0244,1049.541 Q759.6553,1049.541 760.2488,1049.2712 Q760.8423,1049.0015 761.4731,1048.4204 Z " fill="#000000"/><text fill="#000000" font-family="sans-serif" font-size="14" lengthAdjust="spacing" textLength="67" x="773" y="1050.291">Definition</text><line style="stroke:#181818;stroke-width:0.5;" x1="745" x2="842" y1="1061" y2="1061"/><line style="stroke:#181818;stroke-width:0.5;" x1="745" x2="842" y1="1069" y2="1069"/></g><!--MD5=[9b4de504215638550a8bb9c080b7ee00]
class Justification--><g id="elem_Justification"><rect fill="#F1F1F1" height="48" id="Justification" rx="2.5" ry="2.5" style="stroke:#181818;stroke-width:0.5;" width="112" x="847.5" y="1225"/><ellipse cx="862.5" cy="1241" fill="#ADD1B2" rx="11" ry="11" style="stroke:#181818;stroke-width:1.0;"/><path d="M864.9731,1247.1431 Q864.3921,1247.4419 863.7529,1247.5913 Q863.1138,1247.7407 862.4082,1247.7407 Q859.9014,1247.7407 858.5815,1246.0889 Q857.2617,1244.437 857.2617,1241.3159 Q857.2617,1238.1865 858.5815,1236.5347 Q859.9014,1234.8828 862.4082,1234.8828 Q863.1138,1234.8828 863.7612,1235.0322 Q864.4087,1235.1816 864.9731,1235.4805 L864.9731,1238.2031 Q864.3423,1237.6221 863.7488,1237.3523 Q863.1553,1237.0825 862.5244,1237.0825 Q861.1797,1237.0825 860.4949,1238.1492 Q859.8101,1239.2158 859.8101,1241.3159 Q859.8101,1243.4077 860.4949,1244.4744 Q861.1797,1245.541 862.5244,1245.541 Q863.1553,1245.541 863.7488,1245.2712 Q864.3423,1245.0015 864.9731,1244.4204 Z " fill="#000000"/><text fill="#000000" font-family="sans-serif" font-size="14" lengthAdjust="spacing" textLength="80" x="876.5" y="1246.291">Justification</text><line style="stroke:#181818;stroke-width:0.5;" x1="848.5" x2="958.5" y1="1257" y2="1257"/><line style="stroke:#181818;stroke-width:0.5;" x1="848.5" x2="958.5" y1="1265" y2="1265"/></g><!--MD5=[b355d11dc5a9142e22f9a644da54834e]
class Explication--><g id="elem_Explication"><rect fill="#F1F1F1" height="48" id="Explication" rx="2.5" ry="2.5" style="stroke:#181818;stroke-width:0.5;" width="108" x="1016.5" y="1406"/><ellipse cx="1031.5" cy="1422" fill="#ADD1B2" rx="11" ry="11" style="stroke:#181818;stroke-width:1.0;"/><path d="M1033.9731,1428.1431 Q1033.3921,1428.4419 1032.7529,1428.5913 Q1032.1138,1428.7407 1031.4082,1428.7407 Q1028.9014,1428.7407 1027.5815,1427.0889 Q1026.2617,1425.437 1026.2617,1422.3159 Q1026.2617,1419.1865 1027.5815,1417.5347 Q1028.9014,1415.8828 1031.4082,1415.8828 Q1032.1138,1415.8828 1032.7612,1416.0322 Q1033.4087,1416.1816 1033.9731,1416.4805 L1033.9731,1419.2031 Q1033.3423,1418.6221 1032.7488,1418.3523 Q1032.1553,1418.0825 1031.5244,1418.0825 Q1030.1797,1418.0825 1029.4949,1419.1492 Q1028.8101,1420.2158 1028.8101,1422.3159 Q1028.8101,1424.4077 1029.4949,1425.4744 Q1030.1797,1426.541 1031.5244,1426.541 Q1032.1553,1426.541 1032.7488,1426.2712 Q1033.3423,1426.0015 1033.9731,1425.4204 Z " fill="#000000"/><text fill="#000000" font-family="sans-serif" font-size="14" lengthAdjust="spacing" textLength="76" x="1045.5" y="1427.291">Explication</text><line style="stroke:#181818;stroke-width:0.5;" x1="1017.5" x2="1123.5" y1="1438" y2="1438"/><line style="stroke:#181818;stroke-width:0.5;" x1="1017.5" x2="1123.5" y1="1446" y2="1446"/></g><!--MD5=[534474e9f05b14d7c70186ae077f30e0]
class Relation--><g id="elem_Relation"><rect fill="#F1F1F1" height="48" id="Relation" rx="2.5" ry="2.5" style="stroke:#181818;stroke-width:0.5;" width="88" x="918.5" y="1127"/><ellipse cx="933.5" cy="1143" fill="#ADD1B2" rx="11" ry="11" style="stroke:#181818;stroke-width:1.0;"/><path d="M935.9731,1149.1431 Q935.3921,1149.4419 934.7529,1149.5913 Q934.1138,1149.7407 933.4082,1149.7407 Q930.9014,1149.7407 929.5815,1148.0889 Q928.2617,1146.437 928.2617,1143.3159 Q928.2617,1140.1865 929.5815,1138.5347 Q930.9014,1136.8828 933.4082,1136.8828 Q934.1138,1136.8828 934.7612,1137.0322 Q935.4087,1137.1816 935.9731,1137.4805 L935.9731,1140.2031 Q935.3423,1139.6221 934.7488,1139.3523 Q934.1553,1139.0825 933.5244,1139.0825 Q932.1797,1139.0825 931.4949,1140.1492 Q930.8101,1141.2158 930.8101,1143.3159 Q930.8101,1145.4077 931.4949,1146.4744 Q932.1797,1147.541 933.5244,1147.541 Q934.1553,1147.541 934.7488,1147.2712 Q935.3423,1147.0015 935.9731,1146.4204 Z " fill="#000000"/><text fill="#000000" font-family="sans-serif" font-size="14" lengthAdjust="spacing" textLength="56" x="947.5" y="1148.291">Relation</text><line style="stroke:#181818;stroke-width:0.5;" x1="919.5" x2="1005.5" y1="1159" y2="1159"/><line style="stroke:#181818;stroke-width:0.5;" x1="919.5" x2="1005.5" y1="1167" y2="1167"/></g><!--MD5=[8235d596e40eaa310e25cb7e3d92ec72]
reverse link Community to User--><g id="link_Community_User"><path codeLine="50" d="M897.67,64.43 C870.16,86.82 834.24,116.07 809.67,136.07 " fill="none" id="Community-backto-User" style="stroke:#181818;stroke-width:1.0;"/><polygon fill="#181818" points="907.71,56.25,900.5312,56.9314,898.3991,63.8201,905.5779,63.1387,907.71,56.25" style="stroke:#181818;stroke-width:1.0;"/><text fill="#000000" font-family="sans-serif" font-size="13" lengthAdjust="spacing" textLength="24" x="790.0157" y="125.2333">2..n</text></g><!--MD5=[8b55897a5ea9705e017b96a45c367fde]
reverse link Community to Category--><g id="link_Community_Category"><path codeLine="51" d="M974.18,65.5 C996.01,89.19 1019.5,123.04 1019.5,159 C1019.5,159 1019.5,159 1019.5,850 C1019.5,915.05 1020.03,991.89 1020.31,1029.28 " fill="none" id="Community-backto-Category" style="stroke:#181818;stroke-width:1.0;"/><polygon fill="none" points="965.4,56.44,966.6987,63.5332,973.7457,65.0626,972.4471,57.9694,965.4,56.44" style="stroke:#181818;stroke-width:1.0;"/><text fill="#000000" font-family="sans-serif" font-size="13" lengthAdjust="spacing" textLength="24" x="992.8816" y="1018.1114">0..n</text></g><!--MD5=[c98fdacbcd4eb224c2d9d26b53646e58]
reverse link Category to Category--><g id="link_Category_Category"><path codeLine="53" d="M1081.64,1034.73 C1106.04,1033.73 1126.5,1039.82 1126.5,1053 C1126.5,1068.7 1097.5,1074.34 1067.36,1069.92 " fill="none" id="Category-backto-Category" style="stroke:#181818;stroke-width:1.0;"/><polygon fill="none" points="1068.87,1035.94,1075.2178,1039.3614,1080.8174,1034.8179,1074.4697,1031.3965,1068.87,1035.94" style="stroke:#181818;stroke-width:1.0;"/><text fill="#000000" font-family="sans-serif" font-size="13" lengthAdjust="spacing" textLength="88" x="1132.5" y="1058.0684">Subcategories</text><text fill="#000000" font-family="sans-serif" font-size="13" lengthAdjust="spacing" textLength="24" x="1075.6055" y="1076.3455">0..n</text></g><!--MD5=[d87c224b488f6c9759d0a77cb4053101]
reverse link User to Teacher--><g id="link_User_Teacher"><path codeLine="55" d="M781.5,205.3 C781.5,225.32 781.5,248.15 781.5,264.74 " fill="none" id="User-backto-Teacher" style="stroke:#181818;stroke-width:1.0;"/><polygon fill="none" points="774.5,205.51,781.5,185.51,788.5,205.51,774.5,205.51" style="stroke:#181818;stroke-width:1.0;"/></g><!--MD5=[29fe19ce294944fa80f389ae9bd987a4]
reverse link User to Student--><g id="link_User_Student"><path codeLine="56" d="M738.25,197.62 C712.8,219.17 681.37,245.78 659.22,264.53 " fill="none" id="User-backto-Student" style="stroke:#181818;stroke-width:1.0;"/><polygon fill="none" points="733.39,192.56,753.18,184.98,742.44,203.24,733.39,192.56" style="stroke:#181818;stroke-width:1.0;"/></g><!--MD5=[a8afb83bcf8ff3e1e4f8554b4cb258ee]
link Teacher to Concept--><g id="link_Teacher_Concept"><path codeLine="58" d="M806.93,313.1 C830.03,336.72 860.5,375.71 860.5,417 C860.5,417 860.5,417 860.5,685 C860.5,729.2 873.28,778.58 883.61,811.29 " fill="none" id="Teacher-to-Concept" style="stroke:#181818;stroke-width:1.0;"/><polygon fill="#181818" points="885.04,815.76,886.095,805.9678,883.5104,810.9997,878.4785,808.4151,885.04,815.76" style="stroke:#181818;stroke-width:1.0;"/><text fill="#000000" font-family="sans-serif" font-size="13" lengthAdjust="spacing" textLength="24" x="856.4688" y="806.152">0..n</text></g><!--MD5=[f4125322de8968b604c5431ed9c8902a]
link Concept to Category--><g id="link_Concept_Category"><path codeLine="59" d="M915.33,880.68 C937.81,917.29 975.3,978.37 998.92,1016.85 " fill="none" id="Concept-to-Category" style="stroke:#181818;stroke-width:1.0;"/><polygon fill="none" points="1005.71,1027.91,1005.9824,1020.704,999.4355,1017.6811,999.1631,1024.887,1005.71,1027.91" style="stroke:#181818;stroke-width:1.0;"/></g><!--MD5=[ed083f2d1ee1d19af9b715a82f936d84]
link Question to Concept--><g id="link_Question_Concept"><path codeLine="60" d="M636.1,707.5 C681.15,729.51 751.12,764.39 810.5,797 C820.02,802.23 830.03,807.95 839.71,813.61 " fill="none" id="Question-to-Concept" style="stroke:#181818;stroke-width:1.0;"/><polygon fill="none" points="850.88,820.19,847.7477,813.6947,840.5473,814.0879,843.6796,820.5832,850.88,820.19" style="stroke:#181818;stroke-width:1.0;"/></g><!--MD5=[543bb2115b5a10697a67507a00f6a2f4]
reverse link Concept to Definition--><g id="link_Concept_Definition"><path codeLine="61" d="M874.38,893.38 C853.27,934.78 822.26,995.6 805.43,1028.61 " fill="none" id="Concept-backto-Definition" style="stroke:#181818;stroke-width:1.0;"/><polygon fill="none" points="880.17,882.03,873.8794,885.5553,874.714,892.7179,881.0047,889.1926,880.17,882.03" style="stroke:#181818;stroke-width:1.0;"/></g><!--MD5=[38796b68b5180f699f927fbe8d179b6a]
reverse link Definition to Justification--><g id="link_Definition_Justification"><path codeLine="62" d="M813.79,1089.78 C836.05,1129.05 871.16,1190.97 890.18,1224.52 " fill="none" id="Definition-backto-Justification" style="stroke:#181818;stroke-width:1.0;"/><polygon fill="none" points="807.52,1078.72,806.9994,1085.9123,813.4381,1089.1591,813.9588,1081.9669,807.52,1078.72" style="stroke:#181818;stroke-width:1.0;"/></g><!--MD5=[5b13a3dd25e80832e08dfc192ea141c9]
reverse link Justification to Explication--><g id="link_Justification_Explication"><path codeLine="63" d="M935.01,1283.77 C968.22,1319.37 1019.65,1374.5 1048.66,1405.59 " fill="none" id="Justification-backto-Explication" style="stroke:#181818;stroke-width:1.0;"/><polygon fill="none" points="926.36,1274.51,927.5316,1281.6253,934.5502,1283.2805,933.3786,1276.1652,926.36,1274.51" style="stroke:#181818;stroke-width:1.0;"/></g><!--MD5=[54f9360500e0fd532969fc16f437bbea]
reverse link Concept to Relation--><g id="link_Concept_Relation"><path codeLine="64" d="M898.09,895.12 C901,945.55 909.23,1029.05 932.5,1097 C935.99,1107.2 941.47,1117.69 946.79,1126.61 " fill="none" id="Concept-backto-Relation" style="stroke:#181818;stroke-width:1.0;"/><polygon fill="none" points="897.44,882.4,893.7484,888.5945,898.0465,894.3847,901.7381,888.1902,897.44,882.4" style="stroke:#181818;stroke-width:1.0;"/></g><!--MD5=[a87ccfb1ad401ebc9457283edda68da5]
link Student to Evaluation--><g id="link_Student_Evaluation"><path codeLine="66" d="M590.52,313.44 C552.03,335.46 494.56,368.34 454.74,391.12 " fill="none" id="Student-to-Evaluation" style="stroke:#181818;stroke-width:1.0;"/><polygon fill="#181818" points="450.8,393.37,460.598,392.3708,455.1395,390.8862,456.624,385.4277,450.8,393.37" style="stroke:#181818;stroke-width:1.0;"/><text fill="#000000" font-family="sans-serif" font-size="13" lengthAdjust="spacing" textLength="24" x="433.0123" y="383.2967">0..n</text></g><!--MD5=[7ea0c49f743e358ac875b85df2ad47d3]
link Evaluation to Test--><g id="link_Evaluation_Test"><path codeLine="67" d="M433.04,442 C454.99,463.44 487.77,495.46 511.15,518.3 " fill="none" id="Evaluation-to-Test" style="stroke:#181818;stroke-width:1.0;"/><polygon fill="#181818" points="514.61,521.69,510.9818,512.5338,511.0389,518.1904,505.3824,518.2475,514.61,521.69" style="stroke:#181818;stroke-width:1.0;"/></g><!--MD5=[a2e747a1485550e1f078495d463b7eef]
link Evaluation to Result--><g id="link_Evaluation_Result"><path codeLine="68" d="M374.52,441.84 C353.56,455.83 326.59,474.37 303.5,492 C292.68,500.26 281.2,509.71 271.01,518.37 " fill="none" id="Evaluation-to-Result" style="stroke:#181818;stroke-width:1.0;"/><polygon fill="#181818" points="267.26,521.56,276.7077,518.7779,271.0693,518.3213,271.5259,512.6829,267.26,521.56" style="stroke:#181818;stroke-width:1.0;"/></g><!--MD5=[67b6cc77f9c51a9ece6c1301ad2aff24]
link Teacher to Evaluation--><g id="link_Teacher_Evaluation"><path codeLine="70" d="M737.73,304.94 C670.35,327.95 541.18,372.05 466.55,397.52 " fill="none" id="Teacher-to-Evaluation" style="stroke:#181818;stroke-width:1.0;stroke-dasharray:7.0,7.0;"/><polygon fill="#181818" points="462.26,398.99,472.0697,399.8678,466.9919,397.3746,469.485,392.2968,462.26,398.99" style="stroke:#181818;stroke-width:1.0;"/></g><!--MD5=[1b432fffcedc50ec5f356a88e2ea817a]
reverse link Definition to OpenField--><g id="link_Definition_OpenField"><path codeLine="72" d="M783.22,1083.18 C765.91,1130.04 727.96,1223.81 678.5,1293 C652.48,1329.4 616.25,1364.68 587.44,1390.19 " fill="none" id="Definition-backto-OpenField" style="stroke:#181818;stroke-width:1.0;stroke-dasharray:7.0,7.0;"/><polygon fill="#181818" points="784.9,1078.58,778.0582,1085.6645,783.1867,1083.2773,785.5739,1088.4058,784.9,1078.58" style="stroke:#181818;stroke-width:1.0;"/><text fill="#000000" font-family="sans-serif" font-size="13" lengthAdjust="spacing" textLength="79" x="731.5" y="1254.0684">isToConcept</text></g><!--MD5=[e1ec55147318f2382fdddf375dac6275]
reverse link Justification to OpenField--><g id="link_Justification_OpenField"><path codeLine="73" d="M863.79,1276.93 C834.99,1295.85 794.72,1321.05 757.5,1340 C704.34,1367.06 640.96,1392.3 596.46,1408.93 " fill="none" id="Justification-backto-OpenField" style="stroke:#181818;stroke-width:1.0;stroke-dasharray:7.0,7.0;"/><polygon fill="#181818" points="867.76,1274.31,858.0462,1275.9356,863.5888,1277.067,862.4574,1282.6096,867.76,1274.31" style="stroke:#181818;stroke-width:1.0;"/><text fill="#000000" font-family="sans-serif" font-size="13" lengthAdjust="spacing" textLength="79" x="787.5" y="1336.5684">isToConcept</text></g><!--MD5=[a4bff028cdc16936992af2f7b1d949df]
reverse link Relation to OpenField--><g id="link_Relation_OpenField"><path codeLine="74" d="M975.64,1181.12 C987.19,1211.49 999.09,1259.28 977.5,1293 C935.78,1358.16 704.63,1402.89 596.41,1420.56 " fill="none" id="Relation-backto-OpenField" style="stroke:#181818;stroke-width:1.0;stroke-dasharray:7.0,7.0;"/><polygon fill="#181818" points="973.9,1176.69,973.466,1186.5293,975.7274,1181.3441,980.9126,1183.6055,973.9,1176.69" style="stroke:#181818;stroke-width:1.0;"/><text fill="#000000" font-family="sans-serif" font-size="13" lengthAdjust="spacing" textLength="79" x="990.5" y="1254.0684">isToConcept</text></g><!--MD5=[5284034e923ec477e5aced6968d3b1b1]
reverse link Evaluation to OpenField--><g id="link_Evaluation_OpenField"><path codeLine="76" d="M397.18,447.61 C371.08,509.79 310.53,662.48 285.5,797 C272.72,865.69 277.5,884.13 277.5,954 C277.5,954 277.5,954 277.5,1250 C277.5,1349.42 407.52,1397.52 484.72,1417.33 " fill="none" id="Evaluation-backto-OpenField" style="stroke:#181818;stroke-width:1.0;stroke-dasharray:7.0,7.0;"/><polygon fill="#181818" points="399.01,443.27,391.8235,450.0045,397.0646,447.876,399.1931,453.1172,399.01,443.27" style="stroke:#181818;stroke-width:1.0;"/><text fill="#000000" font-family="sans-serif" font-size="13" lengthAdjust="spacing" textLength="137" x="286.5" y="854.0684">manual (! isEvaluated)</text></g><!--MD5=[633f8dfcb7b6c7cb49429b789d025168]
reverse link Evaluation to SelectedOption--><g id="link_Evaluation_SelectedOption"><path codeLine="77" d="M351.79,422.28 C275.19,430.11 149.5,456.58 149.5,546 C149.5,546 149.5,546 149.5,850 C149.5,914.74 153.14,991.09 155.17,1028.68 " fill="none" id="Evaluation-backto-SelectedOption" style="stroke:#181818;stroke-width:1.0;stroke-dasharray:7.0,7.0;"/><polygon fill="#181818" points="356.63,421.81,347.2846,418.7015,351.6536,422.2948,348.0603,426.6638,356.63,421.81" style="stroke:#181818;stroke-width:1.0;"/><text fill="#000000" font-family="sans-serif" font-size="13" lengthAdjust="spacing" textLength="63" x="150.5" y="689.0684">automatic</text></g><!--MD5=[37c1e8dba486a8108983e1d119d6febb]
reverse link Test to Question--><g id="link_Test_Question"><path codeLine="79" d="M553.03,584.54 C560.85,605.65 570.58,631.92 578.02,652.01 " fill="none" id="Test-backto-Question" style="stroke:#181818;stroke-width:1.0;"/><polygon fill="#181818" points="548.62,572.63,546.9534,579.6459,552.7886,583.8827,554.4552,576.8668,548.62,572.63" style="stroke:#181818;stroke-width:1.0;"/><text fill="#000000" font-family="sans-serif" font-size="13" lengthAdjust="spacing" textLength="24" x="549.1773" y="641.4152">1..n</text></g><!--MD5=[f5bccbd5bfaa05fddfe2ae56cb719779]
reverse link Question to MultipleChoice--><g id="link_Question_MultipleChoice"><path codeLine="80" d="M589.5,737.16 C589.5,766.58 589.5,801.87 589.5,824.6 " fill="none" id="Question-backto-MultipleChoice" style="stroke:#181818;stroke-width:1.0;"/><polygon fill="none" points="582.5,737.17,589.5,717.17,596.5,737.17,582.5,737.17" style="stroke:#181818;stroke-width:1.0;"/></g><!--MD5=[4cad30c456caf6c2d8ef64c6efcf5ce1]
reverse link Question to Open--><g id="link_Question_Open"><path codeLine="81" d="M553.26,732.8 C538.36,752.59 520.99,775.82 505.5,797 C471,844.16 431.5,899.97 409.84,930.73 " fill="none" id="Question-backto-Open" style="stroke:#181818;stroke-width:1.0;"/><polygon fill="none" points="547.58,728.71,565.21,716.96,558.75,737.14,547.58,728.71" style="stroke:#181818;stroke-width:1.0;"/></g><!--MD5=[eff6b19138ddb6af13849faaf0a4f1bc]
reverse link Question to Statement--><g id="link_Question_Statement"><path codeLine="82" d="M628.16,726.19 C657.39,757.33 696.47,798.96 720.54,824.6 " fill="none" id="Question-backto-Statement" style="stroke:#181818;stroke-width:1.0;"/><polygon fill="#181818" points="619.31,716.76,620.4983,723.8725,627.5208,725.5112,626.3325,718.3986,619.31,716.76" style="stroke:#181818;stroke-width:1.0;"/></g><!--MD5=[ead2da4d06dc47ab4b58230ab7355ef0]
reverse link MultipleChoice to Option--><g id="link_MultipleChoice_Option"><path codeLine="83" d="M586.53,887.54 C583.24,929.06 578.04,994.63 575.31,1029.1 " fill="none" id="MultipleChoice-backto-Option" style="stroke:#181818;stroke-width:1.0;"/><polygon fill="#181818" points="587.55,874.68,583.0877,880.3446,586.6004,886.6424,591.0627,880.9777,587.55,874.68" style="stroke:#181818;stroke-width:1.0;"/><text fill="#000000" font-family="sans-serif" font-size="13" lengthAdjust="spacing" textLength="24" x="548.5714" y="1018.2713">2..n</text></g><!--MD5=[8b4b6ce4502ba24ddb3ea6e9e3ffd79d]
reverse link Option to Incorrect--><g id="link_Option_Incorrect"><path codeLine="84" d="M551.79,1095.69 C531.16,1135.32 500.9,1193.45 484.36,1225.21 " fill="none" id="Option-backto-Incorrect" style="stroke:#181818;stroke-width:1.0;"/><polygon fill="none" points="545.57,1092.48,561.02,1077.98,557.99,1098.95,545.57,1092.48" style="stroke:#181818;stroke-width:1.0;"/></g><!--MD5=[e9c99f228a0238815f6b3520e77f42c1]
reverse link Option to Correct--><g id="link_Option_Correct"><path codeLine="85" d="M583.81,1097.49 C593.14,1136.81 606.51,1193.2 613.95,1224.61 " fill="none" id="Option-backto-Correct" style="stroke:#181818;stroke-width:1.0;"/><polygon fill="none" points="577.02,1099.18,579.22,1078.11,590.64,1095.95,577.02,1099.18" style="stroke:#181818;stroke-width:1.0;"/></g><!--MD5=[dbc39d3c7bd5d7c9396f15d8cd3d35b5]
reverse link MultipleChoice to Correct--><g id="link_MultipleChoice_Correct"><path codeLine="86" d="M609.05,886.19 C624.85,917.62 645.83,964.9 654.5,1009 C669.94,1087.59 642.86,1181.95 628.11,1224.8 " fill="none" id="MultipleChoice-backto-Correct" style="stroke:#181818;stroke-width:1.0;"/><polygon fill="#181818" points="603.12,874.68,602.3135,881.8459,608.618,885.3464,609.4245,878.1805,603.12,874.68" style="stroke:#181818;stroke-width:1.0;"/></g><!--MD5=[edac056e3da0b394aa7eb7158b920fdf]
reverse link MultipleChoice to Incorrect--><g id="link_MultipleChoice_Incorrect"><path codeLine="87" d="M561.76,884.63 C538.85,915.36 507.7,962.46 492.5,1009 C467.62,1085.19 468.85,1181.94 470.99,1225.24 " fill="none" id="MultipleChoice-backto-Incorrect" style="stroke:#181818;stroke-width:1.0;"/><polygon fill="#181818" points="569.48,874.51,562.6633,876.8621,562.2126,884.0591,569.0294,881.707,569.48,874.51" style="stroke:#181818;stroke-width:1.0;"/><text fill="#000000" font-family="sans-serif" font-size="13" lengthAdjust="spacing" textLength="24" x="443.3592" y="1214.449">1..n</text></g><!--MD5=[7f85988a8424233e6b2a524ae8a6ac9b]
reverse link MultipleChoice to SelectedOption--><g id="link_MultipleChoice_SelectedOption"><path codeLine="88" d="M508.34,874.71 C449.58,893.03 375.59,917.15 346.5,931 C287.36,959.16 224.27,1002.27 187.72,1028.71 " fill="none" id="MultipleChoice-backto-SelectedOption" style="stroke:#181818;stroke-width:1.0;"/><polygon fill="#181818" points="520.7,870.87,513.7834,868.8304,509.2404,874.4305,516.157,876.4701,520.7,870.87" style="stroke:#181818;stroke-width:1.0;"/></g><!--MD5=[59461357328b13f33e0e2dce35b637f1]
reverse link Open to OpenField--><g id="link_Open_OpenField"><path codeLine="89" d="M382.38,993.16 C365.24,1057.57 338.86,1192.67 384.5,1293 C405.03,1338.13 448.76,1374.13 484.71,1397.72 " fill="none" id="Open-backto-OpenField" style="stroke:#181818;stroke-width:1.0;"/><polygon fill="none" points="385.77,980.9,380.3131,985.6141,382.5658,992.4643,388.0226,987.7502,385.77,980.9" style="stroke:#181818;stroke-width:1.0;"/><text fill="#000000" font-family="sans-serif" font-size="13" lengthAdjust="spacing" textLength="24" x="452.4481" y="1390.3996">1..n</text></g><!--MD5=[f8d4517273a291fe1b4647de6925b9ab]
reverse link Answer to OpenField--><g id="link_Answer_OpenField"><path codeLine="90" d="M45.32,894.8 C43.32,945.57 44.93,1029.98 70.5,1097 C118.51,1222.82 141.48,1262.34 251.5,1340 C322.59,1390.18 422.77,1412.69 484.58,1422.33 " fill="none" id="Answer-backto-OpenField" style="stroke:#181818;stroke-width:1.0;"/><polygon fill="none" points="38.33,894.52,46.38,874.92,52.31,895.26,38.33,894.52" style="stroke:#181818;stroke-width:1.0;"/></g><!--MD5=[c9991b0162c2b5928e47e95121f6f5d4]
reverse link Answer to SelectedOption--><g id="link_Answer_SelectedOption"><path codeLine="91" d="M70.93,891.95 C93.11,933.45 126.26,995.44 144.09,1028.79 " fill="none" id="Answer-backto-SelectedOption" style="stroke:#181818;stroke-width:1.0;"/><polygon fill="none" points="64.86,895.44,61.6,874.51,77.21,888.84,64.86,895.44" style="stroke:#181818;stroke-width:1.0;"/></g><!--MD5=[5e0ec14b535cc780d30906c66ed0cf1e]
@startuml OpoTestDomain

class Community

class User

class Teacher

class Student

class Evaluation

class Result

class Category 

class Test 

class AnswersToReview

class Concept {
    - keyword
}

class Question {
    - level
}

class Statement

class Answer 

class Open 

class MultipleChoice

class Option

class Correct

Class Incorrect

class OpenField {
    - isEvaluated
    - isToConcept
}

Class SelectedOption


Community *- -"2..n" User
Community o- -"0..n" Category

Category o- -"0..n" Category : Subcategories

User <|- - Teacher
User <|- - Student

Teacher - ->"0..n" Concept
Concept - -o Category
Question - -o Concept
Concept o- - Definition
Definition o- - Justification
Justification o- - Explication
Concept o- - Relation

Student - ->"0..n" Evaluation
Evaluation - -> Test
Evaluation - -> Result

Teacher ..> Evaluation
'AnswersToReview *- -  OpenField
Definition <.. OpenField :isToConcept
Justification <.. OpenField :isToConcept
Relation <.. OpenField :isToConcept

Evaluation <.. OpenField : manual (! isEvaluated)
Evaluation <.. SelectedOption : automatic

Test *- -"1..n" Question
Question <|- - MultipleChoice
Question <|- - Open
Question *- -   Statement
MultipleChoice *- -"2..n" Option
Option <|- - Incorrect
Option <|- - Correct
MultipleChoice *- - Correct
MultipleChoice *- -"1..n" Incorrect
MultipleChoice *- - SelectedOption
Open o- -"1..n" OpenField
Answer <|- - OpenField
Answer <|- - SelectedOption


@enduml

@startuml OpoTestDomain

class Community

class User

class Teacher

class Student

class Evaluation

class Result

class Category 

class Test 

class AnswersToReview

class Concept {
    - keyword
}

class Question {
    - level
}

class Statement

class Answer 

class Open 

class MultipleChoice

class Option

class Correct

Class Incorrect

class OpenField {
    - isEvaluated
    - isToConcept
}

Class SelectedOption


Community *- -"2..n" User
Community o- -"0..n" Category

Category o- -"0..n" Category : Subcategories

User <|- - Teacher
User <|- - Student

Teacher - ->"0..n" Concept
Concept - -o Category
Question - -o Concept
Concept o- - Definition
Definition o- - Justification
Justification o- - Explication
Concept o- - Relation

Student - ->"0..n" Evaluation
Evaluation - -> Test
Evaluation - -> Result

Teacher ..> Evaluation
Definition <.. OpenField :isToConcept
Justification <.. OpenField :isToConcept
Relation <.. OpenField :isToConcept

Evaluation <.. OpenField : manual (! isEvaluated)
Evaluation <.. SelectedOption : automatic

Test *- -"1..n" Question
Question <|- - MultipleChoice
Question <|- - Open
Question *- -   Statement
MultipleChoice *- -"2..n" Option
Option <|- - Incorrect
Option <|- - Correct
MultipleChoice *- - Correct
MultipleChoice *- -"1..n" Incorrect
MultipleChoice *- - SelectedOption
Open o- -"1..n" OpenField
Answer <|- - OpenField
Answer <|- - SelectedOption


@enduml

PlantUML version 1.2022.7(Mon Aug 22 18:01:30 WEST 2022)
(GPL source distribution)
Java Runtime: Java(TM) SE Runtime Environment
JVM: Java HotSpot(TM) 64-Bit Server VM
Default Encoding: UTF-8
Language: es
Country: ES
--></g></svg>