<?xml version="1.0" encoding="UTF-8" standalone="no"?><svg xmlns="http://www.w3.org/2000/svg" xmlns:xlink="http://www.w3.org/1999/xlink" contentStyleType="text/css" height="1225px" preserveAspectRatio="none" style="width:1117px;height:1225px;background:#FFFFFF;" version="1.1" viewBox="0 0 1117 1225" width="1117px" zoomAndPan="magnify"><defs/><g><!--MD5=[668d633d11bedc8952753581a2dda3db]
class Community--><g id="elem_Community"><rect codeLine="2" fill="#F1F1F1" height="48" id="Community" rx="2.5" ry="2.5" style="stroke:#181818;stroke-width:0.5;" width="102" x="835" y="7"/><ellipse cx="850" cy="23" fill="#ADD1B2" rx="11" ry="11" style="stroke:#181818;stroke-width:1.0;"/><path d="M852.7656,18.875 Q852.9219,18.6563 853.1094,18.5469 Q853.2969,18.4375 853.5156,18.4375 Q853.8906,18.4375 854.125,18.7031 Q854.3594,18.9531 854.3594,19.5625 L854.3594,21.0156 Q854.3594,21.625 854.125,21.8906 Q853.8906,22.1563 853.5156,22.1563 Q853.1719,22.1563 852.9688,21.9531 Q852.7656,21.7656 852.6563,21.25 Q852.6094,20.8906 852.4219,20.7031 Q852.0938,20.3281 851.4844,20.1094 Q850.875,19.8906 850.25,19.8906 Q849.4844,19.8906 848.8438,20.2188 Q848.2188,20.5469 847.7188,21.2969 Q847.2344,22.0469 847.2344,23.0781 L847.2344,24.1719 Q847.2344,25.4063 848.125,26.2344 Q849.0156,27.0469 850.6094,27.0469 Q851.5469,27.0469 852.2031,26.7969 Q852.5938,26.6406 853.0156,26.2031 Q853.2813,25.9375 853.4219,25.8594 Q853.5781,25.7813 853.7813,25.7813 Q854.1094,25.7813 854.3594,26.0469 Q854.625,26.2969 854.625,26.6406 Q854.625,26.9844 854.2813,27.3906 Q853.7813,27.9688 852.9844,28.2969 Q851.9063,28.75 850.6094,28.75 Q849.0938,28.75 847.8906,28.125 Q846.9063,27.625 846.2188,26.5625 Q845.5313,25.4844 845.5313,24.2031 L845.5313,23.0469 Q845.5313,21.7188 846.1406,20.5781 Q846.7656,19.4219 847.8594,18.8125 Q848.9531,18.1875 850.1875,18.1875 Q850.9219,18.1875 851.5625,18.3594 Q852.2188,18.5156 852.7656,18.875 Z " fill="#000000"/><text fill="#000000" font-family="sans-serif" font-size="14" lengthAdjust="spacing" textLength="70" x="864" y="28.7285">Community</text><line style="stroke:#181818;stroke-width:0.5;" x1="836" x2="936" y1="39" y2="39"/><line style="stroke:#181818;stroke-width:0.5;" x1="836" x2="936" y1="47" y2="47"/></g><!--MD5=[3fd616f346a44cd59a91eb10b19e157c]
class User--><g id="elem_User"><rect codeLine="4" fill="#F1F1F1" height="48" id="User" rx="2.5" ry="2.5" style="stroke:#181818;stroke-width:0.5;" width="61" x="774.5" y="116"/><ellipse cx="789.5" cy="132" fill="#ADD1B2" rx="11" ry="11" style="stroke:#181818;stroke-width:1.0;"/><path d="M792.2656,127.875 Q792.4219,127.6563 792.6094,127.5469 Q792.7969,127.4375 793.0156,127.4375 Q793.3906,127.4375 793.625,127.7031 Q793.8594,127.9531 793.8594,128.5625 L793.8594,130.0156 Q793.8594,130.625 793.625,130.8906 Q793.3906,131.1563 793.0156,131.1563 Q792.6719,131.1563 792.4688,130.9531 Q792.2656,130.7656 792.1563,130.25 Q792.1094,129.8906 791.9219,129.7031 Q791.5938,129.3281 790.9844,129.1094 Q790.375,128.8906 789.75,128.8906 Q788.9844,128.8906 788.3438,129.2188 Q787.7188,129.5469 787.2188,130.2969 Q786.7344,131.0469 786.7344,132.0781 L786.7344,133.1719 Q786.7344,134.4063 787.625,135.2344 Q788.5156,136.0469 790.1094,136.0469 Q791.0469,136.0469 791.7031,135.7969 Q792.0938,135.6406 792.5156,135.2031 Q792.7813,134.9375 792.9219,134.8594 Q793.0781,134.7813 793.2813,134.7813 Q793.6094,134.7813 793.8594,135.0469 Q794.125,135.2969 794.125,135.6406 Q794.125,135.9844 793.7813,136.3906 Q793.2813,136.9688 792.4844,137.2969 Q791.4063,137.75 790.1094,137.75 Q788.5938,137.75 787.3906,137.125 Q786.4063,136.625 785.7188,135.5625 Q785.0313,134.4844 785.0313,133.2031 L785.0313,132.0469 Q785.0313,130.7188 785.6406,129.5781 Q786.2656,128.4219 787.3594,127.8125 Q788.4531,127.1875 789.6875,127.1875 Q790.4219,127.1875 791.0625,127.3594 Q791.7188,127.5156 792.2656,127.875 Z " fill="#000000"/><text fill="#000000" font-family="sans-serif" font-size="14" lengthAdjust="spacing" textLength="29" x="803.5" y="137.7285">User</text><line style="stroke:#181818;stroke-width:0.5;" x1="775.5" x2="834.5" y1="148" y2="148"/><line style="stroke:#181818;stroke-width:0.5;" x1="775.5" x2="834.5" y1="156" y2="156"/></g><!--MD5=[61a83f88cb8b7d3a80bc8c481f3736bf]
class Teacher--><g id="elem_Teacher"><rect codeLine="6" fill="#F1F1F1" height="48" id="Teacher" rx="2.5" ry="2.5" style="stroke:#181818;stroke-width:0.5;" width="85" x="762.5" y="225"/><ellipse cx="777.5" cy="241" fill="#ADD1B2" rx="11" ry="11" style="stroke:#181818;stroke-width:1.0;"/><path d="M780.2656,236.875 Q780.4219,236.6563 780.6094,236.5469 Q780.7969,236.4375 781.0156,236.4375 Q781.3906,236.4375 781.625,236.7031 Q781.8594,236.9531 781.8594,237.5625 L781.8594,239.0156 Q781.8594,239.625 781.625,239.8906 Q781.3906,240.1563 781.0156,240.1563 Q780.6719,240.1563 780.4688,239.9531 Q780.2656,239.7656 780.1563,239.25 Q780.1094,238.8906 779.9219,238.7031 Q779.5938,238.3281 778.9844,238.1094 Q778.375,237.8906 777.75,237.8906 Q776.9844,237.8906 776.3438,238.2188 Q775.7188,238.5469 775.2188,239.2969 Q774.7344,240.0469 774.7344,241.0781 L774.7344,242.1719 Q774.7344,243.4063 775.625,244.2344 Q776.5156,245.0469 778.1094,245.0469 Q779.0469,245.0469 779.7031,244.7969 Q780.0938,244.6406 780.5156,244.2031 Q780.7813,243.9375 780.9219,243.8594 Q781.0781,243.7813 781.2813,243.7813 Q781.6094,243.7813 781.8594,244.0469 Q782.125,244.2969 782.125,244.6406 Q782.125,244.9844 781.7813,245.3906 Q781.2813,245.9688 780.4844,246.2969 Q779.4063,246.75 778.1094,246.75 Q776.5938,246.75 775.3906,246.125 Q774.4063,245.625 773.7188,244.5625 Q773.0313,243.4844 773.0313,242.2031 L773.0313,241.0469 Q773.0313,239.7188 773.6406,238.5781 Q774.2656,237.4219 775.3594,236.8125 Q776.4531,236.1875 777.6875,236.1875 Q778.4219,236.1875 779.0625,236.3594 Q779.7188,236.5156 780.2656,236.875 Z " fill="#000000"/><text fill="#000000" font-family="sans-serif" font-size="14" lengthAdjust="spacing" textLength="53" x="791.5" y="246.7285">Teacher</text><line style="stroke:#181818;stroke-width:0.5;" x1="763.5" x2="846.5" y1="257" y2="257"/><line style="stroke:#181818;stroke-width:0.5;" x1="763.5" x2="846.5" y1="265" y2="265"/></g><!--MD5=[d6181cb537bdc20c0a3007a98a56832d]
class Student--><g id="elem_Student"><rect codeLine="8" fill="#F1F1F1" height="48" id="Student" rx="2.5" ry="2.5" style="stroke:#181818;stroke-width:0.5;" width="81" x="580.5" y="225"/><ellipse cx="595.5" cy="241" fill="#ADD1B2" rx="11" ry="11" style="stroke:#181818;stroke-width:1.0;"/><path d="M598.2656,236.875 Q598.4219,236.6563 598.6094,236.5469 Q598.7969,236.4375 599.0156,236.4375 Q599.3906,236.4375 599.625,236.7031 Q599.8594,236.9531 599.8594,237.5625 L599.8594,239.0156 Q599.8594,239.625 599.625,239.8906 Q599.3906,240.1563 599.0156,240.1563 Q598.6719,240.1563 598.4688,239.9531 Q598.2656,239.7656 598.1563,239.25 Q598.1094,238.8906 597.9219,238.7031 Q597.5938,238.3281 596.9844,238.1094 Q596.375,237.8906 595.75,237.8906 Q594.9844,237.8906 594.3438,238.2188 Q593.7188,238.5469 593.2188,239.2969 Q592.7344,240.0469 592.7344,241.0781 L592.7344,242.1719 Q592.7344,243.4063 593.625,244.2344 Q594.5156,245.0469 596.1094,245.0469 Q597.0469,245.0469 597.7031,244.7969 Q598.0938,244.6406 598.5156,244.2031 Q598.7813,243.9375 598.9219,243.8594 Q599.0781,243.7813 599.2813,243.7813 Q599.6094,243.7813 599.8594,244.0469 Q600.125,244.2969 600.125,244.6406 Q600.125,244.9844 599.7813,245.3906 Q599.2813,245.9688 598.4844,246.2969 Q597.4063,246.75 596.1094,246.75 Q594.5938,246.75 593.3906,246.125 Q592.4063,245.625 591.7188,244.5625 Q591.0313,243.4844 591.0313,242.2031 L591.0313,241.0469 Q591.0313,239.7188 591.6406,238.5781 Q592.2656,237.4219 593.3594,236.8125 Q594.4531,236.1875 595.6875,236.1875 Q596.4219,236.1875 597.0625,236.3594 Q597.7188,236.5156 598.2656,236.875 Z " fill="#000000"/><text fill="#000000" font-family="sans-serif" font-size="14" lengthAdjust="spacing" textLength="49" x="609.5" y="246.7285">Student</text><line style="stroke:#181818;stroke-width:0.5;" x1="581.5" x2="660.5" y1="257" y2="257"/><line style="stroke:#181818;stroke-width:0.5;" x1="581.5" x2="660.5" y1="265" y2="265"/></g><!--MD5=[71e8807956d33805e77353b9d7e2df39]
class Evaluation--><g id="elem_Evaluation"><rect codeLine="10" fill="#F1F1F1" height="48" id="Evaluation" rx="2.5" ry="2.5" style="stroke:#181818;stroke-width:0.5;" width="98" x="349" y="334"/><ellipse cx="364" cy="350" fill="#ADD1B2" rx="11" ry="11" style="stroke:#181818;stroke-width:1.0;"/><path d="M366.7656,345.875 Q366.9219,345.6563 367.1094,345.5469 Q367.2969,345.4375 367.5156,345.4375 Q367.8906,345.4375 368.125,345.7031 Q368.3594,345.9531 368.3594,346.5625 L368.3594,348.0156 Q368.3594,348.625 368.125,348.8906 Q367.8906,349.1563 367.5156,349.1563 Q367.1719,349.1563 366.9688,348.9531 Q366.7656,348.7656 366.6563,348.25 Q366.6094,347.8906 366.4219,347.7031 Q366.0938,347.3281 365.4844,347.1094 Q364.875,346.8906 364.25,346.8906 Q363.4844,346.8906 362.8438,347.2188 Q362.2188,347.5469 361.7188,348.2969 Q361.2344,349.0469 361.2344,350.0781 L361.2344,351.1719 Q361.2344,352.4063 362.125,353.2344 Q363.0156,354.0469 364.6094,354.0469 Q365.5469,354.0469 366.2031,353.7969 Q366.5938,353.6406 367.0156,353.2031 Q367.2813,352.9375 367.4219,352.8594 Q367.5781,352.7813 367.7813,352.7813 Q368.1094,352.7813 368.3594,353.0469 Q368.625,353.2969 368.625,353.6406 Q368.625,353.9844 368.2813,354.3906 Q367.7813,354.9688 366.9844,355.2969 Q365.9063,355.75 364.6094,355.75 Q363.0938,355.75 361.8906,355.125 Q360.9063,354.625 360.2188,353.5625 Q359.5313,352.4844 359.5313,351.2031 L359.5313,350.0469 Q359.5313,348.7188 360.1406,347.5781 Q360.7656,346.4219 361.8594,345.8125 Q362.9531,345.1875 364.1875,345.1875 Q364.9219,345.1875 365.5625,345.3594 Q366.2188,345.5156 366.7656,345.875 Z " fill="#000000"/><text fill="#000000" font-family="sans-serif" font-size="14" lengthAdjust="spacing" textLength="66" x="378" y="355.7285">Evaluation</text><line style="stroke:#181818;stroke-width:0.5;" x1="350" x2="446" y1="366" y2="366"/><line style="stroke:#181818;stroke-width:0.5;" x1="350" x2="446" y1="374" y2="374"/></g><!--MD5=[2741598bdf59a7d7e0d5c97658fd3022]
class Result--><g id="elem_Result"><rect codeLine="12" fill="#F1F1F1" height="48" id="Result" rx="2.5" ry="2.5" style="stroke:#181818;stroke-width:0.5;" width="72" x="197" y="443"/><ellipse cx="212" cy="459" fill="#ADD1B2" rx="11" ry="11" style="stroke:#181818;stroke-width:1.0;"/><path d="M214.7656,454.875 Q214.9219,454.6563 215.1094,454.5469 Q215.2969,454.4375 215.5156,454.4375 Q215.8906,454.4375 216.125,454.7031 Q216.3594,454.9531 216.3594,455.5625 L216.3594,457.0156 Q216.3594,457.625 216.125,457.8906 Q215.8906,458.1563 215.5156,458.1563 Q215.1719,458.1563 214.9688,457.9531 Q214.7656,457.7656 214.6563,457.25 Q214.6094,456.8906 214.4219,456.7031 Q214.0938,456.3281 213.4844,456.1094 Q212.875,455.8906 212.25,455.8906 Q211.4844,455.8906 210.8438,456.2188 Q210.2188,456.5469 209.7188,457.2969 Q209.2344,458.0469 209.2344,459.0781 L209.2344,460.1719 Q209.2344,461.4063 210.125,462.2344 Q211.0156,463.0469 212.6094,463.0469 Q213.5469,463.0469 214.2031,462.7969 Q214.5938,462.6406 215.0156,462.2031 Q215.2813,461.9375 215.4219,461.8594 Q215.5781,461.7813 215.7813,461.7813 Q216.1094,461.7813 216.3594,462.0469 Q216.625,462.2969 216.625,462.6406 Q216.625,462.9844 216.2813,463.3906 Q215.7813,463.9688 214.9844,464.2969 Q213.9063,464.75 212.6094,464.75 Q211.0938,464.75 209.8906,464.125 Q208.9063,463.625 208.2188,462.5625 Q207.5313,461.4844 207.5313,460.2031 L207.5313,459.0469 Q207.5313,457.7188 208.1406,456.5781 Q208.7656,455.4219 209.8594,454.8125 Q210.9531,454.1875 212.1875,454.1875 Q212.9219,454.1875 213.5625,454.3594 Q214.2188,454.5156 214.7656,454.875 Z " fill="#000000"/><text fill="#000000" font-family="sans-serif" font-size="14" lengthAdjust="spacing" textLength="40" x="226" y="464.7285">Result</text><line style="stroke:#181818;stroke-width:0.5;" x1="198" x2="268" y1="475" y2="475"/><line style="stroke:#181818;stroke-width:0.5;" x1="198" x2="268" y1="483" y2="483"/></g><!--MD5=[a96594a83e2ecdc78cbf17c2ddf01934]
class Category--><g id="elem_Category"><rect codeLine="14" fill="#F1F1F1" height="48" id="Category" rx="2.5" ry="2.5" style="stroke:#181818;stroke-width:0.5;" width="90" x="890" y="853"/><ellipse cx="905" cy="869" fill="#ADD1B2" rx="11" ry="11" style="stroke:#181818;stroke-width:1.0;"/><path d="M907.7656,864.875 Q907.9219,864.6563 908.1094,864.5469 Q908.2969,864.4375 908.5156,864.4375 Q908.8906,864.4375 909.125,864.7031 Q909.3594,864.9531 909.3594,865.5625 L909.3594,867.0156 Q909.3594,867.625 909.125,867.8906 Q908.8906,868.1563 908.5156,868.1563 Q908.1719,868.1563 907.9688,867.9531 Q907.7656,867.7656 907.6563,867.25 Q907.6094,866.8906 907.4219,866.7031 Q907.0938,866.3281 906.4844,866.1094 Q905.875,865.8906 905.25,865.8906 Q904.4844,865.8906 903.8438,866.2188 Q903.2188,866.5469 902.7188,867.2969 Q902.2344,868.0469 902.2344,869.0781 L902.2344,870.1719 Q902.2344,871.4063 903.125,872.2344 Q904.0156,873.0469 905.6094,873.0469 Q906.5469,873.0469 907.2031,872.7969 Q907.5938,872.6406 908.0156,872.2031 Q908.2813,871.9375 908.4219,871.8594 Q908.5781,871.7813 908.7813,871.7813 Q909.1094,871.7813 909.3594,872.0469 Q909.625,872.2969 909.625,872.6406 Q909.625,872.9844 909.2813,873.3906 Q908.7813,873.9688 907.9844,874.2969 Q906.9063,874.75 905.6094,874.75 Q904.0938,874.75 902.8906,874.125 Q901.9063,873.625 901.2188,872.5625 Q900.5313,871.4844 900.5313,870.2031 L900.5313,869.0469 Q900.5313,867.7188 901.1406,866.5781 Q901.7656,865.4219 902.8594,864.8125 Q903.9531,864.1875 905.1875,864.1875 Q905.9219,864.1875 906.5625,864.3594 Q907.2188,864.5156 907.7656,864.875 Z " fill="#000000"/><text fill="#000000" font-family="sans-serif" font-size="14" lengthAdjust="spacing" textLength="58" x="919" y="874.7285">Category</text><line style="stroke:#181818;stroke-width:0.5;" x1="891" x2="979" y1="885" y2="885"/><line style="stroke:#181818;stroke-width:0.5;" x1="891" x2="979" y1="893" y2="893"/></g><!--MD5=[df38be88ccee13e832d6fafd6288a4ca]
class Test--><g id="elem_Test"><rect codeLine="16" fill="#F1F1F1" height="48" id="Test" rx="2.5" ry="2.5" style="stroke:#181818;stroke-width:0.5;" width="60" x="489" y="443"/><ellipse cx="504" cy="459" fill="#ADD1B2" rx="11" ry="11" style="stroke:#181818;stroke-width:1.0;"/><path d="M506.7656,454.875 Q506.9219,454.6563 507.1094,454.5469 Q507.2969,454.4375 507.5156,454.4375 Q507.8906,454.4375 508.125,454.7031 Q508.3594,454.9531 508.3594,455.5625 L508.3594,457.0156 Q508.3594,457.625 508.125,457.8906 Q507.8906,458.1563 507.5156,458.1563 Q507.1719,458.1563 506.9688,457.9531 Q506.7656,457.7656 506.6563,457.25 Q506.6094,456.8906 506.4219,456.7031 Q506.0938,456.3281 505.4844,456.1094 Q504.875,455.8906 504.25,455.8906 Q503.4844,455.8906 502.8438,456.2188 Q502.2188,456.5469 501.7188,457.2969 Q501.2344,458.0469 501.2344,459.0781 L501.2344,460.1719 Q501.2344,461.4063 502.125,462.2344 Q503.0156,463.0469 504.6094,463.0469 Q505.5469,463.0469 506.2031,462.7969 Q506.5938,462.6406 507.0156,462.2031 Q507.2813,461.9375 507.4219,461.8594 Q507.5781,461.7813 507.7813,461.7813 Q508.1094,461.7813 508.3594,462.0469 Q508.625,462.2969 508.625,462.6406 Q508.625,462.9844 508.2813,463.3906 Q507.7813,463.9688 506.9844,464.2969 Q505.9063,464.75 504.6094,464.75 Q503.0938,464.75 501.8906,464.125 Q500.9063,463.625 500.2188,462.5625 Q499.5313,461.4844 499.5313,460.2031 L499.5313,459.0469 Q499.5313,457.7188 500.1406,456.5781 Q500.7656,455.4219 501.8594,454.8125 Q502.9531,454.1875 504.1875,454.1875 Q504.9219,454.1875 505.5625,454.3594 Q506.2188,454.5156 506.7656,454.875 Z " fill="#000000"/><text fill="#000000" font-family="sans-serif" font-size="14" lengthAdjust="spacing" textLength="28" x="518" y="464.7285">Test</text><line style="stroke:#181818;stroke-width:0.5;" x1="490" x2="548" y1="475" y2="475"/><line style="stroke:#181818;stroke-width:0.5;" x1="490" x2="548" y1="483" y2="483"/></g><!--MD5=[9d451b2f92d848a8e2d1a4dab2b1c6bf]
class Concept--><g id="elem_Concept"><rect codeLine="18" fill="#F1F1F1" height="65.6094" id="Concept" rx="2.5" ry="2.5" style="stroke:#181818;stroke-width:0.5;" width="85" x="794.5" y="679"/><ellipse cx="809.5" cy="695" fill="#ADD1B2" rx="11" ry="11" style="stroke:#181818;stroke-width:1.0;"/><path d="M812.2656,690.875 Q812.4219,690.6563 812.6094,690.5469 Q812.7969,690.4375 813.0156,690.4375 Q813.3906,690.4375 813.625,690.7031 Q813.8594,690.9531 813.8594,691.5625 L813.8594,693.0156 Q813.8594,693.625 813.625,693.8906 Q813.3906,694.1563 813.0156,694.1563 Q812.6719,694.1563 812.4688,693.9531 Q812.2656,693.7656 812.1563,693.25 Q812.1094,692.8906 811.9219,692.7031 Q811.5938,692.3281 810.9844,692.1094 Q810.375,691.8906 809.75,691.8906 Q808.9844,691.8906 808.3438,692.2188 Q807.7188,692.5469 807.2188,693.2969 Q806.7344,694.0469 806.7344,695.0781 L806.7344,696.1719 Q806.7344,697.4063 807.625,698.2344 Q808.5156,699.0469 810.1094,699.0469 Q811.0469,699.0469 811.7031,698.7969 Q812.0938,698.6406 812.5156,698.2031 Q812.7813,697.9375 812.9219,697.8594 Q813.0781,697.7813 813.2813,697.7813 Q813.6094,697.7813 813.8594,698.0469 Q814.125,698.2969 814.125,698.6406 Q814.125,698.9844 813.7813,699.3906 Q813.2813,699.9688 812.4844,700.2969 Q811.4063,700.75 810.1094,700.75 Q808.5938,700.75 807.3906,700.125 Q806.4063,699.625 805.7188,698.5625 Q805.0313,697.4844 805.0313,696.2031 L805.0313,695.0469 Q805.0313,693.7188 805.6406,692.5781 Q806.2656,691.4219 807.3594,690.8125 Q808.4531,690.1875 809.6875,690.1875 Q810.4219,690.1875 811.0625,690.3594 Q811.7188,690.5156 812.2656,690.875 Z " fill="#000000"/><text fill="#000000" font-family="sans-serif" font-size="14" lengthAdjust="spacing" textLength="53" x="823.5" y="700.7285">Concept</text><line style="stroke:#181818;stroke-width:0.5;" x1="795.5" x2="878.5" y1="711" y2="711"/><rect fill="none" height="6" style="stroke:#C82930;stroke-width:1.0;" width="6" x="802.5" y="722.3047"/><text fill="#000000" font-family="sans-serif" font-size="14" lengthAdjust="spacing" textLength="52" x="814.5" y="729.5332">keyword</text><line style="stroke:#181818;stroke-width:0.5;" x1="795.5" x2="878.5" y1="736.6094" y2="736.6094"/></g><!--MD5=[fc7123defb831ecdd44b2d9bcef6cceb]
class Question--><g id="elem_Question"><rect codeLine="22" fill="#F1F1F1" height="65.6094" id="Question" rx="2.5" ry="2.5" style="stroke:#181818;stroke-width:0.5;" width="89" x="521.5" y="552"/><ellipse cx="536.5" cy="568" fill="#ADD1B2" rx="11" ry="11" style="stroke:#181818;stroke-width:1.0;"/><path d="M539.2656,563.875 Q539.4219,563.6563 539.6094,563.5469 Q539.7969,563.4375 540.0156,563.4375 Q540.3906,563.4375 540.625,563.7031 Q540.8594,563.9531 540.8594,564.5625 L540.8594,566.0156 Q540.8594,566.625 540.625,566.8906 Q540.3906,567.1563 540.0156,567.1563 Q539.6719,567.1563 539.4688,566.9531 Q539.2656,566.7656 539.1563,566.25 Q539.1094,565.8906 538.9219,565.7031 Q538.5938,565.3281 537.9844,565.1094 Q537.375,564.8906 536.75,564.8906 Q535.9844,564.8906 535.3438,565.2188 Q534.7188,565.5469 534.2188,566.2969 Q533.7344,567.0469 533.7344,568.0781 L533.7344,569.1719 Q533.7344,570.4063 534.625,571.2344 Q535.5156,572.0469 537.1094,572.0469 Q538.0469,572.0469 538.7031,571.7969 Q539.0938,571.6406 539.5156,571.2031 Q539.7813,570.9375 539.9219,570.8594 Q540.0781,570.7813 540.2813,570.7813 Q540.6094,570.7813 540.8594,571.0469 Q541.125,571.2969 541.125,571.6406 Q541.125,571.9844 540.7813,572.3906 Q540.2813,572.9688 539.4844,573.2969 Q538.4063,573.75 537.1094,573.75 Q535.5938,573.75 534.3906,573.125 Q533.4063,572.625 532.7188,571.5625 Q532.0313,570.4844 532.0313,569.2031 L532.0313,568.0469 Q532.0313,566.7188 532.6406,565.5781 Q533.2656,564.4219 534.3594,563.8125 Q535.4531,563.1875 536.6875,563.1875 Q537.4219,563.1875 538.0625,563.3594 Q538.7188,563.5156 539.2656,563.875 Z " fill="#000000"/><text fill="#000000" font-family="sans-serif" font-size="14" lengthAdjust="spacing" textLength="57" x="550.5" y="573.7285">Question</text><line style="stroke:#181818;stroke-width:0.5;" x1="522.5" x2="609.5" y1="584" y2="584"/><rect fill="none" height="6" style="stroke:#C82930;stroke-width:1.0;" width="6" x="529.5" y="595.3047"/><text fill="#000000" font-family="sans-serif" font-size="14" lengthAdjust="spacing" textLength="29" x="541.5" y="602.5332">level</text><line style="stroke:#181818;stroke-width:0.5;" x1="522.5" x2="609.5" y1="609.6094" y2="609.6094"/></g><!--MD5=[a61a298976b7d1d94498f45c2ebfa10b]
class Statement--><g id="elem_Statement"><rect codeLine="26" fill="#F1F1F1" height="48" id="Statement" rx="2.5" ry="2.5" style="stroke:#181818;stroke-width:0.5;" width="96" x="663" y="688"/><ellipse cx="678" cy="704" fill="#ADD1B2" rx="11" ry="11" style="stroke:#181818;stroke-width:1.0;"/><path d="M680.7656,699.875 Q680.9219,699.6563 681.1094,699.5469 Q681.2969,699.4375 681.5156,699.4375 Q681.8906,699.4375 682.125,699.7031 Q682.3594,699.9531 682.3594,700.5625 L682.3594,702.0156 Q682.3594,702.625 682.125,702.8906 Q681.8906,703.1563 681.5156,703.1563 Q681.1719,703.1563 680.9688,702.9531 Q680.7656,702.7656 680.6563,702.25 Q680.6094,701.8906 680.4219,701.7031 Q680.0938,701.3281 679.4844,701.1094 Q678.875,700.8906 678.25,700.8906 Q677.4844,700.8906 676.8438,701.2188 Q676.2188,701.5469 675.7188,702.2969 Q675.2344,703.0469 675.2344,704.0781 L675.2344,705.1719 Q675.2344,706.4063 676.125,707.2344 Q677.0156,708.0469 678.6094,708.0469 Q679.5469,708.0469 680.2031,707.7969 Q680.5938,707.6406 681.0156,707.2031 Q681.2813,706.9375 681.4219,706.8594 Q681.5781,706.7813 681.7813,706.7813 Q682.1094,706.7813 682.3594,707.0469 Q682.625,707.2969 682.625,707.6406 Q682.625,707.9844 682.2813,708.3906 Q681.7813,708.9688 680.9844,709.2969 Q679.9063,709.75 678.6094,709.75 Q677.0938,709.75 675.8906,709.125 Q674.9063,708.625 674.2188,707.5625 Q673.5313,706.4844 673.5313,705.2031 L673.5313,704.0469 Q673.5313,702.7188 674.1406,701.5781 Q674.7656,700.4219 675.8594,699.8125 Q676.9531,699.1875 678.1875,699.1875 Q678.9219,699.1875 679.5625,699.3594 Q680.2188,699.5156 680.7656,699.875 Z " fill="#000000"/><text fill="#000000" font-family="sans-serif" font-size="14" lengthAdjust="spacing" textLength="64" x="692" y="709.7285">Statement</text><line style="stroke:#181818;stroke-width:0.5;" x1="664" x2="758" y1="720" y2="720"/><line style="stroke:#181818;stroke-width:0.5;" x1="664" x2="758" y1="728" y2="728"/></g><!--MD5=[f9fadfa5a66b7e5a67b370cd443ffe52]
class Answer--><g id="elem_Answer"><rect codeLine="28" fill="#F1F1F1" height="48" id="Answer" rx="2.5" ry="2.5" style="stroke:#181818;stroke-width:0.5;" width="78" x="7" y="688"/><ellipse cx="22" cy="704" fill="#ADD1B2" rx="11" ry="11" style="stroke:#181818;stroke-width:1.0;"/><path d="M24.7656,699.875 Q24.9219,699.6563 25.1094,699.5469 Q25.2969,699.4375 25.5156,699.4375 Q25.8906,699.4375 26.125,699.7031 Q26.3594,699.9531 26.3594,700.5625 L26.3594,702.0156 Q26.3594,702.625 26.125,702.8906 Q25.8906,703.1563 25.5156,703.1563 Q25.1719,703.1563 24.9688,702.9531 Q24.7656,702.7656 24.6563,702.25 Q24.6094,701.8906 24.4219,701.7031 Q24.0938,701.3281 23.4844,701.1094 Q22.875,700.8906 22.25,700.8906 Q21.4844,700.8906 20.8438,701.2188 Q20.2188,701.5469 19.7188,702.2969 Q19.2344,703.0469 19.2344,704.0781 L19.2344,705.1719 Q19.2344,706.4063 20.125,707.2344 Q21.0156,708.0469 22.6094,708.0469 Q23.5469,708.0469 24.2031,707.7969 Q24.5938,707.6406 25.0156,707.2031 Q25.2813,706.9375 25.4219,706.8594 Q25.5781,706.7813 25.7813,706.7813 Q26.1094,706.7813 26.3594,707.0469 Q26.625,707.2969 26.625,707.6406 Q26.625,707.9844 26.2813,708.3906 Q25.7813,708.9688 24.9844,709.2969 Q23.9063,709.75 22.6094,709.75 Q21.0938,709.75 19.8906,709.125 Q18.9063,708.625 18.2188,707.5625 Q17.5313,706.4844 17.5313,705.2031 L17.5313,704.0469 Q17.5313,702.7188 18.1406,701.5781 Q18.7656,700.4219 19.8594,699.8125 Q20.9531,699.1875 22.1875,699.1875 Q22.9219,699.1875 23.5625,699.3594 Q24.2188,699.5156 24.7656,699.875 Z " fill="#000000"/><text fill="#000000" font-family="sans-serif" font-size="14" lengthAdjust="spacing" textLength="46" x="36" y="709.7285">Answer</text><line style="stroke:#181818;stroke-width:0.5;" x1="8" x2="84" y1="720" y2="720"/><line style="stroke:#181818;stroke-width:0.5;" x1="8" x2="84" y1="728" y2="728"/></g><!--MD5=[f7b1256a464262a81d5827fb39e684fb]
class Open--><g id="elem_Open"><rect codeLine="30" fill="#F1F1F1" height="48" id="Open" rx="2.5" ry="2.5" style="stroke:#181818;stroke-width:0.5;" width="67" x="343.5" y="775"/><ellipse cx="358.5" cy="791" fill="#ADD1B2" rx="11" ry="11" style="stroke:#181818;stroke-width:1.0;"/><path d="M361.2656,786.875 Q361.4219,786.6563 361.6094,786.5469 Q361.7969,786.4375 362.0156,786.4375 Q362.3906,786.4375 362.625,786.7031 Q362.8594,786.9531 362.8594,787.5625 L362.8594,789.0156 Q362.8594,789.625 362.625,789.8906 Q362.3906,790.1563 362.0156,790.1563 Q361.6719,790.1563 361.4688,789.9531 Q361.2656,789.7656 361.1563,789.25 Q361.1094,788.8906 360.9219,788.7031 Q360.5938,788.3281 359.9844,788.1094 Q359.375,787.8906 358.75,787.8906 Q357.9844,787.8906 357.3438,788.2188 Q356.7188,788.5469 356.2188,789.2969 Q355.7344,790.0469 355.7344,791.0781 L355.7344,792.1719 Q355.7344,793.4063 356.625,794.2344 Q357.5156,795.0469 359.1094,795.0469 Q360.0469,795.0469 360.7031,794.7969 Q361.0938,794.6406 361.5156,794.2031 Q361.7813,793.9375 361.9219,793.8594 Q362.0781,793.7813 362.2813,793.7813 Q362.6094,793.7813 362.8594,794.0469 Q363.125,794.2969 363.125,794.6406 Q363.125,794.9844 362.7813,795.3906 Q362.2813,795.9688 361.4844,796.2969 Q360.4063,796.75 359.1094,796.75 Q357.5938,796.75 356.3906,796.125 Q355.4063,795.625 354.7188,794.5625 Q354.0313,793.4844 354.0313,792.2031 L354.0313,791.0469 Q354.0313,789.7188 354.6406,788.5781 Q355.2656,787.4219 356.3594,786.8125 Q357.4531,786.1875 358.6875,786.1875 Q359.4219,786.1875 360.0625,786.3594 Q360.7188,786.5156 361.2656,786.875 Z " fill="#000000"/><text fill="#000000" font-family="sans-serif" font-size="14" lengthAdjust="spacing" textLength="35" x="372.5" y="796.7285">Open</text><line style="stroke:#181818;stroke-width:0.5;" x1="344.5" x2="409.5" y1="807" y2="807"/><line style="stroke:#181818;stroke-width:0.5;" x1="344.5" x2="409.5" y1="815" y2="815"/></g><!--MD5=[210f05ad84ecfe37f8378e5618b7165d]
class MultipleChoice--><g id="elem_MultipleChoice"><rect codeLine="32" fill="#F1F1F1" height="48" id="MultipleChoice" rx="2.5" ry="2.5" style="stroke:#181818;stroke-width:0.5;" width="124" x="504" y="688"/><ellipse cx="519" cy="704" fill="#ADD1B2" rx="11" ry="11" style="stroke:#181818;stroke-width:1.0;"/><path d="M521.7656,699.875 Q521.9219,699.6563 522.1094,699.5469 Q522.2969,699.4375 522.5156,699.4375 Q522.8906,699.4375 523.125,699.7031 Q523.3594,699.9531 523.3594,700.5625 L523.3594,702.0156 Q523.3594,702.625 523.125,702.8906 Q522.8906,703.1563 522.5156,703.1563 Q522.1719,703.1563 521.9688,702.9531 Q521.7656,702.7656 521.6563,702.25 Q521.6094,701.8906 521.4219,701.7031 Q521.0938,701.3281 520.4844,701.1094 Q519.875,700.8906 519.25,700.8906 Q518.4844,700.8906 517.8438,701.2188 Q517.2188,701.5469 516.7188,702.2969 Q516.2344,703.0469 516.2344,704.0781 L516.2344,705.1719 Q516.2344,706.4063 517.125,707.2344 Q518.0156,708.0469 519.6094,708.0469 Q520.5469,708.0469 521.2031,707.7969 Q521.5938,707.6406 522.0156,707.2031 Q522.2813,706.9375 522.4219,706.8594 Q522.5781,706.7813 522.7813,706.7813 Q523.1094,706.7813 523.3594,707.0469 Q523.625,707.2969 523.625,707.6406 Q523.625,707.9844 523.2813,708.3906 Q522.7813,708.9688 521.9844,709.2969 Q520.9063,709.75 519.6094,709.75 Q518.0938,709.75 516.8906,709.125 Q515.9063,708.625 515.2188,707.5625 Q514.5313,706.4844 514.5313,705.2031 L514.5313,704.0469 Q514.5313,702.7188 515.1406,701.5781 Q515.7656,700.4219 516.8594,699.8125 Q517.9531,699.1875 519.1875,699.1875 Q519.9219,699.1875 520.5625,699.3594 Q521.2188,699.5156 521.7656,699.875 Z " fill="#000000"/><text fill="#000000" font-family="sans-serif" font-size="14" lengthAdjust="spacing" textLength="92" x="533" y="709.7285">MultipleChoice</text><line style="stroke:#181818;stroke-width:0.5;" x1="505" x2="627" y1="720" y2="720"/><line style="stroke:#181818;stroke-width:0.5;" x1="505" x2="627" y1="728" y2="728"/></g><!--MD5=[b07065dfc0d0e09965ec10bfc328bb3e]
class Option--><g id="elem_Option"><rect codeLine="34" fill="#F1F1F1" height="48" id="Option" rx="2.5" ry="2.5" style="stroke:#181818;stroke-width:0.5;" width="74" x="490" y="853"/><ellipse cx="505" cy="869" fill="#ADD1B2" rx="11" ry="11" style="stroke:#181818;stroke-width:1.0;"/><path d="M507.7656,864.875 Q507.9219,864.6563 508.1094,864.5469 Q508.2969,864.4375 508.5156,864.4375 Q508.8906,864.4375 509.125,864.7031 Q509.3594,864.9531 509.3594,865.5625 L509.3594,867.0156 Q509.3594,867.625 509.125,867.8906 Q508.8906,868.1563 508.5156,868.1563 Q508.1719,868.1563 507.9688,867.9531 Q507.7656,867.7656 507.6563,867.25 Q507.6094,866.8906 507.4219,866.7031 Q507.0938,866.3281 506.4844,866.1094 Q505.875,865.8906 505.25,865.8906 Q504.4844,865.8906 503.8438,866.2188 Q503.2188,866.5469 502.7188,867.2969 Q502.2344,868.0469 502.2344,869.0781 L502.2344,870.1719 Q502.2344,871.4063 503.125,872.2344 Q504.0156,873.0469 505.6094,873.0469 Q506.5469,873.0469 507.2031,872.7969 Q507.5938,872.6406 508.0156,872.2031 Q508.2813,871.9375 508.4219,871.8594 Q508.5781,871.7813 508.7813,871.7813 Q509.1094,871.7813 509.3594,872.0469 Q509.625,872.2969 509.625,872.6406 Q509.625,872.9844 509.2813,873.3906 Q508.7813,873.9688 507.9844,874.2969 Q506.9063,874.75 505.6094,874.75 Q504.0938,874.75 502.8906,874.125 Q501.9063,873.625 501.2188,872.5625 Q500.5313,871.4844 500.5313,870.2031 L500.5313,869.0469 Q500.5313,867.7188 501.1406,866.5781 Q501.7656,865.4219 502.8594,864.8125 Q503.9531,864.1875 505.1875,864.1875 Q505.9219,864.1875 506.5625,864.3594 Q507.2188,864.5156 507.7656,864.875 Z " fill="#000000"/><text fill="#000000" font-family="sans-serif" font-size="14" lengthAdjust="spacing" textLength="42" x="519" y="874.7285">Option</text><line style="stroke:#181818;stroke-width:0.5;" x1="491" x2="563" y1="885" y2="885"/><line style="stroke:#181818;stroke-width:0.5;" x1="491" x2="563" y1="893" y2="893"/></g><!--MD5=[bc629657279eaa9349f412646650f2c5]
class Correct--><g id="elem_Correct"><rect codeLine="36" fill="#F1F1F1" height="48" id="Correct" rx="2.5" ry="2.5" style="stroke:#181818;stroke-width:0.5;" width="79" x="515.5" y="1009"/><ellipse cx="530.5" cy="1025" fill="#ADD1B2" rx="11" ry="11" style="stroke:#181818;stroke-width:1.0;"/><path d="M533.2656,1020.875 Q533.4219,1020.6563 533.6094,1020.5469 Q533.7969,1020.4375 534.0156,1020.4375 Q534.3906,1020.4375 534.625,1020.7031 Q534.8594,1020.9531 534.8594,1021.5625 L534.8594,1023.0156 Q534.8594,1023.625 534.625,1023.8906 Q534.3906,1024.1563 534.0156,1024.1563 Q533.6719,1024.1563 533.4688,1023.9531 Q533.2656,1023.7656 533.1563,1023.25 Q533.1094,1022.8906 532.9219,1022.7031 Q532.5938,1022.3281 531.9844,1022.1094 Q531.375,1021.8906 530.75,1021.8906 Q529.9844,1021.8906 529.3438,1022.2188 Q528.7188,1022.5469 528.2188,1023.2969 Q527.7344,1024.0469 527.7344,1025.0781 L527.7344,1026.1719 Q527.7344,1027.4063 528.625,1028.2344 Q529.5156,1029.0469 531.1094,1029.0469 Q532.0469,1029.0469 532.7031,1028.7969 Q533.0938,1028.6406 533.5156,1028.2031 Q533.7813,1027.9375 533.9219,1027.8594 Q534.0781,1027.7813 534.2813,1027.7813 Q534.6094,1027.7813 534.8594,1028.0469 Q535.125,1028.2969 535.125,1028.6406 Q535.125,1028.9844 534.7813,1029.3906 Q534.2813,1029.9688 533.4844,1030.2969 Q532.4063,1030.75 531.1094,1030.75 Q529.5938,1030.75 528.3906,1030.125 Q527.4063,1029.625 526.7188,1028.5625 Q526.0313,1027.4844 526.0313,1026.2031 L526.0313,1025.0469 Q526.0313,1023.7188 526.6406,1022.5781 Q527.2656,1021.4219 528.3594,1020.8125 Q529.4531,1020.1875 530.6875,1020.1875 Q531.4219,1020.1875 532.0625,1020.3594 Q532.7188,1020.5156 533.2656,1020.875 Z " fill="#000000"/><text fill="#000000" font-family="sans-serif" font-size="14" lengthAdjust="spacing" textLength="47" x="544.5" y="1030.7285">Correct</text><line style="stroke:#181818;stroke-width:0.5;" x1="516.5" x2="593.5" y1="1041" y2="1041"/><line style="stroke:#181818;stroke-width:0.5;" x1="516.5" x2="593.5" y1="1049" y2="1049"/></g><!--MD5=[37923dc032bbfca87d4413e584fa2cda]
class Incorrect--><g id="elem_Incorrect"><rect codeLine="38" fill="#F1F1F1" height="48" id="Incorrect" rx="2.5" ry="2.5" style="stroke:#181818;stroke-width:0.5;" width="87" x="393.5" y="1009"/><ellipse cx="408.5" cy="1025" fill="#ADD1B2" rx="11" ry="11" style="stroke:#181818;stroke-width:1.0;"/><path d="M411.2656,1020.875 Q411.4219,1020.6563 411.6094,1020.5469 Q411.7969,1020.4375 412.0156,1020.4375 Q412.3906,1020.4375 412.625,1020.7031 Q412.8594,1020.9531 412.8594,1021.5625 L412.8594,1023.0156 Q412.8594,1023.625 412.625,1023.8906 Q412.3906,1024.1563 412.0156,1024.1563 Q411.6719,1024.1563 411.4688,1023.9531 Q411.2656,1023.7656 411.1563,1023.25 Q411.1094,1022.8906 410.9219,1022.7031 Q410.5938,1022.3281 409.9844,1022.1094 Q409.375,1021.8906 408.75,1021.8906 Q407.9844,1021.8906 407.3438,1022.2188 Q406.7188,1022.5469 406.2188,1023.2969 Q405.7344,1024.0469 405.7344,1025.0781 L405.7344,1026.1719 Q405.7344,1027.4063 406.625,1028.2344 Q407.5156,1029.0469 409.1094,1029.0469 Q410.0469,1029.0469 410.7031,1028.7969 Q411.0938,1028.6406 411.5156,1028.2031 Q411.7813,1027.9375 411.9219,1027.8594 Q412.0781,1027.7813 412.2813,1027.7813 Q412.6094,1027.7813 412.8594,1028.0469 Q413.125,1028.2969 413.125,1028.6406 Q413.125,1028.9844 412.7813,1029.3906 Q412.2813,1029.9688 411.4844,1030.2969 Q410.4063,1030.75 409.1094,1030.75 Q407.5938,1030.75 406.3906,1030.125 Q405.4063,1029.625 404.7188,1028.5625 Q404.0313,1027.4844 404.0313,1026.2031 L404.0313,1025.0469 Q404.0313,1023.7188 404.6406,1022.5781 Q405.2656,1021.4219 406.3594,1020.8125 Q407.4531,1020.1875 408.6875,1020.1875 Q409.4219,1020.1875 410.0625,1020.3594 Q410.7188,1020.5156 411.2656,1020.875 Z " fill="#000000"/><text fill="#000000" font-family="sans-serif" font-size="14" lengthAdjust="spacing" textLength="55" x="422.5" y="1030.7285">Incorrect</text><line style="stroke:#181818;stroke-width:0.5;" x1="394.5" x2="479.5" y1="1041" y2="1041"/><line style="stroke:#181818;stroke-width:0.5;" x1="394.5" x2="479.5" y1="1049" y2="1049"/></g><!--MD5=[7a7df4cc8beee4d5ec4845ad980cbb28]
class OpenField--><g id="elem_OpenField"><rect codeLine="40" fill="#F1F1F1" height="83.2188" id="OpenField" rx="2.5" ry="2.5" style="stroke:#181818;stroke-width:0.5;" width="106" x="450" y="1135"/><ellipse cx="468.6" cy="1151" fill="#ADD1B2" rx="11" ry="11" style="stroke:#181818;stroke-width:1.0;"/><path d="M471.3656,1146.875 Q471.5219,1146.6563 471.7094,1146.5469 Q471.8969,1146.4375 472.1156,1146.4375 Q472.4906,1146.4375 472.725,1146.7031 Q472.9594,1146.9531 472.9594,1147.5625 L472.9594,1149.0156 Q472.9594,1149.625 472.725,1149.8906 Q472.4906,1150.1563 472.1156,1150.1563 Q471.7719,1150.1563 471.5688,1149.9531 Q471.3656,1149.7656 471.2563,1149.25 Q471.2094,1148.8906 471.0219,1148.7031 Q470.6938,1148.3281 470.0844,1148.1094 Q469.475,1147.8906 468.85,1147.8906 Q468.0844,1147.8906 467.4438,1148.2188 Q466.8188,1148.5469 466.3188,1149.2969 Q465.8344,1150.0469 465.8344,1151.0781 L465.8344,1152.1719 Q465.8344,1153.4063 466.725,1154.2344 Q467.6156,1155.0469 469.2094,1155.0469 Q470.1469,1155.0469 470.8031,1154.7969 Q471.1938,1154.6406 471.6156,1154.2031 Q471.8813,1153.9375 472.0219,1153.8594 Q472.1781,1153.7813 472.3813,1153.7813 Q472.7094,1153.7813 472.9594,1154.0469 Q473.225,1154.2969 473.225,1154.6406 Q473.225,1154.9844 472.8813,1155.3906 Q472.3813,1155.9688 471.5844,1156.2969 Q470.5063,1156.75 469.2094,1156.75 Q467.6938,1156.75 466.4906,1156.125 Q465.5063,1155.625 464.8188,1154.5625 Q464.1313,1153.4844 464.1313,1152.2031 L464.1313,1151.0469 Q464.1313,1149.7188 464.7406,1148.5781 Q465.3656,1147.4219 466.4594,1146.8125 Q467.5531,1146.1875 468.7875,1146.1875 Q469.5219,1146.1875 470.1625,1146.3594 Q470.8188,1146.5156 471.3656,1146.875 Z " fill="#000000"/><text fill="#000000" font-family="sans-serif" font-size="14" lengthAdjust="spacing" textLength="66" x="483.4" y="1156.7285">OpenField</text><line style="stroke:#181818;stroke-width:0.5;" x1="451" x2="555" y1="1167" y2="1167"/><rect fill="none" height="6" style="stroke:#C82930;stroke-width:1.0;" width="6" x="458" y="1178.3047"/><text fill="#000000" font-family="sans-serif" font-size="14" lengthAdjust="spacing" textLength="73" x="470" y="1185.5332">isEvaluated</text><rect fill="none" height="6" style="stroke:#C82930;stroke-width:1.0;" width="6" x="458" y="1195.9141"/><text fill="#000000" font-family="sans-serif" font-size="14" lengthAdjust="spacing" textLength="80" x="470" y="1203.1426">isToConcept</text><line style="stroke:#181818;stroke-width:0.5;" x1="451" x2="555" y1="1210.2188" y2="1210.2188"/></g><!--MD5=[bed984ae8b00ce24eb0f64fea27a6507]
class SelectedOption--><g id="elem_SelectedOption"><rect codeLine="45" fill="#F1F1F1" height="48" id="SelectedOption" rx="2.5" ry="2.5" style="stroke:#181818;stroke-width:0.5;" width="129" x="86.5" y="853"/><ellipse cx="101.5" cy="869" fill="#ADD1B2" rx="11" ry="11" style="stroke:#181818;stroke-width:1.0;"/><path d="M104.2656,864.875 Q104.4219,864.6563 104.6094,864.5469 Q104.7969,864.4375 105.0156,864.4375 Q105.3906,864.4375 105.625,864.7031 Q105.8594,864.9531 105.8594,865.5625 L105.8594,867.0156 Q105.8594,867.625 105.625,867.8906 Q105.3906,868.1563 105.0156,868.1563 Q104.6719,868.1563 104.4688,867.9531 Q104.2656,867.7656 104.1563,867.25 Q104.1094,866.8906 103.9219,866.7031 Q103.5938,866.3281 102.9844,866.1094 Q102.375,865.8906 101.75,865.8906 Q100.9844,865.8906 100.3438,866.2188 Q99.7188,866.5469 99.2188,867.2969 Q98.7344,868.0469 98.7344,869.0781 L98.7344,870.1719 Q98.7344,871.4063 99.625,872.2344 Q100.5156,873.0469 102.1094,873.0469 Q103.0469,873.0469 103.7031,872.7969 Q104.0938,872.6406 104.5156,872.2031 Q104.7813,871.9375 104.9219,871.8594 Q105.0781,871.7813 105.2813,871.7813 Q105.6094,871.7813 105.8594,872.0469 Q106.125,872.2969 106.125,872.6406 Q106.125,872.9844 105.7813,873.3906 Q105.2813,873.9688 104.4844,874.2969 Q103.4063,874.75 102.1094,874.75 Q100.5938,874.75 99.3906,874.125 Q98.4063,873.625 97.7188,872.5625 Q97.0313,871.4844 97.0313,870.2031 L97.0313,869.0469 Q97.0313,867.7188 97.6406,866.5781 Q98.2656,865.4219 99.3594,864.8125 Q100.4531,864.1875 101.6875,864.1875 Q102.4219,864.1875 103.0625,864.3594 Q103.7188,864.5156 104.2656,864.875 Z " fill="#000000"/><text fill="#000000" font-family="sans-serif" font-size="14" lengthAdjust="spacing" textLength="97" x="115.5" y="874.7285">SelectedOption</text><line style="stroke:#181818;stroke-width:0.5;" x1="87.5" x2="214.5" y1="885" y2="885"/><line style="stroke:#181818;stroke-width:0.5;" x1="87.5" x2="214.5" y1="893" y2="893"/></g><!--MD5=[af22135d5be6ed11ccd2d02fa51653b3]
class Definition--><g id="elem_Definition"><rect fill="#F1F1F1" height="48" id="Definition" rx="2.5" ry="2.5" style="stroke:#181818;stroke-width:0.5;" width="91" x="692.5" y="853"/><ellipse cx="707.5" cy="869" fill="#ADD1B2" rx="11" ry="11" style="stroke:#181818;stroke-width:1.0;"/><path d="M710.2656,864.875 Q710.4219,864.6563 710.6094,864.5469 Q710.7969,864.4375 711.0156,864.4375 Q711.3906,864.4375 711.625,864.7031 Q711.8594,864.9531 711.8594,865.5625 L711.8594,867.0156 Q711.8594,867.625 711.625,867.8906 Q711.3906,868.1563 711.0156,868.1563 Q710.6719,868.1563 710.4688,867.9531 Q710.2656,867.7656 710.1563,867.25 Q710.1094,866.8906 709.9219,866.7031 Q709.5938,866.3281 708.9844,866.1094 Q708.375,865.8906 707.75,865.8906 Q706.9844,865.8906 706.3438,866.2188 Q705.7188,866.5469 705.2188,867.2969 Q704.7344,868.0469 704.7344,869.0781 L704.7344,870.1719 Q704.7344,871.4063 705.625,872.2344 Q706.5156,873.0469 708.1094,873.0469 Q709.0469,873.0469 709.7031,872.7969 Q710.0938,872.6406 710.5156,872.2031 Q710.7813,871.9375 710.9219,871.8594 Q711.0781,871.7813 711.2813,871.7813 Q711.6094,871.7813 711.8594,872.0469 Q712.125,872.2969 712.125,872.6406 Q712.125,872.9844 711.7813,873.3906 Q711.2813,873.9688 710.4844,874.2969 Q709.4063,874.75 708.1094,874.75 Q706.5938,874.75 705.3906,874.125 Q704.4063,873.625 703.7188,872.5625 Q703.0313,871.4844 703.0313,870.2031 L703.0313,869.0469 Q703.0313,867.7188 703.6406,866.5781 Q704.2656,865.4219 705.3594,864.8125 Q706.4531,864.1875 707.6875,864.1875 Q708.4219,864.1875 709.0625,864.3594 Q709.7188,864.5156 710.2656,864.875 Z " fill="#000000"/><text fill="#000000" font-family="sans-serif" font-size="14" lengthAdjust="spacing" textLength="59" x="721.5" y="874.7285">Definition</text><line style="stroke:#181818;stroke-width:0.5;" x1="693.5" x2="782.5" y1="885" y2="885"/><line style="stroke:#181818;stroke-width:0.5;" x1="693.5" x2="782.5" y1="893" y2="893"/></g><!--MD5=[9b4de504215638550a8bb9c080b7ee00]
class Justification--><g id="elem_Justification"><rect fill="#F1F1F1" height="48" id="Justification" rx="2.5" ry="2.5" style="stroke:#181818;stroke-width:0.5;" width="105" x="774.5" y="1009"/><ellipse cx="789.5" cy="1025" fill="#ADD1B2" rx="11" ry="11" style="stroke:#181818;stroke-width:1.0;"/><path d="M792.2656,1020.875 Q792.4219,1020.6563 792.6094,1020.5469 Q792.7969,1020.4375 793.0156,1020.4375 Q793.3906,1020.4375 793.625,1020.7031 Q793.8594,1020.9531 793.8594,1021.5625 L793.8594,1023.0156 Q793.8594,1023.625 793.625,1023.8906 Q793.3906,1024.1563 793.0156,1024.1563 Q792.6719,1024.1563 792.4688,1023.9531 Q792.2656,1023.7656 792.1563,1023.25 Q792.1094,1022.8906 791.9219,1022.7031 Q791.5938,1022.3281 790.9844,1022.1094 Q790.375,1021.8906 789.75,1021.8906 Q788.9844,1021.8906 788.3438,1022.2188 Q787.7188,1022.5469 787.2188,1023.2969 Q786.7344,1024.0469 786.7344,1025.0781 L786.7344,1026.1719 Q786.7344,1027.4063 787.625,1028.2344 Q788.5156,1029.0469 790.1094,1029.0469 Q791.0469,1029.0469 791.7031,1028.7969 Q792.0938,1028.6406 792.5156,1028.2031 Q792.7813,1027.9375 792.9219,1027.8594 Q793.0781,1027.7813 793.2813,1027.7813 Q793.6094,1027.7813 793.8594,1028.0469 Q794.125,1028.2969 794.125,1028.6406 Q794.125,1028.9844 793.7813,1029.3906 Q793.2813,1029.9688 792.4844,1030.2969 Q791.4063,1030.75 790.1094,1030.75 Q788.5938,1030.75 787.3906,1030.125 Q786.4063,1029.625 785.7188,1028.5625 Q785.0313,1027.4844 785.0313,1026.2031 L785.0313,1025.0469 Q785.0313,1023.7188 785.6406,1022.5781 Q786.2656,1021.4219 787.3594,1020.8125 Q788.4531,1020.1875 789.6875,1020.1875 Q790.4219,1020.1875 791.0625,1020.3594 Q791.7188,1020.5156 792.2656,1020.875 Z " fill="#000000"/><text fill="#000000" font-family="sans-serif" font-size="14" lengthAdjust="spacing" textLength="73" x="803.5" y="1030.7285">Justification</text><line style="stroke:#181818;stroke-width:0.5;" x1="775.5" x2="878.5" y1="1041" y2="1041"/><line style="stroke:#181818;stroke-width:0.5;" x1="775.5" x2="878.5" y1="1049" y2="1049"/></g><!--MD5=[b355d11dc5a9142e22f9a644da54834e]
class Explication--><g id="elem_Explication"><rect fill="#F1F1F1" height="48" id="Explication" rx="2.5" ry="2.5" style="stroke:#181818;stroke-width:0.5;" width="99" x="941.5" y="1152.5"/><ellipse cx="956.5" cy="1168.5" fill="#ADD1B2" rx="11" ry="11" style="stroke:#181818;stroke-width:1.0;"/><path d="M959.2656,1164.375 Q959.4219,1164.1563 959.6094,1164.0469 Q959.7969,1163.9375 960.0156,1163.9375 Q960.3906,1163.9375 960.625,1164.2031 Q960.8594,1164.4531 960.8594,1165.0625 L960.8594,1166.5156 Q960.8594,1167.125 960.625,1167.3906 Q960.3906,1167.6563 960.0156,1167.6563 Q959.6719,1167.6563 959.4688,1167.4531 Q959.2656,1167.2656 959.1563,1166.75 Q959.1094,1166.3906 958.9219,1166.2031 Q958.5938,1165.8281 957.9844,1165.6094 Q957.375,1165.3906 956.75,1165.3906 Q955.9844,1165.3906 955.3438,1165.7188 Q954.7188,1166.0469 954.2188,1166.7969 Q953.7344,1167.5469 953.7344,1168.5781 L953.7344,1169.6719 Q953.7344,1170.9063 954.625,1171.7344 Q955.5156,1172.5469 957.1094,1172.5469 Q958.0469,1172.5469 958.7031,1172.2969 Q959.0938,1172.1406 959.5156,1171.7031 Q959.7813,1171.4375 959.9219,1171.3594 Q960.0781,1171.2813 960.2813,1171.2813 Q960.6094,1171.2813 960.8594,1171.5469 Q961.125,1171.7969 961.125,1172.1406 Q961.125,1172.4844 960.7813,1172.8906 Q960.2813,1173.4688 959.4844,1173.7969 Q958.4063,1174.25 957.1094,1174.25 Q955.5938,1174.25 954.3906,1173.625 Q953.4063,1173.125 952.7188,1172.0625 Q952.0313,1170.9844 952.0313,1169.7031 L952.0313,1168.5469 Q952.0313,1167.2188 952.6406,1166.0781 Q953.2656,1164.9219 954.3594,1164.3125 Q955.4531,1163.6875 956.6875,1163.6875 Q957.4219,1163.6875 958.0625,1163.8594 Q958.7188,1164.0156 959.2656,1164.375 Z " fill="#000000"/><text fill="#000000" font-family="sans-serif" font-size="14" lengthAdjust="spacing" textLength="67" x="970.5" y="1174.2285">Explication</text><line style="stroke:#181818;stroke-width:0.5;" x1="942.5" x2="1039.5" y1="1184.5" y2="1184.5"/><line style="stroke:#181818;stroke-width:0.5;" x1="942.5" x2="1039.5" y1="1192.5" y2="1192.5"/></g><!--MD5=[534474e9f05b14d7c70186ae077f30e0]
class Relation--><g id="elem_Relation"><rect fill="#F1F1F1" height="48" id="Relation" rx="2.5" ry="2.5" style="stroke:#181818;stroke-width:0.5;" width="84" x="851" y="931"/><ellipse cx="866" cy="947" fill="#ADD1B2" rx="11" ry="11" style="stroke:#181818;stroke-width:1.0;"/><path d="M868.7656,942.875 Q868.9219,942.6563 869.1094,942.5469 Q869.2969,942.4375 869.5156,942.4375 Q869.8906,942.4375 870.125,942.7031 Q870.3594,942.9531 870.3594,943.5625 L870.3594,945.0156 Q870.3594,945.625 870.125,945.8906 Q869.8906,946.1563 869.5156,946.1563 Q869.1719,946.1563 868.9688,945.9531 Q868.7656,945.7656 868.6563,945.25 Q868.6094,944.8906 868.4219,944.7031 Q868.0938,944.3281 867.4844,944.1094 Q866.875,943.8906 866.25,943.8906 Q865.4844,943.8906 864.8438,944.2188 Q864.2188,944.5469 863.7188,945.2969 Q863.2344,946.0469 863.2344,947.0781 L863.2344,948.1719 Q863.2344,949.4063 864.125,950.2344 Q865.0156,951.0469 866.6094,951.0469 Q867.5469,951.0469 868.2031,950.7969 Q868.5938,950.6406 869.0156,950.2031 Q869.2813,949.9375 869.4219,949.8594 Q869.5781,949.7813 869.7813,949.7813 Q870.1094,949.7813 870.3594,950.0469 Q870.625,950.2969 870.625,950.6406 Q870.625,950.9844 870.2813,951.3906 Q869.7813,951.9688 868.9844,952.2969 Q867.9063,952.75 866.6094,952.75 Q865.0938,952.75 863.8906,952.125 Q862.9063,951.625 862.2188,950.5625 Q861.5313,949.4844 861.5313,948.2031 L861.5313,947.0469 Q861.5313,945.7188 862.1406,944.5781 Q862.7656,943.4219 863.8594,942.8125 Q864.9531,942.1875 866.1875,942.1875 Q866.9219,942.1875 867.5625,942.3594 Q868.2188,942.5156 868.7656,942.875 Z " fill="#000000"/><text fill="#000000" font-family="sans-serif" font-size="14" lengthAdjust="spacing" textLength="52" x="880" y="952.7285">Relation</text><line style="stroke:#181818;stroke-width:0.5;" x1="852" x2="934" y1="963" y2="963"/><line style="stroke:#181818;stroke-width:0.5;" x1="852" x2="934" y1="971" y2="971"/></g><!--MD5=[8235d596e40eaa310e25cb7e3d92ec72]
reverse link Community to User--><g id="link_Community_User"><path codeLine="48" d="M860.31,65.94 C848,82.2 833.57,101.25 822.54,115.83 " fill="none" id="Community-backto-User" style="stroke:#181818;stroke-width:1.0;"/><polygon fill="#181818" points="868.42,55.22,861.6106,57.5931,861.1821,64.7914,867.9915,62.4184,868.42,55.22" style="stroke:#181818;stroke-width:1.0;"/><text fill="#000000" font-family="sans-serif" font-size="13" lengthAdjust="spacing" textLength="22" x="802.2159" y="105.1266">2..n</text></g><!--MD5=[8b55897a5ea9705e017b96a45c367fde]
reverse link Community to Category--><g id="link_Community_Category"><path codeLine="49" d="M910.26,66.4 C922.18,86.58 934,113.13 934,139 C934,139 934,139 934,713 C934,762.81 934.47,821.17 934.77,852.79 " fill="none" id="Community-backto-Category" style="stroke:#181818;stroke-width:1.0;"/><polygon fill="none" points="903.33,55.31,903.1146,62.5179,909.6852,65.4889,909.9006,58.2811,903.33,55.31" style="stroke:#181818;stroke-width:1.0;"/><text fill="#000000" font-family="sans-serif" font-size="13" lengthAdjust="spacing" textLength="22" x="909.8923" y="842.0763">0..n</text></g><!--MD5=[c98fdacbcd4eb224c2d9d26b53646e58]
reverse link Category to Category--><g id="link_Category_Category"><path codeLine="51" d="M993.6,862.85 C1006.03,864.28 1015,869 1015,877 C1015,887.66 999.05,892.5 980.23,891.5 " fill="none" id="Category-backto-Category" style="stroke:#181818;stroke-width:1.0;"/><polygon fill="none" points="980.23,862.5,986.1225,866.6568,992.2258,862.8164,986.3334,858.6596,980.23,862.5" style="stroke:#181818;stroke-width:1.0;"/><text fill="#000000" font-family="sans-serif" font-size="13" lengthAdjust="spacing" textLength="83" x="1021" y="882.4951">Subcategories</text><text fill="#000000" font-family="sans-serif" font-size="13" lengthAdjust="spacing" textLength="22" x="988.1373" y="889.9339">0..n</text></g><!--MD5=[d87c224b488f6c9759d0a77cb4053101]
reverse link User to Teacher--><g id="link_User_Teacher"><path codeLine="53" d="M805,184.58 C805,198.36 805,213.06 805,224.83 " fill="none" id="User-backto-Teacher" style="stroke:#181818;stroke-width:1.0;"/><polygon fill="none" points="798,184.22,805,164.22,812,184.22,798,184.22" style="stroke:#181818;stroke-width:1.0;"/></g><!--MD5=[29fe19ce294944fa80f389ae9bd987a4]
reverse link User to Student--><g id="link_User_Student"><path codeLine="54" d="M756.75,169.06 C726.79,186.48 688.76,208.6 660.58,224.99 " fill="none" id="User-backto-Student" style="stroke:#181818;stroke-width:1.0;"/><polygon fill="none" points="753.39,162.91,774.2,158.91,760.43,175.01,753.39,162.91" style="stroke:#181818;stroke-width:1.0;"/></g><!--MD5=[a8afb83bcf8ff3e1e4f8554b4cb258ee]
link Teacher to Concept--><g id="link_Teacher_Concept"><path codeLine="56" d="M816.19,273.2 C825.42,294.48 837,327.14 837,357 C837,357 837,357 837,586 C837,615.48 837,648.87 837,673.72 " fill="none" id="Teacher-to-Concept" style="stroke:#181818;stroke-width:1.0;"/><polygon fill="#181818" points="837,678.89,841,669.89,837,673.89,833,669.89,837,678.89" style="stroke:#181818;stroke-width:1.0;"/><text fill="#000000" font-family="sans-serif" font-size="13" lengthAdjust="spacing" textLength="22" x="812.7313" y="667.9827">0..n</text></g><!--MD5=[f4125322de8968b604c5431ed9c8902a]
link Concept to Category--><g id="link_Concept_Category"><path codeLine="57" d="M856.36,745.2 C873.05,772.97 897.1,812.96 914.2,841.4 " fill="none" id="Concept-to-Category" style="stroke:#181818;stroke-width:1.0;"/><polygon fill="none" points="921.06,852.81,921.403,845.6071,914.8861,842.5201,914.5431,849.723,921.06,852.81" style="stroke:#181818;stroke-width:1.0;"/></g><!--MD5=[ed083f2d1ee1d19af9b715a82f936d84]
link Question to Concept--><g id="link_Question_Concept"><path codeLine="58" d="M610.64,604.75 C653.42,622.96 719.63,651.77 776,679 C778.13,680.03 780.29,681.09 782.47,682.17 " fill="none" id="Question-to-Concept" style="stroke:#181818;stroke-width:1.0;"/><polygon fill="none" points="794.19,688.09,790.6369,681.815,783.4781,682.6813,787.0311,688.9563,794.19,688.09" style="stroke:#181818;stroke-width:1.0;"/></g><!--MD5=[543bb2115b5a10697a67507a00f6a2f4]
reverse link Concept to Definition--><g id="link_Concept_Definition"><path codeLine="59" d="M810.55,756.55 C791.76,787.49 767.26,827.83 752.08,852.81 " fill="none" id="Concept-backto-Definition" style="stroke:#181818;stroke-width:1.0;"/><polygon fill="none" points="817.44,745.2,810.9051,748.2489,811.2061,755.4537,817.7409,752.4048,817.44,745.2" style="stroke:#181818;stroke-width:1.0;"/></g><!--MD5=[38796b68b5180f699f927fbe8d179b6a]
reverse link Definition to Justification--><g id="link_Definition_Justification"><path codeLine="60" d="M757.9,912.43 C774.87,941.8 798.8,983.21 813.58,1008.79 " fill="none" id="Definition-backto-Justification" style="stroke:#181818;stroke-width:1.0;"/><polygon fill="none" points="751.32,901.06,750.8631,908.2566,757.3304,911.4463,757.7873,904.2497,751.32,901.06" style="stroke:#181818;stroke-width:1.0;"/></g><!--MD5=[5b13a3dd25e80832e08dfc192ea141c9]
reverse link Justification to Explication--><g id="link_Justification_Explication"><path codeLine="61" d="M863.56,1065.54 C894.09,1091.88 936.9,1128.82 964.3,1152.46 " fill="none" id="Justification-backto-Explication" style="stroke:#181818;stroke-width:1.0;"/><polygon fill="none" points="853.71,1057.05,855.6367,1063.9989,862.7922,1064.8931,860.8655,1057.9442,853.71,1057.05" style="stroke:#181818;stroke-width:1.0;"/></g><!--MD5=[54f9360500e0fd532969fc16f437bbea]
reverse link Concept to Relation--><g id="link_Concept_Relation"><path codeLine="62" d="M843.45,758.36 C849.44,796.76 859.47,853.04 873,901 C875.8,910.94 879.67,921.64 883.26,930.81 " fill="none" id="Concept-backto-Relation" style="stroke:#181818;stroke-width:1.0;"/><polygon fill="none" points="841.46,745.32,838.4085,751.8536,843.2659,757.1833,846.3174,750.6497,841.46,745.32" style="stroke:#181818;stroke-width:1.0;"/></g><!--MD5=[a87ccfb1ad401ebc9457283edda68da5]
link Student to Evaluation--><g id="link_Student_Evaluation"><path codeLine="64" d="M580.36,269.5 C544.02,286.94 490.54,312.6 450.88,331.62 " fill="none" id="Student-to-Evaluation" style="stroke:#181818;stroke-width:1.0;"/><polygon fill="#181818" points="446.12,333.91,455.9651,333.6387,450.6314,331.7542,452.5159,326.4205,446.12,333.91" style="stroke:#181818;stroke-width:1.0;"/><text fill="#000000" font-family="sans-serif" font-size="13" lengthAdjust="spacing" textLength="22" x="433.632" y="323.2271">0..n</text></g><!--MD5=[7ea0c49f743e358ac875b85df2ad47d3]
link Evaluation to Test--><g id="link_Evaluation_Test"><path codeLine="65" d="M424.26,382.22 C443.28,399.04 469.05,421.83 488.91,439.39 " fill="none" id="Evaluation-to-Test" style="stroke:#181818;stroke-width:1.0;"/><polygon fill="#181818" points="492.8,442.83,488.6968,433.8766,489.0504,439.5224,483.4046,439.8759,492.8,442.83" style="stroke:#181818;stroke-width:1.0;"/></g><!--MD5=[a2e747a1485550e1f078495d463b7eef]
link Evaluation to Result--><g id="link_Evaluation_Result"><path codeLine="66" d="M348.96,381.62 C331.72,390.3 312.54,400.83 296,412 C283.98,420.11 271.68,430.19 261.17,439.44 " fill="none" id="Evaluation-to-Result" style="stroke:#181818;stroke-width:1.0;"/><polygon fill="#181818" points="257.38,442.8,266.7698,439.8282,261.1233,439.4853,261.4662,433.8388,257.38,442.8" style="stroke:#181818;stroke-width:1.0;"/></g><!--MD5=[67b6cc77f9c51a9ece6c1301ad2aff24]
link Teacher to Evaluation--><g id="link_Teacher_Evaluation"><path codeLine="68" d="M762.21,261.25 C687.72,280.83 534.35,321.15 452.42,342.69 " fill="none" id="Teacher-to-Evaluation" style="stroke:#181818;stroke-width:1.0;stroke-dasharray:7.0,7.0;"/><polygon fill="#181818" points="447.12,344.09,456.8407,345.6735,451.9561,342.8203,454.8093,337.9357,447.12,344.09" style="stroke:#181818;stroke-width:1.0;"/></g><!--MD5=[1b432fffcedc50ec5f356a88e2ea817a]
reverse link Definition to OpenField--><g id="link_Definition_OpenField"><path codeLine="70" d="M720.44,905.23 C697,941.02 653.6,1005.4 612,1057 C590.25,1083.98 563.99,1112.63 542.7,1135 " fill="none" id="Definition-backto-OpenField" style="stroke:#181818;stroke-width:1.0;stroke-dasharray:7.0,7.0;"/><polygon fill="#181818" points="723.2,901.01,714.9343,906.3651,720.4695,905.1986,721.6361,910.7339,723.2,901.01" style="stroke:#181818;stroke-width:1.0;"/><text fill="#000000" font-family="sans-serif" font-size="13" lengthAdjust="spacing" textLength="72" x="650" y="1038.4951">isToConcept</text></g><!--MD5=[e1ec55147318f2382fdddf375dac6275]
reverse link Justification to OpenField--><g id="link_Justification_OpenField"><path codeLine="71" d="M781.53,1059.52 C755.43,1073.72 721.81,1091.24 691,1105 C646.44,1124.9 594.39,1144.12 556.37,1157.45 " fill="none" id="Justification-backto-OpenField" style="stroke:#181818;stroke-width:1.0;stroke-dasharray:7.0,7.0;"/><polygon fill="#181818" points="785.98,1057.09,776.1646,1057.9015,781.5938,1059.4903,780.0051,1064.9194,785.98,1057.09" style="stroke:#181818;stroke-width:1.0;"/><text fill="#000000" font-family="sans-serif" font-size="13" lengthAdjust="spacing" textLength="72" x="727" y="1101.4951">isToConcept</text></g><!--MD5=[a4bff028cdc16936992af2f7b1d949df]
reverse link Relation to OpenField--><g id="link_Relation_OpenField"><path codeLine="72" d="M901.92,984.02 C907.01,1005.51 910.07,1035.1 897,1057 C861.63,1116.27 655.14,1153.58 556.04,1168.31 " fill="none" id="Relation-backto-OpenField" style="stroke:#181818;stroke-width:1.0;stroke-dasharray:7.0,7.0;"/><polygon fill="#181818" points="900.67,979.02,898.979,988.7226,901.886,983.8699,906.7388,986.7769,900.67,979.02" style="stroke:#181818;stroke-width:1.0;"/><text fill="#000000" font-family="sans-serif" font-size="13" lengthAdjust="spacing" textLength="72" x="907" y="1038.4951">isToConcept</text></g><!--MD5=[5284034e923ec477e5aced6968d3b1b1]
reverse link Evaluation to OpenField--><g id="link_Evaluation_OpenField"><path codeLine="74" d="M383.76,386.8 C350.22,454.96 269,636.64 269,798 C269,798 269,798 269,1034 C269,1118.03 380.86,1153.51 449.9,1167.4 " fill="none" id="Evaluation-backto-OpenField" style="stroke:#181818;stroke-width:1.0;stroke-dasharray:7.0,7.0;"/><polygon fill="#181818" points="386.1,382.09,378.5295,388.3897,383.8868,386.5735,385.7031,391.9309,386.1,382.09" style="stroke:#181818;stroke-width:1.0;"/><text fill="#000000" font-family="sans-serif" font-size="13" lengthAdjust="spacing" textLength="127" x="283" y="717.4951">manual (! isEvaluated)</text></g><!--MD5=[633f8dfcb7b6c7cb49429b789d025168]
reverse link Evaluation to SelectedOption--><g id="link_Evaluation_SelectedOption"><path codeLine="75" d="M343.44,358.95 C268.8,362.07 144,380.14 144,466 C144,466 144,466 144,713 C144,762.85 147.31,821.2 149.38,852.8 " fill="none" id="Evaluation-backto-SelectedOption" style="stroke:#181818;stroke-width:1.0;stroke-dasharray:7.0,7.0;"/><polygon fill="#181818" points="348.73,358.75,339.5877,355.0868,343.7334,358.9356,339.8847,363.0813,348.73,358.75" style="stroke:#181818;stroke-width:1.0;"/><text fill="#000000" font-family="sans-serif" font-size="13" lengthAdjust="spacing" textLength="57" x="145" y="590.4951">automatic</text></g><!--MD5=[37c1e8dba486a8108983e1d119d6febb]
reverse link Test to Question--><g id="link_Test_Question"><path codeLine="77" d="M533.34,503.39 C539.56,518.75 546.8,536.61 552.88,551.62 " fill="none" id="Test-backto-Question" style="stroke:#181818;stroke-width:1.0;"/><polygon fill="#181818" points="528.4,491.2,526.9389,498.2615,532.8953,502.3262,534.3564,495.2647,528.4,491.2" style="stroke:#181818;stroke-width:1.0;"/><text fill="#000000" font-family="sans-serif" font-size="13" lengthAdjust="spacing" textLength="22" x="526.1314" y="541.0415">1..n</text></g><!--MD5=[f5bccbd5bfaa05fddfe2ae56cb719779]
reverse link Question to MultipleChoice--><g id="link_Question_MultipleChoice"><path codeLine="78" d="M566,638.4 C566,655.7 566,674.06 566,687.99 " fill="none" id="Question-backto-MultipleChoice" style="stroke:#181818;stroke-width:1.0;"/><polygon fill="none" points="559,638.19,566,618.19,573,638.19,559,638.19" style="stroke:#181818;stroke-width:1.0;"/></g><!--MD5=[4cad30c456caf6c2d8ef64c6efcf5ce1]
reverse link Question to Open--><g id="link_Question_Open"><path codeLine="79" d="M523.96,633.16 C484.67,677.23 427.68,741.16 397.51,774.99 " fill="none" id="Question-backto-Open" style="stroke:#181818;stroke-width:1.0;"/><polygon fill="none" points="518.76,628.47,537.29,618.2,529.21,637.79,518.76,628.47" style="stroke:#181818;stroke-width:1.0;"/></g><!--MD5=[eff6b19138ddb6af13849faaf0a4f1bc]
reverse link Question to Statement--><g id="link_Question_Statement"><path codeLine="80" d="M613.48,626.93 C637,647.2 664.51,670.93 684.31,687.99 " fill="none" id="Question-backto-Statement" style="stroke:#181818;stroke-width:1.0;"/><polygon fill="#181818" points="603.34,618.19,605.2775,625.1359,612.4343,626.019,610.4968,619.0731,603.34,618.19" style="stroke:#181818;stroke-width:1.0;"/></g><!--MD5=[ead2da4d06dc47ab4b58230ab7355ef0]
reverse link MultipleChoice to Option--><g id="link_MultipleChoice_Option"><path codeLine="81" d="M557.37,749.07 C549.8,780.72 539.01,825.8 532.54,852.85 " fill="none" id="MultipleChoice-backto-Option" style="stroke:#181818;stroke-width:1.0;"/><polygon fill="#181818" points="560.49,736.01,555.2023,740.9131,557.6945,747.6798,562.9822,742.7768,560.49,736.01" style="stroke:#181818;stroke-width:1.0;"/><text fill="#000000" font-family="sans-serif" font-size="13" lengthAdjust="spacing" textLength="22" x="509.1409" y="842.1517">2..n</text></g><!--MD5=[8b4b6ce4502ba24ddb3ea6e9e3ffd79d]
reverse link Option to Incorrect--><g id="link_Option_Incorrect"><path codeLine="82" d="M503.36,918.46 C486.53,947.25 464.52,984.91 450.57,1008.79 " fill="none" id="Option-backto-Incorrect" style="stroke:#181818;stroke-width:1.0;"/><polygon fill="none" points="497.39,914.79,513.53,901.06,509.48,921.85,497.39,914.79" style="stroke:#181818;stroke-width:1.0;"/></g><!--MD5=[e9c99f228a0238815f6b3520e77f42c1]
reverse link Option to Correct--><g id="link_Option_Correct"><path codeLine="83" d="M534.81,920.95 C539.98,949.39 546.56,985.59 550.78,1008.79 " fill="none" id="Option-backto-Correct" style="stroke:#181818;stroke-width:1.0;"/><polygon fill="none" points="527.88,921.98,531.19,901.06,541.66,919.48,527.88,921.98" style="stroke:#181818;stroke-width:1.0;"/></g><!--MD5=[dbc39d3c7bd5d7c9396f15d8cd3d35b5]
reverse link MultipleChoice to Correct--><g id="link_MultipleChoice_Correct"><path codeLine="84" d="M572.51,749.24 C578.47,787.11 585.7,848.25 581,901 C577.88,936.08 574,944.48 567,979 C565.01,988.8 562.61,999.57 560.48,1008.83 " fill="none" id="MultipleChoice-backto-Correct" style="stroke:#181818;stroke-width:1.0;"/><polygon fill="#181818" points="570.36,736.17,567.3889,742.7406,572.3114,748.0103,575.2825,741.4397,570.36,736.17" style="stroke:#181818;stroke-width:1.0;"/></g><!--MD5=[edac056e3da0b394aa7eb7158b920fdf]
reverse link MultipleChoice to Incorrect--><g id="link_MultipleChoice_Incorrect"><path codeLine="85" d="M537.85,746.51 C516.57,773.58 488.33,813.53 472,853 C450.03,906.11 441.62,973.89 438.59,1008.84 " fill="none" id="MultipleChoice-backto-Incorrect" style="stroke:#181818;stroke-width:1.0;"/><polygon fill="#181818" points="546.2,736.09,539.3265,738.2705,538.6956,745.454,545.5691,743.2735,546.2,736.09" style="stroke:#181818;stroke-width:1.0;"/><text fill="#000000" font-family="sans-serif" font-size="13" lengthAdjust="spacing" textLength="22" x="414.1787" y="998.1392">1..n</text></g><!--MD5=[7f85988a8424233e6b2a524ae8a6ac9b]
reverse link MultipleChoice to SelectedOption--><g id="link_MultipleChoice_SelectedOption"><path codeLine="86" d="M490.89,728.51 C445.23,739.09 386.24,754.85 336,775 C282,796.66 223.71,830.38 187.3,852.82 " fill="none" id="MultipleChoice-backto-SelectedOption" style="stroke:#181818;stroke-width:1.0;"/><polygon fill="#181818" points="503.7,725.6,496.9622,723.0305,491.9989,728.2617,498.7367,730.8312,503.7,725.6" style="stroke:#181818;stroke-width:1.0;"/></g><!--MD5=[59461357328b13f33e0e2dce35b637f1]
reverse link Open to OpenField--><g id="link_Open_OpenField"><path codeLine="87" d="M368.07,836.21 C357.28,887.69 344.23,983.91 376,1057 C391.15,1091.85 422.15,1121.1 449.73,1141.82 " fill="none" id="Open-backto-OpenField" style="stroke:#181818;stroke-width:1.0;"/><polygon fill="none" points="370.95,823.23,365.7455,828.2213,368.351,834.9452,373.5556,829.9539,370.95,823.23" style="stroke:#181818;stroke-width:1.0;"/><text fill="#000000" font-family="sans-serif" font-size="13" lengthAdjust="spacing" textLength="22" x="419.8971" y="1134.1216">1..n</text></g><!--MD5=[f8d4517273a291fe1b4647de6925b9ab]
reverse link Answer to OpenField--><g id="link_Answer_OpenField"><path codeLine="88" d="M44.34,756.27 C44.42,795.62 48.56,854.48 69,901 C116.93,1010.1 142.33,1041.23 243,1105 C307.2,1145.67 394.66,1163.12 449.98,1170.43 " fill="none" id="Answer-backto-OpenField" style="stroke:#181818;stroke-width:1.0;"/><polygon fill="none" points="37.35,755.99,44.66,736.1,51.34,756.21,37.35,755.99" style="stroke:#181818;stroke-width:1.0;"/></g><!--MD5=[c9991b0162c2b5928e47e95121f6f5d4]
reverse link Answer to SelectedOption--><g id="link_Answer_SelectedOption"><path codeLine="89" d="M71.75,752.97 C91.95,784.33 119.36,826.89 136.08,852.85 " fill="none" id="Answer-backto-SelectedOption" style="stroke:#181818;stroke-width:1.0;"/><polygon fill="none" points="65.77,756.61,60.82,736.01,77.54,749.03,65.77,756.61" style="stroke:#181818;stroke-width:1.0;"/></g><!--MD5=[1f326199b2f4fab19f8d952f8c6aaa9d]
@startuml OpoTestDomain

class Community

class User

class Teacher

class Student

class Evaluation

class Result

class Category 

class Test 

class Concept {
    - keyword
}

class Question {
    - level
}

class Statement

class Answer 

class Open 

class MultipleChoice

class Option

class Correct

Class Incorrect

class OpenField {
    - isEvaluated
    - isToConcept
}

Class SelectedOption


Community *- -"2..n" User
Community o- -"0..n" Category

Category o- -"0..n" Category : Subcategories

User <|- - Teacher
User <|- - Student

Teacher - ->"0..n" Concept
Concept - -o Category
Question - -o Concept
Concept o- - Definition
Definition o- - Justification
Justification o- - Explication
Concept o- - Relation

Student - ->"0..n" Evaluation
Evaluation - -> Test
Evaluation - -> Result

Teacher ..> Evaluation
'AnswersToReview *- -  OpenField
Definition <.. OpenField :isToConcept
Justification <.. OpenField :isToConcept
Relation <.. OpenField :isToConcept

Evaluation <.. OpenField : manual (! isEvaluated)
Evaluation <.. SelectedOption : automatic

Test *- -"1..n" Question
Question <|- - MultipleChoice
Question <|- - Open
Question *- -   Statement
MultipleChoice *- -"2..n" Option
Option <|- - Incorrect
Option <|- - Correct
MultipleChoice *- - Correct
MultipleChoice *- -"1..n" Incorrect
MultipleChoice *- - SelectedOption
Open o- -"1..n" OpenField
Answer <|- - OpenField
Answer <|- - SelectedOption


@enduml

@startuml OpoTestDomain

class Community

class User

class Teacher

class Student

class Evaluation

class Result

class Category 

class Test 

class Concept {
    - keyword
}

class Question {
    - level
}

class Statement

class Answer 

class Open 

class MultipleChoice

class Option

class Correct

Class Incorrect

class OpenField {
    - isEvaluated
    - isToConcept
}

Class SelectedOption


Community *- -"2..n" User
Community o- -"0..n" Category

Category o- -"0..n" Category : Subcategories

User <|- - Teacher
User <|- - Student

Teacher - ->"0..n" Concept
Concept - -o Category
Question - -o Concept
Concept o- - Definition
Definition o- - Justification
Justification o- - Explication
Concept o- - Relation

Student - ->"0..n" Evaluation
Evaluation - -> Test
Evaluation - -> Result

Teacher ..> Evaluation
Definition <.. OpenField :isToConcept
Justification <.. OpenField :isToConcept
Relation <.. OpenField :isToConcept

Evaluation <.. OpenField : manual (! isEvaluated)
Evaluation <.. SelectedOption : automatic

Test *- -"1..n" Question
Question <|- - MultipleChoice
Question <|- - Open
Question *- -   Statement
MultipleChoice *- -"2..n" Option
Option <|- - Incorrect
Option <|- - Correct
MultipleChoice *- - Correct
MultipleChoice *- -"1..n" Incorrect
MultipleChoice *- - SelectedOption
Open o- -"1..n" OpenField
Answer <|- - OpenField
Answer <|- - SelectedOption


@enduml

PlantUML version 1.2022.7(Mon Aug 22 18:01:30 WEST 2022)
(GPL source distribution)
Java Runtime: OpenJDK Runtime Environment
JVM: OpenJDK 64-Bit Server VM
Default Encoding: Cp1252
Language: es
Country: ES
--></g></svg>