<?xml version="1.0" encoding="UTF-8" standalone="no"?><svg xmlns="http://www.w3.org/2000/svg" xmlns:xlink="http://www.w3.org/1999/xlink" contentStyleType="text/css" height="1060px" preserveAspectRatio="none" style="width:513px;height:1060px;background:#FFFFFF;" version="1.1" viewBox="0 0 513 1060" width="513px" zoomAndPan="magnify"><defs/><g><!--MD5=[668d633d11bedc8952753581a2dda3db]
class Community--><g id="elem_Community"><rect codeLine="2" fill="#F1F1F1" height="48" id="Community" rx="2.5" ry="2.5" style="stroke:#181818;stroke-width:0.5;" width="102" x="321" y="7"/><ellipse cx="336" cy="23" fill="#ADD1B2" rx="11" ry="11" style="stroke:#181818;stroke-width:1.0;"/><path d="M338.7656,18.875 Q338.9219,18.6563 339.1094,18.5469 Q339.2969,18.4375 339.5156,18.4375 Q339.8906,18.4375 340.125,18.7031 Q340.3594,18.9531 340.3594,19.5625 L340.3594,21.0156 Q340.3594,21.625 340.125,21.8906 Q339.8906,22.1563 339.5156,22.1563 Q339.1719,22.1563 338.9688,21.9531 Q338.7656,21.7656 338.6563,21.25 Q338.6094,20.8906 338.4219,20.7031 Q338.0938,20.3281 337.4844,20.1094 Q336.875,19.8906 336.25,19.8906 Q335.4844,19.8906 334.8438,20.2188 Q334.2188,20.5469 333.7188,21.2969 Q333.2344,22.0469 333.2344,23.0781 L333.2344,24.1719 Q333.2344,25.4063 334.125,26.2344 Q335.0156,27.0469 336.6094,27.0469 Q337.5469,27.0469 338.2031,26.7969 Q338.5938,26.6406 339.0156,26.2031 Q339.2813,25.9375 339.4219,25.8594 Q339.5781,25.7813 339.7813,25.7813 Q340.1094,25.7813 340.3594,26.0469 Q340.625,26.2969 340.625,26.6406 Q340.625,26.9844 340.2813,27.3906 Q339.7813,27.9688 338.9844,28.2969 Q337.9063,28.75 336.6094,28.75 Q335.0938,28.75 333.8906,28.125 Q332.9063,27.625 332.2188,26.5625 Q331.5313,25.4844 331.5313,24.2031 L331.5313,23.0469 Q331.5313,21.7188 332.1406,20.5781 Q332.7656,19.4219 333.8594,18.8125 Q334.9531,18.1875 336.1875,18.1875 Q336.9219,18.1875 337.5625,18.3594 Q338.2188,18.5156 338.7656,18.875 Z " fill="#000000"/><text fill="#000000" font-family="sans-serif" font-size="14" lengthAdjust="spacing" textLength="70" x="350" y="28.7285">Community</text><line style="stroke:#181818;stroke-width:0.5;" x1="322" x2="422" y1="39" y2="39"/><line style="stroke:#181818;stroke-width:0.5;" x1="322" x2="422" y1="47" y2="47"/></g><!--MD5=[3fd616f346a44cd59a91eb10b19e157c]
class User--><g id="elem_User"><rect codeLine="4" fill="#F1F1F1" height="48" id="User" rx="2.5" ry="2.5" style="stroke:#181818;stroke-width:0.5;" width="61" x="290.5" y="116"/><ellipse cx="305.5" cy="132" fill="#ADD1B2" rx="11" ry="11" style="stroke:#181818;stroke-width:1.0;"/><path d="M308.2656,127.875 Q308.4219,127.6563 308.6094,127.5469 Q308.7969,127.4375 309.0156,127.4375 Q309.3906,127.4375 309.625,127.7031 Q309.8594,127.9531 309.8594,128.5625 L309.8594,130.0156 Q309.8594,130.625 309.625,130.8906 Q309.3906,131.1563 309.0156,131.1563 Q308.6719,131.1563 308.4688,130.9531 Q308.2656,130.7656 308.1563,130.25 Q308.1094,129.8906 307.9219,129.7031 Q307.5938,129.3281 306.9844,129.1094 Q306.375,128.8906 305.75,128.8906 Q304.9844,128.8906 304.3438,129.2188 Q303.7188,129.5469 303.2188,130.2969 Q302.7344,131.0469 302.7344,132.0781 L302.7344,133.1719 Q302.7344,134.4063 303.625,135.2344 Q304.5156,136.0469 306.1094,136.0469 Q307.0469,136.0469 307.7031,135.7969 Q308.0938,135.6406 308.5156,135.2031 Q308.7813,134.9375 308.9219,134.8594 Q309.0781,134.7813 309.2813,134.7813 Q309.6094,134.7813 309.8594,135.0469 Q310.125,135.2969 310.125,135.6406 Q310.125,135.9844 309.7813,136.3906 Q309.2813,136.9688 308.4844,137.2969 Q307.4063,137.75 306.1094,137.75 Q304.5938,137.75 303.3906,137.125 Q302.4063,136.625 301.7188,135.5625 Q301.0313,134.4844 301.0313,133.2031 L301.0313,132.0469 Q301.0313,130.7188 301.6406,129.5781 Q302.2656,128.4219 303.3594,127.8125 Q304.4531,127.1875 305.6875,127.1875 Q306.4219,127.1875 307.0625,127.3594 Q307.7188,127.5156 308.2656,127.875 Z " fill="#000000"/><text fill="#000000" font-family="sans-serif" font-size="14" lengthAdjust="spacing" textLength="29" x="319.5" y="137.7285">User</text><line style="stroke:#181818;stroke-width:0.5;" x1="291.5" x2="350.5" y1="148" y2="148"/><line style="stroke:#181818;stroke-width:0.5;" x1="291.5" x2="350.5" y1="156" y2="156"/></g><!--MD5=[e76a510855fdf825c81877c657b1fc23]
class Reviewer--><g id="elem_Reviewer"><rect codeLine="6" fill="#F1F1F1" height="48" id="Reviewer" rx="2.5" ry="2.5" style="stroke:#181818;stroke-width:0.5;" width="90" x="296" y="381"/><ellipse cx="311" cy="397" fill="#ADD1B2" rx="11" ry="11" style="stroke:#181818;stroke-width:1.0;"/><path d="M313.7656,392.875 Q313.9219,392.6563 314.1094,392.5469 Q314.2969,392.4375 314.5156,392.4375 Q314.8906,392.4375 315.125,392.7031 Q315.3594,392.9531 315.3594,393.5625 L315.3594,395.0156 Q315.3594,395.625 315.125,395.8906 Q314.8906,396.1563 314.5156,396.1563 Q314.1719,396.1563 313.9688,395.9531 Q313.7656,395.7656 313.6563,395.25 Q313.6094,394.8906 313.4219,394.7031 Q313.0938,394.3281 312.4844,394.1094 Q311.875,393.8906 311.25,393.8906 Q310.4844,393.8906 309.8438,394.2188 Q309.2188,394.5469 308.7188,395.2969 Q308.2344,396.0469 308.2344,397.0781 L308.2344,398.1719 Q308.2344,399.4063 309.125,400.2344 Q310.0156,401.0469 311.6094,401.0469 Q312.5469,401.0469 313.2031,400.7969 Q313.5938,400.6406 314.0156,400.2031 Q314.2813,399.9375 314.4219,399.8594 Q314.5781,399.7813 314.7813,399.7813 Q315.1094,399.7813 315.3594,400.0469 Q315.625,400.2969 315.625,400.6406 Q315.625,400.9844 315.2813,401.3906 Q314.7813,401.9688 313.9844,402.2969 Q312.9063,402.75 311.6094,402.75 Q310.0938,402.75 308.8906,402.125 Q307.9063,401.625 307.2188,400.5625 Q306.5313,399.4844 306.5313,398.2031 L306.5313,397.0469 Q306.5313,395.7188 307.1406,394.5781 Q307.7656,393.4219 308.8594,392.8125 Q309.9531,392.1875 311.1875,392.1875 Q311.9219,392.1875 312.5625,392.3594 Q313.2188,392.5156 313.7656,392.875 Z " fill="#000000"/><text fill="#000000" font-family="sans-serif" font-size="14" lengthAdjust="spacing" textLength="58" x="325" y="402.7285">Reviewer</text><line style="stroke:#181818;stroke-width:0.5;" x1="297" x2="385" y1="413" y2="413"/><line style="stroke:#181818;stroke-width:0.5;" x1="297" x2="385" y1="421" y2="421"/></g><!--MD5=[559db66c208d2736f857be4b8ed380a2]
class Editor--><g id="elem_Editor"><rect codeLine="8" fill="#F1F1F1" height="48" id="Editor" rx="2.5" ry="2.5" style="stroke:#181818;stroke-width:0.5;" width="69" x="286.5" y="272"/><ellipse cx="301.5" cy="288" fill="#ADD1B2" rx="11" ry="11" style="stroke:#181818;stroke-width:1.0;"/><path d="M304.2656,283.875 Q304.4219,283.6563 304.6094,283.5469 Q304.7969,283.4375 305.0156,283.4375 Q305.3906,283.4375 305.625,283.7031 Q305.8594,283.9531 305.8594,284.5625 L305.8594,286.0156 Q305.8594,286.625 305.625,286.8906 Q305.3906,287.1563 305.0156,287.1563 Q304.6719,287.1563 304.4688,286.9531 Q304.2656,286.7656 304.1563,286.25 Q304.1094,285.8906 303.9219,285.7031 Q303.5938,285.3281 302.9844,285.1094 Q302.375,284.8906 301.75,284.8906 Q300.9844,284.8906 300.3438,285.2188 Q299.7188,285.5469 299.2188,286.2969 Q298.7344,287.0469 298.7344,288.0781 L298.7344,289.1719 Q298.7344,290.4063 299.625,291.2344 Q300.5156,292.0469 302.1094,292.0469 Q303.0469,292.0469 303.7031,291.7969 Q304.0938,291.6406 304.5156,291.2031 Q304.7813,290.9375 304.9219,290.8594 Q305.0781,290.7813 305.2813,290.7813 Q305.6094,290.7813 305.8594,291.0469 Q306.125,291.2969 306.125,291.6406 Q306.125,291.9844 305.7813,292.3906 Q305.2813,292.9688 304.4844,293.2969 Q303.4063,293.75 302.1094,293.75 Q300.5938,293.75 299.3906,293.125 Q298.4063,292.625 297.7188,291.5625 Q297.0313,290.4844 297.0313,289.2031 L297.0313,288.0469 Q297.0313,286.7188 297.6406,285.5781 Q298.2656,284.4219 299.3594,283.8125 Q300.4531,283.1875 301.6875,283.1875 Q302.4219,283.1875 303.0625,283.3594 Q303.7188,283.5156 304.2656,283.875 Z " fill="#000000"/><text fill="#000000" font-family="sans-serif" font-size="14" lengthAdjust="spacing" textLength="37" x="315.5" y="293.7285">Editor</text><line style="stroke:#181818;stroke-width:0.5;" x1="287.5" x2="354.5" y1="304" y2="304"/><line style="stroke:#181818;stroke-width:0.5;" x1="287.5" x2="354.5" y1="312" y2="312"/></g><!--MD5=[a0a1f7f9662f43ef0ece806266f72a6f]
class Executor--><g id="elem_Executor"><rect codeLine="10" fill="#F1F1F1" height="48" id="Executor" rx="2.5" ry="2.5" style="stroke:#181818;stroke-width:0.5;" width="87" x="161.5" y="272"/><ellipse cx="176.5" cy="288" fill="#ADD1B2" rx="11" ry="11" style="stroke:#181818;stroke-width:1.0;"/><path d="M179.2656,283.875 Q179.4219,283.6563 179.6094,283.5469 Q179.7969,283.4375 180.0156,283.4375 Q180.3906,283.4375 180.625,283.7031 Q180.8594,283.9531 180.8594,284.5625 L180.8594,286.0156 Q180.8594,286.625 180.625,286.8906 Q180.3906,287.1563 180.0156,287.1563 Q179.6719,287.1563 179.4688,286.9531 Q179.2656,286.7656 179.1563,286.25 Q179.1094,285.8906 178.9219,285.7031 Q178.5938,285.3281 177.9844,285.1094 Q177.375,284.8906 176.75,284.8906 Q175.9844,284.8906 175.3438,285.2188 Q174.7188,285.5469 174.2188,286.2969 Q173.7344,287.0469 173.7344,288.0781 L173.7344,289.1719 Q173.7344,290.4063 174.625,291.2344 Q175.5156,292.0469 177.1094,292.0469 Q178.0469,292.0469 178.7031,291.7969 Q179.0938,291.6406 179.5156,291.2031 Q179.7813,290.9375 179.9219,290.8594 Q180.0781,290.7813 180.2813,290.7813 Q180.6094,290.7813 180.8594,291.0469 Q181.125,291.2969 181.125,291.6406 Q181.125,291.9844 180.7813,292.3906 Q180.2813,292.9688 179.4844,293.2969 Q178.4063,293.75 177.1094,293.75 Q175.5938,293.75 174.3906,293.125 Q173.4063,292.625 172.7188,291.5625 Q172.0313,290.4844 172.0313,289.2031 L172.0313,288.0469 Q172.0313,286.7188 172.6406,285.5781 Q173.2656,284.4219 174.3594,283.8125 Q175.4531,283.1875 176.6875,283.1875 Q177.4219,283.1875 178.0625,283.3594 Q178.7188,283.5156 179.2656,283.875 Z " fill="#000000"/><text fill="#000000" font-family="sans-serif" font-size="14" lengthAdjust="spacing" textLength="55" x="190.5" y="293.7285">Executor</text><line style="stroke:#181818;stroke-width:0.5;" x1="162.5" x2="247.5" y1="304" y2="304"/><line style="stroke:#181818;stroke-width:0.5;" x1="162.5" x2="247.5" y1="312" y2="312"/></g><!--MD5=[71e8807956d33805e77353b9d7e2df39]
class Evaluation--><g id="elem_Evaluation"><rect codeLine="12" fill="#F1F1F1" height="48" id="Evaluation" rx="2.5" ry="2.5" style="stroke:#181818;stroke-width:0.5;" width="98" x="92" y="381"/><ellipse cx="107" cy="397" fill="#ADD1B2" rx="11" ry="11" style="stroke:#181818;stroke-width:1.0;"/><path d="M109.7656,392.875 Q109.9219,392.6563 110.1094,392.5469 Q110.2969,392.4375 110.5156,392.4375 Q110.8906,392.4375 111.125,392.7031 Q111.3594,392.9531 111.3594,393.5625 L111.3594,395.0156 Q111.3594,395.625 111.125,395.8906 Q110.8906,396.1563 110.5156,396.1563 Q110.1719,396.1563 109.9688,395.9531 Q109.7656,395.7656 109.6563,395.25 Q109.6094,394.8906 109.4219,394.7031 Q109.0938,394.3281 108.4844,394.1094 Q107.875,393.8906 107.25,393.8906 Q106.4844,393.8906 105.8438,394.2188 Q105.2188,394.5469 104.7188,395.2969 Q104.2344,396.0469 104.2344,397.0781 L104.2344,398.1719 Q104.2344,399.4063 105.125,400.2344 Q106.0156,401.0469 107.6094,401.0469 Q108.5469,401.0469 109.2031,400.7969 Q109.5938,400.6406 110.0156,400.2031 Q110.2813,399.9375 110.4219,399.8594 Q110.5781,399.7813 110.7813,399.7813 Q111.1094,399.7813 111.3594,400.0469 Q111.625,400.2969 111.625,400.6406 Q111.625,400.9844 111.2813,401.3906 Q110.7813,401.9688 109.9844,402.2969 Q108.9063,402.75 107.6094,402.75 Q106.0938,402.75 104.8906,402.125 Q103.9063,401.625 103.2188,400.5625 Q102.5313,399.4844 102.5313,398.2031 L102.5313,397.0469 Q102.5313,395.7188 103.1406,394.5781 Q103.7656,393.4219 104.8594,392.8125 Q105.9531,392.1875 107.1875,392.1875 Q107.9219,392.1875 108.5625,392.3594 Q109.2188,392.5156 109.7656,392.875 Z " fill="#000000"/><text fill="#000000" font-family="sans-serif" font-size="14" lengthAdjust="spacing" textLength="66" x="121" y="402.7285">Evaluation</text><line style="stroke:#181818;stroke-width:0.5;" x1="93" x2="189" y1="413" y2="413"/><line style="stroke:#181818;stroke-width:0.5;" x1="93" x2="189" y1="421" y2="421"/></g><!--MD5=[a96594a83e2ecdc78cbf17c2ddf01934]
class Category--><g id="elem_Category"><rect codeLine="14" fill="#F1F1F1" height="48" id="Category" rx="2.5" ry="2.5" style="stroke:#181818;stroke-width:0.5;" width="90" x="7" y="896"/><ellipse cx="22" cy="912" fill="#ADD1B2" rx="11" ry="11" style="stroke:#181818;stroke-width:1.0;"/><path d="M24.7656,907.875 Q24.9219,907.6563 25.1094,907.5469 Q25.2969,907.4375 25.5156,907.4375 Q25.8906,907.4375 26.125,907.7031 Q26.3594,907.9531 26.3594,908.5625 L26.3594,910.0156 Q26.3594,910.625 26.125,910.8906 Q25.8906,911.1563 25.5156,911.1563 Q25.1719,911.1563 24.9688,910.9531 Q24.7656,910.7656 24.6563,910.25 Q24.6094,909.8906 24.4219,909.7031 Q24.0938,909.3281 23.4844,909.1094 Q22.875,908.8906 22.25,908.8906 Q21.4844,908.8906 20.8438,909.2188 Q20.2188,909.5469 19.7188,910.2969 Q19.2344,911.0469 19.2344,912.0781 L19.2344,913.1719 Q19.2344,914.4063 20.125,915.2344 Q21.0156,916.0469 22.6094,916.0469 Q23.5469,916.0469 24.2031,915.7969 Q24.5938,915.6406 25.0156,915.2031 Q25.2813,914.9375 25.4219,914.8594 Q25.5781,914.7813 25.7813,914.7813 Q26.1094,914.7813 26.3594,915.0469 Q26.625,915.2969 26.625,915.6406 Q26.625,915.9844 26.2813,916.3906 Q25.7813,916.9688 24.9844,917.2969 Q23.9063,917.75 22.6094,917.75 Q21.0938,917.75 19.8906,917.125 Q18.9063,916.625 18.2188,915.5625 Q17.5313,914.4844 17.5313,913.2031 L17.5313,912.0469 Q17.5313,910.7188 18.1406,909.5781 Q18.7656,908.4219 19.8594,907.8125 Q20.9531,907.1875 22.1875,907.1875 Q22.9219,907.1875 23.5625,907.3594 Q24.2188,907.5156 24.7656,907.875 Z " fill="#000000"/><text fill="#000000" font-family="sans-serif" font-size="14" lengthAdjust="spacing" textLength="58" x="36" y="917.7285">Category</text><line style="stroke:#181818;stroke-width:0.5;" x1="8" x2="96" y1="928" y2="928"/><line style="stroke:#181818;stroke-width:0.5;" x1="8" x2="96" y1="936" y2="936"/></g><!--MD5=[df38be88ccee13e832d6fafd6288a4ca]
class Test--><g id="elem_Test"><rect codeLine="16" fill="#F1F1F1" height="65.6094" id="Test" rx="2.5" ry="2.5" style="stroke:#181818;stroke-width:0.5;" width="78" x="106" y="590"/><ellipse cx="129.1" cy="606" fill="#ADD1B2" rx="11" ry="11" style="stroke:#181818;stroke-width:1.0;"/><path d="M131.8656,601.875 Q132.0219,601.6563 132.2094,601.5469 Q132.3969,601.4375 132.6156,601.4375 Q132.9906,601.4375 133.225,601.7031 Q133.4594,601.9531 133.4594,602.5625 L133.4594,604.0156 Q133.4594,604.625 133.225,604.8906 Q132.9906,605.1563 132.6156,605.1563 Q132.2719,605.1563 132.0688,604.9531 Q131.8656,604.7656 131.7563,604.25 Q131.7094,603.8906 131.5219,603.7031 Q131.1938,603.3281 130.5844,603.1094 Q129.975,602.8906 129.35,602.8906 Q128.5844,602.8906 127.9438,603.2188 Q127.3188,603.5469 126.8188,604.2969 Q126.3344,605.0469 126.3344,606.0781 L126.3344,607.1719 Q126.3344,608.4063 127.225,609.2344 Q128.1156,610.0469 129.7094,610.0469 Q130.6469,610.0469 131.3031,609.7969 Q131.6938,609.6406 132.1156,609.2031 Q132.3813,608.9375 132.5219,608.8594 Q132.6781,608.7813 132.8813,608.7813 Q133.2094,608.7813 133.4594,609.0469 Q133.725,609.2969 133.725,609.6406 Q133.725,609.9844 133.3813,610.3906 Q132.8813,610.9688 132.0844,611.2969 Q131.0063,611.75 129.7094,611.75 Q128.1938,611.75 126.9906,611.125 Q126.0063,610.625 125.3188,609.5625 Q124.6313,608.4844 124.6313,607.2031 L124.6313,606.0469 Q124.6313,604.7188 125.2406,603.5781 Q125.8656,602.4219 126.9594,601.8125 Q128.0531,601.1875 129.2875,601.1875 Q130.0219,601.1875 130.6625,601.3594 Q131.3188,601.5156 131.8656,601.875 Z " fill="#000000"/><text fill="#000000" font-family="sans-serif" font-size="14" lengthAdjust="spacing" textLength="28" x="144.9" y="611.7285">Test</text><line style="stroke:#181818;stroke-width:0.5;" x1="107" x2="183" y1="622" y2="622"/><text fill="#000000" font-family="sans-serif" font-size="14" lengthAdjust="spacing" textLength="66" x="112" y="640.5332">categories</text><line style="stroke:#181818;stroke-width:0.5;" x1="107" x2="183" y1="647.6094" y2="647.6094"/></g><!--MD5=[686fa95824735602dd15f07aadf69888]
class PendingReviewQuestions--><g id="elem_PendingReviewQuestions"><rect codeLine="20" fill="#F1F1F1" height="48" id="PendingReviewQuestions" rx="2.5" ry="2.5" style="stroke:#181818;stroke-width:0.5;" width="193" x="291.5" y="599"/><ellipse cx="306.5" cy="615" fill="#ADD1B2" rx="11" ry="11" style="stroke:#181818;stroke-width:1.0;"/><path d="M309.2656,610.875 Q309.4219,610.6563 309.6094,610.5469 Q309.7969,610.4375 310.0156,610.4375 Q310.3906,610.4375 310.625,610.7031 Q310.8594,610.9531 310.8594,611.5625 L310.8594,613.0156 Q310.8594,613.625 310.625,613.8906 Q310.3906,614.1563 310.0156,614.1563 Q309.6719,614.1563 309.4688,613.9531 Q309.2656,613.7656 309.1563,613.25 Q309.1094,612.8906 308.9219,612.7031 Q308.5938,612.3281 307.9844,612.1094 Q307.375,611.8906 306.75,611.8906 Q305.9844,611.8906 305.3438,612.2188 Q304.7188,612.5469 304.2188,613.2969 Q303.7344,614.0469 303.7344,615.0781 L303.7344,616.1719 Q303.7344,617.4063 304.625,618.2344 Q305.5156,619.0469 307.1094,619.0469 Q308.0469,619.0469 308.7031,618.7969 Q309.0938,618.6406 309.5156,618.2031 Q309.7813,617.9375 309.9219,617.8594 Q310.0781,617.7813 310.2813,617.7813 Q310.6094,617.7813 310.8594,618.0469 Q311.125,618.2969 311.125,618.6406 Q311.125,618.9844 310.7813,619.3906 Q310.2813,619.9688 309.4844,620.2969 Q308.4063,620.75 307.1094,620.75 Q305.5938,620.75 304.3906,620.125 Q303.4063,619.625 302.7188,618.5625 Q302.0313,617.4844 302.0313,616.2031 L302.0313,615.0469 Q302.0313,613.7188 302.6406,612.5781 Q303.2656,611.4219 304.3594,610.8125 Q305.4531,610.1875 306.6875,610.1875 Q307.4219,610.1875 308.0625,610.3594 Q308.7188,610.5156 309.2656,610.875 Z " fill="#000000"/><text fill="#000000" font-family="sans-serif" font-size="14" lengthAdjust="spacing" textLength="161" x="320.5" y="620.7285">PendingReviewQuestions</text><line style="stroke:#181818;stroke-width:0.5;" x1="292.5" x2="483.5" y1="631" y2="631"/><line style="stroke:#181818;stroke-width:0.5;" x1="292.5" x2="483.5" y1="639" y2="639"/></g><!--MD5=[cbddb90c6383c26762130850ded55635]
class ReviewedQuestions--><g id="elem_ReviewedQuestions"><rect codeLine="22" fill="#F1F1F1" height="48" id="ReviewedQuestions" rx="2.5" ry="2.5" style="stroke:#181818;stroke-width:0.5;" width="157" x="349.5" y="194"/><ellipse cx="364.5" cy="210" fill="#ADD1B2" rx="11" ry="11" style="stroke:#181818;stroke-width:1.0;"/><path d="M367.2656,205.875 Q367.4219,205.6563 367.6094,205.5469 Q367.7969,205.4375 368.0156,205.4375 Q368.3906,205.4375 368.625,205.7031 Q368.8594,205.9531 368.8594,206.5625 L368.8594,208.0156 Q368.8594,208.625 368.625,208.8906 Q368.3906,209.1563 368.0156,209.1563 Q367.6719,209.1563 367.4688,208.9531 Q367.2656,208.7656 367.1563,208.25 Q367.1094,207.8906 366.9219,207.7031 Q366.5938,207.3281 365.9844,207.1094 Q365.375,206.8906 364.75,206.8906 Q363.9844,206.8906 363.3438,207.2188 Q362.7188,207.5469 362.2188,208.2969 Q361.7344,209.0469 361.7344,210.0781 L361.7344,211.1719 Q361.7344,212.4063 362.625,213.2344 Q363.5156,214.0469 365.1094,214.0469 Q366.0469,214.0469 366.7031,213.7969 Q367.0938,213.6406 367.5156,213.2031 Q367.7813,212.9375 367.9219,212.8594 Q368.0781,212.7813 368.2813,212.7813 Q368.6094,212.7813 368.8594,213.0469 Q369.125,213.2969 369.125,213.6406 Q369.125,213.9844 368.7813,214.3906 Q368.2813,214.9688 367.4844,215.2969 Q366.4063,215.75 365.1094,215.75 Q363.5938,215.75 362.3906,215.125 Q361.4063,214.625 360.7188,213.5625 Q360.0313,212.4844 360.0313,211.2031 L360.0313,210.0469 Q360.0313,208.7188 360.6406,207.5781 Q361.2656,206.4219 362.3594,205.8125 Q363.4531,205.1875 364.6875,205.1875 Q365.4219,205.1875 366.0625,205.3594 Q366.7188,205.5156 367.2656,205.875 Z " fill="#000000"/><text fill="#000000" font-family="sans-serif" font-size="14" lengthAdjust="spacing" textLength="125" x="378.5" y="215.7285">ReviewedQuestions</text><line style="stroke:#181818;stroke-width:0.5;" x1="350.5" x2="505.5" y1="226" y2="226"/><line style="stroke:#181818;stroke-width:0.5;" x1="350.5" x2="505.5" y1="234" y2="234"/></g><!--MD5=[9d451b2f92d848a8e2d1a4dab2b1c6bf]
class Concept--><g id="elem_Concept"><rect codeLine="24" fill="#F1F1F1" height="100.8281" id="Concept" rx="2.5" ry="2.5" style="stroke:#181818;stroke-width:0.5;" width="126" x="177" y="459"/><ellipse cx="210.45" cy="475" fill="#ADD1B2" rx="11" ry="11" style="stroke:#181818;stroke-width:1.0;"/><path d="M213.2156,470.875 Q213.3719,470.6563 213.5594,470.5469 Q213.7469,470.4375 213.9656,470.4375 Q214.3406,470.4375 214.575,470.7031 Q214.8094,470.9531 214.8094,471.5625 L214.8094,473.0156 Q214.8094,473.625 214.575,473.8906 Q214.3406,474.1563 213.9656,474.1563 Q213.6219,474.1563 213.4188,473.9531 Q213.2156,473.7656 213.1063,473.25 Q213.0594,472.8906 212.8719,472.7031 Q212.5438,472.3281 211.9344,472.1094 Q211.325,471.8906 210.7,471.8906 Q209.9344,471.8906 209.2938,472.2188 Q208.6688,472.5469 208.1688,473.2969 Q207.6844,474.0469 207.6844,475.0781 L207.6844,476.1719 Q207.6844,477.4063 208.575,478.2344 Q209.4656,479.0469 211.0594,479.0469 Q211.9969,479.0469 212.6531,478.7969 Q213.0438,478.6406 213.4656,478.2031 Q213.7313,477.9375 213.8719,477.8594 Q214.0281,477.7813 214.2313,477.7813 Q214.5594,477.7813 214.8094,478.0469 Q215.075,478.2969 215.075,478.6406 Q215.075,478.9844 214.7313,479.3906 Q214.2313,479.9688 213.4344,480.2969 Q212.3563,480.75 211.0594,480.75 Q209.5438,480.75 208.3406,480.125 Q207.3563,479.625 206.6688,478.5625 Q205.9813,477.4844 205.9813,476.2031 L205.9813,475.0469 Q205.9813,473.7188 206.5906,472.5781 Q207.2156,471.4219 208.3094,470.8125 Q209.4031,470.1875 210.6375,470.1875 Q211.3719,470.1875 212.0125,470.3594 Q212.6688,470.5156 213.2156,470.875 Z " fill="#000000"/><text fill="#000000" font-family="sans-serif" font-size="14" lengthAdjust="spacing" textLength="53" x="228.55" y="480.7285">Concept</text><line style="stroke:#181818;stroke-width:0.5;" x1="178" x2="302" y1="491" y2="491"/><text fill="#000000" font-family="sans-serif" font-size="14" lengthAdjust="spacing" textLength="103" x="183" y="509.5332">correctDefinition</text><text fill="#000000" font-family="sans-serif" font-size="14" lengthAdjust="spacing" textLength="114" x="183" y="527.1426">incorrectDefinition</text><text fill="#000000" font-family="sans-serif" font-size="14" lengthAdjust="spacing" textLength="51" x="183" y="544.752">strategy</text><line style="stroke:#181818;stroke-width:0.5;" x1="178" x2="302" y1="551.8281" y2="551.8281"/></g><!--MD5=[fc7123defb831ecdd44b2d9bcef6cceb]
class Question--><g id="elem_Question"><rect codeLine="30" fill="#F1F1F1" height="118.4375" id="Question" rx="2.5" ry="2.5" style="stroke:#181818;stroke-width:0.5;" width="89" x="193.5" y="717"/><ellipse cx="208.5" cy="733" fill="#ADD1B2" rx="11" ry="11" style="stroke:#181818;stroke-width:1.0;"/><path d="M211.2656,728.875 Q211.4219,728.6563 211.6094,728.5469 Q211.7969,728.4375 212.0156,728.4375 Q212.3906,728.4375 212.625,728.7031 Q212.8594,728.9531 212.8594,729.5625 L212.8594,731.0156 Q212.8594,731.625 212.625,731.8906 Q212.3906,732.1563 212.0156,732.1563 Q211.6719,732.1563 211.4688,731.9531 Q211.2656,731.7656 211.1563,731.25 Q211.1094,730.8906 210.9219,730.7031 Q210.5938,730.3281 209.9844,730.1094 Q209.375,729.8906 208.75,729.8906 Q207.9844,729.8906 207.3438,730.2188 Q206.7188,730.5469 206.2188,731.2969 Q205.7344,732.0469 205.7344,733.0781 L205.7344,734.1719 Q205.7344,735.4063 206.625,736.2344 Q207.5156,737.0469 209.1094,737.0469 Q210.0469,737.0469 210.7031,736.7969 Q211.0938,736.6406 211.5156,736.2031 Q211.7813,735.9375 211.9219,735.8594 Q212.0781,735.7813 212.2813,735.7813 Q212.6094,735.7813 212.8594,736.0469 Q213.125,736.2969 213.125,736.6406 Q213.125,736.9844 212.7813,737.3906 Q212.2813,737.9688 211.4844,738.2969 Q210.4063,738.75 209.1094,738.75 Q207.5938,738.75 206.3906,738.125 Q205.4063,737.625 204.7188,736.5625 Q204.0313,735.4844 204.0313,734.2031 L204.0313,733.0469 Q204.0313,731.7188 204.6406,730.5781 Q205.2656,729.4219 206.3594,728.8125 Q207.4531,728.1875 208.6875,728.1875 Q209.4219,728.1875 210.0625,728.3594 Q210.7188,728.5156 211.2656,728.875 Z " fill="#000000"/><text fill="#000000" font-family="sans-serif" font-size="14" lengthAdjust="spacing" textLength="57" x="222.5" y="738.7285">Question</text><line style="stroke:#181818;stroke-width:0.5;" x1="194.5" x2="281.5" y1="749" y2="749"/><text fill="#000000" font-family="sans-serif" font-size="14" lengthAdjust="spacing" textLength="28" x="199.5" y="767.5332">date</text><text fill="#000000" font-family="sans-serif" font-size="14" lengthAdjust="spacing" textLength="71" x="199.5" y="785.1426">isReviewed</text><text fill="#000000" font-family="sans-serif" font-size="14" lengthAdjust="spacing" textLength="48" x="199.5" y="802.752">isPublic</text><text fill="#000000" font-family="sans-serif" font-size="14" lengthAdjust="spacing" textLength="12" x="199.5" y="820.3613">...</text><line style="stroke:#181818;stroke-width:0.5;" x1="194.5" x2="281.5" y1="827.4375" y2="827.4375"/></g><!--MD5=[a61a298976b7d1d94498f45c2ebfa10b]
class Statement--><g id="elem_Statement"><rect codeLine="37" fill="#F1F1F1" height="48" id="Statement" rx="2.5" ry="2.5" style="stroke:#181818;stroke-width:0.5;" width="96" x="150" y="896"/><ellipse cx="165" cy="912" fill="#ADD1B2" rx="11" ry="11" style="stroke:#181818;stroke-width:1.0;"/><path d="M167.7656,907.875 Q167.9219,907.6563 168.1094,907.5469 Q168.2969,907.4375 168.5156,907.4375 Q168.8906,907.4375 169.125,907.7031 Q169.3594,907.9531 169.3594,908.5625 L169.3594,910.0156 Q169.3594,910.625 169.125,910.8906 Q168.8906,911.1563 168.5156,911.1563 Q168.1719,911.1563 167.9688,910.9531 Q167.7656,910.7656 167.6563,910.25 Q167.6094,909.8906 167.4219,909.7031 Q167.0938,909.3281 166.4844,909.1094 Q165.875,908.8906 165.25,908.8906 Q164.4844,908.8906 163.8438,909.2188 Q163.2188,909.5469 162.7188,910.2969 Q162.2344,911.0469 162.2344,912.0781 L162.2344,913.1719 Q162.2344,914.4063 163.125,915.2344 Q164.0156,916.0469 165.6094,916.0469 Q166.5469,916.0469 167.2031,915.7969 Q167.5938,915.6406 168.0156,915.2031 Q168.2813,914.9375 168.4219,914.8594 Q168.5781,914.7813 168.7813,914.7813 Q169.1094,914.7813 169.3594,915.0469 Q169.625,915.2969 169.625,915.6406 Q169.625,915.9844 169.2813,916.3906 Q168.7813,916.9688 167.9844,917.2969 Q166.9063,917.75 165.6094,917.75 Q164.0938,917.75 162.8906,917.125 Q161.9063,916.625 161.2188,915.5625 Q160.5313,914.4844 160.5313,913.2031 L160.5313,912.0469 Q160.5313,910.7188 161.1406,909.5781 Q161.7656,908.4219 162.8594,907.8125 Q163.9531,907.1875 165.1875,907.1875 Q165.9219,907.1875 166.5625,907.3594 Q167.2188,907.5156 167.7656,907.875 Z " fill="#000000"/><text fill="#000000" font-family="sans-serif" font-size="14" lengthAdjust="spacing" textLength="64" x="179" y="917.7285">Statement</text><line style="stroke:#181818;stroke-width:0.5;" x1="151" x2="245" y1="928" y2="928"/><line style="stroke:#181818;stroke-width:0.5;" x1="151" x2="245" y1="936" y2="936"/></g><!--MD5=[f9fadfa5a66b7e5a67b370cd443ffe52]
class Answer--><g id="elem_Answer"><rect codeLine="39" fill="#F1F1F1" height="48" id="Answer" rx="2.5" ry="2.5" style="stroke:#181818;stroke-width:0.5;" width="78" x="320" y="752"/><ellipse cx="335" cy="768" fill="#ADD1B2" rx="11" ry="11" style="stroke:#181818;stroke-width:1.0;"/><path d="M337.7656,763.875 Q337.9219,763.6563 338.1094,763.5469 Q338.2969,763.4375 338.5156,763.4375 Q338.8906,763.4375 339.125,763.7031 Q339.3594,763.9531 339.3594,764.5625 L339.3594,766.0156 Q339.3594,766.625 339.125,766.8906 Q338.8906,767.1563 338.5156,767.1563 Q338.1719,767.1563 337.9688,766.9531 Q337.7656,766.7656 337.6563,766.25 Q337.6094,765.8906 337.4219,765.7031 Q337.0938,765.3281 336.4844,765.1094 Q335.875,764.8906 335.25,764.8906 Q334.4844,764.8906 333.8438,765.2188 Q333.2188,765.5469 332.7188,766.2969 Q332.2344,767.0469 332.2344,768.0781 L332.2344,769.1719 Q332.2344,770.4063 333.125,771.2344 Q334.0156,772.0469 335.6094,772.0469 Q336.5469,772.0469 337.2031,771.7969 Q337.5938,771.6406 338.0156,771.2031 Q338.2813,770.9375 338.4219,770.8594 Q338.5781,770.7813 338.7813,770.7813 Q339.1094,770.7813 339.3594,771.0469 Q339.625,771.2969 339.625,771.6406 Q339.625,771.9844 339.2813,772.3906 Q338.7813,772.9688 337.9844,773.2969 Q336.9063,773.75 335.6094,773.75 Q334.0938,773.75 332.8906,773.125 Q331.9063,772.625 331.2188,771.5625 Q330.5313,770.4844 330.5313,769.2031 L330.5313,768.0469 Q330.5313,766.7188 331.1406,765.5781 Q331.7656,764.4219 332.8594,763.8125 Q333.9531,763.1875 335.1875,763.1875 Q335.9219,763.1875 336.5625,763.3594 Q337.2188,763.5156 337.7656,763.875 Z " fill="#000000"/><text fill="#000000" font-family="sans-serif" font-size="14" lengthAdjust="spacing" textLength="46" x="349" y="773.7285">Answer</text><line style="stroke:#181818;stroke-width:0.5;" x1="321" x2="397" y1="784" y2="784"/><line style="stroke:#181818;stroke-width:0.5;" x1="321" x2="397" y1="792" y2="792"/></g><!--MD5=[bc629657279eaa9349f412646650f2c5]
class Correct--><g id="elem_Correct"><rect codeLine="41" fill="#F1F1F1" height="48" id="Correct" rx="2.5" ry="2.5" style="stroke:#181818;stroke-width:0.5;" width="79" x="281.5" y="896"/><ellipse cx="296.5" cy="912" fill="#ADD1B2" rx="11" ry="11" style="stroke:#181818;stroke-width:1.0;"/><path d="M299.2656,907.875 Q299.4219,907.6563 299.6094,907.5469 Q299.7969,907.4375 300.0156,907.4375 Q300.3906,907.4375 300.625,907.7031 Q300.8594,907.9531 300.8594,908.5625 L300.8594,910.0156 Q300.8594,910.625 300.625,910.8906 Q300.3906,911.1563 300.0156,911.1563 Q299.6719,911.1563 299.4688,910.9531 Q299.2656,910.7656 299.1563,910.25 Q299.1094,909.8906 298.9219,909.7031 Q298.5938,909.3281 297.9844,909.1094 Q297.375,908.8906 296.75,908.8906 Q295.9844,908.8906 295.3438,909.2188 Q294.7188,909.5469 294.2188,910.2969 Q293.7344,911.0469 293.7344,912.0781 L293.7344,913.1719 Q293.7344,914.4063 294.625,915.2344 Q295.5156,916.0469 297.1094,916.0469 Q298.0469,916.0469 298.7031,915.7969 Q299.0938,915.6406 299.5156,915.2031 Q299.7813,914.9375 299.9219,914.8594 Q300.0781,914.7813 300.2813,914.7813 Q300.6094,914.7813 300.8594,915.0469 Q301.125,915.2969 301.125,915.6406 Q301.125,915.9844 300.7813,916.3906 Q300.2813,916.9688 299.4844,917.2969 Q298.4063,917.75 297.1094,917.75 Q295.5938,917.75 294.3906,917.125 Q293.4063,916.625 292.7188,915.5625 Q292.0313,914.4844 292.0313,913.2031 L292.0313,912.0469 Q292.0313,910.7188 292.6406,909.5781 Q293.2656,908.4219 294.3594,907.8125 Q295.4531,907.1875 296.6875,907.1875 Q297.4219,907.1875 298.0625,907.3594 Q298.7188,907.5156 299.2656,907.875 Z " fill="#000000"/><text fill="#000000" font-family="sans-serif" font-size="14" lengthAdjust="spacing" textLength="47" x="310.5" y="917.7285">Correct</text><line style="stroke:#181818;stroke-width:0.5;" x1="282.5" x2="359.5" y1="928" y2="928"/><line style="stroke:#181818;stroke-width:0.5;" x1="282.5" x2="359.5" y1="936" y2="936"/></g><!--MD5=[37923dc032bbfca87d4413e584fa2cda]
class Incorrect--><g id="elem_Incorrect"><rect codeLine="43" fill="#F1F1F1" height="48" id="Incorrect" rx="2.5" ry="2.5" style="stroke:#181818;stroke-width:0.5;" width="87" x="395.5" y="896"/><ellipse cx="410.5" cy="912" fill="#ADD1B2" rx="11" ry="11" style="stroke:#181818;stroke-width:1.0;"/><path d="M413.2656,907.875 Q413.4219,907.6563 413.6094,907.5469 Q413.7969,907.4375 414.0156,907.4375 Q414.3906,907.4375 414.625,907.7031 Q414.8594,907.9531 414.8594,908.5625 L414.8594,910.0156 Q414.8594,910.625 414.625,910.8906 Q414.3906,911.1563 414.0156,911.1563 Q413.6719,911.1563 413.4688,910.9531 Q413.2656,910.7656 413.1563,910.25 Q413.1094,909.8906 412.9219,909.7031 Q412.5938,909.3281 411.9844,909.1094 Q411.375,908.8906 410.75,908.8906 Q409.9844,908.8906 409.3438,909.2188 Q408.7188,909.5469 408.2188,910.2969 Q407.7344,911.0469 407.7344,912.0781 L407.7344,913.1719 Q407.7344,914.4063 408.625,915.2344 Q409.5156,916.0469 411.1094,916.0469 Q412.0469,916.0469 412.7031,915.7969 Q413.0938,915.6406 413.5156,915.2031 Q413.7813,914.9375 413.9219,914.8594 Q414.0781,914.7813 414.2813,914.7813 Q414.6094,914.7813 414.8594,915.0469 Q415.125,915.2969 415.125,915.6406 Q415.125,915.9844 414.7813,916.3906 Q414.2813,916.9688 413.4844,917.2969 Q412.4063,917.75 411.1094,917.75 Q409.5938,917.75 408.3906,917.125 Q407.4063,916.625 406.7188,915.5625 Q406.0313,914.4844 406.0313,913.2031 L406.0313,912.0469 Q406.0313,910.7188 406.6406,909.5781 Q407.2656,908.4219 408.3594,907.8125 Q409.4531,907.1875 410.6875,907.1875 Q411.4219,907.1875 412.0625,907.3594 Q412.7188,907.5156 413.2656,907.875 Z " fill="#000000"/><text fill="#000000" font-family="sans-serif" font-size="14" lengthAdjust="spacing" textLength="55" x="424.5" y="917.7285">Incorrect</text><line style="stroke:#181818;stroke-width:0.5;" x1="396.5" x2="481.5" y1="928" y2="928"/><line style="stroke:#181818;stroke-width:0.5;" x1="396.5" x2="481.5" y1="936" y2="936"/></g><!--MD5=[9b4de504215638550a8bb9c080b7ee00]
class Justification--><g id="elem_Justification"><rect codeLine="45" fill="#F1F1F1" height="48" id="Justification" rx="2.5" ry="2.5" style="stroke:#181818;stroke-width:0.5;" width="105" x="386.5" y="1005"/><ellipse cx="401.5" cy="1021" fill="#ADD1B2" rx="11" ry="11" style="stroke:#181818;stroke-width:1.0;"/><path d="M404.2656,1016.875 Q404.4219,1016.6563 404.6094,1016.5469 Q404.7969,1016.4375 405.0156,1016.4375 Q405.3906,1016.4375 405.625,1016.7031 Q405.8594,1016.9531 405.8594,1017.5625 L405.8594,1019.0156 Q405.8594,1019.625 405.625,1019.8906 Q405.3906,1020.1563 405.0156,1020.1563 Q404.6719,1020.1563 404.4688,1019.9531 Q404.2656,1019.7656 404.1563,1019.25 Q404.1094,1018.8906 403.9219,1018.7031 Q403.5938,1018.3281 402.9844,1018.1094 Q402.375,1017.8906 401.75,1017.8906 Q400.9844,1017.8906 400.3438,1018.2188 Q399.7188,1018.5469 399.2188,1019.2969 Q398.7344,1020.0469 398.7344,1021.0781 L398.7344,1022.1719 Q398.7344,1023.4063 399.625,1024.2344 Q400.5156,1025.0469 402.1094,1025.0469 Q403.0469,1025.0469 403.7031,1024.7969 Q404.0938,1024.6406 404.5156,1024.2031 Q404.7813,1023.9375 404.9219,1023.8594 Q405.0781,1023.7813 405.2813,1023.7813 Q405.6094,1023.7813 405.8594,1024.0469 Q406.125,1024.2969 406.125,1024.6406 Q406.125,1024.9844 405.7813,1025.3906 Q405.2813,1025.9688 404.4844,1026.2969 Q403.4063,1026.75 402.1094,1026.75 Q400.5938,1026.75 399.3906,1026.125 Q398.4063,1025.625 397.7188,1024.5625 Q397.0313,1023.4844 397.0313,1022.2031 L397.0313,1021.0469 Q397.0313,1019.7188 397.6406,1018.5781 Q398.2656,1017.4219 399.3594,1016.8125 Q400.4531,1016.1875 401.6875,1016.1875 Q402.4219,1016.1875 403.0625,1016.3594 Q403.7188,1016.5156 404.2656,1016.875 Z " fill="#000000"/><text fill="#000000" font-family="sans-serif" font-size="14" lengthAdjust="spacing" textLength="73" x="415.5" y="1026.7285">Justification</text><line style="stroke:#181818;stroke-width:0.5;" x1="387.5" x2="490.5" y1="1037" y2="1037"/><line style="stroke:#181818;stroke-width:0.5;" x1="387.5" x2="490.5" y1="1045" y2="1045"/></g><!--MD5=[12743b4aa7b2bf3d8e383437eb99df68]
link Community to User--><g id="link_Community_User"><path codeLine="48" d="M355.7647,66.0514 C355.7647,66.0514 343.36,92.08 337.79,103.78 " fill="none" id="Community-User" style="stroke:#181818;stroke-width:1.0;"/><polygon fill="#181818" points="332.04,115.83,339.5181,109.4208,334.1877,111.3148,332.2938,105.9844,332.04,115.83" style="stroke:#181818;stroke-width:1.0;"/><line style="stroke:#181818;stroke-width:1.0;" x1="334.1877" x2="337.64" y1="111.3148" y2="104.095"/><polygon fill="#181818" points="360.93,55.22,354.7369,58.9139,355.7647,66.0514,361.9578,62.3575,360.93,55.22" style="stroke:#181818;stroke-width:1.0;"/><text fill="#000000" font-family="sans-serif" font-size="13" lengthAdjust="spacing" textLength="20" x="312.3065" y="105.1266">1..*</text></g><!--MD5=[d52df4b853bdc5342fb2d805f548bc5a]
link Community to ReviewedQuestions--><g id="link_Community_ReviewedQuestions"><path codeLine="49" d="M382.4608,66.5441 C382.4608,66.5441 407.33,148.72 417.22,181.4 " fill="none" id="Community-ReviewedQuestions" style="stroke:#181818;stroke-width:1.0;"/><polygon fill="#181818" points="421.02,193.94,422.2374,184.1667,419.5697,189.155,414.5814,186.4872,421.02,193.94" style="stroke:#181818;stroke-width:1.0;"/><line style="stroke:#181818;stroke-width:1.0;" x1="419.5697" x2="417.255" y1="189.155" y2="181.5"/><polygon fill="#181818" points="378.98,55.06,376.8924,61.9623,382.4608,66.5441,384.5484,59.6418,378.98,55.06" style="stroke:#181818;stroke-width:1.0;"/></g><!--MD5=[7016372388c7ac2652db8515880aaa11]
reverse link User to Editor--><g id="link_User_Editor"><path codeLine="52" d="M321,184.37 C321,212.74 321,248.71 321,271.79 " fill="none" id="User-backto-Editor" style="stroke:#181818;stroke-width:1.0;"/><polygon fill="none" points="314,184.06,321,164.06,328,184.06,314,184.06" style="stroke:#181818;stroke-width:1.0;"/></g><!--MD5=[60e4945ab784e9eaf709bb3168dd25a4]
reverse link Editor to Reviewer--><g id="link_Editor_Reviewer"><path codeLine="53" d="M329.05,340.09 C331.66,354.01 334.44,368.92 336.67,380.83 " fill="none" id="Editor-backto-Reviewer" style="stroke:#181818;stroke-width:1.0;"/><polygon fill="none" points="322.13,341.16,325.34,320.22,335.9,338.59,322.13,341.16" style="stroke:#181818;stroke-width:1.0;"/></g><!--MD5=[d8a655080454bab67f6091cbff4cee86]
reverse link User to Executor--><g id="link_User_Executor"><path codeLine="54" d="M291.45,180.23 C269.65,209.17 240.73,247.57 222.49,271.79 " fill="none" id="User-backto-Executor" style="stroke:#181818;stroke-width:1.0;"/><polygon fill="none" points="286.01,175.82,303.63,164.06,297.19,184.24,286.01,175.82" style="stroke:#181818;stroke-width:1.0;"/></g><!--MD5=[12c2d56d27338edb90331faec7f87d5c]
link PendingReviewQuestions to Question--><g id="link_PendingReviewQuestions_Question"><path codeLine="56" d="M356.4377,655.7782 C356.4377,655.7782 313.21,699.29 291.87,720.77 " fill="none" id="PendingReviewQuestions-Question" style="stroke:#181818;stroke-width:1.0;"/><polygon fill="#181818" points="282.59,730.11,291.7714,726.5459,286.1145,726.5635,286.097,720.9067,282.59,730.11" style="stroke:#181818;stroke-width:1.0;"/><line style="stroke:#181818;stroke-width:1.0;" x1="286.1145" x2="291.75" y1="726.5635" y2="720.89"/><polygon fill="#181818" points="364.89,647.26,357.8245,648.7017,356.4377,655.7782,363.5033,654.3365,364.89,647.26" style="stroke:#181818;stroke-width:1.0;"/></g><!--MD5=[0bcbc359f19ed69453d76421891bdbfe]
link ReviewedQuestions to PendingReviewQuestions--><g id="link_ReviewedQuestions_PendingReviewQuestions"><path codeLine="57" d="M431.4493,254.1258 C431.4493,254.1258 442.95,451.55 417,560 C414.83,569.08 411.25,578.44 407.34,587.03 " fill="none" id="ReviewedQuestions-PendingReviewQuestions" style="stroke:#181818;stroke-width:1.0;"/><polygon fill="#181818" points="401.5,598.97,409.05,592.6457,403.6986,594.4793,401.865,589.1279,401.5,598.97" style="stroke:#181818;stroke-width:1.0;"/><line style="stroke:#181818;stroke-width:1.0;" x1="403.6986" x2="407.215" y1="594.4793" y2="587.3"/><polygon fill="#181818" points="430.42,242.17,426.9494,248.491,431.4493,254.1258,434.9199,247.8048,430.42,242.17" style="stroke:#181818;stroke-width:1.0;"/></g><!--MD5=[3e23c87a985df3c2da55c80a43bfcd45]
link Executor to Evaluation--><g id="link_Executor_Evaluation"><path codeLine="59" d="M191.11,320.22 C181.22,336.76 167.87,359.07 157.44,376.51 " fill="none" id="Executor-to-Evaluation" style="stroke:#181818;stroke-width:1.0;"/><polygon fill="#181818" points="154.86,380.83,162.9121,375.1587,157.4262,376.5388,156.0461,371.0528,154.86,380.83" style="stroke:#181818;stroke-width:1.0;"/><text fill="#000000" font-family="sans-serif" font-size="13" lengthAdjust="spacing" textLength="20" x="135.8491" y="370.1266">0..*</text></g><!--MD5=[7ea0c49f743e358ac875b85df2ad47d3]
link Evaluation to Test--><g id="link_Evaluation_Test"><path codeLine="60" d="M141.43,429.12 C142.12,466.42 143.49,540.23 144.31,584.95 " fill="none" id="Evaluation-to-Test" style="stroke:#181818;stroke-width:1.0;"/><polygon fill="#181818" points="144.41,589.98,148.2292,580.9018,144.31,584.981,140.2308,581.0618,144.41,589.98" style="stroke:#181818;stroke-width:1.0;"/></g><!--MD5=[dbcaedebb070bbdd4f1f81456a517a7e]
link Editor to Concept--><g id="link_Editor_Concept"><path codeLine="62" d="M307.58,320.35 C298.42,336.92 286.48,359.86 278,381 C268.61,404.42 260.31,431.06 253.89,453.92 " fill="none" id="Editor-to-Concept" style="stroke:#181818;stroke-width:1.0;stroke-dasharray:7.0,7.0;"/><polygon fill="#181818" points="252.55,458.74,258.821,451.1456,253.8934,453.9238,251.1152,448.9962,252.55,458.74" style="stroke:#181818;stroke-width:1.0;"/></g><!--MD5=[207a0f949a870d7c1e6d57d91b948c31]
link Concept to Question--><g id="link_Concept_Question"><path codeLine="63" d="M239.62,560.25 C239.3,603.13 238.83,665.28 238.48,711.7 " fill="none" id="Concept-to-Question" style="stroke:#181818;stroke-width:1.0;stroke-dasharray:7.0,7.0;"/><polygon fill="#181818" points="238.44,716.71,242.4914,707.733,238.4686,711.7101,234.4915,707.6873,238.44,716.71" style="stroke:#181818;stroke-width:1.0;"/></g><!--MD5=[796801260e32b64433c17f058a688d43]
link Reviewer to PendingReviewQuestions--><g id="link_Reviewer_PendingReviewQuestions"><path codeLine="64" d="M344.94,429.07 C350.22,459.29 360.19,513.85 371,560 C373.6,571.11 376.84,583.24 379.79,593.8 " fill="none" id="Reviewer-to-PendingReviewQuestions" style="stroke:#181818;stroke-width:1.0;stroke-dasharray:7.0,7.0;"/><polygon fill="#181818" points="381.21,598.85,382.618,589.1023,379.8534,594.0376,374.9181,591.2729,381.21,598.85" style="stroke:#181818;stroke-width:1.0;"/><text fill="#000000" font-family="sans-serif" font-size="13" lengthAdjust="spacing" textLength="40" x="372" y="514.9951">Review</text></g><!--MD5=[bb3d97f09542411db1527b071cca8268]
link Test to Question--><g id="link_Test_Question"><path codeLine="66" d="M171.0158,666.2358 C171.0158,666.2358 187.18,692.48 195.19,705.48 " fill="none" id="Test-Question" style="stroke:#181818;stroke-width:1.0;"/><polygon fill="#181818" points="202.16,716.81,200.8399,707.05,199.5352,712.5544,194.0309,711.2497,202.16,716.81" style="stroke:#181818;stroke-width:1.0;"/><line style="stroke:#181818;stroke-width:1.0;" x1="199.5352" x2="195.345" y1="712.5544" y2="705.74"/><polygon fill="#181818" points="164.72,656.02,164.4626,663.2265,171.0158,666.2358,171.2732,659.0293,164.72,656.02" style="stroke:#181818;stroke-width:1.0;"/><text fill="#000000" font-family="sans-serif" font-size="13" lengthAdjust="spacing" textLength="27" x="169.1467" y="706.1111">10..*</text></g><!--MD5=[6eeca14f8a2ed45d1117f4ed4af75b7e]
link Question to Statement--><g id="link_Question_Statement"><path codeLine="67" d="M218.3756,846.7231 C218.3756,846.7231 211.18,872.23 208.13,883.02 " fill="none" id="Question-Statement" style="stroke:#181818;stroke-width:1.0;"/><polygon fill="#181818" points="204.53,895.82,210.8223,888.2433,205.8869,891.0076,203.1225,886.0722,204.53,895.82" style="stroke:#181818;stroke-width:1.0;"/><line style="stroke:#181818;stroke-width:1.0;" x1="205.8869" x2="208.06" y1="891.0076" y2="883.305"/><polygon fill="#181818" points="221.62,835.17,216.1468,839.8651,218.3756,846.7231,223.8489,842.028,221.62,835.17" style="stroke:#181818;stroke-width:1.0;"/></g><!--MD5=[bcbd408316bb9144f3569d3bcde56d28]
link Question to Incorrect--><g id="link_Question_Incorrect"><path codeLine="68" d="M291.77,826.9726 C291.77,826.9726 298.86,832.65 302,835 C328.33,854.73 359.48,874.11 385.41,889.28 " fill="none" id="Question-Incorrect" style="stroke:#181818;stroke-width:1.0;"/><polygon fill="#181818" points="396.93,895.93,391.1405,887.9624,392.6014,893.4274,387.1364,894.8883,396.93,895.93" style="stroke:#181818;stroke-width:1.0;"/><line style="stroke:#181818;stroke-width:1.0;" x1="392.6014" x2="385.675" y1="893.4274" y2="889.425"/><polygon fill="#181818" points="282.56,819.28,284.6008,826.1963,291.77,826.9726,289.7292,820.0563,282.56,819.28" style="stroke:#181818;stroke-width:1.0;"/><text fill="#000000" font-family="sans-serif" font-size="13" lengthAdjust="spacing" textLength="7" x="380.5312" y="886.8469">3</text></g><!--MD5=[fad82a5e9ec53f6abc538956bca6f09b]
link Question to Correct--><g id="link_Question_Correct"><path codeLine="69" d="M268.7913,846.0952 C268.7913,846.0952 276.32,859.99 280,866 C283.91,872.39 288.45,878.91 293.05,885.1 " fill="none" id="Question-Correct" style="stroke:#181818;stroke-width:1.0;"/><polygon fill="#181818" points="301.28,895.78,298.9599,886.2083,298.2301,891.8179,292.6205,891.0881,301.28,895.78" style="stroke:#181818;stroke-width:1.0;"/><line style="stroke:#181818;stroke-width:1.0;" x1="298.2301" x2="293.345" y1="891.8179" y2="885.485"/><polygon fill="#181818" points="263.33,835.41,262.4989,842.5731,268.7913,846.0952,269.6224,838.9322,263.33,835.41" style="stroke:#181818;stroke-width:1.0;"/></g><!--MD5=[b1491d38e87214202fddacec717a9c8d]
reverse link Answer to Correct--><g id="link_Answer_Correct"><path codeLine="70" d="M347.63,819.49 C340.93,844.53 332.71,875.25 327.19,895.88 " fill="none" id="Answer-backto-Correct" style="stroke:#181818;stroke-width:1.0;"/><polygon fill="none" points="340.88,817.64,352.81,800.13,354.4,821.26,340.88,817.64" style="stroke:#181818;stroke-width:1.0;"/></g><!--MD5=[a6181c8180a1587156cddad319d63c9e]
reverse link Answer to Incorrect--><g id="link_Answer_Incorrect"><path codeLine="71" d="M381.88,817.62 C396.18,842.99 414.06,874.74 425.97,895.88 " fill="none" id="Answer-backto-Incorrect" style="stroke:#181818;stroke-width:1.0;"/><polygon fill="none" points="375.75,820.99,372.03,800.13,387.95,814.12,375.75,820.99" style="stroke:#181818;stroke-width:1.0;"/></g><!--MD5=[7cbf854ad3b69d71fd9b783f2e5c9f28]
reverse link Incorrect to Justification--><g id="link_Incorrect_Justification"><path codeLine="72" d="M439,957.3 C439,973.02 439,990.96 439,1004.83 " fill="none" id="Incorrect-backto-Justification" style="stroke:#181818;stroke-width:1.0;"/><polygon fill="none" points="439,944.22,435,950.22,439,956.22,443,950.22,439,944.22" style="stroke:#181818;stroke-width:1.0;"/></g><!--MD5=[98df2f76ab45609c36aa45d6b9c3faee]
link Question to Category--><g id="link_Question_Category"><path codeLine="74" d="M183.9136,818.294 C183.9136,818.294 119.19,867.71 92.68,887.94 " fill="none" id="Question-Category" style="stroke:#181818;stroke-width:1.0;"/><polygon fill="#181818" points="82.25,895.91,91.8323,893.6341,86.2261,892.8785,86.9818,887.2723,82.25,895.91" style="stroke:#181818;stroke-width:1.0;"/><line style="stroke:#181818;stroke-width:1.0;" x1="86.2261" x2="92.58" y1="892.8785" y2="888.02"/><polygon fill="#181818" points="193.45,811.01,186.2538,811.4732,183.9136,818.294,191.1098,817.8308,193.45,811.01" style="stroke:#181818;stroke-width:1.0;"/></g><!--MD5=[a5725b0440277e7b298212d4ab098951]
link Category to Category--><g id="link_Category_Category"><path codeLine="75" d="M109.2281,910.1712 C109.2281,910.1712 132,914.46 132,920 C132,925.54 123.03,928.8 110.6,929.8 " fill="none" id="Category-Category" style="stroke:#181818;stroke-width:1.0;"/><polygon fill="#181818" points="97.23,930.04,106.299,933.881,102.2292,929.952,106.1582,925.8822,97.23,930.04" style="stroke:#181818;stroke-width:1.0;"/><line style="stroke:#181818;stroke-width:1.0;" x1="102.2292" x2="110.23" y1="929.952" y2="929.805"/><polygon fill="#181818" points="97.23,909.96,103.1587,914.065,109.2281,910.1712,103.2995,906.0662,97.23,909.96" style="stroke:#181818;stroke-width:1.0;"/><text fill="#000000" font-family="sans-serif" font-size="13" lengthAdjust="spacing" textLength="20" x="104.9967" y="927.8467">0..*</text></g><!--MD5=[d081cdaca1302d4feae4ac21aa8efa6e]
@startuml OpoTestDomain

class Community

class User

class Reviewer

class Editor 

class Executor

class Evaluation

class Category 

class Test {
    categories
}

class PendingReviewQuestions

class ReviewedQuestions

class Concept {
    correctDefinition
    incorrectDefinition
    strategy
}

class Question {
    date
    isReviewed
    isPublic
    ...
}

class Statement

class Answer 

class Correct

Class Incorrect

Class Justification


Community *- -> "1..*" User
Community *- -> ReviewedQuestions


User <|- - Editor
Editor <|- -  Reviewer
User <|- - Executor

PendingReviewQuestions *- -> Question
ReviewedQuestions *- -> PendingReviewQuestions

Executor - -> "0..*" Evaluation
Evaluation - -> Test

Editor ..> Concept
Concept ..> Question
Reviewer ..> PendingReviewQuestions : Review

Test *- -> "10..*" Question
Question *- ->   Statement
Question *- -> "3" Incorrect
Question *- ->   Correct
Answer <|- - Correct
Answer <|- - Incorrect
Incorrect o- - Justification

Question *- -> Category
Category *- ->"0..*" Category







@end

PlantUML version 1.2022.7(Mon Aug 22 18:01:30 WEST 2022)
(GPL source distribution)
Java Runtime: OpenJDK Runtime Environment
JVM: OpenJDK 64-Bit Server VM
Default Encoding: Cp1252
Language: es
Country: ES
--></g></svg>