<?xml version="1.0" encoding="UTF-8" standalone="no"?><svg xmlns="http://www.w3.org/2000/svg" xmlns:xlink="http://www.w3.org/1999/xlink" contentStyleType="text/css" height="972px" preserveAspectRatio="none" style="width:906px;height:972px;background:#FFFFFF;" version="1.1" viewBox="0 0 906 972" width="906px" zoomAndPan="magnify"><defs/><g><!--MD5=[668d633d11bedc8952753581a2dda3db]
class Community--><g id="elem_Community"><rect codeLine="2" fill="#F1F1F1" height="48" id="Community" rx="2.5" ry="2.5" style="stroke:#181818;stroke-width:0.5;" width="102" x="329.95" y="7"/><ellipse cx="344.95" cy="23" fill="#ADD1B2" rx="11" ry="11" style="stroke:#181818;stroke-width:1.0;"/><path d="M347.7156,18.875 Q347.8719,18.6563 348.0594,18.5469 Q348.2469,18.4375 348.4656,18.4375 Q348.8406,18.4375 349.075,18.7031 Q349.3094,18.9531 349.3094,19.5625 L349.3094,21.0156 Q349.3094,21.625 349.075,21.8906 Q348.8406,22.1563 348.4656,22.1563 Q348.1219,22.1563 347.9188,21.9531 Q347.7156,21.7656 347.6063,21.25 Q347.5594,20.8906 347.3719,20.7031 Q347.0438,20.3281 346.4344,20.1094 Q345.825,19.8906 345.2,19.8906 Q344.4344,19.8906 343.7938,20.2188 Q343.1688,20.5469 342.6688,21.2969 Q342.1844,22.0469 342.1844,23.0781 L342.1844,24.1719 Q342.1844,25.4063 343.075,26.2344 Q343.9656,27.0469 345.5594,27.0469 Q346.4969,27.0469 347.1531,26.7969 Q347.5438,26.6406 347.9656,26.2031 Q348.2313,25.9375 348.3719,25.8594 Q348.5281,25.7813 348.7313,25.7813 Q349.0594,25.7813 349.3094,26.0469 Q349.575,26.2969 349.575,26.6406 Q349.575,26.9844 349.2313,27.3906 Q348.7313,27.9688 347.9344,28.2969 Q346.8563,28.75 345.5594,28.75 Q344.0438,28.75 342.8406,28.125 Q341.8563,27.625 341.1688,26.5625 Q340.4813,25.4844 340.4813,24.2031 L340.4813,23.0469 Q340.4813,21.7188 341.0906,20.5781 Q341.7156,19.4219 342.8094,18.8125 Q343.9031,18.1875 345.1375,18.1875 Q345.8719,18.1875 346.5125,18.3594 Q347.1688,18.5156 347.7156,18.875 Z " fill="#000000"/><text fill="#000000" font-family="sans-serif" font-size="14" lengthAdjust="spacing" textLength="70" x="358.95" y="28.7285">Community</text><line style="stroke:#181818;stroke-width:0.5;" x1="330.95" x2="430.95" y1="39" y2="39"/><line style="stroke:#181818;stroke-width:0.5;" x1="330.95" x2="430.95" y1="47" y2="47"/></g><!--MD5=[3fd616f346a44cd59a91eb10b19e157c]
class User--><g id="elem_User"><rect codeLine="4" fill="#F1F1F1" height="48" id="User" rx="2.5" ry="2.5" style="stroke:#181818;stroke-width:0.5;" width="61" x="350.45" y="116"/><ellipse cx="365.45" cy="132" fill="#ADD1B2" rx="11" ry="11" style="stroke:#181818;stroke-width:1.0;"/><path d="M368.2156,127.875 Q368.3719,127.6563 368.5594,127.5469 Q368.7469,127.4375 368.9656,127.4375 Q369.3406,127.4375 369.575,127.7031 Q369.8094,127.9531 369.8094,128.5625 L369.8094,130.0156 Q369.8094,130.625 369.575,130.8906 Q369.3406,131.1563 368.9656,131.1563 Q368.6219,131.1563 368.4188,130.9531 Q368.2156,130.7656 368.1063,130.25 Q368.0594,129.8906 367.8719,129.7031 Q367.5438,129.3281 366.9344,129.1094 Q366.325,128.8906 365.7,128.8906 Q364.9344,128.8906 364.2938,129.2188 Q363.6688,129.5469 363.1688,130.2969 Q362.6844,131.0469 362.6844,132.0781 L362.6844,133.1719 Q362.6844,134.4063 363.575,135.2344 Q364.4656,136.0469 366.0594,136.0469 Q366.9969,136.0469 367.6531,135.7969 Q368.0438,135.6406 368.4656,135.2031 Q368.7313,134.9375 368.8719,134.8594 Q369.0281,134.7813 369.2313,134.7813 Q369.5594,134.7813 369.8094,135.0469 Q370.075,135.2969 370.075,135.6406 Q370.075,135.9844 369.7313,136.3906 Q369.2313,136.9688 368.4344,137.2969 Q367.3563,137.75 366.0594,137.75 Q364.5438,137.75 363.3406,137.125 Q362.3563,136.625 361.6688,135.5625 Q360.9813,134.4844 360.9813,133.2031 L360.9813,132.0469 Q360.9813,130.7188 361.5906,129.5781 Q362.2156,128.4219 363.3094,127.8125 Q364.4031,127.1875 365.6375,127.1875 Q366.3719,127.1875 367.0125,127.3594 Q367.6688,127.5156 368.2156,127.875 Z " fill="#000000"/><text fill="#000000" font-family="sans-serif" font-size="14" lengthAdjust="spacing" textLength="29" x="379.45" y="137.7285">User</text><line style="stroke:#181818;stroke-width:0.5;" x1="351.45" x2="410.45" y1="148" y2="148"/><line style="stroke:#181818;stroke-width:0.5;" x1="351.45" x2="410.45" y1="156" y2="156"/></g><!--MD5=[e76a510855fdf825c81877c657b1fc23]
class Reviewer--><g id="elem_Reviewer"><rect codeLine="6" fill="#F1F1F1" height="48" id="Reviewer" rx="2.5" ry="2.5" style="stroke:#181818;stroke-width:0.5;" width="90" x="29.95" y="465"/><ellipse cx="44.95" cy="481" fill="#ADD1B2" rx="11" ry="11" style="stroke:#181818;stroke-width:1.0;"/><path d="M47.7156,476.875 Q47.8719,476.6563 48.0594,476.5469 Q48.2469,476.4375 48.4656,476.4375 Q48.8406,476.4375 49.075,476.7031 Q49.3094,476.9531 49.3094,477.5625 L49.3094,479.0156 Q49.3094,479.625 49.075,479.8906 Q48.8406,480.1563 48.4656,480.1563 Q48.1219,480.1563 47.9188,479.9531 Q47.7156,479.7656 47.6063,479.25 Q47.5594,478.8906 47.3719,478.7031 Q47.0438,478.3281 46.4344,478.1094 Q45.825,477.8906 45.2,477.8906 Q44.4344,477.8906 43.7938,478.2188 Q43.1688,478.5469 42.6688,479.2969 Q42.1844,480.0469 42.1844,481.0781 L42.1844,482.1719 Q42.1844,483.4063 43.075,484.2344 Q43.9656,485.0469 45.5594,485.0469 Q46.4969,485.0469 47.1531,484.7969 Q47.5438,484.6406 47.9656,484.2031 Q48.2313,483.9375 48.3719,483.8594 Q48.5281,483.7813 48.7313,483.7813 Q49.0594,483.7813 49.3094,484.0469 Q49.575,484.2969 49.575,484.6406 Q49.575,484.9844 49.2313,485.3906 Q48.7313,485.9688 47.9344,486.2969 Q46.8563,486.75 45.5594,486.75 Q44.0438,486.75 42.8406,486.125 Q41.8563,485.625 41.1688,484.5625 Q40.4813,483.4844 40.4813,482.2031 L40.4813,481.0469 Q40.4813,479.7188 41.0906,478.5781 Q41.7156,477.4219 42.8094,476.8125 Q43.9031,476.1875 45.1375,476.1875 Q45.8719,476.1875 46.5125,476.3594 Q47.1688,476.5156 47.7156,476.875 Z " fill="#000000"/><text fill="#000000" font-family="sans-serif" font-size="14" lengthAdjust="spacing" textLength="58" x="58.95" y="486.7285">Reviewer</text><line style="stroke:#181818;stroke-width:0.5;" x1="30.95" x2="118.95" y1="497" y2="497"/><line style="stroke:#181818;stroke-width:0.5;" x1="30.95" x2="118.95" y1="505" y2="505"/></g><!--MD5=[559db66c208d2736f857be4b8ed380a2]
class Editor--><g id="elem_Editor"><rect codeLine="8" fill="#F1F1F1" height="48" id="Editor" rx="2.5" ry="2.5" style="stroke:#181818;stroke-width:0.5;" width="69" x="290.45" y="225"/><ellipse cx="305.45" cy="241" fill="#ADD1B2" rx="11" ry="11" style="stroke:#181818;stroke-width:1.0;"/><path d="M308.2156,236.875 Q308.3719,236.6563 308.5594,236.5469 Q308.7469,236.4375 308.9656,236.4375 Q309.3406,236.4375 309.575,236.7031 Q309.8094,236.9531 309.8094,237.5625 L309.8094,239.0156 Q309.8094,239.625 309.575,239.8906 Q309.3406,240.1563 308.9656,240.1563 Q308.6219,240.1563 308.4188,239.9531 Q308.2156,239.7656 308.1063,239.25 Q308.0594,238.8906 307.8719,238.7031 Q307.5438,238.3281 306.9344,238.1094 Q306.325,237.8906 305.7,237.8906 Q304.9344,237.8906 304.2938,238.2188 Q303.6688,238.5469 303.1688,239.2969 Q302.6844,240.0469 302.6844,241.0781 L302.6844,242.1719 Q302.6844,243.4063 303.575,244.2344 Q304.4656,245.0469 306.0594,245.0469 Q306.9969,245.0469 307.6531,244.7969 Q308.0438,244.6406 308.4656,244.2031 Q308.7313,243.9375 308.8719,243.8594 Q309.0281,243.7813 309.2313,243.7813 Q309.5594,243.7813 309.8094,244.0469 Q310.075,244.2969 310.075,244.6406 Q310.075,244.9844 309.7313,245.3906 Q309.2313,245.9688 308.4344,246.2969 Q307.3563,246.75 306.0594,246.75 Q304.5438,246.75 303.3406,246.125 Q302.3563,245.625 301.6688,244.5625 Q300.9813,243.4844 300.9813,242.2031 L300.9813,241.0469 Q300.9813,239.7188 301.5906,238.5781 Q302.2156,237.4219 303.3094,236.8125 Q304.4031,236.1875 305.6375,236.1875 Q306.3719,236.1875 307.0125,236.3594 Q307.6688,236.5156 308.2156,236.875 Z " fill="#000000"/><text fill="#000000" font-family="sans-serif" font-size="14" lengthAdjust="spacing" textLength="37" x="319.45" y="246.7285">Editor</text><line style="stroke:#181818;stroke-width:0.5;" x1="291.45" x2="358.45" y1="257" y2="257"/><line style="stroke:#181818;stroke-width:0.5;" x1="291.45" x2="358.45" y1="265" y2="265"/></g><!--MD5=[a0a1f7f9662f43ef0ece806266f72a6f]
class Executor--><g id="elem_Executor"><rect codeLine="10" fill="#F1F1F1" height="48" id="Executor" rx="2.5" ry="2.5" style="stroke:#181818;stroke-width:0.5;" width="87" x="401.45" y="225"/><ellipse cx="416.45" cy="241" fill="#ADD1B2" rx="11" ry="11" style="stroke:#181818;stroke-width:1.0;"/><path d="M419.2156,236.875 Q419.3719,236.6563 419.5594,236.5469 Q419.7469,236.4375 419.9656,236.4375 Q420.3406,236.4375 420.575,236.7031 Q420.8094,236.9531 420.8094,237.5625 L420.8094,239.0156 Q420.8094,239.625 420.575,239.8906 Q420.3406,240.1563 419.9656,240.1563 Q419.6219,240.1563 419.4188,239.9531 Q419.2156,239.7656 419.1063,239.25 Q419.0594,238.8906 418.8719,238.7031 Q418.5438,238.3281 417.9344,238.1094 Q417.325,237.8906 416.7,237.8906 Q415.9344,237.8906 415.2938,238.2188 Q414.6688,238.5469 414.1688,239.2969 Q413.6844,240.0469 413.6844,241.0781 L413.6844,242.1719 Q413.6844,243.4063 414.575,244.2344 Q415.4656,245.0469 417.0594,245.0469 Q417.9969,245.0469 418.6531,244.7969 Q419.0438,244.6406 419.4656,244.2031 Q419.7313,243.9375 419.8719,243.8594 Q420.0281,243.7813 420.2313,243.7813 Q420.5594,243.7813 420.8094,244.0469 Q421.075,244.2969 421.075,244.6406 Q421.075,244.9844 420.7313,245.3906 Q420.2313,245.9688 419.4344,246.2969 Q418.3563,246.75 417.0594,246.75 Q415.5438,246.75 414.3406,246.125 Q413.3563,245.625 412.6688,244.5625 Q411.9813,243.4844 411.9813,242.2031 L411.9813,241.0469 Q411.9813,239.7188 412.5906,238.5781 Q413.2156,237.4219 414.3094,236.8125 Q415.4031,236.1875 416.6375,236.1875 Q417.3719,236.1875 418.0125,236.3594 Q418.6688,236.5156 419.2156,236.875 Z " fill="#000000"/><text fill="#000000" font-family="sans-serif" font-size="14" lengthAdjust="spacing" textLength="55" x="430.45" y="246.7285">Executor</text><line style="stroke:#181818;stroke-width:0.5;" x1="402.45" x2="487.45" y1="257" y2="257"/><line style="stroke:#181818;stroke-width:0.5;" x1="402.45" x2="487.45" y1="265" y2="265"/></g><!--MD5=[71e8807956d33805e77353b9d7e2df39]
class Evaluation--><g id="elem_Evaluation"><rect codeLine="12" fill="#F1F1F1" height="48" id="Evaluation" rx="2.5" ry="2.5" style="stroke:#181818;stroke-width:0.5;" width="98" x="443.95" y="360.5"/><ellipse cx="458.95" cy="376.5" fill="#ADD1B2" rx="11" ry="11" style="stroke:#181818;stroke-width:1.0;"/><path d="M461.7156,372.375 Q461.8719,372.1563 462.0594,372.0469 Q462.2469,371.9375 462.4656,371.9375 Q462.8406,371.9375 463.075,372.2031 Q463.3094,372.4531 463.3094,373.0625 L463.3094,374.5156 Q463.3094,375.125 463.075,375.3906 Q462.8406,375.6563 462.4656,375.6563 Q462.1219,375.6563 461.9188,375.4531 Q461.7156,375.2656 461.6063,374.75 Q461.5594,374.3906 461.3719,374.2031 Q461.0438,373.8281 460.4344,373.6094 Q459.825,373.3906 459.2,373.3906 Q458.4344,373.3906 457.7938,373.7188 Q457.1688,374.0469 456.6688,374.7969 Q456.1844,375.5469 456.1844,376.5781 L456.1844,377.6719 Q456.1844,378.9063 457.075,379.7344 Q457.9656,380.5469 459.5594,380.5469 Q460.4969,380.5469 461.1531,380.2969 Q461.5438,380.1406 461.9656,379.7031 Q462.2313,379.4375 462.3719,379.3594 Q462.5281,379.2813 462.7313,379.2813 Q463.0594,379.2813 463.3094,379.5469 Q463.575,379.7969 463.575,380.1406 Q463.575,380.4844 463.2313,380.8906 Q462.7313,381.4688 461.9344,381.7969 Q460.8563,382.25 459.5594,382.25 Q458.0438,382.25 456.8406,381.625 Q455.8563,381.125 455.1688,380.0625 Q454.4813,378.9844 454.4813,377.7031 L454.4813,376.5469 Q454.4813,375.2188 455.0906,374.0781 Q455.7156,372.9219 456.8094,372.3125 Q457.9031,371.6875 459.1375,371.6875 Q459.8719,371.6875 460.5125,371.8594 Q461.1688,372.0156 461.7156,372.375 Z " fill="#000000"/><text fill="#000000" font-family="sans-serif" font-size="14" lengthAdjust="spacing" textLength="66" x="472.95" y="382.2285">Evaluation</text><line style="stroke:#181818;stroke-width:0.5;" x1="444.95" x2="540.95" y1="392.5" y2="392.5"/><line style="stroke:#181818;stroke-width:0.5;" x1="444.95" x2="540.95" y1="400.5" y2="400.5"/></g><!--MD5=[a96594a83e2ecdc78cbf17c2ddf01934]
class Category--><g id="elem_Category"><rect codeLine="14" fill="#F1F1F1" height="48" id="Category" rx="2.5" ry="2.5" style="stroke:#181818;stroke-width:0.5;" width="90" x="423.95" y="808"/><ellipse cx="438.95" cy="824" fill="#ADD1B2" rx="11" ry="11" style="stroke:#181818;stroke-width:1.0;"/><path d="M441.7156,819.875 Q441.8719,819.6563 442.0594,819.5469 Q442.2469,819.4375 442.4656,819.4375 Q442.8406,819.4375 443.075,819.7031 Q443.3094,819.9531 443.3094,820.5625 L443.3094,822.0156 Q443.3094,822.625 443.075,822.8906 Q442.8406,823.1563 442.4656,823.1563 Q442.1219,823.1563 441.9188,822.9531 Q441.7156,822.7656 441.6063,822.25 Q441.5594,821.8906 441.3719,821.7031 Q441.0438,821.3281 440.4344,821.1094 Q439.825,820.8906 439.2,820.8906 Q438.4344,820.8906 437.7938,821.2188 Q437.1688,821.5469 436.6688,822.2969 Q436.1844,823.0469 436.1844,824.0781 L436.1844,825.1719 Q436.1844,826.4063 437.075,827.2344 Q437.9656,828.0469 439.5594,828.0469 Q440.4969,828.0469 441.1531,827.7969 Q441.5438,827.6406 441.9656,827.2031 Q442.2313,826.9375 442.3719,826.8594 Q442.5281,826.7813 442.7313,826.7813 Q443.0594,826.7813 443.3094,827.0469 Q443.575,827.2969 443.575,827.6406 Q443.575,827.9844 443.2313,828.3906 Q442.7313,828.9688 441.9344,829.2969 Q440.8563,829.75 439.5594,829.75 Q438.0438,829.75 436.8406,829.125 Q435.8563,828.625 435.1688,827.5625 Q434.4813,826.4844 434.4813,825.2031 L434.4813,824.0469 Q434.4813,822.7188 435.0906,821.5781 Q435.7156,820.4219 436.8094,819.8125 Q437.9031,819.1875 439.1375,819.1875 Q439.8719,819.1875 440.5125,819.3594 Q441.1688,819.5156 441.7156,819.875 Z " fill="#000000"/><text fill="#000000" font-family="sans-serif" font-size="14" lengthAdjust="spacing" textLength="58" x="452.95" y="829.7285">Category</text><line style="stroke:#181818;stroke-width:0.5;" x1="424.95" x2="512.95" y1="840" y2="840"/><line style="stroke:#181818;stroke-width:0.5;" x1="424.95" x2="512.95" y1="848" y2="848"/></g><!--MD5=[df38be88ccee13e832d6fafd6288a4ca]
class Test--><g id="elem_Test"><rect codeLine="16" fill="#F1F1F1" height="48" id="Test" rx="2.5" ry="2.5" style="stroke:#181818;stroke-width:0.5;" width="60" x="539.95" y="543"/><ellipse cx="554.95" cy="559" fill="#ADD1B2" rx="11" ry="11" style="stroke:#181818;stroke-width:1.0;"/><path d="M557.7156,554.875 Q557.8719,554.6563 558.0594,554.5469 Q558.2469,554.4375 558.4656,554.4375 Q558.8406,554.4375 559.075,554.7031 Q559.3094,554.9531 559.3094,555.5625 L559.3094,557.0156 Q559.3094,557.625 559.075,557.8906 Q558.8406,558.1563 558.4656,558.1563 Q558.1219,558.1563 557.9188,557.9531 Q557.7156,557.7656 557.6063,557.25 Q557.5594,556.8906 557.3719,556.7031 Q557.0438,556.3281 556.4344,556.1094 Q555.825,555.8906 555.2,555.8906 Q554.4344,555.8906 553.7938,556.2188 Q553.1688,556.5469 552.6688,557.2969 Q552.1844,558.0469 552.1844,559.0781 L552.1844,560.1719 Q552.1844,561.4063 553.075,562.2344 Q553.9656,563.0469 555.5594,563.0469 Q556.4969,563.0469 557.1531,562.7969 Q557.5438,562.6406 557.9656,562.2031 Q558.2313,561.9375 558.3719,561.8594 Q558.5281,561.7813 558.7313,561.7813 Q559.0594,561.7813 559.3094,562.0469 Q559.575,562.2969 559.575,562.6406 Q559.575,562.9844 559.2313,563.3906 Q558.7313,563.9688 557.9344,564.2969 Q556.8563,564.75 555.5594,564.75 Q554.0438,564.75 552.8406,564.125 Q551.8563,563.625 551.1688,562.5625 Q550.4813,561.4844 550.4813,560.2031 L550.4813,559.0469 Q550.4813,557.7188 551.0906,556.5781 Q551.7156,555.4219 552.8094,554.8125 Q553.9031,554.1875 555.1375,554.1875 Q555.8719,554.1875 556.5125,554.3594 Q557.1688,554.5156 557.7156,554.875 Z " fill="#000000"/><text fill="#000000" font-family="sans-serif" font-size="14" lengthAdjust="spacing" textLength="28" x="568.95" y="564.7285">Test</text><line style="stroke:#181818;stroke-width:0.5;" x1="540.95" x2="598.95" y1="575" y2="575"/><line style="stroke:#181818;stroke-width:0.5;" x1="540.95" x2="598.95" y1="583" y2="583"/></g><!--MD5=[251997ad79b4d4948a25d3b27294058e]
class AnswersToReview--><g id="elem_AnswersToReview"><rect codeLine="18" fill="#F1F1F1" height="48" id="AnswersToReview" rx="2.5" ry="2.5" style="stroke:#181818;stroke-width:0.5;" width="147" x="155.45" y="808"/><ellipse cx="170.45" cy="824" fill="#ADD1B2" rx="11" ry="11" style="stroke:#181818;stroke-width:1.0;"/><path d="M173.2156,819.875 Q173.3719,819.6563 173.5594,819.5469 Q173.7469,819.4375 173.9656,819.4375 Q174.3406,819.4375 174.575,819.7031 Q174.8094,819.9531 174.8094,820.5625 L174.8094,822.0156 Q174.8094,822.625 174.575,822.8906 Q174.3406,823.1563 173.9656,823.1563 Q173.6219,823.1563 173.4188,822.9531 Q173.2156,822.7656 173.1063,822.25 Q173.0594,821.8906 172.8719,821.7031 Q172.5438,821.3281 171.9344,821.1094 Q171.325,820.8906 170.7,820.8906 Q169.9344,820.8906 169.2938,821.2188 Q168.6688,821.5469 168.1688,822.2969 Q167.6844,823.0469 167.6844,824.0781 L167.6844,825.1719 Q167.6844,826.4063 168.575,827.2344 Q169.4656,828.0469 171.0594,828.0469 Q171.9969,828.0469 172.6531,827.7969 Q173.0438,827.6406 173.4656,827.2031 Q173.7313,826.9375 173.8719,826.8594 Q174.0281,826.7813 174.2313,826.7813 Q174.5594,826.7813 174.8094,827.0469 Q175.075,827.2969 175.075,827.6406 Q175.075,827.9844 174.7313,828.3906 Q174.2313,828.9688 173.4344,829.2969 Q172.3563,829.75 171.0594,829.75 Q169.5438,829.75 168.3406,829.125 Q167.3563,828.625 166.6688,827.5625 Q165.9813,826.4844 165.9813,825.2031 L165.9813,824.0469 Q165.9813,822.7188 166.5906,821.5781 Q167.2156,820.4219 168.3094,819.8125 Q169.4031,819.1875 170.6375,819.1875 Q171.3719,819.1875 172.0125,819.3594 Q172.6688,819.5156 173.2156,819.875 Z " fill="#000000"/><text fill="#000000" font-family="sans-serif" font-size="14" lengthAdjust="spacing" textLength="115" x="184.45" y="829.7285">AnswersToReview</text><line style="stroke:#181818;stroke-width:0.5;" x1="156.45" x2="301.45" y1="840" y2="840"/><line style="stroke:#181818;stroke-width:0.5;" x1="156.45" x2="301.45" y1="848" y2="848"/></g><!--MD5=[9d451b2f92d848a8e2d1a4dab2b1c6bf]
class Concept--><g id="elem_Concept"><rect codeLine="20" fill="#F1F1F1" height="100.8281" id="Concept" rx="2.5" ry="2.5" style="stroke:#181818;stroke-width:0.5;" width="85" x="282.45" y="334"/><ellipse cx="297.45" cy="350" fill="#ADD1B2" rx="11" ry="11" style="stroke:#181818;stroke-width:1.0;"/><path d="M300.2156,345.875 Q300.3719,345.6563 300.5594,345.5469 Q300.7469,345.4375 300.9656,345.4375 Q301.3406,345.4375 301.575,345.7031 Q301.8094,345.9531 301.8094,346.5625 L301.8094,348.0156 Q301.8094,348.625 301.575,348.8906 Q301.3406,349.1563 300.9656,349.1563 Q300.6219,349.1563 300.4188,348.9531 Q300.2156,348.7656 300.1063,348.25 Q300.0594,347.8906 299.8719,347.7031 Q299.5438,347.3281 298.9344,347.1094 Q298.325,346.8906 297.7,346.8906 Q296.9344,346.8906 296.2938,347.2188 Q295.6688,347.5469 295.1688,348.2969 Q294.6844,349.0469 294.6844,350.0781 L294.6844,351.1719 Q294.6844,352.4063 295.575,353.2344 Q296.4656,354.0469 298.0594,354.0469 Q298.9969,354.0469 299.6531,353.7969 Q300.0438,353.6406 300.4656,353.2031 Q300.7313,352.9375 300.8719,352.8594 Q301.0281,352.7813 301.2313,352.7813 Q301.5594,352.7813 301.8094,353.0469 Q302.075,353.2969 302.075,353.6406 Q302.075,353.9844 301.7313,354.3906 Q301.2313,354.9688 300.4344,355.2969 Q299.3563,355.75 298.0594,355.75 Q296.5438,355.75 295.3406,355.125 Q294.3563,354.625 293.6688,353.5625 Q292.9813,352.4844 292.9813,351.2031 L292.9813,350.0469 Q292.9813,348.7188 293.5906,347.5781 Q294.2156,346.4219 295.3094,345.8125 Q296.4031,345.1875 297.6375,345.1875 Q298.3719,345.1875 299.0125,345.3594 Q299.6688,345.5156 300.2156,345.875 Z " fill="#000000"/><text fill="#000000" font-family="sans-serif" font-size="14" lengthAdjust="spacing" textLength="53" x="311.45" y="355.7285">Concept</text><line style="stroke:#181818;stroke-width:0.5;" x1="283.45" x2="366.45" y1="366" y2="366"/><text fill="#000000" font-family="sans-serif" font-size="14" lengthAdjust="spacing" textLength="52" x="288.45" y="384.5332">keyword</text><text fill="#000000" font-family="sans-serif" font-size="14" lengthAdjust="spacing" textLength="29" x="288.45" y="402.1426">level</text><text fill="#000000" font-family="sans-serif" font-size="14" lengthAdjust="spacing" textLength="12" x="288.45" y="419.752">...</text><line style="stroke:#181818;stroke-width:0.5;" x1="283.45" x2="366.45" y1="426.8281" y2="426.8281"/></g><!--MD5=[c5be3d7e9ffcf6502258095b57411394]
class OpenQuestion--><g id="elem_OpenQuestion"><rect codeLine="26" fill="#F1F1F1" height="48" id="OpenQuestion" rx="2.5" ry="2.5" style="stroke:#181818;stroke-width:0.5;" width="124" x="237.95" y="917"/><ellipse cx="252.95" cy="933" fill="#ADD1B2" rx="11" ry="11" style="stroke:#181818;stroke-width:1.0;"/><path d="M255.7156,928.875 Q255.8719,928.6563 256.0594,928.5469 Q256.2469,928.4375 256.4656,928.4375 Q256.8406,928.4375 257.075,928.7031 Q257.3094,928.9531 257.3094,929.5625 L257.3094,931.0156 Q257.3094,931.625 257.075,931.8906 Q256.8406,932.1563 256.4656,932.1563 Q256.1219,932.1563 255.9188,931.9531 Q255.7156,931.7656 255.6063,931.25 Q255.5594,930.8906 255.3719,930.7031 Q255.0438,930.3281 254.4344,930.1094 Q253.825,929.8906 253.2,929.8906 Q252.4344,929.8906 251.7938,930.2188 Q251.1688,930.5469 250.6688,931.2969 Q250.1844,932.0469 250.1844,933.0781 L250.1844,934.1719 Q250.1844,935.4063 251.075,936.2344 Q251.9656,937.0469 253.5594,937.0469 Q254.4969,937.0469 255.1531,936.7969 Q255.5438,936.6406 255.9656,936.2031 Q256.2313,935.9375 256.3719,935.8594 Q256.5281,935.7813 256.7313,935.7813 Q257.0594,935.7813 257.3094,936.0469 Q257.575,936.2969 257.575,936.6406 Q257.575,936.9844 257.2313,937.3906 Q256.7313,937.9688 255.9344,938.2969 Q254.8563,938.75 253.5594,938.75 Q252.0438,938.75 250.8406,938.125 Q249.8563,937.625 249.1688,936.5625 Q248.4813,935.4844 248.4813,934.2031 L248.4813,933.0469 Q248.4813,931.7188 249.0906,930.5781 Q249.7156,929.4219 250.8094,928.8125 Q251.9031,928.1875 253.1375,928.1875 Q253.8719,928.1875 254.5125,928.3594 Q255.1688,928.5156 255.7156,928.875 Z " fill="#000000"/><text fill="#000000" font-family="sans-serif" font-size="14" lengthAdjust="spacing" textLength="92" x="266.95" y="938.7285">OpenQuestion</text><line style="stroke:#181818;stroke-width:0.5;" x1="238.95" x2="360.95" y1="949" y2="949"/><line style="stroke:#181818;stroke-width:0.5;" x1="238.95" x2="360.95" y1="957" y2="957"/></g><!--MD5=[fc7123defb831ecdd44b2d9bcef6cceb]
class Question--><g id="elem_Question"><rect codeLine="29" fill="#F1F1F1" height="48" id="Question" rx="2.5" ry="2.5" style="stroke:#181818;stroke-width:0.5;" width="89" x="570.45" y="699"/><ellipse cx="585.45" cy="715" fill="#ADD1B2" rx="11" ry="11" style="stroke:#181818;stroke-width:1.0;"/><path d="M588.2156,710.875 Q588.3719,710.6563 588.5594,710.5469 Q588.7469,710.4375 588.9656,710.4375 Q589.3406,710.4375 589.575,710.7031 Q589.8094,710.9531 589.8094,711.5625 L589.8094,713.0156 Q589.8094,713.625 589.575,713.8906 Q589.3406,714.1563 588.9656,714.1563 Q588.6219,714.1563 588.4188,713.9531 Q588.2156,713.7656 588.1063,713.25 Q588.0594,712.8906 587.8719,712.7031 Q587.5438,712.3281 586.9344,712.1094 Q586.325,711.8906 585.7,711.8906 Q584.9344,711.8906 584.2938,712.2188 Q583.6688,712.5469 583.1688,713.2969 Q582.6844,714.0469 582.6844,715.0781 L582.6844,716.1719 Q582.6844,717.4063 583.575,718.2344 Q584.4656,719.0469 586.0594,719.0469 Q586.9969,719.0469 587.6531,718.7969 Q588.0438,718.6406 588.4656,718.2031 Q588.7313,717.9375 588.8719,717.8594 Q589.0281,717.7813 589.2313,717.7813 Q589.5594,717.7813 589.8094,718.0469 Q590.075,718.2969 590.075,718.6406 Q590.075,718.9844 589.7313,719.3906 Q589.2313,719.9688 588.4344,720.2969 Q587.3563,720.75 586.0594,720.75 Q584.5438,720.75 583.3406,720.125 Q582.3563,719.625 581.6688,718.5625 Q580.9813,717.4844 580.9813,716.2031 L580.9813,715.0469 Q580.9813,713.7188 581.5906,712.5781 Q582.2156,711.4219 583.3094,710.8125 Q584.4031,710.1875 585.6375,710.1875 Q586.3719,710.1875 587.0125,710.3594 Q587.6688,710.5156 588.2156,710.875 Z " fill="#000000"/><text fill="#000000" font-family="sans-serif" font-size="14" lengthAdjust="spacing" textLength="57" x="599.45" y="720.7285">Question</text><line style="stroke:#181818;stroke-width:0.5;" x1="571.45" x2="658.45" y1="731" y2="731"/><line style="stroke:#181818;stroke-width:0.5;" x1="571.45" x2="658.45" y1="739" y2="739"/></g><!--MD5=[a61a298976b7d1d94498f45c2ebfa10b]
class Statement--><g id="elem_Statement"><rect codeLine="32" fill="#F1F1F1" height="48" id="Statement" rx="2.5" ry="2.5" style="stroke:#181818;stroke-width:0.5;" width="96" x="566.95" y="808"/><ellipse cx="581.95" cy="824" fill="#ADD1B2" rx="11" ry="11" style="stroke:#181818;stroke-width:1.0;"/><path d="M584.7156,819.875 Q584.8719,819.6563 585.0594,819.5469 Q585.2469,819.4375 585.4656,819.4375 Q585.8406,819.4375 586.075,819.7031 Q586.3094,819.9531 586.3094,820.5625 L586.3094,822.0156 Q586.3094,822.625 586.075,822.8906 Q585.8406,823.1563 585.4656,823.1563 Q585.1219,823.1563 584.9188,822.9531 Q584.7156,822.7656 584.6063,822.25 Q584.5594,821.8906 584.3719,821.7031 Q584.0438,821.3281 583.4344,821.1094 Q582.825,820.8906 582.2,820.8906 Q581.4344,820.8906 580.7938,821.2188 Q580.1688,821.5469 579.6688,822.2969 Q579.1844,823.0469 579.1844,824.0781 L579.1844,825.1719 Q579.1844,826.4063 580.075,827.2344 Q580.9656,828.0469 582.5594,828.0469 Q583.4969,828.0469 584.1531,827.7969 Q584.5438,827.6406 584.9656,827.2031 Q585.2313,826.9375 585.3719,826.8594 Q585.5281,826.7813 585.7313,826.7813 Q586.0594,826.7813 586.3094,827.0469 Q586.575,827.2969 586.575,827.6406 Q586.575,827.9844 586.2313,828.3906 Q585.7313,828.9688 584.9344,829.2969 Q583.8563,829.75 582.5594,829.75 Q581.0438,829.75 579.8406,829.125 Q578.8563,828.625 578.1688,827.5625 Q577.4813,826.4844 577.4813,825.2031 L577.4813,824.0469 Q577.4813,822.7188 578.0906,821.5781 Q578.7156,820.4219 579.8094,819.8125 Q580.9031,819.1875 582.1375,819.1875 Q582.8719,819.1875 583.5125,819.3594 Q584.1688,819.5156 584.7156,819.875 Z " fill="#000000"/><text fill="#000000" font-family="sans-serif" font-size="14" lengthAdjust="spacing" textLength="64" x="595.95" y="829.7285">Statement</text><line style="stroke:#181818;stroke-width:0.5;" x1="567.95" x2="661.95" y1="840" y2="840"/><line style="stroke:#181818;stroke-width:0.5;" x1="567.95" x2="661.95" y1="848" y2="848"/></g><!--MD5=[f9fadfa5a66b7e5a67b370cd443ffe52]
class Answer--><g id="elem_Answer"><rect codeLine="34" fill="#F1F1F1" height="48" id="Answer" rx="2.5" ry="2.5" style="stroke:#181818;stroke-width:0.5;" width="78" x="761.95" y="699"/><ellipse cx="776.95" cy="715" fill="#ADD1B2" rx="11" ry="11" style="stroke:#181818;stroke-width:1.0;"/><path d="M779.7156,710.875 Q779.8719,710.6563 780.0594,710.5469 Q780.2469,710.4375 780.4656,710.4375 Q780.8406,710.4375 781.075,710.7031 Q781.3094,710.9531 781.3094,711.5625 L781.3094,713.0156 Q781.3094,713.625 781.075,713.8906 Q780.8406,714.1563 780.4656,714.1563 Q780.1219,714.1563 779.9188,713.9531 Q779.7156,713.7656 779.6063,713.25 Q779.5594,712.8906 779.3719,712.7031 Q779.0438,712.3281 778.4344,712.1094 Q777.825,711.8906 777.2,711.8906 Q776.4344,711.8906 775.7938,712.2188 Q775.1688,712.5469 774.6688,713.2969 Q774.1844,714.0469 774.1844,715.0781 L774.1844,716.1719 Q774.1844,717.4063 775.075,718.2344 Q775.9656,719.0469 777.5594,719.0469 Q778.4969,719.0469 779.1531,718.7969 Q779.5438,718.6406 779.9656,718.2031 Q780.2313,717.9375 780.3719,717.8594 Q780.5281,717.7813 780.7313,717.7813 Q781.0594,717.7813 781.3094,718.0469 Q781.575,718.2969 781.575,718.6406 Q781.575,718.9844 781.2313,719.3906 Q780.7313,719.9688 779.9344,720.2969 Q778.8563,720.75 777.5594,720.75 Q776.0438,720.75 774.8406,720.125 Q773.8563,719.625 773.1688,718.5625 Q772.4813,717.4844 772.4813,716.2031 L772.4813,715.0469 Q772.4813,713.7188 773.0906,712.5781 Q773.7156,711.4219 774.8094,710.8125 Q775.9031,710.1875 777.1375,710.1875 Q777.8719,710.1875 778.5125,710.3594 Q779.1688,710.5156 779.7156,710.875 Z " fill="#000000"/><text fill="#000000" font-family="sans-serif" font-size="14" lengthAdjust="spacing" textLength="46" x="790.95" y="720.7285">Answer</text><line style="stroke:#181818;stroke-width:0.5;" x1="762.95" x2="838.95" y1="731" y2="731"/><line style="stroke:#181818;stroke-width:0.5;" x1="762.95" x2="838.95" y1="739" y2="739"/></g><!--MD5=[bc629657279eaa9349f412646650f2c5]
class Correct--><g id="elem_Correct"><rect codeLine="36" fill="#F1F1F1" height="48" id="Correct" rx="2.5" ry="2.5" style="stroke:#181818;stroke-width:0.5;" width="79" x="820.45" y="808"/><ellipse cx="835.45" cy="824" fill="#ADD1B2" rx="11" ry="11" style="stroke:#181818;stroke-width:1.0;"/><path d="M838.2156,819.875 Q838.3719,819.6563 838.5594,819.5469 Q838.7469,819.4375 838.9656,819.4375 Q839.3406,819.4375 839.575,819.7031 Q839.8094,819.9531 839.8094,820.5625 L839.8094,822.0156 Q839.8094,822.625 839.575,822.8906 Q839.3406,823.1563 838.9656,823.1563 Q838.6219,823.1563 838.4188,822.9531 Q838.2156,822.7656 838.1063,822.25 Q838.0594,821.8906 837.8719,821.7031 Q837.5438,821.3281 836.9344,821.1094 Q836.325,820.8906 835.7,820.8906 Q834.9344,820.8906 834.2938,821.2188 Q833.6688,821.5469 833.1688,822.2969 Q832.6844,823.0469 832.6844,824.0781 L832.6844,825.1719 Q832.6844,826.4063 833.575,827.2344 Q834.4656,828.0469 836.0594,828.0469 Q836.9969,828.0469 837.6531,827.7969 Q838.0438,827.6406 838.4656,827.2031 Q838.7313,826.9375 838.8719,826.8594 Q839.0281,826.7813 839.2313,826.7813 Q839.5594,826.7813 839.8094,827.0469 Q840.075,827.2969 840.075,827.6406 Q840.075,827.9844 839.7313,828.3906 Q839.2313,828.9688 838.4344,829.2969 Q837.3563,829.75 836.0594,829.75 Q834.5438,829.75 833.3406,829.125 Q832.3563,828.625 831.6688,827.5625 Q830.9813,826.4844 830.9813,825.2031 L830.9813,824.0469 Q830.9813,822.7188 831.5906,821.5781 Q832.2156,820.4219 833.3094,819.8125 Q834.4031,819.1875 835.6375,819.1875 Q836.3719,819.1875 837.0125,819.3594 Q837.6688,819.5156 838.2156,819.875 Z " fill="#000000"/><text fill="#000000" font-family="sans-serif" font-size="14" lengthAdjust="spacing" textLength="47" x="849.45" y="829.7285">Correct</text><line style="stroke:#181818;stroke-width:0.5;" x1="821.45" x2="898.45" y1="840" y2="840"/><line style="stroke:#181818;stroke-width:0.5;" x1="821.45" x2="898.45" y1="848" y2="848"/></g><!--MD5=[37923dc032bbfca87d4413e584fa2cda]
class Incorrect--><g id="elem_Incorrect"><rect codeLine="38" fill="#F1F1F1" height="48" id="Incorrect" rx="2.5" ry="2.5" style="stroke:#181818;stroke-width:0.5;" width="87" x="698.45" y="808"/><ellipse cx="713.45" cy="824" fill="#ADD1B2" rx="11" ry="11" style="stroke:#181818;stroke-width:1.0;"/><path d="M716.2156,819.875 Q716.3719,819.6563 716.5594,819.5469 Q716.7469,819.4375 716.9656,819.4375 Q717.3406,819.4375 717.575,819.7031 Q717.8094,819.9531 717.8094,820.5625 L717.8094,822.0156 Q717.8094,822.625 717.575,822.8906 Q717.3406,823.1563 716.9656,823.1563 Q716.6219,823.1563 716.4188,822.9531 Q716.2156,822.7656 716.1063,822.25 Q716.0594,821.8906 715.8719,821.7031 Q715.5438,821.3281 714.9344,821.1094 Q714.325,820.8906 713.7,820.8906 Q712.9344,820.8906 712.2938,821.2188 Q711.6688,821.5469 711.1688,822.2969 Q710.6844,823.0469 710.6844,824.0781 L710.6844,825.1719 Q710.6844,826.4063 711.575,827.2344 Q712.4656,828.0469 714.0594,828.0469 Q714.9969,828.0469 715.6531,827.7969 Q716.0438,827.6406 716.4656,827.2031 Q716.7313,826.9375 716.8719,826.8594 Q717.0281,826.7813 717.2313,826.7813 Q717.5594,826.7813 717.8094,827.0469 Q718.075,827.2969 718.075,827.6406 Q718.075,827.9844 717.7313,828.3906 Q717.2313,828.9688 716.4344,829.2969 Q715.3563,829.75 714.0594,829.75 Q712.5438,829.75 711.3406,829.125 Q710.3563,828.625 709.6688,827.5625 Q708.9813,826.4844 708.9813,825.2031 L708.9813,824.0469 Q708.9813,822.7188 709.5906,821.5781 Q710.2156,820.4219 711.3094,819.8125 Q712.4031,819.1875 713.6375,819.1875 Q714.3719,819.1875 715.0125,819.3594 Q715.6688,819.5156 716.2156,819.875 Z " fill="#000000"/><text fill="#000000" font-family="sans-serif" font-size="14" lengthAdjust="spacing" textLength="55" x="727.45" y="829.7285">Incorrect</text><line style="stroke:#181818;stroke-width:0.5;" x1="699.45" x2="784.45" y1="840" y2="840"/><line style="stroke:#181818;stroke-width:0.5;" x1="699.45" x2="784.45" y1="848" y2="848"/></g><!--MD5=[af22135d5be6ed11ccd2d02fa51653b3]
class Definition--><g id="elem_Definition"><rect fill="#F1F1F1" height="48" id="Definition" rx="2.5" ry="2.5" style="stroke:#181818;stroke-width:0.5;" width="91" x="155.45" y="543"/><ellipse cx="170.45" cy="559" fill="#ADD1B2" rx="11" ry="11" style="stroke:#181818;stroke-width:1.0;"/><path d="M173.2156,554.875 Q173.3719,554.6563 173.5594,554.5469 Q173.7469,554.4375 173.9656,554.4375 Q174.3406,554.4375 174.575,554.7031 Q174.8094,554.9531 174.8094,555.5625 L174.8094,557.0156 Q174.8094,557.625 174.575,557.8906 Q174.3406,558.1563 173.9656,558.1563 Q173.6219,558.1563 173.4188,557.9531 Q173.2156,557.7656 173.1063,557.25 Q173.0594,556.8906 172.8719,556.7031 Q172.5438,556.3281 171.9344,556.1094 Q171.325,555.8906 170.7,555.8906 Q169.9344,555.8906 169.2938,556.2188 Q168.6688,556.5469 168.1688,557.2969 Q167.6844,558.0469 167.6844,559.0781 L167.6844,560.1719 Q167.6844,561.4063 168.575,562.2344 Q169.4656,563.0469 171.0594,563.0469 Q171.9969,563.0469 172.6531,562.7969 Q173.0438,562.6406 173.4656,562.2031 Q173.7313,561.9375 173.8719,561.8594 Q174.0281,561.7813 174.2313,561.7813 Q174.5594,561.7813 174.8094,562.0469 Q175.075,562.2969 175.075,562.6406 Q175.075,562.9844 174.7313,563.3906 Q174.2313,563.9688 173.4344,564.2969 Q172.3563,564.75 171.0594,564.75 Q169.5438,564.75 168.3406,564.125 Q167.3563,563.625 166.6688,562.5625 Q165.9813,561.4844 165.9813,560.2031 L165.9813,559.0469 Q165.9813,557.7188 166.5906,556.5781 Q167.2156,555.4219 168.3094,554.8125 Q169.4031,554.1875 170.6375,554.1875 Q171.3719,554.1875 172.0125,554.3594 Q172.6688,554.5156 173.2156,554.875 Z " fill="#000000"/><text fill="#000000" font-family="sans-serif" font-size="14" lengthAdjust="spacing" textLength="59" x="184.45" y="564.7285">Definition</text><line style="stroke:#181818;stroke-width:0.5;" x1="156.45" x2="245.45" y1="575" y2="575"/><line style="stroke:#181818;stroke-width:0.5;" x1="156.45" x2="245.45" y1="583" y2="583"/></g><!--MD5=[9b4de504215638550a8bb9c080b7ee00]
class Justification--><g id="elem_Justification"><rect fill="#F1F1F1" height="48" id="Justification" rx="2.5" ry="2.5" style="stroke:#181818;stroke-width:0.5;" width="105" x="70.45" y="699"/><ellipse cx="85.45" cy="715" fill="#ADD1B2" rx="11" ry="11" style="stroke:#181818;stroke-width:1.0;"/><path d="M88.2156,710.875 Q88.3719,710.6563 88.5594,710.5469 Q88.7469,710.4375 88.9656,710.4375 Q89.3406,710.4375 89.575,710.7031 Q89.8094,710.9531 89.8094,711.5625 L89.8094,713.0156 Q89.8094,713.625 89.575,713.8906 Q89.3406,714.1563 88.9656,714.1563 Q88.6219,714.1563 88.4188,713.9531 Q88.2156,713.7656 88.1063,713.25 Q88.0594,712.8906 87.8719,712.7031 Q87.5438,712.3281 86.9344,712.1094 Q86.325,711.8906 85.7,711.8906 Q84.9344,711.8906 84.2938,712.2188 Q83.6688,712.5469 83.1688,713.2969 Q82.6844,714.0469 82.6844,715.0781 L82.6844,716.1719 Q82.6844,717.4063 83.575,718.2344 Q84.4656,719.0469 86.0594,719.0469 Q86.9969,719.0469 87.6531,718.7969 Q88.0438,718.6406 88.4656,718.2031 Q88.7313,717.9375 88.8719,717.8594 Q89.0281,717.7813 89.2313,717.7813 Q89.5594,717.7813 89.8094,718.0469 Q90.075,718.2969 90.075,718.6406 Q90.075,718.9844 89.7313,719.3906 Q89.2313,719.9688 88.4344,720.2969 Q87.3563,720.75 86.0594,720.75 Q84.5438,720.75 83.3406,720.125 Q82.3563,719.625 81.6688,718.5625 Q80.9813,717.4844 80.9813,716.2031 L80.9813,715.0469 Q80.9813,713.7188 81.5906,712.5781 Q82.2156,711.4219 83.3094,710.8125 Q84.4031,710.1875 85.6375,710.1875 Q86.3719,710.1875 87.0125,710.3594 Q87.6688,710.5156 88.2156,710.875 Z " fill="#000000"/><text fill="#000000" font-family="sans-serif" font-size="14" lengthAdjust="spacing" textLength="73" x="99.45" y="720.7285">Justification</text><line style="stroke:#181818;stroke-width:0.5;" x1="71.45" x2="174.45" y1="731" y2="731"/><line style="stroke:#181818;stroke-width:0.5;" x1="71.45" x2="174.45" y1="739" y2="739"/></g><!--MD5=[534474e9f05b14d7c70186ae077f30e0]
class Relation--><g id="elem_Relation"><rect fill="#F1F1F1" height="48" id="Relation" rx="2.5" ry="2.5" style="stroke:#181818;stroke-width:0.5;" width="84" x="257.95" y="621"/><ellipse cx="272.95" cy="637" fill="#ADD1B2" rx="11" ry="11" style="stroke:#181818;stroke-width:1.0;"/><path d="M275.7156,632.875 Q275.8719,632.6563 276.0594,632.5469 Q276.2469,632.4375 276.4656,632.4375 Q276.8406,632.4375 277.075,632.7031 Q277.3094,632.9531 277.3094,633.5625 L277.3094,635.0156 Q277.3094,635.625 277.075,635.8906 Q276.8406,636.1563 276.4656,636.1563 Q276.1219,636.1563 275.9188,635.9531 Q275.7156,635.7656 275.6063,635.25 Q275.5594,634.8906 275.3719,634.7031 Q275.0438,634.3281 274.4344,634.1094 Q273.825,633.8906 273.2,633.8906 Q272.4344,633.8906 271.7938,634.2188 Q271.1688,634.5469 270.6688,635.2969 Q270.1844,636.0469 270.1844,637.0781 L270.1844,638.1719 Q270.1844,639.4063 271.075,640.2344 Q271.9656,641.0469 273.5594,641.0469 Q274.4969,641.0469 275.1531,640.7969 Q275.5438,640.6406 275.9656,640.2031 Q276.2313,639.9375 276.3719,639.8594 Q276.5281,639.7813 276.7313,639.7813 Q277.0594,639.7813 277.3094,640.0469 Q277.575,640.2969 277.575,640.6406 Q277.575,640.9844 277.2313,641.3906 Q276.7313,641.9688 275.9344,642.2969 Q274.8563,642.75 273.5594,642.75 Q272.0438,642.75 270.8406,642.125 Q269.8563,641.625 269.1688,640.5625 Q268.4813,639.4844 268.4813,638.2031 L268.4813,637.0469 Q268.4813,635.7188 269.0906,634.5781 Q269.7156,633.4219 270.8094,632.8125 Q271.9031,632.1875 273.1375,632.1875 Q273.8719,632.1875 274.5125,632.3594 Q275.1688,632.5156 275.7156,632.875 Z " fill="#000000"/><text fill="#000000" font-family="sans-serif" font-size="14" lengthAdjust="spacing" textLength="52" x="286.95" y="642.7285">Relation</text><line style="stroke:#181818;stroke-width:0.5;" x1="258.95" x2="340.95" y1="653" y2="653"/><line style="stroke:#181818;stroke-width:0.5;" x1="258.95" x2="340.95" y1="661" y2="661"/></g><!--MD5=[12743b4aa7b2bf3d8e383437eb99df68]
link Community to User--><g id="link_Community_User"><path codeLine="40" d="M380.95,67.22 C380.95,67.22 380.95,91.5 380.95,102.56 " fill="none" id="Community-User" style="stroke:#181818;stroke-width:1.0;"/><polygon fill="#181818" points="380.95,115.83,384.95,106.83,380.95,110.83,376.95,106.83,380.95,115.83" style="stroke:#181818;stroke-width:1.0;"/><line style="stroke:#181818;stroke-width:1.0;" x1="380.95" x2="380.95" y1="110.83" y2="102.83"/><polygon fill="#181818" points="380.95,55.22,376.95,61.22,380.95,67.22,384.95,61.22,380.95,55.22" style="stroke:#181818;stroke-width:1.0;"/><text fill="#000000" font-family="sans-serif" font-size="13" lengthAdjust="spacing" textLength="20" x="358.3875" y="105.1266">1..*</text></g><!--MD5=[7016372388c7ac2652db8515880aaa11]
reverse link User to Editor--><g id="link_User_Editor"><path codeLine="44" d="M359.43,182.13 C351.85,196.6 343.6,212.36 337.08,224.83 " fill="none" id="User-backto-Editor" style="stroke:#181818;stroke-width:1.0;"/><polygon fill="none" points="353.32,178.69,368.8,164.22,365.73,185.18,353.32,178.69" style="stroke:#181818;stroke-width:1.0;"/></g><!--MD5=[60e4945ab784e9eaf709bb3168dd25a4]
reverse link Editor to Reviewer--><g id="link_Editor_Reviewer"><path codeLine="45" d="M285.99,287.09 C233.87,336.71 142.95,423.26 99.48,464.65 " fill="none" id="Editor-backto-Reviewer" style="stroke:#181818;stroke-width:1.0;"/><polygon fill="none" points="281.21,281.97,300.52,273.25,290.86,292.11,281.21,281.97" style="stroke:#181818;stroke-width:1.0;"/></g><!--MD5=[d8a655080454bab67f6091cbff4cee86]
reverse link User to Executor--><g id="link_User_Executor"><path codeLine="46" d="M405.26,181.64 C414,196.25 423.55,212.22 431.09,224.83 " fill="none" id="User-backto-Executor" style="stroke:#181818;stroke-width:1.0;"/><polygon fill="none" points="399.1,184.97,394.84,164.22,411.11,177.79,399.1,184.97" style="stroke:#181818;stroke-width:1.0;"/></g><!--MD5=[8988500cc7d5a7a5953e16366f05393a]
reverse link AnswersToReview to OpenQuestion--><g id="link_AnswersToReview_OpenQuestion"><path codeLine="48" d="M247.23,860.54 C258.8,877.99 273.6,900.29 284.57,916.83 " fill="none" id="AnswersToReview-backto-OpenQuestion" style="stroke:#181818;stroke-width:1.0;"/><polygon fill="#181818" points="244.36,856.22,245.9856,865.9338,247.117,860.3912,252.6596,861.5226,244.36,856.22" style="stroke:#181818;stroke-width:1.0;"/></g><!--MD5=[d0493fe3f8433ad70d7ac94d8da863ff]
reverse link Definition to AnswersToReview--><g id="link_Definition_AnswersToReview"><path codeLine="49" d="M203.99,596.53 C209.56,648.92 221.34,759.51 226.47,807.71 " fill="none" id="Definition-backto-AnswersToReview" style="stroke:#181818;stroke-width:1.0;"/><polygon fill="#181818" points="203.43,591.34,200.404,600.7125,203.9586,596.312,208.3591,599.8667,203.43,591.34" style="stroke:#181818;stroke-width:1.0;"/></g><!--MD5=[1a4d83db36a33f2fbcdef02fb8712ac7]
reverse link Justification to AnswersToReview--><g id="link_Justification_AnswersToReview"><path codeLine="50" d="M149.8,751.1 C167.14,768.61 189.48,791.15 205.99,807.83 " fill="none" id="Justification-backto-AnswersToReview" style="stroke:#181818;stroke-width:1.0;"/><polygon fill="#181818" points="145.95,747.22,149.4483,756.4266,149.4712,750.7698,155.128,750.7927,145.95,747.22" style="stroke:#181818;stroke-width:1.0;"/></g><!--MD5=[ca1db39ba97a6974584bf41ab4f0a9b1]
reverse link Relation to AnswersToReview--><g id="link_Relation_AnswersToReview"><path codeLine="51" d="M291.52,674.08 C283.15,701.07 269.5,742.83 254.95,778 C250.84,787.94 245.72,798.65 241.12,807.81 " fill="none" id="Relation-backto-AnswersToReview" style="stroke:#181818;stroke-width:1.0;"/><polygon fill="#181818" points="293.02,669.22,286.5315,676.6294,291.5376,673.9952,294.1717,679.0013,293.02,669.22" style="stroke:#181818;stroke-width:1.0;"/></g><!--MD5=[92bb550ca98ac9a22eac22022873985a]
reverse link Concept to Category--><g id="link_Concept_Category"><path codeLine="53" d="M376.45,434.33 C384.29,443.85 391.55,454.24 396.95,465 C456.64,583.95 466.89,747.77 468.62,807.78 " fill="none" id="Concept-backto-Category" style="stroke:#181818;stroke-width:1.0;"/><polygon fill="#181818" points="367.78,424.35,368.7015,431.502,375.6577,433.4021,374.7362,426.2502,367.78,424.35" style="stroke:#181818;stroke-width:1.0;"/></g><!--MD5=[543bb2115b5a10697a67507a00f6a2f4]
reverse link Concept to Definition--><g id="link_Concept_Definition"><path codeLine="54" d="M283.2,446.27 C260.46,479.38 233.62,518.44 216.95,542.71 " fill="none" id="Concept-backto-Definition" style="stroke:#181818;stroke-width:1.0;"/><polygon fill="none" points="290.74,435.3,284.0462,437.9819,283.9473,445.1923,290.6411,442.5104,290.74,435.3" style="stroke:#181818;stroke-width:1.0;"/></g><!--MD5=[38796b68b5180f699f927fbe8d179b6a]
reverse link Definition to Justification--><g id="link_Definition_Justification"><path codeLine="55" d="M183.31,602.83 C168.45,632.17 147.61,673.32 134.71,698.79 " fill="none" id="Definition-backto-Justification" style="stroke:#181818;stroke-width:1.0;"/><polygon fill="none" points="189.27,591.06,182.9915,594.6069,183.8508,601.7666,190.1293,598.2197,189.27,591.06" style="stroke:#181818;stroke-width:1.0;"/></g><!--MD5=[54f9360500e0fd532969fc16f437bbea]
reverse link Concept to Relation--><g id="link_Concept_Relation"><path codeLine="56" d="M318.91,447.98 C313.51,503.76 305.91,582.42 302.18,620.93 " fill="none" id="Concept-backto-Relation" style="stroke:#181818;stroke-width:1.0;"/><polygon fill="none" points="320.16,435.04,315.6048,440.6302,319.013,446.9851,323.5682,441.3949,320.16,435.04" style="stroke:#181818;stroke-width:1.0;"/></g><!--MD5=[3e23c87a985df3c2da55c80a43bfcd45]
link Executor to Evaluation--><g id="link_Executor_Evaluation"><path codeLine="58" d="M453.31,273.25 C461.52,296.09 474.05,330.94 482.82,355.33 " fill="none" id="Executor-to-Evaluation" style="stroke:#181818;stroke-width:1.0;"/><polygon fill="#181818" points="484.52,360.06,485.2467,350.238,482.832,355.3536,477.7164,352.9388,484.52,360.06" style="stroke:#181818;stroke-width:1.0;"/><text fill="#000000" font-family="sans-serif" font-size="13" lengthAdjust="spacing" textLength="20" x="460.0277" y="349.6907">0..*</text></g><!--MD5=[7ea0c49f743e358ac875b85df2ad47d3]
link Evaluation to Test--><g id="link_Evaluation_Test"><path codeLine="59" d="M502.86,408.73 C517.01,441.9 542.96,502.74 558.11,538.24 " fill="none" id="Evaluation-to-Test" style="stroke:#181818;stroke-width:1.0;"/><polygon fill="#181818" points="560.08,542.86,560.2372,533.0124,558.1225,538.2591,552.8758,536.1444,560.08,542.86" style="stroke:#181818;stroke-width:1.0;"/></g><!--MD5=[dbcaedebb070bbdd4f1f81456a517a7e]
link Editor to Concept--><g id="link_Editor_Concept"><path codeLine="61" d="M324.95,273.25 C324.95,288.55 324.95,309.24 324.95,328.57 " fill="none" id="Editor-to-Concept" style="stroke:#181818;stroke-width:1.0;stroke-dasharray:7.0,7.0;"/><polygon fill="#181818" points="324.95,333.98,328.95,324.98,324.95,328.98,320.95,324.98,324.95,333.98" style="stroke:#181818;stroke-width:1.0;"/></g><!--MD5=[f3154c50d89c8fec986e56ef836e5177]
reverse link Concept to OpenQuestion--><g id="link_Concept_OpenQuestion"><path codeLine="62" d="M346.49,440.33 C358.45,475.64 370.95,522.85 370.95,566 C370.95,566 370.95,566 370.95,833 C370.95,866.22 346.9,897.02 326.79,916.96 " fill="none" id="Concept-backto-OpenQuestion" style="stroke:#181818;stroke-width:1.0;stroke-dasharray:7.0,7.0;"/><polygon fill="#181818" points="344.73,435.21,343.8788,445.022,346.3582,439.9375,351.4427,442.4169,344.73,435.21" style="stroke:#181818;stroke-width:1.0;"/></g><!--MD5=[9fac5a92095d82c34ec834b068648827]
link Reviewer to AnswersToReview--><g id="link_Reviewer_AnswersToReview"><path codeLine="64" d="M64.33,513.13 C44.09,560.99 6,672.57 52.95,747 C74.47,781.12 114.09,801.68 150.29,813.9 " fill="none" id="Reviewer-to-AnswersToReview" style="stroke:#181818;stroke-width:1.0;stroke-dasharray:7.0,7.0;"/><polygon fill="#181818" points="155.14,815.5,147.8309,808.8987,150.3881,813.9446,145.3422,816.5018,155.14,815.5" style="stroke:#181818;stroke-width:1.0;"/><text fill="#000000" font-family="sans-serif" font-size="13" lengthAdjust="spacing" textLength="40" x="34.95" y="650.4951">Review</text></g><!--MD5=[bb3d97f09542411db1527b071cca8268]
link Test to Question--><g id="link_Test_Question"><path codeLine="66" d="M580.0546,602.5787 C580.0546,602.5787 597.25,661.43 604.51,686.27 " fill="none" id="Test-Question" style="stroke:#181818;stroke-width:1.0;"/><polygon fill="#181818" points="608.17,698.79,609.4789,689.0285,606.7645,693.9916,601.8014,691.2773,608.17,698.79" style="stroke:#181818;stroke-width:1.0;"/><line style="stroke:#181818;stroke-width:1.0;" x1="606.7645" x2="604.52" y1="693.9916" y2="686.31"/><polygon fill="#181818" points="576.69,591.06,574.5327,597.9409,580.0546,602.5787,582.2118,595.6978,576.69,591.06" style="stroke:#181818;stroke-width:1.0;"/><text fill="#000000" font-family="sans-serif" font-size="13" lengthAdjust="spacing" textLength="27" x="575.9733" y="688.0763">10..*</text></g><!--MD5=[6eeca14f8a2ed45d1117f4ed4af75b7e]
link Question to Statement--><g id="link_Question_Statement"><path codeLine="67" d="M614.95,759.22 C614.95,759.22 614.95,783.5 614.95,794.56 " fill="none" id="Question-Statement" style="stroke:#181818;stroke-width:1.0;"/><polygon fill="#181818" points="614.95,807.83,618.95,798.83,614.95,802.83,610.95,798.83,614.95,807.83" style="stroke:#181818;stroke-width:1.0;"/><line style="stroke:#181818;stroke-width:1.0;" x1="614.95" x2="614.95" y1="802.83" y2="794.83"/><polygon fill="#181818" points="614.95,747.22,610.95,753.22,614.95,759.22,618.95,753.22,614.95,747.22" style="stroke:#181818;stroke-width:1.0;"/></g><!--MD5=[bcbd408316bb9144f3569d3bcde56d28]
link Question to Incorrect--><g id="link_Question_Incorrect"><path codeLine="68" d="M651.6896,754.9488 C651.6896,754.9488 687.84,785.41 704.17,799.17 " fill="none" id="Question-Incorrect" style="stroke:#181818;stroke-width:1.0;"/><polygon fill="#181818" points="714.45,807.83,710.149,798.9699,710.6279,804.6064,704.9913,805.0853,714.45,807.83" style="stroke:#181818;stroke-width:1.0;"/><line style="stroke:#181818;stroke-width:1.0;" x1="710.6279" x2="704.505" y1="804.6064" y2="799.45"/><polygon fill="#181818" points="642.51,747.22,644.5235,754.1443,651.6896,754.9488,649.6761,748.0245,642.51,747.22" style="stroke:#181818;stroke-width:1.0;"/><text fill="#000000" font-family="sans-serif" font-size="13" lengthAdjust="spacing" textLength="7" x="699.5063" y="797.1266">3</text></g><!--MD5=[fad82a5e9ec53f6abc538956bca6f09b]
link Question to Correct--><g id="link_Question_Correct"><path codeLine="69" d="M670.5933,748.3112 C670.5933,748.3112 767.92,790.81 807.91,808.27 " fill="none" id="Question-Correct" style="stroke:#181818;stroke-width:1.0;"/><polygon fill="#181818" points="820.06,813.58,813.4115,806.3139,815.4774,811.5799,810.2114,813.6459,820.06,813.58" style="stroke:#181818;stroke-width:1.0;"/><line style="stroke:#181818;stroke-width:1.0;" x1="815.4774" x2="808.15" y1="811.5799" y2="808.38"/><polygon fill="#181818" points="659.6,743.5,663.4929,749.57,670.5933,748.3112,666.7004,742.2412,659.6,743.5" style="stroke:#181818;stroke-width:1.0;"/></g><!--MD5=[b1491d38e87214202fddacec717a9c8d]
reverse link Answer to Correct--><g id="link_Answer_Correct"><path codeLine="70" d="M823.63,765.13 C831.61,779.6 840.3,795.36 847.17,807.83 " fill="none" id="Answer-backto-Correct" style="stroke:#181818;stroke-width:1.0;"/><polygon fill="none" points="817.28,768.11,813.75,747.22,829.54,761.35,817.28,768.11" style="stroke:#181818;stroke-width:1.0;"/></g><!--MD5=[a6181c8180a1587156cddad319d63c9e]
reverse link Answer to Incorrect--><g id="link_Answer_Incorrect"><path codeLine="71" d="M778.27,765.13 C770.29,779.6 761.6,795.36 754.73,807.83 " fill="none" id="Answer-backto-Incorrect" style="stroke:#181818;stroke-width:1.0;"/><polygon fill="none" points="772.36,761.35,788.15,747.22,784.62,768.11,772.36,761.35" style="stroke:#181818;stroke-width:1.0;"/></g><!--MD5=[98df2f76ab45609c36aa45d6b9c3faee]
link Question to Category--><g id="link_Question_Category"><path codeLine="73" d="M573.5915,754.3141 C573.5915,754.3141 530.55,785.86 511.2,800.03 " fill="none" id="Question-Category" style="stroke:#181818;stroke-width:1.0;"/><polygon fill="#181818" points="500.57,807.83,510.1936,805.7356,504.6027,804.8741,505.4642,799.2833,500.57,807.83" style="stroke:#181818;stroke-width:1.0;"/><line style="stroke:#181818;stroke-width:1.0;" x1="504.6027" x2="511.05" y1="804.8741" y2="800.14"/><polygon fill="#181818" points="583.27,747.22,576.066,747.5409,573.5915,754.3141,580.7954,753.9932,583.27,747.22" style="stroke:#181818;stroke-width:1.0;"/></g><!--MD5=[a5725b0440277e7b298212d4ab098951]
link Category to Category--><g id="link_Category_Category"><path codeLine="74" d="M526.1781,822.1712 C526.1781,822.1712 548.95,826.46 548.95,832 C548.95,837.54 539.98,840.8 527.55,841.8 " fill="none" id="Category-Category" style="stroke:#181818;stroke-width:1.0;"/><polygon fill="#181818" points="514.18,842.04,523.249,845.881,519.1792,841.952,523.1082,837.8822,514.18,842.04" style="stroke:#181818;stroke-width:1.0;"/><line style="stroke:#181818;stroke-width:1.0;" x1="519.1792" x2="527.18" y1="841.952" y2="841.805"/><polygon fill="#181818" points="514.18,821.96,520.1087,826.065,526.1781,822.1712,520.2495,818.0662,514.18,821.96" style="stroke:#181818;stroke-width:1.0;"/><text fill="#000000" font-family="sans-serif" font-size="13" lengthAdjust="spacing" textLength="20" x="521.9467" y="839.8467">0..*</text></g><!--MD5=[ee0157127d00024e452d96776bfd0c3f]
@startuml OpoTestDomain

class Community

class User

class Reviewer

class Editor 

class Executor

class Evaluation

class Category 

class Test 

class AnswersToReview

class Concept {
    keyword
    level
    ...
}

class OpenQuestion {
}

class Question {
}

class Statement

class Answer 

class Correct

Class Incorrect

Community *- -> "1..*" User
'Community *- -> Concept


User <|- - Editor
Editor <|- -  Reviewer
User <|- - Executor

AnswersToReview <- - OpenQuestion
Definition <- - AnswersToReview
Justification <- - AnswersToReview
Relation <- - AnswersToReview

Concept *- - Category
Concept o- - Definition
Definition o- - Justification
Concept o- - Relation

Executor - -> "0..*" Evaluation
Evaluation - -> Test

Editor ..> Concept
Concept <.. OpenQuestion
'OpenQuestion - -> Question
Reviewer ..> AnswersToReview : Review

Test *- -> "10..*" Question
Question *- ->   Statement
Question *- -> "3" Incorrect
Question *- ->   Correct
Answer <|- - Correct
Answer <|- - Incorrect

Question *- -> Category
Category *- ->"0..*" Category


@enduml

@startuml OpoTestDomain

class Community

class User

class Reviewer

class Editor 

class Executor

class Evaluation

class Category 

class Test 

class AnswersToReview

class Concept {
    keyword
    level
    ...
}

class OpenQuestion {
}

class Question {
}

class Statement

class Answer 

class Correct

Class Incorrect

Community *- -> "1..*" User


User <|- - Editor
Editor <|- -  Reviewer
User <|- - Executor

AnswersToReview <- - OpenQuestion
Definition <- - AnswersToReview
Justification <- - AnswersToReview
Relation <- - AnswersToReview

Concept *- - Category
Concept o- - Definition
Definition o- - Justification
Concept o- - Relation

Executor - -> "0..*" Evaluation
Evaluation - -> Test

Editor ..> Concept
Concept <.. OpenQuestion
Reviewer ..> AnswersToReview : Review

Test *- -> "10..*" Question
Question *- ->   Statement
Question *- -> "3" Incorrect
Question *- ->   Correct
Answer <|- - Correct
Answer <|- - Incorrect

Question *- -> Category
Category *- ->"0..*" Category


@enduml

PlantUML version 1.2022.7(Mon Aug 22 18:01:30 WEST 2022)
(GPL source distribution)
Java Runtime: OpenJDK Runtime Environment
JVM: OpenJDK 64-Bit Server VM
Default Encoding: Cp1252
Language: es
Country: ES
--></g></svg>