<?xml version="1.0" encoding="UTF-8" standalone="no"?><svg xmlns="http://www.w3.org/2000/svg" xmlns:xlink="http://www.w3.org/1999/xlink" contentStyleType="text/css" height="710px" preserveAspectRatio="none" style="width:406px;height:710px;background:#FFFFFF;" version="1.1" viewBox="0 0 406 710" width="406px" zoomAndPan="magnify"><defs/><g><!--MD5=[668d633d11bedc8952753581a2dda3db]
class Community--><g id="elem_Community"><rect codeLine="2" fill="#F1F1F1" height="48" id="Community" rx="2.5" ry="2.5" style="stroke:#181818;stroke-width:0.5;" width="102" x="230.5" y="7"/><ellipse cx="245.5" cy="23" fill="#ADD1B2" rx="11" ry="11" style="stroke:#181818;stroke-width:1.0;"/><path d="M248.2656,18.875 Q248.4219,18.6563 248.6094,18.5469 Q248.7969,18.4375 249.0156,18.4375 Q249.3906,18.4375 249.625,18.7031 Q249.8594,18.9531 249.8594,19.5625 L249.8594,21.0156 Q249.8594,21.625 249.625,21.8906 Q249.3906,22.1563 249.0156,22.1563 Q248.6719,22.1563 248.4688,21.9531 Q248.2656,21.7656 248.1563,21.25 Q248.1094,20.8906 247.9219,20.7031 Q247.5938,20.3281 246.9844,20.1094 Q246.375,19.8906 245.75,19.8906 Q244.9844,19.8906 244.3438,20.2188 Q243.7188,20.5469 243.2188,21.2969 Q242.7344,22.0469 242.7344,23.0781 L242.7344,24.1719 Q242.7344,25.4063 243.625,26.2344 Q244.5156,27.0469 246.1094,27.0469 Q247.0469,27.0469 247.7031,26.7969 Q248.0938,26.6406 248.5156,26.2031 Q248.7813,25.9375 248.9219,25.8594 Q249.0781,25.7813 249.2813,25.7813 Q249.6094,25.7813 249.8594,26.0469 Q250.125,26.2969 250.125,26.6406 Q250.125,26.9844 249.7813,27.3906 Q249.2813,27.9688 248.4844,28.2969 Q247.4063,28.75 246.1094,28.75 Q244.5938,28.75 243.3906,28.125 Q242.4063,27.625 241.7188,26.5625 Q241.0313,25.4844 241.0313,24.2031 L241.0313,23.0469 Q241.0313,21.7188 241.6406,20.5781 Q242.2656,19.4219 243.3594,18.8125 Q244.4531,18.1875 245.6875,18.1875 Q246.4219,18.1875 247.0625,18.3594 Q247.7188,18.5156 248.2656,18.875 Z " fill="#000000"/><text fill="#000000" font-family="sans-serif" font-size="14" lengthAdjust="spacing" textLength="70" x="259.5" y="28.7285">Community</text><line style="stroke:#181818;stroke-width:0.5;" x1="231.5" x2="331.5" y1="39" y2="39"/><line style="stroke:#181818;stroke-width:0.5;" x1="231.5" x2="331.5" y1="47" y2="47"/></g><g id="elem_GMN3"><path d="M6,18 L6,44.3516 A0,0 0 0 0 6,44.3516 L195,44.3516 A0,0 0 0 0 195,44.3516 L195,36 L230.28,31 L195,28 L195,28 L185,18 L6,18 A0,0 0 0 0 6,18 " fill="#FEFFDD" style="stroke:#181818;stroke-width:0.5;"/><path d="M185,18 L185,28 L195,28 L185,18 " fill="#FEFFDD" style="stroke:#181818;stroke-width:0.5;"/><text fill="#000000" font-family="sans-serif" font-size="13" lengthAdjust="spacing" textLength="168" x="12" y="36.4951">reviewedQuestions availables</text></g><!--MD5=[3fd616f346a44cd59a91eb10b19e157c]
class User--><g id="elem_User"><rect codeLine="5" fill="#F1F1F1" height="48" id="User" rx="2.5" ry="2.5" style="stroke:#181818;stroke-width:0.5;" width="61" x="206" y="115"/><ellipse cx="221" cy="131" fill="#ADD1B2" rx="11" ry="11" style="stroke:#181818;stroke-width:1.0;"/><path d="M223.7656,126.875 Q223.9219,126.6563 224.1094,126.5469 Q224.2969,126.4375 224.5156,126.4375 Q224.8906,126.4375 225.125,126.7031 Q225.3594,126.9531 225.3594,127.5625 L225.3594,129.0156 Q225.3594,129.625 225.125,129.8906 Q224.8906,130.1563 224.5156,130.1563 Q224.1719,130.1563 223.9688,129.9531 Q223.7656,129.7656 223.6563,129.25 Q223.6094,128.8906 223.4219,128.7031 Q223.0938,128.3281 222.4844,128.1094 Q221.875,127.8906 221.25,127.8906 Q220.4844,127.8906 219.8438,128.2188 Q219.2188,128.5469 218.7188,129.2969 Q218.2344,130.0469 218.2344,131.0781 L218.2344,132.1719 Q218.2344,133.4063 219.125,134.2344 Q220.0156,135.0469 221.6094,135.0469 Q222.5469,135.0469 223.2031,134.7969 Q223.5938,134.6406 224.0156,134.2031 Q224.2813,133.9375 224.4219,133.8594 Q224.5781,133.7813 224.7813,133.7813 Q225.1094,133.7813 225.3594,134.0469 Q225.625,134.2969 225.625,134.6406 Q225.625,134.9844 225.2813,135.3906 Q224.7813,135.9688 223.9844,136.2969 Q222.9063,136.75 221.6094,136.75 Q220.0938,136.75 218.8906,136.125 Q217.9063,135.625 217.2188,134.5625 Q216.5313,133.4844 216.5313,132.2031 L216.5313,131.0469 Q216.5313,129.7188 217.1406,128.5781 Q217.7656,127.4219 218.8594,126.8125 Q219.9531,126.1875 221.1875,126.1875 Q221.9219,126.1875 222.5625,126.3594 Q223.2188,126.5156 223.7656,126.875 Z " fill="#000000"/><text fill="#000000" font-family="sans-serif" font-size="14" lengthAdjust="spacing" textLength="29" x="235" y="136.7285">User</text><line style="stroke:#181818;stroke-width:0.5;" x1="207" x2="266" y1="147" y2="147"/><line style="stroke:#181818;stroke-width:0.5;" x1="207" x2="266" y1="155" y2="155"/></g><g id="elem_GMN7"><path d="M100,126 L100,152.3516 A0,0 0 0 0 100,152.3516 L171,152.3516 A0,0 0 0 0 171,152.3516 L171,144 L205.8,139 L171,136 L171,136 L161,126 L100,126 A0,0 0 0 0 100,126 " fill="#FEFFDD" style="stroke:#181818;stroke-width:0.5;"/><path d="M161,126 L161,136 L171,136 L161,126 " fill="#FEFFDD" style="stroke:#181818;stroke-width:0.5;"/><text fill="#000000" font-family="sans-serif" font-size="13" lengthAdjust="spacing" textLength="50" x="106" y="144.4951">myTests</text></g><!--MD5=[559db66c208d2736f857be4b8ed380a2]
class Editor--><g id="elem_Editor"><rect codeLine="8" fill="#F1F1F1" height="48" id="Editor" rx="2.5" ry="2.5" style="stroke:#181818;stroke-width:0.5;" width="69" x="63" y="331"/><ellipse cx="78" cy="347" fill="#ADD1B2" rx="11" ry="11" style="stroke:#181818;stroke-width:1.0;"/><path d="M80.7656,342.875 Q80.9219,342.6563 81.1094,342.5469 Q81.2969,342.4375 81.5156,342.4375 Q81.8906,342.4375 82.125,342.7031 Q82.3594,342.9531 82.3594,343.5625 L82.3594,345.0156 Q82.3594,345.625 82.125,345.8906 Q81.8906,346.1563 81.5156,346.1563 Q81.1719,346.1563 80.9688,345.9531 Q80.7656,345.7656 80.6563,345.25 Q80.6094,344.8906 80.4219,344.7031 Q80.0938,344.3281 79.4844,344.1094 Q78.875,343.8906 78.25,343.8906 Q77.4844,343.8906 76.8438,344.2188 Q76.2188,344.5469 75.7188,345.2969 Q75.2344,346.0469 75.2344,347.0781 L75.2344,348.1719 Q75.2344,349.4063 76.125,350.2344 Q77.0156,351.0469 78.6094,351.0469 Q79.5469,351.0469 80.2031,350.7969 Q80.5938,350.6406 81.0156,350.2031 Q81.2813,349.9375 81.4219,349.8594 Q81.5781,349.7813 81.7813,349.7813 Q82.1094,349.7813 82.3594,350.0469 Q82.625,350.2969 82.625,350.6406 Q82.625,350.9844 82.2813,351.3906 Q81.7813,351.9688 80.9844,352.2969 Q79.9063,352.75 78.6094,352.75 Q77.0938,352.75 75.8906,352.125 Q74.9063,351.625 74.2188,350.5625 Q73.5313,349.4844 73.5313,348.2031 L73.5313,347.0469 Q73.5313,345.7188 74.1406,344.5781 Q74.7656,343.4219 75.8594,342.8125 Q76.9531,342.1875 78.1875,342.1875 Q78.9219,342.1875 79.5625,342.3594 Q80.2188,342.5156 80.7656,342.875 Z " fill="#000000"/><text fill="#000000" font-family="sans-serif" font-size="14" lengthAdjust="spacing" textLength="37" x="92" y="352.7285">Editor</text><line style="stroke:#181818;stroke-width:0.5;" x1="64" x2="131" y1="363" y2="363"/><line style="stroke:#181818;stroke-width:0.5;" x1="64" x2="131" y1="371" y2="371"/></g><!--MD5=[e76a510855fdf825c81877c657b1fc23]
class Reviewer--><g id="elem_Reviewer"><rect codeLine="10" fill="#F1F1F1" height="48" id="Reviewer" rx="2.5" ry="2.5" style="stroke:#181818;stroke-width:0.5;" width="90" x="289.5" y="223"/><ellipse cx="304.5" cy="239" fill="#ADD1B2" rx="11" ry="11" style="stroke:#181818;stroke-width:1.0;"/><path d="M307.2656,234.875 Q307.4219,234.6563 307.6094,234.5469 Q307.7969,234.4375 308.0156,234.4375 Q308.3906,234.4375 308.625,234.7031 Q308.8594,234.9531 308.8594,235.5625 L308.8594,237.0156 Q308.8594,237.625 308.625,237.8906 Q308.3906,238.1563 308.0156,238.1563 Q307.6719,238.1563 307.4688,237.9531 Q307.2656,237.7656 307.1563,237.25 Q307.1094,236.8906 306.9219,236.7031 Q306.5938,236.3281 305.9844,236.1094 Q305.375,235.8906 304.75,235.8906 Q303.9844,235.8906 303.3438,236.2188 Q302.7188,236.5469 302.2188,237.2969 Q301.7344,238.0469 301.7344,239.0781 L301.7344,240.1719 Q301.7344,241.4063 302.625,242.2344 Q303.5156,243.0469 305.1094,243.0469 Q306.0469,243.0469 306.7031,242.7969 Q307.0938,242.6406 307.5156,242.2031 Q307.7813,241.9375 307.9219,241.8594 Q308.0781,241.7813 308.2813,241.7813 Q308.6094,241.7813 308.8594,242.0469 Q309.125,242.2969 309.125,242.6406 Q309.125,242.9844 308.7813,243.3906 Q308.2813,243.9688 307.4844,244.2969 Q306.4063,244.75 305.1094,244.75 Q303.5938,244.75 302.3906,244.125 Q301.4063,243.625 300.7188,242.5625 Q300.0313,241.4844 300.0313,240.2031 L300.0313,239.0469 Q300.0313,237.7188 300.6406,236.5781 Q301.2656,235.4219 302.3594,234.8125 Q303.4531,234.1875 304.6875,234.1875 Q305.4219,234.1875 306.0625,234.3594 Q306.7188,234.5156 307.2656,234.875 Z " fill="#000000"/><text fill="#000000" font-family="sans-serif" font-size="14" lengthAdjust="spacing" textLength="58" x="318.5" y="244.7285">Reviewer</text><line style="stroke:#181818;stroke-width:0.5;" x1="290.5" x2="378.5" y1="255" y2="255"/><line style="stroke:#181818;stroke-width:0.5;" x1="290.5" x2="378.5" y1="263" y2="263"/></g><!--MD5=[2cb47ba637a0d19583e6199456f6ad0b]
class Player--><g id="elem_Player"><rect codeLine="12" fill="#F1F1F1" height="48" id="Player" rx="2.5" ry="2.5" style="stroke:#181818;stroke-width:0.5;" width="72" x="111.5" y="223"/><ellipse cx="126.5" cy="239" fill="#ADD1B2" rx="11" ry="11" style="stroke:#181818;stroke-width:1.0;"/><path d="M129.2656,234.875 Q129.4219,234.6563 129.6094,234.5469 Q129.7969,234.4375 130.0156,234.4375 Q130.3906,234.4375 130.625,234.7031 Q130.8594,234.9531 130.8594,235.5625 L130.8594,237.0156 Q130.8594,237.625 130.625,237.8906 Q130.3906,238.1563 130.0156,238.1563 Q129.6719,238.1563 129.4688,237.9531 Q129.2656,237.7656 129.1563,237.25 Q129.1094,236.8906 128.9219,236.7031 Q128.5938,236.3281 127.9844,236.1094 Q127.375,235.8906 126.75,235.8906 Q125.9844,235.8906 125.3438,236.2188 Q124.7188,236.5469 124.2188,237.2969 Q123.7344,238.0469 123.7344,239.0781 L123.7344,240.1719 Q123.7344,241.4063 124.625,242.2344 Q125.5156,243.0469 127.1094,243.0469 Q128.0469,243.0469 128.7031,242.7969 Q129.0938,242.6406 129.5156,242.2031 Q129.7813,241.9375 129.9219,241.8594 Q130.0781,241.7813 130.2813,241.7813 Q130.6094,241.7813 130.8594,242.0469 Q131.125,242.2969 131.125,242.6406 Q131.125,242.9844 130.7813,243.3906 Q130.2813,243.9688 129.4844,244.2969 Q128.4063,244.75 127.1094,244.75 Q125.5938,244.75 124.3906,244.125 Q123.4063,243.625 122.7188,242.5625 Q122.0313,241.4844 122.0313,240.2031 L122.0313,239.0469 Q122.0313,237.7188 122.6406,236.5781 Q123.2656,235.4219 124.3594,234.8125 Q125.4531,234.1875 126.6875,234.1875 Q127.4219,234.1875 128.0625,234.3594 Q128.7188,234.5156 129.2656,234.875 Z " fill="#000000"/><text fill="#000000" font-family="sans-serif" font-size="14" lengthAdjust="spacing" textLength="40" x="140.5" y="244.7285">Player</text><line style="stroke:#181818;stroke-width:0.5;" x1="112.5" x2="182.5" y1="255" y2="255"/><line style="stroke:#181818;stroke-width:0.5;" x1="112.5" x2="182.5" y1="263" y2="263"/></g><!--MD5=[a96594a83e2ecdc78cbf17c2ddf01934]
class Category--><g id="elem_Category"><rect codeLine="14" fill="#F1F1F1" height="48" id="Category" rx="2.5" ry="2.5" style="stroke:#181818;stroke-width:0.5;" width="90" x="112.5" y="547"/><ellipse cx="127.5" cy="563" fill="#EB937F" rx="11" ry="11" style="stroke:#181818;stroke-width:1.0;"/><path d="M126.3594,563.7969 L126.3594,566.2969 L130.6875,566.2969 L130.6875,565.375 Q130.6875,564.7656 130.9219,564.5 Q131.1719,564.2344 131.5469,564.2344 Q131.9219,564.2344 132.1563,564.5 Q132.3906,564.7656 132.3906,565.375 L132.3906,568 L124.3906,568 Q123.7656,568 123.5,567.7656 Q123.25,567.5313 123.25,567.1406 Q123.25,566.7656 123.5156,566.5313 Q123.7813,566.2969 124.3906,566.2969 L124.6563,566.2969 L124.6563,559.6406 L124.3906,559.6406 Q123.7656,559.6406 123.5,559.4063 Q123.25,559.1719 123.25,558.7813 Q123.25,558.4063 123.5,558.1719 Q123.7656,557.9375 124.3906,557.9375 L132.0156,557.9375 L132.0156,560.5313 Q132.0156,561.1406 131.7813,561.4063 Q131.5625,561.6563 131.1719,561.6563 Q130.7969,561.6563 130.5625,561.4063 Q130.3281,561.1406 130.3281,560.5313 L130.3281,559.6406 L126.3594,559.6406 L126.3594,562.0938 L127.8438,562.0938 Q127.8438,561.4375 127.9688,561.25 Q128.2344,560.8438 128.7031,560.8438 Q129.0781,560.8438 129.3125,561.1094 Q129.5469,561.3594 129.5469,561.9688 L129.5469,563.9375 Q129.5469,564.4844 129.4219,564.6719 Q129.1563,565.0625 128.7031,565.0625 Q128.2344,565.0625 127.9688,564.6563 Q127.8438,564.4688 127.8438,563.7969 L126.3594,563.7969 Z " fill="#000000"/><text fill="#000000" font-family="sans-serif" font-size="14" lengthAdjust="spacing" textLength="58" x="141.5" y="568.7285">Category</text><line style="stroke:#181818;stroke-width:0.5;" x1="113.5" x2="201.5" y1="579" y2="579"/><line style="stroke:#181818;stroke-width:0.5;" x1="113.5" x2="201.5" y1="587" y2="587"/></g><!--MD5=[9c1df00e5aaf042f20970631c477ed7b]
class Subcategory--><g id="elem_Subcategory"><rect codeLine="16" fill="#F1F1F1" height="48" id="Subcategory" rx="2.5" ry="2.5" style="stroke:#181818;stroke-width:0.5;" width="112" x="101.5" y="655"/><ellipse cx="116.5" cy="671" fill="#EB937F" rx="11" ry="11" style="stroke:#181818;stroke-width:1.0;"/><path d="M115.3594,671.7969 L115.3594,674.2969 L119.6875,674.2969 L119.6875,673.375 Q119.6875,672.7656 119.9219,672.5 Q120.1719,672.2344 120.5469,672.2344 Q120.9219,672.2344 121.1563,672.5 Q121.3906,672.7656 121.3906,673.375 L121.3906,676 L113.3906,676 Q112.7656,676 112.5,675.7656 Q112.25,675.5313 112.25,675.1406 Q112.25,674.7656 112.5156,674.5313 Q112.7813,674.2969 113.3906,674.2969 L113.6563,674.2969 L113.6563,667.6406 L113.3906,667.6406 Q112.7656,667.6406 112.5,667.4063 Q112.25,667.1719 112.25,666.7813 Q112.25,666.4063 112.5,666.1719 Q112.7656,665.9375 113.3906,665.9375 L121.0156,665.9375 L121.0156,668.5313 Q121.0156,669.1406 120.7813,669.4063 Q120.5625,669.6563 120.1719,669.6563 Q119.7969,669.6563 119.5625,669.4063 Q119.3281,669.1406 119.3281,668.5313 L119.3281,667.6406 L115.3594,667.6406 L115.3594,670.0938 L116.8438,670.0938 Q116.8438,669.4375 116.9688,669.25 Q117.2344,668.8438 117.7031,668.8438 Q118.0781,668.8438 118.3125,669.1094 Q118.5469,669.3594 118.5469,669.9688 L118.5469,671.9375 Q118.5469,672.4844 118.4219,672.6719 Q118.1563,673.0625 117.7031,673.0625 Q117.2344,673.0625 116.9688,672.6563 Q116.8438,672.4688 116.8438,671.7969 L115.3594,671.7969 Z " fill="#000000"/><text fill="#000000" font-family="sans-serif" font-size="14" lengthAdjust="spacing" textLength="80" x="130.5" y="676.7285">Subcategory</text><line style="stroke:#181818;stroke-width:0.5;" x1="102.5" x2="212.5" y1="687" y2="687"/><line style="stroke:#181818;stroke-width:0.5;" x1="102.5" x2="212.5" y1="695" y2="695"/></g><!--MD5=[df38be88ccee13e832d6fafd6288a4ca]
class Test--><g id="elem_Test"><rect codeLine="18" fill="#F1F1F1" height="48" id="Test" rx="2.5" ry="2.5" style="stroke:#181818;stroke-width:0.5;" width="60" x="186.5" y="331"/><ellipse cx="201.5" cy="347" fill="#ADD1B2" rx="11" ry="11" style="stroke:#181818;stroke-width:1.0;"/><path d="M204.2656,342.875 Q204.4219,342.6563 204.6094,342.5469 Q204.7969,342.4375 205.0156,342.4375 Q205.3906,342.4375 205.625,342.7031 Q205.8594,342.9531 205.8594,343.5625 L205.8594,345.0156 Q205.8594,345.625 205.625,345.8906 Q205.3906,346.1563 205.0156,346.1563 Q204.6719,346.1563 204.4688,345.9531 Q204.2656,345.7656 204.1563,345.25 Q204.1094,344.8906 203.9219,344.7031 Q203.5938,344.3281 202.9844,344.1094 Q202.375,343.8906 201.75,343.8906 Q200.9844,343.8906 200.3438,344.2188 Q199.7188,344.5469 199.2188,345.2969 Q198.7344,346.0469 198.7344,347.0781 L198.7344,348.1719 Q198.7344,349.4063 199.625,350.2344 Q200.5156,351.0469 202.1094,351.0469 Q203.0469,351.0469 203.7031,350.7969 Q204.0938,350.6406 204.5156,350.2031 Q204.7813,349.9375 204.9219,349.8594 Q205.0781,349.7813 205.2813,349.7813 Q205.6094,349.7813 205.8594,350.0469 Q206.125,350.2969 206.125,350.6406 Q206.125,350.9844 205.7813,351.3906 Q205.2813,351.9688 204.4844,352.2969 Q203.4063,352.75 202.1094,352.75 Q200.5938,352.75 199.3906,352.125 Q198.4063,351.625 197.7188,350.5625 Q197.0313,349.4844 197.0313,348.2031 L197.0313,347.0469 Q197.0313,345.7188 197.6406,344.5781 Q198.2656,343.4219 199.3594,342.8125 Q200.4531,342.1875 201.6875,342.1875 Q202.4219,342.1875 203.0625,342.3594 Q203.7188,342.5156 204.2656,342.875 Z " fill="#000000"/><text fill="#000000" font-family="sans-serif" font-size="14" lengthAdjust="spacing" textLength="28" x="215.5" y="352.7285">Test</text><line style="stroke:#181818;stroke-width:0.5;" x1="187.5" x2="245.5" y1="363" y2="363"/><line style="stroke:#181818;stroke-width:0.5;" x1="187.5" x2="245.5" y1="371" y2="371"/></g><!--MD5=[fc7123defb831ecdd44b2d9bcef6cceb]
class Question--><g id="elem_Question"><rect codeLine="20" fill="#F1F1F1" height="48" id="Question" rx="2.5" ry="2.5" style="stroke:#181818;stroke-width:0.5;" width="89" x="172" y="439"/><ellipse cx="187" cy="455" fill="#ADD1B2" rx="11" ry="11" style="stroke:#181818;stroke-width:1.0;"/><path d="M189.7656,450.875 Q189.9219,450.6563 190.1094,450.5469 Q190.2969,450.4375 190.5156,450.4375 Q190.8906,450.4375 191.125,450.7031 Q191.3594,450.9531 191.3594,451.5625 L191.3594,453.0156 Q191.3594,453.625 191.125,453.8906 Q190.8906,454.1563 190.5156,454.1563 Q190.1719,454.1563 189.9688,453.9531 Q189.7656,453.7656 189.6563,453.25 Q189.6094,452.8906 189.4219,452.7031 Q189.0938,452.3281 188.4844,452.1094 Q187.875,451.8906 187.25,451.8906 Q186.4844,451.8906 185.8438,452.2188 Q185.2188,452.5469 184.7188,453.2969 Q184.2344,454.0469 184.2344,455.0781 L184.2344,456.1719 Q184.2344,457.4063 185.125,458.2344 Q186.0156,459.0469 187.6094,459.0469 Q188.5469,459.0469 189.2031,458.7969 Q189.5938,458.6406 190.0156,458.2031 Q190.2813,457.9375 190.4219,457.8594 Q190.5781,457.7813 190.7813,457.7813 Q191.1094,457.7813 191.3594,458.0469 Q191.625,458.2969 191.625,458.6406 Q191.625,458.9844 191.2813,459.3906 Q190.7813,459.9688 189.9844,460.2969 Q188.9063,460.75 187.6094,460.75 Q186.0938,460.75 184.8906,460.125 Q183.9063,459.625 183.2188,458.5625 Q182.5313,457.4844 182.5313,456.2031 L182.5313,455.0469 Q182.5313,453.7188 183.1406,452.5781 Q183.7656,451.4219 184.8594,450.8125 Q185.9531,450.1875 187.1875,450.1875 Q187.9219,450.1875 188.5625,450.3594 Q189.2188,450.5156 189.7656,450.875 Z " fill="#000000"/><text fill="#000000" font-family="sans-serif" font-size="14" lengthAdjust="spacing" textLength="57" x="201" y="460.7285">Question</text><line style="stroke:#181818;stroke-width:0.5;" x1="173" x2="260" y1="471" y2="471"/><line style="stroke:#181818;stroke-width:0.5;" x1="173" x2="260" y1="479" y2="479"/></g><g id="elem_GMN17"><path d="M58,450 L58,476.3516 A0,0 0 0 0 58,476.3516 L137,476.3516 A0,0 0 0 0 137,476.3516 L137,468 L171.79,463 L137,460 L137,460 L127,450 L58,450 A0,0 0 0 0 58,450 " fill="#FEFFDD" style="stroke:#181818;stroke-width:0.5;"/><path d="M127,450 L127,460 L137,460 L127,450 " fill="#FEFFDD" style="stroke:#181818;stroke-width:0.5;"/><text fill="#000000" font-family="sans-serif" font-size="13" lengthAdjust="spacing" textLength="58" x="64" y="468.4951">statement</text></g><g id="elem_GMN20"><path d="M296,450 L296,459 L261.02,463 L296,467 L296,476.3516 A0,0 0 0 0 296,476.3516 L399,476.3516 A0,0 0 0 0 399,476.3516 L399,460 L389,450 L296,450 A0,0 0 0 0 296,450 " fill="#FEFFDD" style="stroke:#181818;stroke-width:0.5;"/><path d="M389,450 L389,460 L399,460 L389,450 " fill="#FEFFDD" style="stroke:#181818;stroke-width:0.5;"/><text fill="#000000" font-family="sans-serif" font-size="13" lengthAdjust="spacing" textLength="82" x="302" y="468.4951">date, reviewed</text></g><!--MD5=[f9fadfa5a66b7e5a67b370cd443ffe52]
class Answer--><g id="elem_Answer"><rect codeLine="24" fill="#F1F1F1" height="48" id="Answer" rx="2.5" ry="2.5" style="stroke:#181818;stroke-width:0.5;" width="78" x="237.5" y="547"/><ellipse cx="252.5" cy="563" fill="#ADD1B2" rx="11" ry="11" style="stroke:#181818;stroke-width:1.0;"/><path d="M255.2656,558.875 Q255.4219,558.6563 255.6094,558.5469 Q255.7969,558.4375 256.0156,558.4375 Q256.3906,558.4375 256.625,558.7031 Q256.8594,558.9531 256.8594,559.5625 L256.8594,561.0156 Q256.8594,561.625 256.625,561.8906 Q256.3906,562.1563 256.0156,562.1563 Q255.6719,562.1563 255.4688,561.9531 Q255.2656,561.7656 255.1563,561.25 Q255.1094,560.8906 254.9219,560.7031 Q254.5938,560.3281 253.9844,560.1094 Q253.375,559.8906 252.75,559.8906 Q251.9844,559.8906 251.3438,560.2188 Q250.7188,560.5469 250.2188,561.2969 Q249.7344,562.0469 249.7344,563.0781 L249.7344,564.1719 Q249.7344,565.4063 250.625,566.2344 Q251.5156,567.0469 253.1094,567.0469 Q254.0469,567.0469 254.7031,566.7969 Q255.0938,566.6406 255.5156,566.2031 Q255.7813,565.9375 255.9219,565.8594 Q256.0781,565.7813 256.2813,565.7813 Q256.6094,565.7813 256.8594,566.0469 Q257.125,566.2969 257.125,566.6406 Q257.125,566.9844 256.7813,567.3906 Q256.2813,567.9688 255.4844,568.2969 Q254.4063,568.75 253.1094,568.75 Q251.5938,568.75 250.3906,568.125 Q249.4063,567.625 248.7188,566.5625 Q248.0313,565.4844 248.0313,564.2031 L248.0313,563.0469 Q248.0313,561.7188 248.6406,560.5781 Q249.2656,559.4219 250.3594,558.8125 Q251.4531,558.1875 252.6875,558.1875 Q253.4219,558.1875 254.0625,558.3594 Q254.7188,558.5156 255.2656,558.875 Z " fill="#000000"/><text fill="#000000" font-family="sans-serif" font-size="14" lengthAdjust="spacing" textLength="46" x="266.5" y="568.7285">Answer</text><line style="stroke:#181818;stroke-width:0.5;" x1="238.5" x2="314.5" y1="579" y2="579"/><line style="stroke:#181818;stroke-width:0.5;" x1="238.5" x2="314.5" y1="587" y2="587"/></g><!--MD5=[8235d596e40eaa310e25cb7e3d92ec72]
reverse link Community to User--><g id="link_Community_User"><path codeLine="26" d="M266.47,67.4 C259.86,82.97 252.28,100.82 246.4,114.68 " fill="none" id="Community-backto-User" style="stroke:#181818;stroke-width:1.0;"/><polygon fill="#181818" points="271.74,55,265.7147,58.9618,267.0544,66.0474,273.0797,62.0856,271.74,55" style="stroke:#181818;stroke-width:1.0;"/><text fill="#000000" font-family="sans-serif" font-size="13" lengthAdjust="spacing" textLength="20" x="226.3756" y="104.34">1..*</text></g><!--MD5=[7016372388c7ac2652db8515880aaa11]
reverse link User to Editor--><g id="link_User_Editor"><path codeLine="28" d="M187.92,165.1 C148.63,185.89 98.96,213.52 93.5,223 C74.2,256.52 82.3,303.29 89.91,330.93 " fill="none" id="User-backto-Editor" style="stroke:#181818;stroke-width:1.0;"/><polygon fill="none" points="184.9,158.78,205.86,155.69,191.4,171.18,184.9,158.78" style="stroke:#181818;stroke-width:1.0;"/></g><!--MD5=[4902e3a4a9d2276f7686a6b1652e1669]
reverse link User to Reviewer--><g id="link_User_Reviewer"><path codeLine="29" d="M271.4,177.75 C285.26,192.74 300.77,209.51 312.94,222.68 " fill="none" id="User-backto-Reviewer" style="stroke:#181818;stroke-width:1.0;"/><polygon fill="none" points="266.2,182.44,257.76,163,276.48,172.93,266.2,182.44" style="stroke:#181818;stroke-width:1.0;"/></g><!--MD5=[702f68b2ad22fef5191ac7472ca929ab]
reverse link User to Player--><g id="link_User_Player"><path codeLine="30" d="M204,178.7 C191.62,193.45 177.9,209.79 167.08,222.68 " fill="none" id="User-backto-Player" style="stroke:#181818;stroke-width:1.0;"/><polygon fill="none" points="198.97,173.82,217.19,163,209.69,182.82,198.97,173.82" style="stroke:#181818;stroke-width:1.0;"/></g><!--MD5=[85d1918dc023e693545104f3b89c7c67]
reverse link User to Test--><g id="link_User_Test"><path codeLine="32" d="M233.11,176.26 C228.99,220.36 222.15,293.51 218.68,330.72 " fill="none" id="User-backto-Test" style="stroke:#181818;stroke-width:1.0;"/><polygon fill="none" points="234.32,163.31,229.777,168.9101,233.1991,175.2575,237.7421,169.6574,234.32,163.31" style="stroke:#181818;stroke-width:1.0;"/></g><!--MD5=[a4471ebd030acd5c90145d584608083d]
link Editor to Question--><g id="link_Editor_Question"><path codeLine="34" d="M123.32,379 C141.91,395.55 167.03,417.93 186.5,435.28 " fill="none" id="Editor-to-Question" style="stroke:#181818;stroke-width:1.0;stroke-dasharray:7.0,7.0;"/><polygon fill="#181818" points="190.32,438.68,186.2699,429.7024,186.5901,435.3502,180.9423,435.6703,190.32,438.68" style="stroke:#181818;stroke-width:1.0;"/></g><!--MD5=[d39da0cf500bcf54df258eb1e27cb059]
link Reviewer to Question--><g id="link_Reviewer_Question"><path codeLine="35" d="M322.34,271.32 C308.56,297.61 285.3,341.59 264.5,379 C254.15,397.62 242.15,418.36 232.74,434.45 " fill="none" id="Reviewer-to-Question" style="stroke:#181818;stroke-width:1.0;stroke-dasharray:7.0,7.0;"/><polygon fill="#181818" points="230.16,438.86,238.1618,433.1179,232.6882,434.5463,231.2599,429.0727,230.16,438.86" style="stroke:#181818;stroke-width:1.0;"/></g><!--MD5=[f8b7be959b5369202f5d9eb6511fa252]
link Reviewer to Community--><g id="link_Reviewer_Community"><path codeLine="36" d="M328.73,222.72 C318.94,183.18 299.1,103.06 288.52,60.33 " fill="none" id="Reviewer-to-Community" style="stroke:#181818;stroke-width:1.0;stroke-dasharray:7.0,7.0;"/><polygon fill="#181818" points="287.27,55.31,285.552,65.0079,288.4726,60.1632,293.3172,63.0838,287.27,55.31" style="stroke:#181818;stroke-width:1.0;"/></g><!--MD5=[843cf27b18bcdc9f067edfdb921d7599]
link Player to Test--><g id="link_Player_Test"><path codeLine="37" d="M162.47,271 C173.07,287.28 187.33,309.19 198.54,326.41 " fill="none" id="Player-to-Test" style="stroke:#181818;stroke-width:1.0;stroke-dasharray:7.0,7.0;"/><polygon fill="#181818" points="201.32,330.68,199.7712,320.9537,198.5961,326.4871,193.0626,325.312,201.32,330.68" style="stroke:#181818;stroke-width:1.0;"/></g><!--MD5=[bb3d97f09542411db1527b071cca8268]
link Test to Question--><g id="link_Test_Question"><path codeLine="39" d="M216.5,391 C216.5,391 216.5,414.68 216.5,425.36 " fill="none" id="Test-Question" style="stroke:#181818;stroke-width:1.0;"/><polygon fill="#181818" points="216.5,438.68,220.5,429.68,216.5,433.68,212.5,429.68,216.5,438.68" style="stroke:#181818;stroke-width:1.0;"/><line style="stroke:#181818;stroke-width:1.0;" x1="216.5" x2="216.5" y1="433.68" y2="425.68"/><polygon fill="#181818" points="216.5,379,212.5,385,216.5,391,220.5,385,216.5,379" style="stroke:#181818;stroke-width:1.0;"/><text fill="#000000" font-family="sans-serif" font-size="13" lengthAdjust="spacing" textLength="20" x="194.0625" y="428.34">1..*</text></g><!--MD5=[6926d5174a3032b1dcc6c5d6f900c16b]
link Question to Answer--><g id="link_Question_Answer"><path codeLine="40" d="M235.4381,497.4391 C235.4381,497.4391 250.05,523.28 256.71,535.03 " fill="none" id="Question-Answer" style="stroke:#181818;stroke-width:1.0;"/><polygon fill="#181818" points="263.3,546.68,262.3358,536.8785,260.8317,542.3317,255.3785,540.8277,263.3,546.68" style="stroke:#181818;stroke-width:1.0;"/><line style="stroke:#181818;stroke-width:1.0;" x1="260.8317" x2="256.895" y1="542.3317" y2="535.365"/><polygon fill="#181818" points="229.52,487,228.9994,494.1923,235.4381,497.4391,235.9588,490.2469,229.52,487" style="stroke:#181818;stroke-width:1.0;"/><text fill="#000000" font-family="sans-serif" font-size="13" lengthAdjust="spacing" textLength="20" x="237.645" y="536.34">1..*</text></g><!--MD5=[98df2f76ab45609c36aa45d6b9c3faee]
link Question to Category--><g id="link_Question_Category"><path codeLine="42" d="M197.8689,497.488 C197.8689,497.488 183.5,523.28 176.96,535.03 " fill="none" id="Question-Category" style="stroke:#181818;stroke-width:1.0;"/><polygon fill="#181818" points="170.48,546.68,178.3493,540.7577,172.9096,542.31,171.3573,536.8703,170.48,546.68" style="stroke:#181818;stroke-width:1.0;"/><line style="stroke:#181818;stroke-width:1.0;" x1="172.9096" x2="176.805" y1="542.31" y2="535.32"/><polygon fill="#181818" points="203.7,487,197.2885,490.3003,197.8689,497.488,204.2805,494.1877,203.7,487" style="stroke:#181818;stroke-width:1.0;"/></g><!--MD5=[74baf885d61ec4386e3ee7603dbfa36d]
link Category to Subcategory--><g id="link_Category_Subcategory"><path codeLine="43" d="M157.5,607 C157.5,607 157.5,630.68 157.5,641.36 " fill="none" id="Category-Subcategory" style="stroke:#181818;stroke-width:1.0;"/><polygon fill="#181818" points="157.5,654.68,161.5,645.68,157.5,649.68,153.5,645.68,157.5,654.68" style="stroke:#181818;stroke-width:1.0;"/><line style="stroke:#181818;stroke-width:1.0;" x1="157.5" x2="157.5" y1="649.68" y2="641.68"/><polygon fill="#181818" points="157.5,595,153.5,601,157.5,607,161.5,601,157.5,595" style="stroke:#181818;stroke-width:1.0;"/><text fill="#000000" font-family="sans-serif" font-size="13" lengthAdjust="spacing" textLength="20" x="135.0625" y="644.34">0..*</text></g><!--MD5=[21effca5baa11782d3f57410f3330518]
@startuml OpoTestDomain

class Community
note left: reviewedQuestions availables

class User
note left: myTests

class Editor 

class Reviewer 

class Player 

enum Category 

enum Subcategory 

class Test 

class Question 
note left :statement
note right of Question: date, reviewed

class Answer 

Community *- - "1..*" User

User <|- - Editor
User <|- -  Reviewer
User <|- - Player

User o- - Test

Editor ..> Question
Reviewer ..> Question
Reviewer ..> Community
Player ..> Test

Test *- -> "1..*" Question
Question *- -> "1..*" Answer

Question *- -> Category
Category *- ->"0..*" Subcategory






@end

PlantUML version 1.2022.7(Mon Aug 22 18:01:30 WEST 2022)
(GPL source distribution)
Java Runtime: OpenJDK Runtime Environment
JVM: OpenJDK 64-Bit Server VM
Default Encoding: Cp1252
Language: es
Country: ES
--></g></svg>