<?xml version="1.0" encoding="UTF-8" standalone="no"?><svg xmlns="http://www.w3.org/2000/svg" xmlns:xlink="http://www.w3.org/1999/xlink" contentStyleType="text/css" height="1068px" preserveAspectRatio="none" style="width:454px;height:1068px;background:#FFFFFF;" version="1.1" viewBox="0 0 454 1068" width="454px" zoomAndPan="magnify"><defs/><g><!--MD5=[668d633d11bedc8952753581a2dda3db]
class Community--><g id="elem_Community"><rect codeLine="2" fill="#F1F1F1" height="48" id="Community" rx="2.5" ry="2.5" style="stroke:#181818;stroke-width:0.5;" width="102" x="253" y="7"/><ellipse cx="268" cy="23" fill="#ADD1B2" rx="11" ry="11" style="stroke:#181818;stroke-width:1.0;"/><path d="M270.7656,18.875 Q270.9219,18.6563 271.1094,18.5469 Q271.2969,18.4375 271.5156,18.4375 Q271.8906,18.4375 272.125,18.7031 Q272.3594,18.9531 272.3594,19.5625 L272.3594,21.0156 Q272.3594,21.625 272.125,21.8906 Q271.8906,22.1563 271.5156,22.1563 Q271.1719,22.1563 270.9688,21.9531 Q270.7656,21.7656 270.6563,21.25 Q270.6094,20.8906 270.4219,20.7031 Q270.0938,20.3281 269.4844,20.1094 Q268.875,19.8906 268.25,19.8906 Q267.4844,19.8906 266.8438,20.2188 Q266.2188,20.5469 265.7188,21.2969 Q265.2344,22.0469 265.2344,23.0781 L265.2344,24.1719 Q265.2344,25.4063 266.125,26.2344 Q267.0156,27.0469 268.6094,27.0469 Q269.5469,27.0469 270.2031,26.7969 Q270.5938,26.6406 271.0156,26.2031 Q271.2813,25.9375 271.4219,25.8594 Q271.5781,25.7813 271.7813,25.7813 Q272.1094,25.7813 272.3594,26.0469 Q272.625,26.2969 272.625,26.6406 Q272.625,26.9844 272.2813,27.3906 Q271.7813,27.9688 270.9844,28.2969 Q269.9063,28.75 268.6094,28.75 Q267.0938,28.75 265.8906,28.125 Q264.9063,27.625 264.2188,26.5625 Q263.5313,25.4844 263.5313,24.2031 L263.5313,23.0469 Q263.5313,21.7188 264.1406,20.5781 Q264.7656,19.4219 265.8594,18.8125 Q266.9531,18.1875 268.1875,18.1875 Q268.9219,18.1875 269.5625,18.3594 Q270.2188,18.5156 270.7656,18.875 Z " fill="#000000"/><text fill="#000000" font-family="sans-serif" font-size="14" lengthAdjust="spacing" textLength="70" x="282" y="28.7285">Community</text><line style="stroke:#181818;stroke-width:0.5;" x1="254" x2="354" y1="39" y2="39"/><line style="stroke:#181818;stroke-width:0.5;" x1="254" x2="354" y1="47" y2="47"/></g><!--MD5=[3fd616f346a44cd59a91eb10b19e157c]
class User--><g id="elem_User"><rect codeLine="4" fill="#F1F1F1" height="48" id="User" rx="2.5" ry="2.5" style="stroke:#181818;stroke-width:0.5;" width="61" x="222.5" y="116"/><ellipse cx="237.5" cy="132" fill="#ADD1B2" rx="11" ry="11" style="stroke:#181818;stroke-width:1.0;"/><path d="M240.2656,127.875 Q240.4219,127.6563 240.6094,127.5469 Q240.7969,127.4375 241.0156,127.4375 Q241.3906,127.4375 241.625,127.7031 Q241.8594,127.9531 241.8594,128.5625 L241.8594,130.0156 Q241.8594,130.625 241.625,130.8906 Q241.3906,131.1563 241.0156,131.1563 Q240.6719,131.1563 240.4688,130.9531 Q240.2656,130.7656 240.1563,130.25 Q240.1094,129.8906 239.9219,129.7031 Q239.5938,129.3281 238.9844,129.1094 Q238.375,128.8906 237.75,128.8906 Q236.9844,128.8906 236.3438,129.2188 Q235.7188,129.5469 235.2188,130.2969 Q234.7344,131.0469 234.7344,132.0781 L234.7344,133.1719 Q234.7344,134.4063 235.625,135.2344 Q236.5156,136.0469 238.1094,136.0469 Q239.0469,136.0469 239.7031,135.7969 Q240.0938,135.6406 240.5156,135.2031 Q240.7813,134.9375 240.9219,134.8594 Q241.0781,134.7813 241.2813,134.7813 Q241.6094,134.7813 241.8594,135.0469 Q242.125,135.2969 242.125,135.6406 Q242.125,135.9844 241.7813,136.3906 Q241.2813,136.9688 240.4844,137.2969 Q239.4063,137.75 238.1094,137.75 Q236.5938,137.75 235.3906,137.125 Q234.4063,136.625 233.7188,135.5625 Q233.0313,134.4844 233.0313,133.2031 L233.0313,132.0469 Q233.0313,130.7188 233.6406,129.5781 Q234.2656,128.4219 235.3594,127.8125 Q236.4531,127.1875 237.6875,127.1875 Q238.4219,127.1875 239.0625,127.3594 Q239.7188,127.5156 240.2656,127.875 Z " fill="#000000"/><text fill="#000000" font-family="sans-serif" font-size="14" lengthAdjust="spacing" textLength="29" x="251.5" y="137.7285">User</text><line style="stroke:#181818;stroke-width:0.5;" x1="223.5" x2="282.5" y1="148" y2="148"/><line style="stroke:#181818;stroke-width:0.5;" x1="223.5" x2="282.5" y1="156" y2="156"/></g><!--MD5=[e76a510855fdf825c81877c657b1fc23]
class Reviewer--><g id="elem_Reviewer"><rect codeLine="6" fill="#F1F1F1" height="48" id="Reviewer" rx="2.5" ry="2.5" style="stroke:#181818;stroke-width:0.5;" width="90" x="251" y="381"/><ellipse cx="266" cy="397" fill="#ADD1B2" rx="11" ry="11" style="stroke:#181818;stroke-width:1.0;"/><path d="M268.7656,392.875 Q268.9219,392.6563 269.1094,392.5469 Q269.2969,392.4375 269.5156,392.4375 Q269.8906,392.4375 270.125,392.7031 Q270.3594,392.9531 270.3594,393.5625 L270.3594,395.0156 Q270.3594,395.625 270.125,395.8906 Q269.8906,396.1563 269.5156,396.1563 Q269.1719,396.1563 268.9688,395.9531 Q268.7656,395.7656 268.6563,395.25 Q268.6094,394.8906 268.4219,394.7031 Q268.0938,394.3281 267.4844,394.1094 Q266.875,393.8906 266.25,393.8906 Q265.4844,393.8906 264.8438,394.2188 Q264.2188,394.5469 263.7188,395.2969 Q263.2344,396.0469 263.2344,397.0781 L263.2344,398.1719 Q263.2344,399.4063 264.125,400.2344 Q265.0156,401.0469 266.6094,401.0469 Q267.5469,401.0469 268.2031,400.7969 Q268.5938,400.6406 269.0156,400.2031 Q269.2813,399.9375 269.4219,399.8594 Q269.5781,399.7813 269.7813,399.7813 Q270.1094,399.7813 270.3594,400.0469 Q270.625,400.2969 270.625,400.6406 Q270.625,400.9844 270.2813,401.3906 Q269.7813,401.9688 268.9844,402.2969 Q267.9063,402.75 266.6094,402.75 Q265.0938,402.75 263.8906,402.125 Q262.9063,401.625 262.2188,400.5625 Q261.5313,399.4844 261.5313,398.2031 L261.5313,397.0469 Q261.5313,395.7188 262.1406,394.5781 Q262.7656,393.4219 263.8594,392.8125 Q264.9531,392.1875 266.1875,392.1875 Q266.9219,392.1875 267.5625,392.3594 Q268.2188,392.5156 268.7656,392.875 Z " fill="#000000"/><text fill="#000000" font-family="sans-serif" font-size="14" lengthAdjust="spacing" textLength="58" x="280" y="402.7285">Reviewer</text><line style="stroke:#181818;stroke-width:0.5;" x1="252" x2="340" y1="413" y2="413"/><line style="stroke:#181818;stroke-width:0.5;" x1="252" x2="340" y1="421" y2="421"/></g><!--MD5=[559db66c208d2736f857be4b8ed380a2]
class Editor--><g id="elem_Editor"><rect codeLine="8" fill="#F1F1F1" height="48" id="Editor" rx="2.5" ry="2.5" style="stroke:#181818;stroke-width:0.5;" width="69" x="218.5" y="272"/><ellipse cx="233.5" cy="288" fill="#ADD1B2" rx="11" ry="11" style="stroke:#181818;stroke-width:1.0;"/><path d="M236.2656,283.875 Q236.4219,283.6563 236.6094,283.5469 Q236.7969,283.4375 237.0156,283.4375 Q237.3906,283.4375 237.625,283.7031 Q237.8594,283.9531 237.8594,284.5625 L237.8594,286.0156 Q237.8594,286.625 237.625,286.8906 Q237.3906,287.1563 237.0156,287.1563 Q236.6719,287.1563 236.4688,286.9531 Q236.2656,286.7656 236.1563,286.25 Q236.1094,285.8906 235.9219,285.7031 Q235.5938,285.3281 234.9844,285.1094 Q234.375,284.8906 233.75,284.8906 Q232.9844,284.8906 232.3438,285.2188 Q231.7188,285.5469 231.2188,286.2969 Q230.7344,287.0469 230.7344,288.0781 L230.7344,289.1719 Q230.7344,290.4063 231.625,291.2344 Q232.5156,292.0469 234.1094,292.0469 Q235.0469,292.0469 235.7031,291.7969 Q236.0938,291.6406 236.5156,291.2031 Q236.7813,290.9375 236.9219,290.8594 Q237.0781,290.7813 237.2813,290.7813 Q237.6094,290.7813 237.8594,291.0469 Q238.125,291.2969 238.125,291.6406 Q238.125,291.9844 237.7813,292.3906 Q237.2813,292.9688 236.4844,293.2969 Q235.4063,293.75 234.1094,293.75 Q232.5938,293.75 231.3906,293.125 Q230.4063,292.625 229.7188,291.5625 Q229.0313,290.4844 229.0313,289.2031 L229.0313,288.0469 Q229.0313,286.7188 229.6406,285.5781 Q230.2656,284.4219 231.3594,283.8125 Q232.4531,283.1875 233.6875,283.1875 Q234.4219,283.1875 235.0625,283.3594 Q235.7188,283.5156 236.2656,283.875 Z " fill="#000000"/><text fill="#000000" font-family="sans-serif" font-size="14" lengthAdjust="spacing" textLength="37" x="247.5" y="293.7285">Editor</text><line style="stroke:#181818;stroke-width:0.5;" x1="219.5" x2="286.5" y1="304" y2="304"/><line style="stroke:#181818;stroke-width:0.5;" x1="219.5" x2="286.5" y1="312" y2="312"/></g><!--MD5=[a0a1f7f9662f43ef0ece806266f72a6f]
class Executor--><g id="elem_Executor"><rect codeLine="10" fill="#F1F1F1" height="48" id="Executor" rx="2.5" ry="2.5" style="stroke:#181818;stroke-width:0.5;" width="87" x="85.5" y="272"/><ellipse cx="100.5" cy="288" fill="#ADD1B2" rx="11" ry="11" style="stroke:#181818;stroke-width:1.0;"/><path d="M103.2656,283.875 Q103.4219,283.6563 103.6094,283.5469 Q103.7969,283.4375 104.0156,283.4375 Q104.3906,283.4375 104.625,283.7031 Q104.8594,283.9531 104.8594,284.5625 L104.8594,286.0156 Q104.8594,286.625 104.625,286.8906 Q104.3906,287.1563 104.0156,287.1563 Q103.6719,287.1563 103.4688,286.9531 Q103.2656,286.7656 103.1563,286.25 Q103.1094,285.8906 102.9219,285.7031 Q102.5938,285.3281 101.9844,285.1094 Q101.375,284.8906 100.75,284.8906 Q99.9844,284.8906 99.3438,285.2188 Q98.7188,285.5469 98.2188,286.2969 Q97.7344,287.0469 97.7344,288.0781 L97.7344,289.1719 Q97.7344,290.4063 98.625,291.2344 Q99.5156,292.0469 101.1094,292.0469 Q102.0469,292.0469 102.7031,291.7969 Q103.0938,291.6406 103.5156,291.2031 Q103.7813,290.9375 103.9219,290.8594 Q104.0781,290.7813 104.2813,290.7813 Q104.6094,290.7813 104.8594,291.0469 Q105.125,291.2969 105.125,291.6406 Q105.125,291.9844 104.7813,292.3906 Q104.2813,292.9688 103.4844,293.2969 Q102.4063,293.75 101.1094,293.75 Q99.5938,293.75 98.3906,293.125 Q97.4063,292.625 96.7188,291.5625 Q96.0313,290.4844 96.0313,289.2031 L96.0313,288.0469 Q96.0313,286.7188 96.6406,285.5781 Q97.2656,284.4219 98.3594,283.8125 Q99.4531,283.1875 100.6875,283.1875 Q101.4219,283.1875 102.0625,283.3594 Q102.7188,283.5156 103.2656,283.875 Z " fill="#000000"/><text fill="#000000" font-family="sans-serif" font-size="14" lengthAdjust="spacing" textLength="55" x="114.5" y="293.7285">Executor</text><line style="stroke:#181818;stroke-width:0.5;" x1="86.5" x2="171.5" y1="304" y2="304"/><line style="stroke:#181818;stroke-width:0.5;" x1="86.5" x2="171.5" y1="312" y2="312"/></g><!--MD5=[71e8807956d33805e77353b9d7e2df39]
class Evaluation--><g id="elem_Evaluation"><rect codeLine="12" fill="#F1F1F1" height="48" id="Evaluation" rx="2.5" ry="2.5" style="stroke:#181818;stroke-width:0.5;" width="98" x="47" y="381"/><ellipse cx="62" cy="397" fill="#ADD1B2" rx="11" ry="11" style="stroke:#181818;stroke-width:1.0;"/><path d="M64.7656,392.875 Q64.9219,392.6563 65.1094,392.5469 Q65.2969,392.4375 65.5156,392.4375 Q65.8906,392.4375 66.125,392.7031 Q66.3594,392.9531 66.3594,393.5625 L66.3594,395.0156 Q66.3594,395.625 66.125,395.8906 Q65.8906,396.1563 65.5156,396.1563 Q65.1719,396.1563 64.9688,395.9531 Q64.7656,395.7656 64.6563,395.25 Q64.6094,394.8906 64.4219,394.7031 Q64.0938,394.3281 63.4844,394.1094 Q62.875,393.8906 62.25,393.8906 Q61.4844,393.8906 60.8438,394.2188 Q60.2188,394.5469 59.7188,395.2969 Q59.2344,396.0469 59.2344,397.0781 L59.2344,398.1719 Q59.2344,399.4063 60.125,400.2344 Q61.0156,401.0469 62.6094,401.0469 Q63.5469,401.0469 64.2031,400.7969 Q64.5938,400.6406 65.0156,400.2031 Q65.2813,399.9375 65.4219,399.8594 Q65.5781,399.7813 65.7813,399.7813 Q66.1094,399.7813 66.3594,400.0469 Q66.625,400.2969 66.625,400.6406 Q66.625,400.9844 66.2813,401.3906 Q65.7813,401.9688 64.9844,402.2969 Q63.9063,402.75 62.6094,402.75 Q61.0938,402.75 59.8906,402.125 Q58.9063,401.625 58.2188,400.5625 Q57.5313,399.4844 57.5313,398.2031 L57.5313,397.0469 Q57.5313,395.7188 58.1406,394.5781 Q58.7656,393.4219 59.8594,392.8125 Q60.9531,392.1875 62.1875,392.1875 Q62.9219,392.1875 63.5625,392.3594 Q64.2188,392.5156 64.7656,392.875 Z " fill="#000000"/><text fill="#000000" font-family="sans-serif" font-size="14" lengthAdjust="spacing" textLength="66" x="76" y="402.7285">Evaluation</text><line style="stroke:#181818;stroke-width:0.5;" x1="48" x2="144" y1="413" y2="413"/><line style="stroke:#181818;stroke-width:0.5;" x1="48" x2="144" y1="421" y2="421"/></g><!--MD5=[a96594a83e2ecdc78cbf17c2ddf01934]
class Category--><g id="elem_Category"><rect codeLine="14" fill="#F1F1F1" height="48" id="Category" rx="2.5" ry="2.5" style="stroke:#181818;stroke-width:0.5;" width="90" x="7" y="795"/><ellipse cx="22" cy="811" fill="#ADD1B2" rx="11" ry="11" style="stroke:#181818;stroke-width:1.0;"/><path d="M24.7656,806.875 Q24.9219,806.6563 25.1094,806.5469 Q25.2969,806.4375 25.5156,806.4375 Q25.8906,806.4375 26.125,806.7031 Q26.3594,806.9531 26.3594,807.5625 L26.3594,809.0156 Q26.3594,809.625 26.125,809.8906 Q25.8906,810.1563 25.5156,810.1563 Q25.1719,810.1563 24.9688,809.9531 Q24.7656,809.7656 24.6563,809.25 Q24.6094,808.8906 24.4219,808.7031 Q24.0938,808.3281 23.4844,808.1094 Q22.875,807.8906 22.25,807.8906 Q21.4844,807.8906 20.8438,808.2188 Q20.2188,808.5469 19.7188,809.2969 Q19.2344,810.0469 19.2344,811.0781 L19.2344,812.1719 Q19.2344,813.4063 20.125,814.2344 Q21.0156,815.0469 22.6094,815.0469 Q23.5469,815.0469 24.2031,814.7969 Q24.5938,814.6406 25.0156,814.2031 Q25.2813,813.9375 25.4219,813.8594 Q25.5781,813.7813 25.7813,813.7813 Q26.1094,813.7813 26.3594,814.0469 Q26.625,814.2969 26.625,814.6406 Q26.625,814.9844 26.2813,815.3906 Q25.7813,815.9688 24.9844,816.2969 Q23.9063,816.75 22.6094,816.75 Q21.0938,816.75 19.8906,816.125 Q18.9063,815.625 18.2188,814.5625 Q17.5313,813.4844 17.5313,812.2031 L17.5313,811.0469 Q17.5313,809.7188 18.1406,808.5781 Q18.7656,807.4219 19.8594,806.8125 Q20.9531,806.1875 22.1875,806.1875 Q22.9219,806.1875 23.5625,806.3594 Q24.2188,806.5156 24.7656,806.875 Z " fill="#000000"/><text fill="#000000" font-family="sans-serif" font-size="14" lengthAdjust="spacing" textLength="58" x="36" y="816.7285">Category</text><line style="stroke:#181818;stroke-width:0.5;" x1="8" x2="96" y1="827" y2="827"/><line style="stroke:#181818;stroke-width:0.5;" x1="8" x2="96" y1="835" y2="835"/></g><!--MD5=[df38be88ccee13e832d6fafd6288a4ca]
class Test--><g id="elem_Test"><rect codeLine="16" fill="#F1F1F1" height="48" id="Test" rx="2.5" ry="2.5" style="stroke:#181818;stroke-width:0.5;" width="60" x="80" y="507"/><ellipse cx="95" cy="523" fill="#ADD1B2" rx="11" ry="11" style="stroke:#181818;stroke-width:1.0;"/><path d="M97.7656,518.875 Q97.9219,518.6563 98.1094,518.5469 Q98.2969,518.4375 98.5156,518.4375 Q98.8906,518.4375 99.125,518.7031 Q99.3594,518.9531 99.3594,519.5625 L99.3594,521.0156 Q99.3594,521.625 99.125,521.8906 Q98.8906,522.1563 98.5156,522.1563 Q98.1719,522.1563 97.9688,521.9531 Q97.7656,521.7656 97.6563,521.25 Q97.6094,520.8906 97.4219,520.7031 Q97.0938,520.3281 96.4844,520.1094 Q95.875,519.8906 95.25,519.8906 Q94.4844,519.8906 93.8438,520.2188 Q93.2188,520.5469 92.7188,521.2969 Q92.2344,522.0469 92.2344,523.0781 L92.2344,524.1719 Q92.2344,525.4063 93.125,526.2344 Q94.0156,527.0469 95.6094,527.0469 Q96.5469,527.0469 97.2031,526.7969 Q97.5938,526.6406 98.0156,526.2031 Q98.2813,525.9375 98.4219,525.8594 Q98.5781,525.7813 98.7813,525.7813 Q99.1094,525.7813 99.3594,526.0469 Q99.625,526.2969 99.625,526.6406 Q99.625,526.9844 99.2813,527.3906 Q98.7813,527.9688 97.9844,528.2969 Q96.9063,528.75 95.6094,528.75 Q94.0938,528.75 92.8906,528.125 Q91.9063,527.625 91.2188,526.5625 Q90.5313,525.4844 90.5313,524.2031 L90.5313,523.0469 Q90.5313,521.7188 91.1406,520.5781 Q91.7656,519.4219 92.8594,518.8125 Q93.9531,518.1875 95.1875,518.1875 Q95.9219,518.1875 96.5625,518.3594 Q97.2188,518.5156 97.7656,518.875 Z " fill="#000000"/><text fill="#000000" font-family="sans-serif" font-size="14" lengthAdjust="spacing" textLength="28" x="109" y="528.7285">Test</text><line style="stroke:#181818;stroke-width:0.5;" x1="81" x2="139" y1="539" y2="539"/><line style="stroke:#181818;stroke-width:0.5;" x1="81" x2="139" y1="547" y2="547"/></g><!--MD5=[686fa95824735602dd15f07aadf69888]
class PendingReviewQuestions--><g id="elem_PendingReviewQuestions"><rect codeLine="18" fill="#F1F1F1" height="48" id="PendingReviewQuestions" rx="2.5" ry="2.5" style="stroke:#181818;stroke-width:0.5;" width="193" x="251.5" y="507"/><ellipse cx="266.5" cy="523" fill="#ADD1B2" rx="11" ry="11" style="stroke:#181818;stroke-width:1.0;"/><path d="M269.2656,518.875 Q269.4219,518.6563 269.6094,518.5469 Q269.7969,518.4375 270.0156,518.4375 Q270.3906,518.4375 270.625,518.7031 Q270.8594,518.9531 270.8594,519.5625 L270.8594,521.0156 Q270.8594,521.625 270.625,521.8906 Q270.3906,522.1563 270.0156,522.1563 Q269.6719,522.1563 269.4688,521.9531 Q269.2656,521.7656 269.1563,521.25 Q269.1094,520.8906 268.9219,520.7031 Q268.5938,520.3281 267.9844,520.1094 Q267.375,519.8906 266.75,519.8906 Q265.9844,519.8906 265.3438,520.2188 Q264.7188,520.5469 264.2188,521.2969 Q263.7344,522.0469 263.7344,523.0781 L263.7344,524.1719 Q263.7344,525.4063 264.625,526.2344 Q265.5156,527.0469 267.1094,527.0469 Q268.0469,527.0469 268.7031,526.7969 Q269.0938,526.6406 269.5156,526.2031 Q269.7813,525.9375 269.9219,525.8594 Q270.0781,525.7813 270.2813,525.7813 Q270.6094,525.7813 270.8594,526.0469 Q271.125,526.2969 271.125,526.6406 Q271.125,526.9844 270.7813,527.3906 Q270.2813,527.9688 269.4844,528.2969 Q268.4063,528.75 267.1094,528.75 Q265.5938,528.75 264.3906,528.125 Q263.4063,527.625 262.7188,526.5625 Q262.0313,525.4844 262.0313,524.2031 L262.0313,523.0469 Q262.0313,521.7188 262.6406,520.5781 Q263.2656,519.4219 264.3594,518.8125 Q265.4531,518.1875 266.6875,518.1875 Q267.4219,518.1875 268.0625,518.3594 Q268.7188,518.5156 269.2656,518.875 Z " fill="#000000"/><text fill="#000000" font-family="sans-serif" font-size="14" lengthAdjust="spacing" textLength="161" x="280.5" y="528.7285">PendingReviewQuestions</text><line style="stroke:#181818;stroke-width:0.5;" x1="252.5" x2="443.5" y1="539" y2="539"/><line style="stroke:#181818;stroke-width:0.5;" x1="252.5" x2="443.5" y1="547" y2="547"/></g><!--MD5=[cbddb90c6383c26762130850ded55635]
class ReviewedQuestions--><g id="elem_ReviewedQuestions"><rect codeLine="20" fill="#F1F1F1" height="48" id="ReviewedQuestions" rx="2.5" ry="2.5" style="stroke:#181818;stroke-width:0.5;" width="157" x="289.5" y="194"/><ellipse cx="304.5" cy="210" fill="#ADD1B2" rx="11" ry="11" style="stroke:#181818;stroke-width:1.0;"/><path d="M307.2656,205.875 Q307.4219,205.6563 307.6094,205.5469 Q307.7969,205.4375 308.0156,205.4375 Q308.3906,205.4375 308.625,205.7031 Q308.8594,205.9531 308.8594,206.5625 L308.8594,208.0156 Q308.8594,208.625 308.625,208.8906 Q308.3906,209.1563 308.0156,209.1563 Q307.6719,209.1563 307.4688,208.9531 Q307.2656,208.7656 307.1563,208.25 Q307.1094,207.8906 306.9219,207.7031 Q306.5938,207.3281 305.9844,207.1094 Q305.375,206.8906 304.75,206.8906 Q303.9844,206.8906 303.3438,207.2188 Q302.7188,207.5469 302.2188,208.2969 Q301.7344,209.0469 301.7344,210.0781 L301.7344,211.1719 Q301.7344,212.4063 302.625,213.2344 Q303.5156,214.0469 305.1094,214.0469 Q306.0469,214.0469 306.7031,213.7969 Q307.0938,213.6406 307.5156,213.2031 Q307.7813,212.9375 307.9219,212.8594 Q308.0781,212.7813 308.2813,212.7813 Q308.6094,212.7813 308.8594,213.0469 Q309.125,213.2969 309.125,213.6406 Q309.125,213.9844 308.7813,214.3906 Q308.2813,214.9688 307.4844,215.2969 Q306.4063,215.75 305.1094,215.75 Q303.5938,215.75 302.3906,215.125 Q301.4063,214.625 300.7188,213.5625 Q300.0313,212.4844 300.0313,211.2031 L300.0313,210.0469 Q300.0313,208.7188 300.6406,207.5781 Q301.2656,206.4219 302.3594,205.8125 Q303.4531,205.1875 304.6875,205.1875 Q305.4219,205.1875 306.0625,205.3594 Q306.7188,205.5156 307.2656,205.875 Z " fill="#000000"/><text fill="#000000" font-family="sans-serif" font-size="14" lengthAdjust="spacing" textLength="125" x="318.5" y="215.7285">ReviewedQuestions</text><line style="stroke:#181818;stroke-width:0.5;" x1="290.5" x2="445.5" y1="226" y2="226"/><line style="stroke:#181818;stroke-width:0.5;" x1="290.5" x2="445.5" y1="234" y2="234"/></g><!--MD5=[fc7123defb831ecdd44b2d9bcef6cceb]
class Question--><g id="elem_Question"><rect codeLine="22" fill="#F1F1F1" height="118.4375" id="Question" rx="2.5" ry="2.5" style="stroke:#181818;stroke-width:0.5;" width="89" x="153.5" y="616"/><ellipse cx="168.5" cy="632" fill="#ADD1B2" rx="11" ry="11" style="stroke:#181818;stroke-width:1.0;"/><path d="M171.2656,627.875 Q171.4219,627.6563 171.6094,627.5469 Q171.7969,627.4375 172.0156,627.4375 Q172.3906,627.4375 172.625,627.7031 Q172.8594,627.9531 172.8594,628.5625 L172.8594,630.0156 Q172.8594,630.625 172.625,630.8906 Q172.3906,631.1563 172.0156,631.1563 Q171.6719,631.1563 171.4688,630.9531 Q171.2656,630.7656 171.1563,630.25 Q171.1094,629.8906 170.9219,629.7031 Q170.5938,629.3281 169.9844,629.1094 Q169.375,628.8906 168.75,628.8906 Q167.9844,628.8906 167.3438,629.2188 Q166.7188,629.5469 166.2188,630.2969 Q165.7344,631.0469 165.7344,632.0781 L165.7344,633.1719 Q165.7344,634.4063 166.625,635.2344 Q167.5156,636.0469 169.1094,636.0469 Q170.0469,636.0469 170.7031,635.7969 Q171.0938,635.6406 171.5156,635.2031 Q171.7813,634.9375 171.9219,634.8594 Q172.0781,634.7813 172.2813,634.7813 Q172.6094,634.7813 172.8594,635.0469 Q173.125,635.2969 173.125,635.6406 Q173.125,635.9844 172.7813,636.3906 Q172.2813,636.9688 171.4844,637.2969 Q170.4063,637.75 169.1094,637.75 Q167.5938,637.75 166.3906,637.125 Q165.4063,636.625 164.7188,635.5625 Q164.0313,634.4844 164.0313,633.2031 L164.0313,632.0469 Q164.0313,630.7188 164.6406,629.5781 Q165.2656,628.4219 166.3594,627.8125 Q167.4531,627.1875 168.6875,627.1875 Q169.4219,627.1875 170.0625,627.3594 Q170.7188,627.5156 171.2656,627.875 Z " fill="#000000"/><text fill="#000000" font-family="sans-serif" font-size="14" lengthAdjust="spacing" textLength="57" x="182.5" y="637.7285">Question</text><line style="stroke:#181818;stroke-width:0.5;" x1="154.5" x2="241.5" y1="648" y2="648"/><text fill="#000000" font-family="sans-serif" font-size="14" lengthAdjust="spacing" textLength="28" x="159.5" y="666.5332">date</text><text fill="#000000" font-family="sans-serif" font-size="14" lengthAdjust="spacing" textLength="56" x="159.5" y="684.1426">reviewed</text><text fill="#000000" font-family="sans-serif" font-size="14" lengthAdjust="spacing" textLength="27" x="159.5" y="701.752">type</text><text fill="#000000" font-family="sans-serif" font-size="14" lengthAdjust="spacing" textLength="12" x="159.5" y="719.3613">...</text><line style="stroke:#181818;stroke-width:0.5;" x1="154.5" x2="241.5" y1="726.4375" y2="726.4375"/></g><!--MD5=[a61a298976b7d1d94498f45c2ebfa10b]
class Statement--><g id="elem_Statement"><rect codeLine="29" fill="#F1F1F1" height="48" id="Statement" rx="2.5" ry="2.5" style="stroke:#181818;stroke-width:0.5;" width="96" x="150" y="795"/><ellipse cx="165" cy="811" fill="#ADD1B2" rx="11" ry="11" style="stroke:#181818;stroke-width:1.0;"/><path d="M167.7656,806.875 Q167.9219,806.6563 168.1094,806.5469 Q168.2969,806.4375 168.5156,806.4375 Q168.8906,806.4375 169.125,806.7031 Q169.3594,806.9531 169.3594,807.5625 L169.3594,809.0156 Q169.3594,809.625 169.125,809.8906 Q168.8906,810.1563 168.5156,810.1563 Q168.1719,810.1563 167.9688,809.9531 Q167.7656,809.7656 167.6563,809.25 Q167.6094,808.8906 167.4219,808.7031 Q167.0938,808.3281 166.4844,808.1094 Q165.875,807.8906 165.25,807.8906 Q164.4844,807.8906 163.8438,808.2188 Q163.2188,808.5469 162.7188,809.2969 Q162.2344,810.0469 162.2344,811.0781 L162.2344,812.1719 Q162.2344,813.4063 163.125,814.2344 Q164.0156,815.0469 165.6094,815.0469 Q166.5469,815.0469 167.2031,814.7969 Q167.5938,814.6406 168.0156,814.2031 Q168.2813,813.9375 168.4219,813.8594 Q168.5781,813.7813 168.7813,813.7813 Q169.1094,813.7813 169.3594,814.0469 Q169.625,814.2969 169.625,814.6406 Q169.625,814.9844 169.2813,815.3906 Q168.7813,815.9688 167.9844,816.2969 Q166.9063,816.75 165.6094,816.75 Q164.0938,816.75 162.8906,816.125 Q161.9063,815.625 161.2188,814.5625 Q160.5313,813.4844 160.5313,812.2031 L160.5313,811.0469 Q160.5313,809.7188 161.1406,808.5781 Q161.7656,807.4219 162.8594,806.8125 Q163.9531,806.1875 165.1875,806.1875 Q165.9219,806.1875 166.5625,806.3594 Q167.2188,806.5156 167.7656,806.875 Z " fill="#000000"/><text fill="#000000" font-family="sans-serif" font-size="14" lengthAdjust="spacing" textLength="64" x="179" y="816.7285">Statement</text><line style="stroke:#181818;stroke-width:0.5;" x1="151" x2="245" y1="827" y2="827"/><line style="stroke:#181818;stroke-width:0.5;" x1="151" x2="245" y1="835" y2="835"/></g><!--MD5=[f9fadfa5a66b7e5a67b370cd443ffe52]
class Answer--><g id="elem_Answer"><rect codeLine="31" fill="#F1F1F1" height="48" id="Answer" rx="2.5" ry="2.5" style="stroke:#181818;stroke-width:0.5;" width="78" x="281" y="795"/><ellipse cx="296" cy="811" fill="#ADD1B2" rx="11" ry="11" style="stroke:#181818;stroke-width:1.0;"/><path d="M298.7656,806.875 Q298.9219,806.6563 299.1094,806.5469 Q299.2969,806.4375 299.5156,806.4375 Q299.8906,806.4375 300.125,806.7031 Q300.3594,806.9531 300.3594,807.5625 L300.3594,809.0156 Q300.3594,809.625 300.125,809.8906 Q299.8906,810.1563 299.5156,810.1563 Q299.1719,810.1563 298.9688,809.9531 Q298.7656,809.7656 298.6563,809.25 Q298.6094,808.8906 298.4219,808.7031 Q298.0938,808.3281 297.4844,808.1094 Q296.875,807.8906 296.25,807.8906 Q295.4844,807.8906 294.8438,808.2188 Q294.2188,808.5469 293.7188,809.2969 Q293.2344,810.0469 293.2344,811.0781 L293.2344,812.1719 Q293.2344,813.4063 294.125,814.2344 Q295.0156,815.0469 296.6094,815.0469 Q297.5469,815.0469 298.2031,814.7969 Q298.5938,814.6406 299.0156,814.2031 Q299.2813,813.9375 299.4219,813.8594 Q299.5781,813.7813 299.7813,813.7813 Q300.1094,813.7813 300.3594,814.0469 Q300.625,814.2969 300.625,814.6406 Q300.625,814.9844 300.2813,815.3906 Q299.7813,815.9688 298.9844,816.2969 Q297.9063,816.75 296.6094,816.75 Q295.0938,816.75 293.8906,816.125 Q292.9063,815.625 292.2188,814.5625 Q291.5313,813.4844 291.5313,812.2031 L291.5313,811.0469 Q291.5313,809.7188 292.1406,808.5781 Q292.7656,807.4219 293.8594,806.8125 Q294.9531,806.1875 296.1875,806.1875 Q296.9219,806.1875 297.5625,806.3594 Q298.2188,806.5156 298.7656,806.875 Z " fill="#000000"/><text fill="#000000" font-family="sans-serif" font-size="14" lengthAdjust="spacing" textLength="46" x="310" y="816.7285">Answer</text><line style="stroke:#181818;stroke-width:0.5;" x1="282" x2="358" y1="827" y2="827"/><line style="stroke:#181818;stroke-width:0.5;" x1="282" x2="358" y1="835" y2="835"/></g><!--MD5=[bc629657279eaa9349f412646650f2c5]
class Correct--><g id="elem_Correct"><rect codeLine="33" fill="#F1F1F1" height="48" id="Correct" rx="2.5" ry="2.5" style="stroke:#181818;stroke-width:0.5;" width="79" x="240.5" y="904"/><ellipse cx="255.5" cy="920" fill="#ADD1B2" rx="11" ry="11" style="stroke:#181818;stroke-width:1.0;"/><path d="M258.2656,915.875 Q258.4219,915.6563 258.6094,915.5469 Q258.7969,915.4375 259.0156,915.4375 Q259.3906,915.4375 259.625,915.7031 Q259.8594,915.9531 259.8594,916.5625 L259.8594,918.0156 Q259.8594,918.625 259.625,918.8906 Q259.3906,919.1563 259.0156,919.1563 Q258.6719,919.1563 258.4688,918.9531 Q258.2656,918.7656 258.1563,918.25 Q258.1094,917.8906 257.9219,917.7031 Q257.5938,917.3281 256.9844,917.1094 Q256.375,916.8906 255.75,916.8906 Q254.9844,916.8906 254.3438,917.2188 Q253.7188,917.5469 253.2188,918.2969 Q252.7344,919.0469 252.7344,920.0781 L252.7344,921.1719 Q252.7344,922.4063 253.625,923.2344 Q254.5156,924.0469 256.1094,924.0469 Q257.0469,924.0469 257.7031,923.7969 Q258.0938,923.6406 258.5156,923.2031 Q258.7813,922.9375 258.9219,922.8594 Q259.0781,922.7813 259.2813,922.7813 Q259.6094,922.7813 259.8594,923.0469 Q260.125,923.2969 260.125,923.6406 Q260.125,923.9844 259.7813,924.3906 Q259.2813,924.9688 258.4844,925.2969 Q257.4063,925.75 256.1094,925.75 Q254.5938,925.75 253.3906,925.125 Q252.4063,924.625 251.7188,923.5625 Q251.0313,922.4844 251.0313,921.2031 L251.0313,920.0469 Q251.0313,918.7188 251.6406,917.5781 Q252.2656,916.4219 253.3594,915.8125 Q254.4531,915.1875 255.6875,915.1875 Q256.4219,915.1875 257.0625,915.3594 Q257.7188,915.5156 258.2656,915.875 Z " fill="#000000"/><text fill="#000000" font-family="sans-serif" font-size="14" lengthAdjust="spacing" textLength="47" x="269.5" y="925.7285">Correct</text><line style="stroke:#181818;stroke-width:0.5;" x1="241.5" x2="318.5" y1="936" y2="936"/><line style="stroke:#181818;stroke-width:0.5;" x1="241.5" x2="318.5" y1="944" y2="944"/></g><!--MD5=[37923dc032bbfca87d4413e584fa2cda]
class Incorrect--><g id="elem_Incorrect"><rect codeLine="35" fill="#F1F1F1" height="48" id="Incorrect" rx="2.5" ry="2.5" style="stroke:#181818;stroke-width:0.5;" width="87" x="354.5" y="904"/><ellipse cx="369.5" cy="920" fill="#ADD1B2" rx="11" ry="11" style="stroke:#181818;stroke-width:1.0;"/><path d="M372.2656,915.875 Q372.4219,915.6563 372.6094,915.5469 Q372.7969,915.4375 373.0156,915.4375 Q373.3906,915.4375 373.625,915.7031 Q373.8594,915.9531 373.8594,916.5625 L373.8594,918.0156 Q373.8594,918.625 373.625,918.8906 Q373.3906,919.1563 373.0156,919.1563 Q372.6719,919.1563 372.4688,918.9531 Q372.2656,918.7656 372.1563,918.25 Q372.1094,917.8906 371.9219,917.7031 Q371.5938,917.3281 370.9844,917.1094 Q370.375,916.8906 369.75,916.8906 Q368.9844,916.8906 368.3438,917.2188 Q367.7188,917.5469 367.2188,918.2969 Q366.7344,919.0469 366.7344,920.0781 L366.7344,921.1719 Q366.7344,922.4063 367.625,923.2344 Q368.5156,924.0469 370.1094,924.0469 Q371.0469,924.0469 371.7031,923.7969 Q372.0938,923.6406 372.5156,923.2031 Q372.7813,922.9375 372.9219,922.8594 Q373.0781,922.7813 373.2813,922.7813 Q373.6094,922.7813 373.8594,923.0469 Q374.125,923.2969 374.125,923.6406 Q374.125,923.9844 373.7813,924.3906 Q373.2813,924.9688 372.4844,925.2969 Q371.4063,925.75 370.1094,925.75 Q368.5938,925.75 367.3906,925.125 Q366.4063,924.625 365.7188,923.5625 Q365.0313,922.4844 365.0313,921.2031 L365.0313,920.0469 Q365.0313,918.7188 365.6406,917.5781 Q366.2656,916.4219 367.3594,915.8125 Q368.4531,915.1875 369.6875,915.1875 Q370.4219,915.1875 371.0625,915.3594 Q371.7188,915.5156 372.2656,915.875 Z " fill="#000000"/><text fill="#000000" font-family="sans-serif" font-size="14" lengthAdjust="spacing" textLength="55" x="383.5" y="925.7285">Incorrect</text><line style="stroke:#181818;stroke-width:0.5;" x1="355.5" x2="440.5" y1="936" y2="936"/><line style="stroke:#181818;stroke-width:0.5;" x1="355.5" x2="440.5" y1="944" y2="944"/></g><!--MD5=[b355d11dc5a9142e22f9a644da54834e]
class Explication--><g id="elem_Explication"><rect codeLine="37" fill="#F1F1F1" height="48" id="Explication" rx="2.5" ry="2.5" style="stroke:#181818;stroke-width:0.5;" width="99" x="348.5" y="1013"/><ellipse cx="363.5" cy="1029" fill="#ADD1B2" rx="11" ry="11" style="stroke:#181818;stroke-width:1.0;"/><path d="M366.2656,1024.875 Q366.4219,1024.6563 366.6094,1024.5469 Q366.7969,1024.4375 367.0156,1024.4375 Q367.3906,1024.4375 367.625,1024.7031 Q367.8594,1024.9531 367.8594,1025.5625 L367.8594,1027.0156 Q367.8594,1027.625 367.625,1027.8906 Q367.3906,1028.1563 367.0156,1028.1563 Q366.6719,1028.1563 366.4688,1027.9531 Q366.2656,1027.7656 366.1563,1027.25 Q366.1094,1026.8906 365.9219,1026.7031 Q365.5938,1026.3281 364.9844,1026.1094 Q364.375,1025.8906 363.75,1025.8906 Q362.9844,1025.8906 362.3438,1026.2188 Q361.7188,1026.5469 361.2188,1027.2969 Q360.7344,1028.0469 360.7344,1029.0781 L360.7344,1030.1719 Q360.7344,1031.4063 361.625,1032.2344 Q362.5156,1033.0469 364.1094,1033.0469 Q365.0469,1033.0469 365.7031,1032.7969 Q366.0938,1032.6406 366.5156,1032.2031 Q366.7813,1031.9375 366.9219,1031.8594 Q367.0781,1031.7813 367.2813,1031.7813 Q367.6094,1031.7813 367.8594,1032.0469 Q368.125,1032.2969 368.125,1032.6406 Q368.125,1032.9844 367.7813,1033.3906 Q367.2813,1033.9688 366.4844,1034.2969 Q365.4063,1034.75 364.1094,1034.75 Q362.5938,1034.75 361.3906,1034.125 Q360.4063,1033.625 359.7188,1032.5625 Q359.0313,1031.4844 359.0313,1030.2031 L359.0313,1029.0469 Q359.0313,1027.7188 359.6406,1026.5781 Q360.2656,1025.4219 361.3594,1024.8125 Q362.4531,1024.1875 363.6875,1024.1875 Q364.4219,1024.1875 365.0625,1024.3594 Q365.7188,1024.5156 366.2656,1024.875 Z " fill="#000000"/><text fill="#000000" font-family="sans-serif" font-size="14" lengthAdjust="spacing" textLength="67" x="377.5" y="1034.7285">Explication</text><line style="stroke:#181818;stroke-width:0.5;" x1="349.5" x2="446.5" y1="1045" y2="1045"/><line style="stroke:#181818;stroke-width:0.5;" x1="349.5" x2="446.5" y1="1053" y2="1053"/></g><!--MD5=[12743b4aa7b2bf3d8e383437eb99df68]
link Community to User--><g id="link_Community_User"><path codeLine="40" d="M287.7647,66.0514 C287.7647,66.0514 275.36,92.08 269.79,103.78 " fill="none" id="Community-User" style="stroke:#181818;stroke-width:1.0;"/><polygon fill="#181818" points="264.04,115.83,271.5181,109.4208,266.1877,111.3148,264.2938,105.9844,264.04,115.83" style="stroke:#181818;stroke-width:1.0;"/><line style="stroke:#181818;stroke-width:1.0;" x1="266.1877" x2="269.64" y1="111.3148" y2="104.095"/><polygon fill="#181818" points="292.93,55.22,286.7369,58.9139,287.7647,66.0514,293.9578,62.3575,292.93,55.22" style="stroke:#181818;stroke-width:1.0;"/><text fill="#000000" font-family="sans-serif" font-size="13" lengthAdjust="spacing" textLength="20" x="244.3065" y="105.1266">1..*</text></g><!--MD5=[d52df4b853bdc5342fb2d805f548bc5a]
link Community to ReviewedQuestions--><g id="link_Community_ReviewedQuestions"><path codeLine="41" d="M315.9089,66.3986 C315.9089,66.3986 344.38,148.72 355.68,181.4 " fill="none" id="Community-ReviewedQuestions" style="stroke:#181818;stroke-width:1.0;"/><polygon fill="#181818" points="360.02,193.94,360.8528,184.1264,358.3829,189.2156,353.2938,186.7457,360.02,193.94" style="stroke:#181818;stroke-width:1.0;"/><line style="stroke:#181818;stroke-width:1.0;" x1="358.3829" x2="355.77" y1="189.2156" y2="181.66"/><polygon fill="#181818" points="311.98,55.06,310.1649,62.0389,315.9089,66.3986,317.724,59.4196,311.98,55.06" style="stroke:#181818;stroke-width:1.0;"/></g><!--MD5=[7016372388c7ac2652db8515880aaa11]
reverse link User to Editor--><g id="link_User_Editor"><path codeLine="44" d="M253,184.37 C253,212.74 253,248.71 253,271.79 " fill="none" id="User-backto-Editor" style="stroke:#181818;stroke-width:1.0;"/><polygon fill="none" points="246,184.06,253,164.06,260,184.06,246,184.06" style="stroke:#181818;stroke-width:1.0;"/></g><!--MD5=[60e4945ab784e9eaf709bb3168dd25a4]
reverse link Editor to Reviewer--><g id="link_Editor_Reviewer"><path codeLine="45" d="M269.92,339.1 C275.63,353.31 281.79,368.64 286.69,380.83 " fill="none" id="Editor-backto-Reviewer" style="stroke:#181818;stroke-width:1.0;"/><polygon fill="none" points="263.29,341.39,262.33,320.22,276.28,336.16,263.29,341.39" style="stroke:#181818;stroke-width:1.0;"/></g><!--MD5=[d8a655080454bab67f6091cbff4cee86]
reverse link User to Executor--><g id="link_User_Executor"><path codeLine="46" d="M221.74,179.82 C198.4,208.81 167.28,247.46 147.69,271.79 " fill="none" id="User-backto-Executor" style="stroke:#181818;stroke-width:1.0;"/><polygon fill="none" points="216.44,175.24,234.44,164.06,227.34,184.02,216.44,175.24" style="stroke:#181818;stroke-width:1.0;"/></g><!--MD5=[12c2d56d27338edb90331faec7f87d5c]
link PendingReviewQuestions to Question--><g id="link_PendingReviewQuestions_Question"><path codeLine="48" d="M314.8506,563.3745 C314.8506,563.3745 272.95,603.05 252.32,622.58 " fill="none" id="PendingReviewQuestions-Question" style="stroke:#181818;stroke-width:1.0;"/><polygon fill="#181818" points="242.72,631.67,252.0051,628.3857,246.3503,628.2319,246.5041,622.5771,242.72,631.67" style="stroke:#181818;stroke-width:1.0;"/><line style="stroke:#181818;stroke-width:1.0;" x1="246.3503" x2="252.16" y1="628.2319" y2="622.735"/><polygon fill="#181818" points="323.57,555.13,316.4621,556.3458,314.8506,563.3745,321.9585,562.1587,323.57,555.13" style="stroke:#181818;stroke-width:1.0;"/></g><!--MD5=[0bcbc359f19ed69453d76421891bdbfe]
link ReviewedQuestions to PendingReviewQuestions--><g id="link_ReviewedQuestions_PendingReviewQuestions"><path codeLine="49" d="M373.4949,254.0025 C373.4949,254.0025 388.76,399.35 372,477 C370.72,482.94 368.72,489.01 366.4,494.82 " fill="none" id="ReviewedQuestions-PendingReviewQuestions" style="stroke:#181818;stroke-width:1.0;"/><polygon fill="#181818" points="360.99,506.99,368.2953,500.3845,363.0171,502.4194,360.9823,497.1411,360.99,506.99" style="stroke:#181818;stroke-width:1.0;"/><line style="stroke:#181818;stroke-width:1.0;" x1="363.0171" x2="366.27" y1="502.4194" y2="495.115"/><polygon fill="#181818" points="371.82,242.12,368.6966,248.6196,373.4949,254.0025,376.6183,247.503,371.82,242.12" style="stroke:#181818;stroke-width:1.0;"/></g><!--MD5=[3e23c87a985df3c2da55c80a43bfcd45]
link Executor to Evaluation--><g id="link_Executor_Evaluation"><path codeLine="51" d="M121.84,320.22 C116.82,336.48 110.09,358.32 104.75,375.62 " fill="none" id="Executor-to-Evaluation" style="stroke:#181818;stroke-width:1.0;"/><polygon fill="#181818" points="103.15,380.83,109.6448,373.4261,104.6365,376.0561,102.0065,371.0477,103.15,380.83" style="stroke:#181818;stroke-width:1.0;"/><text fill="#000000" font-family="sans-serif" font-size="13" lengthAdjust="spacing" textLength="20" x="82.4197" y="370.1266">0..*</text></g><!--MD5=[7ea0c49f743e358ac875b85df2ad47d3]
link Evaluation to Test--><g id="link_Evaluation_Test"><path codeLine="52" d="M98.6,429.03 C100.91,449.52 104.31,479.56 106.79,501.55 " fill="none" id="Evaluation-to-Test" style="stroke:#181818;stroke-width:1.0;"/><polygon fill="#181818" points="107.37,506.67,110.313,497.2711,106.7974,501.7029,102.3657,498.1873,107.37,506.67" style="stroke:#181818;stroke-width:1.0;"/></g><!--MD5=[a4471ebd030acd5c90145d584608083d]
link Editor to Question--><g id="link_Editor_Question"><path codeLine="54" d="M246.76,320.03 C242.4,336.82 236.71,360.19 233,381 C219,459.58 209.08,551.03 203.45,610.59 " fill="none" id="Editor-to-Question" style="stroke:#181818;stroke-width:1.0;stroke-dasharray:7.0,7.0;"/><polygon fill="#181818" points="202.96,615.89,207.7895,607.3065,203.4307,610.9122,199.825,606.5534,202.96,615.89" style="stroke:#181818;stroke-width:1.0;"/></g><!--MD5=[796801260e32b64433c17f058a688d43]
link Reviewer to PendingReviewQuestions--><g id="link_Reviewer_PendingReviewQuestions"><path codeLine="55" d="M305.66,429.03 C314.29,449.61 326.95,479.81 336.18,501.82 " fill="none" id="Reviewer-to-PendingReviewQuestions" style="stroke:#181818;stroke-width:1.0;stroke-dasharray:7.0,7.0;"/><polygon fill="#181818" points="338.22,506.67,338.414,496.8231,336.2797,502.0618,331.0409,499.9275,338.22,506.67" style="stroke:#181818;stroke-width:1.0;"/><text fill="#000000" font-family="sans-serif" font-size="13" lengthAdjust="spacing" textLength="40" x="327" y="473.4951">Review</text></g><!--MD5=[bb3d97f09542411db1527b071cca8268]
link Test to Question--><g id="link_Test_Question"><path codeLine="57" d="M130.6603,565.3245 C130.6603,565.3245 146.83,591.43 155.11,604.79 " fill="none" id="Test-Question" style="stroke:#181818;stroke-width:1.0;"/><polygon fill="#181818" points="162.02,615.94,160.6795,606.1828,159.3863,611.6898,153.8793,610.3967,162.02,615.94" style="stroke:#181818;stroke-width:1.0;"/><line style="stroke:#181818;stroke-width:1.0;" x1="159.3863" x2="155.175" y1="611.6898" y2="604.895"/><polygon fill="#181818" points="124.33,555.13,124.097,562.3373,130.6603,565.3245,130.8933,558.1171,124.33,555.13" style="stroke:#181818;stroke-width:1.0;"/><text fill="#000000" font-family="sans-serif" font-size="13" lengthAdjust="spacing" textLength="27" x="128.9896" y="605.2569">10..*</text></g><!--MD5=[6eeca14f8a2ed45d1117f4ed4af75b7e]
link Question to Statement--><g id="link_Question_Statement"><path codeLine="58" d="M198,746.17 C198,746.17 198,771.21 198,781.8 " fill="none" id="Question-Statement" style="stroke:#181818;stroke-width:1.0;"/><polygon fill="#181818" points="198,794.82,202,785.82,198,789.82,194,785.82,198,794.82" style="stroke:#181818;stroke-width:1.0;"/><line style="stroke:#181818;stroke-width:1.0;" x1="198" x2="198" y1="789.82" y2="781.82"/><polygon fill="#181818" points="198,734.17,194,740.17,198,746.17,202,740.17,198,734.17" style="stroke:#181818;stroke-width:1.0;"/></g><!--MD5=[6926d5174a3032b1dcc6c5d6f900c16b]
link Question to Answer--><g id="link_Question_Answer"><path codeLine="59" d="M250.5614,737.1708 C250.5614,737.1708 279.53,770.9 291.5,784.83 " fill="none" id="Question-Answer" style="stroke:#181818;stroke-width:1.0;"/><polygon fill="#181818" points="300.14,794.89,297.3075,785.4572,296.8811,791.098,291.2403,790.6715,300.14,794.89" style="stroke:#181818;stroke-width:1.0;"/><line style="stroke:#181818;stroke-width:1.0;" x1="296.8811" x2="291.67" y1="791.098" y2="785.025"/><polygon fill="#181818" points="242.74,728.07,243.6171,735.2276,250.5614,737.1708,249.6843,730.0133,242.74,728.07" style="stroke:#181818;stroke-width:1.0;"/><text fill="#000000" font-family="sans-serif" font-size="13" lengthAdjust="spacing" textLength="20" x="272.4884" y="784.202">1..*</text></g><!--MD5=[b1491d38e87214202fddacec717a9c8d]
reverse link Answer to Correct--><g id="link_Answer_Correct"><path codeLine="60" d="M304.26,862.1 C298.95,876.31 293.22,891.64 288.66,903.83 " fill="none" id="Answer-backto-Correct" style="stroke:#181818;stroke-width:1.0;"/><polygon fill="none" points="297.76,859.5,311.32,843.22,310.87,864.4,297.76,859.5" style="stroke:#181818;stroke-width:1.0;"/></g><!--MD5=[a6181c8180a1587156cddad319d63c9e]
reverse link Answer to Incorrect--><g id="link_Answer_Incorrect"><path codeLine="61" d="M348.92,859.67 C359.76,874.54 371.71,890.94 381.11,903.83 " fill="none" id="Answer-backto-Incorrect" style="stroke:#181818;stroke-width:1.0;"/><polygon fill="none" points="343.05,863.5,336.92,843.22,354.36,855.26,343.05,863.5" style="stroke:#181818;stroke-width:1.0;"/></g><!--MD5=[87b642d9eeba74d93f27582af4f9048f]
link Incorrect to Explication--><g id="link_Incorrect_Explication"><path codeLine="62" d="M398,952.22 C398,968.48 398,990.32 398,1007.62 " fill="none" id="Incorrect-to-Explication" style="stroke:#181818;stroke-width:1.0;"/><polygon fill="#181818" points="398,1012.83,402,1003.83,398,1007.83,394,1003.83,398,1012.83" style="stroke:#181818;stroke-width:1.0;"/></g><!--MD5=[98df2f76ab45609c36aa45d6b9c3faee]
link Question to Category--><g id="link_Question_Category"><path codeLine="64" d="M144.8034,727.7525 C144.8034,727.7525 102.91,768.49 85.63,785.29 " fill="none" id="Question-Category" style="stroke:#181818;stroke-width:1.0;"/><polygon fill="#181818" points="75.99,794.67,85.2283,791.2562,79.5719,791.1815,79.6466,785.5251,75.99,794.67" style="stroke:#181818;stroke-width:1.0;"/><line style="stroke:#181818;stroke-width:1.0;" x1="79.5719" x2="85.305" y1="791.1815" y2="785.61"/><polygon fill="#181818" points="153.4,719.38,146.3109,720.7007,144.8034,727.7525,151.8925,726.4318,153.4,719.38" style="stroke:#181818;stroke-width:1.0;"/></g><!--MD5=[a5725b0440277e7b298212d4ab098951]
link Category to Category--><g id="link_Category_Category"><path codeLine="65" d="M109.2281,809.1712 C109.2281,809.1712 132,813.46 132,819 C132,824.54 123.03,827.8 110.6,828.8 " fill="none" id="Category-Category" style="stroke:#181818;stroke-width:1.0;"/><polygon fill="#181818" points="97.23,829.04,106.299,832.881,102.2292,828.952,106.1582,824.8822,97.23,829.04" style="stroke:#181818;stroke-width:1.0;"/><line style="stroke:#181818;stroke-width:1.0;" x1="102.2292" x2="110.23" y1="828.952" y2="828.805"/><polygon fill="#181818" points="97.23,808.96,103.1587,813.065,109.2281,809.1712,103.2995,805.0662,97.23,808.96" style="stroke:#181818;stroke-width:1.0;"/><text fill="#000000" font-family="sans-serif" font-size="13" lengthAdjust="spacing" textLength="20" x="104.9967" y="826.8467">0..*</text></g><!--MD5=[1fcc26e9d1c36afce912ca2005f13c73]
@startuml OpoTestDomain

class Community

class User

class Reviewer

class Editor 

class Executor

class Evaluation

class Category 

class Test

class PendingReviewQuestions

class ReviewedQuestions 

class Question {
    date
    reviewed
    type
    ...
}

class Statement

class Answer 

class Correct

Class Incorrect

Class Explication


Community *- -> "1..*" User
Community *- -> ReviewedQuestions


User <|- - Editor
Editor <|- -  Reviewer
User <|- - Executor

PendingReviewQuestions *- -> Question
ReviewedQuestions *- -> PendingReviewQuestions

Executor - -> "0..*" Evaluation
Evaluation - -> Test

Editor ..> Question
Reviewer ..> PendingReviewQuestions : Review

Test *- -> "10..*" Question
Question *- ->   Statement
Question *- -> "1..*" Answer
Answer <|- - Correct
Answer <|- - Incorrect
Incorrect - -> Explication

Question *- -> Category
Category *- ->"0..*" Category







@end

PlantUML version 1.2022.7(Mon Aug 22 18:01:30 WEST 2022)
(GPL source distribution)
Java Runtime: OpenJDK Runtime Environment
JVM: OpenJDK 64-Bit Server VM
Default Encoding: Cp1252
Language: es
Country: ES
--></g></svg>