<?xml version="1.0" encoding="UTF-8" standalone="no"?><svg xmlns="http://www.w3.org/2000/svg" xmlns:xlink="http://www.w3.org/1999/xlink" contentStyleType="text/css" height="1151px" preserveAspectRatio="none" style="width:476px;height:1151px;background:#FFFFFF;" version="1.1" viewBox="0 0 476 1151" width="476px" zoomAndPan="magnify"><defs/><g><!--MD5=[668d633d11bedc8952753581a2dda3db]
class Community--><g id="elem_Community"><rect codeLine="2" fill="#F1F1F1" height="48" id="Community" rx="2.5" ry="2.5" style="stroke:#181818;stroke-width:0.5;" width="102" x="284" y="7"/><ellipse cx="299" cy="23" fill="#ADD1B2" rx="11" ry="11" style="stroke:#181818;stroke-width:1.0;"/><path d="M301.7656,18.875 Q301.9219,18.6563 302.1094,18.5469 Q302.2969,18.4375 302.5156,18.4375 Q302.8906,18.4375 303.125,18.7031 Q303.3594,18.9531 303.3594,19.5625 L303.3594,21.0156 Q303.3594,21.625 303.125,21.8906 Q302.8906,22.1563 302.5156,22.1563 Q302.1719,22.1563 301.9688,21.9531 Q301.7656,21.7656 301.6563,21.25 Q301.6094,20.8906 301.4219,20.7031 Q301.0938,20.3281 300.4844,20.1094 Q299.875,19.8906 299.25,19.8906 Q298.4844,19.8906 297.8438,20.2188 Q297.2188,20.5469 296.7188,21.2969 Q296.2344,22.0469 296.2344,23.0781 L296.2344,24.1719 Q296.2344,25.4063 297.125,26.2344 Q298.0156,27.0469 299.6094,27.0469 Q300.5469,27.0469 301.2031,26.7969 Q301.5938,26.6406 302.0156,26.2031 Q302.2813,25.9375 302.4219,25.8594 Q302.5781,25.7813 302.7813,25.7813 Q303.1094,25.7813 303.3594,26.0469 Q303.625,26.2969 303.625,26.6406 Q303.625,26.9844 303.2813,27.3906 Q302.7813,27.9688 301.9844,28.2969 Q300.9063,28.75 299.6094,28.75 Q298.0938,28.75 296.8906,28.125 Q295.9063,27.625 295.2188,26.5625 Q294.5313,25.4844 294.5313,24.2031 L294.5313,23.0469 Q294.5313,21.7188 295.1406,20.5781 Q295.7656,19.4219 296.8594,18.8125 Q297.9531,18.1875 299.1875,18.1875 Q299.9219,18.1875 300.5625,18.3594 Q301.2188,18.5156 301.7656,18.875 Z " fill="#000000"/><text fill="#000000" font-family="sans-serif" font-size="14" lengthAdjust="spacing" textLength="70" x="313" y="28.7285">Community</text><line style="stroke:#181818;stroke-width:0.5;" x1="285" x2="385" y1="39" y2="39"/><line style="stroke:#181818;stroke-width:0.5;" x1="285" x2="385" y1="47" y2="47"/></g><!--MD5=[3fd616f346a44cd59a91eb10b19e157c]
class User--><g id="elem_User"><rect codeLine="4" fill="#F1F1F1" height="48" id="User" rx="2.5" ry="2.5" style="stroke:#181818;stroke-width:0.5;" width="61" x="253.5" y="116"/><ellipse cx="268.5" cy="132" fill="#ADD1B2" rx="11" ry="11" style="stroke:#181818;stroke-width:1.0;"/><path d="M271.2656,127.875 Q271.4219,127.6563 271.6094,127.5469 Q271.7969,127.4375 272.0156,127.4375 Q272.3906,127.4375 272.625,127.7031 Q272.8594,127.9531 272.8594,128.5625 L272.8594,130.0156 Q272.8594,130.625 272.625,130.8906 Q272.3906,131.1563 272.0156,131.1563 Q271.6719,131.1563 271.4688,130.9531 Q271.2656,130.7656 271.1563,130.25 Q271.1094,129.8906 270.9219,129.7031 Q270.5938,129.3281 269.9844,129.1094 Q269.375,128.8906 268.75,128.8906 Q267.9844,128.8906 267.3438,129.2188 Q266.7188,129.5469 266.2188,130.2969 Q265.7344,131.0469 265.7344,132.0781 L265.7344,133.1719 Q265.7344,134.4063 266.625,135.2344 Q267.5156,136.0469 269.1094,136.0469 Q270.0469,136.0469 270.7031,135.7969 Q271.0938,135.6406 271.5156,135.2031 Q271.7813,134.9375 271.9219,134.8594 Q272.0781,134.7813 272.2813,134.7813 Q272.6094,134.7813 272.8594,135.0469 Q273.125,135.2969 273.125,135.6406 Q273.125,135.9844 272.7813,136.3906 Q272.2813,136.9688 271.4844,137.2969 Q270.4063,137.75 269.1094,137.75 Q267.5938,137.75 266.3906,137.125 Q265.4063,136.625 264.7188,135.5625 Q264.0313,134.4844 264.0313,133.2031 L264.0313,132.0469 Q264.0313,130.7188 264.6406,129.5781 Q265.2656,128.4219 266.3594,127.8125 Q267.4531,127.1875 268.6875,127.1875 Q269.4219,127.1875 270.0625,127.3594 Q270.7188,127.5156 271.2656,127.875 Z " fill="#000000"/><text fill="#000000" font-family="sans-serif" font-size="14" lengthAdjust="spacing" textLength="29" x="282.5" y="137.7285">User</text><line style="stroke:#181818;stroke-width:0.5;" x1="254.5" x2="313.5" y1="148" y2="148"/><line style="stroke:#181818;stroke-width:0.5;" x1="254.5" x2="313.5" y1="156" y2="156"/></g><!--MD5=[e76a510855fdf825c81877c657b1fc23]
class Reviewer--><g id="elem_Reviewer"><rect codeLine="6" fill="#F1F1F1" height="48" id="Reviewer" rx="2.5" ry="2.5" style="stroke:#181818;stroke-width:0.5;" width="90" x="259" y="381"/><ellipse cx="274" cy="397" fill="#ADD1B2" rx="11" ry="11" style="stroke:#181818;stroke-width:1.0;"/><path d="M276.7656,392.875 Q276.9219,392.6563 277.1094,392.5469 Q277.2969,392.4375 277.5156,392.4375 Q277.8906,392.4375 278.125,392.7031 Q278.3594,392.9531 278.3594,393.5625 L278.3594,395.0156 Q278.3594,395.625 278.125,395.8906 Q277.8906,396.1563 277.5156,396.1563 Q277.1719,396.1563 276.9688,395.9531 Q276.7656,395.7656 276.6563,395.25 Q276.6094,394.8906 276.4219,394.7031 Q276.0938,394.3281 275.4844,394.1094 Q274.875,393.8906 274.25,393.8906 Q273.4844,393.8906 272.8438,394.2188 Q272.2188,394.5469 271.7188,395.2969 Q271.2344,396.0469 271.2344,397.0781 L271.2344,398.1719 Q271.2344,399.4063 272.125,400.2344 Q273.0156,401.0469 274.6094,401.0469 Q275.5469,401.0469 276.2031,400.7969 Q276.5938,400.6406 277.0156,400.2031 Q277.2813,399.9375 277.4219,399.8594 Q277.5781,399.7813 277.7813,399.7813 Q278.1094,399.7813 278.3594,400.0469 Q278.625,400.2969 278.625,400.6406 Q278.625,400.9844 278.2813,401.3906 Q277.7813,401.9688 276.9844,402.2969 Q275.9063,402.75 274.6094,402.75 Q273.0938,402.75 271.8906,402.125 Q270.9063,401.625 270.2188,400.5625 Q269.5313,399.4844 269.5313,398.2031 L269.5313,397.0469 Q269.5313,395.7188 270.1406,394.5781 Q270.7656,393.4219 271.8594,392.8125 Q272.9531,392.1875 274.1875,392.1875 Q274.9219,392.1875 275.5625,392.3594 Q276.2188,392.5156 276.7656,392.875 Z " fill="#000000"/><text fill="#000000" font-family="sans-serif" font-size="14" lengthAdjust="spacing" textLength="58" x="288" y="402.7285">Reviewer</text><line style="stroke:#181818;stroke-width:0.5;" x1="260" x2="348" y1="413" y2="413"/><line style="stroke:#181818;stroke-width:0.5;" x1="260" x2="348" y1="421" y2="421"/></g><!--MD5=[559db66c208d2736f857be4b8ed380a2]
class Editor--><g id="elem_Editor"><rect codeLine="8" fill="#F1F1F1" height="48" id="Editor" rx="2.5" ry="2.5" style="stroke:#181818;stroke-width:0.5;" width="69" x="249.5" y="272"/><ellipse cx="264.5" cy="288" fill="#ADD1B2" rx="11" ry="11" style="stroke:#181818;stroke-width:1.0;"/><path d="M267.2656,283.875 Q267.4219,283.6563 267.6094,283.5469 Q267.7969,283.4375 268.0156,283.4375 Q268.3906,283.4375 268.625,283.7031 Q268.8594,283.9531 268.8594,284.5625 L268.8594,286.0156 Q268.8594,286.625 268.625,286.8906 Q268.3906,287.1563 268.0156,287.1563 Q267.6719,287.1563 267.4688,286.9531 Q267.2656,286.7656 267.1563,286.25 Q267.1094,285.8906 266.9219,285.7031 Q266.5938,285.3281 265.9844,285.1094 Q265.375,284.8906 264.75,284.8906 Q263.9844,284.8906 263.3438,285.2188 Q262.7188,285.5469 262.2188,286.2969 Q261.7344,287.0469 261.7344,288.0781 L261.7344,289.1719 Q261.7344,290.4063 262.625,291.2344 Q263.5156,292.0469 265.1094,292.0469 Q266.0469,292.0469 266.7031,291.7969 Q267.0938,291.6406 267.5156,291.2031 Q267.7813,290.9375 267.9219,290.8594 Q268.0781,290.7813 268.2813,290.7813 Q268.6094,290.7813 268.8594,291.0469 Q269.125,291.2969 269.125,291.6406 Q269.125,291.9844 268.7813,292.3906 Q268.2813,292.9688 267.4844,293.2969 Q266.4063,293.75 265.1094,293.75 Q263.5938,293.75 262.3906,293.125 Q261.4063,292.625 260.7188,291.5625 Q260.0313,290.4844 260.0313,289.2031 L260.0313,288.0469 Q260.0313,286.7188 260.6406,285.5781 Q261.2656,284.4219 262.3594,283.8125 Q263.4531,283.1875 264.6875,283.1875 Q265.4219,283.1875 266.0625,283.3594 Q266.7188,283.5156 267.2656,283.875 Z " fill="#000000"/><text fill="#000000" font-family="sans-serif" font-size="14" lengthAdjust="spacing" textLength="37" x="278.5" y="293.7285">Editor</text><line style="stroke:#181818;stroke-width:0.5;" x1="250.5" x2="317.5" y1="304" y2="304"/><line style="stroke:#181818;stroke-width:0.5;" x1="250.5" x2="317.5" y1="312" y2="312"/></g><!--MD5=[a0a1f7f9662f43ef0ece806266f72a6f]
class Executor--><g id="elem_Executor"><rect codeLine="10" fill="#F1F1F1" height="48" id="Executor" rx="2.5" ry="2.5" style="stroke:#181818;stroke-width:0.5;" width="87" x="124.5" y="272"/><ellipse cx="139.5" cy="288" fill="#ADD1B2" rx="11" ry="11" style="stroke:#181818;stroke-width:1.0;"/><path d="M142.2656,283.875 Q142.4219,283.6563 142.6094,283.5469 Q142.7969,283.4375 143.0156,283.4375 Q143.3906,283.4375 143.625,283.7031 Q143.8594,283.9531 143.8594,284.5625 L143.8594,286.0156 Q143.8594,286.625 143.625,286.8906 Q143.3906,287.1563 143.0156,287.1563 Q142.6719,287.1563 142.4688,286.9531 Q142.2656,286.7656 142.1563,286.25 Q142.1094,285.8906 141.9219,285.7031 Q141.5938,285.3281 140.9844,285.1094 Q140.375,284.8906 139.75,284.8906 Q138.9844,284.8906 138.3438,285.2188 Q137.7188,285.5469 137.2188,286.2969 Q136.7344,287.0469 136.7344,288.0781 L136.7344,289.1719 Q136.7344,290.4063 137.625,291.2344 Q138.5156,292.0469 140.1094,292.0469 Q141.0469,292.0469 141.7031,291.7969 Q142.0938,291.6406 142.5156,291.2031 Q142.7813,290.9375 142.9219,290.8594 Q143.0781,290.7813 143.2813,290.7813 Q143.6094,290.7813 143.8594,291.0469 Q144.125,291.2969 144.125,291.6406 Q144.125,291.9844 143.7813,292.3906 Q143.2813,292.9688 142.4844,293.2969 Q141.4063,293.75 140.1094,293.75 Q138.5938,293.75 137.3906,293.125 Q136.4063,292.625 135.7188,291.5625 Q135.0313,290.4844 135.0313,289.2031 L135.0313,288.0469 Q135.0313,286.7188 135.6406,285.5781 Q136.2656,284.4219 137.3594,283.8125 Q138.4531,283.1875 139.6875,283.1875 Q140.4219,283.1875 141.0625,283.3594 Q141.7188,283.5156 142.2656,283.875 Z " fill="#000000"/><text fill="#000000" font-family="sans-serif" font-size="14" lengthAdjust="spacing" textLength="55" x="153.5" y="293.7285">Executor</text><line style="stroke:#181818;stroke-width:0.5;" x1="125.5" x2="210.5" y1="304" y2="304"/><line style="stroke:#181818;stroke-width:0.5;" x1="125.5" x2="210.5" y1="312" y2="312"/></g><!--MD5=[71e8807956d33805e77353b9d7e2df39]
class Evaluation--><g id="elem_Evaluation"><rect codeLine="12" fill="#F1F1F1" height="48" id="Evaluation" rx="2.5" ry="2.5" style="stroke:#181818;stroke-width:0.5;" width="98" x="55" y="381"/><ellipse cx="70" cy="397" fill="#ADD1B2" rx="11" ry="11" style="stroke:#181818;stroke-width:1.0;"/><path d="M72.7656,392.875 Q72.9219,392.6563 73.1094,392.5469 Q73.2969,392.4375 73.5156,392.4375 Q73.8906,392.4375 74.125,392.7031 Q74.3594,392.9531 74.3594,393.5625 L74.3594,395.0156 Q74.3594,395.625 74.125,395.8906 Q73.8906,396.1563 73.5156,396.1563 Q73.1719,396.1563 72.9688,395.9531 Q72.7656,395.7656 72.6563,395.25 Q72.6094,394.8906 72.4219,394.7031 Q72.0938,394.3281 71.4844,394.1094 Q70.875,393.8906 70.25,393.8906 Q69.4844,393.8906 68.8438,394.2188 Q68.2188,394.5469 67.7188,395.2969 Q67.2344,396.0469 67.2344,397.0781 L67.2344,398.1719 Q67.2344,399.4063 68.125,400.2344 Q69.0156,401.0469 70.6094,401.0469 Q71.5469,401.0469 72.2031,400.7969 Q72.5938,400.6406 73.0156,400.2031 Q73.2813,399.9375 73.4219,399.8594 Q73.5781,399.7813 73.7813,399.7813 Q74.1094,399.7813 74.3594,400.0469 Q74.625,400.2969 74.625,400.6406 Q74.625,400.9844 74.2813,401.3906 Q73.7813,401.9688 72.9844,402.2969 Q71.9063,402.75 70.6094,402.75 Q69.0938,402.75 67.8906,402.125 Q66.9063,401.625 66.2188,400.5625 Q65.5313,399.4844 65.5313,398.2031 L65.5313,397.0469 Q65.5313,395.7188 66.1406,394.5781 Q66.7656,393.4219 67.8594,392.8125 Q68.9531,392.1875 70.1875,392.1875 Q70.9219,392.1875 71.5625,392.3594 Q72.2188,392.5156 72.7656,392.875 Z " fill="#000000"/><text fill="#000000" font-family="sans-serif" font-size="14" lengthAdjust="spacing" textLength="66" x="84" y="402.7285">Evaluation</text><line style="stroke:#181818;stroke-width:0.5;" x1="56" x2="152" y1="413" y2="413"/><line style="stroke:#181818;stroke-width:0.5;" x1="56" x2="152" y1="421" y2="421"/></g><!--MD5=[a96594a83e2ecdc78cbf17c2ddf01934]
class Category--><g id="elem_Category"><rect codeLine="14" fill="#F1F1F1" height="48" id="Category" rx="2.5" ry="2.5" style="stroke:#181818;stroke-width:0.5;" width="90" x="7" y="878"/><ellipse cx="22" cy="894" fill="#ADD1B2" rx="11" ry="11" style="stroke:#181818;stroke-width:1.0;"/><path d="M24.7656,889.875 Q24.9219,889.6563 25.1094,889.5469 Q25.2969,889.4375 25.5156,889.4375 Q25.8906,889.4375 26.125,889.7031 Q26.3594,889.9531 26.3594,890.5625 L26.3594,892.0156 Q26.3594,892.625 26.125,892.8906 Q25.8906,893.1563 25.5156,893.1563 Q25.1719,893.1563 24.9688,892.9531 Q24.7656,892.7656 24.6563,892.25 Q24.6094,891.8906 24.4219,891.7031 Q24.0938,891.3281 23.4844,891.1094 Q22.875,890.8906 22.25,890.8906 Q21.4844,890.8906 20.8438,891.2188 Q20.2188,891.5469 19.7188,892.2969 Q19.2344,893.0469 19.2344,894.0781 L19.2344,895.1719 Q19.2344,896.4063 20.125,897.2344 Q21.0156,898.0469 22.6094,898.0469 Q23.5469,898.0469 24.2031,897.7969 Q24.5938,897.6406 25.0156,897.2031 Q25.2813,896.9375 25.4219,896.8594 Q25.5781,896.7813 25.7813,896.7813 Q26.1094,896.7813 26.3594,897.0469 Q26.625,897.2969 26.625,897.6406 Q26.625,897.9844 26.2813,898.3906 Q25.7813,898.9688 24.9844,899.2969 Q23.9063,899.75 22.6094,899.75 Q21.0938,899.75 19.8906,899.125 Q18.9063,898.625 18.2188,897.5625 Q17.5313,896.4844 17.5313,895.2031 L17.5313,894.0469 Q17.5313,892.7188 18.1406,891.5781 Q18.7656,890.4219 19.8594,889.8125 Q20.9531,889.1875 22.1875,889.1875 Q22.9219,889.1875 23.5625,889.3594 Q24.2188,889.5156 24.7656,889.875 Z " fill="#000000"/><text fill="#000000" font-family="sans-serif" font-size="14" lengthAdjust="spacing" textLength="58" x="36" y="899.7285">Category</text><line style="stroke:#181818;stroke-width:0.5;" x1="8" x2="96" y1="910" y2="910"/><line style="stroke:#181818;stroke-width:0.5;" x1="8" x2="96" y1="918" y2="918"/></g><!--MD5=[df38be88ccee13e832d6fafd6288a4ca]
class Test--><g id="elem_Test"><rect codeLine="16" fill="#F1F1F1" height="48" id="Test" rx="2.5" ry="2.5" style="stroke:#181818;stroke-width:0.5;" width="60" x="82" y="590"/><ellipse cx="97" cy="606" fill="#ADD1B2" rx="11" ry="11" style="stroke:#181818;stroke-width:1.0;"/><path d="M99.7656,601.875 Q99.9219,601.6563 100.1094,601.5469 Q100.2969,601.4375 100.5156,601.4375 Q100.8906,601.4375 101.125,601.7031 Q101.3594,601.9531 101.3594,602.5625 L101.3594,604.0156 Q101.3594,604.625 101.125,604.8906 Q100.8906,605.1563 100.5156,605.1563 Q100.1719,605.1563 99.9688,604.9531 Q99.7656,604.7656 99.6563,604.25 Q99.6094,603.8906 99.4219,603.7031 Q99.0938,603.3281 98.4844,603.1094 Q97.875,602.8906 97.25,602.8906 Q96.4844,602.8906 95.8438,603.2188 Q95.2188,603.5469 94.7188,604.2969 Q94.2344,605.0469 94.2344,606.0781 L94.2344,607.1719 Q94.2344,608.4063 95.125,609.2344 Q96.0156,610.0469 97.6094,610.0469 Q98.5469,610.0469 99.2031,609.7969 Q99.5938,609.6406 100.0156,609.2031 Q100.2813,608.9375 100.4219,608.8594 Q100.5781,608.7813 100.7813,608.7813 Q101.1094,608.7813 101.3594,609.0469 Q101.625,609.2969 101.625,609.6406 Q101.625,609.9844 101.2813,610.3906 Q100.7813,610.9688 99.9844,611.2969 Q98.9063,611.75 97.6094,611.75 Q96.0938,611.75 94.8906,611.125 Q93.9063,610.625 93.2188,609.5625 Q92.5313,608.4844 92.5313,607.2031 L92.5313,606.0469 Q92.5313,604.7188 93.1406,603.5781 Q93.7656,602.4219 94.8594,601.8125 Q95.9531,601.1875 97.1875,601.1875 Q97.9219,601.1875 98.5625,601.3594 Q99.2188,601.5156 99.7656,601.875 Z " fill="#000000"/><text fill="#000000" font-family="sans-serif" font-size="14" lengthAdjust="spacing" textLength="28" x="111" y="611.7285">Test</text><line style="stroke:#181818;stroke-width:0.5;" x1="83" x2="141" y1="622" y2="622"/><line style="stroke:#181818;stroke-width:0.5;" x1="83" x2="141" y1="630" y2="630"/></g><!--MD5=[686fa95824735602dd15f07aadf69888]
class PendingReviewQuestions--><g id="elem_PendingReviewQuestions"><rect codeLine="18" fill="#F1F1F1" height="48" id="PendingReviewQuestions" rx="2.5" ry="2.5" style="stroke:#181818;stroke-width:0.5;" width="193" x="251.5" y="590"/><ellipse cx="266.5" cy="606" fill="#ADD1B2" rx="11" ry="11" style="stroke:#181818;stroke-width:1.0;"/><path d="M269.2656,601.875 Q269.4219,601.6563 269.6094,601.5469 Q269.7969,601.4375 270.0156,601.4375 Q270.3906,601.4375 270.625,601.7031 Q270.8594,601.9531 270.8594,602.5625 L270.8594,604.0156 Q270.8594,604.625 270.625,604.8906 Q270.3906,605.1563 270.0156,605.1563 Q269.6719,605.1563 269.4688,604.9531 Q269.2656,604.7656 269.1563,604.25 Q269.1094,603.8906 268.9219,603.7031 Q268.5938,603.3281 267.9844,603.1094 Q267.375,602.8906 266.75,602.8906 Q265.9844,602.8906 265.3438,603.2188 Q264.7188,603.5469 264.2188,604.2969 Q263.7344,605.0469 263.7344,606.0781 L263.7344,607.1719 Q263.7344,608.4063 264.625,609.2344 Q265.5156,610.0469 267.1094,610.0469 Q268.0469,610.0469 268.7031,609.7969 Q269.0938,609.6406 269.5156,609.2031 Q269.7813,608.9375 269.9219,608.8594 Q270.0781,608.7813 270.2813,608.7813 Q270.6094,608.7813 270.8594,609.0469 Q271.125,609.2969 271.125,609.6406 Q271.125,609.9844 270.7813,610.3906 Q270.2813,610.9688 269.4844,611.2969 Q268.4063,611.75 267.1094,611.75 Q265.5938,611.75 264.3906,611.125 Q263.4063,610.625 262.7188,609.5625 Q262.0313,608.4844 262.0313,607.2031 L262.0313,606.0469 Q262.0313,604.7188 262.6406,603.5781 Q263.2656,602.4219 264.3594,601.8125 Q265.4531,601.1875 266.6875,601.1875 Q267.4219,601.1875 268.0625,601.3594 Q268.7188,601.5156 269.2656,601.875 Z " fill="#000000"/><text fill="#000000" font-family="sans-serif" font-size="14" lengthAdjust="spacing" textLength="161" x="280.5" y="611.7285">PendingReviewQuestions</text><line style="stroke:#181818;stroke-width:0.5;" x1="252.5" x2="443.5" y1="622" y2="622"/><line style="stroke:#181818;stroke-width:0.5;" x1="252.5" x2="443.5" y1="630" y2="630"/></g><!--MD5=[cbddb90c6383c26762130850ded55635]
class ReviewedQuestions--><g id="elem_ReviewedQuestions"><rect codeLine="20" fill="#F1F1F1" height="48" id="ReviewedQuestions" rx="2.5" ry="2.5" style="stroke:#181818;stroke-width:0.5;" width="157" x="312.5" y="194"/><ellipse cx="327.5" cy="210" fill="#ADD1B2" rx="11" ry="11" style="stroke:#181818;stroke-width:1.0;"/><path d="M330.2656,205.875 Q330.4219,205.6563 330.6094,205.5469 Q330.7969,205.4375 331.0156,205.4375 Q331.3906,205.4375 331.625,205.7031 Q331.8594,205.9531 331.8594,206.5625 L331.8594,208.0156 Q331.8594,208.625 331.625,208.8906 Q331.3906,209.1563 331.0156,209.1563 Q330.6719,209.1563 330.4688,208.9531 Q330.2656,208.7656 330.1563,208.25 Q330.1094,207.8906 329.9219,207.7031 Q329.5938,207.3281 328.9844,207.1094 Q328.375,206.8906 327.75,206.8906 Q326.9844,206.8906 326.3438,207.2188 Q325.7188,207.5469 325.2188,208.2969 Q324.7344,209.0469 324.7344,210.0781 L324.7344,211.1719 Q324.7344,212.4063 325.625,213.2344 Q326.5156,214.0469 328.1094,214.0469 Q329.0469,214.0469 329.7031,213.7969 Q330.0938,213.6406 330.5156,213.2031 Q330.7813,212.9375 330.9219,212.8594 Q331.0781,212.7813 331.2813,212.7813 Q331.6094,212.7813 331.8594,213.0469 Q332.125,213.2969 332.125,213.6406 Q332.125,213.9844 331.7813,214.3906 Q331.2813,214.9688 330.4844,215.2969 Q329.4063,215.75 328.1094,215.75 Q326.5938,215.75 325.3906,215.125 Q324.4063,214.625 323.7188,213.5625 Q323.0313,212.4844 323.0313,211.2031 L323.0313,210.0469 Q323.0313,208.7188 323.6406,207.5781 Q324.2656,206.4219 325.3594,205.8125 Q326.4531,205.1875 327.6875,205.1875 Q328.4219,205.1875 329.0625,205.3594 Q329.7188,205.5156 330.2656,205.875 Z " fill="#000000"/><text fill="#000000" font-family="sans-serif" font-size="14" lengthAdjust="spacing" textLength="125" x="341.5" y="215.7285">ReviewedQuestions</text><line style="stroke:#181818;stroke-width:0.5;" x1="313.5" x2="468.5" y1="226" y2="226"/><line style="stroke:#181818;stroke-width:0.5;" x1="313.5" x2="468.5" y1="234" y2="234"/></g><!--MD5=[9d451b2f92d848a8e2d1a4dab2b1c6bf]
class Concept--><g id="elem_Concept"><rect codeLine="22" fill="#F1F1F1" height="100.8281" id="Concept" rx="2.5" ry="2.5" style="stroke:#181818;stroke-width:0.5;" width="126" x="139" y="459"/><ellipse cx="172.45" cy="475" fill="#ADD1B2" rx="11" ry="11" style="stroke:#181818;stroke-width:1.0;"/><path d="M175.2156,470.875 Q175.3719,470.6563 175.5594,470.5469 Q175.7469,470.4375 175.9656,470.4375 Q176.3406,470.4375 176.575,470.7031 Q176.8094,470.9531 176.8094,471.5625 L176.8094,473.0156 Q176.8094,473.625 176.575,473.8906 Q176.3406,474.1563 175.9656,474.1563 Q175.6219,474.1563 175.4188,473.9531 Q175.2156,473.7656 175.1063,473.25 Q175.0594,472.8906 174.8719,472.7031 Q174.5438,472.3281 173.9344,472.1094 Q173.325,471.8906 172.7,471.8906 Q171.9344,471.8906 171.2938,472.2188 Q170.6688,472.5469 170.1688,473.2969 Q169.6844,474.0469 169.6844,475.0781 L169.6844,476.1719 Q169.6844,477.4063 170.575,478.2344 Q171.4656,479.0469 173.0594,479.0469 Q173.9969,479.0469 174.6531,478.7969 Q175.0438,478.6406 175.4656,478.2031 Q175.7313,477.9375 175.8719,477.8594 Q176.0281,477.7813 176.2313,477.7813 Q176.5594,477.7813 176.8094,478.0469 Q177.075,478.2969 177.075,478.6406 Q177.075,478.9844 176.7313,479.3906 Q176.2313,479.9688 175.4344,480.2969 Q174.3563,480.75 173.0594,480.75 Q171.5438,480.75 170.3406,480.125 Q169.3563,479.625 168.6688,478.5625 Q167.9813,477.4844 167.9813,476.2031 L167.9813,475.0469 Q167.9813,473.7188 168.5906,472.5781 Q169.2156,471.4219 170.3094,470.8125 Q171.4031,470.1875 172.6375,470.1875 Q173.3719,470.1875 174.0125,470.3594 Q174.6688,470.5156 175.2156,470.875 Z " fill="#000000"/><text fill="#000000" font-family="sans-serif" font-size="14" lengthAdjust="spacing" textLength="53" x="190.55" y="480.7285">Concept</text><line style="stroke:#181818;stroke-width:0.5;" x1="140" x2="264" y1="491" y2="491"/><text fill="#000000" font-family="sans-serif" font-size="14" lengthAdjust="spacing" textLength="103" x="145" y="509.5332">correctDefinition</text><text fill="#000000" font-family="sans-serif" font-size="14" lengthAdjust="spacing" textLength="114" x="145" y="527.1426">incorrectDefinition</text><text fill="#000000" font-family="sans-serif" font-size="14" lengthAdjust="spacing" textLength="51" x="145" y="544.752">strategy</text><line style="stroke:#181818;stroke-width:0.5;" x1="140" x2="264" y1="551.8281" y2="551.8281"/></g><!--MD5=[fc7123defb831ecdd44b2d9bcef6cceb]
class Question--><g id="elem_Question"><rect codeLine="28" fill="#F1F1F1" height="118.4375" id="Question" rx="2.5" ry="2.5" style="stroke:#181818;stroke-width:0.5;" width="89" x="153.5" y="699"/><ellipse cx="168.5" cy="715" fill="#ADD1B2" rx="11" ry="11" style="stroke:#181818;stroke-width:1.0;"/><path d="M171.2656,710.875 Q171.4219,710.6563 171.6094,710.5469 Q171.7969,710.4375 172.0156,710.4375 Q172.3906,710.4375 172.625,710.7031 Q172.8594,710.9531 172.8594,711.5625 L172.8594,713.0156 Q172.8594,713.625 172.625,713.8906 Q172.3906,714.1563 172.0156,714.1563 Q171.6719,714.1563 171.4688,713.9531 Q171.2656,713.7656 171.1563,713.25 Q171.1094,712.8906 170.9219,712.7031 Q170.5938,712.3281 169.9844,712.1094 Q169.375,711.8906 168.75,711.8906 Q167.9844,711.8906 167.3438,712.2188 Q166.7188,712.5469 166.2188,713.2969 Q165.7344,714.0469 165.7344,715.0781 L165.7344,716.1719 Q165.7344,717.4063 166.625,718.2344 Q167.5156,719.0469 169.1094,719.0469 Q170.0469,719.0469 170.7031,718.7969 Q171.0938,718.6406 171.5156,718.2031 Q171.7813,717.9375 171.9219,717.8594 Q172.0781,717.7813 172.2813,717.7813 Q172.6094,717.7813 172.8594,718.0469 Q173.125,718.2969 173.125,718.6406 Q173.125,718.9844 172.7813,719.3906 Q172.2813,719.9688 171.4844,720.2969 Q170.4063,720.75 169.1094,720.75 Q167.5938,720.75 166.3906,720.125 Q165.4063,719.625 164.7188,718.5625 Q164.0313,717.4844 164.0313,716.2031 L164.0313,715.0469 Q164.0313,713.7188 164.6406,712.5781 Q165.2656,711.4219 166.3594,710.8125 Q167.4531,710.1875 168.6875,710.1875 Q169.4219,710.1875 170.0625,710.3594 Q170.7188,710.5156 171.2656,710.875 Z " fill="#000000"/><text fill="#000000" font-family="sans-serif" font-size="14" lengthAdjust="spacing" textLength="57" x="182.5" y="720.7285">Question</text><line style="stroke:#181818;stroke-width:0.5;" x1="154.5" x2="241.5" y1="731" y2="731"/><text fill="#000000" font-family="sans-serif" font-size="14" lengthAdjust="spacing" textLength="28" x="159.5" y="749.5332">date</text><text fill="#000000" font-family="sans-serif" font-size="14" lengthAdjust="spacing" textLength="71" x="159.5" y="767.1426">isReviewed</text><text fill="#000000" font-family="sans-serif" font-size="14" lengthAdjust="spacing" textLength="48" x="159.5" y="784.752">isPublic</text><text fill="#000000" font-family="sans-serif" font-size="14" lengthAdjust="spacing" textLength="12" x="159.5" y="802.3613">...</text><line style="stroke:#181818;stroke-width:0.5;" x1="154.5" x2="241.5" y1="809.4375" y2="809.4375"/></g><!--MD5=[a61a298976b7d1d94498f45c2ebfa10b]
class Statement--><g id="elem_Statement"><rect codeLine="35" fill="#F1F1F1" height="48" id="Statement" rx="2.5" ry="2.5" style="stroke:#181818;stroke-width:0.5;" width="96" x="150" y="878"/><ellipse cx="165" cy="894" fill="#ADD1B2" rx="11" ry="11" style="stroke:#181818;stroke-width:1.0;"/><path d="M167.7656,889.875 Q167.9219,889.6563 168.1094,889.5469 Q168.2969,889.4375 168.5156,889.4375 Q168.8906,889.4375 169.125,889.7031 Q169.3594,889.9531 169.3594,890.5625 L169.3594,892.0156 Q169.3594,892.625 169.125,892.8906 Q168.8906,893.1563 168.5156,893.1563 Q168.1719,893.1563 167.9688,892.9531 Q167.7656,892.7656 167.6563,892.25 Q167.6094,891.8906 167.4219,891.7031 Q167.0938,891.3281 166.4844,891.1094 Q165.875,890.8906 165.25,890.8906 Q164.4844,890.8906 163.8438,891.2188 Q163.2188,891.5469 162.7188,892.2969 Q162.2344,893.0469 162.2344,894.0781 L162.2344,895.1719 Q162.2344,896.4063 163.125,897.2344 Q164.0156,898.0469 165.6094,898.0469 Q166.5469,898.0469 167.2031,897.7969 Q167.5938,897.6406 168.0156,897.2031 Q168.2813,896.9375 168.4219,896.8594 Q168.5781,896.7813 168.7813,896.7813 Q169.1094,896.7813 169.3594,897.0469 Q169.625,897.2969 169.625,897.6406 Q169.625,897.9844 169.2813,898.3906 Q168.7813,898.9688 167.9844,899.2969 Q166.9063,899.75 165.6094,899.75 Q164.0938,899.75 162.8906,899.125 Q161.9063,898.625 161.2188,897.5625 Q160.5313,896.4844 160.5313,895.2031 L160.5313,894.0469 Q160.5313,892.7188 161.1406,891.5781 Q161.7656,890.4219 162.8594,889.8125 Q163.9531,889.1875 165.1875,889.1875 Q165.9219,889.1875 166.5625,889.3594 Q167.2188,889.5156 167.7656,889.875 Z " fill="#000000"/><text fill="#000000" font-family="sans-serif" font-size="14" lengthAdjust="spacing" textLength="64" x="179" y="899.7285">Statement</text><line style="stroke:#181818;stroke-width:0.5;" x1="151" x2="245" y1="910" y2="910"/><line style="stroke:#181818;stroke-width:0.5;" x1="151" x2="245" y1="918" y2="918"/></g><!--MD5=[f9fadfa5a66b7e5a67b370cd443ffe52]
class Answer--><g id="elem_Answer"><rect codeLine="37" fill="#F1F1F1" height="48" id="Answer" rx="2.5" ry="2.5" style="stroke:#181818;stroke-width:0.5;" width="78" x="281" y="878"/><ellipse cx="296" cy="894" fill="#ADD1B2" rx="11" ry="11" style="stroke:#181818;stroke-width:1.0;"/><path d="M298.7656,889.875 Q298.9219,889.6563 299.1094,889.5469 Q299.2969,889.4375 299.5156,889.4375 Q299.8906,889.4375 300.125,889.7031 Q300.3594,889.9531 300.3594,890.5625 L300.3594,892.0156 Q300.3594,892.625 300.125,892.8906 Q299.8906,893.1563 299.5156,893.1563 Q299.1719,893.1563 298.9688,892.9531 Q298.7656,892.7656 298.6563,892.25 Q298.6094,891.8906 298.4219,891.7031 Q298.0938,891.3281 297.4844,891.1094 Q296.875,890.8906 296.25,890.8906 Q295.4844,890.8906 294.8438,891.2188 Q294.2188,891.5469 293.7188,892.2969 Q293.2344,893.0469 293.2344,894.0781 L293.2344,895.1719 Q293.2344,896.4063 294.125,897.2344 Q295.0156,898.0469 296.6094,898.0469 Q297.5469,898.0469 298.2031,897.7969 Q298.5938,897.6406 299.0156,897.2031 Q299.2813,896.9375 299.4219,896.8594 Q299.5781,896.7813 299.7813,896.7813 Q300.1094,896.7813 300.3594,897.0469 Q300.625,897.2969 300.625,897.6406 Q300.625,897.9844 300.2813,898.3906 Q299.7813,898.9688 298.9844,899.2969 Q297.9063,899.75 296.6094,899.75 Q295.0938,899.75 293.8906,899.125 Q292.9063,898.625 292.2188,897.5625 Q291.5313,896.4844 291.5313,895.2031 L291.5313,894.0469 Q291.5313,892.7188 292.1406,891.5781 Q292.7656,890.4219 293.8594,889.8125 Q294.9531,889.1875 296.1875,889.1875 Q296.9219,889.1875 297.5625,889.3594 Q298.2188,889.5156 298.7656,889.875 Z " fill="#000000"/><text fill="#000000" font-family="sans-serif" font-size="14" lengthAdjust="spacing" textLength="46" x="310" y="899.7285">Answer</text><line style="stroke:#181818;stroke-width:0.5;" x1="282" x2="358" y1="910" y2="910"/><line style="stroke:#181818;stroke-width:0.5;" x1="282" x2="358" y1="918" y2="918"/></g><!--MD5=[bc629657279eaa9349f412646650f2c5]
class Correct--><g id="elem_Correct"><rect codeLine="39" fill="#F1F1F1" height="48" id="Correct" rx="2.5" ry="2.5" style="stroke:#181818;stroke-width:0.5;" width="79" x="240.5" y="987"/><ellipse cx="255.5" cy="1003" fill="#ADD1B2" rx="11" ry="11" style="stroke:#181818;stroke-width:1.0;"/><path d="M258.2656,998.875 Q258.4219,998.6563 258.6094,998.5469 Q258.7969,998.4375 259.0156,998.4375 Q259.3906,998.4375 259.625,998.7031 Q259.8594,998.9531 259.8594,999.5625 L259.8594,1001.0156 Q259.8594,1001.625 259.625,1001.8906 Q259.3906,1002.1563 259.0156,1002.1563 Q258.6719,1002.1563 258.4688,1001.9531 Q258.2656,1001.7656 258.1563,1001.25 Q258.1094,1000.8906 257.9219,1000.7031 Q257.5938,1000.3281 256.9844,1000.1094 Q256.375,999.8906 255.75,999.8906 Q254.9844,999.8906 254.3438,1000.2188 Q253.7188,1000.5469 253.2188,1001.2969 Q252.7344,1002.0469 252.7344,1003.0781 L252.7344,1004.1719 Q252.7344,1005.4063 253.625,1006.2344 Q254.5156,1007.0469 256.1094,1007.0469 Q257.0469,1007.0469 257.7031,1006.7969 Q258.0938,1006.6406 258.5156,1006.2031 Q258.7813,1005.9375 258.9219,1005.8594 Q259.0781,1005.7813 259.2813,1005.7813 Q259.6094,1005.7813 259.8594,1006.0469 Q260.125,1006.2969 260.125,1006.6406 Q260.125,1006.9844 259.7813,1007.3906 Q259.2813,1007.9688 258.4844,1008.2969 Q257.4063,1008.75 256.1094,1008.75 Q254.5938,1008.75 253.3906,1008.125 Q252.4063,1007.625 251.7188,1006.5625 Q251.0313,1005.4844 251.0313,1004.2031 L251.0313,1003.0469 Q251.0313,1001.7188 251.6406,1000.5781 Q252.2656,999.4219 253.3594,998.8125 Q254.4531,998.1875 255.6875,998.1875 Q256.4219,998.1875 257.0625,998.3594 Q257.7188,998.5156 258.2656,998.875 Z " fill="#000000"/><text fill="#000000" font-family="sans-serif" font-size="14" lengthAdjust="spacing" textLength="47" x="269.5" y="1008.7285">Correct</text><line style="stroke:#181818;stroke-width:0.5;" x1="241.5" x2="318.5" y1="1019" y2="1019"/><line style="stroke:#181818;stroke-width:0.5;" x1="241.5" x2="318.5" y1="1027" y2="1027"/></g><!--MD5=[37923dc032bbfca87d4413e584fa2cda]
class Incorrect--><g id="elem_Incorrect"><rect codeLine="41" fill="#F1F1F1" height="48" id="Incorrect" rx="2.5" ry="2.5" style="stroke:#181818;stroke-width:0.5;" width="87" x="354.5" y="987"/><ellipse cx="369.5" cy="1003" fill="#ADD1B2" rx="11" ry="11" style="stroke:#181818;stroke-width:1.0;"/><path d="M372.2656,998.875 Q372.4219,998.6563 372.6094,998.5469 Q372.7969,998.4375 373.0156,998.4375 Q373.3906,998.4375 373.625,998.7031 Q373.8594,998.9531 373.8594,999.5625 L373.8594,1001.0156 Q373.8594,1001.625 373.625,1001.8906 Q373.3906,1002.1563 373.0156,1002.1563 Q372.6719,1002.1563 372.4688,1001.9531 Q372.2656,1001.7656 372.1563,1001.25 Q372.1094,1000.8906 371.9219,1000.7031 Q371.5938,1000.3281 370.9844,1000.1094 Q370.375,999.8906 369.75,999.8906 Q368.9844,999.8906 368.3438,1000.2188 Q367.7188,1000.5469 367.2188,1001.2969 Q366.7344,1002.0469 366.7344,1003.0781 L366.7344,1004.1719 Q366.7344,1005.4063 367.625,1006.2344 Q368.5156,1007.0469 370.1094,1007.0469 Q371.0469,1007.0469 371.7031,1006.7969 Q372.0938,1006.6406 372.5156,1006.2031 Q372.7813,1005.9375 372.9219,1005.8594 Q373.0781,1005.7813 373.2813,1005.7813 Q373.6094,1005.7813 373.8594,1006.0469 Q374.125,1006.2969 374.125,1006.6406 Q374.125,1006.9844 373.7813,1007.3906 Q373.2813,1007.9688 372.4844,1008.2969 Q371.4063,1008.75 370.1094,1008.75 Q368.5938,1008.75 367.3906,1008.125 Q366.4063,1007.625 365.7188,1006.5625 Q365.0313,1005.4844 365.0313,1004.2031 L365.0313,1003.0469 Q365.0313,1001.7188 365.6406,1000.5781 Q366.2656,999.4219 367.3594,998.8125 Q368.4531,998.1875 369.6875,998.1875 Q370.4219,998.1875 371.0625,998.3594 Q371.7188,998.5156 372.2656,998.875 Z " fill="#000000"/><text fill="#000000" font-family="sans-serif" font-size="14" lengthAdjust="spacing" textLength="55" x="383.5" y="1008.7285">Incorrect</text><line style="stroke:#181818;stroke-width:0.5;" x1="355.5" x2="440.5" y1="1019" y2="1019"/><line style="stroke:#181818;stroke-width:0.5;" x1="355.5" x2="440.5" y1="1027" y2="1027"/></g><!--MD5=[b355d11dc5a9142e22f9a644da54834e]
class Explication--><g id="elem_Explication"><rect codeLine="43" fill="#F1F1F1" height="48" id="Explication" rx="2.5" ry="2.5" style="stroke:#181818;stroke-width:0.5;" width="99" x="348.5" y="1096"/><ellipse cx="363.5" cy="1112" fill="#ADD1B2" rx="11" ry="11" style="stroke:#181818;stroke-width:1.0;"/><path d="M366.2656,1107.875 Q366.4219,1107.6563 366.6094,1107.5469 Q366.7969,1107.4375 367.0156,1107.4375 Q367.3906,1107.4375 367.625,1107.7031 Q367.8594,1107.9531 367.8594,1108.5625 L367.8594,1110.0156 Q367.8594,1110.625 367.625,1110.8906 Q367.3906,1111.1563 367.0156,1111.1563 Q366.6719,1111.1563 366.4688,1110.9531 Q366.2656,1110.7656 366.1563,1110.25 Q366.1094,1109.8906 365.9219,1109.7031 Q365.5938,1109.3281 364.9844,1109.1094 Q364.375,1108.8906 363.75,1108.8906 Q362.9844,1108.8906 362.3438,1109.2188 Q361.7188,1109.5469 361.2188,1110.2969 Q360.7344,1111.0469 360.7344,1112.0781 L360.7344,1113.1719 Q360.7344,1114.4063 361.625,1115.2344 Q362.5156,1116.0469 364.1094,1116.0469 Q365.0469,1116.0469 365.7031,1115.7969 Q366.0938,1115.6406 366.5156,1115.2031 Q366.7813,1114.9375 366.9219,1114.8594 Q367.0781,1114.7813 367.2813,1114.7813 Q367.6094,1114.7813 367.8594,1115.0469 Q368.125,1115.2969 368.125,1115.6406 Q368.125,1115.9844 367.7813,1116.3906 Q367.2813,1116.9688 366.4844,1117.2969 Q365.4063,1117.75 364.1094,1117.75 Q362.5938,1117.75 361.3906,1117.125 Q360.4063,1116.625 359.7188,1115.5625 Q359.0313,1114.4844 359.0313,1113.2031 L359.0313,1112.0469 Q359.0313,1110.7188 359.6406,1109.5781 Q360.2656,1108.4219 361.3594,1107.8125 Q362.4531,1107.1875 363.6875,1107.1875 Q364.4219,1107.1875 365.0625,1107.3594 Q365.7188,1107.5156 366.2656,1107.875 Z " fill="#000000"/><text fill="#000000" font-family="sans-serif" font-size="14" lengthAdjust="spacing" textLength="67" x="377.5" y="1117.7285">Explication</text><line style="stroke:#181818;stroke-width:0.5;" x1="349.5" x2="446.5" y1="1128" y2="1128"/><line style="stroke:#181818;stroke-width:0.5;" x1="349.5" x2="446.5" y1="1136" y2="1136"/></g><!--MD5=[12743b4aa7b2bf3d8e383437eb99df68]
link Community to User--><g id="link_Community_User"><path codeLine="46" d="M318.7647,66.0514 C318.7647,66.0514 306.36,92.08 300.79,103.78 " fill="none" id="Community-User" style="stroke:#181818;stroke-width:1.0;"/><polygon fill="#181818" points="295.04,115.83,302.5181,109.4208,297.1877,111.3148,295.2938,105.9844,295.04,115.83" style="stroke:#181818;stroke-width:1.0;"/><line style="stroke:#181818;stroke-width:1.0;" x1="297.1877" x2="300.64" y1="111.3148" y2="104.095"/><polygon fill="#181818" points="323.93,55.22,317.7369,58.9139,318.7647,66.0514,324.9578,62.3575,323.93,55.22" style="stroke:#181818;stroke-width:1.0;"/><text fill="#000000" font-family="sans-serif" font-size="13" lengthAdjust="spacing" textLength="20" x="275.3065" y="105.1266">1..*</text></g><!--MD5=[d52df4b853bdc5342fb2d805f548bc5a]
link Community to ReviewedQuestions--><g id="link_Community_ReviewedQuestions"><path codeLine="47" d="M345.4608,66.5441 C345.4608,66.5441 370.33,148.72 380.22,181.4 " fill="none" id="Community-ReviewedQuestions" style="stroke:#181818;stroke-width:1.0;"/><polygon fill="#181818" points="384.02,193.94,385.2374,184.1667,382.5697,189.155,377.5814,186.4872,384.02,193.94" style="stroke:#181818;stroke-width:1.0;"/><line style="stroke:#181818;stroke-width:1.0;" x1="382.5697" x2="380.255" y1="189.155" y2="181.5"/><polygon fill="#181818" points="341.98,55.06,339.8924,61.9623,345.4608,66.5441,347.5484,59.6418,341.98,55.06" style="stroke:#181818;stroke-width:1.0;"/></g><!--MD5=[7016372388c7ac2652db8515880aaa11]
reverse link User to Editor--><g id="link_User_Editor"><path codeLine="50" d="M284,184.37 C284,212.74 284,248.71 284,271.79 " fill="none" id="User-backto-Editor" style="stroke:#181818;stroke-width:1.0;"/><polygon fill="none" points="277,184.06,284,164.06,291,184.06,277,184.06" style="stroke:#181818;stroke-width:1.0;"/></g><!--MD5=[60e4945ab784e9eaf709bb3168dd25a4]
reverse link Editor to Reviewer--><g id="link_Editor_Reviewer"><path codeLine="51" d="M292.05,340.09 C294.66,354.01 297.44,368.92 299.67,380.83 " fill="none" id="Editor-backto-Reviewer" style="stroke:#181818;stroke-width:1.0;"/><polygon fill="none" points="285.13,341.16,288.34,320.22,298.9,338.59,285.13,341.16" style="stroke:#181818;stroke-width:1.0;"/></g><!--MD5=[d8a655080454bab67f6091cbff4cee86]
reverse link User to Executor--><g id="link_User_Executor"><path codeLine="52" d="M254.45,180.23 C232.65,209.17 203.73,247.57 185.49,271.79 " fill="none" id="User-backto-Executor" style="stroke:#181818;stroke-width:1.0;"/><polygon fill="none" points="249.01,175.82,266.63,164.06,260.19,184.24,249.01,175.82" style="stroke:#181818;stroke-width:1.0;"/></g><!--MD5=[12c2d56d27338edb90331faec7f87d5c]
link PendingReviewQuestions to Question--><g id="link_PendingReviewQuestions_Question"><path codeLine="54" d="M314.8506,646.3745 C314.8506,646.3745 272.95,686.05 252.32,705.58 " fill="none" id="PendingReviewQuestions-Question" style="stroke:#181818;stroke-width:1.0;"/><polygon fill="#181818" points="242.72,714.67,252.0051,711.3857,246.3503,711.2319,246.5041,705.5771,242.72,714.67" style="stroke:#181818;stroke-width:1.0;"/><line style="stroke:#181818;stroke-width:1.0;" x1="246.3503" x2="252.16" y1="711.2319" y2="705.735"/><polygon fill="#181818" points="323.57,638.13,316.4621,639.3458,314.8506,646.3745,321.9585,645.1587,323.57,638.13" style="stroke:#181818;stroke-width:1.0;"/></g><!--MD5=[0bcbc359f19ed69453d76421891bdbfe]
link ReviewedQuestions to PendingReviewQuestions--><g id="link_ReviewedQuestions_PendingReviewQuestions"><path codeLine="55" d="M395.6045,254.2999 C395.6045,254.2999 411.64,453.07 380,560 C378.15,566.24 375.39,572.5 372.24,578.41 " fill="none" id="ReviewedQuestions-PendingReviewQuestions" style="stroke:#181818;stroke-width:1.0;"/><polygon fill="#181818" points="365.43,589.95,373.4508,584.2345,367.9725,585.6447,366.5623,580.1665,365.43,589.95" style="stroke:#181818;stroke-width:1.0;"/><line style="stroke:#181818;stroke-width:1.0;" x1="367.9725" x2="372.04" y1="585.6447" y2="578.755"/><polygon fill="#181818" points="394.22,242.38,390.939,248.8014,395.6045,254.2999,398.8855,247.8784,394.22,242.38" style="stroke:#181818;stroke-width:1.0;"/></g><!--MD5=[3e23c87a985df3c2da55c80a43bfcd45]
link Executor to Evaluation--><g id="link_Executor_Evaluation"><path codeLine="57" d="M154.11,320.22 C144.22,336.76 130.87,359.07 120.44,376.51 " fill="none" id="Executor-to-Evaluation" style="stroke:#181818;stroke-width:1.0;"/><polygon fill="#181818" points="117.86,380.83,125.9121,375.1587,120.4262,376.5388,119.0461,371.0528,117.86,380.83" style="stroke:#181818;stroke-width:1.0;"/><text fill="#000000" font-family="sans-serif" font-size="13" lengthAdjust="spacing" textLength="20" x="98.8491" y="370.1266">0..*</text></g><!--MD5=[7ea0c49f743e358ac875b85df2ad47d3]
link Evaluation to Test--><g id="link_Evaluation_Test"><path codeLine="58" d="M104.9,429.34 C106.38,467.57 109.31,543.38 110.9,584.64 " fill="none" id="Evaluation-to-Test" style="stroke:#181818;stroke-width:1.0;"/><polygon fill="#181818" points="111.1,589.74,114.7632,580.5977,110.9144,584.7434,106.7687,580.8947,111.1,589.74" style="stroke:#181818;stroke-width:1.0;"/></g><!--MD5=[dbcaedebb070bbdd4f1f81456a517a7e]
link Editor to Concept--><g id="link_Editor_Concept"><path codeLine="60" d="M270.82,320.02 C261.67,336.61 249.61,359.74 241,381 C231.5,404.43 223.01,431.08 216.4,453.94 " fill="none" id="Editor-to-Concept" style="stroke:#181818;stroke-width:1.0;stroke-dasharray:7.0,7.0;"/><polygon fill="#181818" points="215.01,458.75,221.3493,451.2126,216.3968,453.9462,213.6632,448.9937,215.01,458.75" style="stroke:#181818;stroke-width:1.0;"/></g><!--MD5=[207a0f949a870d7c1e6d57d91b948c31]
link Concept to Question--><g id="link_Concept_Question"><path codeLine="61" d="M201.2,560.09 C200.57,598.59 199.7,652.24 199.03,693.82 " fill="none" id="Concept-to-Question" style="stroke:#181818;stroke-width:1.0;stroke-dasharray:7.0,7.0;"/><polygon fill="#181818" points="198.94,698.83,203.0941,689.9001,199.0259,693.8307,195.0953,689.7626,198.94,698.83" style="stroke:#181818;stroke-width:1.0;"/></g><!--MD5=[796801260e32b64433c17f058a688d43]
link Reviewer to PendingReviewQuestions--><g id="link_Reviewer_PendingReviewQuestions"><path codeLine="62" d="M308,429.06 C313.36,459.26 323.41,513.8 334,560 C335.87,568.14 338.1,576.93 340.23,584.97 " fill="none" id="Reviewer-to-PendingReviewQuestions" style="stroke:#181818;stroke-width:1.0;stroke-dasharray:7.0,7.0;"/><polygon fill="#181818" points="341.53,589.86,343.0796,580.1338,340.2435,585.0284,335.3489,582.1923,341.53,589.86" style="stroke:#181818;stroke-width:1.0;"/><text fill="#000000" font-family="sans-serif" font-size="13" lengthAdjust="spacing" textLength="40" x="335" y="514.9951">Review</text></g><!--MD5=[bb3d97f09542411db1527b071cca8268]
link Test to Question--><g id="link_Test_Question"><path codeLine="64" d="M132.2285,648.3931 C132.2285,648.3931 147.99,674.43 156.08,687.79 " fill="none" id="Test-Question" style="stroke:#181818;stroke-width:1.0;"/><polygon fill="#181818" points="162.84,698.94,161.6064,689.1687,160.253,694.6613,154.7604,693.3079,162.84,698.94" style="stroke:#181818;stroke-width:1.0;"/><line style="stroke:#181818;stroke-width:1.0;" x1="160.253" x2="156.105" y1="694.6613" y2="687.825"/><polygon fill="#181818" points="126.01,638.13,125.6982,645.3344,132.2285,648.3931,132.5403,641.1887,126.01,638.13" style="stroke:#181818;stroke-width:1.0;"/><text fill="#000000" font-family="sans-serif" font-size="13" lengthAdjust="spacing" textLength="27" x="129.9096" y="688.2569">10..*</text></g><!--MD5=[6eeca14f8a2ed45d1117f4ed4af75b7e]
link Question to Statement--><g id="link_Question_Statement"><path codeLine="65" d="M198,829.17 C198,829.17 198,854.21 198,864.8 " fill="none" id="Question-Statement" style="stroke:#181818;stroke-width:1.0;"/><polygon fill="#181818" points="198,877.82,202,868.82,198,872.82,194,868.82,198,877.82" style="stroke:#181818;stroke-width:1.0;"/><line style="stroke:#181818;stroke-width:1.0;" x1="198" x2="198" y1="872.82" y2="864.82"/><polygon fill="#181818" points="198,817.17,194,823.17,198,829.17,202,823.17,198,817.17" style="stroke:#181818;stroke-width:1.0;"/></g><!--MD5=[6926d5174a3032b1dcc6c5d6f900c16b]
link Question to Answer--><g id="link_Question_Answer"><path codeLine="66" d="M250.5614,820.1708 C250.5614,820.1708 279.53,853.9 291.5,867.83 " fill="none" id="Question-Answer" style="stroke:#181818;stroke-width:1.0;"/><polygon fill="#181818" points="300.14,877.89,297.3075,868.4572,296.8811,874.098,291.2403,873.6715,300.14,877.89" style="stroke:#181818;stroke-width:1.0;"/><line style="stroke:#181818;stroke-width:1.0;" x1="296.8811" x2="291.67" y1="874.098" y2="868.025"/><polygon fill="#181818" points="242.74,811.07,243.6171,818.2276,250.5614,820.1708,249.6843,813.0133,242.74,811.07" style="stroke:#181818;stroke-width:1.0;"/><text fill="#000000" font-family="sans-serif" font-size="13" lengthAdjust="spacing" textLength="20" x="272.4884" y="867.202">1..*</text></g><!--MD5=[b1491d38e87214202fddacec717a9c8d]
reverse link Answer to Correct--><g id="link_Answer_Correct"><path codeLine="67" d="M304.26,945.1 C298.95,959.31 293.22,974.64 288.66,986.83 " fill="none" id="Answer-backto-Correct" style="stroke:#181818;stroke-width:1.0;"/><polygon fill="none" points="297.76,942.5,311.32,926.22,310.87,947.4,297.76,942.5" style="stroke:#181818;stroke-width:1.0;"/></g><!--MD5=[a6181c8180a1587156cddad319d63c9e]
reverse link Answer to Incorrect--><g id="link_Answer_Incorrect"><path codeLine="68" d="M348.92,942.67 C359.76,957.54 371.71,973.94 381.11,986.83 " fill="none" id="Answer-backto-Incorrect" style="stroke:#181818;stroke-width:1.0;"/><polygon fill="none" points="343.05,946.5,336.92,926.22,354.36,938.26,343.05,946.5" style="stroke:#181818;stroke-width:1.0;"/></g><!--MD5=[87b642d9eeba74d93f27582af4f9048f]
link Incorrect to Explication--><g id="link_Incorrect_Explication"><path codeLine="69" d="M398,1035.22 C398,1051.48 398,1073.32 398,1090.62 " fill="none" id="Incorrect-to-Explication" style="stroke:#181818;stroke-width:1.0;"/><polygon fill="#181818" points="398,1095.83,402,1086.83,398,1090.83,394,1086.83,398,1095.83" style="stroke:#181818;stroke-width:1.0;"/></g><!--MD5=[98df2f76ab45609c36aa45d6b9c3faee]
link Question to Category--><g id="link_Question_Category"><path codeLine="71" d="M144.8034,810.7525 C144.8034,810.7525 102.91,851.49 85.63,868.29 " fill="none" id="Question-Category" style="stroke:#181818;stroke-width:1.0;"/><polygon fill="#181818" points="75.99,877.67,85.2283,874.2562,79.5719,874.1815,79.6466,868.5251,75.99,877.67" style="stroke:#181818;stroke-width:1.0;"/><line style="stroke:#181818;stroke-width:1.0;" x1="79.5719" x2="85.305" y1="874.1815" y2="868.61"/><polygon fill="#181818" points="153.4,802.38,146.3109,803.7007,144.8034,810.7525,151.8925,809.4318,153.4,802.38" style="stroke:#181818;stroke-width:1.0;"/></g><!--MD5=[a5725b0440277e7b298212d4ab098951]
link Category to Category--><g id="link_Category_Category"><path codeLine="72" d="M109.2281,892.1712 C109.2281,892.1712 132,896.46 132,902 C132,907.54 123.03,910.8 110.6,911.8 " fill="none" id="Category-Category" style="stroke:#181818;stroke-width:1.0;"/><polygon fill="#181818" points="97.23,912.04,106.299,915.881,102.2292,911.952,106.1582,907.8822,97.23,912.04" style="stroke:#181818;stroke-width:1.0;"/><line style="stroke:#181818;stroke-width:1.0;" x1="102.2292" x2="110.23" y1="911.952" y2="911.805"/><polygon fill="#181818" points="97.23,891.96,103.1587,896.065,109.2281,892.1712,103.2995,888.0662,97.23,891.96" style="stroke:#181818;stroke-width:1.0;"/><text fill="#000000" font-family="sans-serif" font-size="13" lengthAdjust="spacing" textLength="20" x="104.9967" y="909.8467">0..*</text></g><!--MD5=[12b411bde5700f43054fb6f6125cdd73]
@startuml OpoTestDomain

class Community

class User

class Reviewer

class Editor 

class Executor

class Evaluation

class Category 

class Test

class PendingReviewQuestions

class ReviewedQuestions

class Concept {
    correctDefinition
    incorrectDefinition
    strategy
}

class Question {
    date
    isReviewed
    isPublic
    ...
}

class Statement

class Answer 

class Correct

Class Incorrect

Class Explication


Community *- -> "1..*" User
Community *- -> ReviewedQuestions


User <|- - Editor
Editor <|- -  Reviewer
User <|- - Executor

PendingReviewQuestions *- -> Question
ReviewedQuestions *- -> PendingReviewQuestions

Executor - -> "0..*" Evaluation
Evaluation - -> Test

Editor ..> Concept
Concept ..> Question
Reviewer ..> PendingReviewQuestions : Review

Test *- -> "10..*" Question
Question *- ->   Statement
Question *- -> "1..*" Answer
Answer <|- - Correct
Answer <|- - Incorrect
Incorrect - -> Explication

Question *- -> Category
Category *- ->"0..*" Category







@end

PlantUML version 1.2022.7(Mon Aug 22 18:01:30 WEST 2022)
(GPL source distribution)
Java Runtime: OpenJDK Runtime Environment
JVM: OpenJDK 64-Bit Server VM
Default Encoding: Cp1252
Language: es
Country: ES
--></g></svg>