<?xml version="1.0" encoding="UTF-8" standalone="no"?><svg xmlns="http://www.w3.org/2000/svg" xmlns:xlink="http://www.w3.org/1999/xlink" contentStyleType="text/css" height="710px" preserveAspectRatio="none" style="width:498px;height:710px;background:#FFFFFF;" version="1.1" viewBox="0 0 498 710" width="498px" zoomAndPan="magnify"><defs/><g><!--MD5=[668d633d11bedc8952753581a2dda3db]
class Community--><g id="elem_Community"><rect codeLine="2" fill="#F1F1F1" height="48" id="Community" rx="2.5" ry="2.5" style="stroke:#181818;stroke-width:0.5;" width="102" x="264.5" y="7"/><ellipse cx="279.5" cy="23" fill="#ADD1B2" rx="11" ry="11" style="stroke:#181818;stroke-width:1.0;"/><path d="M282.2656,18.875 Q282.4219,18.6563 282.6094,18.5469 Q282.7969,18.4375 283.0156,18.4375 Q283.3906,18.4375 283.625,18.7031 Q283.8594,18.9531 283.8594,19.5625 L283.8594,21.0156 Q283.8594,21.625 283.625,21.8906 Q283.3906,22.1563 283.0156,22.1563 Q282.6719,22.1563 282.4688,21.9531 Q282.2656,21.7656 282.1563,21.25 Q282.1094,20.8906 281.9219,20.7031 Q281.5938,20.3281 280.9844,20.1094 Q280.375,19.8906 279.75,19.8906 Q278.9844,19.8906 278.3438,20.2188 Q277.7188,20.5469 277.2188,21.2969 Q276.7344,22.0469 276.7344,23.0781 L276.7344,24.1719 Q276.7344,25.4063 277.625,26.2344 Q278.5156,27.0469 280.1094,27.0469 Q281.0469,27.0469 281.7031,26.7969 Q282.0938,26.6406 282.5156,26.2031 Q282.7813,25.9375 282.9219,25.8594 Q283.0781,25.7813 283.2813,25.7813 Q283.6094,25.7813 283.8594,26.0469 Q284.125,26.2969 284.125,26.6406 Q284.125,26.9844 283.7813,27.3906 Q283.2813,27.9688 282.4844,28.2969 Q281.4063,28.75 280.1094,28.75 Q278.5938,28.75 277.3906,28.125 Q276.4063,27.625 275.7188,26.5625 Q275.0313,25.4844 275.0313,24.2031 L275.0313,23.0469 Q275.0313,21.7188 275.6406,20.5781 Q276.2656,19.4219 277.3594,18.8125 Q278.4531,18.1875 279.6875,18.1875 Q280.4219,18.1875 281.0625,18.3594 Q281.7188,18.5156 282.2656,18.875 Z " fill="#000000"/><text fill="#000000" font-family="sans-serif" font-size="14" lengthAdjust="spacing" textLength="70" x="293.5" y="28.7285">Community</text><line style="stroke:#181818;stroke-width:0.5;" x1="265.5" x2="365.5" y1="39" y2="39"/><line style="stroke:#181818;stroke-width:0.5;" x1="265.5" x2="365.5" y1="47" y2="47"/></g><g id="elem_GMN3"><path d="M6,18 L6,44.3516 A0,0 0 0 0 6,44.3516 L229,44.3516 A0,0 0 0 0 229,44.3516 L229,36 L264.3,31 L229,28 L229,28 L219,18 L6,18 A0,0 0 0 0 6,18 " fill="#FEFFDD" style="stroke:#181818;stroke-width:0.5;"/><path d="M219,18 L219,28 L229,28 L219,18 " fill="#FEFFDD" style="stroke:#181818;stroke-width:0.5;"/><text fill="#000000" font-family="sans-serif" font-size="13" lengthAdjust="spacing" textLength="202" x="12" y="36.4951">reviewedQuestions&amp;Test availables</text></g><!--MD5=[3fd616f346a44cd59a91eb10b19e157c]
class User--><g id="elem_User"><rect codeLine="5" fill="#F1F1F1" height="48" id="User" rx="2.5" ry="2.5" style="stroke:#181818;stroke-width:0.5;" width="61" x="240" y="115"/><ellipse cx="255" cy="131" fill="#ADD1B2" rx="11" ry="11" style="stroke:#181818;stroke-width:1.0;"/><path d="M257.7656,126.875 Q257.9219,126.6563 258.1094,126.5469 Q258.2969,126.4375 258.5156,126.4375 Q258.8906,126.4375 259.125,126.7031 Q259.3594,126.9531 259.3594,127.5625 L259.3594,129.0156 Q259.3594,129.625 259.125,129.8906 Q258.8906,130.1563 258.5156,130.1563 Q258.1719,130.1563 257.9688,129.9531 Q257.7656,129.7656 257.6563,129.25 Q257.6094,128.8906 257.4219,128.7031 Q257.0938,128.3281 256.4844,128.1094 Q255.875,127.8906 255.25,127.8906 Q254.4844,127.8906 253.8438,128.2188 Q253.2188,128.5469 252.7188,129.2969 Q252.2344,130.0469 252.2344,131.0781 L252.2344,132.1719 Q252.2344,133.4063 253.125,134.2344 Q254.0156,135.0469 255.6094,135.0469 Q256.5469,135.0469 257.2031,134.7969 Q257.5938,134.6406 258.0156,134.2031 Q258.2813,133.9375 258.4219,133.8594 Q258.5781,133.7813 258.7813,133.7813 Q259.1094,133.7813 259.3594,134.0469 Q259.625,134.2969 259.625,134.6406 Q259.625,134.9844 259.2813,135.3906 Q258.7813,135.9688 257.9844,136.2969 Q256.9063,136.75 255.6094,136.75 Q254.0938,136.75 252.8906,136.125 Q251.9063,135.625 251.2188,134.5625 Q250.5313,133.4844 250.5313,132.2031 L250.5313,131.0469 Q250.5313,129.7188 251.1406,128.5781 Q251.7656,127.4219 252.8594,126.8125 Q253.9531,126.1875 255.1875,126.1875 Q255.9219,126.1875 256.5625,126.3594 Q257.2188,126.5156 257.7656,126.875 Z " fill="#000000"/><text fill="#000000" font-family="sans-serif" font-size="14" lengthAdjust="spacing" textLength="29" x="269" y="136.7285">User</text><line style="stroke:#181818;stroke-width:0.5;" x1="241" x2="300" y1="147" y2="147"/><line style="stroke:#181818;stroke-width:0.5;" x1="241" x2="300" y1="155" y2="155"/></g><g id="elem_GMN7"><path d="M134,126 L134,152.3516 A0,0 0 0 0 134,152.3516 L205,152.3516 A0,0 0 0 0 205,152.3516 L205,144 L239.8,139 L205,136 L205,136 L195,126 L134,126 A0,0 0 0 0 134,126 " fill="#FEFFDD" style="stroke:#181818;stroke-width:0.5;"/><path d="M195,126 L195,136 L205,136 L195,126 " fill="#FEFFDD" style="stroke:#181818;stroke-width:0.5;"/><text fill="#000000" font-family="sans-serif" font-size="13" lengthAdjust="spacing" textLength="50" x="140" y="144.4951">myTests</text></g><!--MD5=[559db66c208d2736f857be4b8ed380a2]
class Editor--><g id="elem_Editor"><rect codeLine="8" fill="#F1F1F1" height="48" id="Editor" rx="2.5" ry="2.5" style="stroke:#181818;stroke-width:0.5;" width="69" x="97" y="331"/><ellipse cx="112" cy="347" fill="#ADD1B2" rx="11" ry="11" style="stroke:#181818;stroke-width:1.0;"/><path d="M114.7656,342.875 Q114.9219,342.6563 115.1094,342.5469 Q115.2969,342.4375 115.5156,342.4375 Q115.8906,342.4375 116.125,342.7031 Q116.3594,342.9531 116.3594,343.5625 L116.3594,345.0156 Q116.3594,345.625 116.125,345.8906 Q115.8906,346.1563 115.5156,346.1563 Q115.1719,346.1563 114.9688,345.9531 Q114.7656,345.7656 114.6563,345.25 Q114.6094,344.8906 114.4219,344.7031 Q114.0938,344.3281 113.4844,344.1094 Q112.875,343.8906 112.25,343.8906 Q111.4844,343.8906 110.8438,344.2188 Q110.2188,344.5469 109.7188,345.2969 Q109.2344,346.0469 109.2344,347.0781 L109.2344,348.1719 Q109.2344,349.4063 110.125,350.2344 Q111.0156,351.0469 112.6094,351.0469 Q113.5469,351.0469 114.2031,350.7969 Q114.5938,350.6406 115.0156,350.2031 Q115.2813,349.9375 115.4219,349.8594 Q115.5781,349.7813 115.7813,349.7813 Q116.1094,349.7813 116.3594,350.0469 Q116.625,350.2969 116.625,350.6406 Q116.625,350.9844 116.2813,351.3906 Q115.7813,351.9688 114.9844,352.2969 Q113.9063,352.75 112.6094,352.75 Q111.0938,352.75 109.8906,352.125 Q108.9063,351.625 108.2188,350.5625 Q107.5313,349.4844 107.5313,348.2031 L107.5313,347.0469 Q107.5313,345.7188 108.1406,344.5781 Q108.7656,343.4219 109.8594,342.8125 Q110.9531,342.1875 112.1875,342.1875 Q112.9219,342.1875 113.5625,342.3594 Q114.2188,342.5156 114.7656,342.875 Z " fill="#000000"/><text fill="#000000" font-family="sans-serif" font-size="14" lengthAdjust="spacing" textLength="37" x="126" y="352.7285">Editor</text><line style="stroke:#181818;stroke-width:0.5;" x1="98" x2="165" y1="363" y2="363"/><line style="stroke:#181818;stroke-width:0.5;" x1="98" x2="165" y1="371" y2="371"/></g><!--MD5=[e76a510855fdf825c81877c657b1fc23]
class Reviewer--><g id="elem_Reviewer"><rect codeLine="10" fill="#F1F1F1" height="48" id="Reviewer" rx="2.5" ry="2.5" style="stroke:#181818;stroke-width:0.5;" width="90" x="323.5" y="223"/><ellipse cx="338.5" cy="239" fill="#ADD1B2" rx="11" ry="11" style="stroke:#181818;stroke-width:1.0;"/><path d="M341.2656,234.875 Q341.4219,234.6563 341.6094,234.5469 Q341.7969,234.4375 342.0156,234.4375 Q342.3906,234.4375 342.625,234.7031 Q342.8594,234.9531 342.8594,235.5625 L342.8594,237.0156 Q342.8594,237.625 342.625,237.8906 Q342.3906,238.1563 342.0156,238.1563 Q341.6719,238.1563 341.4688,237.9531 Q341.2656,237.7656 341.1563,237.25 Q341.1094,236.8906 340.9219,236.7031 Q340.5938,236.3281 339.9844,236.1094 Q339.375,235.8906 338.75,235.8906 Q337.9844,235.8906 337.3438,236.2188 Q336.7188,236.5469 336.2188,237.2969 Q335.7344,238.0469 335.7344,239.0781 L335.7344,240.1719 Q335.7344,241.4063 336.625,242.2344 Q337.5156,243.0469 339.1094,243.0469 Q340.0469,243.0469 340.7031,242.7969 Q341.0938,242.6406 341.5156,242.2031 Q341.7813,241.9375 341.9219,241.8594 Q342.0781,241.7813 342.2813,241.7813 Q342.6094,241.7813 342.8594,242.0469 Q343.125,242.2969 343.125,242.6406 Q343.125,242.9844 342.7813,243.3906 Q342.2813,243.9688 341.4844,244.2969 Q340.4063,244.75 339.1094,244.75 Q337.5938,244.75 336.3906,244.125 Q335.4063,243.625 334.7188,242.5625 Q334.0313,241.4844 334.0313,240.2031 L334.0313,239.0469 Q334.0313,237.7188 334.6406,236.5781 Q335.2656,235.4219 336.3594,234.8125 Q337.4531,234.1875 338.6875,234.1875 Q339.4219,234.1875 340.0625,234.3594 Q340.7188,234.5156 341.2656,234.875 Z " fill="#000000"/><text fill="#000000" font-family="sans-serif" font-size="14" lengthAdjust="spacing" textLength="58" x="352.5" y="244.7285">Reviewer</text><line style="stroke:#181818;stroke-width:0.5;" x1="324.5" x2="412.5" y1="255" y2="255"/><line style="stroke:#181818;stroke-width:0.5;" x1="324.5" x2="412.5" y1="263" y2="263"/></g><!--MD5=[2cb47ba637a0d19583e6199456f6ad0b]
class Player--><g id="elem_Player"><rect codeLine="12" fill="#F1F1F1" height="48" id="Player" rx="2.5" ry="2.5" style="stroke:#181818;stroke-width:0.5;" width="72" x="145.5" y="223"/><ellipse cx="160.5" cy="239" fill="#ADD1B2" rx="11" ry="11" style="stroke:#181818;stroke-width:1.0;"/><path d="M163.2656,234.875 Q163.4219,234.6563 163.6094,234.5469 Q163.7969,234.4375 164.0156,234.4375 Q164.3906,234.4375 164.625,234.7031 Q164.8594,234.9531 164.8594,235.5625 L164.8594,237.0156 Q164.8594,237.625 164.625,237.8906 Q164.3906,238.1563 164.0156,238.1563 Q163.6719,238.1563 163.4688,237.9531 Q163.2656,237.7656 163.1563,237.25 Q163.1094,236.8906 162.9219,236.7031 Q162.5938,236.3281 161.9844,236.1094 Q161.375,235.8906 160.75,235.8906 Q159.9844,235.8906 159.3438,236.2188 Q158.7188,236.5469 158.2188,237.2969 Q157.7344,238.0469 157.7344,239.0781 L157.7344,240.1719 Q157.7344,241.4063 158.625,242.2344 Q159.5156,243.0469 161.1094,243.0469 Q162.0469,243.0469 162.7031,242.7969 Q163.0938,242.6406 163.5156,242.2031 Q163.7813,241.9375 163.9219,241.8594 Q164.0781,241.7813 164.2813,241.7813 Q164.6094,241.7813 164.8594,242.0469 Q165.125,242.2969 165.125,242.6406 Q165.125,242.9844 164.7813,243.3906 Q164.2813,243.9688 163.4844,244.2969 Q162.4063,244.75 161.1094,244.75 Q159.5938,244.75 158.3906,244.125 Q157.4063,243.625 156.7188,242.5625 Q156.0313,241.4844 156.0313,240.2031 L156.0313,239.0469 Q156.0313,237.7188 156.6406,236.5781 Q157.2656,235.4219 158.3594,234.8125 Q159.4531,234.1875 160.6875,234.1875 Q161.4219,234.1875 162.0625,234.3594 Q162.7188,234.5156 163.2656,234.875 Z " fill="#000000"/><text fill="#000000" font-family="sans-serif" font-size="14" lengthAdjust="spacing" textLength="40" x="174.5" y="244.7285">Player</text><line style="stroke:#181818;stroke-width:0.5;" x1="146.5" x2="216.5" y1="255" y2="255"/><line style="stroke:#181818;stroke-width:0.5;" x1="146.5" x2="216.5" y1="263" y2="263"/></g><!--MD5=[a96594a83e2ecdc78cbf17c2ddf01934]
class Category--><g id="elem_Category"><rect codeLine="14" fill="#F1F1F1" height="48" id="Category" rx="2.5" ry="2.5" style="stroke:#181818;stroke-width:0.5;" width="90" x="97.5" y="547"/><ellipse cx="112.5" cy="563" fill="#EB937F" rx="11" ry="11" style="stroke:#181818;stroke-width:1.0;"/><path d="M111.3594,563.7969 L111.3594,566.2969 L115.6875,566.2969 L115.6875,565.375 Q115.6875,564.7656 115.9219,564.5 Q116.1719,564.2344 116.5469,564.2344 Q116.9219,564.2344 117.1563,564.5 Q117.3906,564.7656 117.3906,565.375 L117.3906,568 L109.3906,568 Q108.7656,568 108.5,567.7656 Q108.25,567.5313 108.25,567.1406 Q108.25,566.7656 108.5156,566.5313 Q108.7813,566.2969 109.3906,566.2969 L109.6563,566.2969 L109.6563,559.6406 L109.3906,559.6406 Q108.7656,559.6406 108.5,559.4063 Q108.25,559.1719 108.25,558.7813 Q108.25,558.4063 108.5,558.1719 Q108.7656,557.9375 109.3906,557.9375 L117.0156,557.9375 L117.0156,560.5313 Q117.0156,561.1406 116.7813,561.4063 Q116.5625,561.6563 116.1719,561.6563 Q115.7969,561.6563 115.5625,561.4063 Q115.3281,561.1406 115.3281,560.5313 L115.3281,559.6406 L111.3594,559.6406 L111.3594,562.0938 L112.8438,562.0938 Q112.8438,561.4375 112.9688,561.25 Q113.2344,560.8438 113.7031,560.8438 Q114.0781,560.8438 114.3125,561.1094 Q114.5469,561.3594 114.5469,561.9688 L114.5469,563.9375 Q114.5469,564.4844 114.4219,564.6719 Q114.1563,565.0625 113.7031,565.0625 Q113.2344,565.0625 112.9688,564.6563 Q112.8438,564.4688 112.8438,563.7969 L111.3594,563.7969 Z " fill="#000000"/><text fill="#000000" font-family="sans-serif" font-size="14" lengthAdjust="spacing" textLength="58" x="126.5" y="568.7285">Category</text><line style="stroke:#181818;stroke-width:0.5;" x1="98.5" x2="186.5" y1="579" y2="579"/><line style="stroke:#181818;stroke-width:0.5;" x1="98.5" x2="186.5" y1="587" y2="587"/></g><!--MD5=[9c1df00e5aaf042f20970631c477ed7b]
class Subcategory--><g id="elem_Subcategory"><rect codeLine="16" fill="#F1F1F1" height="48" id="Subcategory" rx="2.5" ry="2.5" style="stroke:#181818;stroke-width:0.5;" width="112" x="86.5" y="655"/><ellipse cx="101.5" cy="671" fill="#EB937F" rx="11" ry="11" style="stroke:#181818;stroke-width:1.0;"/><path d="M100.3594,671.7969 L100.3594,674.2969 L104.6875,674.2969 L104.6875,673.375 Q104.6875,672.7656 104.9219,672.5 Q105.1719,672.2344 105.5469,672.2344 Q105.9219,672.2344 106.1563,672.5 Q106.3906,672.7656 106.3906,673.375 L106.3906,676 L98.3906,676 Q97.7656,676 97.5,675.7656 Q97.25,675.5313 97.25,675.1406 Q97.25,674.7656 97.5156,674.5313 Q97.7813,674.2969 98.3906,674.2969 L98.6563,674.2969 L98.6563,667.6406 L98.3906,667.6406 Q97.7656,667.6406 97.5,667.4063 Q97.25,667.1719 97.25,666.7813 Q97.25,666.4063 97.5,666.1719 Q97.7656,665.9375 98.3906,665.9375 L106.0156,665.9375 L106.0156,668.5313 Q106.0156,669.1406 105.7813,669.4063 Q105.5625,669.6563 105.1719,669.6563 Q104.7969,669.6563 104.5625,669.4063 Q104.3281,669.1406 104.3281,668.5313 L104.3281,667.6406 L100.3594,667.6406 L100.3594,670.0938 L101.8438,670.0938 Q101.8438,669.4375 101.9688,669.25 Q102.2344,668.8438 102.7031,668.8438 Q103.0781,668.8438 103.3125,669.1094 Q103.5469,669.3594 103.5469,669.9688 L103.5469,671.9375 Q103.5469,672.4844 103.4219,672.6719 Q103.1563,673.0625 102.7031,673.0625 Q102.2344,673.0625 101.9688,672.6563 Q101.8438,672.4688 101.8438,671.7969 L100.3594,671.7969 Z " fill="#000000"/><text fill="#000000" font-family="sans-serif" font-size="14" lengthAdjust="spacing" textLength="80" x="115.5" y="676.7285">Subcategory</text><line style="stroke:#181818;stroke-width:0.5;" x1="87.5" x2="197.5" y1="687" y2="687"/><line style="stroke:#181818;stroke-width:0.5;" x1="87.5" x2="197.5" y1="695" y2="695"/></g><!--MD5=[df38be88ccee13e832d6fafd6288a4ca]
class Test--><g id="elem_Test"><rect codeLine="18" fill="#F1F1F1" height="48" id="Test" rx="2.5" ry="2.5" style="stroke:#181818;stroke-width:0.5;" width="60" x="240.5" y="331"/><ellipse cx="255.5" cy="347" fill="#ADD1B2" rx="11" ry="11" style="stroke:#181818;stroke-width:1.0;"/><path d="M258.2656,342.875 Q258.4219,342.6563 258.6094,342.5469 Q258.7969,342.4375 259.0156,342.4375 Q259.3906,342.4375 259.625,342.7031 Q259.8594,342.9531 259.8594,343.5625 L259.8594,345.0156 Q259.8594,345.625 259.625,345.8906 Q259.3906,346.1563 259.0156,346.1563 Q258.6719,346.1563 258.4688,345.9531 Q258.2656,345.7656 258.1563,345.25 Q258.1094,344.8906 257.9219,344.7031 Q257.5938,344.3281 256.9844,344.1094 Q256.375,343.8906 255.75,343.8906 Q254.9844,343.8906 254.3438,344.2188 Q253.7188,344.5469 253.2188,345.2969 Q252.7344,346.0469 252.7344,347.0781 L252.7344,348.1719 Q252.7344,349.4063 253.625,350.2344 Q254.5156,351.0469 256.1094,351.0469 Q257.0469,351.0469 257.7031,350.7969 Q258.0938,350.6406 258.5156,350.2031 Q258.7813,349.9375 258.9219,349.8594 Q259.0781,349.7813 259.2813,349.7813 Q259.6094,349.7813 259.8594,350.0469 Q260.125,350.2969 260.125,350.6406 Q260.125,350.9844 259.7813,351.3906 Q259.2813,351.9688 258.4844,352.2969 Q257.4063,352.75 256.1094,352.75 Q254.5938,352.75 253.3906,352.125 Q252.4063,351.625 251.7188,350.5625 Q251.0313,349.4844 251.0313,348.2031 L251.0313,347.0469 Q251.0313,345.7188 251.6406,344.5781 Q252.2656,343.4219 253.3594,342.8125 Q254.4531,342.1875 255.6875,342.1875 Q256.4219,342.1875 257.0625,342.3594 Q257.7188,342.5156 258.2656,342.875 Z " fill="#000000"/><text fill="#000000" font-family="sans-serif" font-size="14" lengthAdjust="spacing" textLength="28" x="269.5" y="352.7285">Test</text><line style="stroke:#181818;stroke-width:0.5;" x1="241.5" x2="299.5" y1="363" y2="363"/><line style="stroke:#181818;stroke-width:0.5;" x1="241.5" x2="299.5" y1="371" y2="371"/></g><!--MD5=[fc7123defb831ecdd44b2d9bcef6cceb]
class Question--><g id="elem_Question"><rect codeLine="20" fill="#F1F1F1" height="48" id="Question" rx="2.5" ry="2.5" style="stroke:#181818;stroke-width:0.5;" width="89" x="226" y="439"/><ellipse cx="241" cy="455" fill="#ADD1B2" rx="11" ry="11" style="stroke:#181818;stroke-width:1.0;"/><path d="M243.7656,450.875 Q243.9219,450.6563 244.1094,450.5469 Q244.2969,450.4375 244.5156,450.4375 Q244.8906,450.4375 245.125,450.7031 Q245.3594,450.9531 245.3594,451.5625 L245.3594,453.0156 Q245.3594,453.625 245.125,453.8906 Q244.8906,454.1563 244.5156,454.1563 Q244.1719,454.1563 243.9688,453.9531 Q243.7656,453.7656 243.6563,453.25 Q243.6094,452.8906 243.4219,452.7031 Q243.0938,452.3281 242.4844,452.1094 Q241.875,451.8906 241.25,451.8906 Q240.4844,451.8906 239.8438,452.2188 Q239.2188,452.5469 238.7188,453.2969 Q238.2344,454.0469 238.2344,455.0781 L238.2344,456.1719 Q238.2344,457.4063 239.125,458.2344 Q240.0156,459.0469 241.6094,459.0469 Q242.5469,459.0469 243.2031,458.7969 Q243.5938,458.6406 244.0156,458.2031 Q244.2813,457.9375 244.4219,457.8594 Q244.5781,457.7813 244.7813,457.7813 Q245.1094,457.7813 245.3594,458.0469 Q245.625,458.2969 245.625,458.6406 Q245.625,458.9844 245.2813,459.3906 Q244.7813,459.9688 243.9844,460.2969 Q242.9063,460.75 241.6094,460.75 Q240.0938,460.75 238.8906,460.125 Q237.9063,459.625 237.2188,458.5625 Q236.5313,457.4844 236.5313,456.2031 L236.5313,455.0469 Q236.5313,453.7188 237.1406,452.5781 Q237.7656,451.4219 238.8594,450.8125 Q239.9531,450.1875 241.1875,450.1875 Q241.9219,450.1875 242.5625,450.3594 Q243.2188,450.5156 243.7656,450.875 Z " fill="#000000"/><text fill="#000000" font-family="sans-serif" font-size="14" lengthAdjust="spacing" textLength="57" x="255" y="460.7285">Question</text><line style="stroke:#181818;stroke-width:0.5;" x1="227" x2="314" y1="471" y2="471"/><line style="stroke:#181818;stroke-width:0.5;" x1="227" x2="314" y1="479" y2="479"/></g><g id="elem_GMN17"><path d="M350,450 L350,459 L315.03,463 L350,467 L350,476.3516 A0,0 0 0 0 350,476.3516 L491,476.3516 A0,0 0 0 0 491,476.3516 L491,460 L481,450 L350,450 A0,0 0 0 0 350,450 " fill="#FEFFDD" style="stroke:#181818;stroke-width:0.5;"/><path d="M481,450 L481,460 L491,460 L481,450 " fill="#FEFFDD" style="stroke:#181818;stroke-width:0.5;"/><text fill="#000000" font-family="sans-serif" font-size="13" lengthAdjust="spacing" textLength="120" x="356" y="468.4951">INFO: date, reviewed</text></g><!--MD5=[a61a298976b7d1d94498f45c2ebfa10b]
class Statement--><g id="elem_Statement"><rect codeLine="23" fill="#F1F1F1" height="48" id="Statement" rx="2.5" ry="2.5" style="stroke:#181818;stroke-width:0.5;" width="96" x="222.5" y="547"/><ellipse cx="237.5" cy="563" fill="#ADD1B2" rx="11" ry="11" style="stroke:#181818;stroke-width:1.0;"/><path d="M240.2656,558.875 Q240.4219,558.6563 240.6094,558.5469 Q240.7969,558.4375 241.0156,558.4375 Q241.3906,558.4375 241.625,558.7031 Q241.8594,558.9531 241.8594,559.5625 L241.8594,561.0156 Q241.8594,561.625 241.625,561.8906 Q241.3906,562.1563 241.0156,562.1563 Q240.6719,562.1563 240.4688,561.9531 Q240.2656,561.7656 240.1563,561.25 Q240.1094,560.8906 239.9219,560.7031 Q239.5938,560.3281 238.9844,560.1094 Q238.375,559.8906 237.75,559.8906 Q236.9844,559.8906 236.3438,560.2188 Q235.7188,560.5469 235.2188,561.2969 Q234.7344,562.0469 234.7344,563.0781 L234.7344,564.1719 Q234.7344,565.4063 235.625,566.2344 Q236.5156,567.0469 238.1094,567.0469 Q239.0469,567.0469 239.7031,566.7969 Q240.0938,566.6406 240.5156,566.2031 Q240.7813,565.9375 240.9219,565.8594 Q241.0781,565.7813 241.2813,565.7813 Q241.6094,565.7813 241.8594,566.0469 Q242.125,566.2969 242.125,566.6406 Q242.125,566.9844 241.7813,567.3906 Q241.2813,567.9688 240.4844,568.2969 Q239.4063,568.75 238.1094,568.75 Q236.5938,568.75 235.3906,568.125 Q234.4063,567.625 233.7188,566.5625 Q233.0313,565.4844 233.0313,564.2031 L233.0313,563.0469 Q233.0313,561.7188 233.6406,560.5781 Q234.2656,559.4219 235.3594,558.8125 Q236.4531,558.1875 237.6875,558.1875 Q238.4219,558.1875 239.0625,558.3594 Q239.7188,558.5156 240.2656,558.875 Z " fill="#000000"/><text fill="#000000" font-family="sans-serif" font-size="14" lengthAdjust="spacing" textLength="64" x="251.5" y="568.7285">Statement</text><line style="stroke:#181818;stroke-width:0.5;" x1="223.5" x2="317.5" y1="579" y2="579"/><line style="stroke:#181818;stroke-width:0.5;" x1="223.5" x2="317.5" y1="587" y2="587"/></g><!--MD5=[f9fadfa5a66b7e5a67b370cd443ffe52]
class Answer--><g id="elem_Answer"><rect codeLine="25" fill="#F1F1F1" height="48" id="Answer" rx="2.5" ry="2.5" style="stroke:#181818;stroke-width:0.5;" width="78" x="353.5" y="547"/><ellipse cx="368.5" cy="563" fill="#ADD1B2" rx="11" ry="11" style="stroke:#181818;stroke-width:1.0;"/><path d="M371.2656,558.875 Q371.4219,558.6563 371.6094,558.5469 Q371.7969,558.4375 372.0156,558.4375 Q372.3906,558.4375 372.625,558.7031 Q372.8594,558.9531 372.8594,559.5625 L372.8594,561.0156 Q372.8594,561.625 372.625,561.8906 Q372.3906,562.1563 372.0156,562.1563 Q371.6719,562.1563 371.4688,561.9531 Q371.2656,561.7656 371.1563,561.25 Q371.1094,560.8906 370.9219,560.7031 Q370.5938,560.3281 369.9844,560.1094 Q369.375,559.8906 368.75,559.8906 Q367.9844,559.8906 367.3438,560.2188 Q366.7188,560.5469 366.2188,561.2969 Q365.7344,562.0469 365.7344,563.0781 L365.7344,564.1719 Q365.7344,565.4063 366.625,566.2344 Q367.5156,567.0469 369.1094,567.0469 Q370.0469,567.0469 370.7031,566.7969 Q371.0938,566.6406 371.5156,566.2031 Q371.7813,565.9375 371.9219,565.8594 Q372.0781,565.7813 372.2813,565.7813 Q372.6094,565.7813 372.8594,566.0469 Q373.125,566.2969 373.125,566.6406 Q373.125,566.9844 372.7813,567.3906 Q372.2813,567.9688 371.4844,568.2969 Q370.4063,568.75 369.1094,568.75 Q367.5938,568.75 366.3906,568.125 Q365.4063,567.625 364.7188,566.5625 Q364.0313,565.4844 364.0313,564.2031 L364.0313,563.0469 Q364.0313,561.7188 364.6406,560.5781 Q365.2656,559.4219 366.3594,558.8125 Q367.4531,558.1875 368.6875,558.1875 Q369.4219,558.1875 370.0625,558.3594 Q370.7188,558.5156 371.2656,558.875 Z " fill="#000000"/><text fill="#000000" font-family="sans-serif" font-size="14" lengthAdjust="spacing" textLength="46" x="382.5" y="568.7285">Answer</text><line style="stroke:#181818;stroke-width:0.5;" x1="354.5" x2="430.5" y1="579" y2="579"/><line style="stroke:#181818;stroke-width:0.5;" x1="354.5" x2="430.5" y1="587" y2="587"/></g><!--MD5=[8235d596e40eaa310e25cb7e3d92ec72]
reverse link Community to User--><g id="link_Community_User"><path codeLine="27" d="M300.47,67.4 C293.86,82.97 286.28,100.82 280.4,114.68 " fill="none" id="Community-backto-User" style="stroke:#181818;stroke-width:1.0;"/><polygon fill="#181818" points="305.74,55,299.7147,58.9618,301.0544,66.0474,307.0797,62.0856,305.74,55" style="stroke:#181818;stroke-width:1.0;"/><text fill="#000000" font-family="sans-serif" font-size="13" lengthAdjust="spacing" textLength="20" x="260.3756" y="104.34">1..*</text></g><!--MD5=[7016372388c7ac2652db8515880aaa11]
reverse link User to Editor--><g id="link_User_Editor"><path codeLine="29" d="M221.92,165.1 C182.63,185.89 132.96,213.52 127.5,223 C108.2,256.52 116.3,303.29 123.91,330.93 " fill="none" id="User-backto-Editor" style="stroke:#181818;stroke-width:1.0;"/><polygon fill="none" points="218.9,158.78,239.86,155.69,225.4,171.18,218.9,158.78" style="stroke:#181818;stroke-width:1.0;"/></g><!--MD5=[4902e3a4a9d2276f7686a6b1652e1669]
reverse link User to Reviewer--><g id="link_User_Reviewer"><path codeLine="30" d="M305.4,177.75 C319.26,192.74 334.77,209.51 346.94,222.68 " fill="none" id="User-backto-Reviewer" style="stroke:#181818;stroke-width:1.0;"/><polygon fill="none" points="300.2,182.44,291.76,163,310.48,172.93,300.2,182.44" style="stroke:#181818;stroke-width:1.0;"/></g><!--MD5=[702f68b2ad22fef5191ac7472ca929ab]
reverse link User to Player--><g id="link_User_Player"><path codeLine="31" d="M238,178.7 C225.62,193.45 211.9,209.79 201.08,222.68 " fill="none" id="User-backto-Player" style="stroke:#181818;stroke-width:1.0;"/><polygon fill="none" points="232.97,173.82,251.19,163,243.69,182.82,232.97,173.82" style="stroke:#181818;stroke-width:1.0;"/></g><!--MD5=[85d1918dc023e693545104f3b89c7c67]
reverse link User to Test--><g id="link_User_Test"><path codeLine="33" d="M270.5,176.54 C270.5,220.68 270.5,293.59 270.5,330.72 " fill="none" id="User-backto-Test" style="stroke:#181818;stroke-width:1.0;"/><polygon fill="none" points="270.5,163.31,266.5,169.31,270.5,175.31,274.5,169.31,270.5,163.31" style="stroke:#181818;stroke-width:1.0;"/><text fill="#000000" font-family="sans-serif" font-size="13" lengthAdjust="spacing" textLength="20" x="247.9375" y="319.9884">0..*</text></g><!--MD5=[a4471ebd030acd5c90145d584608083d]
link Editor to Question--><g id="link_Editor_Question"><path codeLine="35" d="M161.66,379 C183.46,395.62 212.96,418.12 235.74,435.5 " fill="none" id="Editor-to-Question" style="stroke:#181818;stroke-width:1.0;stroke-dasharray:7.0,7.0;"/><polygon fill="#181818" points="239.92,438.68,235.1741,430.05,235.9389,435.6549,230.334,436.4198,239.92,438.68" style="stroke:#181818;stroke-width:1.0;"/></g><!--MD5=[9c5dc3eabb99813fbc943f13984648f5]
reverse link Reviewer to Question--><g id="link_Reviewer_Question"><path codeLine="36" d="M359.26,276.03 C350.06,302.93 334.96,344.45 318.5,379 C308.55,399.89 295.26,422.56 285.18,438.93 " fill="none" id="Reviewer-backto-Question" style="stroke:#181818;stroke-width:1.0;stroke-dasharray:7.0,7.0;"/><polygon fill="#181818" points="360.91,271.18,354.2234,278.4112,359.299,275.9133,361.7968,280.9889,360.91,271.18" style="stroke:#181818;stroke-width:1.0;"/></g><!--MD5=[5fdf1f39d16285d01b5832d2c1cff619]
reverse link Reviewer to Test--><g id="link_Reviewer_Test"><path codeLine="37" d="M343.71,274.82 C327.78,292.04 307.31,314.19 292.06,330.68 " fill="none" id="Reviewer-backto-Test" style="stroke:#181818;stroke-width:1.0;stroke-dasharray:7.0,7.0;"/><polygon fill="#181818" points="347.24,271,338.19,274.8855,343.8427,274.6685,344.0596,280.3212,347.24,271" style="stroke:#181818;stroke-width:1.0;"/></g><!--MD5=[f8b7be959b5369202f5d9eb6511fa252]
link Reviewer to Community--><g id="link_Reviewer_Community"><path codeLine="38" d="M362.73,222.72 C352.94,183.18 333.1,103.06 322.52,60.33 " fill="none" id="Reviewer-to-Community" style="stroke:#181818;stroke-width:1.0;stroke-dasharray:7.0,7.0;"/><polygon fill="#181818" points="321.27,55.31,319.552,65.0079,322.4726,60.1632,327.3172,63.0838,321.27,55.31" style="stroke:#181818;stroke-width:1.0;"/></g><!--MD5=[843cf27b18bcdc9f067edfdb921d7599]
link Player to Test--><g id="link_Player_Test"><path codeLine="39" d="M200.81,271 C214.6,287.42 233.19,309.56 247.7,326.84 " fill="none" id="Player-to-Test" style="stroke:#181818;stroke-width:1.0;stroke-dasharray:7.0,7.0;"/><polygon fill="#181818" points="250.92,330.68,248.1966,321.2152,247.705,326.8506,242.0696,326.3591,250.92,330.68" style="stroke:#181818;stroke-width:1.0;"/></g><!--MD5=[bb3d97f09542411db1527b071cca8268]
link Test to Question--><g id="link_Test_Question"><path codeLine="41" d="M270.5,391 C270.5,391 270.5,414.68 270.5,425.36 " fill="none" id="Test-Question" style="stroke:#181818;stroke-width:1.0;"/><polygon fill="#181818" points="270.5,438.68,274.5,429.68,270.5,433.68,266.5,429.68,270.5,438.68" style="stroke:#181818;stroke-width:1.0;"/><line style="stroke:#181818;stroke-width:1.0;" x1="270.5" x2="270.5" y1="433.68" y2="425.68"/><polygon fill="#181818" points="270.5,379,266.5,385,270.5,391,274.5,385,270.5,379" style="stroke:#181818;stroke-width:1.0;"/><text fill="#000000" font-family="sans-serif" font-size="13" lengthAdjust="spacing" textLength="20" x="248.0625" y="428.34">1..*</text></g><!--MD5=[6eeca14f8a2ed45d1117f4ed4af75b7e]
link Question to Statement--><g id="link_Question_Statement"><path codeLine="42" d="M270.5,499 C270.5,499 270.5,522.68 270.5,533.36 " fill="none" id="Question-Statement" style="stroke:#181818;stroke-width:1.0;"/><polygon fill="#181818" points="270.5,546.68,274.5,537.68,270.5,541.68,266.5,537.68,270.5,546.68" style="stroke:#181818;stroke-width:1.0;"/><line style="stroke:#181818;stroke-width:1.0;" x1="270.5" x2="270.5" y1="541.68" y2="533.68"/><polygon fill="#181818" points="270.5,487,266.5,493,270.5,499,274.5,493,270.5,487" style="stroke:#181818;stroke-width:1.0;"/><text fill="#000000" font-family="sans-serif" font-size="13" lengthAdjust="spacing" textLength="7" x="262.6469" y="536.34">1</text></g><!--MD5=[6926d5174a3032b1dcc6c5d6f900c16b]
link Question to Answer--><g id="link_Question_Answer"><path codeLine="43" d="M306.0278,494.8712 C306.0278,494.8712 340.09,524.47 355.46,537.82 " fill="none" id="Question-Answer" style="stroke:#181818;stroke-width:1.0;"/><polygon fill="#181818" points="365.66,546.68,361.4904,537.7573,361.8859,543.4003,356.2429,543.7959,365.66,546.68" style="stroke:#181818;stroke-width:1.0;"/><line style="stroke:#181818;stroke-width:1.0;" x1="361.8859" x2="355.845" y1="543.4003" y2="538.155"/><polygon fill="#181818" points="296.97,487,298.8752,493.9549,306.0278,494.8712,304.1226,487.9163,296.97,487" style="stroke:#181818;stroke-width:1.0;"/><text fill="#000000" font-family="sans-serif" font-size="13" lengthAdjust="spacing" textLength="20" x="336.6803" y="536.34">1..*</text></g><!--MD5=[98df2f76ab45609c36aa45d6b9c3faee]
link Question to Category--><g id="link_Question_Category"><path codeLine="45" d="M233.4909,494.6576 C233.4909,494.6576 197.25,524.66 180.94,538.16 " fill="none" id="Question-Category" style="stroke:#181818;stroke-width:1.0;"/><polygon fill="#181818" points="170.66,546.68,180.1419,544.0166,174.5096,543.4894,175.0368,537.8571,170.66,546.68" style="stroke:#181818;stroke-width:1.0;"/><line style="stroke:#181818;stroke-width:1.0;" x1="174.5096" x2="180.675" y1="543.4894" y2="538.385"/><polygon fill="#181818" points="242.73,487,235.5579,487.7491,233.4909,494.6576,240.6629,493.9085,242.73,487" style="stroke:#181818;stroke-width:1.0;"/></g><!--MD5=[74baf885d61ec4386e3ee7603dbfa36d]
link Category to Subcategory--><g id="link_Category_Subcategory"><path codeLine="46" d="M142.5,607 C142.5,607 142.5,630.68 142.5,641.36 " fill="none" id="Category-Subcategory" style="stroke:#181818;stroke-width:1.0;"/><polygon fill="#181818" points="142.5,654.68,146.5,645.68,142.5,649.68,138.5,645.68,142.5,654.68" style="stroke:#181818;stroke-width:1.0;"/><line style="stroke:#181818;stroke-width:1.0;" x1="142.5" x2="142.5" y1="649.68" y2="641.68"/><polygon fill="#181818" points="142.5,595,138.5,601,142.5,607,146.5,601,142.5,595" style="stroke:#181818;stroke-width:1.0;"/><text fill="#000000" font-family="sans-serif" font-size="13" lengthAdjust="spacing" textLength="20" x="120.0625" y="644.34">0..*</text></g><!--MD5=[87fc280b1f76e8035e0ef61059df04c3]
@startuml OpoTestDomain

class Community
note left: reviewedQuestions&Test availables

class User
note left: myTests

class Editor 

class Reviewer 

class Player 

enum Category 

enum Subcategory 

class Test 

class Question 
note right of Question: INFO: date, reviewed

class Statement

class Answer 

Community *- - "1..*" User

User <|- - Editor
User <|- -  Reviewer
User <|- - Player

User o- - "0..*" Test

Editor ..> Question
Reviewer <.. Question
Reviewer <.. Test
Reviewer ..> Community
Player ..> Test

Test *- -> "1..*" Question
Question *- -> "1" Statement
Question *- -> "1..*" Answer

Question *- -> Category
Category *- ->"0..*" Subcategory






@end

PlantUML version 1.2022.7(Mon Aug 22 18:01:30 WEST 2022)
(GPL source distribution)
Java Runtime: OpenJDK Runtime Environment
JVM: OpenJDK 64-Bit Server VM
Default Encoding: Cp1252
Language: es
Country: ES
--></g></svg>