<?xml version="1.0" encoding="UTF-8" standalone="no"?><svg xmlns="http://www.w3.org/2000/svg" xmlns:xlink="http://www.w3.org/1999/xlink" contentStyleType="text/css" height="1168px" preserveAspectRatio="none" style="width:1282px;height:1168px;background:#FFFFFF;" version="1.1" viewBox="0 0 1282 1168" width="1282px" zoomAndPan="magnify"><defs/><g><!--MD5=[668d633d11bedc8952753581a2dda3db]
class Community--><g id="elem_Community"><rect codeLine="2" fill="#F1F1F1" height="48" id="Community" rx="2.5" ry="2.5" style="stroke:#181818;stroke-width:0.5;" width="102" x="797.5" y="7"/><ellipse cx="812.5" cy="23" fill="#ADD1B2" rx="11" ry="11" style="stroke:#181818;stroke-width:1.0;"/><path d="M815.2656,18.875 Q815.4219,18.6563 815.6094,18.5469 Q815.7969,18.4375 816.0156,18.4375 Q816.3906,18.4375 816.625,18.7031 Q816.8594,18.9531 816.8594,19.5625 L816.8594,21.0156 Q816.8594,21.625 816.625,21.8906 Q816.3906,22.1563 816.0156,22.1563 Q815.6719,22.1563 815.4688,21.9531 Q815.2656,21.7656 815.1563,21.25 Q815.1094,20.8906 814.9219,20.7031 Q814.5938,20.3281 813.9844,20.1094 Q813.375,19.8906 812.75,19.8906 Q811.9844,19.8906 811.3438,20.2188 Q810.7188,20.5469 810.2188,21.2969 Q809.7344,22.0469 809.7344,23.0781 L809.7344,24.1719 Q809.7344,25.4063 810.625,26.2344 Q811.5156,27.0469 813.1094,27.0469 Q814.0469,27.0469 814.7031,26.7969 Q815.0938,26.6406 815.5156,26.2031 Q815.7813,25.9375 815.9219,25.8594 Q816.0781,25.7813 816.2813,25.7813 Q816.6094,25.7813 816.8594,26.0469 Q817.125,26.2969 817.125,26.6406 Q817.125,26.9844 816.7813,27.3906 Q816.2813,27.9688 815.4844,28.2969 Q814.4063,28.75 813.1094,28.75 Q811.5938,28.75 810.3906,28.125 Q809.4063,27.625 808.7188,26.5625 Q808.0313,25.4844 808.0313,24.2031 L808.0313,23.0469 Q808.0313,21.7188 808.6406,20.5781 Q809.2656,19.4219 810.3594,18.8125 Q811.4531,18.1875 812.6875,18.1875 Q813.4219,18.1875 814.0625,18.3594 Q814.7188,18.5156 815.2656,18.875 Z " fill="#000000"/><text fill="#000000" font-family="sans-serif" font-size="14" lengthAdjust="spacing" textLength="70" x="826.5" y="28.7285">Community</text><line style="stroke:#181818;stroke-width:0.5;" x1="798.5" x2="898.5" y1="39" y2="39"/><line style="stroke:#181818;stroke-width:0.5;" x1="798.5" x2="898.5" y1="47" y2="47"/></g><!--MD5=[3fd616f346a44cd59a91eb10b19e157c]
class User--><g id="elem_User"><rect codeLine="4" fill="#F1F1F1" height="48" id="User" rx="2.5" ry="2.5" style="stroke:#181818;stroke-width:0.5;" width="61" x="773" y="116"/><ellipse cx="788" cy="132" fill="#ADD1B2" rx="11" ry="11" style="stroke:#181818;stroke-width:1.0;"/><path d="M790.7656,127.875 Q790.9219,127.6563 791.1094,127.5469 Q791.2969,127.4375 791.5156,127.4375 Q791.8906,127.4375 792.125,127.7031 Q792.3594,127.9531 792.3594,128.5625 L792.3594,130.0156 Q792.3594,130.625 792.125,130.8906 Q791.8906,131.1563 791.5156,131.1563 Q791.1719,131.1563 790.9688,130.9531 Q790.7656,130.7656 790.6563,130.25 Q790.6094,129.8906 790.4219,129.7031 Q790.0938,129.3281 789.4844,129.1094 Q788.875,128.8906 788.25,128.8906 Q787.4844,128.8906 786.8438,129.2188 Q786.2188,129.5469 785.7188,130.2969 Q785.2344,131.0469 785.2344,132.0781 L785.2344,133.1719 Q785.2344,134.4063 786.125,135.2344 Q787.0156,136.0469 788.6094,136.0469 Q789.5469,136.0469 790.2031,135.7969 Q790.5938,135.6406 791.0156,135.2031 Q791.2813,134.9375 791.4219,134.8594 Q791.5781,134.7813 791.7813,134.7813 Q792.1094,134.7813 792.3594,135.0469 Q792.625,135.2969 792.625,135.6406 Q792.625,135.9844 792.2813,136.3906 Q791.7813,136.9688 790.9844,137.2969 Q789.9063,137.75 788.6094,137.75 Q787.0938,137.75 785.8906,137.125 Q784.9063,136.625 784.2188,135.5625 Q783.5313,134.4844 783.5313,133.2031 L783.5313,132.0469 Q783.5313,130.7188 784.1406,129.5781 Q784.7656,128.4219 785.8594,127.8125 Q786.9531,127.1875 788.1875,127.1875 Q788.9219,127.1875 789.5625,127.3594 Q790.2188,127.5156 790.7656,127.875 Z " fill="#000000"/><text fill="#000000" font-family="sans-serif" font-size="14" lengthAdjust="spacing" textLength="29" x="802" y="137.7285">User</text><line style="stroke:#181818;stroke-width:0.5;" x1="774" x2="833" y1="148" y2="148"/><line style="stroke:#181818;stroke-width:0.5;" x1="774" x2="833" y1="156" y2="156"/></g><!--MD5=[61a83f88cb8b7d3a80bc8c481f3736bf]
class Teacher--><g id="elem_Teacher"><rect codeLine="6" fill="#F1F1F1" height="48" id="Teacher" rx="2.5" ry="2.5" style="stroke:#181818;stroke-width:0.5;" width="85" x="761" y="272"/><ellipse cx="776" cy="288" fill="#ADD1B2" rx="11" ry="11" style="stroke:#181818;stroke-width:1.0;"/><path d="M778.7656,283.875 Q778.9219,283.6563 779.1094,283.5469 Q779.2969,283.4375 779.5156,283.4375 Q779.8906,283.4375 780.125,283.7031 Q780.3594,283.9531 780.3594,284.5625 L780.3594,286.0156 Q780.3594,286.625 780.125,286.8906 Q779.8906,287.1563 779.5156,287.1563 Q779.1719,287.1563 778.9688,286.9531 Q778.7656,286.7656 778.6563,286.25 Q778.6094,285.8906 778.4219,285.7031 Q778.0938,285.3281 777.4844,285.1094 Q776.875,284.8906 776.25,284.8906 Q775.4844,284.8906 774.8438,285.2188 Q774.2188,285.5469 773.7188,286.2969 Q773.2344,287.0469 773.2344,288.0781 L773.2344,289.1719 Q773.2344,290.4063 774.125,291.2344 Q775.0156,292.0469 776.6094,292.0469 Q777.5469,292.0469 778.2031,291.7969 Q778.5938,291.6406 779.0156,291.2031 Q779.2813,290.9375 779.4219,290.8594 Q779.5781,290.7813 779.7813,290.7813 Q780.1094,290.7813 780.3594,291.0469 Q780.625,291.2969 780.625,291.6406 Q780.625,291.9844 780.2813,292.3906 Q779.7813,292.9688 778.9844,293.2969 Q777.9063,293.75 776.6094,293.75 Q775.0938,293.75 773.8906,293.125 Q772.9063,292.625 772.2188,291.5625 Q771.5313,290.4844 771.5313,289.2031 L771.5313,288.0469 Q771.5313,286.7188 772.1406,285.5781 Q772.7656,284.4219 773.8594,283.8125 Q774.9531,283.1875 776.1875,283.1875 Q776.9219,283.1875 777.5625,283.3594 Q778.2188,283.5156 778.7656,283.875 Z " fill="#000000"/><text fill="#000000" font-family="sans-serif" font-size="14" lengthAdjust="spacing" textLength="53" x="790" y="293.7285">Teacher</text><line style="stroke:#181818;stroke-width:0.5;" x1="762" x2="845" y1="304" y2="304"/><line style="stroke:#181818;stroke-width:0.5;" x1="762" x2="845" y1="312" y2="312"/></g><!--MD5=[d6181cb537bdc20c0a3007a98a56832d]
class Student--><g id="elem_Student"><rect codeLine="8" fill="#F1F1F1" height="48" id="Student" rx="2.5" ry="2.5" style="stroke:#181818;stroke-width:0.5;" width="81" x="642" y="272"/><ellipse cx="657" cy="288" fill="#ADD1B2" rx="11" ry="11" style="stroke:#181818;stroke-width:1.0;"/><path d="M659.7656,283.875 Q659.9219,283.6563 660.1094,283.5469 Q660.2969,283.4375 660.5156,283.4375 Q660.8906,283.4375 661.125,283.7031 Q661.3594,283.9531 661.3594,284.5625 L661.3594,286.0156 Q661.3594,286.625 661.125,286.8906 Q660.8906,287.1563 660.5156,287.1563 Q660.1719,287.1563 659.9688,286.9531 Q659.7656,286.7656 659.6563,286.25 Q659.6094,285.8906 659.4219,285.7031 Q659.0938,285.3281 658.4844,285.1094 Q657.875,284.8906 657.25,284.8906 Q656.4844,284.8906 655.8438,285.2188 Q655.2188,285.5469 654.7188,286.2969 Q654.2344,287.0469 654.2344,288.0781 L654.2344,289.1719 Q654.2344,290.4063 655.125,291.2344 Q656.0156,292.0469 657.6094,292.0469 Q658.5469,292.0469 659.2031,291.7969 Q659.5938,291.6406 660.0156,291.2031 Q660.2813,290.9375 660.4219,290.8594 Q660.5781,290.7813 660.7813,290.7813 Q661.1094,290.7813 661.3594,291.0469 Q661.625,291.2969 661.625,291.6406 Q661.625,291.9844 661.2813,292.3906 Q660.7813,292.9688 659.9844,293.2969 Q658.9063,293.75 657.6094,293.75 Q656.0938,293.75 654.8906,293.125 Q653.9063,292.625 653.2188,291.5625 Q652.5313,290.4844 652.5313,289.2031 L652.5313,288.0469 Q652.5313,286.7188 653.1406,285.5781 Q653.7656,284.4219 654.8594,283.8125 Q655.9531,283.1875 657.1875,283.1875 Q657.9219,283.1875 658.5625,283.3594 Q659.2188,283.5156 659.7656,283.875 Z " fill="#000000"/><text fill="#000000" font-family="sans-serif" font-size="14" lengthAdjust="spacing" textLength="49" x="671" y="293.7285">Student</text><line style="stroke:#181818;stroke-width:0.5;" x1="643" x2="722" y1="304" y2="304"/><line style="stroke:#181818;stroke-width:0.5;" x1="643" x2="722" y1="312" y2="312"/></g><!--MD5=[71e8807956d33805e77353b9d7e2df39]
class Evaluation--><g id="elem_Evaluation"><rect codeLine="10" fill="#F1F1F1" height="48" id="Evaluation" rx="2.5" ry="2.5" style="stroke:#181818;stroke-width:0.5;" width="98" x="603.5" y="381"/><ellipse cx="618.5" cy="397" fill="#ADD1B2" rx="11" ry="11" style="stroke:#181818;stroke-width:1.0;"/><path d="M621.2656,392.875 Q621.4219,392.6563 621.6094,392.5469 Q621.7969,392.4375 622.0156,392.4375 Q622.3906,392.4375 622.625,392.7031 Q622.8594,392.9531 622.8594,393.5625 L622.8594,395.0156 Q622.8594,395.625 622.625,395.8906 Q622.3906,396.1563 622.0156,396.1563 Q621.6719,396.1563 621.4688,395.9531 Q621.2656,395.7656 621.1563,395.25 Q621.1094,394.8906 620.9219,394.7031 Q620.5938,394.3281 619.9844,394.1094 Q619.375,393.8906 618.75,393.8906 Q617.9844,393.8906 617.3438,394.2188 Q616.7188,394.5469 616.2188,395.2969 Q615.7344,396.0469 615.7344,397.0781 L615.7344,398.1719 Q615.7344,399.4063 616.625,400.2344 Q617.5156,401.0469 619.1094,401.0469 Q620.0469,401.0469 620.7031,400.7969 Q621.0938,400.6406 621.5156,400.2031 Q621.7813,399.9375 621.9219,399.8594 Q622.0781,399.7813 622.2813,399.7813 Q622.6094,399.7813 622.8594,400.0469 Q623.125,400.2969 623.125,400.6406 Q623.125,400.9844 622.7813,401.3906 Q622.2813,401.9688 621.4844,402.2969 Q620.4063,402.75 619.1094,402.75 Q617.5938,402.75 616.3906,402.125 Q615.4063,401.625 614.7188,400.5625 Q614.0313,399.4844 614.0313,398.2031 L614.0313,397.0469 Q614.0313,395.7188 614.6406,394.5781 Q615.2656,393.4219 616.3594,392.8125 Q617.4531,392.1875 618.6875,392.1875 Q619.4219,392.1875 620.0625,392.3594 Q620.7188,392.5156 621.2656,392.875 Z " fill="#000000"/><text fill="#000000" font-family="sans-serif" font-size="14" lengthAdjust="spacing" textLength="66" x="632.5" y="402.7285">Evaluation</text><line style="stroke:#181818;stroke-width:0.5;" x1="604.5" x2="700.5" y1="413" y2="413"/><line style="stroke:#181818;stroke-width:0.5;" x1="604.5" x2="700.5" y1="421" y2="421"/></g><!--MD5=[2741598bdf59a7d7e0d5c97658fd3022]
class Result--><g id="elem_Result"><rect codeLine="12" fill="#F1F1F1" height="48" id="Result" rx="2.5" ry="2.5" style="stroke:#181818;stroke-width:0.5;" width="72" x="190.5" y="507.5"/><ellipse cx="205.5" cy="523.5" fill="#ADD1B2" rx="11" ry="11" style="stroke:#181818;stroke-width:1.0;"/><path d="M208.2656,519.375 Q208.4219,519.1563 208.6094,519.0469 Q208.7969,518.9375 209.0156,518.9375 Q209.3906,518.9375 209.625,519.2031 Q209.8594,519.4531 209.8594,520.0625 L209.8594,521.5156 Q209.8594,522.125 209.625,522.3906 Q209.3906,522.6563 209.0156,522.6563 Q208.6719,522.6563 208.4688,522.4531 Q208.2656,522.2656 208.1563,521.75 Q208.1094,521.3906 207.9219,521.2031 Q207.5938,520.8281 206.9844,520.6094 Q206.375,520.3906 205.75,520.3906 Q204.9844,520.3906 204.3438,520.7188 Q203.7188,521.0469 203.2188,521.7969 Q202.7344,522.5469 202.7344,523.5781 L202.7344,524.6719 Q202.7344,525.9063 203.625,526.7344 Q204.5156,527.5469 206.1094,527.5469 Q207.0469,527.5469 207.7031,527.2969 Q208.0938,527.1406 208.5156,526.7031 Q208.7813,526.4375 208.9219,526.3594 Q209.0781,526.2813 209.2813,526.2813 Q209.6094,526.2813 209.8594,526.5469 Q210.125,526.7969 210.125,527.1406 Q210.125,527.4844 209.7813,527.8906 Q209.2813,528.4688 208.4844,528.7969 Q207.4063,529.25 206.1094,529.25 Q204.5938,529.25 203.3906,528.625 Q202.4063,528.125 201.7188,527.0625 Q201.0313,525.9844 201.0313,524.7031 L201.0313,523.5469 Q201.0313,522.2188 201.6406,521.0781 Q202.2656,519.9219 203.3594,519.3125 Q204.4531,518.6875 205.6875,518.6875 Q206.4219,518.6875 207.0625,518.8594 Q207.7188,519.0156 208.2656,519.375 Z " fill="#000000"/><text fill="#000000" font-family="sans-serif" font-size="14" lengthAdjust="spacing" textLength="40" x="219.5" y="529.2285">Result</text><line style="stroke:#181818;stroke-width:0.5;" x1="191.5" x2="261.5" y1="539.5" y2="539.5"/><line style="stroke:#181818;stroke-width:0.5;" x1="191.5" x2="261.5" y1="547.5" y2="547.5"/></g><!--MD5=[a96594a83e2ecdc78cbf17c2ddf01934]
class Category--><g id="elem_Category"><rect codeLine="14" fill="#F1F1F1" height="48" id="Category" rx="2.5" ry="2.5" style="stroke:#181818;stroke-width:0.5;" width="90" x="851.5" y="194"/><ellipse cx="866.5" cy="210" fill="#ADD1B2" rx="11" ry="11" style="stroke:#181818;stroke-width:1.0;"/><path d="M869.2656,205.875 Q869.4219,205.6563 869.6094,205.5469 Q869.7969,205.4375 870.0156,205.4375 Q870.3906,205.4375 870.625,205.7031 Q870.8594,205.9531 870.8594,206.5625 L870.8594,208.0156 Q870.8594,208.625 870.625,208.8906 Q870.3906,209.1563 870.0156,209.1563 Q869.6719,209.1563 869.4688,208.9531 Q869.2656,208.7656 869.1563,208.25 Q869.1094,207.8906 868.9219,207.7031 Q868.5938,207.3281 867.9844,207.1094 Q867.375,206.8906 866.75,206.8906 Q865.9844,206.8906 865.3438,207.2188 Q864.7188,207.5469 864.2188,208.2969 Q863.7344,209.0469 863.7344,210.0781 L863.7344,211.1719 Q863.7344,212.4063 864.625,213.2344 Q865.5156,214.0469 867.1094,214.0469 Q868.0469,214.0469 868.7031,213.7969 Q869.0938,213.6406 869.5156,213.2031 Q869.7813,212.9375 869.9219,212.8594 Q870.0781,212.7813 870.2813,212.7813 Q870.6094,212.7813 870.8594,213.0469 Q871.125,213.2969 871.125,213.6406 Q871.125,213.9844 870.7813,214.3906 Q870.2813,214.9688 869.4844,215.2969 Q868.4063,215.75 867.1094,215.75 Q865.5938,215.75 864.3906,215.125 Q863.4063,214.625 862.7188,213.5625 Q862.0313,212.4844 862.0313,211.2031 L862.0313,210.0469 Q862.0313,208.7188 862.6406,207.5781 Q863.2656,206.4219 864.3594,205.8125 Q865.4531,205.1875 866.6875,205.1875 Q867.4219,205.1875 868.0625,205.3594 Q868.7188,205.5156 869.2656,205.875 Z " fill="#000000"/><text fill="#000000" font-family="sans-serif" font-size="14" lengthAdjust="spacing" textLength="58" x="880.5" y="215.7285">Category</text><line style="stroke:#181818;stroke-width:0.5;" x1="852.5" x2="940.5" y1="226" y2="226"/><line style="stroke:#181818;stroke-width:0.5;" x1="852.5" x2="940.5" y1="234" y2="234"/></g><!--MD5=[df38be88ccee13e832d6fafd6288a4ca]
class Test--><g id="elem_Test"><rect codeLine="16" fill="#F1F1F1" height="48" id="Test" rx="2.5" ry="2.5" style="stroke:#181818;stroke-width:0.5;" width="60" x="585.5" y="507.5"/><ellipse cx="600.5" cy="523.5" fill="#ADD1B2" rx="11" ry="11" style="stroke:#181818;stroke-width:1.0;"/><path d="M603.2656,519.375 Q603.4219,519.1563 603.6094,519.0469 Q603.7969,518.9375 604.0156,518.9375 Q604.3906,518.9375 604.625,519.2031 Q604.8594,519.4531 604.8594,520.0625 L604.8594,521.5156 Q604.8594,522.125 604.625,522.3906 Q604.3906,522.6563 604.0156,522.6563 Q603.6719,522.6563 603.4688,522.4531 Q603.2656,522.2656 603.1563,521.75 Q603.1094,521.3906 602.9219,521.2031 Q602.5938,520.8281 601.9844,520.6094 Q601.375,520.3906 600.75,520.3906 Q599.9844,520.3906 599.3438,520.7188 Q598.7188,521.0469 598.2188,521.7969 Q597.7344,522.5469 597.7344,523.5781 L597.7344,524.6719 Q597.7344,525.9063 598.625,526.7344 Q599.5156,527.5469 601.1094,527.5469 Q602.0469,527.5469 602.7031,527.2969 Q603.0938,527.1406 603.5156,526.7031 Q603.7813,526.4375 603.9219,526.3594 Q604.0781,526.2813 604.2813,526.2813 Q604.6094,526.2813 604.8594,526.5469 Q605.125,526.7969 605.125,527.1406 Q605.125,527.4844 604.7813,527.8906 Q604.2813,528.4688 603.4844,528.7969 Q602.4063,529.25 601.1094,529.25 Q599.5938,529.25 598.3906,528.625 Q597.4063,528.125 596.7188,527.0625 Q596.0313,525.9844 596.0313,524.7031 L596.0313,523.5469 Q596.0313,522.2188 596.6406,521.0781 Q597.2656,519.9219 598.3594,519.3125 Q599.4531,518.6875 600.6875,518.6875 Q601.4219,518.6875 602.0625,518.8594 Q602.7188,519.0156 603.2656,519.375 Z " fill="#000000"/><text fill="#000000" font-family="sans-serif" font-size="14" lengthAdjust="spacing" textLength="28" x="614.5" y="529.2285">Test</text><line style="stroke:#181818;stroke-width:0.5;" x1="586.5" x2="644.5" y1="539.5" y2="539.5"/><line style="stroke:#181818;stroke-width:0.5;" x1="586.5" x2="644.5" y1="547.5" y2="547.5"/></g><!--MD5=[9d451b2f92d848a8e2d1a4dab2b1c6bf]
class Concept--><g id="elem_Concept"><rect codeLine="18" fill="#F1F1F1" height="83.2188" id="Concept" rx="2.5" ry="2.5" style="stroke:#181818;stroke-width:0.5;" width="85" x="859" y="490"/><ellipse cx="874" cy="506" fill="#ADD1B2" rx="11" ry="11" style="stroke:#181818;stroke-width:1.0;"/><path d="M876.7656,501.875 Q876.9219,501.6563 877.1094,501.5469 Q877.2969,501.4375 877.5156,501.4375 Q877.8906,501.4375 878.125,501.7031 Q878.3594,501.9531 878.3594,502.5625 L878.3594,504.0156 Q878.3594,504.625 878.125,504.8906 Q877.8906,505.1563 877.5156,505.1563 Q877.1719,505.1563 876.9688,504.9531 Q876.7656,504.7656 876.6563,504.25 Q876.6094,503.8906 876.4219,503.7031 Q876.0938,503.3281 875.4844,503.1094 Q874.875,502.8906 874.25,502.8906 Q873.4844,502.8906 872.8438,503.2188 Q872.2188,503.5469 871.7188,504.2969 Q871.2344,505.0469 871.2344,506.0781 L871.2344,507.1719 Q871.2344,508.4063 872.125,509.2344 Q873.0156,510.0469 874.6094,510.0469 Q875.5469,510.0469 876.2031,509.7969 Q876.5938,509.6406 877.0156,509.2031 Q877.2813,508.9375 877.4219,508.8594 Q877.5781,508.7813 877.7813,508.7813 Q878.1094,508.7813 878.3594,509.0469 Q878.625,509.2969 878.625,509.6406 Q878.625,509.9844 878.2813,510.3906 Q877.7813,510.9688 876.9844,511.2969 Q875.9063,511.75 874.6094,511.75 Q873.0938,511.75 871.8906,511.125 Q870.9063,510.625 870.2188,509.5625 Q869.5313,508.4844 869.5313,507.2031 L869.5313,506.0469 Q869.5313,504.7188 870.1406,503.5781 Q870.7656,502.4219 871.8594,501.8125 Q872.9531,501.1875 874.1875,501.1875 Q874.9219,501.1875 875.5625,501.3594 Q876.2188,501.5156 876.7656,501.875 Z " fill="#000000"/><text fill="#000000" font-family="sans-serif" font-size="14" lengthAdjust="spacing" textLength="53" x="888" y="511.7285">Concept</text><line style="stroke:#181818;stroke-width:0.5;" x1="860" x2="943" y1="522" y2="522"/><rect fill="none" height="6" style="stroke:#C82930;stroke-width:1.0;" width="6" x="867" y="533.3047"/><text fill="#000000" font-family="sans-serif" font-size="14" lengthAdjust="spacing" textLength="52" x="879" y="540.5332">keyword</text><rect fill="none" height="6" style="stroke:#C82930;stroke-width:1.0;" width="6" x="867" y="550.9141"/><text fill="#000000" font-family="sans-serif" font-size="14" lengthAdjust="spacing" textLength="31" x="879" y="558.1426">state</text><line style="stroke:#181818;stroke-width:0.5;" x1="860" x2="943" y1="565.2188" y2="565.2188"/></g><!--MD5=[fc7123defb831ecdd44b2d9bcef6cceb]
class Question--><g id="elem_Question"><rect codeLine="23" fill="#F1F1F1" height="83.2188" id="Question" rx="2.5" ry="2.5" style="stroke:#181818;stroke-width:0.5;" width="120" x="539.5" y="634"/><ellipse cx="568.45" cy="650" fill="#ADD1B2" rx="11" ry="11" style="stroke:#181818;stroke-width:1.0;"/><path d="M571.2156,645.875 Q571.3719,645.6563 571.5594,645.5469 Q571.7469,645.4375 571.9656,645.4375 Q572.3406,645.4375 572.575,645.7031 Q572.8094,645.9531 572.8094,646.5625 L572.8094,648.0156 Q572.8094,648.625 572.575,648.8906 Q572.3406,649.1563 571.9656,649.1563 Q571.6219,649.1563 571.4188,648.9531 Q571.2156,648.7656 571.1063,648.25 Q571.0594,647.8906 570.8719,647.7031 Q570.5438,647.3281 569.9344,647.1094 Q569.325,646.8906 568.7,646.8906 Q567.9344,646.8906 567.2938,647.2188 Q566.6688,647.5469 566.1688,648.2969 Q565.6844,649.0469 565.6844,650.0781 L565.6844,651.1719 Q565.6844,652.4063 566.575,653.2344 Q567.4656,654.0469 569.0594,654.0469 Q569.9969,654.0469 570.6531,653.7969 Q571.0438,653.6406 571.4656,653.2031 Q571.7313,652.9375 571.8719,652.8594 Q572.0281,652.7813 572.2313,652.7813 Q572.5594,652.7813 572.8094,653.0469 Q573.075,653.2969 573.075,653.6406 Q573.075,653.9844 572.7313,654.3906 Q572.2313,654.9688 571.4344,655.2969 Q570.3563,655.75 569.0594,655.75 Q567.5438,655.75 566.3406,655.125 Q565.3563,654.625 564.6688,653.5625 Q563.9813,652.4844 563.9813,651.2031 L563.9813,650.0469 Q563.9813,648.7188 564.5906,647.5781 Q565.2156,646.4219 566.3094,645.8125 Q567.4031,645.1875 568.6375,645.1875 Q569.3719,645.1875 570.0125,645.3594 Q570.6688,645.5156 571.2156,645.875 Z " fill="#000000"/><text fill="#000000" font-family="sans-serif" font-size="14" lengthAdjust="spacing" textLength="57" x="585.55" y="655.7285">Question</text><line style="stroke:#181818;stroke-width:0.5;" x1="540.5" x2="658.5" y1="666" y2="666"/><rect fill="none" height="6" style="stroke:#C82930;stroke-width:1.0;" width="6" x="547.5" y="677.3047"/><text fill="#000000" font-family="sans-serif" font-size="14" lengthAdjust="spacing" textLength="94" x="559.5" y="684.5332">statementType</text><rect fill="none" height="6" style="stroke:#C82930;stroke-width:1.0;" width="6" x="547.5" y="694.9141"/><text fill="#000000" font-family="sans-serif" font-size="14" lengthAdjust="spacing" textLength="77" x="559.5" y="702.1426">answerType</text><line style="stroke:#181818;stroke-width:0.5;" x1="540.5" x2="658.5" y1="709.2188" y2="709.2188"/></g><!--MD5=[a61a298976b7d1d94498f45c2ebfa10b]
class Statement--><g id="elem_Statement"><rect codeLine="28" fill="#F1F1F1" height="48" id="Statement" rx="2.5" ry="2.5" style="stroke:#181818;stroke-width:0.5;" width="96" x="368.5" y="834"/><ellipse cx="383.5" cy="850" fill="#ADD1B2" rx="11" ry="11" style="stroke:#181818;stroke-width:1.0;"/><path d="M386.2656,845.875 Q386.4219,845.6563 386.6094,845.5469 Q386.7969,845.4375 387.0156,845.4375 Q387.3906,845.4375 387.625,845.7031 Q387.8594,845.9531 387.8594,846.5625 L387.8594,848.0156 Q387.8594,848.625 387.625,848.8906 Q387.3906,849.1563 387.0156,849.1563 Q386.6719,849.1563 386.4688,848.9531 Q386.2656,848.7656 386.1563,848.25 Q386.1094,847.8906 385.9219,847.7031 Q385.5938,847.3281 384.9844,847.1094 Q384.375,846.8906 383.75,846.8906 Q382.9844,846.8906 382.3438,847.2188 Q381.7188,847.5469 381.2188,848.2969 Q380.7344,849.0469 380.7344,850.0781 L380.7344,851.1719 Q380.7344,852.4063 381.625,853.2344 Q382.5156,854.0469 384.1094,854.0469 Q385.0469,854.0469 385.7031,853.7969 Q386.0938,853.6406 386.5156,853.2031 Q386.7813,852.9375 386.9219,852.8594 Q387.0781,852.7813 387.2813,852.7813 Q387.6094,852.7813 387.8594,853.0469 Q388.125,853.2969 388.125,853.6406 Q388.125,853.9844 387.7813,854.3906 Q387.2813,854.9688 386.4844,855.2969 Q385.4063,855.75 384.1094,855.75 Q382.5938,855.75 381.3906,855.125 Q380.4063,854.625 379.7188,853.5625 Q379.0313,852.4844 379.0313,851.2031 L379.0313,850.0469 Q379.0313,848.7188 379.6406,847.5781 Q380.2656,846.4219 381.3594,845.8125 Q382.4531,845.1875 383.6875,845.1875 Q384.4219,845.1875 385.0625,845.3594 Q385.7188,845.5156 386.2656,845.875 Z " fill="#000000"/><text fill="#000000" font-family="sans-serif" font-size="14" lengthAdjust="spacing" textLength="64" x="397.5" y="855.7285">Statement</text><line style="stroke:#181818;stroke-width:0.5;" x1="369.5" x2="463.5" y1="866" y2="866"/><line style="stroke:#181818;stroke-width:0.5;" x1="369.5" x2="463.5" y1="874" y2="874"/></g><!--MD5=[f9fadfa5a66b7e5a67b370cd443ffe52]
class Answer--><g id="elem_Answer"><rect codeLine="30" fill="#F1F1F1" height="65.6094" id="Answer" rx="2.5" ry="2.5" style="stroke:#181818;stroke-width:0.5;" width="78" x="499.5" y="825"/><ellipse cx="514.5" cy="841" fill="#ADD1B2" rx="11" ry="11" style="stroke:#181818;stroke-width:1.0;"/><path d="M517.2656,836.875 Q517.4219,836.6563 517.6094,836.5469 Q517.7969,836.4375 518.0156,836.4375 Q518.3906,836.4375 518.625,836.7031 Q518.8594,836.9531 518.8594,837.5625 L518.8594,839.0156 Q518.8594,839.625 518.625,839.8906 Q518.3906,840.1563 518.0156,840.1563 Q517.6719,840.1563 517.4688,839.9531 Q517.2656,839.7656 517.1563,839.25 Q517.1094,838.8906 516.9219,838.7031 Q516.5938,838.3281 515.9844,838.1094 Q515.375,837.8906 514.75,837.8906 Q513.9844,837.8906 513.3438,838.2188 Q512.7188,838.5469 512.2188,839.2969 Q511.7344,840.0469 511.7344,841.0781 L511.7344,842.1719 Q511.7344,843.4063 512.625,844.2344 Q513.5156,845.0469 515.1094,845.0469 Q516.0469,845.0469 516.7031,844.7969 Q517.0938,844.6406 517.5156,844.2031 Q517.7813,843.9375 517.9219,843.8594 Q518.0781,843.7813 518.2813,843.7813 Q518.6094,843.7813 518.8594,844.0469 Q519.125,844.2969 519.125,844.6406 Q519.125,844.9844 518.7813,845.3906 Q518.2813,845.9688 517.4844,846.2969 Q516.4063,846.75 515.1094,846.75 Q513.5938,846.75 512.3906,846.125 Q511.4063,845.625 510.7188,844.5625 Q510.0313,843.4844 510.0313,842.2031 L510.0313,841.0469 Q510.0313,839.7188 510.6406,838.5781 Q511.2656,837.4219 512.3594,836.8125 Q513.4531,836.1875 514.6875,836.1875 Q515.4219,836.1875 516.0625,836.3594 Q516.7188,836.5156 517.2656,836.875 Z " fill="#000000"/><text fill="#000000" font-family="sans-serif" font-size="14" lengthAdjust="spacing" textLength="46" x="528.5" y="846.7285">Answer</text><line style="stroke:#181818;stroke-width:0.5;" x1="500.5" x2="576.5" y1="857" y2="857"/><rect fill="none" height="6" style="stroke:#C82930;stroke-width:1.0;" width="6" x="507.5" y="868.3047"/><text fill="#000000" font-family="sans-serif" font-size="14" lengthAdjust="spacing" textLength="30" x="519.5" y="875.5332">isOK</text><line style="stroke:#181818;stroke-width:0.5;" x1="500.5" x2="576.5" y1="882.6094" y2="882.6094"/></g><!--MD5=[46bd26b9d192b770379839f45ce3e013]
class MultipleChoiceQuestion--><g id="elem_MultipleChoiceQuestion"><rect codeLine="34" fill="#F1F1F1" height="48" id="MultipleChoiceQuestion" rx="2.5" ry="2.5" style="stroke:#181818;stroke-width:0.5;" width="181" x="81" y="834"/><ellipse cx="96" cy="850" fill="#ADD1B2" rx="11" ry="11" style="stroke:#181818;stroke-width:1.0;"/><path d="M98.7656,845.875 Q98.9219,845.6563 99.1094,845.5469 Q99.2969,845.4375 99.5156,845.4375 Q99.8906,845.4375 100.125,845.7031 Q100.3594,845.9531 100.3594,846.5625 L100.3594,848.0156 Q100.3594,848.625 100.125,848.8906 Q99.8906,849.1563 99.5156,849.1563 Q99.1719,849.1563 98.9688,848.9531 Q98.7656,848.7656 98.6563,848.25 Q98.6094,847.8906 98.4219,847.7031 Q98.0938,847.3281 97.4844,847.1094 Q96.875,846.8906 96.25,846.8906 Q95.4844,846.8906 94.8438,847.2188 Q94.2188,847.5469 93.7188,848.2969 Q93.2344,849.0469 93.2344,850.0781 L93.2344,851.1719 Q93.2344,852.4063 94.125,853.2344 Q95.0156,854.0469 96.6094,854.0469 Q97.5469,854.0469 98.2031,853.7969 Q98.5938,853.6406 99.0156,853.2031 Q99.2813,852.9375 99.4219,852.8594 Q99.5781,852.7813 99.7813,852.7813 Q100.1094,852.7813 100.3594,853.0469 Q100.625,853.2969 100.625,853.6406 Q100.625,853.9844 100.2813,854.3906 Q99.7813,854.9688 98.9844,855.2969 Q97.9063,855.75 96.6094,855.75 Q95.0938,855.75 93.8906,855.125 Q92.9063,854.625 92.2188,853.5625 Q91.5313,852.4844 91.5313,851.2031 L91.5313,850.0469 Q91.5313,848.7188 92.1406,847.5781 Q92.7656,846.4219 93.8594,845.8125 Q94.9531,845.1875 96.1875,845.1875 Q96.9219,845.1875 97.5625,845.3594 Q98.2188,845.5156 98.7656,845.875 Z " fill="#000000"/><text fill="#000000" font-family="sans-serif" font-size="14" lengthAdjust="spacing" textLength="149" x="110" y="855.7285">MultipleChoiceQuestion</text><line style="stroke:#181818;stroke-width:0.5;" x1="82" x2="261" y1="866" y2="866"/><line style="stroke:#181818;stroke-width:0.5;" x1="82" x2="261" y1="874" y2="874"/></g><!--MD5=[c5be3d7e9ffcf6502258095b57411394]
class OpenQuestion--><g id="elem_OpenQuestion"><rect codeLine="36" fill="#F1F1F1" height="48" id="OpenQuestion" rx="2.5" ry="2.5" style="stroke:#181818;stroke-width:0.5;" width="124" x="612.5" y="834"/><ellipse cx="627.5" cy="850" fill="#ADD1B2" rx="11" ry="11" style="stroke:#181818;stroke-width:1.0;"/><path d="M630.2656,845.875 Q630.4219,845.6563 630.6094,845.5469 Q630.7969,845.4375 631.0156,845.4375 Q631.3906,845.4375 631.625,845.7031 Q631.8594,845.9531 631.8594,846.5625 L631.8594,848.0156 Q631.8594,848.625 631.625,848.8906 Q631.3906,849.1563 631.0156,849.1563 Q630.6719,849.1563 630.4688,848.9531 Q630.2656,848.7656 630.1563,848.25 Q630.1094,847.8906 629.9219,847.7031 Q629.5938,847.3281 628.9844,847.1094 Q628.375,846.8906 627.75,846.8906 Q626.9844,846.8906 626.3438,847.2188 Q625.7188,847.5469 625.2188,848.2969 Q624.7344,849.0469 624.7344,850.0781 L624.7344,851.1719 Q624.7344,852.4063 625.625,853.2344 Q626.5156,854.0469 628.1094,854.0469 Q629.0469,854.0469 629.7031,853.7969 Q630.0938,853.6406 630.5156,853.2031 Q630.7813,852.9375 630.9219,852.8594 Q631.0781,852.7813 631.2813,852.7813 Q631.6094,852.7813 631.8594,853.0469 Q632.125,853.2969 632.125,853.6406 Q632.125,853.9844 631.7813,854.3906 Q631.2813,854.9688 630.4844,855.2969 Q629.4063,855.75 628.1094,855.75 Q626.5938,855.75 625.3906,855.125 Q624.4063,854.625 623.7188,853.5625 Q623.0313,852.4844 623.0313,851.2031 L623.0313,850.0469 Q623.0313,848.7188 623.6406,847.5781 Q624.2656,846.4219 625.3594,845.8125 Q626.4531,845.1875 627.6875,845.1875 Q628.4219,845.1875 629.0625,845.3594 Q629.7188,845.5156 630.2656,845.875 Z " fill="#000000"/><text fill="#000000" font-family="sans-serif" font-size="14" lengthAdjust="spacing" textLength="92" x="641.5" y="855.7285">OpenQuestion</text><line style="stroke:#181818;stroke-width:0.5;" x1="613.5" x2="735.5" y1="866" y2="866"/><line style="stroke:#181818;stroke-width:0.5;" x1="613.5" x2="735.5" y1="874" y2="874"/></g><!--MD5=[b07065dfc0d0e09965ec10bfc328bb3e]
class Option--><g id="elem_Option"><rect codeLine="38" fill="#F1F1F1" height="48" id="Option" rx="2.5" ry="2.5" style="stroke:#181818;stroke-width:0.5;" width="74" x="79.5" y="986.5"/><ellipse cx="94.5" cy="1002.5" fill="#ADD1B2" rx="11" ry="11" style="stroke:#181818;stroke-width:1.0;"/><path d="M97.2656,998.375 Q97.4219,998.1563 97.6094,998.0469 Q97.7969,997.9375 98.0156,997.9375 Q98.3906,997.9375 98.625,998.2031 Q98.8594,998.4531 98.8594,999.0625 L98.8594,1000.5156 Q98.8594,1001.125 98.625,1001.3906 Q98.3906,1001.6563 98.0156,1001.6563 Q97.6719,1001.6563 97.4688,1001.4531 Q97.2656,1001.2656 97.1563,1000.75 Q97.1094,1000.3906 96.9219,1000.2031 Q96.5938,999.8281 95.9844,999.6094 Q95.375,999.3906 94.75,999.3906 Q93.9844,999.3906 93.3438,999.7188 Q92.7188,1000.0469 92.2188,1000.7969 Q91.7344,1001.5469 91.7344,1002.5781 L91.7344,1003.6719 Q91.7344,1004.9063 92.625,1005.7344 Q93.5156,1006.5469 95.1094,1006.5469 Q96.0469,1006.5469 96.7031,1006.2969 Q97.0938,1006.1406 97.5156,1005.7031 Q97.7813,1005.4375 97.9219,1005.3594 Q98.0781,1005.2813 98.2813,1005.2813 Q98.6094,1005.2813 98.8594,1005.5469 Q99.125,1005.7969 99.125,1006.1406 Q99.125,1006.4844 98.7813,1006.8906 Q98.2813,1007.4688 97.4844,1007.7969 Q96.4063,1008.25 95.1094,1008.25 Q93.5938,1008.25 92.3906,1007.625 Q91.4063,1007.125 90.7188,1006.0625 Q90.0313,1004.9844 90.0313,1003.7031 L90.0313,1002.5469 Q90.0313,1001.2188 90.6406,1000.0781 Q91.2656,998.9219 92.3594,998.3125 Q93.4531,997.6875 94.6875,997.6875 Q95.4219,997.6875 96.0625,997.8594 Q96.7188,998.0156 97.2656,998.375 Z " fill="#000000"/><text fill="#000000" font-family="sans-serif" font-size="14" lengthAdjust="spacing" textLength="42" x="108.5" y="1008.2285">Option</text><line style="stroke:#181818;stroke-width:0.5;" x1="80.5" x2="152.5" y1="1018.5" y2="1018.5"/><line style="stroke:#181818;stroke-width:0.5;" x1="80.5" x2="152.5" y1="1026.5" y2="1026.5"/></g><!--MD5=[bc629657279eaa9349f412646650f2c5]
class Correct--><g id="elem_Correct"><rect codeLine="40" fill="#F1F1F1" height="48" id="Correct" rx="2.5" ry="2.5" style="stroke:#181818;stroke-width:0.5;" width="79" x="148" y="1113"/><ellipse cx="163" cy="1129" fill="#ADD1B2" rx="11" ry="11" style="stroke:#181818;stroke-width:1.0;"/><path d="M165.7656,1124.875 Q165.9219,1124.6563 166.1094,1124.5469 Q166.2969,1124.4375 166.5156,1124.4375 Q166.8906,1124.4375 167.125,1124.7031 Q167.3594,1124.9531 167.3594,1125.5625 L167.3594,1127.0156 Q167.3594,1127.625 167.125,1127.8906 Q166.8906,1128.1563 166.5156,1128.1563 Q166.1719,1128.1563 165.9688,1127.9531 Q165.7656,1127.7656 165.6563,1127.25 Q165.6094,1126.8906 165.4219,1126.7031 Q165.0938,1126.3281 164.4844,1126.1094 Q163.875,1125.8906 163.25,1125.8906 Q162.4844,1125.8906 161.8438,1126.2188 Q161.2188,1126.5469 160.7188,1127.2969 Q160.2344,1128.0469 160.2344,1129.0781 L160.2344,1130.1719 Q160.2344,1131.4063 161.125,1132.2344 Q162.0156,1133.0469 163.6094,1133.0469 Q164.5469,1133.0469 165.2031,1132.7969 Q165.5938,1132.6406 166.0156,1132.2031 Q166.2813,1131.9375 166.4219,1131.8594 Q166.5781,1131.7813 166.7813,1131.7813 Q167.1094,1131.7813 167.3594,1132.0469 Q167.625,1132.2969 167.625,1132.6406 Q167.625,1132.9844 167.2813,1133.3906 Q166.7813,1133.9688 165.9844,1134.2969 Q164.9063,1134.75 163.6094,1134.75 Q162.0938,1134.75 160.8906,1134.125 Q159.9063,1133.625 159.2188,1132.5625 Q158.5313,1131.4844 158.5313,1130.2031 L158.5313,1129.0469 Q158.5313,1127.7188 159.1406,1126.5781 Q159.7656,1125.4219 160.8594,1124.8125 Q161.9531,1124.1875 163.1875,1124.1875 Q163.9219,1124.1875 164.5625,1124.3594 Q165.2188,1124.5156 165.7656,1124.875 Z " fill="#000000"/><text fill="#000000" font-family="sans-serif" font-size="14" lengthAdjust="spacing" textLength="47" x="177" y="1134.7285">Correct</text><line style="stroke:#181818;stroke-width:0.5;" x1="149" x2="226" y1="1145" y2="1145"/><line style="stroke:#181818;stroke-width:0.5;" x1="149" x2="226" y1="1153" y2="1153"/></g><!--MD5=[37923dc032bbfca87d4413e584fa2cda]
class Incorrect--><g id="elem_Incorrect"><rect codeLine="42" fill="#F1F1F1" height="48" id="Incorrect" rx="2.5" ry="2.5" style="stroke:#181818;stroke-width:0.5;" width="87" x="7" y="1113"/><ellipse cx="22" cy="1129" fill="#ADD1B2" rx="11" ry="11" style="stroke:#181818;stroke-width:1.0;"/><path d="M24.7656,1124.875 Q24.9219,1124.6563 25.1094,1124.5469 Q25.2969,1124.4375 25.5156,1124.4375 Q25.8906,1124.4375 26.125,1124.7031 Q26.3594,1124.9531 26.3594,1125.5625 L26.3594,1127.0156 Q26.3594,1127.625 26.125,1127.8906 Q25.8906,1128.1563 25.5156,1128.1563 Q25.1719,1128.1563 24.9688,1127.9531 Q24.7656,1127.7656 24.6563,1127.25 Q24.6094,1126.8906 24.4219,1126.7031 Q24.0938,1126.3281 23.4844,1126.1094 Q22.875,1125.8906 22.25,1125.8906 Q21.4844,1125.8906 20.8438,1126.2188 Q20.2188,1126.5469 19.7188,1127.2969 Q19.2344,1128.0469 19.2344,1129.0781 L19.2344,1130.1719 Q19.2344,1131.4063 20.125,1132.2344 Q21.0156,1133.0469 22.6094,1133.0469 Q23.5469,1133.0469 24.2031,1132.7969 Q24.5938,1132.6406 25.0156,1132.2031 Q25.2813,1131.9375 25.4219,1131.8594 Q25.5781,1131.7813 25.7813,1131.7813 Q26.1094,1131.7813 26.3594,1132.0469 Q26.625,1132.2969 26.625,1132.6406 Q26.625,1132.9844 26.2813,1133.3906 Q25.7813,1133.9688 24.9844,1134.2969 Q23.9063,1134.75 22.6094,1134.75 Q21.0938,1134.75 19.8906,1134.125 Q18.9063,1133.625 18.2188,1132.5625 Q17.5313,1131.4844 17.5313,1130.2031 L17.5313,1129.0469 Q17.5313,1127.7188 18.1406,1126.5781 Q18.7656,1125.4219 19.8594,1124.8125 Q20.9531,1124.1875 22.1875,1124.1875 Q22.9219,1124.1875 23.5625,1124.3594 Q24.2188,1124.5156 24.7656,1124.875 Z " fill="#000000"/><text fill="#000000" font-family="sans-serif" font-size="14" lengthAdjust="spacing" textLength="55" x="36" y="1134.7285">Incorrect</text><line style="stroke:#181818;stroke-width:0.5;" x1="8" x2="93" y1="1145" y2="1145"/><line style="stroke:#181818;stroke-width:0.5;" x1="8" x2="93" y1="1153" y2="1153"/></g><!--MD5=[f7b1256a464262a81d5827fb39e684fb]
class Open--><g id="elem_Open"><rect codeLine="44" fill="#F1F1F1" height="83.2188" id="Open" rx="2.5" ry="2.5" style="stroke:#181818;stroke-width:0.5;" width="145" x="756" y="969"/><ellipse cx="806.75" cy="985" fill="#ADD1B2" rx="11" ry="11" style="stroke:#181818;stroke-width:1.0;"/><path d="M809.5156,980.875 Q809.6719,980.6563 809.8594,980.5469 Q810.0469,980.4375 810.2656,980.4375 Q810.6406,980.4375 810.875,980.7031 Q811.1094,980.9531 811.1094,981.5625 L811.1094,983.0156 Q811.1094,983.625 810.875,983.8906 Q810.6406,984.1563 810.2656,984.1563 Q809.9219,984.1563 809.7188,983.9531 Q809.5156,983.7656 809.4063,983.25 Q809.3594,982.8906 809.1719,982.7031 Q808.8438,982.3281 808.2344,982.1094 Q807.625,981.8906 807,981.8906 Q806.2344,981.8906 805.5938,982.2188 Q804.9688,982.5469 804.4688,983.2969 Q803.9844,984.0469 803.9844,985.0781 L803.9844,986.1719 Q803.9844,987.4063 804.875,988.2344 Q805.7656,989.0469 807.3594,989.0469 Q808.2969,989.0469 808.9531,988.7969 Q809.3438,988.6406 809.7656,988.2031 Q810.0313,987.9375 810.1719,987.8594 Q810.3281,987.7813 810.5313,987.7813 Q810.8594,987.7813 811.1094,988.0469 Q811.375,988.2969 811.375,988.6406 Q811.375,988.9844 811.0313,989.3906 Q810.5313,989.9688 809.7344,990.2969 Q808.6563,990.75 807.3594,990.75 Q805.8438,990.75 804.6406,990.125 Q803.6563,989.625 802.9688,988.5625 Q802.2813,987.4844 802.2813,986.2031 L802.2813,985.0469 Q802.2813,983.7188 802.8906,982.5781 Q803.5156,981.4219 804.6094,980.8125 Q805.7031,980.1875 806.9375,980.1875 Q807.6719,980.1875 808.3125,980.3594 Q808.9688,980.5156 809.5156,980.875 Z " fill="#000000"/><text fill="#000000" font-family="sans-serif" font-size="14" lengthAdjust="spacing" textLength="35" x="827.25" y="990.7285">Open</text><line style="stroke:#181818;stroke-width:0.5;" x1="757" x2="900" y1="1001" y2="1001"/><rect fill="none" height="6" style="stroke:#C82930;stroke-width:1.0;" width="6" x="764" y="1012.3047"/><text fill="#000000" font-family="sans-serif" font-size="14" lengthAdjust="spacing" textLength="73" x="776" y="1019.5332">isEvaluated</text><rect fill="none" height="6" style="stroke:#C82930;stroke-width:1.0;" width="6" x="764" y="1029.9141"/><text fill="#000000" font-family="sans-serif" font-size="14" lengthAdjust="spacing" textLength="119" x="776" y="1037.1426">isUsefulToConcept</text><line style="stroke:#181818;stroke-width:0.5;" x1="757" x2="900" y1="1044.2188" y2="1044.2188"/></g><!--MD5=[bed984ae8b00ce24eb0f64fea27a6507]
class SelectedOption--><g id="elem_SelectedOption"><rect codeLine="49" fill="#F1F1F1" height="48" id="SelectedOption" rx="2.5" ry="2.5" style="stroke:#181818;stroke-width:0.5;" width="129" x="260" y="986.5"/><ellipse cx="275" cy="1002.5" fill="#ADD1B2" rx="11" ry="11" style="stroke:#181818;stroke-width:1.0;"/><path d="M277.7656,998.375 Q277.9219,998.1563 278.1094,998.0469 Q278.2969,997.9375 278.5156,997.9375 Q278.8906,997.9375 279.125,998.2031 Q279.3594,998.4531 279.3594,999.0625 L279.3594,1000.5156 Q279.3594,1001.125 279.125,1001.3906 Q278.8906,1001.6563 278.5156,1001.6563 Q278.1719,1001.6563 277.9688,1001.4531 Q277.7656,1001.2656 277.6563,1000.75 Q277.6094,1000.3906 277.4219,1000.2031 Q277.0938,999.8281 276.4844,999.6094 Q275.875,999.3906 275.25,999.3906 Q274.4844,999.3906 273.8438,999.7188 Q273.2188,1000.0469 272.7188,1000.7969 Q272.2344,1001.5469 272.2344,1002.5781 L272.2344,1003.6719 Q272.2344,1004.9063 273.125,1005.7344 Q274.0156,1006.5469 275.6094,1006.5469 Q276.5469,1006.5469 277.2031,1006.2969 Q277.5938,1006.1406 278.0156,1005.7031 Q278.2813,1005.4375 278.4219,1005.3594 Q278.5781,1005.2813 278.7813,1005.2813 Q279.1094,1005.2813 279.3594,1005.5469 Q279.625,1005.7969 279.625,1006.1406 Q279.625,1006.4844 279.2813,1006.8906 Q278.7813,1007.4688 277.9844,1007.7969 Q276.9063,1008.25 275.6094,1008.25 Q274.0938,1008.25 272.8906,1007.625 Q271.9063,1007.125 271.2188,1006.0625 Q270.5313,1004.9844 270.5313,1003.7031 L270.5313,1002.5469 Q270.5313,1001.2188 271.1406,1000.0781 Q271.7656,998.9219 272.8594,998.3125 Q273.9531,997.6875 275.1875,997.6875 Q275.9219,997.6875 276.5625,997.8594 Q277.2188,998.0156 277.7656,998.375 Z " fill="#000000"/><text fill="#000000" font-family="sans-serif" font-size="14" lengthAdjust="spacing" textLength="97" x="289" y="1008.2285">SelectedOption</text><line style="stroke:#181818;stroke-width:0.5;" x1="261" x2="388" y1="1018.5" y2="1018.5"/><line style="stroke:#181818;stroke-width:0.5;" x1="261" x2="388" y1="1026.5" y2="1026.5"/></g><!--MD5=[af22135d5be6ed11ccd2d02fa51653b3]
class Definition--><g id="elem_Definition"><rect fill="#F1F1F1" height="48" id="Definition" rx="2.5" ry="2.5" style="stroke:#181818;stroke-width:0.5;" width="91" x="954" y="651.5"/><ellipse cx="969" cy="667.5" fill="#ADD1B2" rx="11" ry="11" style="stroke:#181818;stroke-width:1.0;"/><path d="M971.7656,663.375 Q971.9219,663.1563 972.1094,663.0469 Q972.2969,662.9375 972.5156,662.9375 Q972.8906,662.9375 973.125,663.2031 Q973.3594,663.4531 973.3594,664.0625 L973.3594,665.5156 Q973.3594,666.125 973.125,666.3906 Q972.8906,666.6563 972.5156,666.6563 Q972.1719,666.6563 971.9688,666.4531 Q971.7656,666.2656 971.6563,665.75 Q971.6094,665.3906 971.4219,665.2031 Q971.0938,664.8281 970.4844,664.6094 Q969.875,664.3906 969.25,664.3906 Q968.4844,664.3906 967.8438,664.7188 Q967.2188,665.0469 966.7188,665.7969 Q966.2344,666.5469 966.2344,667.5781 L966.2344,668.6719 Q966.2344,669.9063 967.125,670.7344 Q968.0156,671.5469 969.6094,671.5469 Q970.5469,671.5469 971.2031,671.2969 Q971.5938,671.1406 972.0156,670.7031 Q972.2813,670.4375 972.4219,670.3594 Q972.5781,670.2813 972.7813,670.2813 Q973.1094,670.2813 973.3594,670.5469 Q973.625,670.7969 973.625,671.1406 Q973.625,671.4844 973.2813,671.8906 Q972.7813,672.4688 971.9844,672.7969 Q970.9063,673.25 969.6094,673.25 Q968.0938,673.25 966.8906,672.625 Q965.9063,672.125 965.2188,671.0625 Q964.5313,669.9844 964.5313,668.7031 L964.5313,667.5469 Q964.5313,666.2188 965.1406,665.0781 Q965.7656,663.9219 966.8594,663.3125 Q967.9531,662.6875 969.1875,662.6875 Q969.9219,662.6875 970.5625,662.8594 Q971.2188,663.0156 971.7656,663.375 Z " fill="#000000"/><text fill="#000000" font-family="sans-serif" font-size="14" lengthAdjust="spacing" textLength="59" x="983" y="673.2285">Definition</text><line style="stroke:#181818;stroke-width:0.5;" x1="955" x2="1044" y1="683.5" y2="683.5"/><line style="stroke:#181818;stroke-width:0.5;" x1="955" x2="1044" y1="691.5" y2="691.5"/></g><!--MD5=[9b4de504215638550a8bb9c080b7ee00]
class Justification--><g id="elem_Justification"><rect fill="#F1F1F1" height="48" id="Justification" rx="2.5" ry="2.5" style="stroke:#181818;stroke-width:0.5;" width="105" x="843" y="834"/><ellipse cx="858" cy="850" fill="#ADD1B2" rx="11" ry="11" style="stroke:#181818;stroke-width:1.0;"/><path d="M860.7656,845.875 Q860.9219,845.6563 861.1094,845.5469 Q861.2969,845.4375 861.5156,845.4375 Q861.8906,845.4375 862.125,845.7031 Q862.3594,845.9531 862.3594,846.5625 L862.3594,848.0156 Q862.3594,848.625 862.125,848.8906 Q861.8906,849.1563 861.5156,849.1563 Q861.1719,849.1563 860.9688,848.9531 Q860.7656,848.7656 860.6563,848.25 Q860.6094,847.8906 860.4219,847.7031 Q860.0938,847.3281 859.4844,847.1094 Q858.875,846.8906 858.25,846.8906 Q857.4844,846.8906 856.8438,847.2188 Q856.2188,847.5469 855.7188,848.2969 Q855.2344,849.0469 855.2344,850.0781 L855.2344,851.1719 Q855.2344,852.4063 856.125,853.2344 Q857.0156,854.0469 858.6094,854.0469 Q859.5469,854.0469 860.2031,853.7969 Q860.5938,853.6406 861.0156,853.2031 Q861.2813,852.9375 861.4219,852.8594 Q861.5781,852.7813 861.7813,852.7813 Q862.1094,852.7813 862.3594,853.0469 Q862.625,853.2969 862.625,853.6406 Q862.625,853.9844 862.2813,854.3906 Q861.7813,854.9688 860.9844,855.2969 Q859.9063,855.75 858.6094,855.75 Q857.0938,855.75 855.8906,855.125 Q854.9063,854.625 854.2188,853.5625 Q853.5313,852.4844 853.5313,851.2031 L853.5313,850.0469 Q853.5313,848.7188 854.1406,847.5781 Q854.7656,846.4219 855.8594,845.8125 Q856.9531,845.1875 858.1875,845.1875 Q858.9219,845.1875 859.5625,845.3594 Q860.2188,845.5156 860.7656,845.875 Z " fill="#000000"/><text fill="#000000" font-family="sans-serif" font-size="14" lengthAdjust="spacing" textLength="73" x="872" y="855.7285">Justification</text><line style="stroke:#181818;stroke-width:0.5;" x1="844" x2="947" y1="866" y2="866"/><line style="stroke:#181818;stroke-width:0.5;" x1="844" x2="947" y1="874" y2="874"/></g><!--MD5=[b355d11dc5a9142e22f9a644da54834e]
class Explication--><g id="elem_Explication"><rect fill="#F1F1F1" height="48" id="Explication" rx="2.5" ry="2.5" style="stroke:#181818;stroke-width:0.5;" width="99" x="1010" y="986.5"/><ellipse cx="1025" cy="1002.5" fill="#ADD1B2" rx="11" ry="11" style="stroke:#181818;stroke-width:1.0;"/><path d="M1027.7656,998.375 Q1027.9219,998.1563 1028.1094,998.0469 Q1028.2969,997.9375 1028.5156,997.9375 Q1028.8906,997.9375 1029.125,998.2031 Q1029.3594,998.4531 1029.3594,999.0625 L1029.3594,1000.5156 Q1029.3594,1001.125 1029.125,1001.3906 Q1028.8906,1001.6563 1028.5156,1001.6563 Q1028.1719,1001.6563 1027.9688,1001.4531 Q1027.7656,1001.2656 1027.6563,1000.75 Q1027.6094,1000.3906 1027.4219,1000.2031 Q1027.0938,999.8281 1026.4844,999.6094 Q1025.875,999.3906 1025.25,999.3906 Q1024.4844,999.3906 1023.8438,999.7188 Q1023.2188,1000.0469 1022.7188,1000.7969 Q1022.2344,1001.5469 1022.2344,1002.5781 L1022.2344,1003.6719 Q1022.2344,1004.9063 1023.125,1005.7344 Q1024.0156,1006.5469 1025.6094,1006.5469 Q1026.5469,1006.5469 1027.2031,1006.2969 Q1027.5938,1006.1406 1028.0156,1005.7031 Q1028.2813,1005.4375 1028.4219,1005.3594 Q1028.5781,1005.2813 1028.7813,1005.2813 Q1029.1094,1005.2813 1029.3594,1005.5469 Q1029.625,1005.7969 1029.625,1006.1406 Q1029.625,1006.4844 1029.2813,1006.8906 Q1028.7813,1007.4688 1027.9844,1007.7969 Q1026.9063,1008.25 1025.6094,1008.25 Q1024.0938,1008.25 1022.8906,1007.625 Q1021.9063,1007.125 1021.2188,1006.0625 Q1020.5313,1004.9844 1020.5313,1003.7031 L1020.5313,1002.5469 Q1020.5313,1001.2188 1021.1406,1000.0781 Q1021.7656,998.9219 1022.8594,998.3125 Q1023.9531,997.6875 1025.1875,997.6875 Q1025.9219,997.6875 1026.5625,997.8594 Q1027.2188,998.0156 1027.7656,998.375 Z " fill="#000000"/><text fill="#000000" font-family="sans-serif" font-size="14" lengthAdjust="spacing" textLength="67" x="1039" y="1008.2285">Explication</text><line style="stroke:#181818;stroke-width:0.5;" x1="1011" x2="1108" y1="1018.5" y2="1018.5"/><line style="stroke:#181818;stroke-width:0.5;" x1="1011" x2="1108" y1="1026.5" y2="1026.5"/></g><!--MD5=[534474e9f05b14d7c70186ae077f30e0]
class Relation--><g id="elem_Relation"><rect fill="#F1F1F1" height="48" id="Relation" rx="2.5" ry="2.5" style="stroke:#181818;stroke-width:0.5;" width="84" x="1131.5" y="747"/><ellipse cx="1146.5" cy="763" fill="#ADD1B2" rx="11" ry="11" style="stroke:#181818;stroke-width:1.0;"/><path d="M1149.2656,758.875 Q1149.4219,758.6563 1149.6094,758.5469 Q1149.7969,758.4375 1150.0156,758.4375 Q1150.3906,758.4375 1150.625,758.7031 Q1150.8594,758.9531 1150.8594,759.5625 L1150.8594,761.0156 Q1150.8594,761.625 1150.625,761.8906 Q1150.3906,762.1563 1150.0156,762.1563 Q1149.6719,762.1563 1149.4688,761.9531 Q1149.2656,761.7656 1149.1563,761.25 Q1149.1094,760.8906 1148.9219,760.7031 Q1148.5938,760.3281 1147.9844,760.1094 Q1147.375,759.8906 1146.75,759.8906 Q1145.9844,759.8906 1145.3438,760.2188 Q1144.7188,760.5469 1144.2188,761.2969 Q1143.7344,762.0469 1143.7344,763.0781 L1143.7344,764.1719 Q1143.7344,765.4063 1144.625,766.2344 Q1145.5156,767.0469 1147.1094,767.0469 Q1148.0469,767.0469 1148.7031,766.7969 Q1149.0938,766.6406 1149.5156,766.2031 Q1149.7813,765.9375 1149.9219,765.8594 Q1150.0781,765.7813 1150.2813,765.7813 Q1150.6094,765.7813 1150.8594,766.0469 Q1151.125,766.2969 1151.125,766.6406 Q1151.125,766.9844 1150.7813,767.3906 Q1150.2813,767.9688 1149.4844,768.2969 Q1148.4063,768.75 1147.1094,768.75 Q1145.5938,768.75 1144.3906,768.125 Q1143.4063,767.625 1142.7188,766.5625 Q1142.0313,765.4844 1142.0313,764.2031 L1142.0313,763.0469 Q1142.0313,761.7188 1142.6406,760.5781 Q1143.2656,759.4219 1144.3594,758.8125 Q1145.4531,758.1875 1146.6875,758.1875 Q1147.4219,758.1875 1148.0625,758.3594 Q1148.7188,758.5156 1149.2656,758.875 Z " fill="#000000"/><text fill="#000000" font-family="sans-serif" font-size="14" lengthAdjust="spacing" textLength="52" x="1160.5" y="768.7285">Relation</text><line style="stroke:#181818;stroke-width:0.5;" x1="1132.5" x2="1214.5" y1="779" y2="779"/><line style="stroke:#181818;stroke-width:0.5;" x1="1132.5" x2="1214.5" y1="787" y2="787"/></g><!--MD5=[8235d596e40eaa310e25cb7e3d92ec72]
reverse link Community to User--><g id="link_Community_User"><path codeLine="52" d="M833.63,67.35 C826.93,83.29 819.2,101.68 813.25,115.83 " fill="none" id="Community-backto-User" style="stroke:#181818;stroke-width:1.0;"/><polygon fill="#181818" points="838.74,55.22,832.7302,59.2053,834.0975,66.2856,840.1073,62.3003,838.74,55.22" style="stroke:#181818;stroke-width:1.0;"/><text fill="#000000" font-family="sans-serif" font-size="13" lengthAdjust="spacing" textLength="22" x="790.9297" y="105.1266">2..n</text></g><!--MD5=[8b55897a5ea9705e017b96a45c367fde]
reverse link Community to Category--><g id="link_Community_Category"><path codeLine="53" d="M857.79,67.79 C867.45,105.05 882.3,162.29 890.52,193.94 " fill="none" id="Community-backto-Category" style="stroke:#181818;stroke-width:1.0;"/><polygon fill="none" points="854.48,55.06,852.1108,61.8708,857.4865,66.6773,859.8557,59.8665,854.48,55.06" style="stroke:#181818;stroke-width:1.0;"/><text fill="#000000" font-family="sans-serif" font-size="13" lengthAdjust="spacing" textLength="22" x="864.1689" y="183.2648">0..n</text></g><!--MD5=[c98fdacbcd4eb224c2d9d26b53646e58]
reverse link Category to Category--><g id="link_Category_Category"><path codeLine="55" d="M955.1,203.85 C967.53,205.28 976.5,210 976.5,218 C976.5,228.66 960.55,233.5 941.73,232.5 " fill="none" id="Category-backto-Category" style="stroke:#181818;stroke-width:1.0;"/><polygon fill="none" points="941.73,203.5,947.6225,207.6568,953.7258,203.8164,947.8334,199.6596,941.73,203.5" style="stroke:#181818;stroke-width:1.0;"/><text fill="#000000" font-family="sans-serif" font-size="13" lengthAdjust="spacing" textLength="83" x="982.5" y="223.4951">Subcategories</text><text fill="#000000" font-family="sans-serif" font-size="13" lengthAdjust="spacing" textLength="22" x="949.6373" y="230.9339">0..n</text></g><!--MD5=[d87c224b488f6c9759d0a77cb4053101]
reverse link User to Teacher--><g id="link_User_Teacher"><path codeLine="57" d="M803.5,184.37 C803.5,212.74 803.5,248.71 803.5,271.79 " fill="none" id="User-backto-Teacher" style="stroke:#181818;stroke-width:1.0;"/><polygon fill="none" points="796.5,184.06,803.5,164.06,810.5,184.06,796.5,184.06" style="stroke:#181818;stroke-width:1.0;"/></g><!--MD5=[29fe19ce294944fa80f389ae9bd987a4]
reverse link User to Student--><g id="link_User_Student"><path codeLine="58" d="M773,179.82 C750.22,208.81 719.86,247.46 700.74,271.79 " fill="none" id="User-backto-Student" style="stroke:#181818;stroke-width:1.0;"/><polygon fill="none" points="767.52,175.46,785.39,164.06,778.53,184.11,767.52,175.46" style="stroke:#181818;stroke-width:1.0;"/></g><!--MD5=[a8afb83bcf8ff3e1e4f8554b4cb258ee]
link Teacher to Concept--><g id="link_Teacher_Concept"><path codeLine="60" d="M813.25,320.24 C829.34,358.57 861.72,435.71 882.46,485.14 " fill="none" id="Teacher-to-Concept" style="stroke:#181818;stroke-width:1.0;stroke-dasharray:7.0,7.0;"/><polygon fill="#181818" points="884.43,489.83,884.624,479.9831,882.4897,485.2218,877.2509,483.0875,884.43,489.83" style="stroke:#181818;stroke-width:1.0;"/><text fill="#000000" font-family="sans-serif" font-size="13" lengthAdjust="spacing" textLength="22" x="857.7809" y="479.1095">0..n</text></g><!--MD5=[338c593997b7e5d530c3a07b33e0a9dd]
reverse link Category to Concept--><g id="link_Category_Concept"><path codeLine="61" d="M897.08,255.45 C898.03,314.04 899.87,428.79 900.85,489.91 " fill="none" id="Category-backto-Concept" style="stroke:#181818;stroke-width:1.0;"/><polygon fill="none" points="896.87,242.16,892.9694,248.2251,897.0678,254.1584,900.9683,248.0933,896.87,242.16" style="stroke:#181818;stroke-width:1.0;"/></g><!--MD5=[18141af66d78099ce63b3b3d94bf7770]
reverse link Concept to Question--><g id="link_Concept_Question"><path codeLine="63" d="M847.05,558.1 C794.23,582.94 714.28,620.53 659.62,646.23 " fill="none" id="Concept-backto-Question" style="stroke:#181818;stroke-width:1.0;"/><polygon fill="none" points="858.87,552.54,851.7382,551.4734,848.0107,557.6464,855.1425,558.713,858.87,552.54" style="stroke:#181818;stroke-width:1.0;"/></g><!--MD5=[543bb2115b5a10697a67507a00f6a2f4]
reverse link Concept to Definition--><g id="link_Concept_Definition"><path codeLine="65" d="M936.99,583.93 C952.98,607.09 971.04,633.27 983.63,651.5 " fill="none" id="Concept-backto-Definition" style="stroke:#181818;stroke-width:1.0;"/><polygon fill="none" points="929.58,573.19,929.6965,580.4002,936.3968,583.0658,936.2803,575.8556,929.58,573.19" style="stroke:#181818;stroke-width:1.0;"/></g><!--MD5=[38796b68b5180f699f927fbe8d179b6a]
reverse link Definition to Justification--><g id="link_Definition_Justification"><path codeLine="66" d="M979.53,711.16 C958.74,747.25 926.75,802.77 908.83,833.86 " fill="none" id="Definition-backto-Justification" style="stroke:#181818;stroke-width:1.0;"/><polygon fill="none" points="986.12,699.73,979.6606,702.9356,980.1351,710.131,986.5946,706.9255,986.12,699.73" style="stroke:#181818;stroke-width:1.0;"/></g><!--MD5=[5b13a3dd25e80832e08dfc192ea141c9]
reverse link Justification to Explication--><g id="link_Justification_Explication"><path codeLine="67" d="M943.6,889.68 C957.03,899.09 971.29,909.91 983.5,921 C1005.68,941.16 1027.62,967.59 1042.18,986.3 " fill="none" id="Justification-backto-Explication" style="stroke:#181818;stroke-width:1.0;"/><polygon fill="none" points="932.57,882.13,935.2622,888.8197,942.4727,888.9076,939.7806,882.2179,932.57,882.13" style="stroke:#181818;stroke-width:1.0;"/></g><!--MD5=[54f9360500e0fd532969fc16f437bbea]
reverse link Concept to Relation--><g id="link_Concept_Relation"><path codeLine="68" d="M955.71,560.79 C988.45,579.26 1029.99,605.24 1062.5,634 C1101.76,668.74 1138.37,718.19 1158.17,746.9 " fill="none" id="Concept-backto-Relation" style="stroke:#181818;stroke-width:1.0;"/><polygon fill="none" points="944.08,554.34,947.3899,560.7466,954.5767,560.1554,951.2668,553.7488,944.08,554.34" style="stroke:#181818;stroke-width:1.0;"/></g><!--MD5=[a87ccfb1ad401ebc9457283edda68da5]
link Student to Evaluation--><g id="link_Student_Evaluation"><path codeLine="70" d="M675.99,320.22 C671.43,336.48 665.31,358.32 660.46,375.62 " fill="none" id="Student-to-Evaluation" style="stroke:#181818;stroke-width:1.0;"/><polygon fill="#181818" points="659,380.83,665.2919,373.2529,660.3566,376.0176,657.592,371.0823,659,380.83" style="stroke:#181818;stroke-width:1.0;"/><text fill="#000000" font-family="sans-serif" font-size="13" lengthAdjust="spacing" textLength="22" x="635.8469" y="370.1266">0..n</text></g><!--MD5=[7ea0c49f743e358ac875b85df2ad47d3]
link Evaluation to Test--><g id="link_Evaluation_Test"><path codeLine="71" d="M645.63,429.13 C639.45,449.92 630.36,480.5 623.78,502.63 " fill="none" id="Evaluation-to-Test" style="stroke:#181818;stroke-width:1.0;"/><polygon fill="#181818" points="622.34,507.5,628.7206,499.9975,623.7531,502.7039,621.0468,497.7364,622.34,507.5" style="stroke:#181818;stroke-width:1.0;"/></g><!--MD5=[a2e747a1485550e1f078495d463b7eef]
link Evaluation to Result--><g id="link_Evaluation_Result"><path codeLine="72" d="M603.16,409 C516.88,414.94 342.69,430.17 289.5,459 C270.62,469.23 254.69,487.47 243.57,502.96 " fill="none" id="Evaluation-to-Result" style="stroke:#181818;stroke-width:1.0;"/><polygon fill="#181818" points="240.57,507.25,249.0093,502.1727,243.4383,503.1545,242.4565,497.5835,240.57,507.25" style="stroke:#181818;stroke-width:1.0;"/></g><!--MD5=[67b6cc77f9c51a9ece6c1301ad2aff24]
link Teacher to Evaluation--><g id="link_Teacher_Evaluation"><path codeLine="74" d="M770.74,320.22 C746.79,337.18 714.3,360.21 689.44,377.83 " fill="none" id="Teacher-to-Evaluation" style="stroke:#181818;stroke-width:1.0;stroke-dasharray:7.0,7.0;"/><polygon fill="#181818" points="685.2,380.83,694.8557,378.8891,689.2793,377.9387,690.2297,372.3623,685.2,380.83" style="stroke:#181818;stroke-width:1.0;"/></g><!--MD5=[c3245c7e9b373b58245ab9f4ffee1ea7]
link Definition to Open--><g id="link_Definition_Open"><path codeLine="75" d="M1005.38,699.72 C1016.37,748.81 1034.59,864.7 983.5,939 C965.45,965.25 935.13,981.89 906.07,992.37 " fill="none" id="Definition-to-Open" style="stroke:#181818;stroke-width:1.0;stroke-dasharray:7.0,7.0;"/><polygon fill="#181818" points="901.04,994.12,910.8564,994.9183,905.7586,992.4663,908.2106,987.3685,901.04,994.12" style="stroke:#181818;stroke-width:1.0;"/><text fill="#000000" font-family="sans-serif" font-size="13" lengthAdjust="spacing" textLength="108" x="1017.5" y="863.4951">isUsefulToConcept</text></g><!--MD5=[6ad1517f84722569c30aadeb4fcbcb40]
link Justification to Open--><g id="link_Justification_Open"><path codeLine="76" d="M885.18,882.19 C875.46,904.01 860.64,937.3 848.6,964.36 " fill="none" id="Justification-to-Open" style="stroke:#181818;stroke-width:1.0;stroke-dasharray:7.0,7.0;"/><polygon fill="#181818" points="846.53,968.99,853.8367,962.386,848.558,964.4198,846.5243,959.1411,846.53,968.99" style="stroke:#181818;stroke-width:1.0;"/><text fill="#000000" font-family="sans-serif" font-size="13" lengthAdjust="spacing" textLength="108" x="866.5" y="935.4951">isUsefulToConcept</text></g><!--MD5=[74e09a0ee898588e1e5422c7bd3ee035]
link Relation to Open--><g id="link_Relation_Open"><path codeLine="77" d="M1171.59,795.09 C1168.35,821.07 1159.66,863.27 1136.5,891 C1106.23,927.26 987.19,965.97 906.28,988.93 " fill="none" id="Relation-to-Open" style="stroke:#181818;stroke-width:1.0;stroke-dasharray:7.0,7.0;"/><polygon fill="#181818" points="901.01,990.42,910.7577,991.828,905.8224,989.0634,908.5871,984.1281,901.01,990.42" style="stroke:#181818;stroke-width:1.0;"/><text fill="#000000" font-family="sans-serif" font-size="13" lengthAdjust="spacing" textLength="108" x="1166.5" y="863.4951">isUsefulToConcept</text></g><!--MD5=[ca17406c02511657797f2df9b258646f]
link Evaluation to Open--><g id="link_Evaluation_Open"><path codeLine="79" d="M701.57,426.56 C740.88,446.69 789.5,481.49 789.5,530.5 C789.5,530.5 789.5,530.5 789.5,859 C789.5,894.98 800.07,934.29 810.21,963.71 " fill="none" id="Evaluation-to-Open" style="stroke:#181818;stroke-width:1.0;stroke-dasharray:7.0,7.0;"/><polygon fill="#181818" points="811.96,968.71,812.7755,958.895,810.3146,963.9885,805.2211,961.5276,811.96,968.71" style="stroke:#181818;stroke-width:1.0;"/><text fill="#000000" font-family="sans-serif" font-size="13" lengthAdjust="spacing" textLength="127" x="790.5" y="680.9951">manual (! isEvaluated)</text></g><!--MD5=[1fbef7c23275e6fc2ed02dd14078f225]
link Evaluation to SelectedOption--><g id="link_Evaluation_SelectedOption"><path codeLine="80" d="M603.5,413.6 C510.03,429.49 315.5,469.84 315.5,530.5 C315.5,530.5 315.5,530.5 315.5,859 C315.5,901.68 319.15,951.05 321.8,981.27 " fill="none" id="Evaluation-to-SelectedOption" style="stroke:#181818;stroke-width:1.0;stroke-dasharray:7.0,7.0;"/><polygon fill="#181818" points="322.25,986.32,325.4357,977.0006,321.8064,981.3397,317.4672,977.7104,322.25,986.32" style="stroke:#181818;stroke-width:1.0;"/><text fill="#000000" font-family="sans-serif" font-size="13" lengthAdjust="spacing" textLength="57" x="316.5" y="680.9951">automatic</text></g><!--MD5=[37c1e8dba486a8108983e1d119d6febb]
reverse link Test to Question--><g id="link_Test_Question"><path codeLine="82" d="M611.41,568.82 C609.17,588.69 606.39,613.36 604.08,633.87 " fill="none" id="Test-backto-Question" style="stroke:#181818;stroke-width:1.0;"/><polygon fill="#181818" points="612.89,555.63,608.2425,561.1437,611.5446,567.5543,616.1921,562.0406,612.89,555.63" style="stroke:#181818;stroke-width:1.0;"/><text fill="#000000" font-family="sans-serif" font-size="13" lengthAdjust="spacing" textLength="22" x="581.0167" y="623.1561">1..n</text></g><!--MD5=[5ea4867893d7a476c54f91c2252dd0f8]
reverse link Question to MultipleChoiceQuestion--><g id="link_Question_MultipleChoiceQuestion"><path codeLine="83" d="M520.56,709.79 C435.03,745.86 300.81,802.47 226.19,833.94 " fill="none" id="Question-backto-MultipleChoiceQuestion" style="stroke:#181818;stroke-width:1.0;"/><polygon fill="none" points="517.94,703.3,539.09,701.98,523.38,716.2,517.94,703.3" style="stroke:#181818;stroke-width:1.0;"/></g><!--MD5=[e68d8486b151d64b61c7f5b6e40a3de9]
reverse link Question to OpenQuestion--><g id="link_Question_OpenQuestion"><path codeLine="84" d="M624.16,735.84 C638.09,769.37 654.72,809.39 664.94,833.99 " fill="none" id="Question-backto-OpenQuestion" style="stroke:#181818;stroke-width:1.0;"/><polygon fill="none" points="617.54,738.16,616.33,717.01,630.47,732.79,617.54,738.16" style="stroke:#181818;stroke-width:1.0;"/></g><!--MD5=[eff6b19138ddb6af13849faaf0a4f1bc]
reverse link Question to Statement--><g id="link_Question_Statement"><path codeLine="85" d="M549.14,726.17 C513.45,761.37 467.22,806.97 439.83,833.99 " fill="none" id="Question-backto-Statement" style="stroke:#181818;stroke-width:1.0;"/><polygon fill="#181818" points="558.43,717.01,551.3492,718.3747,549.8856,725.4357,556.9664,724.071,558.43,717.01" style="stroke:#181818;stroke-width:1.0;"/></g><!--MD5=[185adfbec1fc38ddaede86a7c2f0e161]
reverse link MultipleChoiceQuestion to Option--><g id="link_MultipleChoiceQuestion_Option"><path codeLine="86" d="M158.44,894.73 C148.12,922.97 134.01,961.59 125.07,986.04 " fill="none" id="MultipleChoiceQuestion-backto-Option" style="stroke:#181818;stroke-width:1.0;"/><polygon fill="#181818" points="163.03,882.19,157.2112,886.4492,158.9048,893.4586,164.7236,889.1994,163.03,882.19" style="stroke:#181818;stroke-width:1.0;"/><text fill="#000000" font-family="sans-serif" font-size="13" lengthAdjust="spacing" textLength="22" x="102.4777" y="975.6658">2..n</text></g><!--MD5=[8b4b6ce4502ba24ddb3ea6e9e3ffd79d]
reverse link Option to Incorrect--><g id="link_Option_Incorrect"><path codeLine="87" d="M94.74,1052.54 C84.09,1072.64 71.66,1096.08 62.69,1113 " fill="none" id="Option-backto-Incorrect" style="stroke:#181818;stroke-width:1.0;"/><polygon fill="none" points="88.69,1049.02,104.24,1034.63,101.06,1055.57,88.69,1049.02" style="stroke:#181818;stroke-width:1.0;"/></g><!--MD5=[e9c99f228a0238815f6b3520e77f42c1]
reverse link Option to Correct--><g id="link_Option_Correct"><path codeLine="88" d="M139.73,1052.23 C151.23,1072.4 164.69,1096 174.38,1113 " fill="none" id="Option-backto-Correct" style="stroke:#181818;stroke-width:1.0;"/><polygon fill="none" points="133.52,1055.47,129.69,1034.63,145.68,1048.53,133.52,1055.47" style="stroke:#181818;stroke-width:1.0;"/></g><!--MD5=[af3bf499bed903ad0ed1598fcccf7b9c]
reverse link MultipleChoiceQuestion to Correct--><g id="link_MultipleChoiceQuestion_Correct"><path codeLine="89" d="M173.6,895.28 C176.93,953.08 183.37,1064.45 186.16,1112.73 " fill="none" id="MultipleChoiceQuestion-backto-Correct" style="stroke:#181818;stroke-width:1.0;"/><polygon fill="#181818" points="172.84,882.14,169.1892,888.3587,173.5253,894.1204,177.1761,887.9018,172.84,882.14" style="stroke:#181818;stroke-width:1.0;"/></g><!--MD5=[c33b5950e601fddbef86daa9f7dbaee3]
reverse link MultipleChoiceQuestion to Incorrect--><g id="link_MultipleChoiceQuestion_Incorrect"><path codeLine="90" d="M127.23,890.36 C103.29,909.99 75.78,937.5 61.5,969 C39.97,1016.5 43.22,1079.49 47.09,1112.9 " fill="none" id="MultipleChoiceQuestion-backto-Incorrect" style="stroke:#181818;stroke-width:1.0;"/><polygon fill="#181818" points="137.57,882.18,130.3832,882.7714,128.1649,889.6328,135.3517,889.0414,137.57,882.18" style="stroke:#181818;stroke-width:1.0;"/><text fill="#000000" font-family="sans-serif" font-size="13" lengthAdjust="spacing" textLength="22" x="21.3974" y="1102.2145">1..n</text></g><!--MD5=[a41781f1f1e8030a8e1780e035976660]
reverse link MultipleChoiceQuestion to SelectedOption--><g id="link_MultipleChoiceQuestion_SelectedOption"><path codeLine="91" d="M204.4,891.36 C233.44,919.92 275.06,960.87 300.9,986.29 " fill="none" id="MultipleChoiceQuestion-backto-SelectedOption" style="stroke:#181818;stroke-width:1.0;"/><polygon fill="none" points="195.07,882.19,196.5446,889.2487,203.6275,890.6025,202.1529,883.5437,195.07,882.19" style="stroke:#181818;stroke-width:1.0;"/><text fill="#000000" font-family="sans-serif" font-size="13" lengthAdjust="spacing" textLength="22" x="270.0338" y="975.5763">0..n</text></g><!--MD5=[796dfdab8991771f793f93ccedef4380]
reverse link OpenQuestion to Open--><g id="link_OpenQuestion_Open"><path codeLine="92" d="M707.66,891.4 C730.91,914.12 762.15,944.66 787.05,968.99 " fill="none" id="OpenQuestion-backto-Open" style="stroke:#181818;stroke-width:1.0;"/><polygon fill="none" points="698.23,882.19,699.7265,889.2441,706.8136,890.5758,705.3171,883.5217,698.23,882.19" style="stroke:#181818;stroke-width:1.0;"/><text fill="#000000" font-family="sans-serif" font-size="13" lengthAdjust="spacing" textLength="22" x="756.363" y="958.296">0..n</text></g><!--MD5=[5d713b1c0eb5d19b54b4791b73108c83]
reverse link Question to Answer--><g id="link_Question_Answer"><path codeLine="93" d="M581.65,729.33 C571.2,760.24 558.35,798.26 549.4,824.74 " fill="none" id="Question-backto-Answer" style="stroke:#181818;stroke-width:1.0;"/><polygon fill="none" points="585.81,717.01,580.101,721.4154,581.9718,728.3796,587.6808,723.9742,585.81,717.01" style="stroke:#181818;stroke-width:1.0;"/><text fill="#000000" font-family="sans-serif" font-size="13" lengthAdjust="spacing" textLength="22" x="527.3803" y="814.1851">0..n</text></g><!--MD5=[35a2f5aaea9a8dec5ab6cfc0884a901f]
reverse link Answer to Open--><g id="link_Answer_Open"><path codeLine="94" d="M595.49,891.32 C658.46,925.09 713.35,952.79 755.8,973.87 " fill="none" id="Answer-backto-Open" style="stroke:#181818;stroke-width:1.0;"/><polygon fill="none" points="591.81,897.28,577.52,881.63,598.45,884.96,591.81,897.28" style="stroke:#181818;stroke-width:1.0;"/></g><!--MD5=[c9991b0162c2b5928e47e95121f6f5d4]
reverse link Answer to SelectedOption--><g id="link_Answer_SelectedOption"><path codeLine="95" d="M482.79,898.18 C443.03,926.14 390.89,962.81 357.54,986.27 " fill="none" id="Answer-backto-SelectedOption" style="stroke:#181818;stroke-width:1.0;"/><polygon fill="none" points="478.86,892.38,499.25,886.6,486.92,903.84,478.86,892.38" style="stroke:#181818;stroke-width:1.0;"/></g><!--MD5=[9551386253077a3acf7bb9a57086feb7]
@startuml OpoTestDomain

class Community

class User

class Teacher

class Student

class Evaluation

class Result

class Category 

class Test 

class Concept {
    - keyword
    - state
}

class Question {
    - statementType
    - answerType
}

class Statement

class Answer {
    - isOK
}

class MultipleChoiceQuestion

class OpenQuestion

class Option

class Correct

Class Incorrect

class Open {
    - isEvaluated
    - isUsefulToConcept
}

Class SelectedOption


Community *- -"2..n" User
Community o- -"0..n" Category

Category o- -"0..n" Category : Subcategories

User <|- - Teacher
User <|- - Student

Teacher ..>"0..n" Concept
Category o- - Concept
'Concept - -o Category
Concept o- - Question
'Question - -o Concept
Concept o- - Definition
Definition o- - Justification
Justification o- - Explication
Concept o- - Relation

Student - ->"0..n" Evaluation
Evaluation - -> Test
Evaluation - -> Result

Teacher ..> Evaluation
Definition ..> Open :isUsefulToConcept
Justification ..> Open :isUsefulToConcept
Relation ..> Open :isUsefulToConcept

Evaluation ..> Open : manual (! isEvaluated)
Evaluation ..> SelectedOption : automatic

Test *- -"1..n" Question
Question <|- - MultipleChoiceQuestion
Question <|- - OpenQuestion
Question *- -   Statement
MultipleChoiceQuestion *- -"2..n" Option
Option <|- - Incorrect
Option <|- - Correct
MultipleChoiceQuestion *- - Correct
MultipleChoiceQuestion *- -"1..n" Incorrect
MultipleChoiceQuestion o- -"0..n" SelectedOption
OpenQuestion o- -"0..n" Open
Question o- -"0..n" Answer
Answer <|- - Open
Answer <|- - SelectedOption


@enduml

@startuml OpoTestDomain

class Community

class User

class Teacher

class Student

class Evaluation

class Result

class Category 

class Test 

class Concept {
    - keyword
    - state
}

class Question {
    - statementType
    - answerType
}

class Statement

class Answer {
    - isOK
}

class MultipleChoiceQuestion

class OpenQuestion

class Option

class Correct

Class Incorrect

class Open {
    - isEvaluated
    - isUsefulToConcept
}

Class SelectedOption


Community *- -"2..n" User
Community o- -"0..n" Category

Category o- -"0..n" Category : Subcategories

User <|- - Teacher
User <|- - Student

Teacher ..>"0..n" Concept
Category o- - Concept
Concept o- - Question
Concept o- - Definition
Definition o- - Justification
Justification o- - Explication
Concept o- - Relation

Student - ->"0..n" Evaluation
Evaluation - -> Test
Evaluation - -> Result

Teacher ..> Evaluation
Definition ..> Open :isUsefulToConcept
Justification ..> Open :isUsefulToConcept
Relation ..> Open :isUsefulToConcept

Evaluation ..> Open : manual (! isEvaluated)
Evaluation ..> SelectedOption : automatic

Test *- -"1..n" Question
Question <|- - MultipleChoiceQuestion
Question <|- - OpenQuestion
Question *- -   Statement
MultipleChoiceQuestion *- -"2..n" Option
Option <|- - Incorrect
Option <|- - Correct
MultipleChoiceQuestion *- - Correct
MultipleChoiceQuestion *- -"1..n" Incorrect
MultipleChoiceQuestion o- -"0..n" SelectedOption
OpenQuestion o- -"0..n" Open
Question o- -"0..n" Answer
Answer <|- - Open
Answer <|- - SelectedOption


@enduml

PlantUML version 1.2022.7(Mon Aug 22 18:01:30 WEST 2022)
(GPL source distribution)
Java Runtime: OpenJDK Runtime Environment
JVM: OpenJDK 64-Bit Server VM
Default Encoding: Cp1252
Language: es
Country: ES
--></g></svg>