<?xml version="1.0" encoding="UTF-8" standalone="no"?><svg xmlns="http://www.w3.org/2000/svg" xmlns:xlink="http://www.w3.org/1999/xlink" contentStyleType="text/css" height="1134px" preserveAspectRatio="none" style="width:1307px;height:1134px;background:#FFFFFF;" version="1.1" viewBox="0 0 1307 1134" width="1307px" zoomAndPan="magnify"><defs/><g><!--MD5=[668d633d11bedc8952753581a2dda3db]
class Community--><g id="elem_Community"><rect codeLine="2" fill="#F1F1F1" height="48" id="Community" rx="2.5" ry="2.5" style="stroke:#181818;stroke-width:0.5;" width="102" x="819.5" y="7"/><ellipse cx="834.5" cy="23" fill="#ADD1B2" rx="11" ry="11" style="stroke:#181818;stroke-width:1.0;"/><path d="M837.2656,18.875 Q837.4219,18.6563 837.6094,18.5469 Q837.7969,18.4375 838.0156,18.4375 Q838.3906,18.4375 838.625,18.7031 Q838.8594,18.9531 838.8594,19.5625 L838.8594,21.0156 Q838.8594,21.625 838.625,21.8906 Q838.3906,22.1563 838.0156,22.1563 Q837.6719,22.1563 837.4688,21.9531 Q837.2656,21.7656 837.1563,21.25 Q837.1094,20.8906 836.9219,20.7031 Q836.5938,20.3281 835.9844,20.1094 Q835.375,19.8906 834.75,19.8906 Q833.9844,19.8906 833.3438,20.2188 Q832.7188,20.5469 832.2188,21.2969 Q831.7344,22.0469 831.7344,23.0781 L831.7344,24.1719 Q831.7344,25.4063 832.625,26.2344 Q833.5156,27.0469 835.1094,27.0469 Q836.0469,27.0469 836.7031,26.7969 Q837.0938,26.6406 837.5156,26.2031 Q837.7813,25.9375 837.9219,25.8594 Q838.0781,25.7813 838.2813,25.7813 Q838.6094,25.7813 838.8594,26.0469 Q839.125,26.2969 839.125,26.6406 Q839.125,26.9844 838.7813,27.3906 Q838.2813,27.9688 837.4844,28.2969 Q836.4063,28.75 835.1094,28.75 Q833.5938,28.75 832.3906,28.125 Q831.4063,27.625 830.7188,26.5625 Q830.0313,25.4844 830.0313,24.2031 L830.0313,23.0469 Q830.0313,21.7188 830.6406,20.5781 Q831.2656,19.4219 832.3594,18.8125 Q833.4531,18.1875 834.6875,18.1875 Q835.4219,18.1875 836.0625,18.3594 Q836.7188,18.5156 837.2656,18.875 Z " fill="#000000"/><text fill="#000000" font-family="sans-serif" font-size="14" lengthAdjust="spacing" textLength="70" x="848.5" y="28.7285">Community</text><line style="stroke:#181818;stroke-width:0.5;" x1="820.5" x2="920.5" y1="39" y2="39"/><line style="stroke:#181818;stroke-width:0.5;" x1="820.5" x2="920.5" y1="47" y2="47"/></g><!--MD5=[3fd616f346a44cd59a91eb10b19e157c]
class User--><g id="elem_User"><rect codeLine="4" fill="#F1F1F1" height="48" id="User" rx="2.5" ry="2.5" style="stroke:#181818;stroke-width:0.5;" width="61" x="795" y="116"/><ellipse cx="810" cy="132" fill="#ADD1B2" rx="11" ry="11" style="stroke:#181818;stroke-width:1.0;"/><path d="M812.7656,127.875 Q812.9219,127.6563 813.1094,127.5469 Q813.2969,127.4375 813.5156,127.4375 Q813.8906,127.4375 814.125,127.7031 Q814.3594,127.9531 814.3594,128.5625 L814.3594,130.0156 Q814.3594,130.625 814.125,130.8906 Q813.8906,131.1563 813.5156,131.1563 Q813.1719,131.1563 812.9688,130.9531 Q812.7656,130.7656 812.6563,130.25 Q812.6094,129.8906 812.4219,129.7031 Q812.0938,129.3281 811.4844,129.1094 Q810.875,128.8906 810.25,128.8906 Q809.4844,128.8906 808.8438,129.2188 Q808.2188,129.5469 807.7188,130.2969 Q807.2344,131.0469 807.2344,132.0781 L807.2344,133.1719 Q807.2344,134.4063 808.125,135.2344 Q809.0156,136.0469 810.6094,136.0469 Q811.5469,136.0469 812.2031,135.7969 Q812.5938,135.6406 813.0156,135.2031 Q813.2813,134.9375 813.4219,134.8594 Q813.5781,134.7813 813.7813,134.7813 Q814.1094,134.7813 814.3594,135.0469 Q814.625,135.2969 814.625,135.6406 Q814.625,135.9844 814.2813,136.3906 Q813.7813,136.9688 812.9844,137.2969 Q811.9063,137.75 810.6094,137.75 Q809.0938,137.75 807.8906,137.125 Q806.9063,136.625 806.2188,135.5625 Q805.5313,134.4844 805.5313,133.2031 L805.5313,132.0469 Q805.5313,130.7188 806.1406,129.5781 Q806.7656,128.4219 807.8594,127.8125 Q808.9531,127.1875 810.1875,127.1875 Q810.9219,127.1875 811.5625,127.3594 Q812.2188,127.5156 812.7656,127.875 Z " fill="#000000"/><text fill="#000000" font-family="sans-serif" font-size="14" lengthAdjust="spacing" textLength="29" x="824" y="137.7285">User</text><line style="stroke:#181818;stroke-width:0.5;" x1="796" x2="855" y1="148" y2="148"/><line style="stroke:#181818;stroke-width:0.5;" x1="796" x2="855" y1="156" y2="156"/></g><!--MD5=[61a83f88cb8b7d3a80bc8c481f3736bf]
class Teacher--><g id="elem_Teacher"><rect codeLine="6" fill="#F1F1F1" height="48" id="Teacher" rx="2.5" ry="2.5" style="stroke:#181818;stroke-width:0.5;" width="85" x="783" y="272"/><ellipse cx="798" cy="288" fill="#ADD1B2" rx="11" ry="11" style="stroke:#181818;stroke-width:1.0;"/><path d="M800.7656,283.875 Q800.9219,283.6563 801.1094,283.5469 Q801.2969,283.4375 801.5156,283.4375 Q801.8906,283.4375 802.125,283.7031 Q802.3594,283.9531 802.3594,284.5625 L802.3594,286.0156 Q802.3594,286.625 802.125,286.8906 Q801.8906,287.1563 801.5156,287.1563 Q801.1719,287.1563 800.9688,286.9531 Q800.7656,286.7656 800.6563,286.25 Q800.6094,285.8906 800.4219,285.7031 Q800.0938,285.3281 799.4844,285.1094 Q798.875,284.8906 798.25,284.8906 Q797.4844,284.8906 796.8438,285.2188 Q796.2188,285.5469 795.7188,286.2969 Q795.2344,287.0469 795.2344,288.0781 L795.2344,289.1719 Q795.2344,290.4063 796.125,291.2344 Q797.0156,292.0469 798.6094,292.0469 Q799.5469,292.0469 800.2031,291.7969 Q800.5938,291.6406 801.0156,291.2031 Q801.2813,290.9375 801.4219,290.8594 Q801.5781,290.7813 801.7813,290.7813 Q802.1094,290.7813 802.3594,291.0469 Q802.625,291.2969 802.625,291.6406 Q802.625,291.9844 802.2813,292.3906 Q801.7813,292.9688 800.9844,293.2969 Q799.9063,293.75 798.6094,293.75 Q797.0938,293.75 795.8906,293.125 Q794.9063,292.625 794.2188,291.5625 Q793.5313,290.4844 793.5313,289.2031 L793.5313,288.0469 Q793.5313,286.7188 794.1406,285.5781 Q794.7656,284.4219 795.8594,283.8125 Q796.9531,283.1875 798.1875,283.1875 Q798.9219,283.1875 799.5625,283.3594 Q800.2188,283.5156 800.7656,283.875 Z " fill="#000000"/><text fill="#000000" font-family="sans-serif" font-size="14" lengthAdjust="spacing" textLength="53" x="812" y="293.7285">Teacher</text><line style="stroke:#181818;stroke-width:0.5;" x1="784" x2="867" y1="304" y2="304"/><line style="stroke:#181818;stroke-width:0.5;" x1="784" x2="867" y1="312" y2="312"/></g><!--MD5=[d6181cb537bdc20c0a3007a98a56832d]
class Student--><g id="elem_Student"><rect codeLine="8" fill="#F1F1F1" height="48" id="Student" rx="2.5" ry="2.5" style="stroke:#181818;stroke-width:0.5;" width="81" x="664" y="272"/><ellipse cx="679" cy="288" fill="#ADD1B2" rx="11" ry="11" style="stroke:#181818;stroke-width:1.0;"/><path d="M681.7656,283.875 Q681.9219,283.6563 682.1094,283.5469 Q682.2969,283.4375 682.5156,283.4375 Q682.8906,283.4375 683.125,283.7031 Q683.3594,283.9531 683.3594,284.5625 L683.3594,286.0156 Q683.3594,286.625 683.125,286.8906 Q682.8906,287.1563 682.5156,287.1563 Q682.1719,287.1563 681.9688,286.9531 Q681.7656,286.7656 681.6563,286.25 Q681.6094,285.8906 681.4219,285.7031 Q681.0938,285.3281 680.4844,285.1094 Q679.875,284.8906 679.25,284.8906 Q678.4844,284.8906 677.8438,285.2188 Q677.2188,285.5469 676.7188,286.2969 Q676.2344,287.0469 676.2344,288.0781 L676.2344,289.1719 Q676.2344,290.4063 677.125,291.2344 Q678.0156,292.0469 679.6094,292.0469 Q680.5469,292.0469 681.2031,291.7969 Q681.5938,291.6406 682.0156,291.2031 Q682.2813,290.9375 682.4219,290.8594 Q682.5781,290.7813 682.7813,290.7813 Q683.1094,290.7813 683.3594,291.0469 Q683.625,291.2969 683.625,291.6406 Q683.625,291.9844 683.2813,292.3906 Q682.7813,292.9688 681.9844,293.2969 Q680.9063,293.75 679.6094,293.75 Q678.0938,293.75 676.8906,293.125 Q675.9063,292.625 675.2188,291.5625 Q674.5313,290.4844 674.5313,289.2031 L674.5313,288.0469 Q674.5313,286.7188 675.1406,285.5781 Q675.7656,284.4219 676.8594,283.8125 Q677.9531,283.1875 679.1875,283.1875 Q679.9219,283.1875 680.5625,283.3594 Q681.2188,283.5156 681.7656,283.875 Z " fill="#000000"/><text fill="#000000" font-family="sans-serif" font-size="14" lengthAdjust="spacing" textLength="49" x="693" y="293.7285">Student</text><line style="stroke:#181818;stroke-width:0.5;" x1="665" x2="744" y1="304" y2="304"/><line style="stroke:#181818;stroke-width:0.5;" x1="665" x2="744" y1="312" y2="312"/></g><!--MD5=[71e8807956d33805e77353b9d7e2df39]
class Evaluation--><g id="elem_Evaluation"><rect codeLine="10" fill="#F1F1F1" height="48" id="Evaluation" rx="2.5" ry="2.5" style="stroke:#181818;stroke-width:0.5;" width="98" x="624.5" y="381"/><ellipse cx="639.5" cy="397" fill="#ADD1B2" rx="11" ry="11" style="stroke:#181818;stroke-width:1.0;"/><path d="M642.2656,392.875 Q642.4219,392.6563 642.6094,392.5469 Q642.7969,392.4375 643.0156,392.4375 Q643.3906,392.4375 643.625,392.7031 Q643.8594,392.9531 643.8594,393.5625 L643.8594,395.0156 Q643.8594,395.625 643.625,395.8906 Q643.3906,396.1563 643.0156,396.1563 Q642.6719,396.1563 642.4688,395.9531 Q642.2656,395.7656 642.1563,395.25 Q642.1094,394.8906 641.9219,394.7031 Q641.5938,394.3281 640.9844,394.1094 Q640.375,393.8906 639.75,393.8906 Q638.9844,393.8906 638.3438,394.2188 Q637.7188,394.5469 637.2188,395.2969 Q636.7344,396.0469 636.7344,397.0781 L636.7344,398.1719 Q636.7344,399.4063 637.625,400.2344 Q638.5156,401.0469 640.1094,401.0469 Q641.0469,401.0469 641.7031,400.7969 Q642.0938,400.6406 642.5156,400.2031 Q642.7813,399.9375 642.9219,399.8594 Q643.0781,399.7813 643.2813,399.7813 Q643.6094,399.7813 643.8594,400.0469 Q644.125,400.2969 644.125,400.6406 Q644.125,400.9844 643.7813,401.3906 Q643.2813,401.9688 642.4844,402.2969 Q641.4063,402.75 640.1094,402.75 Q638.5938,402.75 637.3906,402.125 Q636.4063,401.625 635.7188,400.5625 Q635.0313,399.4844 635.0313,398.2031 L635.0313,397.0469 Q635.0313,395.7188 635.6406,394.5781 Q636.2656,393.4219 637.3594,392.8125 Q638.4531,392.1875 639.6875,392.1875 Q640.4219,392.1875 641.0625,392.3594 Q641.7188,392.5156 642.2656,392.875 Z " fill="#000000"/><text fill="#000000" font-family="sans-serif" font-size="14" lengthAdjust="spacing" textLength="66" x="653.5" y="402.7285">Evaluation</text><line style="stroke:#181818;stroke-width:0.5;" x1="625.5" x2="721.5" y1="413" y2="413"/><line style="stroke:#181818;stroke-width:0.5;" x1="625.5" x2="721.5" y1="421" y2="421"/></g><!--MD5=[2741598bdf59a7d7e0d5c97658fd3022]
class Result--><g id="elem_Result"><rect codeLine="12" fill="#F1F1F1" height="48" id="Result" rx="2.5" ry="2.5" style="stroke:#181818;stroke-width:0.5;" width="72" x="190.5" y="499"/><ellipse cx="205.5" cy="515" fill="#ADD1B2" rx="11" ry="11" style="stroke:#181818;stroke-width:1.0;"/><path d="M208.2656,510.875 Q208.4219,510.6563 208.6094,510.5469 Q208.7969,510.4375 209.0156,510.4375 Q209.3906,510.4375 209.625,510.7031 Q209.8594,510.9531 209.8594,511.5625 L209.8594,513.0156 Q209.8594,513.625 209.625,513.8906 Q209.3906,514.1563 209.0156,514.1563 Q208.6719,514.1563 208.4688,513.9531 Q208.2656,513.7656 208.1563,513.25 Q208.1094,512.8906 207.9219,512.7031 Q207.5938,512.3281 206.9844,512.1094 Q206.375,511.8906 205.75,511.8906 Q204.9844,511.8906 204.3438,512.2188 Q203.7188,512.5469 203.2188,513.2969 Q202.7344,514.0469 202.7344,515.0781 L202.7344,516.1719 Q202.7344,517.4063 203.625,518.2344 Q204.5156,519.0469 206.1094,519.0469 Q207.0469,519.0469 207.7031,518.7969 Q208.0938,518.6406 208.5156,518.2031 Q208.7813,517.9375 208.9219,517.8594 Q209.0781,517.7813 209.2813,517.7813 Q209.6094,517.7813 209.8594,518.0469 Q210.125,518.2969 210.125,518.6406 Q210.125,518.9844 209.7813,519.3906 Q209.2813,519.9688 208.4844,520.2969 Q207.4063,520.75 206.1094,520.75 Q204.5938,520.75 203.3906,520.125 Q202.4063,519.625 201.7188,518.5625 Q201.0313,517.4844 201.0313,516.2031 L201.0313,515.0469 Q201.0313,513.7188 201.6406,512.5781 Q202.2656,511.4219 203.3594,510.8125 Q204.4531,510.1875 205.6875,510.1875 Q206.4219,510.1875 207.0625,510.3594 Q207.7188,510.5156 208.2656,510.875 Z " fill="#000000"/><text fill="#000000" font-family="sans-serif" font-size="14" lengthAdjust="spacing" textLength="40" x="219.5" y="520.7285">Result</text><line style="stroke:#181818;stroke-width:0.5;" x1="191.5" x2="261.5" y1="531" y2="531"/><line style="stroke:#181818;stroke-width:0.5;" x1="191.5" x2="261.5" y1="539" y2="539"/></g><!--MD5=[a96594a83e2ecdc78cbf17c2ddf01934]
class Category--><g id="elem_Category"><rect codeLine="14" fill="#F1F1F1" height="48" id="Category" rx="2.5" ry="2.5" style="stroke:#181818;stroke-width:0.5;" width="90" x="873.5" y="194"/><ellipse cx="888.5" cy="210" fill="#ADD1B2" rx="11" ry="11" style="stroke:#181818;stroke-width:1.0;"/><path d="M891.2656,205.875 Q891.4219,205.6563 891.6094,205.5469 Q891.7969,205.4375 892.0156,205.4375 Q892.3906,205.4375 892.625,205.7031 Q892.8594,205.9531 892.8594,206.5625 L892.8594,208.0156 Q892.8594,208.625 892.625,208.8906 Q892.3906,209.1563 892.0156,209.1563 Q891.6719,209.1563 891.4688,208.9531 Q891.2656,208.7656 891.1563,208.25 Q891.1094,207.8906 890.9219,207.7031 Q890.5938,207.3281 889.9844,207.1094 Q889.375,206.8906 888.75,206.8906 Q887.9844,206.8906 887.3438,207.2188 Q886.7188,207.5469 886.2188,208.2969 Q885.7344,209.0469 885.7344,210.0781 L885.7344,211.1719 Q885.7344,212.4063 886.625,213.2344 Q887.5156,214.0469 889.1094,214.0469 Q890.0469,214.0469 890.7031,213.7969 Q891.0938,213.6406 891.5156,213.2031 Q891.7813,212.9375 891.9219,212.8594 Q892.0781,212.7813 892.2813,212.7813 Q892.6094,212.7813 892.8594,213.0469 Q893.125,213.2969 893.125,213.6406 Q893.125,213.9844 892.7813,214.3906 Q892.2813,214.9688 891.4844,215.2969 Q890.4063,215.75 889.1094,215.75 Q887.5938,215.75 886.3906,215.125 Q885.4063,214.625 884.7188,213.5625 Q884.0313,212.4844 884.0313,211.2031 L884.0313,210.0469 Q884.0313,208.7188 884.6406,207.5781 Q885.2656,206.4219 886.3594,205.8125 Q887.4531,205.1875 888.6875,205.1875 Q889.4219,205.1875 890.0625,205.3594 Q890.7188,205.5156 891.2656,205.875 Z " fill="#000000"/><text fill="#000000" font-family="sans-serif" font-size="14" lengthAdjust="spacing" textLength="58" x="902.5" y="215.7285">Category</text><line style="stroke:#181818;stroke-width:0.5;" x1="874.5" x2="962.5" y1="226" y2="226"/><line style="stroke:#181818;stroke-width:0.5;" x1="874.5" x2="962.5" y1="234" y2="234"/></g><!--MD5=[df38be88ccee13e832d6fafd6288a4ca]
class Test--><g id="elem_Test"><rect codeLine="16" fill="#F1F1F1" height="48" id="Test" rx="2.5" ry="2.5" style="stroke:#181818;stroke-width:0.5;" width="60" x="603.5" y="499"/><ellipse cx="618.5" cy="515" fill="#ADD1B2" rx="11" ry="11" style="stroke:#181818;stroke-width:1.0;"/><path d="M621.2656,510.875 Q621.4219,510.6563 621.6094,510.5469 Q621.7969,510.4375 622.0156,510.4375 Q622.3906,510.4375 622.625,510.7031 Q622.8594,510.9531 622.8594,511.5625 L622.8594,513.0156 Q622.8594,513.625 622.625,513.8906 Q622.3906,514.1563 622.0156,514.1563 Q621.6719,514.1563 621.4688,513.9531 Q621.2656,513.7656 621.1563,513.25 Q621.1094,512.8906 620.9219,512.7031 Q620.5938,512.3281 619.9844,512.1094 Q619.375,511.8906 618.75,511.8906 Q617.9844,511.8906 617.3438,512.2188 Q616.7188,512.5469 616.2188,513.2969 Q615.7344,514.0469 615.7344,515.0781 L615.7344,516.1719 Q615.7344,517.4063 616.625,518.2344 Q617.5156,519.0469 619.1094,519.0469 Q620.0469,519.0469 620.7031,518.7969 Q621.0938,518.6406 621.5156,518.2031 Q621.7813,517.9375 621.9219,517.8594 Q622.0781,517.7813 622.2813,517.7813 Q622.6094,517.7813 622.8594,518.0469 Q623.125,518.2969 623.125,518.6406 Q623.125,518.9844 622.7813,519.3906 Q622.2813,519.9688 621.4844,520.2969 Q620.4063,520.75 619.1094,520.75 Q617.5938,520.75 616.3906,520.125 Q615.4063,519.625 614.7188,518.5625 Q614.0313,517.4844 614.0313,516.2031 L614.0313,515.0469 Q614.0313,513.7188 614.6406,512.5781 Q615.2656,511.4219 616.3594,510.8125 Q617.4531,510.1875 618.6875,510.1875 Q619.4219,510.1875 620.0625,510.3594 Q620.7188,510.5156 621.2656,510.875 Z " fill="#000000"/><text fill="#000000" font-family="sans-serif" font-size="14" lengthAdjust="spacing" textLength="28" x="632.5" y="520.7285">Test</text><line style="stroke:#181818;stroke-width:0.5;" x1="604.5" x2="662.5" y1="531" y2="531"/><line style="stroke:#181818;stroke-width:0.5;" x1="604.5" x2="662.5" y1="539" y2="539"/></g><!--MD5=[9d451b2f92d848a8e2d1a4dab2b1c6bf]
class Concept--><g id="elem_Concept"><rect codeLine="18" fill="#F1F1F1" height="65.6094" id="Concept" rx="2.5" ry="2.5" style="stroke:#181818;stroke-width:0.5;" width="85" x="881" y="490"/><ellipse cx="896" cy="506" fill="#ADD1B2" rx="11" ry="11" style="stroke:#181818;stroke-width:1.0;"/><path d="M898.7656,501.875 Q898.9219,501.6563 899.1094,501.5469 Q899.2969,501.4375 899.5156,501.4375 Q899.8906,501.4375 900.125,501.7031 Q900.3594,501.9531 900.3594,502.5625 L900.3594,504.0156 Q900.3594,504.625 900.125,504.8906 Q899.8906,505.1563 899.5156,505.1563 Q899.1719,505.1563 898.9688,504.9531 Q898.7656,504.7656 898.6563,504.25 Q898.6094,503.8906 898.4219,503.7031 Q898.0938,503.3281 897.4844,503.1094 Q896.875,502.8906 896.25,502.8906 Q895.4844,502.8906 894.8438,503.2188 Q894.2188,503.5469 893.7188,504.2969 Q893.2344,505.0469 893.2344,506.0781 L893.2344,507.1719 Q893.2344,508.4063 894.125,509.2344 Q895.0156,510.0469 896.6094,510.0469 Q897.5469,510.0469 898.2031,509.7969 Q898.5938,509.6406 899.0156,509.2031 Q899.2813,508.9375 899.4219,508.8594 Q899.5781,508.7813 899.7813,508.7813 Q900.1094,508.7813 900.3594,509.0469 Q900.625,509.2969 900.625,509.6406 Q900.625,509.9844 900.2813,510.3906 Q899.7813,510.9688 898.9844,511.2969 Q897.9063,511.75 896.6094,511.75 Q895.0938,511.75 893.8906,511.125 Q892.9063,510.625 892.2188,509.5625 Q891.5313,508.4844 891.5313,507.2031 L891.5313,506.0469 Q891.5313,504.7188 892.1406,503.5781 Q892.7656,502.4219 893.8594,501.8125 Q894.9531,501.1875 896.1875,501.1875 Q896.9219,501.1875 897.5625,501.3594 Q898.2188,501.5156 898.7656,501.875 Z " fill="#000000"/><text fill="#000000" font-family="sans-serif" font-size="14" lengthAdjust="spacing" textLength="53" x="910" y="511.7285">Concept</text><line style="stroke:#181818;stroke-width:0.5;" x1="882" x2="965" y1="522" y2="522"/><rect fill="none" height="6" style="stroke:#C82930;stroke-width:1.0;" width="6" x="889" y="533.3047"/><text fill="#000000" font-family="sans-serif" font-size="14" lengthAdjust="spacing" textLength="52" x="901" y="540.5332">keyword</text><line style="stroke:#181818;stroke-width:0.5;" x1="882" x2="965" y1="547.6094" y2="547.6094"/></g><!--MD5=[fc7123defb831ecdd44b2d9bcef6cceb]
class Question--><g id="elem_Question"><rect codeLine="22" fill="#F1F1F1" height="65.6094" id="Question" rx="2.5" ry="2.5" style="stroke:#181818;stroke-width:0.5;" width="120" x="555.5" y="617"/><ellipse cx="584.45" cy="633" fill="#ADD1B2" rx="11" ry="11" style="stroke:#181818;stroke-width:1.0;"/><path d="M587.2156,628.875 Q587.3719,628.6563 587.5594,628.5469 Q587.7469,628.4375 587.9656,628.4375 Q588.3406,628.4375 588.575,628.7031 Q588.8094,628.9531 588.8094,629.5625 L588.8094,631.0156 Q588.8094,631.625 588.575,631.8906 Q588.3406,632.1563 587.9656,632.1563 Q587.6219,632.1563 587.4188,631.9531 Q587.2156,631.7656 587.1063,631.25 Q587.0594,630.8906 586.8719,630.7031 Q586.5438,630.3281 585.9344,630.1094 Q585.325,629.8906 584.7,629.8906 Q583.9344,629.8906 583.2938,630.2188 Q582.6688,630.5469 582.1688,631.2969 Q581.6844,632.0469 581.6844,633.0781 L581.6844,634.1719 Q581.6844,635.4063 582.575,636.2344 Q583.4656,637.0469 585.0594,637.0469 Q585.9969,637.0469 586.6531,636.7969 Q587.0438,636.6406 587.4656,636.2031 Q587.7313,635.9375 587.8719,635.8594 Q588.0281,635.7813 588.2313,635.7813 Q588.5594,635.7813 588.8094,636.0469 Q589.075,636.2969 589.075,636.6406 Q589.075,636.9844 588.7313,637.3906 Q588.2313,637.9688 587.4344,638.2969 Q586.3563,638.75 585.0594,638.75 Q583.5438,638.75 582.3406,638.125 Q581.3563,637.625 580.6688,636.5625 Q579.9813,635.4844 579.9813,634.2031 L579.9813,633.0469 Q579.9813,631.7188 580.5906,630.5781 Q581.2156,629.4219 582.3094,628.8125 Q583.4031,628.1875 584.6375,628.1875 Q585.3719,628.1875 586.0125,628.3594 Q586.6688,628.5156 587.2156,628.875 Z " fill="#000000"/><text fill="#000000" font-family="sans-serif" font-size="14" lengthAdjust="spacing" textLength="57" x="601.55" y="638.7285">Question</text><line style="stroke:#181818;stroke-width:0.5;" x1="556.5" x2="674.5" y1="649" y2="649"/><rect fill="none" height="6" style="stroke:#C82930;stroke-width:1.0;" width="6" x="563.5" y="660.3047"/><text fill="#000000" font-family="sans-serif" font-size="14" lengthAdjust="spacing" textLength="94" x="575.5" y="667.5332">statementType</text><line style="stroke:#181818;stroke-width:0.5;" x1="556.5" x2="674.5" y1="674.6094" y2="674.6094"/></g><!--MD5=[a61a298976b7d1d94498f45c2ebfa10b]
class Statement--><g id="elem_Statement"><rect codeLine="26" fill="#F1F1F1" height="48" id="Statement" rx="2.5" ry="2.5" style="stroke:#181818;stroke-width:0.5;" width="96" x="368.5" y="808.5"/><ellipse cx="383.5" cy="824.5" fill="#ADD1B2" rx="11" ry="11" style="stroke:#181818;stroke-width:1.0;"/><path d="M386.2656,820.375 Q386.4219,820.1563 386.6094,820.0469 Q386.7969,819.9375 387.0156,819.9375 Q387.3906,819.9375 387.625,820.2031 Q387.8594,820.4531 387.8594,821.0625 L387.8594,822.5156 Q387.8594,823.125 387.625,823.3906 Q387.3906,823.6563 387.0156,823.6563 Q386.6719,823.6563 386.4688,823.4531 Q386.2656,823.2656 386.1563,822.75 Q386.1094,822.3906 385.9219,822.2031 Q385.5938,821.8281 384.9844,821.6094 Q384.375,821.3906 383.75,821.3906 Q382.9844,821.3906 382.3438,821.7188 Q381.7188,822.0469 381.2188,822.7969 Q380.7344,823.5469 380.7344,824.5781 L380.7344,825.6719 Q380.7344,826.9063 381.625,827.7344 Q382.5156,828.5469 384.1094,828.5469 Q385.0469,828.5469 385.7031,828.2969 Q386.0938,828.1406 386.5156,827.7031 Q386.7813,827.4375 386.9219,827.3594 Q387.0781,827.2813 387.2813,827.2813 Q387.6094,827.2813 387.8594,827.5469 Q388.125,827.7969 388.125,828.1406 Q388.125,828.4844 387.7813,828.8906 Q387.2813,829.4688 386.4844,829.7969 Q385.4063,830.25 384.1094,830.25 Q382.5938,830.25 381.3906,829.625 Q380.4063,829.125 379.7188,828.0625 Q379.0313,826.9844 379.0313,825.7031 L379.0313,824.5469 Q379.0313,823.2188 379.6406,822.0781 Q380.2656,820.9219 381.3594,820.3125 Q382.4531,819.6875 383.6875,819.6875 Q384.4219,819.6875 385.0625,819.8594 Q385.7188,820.0156 386.2656,820.375 Z " fill="#000000"/><text fill="#000000" font-family="sans-serif" font-size="14" lengthAdjust="spacing" textLength="64" x="397.5" y="830.2285">Statement</text><line style="stroke:#181818;stroke-width:0.5;" x1="369.5" x2="463.5" y1="840.5" y2="840.5"/><line style="stroke:#181818;stroke-width:0.5;" x1="369.5" x2="463.5" y1="848.5" y2="848.5"/></g><!--MD5=[f9fadfa5a66b7e5a67b370cd443ffe52]
class Answer--><g id="elem_Answer"><rect codeLine="28" fill="#F1F1F1" height="83.2188" id="Answer" rx="2.5" ry="2.5" style="stroke:#181818;stroke-width:0.5;" width="99" x="500" y="791"/><ellipse cx="524.45" cy="807" fill="#ADD1B2" rx="11" ry="11" style="stroke:#181818;stroke-width:1.0;"/><path d="M527.2156,802.875 Q527.3719,802.6563 527.5594,802.5469 Q527.7469,802.4375 527.9656,802.4375 Q528.3406,802.4375 528.575,802.7031 Q528.8094,802.9531 528.8094,803.5625 L528.8094,805.0156 Q528.8094,805.625 528.575,805.8906 Q528.3406,806.1563 527.9656,806.1563 Q527.6219,806.1563 527.4188,805.9531 Q527.2156,805.7656 527.1063,805.25 Q527.0594,804.8906 526.8719,804.7031 Q526.5438,804.3281 525.9344,804.1094 Q525.325,803.8906 524.7,803.8906 Q523.9344,803.8906 523.2938,804.2188 Q522.6688,804.5469 522.1688,805.2969 Q521.6844,806.0469 521.6844,807.0781 L521.6844,808.1719 Q521.6844,809.4063 522.575,810.2344 Q523.4656,811.0469 525.0594,811.0469 Q525.9969,811.0469 526.6531,810.7969 Q527.0438,810.6406 527.4656,810.2031 Q527.7313,809.9375 527.8719,809.8594 Q528.0281,809.7813 528.2313,809.7813 Q528.5594,809.7813 528.8094,810.0469 Q529.075,810.2969 529.075,810.6406 Q529.075,810.9844 528.7313,811.3906 Q528.2313,811.9688 527.4344,812.2969 Q526.3563,812.75 525.0594,812.75 Q523.5438,812.75 522.3406,812.125 Q521.3563,811.625 520.6688,810.5625 Q519.9813,809.4844 519.9813,808.2031 L519.9813,807.0469 Q519.9813,805.7188 520.5906,804.5781 Q521.2156,803.4219 522.3094,802.8125 Q523.4031,802.1875 524.6375,802.1875 Q525.3719,802.1875 526.0125,802.3594 Q526.6688,802.5156 527.2156,802.875 Z " fill="#000000"/><text fill="#000000" font-family="sans-serif" font-size="14" lengthAdjust="spacing" textLength="46" x="540.55" y="812.7285">Answer</text><line style="stroke:#181818;stroke-width:0.5;" x1="501" x2="598" y1="823" y2="823"/><rect fill="none" height="6" style="stroke:#C82930;stroke-width:1.0;" width="6" x="508" y="834.3047"/><text fill="#000000" font-family="sans-serif" font-size="14" lengthAdjust="spacing" textLength="30" x="520" y="841.5332">isOK</text><rect fill="none" height="6" style="stroke:#C82930;stroke-width:1.0;" width="6" x="508" y="851.9141"/><text fill="#000000" font-family="sans-serif" font-size="14" lengthAdjust="spacing" textLength="73" x="520" y="859.1426">isEvaluated</text><line style="stroke:#181818;stroke-width:0.5;" x1="501" x2="598" y1="866.2188" y2="866.2188"/></g><!--MD5=[46bd26b9d192b770379839f45ce3e013]
class MultipleChoiceQuestion--><g id="elem_MultipleChoiceQuestion"><rect codeLine="33" fill="#F1F1F1" height="48" id="MultipleChoiceQuestion" rx="2.5" ry="2.5" style="stroke:#181818;stroke-width:0.5;" width="181" x="81" y="808.5"/><ellipse cx="96" cy="824.5" fill="#ADD1B2" rx="11" ry="11" style="stroke:#181818;stroke-width:1.0;"/><path d="M98.7656,820.375 Q98.9219,820.1563 99.1094,820.0469 Q99.2969,819.9375 99.5156,819.9375 Q99.8906,819.9375 100.125,820.2031 Q100.3594,820.4531 100.3594,821.0625 L100.3594,822.5156 Q100.3594,823.125 100.125,823.3906 Q99.8906,823.6563 99.5156,823.6563 Q99.1719,823.6563 98.9688,823.4531 Q98.7656,823.2656 98.6563,822.75 Q98.6094,822.3906 98.4219,822.2031 Q98.0938,821.8281 97.4844,821.6094 Q96.875,821.3906 96.25,821.3906 Q95.4844,821.3906 94.8438,821.7188 Q94.2188,822.0469 93.7188,822.7969 Q93.2344,823.5469 93.2344,824.5781 L93.2344,825.6719 Q93.2344,826.9063 94.125,827.7344 Q95.0156,828.5469 96.6094,828.5469 Q97.5469,828.5469 98.2031,828.2969 Q98.5938,828.1406 99.0156,827.7031 Q99.2813,827.4375 99.4219,827.3594 Q99.5781,827.2813 99.7813,827.2813 Q100.1094,827.2813 100.3594,827.5469 Q100.625,827.7969 100.625,828.1406 Q100.625,828.4844 100.2813,828.8906 Q99.7813,829.4688 98.9844,829.7969 Q97.9063,830.25 96.6094,830.25 Q95.0938,830.25 93.8906,829.625 Q92.9063,829.125 92.2188,828.0625 Q91.5313,826.9844 91.5313,825.7031 L91.5313,824.5469 Q91.5313,823.2188 92.1406,822.0781 Q92.7656,820.9219 93.8594,820.3125 Q94.9531,819.6875 96.1875,819.6875 Q96.9219,819.6875 97.5625,819.8594 Q98.2188,820.0156 98.7656,820.375 Z " fill="#000000"/><text fill="#000000" font-family="sans-serif" font-size="14" lengthAdjust="spacing" textLength="149" x="110" y="830.2285">MultipleChoiceQuestion</text><line style="stroke:#181818;stroke-width:0.5;" x1="82" x2="261" y1="840.5" y2="840.5"/><line style="stroke:#181818;stroke-width:0.5;" x1="82" x2="261" y1="848.5" y2="848.5"/></g><!--MD5=[c5be3d7e9ffcf6502258095b57411394]
class OpenQuestion--><g id="elem_OpenQuestion"><rect codeLine="35" fill="#F1F1F1" height="48" id="OpenQuestion" rx="2.5" ry="2.5" style="stroke:#181818;stroke-width:0.5;" width="124" x="634.5" y="808.5"/><ellipse cx="649.5" cy="824.5" fill="#ADD1B2" rx="11" ry="11" style="stroke:#181818;stroke-width:1.0;"/><path d="M652.2656,820.375 Q652.4219,820.1563 652.6094,820.0469 Q652.7969,819.9375 653.0156,819.9375 Q653.3906,819.9375 653.625,820.2031 Q653.8594,820.4531 653.8594,821.0625 L653.8594,822.5156 Q653.8594,823.125 653.625,823.3906 Q653.3906,823.6563 653.0156,823.6563 Q652.6719,823.6563 652.4688,823.4531 Q652.2656,823.2656 652.1563,822.75 Q652.1094,822.3906 651.9219,822.2031 Q651.5938,821.8281 650.9844,821.6094 Q650.375,821.3906 649.75,821.3906 Q648.9844,821.3906 648.3438,821.7188 Q647.7188,822.0469 647.2188,822.7969 Q646.7344,823.5469 646.7344,824.5781 L646.7344,825.6719 Q646.7344,826.9063 647.625,827.7344 Q648.5156,828.5469 650.1094,828.5469 Q651.0469,828.5469 651.7031,828.2969 Q652.0938,828.1406 652.5156,827.7031 Q652.7813,827.4375 652.9219,827.3594 Q653.0781,827.2813 653.2813,827.2813 Q653.6094,827.2813 653.8594,827.5469 Q654.125,827.7969 654.125,828.1406 Q654.125,828.4844 653.7813,828.8906 Q653.2813,829.4688 652.4844,829.7969 Q651.4063,830.25 650.1094,830.25 Q648.5938,830.25 647.3906,829.625 Q646.4063,829.125 645.7188,828.0625 Q645.0313,826.9844 645.0313,825.7031 L645.0313,824.5469 Q645.0313,823.2188 645.6406,822.0781 Q646.2656,820.9219 647.3594,820.3125 Q648.4531,819.6875 649.6875,819.6875 Q650.4219,819.6875 651.0625,819.8594 Q651.7188,820.0156 652.2656,820.375 Z " fill="#000000"/><text fill="#000000" font-family="sans-serif" font-size="14" lengthAdjust="spacing" textLength="92" x="663.5" y="830.2285">OpenQuestion</text><line style="stroke:#181818;stroke-width:0.5;" x1="635.5" x2="757.5" y1="840.5" y2="840.5"/><line style="stroke:#181818;stroke-width:0.5;" x1="635.5" x2="757.5" y1="848.5" y2="848.5"/></g><!--MD5=[b07065dfc0d0e09965ec10bfc328bb3e]
class Option--><g id="elem_Option"><rect codeLine="37" fill="#F1F1F1" height="48" id="Option" rx="2.5" ry="2.5" style="stroke:#181818;stroke-width:0.5;" width="74" x="79.5" y="961"/><ellipse cx="94.5" cy="977" fill="#ADD1B2" rx="11" ry="11" style="stroke:#181818;stroke-width:1.0;"/><path d="M97.2656,972.875 Q97.4219,972.6563 97.6094,972.5469 Q97.7969,972.4375 98.0156,972.4375 Q98.3906,972.4375 98.625,972.7031 Q98.8594,972.9531 98.8594,973.5625 L98.8594,975.0156 Q98.8594,975.625 98.625,975.8906 Q98.3906,976.1563 98.0156,976.1563 Q97.6719,976.1563 97.4688,975.9531 Q97.2656,975.7656 97.1563,975.25 Q97.1094,974.8906 96.9219,974.7031 Q96.5938,974.3281 95.9844,974.1094 Q95.375,973.8906 94.75,973.8906 Q93.9844,973.8906 93.3438,974.2188 Q92.7188,974.5469 92.2188,975.2969 Q91.7344,976.0469 91.7344,977.0781 L91.7344,978.1719 Q91.7344,979.4063 92.625,980.2344 Q93.5156,981.0469 95.1094,981.0469 Q96.0469,981.0469 96.7031,980.7969 Q97.0938,980.6406 97.5156,980.2031 Q97.7813,979.9375 97.9219,979.8594 Q98.0781,979.7813 98.2813,979.7813 Q98.6094,979.7813 98.8594,980.0469 Q99.125,980.2969 99.125,980.6406 Q99.125,980.9844 98.7813,981.3906 Q98.2813,981.9688 97.4844,982.2969 Q96.4063,982.75 95.1094,982.75 Q93.5938,982.75 92.3906,982.125 Q91.4063,981.625 90.7188,980.5625 Q90.0313,979.4844 90.0313,978.2031 L90.0313,977.0469 Q90.0313,975.7188 90.6406,974.5781 Q91.2656,973.4219 92.3594,972.8125 Q93.4531,972.1875 94.6875,972.1875 Q95.4219,972.1875 96.0625,972.3594 Q96.7188,972.5156 97.2656,972.875 Z " fill="#000000"/><text fill="#000000" font-family="sans-serif" font-size="14" lengthAdjust="spacing" textLength="42" x="108.5" y="982.7285">Option</text><line style="stroke:#181818;stroke-width:0.5;" x1="80.5" x2="152.5" y1="993" y2="993"/><line style="stroke:#181818;stroke-width:0.5;" x1="80.5" x2="152.5" y1="1001" y2="1001"/></g><!--MD5=[bc629657279eaa9349f412646650f2c5]
class Correct--><g id="elem_Correct"><rect codeLine="39" fill="#F1F1F1" height="48" id="Correct" rx="2.5" ry="2.5" style="stroke:#181818;stroke-width:0.5;" width="79" x="148" y="1079"/><ellipse cx="163" cy="1095" fill="#ADD1B2" rx="11" ry="11" style="stroke:#181818;stroke-width:1.0;"/><path d="M165.7656,1090.875 Q165.9219,1090.6563 166.1094,1090.5469 Q166.2969,1090.4375 166.5156,1090.4375 Q166.8906,1090.4375 167.125,1090.7031 Q167.3594,1090.9531 167.3594,1091.5625 L167.3594,1093.0156 Q167.3594,1093.625 167.125,1093.8906 Q166.8906,1094.1563 166.5156,1094.1563 Q166.1719,1094.1563 165.9688,1093.9531 Q165.7656,1093.7656 165.6563,1093.25 Q165.6094,1092.8906 165.4219,1092.7031 Q165.0938,1092.3281 164.4844,1092.1094 Q163.875,1091.8906 163.25,1091.8906 Q162.4844,1091.8906 161.8438,1092.2188 Q161.2188,1092.5469 160.7188,1093.2969 Q160.2344,1094.0469 160.2344,1095.0781 L160.2344,1096.1719 Q160.2344,1097.4063 161.125,1098.2344 Q162.0156,1099.0469 163.6094,1099.0469 Q164.5469,1099.0469 165.2031,1098.7969 Q165.5938,1098.6406 166.0156,1098.2031 Q166.2813,1097.9375 166.4219,1097.8594 Q166.5781,1097.7813 166.7813,1097.7813 Q167.1094,1097.7813 167.3594,1098.0469 Q167.625,1098.2969 167.625,1098.6406 Q167.625,1098.9844 167.2813,1099.3906 Q166.7813,1099.9688 165.9844,1100.2969 Q164.9063,1100.75 163.6094,1100.75 Q162.0938,1100.75 160.8906,1100.125 Q159.9063,1099.625 159.2188,1098.5625 Q158.5313,1097.4844 158.5313,1096.2031 L158.5313,1095.0469 Q158.5313,1093.7188 159.1406,1092.5781 Q159.7656,1091.4219 160.8594,1090.8125 Q161.9531,1090.1875 163.1875,1090.1875 Q163.9219,1090.1875 164.5625,1090.3594 Q165.2188,1090.5156 165.7656,1090.875 Z " fill="#000000"/><text fill="#000000" font-family="sans-serif" font-size="14" lengthAdjust="spacing" textLength="47" x="177" y="1100.7285">Correct</text><line style="stroke:#181818;stroke-width:0.5;" x1="149" x2="226" y1="1111" y2="1111"/><line style="stroke:#181818;stroke-width:0.5;" x1="149" x2="226" y1="1119" y2="1119"/></g><!--MD5=[37923dc032bbfca87d4413e584fa2cda]
class Incorrect--><g id="elem_Incorrect"><rect codeLine="41" fill="#F1F1F1" height="48" id="Incorrect" rx="2.5" ry="2.5" style="stroke:#181818;stroke-width:0.5;" width="87" x="7" y="1079"/><ellipse cx="22" cy="1095" fill="#ADD1B2" rx="11" ry="11" style="stroke:#181818;stroke-width:1.0;"/><path d="M24.7656,1090.875 Q24.9219,1090.6563 25.1094,1090.5469 Q25.2969,1090.4375 25.5156,1090.4375 Q25.8906,1090.4375 26.125,1090.7031 Q26.3594,1090.9531 26.3594,1091.5625 L26.3594,1093.0156 Q26.3594,1093.625 26.125,1093.8906 Q25.8906,1094.1563 25.5156,1094.1563 Q25.1719,1094.1563 24.9688,1093.9531 Q24.7656,1093.7656 24.6563,1093.25 Q24.6094,1092.8906 24.4219,1092.7031 Q24.0938,1092.3281 23.4844,1092.1094 Q22.875,1091.8906 22.25,1091.8906 Q21.4844,1091.8906 20.8438,1092.2188 Q20.2188,1092.5469 19.7188,1093.2969 Q19.2344,1094.0469 19.2344,1095.0781 L19.2344,1096.1719 Q19.2344,1097.4063 20.125,1098.2344 Q21.0156,1099.0469 22.6094,1099.0469 Q23.5469,1099.0469 24.2031,1098.7969 Q24.5938,1098.6406 25.0156,1098.2031 Q25.2813,1097.9375 25.4219,1097.8594 Q25.5781,1097.7813 25.7813,1097.7813 Q26.1094,1097.7813 26.3594,1098.0469 Q26.625,1098.2969 26.625,1098.6406 Q26.625,1098.9844 26.2813,1099.3906 Q25.7813,1099.9688 24.9844,1100.2969 Q23.9063,1100.75 22.6094,1100.75 Q21.0938,1100.75 19.8906,1100.125 Q18.9063,1099.625 18.2188,1098.5625 Q17.5313,1097.4844 17.5313,1096.2031 L17.5313,1095.0469 Q17.5313,1093.7188 18.1406,1092.5781 Q18.7656,1091.4219 19.8594,1090.8125 Q20.9531,1090.1875 22.1875,1090.1875 Q22.9219,1090.1875 23.5625,1090.3594 Q24.2188,1090.5156 24.7656,1090.875 Z " fill="#000000"/><text fill="#000000" font-family="sans-serif" font-size="14" lengthAdjust="spacing" textLength="55" x="36" y="1100.7285">Incorrect</text><line style="stroke:#181818;stroke-width:0.5;" x1="8" x2="93" y1="1111" y2="1111"/><line style="stroke:#181818;stroke-width:0.5;" x1="8" x2="93" y1="1119" y2="1119"/></g><!--MD5=[f7b1256a464262a81d5827fb39e684fb]
class Open--><g id="elem_Open"><rect codeLine="43" fill="#F1F1F1" height="65.6094" id="Open" rx="2.5" ry="2.5" style="stroke:#181818;stroke-width:0.5;" width="145" x="778" y="952"/><ellipse cx="828.75" cy="968" fill="#ADD1B2" rx="11" ry="11" style="stroke:#181818;stroke-width:1.0;"/><path d="M831.5156,963.875 Q831.6719,963.6563 831.8594,963.5469 Q832.0469,963.4375 832.2656,963.4375 Q832.6406,963.4375 832.875,963.7031 Q833.1094,963.9531 833.1094,964.5625 L833.1094,966.0156 Q833.1094,966.625 832.875,966.8906 Q832.6406,967.1563 832.2656,967.1563 Q831.9219,967.1563 831.7188,966.9531 Q831.5156,966.7656 831.4063,966.25 Q831.3594,965.8906 831.1719,965.7031 Q830.8438,965.3281 830.2344,965.1094 Q829.625,964.8906 829,964.8906 Q828.2344,964.8906 827.5938,965.2188 Q826.9688,965.5469 826.4688,966.2969 Q825.9844,967.0469 825.9844,968.0781 L825.9844,969.1719 Q825.9844,970.4063 826.875,971.2344 Q827.7656,972.0469 829.3594,972.0469 Q830.2969,972.0469 830.9531,971.7969 Q831.3438,971.6406 831.7656,971.2031 Q832.0313,970.9375 832.1719,970.8594 Q832.3281,970.7813 832.5313,970.7813 Q832.8594,970.7813 833.1094,971.0469 Q833.375,971.2969 833.375,971.6406 Q833.375,971.9844 833.0313,972.3906 Q832.5313,972.9688 831.7344,973.2969 Q830.6563,973.75 829.3594,973.75 Q827.8438,973.75 826.6406,973.125 Q825.6563,972.625 824.9688,971.5625 Q824.2813,970.4844 824.2813,969.2031 L824.2813,968.0469 Q824.2813,966.7188 824.8906,965.5781 Q825.5156,964.4219 826.6094,963.8125 Q827.7031,963.1875 828.9375,963.1875 Q829.6719,963.1875 830.3125,963.3594 Q830.9688,963.5156 831.5156,963.875 Z " fill="#000000"/><text fill="#000000" font-family="sans-serif" font-size="14" lengthAdjust="spacing" textLength="35" x="849.25" y="973.7285">Open</text><line style="stroke:#181818;stroke-width:0.5;" x1="779" x2="922" y1="984" y2="984"/><rect fill="none" height="6" style="stroke:#C82930;stroke-width:1.0;" width="6" x="786" y="995.3047"/><text fill="#000000" font-family="sans-serif" font-size="14" lengthAdjust="spacing" textLength="119" x="798" y="1002.5332">isUsefulToConcept</text><line style="stroke:#181818;stroke-width:0.5;" x1="779" x2="922" y1="1009.6094" y2="1009.6094"/></g><!--MD5=[bed984ae8b00ce24eb0f64fea27a6507]
class SelectedOption--><g id="elem_SelectedOption"><rect codeLine="47" fill="#F1F1F1" height="48" id="SelectedOption" rx="2.5" ry="2.5" style="stroke:#181818;stroke-width:0.5;" width="129" x="260" y="961"/><ellipse cx="275" cy="977" fill="#ADD1B2" rx="11" ry="11" style="stroke:#181818;stroke-width:1.0;"/><path d="M277.7656,972.875 Q277.9219,972.6563 278.1094,972.5469 Q278.2969,972.4375 278.5156,972.4375 Q278.8906,972.4375 279.125,972.7031 Q279.3594,972.9531 279.3594,973.5625 L279.3594,975.0156 Q279.3594,975.625 279.125,975.8906 Q278.8906,976.1563 278.5156,976.1563 Q278.1719,976.1563 277.9688,975.9531 Q277.7656,975.7656 277.6563,975.25 Q277.6094,974.8906 277.4219,974.7031 Q277.0938,974.3281 276.4844,974.1094 Q275.875,973.8906 275.25,973.8906 Q274.4844,973.8906 273.8438,974.2188 Q273.2188,974.5469 272.7188,975.2969 Q272.2344,976.0469 272.2344,977.0781 L272.2344,978.1719 Q272.2344,979.4063 273.125,980.2344 Q274.0156,981.0469 275.6094,981.0469 Q276.5469,981.0469 277.2031,980.7969 Q277.5938,980.6406 278.0156,980.2031 Q278.2813,979.9375 278.4219,979.8594 Q278.5781,979.7813 278.7813,979.7813 Q279.1094,979.7813 279.3594,980.0469 Q279.625,980.2969 279.625,980.6406 Q279.625,980.9844 279.2813,981.3906 Q278.7813,981.9688 277.9844,982.2969 Q276.9063,982.75 275.6094,982.75 Q274.0938,982.75 272.8906,982.125 Q271.9063,981.625 271.2188,980.5625 Q270.5313,979.4844 270.5313,978.2031 L270.5313,977.0469 Q270.5313,975.7188 271.1406,974.5781 Q271.7656,973.4219 272.8594,972.8125 Q273.9531,972.1875 275.1875,972.1875 Q275.9219,972.1875 276.5625,972.3594 Q277.2188,972.5156 277.7656,972.875 Z " fill="#000000"/><text fill="#000000" font-family="sans-serif" font-size="14" lengthAdjust="spacing" textLength="97" x="289" y="982.7285">SelectedOption</text><line style="stroke:#181818;stroke-width:0.5;" x1="261" x2="388" y1="993" y2="993"/><line style="stroke:#181818;stroke-width:0.5;" x1="261" x2="388" y1="1001" y2="1001"/></g><!--MD5=[af22135d5be6ed11ccd2d02fa51653b3]
class Definition--><g id="elem_Definition"><rect fill="#F1F1F1" height="48" id="Definition" rx="2.5" ry="2.5" style="stroke:#181818;stroke-width:0.5;" width="91" x="976" y="626"/><ellipse cx="991" cy="642" fill="#ADD1B2" rx="11" ry="11" style="stroke:#181818;stroke-width:1.0;"/><path d="M993.7656,637.875 Q993.9219,637.6563 994.1094,637.5469 Q994.2969,637.4375 994.5156,637.4375 Q994.8906,637.4375 995.125,637.7031 Q995.3594,637.9531 995.3594,638.5625 L995.3594,640.0156 Q995.3594,640.625 995.125,640.8906 Q994.8906,641.1563 994.5156,641.1563 Q994.1719,641.1563 993.9688,640.9531 Q993.7656,640.7656 993.6563,640.25 Q993.6094,639.8906 993.4219,639.7031 Q993.0938,639.3281 992.4844,639.1094 Q991.875,638.8906 991.25,638.8906 Q990.4844,638.8906 989.8438,639.2188 Q989.2188,639.5469 988.7188,640.2969 Q988.2344,641.0469 988.2344,642.0781 L988.2344,643.1719 Q988.2344,644.4063 989.125,645.2344 Q990.0156,646.0469 991.6094,646.0469 Q992.5469,646.0469 993.2031,645.7969 Q993.5938,645.6406 994.0156,645.2031 Q994.2813,644.9375 994.4219,644.8594 Q994.5781,644.7813 994.7813,644.7813 Q995.1094,644.7813 995.3594,645.0469 Q995.625,645.2969 995.625,645.6406 Q995.625,645.9844 995.2813,646.3906 Q994.7813,646.9688 993.9844,647.2969 Q992.9063,647.75 991.6094,647.75 Q990.0938,647.75 988.8906,647.125 Q987.9063,646.625 987.2188,645.5625 Q986.5313,644.4844 986.5313,643.2031 L986.5313,642.0469 Q986.5313,640.7188 987.1406,639.5781 Q987.7656,638.4219 988.8594,637.8125 Q989.9531,637.1875 991.1875,637.1875 Q991.9219,637.1875 992.5625,637.3594 Q993.2188,637.5156 993.7656,637.875 Z " fill="#000000"/><text fill="#000000" font-family="sans-serif" font-size="14" lengthAdjust="spacing" textLength="59" x="1005" y="647.7285">Definition</text><line style="stroke:#181818;stroke-width:0.5;" x1="977" x2="1066" y1="658" y2="658"/><line style="stroke:#181818;stroke-width:0.5;" x1="977" x2="1066" y1="666" y2="666"/></g><!--MD5=[9b4de504215638550a8bb9c080b7ee00]
class Justification--><g id="elem_Justification"><rect fill="#F1F1F1" height="48" id="Justification" rx="2.5" ry="2.5" style="stroke:#181818;stroke-width:0.5;" width="105" x="865" y="808.5"/><ellipse cx="880" cy="824.5" fill="#ADD1B2" rx="11" ry="11" style="stroke:#181818;stroke-width:1.0;"/><path d="M882.7656,820.375 Q882.9219,820.1563 883.1094,820.0469 Q883.2969,819.9375 883.5156,819.9375 Q883.8906,819.9375 884.125,820.2031 Q884.3594,820.4531 884.3594,821.0625 L884.3594,822.5156 Q884.3594,823.125 884.125,823.3906 Q883.8906,823.6563 883.5156,823.6563 Q883.1719,823.6563 882.9688,823.4531 Q882.7656,823.2656 882.6563,822.75 Q882.6094,822.3906 882.4219,822.2031 Q882.0938,821.8281 881.4844,821.6094 Q880.875,821.3906 880.25,821.3906 Q879.4844,821.3906 878.8438,821.7188 Q878.2188,822.0469 877.7188,822.7969 Q877.2344,823.5469 877.2344,824.5781 L877.2344,825.6719 Q877.2344,826.9063 878.125,827.7344 Q879.0156,828.5469 880.6094,828.5469 Q881.5469,828.5469 882.2031,828.2969 Q882.5938,828.1406 883.0156,827.7031 Q883.2813,827.4375 883.4219,827.3594 Q883.5781,827.2813 883.7813,827.2813 Q884.1094,827.2813 884.3594,827.5469 Q884.625,827.7969 884.625,828.1406 Q884.625,828.4844 884.2813,828.8906 Q883.7813,829.4688 882.9844,829.7969 Q881.9063,830.25 880.6094,830.25 Q879.0938,830.25 877.8906,829.625 Q876.9063,829.125 876.2188,828.0625 Q875.5313,826.9844 875.5313,825.7031 L875.5313,824.5469 Q875.5313,823.2188 876.1406,822.0781 Q876.7656,820.9219 877.8594,820.3125 Q878.9531,819.6875 880.1875,819.6875 Q880.9219,819.6875 881.5625,819.8594 Q882.2188,820.0156 882.7656,820.375 Z " fill="#000000"/><text fill="#000000" font-family="sans-serif" font-size="14" lengthAdjust="spacing" textLength="73" x="894" y="830.2285">Justification</text><line style="stroke:#181818;stroke-width:0.5;" x1="866" x2="969" y1="840.5" y2="840.5"/><line style="stroke:#181818;stroke-width:0.5;" x1="866" x2="969" y1="848.5" y2="848.5"/></g><!--MD5=[b355d11dc5a9142e22f9a644da54834e]
class Explication--><g id="elem_Explication"><rect fill="#F1F1F1" height="48" id="Explication" rx="2.5" ry="2.5" style="stroke:#181818;stroke-width:0.5;" width="99" x="1032" y="961"/><ellipse cx="1047" cy="977" fill="#ADD1B2" rx="11" ry="11" style="stroke:#181818;stroke-width:1.0;"/><path d="M1049.7656,972.875 Q1049.9219,972.6563 1050.1094,972.5469 Q1050.2969,972.4375 1050.5156,972.4375 Q1050.8906,972.4375 1051.125,972.7031 Q1051.3594,972.9531 1051.3594,973.5625 L1051.3594,975.0156 Q1051.3594,975.625 1051.125,975.8906 Q1050.8906,976.1563 1050.5156,976.1563 Q1050.1719,976.1563 1049.9688,975.9531 Q1049.7656,975.7656 1049.6563,975.25 Q1049.6094,974.8906 1049.4219,974.7031 Q1049.0938,974.3281 1048.4844,974.1094 Q1047.875,973.8906 1047.25,973.8906 Q1046.4844,973.8906 1045.8438,974.2188 Q1045.2188,974.5469 1044.7188,975.2969 Q1044.2344,976.0469 1044.2344,977.0781 L1044.2344,978.1719 Q1044.2344,979.4063 1045.125,980.2344 Q1046.0156,981.0469 1047.6094,981.0469 Q1048.5469,981.0469 1049.2031,980.7969 Q1049.5938,980.6406 1050.0156,980.2031 Q1050.2813,979.9375 1050.4219,979.8594 Q1050.5781,979.7813 1050.7813,979.7813 Q1051.1094,979.7813 1051.3594,980.0469 Q1051.625,980.2969 1051.625,980.6406 Q1051.625,980.9844 1051.2813,981.3906 Q1050.7813,981.9688 1049.9844,982.2969 Q1048.9063,982.75 1047.6094,982.75 Q1046.0938,982.75 1044.8906,982.125 Q1043.9063,981.625 1043.2188,980.5625 Q1042.5313,979.4844 1042.5313,978.2031 L1042.5313,977.0469 Q1042.5313,975.7188 1043.1406,974.5781 Q1043.7656,973.4219 1044.8594,972.8125 Q1045.9531,972.1875 1047.1875,972.1875 Q1047.9219,972.1875 1048.5625,972.3594 Q1049.2188,972.5156 1049.7656,972.875 Z " fill="#000000"/><text fill="#000000" font-family="sans-serif" font-size="14" lengthAdjust="spacing" textLength="67" x="1061" y="982.7285">Explication</text><line style="stroke:#181818;stroke-width:0.5;" x1="1033" x2="1130" y1="993" y2="993"/><line style="stroke:#181818;stroke-width:0.5;" x1="1033" x2="1130" y1="1001" y2="1001"/></g><!--MD5=[534474e9f05b14d7c70186ae077f30e0]
class Relation--><g id="elem_Relation"><rect fill="#F1F1F1" height="48" id="Relation" rx="2.5" ry="2.5" style="stroke:#181818;stroke-width:0.5;" width="84" x="1153.5" y="713"/><ellipse cx="1168.5" cy="729" fill="#ADD1B2" rx="11" ry="11" style="stroke:#181818;stroke-width:1.0;"/><path d="M1171.2656,724.875 Q1171.4219,724.6563 1171.6094,724.5469 Q1171.7969,724.4375 1172.0156,724.4375 Q1172.3906,724.4375 1172.625,724.7031 Q1172.8594,724.9531 1172.8594,725.5625 L1172.8594,727.0156 Q1172.8594,727.625 1172.625,727.8906 Q1172.3906,728.1563 1172.0156,728.1563 Q1171.6719,728.1563 1171.4688,727.9531 Q1171.2656,727.7656 1171.1563,727.25 Q1171.1094,726.8906 1170.9219,726.7031 Q1170.5938,726.3281 1169.9844,726.1094 Q1169.375,725.8906 1168.75,725.8906 Q1167.9844,725.8906 1167.3438,726.2188 Q1166.7188,726.5469 1166.2188,727.2969 Q1165.7344,728.0469 1165.7344,729.0781 L1165.7344,730.1719 Q1165.7344,731.4063 1166.625,732.2344 Q1167.5156,733.0469 1169.1094,733.0469 Q1170.0469,733.0469 1170.7031,732.7969 Q1171.0938,732.6406 1171.5156,732.2031 Q1171.7813,731.9375 1171.9219,731.8594 Q1172.0781,731.7813 1172.2813,731.7813 Q1172.6094,731.7813 1172.8594,732.0469 Q1173.125,732.2969 1173.125,732.6406 Q1173.125,732.9844 1172.7813,733.3906 Q1172.2813,733.9688 1171.4844,734.2969 Q1170.4063,734.75 1169.1094,734.75 Q1167.5938,734.75 1166.3906,734.125 Q1165.4063,733.625 1164.7188,732.5625 Q1164.0313,731.4844 1164.0313,730.2031 L1164.0313,729.0469 Q1164.0313,727.7188 1164.6406,726.5781 Q1165.2656,725.4219 1166.3594,724.8125 Q1167.4531,724.1875 1168.6875,724.1875 Q1169.4219,724.1875 1170.0625,724.3594 Q1170.7188,724.5156 1171.2656,724.875 Z " fill="#000000"/><text fill="#000000" font-family="sans-serif" font-size="14" lengthAdjust="spacing" textLength="52" x="1182.5" y="734.7285">Relation</text><line style="stroke:#181818;stroke-width:0.5;" x1="1154.5" x2="1236.5" y1="745" y2="745"/><line style="stroke:#181818;stroke-width:0.5;" x1="1154.5" x2="1236.5" y1="753" y2="753"/></g><!--MD5=[8235d596e40eaa310e25cb7e3d92ec72]
reverse link Community to User--><g id="link_Community_User"><path codeLine="50" d="M855.63,67.35 C848.93,83.29 841.2,101.68 835.25,115.83 " fill="none" id="Community-backto-User" style="stroke:#181818;stroke-width:1.0;"/><polygon fill="#181818" points="860.74,55.22,854.7302,59.2053,856.0975,66.2856,862.1073,62.3003,860.74,55.22" style="stroke:#181818;stroke-width:1.0;"/><text fill="#000000" font-family="sans-serif" font-size="13" lengthAdjust="spacing" textLength="22" x="812.9297" y="105.1266">2..n</text></g><!--MD5=[8b55897a5ea9705e017b96a45c367fde]
reverse link Community to Category--><g id="link_Community_Category"><path codeLine="51" d="M879.79,67.79 C889.45,105.05 904.3,162.29 912.52,193.94 " fill="none" id="Community-backto-Category" style="stroke:#181818;stroke-width:1.0;"/><polygon fill="none" points="876.48,55.06,874.1108,61.8708,879.4865,66.6773,881.8557,59.8665,876.48,55.06" style="stroke:#181818;stroke-width:1.0;"/><text fill="#000000" font-family="sans-serif" font-size="13" lengthAdjust="spacing" textLength="22" x="886.1689" y="183.2648">0..n</text></g><!--MD5=[c98fdacbcd4eb224c2d9d26b53646e58]
reverse link Category to Category--><g id="link_Category_Category"><path codeLine="53" d="M977.1,203.85 C989.53,205.28 998.5,210 998.5,218 C998.5,228.66 982.55,233.5 963.73,232.5 " fill="none" id="Category-backto-Category" style="stroke:#181818;stroke-width:1.0;"/><polygon fill="none" points="963.73,203.5,969.6225,207.6568,975.7258,203.8164,969.8334,199.6596,963.73,203.5" style="stroke:#181818;stroke-width:1.0;"/><text fill="#000000" font-family="sans-serif" font-size="13" lengthAdjust="spacing" textLength="83" x="1004.5" y="223.4951">Subcategories</text><text fill="#000000" font-family="sans-serif" font-size="13" lengthAdjust="spacing" textLength="22" x="971.6373" y="230.9339">0..n</text></g><!--MD5=[d87c224b488f6c9759d0a77cb4053101]
reverse link User to Teacher--><g id="link_User_Teacher"><path codeLine="55" d="M825.5,184.37 C825.5,212.74 825.5,248.71 825.5,271.79 " fill="none" id="User-backto-Teacher" style="stroke:#181818;stroke-width:1.0;"/><polygon fill="none" points="818.5,184.06,825.5,164.06,832.5,184.06,818.5,184.06" style="stroke:#181818;stroke-width:1.0;"/></g><!--MD5=[29fe19ce294944fa80f389ae9bd987a4]
reverse link User to Student--><g id="link_User_Student"><path codeLine="56" d="M795,179.82 C772.22,208.81 741.86,247.46 722.74,271.79 " fill="none" id="User-backto-Student" style="stroke:#181818;stroke-width:1.0;"/><polygon fill="none" points="789.52,175.46,807.39,164.06,800.53,184.11,789.52,175.46" style="stroke:#181818;stroke-width:1.0;"/></g><!--MD5=[a8afb83bcf8ff3e1e4f8554b4cb258ee]
link Teacher to Concept--><g id="link_Teacher_Concept"><path codeLine="58" d="M835.62,320.23 C852.64,359.31 887.13,438.5 907.47,485.2 " fill="none" id="Teacher-to-Concept" style="stroke:#181818;stroke-width:1.0;stroke-dasharray:7.0,7.0;"/><polygon fill="#181818" points="909.52,489.9,909.5885,480.0514,907.5212,485.3169,902.2556,483.2495,909.52,489.9" style="stroke:#181818;stroke-width:1.0;"/></g><!--MD5=[338c593997b7e5d530c3a07b33e0a9dd]
reverse link Category to Concept--><g id="link_Category_Concept"><path codeLine="59" d="M919.1,255.45 C920.09,315.16 922.03,432.83 922.97,489.71 " fill="none" id="Category-backto-Concept" style="stroke:#181818;stroke-width:1.0;"/><polygon fill="none" points="918.88,242.27,914.9794,248.3351,919.0778,254.2684,922.9783,248.2033,918.88,242.27" style="stroke:#181818;stroke-width:1.0;"/><text fill="#000000" font-family="sans-serif" font-size="13" lengthAdjust="spacing" textLength="22" x="898.7" y="479.1492">0..n</text></g><!--MD5=[18141af66d78099ce63b3b3d94bf7770]
reverse link Concept to Question--><g id="link_Concept_Question"><path codeLine="61" d="M868.87,546.17 C814.6,568.2 731.61,601.88 675.53,624.64 " fill="none" id="Concept-backto-Question" style="stroke:#181818;stroke-width:1.0;"/><polygon fill="none" points="881,541.25,873.9364,539.799,869.8802,545.7612,876.9439,547.2122,881,541.25" style="stroke:#181818;stroke-width:1.0;"/><text fill="#000000" font-family="sans-serif" font-size="13" lengthAdjust="spacing" textLength="22" x="683.2989" y="618.527">0..n</text></g><!--MD5=[543bb2115b5a10697a67507a00f6a2f4]
reverse link Concept to Definition--><g id="link_Concept_Definition"><path codeLine="63" d="M956.88,566.57 C972.48,586.48 990.44,609.39 1003.46,625.99 " fill="none" id="Concept-backto-Definition" style="stroke:#181818;stroke-width:1.0;"/><polygon fill="none" points="948.74,556.19,949.2981,563.3795,956.1492,565.6295,955.5911,558.44,948.74,556.19" style="stroke:#181818;stroke-width:1.0;"/></g><!--MD5=[38796b68b5180f699f927fbe8d179b6a]
reverse link Definition to Justification--><g id="link_Definition_Justification"><path codeLine="64" d="M1001.53,685.66 C980.74,721.75 948.75,777.27 930.83,808.36 " fill="none" id="Definition-backto-Justification" style="stroke:#181818;stroke-width:1.0;"/><polygon fill="none" points="1008.12,674.23,1001.6606,677.4356,1002.1351,684.631,1008.5946,681.4255,1008.12,674.23" style="stroke:#181818;stroke-width:1.0;"/></g><!--MD5=[5b13a3dd25e80832e08dfc192ea141c9]
reverse link Justification to Explication--><g id="link_Justification_Explication"><path codeLine="65" d="M957.58,864.82 C972.33,876.74 988.96,890.66 1003.5,904 C1023.51,922.36 1044.96,944.56 1060.29,960.92 " fill="none" id="Justification-backto-Explication" style="stroke:#181818;stroke-width:1.0;"/><polygon fill="none" points="947.24,856.54,949.4253,863.412,956.6091,864.0379,954.4239,857.1659,947.24,856.54" style="stroke:#181818;stroke-width:1.0;"/></g><!--MD5=[54f9360500e0fd532969fc16f437bbea]
reverse link Concept to Relation--><g id="link_Concept_Relation"><path codeLine="66" d="M977.99,550.29 C1010.44,567.18 1051.57,590.81 1084.5,617 C1120.98,646.02 1156.55,687.07 1177.22,712.58 " fill="none" id="Concept-backto-Relation" style="stroke:#181818;stroke-width:1.0;"/><polygon fill="none" points="966.01,544.16,969.526,550.4558,976.6899,549.6318,973.1739,543.3359,966.01,544.16" style="stroke:#181818;stroke-width:1.0;"/></g><!--MD5=[a87ccfb1ad401ebc9457283edda68da5]
link Student to Evaluation--><g id="link_Student_Evaluation"><path codeLine="68" d="M697.77,320.22 C693.06,336.48 686.74,358.32 681.72,375.62 " fill="none" id="Student-to-Evaluation" style="stroke:#181818;stroke-width:1.0;"/><polygon fill="#181818" points="680.21,380.83,686.5434,373.2876,681.593,376.0251,678.8555,371.0747,680.21,380.83" style="stroke:#181818;stroke-width:1.0;"/><text fill="#000000" font-family="sans-serif" font-size="13" lengthAdjust="spacing" textLength="22" x="657.1107" y="370.1266">0..n</text></g><!--MD5=[7ea0c49f743e358ac875b85df2ad47d3]
link Evaluation to Test--><g id="link_Evaluation_Test"><path codeLine="69" d="M665.5,429.2 C659.07,447.85 650.01,474.12 643.17,493.95 " fill="none" id="Evaluation-to-Test" style="stroke:#181818;stroke-width:1.0;"/><polygon fill="#181818" points="641.48,498.84,648.1927,491.6331,643.1082,494.1125,640.6288,489.028,641.48,498.84" style="stroke:#181818;stroke-width:1.0;"/></g><!--MD5=[a2e747a1485550e1f078495d463b7eef]
link Evaluation to Result--><g id="link_Evaluation_Result"><path codeLine="70" d="M624.35,408.89 C534.43,414.81 347.35,430.24 289.5,459 C272.68,467.36 257.64,481.97 246.48,495.01 " fill="none" id="Evaluation-to-Result" style="stroke:#181818;stroke-width:1.0;"/><polygon fill="#181818" points="243.14,499,251.9904,494.6791,246.355,495.1706,245.8634,489.5352,243.14,499" style="stroke:#181818;stroke-width:1.0;"/></g><!--MD5=[67b6cc77f9c51a9ece6c1301ad2aff24]
link Teacher to Evaluation--><g id="link_Teacher_Evaluation"><path codeLine="72" d="M792.52,320.22 C768.42,337.18 735.71,360.21 710.68,377.83 " fill="none" id="Teacher-to-Evaluation" style="stroke:#181818;stroke-width:1.0;stroke-dasharray:7.0,7.0;"/><polygon fill="#181818" points="706.42,380.83,716.0834,378.9276,710.5108,377.955,711.4834,372.3824,706.42,380.83" style="stroke:#181818;stroke-width:1.0;"/></g><!--MD5=[c3245c7e9b373b58245ab9f4ffee1ea7]
link Definition to Open--><g id="link_Definition_Open"><path codeLine="73" d="M1027.4,674.01 C1038.86,724.38 1058.48,845.96 1003.5,922 C985.64,946.7 956.22,961.58 927.92,970.53 " fill="none" id="Definition-to-Open" style="stroke:#181818;stroke-width:1.0;stroke-dasharray:7.0,7.0;"/><polygon fill="#181818" points="923.02,972.03,932.7949,973.2351,927.8032,970.5736,930.4647,965.582,923.02,972.03" style="stroke:#181818;stroke-width:1.0;"/><text fill="#000000" font-family="sans-serif" font-size="13" lengthAdjust="spacing" textLength="108" x="1040.5" y="837.9951">isUsefulToConcept</text></g><!--MD5=[6ad1517f84722569c30aadeb4fcbcb40]
link Justification to Open--><g id="link_Justification_Open"><path codeLine="74" d="M907.18,856.69 C896.46,880.77 879.52,918.81 866.95,947.05 " fill="none" id="Justification-to-Open" style="stroke:#181818;stroke-width:1.0;stroke-dasharray:7.0,7.0;"/><polygon fill="#181818" points="864.82,951.84,872.1439,945.2551,866.86,947.2751,864.84,941.9912,864.82,951.84" style="stroke:#181818;stroke-width:1.0;"/><text fill="#000000" font-family="sans-serif" font-size="13" lengthAdjust="spacing" textLength="108" x="886.5" y="918.4951">isUsefulToConcept</text></g><!--MD5=[74e09a0ee898588e1e5422c7bd3ee035]
link Relation to Open--><g id="link_Relation_Open"><path codeLine="75" d="M1194.72,761.22 C1192.61,790.51 1185.04,841.02 1158.5,874 C1129.15,910.46 1009.84,945.59 928.63,965.97 " fill="none" id="Relation-to-Open" style="stroke:#181818;stroke-width:1.0;stroke-dasharray:7.0,7.0;"/><polygon fill="#181818" points="923.34,967.29,933.0414,968.9877,928.1907,966.0773,931.1011,961.2266,923.34,967.29" style="stroke:#181818;stroke-width:1.0;"/><text fill="#000000" font-family="sans-serif" font-size="13" lengthAdjust="spacing" textLength="108" x="1191.5" y="837.9951">isUsefulToConcept</text></g><!--MD5=[ca17406c02511657797f2df9b258646f]
link Evaluation to Open--><g id="link_Evaluation_Open"><path codeLine="77" d="M722.54,423.97 C762.21,442.03 811.5,474.11 811.5,522 C811.5,522 811.5,522 811.5,833.5 C811.5,873.21 824.38,916.99 835.34,947.04 " fill="none" id="Evaluation-to-Open" style="stroke:#181818;stroke-width:1.0;stroke-dasharray:7.0,7.0;"/><polygon fill="#181818" points="837.08,951.74,837.7179,941.9118,835.3495,947.049,830.2123,944.6806,837.08,951.74" style="stroke:#181818;stroke-width:1.0;"/><text fill="#000000" font-family="sans-serif" font-size="13" lengthAdjust="spacing" textLength="127" x="812.5" y="655.4951">manual (! isEvaluated)</text></g><!--MD5=[1fbef7c23275e6fc2ed02dd14078f225]
link Evaluation to SelectedOption--><g id="link_Evaluation_SelectedOption"><path codeLine="78" d="M624.47,411.48 C526.43,423.82 315.5,457.81 315.5,522 C315.5,522 315.5,522 315.5,833.5 C315.5,876.18 319.15,925.55 321.8,955.77 " fill="none" id="Evaluation-to-SelectedOption" style="stroke:#181818;stroke-width:1.0;stroke-dasharray:7.0,7.0;"/><polygon fill="#181818" points="322.25,960.82,325.4357,951.5006,321.8064,955.8397,317.4672,952.2104,322.25,960.82" style="stroke:#181818;stroke-width:1.0;"/><text fill="#000000" font-family="sans-serif" font-size="13" lengthAdjust="spacing" textLength="57" x="316.5" y="655.4951">automatic</text></g><!--MD5=[37c1e8dba486a8108983e1d119d6febb]
reverse link Test to Question--><g id="link_Test_Question"><path codeLine="80" d="M628.3,560.13 C625.71,578.08 622.61,599.59 620.11,616.95 " fill="none" id="Test-backto-Question" style="stroke:#181818;stroke-width:1.0;"/><polygon fill="#181818" points="630.16,547.22,625.35,552.5925,628.4593,559.0989,633.2692,553.7263,630.16,547.22" style="stroke:#181818;stroke-width:1.0;"/><text fill="#000000" font-family="sans-serif" font-size="13" lengthAdjust="spacing" textLength="22" x="596.7921" y="606.0551">1..n</text></g><!--MD5=[5ea4867893d7a476c54f91c2252dd0f8]
reverse link Question to MultipleChoiceQuestion--><g id="link_Question_MultipleChoiceQuestion"><path codeLine="81" d="M536.56,683.09 C447.98,719.1 306.47,776.63 228.2,808.45 " fill="none" id="Question-backto-MultipleChoiceQuestion" style="stroke:#181818;stroke-width:1.0;"/><polygon fill="none" points="533.99,676.58,555.16,675.53,539.27,689.55,533.99,676.58" style="stroke:#181818;stroke-width:1.0;"/></g><!--MD5=[e68d8486b151d64b61c7f5b6e40a3de9]
reverse link Question to OpenQuestion--><g id="link_Question_OpenQuestion"><path codeLine="82" d="M638.17,701.53 C653.9,736.56 674.1,781.57 686.13,808.39 " fill="none" id="Question-backto-OpenQuestion" style="stroke:#181818;stroke-width:1.0;"/><polygon fill="none" points="631.78,704.38,629.98,683.27,644.56,698.65,631.78,704.38" style="stroke:#181818;stroke-width:1.0;"/></g><!--MD5=[eff6b19138ddb6af13849faaf0a4f1bc]
reverse link Question to Statement--><g id="link_Question_Statement"><path codeLine="83" d="M570.21,692.08 C530.53,728.07 474.28,779.09 441.98,808.39 " fill="none" id="Question-backto-Statement" style="stroke:#181818;stroke-width:1.0;"/><polygon fill="#181818" points="579.92,683.27,572.7882,684.3363,571.0294,691.3296,578.1612,690.2633,579.92,683.27" style="stroke:#181818;stroke-width:1.0;"/></g><!--MD5=[185adfbec1fc38ddaede86a7c2f0e161]
reverse link MultipleChoiceQuestion to Option--><g id="link_MultipleChoiceQuestion_Option"><path codeLine="84" d="M158.44,869.23 C148.12,897.47 134.01,936.09 125.07,960.54 " fill="none" id="MultipleChoiceQuestion-backto-Option" style="stroke:#181818;stroke-width:1.0;"/><polygon fill="#181818" points="163.03,856.69,157.2112,860.9492,158.9048,867.9586,164.7236,863.6994,163.03,856.69" style="stroke:#181818;stroke-width:1.0;"/><text fill="#000000" font-family="sans-serif" font-size="13" lengthAdjust="spacing" textLength="22" x="102.4777" y="950.1658">2..n</text></g><!--MD5=[8b4b6ce4502ba24ddb3ea6e9e3ffd79d]
reverse link Option to Incorrect--><g id="link_Option_Incorrect"><path codeLine="85" d="M93.4,1026.6 C83.45,1044.1 72.17,1063.92 63.67,1078.84 " fill="none" id="Option-backto-Incorrect" style="stroke:#181818;stroke-width:1.0;"/><polygon fill="none" points="87.33,1023.12,103.3,1009.2,99.5,1030.04,87.33,1023.12" style="stroke:#181818;stroke-width:1.0;"/></g><!--MD5=[e9c99f228a0238815f6b3520e77f42c1]
reverse link Option to Correct--><g id="link_Option_Correct"><path codeLine="86" d="M141.18,1026.32 C151.93,1043.89 164.14,1063.84 173.33,1078.84 " fill="none" id="Option-backto-Correct" style="stroke:#181818;stroke-width:1.0;"/><polygon fill="none" points="135.17,1029.91,130.7,1009.2,147.11,1022.6,135.17,1029.91" style="stroke:#181818;stroke-width:1.0;"/></g><!--MD5=[af3bf499bed903ad0ed1598fcccf7b9c]
reverse link MultipleChoiceQuestion to Correct--><g id="link_MultipleChoiceQuestion_Correct"><path codeLine="87" d="M173.67,870 C177.02,926.16 183.34,1032.16 186.12,1078.89 " fill="none" id="MultipleChoiceQuestion-backto-Correct" style="stroke:#181818;stroke-width:1.0;"/><polygon fill="#181818" points="172.89,856.86,169.2597,863.0906,173.6147,868.8381,177.2451,862.6075,172.89,856.86" style="stroke:#181818;stroke-width:1.0;"/></g><!--MD5=[c33b5950e601fddbef86daa9f7dbaee3]
reverse link MultipleChoiceQuestion to Incorrect--><g id="link_MultipleChoiceQuestion_Incorrect"><path codeLine="88" d="M130.29,865.36 C105.71,886.92 76.45,917.66 61.5,952 C43.31,993.78 44.81,1048.29 47.6,1078.77 " fill="none" id="MultipleChoiceQuestion-backto-Incorrect" style="stroke:#181818;stroke-width:1.0;"/><polygon fill="#181818" points="140.48,856.7,133.3171,857.5327,131.3309,864.4649,138.4937,863.6322,140.48,856.7" style="stroke:#181818;stroke-width:1.0;"/><text fill="#000000" font-family="sans-serif" font-size="13" lengthAdjust="spacing" textLength="22" x="22.0381" y="1068.0512">1..n</text></g><!--MD5=[a41781f1f1e8030a8e1780e035976660]
reverse link MultipleChoiceQuestion to SelectedOption--><g id="link_MultipleChoiceQuestion_SelectedOption"><path codeLine="89" d="M204.4,865.86 C233.44,894.42 275.06,935.37 300.9,960.79 " fill="none" id="MultipleChoiceQuestion-backto-SelectedOption" style="stroke:#181818;stroke-width:1.0;"/><polygon fill="none" points="195.07,856.69,196.5446,863.7487,203.6275,865.1025,202.1529,858.0437,195.07,856.69" style="stroke:#181818;stroke-width:1.0;"/><text fill="#000000" font-family="sans-serif" font-size="13" lengthAdjust="spacing" textLength="22" x="270.0338" y="950.0763">0..n</text></g><!--MD5=[796dfdab8991771f793f93ccedef4380]
reverse link OpenQuestion to Open--><g id="link_OpenQuestion_Open"><path codeLine="90" d="M728.8,865.94 C745.62,882.75 766.58,903.57 785.5,922 C795.55,931.79 806.57,942.36 816.64,951.95 " fill="none" id="OpenQuestion-backto-Open" style="stroke:#181818;stroke-width:1.0;"/><polygon fill="none" points="719.42,856.55,720.8342,863.6211,727.9053,865.0353,726.4911,857.9642,719.42,856.55" style="stroke:#181818;stroke-width:1.0;"/><text fill="#000000" font-family="sans-serif" font-size="13" lengthAdjust="spacing" textLength="22" x="785.3876" y="941.0551">0..n</text></g><!--MD5=[5d713b1c0eb5d19b54b4791b73108c83]
reverse link Question to Answer--><g id="link_Question_Answer"><path codeLine="91" d="M599.19,695.6 C588.52,724.79 574.68,762.63 564.32,790.97 " fill="none" id="Question-backto-Answer" style="stroke:#181818;stroke-width:1.0;"/><polygon fill="none" points="603.7,683.27,597.8856,687.5352,599.5864,694.5429,605.4008,690.2777,603.7,683.27" style="stroke:#181818;stroke-width:1.0;"/><text fill="#000000" font-family="sans-serif" font-size="13" lengthAdjust="spacing" textLength="22" x="542.9527" y="780.2727">0..n</text></g><!--MD5=[35a2f5aaea9a8dec5ab6cfc0884a901f]
reverse link Answer to Open--><g id="link_Answer_Open"><path codeLine="92" d="M617.21,873.97 C680.01,907.29 735.17,933.01 777.85,952.21 " fill="none" id="Answer-backto-Open" style="stroke:#181818;stroke-width:1.0;"/><polygon fill="none" points="613.62,879.99,599.29,864.38,620.23,867.65,613.62,879.99" style="stroke:#181818;stroke-width:1.0;"/></g><!--MD5=[c9991b0162c2b5928e47e95121f6f5d4]
reverse link Answer to SelectedOption--><g id="link_Answer_SelectedOption"><path codeLine="93" d="M483.07,877.93 C442.37,905.16 391.94,938.89 359.03,960.9 " fill="none" id="Answer-backto-SelectedOption" style="stroke:#181818;stroke-width:1.0;"/><polygon fill="none" points="479.33,872.02,499.84,866.71,487.11,883.65,479.33,872.02" style="stroke:#181818;stroke-width:1.0;"/></g><!--MD5=[11f0348ed082f72c99c20605dd395cd7]
@startuml OpoTestDomain

class Community

class User

class Teacher

class Student

class Evaluation

class Result

class Category 

class Test 

class Concept {
    - keyword
}

class Question {
    - statementType
}

class Statement

class Answer {
    - isOK
    - isEvaluated
}

class MultipleChoiceQuestion

class OpenQuestion

class Option

class Correct

Class Incorrect

class Open {
    - isUsefulToConcept
}

Class SelectedOption


Community *- -"2..n" User
Community o- -"0..n" Category

Category o- -"0..n" Category : Subcategories

User <|- - Teacher
User <|- - Student

Teacher ..> Concept
Category o- -"0..n" Concept
'Concept - -o Category
Concept o- -"0..n" Question
'Question - -o Concept
Concept o- - Definition
Definition o- - Justification
Justification o- - Explication
Concept o- - Relation

Student - ->"0..n" Evaluation
Evaluation - -> Test
Evaluation - -> Result

Teacher ..> Evaluation
Definition ..> Open :isUsefulToConcept
Justification ..> Open :isUsefulToConcept
Relation ..> Open :isUsefulToConcept

Evaluation ..> Open : manual (! isEvaluated)
Evaluation ..> SelectedOption : automatic

Test *- -"1..n" Question
Question <|- - MultipleChoiceQuestion
Question <|- - OpenQuestion
Question *- -   Statement
MultipleChoiceQuestion *- -"2..n" Option
Option <|- - Incorrect
Option <|- - Correct
MultipleChoiceQuestion *- - Correct
MultipleChoiceQuestion *- -"1..n" Incorrect
MultipleChoiceQuestion o- -"0..n" SelectedOption
OpenQuestion o- -"0..n" Open
Question o- -"0..n" Answer
Answer <|- - Open
Answer <|- - SelectedOption


@enduml

@startuml OpoTestDomain

class Community

class User

class Teacher

class Student

class Evaluation

class Result

class Category 

class Test 

class Concept {
    - keyword
}

class Question {
    - statementType
}

class Statement

class Answer {
    - isOK
    - isEvaluated
}

class MultipleChoiceQuestion

class OpenQuestion

class Option

class Correct

Class Incorrect

class Open {
    - isUsefulToConcept
}

Class SelectedOption


Community *- -"2..n" User
Community o- -"0..n" Category

Category o- -"0..n" Category : Subcategories

User <|- - Teacher
User <|- - Student

Teacher ..> Concept
Category o- -"0..n" Concept
Concept o- -"0..n" Question
Concept o- - Definition
Definition o- - Justification
Justification o- - Explication
Concept o- - Relation

Student - ->"0..n" Evaluation
Evaluation - -> Test
Evaluation - -> Result

Teacher ..> Evaluation
Definition ..> Open :isUsefulToConcept
Justification ..> Open :isUsefulToConcept
Relation ..> Open :isUsefulToConcept

Evaluation ..> Open : manual (! isEvaluated)
Evaluation ..> SelectedOption : automatic

Test *- -"1..n" Question
Question <|- - MultipleChoiceQuestion
Question <|- - OpenQuestion
Question *- -   Statement
MultipleChoiceQuestion *- -"2..n" Option
Option <|- - Incorrect
Option <|- - Correct
MultipleChoiceQuestion *- - Correct
MultipleChoiceQuestion *- -"1..n" Incorrect
MultipleChoiceQuestion o- -"0..n" SelectedOption
OpenQuestion o- -"0..n" Open
Question o- -"0..n" Answer
Answer <|- - Open
Answer <|- - SelectedOption


@enduml

PlantUML version 1.2022.7(Mon Aug 22 18:01:30 WEST 2022)
(GPL source distribution)
Java Runtime: OpenJDK Runtime Environment
JVM: OpenJDK 64-Bit Server VM
Default Encoding: Cp1252
Language: es
Country: ES
--></g></svg>