<?xml version="1.0" encoding="UTF-8" standalone="no"?><svg xmlns="http://www.w3.org/2000/svg" xmlns:xlink="http://www.w3.org/1999/xlink" contentStyleType="text/css" height="1152px" preserveAspectRatio="none" style="width:1243px;height:1152px;background:#FFFFFF;" version="1.1" viewBox="0 0 1243 1152" width="1243px" zoomAndPan="magnify"><defs/><g><!--MD5=[668d633d11bedc8952753581a2dda3db]
class Community--><g id="elem_Community"><rect codeLine="2" fill="#F1F1F1" height="48" id="Community" rx="2.5" ry="2.5" style="stroke:#181818;stroke-width:0.5;" width="102" x="781" y="7"/><ellipse cx="796" cy="23" fill="#ADD1B2" rx="11" ry="11" style="stroke:#181818;stroke-width:1.0;"/><path d="M798.7656,18.875 Q798.9219,18.6563 799.1094,18.5469 Q799.2969,18.4375 799.5156,18.4375 Q799.8906,18.4375 800.125,18.7031 Q800.3594,18.9531 800.3594,19.5625 L800.3594,21.0156 Q800.3594,21.625 800.125,21.8906 Q799.8906,22.1563 799.5156,22.1563 Q799.1719,22.1563 798.9688,21.9531 Q798.7656,21.7656 798.6563,21.25 Q798.6094,20.8906 798.4219,20.7031 Q798.0938,20.3281 797.4844,20.1094 Q796.875,19.8906 796.25,19.8906 Q795.4844,19.8906 794.8438,20.2188 Q794.2188,20.5469 793.7188,21.2969 Q793.2344,22.0469 793.2344,23.0781 L793.2344,24.1719 Q793.2344,25.4063 794.125,26.2344 Q795.0156,27.0469 796.6094,27.0469 Q797.5469,27.0469 798.2031,26.7969 Q798.5938,26.6406 799.0156,26.2031 Q799.2813,25.9375 799.4219,25.8594 Q799.5781,25.7813 799.7813,25.7813 Q800.1094,25.7813 800.3594,26.0469 Q800.625,26.2969 800.625,26.6406 Q800.625,26.9844 800.2813,27.3906 Q799.7813,27.9688 798.9844,28.2969 Q797.9063,28.75 796.6094,28.75 Q795.0938,28.75 793.8906,28.125 Q792.9063,27.625 792.2188,26.5625 Q791.5313,25.4844 791.5313,24.2031 L791.5313,23.0469 Q791.5313,21.7188 792.1406,20.5781 Q792.7656,19.4219 793.8594,18.8125 Q794.9531,18.1875 796.1875,18.1875 Q796.9219,18.1875 797.5625,18.3594 Q798.2188,18.5156 798.7656,18.875 Z " fill="#000000"/><text fill="#000000" font-family="sans-serif" font-size="14" lengthAdjust="spacing" textLength="70" x="810" y="28.7285">Community</text><line style="stroke:#181818;stroke-width:0.5;" x1="782" x2="882" y1="39" y2="39"/><line style="stroke:#181818;stroke-width:0.5;" x1="782" x2="882" y1="47" y2="47"/></g><!--MD5=[3fd616f346a44cd59a91eb10b19e157c]
class User--><g id="elem_User"><rect codeLine="4" fill="#F1F1F1" height="48" id="User" rx="2.5" ry="2.5" style="stroke:#181818;stroke-width:0.5;" width="61" x="756.5" y="116"/><ellipse cx="771.5" cy="132" fill="#ADD1B2" rx="11" ry="11" style="stroke:#181818;stroke-width:1.0;"/><path d="M774.2656,127.875 Q774.4219,127.6563 774.6094,127.5469 Q774.7969,127.4375 775.0156,127.4375 Q775.3906,127.4375 775.625,127.7031 Q775.8594,127.9531 775.8594,128.5625 L775.8594,130.0156 Q775.8594,130.625 775.625,130.8906 Q775.3906,131.1563 775.0156,131.1563 Q774.6719,131.1563 774.4688,130.9531 Q774.2656,130.7656 774.1563,130.25 Q774.1094,129.8906 773.9219,129.7031 Q773.5938,129.3281 772.9844,129.1094 Q772.375,128.8906 771.75,128.8906 Q770.9844,128.8906 770.3438,129.2188 Q769.7188,129.5469 769.2188,130.2969 Q768.7344,131.0469 768.7344,132.0781 L768.7344,133.1719 Q768.7344,134.4063 769.625,135.2344 Q770.5156,136.0469 772.1094,136.0469 Q773.0469,136.0469 773.7031,135.7969 Q774.0938,135.6406 774.5156,135.2031 Q774.7813,134.9375 774.9219,134.8594 Q775.0781,134.7813 775.2813,134.7813 Q775.6094,134.7813 775.8594,135.0469 Q776.125,135.2969 776.125,135.6406 Q776.125,135.9844 775.7813,136.3906 Q775.2813,136.9688 774.4844,137.2969 Q773.4063,137.75 772.1094,137.75 Q770.5938,137.75 769.3906,137.125 Q768.4063,136.625 767.7188,135.5625 Q767.0313,134.4844 767.0313,133.2031 L767.0313,132.0469 Q767.0313,130.7188 767.6406,129.5781 Q768.2656,128.4219 769.3594,127.8125 Q770.4531,127.1875 771.6875,127.1875 Q772.4219,127.1875 773.0625,127.3594 Q773.7188,127.5156 774.2656,127.875 Z " fill="#000000"/><text fill="#000000" font-family="sans-serif" font-size="14" lengthAdjust="spacing" textLength="29" x="785.5" y="137.7285">User</text><line style="stroke:#181818;stroke-width:0.5;" x1="757.5" x2="816.5" y1="148" y2="148"/><line style="stroke:#181818;stroke-width:0.5;" x1="757.5" x2="816.5" y1="156" y2="156"/></g><!--MD5=[61a83f88cb8b7d3a80bc8c481f3736bf]
class Teacher--><g id="elem_Teacher"><rect codeLine="6" fill="#F1F1F1" height="48" id="Teacher" rx="2.5" ry="2.5" style="stroke:#181818;stroke-width:0.5;" width="85" x="744.5" y="272"/><ellipse cx="759.5" cy="288" fill="#ADD1B2" rx="11" ry="11" style="stroke:#181818;stroke-width:1.0;"/><path d="M762.2656,283.875 Q762.4219,283.6563 762.6094,283.5469 Q762.7969,283.4375 763.0156,283.4375 Q763.3906,283.4375 763.625,283.7031 Q763.8594,283.9531 763.8594,284.5625 L763.8594,286.0156 Q763.8594,286.625 763.625,286.8906 Q763.3906,287.1563 763.0156,287.1563 Q762.6719,287.1563 762.4688,286.9531 Q762.2656,286.7656 762.1563,286.25 Q762.1094,285.8906 761.9219,285.7031 Q761.5938,285.3281 760.9844,285.1094 Q760.375,284.8906 759.75,284.8906 Q758.9844,284.8906 758.3438,285.2188 Q757.7188,285.5469 757.2188,286.2969 Q756.7344,287.0469 756.7344,288.0781 L756.7344,289.1719 Q756.7344,290.4063 757.625,291.2344 Q758.5156,292.0469 760.1094,292.0469 Q761.0469,292.0469 761.7031,291.7969 Q762.0938,291.6406 762.5156,291.2031 Q762.7813,290.9375 762.9219,290.8594 Q763.0781,290.7813 763.2813,290.7813 Q763.6094,290.7813 763.8594,291.0469 Q764.125,291.2969 764.125,291.6406 Q764.125,291.9844 763.7813,292.3906 Q763.2813,292.9688 762.4844,293.2969 Q761.4063,293.75 760.1094,293.75 Q758.5938,293.75 757.3906,293.125 Q756.4063,292.625 755.7188,291.5625 Q755.0313,290.4844 755.0313,289.2031 L755.0313,288.0469 Q755.0313,286.7188 755.6406,285.5781 Q756.2656,284.4219 757.3594,283.8125 Q758.4531,283.1875 759.6875,283.1875 Q760.4219,283.1875 761.0625,283.3594 Q761.7188,283.5156 762.2656,283.875 Z " fill="#000000"/><text fill="#000000" font-family="sans-serif" font-size="14" lengthAdjust="spacing" textLength="53" x="773.5" y="293.7285">Teacher</text><line style="stroke:#181818;stroke-width:0.5;" x1="745.5" x2="828.5" y1="304" y2="304"/><line style="stroke:#181818;stroke-width:0.5;" x1="745.5" x2="828.5" y1="312" y2="312"/></g><!--MD5=[d6181cb537bdc20c0a3007a98a56832d]
class Student--><g id="elem_Student"><rect codeLine="8" fill="#F1F1F1" height="48" id="Student" rx="2.5" ry="2.5" style="stroke:#181818;stroke-width:0.5;" width="81" x="628.5" y="272"/><ellipse cx="643.5" cy="288" fill="#ADD1B2" rx="11" ry="11" style="stroke:#181818;stroke-width:1.0;"/><path d="M646.2656,283.875 Q646.4219,283.6563 646.6094,283.5469 Q646.7969,283.4375 647.0156,283.4375 Q647.3906,283.4375 647.625,283.7031 Q647.8594,283.9531 647.8594,284.5625 L647.8594,286.0156 Q647.8594,286.625 647.625,286.8906 Q647.3906,287.1563 647.0156,287.1563 Q646.6719,287.1563 646.4688,286.9531 Q646.2656,286.7656 646.1563,286.25 Q646.1094,285.8906 645.9219,285.7031 Q645.5938,285.3281 644.9844,285.1094 Q644.375,284.8906 643.75,284.8906 Q642.9844,284.8906 642.3438,285.2188 Q641.7188,285.5469 641.2188,286.2969 Q640.7344,287.0469 640.7344,288.0781 L640.7344,289.1719 Q640.7344,290.4063 641.625,291.2344 Q642.5156,292.0469 644.1094,292.0469 Q645.0469,292.0469 645.7031,291.7969 Q646.0938,291.6406 646.5156,291.2031 Q646.7813,290.9375 646.9219,290.8594 Q647.0781,290.7813 647.2813,290.7813 Q647.6094,290.7813 647.8594,291.0469 Q648.125,291.2969 648.125,291.6406 Q648.125,291.9844 647.7813,292.3906 Q647.2813,292.9688 646.4844,293.2969 Q645.4063,293.75 644.1094,293.75 Q642.5938,293.75 641.3906,293.125 Q640.4063,292.625 639.7188,291.5625 Q639.0313,290.4844 639.0313,289.2031 L639.0313,288.0469 Q639.0313,286.7188 639.6406,285.5781 Q640.2656,284.4219 641.3594,283.8125 Q642.4531,283.1875 643.6875,283.1875 Q644.4219,283.1875 645.0625,283.3594 Q645.7188,283.5156 646.2656,283.875 Z " fill="#000000"/><text fill="#000000" font-family="sans-serif" font-size="14" lengthAdjust="spacing" textLength="49" x="657.5" y="293.7285">Student</text><line style="stroke:#181818;stroke-width:0.5;" x1="629.5" x2="708.5" y1="304" y2="304"/><line style="stroke:#181818;stroke-width:0.5;" x1="629.5" x2="708.5" y1="312" y2="312"/></g><!--MD5=[71e8807956d33805e77353b9d7e2df39]
class Evaluation--><g id="elem_Evaluation"><rect codeLine="10" fill="#F1F1F1" height="65.6094" id="Evaluation" rx="2.5" ry="2.5" style="stroke:#181818;stroke-width:0.5;" width="98" x="620" y="381"/><ellipse cx="635" cy="397" fill="#ADD1B2" rx="11" ry="11" style="stroke:#181818;stroke-width:1.0;"/><path d="M637.7656,392.875 Q637.9219,392.6563 638.1094,392.5469 Q638.2969,392.4375 638.5156,392.4375 Q638.8906,392.4375 639.125,392.7031 Q639.3594,392.9531 639.3594,393.5625 L639.3594,395.0156 Q639.3594,395.625 639.125,395.8906 Q638.8906,396.1563 638.5156,396.1563 Q638.1719,396.1563 637.9688,395.9531 Q637.7656,395.7656 637.6563,395.25 Q637.6094,394.8906 637.4219,394.7031 Q637.0938,394.3281 636.4844,394.1094 Q635.875,393.8906 635.25,393.8906 Q634.4844,393.8906 633.8438,394.2188 Q633.2188,394.5469 632.7188,395.2969 Q632.2344,396.0469 632.2344,397.0781 L632.2344,398.1719 Q632.2344,399.4063 633.125,400.2344 Q634.0156,401.0469 635.6094,401.0469 Q636.5469,401.0469 637.2031,400.7969 Q637.5938,400.6406 638.0156,400.2031 Q638.2813,399.9375 638.4219,399.8594 Q638.5781,399.7813 638.7813,399.7813 Q639.1094,399.7813 639.3594,400.0469 Q639.625,400.2969 639.625,400.6406 Q639.625,400.9844 639.2813,401.3906 Q638.7813,401.9688 637.9844,402.2969 Q636.9063,402.75 635.6094,402.75 Q634.0938,402.75 632.8906,402.125 Q631.9063,401.625 631.2188,400.5625 Q630.5313,399.4844 630.5313,398.2031 L630.5313,397.0469 Q630.5313,395.7188 631.1406,394.5781 Q631.7656,393.4219 632.8594,392.8125 Q633.9531,392.1875 635.1875,392.1875 Q635.9219,392.1875 636.5625,392.3594 Q637.2188,392.5156 637.7656,392.875 Z " fill="#000000"/><text fill="#000000" font-family="sans-serif" font-size="14" lengthAdjust="spacing" textLength="66" x="649" y="402.7285">Evaluation</text><line style="stroke:#181818;stroke-width:0.5;" x1="621" x2="717" y1="413" y2="413"/><rect fill="none" height="6" style="stroke:#C82930;stroke-width:1.0;" width="6" x="628" y="424.3047"/><text fill="#000000" font-family="sans-serif" font-size="14" lengthAdjust="spacing" textLength="35" x="640" y="431.5332">result</text><line style="stroke:#181818;stroke-width:0.5;" x1="621" x2="717" y1="438.6094" y2="438.6094"/></g><!--MD5=[a96594a83e2ecdc78cbf17c2ddf01934]
class Category--><g id="elem_Category"><rect codeLine="14" fill="#F1F1F1" height="48" id="Category" rx="2.5" ry="2.5" style="stroke:#181818;stroke-width:0.5;" width="90" x="835" y="194"/><ellipse cx="850" cy="210" fill="#ADD1B2" rx="11" ry="11" style="stroke:#181818;stroke-width:1.0;"/><path d="M852.7656,205.875 Q852.9219,205.6563 853.1094,205.5469 Q853.2969,205.4375 853.5156,205.4375 Q853.8906,205.4375 854.125,205.7031 Q854.3594,205.9531 854.3594,206.5625 L854.3594,208.0156 Q854.3594,208.625 854.125,208.8906 Q853.8906,209.1563 853.5156,209.1563 Q853.1719,209.1563 852.9688,208.9531 Q852.7656,208.7656 852.6563,208.25 Q852.6094,207.8906 852.4219,207.7031 Q852.0938,207.3281 851.4844,207.1094 Q850.875,206.8906 850.25,206.8906 Q849.4844,206.8906 848.8438,207.2188 Q848.2188,207.5469 847.7188,208.2969 Q847.2344,209.0469 847.2344,210.0781 L847.2344,211.1719 Q847.2344,212.4063 848.125,213.2344 Q849.0156,214.0469 850.6094,214.0469 Q851.5469,214.0469 852.2031,213.7969 Q852.5938,213.6406 853.0156,213.2031 Q853.2813,212.9375 853.4219,212.8594 Q853.5781,212.7813 853.7813,212.7813 Q854.1094,212.7813 854.3594,213.0469 Q854.625,213.2969 854.625,213.6406 Q854.625,213.9844 854.2813,214.3906 Q853.7813,214.9688 852.9844,215.2969 Q851.9063,215.75 850.6094,215.75 Q849.0938,215.75 847.8906,215.125 Q846.9063,214.625 846.2188,213.5625 Q845.5313,212.4844 845.5313,211.2031 L845.5313,210.0469 Q845.5313,208.7188 846.1406,207.5781 Q846.7656,206.4219 847.8594,205.8125 Q848.9531,205.1875 850.1875,205.1875 Q850.9219,205.1875 851.5625,205.3594 Q852.2188,205.5156 852.7656,205.875 Z " fill="#000000"/><text fill="#000000" font-family="sans-serif" font-size="14" lengthAdjust="spacing" textLength="58" x="864" y="215.7285">Category</text><line style="stroke:#181818;stroke-width:0.5;" x1="836" x2="924" y1="226" y2="226"/><line style="stroke:#181818;stroke-width:0.5;" x1="836" x2="924" y1="234" y2="234"/></g><!--MD5=[df38be88ccee13e832d6fafd6288a4ca]
class Test--><g id="elem_Test"><rect codeLine="16" fill="#F1F1F1" height="48" id="Test" rx="2.5" ry="2.5" style="stroke:#181818;stroke-width:0.5;" width="60" x="587" y="517"/><ellipse cx="602" cy="533" fill="#ADD1B2" rx="11" ry="11" style="stroke:#181818;stroke-width:1.0;"/><path d="M604.7656,528.875 Q604.9219,528.6563 605.1094,528.5469 Q605.2969,528.4375 605.5156,528.4375 Q605.8906,528.4375 606.125,528.7031 Q606.3594,528.9531 606.3594,529.5625 L606.3594,531.0156 Q606.3594,531.625 606.125,531.8906 Q605.8906,532.1563 605.5156,532.1563 Q605.1719,532.1563 604.9688,531.9531 Q604.7656,531.7656 604.6563,531.25 Q604.6094,530.8906 604.4219,530.7031 Q604.0938,530.3281 603.4844,530.1094 Q602.875,529.8906 602.25,529.8906 Q601.4844,529.8906 600.8438,530.2188 Q600.2188,530.5469 599.7188,531.2969 Q599.2344,532.0469 599.2344,533.0781 L599.2344,534.1719 Q599.2344,535.4063 600.125,536.2344 Q601.0156,537.0469 602.6094,537.0469 Q603.5469,537.0469 604.2031,536.7969 Q604.5938,536.6406 605.0156,536.2031 Q605.2813,535.9375 605.4219,535.8594 Q605.5781,535.7813 605.7813,535.7813 Q606.1094,535.7813 606.3594,536.0469 Q606.625,536.2969 606.625,536.6406 Q606.625,536.9844 606.2813,537.3906 Q605.7813,537.9688 604.9844,538.2969 Q603.9063,538.75 602.6094,538.75 Q601.0938,538.75 599.8906,538.125 Q598.9063,537.625 598.2188,536.5625 Q597.5313,535.4844 597.5313,534.2031 L597.5313,533.0469 Q597.5313,531.7188 598.1406,530.5781 Q598.7656,529.4219 599.8594,528.8125 Q600.9531,528.1875 602.1875,528.1875 Q602.9219,528.1875 603.5625,528.3594 Q604.2188,528.5156 604.7656,528.875 Z " fill="#000000"/><text fill="#000000" font-family="sans-serif" font-size="14" lengthAdjust="spacing" textLength="28" x="616" y="538.7285">Test</text><line style="stroke:#181818;stroke-width:0.5;" x1="588" x2="646" y1="549" y2="549"/><line style="stroke:#181818;stroke-width:0.5;" x1="588" x2="646" y1="557" y2="557"/></g><!--MD5=[9d451b2f92d848a8e2d1a4dab2b1c6bf]
class Concept--><g id="elem_Concept"><rect codeLine="18" fill="#F1F1F1" height="65.6094" id="Concept" rx="2.5" ry="2.5" style="stroke:#181818;stroke-width:0.5;" width="85" x="840.5" y="508"/><ellipse cx="855.5" cy="524" fill="#ADD1B2" rx="11" ry="11" style="stroke:#181818;stroke-width:1.0;"/><path d="M858.2656,519.875 Q858.4219,519.6563 858.6094,519.5469 Q858.7969,519.4375 859.0156,519.4375 Q859.3906,519.4375 859.625,519.7031 Q859.8594,519.9531 859.8594,520.5625 L859.8594,522.0156 Q859.8594,522.625 859.625,522.8906 Q859.3906,523.1563 859.0156,523.1563 Q858.6719,523.1563 858.4688,522.9531 Q858.2656,522.7656 858.1563,522.25 Q858.1094,521.8906 857.9219,521.7031 Q857.5938,521.3281 856.9844,521.1094 Q856.375,520.8906 855.75,520.8906 Q854.9844,520.8906 854.3438,521.2188 Q853.7188,521.5469 853.2188,522.2969 Q852.7344,523.0469 852.7344,524.0781 L852.7344,525.1719 Q852.7344,526.4063 853.625,527.2344 Q854.5156,528.0469 856.1094,528.0469 Q857.0469,528.0469 857.7031,527.7969 Q858.0938,527.6406 858.5156,527.2031 Q858.7813,526.9375 858.9219,526.8594 Q859.0781,526.7813 859.2813,526.7813 Q859.6094,526.7813 859.8594,527.0469 Q860.125,527.2969 860.125,527.6406 Q860.125,527.9844 859.7813,528.3906 Q859.2813,528.9688 858.4844,529.2969 Q857.4063,529.75 856.1094,529.75 Q854.5938,529.75 853.3906,529.125 Q852.4063,528.625 851.7188,527.5625 Q851.0313,526.4844 851.0313,525.2031 L851.0313,524.0469 Q851.0313,522.7188 851.6406,521.5781 Q852.2656,520.4219 853.3594,519.8125 Q854.4531,519.1875 855.6875,519.1875 Q856.4219,519.1875 857.0625,519.3594 Q857.7188,519.5156 858.2656,519.875 Z " fill="#000000"/><text fill="#000000" font-family="sans-serif" font-size="14" lengthAdjust="spacing" textLength="53" x="869.5" y="529.7285">Concept</text><line style="stroke:#181818;stroke-width:0.5;" x1="841.5" x2="924.5" y1="540" y2="540"/><rect fill="none" height="6" style="stroke:#C82930;stroke-width:1.0;" width="6" x="848.5" y="551.3047"/><text fill="#000000" font-family="sans-serif" font-size="14" lengthAdjust="spacing" textLength="52" x="860.5" y="558.5332">keyword</text><line style="stroke:#181818;stroke-width:0.5;" x1="841.5" x2="924.5" y1="565.6094" y2="565.6094"/></g><!--MD5=[fc7123defb831ecdd44b2d9bcef6cceb]
class Question--><g id="elem_Question"><rect codeLine="22" fill="#F1F1F1" height="65.6094" id="Question" rx="2.5" ry="2.5" style="stroke:#181818;stroke-width:0.5;" width="120" x="450" y="635"/><ellipse cx="478.95" cy="651" fill="#ADD1B2" rx="11" ry="11" style="stroke:#181818;stroke-width:1.0;"/><path d="M481.7156,646.875 Q481.8719,646.6563 482.0594,646.5469 Q482.2469,646.4375 482.4656,646.4375 Q482.8406,646.4375 483.075,646.7031 Q483.3094,646.9531 483.3094,647.5625 L483.3094,649.0156 Q483.3094,649.625 483.075,649.8906 Q482.8406,650.1563 482.4656,650.1563 Q482.1219,650.1563 481.9188,649.9531 Q481.7156,649.7656 481.6063,649.25 Q481.5594,648.8906 481.3719,648.7031 Q481.0438,648.3281 480.4344,648.1094 Q479.825,647.8906 479.2,647.8906 Q478.4344,647.8906 477.7938,648.2188 Q477.1688,648.5469 476.6688,649.2969 Q476.1844,650.0469 476.1844,651.0781 L476.1844,652.1719 Q476.1844,653.4063 477.075,654.2344 Q477.9656,655.0469 479.5594,655.0469 Q480.4969,655.0469 481.1531,654.7969 Q481.5438,654.6406 481.9656,654.2031 Q482.2313,653.9375 482.3719,653.8594 Q482.5281,653.7813 482.7313,653.7813 Q483.0594,653.7813 483.3094,654.0469 Q483.575,654.2969 483.575,654.6406 Q483.575,654.9844 483.2313,655.3906 Q482.7313,655.9688 481.9344,656.2969 Q480.8563,656.75 479.5594,656.75 Q478.0438,656.75 476.8406,656.125 Q475.8563,655.625 475.1688,654.5625 Q474.4813,653.4844 474.4813,652.2031 L474.4813,651.0469 Q474.4813,649.7188 475.0906,648.5781 Q475.7156,647.4219 476.8094,646.8125 Q477.9031,646.1875 479.1375,646.1875 Q479.8719,646.1875 480.5125,646.3594 Q481.1688,646.5156 481.7156,646.875 Z " fill="#000000"/><text fill="#000000" font-family="sans-serif" font-size="14" lengthAdjust="spacing" textLength="57" x="496.05" y="656.7285">Question</text><line style="stroke:#181818;stroke-width:0.5;" x1="451" x2="569" y1="667" y2="667"/><rect fill="none" height="6" style="stroke:#C82930;stroke-width:1.0;" width="6" x="458" y="678.3047"/><text fill="#000000" font-family="sans-serif" font-size="14" lengthAdjust="spacing" textLength="94" x="470" y="685.5332">statementType</text><line style="stroke:#181818;stroke-width:0.5;" x1="451" x2="569" y1="692.6094" y2="692.6094"/></g><!--MD5=[a61a298976b7d1d94498f45c2ebfa10b]
class Statement--><g id="elem_Statement"><rect codeLine="26" fill="#F1F1F1" height="48" id="Statement" rx="2.5" ry="2.5" style="stroke:#181818;stroke-width:0.5;" width="96" x="59" y="826.5"/><ellipse cx="74" cy="842.5" fill="#ADD1B2" rx="11" ry="11" style="stroke:#181818;stroke-width:1.0;"/><path d="M76.7656,838.375 Q76.9219,838.1563 77.1094,838.0469 Q77.2969,837.9375 77.5156,837.9375 Q77.8906,837.9375 78.125,838.2031 Q78.3594,838.4531 78.3594,839.0625 L78.3594,840.5156 Q78.3594,841.125 78.125,841.3906 Q77.8906,841.6563 77.5156,841.6563 Q77.1719,841.6563 76.9688,841.4531 Q76.7656,841.2656 76.6563,840.75 Q76.6094,840.3906 76.4219,840.2031 Q76.0938,839.8281 75.4844,839.6094 Q74.875,839.3906 74.25,839.3906 Q73.4844,839.3906 72.8438,839.7188 Q72.2188,840.0469 71.7188,840.7969 Q71.2344,841.5469 71.2344,842.5781 L71.2344,843.6719 Q71.2344,844.9063 72.125,845.7344 Q73.0156,846.5469 74.6094,846.5469 Q75.5469,846.5469 76.2031,846.2969 Q76.5938,846.1406 77.0156,845.7031 Q77.2813,845.4375 77.4219,845.3594 Q77.5781,845.2813 77.7813,845.2813 Q78.1094,845.2813 78.3594,845.5469 Q78.625,845.7969 78.625,846.1406 Q78.625,846.4844 78.2813,846.8906 Q77.7813,847.4688 76.9844,847.7969 Q75.9063,848.25 74.6094,848.25 Q73.0938,848.25 71.8906,847.625 Q70.9063,847.125 70.2188,846.0625 Q69.5313,844.9844 69.5313,843.7031 L69.5313,842.5469 Q69.5313,841.2188 70.1406,840.0781 Q70.7656,838.9219 71.8594,838.3125 Q72.9531,837.6875 74.1875,837.6875 Q74.9219,837.6875 75.5625,837.8594 Q76.2188,838.0156 76.7656,838.375 Z " fill="#000000"/><text fill="#000000" font-family="sans-serif" font-size="14" lengthAdjust="spacing" textLength="64" x="88" y="848.2285">Statement</text><line style="stroke:#181818;stroke-width:0.5;" x1="60" x2="154" y1="858.5" y2="858.5"/><line style="stroke:#181818;stroke-width:0.5;" x1="60" x2="154" y1="866.5" y2="866.5"/></g><!--MD5=[f9fadfa5a66b7e5a67b370cd443ffe52]
class Answer--><g id="elem_Answer"><rect codeLine="28" fill="#F1F1F1" height="83.2188" id="Answer" rx="2.5" ry="2.5" style="stroke:#181818;stroke-width:0.5;" width="99" x="406.5" y="809"/><ellipse cx="430.95" cy="825" fill="#ADD1B2" rx="11" ry="11" style="stroke:#181818;stroke-width:1.0;"/><path d="M433.7156,820.875 Q433.8719,820.6563 434.0594,820.5469 Q434.2469,820.4375 434.4656,820.4375 Q434.8406,820.4375 435.075,820.7031 Q435.3094,820.9531 435.3094,821.5625 L435.3094,823.0156 Q435.3094,823.625 435.075,823.8906 Q434.8406,824.1563 434.4656,824.1563 Q434.1219,824.1563 433.9188,823.9531 Q433.7156,823.7656 433.6063,823.25 Q433.5594,822.8906 433.3719,822.7031 Q433.0438,822.3281 432.4344,822.1094 Q431.825,821.8906 431.2,821.8906 Q430.4344,821.8906 429.7938,822.2188 Q429.1688,822.5469 428.6688,823.2969 Q428.1844,824.0469 428.1844,825.0781 L428.1844,826.1719 Q428.1844,827.4063 429.075,828.2344 Q429.9656,829.0469 431.5594,829.0469 Q432.4969,829.0469 433.1531,828.7969 Q433.5438,828.6406 433.9656,828.2031 Q434.2313,827.9375 434.3719,827.8594 Q434.5281,827.7813 434.7313,827.7813 Q435.0594,827.7813 435.3094,828.0469 Q435.575,828.2969 435.575,828.6406 Q435.575,828.9844 435.2313,829.3906 Q434.7313,829.9688 433.9344,830.2969 Q432.8563,830.75 431.5594,830.75 Q430.0438,830.75 428.8406,830.125 Q427.8563,829.625 427.1688,828.5625 Q426.4813,827.4844 426.4813,826.2031 L426.4813,825.0469 Q426.4813,823.7188 427.0906,822.5781 Q427.7156,821.4219 428.8094,820.8125 Q429.9031,820.1875 431.1375,820.1875 Q431.8719,820.1875 432.5125,820.3594 Q433.1688,820.5156 433.7156,820.875 Z " fill="#000000"/><text fill="#000000" font-family="sans-serif" font-size="14" lengthAdjust="spacing" textLength="46" x="447.05" y="830.7285">Answer</text><line style="stroke:#181818;stroke-width:0.5;" x1="407.5" x2="504.5" y1="841" y2="841"/><rect fill="none" height="6" style="stroke:#C82930;stroke-width:1.0;" width="6" x="414.5" y="852.3047"/><text fill="#000000" font-family="sans-serif" font-size="14" lengthAdjust="spacing" textLength="30" x="426.5" y="859.5332">isOK</text><rect fill="none" height="6" style="stroke:#C82930;stroke-width:1.0;" width="6" x="414.5" y="869.9141"/><text fill="#000000" font-family="sans-serif" font-size="14" lengthAdjust="spacing" textLength="73" x="426.5" y="877.1426">isEvaluated</text><line style="stroke:#181818;stroke-width:0.5;" x1="407.5" x2="504.5" y1="884.2188" y2="884.2188"/></g><!--MD5=[46bd26b9d192b770379839f45ce3e013]
class MultipleChoiceQuestion--><g id="elem_MultipleChoiceQuestion"><rect codeLine="33" fill="#F1F1F1" height="48" id="MultipleChoiceQuestion" rx="2.5" ry="2.5" style="stroke:#181818;stroke-width:0.5;" width="181" x="190.5" y="826.5"/><ellipse cx="205.5" cy="842.5" fill="#ADD1B2" rx="11" ry="11" style="stroke:#181818;stroke-width:1.0;"/><path d="M208.2656,838.375 Q208.4219,838.1563 208.6094,838.0469 Q208.7969,837.9375 209.0156,837.9375 Q209.3906,837.9375 209.625,838.2031 Q209.8594,838.4531 209.8594,839.0625 L209.8594,840.5156 Q209.8594,841.125 209.625,841.3906 Q209.3906,841.6563 209.0156,841.6563 Q208.6719,841.6563 208.4688,841.4531 Q208.2656,841.2656 208.1563,840.75 Q208.1094,840.3906 207.9219,840.2031 Q207.5938,839.8281 206.9844,839.6094 Q206.375,839.3906 205.75,839.3906 Q204.9844,839.3906 204.3438,839.7188 Q203.7188,840.0469 203.2188,840.7969 Q202.7344,841.5469 202.7344,842.5781 L202.7344,843.6719 Q202.7344,844.9063 203.625,845.7344 Q204.5156,846.5469 206.1094,846.5469 Q207.0469,846.5469 207.7031,846.2969 Q208.0938,846.1406 208.5156,845.7031 Q208.7813,845.4375 208.9219,845.3594 Q209.0781,845.2813 209.2813,845.2813 Q209.6094,845.2813 209.8594,845.5469 Q210.125,845.7969 210.125,846.1406 Q210.125,846.4844 209.7813,846.8906 Q209.2813,847.4688 208.4844,847.7969 Q207.4063,848.25 206.1094,848.25 Q204.5938,848.25 203.3906,847.625 Q202.4063,847.125 201.7188,846.0625 Q201.0313,844.9844 201.0313,843.7031 L201.0313,842.5469 Q201.0313,841.2188 201.6406,840.0781 Q202.2656,838.9219 203.3594,838.3125 Q204.4531,837.6875 205.6875,837.6875 Q206.4219,837.6875 207.0625,837.8594 Q207.7188,838.0156 208.2656,838.375 Z " fill="#000000"/><text fill="#000000" font-family="sans-serif" font-size="14" lengthAdjust="spacing" textLength="149" x="219.5" y="848.2285">MultipleChoiceQuestion</text><line style="stroke:#181818;stroke-width:0.5;" x1="191.5" x2="370.5" y1="858.5" y2="858.5"/><line style="stroke:#181818;stroke-width:0.5;" x1="191.5" x2="370.5" y1="866.5" y2="866.5"/></g><!--MD5=[c5be3d7e9ffcf6502258095b57411394]
class OpenQuestion--><g id="elem_OpenQuestion"><rect codeLine="35" fill="#F1F1F1" height="48" id="OpenQuestion" rx="2.5" ry="2.5" style="stroke:#181818;stroke-width:0.5;" width="124" x="541" y="826.5"/><ellipse cx="556" cy="842.5" fill="#ADD1B2" rx="11" ry="11" style="stroke:#181818;stroke-width:1.0;"/><path d="M558.7656,838.375 Q558.9219,838.1563 559.1094,838.0469 Q559.2969,837.9375 559.5156,837.9375 Q559.8906,837.9375 560.125,838.2031 Q560.3594,838.4531 560.3594,839.0625 L560.3594,840.5156 Q560.3594,841.125 560.125,841.3906 Q559.8906,841.6563 559.5156,841.6563 Q559.1719,841.6563 558.9688,841.4531 Q558.7656,841.2656 558.6563,840.75 Q558.6094,840.3906 558.4219,840.2031 Q558.0938,839.8281 557.4844,839.6094 Q556.875,839.3906 556.25,839.3906 Q555.4844,839.3906 554.8438,839.7188 Q554.2188,840.0469 553.7188,840.7969 Q553.2344,841.5469 553.2344,842.5781 L553.2344,843.6719 Q553.2344,844.9063 554.125,845.7344 Q555.0156,846.5469 556.6094,846.5469 Q557.5469,846.5469 558.2031,846.2969 Q558.5938,846.1406 559.0156,845.7031 Q559.2813,845.4375 559.4219,845.3594 Q559.5781,845.2813 559.7813,845.2813 Q560.1094,845.2813 560.3594,845.5469 Q560.625,845.7969 560.625,846.1406 Q560.625,846.4844 560.2813,846.8906 Q559.7813,847.4688 558.9844,847.7969 Q557.9063,848.25 556.6094,848.25 Q555.0938,848.25 553.8906,847.625 Q552.9063,847.125 552.2188,846.0625 Q551.5313,844.9844 551.5313,843.7031 L551.5313,842.5469 Q551.5313,841.2188 552.1406,840.0781 Q552.7656,838.9219 553.8594,838.3125 Q554.9531,837.6875 556.1875,837.6875 Q556.9219,837.6875 557.5625,837.8594 Q558.2188,838.0156 558.7656,838.375 Z " fill="#000000"/><text fill="#000000" font-family="sans-serif" font-size="14" lengthAdjust="spacing" textLength="92" x="570" y="848.2285">OpenQuestion</text><line style="stroke:#181818;stroke-width:0.5;" x1="542" x2="664" y1="858.5" y2="858.5"/><line style="stroke:#181818;stroke-width:0.5;" x1="542" x2="664" y1="866.5" y2="866.5"/></g><!--MD5=[b07065dfc0d0e09965ec10bfc328bb3e]
class Option--><g id="elem_Option"><rect codeLine="37" fill="#F1F1F1" height="48" id="Option" rx="2.5" ry="2.5" style="stroke:#181818;stroke-width:0.5;" width="74" x="255" y="979"/><ellipse cx="270" cy="995" fill="#ADD1B2" rx="11" ry="11" style="stroke:#181818;stroke-width:1.0;"/><path d="M272.7656,990.875 Q272.9219,990.6563 273.1094,990.5469 Q273.2969,990.4375 273.5156,990.4375 Q273.8906,990.4375 274.125,990.7031 Q274.3594,990.9531 274.3594,991.5625 L274.3594,993.0156 Q274.3594,993.625 274.125,993.8906 Q273.8906,994.1563 273.5156,994.1563 Q273.1719,994.1563 272.9688,993.9531 Q272.7656,993.7656 272.6563,993.25 Q272.6094,992.8906 272.4219,992.7031 Q272.0938,992.3281 271.4844,992.1094 Q270.875,991.8906 270.25,991.8906 Q269.4844,991.8906 268.8438,992.2188 Q268.2188,992.5469 267.7188,993.2969 Q267.2344,994.0469 267.2344,995.0781 L267.2344,996.1719 Q267.2344,997.4063 268.125,998.2344 Q269.0156,999.0469 270.6094,999.0469 Q271.5469,999.0469 272.2031,998.7969 Q272.5938,998.6406 273.0156,998.2031 Q273.2813,997.9375 273.4219,997.8594 Q273.5781,997.7813 273.7813,997.7813 Q274.1094,997.7813 274.3594,998.0469 Q274.625,998.2969 274.625,998.6406 Q274.625,998.9844 274.2813,999.3906 Q273.7813,999.9688 272.9844,1000.2969 Q271.9063,1000.75 270.6094,1000.75 Q269.0938,1000.75 267.8906,1000.125 Q266.9063,999.625 266.2188,998.5625 Q265.5313,997.4844 265.5313,996.2031 L265.5313,995.0469 Q265.5313,993.7188 266.1406,992.5781 Q266.7656,991.4219 267.8594,990.8125 Q268.9531,990.1875 270.1875,990.1875 Q270.9219,990.1875 271.5625,990.3594 Q272.2188,990.5156 272.7656,990.875 Z " fill="#000000"/><text fill="#000000" font-family="sans-serif" font-size="14" lengthAdjust="spacing" textLength="42" x="284" y="1000.7285">Option</text><line style="stroke:#181818;stroke-width:0.5;" x1="256" x2="328" y1="1011" y2="1011"/><line style="stroke:#181818;stroke-width:0.5;" x1="256" x2="328" y1="1019" y2="1019"/></g><!--MD5=[bc629657279eaa9349f412646650f2c5]
class Correct--><g id="elem_Correct"><rect codeLine="39" fill="#F1F1F1" height="48" id="Correct" rx="2.5" ry="2.5" style="stroke:#181818;stroke-width:0.5;" width="79" x="194.5" y="1097"/><ellipse cx="209.5" cy="1113" fill="#ADD1B2" rx="11" ry="11" style="stroke:#181818;stroke-width:1.0;"/><path d="M212.2656,1108.875 Q212.4219,1108.6563 212.6094,1108.5469 Q212.7969,1108.4375 213.0156,1108.4375 Q213.3906,1108.4375 213.625,1108.7031 Q213.8594,1108.9531 213.8594,1109.5625 L213.8594,1111.0156 Q213.8594,1111.625 213.625,1111.8906 Q213.3906,1112.1563 213.0156,1112.1563 Q212.6719,1112.1563 212.4688,1111.9531 Q212.2656,1111.7656 212.1563,1111.25 Q212.1094,1110.8906 211.9219,1110.7031 Q211.5938,1110.3281 210.9844,1110.1094 Q210.375,1109.8906 209.75,1109.8906 Q208.9844,1109.8906 208.3438,1110.2188 Q207.7188,1110.5469 207.2188,1111.2969 Q206.7344,1112.0469 206.7344,1113.0781 L206.7344,1114.1719 Q206.7344,1115.4063 207.625,1116.2344 Q208.5156,1117.0469 210.1094,1117.0469 Q211.0469,1117.0469 211.7031,1116.7969 Q212.0938,1116.6406 212.5156,1116.2031 Q212.7813,1115.9375 212.9219,1115.8594 Q213.0781,1115.7813 213.2813,1115.7813 Q213.6094,1115.7813 213.8594,1116.0469 Q214.125,1116.2969 214.125,1116.6406 Q214.125,1116.9844 213.7813,1117.3906 Q213.2813,1117.9688 212.4844,1118.2969 Q211.4063,1118.75 210.1094,1118.75 Q208.5938,1118.75 207.3906,1118.125 Q206.4063,1117.625 205.7188,1116.5625 Q205.0313,1115.4844 205.0313,1114.2031 L205.0313,1113.0469 Q205.0313,1111.7188 205.6406,1110.5781 Q206.2656,1109.4219 207.3594,1108.8125 Q208.4531,1108.1875 209.6875,1108.1875 Q210.4219,1108.1875 211.0625,1108.3594 Q211.7188,1108.5156 212.2656,1108.875 Z " fill="#000000"/><text fill="#000000" font-family="sans-serif" font-size="14" lengthAdjust="spacing" textLength="47" x="223.5" y="1118.7285">Correct</text><line style="stroke:#181818;stroke-width:0.5;" x1="195.5" x2="272.5" y1="1129" y2="1129"/><line style="stroke:#181818;stroke-width:0.5;" x1="195.5" x2="272.5" y1="1137" y2="1137"/></g><!--MD5=[37923dc032bbfca87d4413e584fa2cda]
class Incorrect--><g id="elem_Incorrect"><rect codeLine="41" fill="#F1F1F1" height="48" id="Incorrect" rx="2.5" ry="2.5" style="stroke:#181818;stroke-width:0.5;" width="87" x="320.5" y="1097"/><ellipse cx="335.5" cy="1113" fill="#ADD1B2" rx="11" ry="11" style="stroke:#181818;stroke-width:1.0;"/><path d="M338.2656,1108.875 Q338.4219,1108.6563 338.6094,1108.5469 Q338.7969,1108.4375 339.0156,1108.4375 Q339.3906,1108.4375 339.625,1108.7031 Q339.8594,1108.9531 339.8594,1109.5625 L339.8594,1111.0156 Q339.8594,1111.625 339.625,1111.8906 Q339.3906,1112.1563 339.0156,1112.1563 Q338.6719,1112.1563 338.4688,1111.9531 Q338.2656,1111.7656 338.1563,1111.25 Q338.1094,1110.8906 337.9219,1110.7031 Q337.5938,1110.3281 336.9844,1110.1094 Q336.375,1109.8906 335.75,1109.8906 Q334.9844,1109.8906 334.3438,1110.2188 Q333.7188,1110.5469 333.2188,1111.2969 Q332.7344,1112.0469 332.7344,1113.0781 L332.7344,1114.1719 Q332.7344,1115.4063 333.625,1116.2344 Q334.5156,1117.0469 336.1094,1117.0469 Q337.0469,1117.0469 337.7031,1116.7969 Q338.0938,1116.6406 338.5156,1116.2031 Q338.7813,1115.9375 338.9219,1115.8594 Q339.0781,1115.7813 339.2813,1115.7813 Q339.6094,1115.7813 339.8594,1116.0469 Q340.125,1116.2969 340.125,1116.6406 Q340.125,1116.9844 339.7813,1117.3906 Q339.2813,1117.9688 338.4844,1118.2969 Q337.4063,1118.75 336.1094,1118.75 Q334.5938,1118.75 333.3906,1118.125 Q332.4063,1117.625 331.7188,1116.5625 Q331.0313,1115.4844 331.0313,1114.2031 L331.0313,1113.0469 Q331.0313,1111.7188 331.6406,1110.5781 Q332.2656,1109.4219 333.3594,1108.8125 Q334.4531,1108.1875 335.6875,1108.1875 Q336.4219,1108.1875 337.0625,1108.3594 Q337.7188,1108.5156 338.2656,1108.875 Z " fill="#000000"/><text fill="#000000" font-family="sans-serif" font-size="14" lengthAdjust="spacing" textLength="55" x="349.5" y="1118.7285">Incorrect</text><line style="stroke:#181818;stroke-width:0.5;" x1="321.5" x2="406.5" y1="1129" y2="1129"/><line style="stroke:#181818;stroke-width:0.5;" x1="321.5" x2="406.5" y1="1137" y2="1137"/></g><!--MD5=[54a8e627be4ee6aab370a2a8960cc8d7]
class OpenAnswer--><g id="elem_OpenAnswer"><rect codeLine="43" fill="#F1F1F1" height="65.6094" id="OpenAnswer" rx="2.5" ry="2.5" style="stroke:#181818;stroke-width:0.5;" width="145" x="689.5" y="970"/><ellipse cx="718.9" cy="986" fill="#ADD1B2" rx="11" ry="11" style="stroke:#181818;stroke-width:1.0;"/><path d="M721.6656,981.875 Q721.8219,981.6563 722.0094,981.5469 Q722.1969,981.4375 722.4156,981.4375 Q722.7906,981.4375 723.025,981.7031 Q723.2594,981.9531 723.2594,982.5625 L723.2594,984.0156 Q723.2594,984.625 723.025,984.8906 Q722.7906,985.1563 722.4156,985.1563 Q722.0719,985.1563 721.8688,984.9531 Q721.6656,984.7656 721.5563,984.25 Q721.5094,983.8906 721.3219,983.7031 Q720.9938,983.3281 720.3844,983.1094 Q719.775,982.8906 719.15,982.8906 Q718.3844,982.8906 717.7438,983.2188 Q717.1188,983.5469 716.6188,984.2969 Q716.1344,985.0469 716.1344,986.0781 L716.1344,987.1719 Q716.1344,988.4063 717.025,989.2344 Q717.9156,990.0469 719.5094,990.0469 Q720.4469,990.0469 721.1031,989.7969 Q721.4938,989.6406 721.9156,989.2031 Q722.1813,988.9375 722.3219,988.8594 Q722.4781,988.7813 722.6813,988.7813 Q723.0094,988.7813 723.2594,989.0469 Q723.525,989.2969 723.525,989.6406 Q723.525,989.9844 723.1813,990.3906 Q722.6813,990.9688 721.8844,991.2969 Q720.8063,991.75 719.5094,991.75 Q717.9938,991.75 716.7906,991.125 Q715.8063,990.625 715.1188,989.5625 Q714.4313,988.4844 714.4313,987.2031 L714.4313,986.0469 Q714.4313,984.7188 715.0406,983.5781 Q715.6656,982.4219 716.7594,981.8125 Q717.8531,981.1875 719.0875,981.1875 Q719.8219,981.1875 720.4625,981.3594 Q721.1188,981.5156 721.6656,981.875 Z " fill="#000000"/><text fill="#000000" font-family="sans-serif" font-size="14" lengthAdjust="spacing" textLength="81" x="736.1" y="991.7285">OpenAnswer</text><line style="stroke:#181818;stroke-width:0.5;" x1="690.5" x2="833.5" y1="1002" y2="1002"/><rect fill="none" height="6" style="stroke:#C82930;stroke-width:1.0;" width="6" x="697.5" y="1013.3047"/><text fill="#000000" font-family="sans-serif" font-size="14" lengthAdjust="spacing" textLength="119" x="709.5" y="1020.5332">isUsefulToConcept</text><line style="stroke:#181818;stroke-width:0.5;" x1="690.5" x2="833.5" y1="1027.6094" y2="1027.6094"/></g><!--MD5=[bed984ae8b00ce24eb0f64fea27a6507]
class SelectedOption--><g id="elem_SelectedOption"><rect codeLine="47" fill="#F1F1F1" height="48" id="SelectedOption" rx="2.5" ry="2.5" style="stroke:#181818;stroke-width:0.5;" width="129" x="19.5" y="979"/><ellipse cx="34.5" cy="995" fill="#ADD1B2" rx="11" ry="11" style="stroke:#181818;stroke-width:1.0;"/><path d="M37.2656,990.875 Q37.4219,990.6563 37.6094,990.5469 Q37.7969,990.4375 38.0156,990.4375 Q38.3906,990.4375 38.625,990.7031 Q38.8594,990.9531 38.8594,991.5625 L38.8594,993.0156 Q38.8594,993.625 38.625,993.8906 Q38.3906,994.1563 38.0156,994.1563 Q37.6719,994.1563 37.4688,993.9531 Q37.2656,993.7656 37.1563,993.25 Q37.1094,992.8906 36.9219,992.7031 Q36.5938,992.3281 35.9844,992.1094 Q35.375,991.8906 34.75,991.8906 Q33.9844,991.8906 33.3438,992.2188 Q32.7188,992.5469 32.2188,993.2969 Q31.7344,994.0469 31.7344,995.0781 L31.7344,996.1719 Q31.7344,997.4063 32.625,998.2344 Q33.5156,999.0469 35.1094,999.0469 Q36.0469,999.0469 36.7031,998.7969 Q37.0938,998.6406 37.5156,998.2031 Q37.7813,997.9375 37.9219,997.8594 Q38.0781,997.7813 38.2813,997.7813 Q38.6094,997.7813 38.8594,998.0469 Q39.125,998.2969 39.125,998.6406 Q39.125,998.9844 38.7813,999.3906 Q38.2813,999.9688 37.4844,1000.2969 Q36.4063,1000.75 35.1094,1000.75 Q33.5938,1000.75 32.3906,1000.125 Q31.4063,999.625 30.7188,998.5625 Q30.0313,997.4844 30.0313,996.2031 L30.0313,995.0469 Q30.0313,993.7188 30.6406,992.5781 Q31.2656,991.4219 32.3594,990.8125 Q33.4531,990.1875 34.6875,990.1875 Q35.4219,990.1875 36.0625,990.3594 Q36.7188,990.5156 37.2656,990.875 Z " fill="#000000"/><text fill="#000000" font-family="sans-serif" font-size="14" lengthAdjust="spacing" textLength="97" x="48.5" y="1000.7285">SelectedOption</text><line style="stroke:#181818;stroke-width:0.5;" x1="20.5" x2="147.5" y1="1011" y2="1011"/><line style="stroke:#181818;stroke-width:0.5;" x1="20.5" x2="147.5" y1="1019" y2="1019"/></g><!--MD5=[af22135d5be6ed11ccd2d02fa51653b3]
class Definition--><g id="elem_Definition"><rect fill="#F1F1F1" height="48" id="Definition" rx="2.5" ry="2.5" style="stroke:#181818;stroke-width:0.5;" width="91" x="946.5" y="644"/><ellipse cx="961.5" cy="660" fill="#ADD1B2" rx="11" ry="11" style="stroke:#181818;stroke-width:1.0;"/><path d="M964.2656,655.875 Q964.4219,655.6563 964.6094,655.5469 Q964.7969,655.4375 965.0156,655.4375 Q965.3906,655.4375 965.625,655.7031 Q965.8594,655.9531 965.8594,656.5625 L965.8594,658.0156 Q965.8594,658.625 965.625,658.8906 Q965.3906,659.1563 965.0156,659.1563 Q964.6719,659.1563 964.4688,658.9531 Q964.2656,658.7656 964.1563,658.25 Q964.1094,657.8906 963.9219,657.7031 Q963.5938,657.3281 962.9844,657.1094 Q962.375,656.8906 961.75,656.8906 Q960.9844,656.8906 960.3438,657.2188 Q959.7188,657.5469 959.2188,658.2969 Q958.7344,659.0469 958.7344,660.0781 L958.7344,661.1719 Q958.7344,662.4063 959.625,663.2344 Q960.5156,664.0469 962.1094,664.0469 Q963.0469,664.0469 963.7031,663.7969 Q964.0938,663.6406 964.5156,663.2031 Q964.7813,662.9375 964.9219,662.8594 Q965.0781,662.7813 965.2813,662.7813 Q965.6094,662.7813 965.8594,663.0469 Q966.125,663.2969 966.125,663.6406 Q966.125,663.9844 965.7813,664.3906 Q965.2813,664.9688 964.4844,665.2969 Q963.4063,665.75 962.1094,665.75 Q960.5938,665.75 959.3906,665.125 Q958.4063,664.625 957.7188,663.5625 Q957.0313,662.4844 957.0313,661.2031 L957.0313,660.0469 Q957.0313,658.7188 957.6406,657.5781 Q958.2656,656.4219 959.3594,655.8125 Q960.4531,655.1875 961.6875,655.1875 Q962.4219,655.1875 963.0625,655.3594 Q963.7188,655.5156 964.2656,655.875 Z " fill="#000000"/><text fill="#000000" font-family="sans-serif" font-size="14" lengthAdjust="spacing" textLength="59" x="975.5" y="665.7285">Definition</text><line style="stroke:#181818;stroke-width:0.5;" x1="947.5" x2="1036.5" y1="676" y2="676"/><line style="stroke:#181818;stroke-width:0.5;" x1="947.5" x2="1036.5" y1="684" y2="684"/></g><!--MD5=[9b4de504215638550a8bb9c080b7ee00]
class Justification--><g id="elem_Justification"><rect fill="#F1F1F1" height="48" id="Justification" rx="2.5" ry="2.5" style="stroke:#181818;stroke-width:0.5;" width="105" x="1131.5" y="826.5"/><ellipse cx="1146.5" cy="842.5" fill="#ADD1B2" rx="11" ry="11" style="stroke:#181818;stroke-width:1.0;"/><path d="M1149.2656,838.375 Q1149.4219,838.1563 1149.6094,838.0469 Q1149.7969,837.9375 1150.0156,837.9375 Q1150.3906,837.9375 1150.625,838.2031 Q1150.8594,838.4531 1150.8594,839.0625 L1150.8594,840.5156 Q1150.8594,841.125 1150.625,841.3906 Q1150.3906,841.6563 1150.0156,841.6563 Q1149.6719,841.6563 1149.4688,841.4531 Q1149.2656,841.2656 1149.1563,840.75 Q1149.1094,840.3906 1148.9219,840.2031 Q1148.5938,839.8281 1147.9844,839.6094 Q1147.375,839.3906 1146.75,839.3906 Q1145.9844,839.3906 1145.3438,839.7188 Q1144.7188,840.0469 1144.2188,840.7969 Q1143.7344,841.5469 1143.7344,842.5781 L1143.7344,843.6719 Q1143.7344,844.9063 1144.625,845.7344 Q1145.5156,846.5469 1147.1094,846.5469 Q1148.0469,846.5469 1148.7031,846.2969 Q1149.0938,846.1406 1149.5156,845.7031 Q1149.7813,845.4375 1149.9219,845.3594 Q1150.0781,845.2813 1150.2813,845.2813 Q1150.6094,845.2813 1150.8594,845.5469 Q1151.125,845.7969 1151.125,846.1406 Q1151.125,846.4844 1150.7813,846.8906 Q1150.2813,847.4688 1149.4844,847.7969 Q1148.4063,848.25 1147.1094,848.25 Q1145.5938,848.25 1144.3906,847.625 Q1143.4063,847.125 1142.7188,846.0625 Q1142.0313,844.9844 1142.0313,843.7031 L1142.0313,842.5469 Q1142.0313,841.2188 1142.6406,840.0781 Q1143.2656,838.9219 1144.3594,838.3125 Q1145.4531,837.6875 1146.6875,837.6875 Q1147.4219,837.6875 1148.0625,837.8594 Q1148.7188,838.0156 1149.2656,838.375 Z " fill="#000000"/><text fill="#000000" font-family="sans-serif" font-size="14" lengthAdjust="spacing" textLength="73" x="1160.5" y="848.2285">Justification</text><line style="stroke:#181818;stroke-width:0.5;" x1="1132.5" x2="1235.5" y1="858.5" y2="858.5"/><line style="stroke:#181818;stroke-width:0.5;" x1="1132.5" x2="1235.5" y1="866.5" y2="866.5"/></g><!--MD5=[b355d11dc5a9142e22f9a644da54834e]
class Explication--><g id="elem_Explication"><rect fill="#F1F1F1" height="48" id="Explication" rx="2.5" ry="2.5" style="stroke:#181818;stroke-width:0.5;" width="99" x="1134.5" y="979"/><ellipse cx="1149.5" cy="995" fill="#ADD1B2" rx="11" ry="11" style="stroke:#181818;stroke-width:1.0;"/><path d="M1152.2656,990.875 Q1152.4219,990.6563 1152.6094,990.5469 Q1152.7969,990.4375 1153.0156,990.4375 Q1153.3906,990.4375 1153.625,990.7031 Q1153.8594,990.9531 1153.8594,991.5625 L1153.8594,993.0156 Q1153.8594,993.625 1153.625,993.8906 Q1153.3906,994.1563 1153.0156,994.1563 Q1152.6719,994.1563 1152.4688,993.9531 Q1152.2656,993.7656 1152.1563,993.25 Q1152.1094,992.8906 1151.9219,992.7031 Q1151.5938,992.3281 1150.9844,992.1094 Q1150.375,991.8906 1149.75,991.8906 Q1148.9844,991.8906 1148.3438,992.2188 Q1147.7188,992.5469 1147.2188,993.2969 Q1146.7344,994.0469 1146.7344,995.0781 L1146.7344,996.1719 Q1146.7344,997.4063 1147.625,998.2344 Q1148.5156,999.0469 1150.1094,999.0469 Q1151.0469,999.0469 1151.7031,998.7969 Q1152.0938,998.6406 1152.5156,998.2031 Q1152.7813,997.9375 1152.9219,997.8594 Q1153.0781,997.7813 1153.2813,997.7813 Q1153.6094,997.7813 1153.8594,998.0469 Q1154.125,998.2969 1154.125,998.6406 Q1154.125,998.9844 1153.7813,999.3906 Q1153.2813,999.9688 1152.4844,1000.2969 Q1151.4063,1000.75 1150.1094,1000.75 Q1148.5938,1000.75 1147.3906,1000.125 Q1146.4063,999.625 1145.7188,998.5625 Q1145.0313,997.4844 1145.0313,996.2031 L1145.0313,995.0469 Q1145.0313,993.7188 1145.6406,992.5781 Q1146.2656,991.4219 1147.3594,990.8125 Q1148.4531,990.1875 1149.6875,990.1875 Q1150.4219,990.1875 1151.0625,990.3594 Q1151.7188,990.5156 1152.2656,990.875 Z " fill="#000000"/><text fill="#000000" font-family="sans-serif" font-size="14" lengthAdjust="spacing" textLength="67" x="1163.5" y="1000.7285">Explication</text><line style="stroke:#181818;stroke-width:0.5;" x1="1135.5" x2="1232.5" y1="1011" y2="1011"/><line style="stroke:#181818;stroke-width:0.5;" x1="1135.5" x2="1232.5" y1="1019" y2="1019"/></g><!--MD5=[534474e9f05b14d7c70186ae077f30e0]
class Relation--><g id="elem_Relation"><rect fill="#F1F1F1" height="48" id="Relation" rx="2.5" ry="2.5" style="stroke:#181818;stroke-width:0.5;" width="84" x="807" y="731"/><ellipse cx="822" cy="747" fill="#ADD1B2" rx="11" ry="11" style="stroke:#181818;stroke-width:1.0;"/><path d="M824.7656,742.875 Q824.9219,742.6563 825.1094,742.5469 Q825.2969,742.4375 825.5156,742.4375 Q825.8906,742.4375 826.125,742.7031 Q826.3594,742.9531 826.3594,743.5625 L826.3594,745.0156 Q826.3594,745.625 826.125,745.8906 Q825.8906,746.1563 825.5156,746.1563 Q825.1719,746.1563 824.9688,745.9531 Q824.7656,745.7656 824.6563,745.25 Q824.6094,744.8906 824.4219,744.7031 Q824.0938,744.3281 823.4844,744.1094 Q822.875,743.8906 822.25,743.8906 Q821.4844,743.8906 820.8438,744.2188 Q820.2188,744.5469 819.7188,745.2969 Q819.2344,746.0469 819.2344,747.0781 L819.2344,748.1719 Q819.2344,749.4063 820.125,750.2344 Q821.0156,751.0469 822.6094,751.0469 Q823.5469,751.0469 824.2031,750.7969 Q824.5938,750.6406 825.0156,750.2031 Q825.2813,749.9375 825.4219,749.8594 Q825.5781,749.7813 825.7813,749.7813 Q826.1094,749.7813 826.3594,750.0469 Q826.625,750.2969 826.625,750.6406 Q826.625,750.9844 826.2813,751.3906 Q825.7813,751.9688 824.9844,752.2969 Q823.9063,752.75 822.6094,752.75 Q821.0938,752.75 819.8906,752.125 Q818.9063,751.625 818.2188,750.5625 Q817.5313,749.4844 817.5313,748.2031 L817.5313,747.0469 Q817.5313,745.7188 818.1406,744.5781 Q818.7656,743.4219 819.8594,742.8125 Q820.9531,742.1875 822.1875,742.1875 Q822.9219,742.1875 823.5625,742.3594 Q824.2188,742.5156 824.7656,742.875 Z " fill="#000000"/><text fill="#000000" font-family="sans-serif" font-size="14" lengthAdjust="spacing" textLength="52" x="836" y="752.7285">Relation</text><line style="stroke:#181818;stroke-width:0.5;" x1="808" x2="890" y1="763" y2="763"/><line style="stroke:#181818;stroke-width:0.5;" x1="808" x2="890" y1="771" y2="771"/></g><!--MD5=[14dcd1c6f0ba10ad7a0e543e42252a17]
class Solution--><g id="elem_Solution"><rect fill="#F1F1F1" height="48" id="Solution" rx="2.5" ry="2.5" style="stroke:#181818;stroke-width:0.5;" width="83" x="720.5" y="1097"/><ellipse cx="735.5" cy="1113" fill="#ADD1B2" rx="11" ry="11" style="stroke:#181818;stroke-width:1.0;"/><path d="M738.2656,1108.875 Q738.4219,1108.6563 738.6094,1108.5469 Q738.7969,1108.4375 739.0156,1108.4375 Q739.3906,1108.4375 739.625,1108.7031 Q739.8594,1108.9531 739.8594,1109.5625 L739.8594,1111.0156 Q739.8594,1111.625 739.625,1111.8906 Q739.3906,1112.1563 739.0156,1112.1563 Q738.6719,1112.1563 738.4688,1111.9531 Q738.2656,1111.7656 738.1563,1111.25 Q738.1094,1110.8906 737.9219,1110.7031 Q737.5938,1110.3281 736.9844,1110.1094 Q736.375,1109.8906 735.75,1109.8906 Q734.9844,1109.8906 734.3438,1110.2188 Q733.7188,1110.5469 733.2188,1111.2969 Q732.7344,1112.0469 732.7344,1113.0781 L732.7344,1114.1719 Q732.7344,1115.4063 733.625,1116.2344 Q734.5156,1117.0469 736.1094,1117.0469 Q737.0469,1117.0469 737.7031,1116.7969 Q738.0938,1116.6406 738.5156,1116.2031 Q738.7813,1115.9375 738.9219,1115.8594 Q739.0781,1115.7813 739.2813,1115.7813 Q739.6094,1115.7813 739.8594,1116.0469 Q740.125,1116.2969 740.125,1116.6406 Q740.125,1116.9844 739.7813,1117.3906 Q739.2813,1117.9688 738.4844,1118.2969 Q737.4063,1118.75 736.1094,1118.75 Q734.5938,1118.75 733.3906,1118.125 Q732.4063,1117.625 731.7188,1116.5625 Q731.0313,1115.4844 731.0313,1114.2031 L731.0313,1113.0469 Q731.0313,1111.7188 731.6406,1110.5781 Q732.2656,1109.4219 733.3594,1108.8125 Q734.4531,1108.1875 735.6875,1108.1875 Q736.4219,1108.1875 737.0625,1108.3594 Q737.7188,1108.5156 738.2656,1108.875 Z " fill="#000000"/><text fill="#000000" font-family="sans-serif" font-size="14" lengthAdjust="spacing" textLength="51" x="749.5" y="1118.7285">Solution</text><line style="stroke:#181818;stroke-width:0.5;" x1="721.5" x2="802.5" y1="1129" y2="1129"/><line style="stroke:#181818;stroke-width:0.5;" x1="721.5" x2="802.5" y1="1137" y2="1137"/></g><!--MD5=[8235d596e40eaa310e25cb7e3d92ec72]
reverse link Community to User--><g id="link_Community_User"><path codeLine="50" d="M817.13,67.35 C810.43,83.29 802.7,101.68 796.75,115.83 " fill="none" id="Community-backto-User" style="stroke:#181818;stroke-width:1.0;"/><polygon fill="#181818" points="822.24,55.22,816.2302,59.2053,817.5975,66.2856,823.6073,62.3003,822.24,55.22" style="stroke:#181818;stroke-width:1.0;"/><text fill="#000000" font-family="sans-serif" font-size="13" lengthAdjust="spacing" textLength="22" x="774.4297" y="105.1266">2..n</text></g><!--MD5=[8b55897a5ea9705e017b96a45c367fde]
reverse link Community to Category--><g id="link_Community_Category"><path codeLine="51" d="M841.29,67.79 C850.95,105.05 865.8,162.29 874.02,193.94 " fill="none" id="Community-backto-Category" style="stroke:#181818;stroke-width:1.0;"/><polygon fill="none" points="837.98,55.06,835.6108,61.8708,840.9865,66.6773,843.3557,59.8665,837.98,55.06" style="stroke:#181818;stroke-width:1.0;"/><text fill="#000000" font-family="sans-serif" font-size="13" lengthAdjust="spacing" textLength="22" x="847.6689" y="183.2648">0..n</text></g><!--MD5=[c98fdacbcd4eb224c2d9d26b53646e58]
reverse link Category to Category--><g id="link_Category_Category"><path codeLine="53" d="M938.6,203.85 C951.03,205.28 960,210 960,218 C960,228.66 944.05,233.5 925.23,232.5 " fill="none" id="Category-backto-Category" style="stroke:#181818;stroke-width:1.0;"/><polygon fill="none" points="925.23,203.5,931.1225,207.6568,937.2258,203.8164,931.3334,199.6596,925.23,203.5" style="stroke:#181818;stroke-width:1.0;"/><text fill="#000000" font-family="sans-serif" font-size="13" lengthAdjust="spacing" textLength="83" x="966" y="223.4951">Subcategories</text><text fill="#000000" font-family="sans-serif" font-size="13" lengthAdjust="spacing" textLength="22" x="933.1373" y="230.9339">0..n</text></g><!--MD5=[d87c224b488f6c9759d0a77cb4053101]
reverse link User to Teacher--><g id="link_User_Teacher"><path codeLine="55" d="M787,184.37 C787,212.74 787,248.71 787,271.79 " fill="none" id="User-backto-Teacher" style="stroke:#181818;stroke-width:1.0;"/><polygon fill="none" points="780,184.06,787,164.06,794,184.06,780,184.06" style="stroke:#181818;stroke-width:1.0;"/></g><!--MD5=[29fe19ce294944fa80f389ae9bd987a4]
reverse link User to Student--><g id="link_User_Student"><path codeLine="56" d="M756.94,180.23 C734.77,209.17 705.34,247.57 686.79,271.79 " fill="none" id="User-backto-Student" style="stroke:#181818;stroke-width:1.0;"/><polygon fill="none" points="751.61,175.67,769.33,164.06,762.73,184.19,751.61,175.67" style="stroke:#181818;stroke-width:1.0;"/></g><!--MD5=[a8afb83bcf8ff3e1e4f8554b4cb258ee]
link Teacher to Concept--><g id="link_Teacher_Concept"><path codeLine="58" d="M795.74,320.23 C808.79,354.75 834.27,421.59 857,478 C860.25,486.07 863.81,494.69 867.23,502.87 " fill="none" id="Teacher-to-Concept" style="stroke:#181818;stroke-width:1.0;stroke-dasharray:7.0,7.0;"/><polygon fill="#181818" points="869.33,507.89,869.524,498.0431,867.3897,503.2818,862.1509,501.1475,869.33,507.89" style="stroke:#181818;stroke-width:1.0;"/></g><!--MD5=[338c593997b7e5d530c3a07b33e0a9dd]
reverse link Category to Concept--><g id="link_Category_Concept"><path codeLine="59" d="M880.34,255.22 C880.93,318.39 882.14,447.68 882.7,507.86 " fill="none" id="Category-backto-Concept" style="stroke:#181818;stroke-width:1.0;"/><polygon fill="none" points="880.22,242.09,876.2795,248.1293,880.3387,254.0894,884.2791,248.0501,880.22,242.09" style="stroke:#181818;stroke-width:1.0;"/><text fill="#000000" font-family="sans-serif" font-size="13" lengthAdjust="spacing" textLength="22" x="858.3694" y="496.9465">0..n</text></g><!--MD5=[18141af66d78099ce63b3b3d94bf7770]
reverse link Concept to Question--><g id="link_Concept_Question"><path codeLine="61" d="M827.5,560.6 C758.49,583.72 641.16,623.05 570.09,646.86 " fill="none" id="Concept-backto-Question" style="stroke:#181818;stroke-width:1.0;"/><polygon fill="none" points="840.21,556.34,833.2497,554.4547,828.8324,560.1545,835.7927,562.0398,840.21,556.34" style="stroke:#181818;stroke-width:1.0;"/><text fill="#000000" font-family="sans-serif" font-size="13" lengthAdjust="spacing" textLength="22" x="577.8655" y="641.2085">0..n</text></g><!--MD5=[543bb2115b5a10697a67507a00f6a2f4]
reverse link Concept to Definition--><g id="link_Concept_Definition"><path codeLine="63" d="M919.65,584.03 C937.11,604.05 957.32,627.23 971.94,643.99 " fill="none" id="Concept-backto-Definition" style="stroke:#181818;stroke-width:1.0;"/><polygon fill="none" points="911.07,574.19,911.9974,581.3412,918.9552,583.2356,918.0278,576.0844,911.07,574.19" style="stroke:#181818;stroke-width:1.0;"/><text fill="#000000" font-family="sans-serif" font-size="13" lengthAdjust="spacing" textLength="22" x="941.9809" y="633.3276">0..n</text></g><!--MD5=[38796b68b5180f699f927fbe8d179b6a]
reverse link Definition to Justification--><g id="link_Definition_Justification"><path codeLine="64" d="M1026.39,701.33 C1064.68,737.32 1125.6,794.59 1159.39,826.36 " fill="none" id="Definition-backto-Justification" style="stroke:#181818;stroke-width:1.0;"/><polygon fill="none" points="1016.71,692.23,1018.3377,699.255,1025.4484,700.4544,1023.8207,693.4294,1016.71,692.23" style="stroke:#181818;stroke-width:1.0;"/><text fill="#000000" font-family="sans-serif" font-size="13" lengthAdjust="spacing" textLength="22" x="1128.2649" y="815.6643">0..n</text></g><!--MD5=[5b13a3dd25e80832e08dfc192ea141c9]
reverse link Justification to Explication--><g id="link_Justification_Explication"><path codeLine="65" d="M1184,888 C1184,916.17 1184,954.31 1184,978.54 " fill="none" id="Justification-backto-Explication" style="stroke:#181818;stroke-width:1.0;"/><polygon fill="none" points="1184,874.69,1180,880.69,1184,886.69,1188,880.69,1184,874.69" style="stroke:#181818;stroke-width:1.0;"/></g><!--MD5=[54f9360500e0fd532969fc16f437bbea]
reverse link Concept to Relation--><g id="link_Concept_Relation"><path codeLine="66" d="M875.76,587.15 C868.68,631.26 858.2,696.64 852.69,730.99 " fill="none" id="Concept-backto-Relation" style="stroke:#181818;stroke-width:1.0;"/><polygon fill="none" points="877.84,574.2,872.9414,579.4918,875.9421,586.049,880.8407,580.7571,877.84,574.2" style="stroke:#181818;stroke-width:1.0;"/><text fill="#000000" font-family="sans-serif" font-size="13" lengthAdjust="spacing" textLength="22" x="828.8168" y="720.3276">0..n</text></g><!--MD5=[a87ccfb1ad401ebc9457283edda68da5]
link Student to Evaluation--><g id="link_Student_Evaluation"><path codeLine="68" d="M669,320.2 C669,336.03 669,357.36 669,375.57 " fill="none" id="Student-to-Evaluation" style="stroke:#181818;stroke-width:1.0;"/><polygon fill="#181818" points="669,380.62,673,371.62,669,375.62,665,371.62,669,380.62" style="stroke:#181818;stroke-width:1.0;"/><text fill="#000000" font-family="sans-serif" font-size="13" lengthAdjust="spacing" textLength="22" x="644.8344" y="370.0415">0..n</text></g><!--MD5=[7ea0c49f743e358ac875b85df2ad47d3]
link Evaluation to Test--><g id="link_Evaluation_Test"><path codeLine="69" d="M655.61,447.19 C647.23,467.33 636.55,493.01 628.54,512.25 " fill="none" id="Evaluation-to-Test" style="stroke:#181818;stroke-width:1.0;"/><polygon fill="#181818" points="626.57,516.99,633.7313,510.2286,628.4981,512.3767,626.35,507.1436,626.57,516.99" style="stroke:#181818;stroke-width:1.0;"/></g><!--MD5=[67b6cc77f9c51a9ece6c1301ad2aff24]
link Teacher to Evaluation--><g id="link_Teacher_Evaluation"><path codeLine="71" d="M763.4,320.2 C746.88,336.44 724.49,358.45 705.66,376.97 " fill="none" id="Teacher-to-Evaluation" style="stroke:#181818;stroke-width:1.0;stroke-dasharray:7.0,7.0;"/><polygon fill="#181818" points="701.94,380.62,711.1607,377.159,705.504,377.1132,705.5498,371.4565,701.94,380.62" style="stroke:#181818;stroke-width:1.0;"/></g><!--MD5=[2628e164b67c1f40dc35481def287ee4]
link Definition to OpenAnswer--><g id="link_Definition_OpenAnswer"><path codeLine="72" d="M993.19,692.24 C994.24,735.63 990.86,830.14 947,892 C920.62,929.2 877.35,955.93 839.29,973.72 " fill="none" id="Definition-to-OpenAnswer" style="stroke:#181818;stroke-width:1.0;stroke-dasharray:7.0,7.0;"/><polygon fill="#181818" points="834.68,975.85,844.5278,975.7044,839.2185,973.752,841.171,968.4428,834.68,975.85" style="stroke:#181818;stroke-width:1.0;"/><text fill="#000000" font-family="sans-serif" font-size="13" lengthAdjust="spacing" textLength="108" x="982" y="855.9951">isUsefulToConcept</text></g><!--MD5=[1d8c82c42e54aaccde68dcd6fc5dc993]
link Justification to OpenAnswer--><g id="link_Justification_OpenAnswer"><path codeLine="73" d="M1138.31,874.64 C1127.09,880.32 1115.11,886.38 1104,892 C1061.79,913.35 1053.32,923.47 1009,940 C953.73,960.61 888.98,976.58 839.65,987.14 " fill="none" id="Justification-to-OpenAnswer" style="stroke:#181818;stroke-width:1.0;stroke-dasharray:7.0,7.0;"/><polygon fill="#181818" points="834.62,988.21,844.2567,990.2431,839.5098,987.1663,842.5867,982.4194,834.62,988.21" style="stroke:#181818;stroke-width:1.0;"/><text fill="#000000" font-family="sans-serif" font-size="13" lengthAdjust="spacing" textLength="108" x="1050" y="936.4951">isUsefulToConcept</text></g><!--MD5=[02ef75cdf8d99a84fff5c5d571d09b39]
link Relation to OpenAnswer--><g id="link_Relation_OpenAnswer"><path codeLine="74" d="M840.82,779.14 C825.69,821.9 793.27,913.59 775.07,965.04 " fill="none" id="Relation-to-OpenAnswer" style="stroke:#181818;stroke-width:1.0;stroke-dasharray:7.0,7.0;"/><polygon fill="#181818" points="773.36,969.89,780.1375,962.744,775.0308,965.1774,772.5974,960.0707,773.36,969.89" style="stroke:#181818;stroke-width:1.0;"/><text fill="#000000" font-family="sans-serif" font-size="13" lengthAdjust="spacing" textLength="108" x="831" y="855.9951">isUsefulToConcept</text></g><!--MD5=[f64dc83838b757ef1728d7fab5cb079d]
link Evaluation to OpenAnswer--><g id="link_Evaluation_OpenAnswer"><path codeLine="76" d="M674.13,447.4 C690.14,548.42 739.08,857.36 756.1,964.74 " fill="none" id="Evaluation-to-OpenAnswer" style="stroke:#181818;stroke-width:1.0;stroke-dasharray:7.0,7.0;"/><polygon fill="#181818" points="756.88,969.7,759.4175,960.1836,756.0951,964.762,751.5167,961.4396,756.88,969.7" style="stroke:#181818;stroke-width:1.0;"/><text fill="#000000" font-family="sans-serif" font-size="13" lengthAdjust="spacing" textLength="127" x="716" y="673.4951">manual (! isEvaluated)</text></g><!--MD5=[1fbef7c23275e6fc2ed02dd14078f225]
link Evaluation to SelectedOption--><g id="link_Evaluation_SelectedOption"><path codeLine="77" d="M619.98,419.05 C466.6,432.35 6,477.52 6,540 C6,540 6,540 6,851.5 C6,898.9 36.88,946.24 59.78,974.82 " fill="none" id="Evaluation-to-SelectedOption" style="stroke:#181818;stroke-width:1.0;stroke-dasharray:7.0,7.0;"/><polygon fill="#181818" points="63.1,978.9,60.512,969.3973,59.94,975.0251,54.3122,974.4532,63.1,978.9" style="stroke:#181818;stroke-width:1.0;"/><text fill="#000000" font-family="sans-serif" font-size="13" lengthAdjust="spacing" textLength="57" x="7" y="673.4951">automatic</text></g><!--MD5=[37c1e8dba486a8108983e1d119d6febb]
reverse link Test to Question--><g id="link_Test_Question"><path codeLine="79" d="M588.53,575.26 C572.7,593.75 553.09,616.66 537.43,634.95 " fill="none" id="Test-backto-Question" style="stroke:#181818;stroke-width:1.0;"/><polygon fill="#181818" points="597.12,565.22,590.1817,567.1848,589.3268,574.345,596.2651,572.3802,597.12,565.22" style="stroke:#181818;stroke-width:1.0;"/><text fill="#000000" font-family="sans-serif" font-size="13" lengthAdjust="spacing" textLength="22" x="518.8187" y="624.0551">1..n</text></g><!--MD5=[5ea4867893d7a476c54f91c2252dd0f8]
reverse link Question to MultipleChoiceQuestion--><g id="link_Question_MultipleChoiceQuestion"><path codeLine="80" d="M453.45,713.57 C408.14,749.29 346.39,797.96 310.39,826.33 " fill="none" id="Question-backto-MultipleChoiceQuestion" style="stroke:#181818;stroke-width:1.0;"/><polygon fill="none" points="449.28,707.94,469.32,701.06,457.95,718.94,449.28,707.94" style="stroke:#181818;stroke-width:1.0;"/></g><!--MD5=[e68d8486b151d64b61c7f5b6e40a3de9]
reverse link Question to OpenQuestion--><g id="link_Question_OpenQuestion"><path codeLine="81" d="M536.03,719.53 C554.08,754.56 577.28,799.57 591.09,826.39 " fill="none" id="Question-backto-OpenQuestion" style="stroke:#181818;stroke-width:1.0;"/><polygon fill="none" points="529.56,722.25,526.63,701.27,542.01,715.84,529.56,722.25" style="stroke:#181818;stroke-width:1.0;"/></g><!--MD5=[eff6b19138ddb6af13849faaf0a4f1bc]
reverse link Question to Statement--><g id="link_Question_Statement"><path codeLine="82" d="M437.5,695.34 C368.24,721.37 261.58,763.78 173,809 C162.82,814.2 152.13,820.41 142.38,826.39 " fill="none" id="Question-backto-Statement" style="stroke:#181818;stroke-width:1.0;"/><polygon fill="#181818" points="449.99,690.67,442.9701,689.0206,438.7476,694.8661,445.7675,696.5155,449.99,690.67" style="stroke:#181818;stroke-width:1.0;"/></g><!--MD5=[185adfbec1fc38ddaede86a7c2f0e161]
reverse link MultipleChoiceQuestion to Option--><g id="link_MultipleChoiceQuestion_Option"><path codeLine="83" d="M283.67,888 C285.73,916.17 288.51,954.31 290.29,978.54 " fill="none" id="MultipleChoiceQuestion-backto-Option" style="stroke:#181818;stroke-width:1.0;"/><polygon fill="#181818" points="282.69,874.69,279.1355,880.9642,283.56,886.6584,287.1145,880.3842,282.69,874.69" style="stroke:#181818;stroke-width:1.0;"/><text fill="#000000" font-family="sans-serif" font-size="13" lengthAdjust="spacing" textLength="22" x="265.1919" y="968.1658">2..n</text></g><!--MD5=[8b4b6ce4502ba24ddb3ea6e9e3ffd79d]
reverse link Option to Incorrect--><g id="link_Option_Incorrect"><path codeLine="84" d="M317.03,1044.32 C327.93,1061.89 340.31,1081.84 349.63,1096.84 " fill="none" id="Option-backto-Incorrect" style="stroke:#181818;stroke-width:1.0;"/><polygon fill="none" points="311,1047.88,306.4,1027.2,322.89,1040.5,311,1047.88" style="stroke:#181818;stroke-width:1.0;"/></g><!--MD5=[e9c99f228a0238815f6b3520e77f42c1]
reverse link Option to Correct--><g id="link_Option_Correct"><path codeLine="85" d="M271.42,1045.16 C262.74,1062.51 252.96,1082.07 245.58,1096.84 " fill="none" id="Option-backto-Correct" style="stroke:#181818;stroke-width:1.0;"/><polygon fill="none" points="265.2,1041.95,280.4,1027.2,277.72,1048.21,265.2,1041.95" style="stroke:#181818;stroke-width:1.0;"/></g><!--MD5=[af3bf499bed903ad0ed1598fcccf7b9c]
reverse link MultipleChoiceQuestion to Correct--><g id="link_MultipleChoiceQuestion_Correct"><path codeLine="86" d="M264.32,886.82 C254.31,909.92 242.5,941.08 237,970 C228.59,1014.27 230.18,1067.21 232.09,1096.88 " fill="none" id="MultipleChoiceQuestion-backto-Correct" style="stroke:#181818;stroke-width:1.0;"/><polygon fill="#181818" points="269.64,874.88,263.5432,878.7308,264.7529,885.8398,270.8497,881.9889,269.64,874.88" style="stroke:#181818;stroke-width:1.0;"/></g><!--MD5=[c33b5950e601fddbef86daa9f7dbaee3]
reverse link MultipleChoiceQuestion to Incorrect--><g id="link_MultipleChoiceQuestion_Incorrect"><path codeLine="87" d="M304.49,885.91 C318.89,908.74 336.35,939.94 346,970 C359.91,1013.33 363.23,1066.83 363.93,1096.81 " fill="none" id="MultipleChoiceQuestion-backto-Incorrect" style="stroke:#181818;stroke-width:1.0;"/><polygon fill="#181818" points="297.3,874.78,297.1989,881.9904,303.8157,884.857,303.9169,877.6466,297.3,874.78" style="stroke:#181818;stroke-width:1.0;"/><text fill="#000000" font-family="sans-serif" font-size="13" lengthAdjust="spacing" textLength="22" x="339.0933" y="1086.1015">1..n</text></g><!--MD5=[a41781f1f1e8030a8e1780e035976660]
reverse link MultipleChoiceQuestion to SelectedOption--><g id="link_MultipleChoiceQuestion_SelectedOption"><path codeLine="88" d="M233.26,881.75 C215,893.78 194.19,908.07 176,922 C152.47,940.02 127.16,962.25 109.06,978.71 " fill="none" id="MultipleChoiceQuestion-backto-SelectedOption" style="stroke:#181818;stroke-width:1.0;"/><polygon fill="none" points="244.26,874.56,237.0493,874.4875,234.2089,881.1156,241.4197,881.1882,244.26,874.56" style="stroke:#181818;stroke-width:1.0;"/><text fill="#000000" font-family="sans-serif" font-size="13" lengthAdjust="spacing" textLength="22" x="90.6629" y="967.9758">0..n</text></g><!--MD5=[ddd0ba9ff0adad4c5f8027dfa32b4028]
reverse link OpenQuestion to OpenAnswer--><g id="link_OpenQuestion_OpenAnswer"><path codeLine="89" d="M635.02,884.23 C651.77,901.13 672.74,921.92 692,940 C702.54,949.89 714.21,960.39 724.95,969.89 " fill="none" id="OpenQuestion-backto-OpenAnswer" style="stroke:#181818;stroke-width:1.0;"/><polygon fill="none" points="625.69,874.79,627.0603,881.8697,634.1224,883.3278,632.7521,876.2481,625.69,874.79" style="stroke:#181818;stroke-width:1.0;"/><text fill="#000000" font-family="sans-serif" font-size="13" lengthAdjust="spacing" textLength="22" x="693.0397" y="958.9827">0..n</text></g><!--MD5=[5d713b1c0eb5d19b54b4791b73108c83]
reverse link Question to Answer--><g id="link_Question_Answer"><path codeLine="90" d="M496.54,714 C487.82,743.13 476.56,780.76 468.13,808.97 " fill="none" id="Question-backto-Answer" style="stroke:#181818;stroke-width:1.0;"/><polygon fill="none" points="500.35,701.27,494.7975,705.8711,496.9091,712.7661,502.4616,708.165,500.35,701.27" style="stroke:#181818;stroke-width:1.0;"/><text fill="#000000" font-family="sans-serif" font-size="13" lengthAdjust="spacing" textLength="22" x="446.3172" y="798.2727">0..n</text></g><!--MD5=[d836dd5f24b2050a0870c879f4cc72e6]
reverse link Answer to OpenAnswer--><g id="link_Answer_OpenAnswer"><path codeLine="91" d="M523.71,891.94 C588.28,925.83 645.46,951.87 689.34,971.1 " fill="none" id="Answer-backto-OpenAnswer" style="stroke:#181818;stroke-width:1.0;"/><polygon fill="none" points="520.16,897.98,505.77,882.42,526.72,885.61,520.16,897.98" style="stroke:#181818;stroke-width:1.0;"/></g><!--MD5=[c9991b0162c2b5928e47e95121f6f5d4]
reverse link Answer to SelectedOption--><g id="link_Answer_SelectedOption"><path codeLine="92" d="M388.16,891.62 C296.68,934.34 207.43,964.43 148.57,982.81 " fill="none" id="Answer-backto-SelectedOption" style="stroke:#181818;stroke-width:1.0;"/><polygon fill="none" points="385.41,885.18,406.48,882.91,391.42,897.82,385.41,885.18" style="stroke:#181818;stroke-width:1.0;"/></g><!--MD5=[98aa07428d46824cc2b88ba1e197bb35]
link OpenAnswer to Solution--><g id="link_OpenAnswer_Solution"><path codeLine="93" d="M762,1036 C762,1053.51 762,1074.99 762,1091.85 " fill="none" id="OpenAnswer-to-Solution" style="stroke:#181818;stroke-width:1.0;"/><polygon fill="#181818" points="762,1096.93,766,1087.93,762,1091.93,758,1087.93,762,1096.93" style="stroke:#181818;stroke-width:1.0;"/></g><!--MD5=[dc4a1b895a254b63ac6fa8d6bfaa156a]
@startuml OpoTestDomain

class Community

class User

class Teacher

class Student

class Evaluation {
    - result
}

class Category 

class Test 

class Concept {
    - keyword
}

class Question {
    - statementType
}

class Statement

class Answer {
    - isOK
    - isEvaluated
}

class MultipleChoiceQuestion

class OpenQuestion

class Option

class Correct

Class Incorrect

class OpenAnswer {
    - isUsefulToConcept
}

Class SelectedOption


Community *- -"2..n" User
Community o- -"0..n" Category

Category o- -"0..n" Category : Subcategories

User <|- - Teacher
User <|- - Student

Teacher ..> Concept
Category o- -"0..n" Concept
'Concept - -o Category
Concept o- -"0..n" Question
'Question - -o Concept
Concept o- -"0..n" Definition
Definition o- -"0..n" Justification
Justification o- - Explication
Concept o- -"0..n" Relation

Student - ->"0..n" Evaluation
Evaluation - -> Test

Teacher ..> Evaluation
Definition ..> OpenAnswer :isUsefulToConcept
Justification ..> OpenAnswer :isUsefulToConcept
Relation ..> OpenAnswer :isUsefulToConcept

Evaluation ..> OpenAnswer : manual (! isEvaluated)
Evaluation ..> SelectedOption : automatic

Test *- -"1..n" Question
Question <|- - MultipleChoiceQuestion
Question <|- - OpenQuestion
Question *- -   Statement
MultipleChoiceQuestion *- -"2..n" Option
Option <|- - Incorrect
Option <|- - Correct
MultipleChoiceQuestion *- - Correct
MultipleChoiceQuestion *- -"1..n" Incorrect
MultipleChoiceQuestion o- -"0..n" SelectedOption
OpenQuestion o- -"0..n" OpenAnswer
Question o- -"0..n" Answer
Answer <|- - OpenAnswer
Answer <|- - SelectedOption
OpenAnswer - -> Solution


@enduml

@startuml OpoTestDomain

class Community

class User

class Teacher

class Student

class Evaluation {
    - result
}

class Category 

class Test 

class Concept {
    - keyword
}

class Question {
    - statementType
}

class Statement

class Answer {
    - isOK
    - isEvaluated
}

class MultipleChoiceQuestion

class OpenQuestion

class Option

class Correct

Class Incorrect

class OpenAnswer {
    - isUsefulToConcept
}

Class SelectedOption


Community *- -"2..n" User
Community o- -"0..n" Category

Category o- -"0..n" Category : Subcategories

User <|- - Teacher
User <|- - Student

Teacher ..> Concept
Category o- -"0..n" Concept
Concept o- -"0..n" Question
Concept o- -"0..n" Definition
Definition o- -"0..n" Justification
Justification o- - Explication
Concept o- -"0..n" Relation

Student - ->"0..n" Evaluation
Evaluation - -> Test

Teacher ..> Evaluation
Definition ..> OpenAnswer :isUsefulToConcept
Justification ..> OpenAnswer :isUsefulToConcept
Relation ..> OpenAnswer :isUsefulToConcept

Evaluation ..> OpenAnswer : manual (! isEvaluated)
Evaluation ..> SelectedOption : automatic

Test *- -"1..n" Question
Question <|- - MultipleChoiceQuestion
Question <|- - OpenQuestion
Question *- -   Statement
MultipleChoiceQuestion *- -"2..n" Option
Option <|- - Incorrect
Option <|- - Correct
MultipleChoiceQuestion *- - Correct
MultipleChoiceQuestion *- -"1..n" Incorrect
MultipleChoiceQuestion o- -"0..n" SelectedOption
OpenQuestion o- -"0..n" OpenAnswer
Question o- -"0..n" Answer
Answer <|- - OpenAnswer
Answer <|- - SelectedOption
OpenAnswer - -> Solution


@enduml

PlantUML version 1.2022.7(Mon Aug 22 18:01:30 WEST 2022)
(GPL source distribution)
Java Runtime: OpenJDK Runtime Environment
JVM: OpenJDK 64-Bit Server VM
Default Encoding: Cp1252
Language: es
Country: ES
--></g></svg>