<?xml version="1.0" encoding="UTF-8" standalone="no"?><svg xmlns="http://www.w3.org/2000/svg" xmlns:xlink="http://www.w3.org/1999/xlink" contentStyleType="text/css" height="645px" preserveAspectRatio="none" style="width:1321px;height:645px;background:#FFFFFF;" version="1.1" viewBox="0 0 1321 645" width="1321px" zoomAndPan="magnify"><defs/><g><!--MD5=[800d1ea9df5e2ea861ad73a71a5c0c7b]
cluster Primary:withKeyword--><g id="cluster_Primary:withKeyword"><path d="M192,137 L339,137 A3.75,3.75 0 0 1 341.5,139.5 L348.5,160.6094 L1233,160.6094 A2.5,2.5 0 0 1 1235.5,163.1094 L1235.5,252.5 A2.5,2.5 0 0 1 1233,255 L192,255 A2.5,2.5 0 0 1 189.5,252.5 L189.5,139.5 A2.5,2.5 0 0 1 192,137 " fill="none" style="stroke:#000000;stroke-width:1.5;"/><line style="stroke:#000000;stroke-width:1.5;" x1="189.5" x2="348.5" y1="160.6094" y2="160.6094"/><text fill="#000000" font-family="sans-serif" font-size="14" font-weight="bold" lengthAdjust="spacing" textLength="146" x="193.5" y="153.5332">Primary:withKeyword</text></g><!--MD5=[a8cb140b744031715f533a7b2982ca3a]
class DefinitionQuestion--><g id="elem_DefinitionQuestion"><rect codeLine="17" fill="#F1F1F1" height="65.6094" id="DefinitionQuestion" rx="2.5" ry="2.5" style="stroke:#181818;stroke-width:0.5;" width="248" x="205.5" y="173"/><ellipse cx="267.25" cy="189" fill="#A9DCDF" rx="11" ry="11" style="stroke:#181818;stroke-width:1.0;"/><path d="M269.4375,190.7656 L265.2969,190.7656 L264.875,191.7969 L265.2969,191.7969 Q265.9063,191.7969 266.1719,192.0313 Q266.4375,192.2656 266.4375,192.6563 Q266.4375,193.0313 266.1719,193.2656 Q265.9063,193.5 265.2969,193.5 L263,193.5 Q262.3906,193.5 262.1406,193.2656 Q261.875,193.0313 261.875,192.6406 Q261.875,192.2656 262.1563,192.0313 Q262.4219,191.7813 263.0469,191.7969 L265.7188,185.1406 L264.6094,185.1406 Q264,185.1406 263.7344,184.9063 Q263.4688,184.6719 263.4688,184.2813 Q263.4688,183.9063 263.7344,183.6719 Q264,183.4375 264.6094,183.4375 L268.2813,183.4375 L271.6719,191.7969 Q272.2656,191.7969 272.4531,191.9375 Q272.8438,192.2031 272.8438,192.6563 Q272.8438,193.0313 272.5781,193.2656 Q272.3281,193.5 271.7188,193.5 L269.4219,193.5 Q268.8125,193.5 268.5469,193.2656 Q268.2813,193.0313 268.2813,192.6406 Q268.2813,192.2656 268.5469,192.0313 Q268.8125,191.7969 269.4219,191.7969 L269.8438,191.7969 L269.4375,190.7656 Z M268.7188,189.0625 L267.3594,185.6875 L265.9844,189.0625 L268.7188,189.0625 Z " fill="#000000"/><text fill="#000000" font-family="sans-serif" font-size="14" font-style="italic" lengthAdjust="spacing" textLength="116" x="287.75" y="194.7285">DefinitionQuestion</text><line style="stroke:#181818;stroke-width:0.5;" x1="206.5" x2="452.5" y1="205" y2="205"/><rect fill="none" height="6" style="stroke:#C82930;stroke-width:1.0;" width="6" x="213.5" y="216.3047"/><text fill="#000000" font-family="sans-serif" font-size="14" lengthAdjust="spacing" textLength="222" x="225.5" y="223.5332">statement ="¿Qué es KEYWORD?"</text><line style="stroke:#181818;stroke-width:0.5;" x1="206.5" x2="452.5" y1="230.6094" y2="230.6094"/></g><!--MD5=[5537c14b6466bc70ff6128a1aa5dd387]
class ClassificationQuestion--><g id="elem_ClassificationQuestion"><rect codeLine="22" fill="#F1F1F1" height="65.6094" id="ClassificationQuestion" rx="2.5" ry="2.5" style="stroke:#181818;stroke-width:0.5;" width="297" x="489" y="173"/><ellipse cx="563.25" cy="189" fill="#A9DCDF" rx="11" ry="11" style="stroke:#181818;stroke-width:1.0;"/><path d="M565.4375,190.7656 L561.2969,190.7656 L560.875,191.7969 L561.2969,191.7969 Q561.9063,191.7969 562.1719,192.0313 Q562.4375,192.2656 562.4375,192.6563 Q562.4375,193.0313 562.1719,193.2656 Q561.9063,193.5 561.2969,193.5 L559,193.5 Q558.3906,193.5 558.1406,193.2656 Q557.875,193.0313 557.875,192.6406 Q557.875,192.2656 558.1563,192.0313 Q558.4219,191.7813 559.0469,191.7969 L561.7188,185.1406 L560.6094,185.1406 Q560,185.1406 559.7344,184.9063 Q559.4688,184.6719 559.4688,184.2813 Q559.4688,183.9063 559.7344,183.6719 Q560,183.4375 560.6094,183.4375 L564.2813,183.4375 L567.6719,191.7969 Q568.2656,191.7969 568.4531,191.9375 Q568.8438,192.2031 568.8438,192.6563 Q568.8438,193.0313 568.5781,193.2656 Q568.3281,193.5 567.7188,193.5 L565.4219,193.5 Q564.8125,193.5 564.5469,193.2656 Q564.2813,193.0313 564.2813,192.6406 Q564.2813,192.2656 564.5469,192.0313 Q564.8125,191.7969 565.4219,191.7969 L565.8438,191.7969 L565.4375,190.7656 Z M564.7188,189.0625 L563.3594,185.6875 L561.9844,189.0625 L564.7188,189.0625 Z " fill="#000000"/><text fill="#000000" font-family="sans-serif" font-size="14" font-style="italic" lengthAdjust="spacing" textLength="140" x="583.75" y="194.7285">ClassificationQuestion</text><line style="stroke:#181818;stroke-width:0.5;" x1="490" x2="785" y1="205" y2="205"/><rect fill="none" height="6" style="stroke:#C82930;stroke-width:1.0;" width="6" x="497" y="216.3047"/><text fill="#000000" font-family="sans-serif" font-size="14" lengthAdjust="spacing" textLength="271" x="509" y="223.5332">statement = "Qué tipos hay de KEYWORD"</text><line style="stroke:#181818;stroke-width:0.5;" x1="490" x2="785" y1="230.6094" y2="230.6094"/></g><!--MD5=[589357b5cd90a42c237433e2518f116d]
class CompositionQuestion--><g id="elem_CompositionQuestion"><rect codeLine="27" fill="#F1F1F1" height="65.6094" id="CompositionQuestion" rx="2.5" ry="2.5" style="stroke:#181818;stroke-width:0.5;" width="398" x="821.5" y="173"/><ellipse cx="948.75" cy="189" fill="#A9DCDF" rx="11" ry="11" style="stroke:#181818;stroke-width:1.0;"/><path d="M950.9375,190.7656 L946.7969,190.7656 L946.375,191.7969 L946.7969,191.7969 Q947.4063,191.7969 947.6719,192.0313 Q947.9375,192.2656 947.9375,192.6563 Q947.9375,193.0313 947.6719,193.2656 Q947.4063,193.5 946.7969,193.5 L944.5,193.5 Q943.8906,193.5 943.6406,193.2656 Q943.375,193.0313 943.375,192.6406 Q943.375,192.2656 943.6563,192.0313 Q943.9219,191.7813 944.5469,191.7969 L947.2188,185.1406 L946.1094,185.1406 Q945.5,185.1406 945.2344,184.9063 Q944.9688,184.6719 944.9688,184.2813 Q944.9688,183.9063 945.2344,183.6719 Q945.5,183.4375 946.1094,183.4375 L949.7813,183.4375 L953.1719,191.7969 Q953.7656,191.7969 953.9531,191.9375 Q954.3438,192.2031 954.3438,192.6563 Q954.3438,193.0313 954.0781,193.2656 Q953.8281,193.5 953.2188,193.5 L950.9219,193.5 Q950.3125,193.5 950.0469,193.2656 Q949.7813,193.0313 949.7813,192.6406 Q949.7813,192.2656 950.0469,192.0313 Q950.3125,191.7969 950.9219,191.7969 L951.3438,191.7969 L950.9375,190.7656 Z M950.2188,189.0625 L948.8594,185.6875 L947.4844,189.0625 L950.2188,189.0625 Z " fill="#000000"/><text fill="#000000" font-family="sans-serif" font-size="14" font-style="italic" lengthAdjust="spacing" textLength="135" x="969.25" y="194.7285">CompositionQuestion</text><line style="stroke:#181818;stroke-width:0.5;" x1="822.5" x2="1218.5" y1="205" y2="205"/><rect fill="none" height="6" style="stroke:#C82930;stroke-width:1.0;" width="6" x="829.5" y="216.3047"/><text fill="#000000" font-family="sans-serif" font-size="14" lengthAdjust="spacing" textLength="372" x="841.5" y="223.5332">statement ="¿Qué conceptos destacarias del KEYWORD?"</text><line style="stroke:#181818;stroke-width:0.5;" x1="822.5" x2="1218.5" y1="230.6094" y2="230.6094"/></g><!--MD5=[9d451b2f92d848a8e2d1a4dab2b1c6bf]
class Concept--><g id="elem_Concept"><rect codeLine="2" fill="#F1F1F1" height="65.6094" id="Concept" rx="2.5" ry="2.5" style="stroke:#181818;stroke-width:0.5;" width="85" x="481" y="302"/><ellipse cx="496" cy="318" fill="#ADD1B2" rx="11" ry="11" style="stroke:#181818;stroke-width:1.0;"/><path d="M498.7656,313.875 Q498.9219,313.6563 499.1094,313.5469 Q499.2969,313.4375 499.5156,313.4375 Q499.8906,313.4375 500.125,313.7031 Q500.3594,313.9531 500.3594,314.5625 L500.3594,316.0156 Q500.3594,316.625 500.125,316.8906 Q499.8906,317.1563 499.5156,317.1563 Q499.1719,317.1563 498.9688,316.9531 Q498.7656,316.7656 498.6563,316.25 Q498.6094,315.8906 498.4219,315.7031 Q498.0938,315.3281 497.4844,315.1094 Q496.875,314.8906 496.25,314.8906 Q495.4844,314.8906 494.8438,315.2188 Q494.2188,315.5469 493.7188,316.2969 Q493.2344,317.0469 493.2344,318.0781 L493.2344,319.1719 Q493.2344,320.4063 494.125,321.2344 Q495.0156,322.0469 496.6094,322.0469 Q497.5469,322.0469 498.2031,321.7969 Q498.5938,321.6406 499.0156,321.2031 Q499.2813,320.9375 499.4219,320.8594 Q499.5781,320.7813 499.7813,320.7813 Q500.1094,320.7813 500.3594,321.0469 Q500.625,321.2969 500.625,321.6406 Q500.625,321.9844 500.2813,322.3906 Q499.7813,322.9688 498.9844,323.2969 Q497.9063,323.75 496.6094,323.75 Q495.0938,323.75 493.8906,323.125 Q492.9063,322.625 492.2188,321.5625 Q491.5313,320.4844 491.5313,319.2031 L491.5313,318.0469 Q491.5313,316.7188 492.1406,315.5781 Q492.7656,314.4219 493.8594,313.8125 Q494.9531,313.1875 496.1875,313.1875 Q496.9219,313.1875 497.5625,313.3594 Q498.2188,313.5156 498.7656,313.875 Z " fill="#000000"/><text fill="#000000" font-family="sans-serif" font-size="14" lengthAdjust="spacing" textLength="53" x="510" y="323.7285">Concept</text><line style="stroke:#181818;stroke-width:0.5;" x1="482" x2="565" y1="334" y2="334"/><rect fill="none" height="6" style="stroke:#C82930;stroke-width:1.0;" width="6" x="489" y="345.3047"/><text fill="#000000" font-family="sans-serif" font-size="14" lengthAdjust="spacing" textLength="52" x="501" y="352.5332">keyword</text><line style="stroke:#181818;stroke-width:0.5;" x1="482" x2="565" y1="359.6094" y2="359.6094"/></g><!--MD5=[af22135d5be6ed11ccd2d02fa51653b3]
class Definition--><g id="elem_Definition"><rect codeLine="6" fill="#F1F1F1" height="65.6094" id="Definition" rx="2.5" ry="2.5" style="stroke:#181818;stroke-width:0.5;" width="91" x="280" y="446"/><ellipse cx="295" cy="462" fill="#ADD1B2" rx="11" ry="11" style="stroke:#181818;stroke-width:1.0;"/><path d="M297.7656,457.875 Q297.9219,457.6563 298.1094,457.5469 Q298.2969,457.4375 298.5156,457.4375 Q298.8906,457.4375 299.125,457.7031 Q299.3594,457.9531 299.3594,458.5625 L299.3594,460.0156 Q299.3594,460.625 299.125,460.8906 Q298.8906,461.1563 298.5156,461.1563 Q298.1719,461.1563 297.9688,460.9531 Q297.7656,460.7656 297.6563,460.25 Q297.6094,459.8906 297.4219,459.7031 Q297.0938,459.3281 296.4844,459.1094 Q295.875,458.8906 295.25,458.8906 Q294.4844,458.8906 293.8438,459.2188 Q293.2188,459.5469 292.7188,460.2969 Q292.2344,461.0469 292.2344,462.0781 L292.2344,463.1719 Q292.2344,464.4063 293.125,465.2344 Q294.0156,466.0469 295.6094,466.0469 Q296.5469,466.0469 297.2031,465.7969 Q297.5938,465.6406 298.0156,465.2031 Q298.2813,464.9375 298.4219,464.8594 Q298.5781,464.7813 298.7813,464.7813 Q299.1094,464.7813 299.3594,465.0469 Q299.625,465.2969 299.625,465.6406 Q299.625,465.9844 299.2813,466.3906 Q298.7813,466.9688 297.9844,467.2969 Q296.9063,467.75 295.6094,467.75 Q294.0938,467.75 292.8906,467.125 Q291.9063,466.625 291.2188,465.5625 Q290.5313,464.4844 290.5313,463.2031 L290.5313,462.0469 Q290.5313,460.7188 291.1406,459.5781 Q291.7656,458.4219 292.8594,457.8125 Q293.9531,457.1875 295.1875,457.1875 Q295.9219,457.1875 296.5625,457.3594 Q297.2188,457.5156 297.7656,457.875 Z " fill="#000000"/><text fill="#000000" font-family="sans-serif" font-size="14" lengthAdjust="spacing" textLength="59" x="309" y="467.7285">Definition</text><line style="stroke:#181818;stroke-width:0.5;" x1="281" x2="370" y1="478" y2="478"/><rect fill="none" height="6" style="stroke:#C82930;stroke-width:1.0;" width="6" x="288" y="489.3047"/><text fill="#000000" font-family="sans-serif" font-size="14" lengthAdjust="spacing" textLength="42" x="300" y="496.5332">isFake</text><line style="stroke:#181818;stroke-width:0.5;" x1="281" x2="370" y1="503.6094" y2="503.6094"/></g><!--MD5=[534474e9f05b14d7c70186ae077f30e0]
class Relation--><g id="elem_Relation"><rect codeLine="10" fill="#F1F1F1" height="48" id="Relation" rx="2.5" ry="2.5" style="stroke:#181818;stroke-width:0.5;" width="84" x="481.5" y="455"/><ellipse cx="496.5" cy="471" fill="#ADD1B2" rx="11" ry="11" style="stroke:#181818;stroke-width:1.0;"/><path d="M499.2656,466.875 Q499.4219,466.6563 499.6094,466.5469 Q499.7969,466.4375 500.0156,466.4375 Q500.3906,466.4375 500.625,466.7031 Q500.8594,466.9531 500.8594,467.5625 L500.8594,469.0156 Q500.8594,469.625 500.625,469.8906 Q500.3906,470.1563 500.0156,470.1563 Q499.6719,470.1563 499.4688,469.9531 Q499.2656,469.7656 499.1563,469.25 Q499.1094,468.8906 498.9219,468.7031 Q498.5938,468.3281 497.9844,468.1094 Q497.375,467.8906 496.75,467.8906 Q495.9844,467.8906 495.3438,468.2188 Q494.7188,468.5469 494.2188,469.2969 Q493.7344,470.0469 493.7344,471.0781 L493.7344,472.1719 Q493.7344,473.4063 494.625,474.2344 Q495.5156,475.0469 497.1094,475.0469 Q498.0469,475.0469 498.7031,474.7969 Q499.0938,474.6406 499.5156,474.2031 Q499.7813,473.9375 499.9219,473.8594 Q500.0781,473.7813 500.2813,473.7813 Q500.6094,473.7813 500.8594,474.0469 Q501.125,474.2969 501.125,474.6406 Q501.125,474.9844 500.7813,475.3906 Q500.2813,475.9688 499.4844,476.2969 Q498.4063,476.75 497.1094,476.75 Q495.5938,476.75 494.3906,476.125 Q493.4063,475.625 492.7188,474.5625 Q492.0313,473.4844 492.0313,472.2031 L492.0313,471.0469 Q492.0313,469.7188 492.6406,468.5781 Q493.2656,467.4219 494.3594,466.8125 Q495.4531,466.1875 496.6875,466.1875 Q497.4219,466.1875 498.0625,466.3594 Q498.7188,466.5156 499.2656,466.875 Z " fill="#000000"/><text fill="#000000" font-family="sans-serif" font-size="14" lengthAdjust="spacing" textLength="52" x="510.5" y="476.7285">Relation</text><line style="stroke:#181818;stroke-width:0.5;" x1="482.5" x2="564.5" y1="487" y2="487"/><line style="stroke:#181818;stroke-width:0.5;" x1="482.5" x2="564.5" y1="495" y2="495"/></g><!--MD5=[9c239722e256878d27dcbb07783cc14f]
class Classification--><g id="elem_Classification"><rect codeLine="12" fill="#F1F1F1" height="48" id="Classification" rx="2.5" ry="2.5" style="stroke:#181818;stroke-width:0.5;" width="115" x="527" y="590"/><ellipse cx="542" cy="606" fill="#ADD1B2" rx="11" ry="11" style="stroke:#181818;stroke-width:1.0;"/><path d="M544.7656,601.875 Q544.9219,601.6563 545.1094,601.5469 Q545.2969,601.4375 545.5156,601.4375 Q545.8906,601.4375 546.125,601.7031 Q546.3594,601.9531 546.3594,602.5625 L546.3594,604.0156 Q546.3594,604.625 546.125,604.8906 Q545.8906,605.1563 545.5156,605.1563 Q545.1719,605.1563 544.9688,604.9531 Q544.7656,604.7656 544.6563,604.25 Q544.6094,603.8906 544.4219,603.7031 Q544.0938,603.3281 543.4844,603.1094 Q542.875,602.8906 542.25,602.8906 Q541.4844,602.8906 540.8438,603.2188 Q540.2188,603.5469 539.7188,604.2969 Q539.2344,605.0469 539.2344,606.0781 L539.2344,607.1719 Q539.2344,608.4063 540.125,609.2344 Q541.0156,610.0469 542.6094,610.0469 Q543.5469,610.0469 544.2031,609.7969 Q544.5938,609.6406 545.0156,609.2031 Q545.2813,608.9375 545.4219,608.8594 Q545.5781,608.7813 545.7813,608.7813 Q546.1094,608.7813 546.3594,609.0469 Q546.625,609.2969 546.625,609.6406 Q546.625,609.9844 546.2813,610.3906 Q545.7813,610.9688 544.9844,611.2969 Q543.9063,611.75 542.6094,611.75 Q541.0938,611.75 539.8906,611.125 Q538.9063,610.625 538.2188,609.5625 Q537.5313,608.4844 537.5313,607.2031 L537.5313,606.0469 Q537.5313,604.7188 538.1406,603.5781 Q538.7656,602.4219 539.8594,601.8125 Q540.9531,601.1875 542.1875,601.1875 Q542.9219,601.1875 543.5625,601.3594 Q544.2188,601.5156 544.7656,601.875 Z " fill="#000000"/><text fill="#000000" font-family="sans-serif" font-size="14" lengthAdjust="spacing" textLength="83" x="556" y="611.7285">Classification</text><line style="stroke:#181818;stroke-width:0.5;" x1="528" x2="641" y1="622" y2="622"/><line style="stroke:#181818;stroke-width:0.5;" x1="528" x2="641" y1="630" y2="630"/></g><!--MD5=[251454e98c15f29849fb35b1904d0020]
class Composition--><g id="elem_Composition"><rect codeLine="14" fill="#F1F1F1" height="48" id="Composition" rx="2.5" ry="2.5" style="stroke:#181818;stroke-width:0.5;" width="110" x="687.5" y="590"/><ellipse cx="702.5" cy="606" fill="#ADD1B2" rx="11" ry="11" style="stroke:#181818;stroke-width:1.0;"/><path d="M705.2656,601.875 Q705.4219,601.6563 705.6094,601.5469 Q705.7969,601.4375 706.0156,601.4375 Q706.3906,601.4375 706.625,601.7031 Q706.8594,601.9531 706.8594,602.5625 L706.8594,604.0156 Q706.8594,604.625 706.625,604.8906 Q706.3906,605.1563 706.0156,605.1563 Q705.6719,605.1563 705.4688,604.9531 Q705.2656,604.7656 705.1563,604.25 Q705.1094,603.8906 704.9219,603.7031 Q704.5938,603.3281 703.9844,603.1094 Q703.375,602.8906 702.75,602.8906 Q701.9844,602.8906 701.3438,603.2188 Q700.7188,603.5469 700.2188,604.2969 Q699.7344,605.0469 699.7344,606.0781 L699.7344,607.1719 Q699.7344,608.4063 700.625,609.2344 Q701.5156,610.0469 703.1094,610.0469 Q704.0469,610.0469 704.7031,609.7969 Q705.0938,609.6406 705.5156,609.2031 Q705.7813,608.9375 705.9219,608.8594 Q706.0781,608.7813 706.2813,608.7813 Q706.6094,608.7813 706.8594,609.0469 Q707.125,609.2969 707.125,609.6406 Q707.125,609.9844 706.7813,610.3906 Q706.2813,610.9688 705.4844,611.2969 Q704.4063,611.75 703.1094,611.75 Q701.5938,611.75 700.3906,611.125 Q699.4063,610.625 698.7188,609.5625 Q698.0313,608.4844 698.0313,607.2031 L698.0313,606.0469 Q698.0313,604.7188 698.6406,603.5781 Q699.2656,602.4219 700.3594,601.8125 Q701.4531,601.1875 702.6875,601.1875 Q703.4219,601.1875 704.0625,601.3594 Q704.7188,601.5156 705.2656,601.875 Z " fill="#000000"/><text fill="#000000" font-family="sans-serif" font-size="14" lengthAdjust="spacing" textLength="78" x="716.5" y="611.7285">Composition</text><line style="stroke:#181818;stroke-width:0.5;" x1="688.5" x2="796.5" y1="622" y2="622"/><line style="stroke:#181818;stroke-width:0.5;" x1="688.5" x2="796.5" y1="630" y2="630"/></g><!--MD5=[3d8969de01f2361d4f44e57c4405efbc]
class OpenDefinitionQuestion--><g id="elem_OpenDefinitionQuestion"><rect codeLine="32" fill="#F1F1F1" height="65.6094" id="OpenDefinitionQuestion" rx="2.5" ry="2.5" style="stroke:#181818;stroke-width:0.5;" width="183" x="7" y="302"/><ellipse cx="22" cy="318" fill="#ADD1B2" rx="11" ry="11" style="stroke:#181818;stroke-width:1.0;"/><path d="M24.7656,313.875 Q24.9219,313.6563 25.1094,313.5469 Q25.2969,313.4375 25.5156,313.4375 Q25.8906,313.4375 26.125,313.7031 Q26.3594,313.9531 26.3594,314.5625 L26.3594,316.0156 Q26.3594,316.625 26.125,316.8906 Q25.8906,317.1563 25.5156,317.1563 Q25.1719,317.1563 24.9688,316.9531 Q24.7656,316.7656 24.6563,316.25 Q24.6094,315.8906 24.4219,315.7031 Q24.0938,315.3281 23.4844,315.1094 Q22.875,314.8906 22.25,314.8906 Q21.4844,314.8906 20.8438,315.2188 Q20.2188,315.5469 19.7188,316.2969 Q19.2344,317.0469 19.2344,318.0781 L19.2344,319.1719 Q19.2344,320.4063 20.125,321.2344 Q21.0156,322.0469 22.6094,322.0469 Q23.5469,322.0469 24.2031,321.7969 Q24.5938,321.6406 25.0156,321.2031 Q25.2813,320.9375 25.4219,320.8594 Q25.5781,320.7813 25.7813,320.7813 Q26.1094,320.7813 26.3594,321.0469 Q26.625,321.2969 26.625,321.6406 Q26.625,321.9844 26.2813,322.3906 Q25.7813,322.9688 24.9844,323.2969 Q23.9063,323.75 22.6094,323.75 Q21.0938,323.75 19.8906,323.125 Q18.9063,322.625 18.2188,321.5625 Q17.5313,320.4844 17.5313,319.2031 L17.5313,318.0469 Q17.5313,316.7188 18.1406,315.5781 Q18.7656,314.4219 19.8594,313.8125 Q20.9531,313.1875 22.1875,313.1875 Q22.9219,313.1875 23.5625,313.3594 Q24.2188,313.5156 24.7656,313.875 Z " fill="#000000"/><text fill="#000000" font-family="sans-serif" font-size="14" lengthAdjust="spacing" textLength="151" x="36" y="323.7285">OpenDefinitionQuestion</text><line style="stroke:#181818;stroke-width:0.5;" x1="8" x2="189" y1="334" y2="334"/><rect fill="none" height="6" style="stroke:#C82930;stroke-width:1.0;" width="6" x="15" y="345.3047"/><text fill="#000000" font-family="sans-serif" font-size="14" lengthAdjust="spacing" textLength="138" x="27" y="352.5332">answers[openAnswer]</text><line style="stroke:#181818;stroke-width:0.5;" x1="8" x2="189" y1="359.6094" y2="359.6094"/></g><!--MD5=[25af127acc5b953a97a6d29a5f1d6529]
class OpenClassificationQuestion--><g id="elem_OpenClassificationQuestion"><rect codeLine="35" fill="#F1F1F1" height="65.6094" id="OpenClassificationQuestion" rx="2.5" ry="2.5" style="stroke:#181818;stroke-width:0.5;" width="207" x="601" y="446"/><ellipse cx="616" cy="462" fill="#ADD1B2" rx="11" ry="11" style="stroke:#181818;stroke-width:1.0;"/><path d="M618.7656,457.875 Q618.9219,457.6563 619.1094,457.5469 Q619.2969,457.4375 619.5156,457.4375 Q619.8906,457.4375 620.125,457.7031 Q620.3594,457.9531 620.3594,458.5625 L620.3594,460.0156 Q620.3594,460.625 620.125,460.8906 Q619.8906,461.1563 619.5156,461.1563 Q619.1719,461.1563 618.9688,460.9531 Q618.7656,460.7656 618.6563,460.25 Q618.6094,459.8906 618.4219,459.7031 Q618.0938,459.3281 617.4844,459.1094 Q616.875,458.8906 616.25,458.8906 Q615.4844,458.8906 614.8438,459.2188 Q614.2188,459.5469 613.7188,460.2969 Q613.2344,461.0469 613.2344,462.0781 L613.2344,463.1719 Q613.2344,464.4063 614.125,465.2344 Q615.0156,466.0469 616.6094,466.0469 Q617.5469,466.0469 618.2031,465.7969 Q618.5938,465.6406 619.0156,465.2031 Q619.2813,464.9375 619.4219,464.8594 Q619.5781,464.7813 619.7813,464.7813 Q620.1094,464.7813 620.3594,465.0469 Q620.625,465.2969 620.625,465.6406 Q620.625,465.9844 620.2813,466.3906 Q619.7813,466.9688 618.9844,467.2969 Q617.9063,467.75 616.6094,467.75 Q615.0938,467.75 613.8906,467.125 Q612.9063,466.625 612.2188,465.5625 Q611.5313,464.4844 611.5313,463.2031 L611.5313,462.0469 Q611.5313,460.7188 612.1406,459.5781 Q612.7656,458.4219 613.8594,457.8125 Q614.9531,457.1875 616.1875,457.1875 Q616.9219,457.1875 617.5625,457.3594 Q618.2188,457.5156 618.7656,457.875 Z " fill="#000000"/><text fill="#000000" font-family="sans-serif" font-size="14" lengthAdjust="spacing" textLength="175" x="630" y="467.7285">OpenClassificationQuestion</text><line style="stroke:#181818;stroke-width:0.5;" x1="602" x2="807" y1="478" y2="478"/><rect fill="none" height="6" style="stroke:#C82930;stroke-width:1.0;" width="6" x="609" y="489.3047"/><text fill="#000000" font-family="sans-serif" font-size="14" lengthAdjust="spacing" textLength="138" x="621" y="496.5332">answers[openAnswer]</text><line style="stroke:#181818;stroke-width:0.5;" x1="602" x2="807" y1="503.6094" y2="503.6094"/></g><!--MD5=[2e3e70aeace816b0cedea9999a1b71b4]
class OpenCompositionQuestion--><g id="elem_OpenCompositionQuestion"><rect codeLine="38" fill="#F1F1F1" height="65.6094" id="OpenCompositionQuestion" rx="2.5" ry="2.5" style="stroke:#181818;stroke-width:0.5;" width="202" x="872.5" y="446"/><ellipse cx="887.5" cy="462" fill="#ADD1B2" rx="11" ry="11" style="stroke:#181818;stroke-width:1.0;"/><path d="M890.2656,457.875 Q890.4219,457.6563 890.6094,457.5469 Q890.7969,457.4375 891.0156,457.4375 Q891.3906,457.4375 891.625,457.7031 Q891.8594,457.9531 891.8594,458.5625 L891.8594,460.0156 Q891.8594,460.625 891.625,460.8906 Q891.3906,461.1563 891.0156,461.1563 Q890.6719,461.1563 890.4688,460.9531 Q890.2656,460.7656 890.1563,460.25 Q890.1094,459.8906 889.9219,459.7031 Q889.5938,459.3281 888.9844,459.1094 Q888.375,458.8906 887.75,458.8906 Q886.9844,458.8906 886.3438,459.2188 Q885.7188,459.5469 885.2188,460.2969 Q884.7344,461.0469 884.7344,462.0781 L884.7344,463.1719 Q884.7344,464.4063 885.625,465.2344 Q886.5156,466.0469 888.1094,466.0469 Q889.0469,466.0469 889.7031,465.7969 Q890.0938,465.6406 890.5156,465.2031 Q890.7813,464.9375 890.9219,464.8594 Q891.0781,464.7813 891.2813,464.7813 Q891.6094,464.7813 891.8594,465.0469 Q892.125,465.2969 892.125,465.6406 Q892.125,465.9844 891.7813,466.3906 Q891.2813,466.9688 890.4844,467.2969 Q889.4063,467.75 888.1094,467.75 Q886.5938,467.75 885.3906,467.125 Q884.4063,466.625 883.7188,465.5625 Q883.0313,464.4844 883.0313,463.2031 L883.0313,462.0469 Q883.0313,460.7188 883.6406,459.5781 Q884.2656,458.4219 885.3594,457.8125 Q886.4531,457.1875 887.6875,457.1875 Q888.4219,457.1875 889.0625,457.3594 Q889.7188,457.5156 890.2656,457.875 Z " fill="#000000"/><text fill="#000000" font-family="sans-serif" font-size="14" lengthAdjust="spacing" textLength="170" x="901.5" y="467.7285">OpenCompositionQuestion</text><line style="stroke:#181818;stroke-width:0.5;" x1="873.5" x2="1073.5" y1="478" y2="478"/><rect fill="none" height="6" style="stroke:#C82930;stroke-width:1.0;" width="6" x="880.5" y="489.3047"/><text fill="#000000" font-family="sans-serif" font-size="14" lengthAdjust="spacing" textLength="138" x="892.5" y="496.5332">answers[openAnswer]</text><line style="stroke:#181818;stroke-width:0.5;" x1="873.5" x2="1073.5" y1="503.6094" y2="503.6094"/></g><!--MD5=[fc7123defb831ecdd44b2d9bcef6cceb]
class Question--><g id="elem_Question"><rect codeLine="42" fill="#F1F1F1" height="83.2188" id="Question" rx="2.5" ry="2.5" style="stroke:#181818;stroke-width:0.5;" width="238" x="297.5" y="7"/><ellipse cx="383.75" cy="23" fill="#A9DCDF" rx="11" ry="11" style="stroke:#181818;stroke-width:1.0;"/><path d="M385.9375,24.7656 L381.7969,24.7656 L381.375,25.7969 L381.7969,25.7969 Q382.4063,25.7969 382.6719,26.0313 Q382.9375,26.2656 382.9375,26.6563 Q382.9375,27.0313 382.6719,27.2656 Q382.4063,27.5 381.7969,27.5 L379.5,27.5 Q378.8906,27.5 378.6406,27.2656 Q378.375,27.0313 378.375,26.6406 Q378.375,26.2656 378.6563,26.0313 Q378.9219,25.7813 379.5469,25.7969 L382.2188,19.1406 L381.1094,19.1406 Q380.5,19.1406 380.2344,18.9063 Q379.9688,18.6719 379.9688,18.2813 Q379.9688,17.9063 380.2344,17.6719 Q380.5,17.4375 381.1094,17.4375 L384.7813,17.4375 L388.1719,25.7969 Q388.7656,25.7969 388.9531,25.9375 Q389.3438,26.2031 389.3438,26.6563 Q389.3438,27.0313 389.0781,27.2656 Q388.8281,27.5 388.2188,27.5 L385.9219,27.5 Q385.3125,27.5 385.0469,27.2656 Q384.7813,27.0313 384.7813,26.6406 Q384.7813,26.2656 385.0469,26.0313 Q385.3125,25.7969 385.9219,25.7969 L386.3438,25.7969 L385.9375,24.7656 Z M385.2188,23.0625 L383.8594,19.6875 L382.4844,23.0625 L385.2188,23.0625 Z " fill="#000000"/><text fill="#000000" font-family="sans-serif" font-size="14" font-style="italic" lengthAdjust="spacing" textLength="57" x="404.25" y="28.7285">Question</text><line style="stroke:#181818;stroke-width:0.5;" x1="298.5" x2="534.5" y1="39" y2="39"/><rect fill="none" height="6" style="stroke:#C82930;stroke-width:1.0;" width="6" x="305.5" y="50.3047"/><text fill="#000000" font-family="sans-serif" font-size="14" lengthAdjust="spacing" textLength="64" x="317.5" y="57.5332">answers[ ]</text><line style="stroke:#181818;stroke-width:0.5;" x1="298.5" x2="534.5" y1="64.6094" y2="64.6094"/><ellipse cx="308.5" cy="78.9141" fill="#84BE84" rx="3" ry="3" style="stroke:#038048;stroke-width:1.0;"/><text fill="#000000" font-family="sans-serif" font-size="14" lengthAdjust="spacing" textLength="212" x="317.5" y="83.1426">bool isAnsweredBy(studentName)</text></g><!--MD5=[4952bb3ec19a7bd2f63a006b54593040]
class MultiChoiceDefinitionQuestion--><g id="elem_MultiChoiceDefinitionQuestion"><rect fill="#F1F1F1" height="48" id="MultiChoiceDefinitionQuestion" rx="2.5" ry="2.5" style="stroke:#181818;stroke-width:0.5;" width="221" x="225" y="311"/><ellipse cx="240" cy="327" fill="#ADD1B2" rx="11" ry="11" style="stroke:#181818;stroke-width:1.0;"/><path d="M242.7656,322.875 Q242.9219,322.6563 243.1094,322.5469 Q243.2969,322.4375 243.5156,322.4375 Q243.8906,322.4375 244.125,322.7031 Q244.3594,322.9531 244.3594,323.5625 L244.3594,325.0156 Q244.3594,325.625 244.125,325.8906 Q243.8906,326.1563 243.5156,326.1563 Q243.1719,326.1563 242.9688,325.9531 Q242.7656,325.7656 242.6563,325.25 Q242.6094,324.8906 242.4219,324.7031 Q242.0938,324.3281 241.4844,324.1094 Q240.875,323.8906 240.25,323.8906 Q239.4844,323.8906 238.8438,324.2188 Q238.2188,324.5469 237.7188,325.2969 Q237.2344,326.0469 237.2344,327.0781 L237.2344,328.1719 Q237.2344,329.4063 238.125,330.2344 Q239.0156,331.0469 240.6094,331.0469 Q241.5469,331.0469 242.2031,330.7969 Q242.5938,330.6406 243.0156,330.2031 Q243.2813,329.9375 243.4219,329.8594 Q243.5781,329.7813 243.7813,329.7813 Q244.1094,329.7813 244.3594,330.0469 Q244.625,330.2969 244.625,330.6406 Q244.625,330.9844 244.2813,331.3906 Q243.7813,331.9688 242.9844,332.2969 Q241.9063,332.75 240.6094,332.75 Q239.0938,332.75 237.8906,332.125 Q236.9063,331.625 236.2188,330.5625 Q235.5313,329.4844 235.5313,328.2031 L235.5313,327.0469 Q235.5313,325.7188 236.1406,324.5781 Q236.7656,323.4219 237.8594,322.8125 Q238.9531,322.1875 240.1875,322.1875 Q240.9219,322.1875 241.5625,322.3594 Q242.2188,322.5156 242.7656,322.875 Z " fill="#000000"/><text fill="#000000" font-family="sans-serif" font-size="14" lengthAdjust="spacing" textLength="189" x="254" y="332.7285">MultiChoiceDefinitionQuestion</text><line style="stroke:#181818;stroke-width:0.5;" x1="226" x2="445" y1="343" y2="343"/><line style="stroke:#181818;stroke-width:0.5;" x1="226" x2="445" y1="351" y2="351"/></g><!--MD5=[730bb0eb5075b3e693ad5dac0be75ea6]
class MultipleChoiceClassificationQuestion--><g id="elem_MultipleChoiceClassificationQuestion"><rect fill="#F1F1F1" height="48" id="MultipleChoiceClassificationQuestion" rx="2.5" ry="2.5" style="stroke:#181818;stroke-width:0.5;" width="264" x="684.5" y="311"/><ellipse cx="699.5" cy="327" fill="#ADD1B2" rx="11" ry="11" style="stroke:#181818;stroke-width:1.0;"/><path d="M702.2656,322.875 Q702.4219,322.6563 702.6094,322.5469 Q702.7969,322.4375 703.0156,322.4375 Q703.3906,322.4375 703.625,322.7031 Q703.8594,322.9531 703.8594,323.5625 L703.8594,325.0156 Q703.8594,325.625 703.625,325.8906 Q703.3906,326.1563 703.0156,326.1563 Q702.6719,326.1563 702.4688,325.9531 Q702.2656,325.7656 702.1563,325.25 Q702.1094,324.8906 701.9219,324.7031 Q701.5938,324.3281 700.9844,324.1094 Q700.375,323.8906 699.75,323.8906 Q698.9844,323.8906 698.3438,324.2188 Q697.7188,324.5469 697.2188,325.2969 Q696.7344,326.0469 696.7344,327.0781 L696.7344,328.1719 Q696.7344,329.4063 697.625,330.2344 Q698.5156,331.0469 700.1094,331.0469 Q701.0469,331.0469 701.7031,330.7969 Q702.0938,330.6406 702.5156,330.2031 Q702.7813,329.9375 702.9219,329.8594 Q703.0781,329.7813 703.2813,329.7813 Q703.6094,329.7813 703.8594,330.0469 Q704.125,330.2969 704.125,330.6406 Q704.125,330.9844 703.7813,331.3906 Q703.2813,331.9688 702.4844,332.2969 Q701.4063,332.75 700.1094,332.75 Q698.5938,332.75 697.3906,332.125 Q696.4063,331.625 695.7188,330.5625 Q695.0313,329.4844 695.0313,328.2031 L695.0313,327.0469 Q695.0313,325.7188 695.6406,324.5781 Q696.2656,323.4219 697.3594,322.8125 Q698.4531,322.1875 699.6875,322.1875 Q700.4219,322.1875 701.0625,322.3594 Q701.7188,322.5156 702.2656,322.875 Z " fill="#000000"/><text fill="#000000" font-family="sans-serif" font-size="14" lengthAdjust="spacing" textLength="232" x="713.5" y="332.7285">MultipleChoiceClassificationQuestion</text><line style="stroke:#181818;stroke-width:0.5;" x1="685.5" x2="947.5" y1="343" y2="343"/><line style="stroke:#181818;stroke-width:0.5;" x1="685.5" x2="947.5" y1="351" y2="351"/></g><!--MD5=[bb5198fc8584203629e855ea01c74ee1]
class MultipleChoiceCompositionQuestion--><g id="elem_MultipleChoiceCompositionQuestion"><rect fill="#F1F1F1" height="48" id="MultipleChoiceCompositionQuestion" rx="2.5" ry="2.5" style="stroke:#181818;stroke-width:0.5;" width="259" x="1055" y="311"/><ellipse cx="1070" cy="327" fill="#ADD1B2" rx="11" ry="11" style="stroke:#181818;stroke-width:1.0;"/><path d="M1072.7656,322.875 Q1072.9219,322.6563 1073.1094,322.5469 Q1073.2969,322.4375 1073.5156,322.4375 Q1073.8906,322.4375 1074.125,322.7031 Q1074.3594,322.9531 1074.3594,323.5625 L1074.3594,325.0156 Q1074.3594,325.625 1074.125,325.8906 Q1073.8906,326.1563 1073.5156,326.1563 Q1073.1719,326.1563 1072.9688,325.9531 Q1072.7656,325.7656 1072.6563,325.25 Q1072.6094,324.8906 1072.4219,324.7031 Q1072.0938,324.3281 1071.4844,324.1094 Q1070.875,323.8906 1070.25,323.8906 Q1069.4844,323.8906 1068.8438,324.2188 Q1068.2188,324.5469 1067.7188,325.2969 Q1067.2344,326.0469 1067.2344,327.0781 L1067.2344,328.1719 Q1067.2344,329.4063 1068.125,330.2344 Q1069.0156,331.0469 1070.6094,331.0469 Q1071.5469,331.0469 1072.2031,330.7969 Q1072.5938,330.6406 1073.0156,330.2031 Q1073.2813,329.9375 1073.4219,329.8594 Q1073.5781,329.7813 1073.7813,329.7813 Q1074.1094,329.7813 1074.3594,330.0469 Q1074.625,330.2969 1074.625,330.6406 Q1074.625,330.9844 1074.2813,331.3906 Q1073.7813,331.9688 1072.9844,332.2969 Q1071.9063,332.75 1070.6094,332.75 Q1069.0938,332.75 1067.8906,332.125 Q1066.9063,331.625 1066.2188,330.5625 Q1065.5313,329.4844 1065.5313,328.2031 L1065.5313,327.0469 Q1065.5313,325.7188 1066.1406,324.5781 Q1066.7656,323.4219 1067.8594,322.8125 Q1068.9531,322.1875 1070.1875,322.1875 Q1070.9219,322.1875 1071.5625,322.3594 Q1072.2188,322.5156 1072.7656,322.875 Z " fill="#000000"/><text fill="#000000" font-family="sans-serif" font-size="14" lengthAdjust="spacing" textLength="227" x="1084" y="332.7285">MultipleChoiceCompositionQuestion</text><line style="stroke:#181818;stroke-width:0.5;" x1="1056" x2="1313" y1="343" y2="343"/><line style="stroke:#181818;stroke-width:0.5;" x1="1056" x2="1313" y1="351" y2="351"/></g><!--MD5=[3cac2a3bd9e61be8586148b62ab617a7]
reverse link DefinitionQuestion to OpenDefinitionQuestion--><g id="link_DefinitionQuestion_OpenDefinitionQuestion"><path codeLine="50" d="M253.3,248.89 C221.87,266.17 186.04,285.87 156.77,301.96 " fill="none" id="DefinitionQuestion-backto-OpenDefinitionQuestion" style="stroke:#181818;stroke-width:1.0;"/><polygon fill="none" points="250.31,242.55,271.21,239.05,257.06,254.82,250.31,242.55" style="stroke:#181818;stroke-width:1.0;"/></g><!--MD5=[9e58e0d0fcea98f942d338670e1c1591]
reverse link DefinitionQuestion to MultiChoiceDefinitionQuestion--><g id="link_DefinitionQuestion_MultiChoiceDefinitionQuestion"><path codeLine="51" d="M331.97,259.19 C332.81,277.13 333.72,296.33 334.4,310.78 " fill="none" id="DefinitionQuestion-backto-MultiChoiceDefinitionQuestion" style="stroke:#181818;stroke-width:1.0;"/><polygon fill="none" points="324.97,259.36,331.01,239.05,338.95,258.69,324.97,259.36" style="stroke:#181818;stroke-width:1.0;"/></g><!--MD5=[78692a5f8e8149c75c0f8f0a06eaf7dc]
reverse link ClassificationQuestion to OpenClassificationQuestion--><g id="link_ClassificationQuestion_OpenClassificationQuestion"><path codeLine="52" d="M645.27,258.86 C650.49,290.62 658.13,331.94 667.5,368 C674.39,394.52 684.41,423.91 692.28,445.63 " fill="none" id="ClassificationQuestion-backto-OpenClassificationQuestion" style="stroke:#181818;stroke-width:1.0;"/><polygon fill="none" points="638.34,259.91,642.12,239.06,652.17,257.71,638.34,259.91" style="stroke:#181818;stroke-width:1.0;"/></g><!--MD5=[c667685d4dfb28647415b689cea12b93]
reverse link ClassificationQuestion to MultipleChoiceClassificationQuestion--><g id="link_ClassificationQuestion_MultipleChoiceClassificationQuestion"><path codeLine="53" d="M699.31,250.86 C727.81,271.08 760.46,294.24 784.05,310.98 " fill="none" id="ClassificationQuestion-backto-MultipleChoiceClassificationQuestion" style="stroke:#181818;stroke-width:1.0;"/><polygon fill="none" points="694.93,256.33,682.67,239.05,703.03,244.91,694.93,256.33" style="stroke:#181818;stroke-width:1.0;"/></g><!--MD5=[3de6a0e8fc7a6b317ada6c0bb2abf440]
reverse link CompositionQuestion to OpenCompositionQuestion--><g id="link_CompositionQuestion_OpenCompositionQuestion"><path codeLine="54" d="M1011.48,259.03 C1001.9,314.25 987.07,399.77 979.07,445.89 " fill="none" id="CompositionQuestion-backto-OpenCompositionQuestion" style="stroke:#181818;stroke-width:1.0;"/><polygon fill="none" points="1004.61,257.66,1014.92,239.15,1018.4,260.05,1004.61,257.66" style="stroke:#181818;stroke-width:1.0;"/></g><!--MD5=[9e681712c402e83f79573fce9fdd760b]
reverse link CompositionQuestion to MultipleChoiceCompositionQuestion--><g id="link_CompositionQuestion_MultipleChoiceCompositionQuestion"><path codeLine="55" d="M1077.87,251.43 C1103.8,271.51 1133.36,294.4 1154.77,310.98 " fill="none" id="CompositionQuestion-backto-MultipleChoiceCompositionQuestion" style="stroke:#181818;stroke-width:1.0;"/><polygon fill="none" points="1073.41,256.83,1061.88,239.05,1081.98,245.76,1073.41,256.83" style="stroke:#181818;stroke-width:1.0;"/></g><!--MD5=[ed083f2d1ee1d19af9b715a82f936d84]
link Question to Concept--><g id="link_Question_Concept"><path codeLine="56" d="M297.43,63 C256.39,74.01 214.5,93.75 189.5,129 C155.04,177.58 150.47,218.02 189.5,263 C229.81,309.45 405.04,282.91 463.5,302 C465.2,302.55 466.91,303.16 468.62,303.8 " fill="none" id="Question-to-Concept" style="stroke:#181818;stroke-width:1.0;"/><polygon fill="none" points="480.71,308.9,476.7369,302.8822,469.6539,304.2351,473.6269,310.2529,480.71,308.9" style="stroke:#181818;stroke-width:1.0;"/><text fill="#000000" font-family="sans-serif" font-size="13" lengthAdjust="spacing" textLength="22" x="267.5039" y="60.8953">0..n</text></g><!--MD5=[9f28cd73563d94ef5d2a7e151e392f28]
link DefinitionQuestion to Concept--><g id="link_DefinitionQuestion_Concept"><path codeLine="58" d="M378.45,239.05 C408.52,258.73 446.82,283.8 476.51,303.24 " fill="none" id="DefinitionQuestion-to-Concept" style="stroke:#181818;stroke-width:1.0;stroke-dasharray:7.0,7.0;"/><polygon fill="#181818" points="480.83,306.07,475.4749,297.8043,476.6414,303.3395,471.1061,304.5061,480.83,306.07" style="stroke:#181818;stroke-width:1.0;"/></g><!--MD5=[b2de2b3357340de27336d9292870bda9]
link ClassificationQuestion to Concept--><g id="link_ClassificationQuestion_Concept"><path codeLine="59" d="M608.73,239.05 C592.67,256.95 572.6,279.3 555.97,297.83 " fill="none" id="ClassificationQuestion-to-Concept" style="stroke:#181818;stroke-width:1.0;stroke-dasharray:7.0,7.0;"/><polygon fill="#181818" points="552.26,301.96,561.2539,297.9462,555.6048,298.2435,555.3075,292.5945,552.26,301.96" style="stroke:#181818;stroke-width:1.0;"/></g><!--MD5=[4e99ab20507053ecfebf4d57139a550e]
link CompositionQuestion to Concept--><g id="link_CompositionQuestion_Concept"><path codeLine="60" d="M896.59,239.07 C866.15,246.92 833.66,255.29 803.5,263 C721.91,283.87 626.88,307.91 571.14,321.98 " fill="none" id="CompositionQuestion-to-Concept" style="stroke:#181818;stroke-width:1.0;stroke-dasharray:7.0,7.0;"/><polygon fill="#181818" points="566.21,323.23,575.9126,324.921,571.0599,322.014,573.9669,317.1612,566.21,323.23" style="stroke:#181818;stroke-width:1.0;"/></g><!--MD5=[543bb2115b5a10697a67507a00f6a2f4]
reverse link Concept to Definition--><g id="link_Concept_Definition"><path codeLine="63" d="M469.87,374.46 C438.74,396.79 399.96,424.6 370.44,445.77 " fill="none" id="Concept-backto-Definition" style="stroke:#181818;stroke-width:1.0;"/><polygon fill="none" points="480.54,366.81,473.3329,367.0517,470.7841,373.7973,477.9912,373.5556,480.54,366.81" style="stroke:#181818;stroke-width:1.0;"/><text fill="#000000" font-family="sans-serif" font-size="13" lengthAdjust="spacing" textLength="22" x="355.1219" y="435.221">0..n</text></g><!--MD5=[54f9360500e0fd532969fc16f437bbea]
reverse link Concept to Relation--><g id="link_Concept_Relation"><path codeLine="65" d="M523.5,381.24 C523.5,405.7 523.5,434.88 523.5,454.75 " fill="none" id="Concept-backto-Relation" style="stroke:#181818;stroke-width:1.0;"/><polygon fill="none" points="523.5,368.22,519.5,374.22,523.5,380.22,527.5,374.22,523.5,368.22" style="stroke:#181818;stroke-width:1.0;"/><text fill="#000000" font-family="sans-serif" font-size="13" lengthAdjust="spacing" textLength="22" x="498.6813" y="444.0261">0..n</text></g><!--MD5=[90ea77717cc70d7f588b001bbb985d62]
reverse link Relation to Classification--><g id="link_Relation_Classification"><path codeLine="66" d="M542.51,521.44 C552.81,543.9 565.16,570.83 573.79,589.65 " fill="none" id="Relation-backto-Classification" style="stroke:#181818;stroke-width:1.0;"/><polygon fill="none" points="536.1,524.26,534.13,503.17,548.83,518.43,536.1,524.26" style="stroke:#181818;stroke-width:1.0;"/></g><!--MD5=[aac130c8b5f905729b18e85e231f7b50]
reverse link Relation to Composition--><g id="link_Relation_Composition"><path codeLine="67" d="M574.64,514.04 C596.83,528.53 623.24,545.43 647.5,560 C664.34,570.11 683.17,580.76 699.6,589.83 " fill="none" id="Relation-backto-Composition" style="stroke:#181818;stroke-width:1.0;"/><polygon fill="none" points="570.74,519.85,557.87,503.02,578.43,508.15,570.74,519.85" style="stroke:#181818;stroke-width:1.0;"/></g><!--MD5=[5aab0b45efd7e0420b76d5abc61341ea]
reverse link Question to DefinitionQuestion--><g id="link_Question_DefinitionQuestion"><path codeLine="70" d="M383.72,108.09 C371.46,130 357.99,154.08 347.54,172.75 " fill="none" id="Question-backto-DefinitionQuestion" style="stroke:#181818;stroke-width:1.0;"/><polygon fill="none" points="377.77,104.39,393.64,90.36,389.99,111.23,377.77,104.39" style="stroke:#181818;stroke-width:1.0;"/></g><!--MD5=[49c48160fdf887f5a9305ebf554c6fce]
reverse link OpenDefinitionQuestion to Definition--><g id="link_OpenDefinitionQuestion_Definition"><path codeLine="71" d="M154.37,370.95 C192.97,395.1 243.67,426.81 279.85,449.44 " fill="none" id="OpenDefinitionQuestion-backto-Definition" style="stroke:#181818;stroke-width:1.0;stroke-dasharray:7.0,7.0;"/><polygon fill="#181818" points="149.73,368.04,155.2543,376.1936,153.974,370.6836,159.4841,369.4032,149.73,368.04" style="stroke:#181818;stroke-width:1.0;"/><text fill="#000000" font-family="sans-serif" font-size="13" lengthAdjust="spacing" textLength="48" x="226.5" y="412.4951">answers</text></g><!--MD5=[5be583f153fb95b5c96f3646910cb4a1]
reverse link Question to ClassificationQuestion--><g id="link_Question_ClassificationQuestion"><path codeLine="73" d="M490.76,101.75 C524.26,125.32 562.75,152.4 591.9,172.92 " fill="none" id="Question-backto-ClassificationQuestion" style="stroke:#181818;stroke-width:1.0;"/><polygon fill="none" points="486.61,107.39,474.28,90.15,494.66,95.94,486.61,107.39" style="stroke:#181818;stroke-width:1.0;"/></g><!--MD5=[ca4db74828703b6f8ae2d8601fe568c4]
reverse link OpenClassificationQuestion to Classification--><g id="link_OpenClassificationQuestion_Classification"><path codeLine="74" d="M672.1,515.91 C650.89,539.42 623.79,569.46 605.39,589.85 " fill="none" id="OpenClassificationQuestion-backto-Classification" style="stroke:#181818;stroke-width:1.0;stroke-dasharray:7.0,7.0;"/><polygon fill="#181818" points="675.45,512.2,666.4561,516.2138,672.1052,515.9165,672.4025,521.5655,675.45,512.2" style="stroke:#181818;stroke-width:1.0;"/><text fill="#000000" font-family="sans-serif" font-size="13" lengthAdjust="spacing" textLength="48" x="648.5" y="556.4951">answers</text></g><!--MD5=[616dd8b0550f609f3badfa769886b0d6]
reverse link Question to CompositionQuestion--><g id="link_Question_CompositionQuestion"><path codeLine="76" d="M555.53,73.38 C629.71,87.29 722.2,106.52 803.5,129 C848.32,141.39 897.29,158.25 937.35,172.93 " fill="none" id="Question-backto-CompositionQuestion" style="stroke:#181818;stroke-width:1.0;"/><polygon fill="none" points="554.01,80.22,535.62,69.69,556.56,66.45,554.01,80.22" style="stroke:#181818;stroke-width:1.0;"/></g><!--MD5=[92cd928904746ce40363a3030cb52c20]
reverse link OpenCompositionQuestion to Composition--><g id="link_OpenCompositionQuestion_Composition"><path codeLine="77" d="M913.42,514.59 C872.16,538.35 818.54,569.22 782.45,590 " fill="none" id="OpenCompositionQuestion-backto-Composition" style="stroke:#181818;stroke-width:1.0;stroke-dasharray:7.0,7.0;"/><polygon fill="#181818" points="917.88,512.03,908.0845,513.0535,913.5467,514.5245,912.0757,519.9867,917.88,512.03" style="stroke:#181818;stroke-width:1.0;"/><text fill="#000000" font-family="sans-serif" font-size="13" lengthAdjust="spacing" textLength="48" x="865.5" y="556.4951">answers</text></g><!--MD5=[abe478a77a09c86ba42cc82de6abff0f]
@startuml ConceptDomainDetail

class Concept {
    - keyword
}

class Definition {
  - isFake
}

class Relation

class Classification

class Composition

package Primary:withKeyword{
abstract class DefinitionQuestion {
    - statement ="¿Qué es KEYWORD?"

}

abstract class ClassificationQuestion {
    - statement = "Qué tipos hay de KEYWORD"

}

abstract class CompositionQuestion {
    - statement ="¿Qué conceptos destacarias del KEYWORD?"

}
}
class OpenDefinitionQuestion {
    -answers[openAnswer]
}
class OpenClassificationQuestion{
    -answers[openAnswer]
}
class OpenCompositionQuestion{
    -answers[openAnswer]
}

abstract class Question {
   ' - statementImplementor
    - answers[ ]
   ' # void setStatementImplementor()
    + bool isAnsweredBy(studentName)
}


DefinitionQuestion <|- - OpenDefinitionQuestion
DefinitionQuestion <|- - MultiChoiceDefinitionQuestion
ClassificationQuestion <|- - OpenClassificationQuestion
ClassificationQuestion <|- - MultipleChoiceClassificationQuestion
CompositionQuestion <|- - OpenCompositionQuestion
CompositionQuestion <|- - MultipleChoiceCompositionQuestion
Question "0..n" -o Concept

DefinitionQuestion ..> Concept 
ClassificationQuestion ..> Concept 
CompositionQuestion ..> Concept  


Concept o- -"0..n" Definition

Concept o- - "0..n" Relation
Relation <|- - Classification
Relation <|- - Composition


Question <|- - DefinitionQuestion
OpenDefinitionQuestion <.. Definition: answers

Question <|- - ClassificationQuestion
OpenClassificationQuestion <.. Classification :answers

Question <|- - CompositionQuestion
OpenCompositionQuestion <.. Composition :answers


@enduml

@startuml ConceptDomainDetail

class Concept {
    - keyword
}

class Definition {
  - isFake
}

class Relation

class Classification

class Composition

package Primary:withKeyword{
abstract class DefinitionQuestion {
    - statement ="¿Qué es KEYWORD?"

}

abstract class ClassificationQuestion {
    - statement = "Qué tipos hay de KEYWORD"

}

abstract class CompositionQuestion {
    - statement ="¿Qué conceptos destacarias del KEYWORD?"

}
}
class OpenDefinitionQuestion {
    -answers[openAnswer]
}
class OpenClassificationQuestion{
    -answers[openAnswer]
}
class OpenCompositionQuestion{
    -answers[openAnswer]
}

abstract class Question {
    - answers[ ]
    + bool isAnsweredBy(studentName)
}


DefinitionQuestion <|- - OpenDefinitionQuestion
DefinitionQuestion <|- - MultiChoiceDefinitionQuestion
ClassificationQuestion <|- - OpenClassificationQuestion
ClassificationQuestion <|- - MultipleChoiceClassificationQuestion
CompositionQuestion <|- - OpenCompositionQuestion
CompositionQuestion <|- - MultipleChoiceCompositionQuestion
Question "0..n" -o Concept

DefinitionQuestion ..> Concept 
ClassificationQuestion ..> Concept 
CompositionQuestion ..> Concept  


Concept o- -"0..n" Definition

Concept o- - "0..n" Relation
Relation <|- - Classification
Relation <|- - Composition


Question <|- - DefinitionQuestion
OpenDefinitionQuestion <.. Definition: answers

Question <|- - ClassificationQuestion
OpenClassificationQuestion <.. Classification :answers

Question <|- - CompositionQuestion
OpenCompositionQuestion <.. Composition :answers


@enduml

PlantUML version 1.2022.7(Mon Aug 22 18:01:30 WEST 2022)
(GPL source distribution)
Java Runtime: OpenJDK Runtime Environment
JVM: OpenJDK 64-Bit Server VM
Default Encoding: Cp1252
Language: es
Country: ES
--></g></svg>