<?xml version="1.0" encoding="UTF-8" standalone="no"?><svg xmlns="http://www.w3.org/2000/svg" xmlns:xlink="http://www.w3.org/1999/xlink" contentStyleType="text/css" height="673px" preserveAspectRatio="none" style="width:2768px;height:673px;background:#FFFFFF;" version="1.1" viewBox="0 0 2768 673" width="2768px" zoomAndPan="magnify"><defs/><g><!--MD5=[a96594a83e2ecdc78cbf17c2ddf01934]
class Category--><g id="elem_Category"><rect codeLine="2" fill="#F1F1F1" height="48" id="Category" rx="2.5" ry="2.5" style="stroke:#181818;stroke-width:0.5;" width="90" x="443" y="7.3262"/><ellipse cx="458" cy="23.3262" fill="#ADD1B2" rx="11" ry="11" style="stroke:#181818;stroke-width:1.0;"/><path d="M460.7656,19.2012 Q460.9219,18.9824 461.1094,18.8731 Q461.2969,18.7637 461.5156,18.7637 Q461.8906,18.7637 462.125,19.0293 Q462.3594,19.2793 462.3594,19.8887 L462.3594,21.3418 Q462.3594,21.9512 462.125,22.2168 Q461.8906,22.4824 461.5156,22.4824 Q461.1719,22.4824 460.9688,22.2793 Q460.7656,22.0918 460.6563,21.5762 Q460.6094,21.2168 460.4219,21.0293 Q460.0938,20.6543 459.4844,20.4356 Q458.875,20.2168 458.25,20.2168 Q457.4844,20.2168 456.8438,20.5449 Q456.2188,20.8731 455.7188,21.6231 Q455.2344,22.3731 455.2344,23.4043 L455.2344,24.4981 Q455.2344,25.7324 456.125,26.5606 Q457.0156,27.3731 458.6094,27.3731 Q459.5469,27.3731 460.2031,27.1231 Q460.5938,26.9668 461.0156,26.5293 Q461.2813,26.2637 461.4219,26.1856 Q461.5781,26.1074 461.7813,26.1074 Q462.1094,26.1074 462.3594,26.3731 Q462.625,26.6231 462.625,26.9668 Q462.625,27.3106 462.2813,27.7168 Q461.7813,28.2949 460.9844,28.6231 Q459.9063,29.0762 458.6094,29.0762 Q457.0938,29.0762 455.8906,28.4512 Q454.9063,27.9512 454.2188,26.8887 Q453.5313,25.8106 453.5313,24.5293 L453.5313,23.3731 Q453.5313,22.0449 454.1406,20.9043 Q454.7656,19.7481 455.8594,19.1387 Q456.9531,18.5137 458.1875,18.5137 Q458.9219,18.5137 459.5625,18.6856 Q460.2188,18.8418 460.7656,19.2012 Z " fill="#000000"/><text fill="#000000" font-family="sans-serif" font-size="14" lengthAdjust="spacing" textLength="58" x="472" y="29.0547">Category</text><line style="stroke:#181818;stroke-width:0.5;" x1="444" x2="532" y1="39.3262" y2="39.3262"/><line style="stroke:#181818;stroke-width:0.5;" x1="444" x2="532" y1="47.3262" y2="47.3262"/></g><!--MD5=[9d451b2f92d848a8e2d1a4dab2b1c6bf]
class Concept--><g id="elem_Concept"><rect codeLine="4" fill="#F1F1F1" height="48" id="Concept" rx="2.5" ry="2.5" style="stroke:#181818;stroke-width:0.5;" width="85" x="246.5" y="124.3262"/><ellipse cx="261.5" cy="140.3262" fill="#ADD1B2" rx="11" ry="11" style="stroke:#181818;stroke-width:1.0;"/><path d="M264.2656,136.2012 Q264.4219,135.9824 264.6094,135.8731 Q264.7969,135.7637 265.0156,135.7637 Q265.3906,135.7637 265.625,136.0293 Q265.8594,136.2793 265.8594,136.8887 L265.8594,138.3418 Q265.8594,138.9512 265.625,139.2168 Q265.3906,139.4824 265.0156,139.4824 Q264.6719,139.4824 264.4688,139.2793 Q264.2656,139.0918 264.1563,138.5762 Q264.1094,138.2168 263.9219,138.0293 Q263.5938,137.6543 262.9844,137.4356 Q262.375,137.2168 261.75,137.2168 Q260.9844,137.2168 260.3438,137.5449 Q259.7188,137.8731 259.2188,138.6231 Q258.7344,139.3731 258.7344,140.4043 L258.7344,141.4981 Q258.7344,142.7324 259.625,143.5606 Q260.5156,144.3731 262.1094,144.3731 Q263.0469,144.3731 263.7031,144.1231 Q264.0938,143.9668 264.5156,143.5293 Q264.7813,143.2637 264.9219,143.1856 Q265.0781,143.1074 265.2813,143.1074 Q265.6094,143.1074 265.8594,143.3731 Q266.125,143.6231 266.125,143.9668 Q266.125,144.3106 265.7813,144.7168 Q265.2813,145.2949 264.4844,145.6231 Q263.4063,146.0762 262.1094,146.0762 Q260.5938,146.0762 259.3906,145.4512 Q258.4063,144.9512 257.7188,143.8887 Q257.0313,142.8106 257.0313,141.5293 L257.0313,140.3731 Q257.0313,139.0449 257.6406,137.9043 Q258.2656,136.7481 259.3594,136.1387 Q260.4531,135.5137 261.6875,135.5137 Q262.4219,135.5137 263.0625,135.6856 Q263.7188,135.8418 264.2656,136.2012 Z " fill="#000000"/><text fill="#000000" font-family="sans-serif" font-size="14" lengthAdjust="spacing" textLength="53" x="275.5" y="146.0547">Concept</text><line style="stroke:#181818;stroke-width:0.5;" x1="247.5" x2="330.5" y1="156.3262" y2="156.3262"/><line style="stroke:#181818;stroke-width:0.5;" x1="247.5" x2="330.5" y1="164.3262" y2="164.3262"/></g><!--MD5=[1ac27345a8a52a4a812e38456e107300]
class Keyword--><g id="elem_Keyword"><rect codeLine="6" fill="#F1F1F1" height="48" id="Keyword" rx="2.5" ry="2.5" style="stroke:#181818;stroke-width:0.5;" width="86" x="7" y="267.8262"/><ellipse cx="22" cy="283.8262" fill="#ADD1B2" rx="11" ry="11" style="stroke:#181818;stroke-width:1.0;"/><path d="M24.7656,279.7012 Q24.9219,279.4824 25.1094,279.3731 Q25.2969,279.2637 25.5156,279.2637 Q25.8906,279.2637 26.125,279.5293 Q26.3594,279.7793 26.3594,280.3887 L26.3594,281.8418 Q26.3594,282.4512 26.125,282.7168 Q25.8906,282.9824 25.5156,282.9824 Q25.1719,282.9824 24.9688,282.7793 Q24.7656,282.5918 24.6563,282.0762 Q24.6094,281.7168 24.4219,281.5293 Q24.0938,281.1543 23.4844,280.9356 Q22.875,280.7168 22.25,280.7168 Q21.4844,280.7168 20.8438,281.0449 Q20.2188,281.3731 19.7188,282.1231 Q19.2344,282.8731 19.2344,283.9043 L19.2344,284.9981 Q19.2344,286.2324 20.125,287.0606 Q21.0156,287.8731 22.6094,287.8731 Q23.5469,287.8731 24.2031,287.6231 Q24.5938,287.4668 25.0156,287.0293 Q25.2813,286.7637 25.4219,286.6856 Q25.5781,286.6074 25.7813,286.6074 Q26.1094,286.6074 26.3594,286.8731 Q26.625,287.1231 26.625,287.4668 Q26.625,287.8106 26.2813,288.2168 Q25.7813,288.7949 24.9844,289.1231 Q23.9063,289.5762 22.6094,289.5762 Q21.0938,289.5762 19.8906,288.9512 Q18.9063,288.4512 18.2188,287.3887 Q17.5313,286.3106 17.5313,285.0293 L17.5313,283.8731 Q17.5313,282.5449 18.1406,281.4043 Q18.7656,280.2481 19.8594,279.6387 Q20.9531,279.0137 22.1875,279.0137 Q22.9219,279.0137 23.5625,279.1856 Q24.2188,279.3418 24.7656,279.7012 Z " fill="#000000"/><text fill="#000000" font-family="sans-serif" font-size="14" lengthAdjust="spacing" textLength="54" x="36" y="289.5547">Keyword</text><line style="stroke:#181818;stroke-width:0.5;" x1="8" x2="92" y1="299.8262" y2="299.8262"/><line style="stroke:#181818;stroke-width:0.5;" x1="8" x2="92" y1="307.8262" y2="307.8262"/></g><!--MD5=[af22135d5be6ed11ccd2d02fa51653b3]
class Definition--><g id="elem_Definition"><rect codeLine="8" fill="#F1F1F1" height="48" id="Definition" rx="2.5" ry="2.5" style="stroke:#181818;stroke-width:0.5;" width="91" x="389.5" y="267.8262"/><ellipse cx="404.5" cy="283.8262" fill="#ADD1B2" rx="11" ry="11" style="stroke:#181818;stroke-width:1.0;"/><path d="M407.2656,279.7012 Q407.4219,279.4824 407.6094,279.3731 Q407.7969,279.2637 408.0156,279.2637 Q408.3906,279.2637 408.625,279.5293 Q408.8594,279.7793 408.8594,280.3887 L408.8594,281.8418 Q408.8594,282.4512 408.625,282.7168 Q408.3906,282.9824 408.0156,282.9824 Q407.6719,282.9824 407.4688,282.7793 Q407.2656,282.5918 407.1563,282.0762 Q407.1094,281.7168 406.9219,281.5293 Q406.5938,281.1543 405.9844,280.9356 Q405.375,280.7168 404.75,280.7168 Q403.9844,280.7168 403.3438,281.0449 Q402.7188,281.3731 402.2188,282.1231 Q401.7344,282.8731 401.7344,283.9043 L401.7344,284.9981 Q401.7344,286.2324 402.625,287.0606 Q403.5156,287.8731 405.1094,287.8731 Q406.0469,287.8731 406.7031,287.6231 Q407.0938,287.4668 407.5156,287.0293 Q407.7813,286.7637 407.9219,286.6856 Q408.0781,286.6074 408.2813,286.6074 Q408.6094,286.6074 408.8594,286.8731 Q409.125,287.1231 409.125,287.4668 Q409.125,287.8106 408.7813,288.2168 Q408.2813,288.7949 407.4844,289.1231 Q406.4063,289.5762 405.1094,289.5762 Q403.5938,289.5762 402.3906,288.9512 Q401.4063,288.4512 400.7188,287.3887 Q400.0313,286.3106 400.0313,285.0293 L400.0313,283.8731 Q400.0313,282.5449 400.6406,281.4043 Q401.2656,280.2481 402.3594,279.6387 Q403.4531,279.0137 404.6875,279.0137 Q405.4219,279.0137 406.0625,279.1856 Q406.7188,279.3418 407.2656,279.7012 Z " fill="#000000"/><text fill="#000000" font-family="sans-serif" font-size="14" lengthAdjust="spacing" textLength="59" x="418.5" y="289.5547">Definition</text><line style="stroke:#181818;stroke-width:0.5;" x1="390.5" x2="479.5" y1="299.8262" y2="299.8262"/><line style="stroke:#181818;stroke-width:0.5;" x1="390.5" x2="479.5" y1="307.8262" y2="307.8262"/></g><!--MD5=[f31fc1fa2857d38684a2cb55f861fa37]
class RealDefinition--><g id="elem_RealDefinition"><rect codeLine="10" fill="#F1F1F1" height="48" id="RealDefinition" rx="2.5" ry="2.5" style="stroke:#181818;stroke-width:0.5;" width="120" x="543" y="402.3262"/><ellipse cx="558" cy="418.3262" fill="#ADD1B2" rx="11" ry="11" style="stroke:#181818;stroke-width:1.0;"/><path d="M560.7656,414.2012 Q560.9219,413.9824 561.1094,413.8731 Q561.2969,413.7637 561.5156,413.7637 Q561.8906,413.7637 562.125,414.0293 Q562.3594,414.2793 562.3594,414.8887 L562.3594,416.3418 Q562.3594,416.9512 562.125,417.2168 Q561.8906,417.4824 561.5156,417.4824 Q561.1719,417.4824 560.9688,417.2793 Q560.7656,417.0918 560.6563,416.5762 Q560.6094,416.2168 560.4219,416.0293 Q560.0938,415.6543 559.4844,415.4356 Q558.875,415.2168 558.25,415.2168 Q557.4844,415.2168 556.8438,415.5449 Q556.2188,415.8731 555.7188,416.6231 Q555.2344,417.3731 555.2344,418.4043 L555.2344,419.4981 Q555.2344,420.7324 556.125,421.5606 Q557.0156,422.3731 558.6094,422.3731 Q559.5469,422.3731 560.2031,422.1231 Q560.5938,421.9668 561.0156,421.5293 Q561.2813,421.2637 561.4219,421.1856 Q561.5781,421.1074 561.7813,421.1074 Q562.1094,421.1074 562.3594,421.3731 Q562.625,421.6231 562.625,421.9668 Q562.625,422.3106 562.2813,422.7168 Q561.7813,423.2949 560.9844,423.6231 Q559.9063,424.0762 558.6094,424.0762 Q557.0938,424.0762 555.8906,423.4512 Q554.9063,422.9512 554.2188,421.8887 Q553.5313,420.8106 553.5313,419.5293 L553.5313,418.3731 Q553.5313,417.0449 554.1406,415.9043 Q554.7656,414.7481 555.8594,414.1387 Q556.9531,413.5137 558.1875,413.5137 Q558.9219,413.5137 559.5625,413.6856 Q560.2188,413.8418 560.7656,414.2012 Z " fill="#000000"/><text fill="#000000" font-family="sans-serif" font-size="14" lengthAdjust="spacing" textLength="88" x="572" y="424.0547">RealDefinition</text><line style="stroke:#181818;stroke-width:0.5;" x1="544" x2="662" y1="434.3262" y2="434.3262"/><line style="stroke:#181818;stroke-width:0.5;" x1="544" x2="662" y1="442.3262" y2="442.3262"/></g><!--MD5=[d6420df0ba7eff4d736dc4fa653f8446]
class FakeDefinition--><g id="elem_FakeDefinition"><rect codeLine="12" fill="#F1F1F1" height="48" id="FakeDefinition" rx="2.5" ry="2.5" style="stroke:#181818;stroke-width:0.5;" width="123" x="384.5" y="402.3262"/><ellipse cx="399.5" cy="418.3262" fill="#ADD1B2" rx="11" ry="11" style="stroke:#181818;stroke-width:1.0;"/><path d="M402.2656,414.2012 Q402.4219,413.9824 402.6094,413.8731 Q402.7969,413.7637 403.0156,413.7637 Q403.3906,413.7637 403.625,414.0293 Q403.8594,414.2793 403.8594,414.8887 L403.8594,416.3418 Q403.8594,416.9512 403.625,417.2168 Q403.3906,417.4824 403.0156,417.4824 Q402.6719,417.4824 402.4688,417.2793 Q402.2656,417.0918 402.1563,416.5762 Q402.1094,416.2168 401.9219,416.0293 Q401.5938,415.6543 400.9844,415.4356 Q400.375,415.2168 399.75,415.2168 Q398.9844,415.2168 398.3438,415.5449 Q397.7188,415.8731 397.2188,416.6231 Q396.7344,417.3731 396.7344,418.4043 L396.7344,419.4981 Q396.7344,420.7324 397.625,421.5606 Q398.5156,422.3731 400.1094,422.3731 Q401.0469,422.3731 401.7031,422.1231 Q402.0938,421.9668 402.5156,421.5293 Q402.7813,421.2637 402.9219,421.1856 Q403.0781,421.1074 403.2813,421.1074 Q403.6094,421.1074 403.8594,421.3731 Q404.125,421.6231 404.125,421.9668 Q404.125,422.3106 403.7813,422.7168 Q403.2813,423.2949 402.4844,423.6231 Q401.4063,424.0762 400.1094,424.0762 Q398.5938,424.0762 397.3906,423.4512 Q396.4063,422.9512 395.7188,421.8887 Q395.0313,420.8106 395.0313,419.5293 L395.0313,418.3731 Q395.0313,417.0449 395.6406,415.9043 Q396.2656,414.7481 397.3594,414.1387 Q398.4531,413.5137 399.6875,413.5137 Q400.4219,413.5137 401.0625,413.6856 Q401.7188,413.8418 402.2656,414.2012 Z " fill="#000000"/><text fill="#000000" font-family="sans-serif" font-size="14" lengthAdjust="spacing" textLength="91" x="413.5" y="424.0547">FakeDefinition</text><line style="stroke:#181818;stroke-width:0.5;" x1="385.5" x2="506.5" y1="434.3262" y2="434.3262"/><line style="stroke:#181818;stroke-width:0.5;" x1="385.5" x2="506.5" y1="442.3262" y2="442.3262"/></g><!--MD5=[9b4de504215638550a8bb9c080b7ee00]
class Justification--><g id="elem_Justification"><rect codeLine="14" fill="#F1F1F1" height="48" id="Justification" rx="2.5" ry="2.5" style="stroke:#181818;stroke-width:0.5;" width="105" x="550.5" y="510.3262"/><ellipse cx="565.5" cy="526.3262" fill="#ADD1B2" rx="11" ry="11" style="stroke:#181818;stroke-width:1.0;"/><path d="M568.2656,522.2012 Q568.4219,521.9824 568.6094,521.8731 Q568.7969,521.7637 569.0156,521.7637 Q569.3906,521.7637 569.625,522.0293 Q569.8594,522.2793 569.8594,522.8887 L569.8594,524.3418 Q569.8594,524.9512 569.625,525.2168 Q569.3906,525.4824 569.0156,525.4824 Q568.6719,525.4824 568.4688,525.2793 Q568.2656,525.0918 568.1563,524.5762 Q568.1094,524.2168 567.9219,524.0293 Q567.5938,523.6543 566.9844,523.4356 Q566.375,523.2168 565.75,523.2168 Q564.9844,523.2168 564.3438,523.5449 Q563.7188,523.8731 563.2188,524.6231 Q562.7344,525.3731 562.7344,526.4043 L562.7344,527.4981 Q562.7344,528.7324 563.625,529.5606 Q564.5156,530.3731 566.1094,530.3731 Q567.0469,530.3731 567.7031,530.1231 Q568.0938,529.9668 568.5156,529.5293 Q568.7813,529.2637 568.9219,529.1856 Q569.0781,529.1074 569.2813,529.1074 Q569.6094,529.1074 569.8594,529.3731 Q570.125,529.6231 570.125,529.9668 Q570.125,530.3106 569.7813,530.7168 Q569.2813,531.2949 568.4844,531.6231 Q567.4063,532.0762 566.1094,532.0762 Q564.5938,532.0762 563.3906,531.4512 Q562.4063,530.9512 561.7188,529.8887 Q561.0313,528.8106 561.0313,527.5293 L561.0313,526.3731 Q561.0313,525.0449 561.6406,523.9043 Q562.2656,522.7481 563.3594,522.1387 Q564.4531,521.5137 565.6875,521.5137 Q566.4219,521.5137 567.0625,521.6856 Q567.7188,521.8418 568.2656,522.2012 Z " fill="#000000"/><text fill="#000000" font-family="sans-serif" font-size="14" lengthAdjust="spacing" textLength="73" x="579.5" y="532.0547">Justification</text><line style="stroke:#181818;stroke-width:0.5;" x1="551.5" x2="654.5" y1="542.3262" y2="542.3262"/><line style="stroke:#181818;stroke-width:0.5;" x1="551.5" x2="654.5" y1="550.3262" y2="550.3262"/></g><!--MD5=[226b129f95de2b91bbf78d545493e57e]
class RealJustification--><g id="elem_RealJustification"><rect codeLine="16" fill="#F1F1F1" height="48" id="RealJustification" rx="2.5" ry="2.5" style="stroke:#181818;stroke-width:0.5;" width="134" x="451" y="618.3262"/><ellipse cx="466" cy="634.3262" fill="#ADD1B2" rx="11" ry="11" style="stroke:#181818;stroke-width:1.0;"/><path d="M468.7656,630.2012 Q468.9219,629.9824 469.1094,629.8731 Q469.2969,629.7637 469.5156,629.7637 Q469.8906,629.7637 470.125,630.0293 Q470.3594,630.2793 470.3594,630.8887 L470.3594,632.3418 Q470.3594,632.9512 470.125,633.2168 Q469.8906,633.4824 469.5156,633.4824 Q469.1719,633.4824 468.9688,633.2793 Q468.7656,633.0918 468.6563,632.5762 Q468.6094,632.2168 468.4219,632.0293 Q468.0938,631.6543 467.4844,631.4356 Q466.875,631.2168 466.25,631.2168 Q465.4844,631.2168 464.8438,631.5449 Q464.2188,631.8731 463.7188,632.6231 Q463.2344,633.3731 463.2344,634.4043 L463.2344,635.4981 Q463.2344,636.7324 464.125,637.5606 Q465.0156,638.3731 466.6094,638.3731 Q467.5469,638.3731 468.2031,638.1231 Q468.5938,637.9668 469.0156,637.5293 Q469.2813,637.2637 469.4219,637.1856 Q469.5781,637.1074 469.7813,637.1074 Q470.1094,637.1074 470.3594,637.3731 Q470.625,637.6231 470.625,637.9668 Q470.625,638.3106 470.2813,638.7168 Q469.7813,639.2949 468.9844,639.6231 Q467.9063,640.0762 466.6094,640.0762 Q465.0938,640.0762 463.8906,639.4512 Q462.9063,638.9512 462.2188,637.8887 Q461.5313,636.8106 461.5313,635.5293 L461.5313,634.3731 Q461.5313,633.0449 462.1406,631.9043 Q462.7656,630.7481 463.8594,630.1387 Q464.9531,629.5137 466.1875,629.5137 Q466.9219,629.5137 467.5625,629.6856 Q468.2188,629.8418 468.7656,630.2012 Z " fill="#000000"/><text fill="#000000" font-family="sans-serif" font-size="14" lengthAdjust="spacing" textLength="102" x="480" y="640.0547">RealJustification</text><line style="stroke:#181818;stroke-width:0.5;" x1="452" x2="584" y1="650.3262" y2="650.3262"/><line style="stroke:#181818;stroke-width:0.5;" x1="452" x2="584" y1="658.3262" y2="658.3262"/></g><!--MD5=[7a6687b95ddf01a258e56cc7a885583f]
class FakeJustification--><g id="elem_FakeJustification"><rect codeLine="18" fill="#F1F1F1" height="48" id="FakeJustification" rx="2.5" ry="2.5" style="stroke:#181818;stroke-width:0.5;" width="137" x="620.5" y="618.3262"/><ellipse cx="635.5" cy="634.3262" fill="#ADD1B2" rx="11" ry="11" style="stroke:#181818;stroke-width:1.0;"/><path d="M638.2656,630.2012 Q638.4219,629.9824 638.6094,629.8731 Q638.7969,629.7637 639.0156,629.7637 Q639.3906,629.7637 639.625,630.0293 Q639.8594,630.2793 639.8594,630.8887 L639.8594,632.3418 Q639.8594,632.9512 639.625,633.2168 Q639.3906,633.4824 639.0156,633.4824 Q638.6719,633.4824 638.4688,633.2793 Q638.2656,633.0918 638.1563,632.5762 Q638.1094,632.2168 637.9219,632.0293 Q637.5938,631.6543 636.9844,631.4356 Q636.375,631.2168 635.75,631.2168 Q634.9844,631.2168 634.3438,631.5449 Q633.7188,631.8731 633.2188,632.6231 Q632.7344,633.3731 632.7344,634.4043 L632.7344,635.4981 Q632.7344,636.7324 633.625,637.5606 Q634.5156,638.3731 636.1094,638.3731 Q637.0469,638.3731 637.7031,638.1231 Q638.0938,637.9668 638.5156,637.5293 Q638.7813,637.2637 638.9219,637.1856 Q639.0781,637.1074 639.2813,637.1074 Q639.6094,637.1074 639.8594,637.3731 Q640.125,637.6231 640.125,637.9668 Q640.125,638.3106 639.7813,638.7168 Q639.2813,639.2949 638.4844,639.6231 Q637.4063,640.0762 636.1094,640.0762 Q634.5938,640.0762 633.3906,639.4512 Q632.4063,638.9512 631.7188,637.8887 Q631.0313,636.8106 631.0313,635.5293 L631.0313,634.3731 Q631.0313,633.0449 631.6406,631.9043 Q632.2656,630.7481 633.3594,630.1387 Q634.4531,629.5137 635.6875,629.5137 Q636.4219,629.5137 637.0625,629.6856 Q637.7188,629.8418 638.2656,630.2012 Z " fill="#000000"/><text fill="#000000" font-family="sans-serif" font-size="14" lengthAdjust="spacing" textLength="105" x="649.5" y="640.0547">FakeJustification</text><line style="stroke:#181818;stroke-width:0.5;" x1="621.5" x2="756.5" y1="650.3262" y2="650.3262"/><line style="stroke:#181818;stroke-width:0.5;" x1="621.5" x2="756.5" y1="658.3262" y2="658.3262"/></g><!--MD5=[534474e9f05b14d7c70186ae077f30e0]
class Relation--><g id="elem_Relation"><rect codeLine="20" fill="#F1F1F1" height="48" id="Relation" rx="2.5" ry="2.5" style="stroke:#181818;stroke-width:0.5;" width="84" x="199" y="267.8262"/><ellipse cx="214" cy="283.8262" fill="#ADD1B2" rx="11" ry="11" style="stroke:#181818;stroke-width:1.0;"/><path d="M216.7656,279.7012 Q216.9219,279.4824 217.1094,279.3731 Q217.2969,279.2637 217.5156,279.2637 Q217.8906,279.2637 218.125,279.5293 Q218.3594,279.7793 218.3594,280.3887 L218.3594,281.8418 Q218.3594,282.4512 218.125,282.7168 Q217.8906,282.9824 217.5156,282.9824 Q217.1719,282.9824 216.9688,282.7793 Q216.7656,282.5918 216.6563,282.0762 Q216.6094,281.7168 216.4219,281.5293 Q216.0938,281.1543 215.4844,280.9356 Q214.875,280.7168 214.25,280.7168 Q213.4844,280.7168 212.8438,281.0449 Q212.2188,281.3731 211.7188,282.1231 Q211.2344,282.8731 211.2344,283.9043 L211.2344,284.9981 Q211.2344,286.2324 212.125,287.0606 Q213.0156,287.8731 214.6094,287.8731 Q215.5469,287.8731 216.2031,287.6231 Q216.5938,287.4668 217.0156,287.0293 Q217.2813,286.7637 217.4219,286.6856 Q217.5781,286.6074 217.7813,286.6074 Q218.1094,286.6074 218.3594,286.8731 Q218.625,287.1231 218.625,287.4668 Q218.625,287.8106 218.2813,288.2168 Q217.7813,288.7949 216.9844,289.1231 Q215.9063,289.5762 214.6094,289.5762 Q213.0938,289.5762 211.8906,288.9512 Q210.9063,288.4512 210.2188,287.3887 Q209.5313,286.3106 209.5313,285.0293 L209.5313,283.8731 Q209.5313,282.5449 210.1406,281.4043 Q210.7656,280.2481 211.8594,279.6387 Q212.9531,279.0137 214.1875,279.0137 Q214.9219,279.0137 215.5625,279.1856 Q216.2188,279.3418 216.7656,279.7012 Z " fill="#000000"/><text fill="#000000" font-family="sans-serif" font-size="14" lengthAdjust="spacing" textLength="52" x="228" y="289.5547">Relation</text><line style="stroke:#181818;stroke-width:0.5;" x1="200" x2="282" y1="299.8262" y2="299.8262"/><line style="stroke:#181818;stroke-width:0.5;" x1="200" x2="282" y1="307.8262" y2="307.8262"/></g><!--MD5=[9c239722e256878d27dcbb07783cc14f]
class Classification--><g id="elem_Classification"><rect codeLine="22" fill="#F1F1F1" height="48" id="Classification" rx="2.5" ry="2.5" style="stroke:#181818;stroke-width:0.5;" width="115" x="88.5" y="402.3262"/><ellipse cx="103.5" cy="418.3262" fill="#ADD1B2" rx="11" ry="11" style="stroke:#181818;stroke-width:1.0;"/><path d="M106.2656,414.2012 Q106.4219,413.9824 106.6094,413.8731 Q106.7969,413.7637 107.0156,413.7637 Q107.3906,413.7637 107.625,414.0293 Q107.8594,414.2793 107.8594,414.8887 L107.8594,416.3418 Q107.8594,416.9512 107.625,417.2168 Q107.3906,417.4824 107.0156,417.4824 Q106.6719,417.4824 106.4688,417.2793 Q106.2656,417.0918 106.1563,416.5762 Q106.1094,416.2168 105.9219,416.0293 Q105.5938,415.6543 104.9844,415.4356 Q104.375,415.2168 103.75,415.2168 Q102.9844,415.2168 102.3438,415.5449 Q101.7188,415.8731 101.2188,416.6231 Q100.7344,417.3731 100.7344,418.4043 L100.7344,419.4981 Q100.7344,420.7324 101.625,421.5606 Q102.5156,422.3731 104.1094,422.3731 Q105.0469,422.3731 105.7031,422.1231 Q106.0938,421.9668 106.5156,421.5293 Q106.7813,421.2637 106.9219,421.1856 Q107.0781,421.1074 107.2813,421.1074 Q107.6094,421.1074 107.8594,421.3731 Q108.125,421.6231 108.125,421.9668 Q108.125,422.3106 107.7813,422.7168 Q107.2813,423.2949 106.4844,423.6231 Q105.4063,424.0762 104.1094,424.0762 Q102.5938,424.0762 101.3906,423.4512 Q100.4063,422.9512 99.7188,421.8887 Q99.0313,420.8106 99.0313,419.5293 L99.0313,418.3731 Q99.0313,417.0449 99.6406,415.9043 Q100.2656,414.7481 101.3594,414.1387 Q102.4531,413.5137 103.6875,413.5137 Q104.4219,413.5137 105.0625,413.6856 Q105.7188,413.8418 106.2656,414.2012 Z " fill="#000000"/><text fill="#000000" font-family="sans-serif" font-size="14" lengthAdjust="spacing" textLength="83" x="117.5" y="424.0547">Classification</text><line style="stroke:#181818;stroke-width:0.5;" x1="89.5" x2="202.5" y1="434.3262" y2="434.3262"/><line style="stroke:#181818;stroke-width:0.5;" x1="89.5" x2="202.5" y1="442.3262" y2="442.3262"/></g><!--MD5=[251454e98c15f29849fb35b1904d0020]
class Composition--><g id="elem_Composition"><rect codeLine="24" fill="#F1F1F1" height="48" id="Composition" rx="2.5" ry="2.5" style="stroke:#181818;stroke-width:0.5;" width="110" x="239" y="402.3262"/><ellipse cx="254" cy="418.3262" fill="#ADD1B2" rx="11" ry="11" style="stroke:#181818;stroke-width:1.0;"/><path d="M256.7656,414.2012 Q256.9219,413.9824 257.1094,413.8731 Q257.2969,413.7637 257.5156,413.7637 Q257.8906,413.7637 258.125,414.0293 Q258.3594,414.2793 258.3594,414.8887 L258.3594,416.3418 Q258.3594,416.9512 258.125,417.2168 Q257.8906,417.4824 257.5156,417.4824 Q257.1719,417.4824 256.9688,417.2793 Q256.7656,417.0918 256.6563,416.5762 Q256.6094,416.2168 256.4219,416.0293 Q256.0938,415.6543 255.4844,415.4356 Q254.875,415.2168 254.25,415.2168 Q253.4844,415.2168 252.8438,415.5449 Q252.2188,415.8731 251.7188,416.6231 Q251.2344,417.3731 251.2344,418.4043 L251.2344,419.4981 Q251.2344,420.7324 252.125,421.5606 Q253.0156,422.3731 254.6094,422.3731 Q255.5469,422.3731 256.2031,422.1231 Q256.5938,421.9668 257.0156,421.5293 Q257.2813,421.2637 257.4219,421.1856 Q257.5781,421.1074 257.7813,421.1074 Q258.1094,421.1074 258.3594,421.3731 Q258.625,421.6231 258.625,421.9668 Q258.625,422.3106 258.2813,422.7168 Q257.7813,423.2949 256.9844,423.6231 Q255.9063,424.0762 254.6094,424.0762 Q253.0938,424.0762 251.8906,423.4512 Q250.9063,422.9512 250.2188,421.8887 Q249.5313,420.8106 249.5313,419.5293 L249.5313,418.3731 Q249.5313,417.0449 250.1406,415.9043 Q250.7656,414.7481 251.8594,414.1387 Q252.9531,413.5137 254.1875,413.5137 Q254.9219,413.5137 255.5625,413.6856 Q256.2188,413.8418 256.7656,414.2012 Z " fill="#000000"/><text fill="#000000" font-family="sans-serif" font-size="14" lengthAdjust="spacing" textLength="78" x="268" y="424.0547">Composition</text><line style="stroke:#181818;stroke-width:0.5;" x1="240" x2="348" y1="434.3262" y2="434.3262"/><line style="stroke:#181818;stroke-width:0.5;" x1="240" x2="348" y1="442.3262" y2="442.3262"/></g><!--MD5=[eedde156c9dded963040b22578af45fa]
class Level--><g id="elem_Level"><rect codeLine="26" fill="#F1F1F1" height="48" id="Level" rx="2.5" ry="2.5" style="stroke:#181818;stroke-width:0.5;" width="66" x="1495" y="7.3262"/><ellipse cx="1510" cy="23.3262" fill="#ADD1B2" rx="11" ry="11" style="stroke:#181818;stroke-width:1.0;"/><path d="M1512.7656,19.2012 Q1512.9219,18.9824 1513.1094,18.8731 Q1513.2969,18.7637 1513.5156,18.7637 Q1513.8906,18.7637 1514.125,19.0293 Q1514.3594,19.2793 1514.3594,19.8887 L1514.3594,21.3418 Q1514.3594,21.9512 1514.125,22.2168 Q1513.8906,22.4824 1513.5156,22.4824 Q1513.1719,22.4824 1512.9688,22.2793 Q1512.7656,22.0918 1512.6563,21.5762 Q1512.6094,21.2168 1512.4219,21.0293 Q1512.0938,20.6543 1511.4844,20.4356 Q1510.875,20.2168 1510.25,20.2168 Q1509.4844,20.2168 1508.8438,20.5449 Q1508.2188,20.8731 1507.7188,21.6231 Q1507.2344,22.3731 1507.2344,23.4043 L1507.2344,24.4981 Q1507.2344,25.7324 1508.125,26.5606 Q1509.0156,27.3731 1510.6094,27.3731 Q1511.5469,27.3731 1512.2031,27.1231 Q1512.5938,26.9668 1513.0156,26.5293 Q1513.2813,26.2637 1513.4219,26.1856 Q1513.5781,26.1074 1513.7813,26.1074 Q1514.1094,26.1074 1514.3594,26.3731 Q1514.625,26.6231 1514.625,26.9668 Q1514.625,27.3106 1514.2813,27.7168 Q1513.7813,28.2949 1512.9844,28.6231 Q1511.9063,29.0762 1510.6094,29.0762 Q1509.0938,29.0762 1507.8906,28.4512 Q1506.9063,27.9512 1506.2188,26.8887 Q1505.5313,25.8106 1505.5313,24.5293 L1505.5313,23.3731 Q1505.5313,22.0449 1506.1406,20.9043 Q1506.7656,19.7481 1507.8594,19.1387 Q1508.9531,18.5137 1510.1875,18.5137 Q1510.9219,18.5137 1511.5625,18.6856 Q1512.2188,18.8418 1512.7656,19.2012 Z " fill="#000000"/><text fill="#000000" font-family="sans-serif" font-size="14" lengthAdjust="spacing" textLength="34" x="1524" y="29.0547">Level</text><line style="stroke:#181818;stroke-width:0.5;" x1="1496" x2="1560" y1="39.3262" y2="39.3262"/><line style="stroke:#181818;stroke-width:0.5;" x1="1496" x2="1560" y1="47.3262" y2="47.3262"/></g><!--MD5=[a273cb2d535cd0db32a65a079a20fa3f]
class Primary--><g id="elem_Primary"><rect codeLine="28" fill="#F1F1F1" height="65.6094" id="Primary" rx="2.5" ry="2.5" style="stroke:#181818;stroke-width:0.5;" width="90" x="1483" y="115.3262"/><ellipse cx="1502.5" cy="131.3262" fill="#ADD1B2" rx="11" ry="11" style="stroke:#181818;stroke-width:1.0;"/><path d="M1505.2656,127.2012 Q1505.4219,126.9824 1505.6094,126.8731 Q1505.7969,126.7637 1506.0156,126.7637 Q1506.3906,126.7637 1506.625,127.0293 Q1506.8594,127.2793 1506.8594,127.8887 L1506.8594,129.3418 Q1506.8594,129.9512 1506.625,130.2168 Q1506.3906,130.4824 1506.0156,130.4824 Q1505.6719,130.4824 1505.4688,130.2793 Q1505.2656,130.0918 1505.1563,129.5762 Q1505.1094,129.2168 1504.9219,129.0293 Q1504.5938,128.6543 1503.9844,128.4356 Q1503.375,128.2168 1502.75,128.2168 Q1501.9844,128.2168 1501.3438,128.5449 Q1500.7188,128.8731 1500.2188,129.6231 Q1499.7344,130.3731 1499.7344,131.4043 L1499.7344,132.4981 Q1499.7344,133.7324 1500.625,134.5606 Q1501.5156,135.3731 1503.1094,135.3731 Q1504.0469,135.3731 1504.7031,135.1231 Q1505.0938,134.9668 1505.5156,134.5293 Q1505.7813,134.2637 1505.9219,134.1856 Q1506.0781,134.1074 1506.2813,134.1074 Q1506.6094,134.1074 1506.8594,134.3731 Q1507.125,134.6231 1507.125,134.9668 Q1507.125,135.3106 1506.7813,135.7168 Q1506.2813,136.2949 1505.4844,136.6231 Q1504.4063,137.0762 1503.1094,137.0762 Q1501.5938,137.0762 1500.3906,136.4512 Q1499.4063,135.9512 1498.7188,134.8887 Q1498.0313,133.8106 1498.0313,132.5293 L1498.0313,131.3731 Q1498.0313,130.0449 1498.6406,128.9043 Q1499.2656,127.7481 1500.3594,127.1387 Q1501.4531,126.5137 1502.6875,126.5137 Q1503.4219,126.5137 1504.0625,126.6856 Q1504.7188,126.8418 1505.2656,127.2012 Z " fill="#000000"/><text fill="#000000" font-family="sans-serif" font-size="14" lengthAdjust="spacing" textLength="48" x="1517.5" y="137.0547">Primary</text><line style="stroke:#181818;stroke-width:0.5;" x1="1484" x2="1572" y1="147.3262" y2="147.3262"/><text fill="#000000" font-family="sans-serif" font-size="14" lengthAdjust="spacing" textLength="78" x="1489" y="165.8594">withKeyword</text><line style="stroke:#181818;stroke-width:0.5;" x1="1484" x2="1572" y1="172.9356" y2="172.9356"/></g><!--MD5=[322ff4561961666878e676a719041932]
class Secundary--><g id="elem_Secundary"><rect codeLine="32" fill="#F1F1F1" height="65.6094" id="Secundary" rx="2.5" ry="2.5" style="stroke:#181818;stroke-width:0.5;" width="100" x="1775" y="115.3262"/><ellipse cx="1790" cy="131.3262" fill="#ADD1B2" rx="11" ry="11" style="stroke:#181818;stroke-width:1.0;"/><path d="M1792.7656,127.2012 Q1792.9219,126.9824 1793.1094,126.8731 Q1793.2969,126.7637 1793.5156,126.7637 Q1793.8906,126.7637 1794.125,127.0293 Q1794.3594,127.2793 1794.3594,127.8887 L1794.3594,129.3418 Q1794.3594,129.9512 1794.125,130.2168 Q1793.8906,130.4824 1793.5156,130.4824 Q1793.1719,130.4824 1792.9688,130.2793 Q1792.7656,130.0918 1792.6563,129.5762 Q1792.6094,129.2168 1792.4219,129.0293 Q1792.0938,128.6543 1791.4844,128.4356 Q1790.875,128.2168 1790.25,128.2168 Q1789.4844,128.2168 1788.8438,128.5449 Q1788.2188,128.8731 1787.7188,129.6231 Q1787.2344,130.3731 1787.2344,131.4043 L1787.2344,132.4981 Q1787.2344,133.7324 1788.125,134.5606 Q1789.0156,135.3731 1790.6094,135.3731 Q1791.5469,135.3731 1792.2031,135.1231 Q1792.5938,134.9668 1793.0156,134.5293 Q1793.2813,134.2637 1793.4219,134.1856 Q1793.5781,134.1074 1793.7813,134.1074 Q1794.1094,134.1074 1794.3594,134.3731 Q1794.625,134.6231 1794.625,134.9668 Q1794.625,135.3106 1794.2813,135.7168 Q1793.7813,136.2949 1792.9844,136.6231 Q1791.9063,137.0762 1790.6094,137.0762 Q1789.0938,137.0762 1787.8906,136.4512 Q1786.9063,135.9512 1786.2188,134.8887 Q1785.5313,133.8106 1785.5313,132.5293 L1785.5313,131.3731 Q1785.5313,130.0449 1786.1406,128.9043 Q1786.7656,127.7481 1787.8594,127.1387 Q1788.9531,126.5137 1790.1875,126.5137 Q1790.9219,126.5137 1791.5625,126.6856 Q1792.2188,126.8418 1792.7656,127.2012 Z " fill="#000000"/><text fill="#000000" font-family="sans-serif" font-size="14" lengthAdjust="spacing" textLength="68" x="1804" y="137.0547">Secundary</text><line style="stroke:#181818;stroke-width:0.5;" x1="1776" x2="1874" y1="147.3262" y2="147.3262"/><text fill="#000000" font-family="sans-serif" font-size="14" lengthAdjust="spacing" textLength="83" x="1781" y="165.8594">withDefinition</text><line style="stroke:#181818;stroke-width:0.5;" x1="1776" x2="1874" y1="172.9356" y2="172.9356"/></g><!--MD5=[ea4af6a7584cddf1924ee10cf7a08ed2]
class Tertiary--><g id="elem_Tertiary"><rect codeLine="36" fill="#F1F1F1" height="65.6094" id="Tertiary" rx="2.5" ry="2.5" style="stroke:#181818;stroke-width:0.5;" width="109" x="1108.5" y="115.3262"/><ellipse cx="1136.1" cy="131.3262" fill="#ADD1B2" rx="11" ry="11" style="stroke:#181818;stroke-width:1.0;"/><path d="M1138.8656,127.2012 Q1139.0219,126.9824 1139.2094,126.8731 Q1139.3969,126.7637 1139.6156,126.7637 Q1139.9906,126.7637 1140.225,127.0293 Q1140.4594,127.2793 1140.4594,127.8887 L1140.4594,129.3418 Q1140.4594,129.9512 1140.225,130.2168 Q1139.9906,130.4824 1139.6156,130.4824 Q1139.2719,130.4824 1139.0688,130.2793 Q1138.8656,130.0918 1138.7563,129.5762 Q1138.7094,129.2168 1138.5219,129.0293 Q1138.1938,128.6543 1137.5844,128.4356 Q1136.975,128.2168 1136.35,128.2168 Q1135.5844,128.2168 1134.9438,128.5449 Q1134.3188,128.8731 1133.8188,129.6231 Q1133.3344,130.3731 1133.3344,131.4043 L1133.3344,132.4981 Q1133.3344,133.7324 1134.225,134.5606 Q1135.1156,135.3731 1136.7094,135.3731 Q1137.6469,135.3731 1138.3031,135.1231 Q1138.6938,134.9668 1139.1156,134.5293 Q1139.3813,134.2637 1139.5219,134.1856 Q1139.6781,134.1074 1139.8813,134.1074 Q1140.2094,134.1074 1140.4594,134.3731 Q1140.725,134.6231 1140.725,134.9668 Q1140.725,135.3106 1140.3813,135.7168 Q1139.8813,136.2949 1139.0844,136.6231 Q1138.0063,137.0762 1136.7094,137.0762 Q1135.1938,137.0762 1133.9906,136.4512 Q1133.0063,135.9512 1132.3188,134.8887 Q1131.6313,133.8106 1131.6313,132.5293 L1131.6313,131.3731 Q1131.6313,130.0449 1132.2406,128.9043 Q1132.8656,127.7481 1133.9594,127.1387 Q1135.0531,126.5137 1136.2875,126.5137 Q1137.0219,126.5137 1137.6625,126.6856 Q1138.3188,126.8418 1138.8656,127.2012 Z " fill="#000000"/><text fill="#000000" font-family="sans-serif" font-size="14" lengthAdjust="spacing" textLength="49" x="1152.9" y="137.0547">Tertiary</text><line style="stroke:#181818;stroke-width:0.5;" x1="1109.5" x2="1216.5" y1="147.3262" y2="147.3262"/><text fill="#000000" font-family="sans-serif" font-size="14" lengthAdjust="spacing" textLength="97" x="1114.5" y="165.8594">withJustification</text><line style="stroke:#181818;stroke-width:0.5;" x1="1109.5" x2="1216.5" y1="172.9356" y2="172.9356"/></g><!--MD5=[52ad97087556ad19cabdbca07f57229d]
class WithRelations--><g id="elem_WithRelations"><rect codeLine="40" fill="#F1F1F1" height="48" id="WithRelations" rx="2.5" ry="2.5" style="stroke:#181818;stroke-width:0.5;" width="119" x="2454.5" y="124.3262"/><ellipse cx="2469.5" cy="140.3262" fill="#ADD1B2" rx="11" ry="11" style="stroke:#181818;stroke-width:1.0;"/><path d="M2472.2656,136.2012 Q2472.4219,135.9824 2472.6094,135.8731 Q2472.7969,135.7637 2473.0156,135.7637 Q2473.3906,135.7637 2473.625,136.0293 Q2473.8594,136.2793 2473.8594,136.8887 L2473.8594,138.3418 Q2473.8594,138.9512 2473.625,139.2168 Q2473.3906,139.4824 2473.0156,139.4824 Q2472.6719,139.4824 2472.4688,139.2793 Q2472.2656,139.0918 2472.1563,138.5762 Q2472.1094,138.2168 2471.9219,138.0293 Q2471.5938,137.6543 2470.9844,137.4356 Q2470.375,137.2168 2469.75,137.2168 Q2468.9844,137.2168 2468.3438,137.5449 Q2467.7188,137.8731 2467.2188,138.6231 Q2466.7344,139.3731 2466.7344,140.4043 L2466.7344,141.4981 Q2466.7344,142.7324 2467.625,143.5606 Q2468.5156,144.3731 2470.1094,144.3731 Q2471.0469,144.3731 2471.7031,144.1231 Q2472.0938,143.9668 2472.5156,143.5293 Q2472.7813,143.2637 2472.9219,143.1856 Q2473.0781,143.1074 2473.2813,143.1074 Q2473.6094,143.1074 2473.8594,143.3731 Q2474.125,143.6231 2474.125,143.9668 Q2474.125,144.3106 2473.7813,144.7168 Q2473.2813,145.2949 2472.4844,145.6231 Q2471.4063,146.0762 2470.1094,146.0762 Q2468.5938,146.0762 2467.3906,145.4512 Q2466.4063,144.9512 2465.7188,143.8887 Q2465.0313,142.8106 2465.0313,141.5293 L2465.0313,140.3731 Q2465.0313,139.0449 2465.6406,137.9043 Q2466.2656,136.7481 2467.3594,136.1387 Q2468.4531,135.5137 2469.6875,135.5137 Q2470.4219,135.5137 2471.0625,135.6856 Q2471.7188,135.8418 2472.2656,136.2012 Z " fill="#000000"/><text fill="#000000" font-family="sans-serif" font-size="14" lengthAdjust="spacing" textLength="87" x="2483.5" y="146.0547">WithRelations</text><line style="stroke:#181818;stroke-width:0.5;" x1="2455.5" x2="2572.5" y1="156.3262" y2="156.3262"/><line style="stroke:#181818;stroke-width:0.5;" x1="2455.5" x2="2572.5" y1="164.3262" y2="164.3262"/></g><!--MD5=[4790b86531911bf48aefa8323a9874db]
class BasicQuestion--><g id="elem_BasicQuestion"><rect codeLine="42" fill="#F1F1F1" height="100.8281" id="BasicQuestion" rx="2.5" ry="2.5" style="stroke:#181818;stroke-width:0.5;" width="244" x="1406" y="241.3262"/><ellipse cx="1478.25" cy="257.3262" fill="#ADD1B2" rx="11" ry="11" style="stroke:#181818;stroke-width:1.0;"/><path d="M1481.0156,253.2012 Q1481.1719,252.9824 1481.3594,252.8731 Q1481.5469,252.7637 1481.7656,252.7637 Q1482.1406,252.7637 1482.375,253.0293 Q1482.6094,253.2793 1482.6094,253.8887 L1482.6094,255.3418 Q1482.6094,255.9512 1482.375,256.2168 Q1482.1406,256.4824 1481.7656,256.4824 Q1481.4219,256.4824 1481.2188,256.2793 Q1481.0156,256.0918 1480.9063,255.5762 Q1480.8594,255.2168 1480.6719,255.0293 Q1480.3438,254.6543 1479.7344,254.4356 Q1479.125,254.2168 1478.5,254.2168 Q1477.7344,254.2168 1477.0938,254.5449 Q1476.4688,254.8731 1475.9688,255.6231 Q1475.4844,256.3731 1475.4844,257.4043 L1475.4844,258.4981 Q1475.4844,259.7324 1476.375,260.5606 Q1477.2656,261.3731 1478.8594,261.3731 Q1479.7969,261.3731 1480.4531,261.1231 Q1480.8438,260.9668 1481.2656,260.5293 Q1481.5313,260.2637 1481.6719,260.1856 Q1481.8281,260.1074 1482.0313,260.1074 Q1482.3594,260.1074 1482.6094,260.3731 Q1482.875,260.6231 1482.875,260.9668 Q1482.875,261.3106 1482.5313,261.7168 Q1482.0313,262.2949 1481.2344,262.6231 Q1480.1563,263.0762 1478.8594,263.0762 Q1477.3438,263.0762 1476.1406,262.4512 Q1475.1563,261.9512 1474.4688,260.8887 Q1473.7813,259.8106 1473.7813,258.5293 L1473.7813,257.3731 Q1473.7813,256.0449 1474.3906,254.9043 Q1475.0156,253.7481 1476.1094,253.1387 Q1477.2031,252.5137 1478.4375,252.5137 Q1479.1719,252.5137 1479.8125,252.6856 Q1480.4688,252.8418 1481.0156,253.2012 Z " fill="#000000"/><text fill="#000000" font-family="sans-serif" font-size="14" lengthAdjust="spacing" textLength="91" x="1498.75" y="263.0547">BasicQuestion</text><line style="stroke:#181818;stroke-width:0.5;" x1="1407" x2="1649" y1="273.3262" y2="273.3262"/><ellipse cx="1417" cy="287.6309" fill="none" rx="3" ry="3" style="stroke:#038048;stroke-width:1.0;"/><text fill="#000000" font-family="sans-serif" font-size="14" lengthAdjust="spacing" textLength="218" x="1426" y="291.8594">statement: "¿Qué es KEYWORD?"</text><ellipse cx="1417" cy="305.2402" fill="none" rx="3" ry="3" style="stroke:#038048;stroke-width:1.0;"/><text fill="#000000" font-family="sans-serif" font-size="14" lengthAdjust="spacing" textLength="93" x="1426" y="309.4688">1 answer open</text><text fill="#000000" font-family="sans-serif" font-size="14" lengthAdjust="spacing" textLength="113" x="1426" y="327.0781">manual correction</text><line style="stroke:#181818;stroke-width:0.5;" x1="1407" x2="1649" y1="334.1543" y2="334.1543"/></g><!--MD5=[14f8444b25d1b166020142f435e1b6b7]
class ReverseQuestion--><g id="elem_ReverseQuestion"><rect codeLine="48" fill="#F1F1F1" height="100.8281" id="ReverseQuestion" rx="2.5" ry="2.5" style="stroke:#181818;stroke-width:0.5;" width="279" x="1685.5" y="241.3262"/><ellipse cx="1765.75" cy="257.3262" fill="#ADD1B2" rx="11" ry="11" style="stroke:#181818;stroke-width:1.0;"/><path d="M1768.5156,253.2012 Q1768.6719,252.9824 1768.8594,252.8731 Q1769.0469,252.7637 1769.2656,252.7637 Q1769.6406,252.7637 1769.875,253.0293 Q1770.1094,253.2793 1770.1094,253.8887 L1770.1094,255.3418 Q1770.1094,255.9512 1769.875,256.2168 Q1769.6406,256.4824 1769.2656,256.4824 Q1768.9219,256.4824 1768.7188,256.2793 Q1768.5156,256.0918 1768.4063,255.5762 Q1768.3594,255.2168 1768.1719,255.0293 Q1767.8438,254.6543 1767.2344,254.4356 Q1766.625,254.2168 1766,254.2168 Q1765.2344,254.2168 1764.5938,254.5449 Q1763.9688,254.8731 1763.4688,255.6231 Q1762.9844,256.3731 1762.9844,257.4043 L1762.9844,258.4981 Q1762.9844,259.7324 1763.875,260.5606 Q1764.7656,261.3731 1766.3594,261.3731 Q1767.2969,261.3731 1767.9531,261.1231 Q1768.3438,260.9668 1768.7656,260.5293 Q1769.0313,260.2637 1769.1719,260.1856 Q1769.3281,260.1074 1769.5313,260.1074 Q1769.8594,260.1074 1770.1094,260.3731 Q1770.375,260.6231 1770.375,260.9668 Q1770.375,261.3106 1770.0313,261.7168 Q1769.5313,262.2949 1768.7344,262.6231 Q1767.6563,263.0762 1766.3594,263.0762 Q1764.8438,263.0762 1763.6406,262.4512 Q1762.6563,261.9512 1761.9688,260.8887 Q1761.2813,259.8106 1761.2813,258.5293 L1761.2813,257.3731 Q1761.2813,256.0449 1761.8906,254.9043 Q1762.5156,253.7481 1763.6094,253.1387 Q1764.7031,252.5137 1765.9375,252.5137 Q1766.6719,252.5137 1767.3125,252.6856 Q1767.9688,252.8418 1768.5156,253.2012 Z " fill="#000000"/><text fill="#000000" font-family="sans-serif" font-size="14" lengthAdjust="spacing" textLength="110" x="1786.25" y="263.0547">ReverseQuestion</text><line style="stroke:#181818;stroke-width:0.5;" x1="1686.5" x2="1963.5" y1="273.3262" y2="273.3262"/><ellipse cx="1696.5" cy="287.6309" fill="none" rx="3" ry="3" style="stroke:#038048;stroke-width:1.0;"/><text fill="#000000" font-family="sans-serif" font-size="14" lengthAdjust="spacing" textLength="253" x="1705.5" y="291.8594">statement: "¿Qué es esta DEFINITION?"</text><ellipse cx="1696.5" cy="305.2402" fill="none" rx="3" ry="3" style="stroke:#038048;stroke-width:1.0;"/><text fill="#000000" font-family="sans-serif" font-size="14" lengthAdjust="spacing" textLength="93" x="1705.5" y="309.4688">1 answer open</text><text fill="#000000" font-family="sans-serif" font-size="14" lengthAdjust="spacing" textLength="113" x="1705.5" y="327.0781">manual correction</text><line style="stroke:#181818;stroke-width:0.5;" x1="1686.5" x2="1963.5" y1="334.1543" y2="334.1543"/></g><!--MD5=[86396b9c07b010d65578f8c7d9ff65fc]
class AdvancedQuestion--><g id="elem_AdvancedQuestion"><rect codeLine="54" fill="#F1F1F1" height="100.8281" id="AdvancedQuestion" rx="2.5" ry="2.5" style="stroke:#181818;stroke-width:0.5;" width="410" x="2000" y="241.3262"/><ellipse cx="2140.75" cy="257.3262" fill="#ADD1B2" rx="11" ry="11" style="stroke:#181818;stroke-width:1.0;"/><path d="M2143.5156,253.2012 Q2143.6719,252.9824 2143.8594,252.8731 Q2144.0469,252.7637 2144.2656,252.7637 Q2144.6406,252.7637 2144.875,253.0293 Q2145.1094,253.2793 2145.1094,253.8887 L2145.1094,255.3418 Q2145.1094,255.9512 2144.875,256.2168 Q2144.6406,256.4824 2144.2656,256.4824 Q2143.9219,256.4824 2143.7188,256.2793 Q2143.5156,256.0918 2143.4063,255.5762 Q2143.3594,255.2168 2143.1719,255.0293 Q2142.8438,254.6543 2142.2344,254.4356 Q2141.625,254.2168 2141,254.2168 Q2140.2344,254.2168 2139.5938,254.5449 Q2138.9688,254.8731 2138.4688,255.6231 Q2137.9844,256.3731 2137.9844,257.4043 L2137.9844,258.4981 Q2137.9844,259.7324 2138.875,260.5606 Q2139.7656,261.3731 2141.3594,261.3731 Q2142.2969,261.3731 2142.9531,261.1231 Q2143.3438,260.9668 2143.7656,260.5293 Q2144.0313,260.2637 2144.1719,260.1856 Q2144.3281,260.1074 2144.5313,260.1074 Q2144.8594,260.1074 2145.1094,260.3731 Q2145.375,260.6231 2145.375,260.9668 Q2145.375,261.3106 2145.0313,261.7168 Q2144.5313,262.2949 2143.7344,262.6231 Q2142.6563,263.0762 2141.3594,263.0762 Q2139.8438,263.0762 2138.6406,262.4512 Q2137.6563,261.9512 2136.9688,260.8887 Q2136.2813,259.8106 2136.2813,258.5293 L2136.2813,257.3731 Q2136.2813,256.0449 2136.8906,254.9043 Q2137.5156,253.7481 2138.6094,253.1387 Q2139.7031,252.5137 2140.9375,252.5137 Q2141.6719,252.5137 2142.3125,252.6856 Q2142.9688,252.8418 2143.5156,253.2012 Z " fill="#000000"/><text fill="#000000" font-family="sans-serif" font-size="14" lengthAdjust="spacing" textLength="120" x="2161.25" y="263.0547">AdvancedQuestion</text><line style="stroke:#181818;stroke-width:0.5;" x1="2001" x2="2409" y1="273.3262" y2="273.3262"/><ellipse cx="2011" cy="287.6309" fill="none" rx="3" ry="3" style="stroke:#038048;stroke-width:1.0;"/><text fill="#000000" font-family="sans-serif" font-size="14" lengthAdjust="spacing" textLength="384" x="2020" y="291.8594">statement: "¿La KEYWORD es esta DEFINITION?¿Por qué?"</text><ellipse cx="2011" cy="305.2402" fill="none" rx="3" ry="3" style="stroke:#038048;stroke-width:1.0;"/><text fill="#000000" font-family="sans-serif" font-size="14" lengthAdjust="spacing" textLength="93" x="2020" y="309.4688">1 answer open</text><text fill="#000000" font-family="sans-serif" font-size="14" lengthAdjust="spacing" textLength="113" x="2020" y="327.0781">manual correction</text><line style="stroke:#181818;stroke-width:0.5;" x1="2001" x2="2409" y1="334.1543" y2="334.1543"/></g><!--MD5=[e99f2363cf124030e645b521f7d9110e]
class CompleteQuestion--><g id="elem_CompleteQuestion"><rect codeLine="60" fill="#F1F1F1" height="83.2188" id="CompleteQuestion" rx="2.5" ry="2.5" style="stroke:#181818;stroke-width:0.5;" width="416" x="955" y="250.3262"/><ellipse cx="1100.25" cy="266.3262" fill="#ADD1B2" rx="11" ry="11" style="stroke:#181818;stroke-width:1.0;"/><path d="M1103.0156,262.2012 Q1103.1719,261.9824 1103.3594,261.8731 Q1103.5469,261.7637 1103.7656,261.7637 Q1104.1406,261.7637 1104.375,262.0293 Q1104.6094,262.2793 1104.6094,262.8887 L1104.6094,264.3418 Q1104.6094,264.9512 1104.375,265.2168 Q1104.1406,265.4824 1103.7656,265.4824 Q1103.4219,265.4824 1103.2188,265.2793 Q1103.0156,265.0918 1102.9063,264.5762 Q1102.8594,264.2168 1102.6719,264.0293 Q1102.3438,263.6543 1101.7344,263.4356 Q1101.125,263.2168 1100.5,263.2168 Q1099.7344,263.2168 1099.0938,263.5449 Q1098.4688,263.8731 1097.9688,264.6231 Q1097.4844,265.3731 1097.4844,266.4043 L1097.4844,267.4981 Q1097.4844,268.7324 1098.375,269.5606 Q1099.2656,270.3731 1100.8594,270.3731 Q1101.7969,270.3731 1102.4531,270.1231 Q1102.8438,269.9668 1103.2656,269.5293 Q1103.5313,269.2637 1103.6719,269.1856 Q1103.8281,269.1074 1104.0313,269.1074 Q1104.3594,269.1074 1104.6094,269.3731 Q1104.875,269.6231 1104.875,269.9668 Q1104.875,270.3106 1104.5313,270.7168 Q1104.0313,271.2949 1103.2344,271.6231 Q1102.1563,272.0762 1100.8594,272.0762 Q1099.3438,272.0762 1098.1406,271.4512 Q1097.1563,270.9512 1096.4688,269.8887 Q1095.7813,268.8106 1095.7813,267.5293 L1095.7813,266.3731 Q1095.7813,265.0449 1096.3906,263.9043 Q1097.0156,262.7481 1098.1094,262.1387 Q1099.2031,261.5137 1100.4375,261.5137 Q1101.1719,261.5137 1101.8125,261.6856 Q1102.4688,261.8418 1103.0156,262.2012 Z " fill="#000000"/><text fill="#000000" font-family="sans-serif" font-size="14" lengthAdjust="spacing" textLength="117" x="1120.75" y="272.0547">CompleteQuestion</text><line style="stroke:#181818;stroke-width:0.5;" x1="956" x2="1370" y1="282.3262" y2="282.3262"/><ellipse cx="966" cy="296.6309" fill="none" rx="3" ry="3" style="stroke:#038048;stroke-width:1.0;"/><text fill="#000000" font-family="sans-serif" font-size="14" lengthAdjust="spacing" textLength="390" x="975" y="300.8594">statement: "Es cierto que la CLAVE no es DEFINICION porque</text><text fill="#000000" font-family="sans-serif" font-size="14" lengthAdjust="spacing" textLength="141" x="975" y="318.4688">FAKEJUSTIFICACION"</text><line style="stroke:#181818;stroke-width:0.5;" x1="956" x2="1370" y1="325.5449" y2="325.5449"/></g><!--MD5=[fc7123defb831ecdd44b2d9bcef6cceb]
class Question--><g id="elem_Question"><rect codeLine="65" fill="#F1F1F1" height="48" id="Question" rx="2.5" ry="2.5" style="stroke:#181818;stroke-width:0.5;" width="89" x="641.5" y="124.3262"/><ellipse cx="656.5" cy="140.3262" fill="#ADD1B2" rx="11" ry="11" style="stroke:#181818;stroke-width:1.0;"/><path d="M659.2656,136.2012 Q659.4219,135.9824 659.6094,135.8731 Q659.7969,135.7637 660.0156,135.7637 Q660.3906,135.7637 660.625,136.0293 Q660.8594,136.2793 660.8594,136.8887 L660.8594,138.3418 Q660.8594,138.9512 660.625,139.2168 Q660.3906,139.4824 660.0156,139.4824 Q659.6719,139.4824 659.4688,139.2793 Q659.2656,139.0918 659.1563,138.5762 Q659.1094,138.2168 658.9219,138.0293 Q658.5938,137.6543 657.9844,137.4356 Q657.375,137.2168 656.75,137.2168 Q655.9844,137.2168 655.3438,137.5449 Q654.7188,137.8731 654.2188,138.6231 Q653.7344,139.3731 653.7344,140.4043 L653.7344,141.4981 Q653.7344,142.7324 654.625,143.5606 Q655.5156,144.3731 657.1094,144.3731 Q658.0469,144.3731 658.7031,144.1231 Q659.0938,143.9668 659.5156,143.5293 Q659.7813,143.2637 659.9219,143.1856 Q660.0781,143.1074 660.2813,143.1074 Q660.6094,143.1074 660.8594,143.3731 Q661.125,143.6231 661.125,143.9668 Q661.125,144.3106 660.7813,144.7168 Q660.2813,145.2949 659.4844,145.6231 Q658.4063,146.0762 657.1094,146.0762 Q655.5938,146.0762 654.3906,145.4512 Q653.4063,144.9512 652.7188,143.8887 Q652.0313,142.8106 652.0313,141.5293 L652.0313,140.3731 Q652.0313,139.0449 652.6406,137.9043 Q653.2656,136.7481 654.3594,136.1387 Q655.4531,135.5137 656.6875,135.5137 Q657.4219,135.5137 658.0625,135.6856 Q658.7188,135.8418 659.2656,136.2012 Z " fill="#000000"/><text fill="#000000" font-family="sans-serif" font-size="14" lengthAdjust="spacing" textLength="57" x="670.5" y="146.0547">Question</text><line style="stroke:#181818;stroke-width:0.5;" x1="642.5" x2="729.5" y1="156.3262" y2="156.3262"/><line style="stroke:#181818;stroke-width:0.5;" x1="642.5" x2="729.5" y1="164.3262" y2="164.3262"/></g><!--MD5=[a61a298976b7d1d94498f45c2ebfa10b]
class Statement--><g id="elem_Statement"><rect codeLine="67" fill="#F1F1F1" height="48" id="Statement" rx="2.5" ry="2.5" style="stroke:#181818;stroke-width:0.5;" width="96" x="516" y="267.8262"/><ellipse cx="531" cy="283.8262" fill="#ADD1B2" rx="11" ry="11" style="stroke:#181818;stroke-width:1.0;"/><path d="M533.7656,279.7012 Q533.9219,279.4824 534.1094,279.3731 Q534.2969,279.2637 534.5156,279.2637 Q534.8906,279.2637 535.125,279.5293 Q535.3594,279.7793 535.3594,280.3887 L535.3594,281.8418 Q535.3594,282.4512 535.125,282.7168 Q534.8906,282.9824 534.5156,282.9824 Q534.1719,282.9824 533.9688,282.7793 Q533.7656,282.5918 533.6563,282.0762 Q533.6094,281.7168 533.4219,281.5293 Q533.0938,281.1543 532.4844,280.9356 Q531.875,280.7168 531.25,280.7168 Q530.4844,280.7168 529.8438,281.0449 Q529.2188,281.3731 528.7188,282.1231 Q528.2344,282.8731 528.2344,283.9043 L528.2344,284.9981 Q528.2344,286.2324 529.125,287.0606 Q530.0156,287.8731 531.6094,287.8731 Q532.5469,287.8731 533.2031,287.6231 Q533.5938,287.4668 534.0156,287.0293 Q534.2813,286.7637 534.4219,286.6856 Q534.5781,286.6074 534.7813,286.6074 Q535.1094,286.6074 535.3594,286.8731 Q535.625,287.1231 535.625,287.4668 Q535.625,287.8106 535.2813,288.2168 Q534.7813,288.7949 533.9844,289.1231 Q532.9063,289.5762 531.6094,289.5762 Q530.0938,289.5762 528.8906,288.9512 Q527.9063,288.4512 527.2188,287.3887 Q526.5313,286.3106 526.5313,285.0293 L526.5313,283.8731 Q526.5313,282.5449 527.1406,281.4043 Q527.7656,280.2481 528.8594,279.6387 Q529.9531,279.0137 531.1875,279.0137 Q531.9219,279.0137 532.5625,279.1856 Q533.2188,279.3418 533.7656,279.7012 Z " fill="#000000"/><text fill="#000000" font-family="sans-serif" font-size="14" lengthAdjust="spacing" textLength="64" x="545" y="289.5547">Statement</text><line style="stroke:#181818;stroke-width:0.5;" x1="517" x2="611" y1="299.8262" y2="299.8262"/><line style="stroke:#181818;stroke-width:0.5;" x1="517" x2="611" y1="307.8262" y2="307.8262"/></g><!--MD5=[f9fadfa5a66b7e5a67b370cd443ffe52]
class Answer--><g id="elem_Answer"><rect codeLine="69" fill="#F1F1F1" height="48" id="Answer" rx="2.5" ry="2.5" style="stroke:#181818;stroke-width:0.5;" width="78" x="766" y="124.3262"/><ellipse cx="781" cy="140.3262" fill="#ADD1B2" rx="11" ry="11" style="stroke:#181818;stroke-width:1.0;"/><path d="M783.7656,136.2012 Q783.9219,135.9824 784.1094,135.8731 Q784.2969,135.7637 784.5156,135.7637 Q784.8906,135.7637 785.125,136.0293 Q785.3594,136.2793 785.3594,136.8887 L785.3594,138.3418 Q785.3594,138.9512 785.125,139.2168 Q784.8906,139.4824 784.5156,139.4824 Q784.1719,139.4824 783.9688,139.2793 Q783.7656,139.0918 783.6563,138.5762 Q783.6094,138.2168 783.4219,138.0293 Q783.0938,137.6543 782.4844,137.4356 Q781.875,137.2168 781.25,137.2168 Q780.4844,137.2168 779.8438,137.5449 Q779.2188,137.8731 778.7188,138.6231 Q778.2344,139.3731 778.2344,140.4043 L778.2344,141.4981 Q778.2344,142.7324 779.125,143.5606 Q780.0156,144.3731 781.6094,144.3731 Q782.5469,144.3731 783.2031,144.1231 Q783.5938,143.9668 784.0156,143.5293 Q784.2813,143.2637 784.4219,143.1856 Q784.5781,143.1074 784.7813,143.1074 Q785.1094,143.1074 785.3594,143.3731 Q785.625,143.6231 785.625,143.9668 Q785.625,144.3106 785.2813,144.7168 Q784.7813,145.2949 783.9844,145.6231 Q782.9063,146.0762 781.6094,146.0762 Q780.0938,146.0762 778.8906,145.4512 Q777.9063,144.9512 777.2188,143.8887 Q776.5313,142.8106 776.5313,141.5293 L776.5313,140.3731 Q776.5313,139.0449 777.1406,137.9043 Q777.7656,136.7481 778.8594,136.1387 Q779.9531,135.5137 781.1875,135.5137 Q781.9219,135.5137 782.5625,135.6856 Q783.2188,135.8418 783.7656,136.2012 Z " fill="#000000"/><text fill="#000000" font-family="sans-serif" font-size="14" lengthAdjust="spacing" textLength="46" x="795" y="146.0547">Answer</text><line style="stroke:#181818;stroke-width:0.5;" x1="767" x2="843" y1="156.3262" y2="156.3262"/><line style="stroke:#181818;stroke-width:0.5;" x1="767" x2="843" y1="164.3262" y2="164.3262"/></g><!--MD5=[bc629657279eaa9349f412646650f2c5]
class Correct--><g id="elem_Correct"><rect codeLine="71" fill="#F1F1F1" height="48" id="Correct" rx="2.5" ry="2.5" style="stroke:#181818;stroke-width:0.5;" width="79" x="647.5" y="267.8262"/><ellipse cx="662.5" cy="283.8262" fill="#ADD1B2" rx="11" ry="11" style="stroke:#181818;stroke-width:1.0;"/><path d="M665.2656,279.7012 Q665.4219,279.4824 665.6094,279.3731 Q665.7969,279.2637 666.0156,279.2637 Q666.3906,279.2637 666.625,279.5293 Q666.8594,279.7793 666.8594,280.3887 L666.8594,281.8418 Q666.8594,282.4512 666.625,282.7168 Q666.3906,282.9824 666.0156,282.9824 Q665.6719,282.9824 665.4688,282.7793 Q665.2656,282.5918 665.1563,282.0762 Q665.1094,281.7168 664.9219,281.5293 Q664.5938,281.1543 663.9844,280.9356 Q663.375,280.7168 662.75,280.7168 Q661.9844,280.7168 661.3438,281.0449 Q660.7188,281.3731 660.2188,282.1231 Q659.7344,282.8731 659.7344,283.9043 L659.7344,284.9981 Q659.7344,286.2324 660.625,287.0606 Q661.5156,287.8731 663.1094,287.8731 Q664.0469,287.8731 664.7031,287.6231 Q665.0938,287.4668 665.5156,287.0293 Q665.7813,286.7637 665.9219,286.6856 Q666.0781,286.6074 666.2813,286.6074 Q666.6094,286.6074 666.8594,286.8731 Q667.125,287.1231 667.125,287.4668 Q667.125,287.8106 666.7813,288.2168 Q666.2813,288.7949 665.4844,289.1231 Q664.4063,289.5762 663.1094,289.5762 Q661.5938,289.5762 660.3906,288.9512 Q659.4063,288.4512 658.7188,287.3887 Q658.0313,286.3106 658.0313,285.0293 L658.0313,283.8731 Q658.0313,282.5449 658.6406,281.4043 Q659.2656,280.2481 660.3594,279.6387 Q661.4531,279.0137 662.6875,279.0137 Q663.4219,279.0137 664.0625,279.1856 Q664.7188,279.3418 665.2656,279.7012 Z " fill="#000000"/><text fill="#000000" font-family="sans-serif" font-size="14" lengthAdjust="spacing" textLength="47" x="676.5" y="289.5547">Correct</text><line style="stroke:#181818;stroke-width:0.5;" x1="648.5" x2="725.5" y1="299.8262" y2="299.8262"/><line style="stroke:#181818;stroke-width:0.5;" x1="648.5" x2="725.5" y1="307.8262" y2="307.8262"/></g><!--MD5=[37923dc032bbfca87d4413e584fa2cda]
class Incorrect--><g id="elem_Incorrect"><rect codeLine="73" fill="#F1F1F1" height="48" id="Incorrect" rx="2.5" ry="2.5" style="stroke:#181818;stroke-width:0.5;" width="87" x="761.5" y="267.8262"/><ellipse cx="776.5" cy="283.8262" fill="#ADD1B2" rx="11" ry="11" style="stroke:#181818;stroke-width:1.0;"/><path d="M779.2656,279.7012 Q779.4219,279.4824 779.6094,279.3731 Q779.7969,279.2637 780.0156,279.2637 Q780.3906,279.2637 780.625,279.5293 Q780.8594,279.7793 780.8594,280.3887 L780.8594,281.8418 Q780.8594,282.4512 780.625,282.7168 Q780.3906,282.9824 780.0156,282.9824 Q779.6719,282.9824 779.4688,282.7793 Q779.2656,282.5918 779.1563,282.0762 Q779.1094,281.7168 778.9219,281.5293 Q778.5938,281.1543 777.9844,280.9356 Q777.375,280.7168 776.75,280.7168 Q775.9844,280.7168 775.3438,281.0449 Q774.7188,281.3731 774.2188,282.1231 Q773.7344,282.8731 773.7344,283.9043 L773.7344,284.9981 Q773.7344,286.2324 774.625,287.0606 Q775.5156,287.8731 777.1094,287.8731 Q778.0469,287.8731 778.7031,287.6231 Q779.0938,287.4668 779.5156,287.0293 Q779.7813,286.7637 779.9219,286.6856 Q780.0781,286.6074 780.2813,286.6074 Q780.6094,286.6074 780.8594,286.8731 Q781.125,287.1231 781.125,287.4668 Q781.125,287.8106 780.7813,288.2168 Q780.2813,288.7949 779.4844,289.1231 Q778.4063,289.5762 777.1094,289.5762 Q775.5938,289.5762 774.3906,288.9512 Q773.4063,288.4512 772.7188,287.3887 Q772.0313,286.3106 772.0313,285.0293 L772.0313,283.8731 Q772.0313,282.5449 772.6406,281.4043 Q773.2656,280.2481 774.3594,279.6387 Q775.4531,279.0137 776.6875,279.0137 Q777.4219,279.0137 778.0625,279.1856 Q778.7188,279.3418 779.2656,279.7012 Z " fill="#000000"/><text fill="#000000" font-family="sans-serif" font-size="14" lengthAdjust="spacing" textLength="55" x="790.5" y="289.5547">Incorrect</text><line style="stroke:#181818;stroke-width:0.5;" x1="762.5" x2="847.5" y1="299.8262" y2="299.8262"/><line style="stroke:#181818;stroke-width:0.5;" x1="762.5" x2="847.5" y1="307.8262" y2="307.8262"/></g><!--MD5=[91aab5f471a82537445da220be2b8bc1]
class WithComposition--><g id="elem_WithComposition"><rect fill="#F1F1F1" height="48" id="WithComposition" rx="2.5" ry="2.5" style="stroke:#181818;stroke-width:0.5;" width="138" x="2445" y="267.8262"/><ellipse cx="2460" cy="283.8262" fill="#ADD1B2" rx="11" ry="11" style="stroke:#181818;stroke-width:1.0;"/><path d="M2462.7656,279.7012 Q2462.9219,279.4824 2463.1094,279.3731 Q2463.2969,279.2637 2463.5156,279.2637 Q2463.8906,279.2637 2464.125,279.5293 Q2464.3594,279.7793 2464.3594,280.3887 L2464.3594,281.8418 Q2464.3594,282.4512 2464.125,282.7168 Q2463.8906,282.9824 2463.5156,282.9824 Q2463.1719,282.9824 2462.9688,282.7793 Q2462.7656,282.5918 2462.6563,282.0762 Q2462.6094,281.7168 2462.4219,281.5293 Q2462.0938,281.1543 2461.4844,280.9356 Q2460.875,280.7168 2460.25,280.7168 Q2459.4844,280.7168 2458.8438,281.0449 Q2458.2188,281.3731 2457.7188,282.1231 Q2457.2344,282.8731 2457.2344,283.9043 L2457.2344,284.9981 Q2457.2344,286.2324 2458.125,287.0606 Q2459.0156,287.8731 2460.6094,287.8731 Q2461.5469,287.8731 2462.2031,287.6231 Q2462.5938,287.4668 2463.0156,287.0293 Q2463.2813,286.7637 2463.4219,286.6856 Q2463.5781,286.6074 2463.7813,286.6074 Q2464.1094,286.6074 2464.3594,286.8731 Q2464.625,287.1231 2464.625,287.4668 Q2464.625,287.8106 2464.2813,288.2168 Q2463.7813,288.7949 2462.9844,289.1231 Q2461.9063,289.5762 2460.6094,289.5762 Q2459.0938,289.5762 2457.8906,288.9512 Q2456.9063,288.4512 2456.2188,287.3887 Q2455.5313,286.3106 2455.5313,285.0293 L2455.5313,283.8731 Q2455.5313,282.5449 2456.1406,281.4043 Q2456.7656,280.2481 2457.8594,279.6387 Q2458.9531,279.0137 2460.1875,279.0137 Q2460.9219,279.0137 2461.5625,279.1856 Q2462.2188,279.3418 2462.7656,279.7012 Z " fill="#000000"/><text fill="#000000" font-family="sans-serif" font-size="14" lengthAdjust="spacing" textLength="106" x="2474" y="289.5547">WithComposition</text><line style="stroke:#181818;stroke-width:0.5;" x1="2446" x2="2582" y1="299.8262" y2="299.8262"/><line style="stroke:#181818;stroke-width:0.5;" x1="2446" x2="2582" y1="307.8262" y2="307.8262"/></g><!--MD5=[b3651bc95d00c49f5492b86cbd775075]
class WithClassification--><g id="elem_WithClassification"><rect fill="#F1F1F1" height="48" id="WithClassification" rx="2.5" ry="2.5" style="stroke:#181818;stroke-width:0.5;" width="143" x="2618.5" y="267.8262"/><ellipse cx="2633.5" cy="283.8262" fill="#ADD1B2" rx="11" ry="11" style="stroke:#181818;stroke-width:1.0;"/><path d="M2636.2656,279.7012 Q2636.4219,279.4824 2636.6094,279.3731 Q2636.7969,279.2637 2637.0156,279.2637 Q2637.3906,279.2637 2637.625,279.5293 Q2637.8594,279.7793 2637.8594,280.3887 L2637.8594,281.8418 Q2637.8594,282.4512 2637.625,282.7168 Q2637.3906,282.9824 2637.0156,282.9824 Q2636.6719,282.9824 2636.4688,282.7793 Q2636.2656,282.5918 2636.1563,282.0762 Q2636.1094,281.7168 2635.9219,281.5293 Q2635.5938,281.1543 2634.9844,280.9356 Q2634.375,280.7168 2633.75,280.7168 Q2632.9844,280.7168 2632.3438,281.0449 Q2631.7188,281.3731 2631.2188,282.1231 Q2630.7344,282.8731 2630.7344,283.9043 L2630.7344,284.9981 Q2630.7344,286.2324 2631.625,287.0606 Q2632.5156,287.8731 2634.1094,287.8731 Q2635.0469,287.8731 2635.7031,287.6231 Q2636.0938,287.4668 2636.5156,287.0293 Q2636.7813,286.7637 2636.9219,286.6856 Q2637.0781,286.6074 2637.2813,286.6074 Q2637.6094,286.6074 2637.8594,286.8731 Q2638.125,287.1231 2638.125,287.4668 Q2638.125,287.8106 2637.7813,288.2168 Q2637.2813,288.7949 2636.4844,289.1231 Q2635.4063,289.5762 2634.1094,289.5762 Q2632.5938,289.5762 2631.3906,288.9512 Q2630.4063,288.4512 2629.7188,287.3887 Q2629.0313,286.3106 2629.0313,285.0293 L2629.0313,283.8731 Q2629.0313,282.5449 2629.6406,281.4043 Q2630.2656,280.2481 2631.3594,279.6387 Q2632.4531,279.0137 2633.6875,279.0137 Q2634.4219,279.0137 2635.0625,279.1856 Q2635.7188,279.3418 2636.2656,279.7012 Z " fill="#000000"/><text fill="#000000" font-family="sans-serif" font-size="14" lengthAdjust="spacing" textLength="111" x="2647.5" y="289.5547">WithClassification</text><line style="stroke:#181818;stroke-width:0.5;" x1="2619.5" x2="2760.5" y1="299.8262" y2="299.8262"/><line style="stroke:#181818;stroke-width:0.5;" x1="2619.5" x2="2760.5" y1="307.8262" y2="307.8262"/></g><!--MD5=[c98fdacbcd4eb224c2d9d26b53646e58]
reverse link Category to Category--><g id="link_Category_Category"><path codeLine="75" d="M546.6,10.2762 C559.03,12.4162 568,19.4362 568,31.3262 C568,47.1862 552.05,54.3762 533.23,52.8862 " fill="none" id="Category-backto-Category" style="stroke:#181818;stroke-width:1.0;"/><polygon fill="none" points="533.23,9.7662,539.0717,13.9941,545.2211,10.2279,539.3795,6,533.23,9.7662" style="stroke:#181818;stroke-width:1.0;"/><text fill="#000000" font-family="sans-serif" font-size="13" lengthAdjust="spacing" textLength="22" x="541.1373" y="52.3129">0..n</text></g><!--MD5=[06548aa1c124b95fb51b5a3e485cae93]
link Category to Concept--><g id="link_Category_Concept"><path codeLine="77" d="M447.73,55.5962 C416.74,73.5062 373.71,98.3762 340.26,117.6962 " fill="none" id="Category-to-Concept" style="stroke:#181818;stroke-width:1.0;"/><polygon fill="#181818" points="328.87,124.2862,336.0664,124.746,339.2587,118.28,332.0623,117.8202,328.87,124.2862" style="stroke:#181818;stroke-width:1.0;"/></g><!--MD5=[357c4abe4ae02615f163987610a5cb7f]
reverse link Concept to Keyword--><g id="link_Concept_Keyword"><path codeLine="78" d="M234.32,177.0162 C200.77,194.5062 157.25,218.1262 120,241.3262 C106.99,249.4262 93.11,259.0262 81.18,267.6062 " fill="none" id="Concept-backto-Keyword" style="stroke:#181818;stroke-width:1.0;"/><polygon fill="#181818" points="246.2,170.8562,239.0322,170.0673,235.5471,176.3804,242.715,177.1692,246.2,170.8562" style="stroke:#181818;stroke-width:1.0;"/></g><!--MD5=[543bb2115b5a10697a67507a00f6a2f4]
reverse link Concept to Definition--><g id="link_Concept_Definition"><path codeLine="79" d="M322.26,181.5562 C349.39,207.8562 387.05,244.3562 411.23,267.7862 " fill="none" id="Concept-backto-Definition" style="stroke:#181818;stroke-width:1.0;"/><polygon fill="none" points="312.78,172.3762,314.304,179.4244,321.3962,180.7285,319.8722,173.6803,312.78,172.3762" style="stroke:#181818;stroke-width:1.0;"/><text fill="#000000" font-family="sans-serif" font-size="13" lengthAdjust="spacing" textLength="22" x="380.3202" y="257.1161">0..n</text></g><!--MD5=[d5ca03c977d831fd4c76b3fa51a69d9d]
reverse link Definition to RealDefinition--><g id="link_Definition_RealDefinition"><path codeLine="80" d="M480.22,328.4962 C509.96,351.9462 547.99,381.9362 573.79,402.2862 " fill="none" id="Definition-backto-RealDefinition" style="stroke:#181818;stroke-width:1.0;"/><polygon fill="none" points="475.63,333.7862,464.26,315.9062,484.3,322.7962,475.63,333.7862" style="stroke:#181818;stroke-width:1.0;"/></g><!--MD5=[25e58a9c0be8a439885c1458066c607c]
reverse link Definition to FakeDefinition--><g id="link_Definition_FakeDefinition"><path codeLine="81" d="M438.6,336.1562 C440.42,358.1062 442.56,383.8862 444.07,402.0662 " fill="none" id="Definition-backto-FakeDefinition" style="stroke:#181818;stroke-width:1.0;"/><polygon fill="none" points="431.59,336.4162,436.92,315.9062,445.55,335.2562,431.59,336.4162" style="stroke:#181818;stroke-width:1.0;"/></g><!--MD5=[78bd55957e0cd29febcd097f805d8b51]
reverse link RealDefinition to Justification--><g id="link_RealDefinition_Justification"><path codeLine="83" d="M603,463.6662 C603,479.0062 603,496.4262 603,510.0062 " fill="none" id="RealDefinition-backto-Justification" style="stroke:#181818;stroke-width:1.0;"/><polygon fill="none" points="603,450.3262,599,456.3262,603,462.3262,607,456.3262,603,450.3262" style="stroke:#181818;stroke-width:1.0;"/><text fill="#000000" font-family="sans-serif" font-size="13" lengthAdjust="spacing" textLength="22" x="578.3188" y="499.6662">0..n</text></g><!--MD5=[f12615961f0f17a875f73130a94f8aba]
reverse link FakeDefinition to Justification--><g id="link_FakeDefinition_Justification"><path codeLine="84" d="M491,457.7062 C515.73,474.4062 545.93,494.7962 568.73,510.1862 " fill="none" id="FakeDefinition-backto-Justification" style="stroke:#181818;stroke-width:1.0;"/><polygon fill="none" points="480.07,450.3262,482.8029,456.9994,490.0139,457.0433,487.281,450.3701,480.07,450.3262" style="stroke:#181818;stroke-width:1.0;"/><text fill="#000000" font-family="sans-serif" font-size="13" lengthAdjust="spacing" textLength="22" x="535.1296" y="499.4905">0..n</text></g><!--MD5=[0c4c23651a46cdff2b6bbd2c219913dd]
reverse link Justification to RealJustification--><g id="link_Justification_RealJustification"><path codeLine="86" d="M571.97,574.0262 C560.14,588.7762 547.04,605.1162 536.7,618.0062 " fill="none" id="Justification-backto-RealJustification" style="stroke:#181818;stroke-width:1.0;"/><polygon fill="none" points="566.58,569.5462,584.56,558.3262,577.51,578.3062,566.58,569.5462" style="stroke:#181818;stroke-width:1.0;"/></g><!--MD5=[ceb9e2406f870d29d588271060052454]
reverse link Justification to FakeJustification--><g id="link_Justification_FakeJustification"><path codeLine="87" d="M634.4,574.0262 C646.36,588.7762 659.62,605.1162 670.08,618.0062 " fill="none" id="Justification-backto-FakeJustification" style="stroke:#181818;stroke-width:1.0;"/><polygon fill="none" points="628.83,578.2662,621.66,558.3262,639.7,569.4462,628.83,578.2662" style="stroke:#181818;stroke-width:1.0;"/></g><!--MD5=[54f9360500e0fd532969fc16f437bbea]
reverse link Concept to Relation--><g id="link_Concept_Relation"><path codeLine="89" d="M276.99,184.7162 C268.18,210.7162 256.45,245.2762 248.82,267.7862 " fill="none" id="Concept-backto-Relation" style="stroke:#181818;stroke-width:1.0;"/><polygon fill="none" points="281.18,172.3762,275.4649,176.7736,277.3259,183.7404,283.041,179.343,281.18,172.3762" style="stroke:#181818;stroke-width:1.0;"/><text fill="#000000" font-family="sans-serif" font-size="13" lengthAdjust="spacing" textLength="22" x="226.0051" y="257.1161">0..n</text></g><!--MD5=[90ea77717cc70d7f588b001bbb985d62]
reverse link Relation to Classification--><g id="link_Relation_Classification"><path codeLine="90" d="M212.61,332.4262 C196.33,355.1262 176.46,382.8462 162.68,402.0662 " fill="none" id="Relation-backto-Classification" style="stroke:#181818;stroke-width:1.0;"/><polygon fill="none" points="207.11,328.0762,224.45,315.9062,218.49,336.2362,207.11,328.0762" style="stroke:#181818;stroke-width:1.0;"/></g><!--MD5=[aac130c8b5f905729b18e85e231f7b50]
reverse link Relation to Composition--><g id="link_Relation_Composition"><path codeLine="91" d="M257.79,334.7862 C266.68,357.0262 277.27,383.5062 284.7,402.0662 " fill="none" id="Relation-backto-Composition" style="stroke:#181818;stroke-width:1.0;"/><polygon fill="none" points="251.16,337.0762,250.23,315.9062,264.16,331.8762,251.16,337.0762" style="stroke:#181818;stroke-width:1.0;"/></g><!--MD5=[4348f2376e3bf4446bb805b359d93b50]
reverse link Classification to Concept--><g id="link_Classification_Concept"><path codeLine="92" d="M146.21,388.9062 C147.94,349.9062 155.18,287.4362 182,241.3262 C198.63,212.7362 227.48,188.7162 251.03,172.3962 " fill="none" id="Classification-backto-Concept" style="stroke:#181818;stroke-width:1.0;"/><polygon fill="#181818" points="145.79,402.1362,149.9791,396.2666,146.1722,390.1423,141.9831,396.0118,145.79,402.1362" style="stroke:#181818;stroke-width:1.0;"/><text fill="#000000" font-family="sans-serif" font-size="13" lengthAdjust="spacing" textLength="22" x="217.0936" y="193.7512">2..n</text></g><!--MD5=[585161ca14248a4093b9d8037fe841a0]
reverse link Composition to Concept--><g id="link_Composition_Concept"><path codeLine="93" d="M297.73,389.0462 C299.04,374.5362 300.35,357.6562 301,342.3262 C302.89,297.4762 303.91,286.1162 301,241.3262 C299.48,217.8562 295.79,191.2362 292.9,172.6862 " fill="none" id="Composition-backto-Concept" style="stroke:#181818;stroke-width:1.0;"/><polygon fill="#181818" points="296.48,402.1062,301.0297,396.5115,297.6152,390.16,293.0655,395.7547,296.48,402.1062" style="stroke:#181818;stroke-width:1.0;"/><text fill="#000000" font-family="sans-serif" font-size="13" lengthAdjust="spacing" textLength="22" x="269.2581" y="193.7052">1..n</text></g><!--MD5=[1a1b676d11de0d3c9f1436eb98d48270]
link Category to Question--><g id="link_Category_Question"><path codeLine="95" d="M528.07,55.5962 C558.9,73.5062 601.72,98.3762 634.99,117.6962 " fill="none" id="Category-to-Question" style="stroke:#181818;stroke-width:1.0;"/><polygon fill="#181818" points="646.33,124.2862,643.1536,117.8124,635.956,118.2545,639.1325,124.7283,646.33,124.2862" style="stroke:#181818;stroke-width:1.0;"/></g><!--MD5=[2feebbf5a2a7ca3d6cf397d4221288ef]
reverse link Level to Primary--><g id="link_Level_Primary"><path codeLine="97" d="M1528,75.9462 C1528,88.8862 1528,102.8362 1528,114.9362 " fill="none" id="Level-backto-Primary" style="stroke:#181818;stroke-width:1.0;"/><polygon fill="none" points="1521,75.5962,1528,55.5962,1535,75.5962,1521,75.5962" style="stroke:#181818;stroke-width:1.0;"/></g><!--MD5=[cb19bd22a149a884c5664d5c3292c3d0]
reverse link Level to Secundary--><g id="link_Level_Secundary"><path codeLine="98" d="M1579.91,52.4262 C1634.81,73.6862 1720.82,106.9862 1774.99,127.9562 " fill="none" id="Level-backto-Secundary" style="stroke:#181818;stroke-width:1.0;"/><polygon fill="none" points="1577.33,58.9362,1561.21,45.1862,1582.38,45.8762,1577.33,58.9362" style="stroke:#181818;stroke-width:1.0;"/></g><!--MD5=[05d0a703757aee1cfd30e35a16292b7e]
reverse link Level to Tertiary--><g id="link_Level_Tertiary"><path codeLine="99" d="M1475.86,48.7562 C1407.31,70.3562 1287.44,108.1162 1217.66,130.1062 " fill="none" id="Level-backto-Tertiary" style="stroke:#181818;stroke-width:1.0;"/><polygon fill="none" points="1473.79,42.0662,1494.96,42.7362,1477.99,55.4162,1473.79,42.0662" style="stroke:#181818;stroke-width:1.0;"/></g><!--MD5=[190903417787c7a50828c8a2f04f170d]
reverse link Level to WithRelations--><g id="link_Level_WithRelations"><path codeLine="100" d="M1581,38.5062 C1750.15,58.2362 2276.46,119.6162 2454.47,140.3862 " fill="none" id="Level-backto-WithRelations" style="stroke:#181818;stroke-width:1.0;"/><polygon fill="none" points="1580.14,45.4562,1561.09,36.1862,1581.76,31.5462,1580.14,45.4562" style="stroke:#181818;stroke-width:1.0;"/></g><!--MD5=[f60819c674124d24aafe38fb8f016f1e]
reverse link WithRelations to WithComposition--><g id="link_WithRelations_WithComposition"><path codeLine="101" d="M2514,192.4162 C2514,217.2362 2514,247.4362 2514,267.7862 " fill="none" id="WithRelations-backto-WithComposition" style="stroke:#181818;stroke-width:1.0;"/><polygon fill="none" points="2507,192.3762,2514,172.3762,2521,192.3762,2507,192.3762" style="stroke:#181818;stroke-width:1.0;"/></g><!--MD5=[4f19c56b09bf4a03ee716bad7bd99579]
reverse link WithRelations to WithClassification--><g id="link_WithRelations_WithClassification"><path codeLine="102" d="M2558.46,185.0762 C2590.75,211.0262 2633.48,245.3862 2661.34,267.7862 " fill="none" id="WithRelations-backto-WithClassification" style="stroke:#181818;stroke-width:1.0;"/><polygon fill="none" points="2553.87,190.3662,2542.67,172.3762,2562.64,179.4562,2553.87,190.3662" style="stroke:#181818;stroke-width:1.0;"/></g><!--MD5=[a7d1f1197e1fc189c9dfe24b1a23c1d9]
reverse link Primary to BasicQuestion--><g id="link_Primary_BasicQuestion"><path codeLine="108" d="M1528,201.8862 C1528,214.7062 1528,228.3862 1528,241.0762 " fill="none" id="Primary-backto-BasicQuestion" style="stroke:#181818;stroke-width:1.0;"/><polygon fill="none" points="1521,201.4362,1528,181.4362,1535,201.4362,1521,201.4362" style="stroke:#181818;stroke-width:1.0;"/></g><!--MD5=[1fb758b4586631210d3c4eb98f4427f2]
reverse link Secundary to ReverseQuestion--><g id="link_Secundary_ReverseQuestion"><path codeLine="115" d="M1825,201.8862 C1825,214.7062 1825,228.3862 1825,241.0762 " fill="none" id="Secundary-backto-ReverseQuestion" style="stroke:#181818;stroke-width:1.0;"/><polygon fill="none" points="1818,201.4362,1825,181.4362,1832,201.4362,1818,201.4362" style="stroke:#181818;stroke-width:1.0;"/></g><!--MD5=[5f05352303eb895d4256306015685c7a]
reverse link Secundary to AdvancedQuestion--><g id="link_Secundary_AdvancedQuestion"><path codeLine="118" d="M1894.06,175.0462 C1943.56,193.4762 2011.81,218.8862 2071.76,241.2062 " fill="none" id="Secundary-backto-AdvancedQuestion" style="stroke:#181818;stroke-width:1.0;"/><polygon fill="none" points="1891.37,181.5062,1875.07,167.9662,1896.25,168.3862,1891.37,181.5062" style="stroke:#181818;stroke-width:1.0;"/></g><!--MD5=[200c3acd40b8e50ea708f0dd7ef66a53]
reverse link Tertiary to Justification--><g id="link_Tertiary_Justification"><path codeLine="123" d="M1103.19,163.8162 C1054.88,177.7262 987.1,202.4462 938,241.3262 C894.78,275.5562 904.81,303.1762 866,342.3262 C795.68,413.2662 696.88,477.4162 642.59,510.2562 " fill="none" id="Tertiary-backto-Justification" style="stroke:#181818;stroke-width:1.0;stroke-dasharray:7.0,7.0;"/><polygon fill="#181818" points="1108.1,162.4162,1098.3474,161.0426,1103.2924,163.7898,1100.5452,168.7348,1108.1,162.4162" style="stroke:#181818;stroke-width:1.0;"/></g><!--MD5=[dd354552519de01638a6f2314751bc74]
reverse link Tertiary to CompleteQuestion--><g id="link_Tertiary_CompleteQuestion"><path codeLine="125" d="M1163,201.4762 C1163,217.5662 1163,235.0362 1163,250.2262 " fill="none" id="Tertiary-backto-CompleteQuestion" style="stroke:#181818;stroke-width:1.0;"/><polygon fill="none" points="1156,201.4362,1163,181.4362,1170,201.4362,1156,201.4362" style="stroke:#181818;stroke-width:1.0;"/></g><!--MD5=[b14e1fcdfcb60d39b6e3f6e87700db73]
link Level to Question--><g id="link_Level_Question"><path codeLine="132" d="M1494.89,31.6262 C1385.76,30.1862 1028.39,32.5462 749,115.3262 C745.42,116.3862 741.79,117.6462 738.19,119.0462 " fill="none" id="Level-to-Question" style="stroke:#181818;stroke-width:1.0;"/><polygon fill="#181818" points="726.11,124.2462,733.2034,125.5439,737.1295,119.4953,730.0361,118.1976,726.11,124.2462" style="stroke:#181818;stroke-width:1.0;"/></g><!--MD5=[6eeca14f8a2ed45d1117f4ed4af75b7e]
link Question to Statement--><g id="link_Question_Statement"><path codeLine="133" d="M658.2869,181.4584 C658.2869,181.4584 612,235.1562 592.38,257.9062 " fill="none" id="Question-Statement" style="stroke:#181818;stroke-width:1.0;"/><polygon fill="#181818" points="583.86,267.7862,592.7697,263.5889,587.128,264.0019,586.7149,258.3602,583.86,267.7862" style="stroke:#181818;stroke-width:1.0;"/><line style="stroke:#181818;stroke-width:1.0;" x1="587.128" x2="592.355" y1="264.0019" y2="257.9412"/><polygon fill="#181818" points="666.13,172.3762,659.1811,174.3029,658.2869,181.4584,665.2358,179.5316,666.13,172.3762" style="stroke:#181818;stroke-width:1.0;"/></g><!--MD5=[bcbd408316bb9144f3569d3bcde56d28]
link Question to Incorrect--><g id="link_Question_Incorrect"><path codeLine="134" d="M713.1088,181.5558 C713.1088,181.5558 758.08,235.0362 777.1,257.6462 " fill="none" id="Question-Incorrect" style="stroke:#181818;stroke-width:1.0;"/><polygon fill="#181818" points="785.62,267.7862,782.89,258.3233,782.4024,263.9591,776.7666,263.4715,785.62,267.7862" style="stroke:#181818;stroke-width:1.0;"/><line style="stroke:#181818;stroke-width:1.0;" x1="782.4024" x2="777.255" y1="263.9591" y2="257.8362"/><polygon fill="none" points="705.38,172.3762,706.1845,179.5423,713.1088,181.5558,712.3043,174.3897,705.38,172.3762" style="stroke:#181818;stroke-width:1.0;"/></g><!--MD5=[fad82a5e9ec53f6abc538956bca6f09b]
link Question to Correct--><g id="link_Question_Correct"><path codeLine="135" d="M686.2391,184.3759 C686.2391,184.3759 686.59,233.4862 686.74,254.7362 " fill="none" id="Question-Correct" style="stroke:#181818;stroke-width:1.0;"/><polygon fill="#181818" points="686.84,267.7862,690.7806,258.76,686.807,262.7863,682.7807,258.8128,686.84,267.7862" style="stroke:#181818;stroke-width:1.0;"/><line style="stroke:#181818;stroke-width:1.0;" x1="686.807" x2="686.75" y1="262.7863" y2="254.7862"/><polygon fill="none" points="686.16,172.3762,682.1996,178.4024,686.2391,184.3759,690.1995,178.3497,686.16,172.3762" style="stroke:#181818;stroke-width:1.0;"/></g><!--MD5=[b1491d38e87214202fddacec717a9c8d]
reverse link Answer to Correct--><g id="link_Answer_Correct"><path codeLine="136" d="M772.78,187.9662 C751.46,213.5362 724.21,246.2062 706.21,267.7862 " fill="none" id="Answer-backto-Correct" style="stroke:#181818;stroke-width:1.0;"/><polygon fill="none" points="767.59,183.2562,785.78,172.3762,778.35,192.2162,767.59,183.2562" style="stroke:#181818;stroke-width:1.0;"/></g><!--MD5=[a6181c8180a1587156cddad319d63c9e]
reverse link Answer to Incorrect--><g id="link_Answer_Incorrect"><path codeLine="137" d="M805,192.4162 C805,217.2362 805,247.4362 805,267.7862 " fill="none" id="Answer-backto-Incorrect" style="stroke:#181818;stroke-width:1.0;"/><polygon fill="none" points="798,192.3762,805,172.3762,812,192.3762,798,192.3762" style="stroke:#181818;stroke-width:1.0;"/></g><!--MD5=[f5e125d2bc719db9fe7de8917c9c03ae]
@startuml ConceptDomainDetail

class Category 

class Concept

class Keyword

class Definition

class RealDefinition

class FakeDefinition

class Justification

class RealJustification

class FakeJustification

class Relation

class Classification

class Composition

class Level

class Primary {
    withKeyword
}

class Secundary {
    withDefinition
}

class Tertiary {
    withJustification
}

class WithRelations

class BasicQuestion {
    + statement: "¿Qué es KEYWORD?"
    + 1 answer open
   manual correction 
}

class ReverseQuestion {
    +statement: "¿Qué es esta DEFINITION?"
    + 1 answer open
    manual correction 
}

class AdvancedQuestion {
    +statement: "¿La KEYWORD es esta DEFINITION?¿Por qué?"
    + 1 answer open
    manual correction 
}

class CompleteQuestion {
    +statement: "Es cierto que la CLAVE no es DEFINICION porque
FAKEJUSTIFICACION"
}

class Question 

class Statement

class Answer 

class Correct

Class Incorrect

Category o- -"0..n" Category

Category - -* Concept
Concept *- - Keyword
Concept o- -"0..n" Definition
Definition <|- - RealDefinition
Definition <|- - FakeDefinition

RealDefinition o- - "0..n" Justification
FakeDefinition o- - "0..n" Justification

Justification <|- - RealJustification
Justification <|- - FakeJustification

Concept o- - "0..n" Relation
Relation <|- - Classification
Relation <|- - Composition
Classification *- - "2..n" Concept
Composition *- - "1..n" Concept

Category - -* Question

Level <|- - Primary
Level <|- - Secundary
Level <|- - Tertiary
Level <|- - WithRelations
  WithRelations <|- - WithComposition
  WithRelations <|- - WithClassification
 'WithRelations <|- - WithAsociation
 'WithRelations <|- - WithUse

 'Primary <.. Keyword
 
 Primary <|- - BasicQuestion
 'BasicQuestion - -|> Open
 'BasicQuestion - -> Definition

 'Secundary <.. Keyword
 'Secundary <.. Definition

 Secundary <|- - ReverseQuestion
 ' ReverseQuestion - -|> Open
 ' ReverseQuestion - -> Relation
 Secundary <|- - AdvancedQuestion
 ' AdvancedQuestion - -> Justification

 'Tertiary <.. Keyword
 'Tertiary <.. Definition
 Tertiary <.. Justification
 
    Tertiary <|- - CompleteQuestion

'Type - -* Question
'Type <|- - Open
'Type <|- - Automatic


Level - -* Question
Question *- ->  Statement
Question o- ->  Incorrect
Question o- ->  Correct
Answer <|- - Correct
Answer <|- - Incorrect

 









@end

@startuml ConceptDomainDetail

class Category 

class Concept

class Keyword

class Definition

class RealDefinition

class FakeDefinition

class Justification

class RealJustification

class FakeJustification

class Relation

class Classification

class Composition

class Level

class Primary {
    withKeyword
}

class Secundary {
    withDefinition
}

class Tertiary {
    withJustification
}

class WithRelations

class BasicQuestion {
    + statement: "¿Qué es KEYWORD?"
    + 1 answer open
   manual correction 
}

class ReverseQuestion {
    +statement: "¿Qué es esta DEFINITION?"
    + 1 answer open
    manual correction 
}

class AdvancedQuestion {
    +statement: "¿La KEYWORD es esta DEFINITION?¿Por qué?"
    + 1 answer open
    manual correction 
}

class CompleteQuestion {
    +statement: "Es cierto que la CLAVE no es DEFINICION porque
FAKEJUSTIFICACION"
}

class Question 

class Statement

class Answer 

class Correct

Class Incorrect

Category o- -"0..n" Category

Category - -* Concept
Concept *- - Keyword
Concept o- -"0..n" Definition
Definition <|- - RealDefinition
Definition <|- - FakeDefinition

RealDefinition o- - "0..n" Justification
FakeDefinition o- - "0..n" Justification

Justification <|- - RealJustification
Justification <|- - FakeJustification

Concept o- - "0..n" Relation
Relation <|- - Classification
Relation <|- - Composition
Classification *- - "2..n" Concept
Composition *- - "1..n" Concept

Category - -* Question

Level <|- - Primary
Level <|- - Secundary
Level <|- - Tertiary
Level <|- - WithRelations
  WithRelations <|- - WithComposition
  WithRelations <|- - WithClassification

 
 Primary <|- - BasicQuestion


 Secundary <|- - ReverseQuestion
 Secundary <|- - AdvancedQuestion

 Tertiary <.. Justification
 
    Tertiary <|- - CompleteQuestion



Level - -* Question
Question *- ->  Statement
Question o- ->  Incorrect
Question o- ->  Correct
Answer <|- - Correct
Answer <|- - Incorrect

 









@end

PlantUML version 1.2022.7(Mon Aug 22 18:01:30 WEST 2022)
(GPL source distribution)
Java Runtime: OpenJDK Runtime Environment
JVM: OpenJDK 64-Bit Server VM
Default Encoding: Cp1252
Language: es
Country: ES
--></g></svg>