<?xml version="1.0" encoding="UTF-8" standalone="no"?><svg xmlns="http://www.w3.org/2000/svg" xmlns:xlink="http://www.w3.org/1999/xlink" contentStyleType="text/css" height="675px" preserveAspectRatio="none" style="width:1690px;height:675px;background:#FFFFFF;" version="1.1" viewBox="0 0 1690 675" width="1690px" zoomAndPan="magnify"><defs/><g><!--MD5=[800d1ea9df5e2ea861ad73a71a5c0c7b]
cluster Primary:withKeyword--><g id="cluster_Primary:withKeyword"><path d="M151.99,397 L298.99,397 A3.75,3.75 0 0 1 301.49,399.5 L308.49,420.6094 L1192.99,420.6094 A2.5,2.5 0 0 1 1195.49,423.1094 L1195.49,529.5 A2.5,2.5 0 0 1 1192.99,532 L151.99,532 A2.5,2.5 0 0 1 149.49,529.5 L149.49,399.5 A2.5,2.5 0 0 1 151.99,397 " fill="none" style="stroke:#000000;stroke-width:1.5;"/><line style="stroke:#000000;stroke-width:1.5;" x1="149.49" x2="308.49" y1="420.6094" y2="420.6094"/><text fill="#000000" font-family="sans-serif" font-size="14" font-weight="bold" lengthAdjust="spacing" textLength="146" x="153.49" y="413.5332">Primary:withKeyword</text></g><!--MD5=[f524f4843046d594e03236310757e034]
cluster Bridge--><g id="cluster_Bridge"><path d="M619.99,132 L667.99,132 A3.75,3.75 0 0 1 670.49,134.5 L677.49,155.6094 L1081.99,155.6094 A2.5,2.5 0 0 1 1084.49,158.1094 L1084.49,370.5 A2.5,2.5 0 0 1 1081.99,373 L619.99,373 A2.5,2.5 0 0 1 617.49,370.5 L617.49,134.5 A2.5,2.5 0 0 1 619.99,132 " fill="none" style="stroke:#000000;stroke-width:1.5;"/><line style="stroke:#000000;stroke-width:1.5;" x1="617.49" x2="677.49" y1="155.6094" y2="155.6094"/><text fill="#000000" font-family="sans-serif" font-size="14" font-weight="bold" lengthAdjust="spacing" textLength="47" x="621.49" y="148.5332">Bridge</text></g><!--MD5=[a8cb140b744031715f533a7b2982ca3a]
class DefinitionQuestion--><g id="elem_DefinitionQuestion"><rect codeLine="20" fill="#F1F1F1" height="83.2188" id="DefinitionQuestion" rx="2.5" ry="2.5" style="stroke:#181818;stroke-width:0.5;" width="248" x="165.49" y="433"/><ellipse cx="227.24" cy="449" fill="#A9DCDF" rx="11" ry="11" style="stroke:#181818;stroke-width:1.0;"/><path d="M229.4275,450.7656 L225.2869,450.7656 L224.865,451.7969 L225.2869,451.7969 Q225.8963,451.7969 226.1619,452.0313 Q226.4275,452.2656 226.4275,452.6563 Q226.4275,453.0313 226.1619,453.2656 Q225.8963,453.5 225.2869,453.5 L222.99,453.5 Q222.3806,453.5 222.1306,453.2656 Q221.865,453.0313 221.865,452.6406 Q221.865,452.2656 222.1463,452.0313 Q222.4119,451.7813 223.0369,451.7969 L225.7088,445.1406 L224.5994,445.1406 Q223.99,445.1406 223.7244,444.9063 Q223.4588,444.6719 223.4588,444.2813 Q223.4588,443.9063 223.7244,443.6719 Q223.99,443.4375 224.5994,443.4375 L228.2713,443.4375 L231.6619,451.7969 Q232.2556,451.7969 232.4431,451.9375 Q232.8338,452.2031 232.8338,452.6563 Q232.8338,453.0313 232.5681,453.2656 Q232.3181,453.5 231.7088,453.5 L229.4119,453.5 Q228.8025,453.5 228.5369,453.2656 Q228.2713,453.0313 228.2713,452.6406 Q228.2713,452.2656 228.5369,452.0313 Q228.8025,451.7969 229.4119,451.7969 L229.8338,451.7969 L229.4275,450.7656 Z M228.7088,449.0625 L227.3494,445.6875 L225.9744,449.0625 L228.7088,449.0625 Z " fill="#000000"/><text fill="#000000" font-family="sans-serif" font-size="14" font-style="italic" lengthAdjust="spacing" textLength="116" x="247.74" y="454.7285">DefinitionQuestion</text><line style="stroke:#181818;stroke-width:0.5;" x1="166.49" x2="412.49" y1="465" y2="465"/><rect fill="none" height="6" style="stroke:#C82930;stroke-width:1.0;" width="6" x="173.49" y="476.3047"/><text fill="#000000" font-family="sans-serif" font-size="14" lengthAdjust="spacing" textLength="222" x="185.49" y="483.5332">statement ="¿Qué es KEYWORD?"</text><rect fill="none" height="6" style="stroke:#C82930;stroke-width:1.0;" width="6" x="173.49" y="493.9141"/><text fill="#000000" font-family="sans-serif" font-size="14" lengthAdjust="spacing" textLength="117" x="185.49" y="501.1426">Target = Definition</text><line style="stroke:#181818;stroke-width:0.5;" x1="166.49" x2="412.49" y1="508.2188" y2="508.2188"/></g><!--MD5=[5537c14b6466bc70ff6128a1aa5dd387]
class ClassificationQuestion--><g id="elem_ClassificationQuestion"><rect codeLine="25" fill="#F1F1F1" height="83.2188" id="ClassificationQuestion" rx="2.5" ry="2.5" style="stroke:#181818;stroke-width:0.5;" width="297" x="881.99" y="433"/><ellipse cx="956.24" cy="449" fill="#A9DCDF" rx="11" ry="11" style="stroke:#181818;stroke-width:1.0;"/><path d="M958.4275,450.7656 L954.2869,450.7656 L953.865,451.7969 L954.2869,451.7969 Q954.8963,451.7969 955.1619,452.0313 Q955.4275,452.2656 955.4275,452.6563 Q955.4275,453.0313 955.1619,453.2656 Q954.8963,453.5 954.2869,453.5 L951.99,453.5 Q951.3806,453.5 951.1306,453.2656 Q950.865,453.0313 950.865,452.6406 Q950.865,452.2656 951.1463,452.0313 Q951.4119,451.7813 952.0369,451.7969 L954.7088,445.1406 L953.5994,445.1406 Q952.99,445.1406 952.7244,444.9063 Q952.4588,444.6719 952.4588,444.2813 Q952.4588,443.9063 952.7244,443.6719 Q952.99,443.4375 953.5994,443.4375 L957.2713,443.4375 L960.6619,451.7969 Q961.2556,451.7969 961.4431,451.9375 Q961.8338,452.2031 961.8338,452.6563 Q961.8338,453.0313 961.5681,453.2656 Q961.3181,453.5 960.7088,453.5 L958.4119,453.5 Q957.8025,453.5 957.5369,453.2656 Q957.2713,453.0313 957.2713,452.6406 Q957.2713,452.2656 957.5369,452.0313 Q957.8025,451.7969 958.4119,451.7969 L958.8338,451.7969 L958.4275,450.7656 Z M957.7088,449.0625 L956.3494,445.6875 L954.9744,449.0625 L957.7088,449.0625 Z " fill="#000000"/><text fill="#000000" font-family="sans-serif" font-size="14" font-style="italic" lengthAdjust="spacing" textLength="140" x="976.74" y="454.7285">ClassificationQuestion</text><line style="stroke:#181818;stroke-width:0.5;" x1="882.99" x2="1177.99" y1="465" y2="465"/><rect fill="none" height="6" style="stroke:#C82930;stroke-width:1.0;" width="6" x="889.99" y="476.3047"/><text fill="#000000" font-family="sans-serif" font-size="14" lengthAdjust="spacing" textLength="271" x="901.99" y="483.5332">statement = "Qué tipos hay de KEYWORD"</text><rect fill="none" height="6" style="stroke:#C82930;stroke-width:1.0;" width="6" x="889.99" y="493.9141"/><text fill="#000000" font-family="sans-serif" font-size="14" lengthAdjust="spacing" textLength="141" x="901.99" y="501.1426">Target = Classification</text><line style="stroke:#181818;stroke-width:0.5;" x1="882.99" x2="1177.99" y1="508.2188" y2="508.2188"/></g><!--MD5=[589357b5cd90a42c237433e2518f116d]
class CompositionQuestion--><g id="elem_CompositionQuestion"><rect codeLine="30" fill="#F1F1F1" height="83.2188" id="CompositionQuestion" rx="2.5" ry="2.5" style="stroke:#181818;stroke-width:0.5;" width="398" x="448.49" y="433"/><ellipse cx="575.74" cy="449" fill="#A9DCDF" rx="11" ry="11" style="stroke:#181818;stroke-width:1.0;"/><path d="M577.9275,450.7656 L573.7869,450.7656 L573.365,451.7969 L573.7869,451.7969 Q574.3963,451.7969 574.6619,452.0313 Q574.9275,452.2656 574.9275,452.6563 Q574.9275,453.0313 574.6619,453.2656 Q574.3963,453.5 573.7869,453.5 L571.49,453.5 Q570.8806,453.5 570.6306,453.2656 Q570.365,453.0313 570.365,452.6406 Q570.365,452.2656 570.6463,452.0313 Q570.9119,451.7813 571.5369,451.7969 L574.2088,445.1406 L573.0994,445.1406 Q572.49,445.1406 572.2244,444.9063 Q571.9588,444.6719 571.9588,444.2813 Q571.9588,443.9063 572.2244,443.6719 Q572.49,443.4375 573.0994,443.4375 L576.7713,443.4375 L580.1619,451.7969 Q580.7556,451.7969 580.9431,451.9375 Q581.3338,452.2031 581.3338,452.6563 Q581.3338,453.0313 581.0681,453.2656 Q580.8181,453.5 580.2088,453.5 L577.9119,453.5 Q577.3025,453.5 577.0369,453.2656 Q576.7713,453.0313 576.7713,452.6406 Q576.7713,452.2656 577.0369,452.0313 Q577.3025,451.7969 577.9119,451.7969 L578.3338,451.7969 L577.9275,450.7656 Z M577.2088,449.0625 L575.8494,445.6875 L574.4744,449.0625 L577.2088,449.0625 Z " fill="#000000"/><text fill="#000000" font-family="sans-serif" font-size="14" font-style="italic" lengthAdjust="spacing" textLength="135" x="596.24" y="454.7285">CompositionQuestion</text><line style="stroke:#181818;stroke-width:0.5;" x1="449.49" x2="845.49" y1="465" y2="465"/><rect fill="none" height="6" style="stroke:#C82930;stroke-width:1.0;" width="6" x="456.49" y="476.3047"/><text fill="#000000" font-family="sans-serif" font-size="14" lengthAdjust="spacing" textLength="372" x="468.49" y="483.5332">statement ="¿Qué conceptos destacarias del KEYWORD?"</text><rect fill="none" height="6" style="stroke:#C82930;stroke-width:1.0;" width="6" x="456.49" y="493.9141"/><text fill="#000000" font-family="sans-serif" font-size="14" lengthAdjust="spacing" textLength="136" x="468.49" y="501.1426">Target = Composition</text><line style="stroke:#181818;stroke-width:0.5;" x1="449.49" x2="845.49" y1="508.2188" y2="508.2188"/></g><!--MD5=[fc7123defb831ecdd44b2d9bcef6cceb]
class Question--><g id="elem_Question"><rect codeLine="52" fill="#F1F1F1" height="188.875" id="Question" rx="2.5" ry="2.5" style="stroke:#181818;stroke-width:0.5;" width="238" x="633.49" y="168"/><ellipse cx="719.74" cy="184" fill="#A9DCDF" rx="11" ry="11" style="stroke:#181818;stroke-width:1.0;"/><path d="M721.9275,185.7656 L717.7869,185.7656 L717.365,186.7969 L717.7869,186.7969 Q718.3963,186.7969 718.6619,187.0313 Q718.9275,187.2656 718.9275,187.6563 Q718.9275,188.0313 718.6619,188.2656 Q718.3963,188.5 717.7869,188.5 L715.49,188.5 Q714.8806,188.5 714.6306,188.2656 Q714.365,188.0313 714.365,187.6406 Q714.365,187.2656 714.6463,187.0313 Q714.9119,186.7813 715.5369,186.7969 L718.2088,180.1406 L717.0994,180.1406 Q716.49,180.1406 716.2244,179.9063 Q715.9588,179.6719 715.9588,179.2813 Q715.9588,178.9063 716.2244,178.6719 Q716.49,178.4375 717.0994,178.4375 L720.7713,178.4375 L724.1619,186.7969 Q724.7556,186.7969 724.9431,186.9375 Q725.3338,187.2031 725.3338,187.6563 Q725.3338,188.0313 725.0681,188.2656 Q724.8181,188.5 724.2088,188.5 L721.9119,188.5 Q721.3025,188.5 721.0369,188.2656 Q720.7713,188.0313 720.7713,187.6406 Q720.7713,187.2656 721.0369,187.0313 Q721.3025,186.7969 721.9119,186.7969 L722.3338,186.7969 L721.9275,185.7656 Z M721.2088,184.0625 L719.8494,180.6875 L718.4744,184.0625 L721.2088,184.0625 Z " fill="#000000"/><text fill="#000000" font-family="sans-serif" font-size="14" font-style="italic" lengthAdjust="spacing" textLength="57" x="740.24" y="189.7285">Question</text><line style="stroke:#181818;stroke-width:0.5;" x1="634.49" x2="870.49" y1="200" y2="200"/><rect fill="none" height="6" style="stroke:#C82930;stroke-width:1.0;" width="6" x="641.49" y="211.3047"/><text fill="#000000" font-family="sans-serif" font-size="14" lengthAdjust="spacing" textLength="50" x="653.49" y="218.5332">concept</text><rect fill="none" height="6" style="stroke:#C82930;stroke-width:1.0;" width="6" x="641.49" y="228.9141"/><text fill="#000000" font-family="sans-serif" font-size="14" lengthAdjust="spacing" textLength="129" x="653.49" y="236.1426">answersImplementor</text><rect fill="none" height="6" style="stroke:#C82930;stroke-width:1.0;" width="6" x="641.49" y="246.5234"/><text fill="#000000" font-family="sans-serif" font-size="14" lengthAdjust="spacing" textLength="64" x="653.49" y="253.752">answers[ ]</text><rect fill="none" height="6" style="stroke:#C82930;stroke-width:1.0;" width="6" x="641.49" y="264.1328"/><text fill="#000000" font-family="sans-serif" font-size="14" lengthAdjust="spacing" textLength="68" x="653.49" y="271.3613">solutions[ ]</text><line style="stroke:#181818;stroke-width:0.5;" x1="634.49" x2="870.49" y1="278.4375" y2="278.4375"/><polygon fill="#FFFF44" points="644.49,287.7422,648.49,291.7422,644.49,295.7422,640.49,291.7422" style="stroke:#B38D22;stroke-width:1.0;"/><text fill="#000000" font-family="sans-serif" font-size="14" lengthAdjust="spacing" textLength="182" x="653.49" y="296.9707">void setAnswerImplementor()</text><ellipse cx="644.49" cy="310.3516" fill="#84BE84" rx="3" ry="3" style="stroke:#038048;stroke-width:1.0;"/><text fill="#000000" font-family="sans-serif" font-size="14" lengthAdjust="spacing" textLength="212" x="653.49" y="314.5801">bool isAnsweredBy(studentName)</text><ellipse cx="644.49" cy="327.9609" fill="#84BE84" rx="3" ry="3" style="stroke:#038048;stroke-width:1.0;"/><text fill="#000000" font-family="sans-serif" font-size="14" lengthAdjust="spacing" textLength="104" x="653.49" y="332.1895">addToConcept()</text><ellipse cx="644.49" cy="345.5703" fill="#84BE84" rx="3" ry="3" style="stroke:#038048;stroke-width:1.0;"/><text fill="#000000" font-family="sans-serif" font-size="14" lengthAdjust="spacing" textLength="88" x="653.49" y="349.7988">getSolutions()</text></g><!--MD5=[5959bc2cfe92666dc96d9feddf85e54f]
class AnswersImplementor--><g id="elem_AnswersImplementor"><rect codeLine="63" fill="#F1F1F1" height="118.4375" id="AnswersImplementor" rx="2.5" ry="2.5" style="stroke:#181818;stroke-width:0.5;" width="162" x="906.49" y="203.5"/><ellipse cx="921.49" cy="219.5" fill="#ADD1B2" rx="11" ry="11" style="stroke:#181818;stroke-width:1.0;"/><path d="M924.2556,215.375 Q924.4119,215.1563 924.5994,215.0469 Q924.7869,214.9375 925.0056,214.9375 Q925.3806,214.9375 925.615,215.2031 Q925.8494,215.4531 925.8494,216.0625 L925.8494,217.5156 Q925.8494,218.125 925.615,218.3906 Q925.3806,218.6563 925.0056,218.6563 Q924.6619,218.6563 924.4588,218.4531 Q924.2556,218.2656 924.1463,217.75 Q924.0994,217.3906 923.9119,217.2031 Q923.5838,216.8281 922.9744,216.6094 Q922.365,216.3906 921.74,216.3906 Q920.9744,216.3906 920.3338,216.7188 Q919.7088,217.0469 919.2088,217.7969 Q918.7244,218.5469 918.7244,219.5781 L918.7244,220.6719 Q918.7244,221.9063 919.615,222.7344 Q920.5056,223.5469 922.0994,223.5469 Q923.0369,223.5469 923.6931,223.2969 Q924.0838,223.1406 924.5056,222.7031 Q924.7713,222.4375 924.9119,222.3594 Q925.0681,222.2813 925.2713,222.2813 Q925.5994,222.2813 925.8494,222.5469 Q926.115,222.7969 926.115,223.1406 Q926.115,223.4844 925.7713,223.8906 Q925.2713,224.4688 924.4744,224.7969 Q923.3963,225.25 922.0994,225.25 Q920.5838,225.25 919.3806,224.625 Q918.3963,224.125 917.7088,223.0625 Q917.0213,221.9844 917.0213,220.7031 L917.0213,219.5469 Q917.0213,218.2188 917.6306,217.0781 Q918.2556,215.9219 919.3494,215.3125 Q920.4431,214.6875 921.6775,214.6875 Q922.4119,214.6875 923.0525,214.8594 Q923.7088,215.0156 924.2556,215.375 Z " fill="#000000"/><text fill="#000000" font-family="sans-serif" font-size="14" lengthAdjust="spacing" textLength="130" x="935.49" y="225.2285">AnswersImplementor</text><line style="stroke:#181818;stroke-width:0.5;" x1="907.49" x2="1067.49" y1="235.5" y2="235.5"/><rect fill="none" height="6" style="stroke:#C82930;stroke-width:1.0;" width="6" x="914.49" y="246.8047"/><text fill="#000000" font-family="sans-serif" font-size="14" lengthAdjust="spacing" textLength="83" x="926.49" y="254.0332">studentName</text><rect fill="none" height="6" style="stroke:#C82930;stroke-width:1.0;" width="6" x="914.49" y="264.4141"/><text fill="#000000" font-family="sans-serif" font-size="14" lengthAdjust="spacing" textLength="28" x="926.49" y="271.6426">isOk</text><rect fill="none" height="6" style="stroke:#C82930;stroke-width:1.0;" width="6" x="914.49" y="282.0234"/><text fill="#000000" font-family="sans-serif" font-size="14" lengthAdjust="spacing" textLength="73" x="926.49" y="289.252">isEvaluated</text><rect fill="none" height="6" style="stroke:#C82930;stroke-width:1.0;" width="6" x="914.49" y="299.6328"/><text fill="#000000" font-family="sans-serif" font-size="14" lengthAdjust="spacing" textLength="92" x="926.49" y="306.8613">evaluatedDate</text><line style="stroke:#181818;stroke-width:0.5;" x1="907.49" x2="1067.49" y1="313.9375" y2="313.9375"/></g><!--MD5=[9d451b2f92d848a8e2d1a4dab2b1c6bf]
class Concept--><g id="elem_Concept"><rect codeLine="2" fill="#F1F1F1" height="100.8281" id="Concept" rx="2.5" ry="2.5" style="stroke:#181818;stroke-width:0.5;" width="102" x="328.49" y="7"/><ellipse cx="351.14" cy="23" fill="#ADD1B2" rx="11" ry="11" style="stroke:#181818;stroke-width:1.0;"/><path d="M353.9056,18.875 Q354.0619,18.6563 354.2494,18.5469 Q354.4369,18.4375 354.6556,18.4375 Q355.0306,18.4375 355.265,18.7031 Q355.4994,18.9531 355.4994,19.5625 L355.4994,21.0156 Q355.4994,21.625 355.265,21.8906 Q355.0306,22.1563 354.6556,22.1563 Q354.3119,22.1563 354.1088,21.9531 Q353.9056,21.7656 353.7963,21.25 Q353.7494,20.8906 353.5619,20.7031 Q353.2338,20.3281 352.6244,20.1094 Q352.015,19.8906 351.39,19.8906 Q350.6244,19.8906 349.9838,20.2188 Q349.3588,20.5469 348.8588,21.2969 Q348.3744,22.0469 348.3744,23.0781 L348.3744,24.1719 Q348.3744,25.4063 349.265,26.2344 Q350.1556,27.0469 351.7494,27.0469 Q352.6869,27.0469 353.3431,26.7969 Q353.7338,26.6406 354.1556,26.2031 Q354.4213,25.9375 354.5619,25.8594 Q354.7181,25.7813 354.9213,25.7813 Q355.2494,25.7813 355.4994,26.0469 Q355.765,26.2969 355.765,26.6406 Q355.765,26.9844 355.4213,27.3906 Q354.9213,27.9688 354.1244,28.2969 Q353.0463,28.75 351.7494,28.75 Q350.2338,28.75 349.0306,28.125 Q348.0463,27.625 347.3588,26.5625 Q346.6713,25.4844 346.6713,24.2031 L346.6713,23.0469 Q346.6713,21.7188 347.2806,20.5781 Q347.9056,19.4219 348.9994,18.8125 Q350.0931,18.1875 351.3275,18.1875 Q352.0619,18.1875 352.7025,18.3594 Q353.3588,18.5156 353.9056,18.875 Z " fill="#000000"/><text fill="#000000" font-family="sans-serif" font-size="14" lengthAdjust="spacing" textLength="53" x="366.84" y="28.7285">Concept</text><line style="stroke:#181818;stroke-width:0.5;" x1="329.49" x2="429.49" y1="39" y2="39"/><rect fill="none" height="6" style="stroke:#C82930;stroke-width:1.0;" width="6" x="336.49" y="50.3047"/><text fill="#000000" font-family="sans-serif" font-size="14" lengthAdjust="spacing" textLength="52" x="348.49" y="57.5332">keyword</text><rect fill="none" height="6" style="stroke:#C82930;stroke-width:1.0;" width="6" x="336.49" y="67.9141"/><text fill="#000000" font-family="sans-serif" font-size="14" lengthAdjust="spacing" textLength="76" x="348.49" y="75.1426">definitions[ ]</text><rect fill="none" height="6" style="stroke:#C82930;stroke-width:1.0;" width="6" x="336.49" y="85.5234"/><text fill="#000000" font-family="sans-serif" font-size="14" lengthAdjust="spacing" textLength="66" x="348.49" y="92.752">relations[ ]</text><line style="stroke:#181818;stroke-width:0.5;" x1="329.49" x2="429.49" y1="99.8281" y2="99.8281"/></g><!--MD5=[af22135d5be6ed11ccd2d02fa51653b3]
class Definition--><g id="elem_Definition"><rect codeLine="8" fill="#F1F1F1" height="83.2188" id="Definition" rx="2.5" ry="2.5" style="stroke:#181818;stroke-width:0.5;" width="91" x="150.99" y="585"/><ellipse cx="165.99" cy="601" fill="#ADD1B2" rx="11" ry="11" style="stroke:#181818;stroke-width:1.0;"/><path d="M168.7556,596.875 Q168.9119,596.6563 169.0994,596.5469 Q169.2869,596.4375 169.5056,596.4375 Q169.8806,596.4375 170.115,596.7031 Q170.3494,596.9531 170.3494,597.5625 L170.3494,599.0156 Q170.3494,599.625 170.115,599.8906 Q169.8806,600.1563 169.5056,600.1563 Q169.1619,600.1563 168.9588,599.9531 Q168.7556,599.7656 168.6463,599.25 Q168.5994,598.8906 168.4119,598.7031 Q168.0838,598.3281 167.4744,598.1094 Q166.865,597.8906 166.24,597.8906 Q165.4744,597.8906 164.8338,598.2188 Q164.2088,598.5469 163.7088,599.2969 Q163.2244,600.0469 163.2244,601.0781 L163.2244,602.1719 Q163.2244,603.4063 164.115,604.2344 Q165.0056,605.0469 166.5994,605.0469 Q167.5369,605.0469 168.1931,604.7969 Q168.5838,604.6406 169.0056,604.2031 Q169.2713,603.9375 169.4119,603.8594 Q169.5681,603.7813 169.7713,603.7813 Q170.0994,603.7813 170.3494,604.0469 Q170.615,604.2969 170.615,604.6406 Q170.615,604.9844 170.2713,605.3906 Q169.7713,605.9688 168.9744,606.2969 Q167.8963,606.75 166.5994,606.75 Q165.0838,606.75 163.8806,606.125 Q162.8963,605.625 162.2088,604.5625 Q161.5213,603.4844 161.5213,602.2031 L161.5213,601.0469 Q161.5213,599.7188 162.1306,598.5781 Q162.7556,597.4219 163.8494,596.8125 Q164.9431,596.1875 166.1775,596.1875 Q166.9119,596.1875 167.5525,596.3594 Q168.2088,596.5156 168.7556,596.875 Z " fill="#000000"/><text fill="#000000" font-family="sans-serif" font-size="14" lengthAdjust="spacing" textLength="59" x="179.99" y="606.7285">Definition</text><line style="stroke:#181818;stroke-width:0.5;" x1="151.99" x2="240.99" y1="617" y2="617"/><rect fill="none" height="6" style="stroke:#C82930;stroke-width:1.0;" width="6" x="158.99" y="628.3047"/><text fill="#000000" font-family="sans-serif" font-size="14" lengthAdjust="spacing" textLength="47" x="170.99" y="635.5332">content</text><rect fill="none" height="6" style="stroke:#C82930;stroke-width:1.0;" width="6" x="158.99" y="645.9141"/><text fill="#000000" font-family="sans-serif" font-size="14" lengthAdjust="spacing" textLength="42" x="170.99" y="653.1426">isFake</text><line style="stroke:#181818;stroke-width:0.5;" x1="151.99" x2="240.99" y1="660.2188" y2="660.2188"/></g><!--MD5=[534474e9f05b14d7c70186ae077f30e0]
class Relation--><g id="elem_Relation"><rect codeLine="13" fill="#F1F1F1" height="48" id="Relation" rx="2.5" ry="2.5" style="stroke:#181818;stroke-width:0.5;" width="84" x="1394.49" y="450.5"/><ellipse cx="1409.49" cy="466.5" fill="#ADD1B2" rx="11" ry="11" style="stroke:#181818;stroke-width:1.0;"/><path d="M1412.2556,462.375 Q1412.4119,462.1563 1412.5994,462.0469 Q1412.7869,461.9375 1413.0056,461.9375 Q1413.3806,461.9375 1413.615,462.2031 Q1413.8494,462.4531 1413.8494,463.0625 L1413.8494,464.5156 Q1413.8494,465.125 1413.615,465.3906 Q1413.3806,465.6563 1413.0056,465.6563 Q1412.6619,465.6563 1412.4588,465.4531 Q1412.2556,465.2656 1412.1463,464.75 Q1412.0994,464.3906 1411.9119,464.2031 Q1411.5838,463.8281 1410.9744,463.6094 Q1410.365,463.3906 1409.74,463.3906 Q1408.9744,463.3906 1408.3338,463.7188 Q1407.7088,464.0469 1407.2088,464.7969 Q1406.7244,465.5469 1406.7244,466.5781 L1406.7244,467.6719 Q1406.7244,468.9063 1407.615,469.7344 Q1408.5056,470.5469 1410.0994,470.5469 Q1411.0369,470.5469 1411.6931,470.2969 Q1412.0838,470.1406 1412.5056,469.7031 Q1412.7713,469.4375 1412.9119,469.3594 Q1413.0681,469.2813 1413.2713,469.2813 Q1413.5994,469.2813 1413.8494,469.5469 Q1414.115,469.7969 1414.115,470.1406 Q1414.115,470.4844 1413.7713,470.8906 Q1413.2713,471.4688 1412.4744,471.7969 Q1411.3963,472.25 1410.0994,472.25 Q1408.5838,472.25 1407.3806,471.625 Q1406.3963,471.125 1405.7088,470.0625 Q1405.0213,468.9844 1405.0213,467.7031 L1405.0213,466.5469 Q1405.0213,465.2188 1405.6306,464.0781 Q1406.2556,462.9219 1407.3494,462.3125 Q1408.4431,461.6875 1409.6775,461.6875 Q1410.4119,461.6875 1411.0525,461.8594 Q1411.7088,462.0156 1412.2556,462.375 Z " fill="#000000"/><text fill="#000000" font-family="sans-serif" font-size="14" lengthAdjust="spacing" textLength="52" x="1423.49" y="472.2285">Relation</text><line style="stroke:#181818;stroke-width:0.5;" x1="1395.49" x2="1477.49" y1="482.5" y2="482.5"/><line style="stroke:#181818;stroke-width:0.5;" x1="1395.49" x2="1477.49" y1="490.5" y2="490.5"/></g><!--MD5=[9c239722e256878d27dcbb07783cc14f]
class Classification--><g id="elem_Classification"><rect codeLine="15" fill="#F1F1F1" height="48" id="Classification" rx="2.5" ry="2.5" style="stroke:#181818;stroke-width:0.5;" width="115" x="1175.99" y="602.5"/><ellipse cx="1190.99" cy="618.5" fill="#ADD1B2" rx="11" ry="11" style="stroke:#181818;stroke-width:1.0;"/><path d="M1193.7556,614.375 Q1193.9119,614.1563 1194.0994,614.0469 Q1194.2869,613.9375 1194.5056,613.9375 Q1194.8806,613.9375 1195.115,614.2031 Q1195.3494,614.4531 1195.3494,615.0625 L1195.3494,616.5156 Q1195.3494,617.125 1195.115,617.3906 Q1194.8806,617.6563 1194.5056,617.6563 Q1194.1619,617.6563 1193.9588,617.4531 Q1193.7556,617.2656 1193.6463,616.75 Q1193.5994,616.3906 1193.4119,616.2031 Q1193.0838,615.8281 1192.4744,615.6094 Q1191.865,615.3906 1191.24,615.3906 Q1190.4744,615.3906 1189.8338,615.7188 Q1189.2088,616.0469 1188.7088,616.7969 Q1188.2244,617.5469 1188.2244,618.5781 L1188.2244,619.6719 Q1188.2244,620.9063 1189.115,621.7344 Q1190.0056,622.5469 1191.5994,622.5469 Q1192.5369,622.5469 1193.1931,622.2969 Q1193.5838,622.1406 1194.0056,621.7031 Q1194.2713,621.4375 1194.4119,621.3594 Q1194.5681,621.2813 1194.7713,621.2813 Q1195.0994,621.2813 1195.3494,621.5469 Q1195.615,621.7969 1195.615,622.1406 Q1195.615,622.4844 1195.2713,622.8906 Q1194.7713,623.4688 1193.9744,623.7969 Q1192.8963,624.25 1191.5994,624.25 Q1190.0838,624.25 1188.8806,623.625 Q1187.8963,623.125 1187.2088,622.0625 Q1186.5213,620.9844 1186.5213,619.7031 L1186.5213,618.5469 Q1186.5213,617.2188 1187.1306,616.0781 Q1187.7556,614.9219 1188.8494,614.3125 Q1189.9431,613.6875 1191.1775,613.6875 Q1191.9119,613.6875 1192.5525,613.8594 Q1193.2088,614.0156 1193.7556,614.375 Z " fill="#000000"/><text fill="#000000" font-family="sans-serif" font-size="14" lengthAdjust="spacing" textLength="83" x="1204.99" y="624.2285">Classification</text><line style="stroke:#181818;stroke-width:0.5;" x1="1176.99" x2="1289.99" y1="634.5" y2="634.5"/><line style="stroke:#181818;stroke-width:0.5;" x1="1176.99" x2="1289.99" y1="642.5" y2="642.5"/></g><!--MD5=[251454e98c15f29849fb35b1904d0020]
class Composition--><g id="elem_Composition"><rect codeLine="17" fill="#F1F1F1" height="48" id="Composition" rx="2.5" ry="2.5" style="stroke:#181818;stroke-width:0.5;" width="110" x="811.49" y="602.5"/><ellipse cx="826.49" cy="618.5" fill="#ADD1B2" rx="11" ry="11" style="stroke:#181818;stroke-width:1.0;"/><path d="M829.2556,614.375 Q829.4119,614.1563 829.5994,614.0469 Q829.7869,613.9375 830.0056,613.9375 Q830.3806,613.9375 830.615,614.2031 Q830.8494,614.4531 830.8494,615.0625 L830.8494,616.5156 Q830.8494,617.125 830.615,617.3906 Q830.3806,617.6563 830.0056,617.6563 Q829.6619,617.6563 829.4588,617.4531 Q829.2556,617.2656 829.1463,616.75 Q829.0994,616.3906 828.9119,616.2031 Q828.5838,615.8281 827.9744,615.6094 Q827.365,615.3906 826.74,615.3906 Q825.9744,615.3906 825.3338,615.7188 Q824.7088,616.0469 824.2088,616.7969 Q823.7244,617.5469 823.7244,618.5781 L823.7244,619.6719 Q823.7244,620.9063 824.615,621.7344 Q825.5056,622.5469 827.0994,622.5469 Q828.0369,622.5469 828.6931,622.2969 Q829.0838,622.1406 829.5056,621.7031 Q829.7713,621.4375 829.9119,621.3594 Q830.0681,621.2813 830.2713,621.2813 Q830.5994,621.2813 830.8494,621.5469 Q831.115,621.7969 831.115,622.1406 Q831.115,622.4844 830.7713,622.8906 Q830.2713,623.4688 829.4744,623.7969 Q828.3963,624.25 827.0994,624.25 Q825.5838,624.25 824.3806,623.625 Q823.3963,623.125 822.7088,622.0625 Q822.0213,620.9844 822.0213,619.7031 L822.0213,618.5469 Q822.0213,617.2188 822.6306,616.0781 Q823.2556,614.9219 824.3494,614.3125 Q825.4431,613.6875 826.6775,613.6875 Q827.4119,613.6875 828.0525,613.8594 Q828.7088,614.0156 829.2556,614.375 Z " fill="#000000"/><text fill="#000000" font-family="sans-serif" font-size="14" lengthAdjust="spacing" textLength="78" x="840.49" y="624.2285">Composition</text><line style="stroke:#181818;stroke-width:0.5;" x1="812.49" x2="920.49" y1="634.5" y2="634.5"/><line style="stroke:#181818;stroke-width:0.5;" x1="812.49" x2="920.49" y1="642.5" y2="642.5"/></g><!--MD5=[54a8e627be4ee6aab370a2a8960cc8d7]
class OpenAnswer--><g id="elem_OpenAnswer"><rect codeLine="36" fill="#F1F1F1" height="100.8281" id="OpenAnswer" rx="2.5" ry="2.5" style="stroke:#181818;stroke-width:0.5;" width="145" x="1213.99" y="424"/><ellipse cx="1243.39" cy="440" fill="#ADD1B2" rx="11" ry="11" style="stroke:#181818;stroke-width:1.0;"/><path d="M1246.1556,435.875 Q1246.3119,435.6563 1246.4994,435.5469 Q1246.6869,435.4375 1246.9056,435.4375 Q1247.2806,435.4375 1247.515,435.7031 Q1247.7494,435.9531 1247.7494,436.5625 L1247.7494,438.0156 Q1247.7494,438.625 1247.515,438.8906 Q1247.2806,439.1563 1246.9056,439.1563 Q1246.5619,439.1563 1246.3588,438.9531 Q1246.1556,438.7656 1246.0463,438.25 Q1245.9994,437.8906 1245.8119,437.7031 Q1245.4838,437.3281 1244.8744,437.1094 Q1244.265,436.8906 1243.64,436.8906 Q1242.8744,436.8906 1242.2338,437.2188 Q1241.6088,437.5469 1241.1088,438.2969 Q1240.6244,439.0469 1240.6244,440.0781 L1240.6244,441.1719 Q1240.6244,442.4063 1241.515,443.2344 Q1242.4056,444.0469 1243.9994,444.0469 Q1244.9369,444.0469 1245.5931,443.7969 Q1245.9838,443.6406 1246.4056,443.2031 Q1246.6713,442.9375 1246.8119,442.8594 Q1246.9681,442.7813 1247.1713,442.7813 Q1247.4994,442.7813 1247.7494,443.0469 Q1248.015,443.2969 1248.015,443.6406 Q1248.015,443.9844 1247.6713,444.3906 Q1247.1713,444.9688 1246.3744,445.2969 Q1245.2963,445.75 1243.9994,445.75 Q1242.4838,445.75 1241.2806,445.125 Q1240.2963,444.625 1239.6088,443.5625 Q1238.9213,442.4844 1238.9213,441.2031 L1238.9213,440.0469 Q1238.9213,438.7188 1239.5306,437.5781 Q1240.1556,436.4219 1241.2494,435.8125 Q1242.3431,435.1875 1243.5775,435.1875 Q1244.3119,435.1875 1244.9525,435.3594 Q1245.6088,435.5156 1246.1556,435.875 Z " fill="#000000"/><text fill="#000000" font-family="sans-serif" font-size="14" lengthAdjust="spacing" textLength="81" x="1260.59" y="445.7285">OpenAnswer</text><line style="stroke:#181818;stroke-width:0.5;" x1="1214.99" x2="1357.99" y1="456" y2="456"/><rect fill="none" height="6" style="stroke:#C82930;stroke-width:1.0;" width="6" x="1221.99" y="467.3047"/><text fill="#000000" font-family="sans-serif" font-size="14" lengthAdjust="spacing" textLength="47" x="1233.99" y="474.5332">content</text><rect fill="none" height="6" style="stroke:#C82930;stroke-width:1.0;" width="6" x="1221.99" y="484.9141"/><text fill="#000000" font-family="sans-serif" font-size="14" lengthAdjust="spacing" textLength="119" x="1233.99" y="492.1426">isUsefulToConcept</text><rect fill="none" height="6" style="stroke:#C82930;stroke-width:1.0;" width="6" x="1221.99" y="502.5234"/><text fill="#000000" font-family="sans-serif" font-size="14" lengthAdjust="spacing" textLength="89" x="1233.99" y="509.752">isEvaluatedBy</text><line style="stroke:#181818;stroke-width:0.5;" x1="1214.99" x2="1357.99" y1="516.8281" y2="516.8281"/></g><!--MD5=[069ce8881ec0132c801f9a320be0896f]
class MultipleChoiceAnswer--><g id="elem_MultipleChoiceAnswer"><rect codeLine="42" fill="#F1F1F1" height="83.2188" id="MultipleChoiceAnswer" rx="2.5" ry="2.5" style="stroke:#181818;stroke-width:0.5;" width="170" x="1513.49" y="433"/><ellipse cx="1528.49" cy="449" fill="#ADD1B2" rx="11" ry="11" style="stroke:#181818;stroke-width:1.0;"/><path d="M1531.2556,444.875 Q1531.4119,444.6563 1531.5994,444.5469 Q1531.7869,444.4375 1532.0056,444.4375 Q1532.3806,444.4375 1532.615,444.7031 Q1532.8494,444.9531 1532.8494,445.5625 L1532.8494,447.0156 Q1532.8494,447.625 1532.615,447.8906 Q1532.3806,448.1563 1532.0056,448.1563 Q1531.6619,448.1563 1531.4588,447.9531 Q1531.2556,447.7656 1531.1463,447.25 Q1531.0994,446.8906 1530.9119,446.7031 Q1530.5838,446.3281 1529.9744,446.1094 Q1529.365,445.8906 1528.74,445.8906 Q1527.9744,445.8906 1527.3338,446.2188 Q1526.7088,446.5469 1526.2088,447.2969 Q1525.7244,448.0469 1525.7244,449.0781 L1525.7244,450.1719 Q1525.7244,451.4063 1526.615,452.2344 Q1527.5056,453.0469 1529.0994,453.0469 Q1530.0369,453.0469 1530.6931,452.7969 Q1531.0838,452.6406 1531.5056,452.2031 Q1531.7713,451.9375 1531.9119,451.8594 Q1532.0681,451.7813 1532.2713,451.7813 Q1532.5994,451.7813 1532.8494,452.0469 Q1533.115,452.2969 1533.115,452.6406 Q1533.115,452.9844 1532.7713,453.3906 Q1532.2713,453.9688 1531.4744,454.2969 Q1530.3963,454.75 1529.0994,454.75 Q1527.5838,454.75 1526.3806,454.125 Q1525.3963,453.625 1524.7088,452.5625 Q1524.0213,451.4844 1524.0213,450.2031 L1524.0213,449.0469 Q1524.0213,447.7188 1524.6306,446.5781 Q1525.2556,445.4219 1526.3494,444.8125 Q1527.4431,444.1875 1528.6775,444.1875 Q1529.4119,444.1875 1530.0525,444.3594 Q1530.7088,444.5156 1531.2556,444.875 Z " fill="#000000"/><text fill="#000000" font-family="sans-serif" font-size="14" lengthAdjust="spacing" textLength="138" x="1542.49" y="454.7285">MultipleChoiceAnswer</text><line style="stroke:#181818;stroke-width:0.5;" x1="1514.49" x2="1682.49" y1="465" y2="465"/><rect fill="none" height="6" style="stroke:#C82930;stroke-width:1.0;" width="6" x="1521.49" y="476.3047"/><text fill="#000000" font-family="sans-serif" font-size="14" lengthAdjust="spacing" textLength="62" x="1533.49" y="483.5332">options [ ]</text><rect fill="none" height="6" style="stroke:#C82930;stroke-width:1.0;" width="6" x="1521.49" y="493.9141"/><text fill="#000000" font-family="sans-serif" font-size="14" lengthAdjust="spacing" textLength="95" x="1533.49" y="501.1426">selectedOption</text><line style="stroke:#181818;stroke-width:0.5;" x1="1514.49" x2="1682.49" y1="508.2188" y2="508.2188"/></g><!--MD5=[b07065dfc0d0e09965ec10bfc328bb3e]
class Option--><g id="elem_Option"><rect codeLine="47" fill="#F1F1F1" height="65.6094" id="Option" rx="2.5" ry="2.5" style="stroke:#181818;stroke-width:0.5;" width="74" x="1561.49" y="593.5"/><ellipse cx="1576.49" cy="609.5" fill="#ADD1B2" rx="11" ry="11" style="stroke:#181818;stroke-width:1.0;"/><path d="M1579.2556,605.375 Q1579.4119,605.1563 1579.5994,605.0469 Q1579.7869,604.9375 1580.0056,604.9375 Q1580.3806,604.9375 1580.615,605.2031 Q1580.8494,605.4531 1580.8494,606.0625 L1580.8494,607.5156 Q1580.8494,608.125 1580.615,608.3906 Q1580.3806,608.6563 1580.0056,608.6563 Q1579.6619,608.6563 1579.4588,608.4531 Q1579.2556,608.2656 1579.1463,607.75 Q1579.0994,607.3906 1578.9119,607.2031 Q1578.5838,606.8281 1577.9744,606.6094 Q1577.365,606.3906 1576.74,606.3906 Q1575.9744,606.3906 1575.3338,606.7188 Q1574.7088,607.0469 1574.2088,607.7969 Q1573.7244,608.5469 1573.7244,609.5781 L1573.7244,610.6719 Q1573.7244,611.9063 1574.615,612.7344 Q1575.5056,613.5469 1577.0994,613.5469 Q1578.0369,613.5469 1578.6931,613.2969 Q1579.0838,613.1406 1579.5056,612.7031 Q1579.7713,612.4375 1579.9119,612.3594 Q1580.0681,612.2813 1580.2713,612.2813 Q1580.5994,612.2813 1580.8494,612.5469 Q1581.115,612.7969 1581.115,613.1406 Q1581.115,613.4844 1580.7713,613.8906 Q1580.2713,614.4688 1579.4744,614.7969 Q1578.3963,615.25 1577.0994,615.25 Q1575.5838,615.25 1574.3806,614.625 Q1573.3963,614.125 1572.7088,613.0625 Q1572.0213,611.9844 1572.0213,610.7031 L1572.0213,609.5469 Q1572.0213,608.2188 1572.6306,607.0781 Q1573.2556,605.9219 1574.3494,605.3125 Q1575.4431,604.6875 1576.6775,604.6875 Q1577.4119,604.6875 1578.0525,604.8594 Q1578.7088,605.0156 1579.2556,605.375 Z " fill="#000000"/><text fill="#000000" font-family="sans-serif" font-size="14" lengthAdjust="spacing" textLength="42" x="1590.49" y="615.2285">Option</text><line style="stroke:#181818;stroke-width:0.5;" x1="1562.49" x2="1634.49" y1="625.5" y2="625.5"/><rect fill="none" height="6" style="stroke:#C82930;stroke-width:1.0;" width="6" x="1569.49" y="636.8047"/><text fill="#000000" font-family="sans-serif" font-size="14" lengthAdjust="spacing" textLength="47" x="1581.49" y="644.0332">content</text><line style="stroke:#181818;stroke-width:0.5;" x1="1562.49" x2="1634.49" y1="651.1094" y2="651.1094"/></g><!--MD5=[1ac27345a8a52a4a812e38456e107300]
class Keyword--><g id="elem_Keyword"><rect fill="#F1F1F1" height="48" id="Keyword" rx="2.5" ry="2.5" style="stroke:#181818;stroke-width:0.5;" width="86" x="339.49" y="602.5"/><ellipse cx="354.49" cy="618.5" fill="#ADD1B2" rx="11" ry="11" style="stroke:#181818;stroke-width:1.0;"/><path d="M357.2556,614.375 Q357.4119,614.1563 357.5994,614.0469 Q357.7869,613.9375 358.0056,613.9375 Q358.3806,613.9375 358.615,614.2031 Q358.8494,614.4531 358.8494,615.0625 L358.8494,616.5156 Q358.8494,617.125 358.615,617.3906 Q358.3806,617.6563 358.0056,617.6563 Q357.6619,617.6563 357.4588,617.4531 Q357.2556,617.2656 357.1463,616.75 Q357.0994,616.3906 356.9119,616.2031 Q356.5838,615.8281 355.9744,615.6094 Q355.365,615.3906 354.74,615.3906 Q353.9744,615.3906 353.3338,615.7188 Q352.7088,616.0469 352.2088,616.7969 Q351.7244,617.5469 351.7244,618.5781 L351.7244,619.6719 Q351.7244,620.9063 352.615,621.7344 Q353.5056,622.5469 355.0994,622.5469 Q356.0369,622.5469 356.6931,622.2969 Q357.0838,622.1406 357.5056,621.7031 Q357.7713,621.4375 357.9119,621.3594 Q358.0681,621.2813 358.2713,621.2813 Q358.5994,621.2813 358.8494,621.5469 Q359.115,621.7969 359.115,622.1406 Q359.115,622.4844 358.7713,622.8906 Q358.2713,623.4688 357.4744,623.7969 Q356.3963,624.25 355.0994,624.25 Q353.5838,624.25 352.3806,623.625 Q351.3963,623.125 350.7088,622.0625 Q350.0213,620.9844 350.0213,619.7031 L350.0213,618.5469 Q350.0213,617.2188 350.6306,616.0781 Q351.2556,614.9219 352.3494,614.3125 Q353.4431,613.6875 354.6775,613.6875 Q355.4119,613.6875 356.0525,613.8594 Q356.7088,614.0156 357.2556,614.375 Z " fill="#000000"/><text fill="#000000" font-family="sans-serif" font-size="14" lengthAdjust="spacing" textLength="54" x="368.49" y="624.2285">Keyword</text><line style="stroke:#181818;stroke-width:0.5;" x1="340.49" x2="424.49" y1="634.5" y2="634.5"/><line style="stroke:#181818;stroke-width:0.5;" x1="340.49" x2="424.49" y1="642.5" y2="642.5"/></g><!--MD5=[72551623f8aae4441686b432d3d4d4a3]
reverse link Question to AnswersImplementor--><g id="link_Question_AnswersImplementor"><path codeLine="71" d="M884.97,262.5 C892.04,262.5 899.1,262.5 906.17,262.5 " fill="none" id="Question-backto-AnswersImplementor" style="stroke:#181818;stroke-width:1.0;"/><polygon fill="none" points="871.83,262.5,877.83,266.5,883.83,262.5,877.83,258.5,871.83,262.5" style="stroke:#181818;stroke-width:1.0;"/></g><!--MD5=[7750c9fa624681f6f73f4dd658be84f4]
reverse link AnswersImplementor to OpenAnswer--><g id="link_AnswersImplementor_OpenAnswer"><path codeLine="72" d="M1086.1,317.39 C1121.62,338.24 1161.34,363.27 1195.49,389 C1209.44,399.51 1223.67,411.83 1236.61,423.76 " fill="none" id="AnswersImplementor-backto-OpenAnswer" style="stroke:#181818;stroke-width:1.0;"/><polygon fill="none" points="1082.3,323.28,1068.5,307.2,1089.32,311.16,1082.3,323.28" style="stroke:#181818;stroke-width:1.0;"/></g><!--MD5=[24793cc56b04ba7dae425abbdaae462c]
reverse link AnswersImplementor to MultipleChoiceAnswer--><g id="link_AnswersImplementor_MultipleChoiceAnswer"><path codeLine="73" d="M1088.56,274.83 C1194.73,289.78 1364.34,322.41 1496.49,389 C1518.67,400.18 1540.29,416.96 1557.87,432.63 " fill="none" id="AnswersImplementor-backto-MultipleChoiceAnswer" style="stroke:#181818;stroke-width:1.0;"/><polygon fill="none" points="1087.4,281.74,1068.52,272.12,1089.28,267.87,1087.4,281.74" style="stroke:#181818;stroke-width:1.0;"/></g><!--MD5=[aa444d8e462a2093424f20fcfaaacc9f]
reverse link MultipleChoiceAnswer to Option--><g id="link_MultipleChoiceAnswer_Option"><path codeLine="75" d="M1598.49,529.09 C1598.49,550.62 1598.49,574.71 1598.49,593.43 " fill="none" id="MultipleChoiceAnswer-backto-Option" style="stroke:#181818;stroke-width:1.0;"/><polygon fill="#181818" points="1598.49,516.09,1594.49,522.09,1598.49,528.09,1602.49,522.09,1598.49,516.09" style="stroke:#181818;stroke-width:1.0;"/></g><!--MD5=[664f43f1b729fcef7bede4429ef4d4ba]
link DefinitionQuestion to Keyword--><g id="link_DefinitionQuestion_Keyword"><path codeLine="77" d="M314.66,516.09 C330.7,541.96 351.06,574.8 365.27,597.72 " fill="none" id="DefinitionQuestion-to-Keyword" style="stroke:#181818;stroke-width:1.0;stroke-dasharray:7.0,7.0;"/><polygon fill="#181818" points="368.02,602.16,366.6715,592.4039,365.3828,597.912,359.8747,596.6234,368.02,602.16" style="stroke:#181818;stroke-width:1.0;"/></g><!--MD5=[fdf1dc5908810893dc81375d93041eee]
link ClassificationQuestion to Keyword--><g id="link_ClassificationQuestion_Keyword"><path codeLine="78" d="M935.45,516.08 C912.51,524.86 887.86,533.45 864.49,540 C708.83,583.6 518.39,609.61 430.79,620.1 " fill="none" id="ClassificationQuestion-to-Keyword" style="stroke:#181818;stroke-width:1.0;stroke-dasharray:7.0,7.0;"/><polygon fill="#181818" points="425.68,620.71,435.0944,623.6028,430.644,620.1109,434.1359,615.6604,425.68,620.71" style="stroke:#181818;stroke-width:1.0;"/></g><!--MD5=[ef589a1ac5b4e8d28d0c68dd313c6f40]
link CompositionQuestion to Keyword--><g id="link_CompositionQuestion_Keyword"><path codeLine="79" d="M575.78,516.09 C528.6,542.8 468.3,576.93 427.69,599.91 " fill="none" id="CompositionQuestion-to-Keyword" style="stroke:#181818;stroke-width:1.0;stroke-dasharray:7.0,7.0;"/><polygon fill="#181818" points="423.34,602.38,433.1442,601.4433,427.6952,599.9239,429.2145,594.4749,423.34,602.38" style="stroke:#181818;stroke-width:1.0;"/></g><!--MD5=[207a0f949a870d7c1e6d57d91b948c31]
link Concept to Question--><g id="link_Concept_Question"><path codeLine="81" d="M430.57,86.3 C479.61,112.99 555.73,154.42 621.65,190.29 " fill="none" id="Concept-to-Question" style="stroke:#181818;stroke-width:1.0;"/><polygon fill="#181818" points="633.4,196.69,630.0396,190.3097,622.8577,190.9576,626.2181,197.3379,633.4,196.69" style="stroke:#181818;stroke-width:1.0;"/></g><!--MD5=[357c4abe4ae02615f163987610a5cb7f]
reverse link Concept to Keyword--><g id="link_Concept_Keyword"><path codeLine="82" d="M318.39,112.08 C220.64,204.38 49.76,397.17 149.49,540 C155.18,548.15 273.69,588.96 339.45,611.12 " fill="none" id="Concept-backto-Keyword" style="stroke:#181818;stroke-width:1.0;"/><polygon fill="#181818" points="328.19,102.94,321.0747,104.1116,319.4195,111.1302,326.5348,109.9586,328.19,102.94" style="stroke:#181818;stroke-width:1.0;"/></g><!--MD5=[543bb2115b5a10697a67507a00f6a2f4]
reverse link Concept to Definition--><g id="link_Concept_Definition"><path codeLine="83" d="M315.09,66.14 C247.12,75.65 146.52,94.37 122.49,124 C6,267.66 40.96,369.02 111.49,540 C119.79,560.12 135.38,578.01 150.96,592.15 " fill="none" id="Concept-backto-Definition" style="stroke:#181818;stroke-width:1.0;"/><polygon fill="none" points="328.22,64.36,321.7375,61.2013,316.3285,65.9702,322.811,69.1289,328.22,64.36" style="stroke:#181818;stroke-width:1.0;"/><text fill="#000000" font-family="sans-serif" font-size="13" lengthAdjust="spacing" textLength="22" x="121.0105" y="583.699">0..n</text></g><!--MD5=[54f9360500e0fd532969fc16f437bbea]
reverse link Concept to Relation--><g id="link_Concept_Relation"><path codeLine="85" d="M443.77,59.31 C595.26,62.04 970.51,73.81 1084.49,124 C1249.61,196.71 1380.21,384.48 1422.21,450.29 " fill="none" id="Concept-backto-Relation" style="stroke:#181818;stroke-width:1.0;"/><polygon fill="none" points="430.68,59.09,436.6133,63.1883,442.6784,59.2878,436.7451,55.1894,430.68,59.09" style="stroke:#181818;stroke-width:1.0;"/><text fill="#000000" font-family="sans-serif" font-size="13" lengthAdjust="spacing" textLength="22" x="1393.732" y="439.5763">0..n</text></g><!--MD5=[90ea77717cc70d7f588b001bbb985d62]
reverse link Relation to Classification--><g id="link_Relation_Classification"><path codeLine="86" d="M1404.53,513.45 C1395.9,522.66 1386.24,532.11 1376.49,540 C1346.36,564.38 1308.59,586.66 1279.44,602.36 " fill="none" id="Relation-backto-Classification" style="stroke:#181818;stroke-width:1.0;"/><polygon fill="none" points="1399.35,508.75,1417.91,498.52,1409.78,518.08,1399.35,508.75" style="stroke:#181818;stroke-width:1.0;"/></g><!--MD5=[aac130c8b5f905729b18e85e231f7b50]
reverse link Relation to Composition--><g id="link_Relation_Composition"><path codeLine="87" d="M1408.06,514.29 C1399.02,524.11 1388.28,533.65 1376.49,540 C1336.77,561.38 1045.02,601.9 921.5,618.32 " fill="none" id="Relation-backto-Composition" style="stroke:#181818;stroke-width:1.0;"/><polygon fill="none" points="1402.97,509.46,1421.14,498.55,1413.74,518.4,1402.97,509.46" style="stroke:#181818;stroke-width:1.0;"/></g><!--MD5=[5aab0b45efd7e0420b76d5abc61341ea]
reverse link Question to DefinitionQuestion--><g id="link_Question_DefinitionQuestion"><path codeLine="89" d="M614.38,311.82 C556.9,333.38 490.05,360.37 431.49,389 C404.95,401.98 376.78,418.19 352.58,432.94 " fill="none" id="Question-backto-DefinitionQuestion" style="stroke:#181818;stroke-width:1.0;"/><polygon fill="none" points="612.3,305.12,633.48,304.72,617.17,318.25,612.3,305.12" style="stroke:#181818;stroke-width:1.0;"/></g><!--MD5=[1a91c42986ff6350db5e5ad37772c534]
link DefinitionQuestion to Definition--><g id="link_DefinitionQuestion_Definition"><path codeLine="90" d="M264.32,516.09 C251.97,536.02 237.05,560.08 224.35,580.56 " fill="none" id="DefinitionQuestion-to-Definition" style="stroke:#181818;stroke-width:1.0;stroke-dasharray:7.0,7.0;"/><polygon fill="#181818" points="221.68,584.88,229.8336,579.3557,224.3236,580.636,223.0432,575.1259,221.68,584.88" style="stroke:#181818;stroke-width:1.0;"/></g><!--MD5=[5be583f153fb95b5c96f3646910cb4a1]
reverse link Question to ClassificationQuestion--><g id="link_Question_ClassificationQuestion"><path codeLine="91" d="M874.82,369.73 C879.74,373.58 884.64,377.35 889.49,381 C913.36,398.95 940.59,417.28 964.72,432.84 " fill="none" id="Question-backto-ClassificationQuestion" style="stroke:#181818;stroke-width:1.0;"/><polygon fill="none" points="870.38,375.14,859.11,357.2,879.11,364.2,870.38,375.14" style="stroke:#181818;stroke-width:1.0;"/></g><!--MD5=[23f7819fe09c8a701dce8d321900b16b]
reverse link ClassificationQuestion to Classification--><g id="link_ClassificationQuestion_Classification"><path codeLine="92" d="M1089.86,519.37 C1126.63,546.54 1172.36,580.33 1202.2,602.38 " fill="none" id="ClassificationQuestion-backto-Classification" style="stroke:#181818;stroke-width:1.0;stroke-dasharray:7.0,7.0;"/><polygon fill="#181818" points="1085.43,516.09,1090.284,524.6596,1089.4488,519.0648,1095.0437,518.2295,1085.43,516.09" style="stroke:#181818;stroke-width:1.0;"/></g><!--MD5=[616dd8b0550f609f3badfa769886b0d6]
reverse link Question to CompositionQuestion--><g id="link_Question_CompositionQuestion"><path codeLine="93" d="M696.61,375.27 C686.29,395.9 676.15,416.18 667.79,432.9 " fill="none" id="Question-backto-CompositionQuestion" style="stroke:#181818;stroke-width:1.0;"/><polygon fill="none" points="690.47,371.9,705.67,357.14,702.99,378.16,690.47,371.9" style="stroke:#181818;stroke-width:1.0;"/></g><!--MD5=[9683b9d0e8260f24c08c9bce62fc113c]
link CompositionQuestion to Composition--><g id="link_CompositionQuestion_Composition"><path codeLine="94" d="M706.76,516.09 C745.43,542.58 794.78,576.38 828.32,599.35 " fill="none" id="CompositionQuestion-to-Composition" style="stroke:#181818;stroke-width:1.0;stroke-dasharray:7.0,7.0;"/><polygon fill="#181818" points="832.74,602.38,827.5762,593.9934,828.6152,599.554,823.0546,600.5931,832.74,602.38" style="stroke:#181818;stroke-width:1.0;"/></g><!--MD5=[ef8f36c983830a0cbfcb75677b6cd1d6]
@startuml ConceptDomainDetailBridge2

class Concept {
    - keyword
    - definitions[ ]
    - relations[ ]
}

class Definition {
    - content
    - isFake
}

class Relation

class Classification

class Composition

package Primary:withKeyword {
    abstract class DefinitionQuestion {
        - statement ="¿Qué es KEYWORD?"
        - Target = Definition
    }

    abstract  class ClassificationQuestion {
        - statement = "Qué tipos hay de KEYWORD"
        - Target = Classification
    }

    abstract class CompositionQuestion {
        - statement ="¿Qué conceptos destacarias del KEYWORD?"
        - Target = Composition
    }
}

class OpenAnswer {
    - content
    - isUsefulToConcept
    - isEvaluatedBy
}

class MultipleChoiceAnswer {
    - options [ ]
    - selectedOption
}

class Option {
    -content
}

package Bridge {
    abstract class Question {
        - concept
        - answersImplementor
        - answers[ ]
        - solutions[ ]
        # void setAnswerImplementor()
        + bool isAnsweredBy(studentName)
        + addToConcept()
        + getSolutions()
    }

    class AnswersImplementor {
        - studentName
        - isOk
        - isEvaluated
        - evaluatedDate
    }
}

Question o- AnswersImplementor
AnswersImplementor <|- - OpenAnswer
AnswersImplementor <|- - MultipleChoiceAnswer

MultipleChoiceAnswer *- - Option

DefinitionQuestion ..> Keyword
ClassificationQuestion ..> Keyword
CompositionQuestion ..> Keyword

Concept - -* Question
Concept *- Keyword
Concept o-"0..n" Definition

Concept o- "0..n" Relation
Relation <|- - Classification
Relation <|- - Composition

Question <|- - DefinitionQuestion
DefinitionQuestion ..> Definition 
Question <|- - ClassificationQuestion
ClassificationQuestion <.. Classification 
Question <|- - CompositionQuestion
CompositionQuestion ..> Composition

@enduml

PlantUML version 1.2022.7(Mon Aug 22 18:01:30 WEST 2022)
(GPL source distribution)
Java Runtime: OpenJDK Runtime Environment
JVM: OpenJDK 64-Bit Server VM
Default Encoding: Cp1252
Language: es
Country: ES
--></g></svg>