<?xml version="1.0" encoding="UTF-8" standalone="no"?><svg xmlns="http://www.w3.org/2000/svg" xmlns:xlink="http://www.w3.org/1999/xlink" contentStyleType="text/css" height="1402px" preserveAspectRatio="none" style="width:1756px;height:1402px;background:#FFFFFF;" version="1.1" viewBox="0 0 1756 1402" width="1756px" zoomAndPan="magnify"><defs/><g><!--MD5=[9d451b2f92d848a8e2d1a4dab2b1c6bf]
class Concept--><g id="elem_Concept"><rect codeLine="2" fill="#F1F1F1" height="48" id="Concept" rx="2.5" ry="2.5" style="stroke:#181818;stroke-width:0.5;" width="89" x="133.5" y="691.98"/><ellipse cx="148.5" cy="707.98" fill="#ADD1B2" rx="11" ry="11" style="stroke:#181818;stroke-width:1.0;"/><path d="M150.9731,714.1231 Q150.3921,714.4219 149.7529,714.5713 Q149.1138,714.7207 148.4082,714.7207 Q145.9014,714.7207 144.5815,713.0689 Q143.2617,711.417 143.2617,708.2959 Q143.2617,705.1665 144.5815,703.5147 Q145.9014,701.8628 148.4082,701.8628 Q149.1138,701.8628 149.7612,702.0122 Q150.4087,702.1616 150.9731,702.4605 L150.9731,705.1831 Q150.3423,704.6021 149.7488,704.3323 Q149.1553,704.0625 148.5244,704.0625 Q147.1797,704.0625 146.4949,705.1292 Q145.8101,706.1958 145.8101,708.2959 Q145.8101,710.3877 146.4949,711.4544 Q147.1797,712.521 148.5244,712.521 Q149.1553,712.521 149.7488,712.2512 Q150.3423,711.9815 150.9731,711.4004 Z " fill="#000000"/><text fill="#000000" font-family="sans-serif" font-size="14" lengthAdjust="spacing" textLength="57" x="162.5" y="713.271">Concept</text><line style="stroke:#181818;stroke-width:0.5;" x1="134.5" x2="221.5" y1="723.98" y2="723.98"/><line style="stroke:#181818;stroke-width:0.5;" x1="134.5" x2="221.5" y1="731.98" y2="731.98"/></g><!--MD5=[1ac27345a8a52a4a812e38456e107300]
class Keyword--><g id="elem_Keyword"><rect codeLine="4" fill="#F1F1F1" height="48" id="Keyword" rx="2.5" ry="2.5" style="stroke:#181818;stroke-width:0.5;" width="91" x="119.5" y="1013.98"/><ellipse cx="134.5" cy="1029.98" fill="#ADD1B2" rx="11" ry="11" style="stroke:#181818;stroke-width:1.0;"/><path d="M136.9731,1036.1231 Q136.3921,1036.4219 135.7529,1036.5713 Q135.1138,1036.7207 134.4082,1036.7207 Q131.9014,1036.7207 130.5815,1035.0689 Q129.2617,1033.417 129.2617,1030.2959 Q129.2617,1027.1665 130.5815,1025.5147 Q131.9014,1023.8628 134.4082,1023.8628 Q135.1138,1023.8628 135.7612,1024.0122 Q136.4087,1024.1616 136.9731,1024.4605 L136.9731,1027.1831 Q136.3423,1026.6021 135.7488,1026.3323 Q135.1553,1026.0625 134.5244,1026.0625 Q133.1797,1026.0625 132.4949,1027.1292 Q131.8101,1028.1958 131.8101,1030.2959 Q131.8101,1032.3877 132.4949,1033.4544 Q133.1797,1034.521 134.5244,1034.521 Q135.1553,1034.521 135.7488,1034.2512 Q136.3423,1033.9815 136.9731,1033.4004 Z " fill="#000000"/><text fill="#000000" font-family="sans-serif" font-size="14" lengthAdjust="spacing" textLength="59" x="148.5" y="1035.271">Keyword</text><line style="stroke:#181818;stroke-width:0.5;" x1="120.5" x2="209.5" y1="1045.98" y2="1045.98"/><line style="stroke:#181818;stroke-width:0.5;" x1="120.5" x2="209.5" y1="1053.98" y2="1053.98"/></g><!--MD5=[af22135d5be6ed11ccd2d02fa51653b3]
class Definition--><g id="elem_Definition"><rect codeLine="6" fill="#F1F1F1" height="64.4883" id="Definition" rx="2.5" ry="2.5" style="stroke:#181818;stroke-width:0.5;" width="99" x="834.5" y="1005.98"/><ellipse cx="849.5" cy="1021.98" fill="#ADD1B2" rx="11" ry="11" style="stroke:#181818;stroke-width:1.0;"/><path d="M851.9731,1028.1231 Q851.3921,1028.4219 850.7529,1028.5713 Q850.1138,1028.7207 849.4082,1028.7207 Q846.9014,1028.7207 845.5815,1027.0689 Q844.2617,1025.417 844.2617,1022.2959 Q844.2617,1019.1665 845.5815,1017.5147 Q846.9014,1015.8628 849.4082,1015.8628 Q850.1138,1015.8628 850.7612,1016.0122 Q851.4087,1016.1616 851.9731,1016.4605 L851.9731,1019.1831 Q851.3423,1018.6021 850.7488,1018.3323 Q850.1553,1018.0625 849.5244,1018.0625 Q848.1797,1018.0625 847.4949,1019.1292 Q846.8101,1020.1958 846.8101,1022.2959 Q846.8101,1024.3877 847.4949,1025.4544 Q848.1797,1026.521 849.5244,1026.521 Q850.1553,1026.521 850.7488,1026.2512 Q851.3423,1025.9815 851.9731,1025.4004 Z " fill="#000000"/><text fill="#000000" font-family="sans-serif" font-size="14" lengthAdjust="spacing" textLength="67" x="863.5" y="1027.271">Definition</text><line style="stroke:#181818;stroke-width:0.5;" x1="835.5" x2="932.5" y1="1037.98" y2="1037.98"/><rect fill="none" height="6" style="stroke:#C82930;stroke-width:1.0;" width="6" x="842.5" y="1048.7241"/><text fill="#000000" font-family="sans-serif" font-size="14" lengthAdjust="spacing" textLength="68" x="854.5" y="1055.5152">Real/Fake</text><line style="stroke:#181818;stroke-width:0.5;" x1="835.5" x2="932.5" y1="1062.4683" y2="1062.4683"/></g><!--MD5=[9b4de504215638550a8bb9c080b7ee00]
class Justification--><g id="elem_Justification"><rect codeLine="10" fill="#F1F1F1" height="64.4883" id="Justification" rx="2.5" ry="2.5" style="stroke:#181818;stroke-width:0.5;" width="112" x="20" y="1186.98"/><ellipse cx="35" cy="1202.98" fill="#ADD1B2" rx="11" ry="11" style="stroke:#181818;stroke-width:1.0;"/><path d="M37.4731,1209.1231 Q36.8921,1209.4219 36.2529,1209.5713 Q35.6138,1209.7207 34.9082,1209.7207 Q32.4014,1209.7207 31.0815,1208.0689 Q29.7617,1206.417 29.7617,1203.2959 Q29.7617,1200.1665 31.0815,1198.5147 Q32.4014,1196.8628 34.9082,1196.8628 Q35.6138,1196.8628 36.2612,1197.0122 Q36.9087,1197.1616 37.4731,1197.4605 L37.4731,1200.1831 Q36.8423,1199.6021 36.2488,1199.3323 Q35.6553,1199.0625 35.0244,1199.0625 Q33.6797,1199.0625 32.9949,1200.1292 Q32.3101,1201.1958 32.3101,1203.2959 Q32.3101,1205.3877 32.9949,1206.4544 Q33.6797,1207.521 35.0244,1207.521 Q35.6553,1207.521 36.2488,1207.2512 Q36.8423,1206.9815 37.4731,1206.4004 Z " fill="#000000"/><text fill="#000000" font-family="sans-serif" font-size="14" lengthAdjust="spacing" textLength="80" x="49" y="1208.271">Justification</text><line style="stroke:#181818;stroke-width:0.5;" x1="21" x2="131" y1="1218.98" y2="1218.98"/><rect fill="none" height="6" style="stroke:#C82930;stroke-width:1.0;" width="6" x="28" y="1229.7241"/><text fill="#000000" font-family="sans-serif" font-size="14" lengthAdjust="spacing" textLength="68" x="40" y="1236.5152">Real/Fake</text><line style="stroke:#181818;stroke-width:0.5;" x1="21" x2="131" y1="1243.4683" y2="1243.4683"/></g><!--MD5=[cf96f38277e03bd5d9657368288e1881]
class Explanation--><g id="elem_Explanation"><rect codeLine="14" fill="#F1F1F1" height="48" id="Explanation" rx="2.5" ry="2.5" style="stroke:#181818;stroke-width:0.5;" width="114" x="19" y="1347.98"/><ellipse cx="34" cy="1363.98" fill="#ADD1B2" rx="11" ry="11" style="stroke:#181818;stroke-width:1.0;"/><path d="M36.4731,1370.1231 Q35.8921,1370.4219 35.2529,1370.5713 Q34.6138,1370.7207 33.9082,1370.7207 Q31.4014,1370.7207 30.0815,1369.0689 Q28.7617,1367.417 28.7617,1364.2959 Q28.7617,1361.1665 30.0815,1359.5147 Q31.4014,1357.8628 33.9082,1357.8628 Q34.6138,1357.8628 35.2612,1358.0122 Q35.9087,1358.1616 36.4731,1358.4605 L36.4731,1361.1831 Q35.8423,1360.6021 35.2488,1360.3323 Q34.6553,1360.0625 34.0244,1360.0625 Q32.6797,1360.0625 31.9949,1361.1292 Q31.3101,1362.1958 31.3101,1364.2959 Q31.3101,1366.3877 31.9949,1367.4544 Q32.6797,1368.521 34.0244,1368.521 Q34.6553,1368.521 35.2488,1368.2512 Q35.8423,1367.9815 36.4731,1367.4004 Z " fill="#000000"/><text fill="#000000" font-family="sans-serif" font-size="14" lengthAdjust="spacing" textLength="82" x="48" y="1369.271">Explanation</text><line style="stroke:#181818;stroke-width:0.5;" x1="20" x2="132" y1="1379.98" y2="1379.98"/><line style="stroke:#181818;stroke-width:0.5;" x1="20" x2="132" y1="1387.98" y2="1387.98"/></g><!--MD5=[534474e9f05b14d7c70186ae077f30e0]
class Relation--><g id="elem_Relation"><rect codeLine="16" fill="#F1F1F1" height="48" id="Relation" rx="2.5" ry="2.5" style="stroke:#181818;stroke-width:0.5;" width="88" x="527" y="840.98"/><ellipse cx="542" cy="856.98" fill="#ADD1B2" rx="11" ry="11" style="stroke:#181818;stroke-width:1.0;"/><path d="M544.4731,863.1231 Q543.8921,863.4219 543.2529,863.5713 Q542.6138,863.7207 541.9082,863.7207 Q539.4014,863.7207 538.0815,862.0689 Q536.7617,860.417 536.7617,857.2959 Q536.7617,854.1665 538.0815,852.5147 Q539.4014,850.8628 541.9082,850.8628 Q542.6138,850.8628 543.2612,851.0122 Q543.9087,851.1616 544.4731,851.4605 L544.4731,854.1831 Q543.8423,853.6021 543.2488,853.3323 Q542.6553,853.0625 542.0244,853.0625 Q540.6797,853.0625 539.9949,854.1292 Q539.3101,855.1958 539.3101,857.2959 Q539.3101,859.3877 539.9949,860.4544 Q540.6797,861.521 542.0244,861.521 Q542.6553,861.521 543.2488,861.2512 Q543.8423,860.9815 544.4731,860.4004 Z " fill="#000000"/><text fill="#000000" font-family="sans-serif" font-size="14" lengthAdjust="spacing" textLength="56" x="556" y="862.271">Relation</text><line style="stroke:#181818;stroke-width:0.5;" x1="528" x2="614" y1="872.98" y2="872.98"/><line style="stroke:#181818;stroke-width:0.5;" x1="528" x2="614" y1="880.98" y2="880.98"/></g><!--MD5=[9c239722e256878d27dcbb07783cc14f]
class Classification--><g id="elem_Classification"><rect codeLine="18" fill="#F1F1F1" height="48" id="Classification" rx="2.5" ry="2.5" style="stroke:#181818;stroke-width:0.5;" width="123" x="496.5" y="1013.98"/><ellipse cx="511.5" cy="1029.98" fill="#ADD1B2" rx="11" ry="11" style="stroke:#181818;stroke-width:1.0;"/><path d="M513.9731,1036.1231 Q513.3921,1036.4219 512.7529,1036.5713 Q512.1138,1036.7207 511.4082,1036.7207 Q508.9014,1036.7207 507.5815,1035.0689 Q506.2617,1033.417 506.2617,1030.2959 Q506.2617,1027.1665 507.5815,1025.5147 Q508.9014,1023.8628 511.4082,1023.8628 Q512.1138,1023.8628 512.7612,1024.0122 Q513.4087,1024.1616 513.9731,1024.4605 L513.9731,1027.1831 Q513.3423,1026.6021 512.7488,1026.3323 Q512.1553,1026.0625 511.5244,1026.0625 Q510.1797,1026.0625 509.4949,1027.1292 Q508.8101,1028.1958 508.8101,1030.2959 Q508.8101,1032.3877 509.4949,1033.4544 Q510.1797,1034.521 511.5244,1034.521 Q512.1553,1034.521 512.7488,1034.2512 Q513.3423,1033.9815 513.9731,1033.4004 Z " fill="#000000"/><text fill="#000000" font-family="sans-serif" font-size="14" lengthAdjust="spacing" textLength="91" x="525.5" y="1035.271">Classification</text><line style="stroke:#181818;stroke-width:0.5;" x1="497.5" x2="618.5" y1="1045.98" y2="1045.98"/><line style="stroke:#181818;stroke-width:0.5;" x1="497.5" x2="618.5" y1="1053.98" y2="1053.98"/></g><!--MD5=[251454e98c15f29849fb35b1904d0020]
class Composition--><g id="elem_Composition"><rect codeLine="20" fill="#F1F1F1" height="48" id="Composition" rx="2.5" ry="2.5" style="stroke:#181818;stroke-width:0.5;" width="120" x="655" y="1013.98"/><ellipse cx="670" cy="1029.98" fill="#ADD1B2" rx="11" ry="11" style="stroke:#181818;stroke-width:1.0;"/><path d="M672.4731,1036.1231 Q671.8921,1036.4219 671.2529,1036.5713 Q670.6138,1036.7207 669.9082,1036.7207 Q667.4014,1036.7207 666.0815,1035.0689 Q664.7617,1033.417 664.7617,1030.2959 Q664.7617,1027.1665 666.0815,1025.5147 Q667.4014,1023.8628 669.9082,1023.8628 Q670.6138,1023.8628 671.2612,1024.0122 Q671.9087,1024.1616 672.4731,1024.4605 L672.4731,1027.1831 Q671.8423,1026.6021 671.2488,1026.3323 Q670.6553,1026.0625 670.0244,1026.0625 Q668.6797,1026.0625 667.9949,1027.1292 Q667.3101,1028.1958 667.3101,1030.2959 Q667.3101,1032.3877 667.9949,1033.4544 Q668.6797,1034.521 670.0244,1034.521 Q670.6553,1034.521 671.2488,1034.2512 Q671.8423,1033.9815 672.4731,1033.4004 Z " fill="#000000"/><text fill="#000000" font-family="sans-serif" font-size="14" lengthAdjust="spacing" textLength="88" x="684" y="1035.271">Composition</text><line style="stroke:#181818;stroke-width:0.5;" x1="656" x2="774" y1="1045.98" y2="1045.98"/><line style="stroke:#181818;stroke-width:0.5;" x1="656" x2="774" y1="1053.98" y2="1053.98"/></g><!--MD5=[eedde156c9dded963040b22578af45fa]
class Level--><g id="elem_Level"><rect codeLine="22" fill="#F1F1F1" height="48" id="Level" rx="2.5" ry="2.5" style="stroke:#181818;stroke-width:0.5;" width="66" x="851" y="265"/><ellipse cx="866" cy="281" fill="#ADD1B2" rx="11" ry="11" style="stroke:#181818;stroke-width:1.0;"/><path d="M868.4731,287.1431 Q867.8921,287.4419 867.2529,287.5913 Q866.6138,287.7407 865.9082,287.7407 Q863.4014,287.7407 862.0815,286.0889 Q860.7617,284.437 860.7617,281.3159 Q860.7617,278.1865 862.0815,276.5347 Q863.4014,274.8828 865.9082,274.8828 Q866.6138,274.8828 867.2612,275.0322 Q867.9087,275.1816 868.4731,275.4805 L868.4731,278.2031 Q867.8423,277.6221 867.2488,277.3523 Q866.6553,277.0825 866.0244,277.0825 Q864.6797,277.0825 863.9949,278.1492 Q863.3101,279.2158 863.3101,281.3159 Q863.3101,283.4077 863.9949,284.4744 Q864.6797,285.541 866.0244,285.541 Q866.6553,285.541 867.2488,285.2712 Q867.8423,285.0015 868.4731,284.4204 Z " fill="#000000"/><text fill="#000000" font-family="sans-serif" font-size="14" lengthAdjust="spacing" textLength="34" x="880" y="286.291">Level</text><line style="stroke:#181818;stroke-width:0.5;" x1="852" x2="916" y1="297" y2="297"/><line style="stroke:#181818;stroke-width:0.5;" x1="852" x2="916" y1="305" y2="305"/></g><!--MD5=[a273cb2d535cd0db32a65a079a20fa3f]
class Primary--><g id="elem_Primary"><rect codeLine="24" fill="#F1F1F1" height="64.4883" id="Primary" rx="2.5" ry="2.5" style="stroke:#181818;stroke-width:0.5;" width="100" x="961" y="683.74"/><ellipse cx="983.2" cy="699.74" fill="#ADD1B2" rx="11" ry="11" style="stroke:#181818;stroke-width:1.0;"/><path d="M985.6731,705.8831 Q985.0921,706.1819 984.4529,706.3313 Q983.8138,706.4807 983.1082,706.4807 Q980.6014,706.4807 979.2815,704.8289 Q977.9617,703.177 977.9617,700.0559 Q977.9617,696.9265 979.2815,695.2747 Q980.6014,693.6228 983.1082,693.6228 Q983.8138,693.6228 984.4612,693.7722 Q985.1087,693.9216 985.6731,694.2205 L985.6731,696.9431 Q985.0423,696.3621 984.4488,696.0923 Q983.8553,695.8225 983.2244,695.8225 Q981.8797,695.8225 981.1949,696.8892 Q980.5101,697.9558 980.5101,700.0559 Q980.5101,702.1477 981.1949,703.2144 Q981.8797,704.281 983.2244,704.281 Q983.8553,704.281 984.4488,704.0112 Q985.0423,703.7415 985.6731,703.1604 Z " fill="#000000"/><text fill="#000000" font-family="sans-serif" font-size="14" lengthAdjust="spacing" textLength="52" x="998.8" y="705.031">Primary</text><line style="stroke:#181818;stroke-width:0.5;" x1="962" x2="1060" y1="715.74" y2="715.74"/><text fill="#000000" font-family="sans-serif" font-size="14" lengthAdjust="spacing" textLength="88" x="967" y="733.2752">withKeyword</text><line style="stroke:#181818;stroke-width:0.5;" x1="962" x2="1060" y1="740.2283" y2="740.2283"/></g><!--MD5=[322ff4561961666878e676a719041932]
class Secundary--><g id="elem_Secundary"><rect codeLine="28" fill="#F1F1F1" height="80.9766" id="Secundary" rx="2.5" ry="2.5" style="stroke:#181818;stroke-width:0.5;" width="216" x="524" y="421"/><ellipse cx="592.25" cy="437" fill="#ADD1B2" rx="11" ry="11" style="stroke:#181818;stroke-width:1.0;"/><path d="M594.7231,443.1431 Q594.1421,443.4419 593.5029,443.5913 Q592.8638,443.7407 592.1582,443.7407 Q589.6514,443.7407 588.3315,442.0889 Q587.0117,440.437 587.0117,437.3159 Q587.0117,434.1865 588.3315,432.5347 Q589.6514,430.8828 592.1582,430.8828 Q592.8638,430.8828 593.5112,431.0322 Q594.1587,431.1816 594.7231,431.4805 L594.7231,434.2031 Q594.0923,433.6221 593.4988,433.3523 Q592.9053,433.0825 592.2744,433.0825 Q590.9297,433.0825 590.2449,434.1492 Q589.5601,435.2158 589.5601,437.3159 Q589.5601,439.4077 590.2449,440.4744 Q590.9297,441.541 592.2744,441.541 Q592.9053,441.541 593.4988,441.2712 Q594.0923,441.0015 594.7231,440.4204 Z " fill="#000000"/><text fill="#000000" font-family="sans-serif" font-size="14" lengthAdjust="spacing" textLength="71" x="612.75" y="442.291">Secundary</text><line style="stroke:#181818;stroke-width:0.5;" x1="525" x2="739" y1="453" y2="453"/><text fill="#000000" font-family="sans-serif" font-size="14" lengthAdjust="spacing" textLength="88" x="530" y="470.5352">withKeyword</text><text fill="#000000" font-family="sans-serif" font-size="14" lengthAdjust="spacing" textLength="204" x="530" y="487.0234">withDefinition or withRelation</text><line style="stroke:#181818;stroke-width:0.5;" x1="525" x2="739" y1="493.9766" y2="493.9766"/></g><!--MD5=[3d8969de01f2361d4f44e57c4405efbc]
class OpenDefinitionQuestion--><g id="elem_OpenDefinitionQuestion"><rect codeLine="33" fill="#F1F1F1" height="48" id="OpenDefinitionQuestion" rx="2.5" ry="2.5" style="stroke:#181818;stroke-width:0.5;" width="198" x="1201" y="840.98"/><ellipse cx="1216" cy="856.98" fill="#ADD1B2" rx="11" ry="11" style="stroke:#181818;stroke-width:1.0;"/><path d="M1218.4731,863.1231 Q1217.8921,863.4219 1217.2529,863.5713 Q1216.6138,863.7207 1215.9082,863.7207 Q1213.4014,863.7207 1212.0815,862.0689 Q1210.7617,860.417 1210.7617,857.2959 Q1210.7617,854.1665 1212.0815,852.5147 Q1213.4014,850.8628 1215.9082,850.8628 Q1216.6138,850.8628 1217.2612,851.0122 Q1217.9087,851.1616 1218.4731,851.4605 L1218.4731,854.1831 Q1217.8423,853.6021 1217.2488,853.3323 Q1216.6553,853.0625 1216.0244,853.0625 Q1214.6797,853.0625 1213.9949,854.1292 Q1213.3101,855.1958 1213.3101,857.2959 Q1213.3101,859.3877 1213.9949,860.4544 Q1214.6797,861.521 1216.0244,861.521 Q1216.6553,861.521 1217.2488,861.2512 Q1217.8423,860.9815 1218.4731,860.4004 Z " fill="#000000"/><text fill="#000000" font-family="sans-serif" font-size="14" lengthAdjust="spacing" textLength="166" x="1230" y="862.271">OpenDefinitionQuestion</text><line style="stroke:#181818;stroke-width:0.5;" x1="1202" x2="1398" y1="872.98" y2="872.98"/><line style="stroke:#181818;stroke-width:0.5;" x1="1202" x2="1398" y1="880.98" y2="880.98"/></g><!--MD5=[9811c07b1247a04619f5505532a86de1]
class OpenClassQuestion--><g id="elem_OpenClassQuestion"><rect codeLine="35" fill="#F1F1F1" height="48" id="OpenClassQuestion" rx="2.5" ry="2.5" style="stroke:#181818;stroke-width:0.5;" width="167" x="744.5" y="840.98"/><ellipse cx="759.5" cy="856.98" fill="#ADD1B2" rx="11" ry="11" style="stroke:#181818;stroke-width:1.0;"/><path d="M761.9731,863.1231 Q761.3921,863.4219 760.7529,863.5713 Q760.1138,863.7207 759.4082,863.7207 Q756.9014,863.7207 755.5815,862.0689 Q754.2617,860.417 754.2617,857.2959 Q754.2617,854.1665 755.5815,852.5147 Q756.9014,850.8628 759.4082,850.8628 Q760.1138,850.8628 760.7612,851.0122 Q761.4087,851.1616 761.9731,851.4605 L761.9731,854.1831 Q761.3423,853.6021 760.7488,853.3323 Q760.1553,853.0625 759.5244,853.0625 Q758.1797,853.0625 757.4949,854.1292 Q756.8101,855.1958 756.8101,857.2959 Q756.8101,859.3877 757.4949,860.4544 Q758.1797,861.521 759.5244,861.521 Q760.1553,861.521 760.7488,861.2512 Q761.3423,860.9815 761.9731,860.4004 Z " fill="#000000"/><text fill="#000000" font-family="sans-serif" font-size="14" lengthAdjust="spacing" textLength="135" x="773.5" y="862.271">OpenClassQuestion</text><line style="stroke:#181818;stroke-width:0.5;" x1="745.5" x2="910.5" y1="872.98" y2="872.98"/><line style="stroke:#181818;stroke-width:0.5;" x1="745.5" x2="910.5" y1="880.98" y2="880.98"/></g><!--MD5=[2e3e70aeace816b0cedea9999a1b71b4]
class OpenCompositionQuestion--><g id="elem_OpenCompositionQuestion"><rect codeLine="37" fill="#F1F1F1" height="48" id="OpenCompositionQuestion" rx="2.5" ry="2.5" style="stroke:#181818;stroke-width:0.5;" width="219" x="946.5" y="840.98"/><ellipse cx="961.5" cy="856.98" fill="#ADD1B2" rx="11" ry="11" style="stroke:#181818;stroke-width:1.0;"/><path d="M963.9731,863.1231 Q963.3921,863.4219 962.7529,863.5713 Q962.1138,863.7207 961.4082,863.7207 Q958.9014,863.7207 957.5815,862.0689 Q956.2617,860.417 956.2617,857.2959 Q956.2617,854.1665 957.5815,852.5147 Q958.9014,850.8628 961.4082,850.8628 Q962.1138,850.8628 962.7612,851.0122 Q963.4087,851.1616 963.9731,851.4605 L963.9731,854.1831 Q963.3423,853.6021 962.7488,853.3323 Q962.1553,853.0625 961.5244,853.0625 Q960.1797,853.0625 959.4949,854.1292 Q958.8101,855.1958 958.8101,857.2959 Q958.8101,859.3877 959.4949,860.4544 Q960.1797,861.521 961.5244,861.521 Q962.1553,861.521 962.7488,861.2512 Q963.3423,860.9815 963.9731,860.4004 Z " fill="#000000"/><text fill="#000000" font-family="sans-serif" font-size="14" lengthAdjust="spacing" textLength="187" x="975.5" y="862.271">OpenCompositionQuestion</text><line style="stroke:#181818;stroke-width:0.5;" x1="947.5" x2="1164.5" y1="872.98" y2="872.98"/><line style="stroke:#181818;stroke-width:0.5;" x1="947.5" x2="1164.5" y1="880.98" y2="880.98"/></g><!--MD5=[846c79ca822f973cc27f78047cd31cde]
class OpenReverseDefinitionQuestion--><g id="elem_OpenReverseDefinitionQuestion"><rect codeLine="39" fill="#F1F1F1" height="48" id="OpenReverseDefinitionQuestion" rx="2.5" ry="2.5" style="stroke:#181818;stroke-width:0.5;" width="251" x="217.5" y="840.98"/><ellipse cx="232.5" cy="856.98" fill="#ADD1B2" rx="11" ry="11" style="stroke:#181818;stroke-width:1.0;"/><path d="M234.9731,863.1231 Q234.3921,863.4219 233.7529,863.5713 Q233.1138,863.7207 232.4082,863.7207 Q229.9014,863.7207 228.5815,862.0689 Q227.2617,860.417 227.2617,857.2959 Q227.2617,854.1665 228.5815,852.5147 Q229.9014,850.8628 232.4082,850.8628 Q233.1138,850.8628 233.7612,851.0122 Q234.4087,851.1616 234.9731,851.4605 L234.9731,854.1831 Q234.3423,853.6021 233.7488,853.3323 Q233.1553,853.0625 232.5244,853.0625 Q231.1797,853.0625 230.4949,854.1292 Q229.8101,855.1958 229.8101,857.2959 Q229.8101,859.3877 230.4949,860.4544 Q231.1797,861.521 232.5244,861.521 Q233.1553,861.521 233.7488,861.2512 Q234.3423,860.9815 234.9731,860.4004 Z " fill="#000000"/><text fill="#000000" font-family="sans-serif" font-size="14" lengthAdjust="spacing" textLength="219" x="246.5" y="862.271">OpenReverseDefinitionQuestion</text><line style="stroke:#181818;stroke-width:0.5;" x1="218.5" x2="467.5" y1="872.98" y2="872.98"/><line style="stroke:#181818;stroke-width:0.5;" x1="218.5" x2="467.5" y1="880.98" y2="880.98"/></g><!--MD5=[3970323986361d67c2ae78bcc49e83dc]
class OpenJustificationQuestion--><g id="elem_OpenJustificationQuestion"><rect codeLine="41" fill="#F1F1F1" height="48" id="OpenJustificationQuestion" rx="2.5" ry="2.5" style="stroke:#181818;stroke-width:0.5;" width="211" x="340.5" y="562.98"/><ellipse cx="355.5" cy="578.98" fill="#ADD1B2" rx="11" ry="11" style="stroke:#181818;stroke-width:1.0;"/><path d="M357.9731,585.1231 Q357.3921,585.4219 356.7529,585.5713 Q356.1138,585.7207 355.4082,585.7207 Q352.9014,585.7207 351.5815,584.0689 Q350.2617,582.417 350.2617,579.2959 Q350.2617,576.1665 351.5815,574.5147 Q352.9014,572.8628 355.4082,572.8628 Q356.1138,572.8628 356.7612,573.0122 Q357.4087,573.1616 357.9731,573.4605 L357.9731,576.1831 Q357.3423,575.6021 356.7488,575.3323 Q356.1553,575.0625 355.5244,575.0625 Q354.1797,575.0625 353.4949,576.1292 Q352.8101,577.1958 352.8101,579.2959 Q352.8101,581.3877 353.4949,582.4544 Q354.1797,583.521 355.5244,583.521 Q356.1553,583.521 356.7488,583.2512 Q357.3423,582.9815 357.9731,582.4004 Z " fill="#000000"/><text fill="#000000" font-family="sans-serif" font-size="14" lengthAdjust="spacing" textLength="179" x="369.5" y="584.271">OpenJustificationQuestion</text><line style="stroke:#181818;stroke-width:0.5;" x1="341.5" x2="550.5" y1="594.98" y2="594.98"/><line style="stroke:#181818;stroke-width:0.5;" x1="341.5" x2="550.5" y1="602.98" y2="602.98"/></g><!--MD5=[fc7123defb831ecdd44b2d9bcef6cceb]
class Question--><g id="elem_Question"><rect codeLine="43" fill="#F1F1F1" height="48" id="Question" rx="2.5" ry="2.5" style="stroke:#181818;stroke-width:0.5;" width="94" x="783" y="7"/><ellipse cx="798" cy="23" fill="#ADD1B2" rx="11" ry="11" style="stroke:#181818;stroke-width:1.0;"/><path d="M800.4731,29.1431 Q799.8921,29.4419 799.2529,29.5913 Q798.6138,29.7407 797.9082,29.7407 Q795.4014,29.7407 794.0815,28.0889 Q792.7617,26.437 792.7617,23.3159 Q792.7617,20.1865 794.0815,18.5347 Q795.4014,16.8828 797.9082,16.8828 Q798.6138,16.8828 799.2612,17.0322 Q799.9087,17.1816 800.4731,17.4805 L800.4731,20.2031 Q799.8423,19.6221 799.2488,19.3523 Q798.6553,19.0825 798.0244,19.0825 Q796.6797,19.0825 795.9949,20.1492 Q795.3101,21.2158 795.3101,23.3159 Q795.3101,25.4077 795.9949,26.4744 Q796.6797,27.541 798.0244,27.541 Q798.6553,27.541 799.2488,27.2712 Q799.8423,27.0015 800.4731,26.4204 Z " fill="#000000"/><text fill="#000000" font-family="sans-serif" font-size="14" lengthAdjust="spacing" textLength="62" x="812" y="28.291">Question</text><line style="stroke:#181818;stroke-width:0.5;" x1="784" x2="876" y1="39" y2="39"/><line style="stroke:#181818;stroke-width:0.5;" x1="784" x2="876" y1="47" y2="47"/></g><!--MD5=[f7b1256a464262a81d5827fb39e684fb]
class Open--><g id="elem_Open"><rect codeLine="45" fill="#F1F1F1" height="48" id="Open" rx="2.5" ry="2.5" style="stroke:#181818;stroke-width:0.5;" width="69" x="795.5" y="136"/><ellipse cx="810.5" cy="152" fill="#ADD1B2" rx="11" ry="11" style="stroke:#181818;stroke-width:1.0;"/><path d="M812.9731,158.1431 Q812.3921,158.4419 811.7529,158.5913 Q811.1138,158.7407 810.4082,158.7407 Q807.9014,158.7407 806.5815,157.0889 Q805.2617,155.437 805.2617,152.3159 Q805.2617,149.1865 806.5815,147.5347 Q807.9014,145.8828 810.4082,145.8828 Q811.1138,145.8828 811.7612,146.0322 Q812.4087,146.1816 812.9731,146.4805 L812.9731,149.2031 Q812.3423,148.6221 811.7488,148.3523 Q811.1553,148.0825 810.5244,148.0825 Q809.1797,148.0825 808.4949,149.1492 Q807.8101,150.2158 807.8101,152.3159 Q807.8101,154.4077 808.4949,155.4744 Q809.1797,156.541 810.5244,156.541 Q811.1553,156.541 811.7488,156.2712 Q812.3423,156.0015 812.9731,155.4204 Z " fill="#000000"/><text fill="#000000" font-family="sans-serif" font-size="14" lengthAdjust="spacing" textLength="37" x="824.5" y="157.291">Open</text><line style="stroke:#181818;stroke-width:0.5;" x1="796.5" x2="863.5" y1="168" y2="168"/><line style="stroke:#181818;stroke-width:0.5;" x1="796.5" x2="863.5" y1="176" y2="176"/></g><!--MD5=[a61a298976b7d1d94498f45c2ebfa10b]
class Statement--><g id="elem_Statement"><rect codeLine="47" fill="#F1F1F1" height="48" id="Statement" rx="2.5" ry="2.5" style="stroke:#181818;stroke-width:0.5;" width="101" x="1050.5" y="343"/><ellipse cx="1065.5" cy="359" fill="#ADD1B2" rx="11" ry="11" style="stroke:#181818;stroke-width:1.0;"/><path d="M1067.9731,365.1431 Q1067.3921,365.4419 1066.7529,365.5913 Q1066.1138,365.7407 1065.4082,365.7407 Q1062.9014,365.7407 1061.5815,364.0889 Q1060.2617,362.437 1060.2617,359.3159 Q1060.2617,356.1865 1061.5815,354.5347 Q1062.9014,352.8828 1065.4082,352.8828 Q1066.1138,352.8828 1066.7612,353.0322 Q1067.4087,353.1816 1067.9731,353.4805 L1067.9731,356.2031 Q1067.3423,355.6221 1066.7488,355.3523 Q1066.1553,355.0825 1065.5244,355.0825 Q1064.1797,355.0825 1063.4949,356.1492 Q1062.8101,357.2158 1062.8101,359.3159 Q1062.8101,361.4077 1063.4949,362.4744 Q1064.1797,363.541 1065.5244,363.541 Q1066.1553,363.541 1066.7488,363.2712 Q1067.3423,363.0015 1067.9731,362.4204 Z " fill="#000000"/><text fill="#000000" font-family="sans-serif" font-size="14" lengthAdjust="spacing" textLength="69" x="1079.5" y="364.291">Statement</text><line style="stroke:#181818;stroke-width:0.5;" x1="1051.5" x2="1150.5" y1="375" y2="375"/><line style="stroke:#181818;stroke-width:0.5;" x1="1051.5" x2="1150.5" y1="383" y2="383"/></g><!--MD5=[b4e2c91c8ef5e2e71a24725d4a99b9c0]
class StatementTemplate--><g id="elem_StatementTemplate"><rect codeLine="49" fill="#F1F1F1" height="48" id="StatementTemplate" rx="2.5" ry="2.5" style="stroke:#181818;stroke-width:0.5;" width="165" x="1434.5" y="840.98"/><ellipse cx="1449.5" cy="856.98" fill="#ADD1B2" rx="11" ry="11" style="stroke:#181818;stroke-width:1.0;"/><path d="M1451.9731,863.1231 Q1451.3921,863.4219 1450.7529,863.5713 Q1450.1138,863.7207 1449.4082,863.7207 Q1446.9014,863.7207 1445.5815,862.0689 Q1444.2617,860.417 1444.2617,857.2959 Q1444.2617,854.1665 1445.5815,852.5147 Q1446.9014,850.8628 1449.4082,850.8628 Q1450.1138,850.8628 1450.7612,851.0122 Q1451.4087,851.1616 1451.9731,851.4605 L1451.9731,854.1831 Q1451.3423,853.6021 1450.7488,853.3323 Q1450.1553,853.0625 1449.5244,853.0625 Q1448.1797,853.0625 1447.4949,854.1292 Q1446.8101,855.1958 1446.8101,857.2959 Q1446.8101,859.3877 1447.4949,860.4544 Q1448.1797,861.521 1449.5244,861.521 Q1450.1553,861.521 1450.7488,861.2512 Q1451.3423,860.9815 1451.9731,860.4004 Z " fill="#000000"/><text fill="#000000" font-family="sans-serif" font-size="14" lengthAdjust="spacing" textLength="133" x="1463.5" y="862.271">StatementTemplate</text><line style="stroke:#181818;stroke-width:0.5;" x1="1435.5" x2="1598.5" y1="872.98" y2="872.98"/><line style="stroke:#181818;stroke-width:0.5;" x1="1435.5" x2="1598.5" y1="880.98" y2="880.98"/></g><!--MD5=[7c04efaf76fcba660f3d40a815d64527]
class DefinitionTemplate--><g id="elem_DefinitionTemplate"><rect codeLine="52" fill="#F1F1F1" height="64.4883" id="DefinitionTemplate" rx="2.5" ry="2.5" style="stroke:#181818;stroke-width:0.5;" width="163" x="1586.5" y="1005.74"/><ellipse cx="1601.5" cy="1021.74" fill="#ADD1B2" rx="11" ry="11" style="stroke:#181818;stroke-width:1.0;"/><path d="M1603.9731,1027.8831 Q1603.3921,1028.1819 1602.7529,1028.3313 Q1602.1138,1028.4807 1601.4082,1028.4807 Q1598.9014,1028.4807 1597.5815,1026.8289 Q1596.2617,1025.177 1596.2617,1022.0559 Q1596.2617,1018.9265 1597.5815,1017.2747 Q1598.9014,1015.6228 1601.4082,1015.6228 Q1602.1138,1015.6228 1602.7612,1015.7722 Q1603.4087,1015.9216 1603.9731,1016.2205 L1603.9731,1018.9431 Q1603.3423,1018.3621 1602.7488,1018.0923 Q1602.1553,1017.8225 1601.5244,1017.8225 Q1600.1797,1017.8225 1599.4949,1018.8892 Q1598.8101,1019.9558 1598.8101,1022.0559 Q1598.8101,1024.1477 1599.4949,1025.2144 Q1600.1797,1026.281 1601.5244,1026.281 Q1602.1553,1026.281 1602.7488,1026.0112 Q1603.3423,1025.7415 1603.9731,1025.1604 Z " fill="#000000"/><text fill="#000000" font-family="sans-serif" font-size="14" lengthAdjust="spacing" textLength="131" x="1615.5" y="1027.031">DefinitionTemplate</text><line style="stroke:#181818;stroke-width:0.5;" x1="1587.5" x2="1748.5" y1="1037.74" y2="1037.74"/><text fill="#000000" font-family="sans-serif" font-size="14" lengthAdjust="spacing" textLength="141" x="1592.5" y="1055.2752">"¿Qué es KEYWORD?"</text><line style="stroke:#181818;stroke-width:0.5;" x1="1587.5" x2="1748.5" y1="1062.2283" y2="1062.2283"/></g><!--MD5=[df233d8a9a87a1921e502e3e671e3ffc]
class ClassTemplate--><g id="elem_ClassTemplate"><rect codeLine="56" fill="#F1F1F1" height="64.4883" id="ClassTemplate" rx="2.5" ry="2.5" style="stroke:#181818;stroke-width:0.5;" width="209" x="992.5" y="1005.74"/><ellipse cx="1042.75" cy="1021.74" fill="#ADD1B2" rx="11" ry="11" style="stroke:#181818;stroke-width:1.0;"/><path d="M1045.2231,1027.8831 Q1044.6421,1028.1819 1044.0029,1028.3313 Q1043.3638,1028.4807 1042.6582,1028.4807 Q1040.1514,1028.4807 1038.8315,1026.8289 Q1037.5117,1025.177 1037.5117,1022.0559 Q1037.5117,1018.9265 1038.8315,1017.2747 Q1040.1514,1015.6228 1042.6582,1015.6228 Q1043.3638,1015.6228 1044.0112,1015.7722 Q1044.6587,1015.9216 1045.2231,1016.2205 L1045.2231,1018.9431 Q1044.5923,1018.3621 1043.9988,1018.0923 Q1043.4053,1017.8225 1042.7744,1017.8225 Q1041.4297,1017.8225 1040.7449,1018.8892 Q1040.0601,1019.9558 1040.0601,1022.0559 Q1040.0601,1024.1477 1040.7449,1025.2144 Q1041.4297,1026.281 1042.7744,1026.281 Q1043.4053,1026.281 1043.9988,1026.0112 Q1044.5923,1025.7415 1045.2231,1025.1604 Z " fill="#000000"/><text fill="#000000" font-family="sans-serif" font-size="14" lengthAdjust="spacing" textLength="100" x="1063.25" y="1027.031">ClassTemplate</text><line style="stroke:#181818;stroke-width:0.5;" x1="993.5" x2="1200.5" y1="1037.74" y2="1037.74"/><text fill="#000000" font-family="sans-serif" font-size="14" lengthAdjust="spacing" textLength="197" x="998.5" y="1055.2752">"Qué tipos hay de KEYWORD"</text><line style="stroke:#181818;stroke-width:0.5;" x1="993.5" x2="1200.5" y1="1062.2283" y2="1062.2283"/></g><!--MD5=[88a13f3203b2a2009b2633b737321983]
class CompositionTemplate--><g id="elem_CompositionTemplate"><rect codeLine="60" fill="#F1F1F1" height="64.4883" id="CompositionTemplate" rx="2.5" ry="2.5" style="stroke:#181818;stroke-width:0.5;" width="314" x="1237" y="1005.74"/><ellipse cx="1313.75" cy="1021.74" fill="#ADD1B2" rx="11" ry="11" style="stroke:#181818;stroke-width:1.0;"/><path d="M1316.2231,1027.8831 Q1315.6421,1028.1819 1315.0029,1028.3313 Q1314.3638,1028.4807 1313.6582,1028.4807 Q1311.1514,1028.4807 1309.8315,1026.8289 Q1308.5117,1025.177 1308.5117,1022.0559 Q1308.5117,1018.9265 1309.8315,1017.2747 Q1311.1514,1015.6228 1313.6582,1015.6228 Q1314.3638,1015.6228 1315.0112,1015.7722 Q1315.6587,1015.9216 1316.2231,1016.2205 L1316.2231,1018.9431 Q1315.5923,1018.3621 1314.9988,1018.0923 Q1314.4053,1017.8225 1313.7744,1017.8225 Q1312.4297,1017.8225 1311.7449,1018.8892 Q1311.0601,1019.9558 1311.0601,1022.0559 Q1311.0601,1024.1477 1311.7449,1025.2144 Q1312.4297,1026.281 1313.7744,1026.281 Q1314.4053,1026.281 1314.9988,1026.0112 Q1315.5923,1025.7415 1316.2231,1025.1604 Z " fill="#000000"/><text fill="#000000" font-family="sans-serif" font-size="14" lengthAdjust="spacing" textLength="152" x="1334.25" y="1027.031">CompositionTemplate</text><line style="stroke:#181818;stroke-width:0.5;" x1="1238" x2="1550" y1="1037.74" y2="1037.74"/><text fill="#000000" font-family="sans-serif" font-size="14" lengthAdjust="spacing" textLength="302" x="1243" y="1055.2752">"¿Qué conceptos destacarias del KEYWORD?"</text><line style="stroke:#181818;stroke-width:0.5;" x1="1238" x2="1550" y1="1062.2283" y2="1062.2283"/></g><!--MD5=[19d6b2bf71035231380bfa562c108381]
class JustificationTemplate--><g id="elem_JustificationTemplate"><rect codeLine="64" fill="#F1F1F1" height="64.4883" id="JustificationTemplate" rx="2.5" ry="2.5" style="stroke:#181818;stroke-width:0.5;" width="319" x="259.5" y="683.74"/><ellipse cx="342.75" cy="699.74" fill="#ADD1B2" rx="11" ry="11" style="stroke:#181818;stroke-width:1.0;"/><path d="M345.2231,705.8831 Q344.6421,706.1819 344.0029,706.3313 Q343.3638,706.4807 342.6582,706.4807 Q340.1514,706.4807 338.8315,704.8289 Q337.5117,703.177 337.5117,700.0559 Q337.5117,696.9265 338.8315,695.2747 Q340.1514,693.6228 342.6582,693.6228 Q343.3638,693.6228 344.0112,693.7722 Q344.6587,693.9216 345.2231,694.2205 L345.2231,696.9431 Q344.5923,696.3621 343.9988,696.0923 Q343.4053,695.8225 342.7744,695.8225 Q341.4297,695.8225 340.7449,696.8892 Q340.0601,697.9558 340.0601,700.0559 Q340.0601,702.1477 340.7449,703.2144 Q341.4297,704.281 342.7744,704.281 Q343.4053,704.281 343.9988,704.0112 Q344.5923,703.7415 345.2231,703.1604 Z " fill="#000000"/><text fill="#000000" font-family="sans-serif" font-size="14" lengthAdjust="spacing" textLength="144" x="363.25" y="705.031">JustificationTemplate</text><line style="stroke:#181818;stroke-width:0.5;" x1="260.5" x2="577.5" y1="715.74" y2="715.74"/><text fill="#000000" font-family="sans-serif" font-size="14" lengthAdjust="spacing" textLength="307" x="265.5" y="733.2752">"¿La KEYWORD es esta DEFINITION?¿Por qué?"</text><line style="stroke:#181818;stroke-width:0.5;" x1="260.5" x2="577.5" y1="740.2283" y2="740.2283"/></g><!--MD5=[998e28501153ccbcbc2323d5209086ee]
class ReverseDefinitionTemplate--><g id="elem_ReverseDefinitionTemplate"><rect codeLine="68" fill="#F1F1F1" height="64.4883" id="ReverseDefinitionTemplate" rx="2.5" ry="2.5" style="stroke:#181818;stroke-width:0.5;" width="216" x="246" y="1005.74"/><ellipse cx="261" cy="1021.74" fill="#ADD1B2" rx="11" ry="11" style="stroke:#181818;stroke-width:1.0;"/><path d="M263.4731,1027.8831 Q262.8921,1028.1819 262.2529,1028.3313 Q261.6138,1028.4807 260.9082,1028.4807 Q258.4014,1028.4807 257.0815,1026.8289 Q255.7617,1025.177 255.7617,1022.0559 Q255.7617,1018.9265 257.0815,1017.2747 Q258.4014,1015.6228 260.9082,1015.6228 Q261.6138,1015.6228 262.2612,1015.7722 Q262.9087,1015.9216 263.4731,1016.2205 L263.4731,1018.9431 Q262.8423,1018.3621 262.2488,1018.0923 Q261.6553,1017.8225 261.0244,1017.8225 Q259.6797,1017.8225 258.9949,1018.8892 Q258.3101,1019.9558 258.3101,1022.0559 Q258.3101,1024.1477 258.9949,1025.2144 Q259.6797,1026.281 261.0244,1026.281 Q261.6553,1026.281 262.2488,1026.0112 Q262.8423,1025.7415 263.4731,1025.1604 Z " fill="#000000"/><text fill="#000000" font-family="sans-serif" font-size="14" lengthAdjust="spacing" textLength="184" x="275" y="1027.031">ReverseDefinitionTemplate</text><line style="stroke:#181818;stroke-width:0.5;" x1="247" x2="461" y1="1037.74" y2="1037.74"/><text fill="#000000" font-family="sans-serif" font-size="14" lengthAdjust="spacing" textLength="185" x="252" y="1055.2752">"¿Qué es REALDEFINITION?"</text><line style="stroke:#181818;stroke-width:0.5;" x1="247" x2="461" y1="1062.2283" y2="1062.2283"/></g><!--MD5=[f9fadfa5a66b7e5a67b370cd443ffe52]
class Answer--><g id="elem_Answer"><rect codeLine="72" fill="#F1F1F1" height="48" id="Answer" rx="2.5" ry="2.5" style="stroke:#181818;stroke-width:0.5;" width="83" x="851.5" y="562.98"/><ellipse cx="866.5" cy="578.98" fill="#ADD1B2" rx="11" ry="11" style="stroke:#181818;stroke-width:1.0;"/><path d="M868.9731,585.1231 Q868.3921,585.4219 867.7529,585.5713 Q867.1138,585.7207 866.4082,585.7207 Q863.9014,585.7207 862.5815,584.0689 Q861.2617,582.417 861.2617,579.2959 Q861.2617,576.1665 862.5815,574.5147 Q863.9014,572.8628 866.4082,572.8628 Q867.1138,572.8628 867.7612,573.0122 Q868.4087,573.1616 868.9731,573.4605 L868.9731,576.1831 Q868.3423,575.6021 867.7488,575.3323 Q867.1553,575.0625 866.5244,575.0625 Q865.1797,575.0625 864.4949,576.1292 Q863.8101,577.1958 863.8101,579.2959 Q863.8101,581.3877 864.4949,582.4544 Q865.1797,583.521 866.5244,583.521 Q867.1553,583.521 867.7488,583.2512 Q868.3423,582.9815 868.9731,582.4004 Z " fill="#000000"/><text fill="#000000" font-family="sans-serif" font-size="14" lengthAdjust="spacing" textLength="51" x="880.5" y="584.271">Answer</text><line style="stroke:#181818;stroke-width:0.5;" x1="852.5" x2="933.5" y1="594.98" y2="594.98"/><line style="stroke:#181818;stroke-width:0.5;" x1="852.5" x2="933.5" y1="602.98" y2="602.98"/></g><!--MD5=[7a7df4cc8beee4d5ec4845ad980cbb28]
class OpenField--><g id="elem_OpenField"><rect codeLine="74" fill="#F1F1F1" height="48" id="OpenField" rx="2.5" ry="2.5" style="stroke:#181818;stroke-width:0.5;" width="102" x="777" y="691.98"/><ellipse cx="792" cy="707.98" fill="#ADD1B2" rx="11" ry="11" style="stroke:#181818;stroke-width:1.0;"/><path d="M794.4731,714.1231 Q793.8921,714.4219 793.2529,714.5713 Q792.6138,714.7207 791.9082,714.7207 Q789.4014,714.7207 788.0815,713.0689 Q786.7617,711.417 786.7617,708.2959 Q786.7617,705.1665 788.0815,703.5147 Q789.4014,701.8628 791.9082,701.8628 Q792.6138,701.8628 793.2612,702.0122 Q793.9087,702.1616 794.4731,702.4605 L794.4731,705.1831 Q793.8423,704.6021 793.2488,704.3323 Q792.6553,704.0625 792.0244,704.0625 Q790.6797,704.0625 789.9949,705.1292 Q789.3101,706.1958 789.3101,708.2959 Q789.3101,710.3877 789.9949,711.4544 Q790.6797,712.521 792.0244,712.521 Q792.6553,712.521 793.2488,712.2512 Q793.8423,711.9815 794.4731,711.4004 Z " fill="#000000"/><text fill="#000000" font-family="sans-serif" font-size="14" lengthAdjust="spacing" textLength="70" x="806" y="713.271">OpenField</text><line style="stroke:#181818;stroke-width:0.5;" x1="778" x2="878" y1="723.98" y2="723.98"/><line style="stroke:#181818;stroke-width:0.5;" x1="778" x2="878" y1="731.98" y2="731.98"/></g><!--MD5=[4cad30c456caf6c2d8ef64c6efcf5ce1]
reverse link Question to Open--><g id="link_Question_Open"><path codeLine="76" d="M830,76.74 C830,96.87 830,119.77 830,136.28 " fill="none" id="Question-backto-Open" style="stroke:#181818;stroke-width:1.0;"/><polygon fill="none" points="823,76.81,830,56.81,837,76.81,823,76.81" style="stroke:#181818;stroke-width:1.0;"/></g><!--MD5=[4530e78fb220fd09ea7e114ca9176db9]
link Open to Concept--><g id="link_Open_Concept"><path codeLine="77" d="M795.64,162.61 C639.69,170.34 6,206.77 6,288 C6,288 6,288 6,587.98 C6,645.83 69.75,680.31 119.62,698.44 " fill="none" id="Open-to-Concept" style="stroke:#181818;stroke-width:1.0;"/><polygon fill="none" points="131.83,702.63,127.4564,696.8966,120.4819,698.7287,124.8555,704.462,131.83,702.63" style="stroke:#181818;stroke-width:1.0;"/><text fill="#000000" font-family="sans-serif" font-size="13" lengthAdjust="spacing" textLength="24" x="763.3821" y="159.335">0..n</text></g><!--MD5=[f8d4517273a291fe1b4647de6925b9ab]
reverse link Answer to OpenField--><g id="link_Answer_OpenField"><path codeLine="78" d="M871.43,630.12 C860.82,650.85 848.45,675.03 839.63,692.26 " fill="none" id="Answer-backto-OpenField" style="stroke:#181818;stroke-width:1.0;"/><polygon fill="none" points="865.04,627.24,880.39,612.62,877.51,633.61,865.04,627.24" style="stroke:#181818;stroke-width:1.0;"/></g><!--MD5=[59461357328b13f33e0e2dce35b637f1]
reverse link Open to OpenField--><g id="link_Open_OpenField"><path codeLine="79" d="M815.7,197.57 C807.18,222.62 798,256.83 798,288 C798,288 798,288 798,587.98 C798,625.36 810.46,667.31 819.32,692.42 " fill="none" id="Open-backto-OpenField" style="stroke:#181818;stroke-width:1.0;"/><polygon fill="none" points="820.06,185.4,814.2693,189.6974,816.0089,196.6955,821.7996,192.3981,820.06,185.4" style="stroke:#181818;stroke-width:1.0;"/></g><!--MD5=[96f5c217a7af9df0178c70f7f2c310a0]
reverse link Open to Level--><g id="link_Open_Level"><path codeLine="80" d="M845.33,197.05 C854.57,218.78 866.06,245.82 874.11,264.75 " fill="none" id="Open-backto-Level" style="stroke:#181818;stroke-width:1.0;"/><polygon fill="#181818" points="840.37,185.39,839.0344,192.4763,845.062,196.4347,846.3976,189.3483,840.37,185.39" style="stroke:#181818;stroke-width:1.0;"/></g><!--MD5=[17853d1614ee74b677b046be12e4a313]
reverse link Open to Statement--><g id="link_Open_Statement"><path codeLine="81" d="M871.66,192.52 C926.4,233.93 1021.28,305.7 1070.07,342.6 " fill="none" id="Open-backto-Statement" style="stroke:#181818;stroke-width:1.0;"/><polygon fill="#181818" points="861.51,184.84,863.8831,191.6494,871.0814,192.0779,868.7084,185.2685,861.51,184.84" style="stroke:#181818;stroke-width:1.0;"/></g><!--MD5=[434f404ffda59800d2340396998dfc87]
link Statement to StatementTemplate--><g id="link_Statement_StatementTemplate"><path codeLine="82" d="M1106.86,391.46 C1114.25,423.13 1126,481.44 1126,531.98 C1126,531.98 1126,531.98 1126,716.98 C1126,854.32 1289.18,770.72 1417,820.98 C1430.47,826.28 1444.82,832.25 1458.33,838.02 " fill="none" id="Statement-to-StatementTemplate" style="stroke:#181818;stroke-width:1.0;stroke-dasharray:7.0,7.0;"/><polygon fill="#181818" points="1462.67,839.88,1455.9815,832.6506,1458.0765,837.9052,1452.8219,840.0002,1462.67,839.88" style="stroke:#181818;stroke-width:1.0;"/></g><!--MD5=[357c4abe4ae02615f163987610a5cb7f]
reverse link Concept to Keyword--><g id="link_Concept_Keyword"><path codeLine="84" d="M176.48,754.5 C173.76,821.32 168.17,959.04 165.94,1013.8 " fill="none" id="Concept-backto-Keyword" style="stroke:#181818;stroke-width:1.0;"/><polygon fill="#181818" points="176.99,741.76,172.7493,747.5924,176.502,753.7501,180.7427,747.9177,176.99,741.76" style="stroke:#181818;stroke-width:1.0;"/></g><!--MD5=[543bb2115b5a10697a67507a00f6a2f4]
reverse link Concept to Definition--><g id="link_Concept_Definition"><path codeLine="85" d="M218.72,748.17 C226.16,752.73 234.08,756.92 242,759.98 C415.47,827.05 494.51,728.71 656,820.98 C699.63,845.91 691.56,873.35 727,908.98 C762.97,945.13 808.56,981.39 841.33,1006.04 " fill="none" id="Concept-backto-Definition" style="stroke:#181818;stroke-width:1.0;"/><polygon fill="none" points="208.01,741.1,210.8139,747.7436,218.0249,747.7107,215.221,741.067,208.01,741.1" style="stroke:#181818;stroke-width:1.0;"/><text fill="#000000" font-family="sans-serif" font-size="13" lengthAdjust="spacing" textLength="24" x="806.0543" y="995.4555">0..n</text></g><!--MD5=[38796b68b5180f699f927fbe8d179b6a]
reverse link Definition to Justification--><g id="link_Definition_Justification"><path codeLine="86" d="M823.2,1076.68 C813.35,1081.71 803.08,1086.37 793,1089.98 C556.09,1174.78 254.24,1205.09 131.57,1214.38 " fill="none" id="Definition-backto-Justification" style="stroke:#181818;stroke-width:1.0;"/><polygon fill="none" points="834.5,1070.62,827.322,1069.9299,823.9242,1076.2903,831.1022,1076.9804,834.5,1070.62" style="stroke:#181818;stroke-width:1.0;"/><text fill="#000000" font-family="sans-serif" font-size="13" lengthAdjust="spacing" textLength="29" x="700" y="1133.5484">Fake</text><text fill="#000000" font-family="sans-serif" font-size="13" lengthAdjust="spacing" textLength="24" x="139.7029" y="1202.9591">0..n</text></g><!--MD5=[eb7a17800df728e9c634ee1be9fc6c88]
reverse link Justification to Explanation--><g id="link_Justification_Explanation"><path codeLine="87" d="M76,1265.19 C76,1292.28 76,1325.59 76,1347.51 " fill="none" id="Justification-backto-Explanation" style="stroke:#181818;stroke-width:1.0;"/><polygon fill="none" points="76,1252.42,72.0066,1258.4244,76.0132,1264.42,80.0066,1258.4156,76,1252.42" style="stroke:#181818;stroke-width:1.0;"/><text fill="#000000" font-family="sans-serif" font-size="13" lengthAdjust="spacing" textLength="29" x="77" y="1314.5484">Fake</text></g><!--MD5=[54f9360500e0fd532969fc16f437bbea]
reverse link Concept to Relation--><g id="link_Concept_Relation"><path codeLine="89" d="M219.93,748.1 C227.06,752.52 234.57,756.68 242,759.98 C344.14,805.39 381.25,781.95 486,820.98 C500.88,826.52 516.55,833.96 530.33,841.08 " fill="none" id="Concept-backto-Relation" style="stroke:#181818;stroke-width:1.0;"/><polygon fill="none" points="209.25,741.09,212.068,747.7277,219.279,747.6793,216.4609,741.0417,209.25,741.09" style="stroke:#181818;stroke-width:1.0;"/><text fill="#000000" font-family="sans-serif" font-size="13" lengthAdjust="spacing" textLength="24" x="494.8084" y="831.8136">0..n</text></g><!--MD5=[90ea77717cc70d7f588b001bbb985d62]
reverse link Relation to Classification--><g id="link_Relation_Classification"><path codeLine="90" d="M557.83,909.13 C555.41,918.86 553.25,929.2 552,938.98 C548.75,964.34 551.37,993.63 554.1,1013.53 " fill="none" id="Relation-backto-Classification" style="stroke:#181818;stroke-width:1.0;"/><polygon fill="none" points="551,907.57,563.09,890.16,564.5,911.3,551,907.57" style="stroke:#181818;stroke-width:1.0;"/></g><!--MD5=[aac130c8b5f905729b18e85e231f7b50]
reverse link Relation to Composition--><g id="link_Relation_Composition"><path codeLine="91" d="M575.12,910.18 C578.22,925.72 583.62,942.63 593,955.98 C594.49,958.1 643.54,990.36 678.99,1013.52 " fill="none" id="Relation-backto-Composition" style="stroke:#181818;stroke-width:1.0;"/><polygon fill="none" points="568.2,911.25,572.24,890.45,582.06,909.23,568.2,911.25" style="stroke:#181818;stroke-width:1.0;"/></g><!--MD5=[2feebbf5a2a7ca3d6cf397d4221288ef]
reverse link Level to Primary--><g id="link_Level_Primary"><path codeLine="94" d="M897.12,333.89 C922.81,419.89 979.23,608.67 1001.6,683.51 " fill="none" id="Level-backto-Primary" style="stroke:#181818;stroke-width:1.0;"/><polygon fill="none" points="890.46,336.07,891.44,314.91,903.88,332.07,890.46,336.07" style="stroke:#181818;stroke-width:1.0;"/></g><!--MD5=[cb19bd22a149a884c5664d5c3292c3d0]
reverse link Level to Secundary--><g id="link_Level_Secundary"><path codeLine="95" d="M832.91,324.57 C791.75,352.42 733.83,391.6 690.74,420.75 " fill="none" id="Level-backto-Secundary" style="stroke:#181818;stroke-width:1.0;"/><polygon fill="none" points="828.8,318.9,849.28,313.49,836.64,330.5,828.8,318.9" style="stroke:#181818;stroke-width:1.0;"/></g><!--MD5=[96fd3862f813cce9602d0dd99ea34e46]
reverse link StatementTemplate to DefinitionTemplate--><g id="link_StatementTemplate_DefinitionTemplate"><path codeLine="97" d="M1551.81,905.4 C1578.64,935.78 1615.24,977.23 1640.14,1005.43 " fill="none" id="StatementTemplate-backto-DefinitionTemplate" style="stroke:#181818;stroke-width:1.0;"/><polygon fill="none" points="1546.67,910.16,1538.68,890.53,1557.17,900.89,1546.67,910.16" style="stroke:#181818;stroke-width:1.0;"/></g><!--MD5=[0749c0cb69901626ae9abd6f720f7125]
reverse link StatementTemplate to ClassTemplate--><g id="link_StatementTemplate_ClassTemplate"><path codeLine="98" d="M1443.94,897.73 C1434.89,901.57 1425.74,905.39 1417,908.98 C1330.03,944.66 1307.2,950.86 1220,985.98 C1204.67,992.15 1188.31,998.86 1172.68,1005.31 " fill="none" id="StatementTemplate-backto-ClassTemplate" style="stroke:#181818;stroke-width:1.0;"/><polygon fill="none" points="1440.89,891.42,1462.03,890,1446.39,904.3,1440.89,891.42" style="stroke:#181818;stroke-width:1.0;"/></g><!--MD5=[cc6ca07f2faaed45385085669a2db5fe]
reverse link StatementTemplate to CompositionTemplate--><g id="link_StatementTemplate_CompositionTemplate"><path codeLine="99" d="M1487.72,906.68 C1465.96,936.93 1436.7,977.62 1416.69,1005.43 " fill="none" id="StatementTemplate-backto-CompositionTemplate" style="stroke:#181818;stroke-width:1.0;"/><polygon fill="none" points="1481.91,902.78,1499.27,890.63,1493.28,910.95,1481.91,902.78" style="stroke:#181818;stroke-width:1.0;"/></g><!--MD5=[a66fbc61ae25ad9fae8dae85d457713c]
reverse link Primary to OpenDefinitionQuestion--><g id="link_Primary_OpenDefinitionQuestion"><path codeLine="101" d="M1062.34,762.01 C1075.67,772.38 1090.4,782.76 1105,790.98 C1111.11,794.42 1181.53,820.54 1236.01,840.56 " fill="none" id="Primary-backto-OpenDefinitionQuestion" style="stroke:#181818;stroke-width:1.0;"/><polygon fill="none" points="1058.06,767.55,1046.93,749.52,1066.87,756.67,1058.06,767.55" style="stroke:#181818;stroke-width:1.0;"/></g><!--MD5=[c51b582ebb4265caee0e3ff24c6f9a95]
reverse link OpenDefinitionQuestion to DefinitionTemplate--><g id="link_OpenDefinitionQuestion_DefinitionTemplate"><path codeLine="102" d="M1367.83,895.22 C1422.27,918.96 1500.49,953.68 1568,985.98 C1580.75,992.08 1594.29,998.81 1607.16,1005.33 " fill="none" id="OpenDefinitionQuestion-backto-DefinitionTemplate" style="stroke:#181818;stroke-width:1.0;"/><polygon fill="#181818" points="1355.91,890.03,1359.8151,896.0922,1366.913,894.8191,1363.0078,888.7569,1355.91,890.03" style="stroke:#181818;stroke-width:1.0;"/></g><!--MD5=[a356a772972cb1021badad13ac2d514c]
link OpenField to OpenDefinitionQuestion--><g id="link_OpenField_OpenDefinitionQuestion"><path codeLine="103" d="M878.82,737.34 C898.68,744.94 921.74,753.33 943,759.98 C1048.03,792.86 1077.88,788.4 1183,820.98 C1197.18,825.37 1212.15,830.5 1226.49,835.65 " fill="none" id="OpenField-to-OpenDefinitionQuestion" style="stroke:#181818;stroke-width:1.0;"/><polygon fill="none" points="1238.56,840.05,1234.2948,834.2356,1227.2871,835.9364,1231.5523,841.7508,1238.56,840.05" style="stroke:#181818;stroke-width:1.0;"/><text fill="#000000" font-family="sans-serif" font-size="13" lengthAdjust="spacing" textLength="24" x="886.8465" y="746.471">1..n</text></g><!--MD5=[49c48160fdf887f5a9305ebf554c6fce]
reverse link OpenDefinitionQuestion to Definition--><g id="link_OpenDefinitionQuestion_Definition"><path codeLine="104" d="M1230.31,891.63 C1135.74,926.46 978.06,984.57 975,985.98 C961.19,992.35 946.64,1000.03 933.33,1007.48 " fill="none" id="OpenDefinitionQuestion-backto-Definition" style="stroke:#181818;stroke-width:1.0;stroke-dasharray:7.0,7.0;"/><polygon fill="#181818" points="1234.75,890,1224.9218,889.3621,1230.059,891.7305,1227.6906,896.8677,1234.75,890" style="stroke:#181818;stroke-width:1.0;"/><text fill="#000000" font-family="sans-serif" font-size="13" lengthAdjust="spacing" textLength="63" x="1101" y="952.5484">OpenField</text></g><!--MD5=[1ffc8cee98218a8603727f51e6b211a8]
reverse link Primary to OpenClassQuestion--><g id="link_Primary_OpenClassQuestion"><path codeLine="106" d="M955.08,761.9 C922.7,787.91 883.27,819.58 857,840.68 " fill="none" id="Primary-backto-OpenClassQuestion" style="stroke:#181818;stroke-width:1.0;"/><polygon fill="none" points="950.59,756.53,970.56,749.46,959.35,767.45,950.59,756.53" style="stroke:#181818;stroke-width:1.0;"/></g><!--MD5=[592c57f98911af5a8f7c5a44f09cefa9]
reverse link OpenClassQuestion to ClassTemplate--><g id="link_OpenClassQuestion_ClassTemplate"><path codeLine="107" d="M876.85,897.03 C925.18,927.76 998.77,974.54 1047.37,1005.43 " fill="none" id="OpenClassQuestion-backto-ClassTemplate" style="stroke:#181818;stroke-width:1.0;"/><polygon fill="#181818" points="866.12,890.21,869.0389,896.8039,876.2483,896.6457,873.3294,890.0517,866.12,890.21" style="stroke:#181818;stroke-width:1.0;"/></g><!--MD5=[738d58eb4c56a9c64d8e5b1c3707aac5]
link OpenField to OpenClassQuestion--><g id="link_OpenField_OpenClassQuestion"><path codeLine="108" d="M828,739.95 C828,763.01 828,798.92 828,826.18 " fill="none" id="OpenField-to-OpenClassQuestion" style="stroke:#181818;stroke-width:1.0;"/><polygon fill="none" points="828,839.17,832,833.17,828,827.17,824,833.17,828,839.17" style="stroke:#181818;stroke-width:1.0;"/><text fill="#000000" font-family="sans-serif" font-size="13" lengthAdjust="spacing" textLength="24" x="787.5" y="760.3781">1..n</text></g><!--MD5=[b619a8a782ce055e34c4b08410723460]
reverse link OpenClassQuestion to Classification--><g id="link_OpenClassQuestion_Classification"><path codeLine="109" d="M785.49,892.48 C746.72,916.7 687.89,953.57 637,985.98 C622.96,994.92 607.56,1004.84 594.12,1013.53 " fill="none" id="OpenClassQuestion-backto-Classification" style="stroke:#181818;stroke-width:1.0;stroke-dasharray:7.0,7.0;"/><polygon fill="#181818" points="789.3,890.1,779.5493,891.4868,785.0624,892.7538,783.7954,898.267,789.3,890.1" style="stroke:#181818;stroke-width:1.0;"/><text fill="#000000" font-family="sans-serif" font-size="13" lengthAdjust="spacing" textLength="63" x="712" y="952.5484">OpenField</text></g><!--MD5=[301f6c044158a68586068b85c2a80615]
reverse link Primary to OpenCompositionQuestion--><g id="link_Primary_OpenCompositionQuestion"><path codeLine="111" d="M1026.88,768.85 C1034.39,793.38 1042.97,821.43 1048.87,840.68 " fill="none" id="Primary-backto-OpenCompositionQuestion" style="stroke:#181818;stroke-width:1.0;"/><polygon fill="none" points="1020.26,771.14,1021.1,749.96,1033.64,767.04,1020.26,771.14" style="stroke:#181818;stroke-width:1.0;"/></g><!--MD5=[07863c77f2b10c878de548ec383ac221]
reverse link OpenCompositionQuestion to CompositionTemplate--><g id="link_OpenCompositionQuestion_CompositionTemplate"><path codeLine="112" d="M1115.06,895.86 C1175.63,926.5 1269.48,973.98 1331.33,1005.28 " fill="none" id="OpenCompositionQuestion-backto-CompositionTemplate" style="stroke:#181818;stroke-width:1.0;"/><polygon fill="#181818" points="1103.64,890.08,1107.1931,896.355,1114.3519,895.4887,1110.7989,889.2137,1103.64,890.08" style="stroke:#181818;stroke-width:1.0;"/></g><!--MD5=[9de126b5500c74f7f12226e04f16a1c9]
link OpenField to OpenCompositionQuestion--><g id="link_OpenField_OpenCompositionQuestion"><path codeLine="113" d="M863.62,739.95 C902.38,764.94 964.56,805.03 1007.7,832.84 " fill="none" id="OpenField-to-OpenCompositionQuestion" style="stroke:#181818;stroke-width:1.0;"/><polygon fill="none" points="1018.6,839.87,1015.7234,833.2575,1008.5131,833.3696,1011.3898,839.9821,1018.6,839.87" style="stroke:#181818;stroke-width:1.0;"/><text fill="#000000" font-family="sans-serif" font-size="13" lengthAdjust="spacing" textLength="24" x="845.6726" y="760.6223">1..n</text></g><!--MD5=[92cd928904746ce40363a3030cb52c20]
reverse link OpenCompositionQuestion to Composition--><g id="link_OpenCompositionQuestion_Composition"><path codeLine="114" d="M992.28,891.85 C938.19,914.57 859.06,949.59 793,985.98 C777.98,994.26 762.02,1004.42 748.48,1013.49 " fill="none" id="OpenCompositionQuestion-backto-Composition" style="stroke:#181818;stroke-width:1.0;stroke-dasharray:7.0,7.0;"/><polygon fill="#181818" points="996.69,890.01,986.8436,889.79,992.0767,891.9381,989.9286,897.1713,996.69,890.01" style="stroke:#181818;stroke-width:1.0;"/><text fill="#000000" font-family="sans-serif" font-size="13" lengthAdjust="spacing" textLength="63" x="887" y="952.5484">OpenField</text></g><!--MD5=[facd51af9ea28353853f10ec7c47ccff]
reverse link Secundary to OpenReverseDefinitionQuestion--><g id="link_Secundary_OpenReverseDefinitionQuestion"><path codeLine="116" d="M641.35,523.23 C647.92,588.46 647.83,691.88 596,759.98 C574.18,788.65 489.33,819.88 423.84,840.55 " fill="none" id="Secundary-backto-OpenReverseDefinitionQuestion" style="stroke:#181818;stroke-width:1.0;"/><polygon fill="none" points="634.45,524.46,639.06,503.78,648.36,522.83,634.45,524.46" style="stroke:#181818;stroke-width:1.0;"/></g><!--MD5=[2931b0ce3f6b76b566184e0b89f3fd0d]
reverse link OpenReverseDefinitionQuestion to ReverseDefinitionTemplate--><g id="link_OpenReverseDefinitionQuestion_ReverseDefinitionTemplate"><path codeLine="117" d="M345.43,903.72 C347.39,934.23 350.12,976.7 351.97,1005.43 " fill="none" id="OpenReverseDefinitionQuestion-backto-ReverseDefinitionTemplate" style="stroke:#181818;stroke-width:1.0;"/><polygon fill="#181818" points="344.6,890.91,340.9906,897.1528,345.365,902.8856,348.9743,896.6428,344.6,890.91" style="stroke:#181818;stroke-width:1.0;"/></g><!--MD5=[fe8381b3e3a0a92d01d9fb3d1ba6a245]
link OpenField to OpenReverseDefinitionQuestion--><g id="link_OpenField_OpenReverseDefinitionQuestion"><path codeLine="118" d="M783.29,739.96 C749.64,756.38 701.94,777.81 658,790.98 C583.25,813.38 560.93,802.97 485,820.98 C466.44,825.38 446.73,830.84 428.09,836.37 " fill="none" id="OpenField-to-OpenReverseDefinitionQuestion" style="stroke:#181818;stroke-width:1.0;"/><polygon fill="none" points="415.86,840.06,422.7601,842.1549,427.3477,836.5913,420.4476,834.4964,415.86,840.06" style="stroke:#181818;stroke-width:1.0;"/><text fill="#000000" font-family="sans-serif" font-size="13" lengthAdjust="spacing" textLength="24" x="744.7581" y="741.7911">1..n</text></g><!--MD5=[e84a909e358565cde38acebd92d3848b]
reverse link OpenReverseDefinitionQuestion to Keyword--><g id="link_OpenReverseDefinitionQuestion_Keyword"><path codeLine="119" d="M284.75,892.39 C262.64,904.39 238.39,920.14 220,938.98 C198.74,960.76 182.97,992.39 173.89,1013.77 " fill="none" id="OpenReverseDefinitionQuestion-backto-Keyword" style="stroke:#181818;stroke-width:1.0;stroke-dasharray:7.0,7.0;"/><polygon fill="#181818" points="288.98,890.14,279.1568,890.8508,284.5694,892.4952,282.9251,897.9078,288.98,890.14" style="stroke:#181818;stroke-width:1.0;"/><text fill="#000000" font-family="sans-serif" font-size="13" lengthAdjust="spacing" textLength="118" x="221" y="952.5484">Fake &lt;- OpenField</text></g><!--MD5=[a72e1c0dfeca4e70349119d8d66f259f]
reverse link Secundary to OpenJustificationQuestion--><g id="link_Secundary_OpenJustificationQuestion"><path codeLine="121" d="M554.21,514.14 C528.84,530.98 501.91,548.86 481.26,562.57 " fill="none" id="Secundary-backto-OpenJustificationQuestion" style="stroke:#181818;stroke-width:1.0;"/><polygon fill="none" points="550.07,508.48,570.61,503.25,557.82,520.15,550.07,508.48" style="stroke:#181818;stroke-width:1.0;"/></g><!--MD5=[c338d511efeb287fecf587020846e598]
reverse link OpenJustificationQuestion to JustificationTemplate--><g id="link_OpenJustificationQuestion_JustificationTemplate"><path codeLine="122" d="M438.08,625.23 C434.13,643.81 429.41,666.02 425.65,683.7 " fill="none" id="OpenJustificationQuestion-backto-JustificationTemplate" style="stroke:#181818;stroke-width:1.0;"/><polygon fill="#181818" points="440.73,612.75,435.5655,617.7827,438.2247,624.4856,443.3892,619.4529,440.73,612.75" style="stroke:#181818;stroke-width:1.0;"/></g><!--MD5=[229f1f1e944fe763297773e39c5a5aea]
reverse link OpenJustificationQuestion to OpenField--><g id="link_OpenJustificationQuestion_OpenField"><path codeLine="123" d="M530.21,615.98 C605.73,641.08 714.08,677.11 777.13,698.07 " fill="none" id="OpenJustificationQuestion-backto-OpenField" style="stroke:#181818;stroke-width:1.0;"/><polygon fill="none" points="517.95,611.9,522.3831,617.5875,529.3381,615.6829,524.905,609.9954,517.95,611.9" style="stroke:#181818;stroke-width:1.0;"/><text fill="#000000" font-family="sans-serif" font-size="13" lengthAdjust="spacing" textLength="24" x="745.0748" y="692.4026">1..n</text></g><!--MD5=[b0aebbdbaebf774cc87882fd399788eb]
reverse link OpenJustificationQuestion to Justification--><g id="link_OpenJustificationQuestion_Justification"><path codeLine="124" d="M333.84,601.5 C215.82,618.93 47,654.45 47,714.98 C47,714.98 47,714.98 47,1038.98 C47,1091.55 59.34,1151.71 67.92,1187.18 " fill="none" id="OpenJustificationQuestion-backto-Justification" style="stroke:#181818;stroke-width:1.0;stroke-dasharray:7.0,7.0;"/><polygon fill="#181818" points="338.63,600.8,329.1429,598.1552,333.6834,601.5291,330.3095,606.0697,338.63,600.8" style="stroke:#181818;stroke-width:1.0;"/><text fill="#000000" font-family="sans-serif" font-size="13" lengthAdjust="spacing" textLength="63" x="48" y="870.0484">OpenField</text></g><!--MD5=[9589797abd25ecd70fdd2d058a193988]
@startuml ConceptDomainDetail

class Concept

class Keyword

class Definition {
    -Real/Fake
}

class Justification {
    -Real/Fake
}

class Explanation

class Relation

class Classification

class Composition

class Level

class Primary {
    withKeyword
}

class Secundary {
    withKeyword
    withDefinition or withRelation
}

class OpenDefinitionQuestion

class OpenClassQuestion

class OpenCompositionQuestion

class OpenReverseDefinitionQuestion

class OpenJustificationQuestion

class Question

class Open

class Statement

class StatementTemplate


class DefinitionTemplate {
    "¿Qué es KEYWORD?"
}

class ClassTemplate {
    "Qué tipos hay de KEYWORD"
}

class CompositionTemplate {
    "¿Qué conceptos destacarias del KEYWORD?"
}

class JustificationTemplate {
    "¿La KEYWORD es esta DEFINITION?¿Por qué?"
}

class ReverseDefinitionTemplate {
    "¿Qué es REALDEFINITION?"
}

class Answer

class OpenField

Question <|- - Open
Open "0..n" -o Concept
Answer <|- - OpenField
Open o- - OpenField
Open *- - Level
Open *- - Statement
Statement ..> StatementTemplate

Concept *- - Keyword
Concept o- -"0..n" Definition
Definition o- - "0..n" Justification:Fake
Justification o- - Explanation:Fake

Concept o- - "0..n" Relation
Relation <|- - Classification
Relation <|- - Composition
'Relation - ->"1..m" Concept

Level <|- - Primary
Level <|- - Secundary

StatementTemplate <|- - DefinitionTemplate
StatementTemplate <|- - ClassTemplate
StatementTemplate <|- - CompositionTemplate

Primary <|- - OpenDefinitionQuestion
OpenDefinitionQuestion *- - DefinitionTemplate
OpenField "1..n" - -o OpenDefinitionQuestion
OpenDefinitionQuestion <.. Definition: OpenField

Primary <|- - OpenClassQuestion
OpenClassQuestion *- - ClassTemplate
OpenField "1..n"- -o OpenClassQuestion
OpenClassQuestion <.. Classification :OpenField

Primary <|- - OpenCompositionQuestion
OpenCompositionQuestion *- - CompositionTemplate
OpenField "1..n"- -o OpenCompositionQuestion
OpenCompositionQuestion <.. Composition :OpenField

Secundary <|- - OpenReverseDefinitionQuestion
OpenReverseDefinitionQuestion *- - ReverseDefinitionTemplate
OpenField "1..n" - -o OpenReverseDefinitionQuestion
OpenReverseDefinitionQuestion <.. Keyword :Fake <- OpenField

Secundary <|- - OpenJustificationQuestion
OpenJustificationQuestion *- - JustificationTemplate
OpenJustificationQuestion o- -"1..n" OpenField
OpenJustificationQuestion <.. Justification :OpenField

@enduml

@startuml ConceptDomainDetail

class Concept

class Keyword

class Definition {
    -Real/Fake
}

class Justification {
    -Real/Fake
}

class Explanation

class Relation

class Classification

class Composition

class Level

class Primary {
    withKeyword
}

class Secundary {
    withKeyword
    withDefinition or withRelation
}

class OpenDefinitionQuestion

class OpenClassQuestion

class OpenCompositionQuestion

class OpenReverseDefinitionQuestion

class OpenJustificationQuestion

class Question

class Open

class Statement

class StatementTemplate


class DefinitionTemplate {
    "¿Qué es KEYWORD?"
}

class ClassTemplate {
    "Qué tipos hay de KEYWORD"
}

class CompositionTemplate {
    "¿Qué conceptos destacarias del KEYWORD?"
}

class JustificationTemplate {
    "¿La KEYWORD es esta DEFINITION?¿Por qué?"
}

class ReverseDefinitionTemplate {
    "¿Qué es REALDEFINITION?"
}

class Answer

class OpenField

Question <|- - Open
Open "0..n" -o Concept
Answer <|- - OpenField
Open o- - OpenField
Open *- - Level
Open *- - Statement
Statement ..> StatementTemplate

Concept *- - Keyword
Concept o- -"0..n" Definition
Definition o- - "0..n" Justification:Fake
Justification o- - Explanation:Fake

Concept o- - "0..n" Relation
Relation <|- - Classification
Relation <|- - Composition

Level <|- - Primary
Level <|- - Secundary

StatementTemplate <|- - DefinitionTemplate
StatementTemplate <|- - ClassTemplate
StatementTemplate <|- - CompositionTemplate

Primary <|- - OpenDefinitionQuestion
OpenDefinitionQuestion *- - DefinitionTemplate
OpenField "1..n" - -o OpenDefinitionQuestion
OpenDefinitionQuestion <.. Definition: OpenField

Primary <|- - OpenClassQuestion
OpenClassQuestion *- - ClassTemplate
OpenField "1..n"- -o OpenClassQuestion
OpenClassQuestion <.. Classification :OpenField

Primary <|- - OpenCompositionQuestion
OpenCompositionQuestion *- - CompositionTemplate
OpenField "1..n"- -o OpenCompositionQuestion
OpenCompositionQuestion <.. Composition :OpenField

Secundary <|- - OpenReverseDefinitionQuestion
OpenReverseDefinitionQuestion *- - ReverseDefinitionTemplate
OpenField "1..n" - -o OpenReverseDefinitionQuestion
OpenReverseDefinitionQuestion <.. Keyword :Fake <- OpenField

Secundary <|- - OpenJustificationQuestion
OpenJustificationQuestion *- - JustificationTemplate
OpenJustificationQuestion o- -"1..n" OpenField
OpenJustificationQuestion <.. Justification :OpenField

@enduml

PlantUML version 1.2022.7(Mon Aug 22 18:01:30 WEST 2022)
(GPL source distribution)
Java Runtime: Java(TM) SE Runtime Environment
JVM: Java HotSpot(TM) 64-Bit Server VM
Default Encoding: UTF-8
Language: es
Country: ES
--></g></svg>