<?xml version="1.0" encoding="UTF-8" standalone="no"?><svg xmlns="http://www.w3.org/2000/svg" xmlns:xlink="http://www.w3.org/1999/xlink" contentStyleType="text/css" height="834px" preserveAspectRatio="none" style="width:1587px;height:834px;background:#FFFFFF;" version="1.1" viewBox="0 0 1587 834" width="1587px" zoomAndPan="magnify"><defs/><g><!--MD5=[9d451b2f92d848a8e2d1a4dab2b1c6bf]
class Concept--><g id="elem_Concept"><rect codeLine="2" fill="#F1F1F1" height="83.2188" id="Concept" rx="2.5" ry="2.5" style="stroke:#181818;stroke-width:0.5;" width="85" x="485.5" y="169"/><ellipse cx="500.5" cy="185" fill="#ADD1B2" rx="11" ry="11" style="stroke:#181818;stroke-width:1.0;"/><path d="M503.2656,180.875 Q503.4219,180.6563 503.6094,180.5469 Q503.7969,180.4375 504.0156,180.4375 Q504.3906,180.4375 504.625,180.7031 Q504.8594,180.9531 504.8594,181.5625 L504.8594,183.0156 Q504.8594,183.625 504.625,183.8906 Q504.3906,184.1563 504.0156,184.1563 Q503.6719,184.1563 503.4688,183.9531 Q503.2656,183.7656 503.1563,183.25 Q503.1094,182.8906 502.9219,182.7031 Q502.5938,182.3281 501.9844,182.1094 Q501.375,181.8906 500.75,181.8906 Q499.9844,181.8906 499.3438,182.2188 Q498.7188,182.5469 498.2188,183.2969 Q497.7344,184.0469 497.7344,185.0781 L497.7344,186.1719 Q497.7344,187.4063 498.625,188.2344 Q499.5156,189.0469 501.1094,189.0469 Q502.0469,189.0469 502.7031,188.7969 Q503.0938,188.6406 503.5156,188.2031 Q503.7813,187.9375 503.9219,187.8594 Q504.0781,187.7813 504.2813,187.7813 Q504.6094,187.7813 504.8594,188.0469 Q505.125,188.2969 505.125,188.6406 Q505.125,188.9844 504.7813,189.3906 Q504.2813,189.9688 503.4844,190.2969 Q502.4063,190.75 501.1094,190.75 Q499.5938,190.75 498.3906,190.125 Q497.4063,189.625 496.7188,188.5625 Q496.0313,187.4844 496.0313,186.2031 L496.0313,185.0469 Q496.0313,183.7188 496.6406,182.5781 Q497.2656,181.4219 498.3594,180.8125 Q499.4531,180.1875 500.6875,180.1875 Q501.4219,180.1875 502.0625,180.3594 Q502.7188,180.5156 503.2656,180.875 Z " fill="#000000"/><text fill="#000000" font-family="sans-serif" font-size="14" lengthAdjust="spacing" textLength="53" x="514.5" y="190.7285">Concept</text><line style="stroke:#181818;stroke-width:0.5;" x1="486.5" x2="569.5" y1="201" y2="201"/><rect fill="none" height="6" style="stroke:#C82930;stroke-width:1.0;" width="6" x="493.5" y="212.3047"/><text fill="#000000" font-family="sans-serif" font-size="14" lengthAdjust="spacing" textLength="52" x="505.5" y="219.5332">keyword</text><rect fill="none" height="6" style="stroke:#C82930;stroke-width:1.0;" width="6" x="493.5" y="229.9141"/><text fill="#000000" font-family="sans-serif" font-size="14" lengthAdjust="spacing" textLength="31" x="505.5" y="237.1426">state</text><line style="stroke:#181818;stroke-width:0.5;" x1="486.5" x2="569.5" y1="244.2188" y2="244.2188"/></g><!--MD5=[af22135d5be6ed11ccd2d02fa51653b3]
class Definition--><g id="elem_Definition"><rect codeLine="7" fill="#F1F1F1" height="65.6094" id="Definition" rx="2.5" ry="2.5" style="stroke:#181818;stroke-width:0.5;" width="91" x="1175.5" y="482.5"/><ellipse cx="1190.5" cy="498.5" fill="#ADD1B2" rx="11" ry="11" style="stroke:#181818;stroke-width:1.0;"/><path d="M1193.2656,494.375 Q1193.4219,494.1563 1193.6094,494.0469 Q1193.7969,493.9375 1194.0156,493.9375 Q1194.3906,493.9375 1194.625,494.2031 Q1194.8594,494.4531 1194.8594,495.0625 L1194.8594,496.5156 Q1194.8594,497.125 1194.625,497.3906 Q1194.3906,497.6563 1194.0156,497.6563 Q1193.6719,497.6563 1193.4688,497.4531 Q1193.2656,497.2656 1193.1563,496.75 Q1193.1094,496.3906 1192.9219,496.2031 Q1192.5938,495.8281 1191.9844,495.6094 Q1191.375,495.3906 1190.75,495.3906 Q1189.9844,495.3906 1189.3438,495.7188 Q1188.7188,496.0469 1188.2188,496.7969 Q1187.7344,497.5469 1187.7344,498.5781 L1187.7344,499.6719 Q1187.7344,500.9063 1188.625,501.7344 Q1189.5156,502.5469 1191.1094,502.5469 Q1192.0469,502.5469 1192.7031,502.2969 Q1193.0938,502.1406 1193.5156,501.7031 Q1193.7813,501.4375 1193.9219,501.3594 Q1194.0781,501.2813 1194.2813,501.2813 Q1194.6094,501.2813 1194.8594,501.5469 Q1195.125,501.7969 1195.125,502.1406 Q1195.125,502.4844 1194.7813,502.8906 Q1194.2813,503.4688 1193.4844,503.7969 Q1192.4063,504.25 1191.1094,504.25 Q1189.5938,504.25 1188.3906,503.625 Q1187.4063,503.125 1186.7188,502.0625 Q1186.0313,500.9844 1186.0313,499.7031 L1186.0313,498.5469 Q1186.0313,497.2188 1186.6406,496.0781 Q1187.2656,494.9219 1188.3594,494.3125 Q1189.4531,493.6875 1190.6875,493.6875 Q1191.4219,493.6875 1192.0625,493.8594 Q1192.7188,494.0156 1193.2656,494.375 Z " fill="#000000"/><text fill="#000000" font-family="sans-serif" font-size="14" lengthAdjust="spacing" textLength="59" x="1204.5" y="504.2285">Definition</text><line style="stroke:#181818;stroke-width:0.5;" x1="1176.5" x2="1265.5" y1="514.5" y2="514.5"/><rect fill="none" height="6" style="stroke:#C82930;stroke-width:1.0;" width="6" x="1183.5" y="525.8047"/><text fill="#000000" font-family="sans-serif" font-size="14" lengthAdjust="spacing" textLength="65" x="1195.5" y="533.0332">Real/Fake</text><line style="stroke:#181818;stroke-width:0.5;" x1="1176.5" x2="1265.5" y1="540.1094" y2="540.1094"/></g><!--MD5=[9b4de504215638550a8bb9c080b7ee00]
class Justification--><g id="elem_Justification"><rect codeLine="11" fill="#F1F1F1" height="65.6094" id="Justification" rx="2.5" ry="2.5" style="stroke:#181818;stroke-width:0.5;" width="105" x="1168.5" y="635"/><ellipse cx="1183.5" cy="651" fill="#ADD1B2" rx="11" ry="11" style="stroke:#181818;stroke-width:1.0;"/><path d="M1186.2656,646.875 Q1186.4219,646.6563 1186.6094,646.5469 Q1186.7969,646.4375 1187.0156,646.4375 Q1187.3906,646.4375 1187.625,646.7031 Q1187.8594,646.9531 1187.8594,647.5625 L1187.8594,649.0156 Q1187.8594,649.625 1187.625,649.8906 Q1187.3906,650.1563 1187.0156,650.1563 Q1186.6719,650.1563 1186.4688,649.9531 Q1186.2656,649.7656 1186.1563,649.25 Q1186.1094,648.8906 1185.9219,648.7031 Q1185.5938,648.3281 1184.9844,648.1094 Q1184.375,647.8906 1183.75,647.8906 Q1182.9844,647.8906 1182.3438,648.2188 Q1181.7188,648.5469 1181.2188,649.2969 Q1180.7344,650.0469 1180.7344,651.0781 L1180.7344,652.1719 Q1180.7344,653.4063 1181.625,654.2344 Q1182.5156,655.0469 1184.1094,655.0469 Q1185.0469,655.0469 1185.7031,654.7969 Q1186.0938,654.6406 1186.5156,654.2031 Q1186.7813,653.9375 1186.9219,653.8594 Q1187.0781,653.7813 1187.2813,653.7813 Q1187.6094,653.7813 1187.8594,654.0469 Q1188.125,654.2969 1188.125,654.6406 Q1188.125,654.9844 1187.7813,655.3906 Q1187.2813,655.9688 1186.4844,656.2969 Q1185.4063,656.75 1184.1094,656.75 Q1182.5938,656.75 1181.3906,656.125 Q1180.4063,655.625 1179.7188,654.5625 Q1179.0313,653.4844 1179.0313,652.2031 L1179.0313,651.0469 Q1179.0313,649.7188 1179.6406,648.5781 Q1180.2656,647.4219 1181.3594,646.8125 Q1182.4531,646.1875 1183.6875,646.1875 Q1184.4219,646.1875 1185.0625,646.3594 Q1185.7188,646.5156 1186.2656,646.875 Z " fill="#000000"/><text fill="#000000" font-family="sans-serif" font-size="14" lengthAdjust="spacing" textLength="73" x="1197.5" y="656.7285">Justification</text><line style="stroke:#181818;stroke-width:0.5;" x1="1169.5" x2="1272.5" y1="667" y2="667"/><rect fill="none" height="6" style="stroke:#C82930;stroke-width:1.0;" width="6" x="1176.5" y="678.3047"/><text fill="#000000" font-family="sans-serif" font-size="14" lengthAdjust="spacing" textLength="65" x="1188.5" y="685.5332">Real/Fake</text><line style="stroke:#181818;stroke-width:0.5;" x1="1169.5" x2="1272.5" y1="692.6094" y2="692.6094"/></g><!--MD5=[cf96f38277e03bd5d9657368288e1881]
class Explanation--><g id="elem_Explanation"><rect codeLine="15" fill="#F1F1F1" height="48" id="Explanation" rx="2.5" ry="2.5" style="stroke:#181818;stroke-width:0.5;" width="105" x="1168.5" y="779"/><ellipse cx="1183.5" cy="795" fill="#ADD1B2" rx="11" ry="11" style="stroke:#181818;stroke-width:1.0;"/><path d="M1186.2656,790.875 Q1186.4219,790.6563 1186.6094,790.5469 Q1186.7969,790.4375 1187.0156,790.4375 Q1187.3906,790.4375 1187.625,790.7031 Q1187.8594,790.9531 1187.8594,791.5625 L1187.8594,793.0156 Q1187.8594,793.625 1187.625,793.8906 Q1187.3906,794.1563 1187.0156,794.1563 Q1186.6719,794.1563 1186.4688,793.9531 Q1186.2656,793.7656 1186.1563,793.25 Q1186.1094,792.8906 1185.9219,792.7031 Q1185.5938,792.3281 1184.9844,792.1094 Q1184.375,791.8906 1183.75,791.8906 Q1182.9844,791.8906 1182.3438,792.2188 Q1181.7188,792.5469 1181.2188,793.2969 Q1180.7344,794.0469 1180.7344,795.0781 L1180.7344,796.1719 Q1180.7344,797.4063 1181.625,798.2344 Q1182.5156,799.0469 1184.1094,799.0469 Q1185.0469,799.0469 1185.7031,798.7969 Q1186.0938,798.6406 1186.5156,798.2031 Q1186.7813,797.9375 1186.9219,797.8594 Q1187.0781,797.7813 1187.2813,797.7813 Q1187.6094,797.7813 1187.8594,798.0469 Q1188.125,798.2969 1188.125,798.6406 Q1188.125,798.9844 1187.7813,799.3906 Q1187.2813,799.9688 1186.4844,800.2969 Q1185.4063,800.75 1184.1094,800.75 Q1182.5938,800.75 1181.3906,800.125 Q1180.4063,799.625 1179.7188,798.5625 Q1179.0313,797.4844 1179.0313,796.2031 L1179.0313,795.0469 Q1179.0313,793.7188 1179.6406,792.5781 Q1180.2656,791.4219 1181.3594,790.8125 Q1182.4531,790.1875 1183.6875,790.1875 Q1184.4219,790.1875 1185.0625,790.3594 Q1185.7188,790.5156 1186.2656,790.875 Z " fill="#000000"/><text fill="#000000" font-family="sans-serif" font-size="14" lengthAdjust="spacing" textLength="73" x="1197.5" y="800.7285">Explanation</text><line style="stroke:#181818;stroke-width:0.5;" x1="1169.5" x2="1272.5" y1="811" y2="811"/><line style="stroke:#181818;stroke-width:0.5;" x1="1169.5" x2="1272.5" y1="819" y2="819"/></g><!--MD5=[534474e9f05b14d7c70186ae077f30e0]
class Relation--><g id="elem_Relation"><rect codeLine="17" fill="#F1F1F1" height="48" id="Relation" rx="2.5" ry="2.5" style="stroke:#181818;stroke-width:0.5;" width="84" x="259" y="330.5"/><ellipse cx="274" cy="346.5" fill="#ADD1B2" rx="11" ry="11" style="stroke:#181818;stroke-width:1.0;"/><path d="M276.7656,342.375 Q276.9219,342.1563 277.1094,342.0469 Q277.2969,341.9375 277.5156,341.9375 Q277.8906,341.9375 278.125,342.2031 Q278.3594,342.4531 278.3594,343.0625 L278.3594,344.5156 Q278.3594,345.125 278.125,345.3906 Q277.8906,345.6563 277.5156,345.6563 Q277.1719,345.6563 276.9688,345.4531 Q276.7656,345.2656 276.6563,344.75 Q276.6094,344.3906 276.4219,344.2031 Q276.0938,343.8281 275.4844,343.6094 Q274.875,343.3906 274.25,343.3906 Q273.4844,343.3906 272.8438,343.7188 Q272.2188,344.0469 271.7188,344.7969 Q271.2344,345.5469 271.2344,346.5781 L271.2344,347.6719 Q271.2344,348.9063 272.125,349.7344 Q273.0156,350.5469 274.6094,350.5469 Q275.5469,350.5469 276.2031,350.2969 Q276.5938,350.1406 277.0156,349.7031 Q277.2813,349.4375 277.4219,349.3594 Q277.5781,349.2813 277.7813,349.2813 Q278.1094,349.2813 278.3594,349.5469 Q278.625,349.7969 278.625,350.1406 Q278.625,350.4844 278.2813,350.8906 Q277.7813,351.4688 276.9844,351.7969 Q275.9063,352.25 274.6094,352.25 Q273.0938,352.25 271.8906,351.625 Q270.9063,351.125 270.2188,350.0625 Q269.5313,348.9844 269.5313,347.7031 L269.5313,346.5469 Q269.5313,345.2188 270.1406,344.0781 Q270.7656,342.9219 271.8594,342.3125 Q272.9531,341.6875 274.1875,341.6875 Q274.9219,341.6875 275.5625,341.8594 Q276.2188,342.0156 276.7656,342.375 Z " fill="#000000"/><text fill="#000000" font-family="sans-serif" font-size="14" lengthAdjust="spacing" textLength="52" x="288" y="352.2285">Relation</text><line style="stroke:#181818;stroke-width:0.5;" x1="260" x2="342" y1="362.5" y2="362.5"/><line style="stroke:#181818;stroke-width:0.5;" x1="260" x2="342" y1="370.5" y2="370.5"/></g><!--MD5=[9c239722e256878d27dcbb07783cc14f]
class Classification--><g id="elem_Classification"><rect codeLine="19" fill="#F1F1F1" height="48" id="Classification" rx="2.5" ry="2.5" style="stroke:#181818;stroke-width:0.5;" width="115" x="390.5" y="491.5"/><ellipse cx="405.5" cy="507.5" fill="#ADD1B2" rx="11" ry="11" style="stroke:#181818;stroke-width:1.0;"/><path d="M408.2656,503.375 Q408.4219,503.1563 408.6094,503.0469 Q408.7969,502.9375 409.0156,502.9375 Q409.3906,502.9375 409.625,503.2031 Q409.8594,503.4531 409.8594,504.0625 L409.8594,505.5156 Q409.8594,506.125 409.625,506.3906 Q409.3906,506.6563 409.0156,506.6563 Q408.6719,506.6563 408.4688,506.4531 Q408.2656,506.2656 408.1563,505.75 Q408.1094,505.3906 407.9219,505.2031 Q407.5938,504.8281 406.9844,504.6094 Q406.375,504.3906 405.75,504.3906 Q404.9844,504.3906 404.3438,504.7188 Q403.7188,505.0469 403.2188,505.7969 Q402.7344,506.5469 402.7344,507.5781 L402.7344,508.6719 Q402.7344,509.9063 403.625,510.7344 Q404.5156,511.5469 406.1094,511.5469 Q407.0469,511.5469 407.7031,511.2969 Q408.0938,511.1406 408.5156,510.7031 Q408.7813,510.4375 408.9219,510.3594 Q409.0781,510.2813 409.2813,510.2813 Q409.6094,510.2813 409.8594,510.5469 Q410.125,510.7969 410.125,511.1406 Q410.125,511.4844 409.7813,511.8906 Q409.2813,512.4688 408.4844,512.7969 Q407.4063,513.25 406.1094,513.25 Q404.5938,513.25 403.3906,512.625 Q402.4063,512.125 401.7188,511.0625 Q401.0313,509.9844 401.0313,508.7031 L401.0313,507.5469 Q401.0313,506.2188 401.6406,505.0781 Q402.2656,503.9219 403.3594,503.3125 Q404.4531,502.6875 405.6875,502.6875 Q406.4219,502.6875 407.0625,502.8594 Q407.7188,503.0156 408.2656,503.375 Z " fill="#000000"/><text fill="#000000" font-family="sans-serif" font-size="14" lengthAdjust="spacing" textLength="83" x="419.5" y="513.2285">Classification</text><line style="stroke:#181818;stroke-width:0.5;" x1="391.5" x2="504.5" y1="523.5" y2="523.5"/><line style="stroke:#181818;stroke-width:0.5;" x1="391.5" x2="504.5" y1="531.5" y2="531.5"/></g><!--MD5=[251454e98c15f29849fb35b1904d0020]
class Composition--><g id="elem_Composition"><rect codeLine="21" fill="#F1F1F1" height="48" id="Composition" rx="2.5" ry="2.5" style="stroke:#181818;stroke-width:0.5;" width="110" x="627" y="491.5"/><ellipse cx="642" cy="507.5" fill="#ADD1B2" rx="11" ry="11" style="stroke:#181818;stroke-width:1.0;"/><path d="M644.7656,503.375 Q644.9219,503.1563 645.1094,503.0469 Q645.2969,502.9375 645.5156,502.9375 Q645.8906,502.9375 646.125,503.2031 Q646.3594,503.4531 646.3594,504.0625 L646.3594,505.5156 Q646.3594,506.125 646.125,506.3906 Q645.8906,506.6563 645.5156,506.6563 Q645.1719,506.6563 644.9688,506.4531 Q644.7656,506.2656 644.6563,505.75 Q644.6094,505.3906 644.4219,505.2031 Q644.0938,504.8281 643.4844,504.6094 Q642.875,504.3906 642.25,504.3906 Q641.4844,504.3906 640.8438,504.7188 Q640.2188,505.0469 639.7188,505.7969 Q639.2344,506.5469 639.2344,507.5781 L639.2344,508.6719 Q639.2344,509.9063 640.125,510.7344 Q641.0156,511.5469 642.6094,511.5469 Q643.5469,511.5469 644.2031,511.2969 Q644.5938,511.1406 645.0156,510.7031 Q645.2813,510.4375 645.4219,510.3594 Q645.5781,510.2813 645.7813,510.2813 Q646.1094,510.2813 646.3594,510.5469 Q646.625,510.7969 646.625,511.1406 Q646.625,511.4844 646.2813,511.8906 Q645.7813,512.4688 644.9844,512.7969 Q643.9063,513.25 642.6094,513.25 Q641.0938,513.25 639.8906,512.625 Q638.9063,512.125 638.2188,511.0625 Q637.5313,509.9844 637.5313,508.7031 L637.5313,507.5469 Q637.5313,506.2188 638.1406,505.0781 Q638.7656,503.9219 639.8594,503.3125 Q640.9531,502.6875 642.1875,502.6875 Q642.9219,502.6875 643.5625,502.8594 Q644.2188,503.0156 644.7656,503.375 Z " fill="#000000"/><text fill="#000000" font-family="sans-serif" font-size="14" lengthAdjust="spacing" textLength="78" x="656" y="513.2285">Composition</text><line style="stroke:#181818;stroke-width:0.5;" x1="628" x2="736" y1="523.5" y2="523.5"/><line style="stroke:#181818;stroke-width:0.5;" x1="628" x2="736" y1="531.5" y2="531.5"/></g><!--MD5=[60d6b92408f98aed8df94d5c6e04aa63]
class State--><g id="elem_State"><rect codeLine="23" fill="#F1F1F1" height="48" id="State" rx="2.5" ry="2.5" style="stroke:#181818;stroke-width:0.5;" width="65" x="158.5" y="330.5"/><ellipse cx="173.5" cy="346.5" fill="#EB937F" rx="11" ry="11" style="stroke:#181818;stroke-width:1.0;"/><path d="M172.3594,347.2969 L172.3594,349.7969 L176.6875,349.7969 L176.6875,348.875 Q176.6875,348.2656 176.9219,348 Q177.1719,347.7344 177.5469,347.7344 Q177.9219,347.7344 178.1563,348 Q178.3906,348.2656 178.3906,348.875 L178.3906,351.5 L170.3906,351.5 Q169.7656,351.5 169.5,351.2656 Q169.25,351.0313 169.25,350.6406 Q169.25,350.2656 169.5156,350.0313 Q169.7813,349.7969 170.3906,349.7969 L170.6563,349.7969 L170.6563,343.1406 L170.3906,343.1406 Q169.7656,343.1406 169.5,342.9063 Q169.25,342.6719 169.25,342.2813 Q169.25,341.9063 169.5,341.6719 Q169.7656,341.4375 170.3906,341.4375 L178.0156,341.4375 L178.0156,344.0313 Q178.0156,344.6406 177.7813,344.9063 Q177.5625,345.1563 177.1719,345.1563 Q176.7969,345.1563 176.5625,344.9063 Q176.3281,344.6406 176.3281,344.0313 L176.3281,343.1406 L172.3594,343.1406 L172.3594,345.5938 L173.8438,345.5938 Q173.8438,344.9375 173.9688,344.75 Q174.2344,344.3438 174.7031,344.3438 Q175.0781,344.3438 175.3125,344.6094 Q175.5469,344.8594 175.5469,345.4688 L175.5469,347.4375 Q175.5469,347.9844 175.4219,348.1719 Q175.1563,348.5625 174.7031,348.5625 Q174.2344,348.5625 173.9688,348.1563 Q173.8438,347.9688 173.8438,347.2969 L172.3594,347.2969 Z " fill="#000000"/><text fill="#000000" font-family="sans-serif" font-size="14" lengthAdjust="spacing" textLength="33" x="187.5" y="352.2285">State</text><line style="stroke:#181818;stroke-width:0.5;" x1="159.5" x2="222.5" y1="362.5" y2="362.5"/><line style="stroke:#181818;stroke-width:0.5;" x1="159.5" x2="222.5" y1="370.5" y2="370.5"/></g><!--MD5=[a273cb2d535cd0db32a65a079a20fa3f]
class Primary--><g id="elem_Primary"><rect codeLine="25" fill="#F1F1F1" height="65.6094" id="Primary" rx="2.5" ry="2.5" style="stroke:#181818;stroke-width:0.5;" width="90" x="234" y="482.5"/><ellipse cx="253.5" cy="498.5" fill="#ADD1B2" rx="11" ry="11" style="stroke:#181818;stroke-width:1.0;"/><path d="M256.2656,494.375 Q256.4219,494.1563 256.6094,494.0469 Q256.7969,493.9375 257.0156,493.9375 Q257.3906,493.9375 257.625,494.2031 Q257.8594,494.4531 257.8594,495.0625 L257.8594,496.5156 Q257.8594,497.125 257.625,497.3906 Q257.3906,497.6563 257.0156,497.6563 Q256.6719,497.6563 256.4688,497.4531 Q256.2656,497.2656 256.1563,496.75 Q256.1094,496.3906 255.9219,496.2031 Q255.5938,495.8281 254.9844,495.6094 Q254.375,495.3906 253.75,495.3906 Q252.9844,495.3906 252.3438,495.7188 Q251.7188,496.0469 251.2188,496.7969 Q250.7344,497.5469 250.7344,498.5781 L250.7344,499.6719 Q250.7344,500.9063 251.625,501.7344 Q252.5156,502.5469 254.1094,502.5469 Q255.0469,502.5469 255.7031,502.2969 Q256.0938,502.1406 256.5156,501.7031 Q256.7813,501.4375 256.9219,501.3594 Q257.0781,501.2813 257.2813,501.2813 Q257.6094,501.2813 257.8594,501.5469 Q258.125,501.7969 258.125,502.1406 Q258.125,502.4844 257.7813,502.8906 Q257.2813,503.4688 256.4844,503.7969 Q255.4063,504.25 254.1094,504.25 Q252.5938,504.25 251.3906,503.625 Q250.4063,503.125 249.7188,502.0625 Q249.0313,500.9844 249.0313,499.7031 L249.0313,498.5469 Q249.0313,497.2188 249.6406,496.0781 Q250.2656,494.9219 251.3594,494.3125 Q252.4531,493.6875 253.6875,493.6875 Q254.4219,493.6875 255.0625,493.8594 Q255.7188,494.0156 256.2656,494.375 Z " fill="#000000"/><text fill="#000000" font-family="sans-serif" font-size="14" lengthAdjust="spacing" textLength="48" x="268.5" y="504.2285">Primary</text><line style="stroke:#181818;stroke-width:0.5;" x1="235" x2="323" y1="514.5" y2="514.5"/><text fill="#000000" font-family="sans-serif" font-size="14" lengthAdjust="spacing" textLength="78" x="240" y="533.0332">withKeyword</text><line style="stroke:#181818;stroke-width:0.5;" x1="235" x2="323" y1="540.1094" y2="540.1094"/></g><!--MD5=[322ff4561961666878e676a719041932]
class Secundary--><g id="elem_Secundary"><rect codeLine="29" fill="#F1F1F1" height="83.2188" id="Secundary" rx="2.5" ry="2.5" style="stroke:#181818;stroke-width:0.5;" width="192" x="7" y="474"/><ellipse cx="64.75" cy="490" fill="#ADD1B2" rx="11" ry="11" style="stroke:#181818;stroke-width:1.0;"/><path d="M67.5156,485.875 Q67.6719,485.6563 67.8594,485.5469 Q68.0469,485.4375 68.2656,485.4375 Q68.6406,485.4375 68.875,485.7031 Q69.1094,485.9531 69.1094,486.5625 L69.1094,488.0156 Q69.1094,488.625 68.875,488.8906 Q68.6406,489.1563 68.2656,489.1563 Q67.9219,489.1563 67.7188,488.9531 Q67.5156,488.7656 67.4063,488.25 Q67.3594,487.8906 67.1719,487.7031 Q66.8438,487.3281 66.2344,487.1094 Q65.625,486.8906 65,486.8906 Q64.2344,486.8906 63.5938,487.2188 Q62.9688,487.5469 62.4688,488.2969 Q61.9844,489.0469 61.9844,490.0781 L61.9844,491.1719 Q61.9844,492.4063 62.875,493.2344 Q63.7656,494.0469 65.3594,494.0469 Q66.2969,494.0469 66.9531,493.7969 Q67.3438,493.6406 67.7656,493.2031 Q68.0313,492.9375 68.1719,492.8594 Q68.3281,492.7813 68.5313,492.7813 Q68.8594,492.7813 69.1094,493.0469 Q69.375,493.2969 69.375,493.6406 Q69.375,493.9844 69.0313,494.3906 Q68.5313,494.9688 67.7344,495.2969 Q66.6563,495.75 65.3594,495.75 Q63.8438,495.75 62.6406,495.125 Q61.6563,494.625 60.9688,493.5625 Q60.2813,492.4844 60.2813,491.2031 L60.2813,490.0469 Q60.2813,488.7188 60.8906,487.5781 Q61.5156,486.4219 62.6094,485.8125 Q63.7031,485.1875 64.9375,485.1875 Q65.6719,485.1875 66.3125,485.3594 Q66.9688,485.5156 67.5156,485.875 Z " fill="#000000"/><text fill="#000000" font-family="sans-serif" font-size="14" lengthAdjust="spacing" textLength="68" x="85.25" y="495.7285">Secundary</text><line style="stroke:#181818;stroke-width:0.5;" x1="8" x2="198" y1="506" y2="506"/><text fill="#000000" font-family="sans-serif" font-size="14" lengthAdjust="spacing" textLength="78" x="13" y="524.5332">withKeyword</text><text fill="#000000" font-family="sans-serif" font-size="14" lengthAdjust="spacing" textLength="180" x="13" y="542.1426">withDefinition or withRelation</text><line style="stroke:#181818;stroke-width:0.5;" x1="8" x2="198" y1="549.2188" y2="549.2188"/></g><!--MD5=[3d8969de01f2361d4f44e57c4405efbc]
class OpenDefinitionQuestion--><g id="elem_OpenDefinitionQuestion"><rect codeLine="34" fill="#F1F1F1" height="83.2188" id="OpenDefinitionQuestion" rx="2.5" ry="2.5" style="stroke:#181818;stroke-width:0.5;" width="248" x="1215" y="313"/><ellipse cx="1259.25" cy="329" fill="#ADD1B2" rx="11" ry="11" style="stroke:#181818;stroke-width:1.0;"/><path d="M1262.0156,324.875 Q1262.1719,324.6563 1262.3594,324.5469 Q1262.5469,324.4375 1262.7656,324.4375 Q1263.1406,324.4375 1263.375,324.7031 Q1263.6094,324.9531 1263.6094,325.5625 L1263.6094,327.0156 Q1263.6094,327.625 1263.375,327.8906 Q1263.1406,328.1563 1262.7656,328.1563 Q1262.4219,328.1563 1262.2188,327.9531 Q1262.0156,327.7656 1261.9063,327.25 Q1261.8594,326.8906 1261.6719,326.7031 Q1261.3438,326.3281 1260.7344,326.1094 Q1260.125,325.8906 1259.5,325.8906 Q1258.7344,325.8906 1258.0938,326.2188 Q1257.4688,326.5469 1256.9688,327.2969 Q1256.4844,328.0469 1256.4844,329.0781 L1256.4844,330.1719 Q1256.4844,331.4063 1257.375,332.2344 Q1258.2656,333.0469 1259.8594,333.0469 Q1260.7969,333.0469 1261.4531,332.7969 Q1261.8438,332.6406 1262.2656,332.2031 Q1262.5313,331.9375 1262.6719,331.8594 Q1262.8281,331.7813 1263.0313,331.7813 Q1263.3594,331.7813 1263.6094,332.0469 Q1263.875,332.2969 1263.875,332.6406 Q1263.875,332.9844 1263.5313,333.3906 Q1263.0313,333.9688 1262.2344,334.2969 Q1261.1563,334.75 1259.8594,334.75 Q1258.3438,334.75 1257.1406,334.125 Q1256.1563,333.625 1255.4688,332.5625 Q1254.7813,331.4844 1254.7813,330.2031 L1254.7813,329.0469 Q1254.7813,327.7188 1255.3906,326.5781 Q1256.0156,325.4219 1257.1094,324.8125 Q1258.2031,324.1875 1259.4375,324.1875 Q1260.1719,324.1875 1260.8125,324.3594 Q1261.4688,324.5156 1262.0156,324.875 Z " fill="#000000"/><text fill="#000000" font-family="sans-serif" font-size="14" lengthAdjust="spacing" textLength="151" x="1279.75" y="334.7285">OpenDefinitionQuestion</text><line style="stroke:#181818;stroke-width:0.5;" x1="1216" x2="1462" y1="345" y2="345"/><rect fill="none" height="6" style="stroke:#C82930;stroke-width:1.0;" width="6" x="1223" y="356.3047"/><text fill="#000000" font-family="sans-serif" font-size="14" lengthAdjust="spacing" textLength="181" x="1235" y="363.5332">StatementType = "Definition"</text><rect fill="none" height="6" style="stroke:#C82930;stroke-width:1.0;" width="6" x="1223" y="373.9141"/><text fill="#000000" font-family="sans-serif" font-size="14" lengthAdjust="spacing" textLength="222" x="1235" y="381.1426">statement ="¿Qué es KEYWORD?"</text><line style="stroke:#181818;stroke-width:0.5;" x1="1216" x2="1462" y1="388.2188" y2="388.2188"/></g><!--MD5=[9811c07b1247a04619f5505532a86de1]
class OpenClassQuestion--><g id="elem_OpenClassQuestion"><rect codeLine="40" fill="#F1F1F1" height="83.2188" id="OpenClassQuestion" rx="2.5" ry="2.5" style="stroke:#181818;stroke-width:0.5;" width="297" x="378.5" y="313"/><ellipse cx="459.25" cy="329" fill="#ADD1B2" rx="11" ry="11" style="stroke:#181818;stroke-width:1.0;"/><path d="M462.0156,324.875 Q462.1719,324.6563 462.3594,324.5469 Q462.5469,324.4375 462.7656,324.4375 Q463.1406,324.4375 463.375,324.7031 Q463.6094,324.9531 463.6094,325.5625 L463.6094,327.0156 Q463.6094,327.625 463.375,327.8906 Q463.1406,328.1563 462.7656,328.1563 Q462.4219,328.1563 462.2188,327.9531 Q462.0156,327.7656 461.9063,327.25 Q461.8594,326.8906 461.6719,326.7031 Q461.3438,326.3281 460.7344,326.1094 Q460.125,325.8906 459.5,325.8906 Q458.7344,325.8906 458.0938,326.2188 Q457.4688,326.5469 456.9688,327.2969 Q456.4844,328.0469 456.4844,329.0781 L456.4844,330.1719 Q456.4844,331.4063 457.375,332.2344 Q458.2656,333.0469 459.8594,333.0469 Q460.7969,333.0469 461.4531,332.7969 Q461.8438,332.6406 462.2656,332.2031 Q462.5313,331.9375 462.6719,331.8594 Q462.8281,331.7813 463.0313,331.7813 Q463.3594,331.7813 463.6094,332.0469 Q463.875,332.2969 463.875,332.6406 Q463.875,332.9844 463.5313,333.3906 Q463.0313,333.9688 462.2344,334.2969 Q461.1563,334.75 459.8594,334.75 Q458.3438,334.75 457.1406,334.125 Q456.1563,333.625 455.4688,332.5625 Q454.7813,331.4844 454.7813,330.2031 L454.7813,329.0469 Q454.7813,327.7188 455.3906,326.5781 Q456.0156,325.4219 457.1094,324.8125 Q458.2031,324.1875 459.4375,324.1875 Q460.1719,324.1875 460.8125,324.3594 Q461.4688,324.5156 462.0156,324.875 Z " fill="#000000"/><text fill="#000000" font-family="sans-serif" font-size="14" lengthAdjust="spacing" textLength="127" x="479.75" y="334.7285">OpenClassQuestion</text><line style="stroke:#181818;stroke-width:0.5;" x1="379.5" x2="674.5" y1="345" y2="345"/><rect fill="none" height="6" style="stroke:#C82930;stroke-width:1.0;" width="6" x="386.5" y="356.3047"/><text fill="#000000" font-family="sans-serif" font-size="14" lengthAdjust="spacing" textLength="205" x="398.5" y="363.5332">StatementType = "Classification"</text><rect fill="none" height="6" style="stroke:#C82930;stroke-width:1.0;" width="6" x="386.5" y="373.9141"/><text fill="#000000" font-family="sans-serif" font-size="14" lengthAdjust="spacing" textLength="271" x="398.5" y="381.1426">statement = "Qué tipos hay de KEYWORD"</text><line style="stroke:#181818;stroke-width:0.5;" x1="379.5" x2="674.5" y1="388.2188" y2="388.2188"/></g><!--MD5=[2e3e70aeace816b0cedea9999a1b71b4]
class OpenCompositionQuestion--><g id="elem_OpenCompositionQuestion"><rect codeLine="46" fill="#F1F1F1" height="83.2188" id="OpenCompositionQuestion" rx="2.5" ry="2.5" style="stroke:#181818;stroke-width:0.5;" width="398" x="711" y="313"/><ellipse cx="820.75" cy="329" fill="#ADD1B2" rx="11" ry="11" style="stroke:#181818;stroke-width:1.0;"/><path d="M823.5156,324.875 Q823.6719,324.6563 823.8594,324.5469 Q824.0469,324.4375 824.2656,324.4375 Q824.6406,324.4375 824.875,324.7031 Q825.1094,324.9531 825.1094,325.5625 L825.1094,327.0156 Q825.1094,327.625 824.875,327.8906 Q824.6406,328.1563 824.2656,328.1563 Q823.9219,328.1563 823.7188,327.9531 Q823.5156,327.7656 823.4063,327.25 Q823.3594,326.8906 823.1719,326.7031 Q822.8438,326.3281 822.2344,326.1094 Q821.625,325.8906 821,325.8906 Q820.2344,325.8906 819.5938,326.2188 Q818.9688,326.5469 818.4688,327.2969 Q817.9844,328.0469 817.9844,329.0781 L817.9844,330.1719 Q817.9844,331.4063 818.875,332.2344 Q819.7656,333.0469 821.3594,333.0469 Q822.2969,333.0469 822.9531,332.7969 Q823.3438,332.6406 823.7656,332.2031 Q824.0313,331.9375 824.1719,331.8594 Q824.3281,331.7813 824.5313,331.7813 Q824.8594,331.7813 825.1094,332.0469 Q825.375,332.2969 825.375,332.6406 Q825.375,332.9844 825.0313,333.3906 Q824.5313,333.9688 823.7344,334.2969 Q822.6563,334.75 821.3594,334.75 Q819.8438,334.75 818.6406,334.125 Q817.6563,333.625 816.9688,332.5625 Q816.2813,331.4844 816.2813,330.2031 L816.2813,329.0469 Q816.2813,327.7188 816.8906,326.5781 Q817.5156,325.4219 818.6094,324.8125 Q819.7031,324.1875 820.9375,324.1875 Q821.6719,324.1875 822.3125,324.3594 Q822.9688,324.5156 823.5156,324.875 Z " fill="#000000"/><text fill="#000000" font-family="sans-serif" font-size="14" lengthAdjust="spacing" textLength="170" x="841.25" y="334.7285">OpenCompositionQuestion</text><line style="stroke:#181818;stroke-width:0.5;" x1="712" x2="1108" y1="345" y2="345"/><rect fill="none" height="6" style="stroke:#C82930;stroke-width:1.0;" width="6" x="719" y="356.3047"/><text fill="#000000" font-family="sans-serif" font-size="14" lengthAdjust="spacing" textLength="200" x="731" y="363.5332">StatementType = "Composition"</text><rect fill="none" height="6" style="stroke:#C82930;stroke-width:1.0;" width="6" x="719" y="373.9141"/><text fill="#000000" font-family="sans-serif" font-size="14" lengthAdjust="spacing" textLength="372" x="731" y="381.1426">statement ="¿Qué conceptos destacarias del KEYWORD?"</text><line style="stroke:#181818;stroke-width:0.5;" x1="712" x2="1108" y1="388.2188" y2="388.2188"/></g><!--MD5=[fc7123defb831ecdd44b2d9bcef6cceb]
class Question--><g id="elem_Question"><rect codeLine="52" fill="#F1F1F1" height="100.8281" id="Question" rx="2.5" ry="2.5" style="stroke:#181818;stroke-width:0.5;" width="122" x="849" y="7"/><ellipse cx="878.85" cy="23" fill="#ADD1B2" rx="11" ry="11" style="stroke:#181818;stroke-width:1.0;"/><path d="M881.6156,18.875 Q881.7719,18.6563 881.9594,18.5469 Q882.1469,18.4375 882.3656,18.4375 Q882.7406,18.4375 882.975,18.7031 Q883.2094,18.9531 883.2094,19.5625 L883.2094,21.0156 Q883.2094,21.625 882.975,21.8906 Q882.7406,22.1563 882.3656,22.1563 Q882.0219,22.1563 881.8188,21.9531 Q881.6156,21.7656 881.5063,21.25 Q881.4594,20.8906 881.2719,20.7031 Q880.9438,20.3281 880.3344,20.1094 Q879.725,19.8906 879.1,19.8906 Q878.3344,19.8906 877.6938,20.2188 Q877.0688,20.5469 876.5688,21.2969 Q876.0844,22.0469 876.0844,23.0781 L876.0844,24.1719 Q876.0844,25.4063 876.975,26.2344 Q877.8656,27.0469 879.4594,27.0469 Q880.3969,27.0469 881.0531,26.7969 Q881.4438,26.6406 881.8656,26.2031 Q882.1313,25.9375 882.2719,25.8594 Q882.4281,25.7813 882.6313,25.7813 Q882.9594,25.7813 883.2094,26.0469 Q883.475,26.2969 883.475,26.6406 Q883.475,26.9844 883.1313,27.3906 Q882.6313,27.9688 881.8344,28.2969 Q880.7563,28.75 879.4594,28.75 Q877.9438,28.75 876.7406,28.125 Q875.7563,27.625 875.0688,26.5625 Q874.3813,25.4844 874.3813,24.2031 L874.3813,23.0469 Q874.3813,21.7188 874.9906,20.5781 Q875.6156,19.4219 876.7094,18.8125 Q877.8031,18.1875 879.0375,18.1875 Q879.7719,18.1875 880.4125,18.3594 Q881.0688,18.5156 881.6156,18.875 Z " fill="#000000"/><text fill="#000000" font-family="sans-serif" font-size="14" lengthAdjust="spacing" textLength="57" x="896.15" y="28.7285">Question</text><line style="stroke:#181818;stroke-width:0.5;" x1="850" x2="970" y1="39" y2="39"/><rect fill="none" height="6" style="stroke:#C82930;stroke-width:1.0;" width="6" x="857" y="50.3047"/><text fill="#000000" font-family="sans-serif" font-size="14" lengthAdjust="spacing" textLength="62" x="869" y="57.5332">statement</text><rect fill="none" height="6" style="stroke:#C82930;stroke-width:1.0;" width="6" x="857" y="67.9141"/><text fill="#000000" font-family="sans-serif" font-size="14" lengthAdjust="spacing" textLength="96" x="869" y="75.1426">StatementType</text><rect fill="none" height="6" style="stroke:#C82930;stroke-width:1.0;" width="6" x="857" y="85.5234"/><text fill="#000000" font-family="sans-serif" font-size="14" lengthAdjust="spacing" textLength="60" x="869" y="92.752">answers[]</text><line style="stroke:#181818;stroke-width:0.5;" x1="850" x2="970" y1="99.8281" y2="99.8281"/></g><!--MD5=[c5be3d7e9ffcf6502258095b57411394]
class OpenQuestion--><g id="elem_OpenQuestion"><rect codeLine="58" fill="#F1F1F1" height="65.6094" id="OpenQuestion" rx="2.5" ry="2.5" style="stroke:#181818;stroke-width:0.5;" width="164" x="1105" y="177.5"/><ellipse cx="1138" cy="193.5" fill="#ADD1B2" rx="11" ry="11" style="stroke:#181818;stroke-width:1.0;"/><path d="M1140.7656,189.375 Q1140.9219,189.1563 1141.1094,189.0469 Q1141.2969,188.9375 1141.5156,188.9375 Q1141.8906,188.9375 1142.125,189.2031 Q1142.3594,189.4531 1142.3594,190.0625 L1142.3594,191.5156 Q1142.3594,192.125 1142.125,192.3906 Q1141.8906,192.6563 1141.5156,192.6563 Q1141.1719,192.6563 1140.9688,192.4531 Q1140.7656,192.2656 1140.6563,191.75 Q1140.6094,191.3906 1140.4219,191.2031 Q1140.0938,190.8281 1139.4844,190.6094 Q1138.875,190.3906 1138.25,190.3906 Q1137.4844,190.3906 1136.8438,190.7188 Q1136.2188,191.0469 1135.7188,191.7969 Q1135.2344,192.5469 1135.2344,193.5781 L1135.2344,194.6719 Q1135.2344,195.9063 1136.125,196.7344 Q1137.0156,197.5469 1138.6094,197.5469 Q1139.5469,197.5469 1140.2031,197.2969 Q1140.5938,197.1406 1141.0156,196.7031 Q1141.2813,196.4375 1141.4219,196.3594 Q1141.5781,196.2813 1141.7813,196.2813 Q1142.1094,196.2813 1142.3594,196.5469 Q1142.625,196.7969 1142.625,197.1406 Q1142.625,197.4844 1142.2813,197.8906 Q1141.7813,198.4688 1140.9844,198.7969 Q1139.9063,199.25 1138.6094,199.25 Q1137.0938,199.25 1135.8906,198.625 Q1134.9063,198.125 1134.2188,197.0625 Q1133.5313,195.9844 1133.5313,194.7031 L1133.5313,193.5469 Q1133.5313,192.2188 1134.1406,191.0781 Q1134.7656,189.9219 1135.8594,189.3125 Q1136.9531,188.6875 1138.1875,188.6875 Q1138.9219,188.6875 1139.5625,188.8594 Q1140.2188,189.0156 1140.7656,189.375 Z " fill="#000000"/><text fill="#000000" font-family="sans-serif" font-size="14" lengthAdjust="spacing" textLength="92" x="1156" y="199.2285">OpenQuestion</text><line style="stroke:#181818;stroke-width:0.5;" x1="1106" x2="1268" y1="209.5" y2="209.5"/><rect fill="none" height="6" style="stroke:#C82930;stroke-width:1.0;" width="6" x="1113" y="220.8047"/><text fill="#000000" font-family="sans-serif" font-size="14" lengthAdjust="spacing" textLength="138" x="1125" y="228.0332">answerType = "Open"</text><line style="stroke:#181818;stroke-width:0.5;" x1="1106" x2="1268" y1="235.1094" y2="235.1094"/></g><!--MD5=[f7b1256a464262a81d5827fb39e684fb]
class Open--><g id="elem_Open"><rect codeLine="62" fill="#F1F1F1" height="48" id="Open" rx="2.5" ry="2.5" style="stroke:#181818;stroke-width:0.5;" width="67" x="1498.5" y="330.5"/><ellipse cx="1513.5" cy="346.5" fill="#ADD1B2" rx="11" ry="11" style="stroke:#181818;stroke-width:1.0;"/><path d="M1516.2656,342.375 Q1516.4219,342.1563 1516.6094,342.0469 Q1516.7969,341.9375 1517.0156,341.9375 Q1517.3906,341.9375 1517.625,342.2031 Q1517.8594,342.4531 1517.8594,343.0625 L1517.8594,344.5156 Q1517.8594,345.125 1517.625,345.3906 Q1517.3906,345.6563 1517.0156,345.6563 Q1516.6719,345.6563 1516.4688,345.4531 Q1516.2656,345.2656 1516.1563,344.75 Q1516.1094,344.3906 1515.9219,344.2031 Q1515.5938,343.8281 1514.9844,343.6094 Q1514.375,343.3906 1513.75,343.3906 Q1512.9844,343.3906 1512.3438,343.7188 Q1511.7188,344.0469 1511.2188,344.7969 Q1510.7344,345.5469 1510.7344,346.5781 L1510.7344,347.6719 Q1510.7344,348.9063 1511.625,349.7344 Q1512.5156,350.5469 1514.1094,350.5469 Q1515.0469,350.5469 1515.7031,350.2969 Q1516.0938,350.1406 1516.5156,349.7031 Q1516.7813,349.4375 1516.9219,349.3594 Q1517.0781,349.2813 1517.2813,349.2813 Q1517.6094,349.2813 1517.8594,349.5469 Q1518.125,349.7969 1518.125,350.1406 Q1518.125,350.4844 1517.7813,350.8906 Q1517.2813,351.4688 1516.4844,351.7969 Q1515.4063,352.25 1514.1094,352.25 Q1512.5938,352.25 1511.3906,351.625 Q1510.4063,351.125 1509.7188,350.0625 Q1509.0313,348.9844 1509.0313,347.7031 L1509.0313,346.5469 Q1509.0313,345.2188 1509.6406,344.0781 Q1510.2656,342.9219 1511.3594,342.3125 Q1512.4531,341.6875 1513.6875,341.6875 Q1514.4219,341.6875 1515.0625,341.8594 Q1515.7188,342.0156 1516.2656,342.375 Z " fill="#000000"/><text fill="#000000" font-family="sans-serif" font-size="14" lengthAdjust="spacing" textLength="35" x="1527.5" y="352.2285">Open</text><line style="stroke:#181818;stroke-width:0.5;" x1="1499.5" x2="1564.5" y1="362.5" y2="362.5"/><line style="stroke:#181818;stroke-width:0.5;" x1="1499.5" x2="1564.5" y1="370.5" y2="370.5"/></g><!--MD5=[e68d8486b151d64b61c7f5b6e40a3de9]
reverse link Question to OpenQuestion--><g id="link_Question_OpenQuestion"><path codeLine="64" d="M988.79,101.45 C1033.04,125.57 1087.35,155.18 1127.92,177.3 " fill="none" id="Question-backto-OpenQuestion" style="stroke:#181818;stroke-width:1.0;"/><polygon fill="none" points="985.34,107.54,971.13,91.82,992.04,95.25,985.34,107.54" style="stroke:#181818;stroke-width:1.0;"/></g><!--MD5=[ed083f2d1ee1d19af9b715a82f936d84]
link Question to Concept--><g id="link_Question_Concept"><path codeLine="65" d="M848.91,77.97 C802.64,93.16 737.75,115.4 682,138 C648.53,151.56 611.83,168.52 582.66,182.51 " fill="none" id="Question-to-Concept" style="stroke:#181818;stroke-width:1.0;"/><polygon fill="none" points="570.65,188.31,577.7915,189.3098,581.4611,183.1022,574.3196,182.1024,570.65,188.31" style="stroke:#181818;stroke-width:1.0;"/><text fill="#000000" font-family="sans-serif" font-size="13" lengthAdjust="spacing" textLength="22" x="819.0252" y="76.8576">0..n</text></g><!--MD5=[4cad30c456caf6c2d8ef64c6efcf5ce1]
reverse link Question to Open--><g id="link_Question_Open"><path codeLine="66" d="M991.59,67.15 C1121.07,82.25 1366.03,116.88 1435,169 C1489.42,210.13 1516.29,290.72 1526.68,330.36 " fill="none" id="Question-backto-Open" style="stroke:#181818;stroke-width:1.0;"/><polygon fill="none" points="990.54,74.07,971.47,64.85,992.13,60.16,990.54,74.07" style="stroke:#181818;stroke-width:1.0;"/><text fill="#000000" font-family="sans-serif" font-size="13" lengthAdjust="spacing" textLength="81" x="1498" y="215.9951">-- answerType</text></g><!--MD5=[796dfdab8991771f793f93ccedef4380]
reverse link OpenQuestion to Open--><g id="link_OpenQuestion_Open"><path codeLine="67" d="M1281.36,246.81 C1286.3,248.58 1291.21,250.32 1296,252 C1377.7,280.64 1404.81,271.89 1481,313 C1489.86,317.78 1498.72,324.13 1506.51,330.38 " fill="none" id="OpenQuestion-backto-Open" style="stroke:#181818;stroke-width:1.0;"/><polygon fill="none" points="1269.02,242.35,1273.3054,248.1496,1280.3071,246.4244,1276.0217,240.6248,1269.02,242.35" style="stroke:#181818;stroke-width:1.0;"/><text fill="#000000" font-family="sans-serif" font-size="13" lengthAdjust="spacing" textLength="22" x="1475.1594" y="319.6894">0..n</text></g><!--MD5=[67a9faaf0515b397e3219f72c48c9cfd]
reverse link Concept to State--><g id="link_Concept_State"><path codeLine="68" d="M472.34,225.11 C412.7,241.05 316.46,270.76 241,313 C232.32,317.86 223.64,324.23 216,330.48 " fill="none" id="Concept-backto-State" style="stroke:#181818;stroke-width:1.0;"/><polygon fill="#181818" points="485.21,221.73,478.391,219.3845,473.6032,224.7768,480.4222,227.1223,485.21,221.73" style="stroke:#181818;stroke-width:1.0;"/></g><!--MD5=[a5520a007773c1785edb69fbf58d008f]
link Question to State--><g id="link_Question_State"><path codeLine="69" d="M848.78,60.1 C745.69,65.14 533.5,85.71 378,169 C304.73,208.24 241.01,285.11 210.38,326.15 " fill="none" id="Question-to-State" style="stroke:#181818;stroke-width:1.0;stroke-dasharray:7.0,7.0;"/><polygon fill="#181818" points="207.34,330.25,215.9096,325.396,210.3148,326.2312,209.4795,320.6363,207.34,330.25" style="stroke:#181818;stroke-width:1.0;"/><text fill="#000000" font-family="sans-serif" font-size="13" lengthAdjust="spacing" textLength="88" x="379" y="215.9951">StatementType</text></g><!--MD5=[543bb2115b5a10697a67507a00f6a2f4]
reverse link Concept to Definition--><g id="link_Concept_Definition"><path codeLine="71" d="M583.19,231.99 C604.45,239.23 629.11,246.84 652,252 C755.82,275.4 1041.07,250.21 1127,313 C1182.95,353.88 1206.65,436.5 1215.82,482.22 " fill="none" id="Concept-backto-Definition" style="stroke:#181818;stroke-width:1.0;"/><polygon fill="none" points="570.77,227.67,575.1296,233.414,582.1086,231.5989,577.7489,225.8549,570.77,227.67" style="stroke:#181818;stroke-width:1.0;"/><text fill="#000000" font-family="sans-serif" font-size="13" lengthAdjust="spacing" textLength="22" x="1190.6346" y="471.6612">0..n</text></g><!--MD5=[38796b68b5180f699f927fbe8d179b6a]
reverse link Definition to Justification--><g id="link_Definition_Justification"><path codeLine="72" d="M1221,561.99 C1221,585.47 1221,613.55 1221,634.77 " fill="none" id="Definition-backto-Justification" style="stroke:#181818;stroke-width:1.0;"/><polygon fill="none" points="1221,548.79,1217,554.79,1221,560.79,1225,554.79,1221,548.79" style="stroke:#181818;stroke-width:1.0;"/><text fill="#000000" font-family="sans-serif" font-size="13" lengthAdjust="spacing" textLength="29" x="1222" y="601.4951">Fake</text><text fill="#000000" font-family="sans-serif" font-size="13" lengthAdjust="spacing" textLength="22" x="1196.8344" y="624.221">0..n</text></g><!--MD5=[eb7a17800df728e9c634ee1be9fc6c88]
reverse link Justification to Explanation--><g id="link_Justification_Explanation"><path codeLine="73" d="M1221,714.5 C1221,736.17 1221,761.14 1221,778.85 " fill="none" id="Justification-backto-Explanation" style="stroke:#181818;stroke-width:1.0;"/><polygon fill="none" points="1221,701.2,1217,707.2,1221,713.2,1225,707.2,1221,701.2" style="stroke:#181818;stroke-width:1.0;"/><text fill="#000000" font-family="sans-serif" font-size="13" lengthAdjust="spacing" textLength="29" x="1222" y="745.4951">Fake</text></g><!--MD5=[54f9360500e0fd532969fc16f437bbea]
reverse link Concept to Relation--><g id="link_Concept_Relation"><path codeLine="75" d="M474.24,243.29 C441.31,262.98 398.43,289.01 361,313 C352.43,318.49 343.28,324.56 334.77,330.3 " fill="none" id="Concept-backto-Relation" style="stroke:#181818;stroke-width:1.0;"/><polygon fill="none" points="485.45,236.6,478.2479,236.2393,475.145,242.7487,482.3471,243.1094,485.45,236.6" style="stroke:#181818;stroke-width:1.0;"/><text fill="#000000" font-family="sans-serif" font-size="13" lengthAdjust="spacing" textLength="22" x="318.6048" y="319.5889">0..n</text></g><!--MD5=[90ea77717cc70d7f588b001bbb985d62]
reverse link Relation to Classification--><g id="link_Relation_Classification"><path codeLine="76" d="M336.01,393.37 C364.18,423.84 402.86,465.67 426.6,491.35 " fill="none" id="Relation-backto-Classification" style="stroke:#181818;stroke-width:1.0;"/><polygon fill="none" points="330.81,398.06,322.38,378.62,341.09,388.55,330.81,398.06" style="stroke:#181818;stroke-width:1.0;"/></g><!--MD5=[aac130c8b5f905729b18e85e231f7b50]
reverse link Relation to Composition--><g id="link_Relation_Composition"><path codeLine="77" d="M349.75,389.57 C353.5,391.83 357.28,394 361,396 C449.57,443.59 561.33,480.05 626.91,499.29 " fill="none" id="Relation-backto-Composition" style="stroke:#181818;stroke-width:1.0;"/><polygon fill="none" points="345.7,395.28,332.64,378.59,353.25,383.5,345.7,395.28" style="stroke:#181818;stroke-width:1.0;"/></g><!--MD5=[853bb68ef748593df4a7139cf0af95d7]
reverse link State to Primary--><g id="link_State_Primary"><path codeLine="79" d="M213.67,396.46 C228.45,423.16 247.46,457.51 261.16,482.26 " fill="none" id="State-backto-Primary" style="stroke:#181818;stroke-width:1.0;"/><polygon fill="none" points="207.36,399.51,203.8,378.62,219.61,392.73,207.36,399.51" style="stroke:#181818;stroke-width:1.0;"/></g><!--MD5=[5a70d9cb697fce9798f73fc804671dc5]
reverse link State to Secundary--><g id="link_State_Secundary"><path codeLine="80" d="M168.49,396.16 C155.31,419.98 138.72,449.96 125.53,473.79 " fill="none" id="State-backto-Secundary" style="stroke:#181818;stroke-width:1.0;"/><polygon fill="none" points="162.39,392.73,178.2,378.62,174.64,399.51,162.39,392.73" style="stroke:#181818;stroke-width:1.0;"/></g><!--MD5=[493f9a749530cb204707df6422a43312]
reverse link Question to OpenDefinitionQuestion--><g id="link_Question_OpenDefinitionQuestion"><path codeLine="82" d="M991.34,60.31 C1076.51,66.64 1208.55,89.73 1287,169 C1324.92,207.32 1335.67,271.02 1338.45,312.64 " fill="none" id="Question-backto-OpenDefinitionQuestion" style="stroke:#181818;stroke-width:1.0;"/><polygon fill="none" points="990.81,67.29,971.29,59.06,991.68,53.32,990.81,67.29" style="stroke:#181818;stroke-width:1.0;"/><text fill="#000000" font-family="sans-serif" font-size="13" lengthAdjust="spacing" textLength="96" x="1330" y="215.9951">--StatementType</text></g><!--MD5=[f73c567405cb52b0c0fedc1e1e2ec287]
reverse link Question to OpenClassQuestion--><g id="link_Question_OpenClassQuestion"><path codeLine="83" d="M832.98,117.83 C757.81,175.72 645.47,262.25 579.88,312.77 " fill="none" id="Question-backto-OpenClassQuestion" style="stroke:#181818;stroke-width:1.0;"/><polygon fill="none" points="828.77,112.23,848.89,105.57,837.32,123.32,828.77,112.23" style="stroke:#181818;stroke-width:1.0;"/><text fill="#000000" font-family="sans-serif" font-size="13" lengthAdjust="spacing" textLength="96" x="766" y="215.9951">--StatementType</text></g><!--MD5=[5a6084c92d422b79366cabfda34b2f50]
reverse link Question to OpenCompositionQuestion--><g id="link_Question_OpenCompositionQuestion"><path codeLine="84" d="M910,128.26 C910,185.66 910,265.05 910,312.63 " fill="none" id="Question-backto-OpenCompositionQuestion" style="stroke:#181818;stroke-width:1.0;"/><polygon fill="none" points="903,128.21,910,108.21,917,128.21,903,128.21" style="stroke:#181818;stroke-width:1.0;"/><text fill="#000000" font-family="sans-serif" font-size="13" lengthAdjust="spacing" textLength="96" x="911" y="215.9951">--StatementType</text></g><!--MD5=[00d00651df35e5fdc4df48bf5349a5bb]
reverse link OpenQuestion to OpenDefinitionQuestion--><g id="link_OpenQuestion_OpenDefinitionQuestion"><path codeLine="86" d="M1236.12,257.39 C1255.2,275.21 1276.87,295.46 1295.38,312.75 " fill="none" id="OpenQuestion-backto-OpenDefinitionQuestion" style="stroke:#181818;stroke-width:1.0;"/><polygon fill="none" points="1231.33,262.49,1221.49,243.72,1240.88,252.26,1231.33,262.49" style="stroke:#181818;stroke-width:1.0;"/></g><!--MD5=[49c48160fdf887f5a9305ebf554c6fce]
reverse link OpenDefinitionQuestion to Definition--><g id="link_OpenDefinitionQuestion_Definition"><path codeLine="87" d="M1305.85,400.17 C1286.46,426.3 1262.43,458.68 1244.89,482.3 " fill="none" id="OpenDefinitionQuestion-backto-Definition" style="stroke:#181818;stroke-width:1.0;stroke-dasharray:7.0,7.0;"/><polygon fill="#181818" points="1308.92,396.03,1300.3504,400.884,1305.9452,400.0488,1306.7805,405.6437,1308.92,396.03" style="stroke:#181818;stroke-width:1.0;"/><text fill="#000000" font-family="sans-serif" font-size="13" lengthAdjust="spacing" textLength="48" x="1284" y="440.4951">answers</text></g><!--MD5=[2c480cd5ab9f14c80fa922f559052d91]
reverse link OpenQuestion to OpenClassQuestion--><g id="link_OpenQuestion_OpenClassQuestion"><path codeLine="89" d="M1085.37,236.37 C1062.58,241.72 1038.5,247.21 1016,252 C873.54,282.35 836.38,282.27 694,313 C688.02,314.29 681.93,315.63 675.78,317.01 " fill="none" id="OpenQuestion-backto-OpenClassQuestion" style="stroke:#181818;stroke-width:1.0;"/><polygon fill="none" points="1083.9,229.52,1104.98,231.72,1087.13,243.15,1083.9,229.52" style="stroke:#181818;stroke-width:1.0;"/></g><!--MD5=[b619a8a782ce055e34c4b08410723460]
reverse link OpenClassQuestion to Classification--><g id="link_OpenClassQuestion_Classification"><path codeLine="90" d="M504.54,400.71 C489.86,430.25 471.3,467.61 459.53,491.29 " fill="none" id="OpenClassQuestion-backto-Classification" style="stroke:#181818;stroke-width:1.0;stroke-dasharray:7.0,7.0;"/><polygon fill="#181818" points="506.86,396.03,499.2654,402.3007,504.6297,400.505,506.4254,405.8693,506.86,396.03" style="stroke:#181818;stroke-width:1.0;"/><text fill="#000000" font-family="sans-serif" font-size="13" lengthAdjust="spacing" textLength="48" x="490" y="440.4951">answers</text></g><!--MD5=[a705a4ef93217206b71ff3030540b34a]
reverse link OpenQuestion to OpenCompositionQuestion--><g id="link_OpenQuestion_OpenCompositionQuestion"><path codeLine="92" d="M1115.56,253.76 C1098.19,263.64 1079.56,273.93 1062,283 C1042.49,293.08 1021.26,303.35 1001.04,312.82 " fill="none" id="OpenQuestion-backto-OpenCompositionQuestion" style="stroke:#181818;stroke-width:1.0;"/><polygon fill="none" points="1112.27,247.57,1133.1,243.67,1119.25,259.71,1112.27,247.57" style="stroke:#181818;stroke-width:1.0;"/></g><!--MD5=[92cd928904746ce40363a3030cb52c20]
reverse link OpenCompositionQuestion to Composition--><g id="link_OpenCompositionQuestion_Composition"><path codeLine="93" d="M847.52,399.07 C804.8,428.86 749.87,467.17 715.28,491.29 " fill="none" id="OpenCompositionQuestion-backto-Composition" style="stroke:#181818;stroke-width:1.0;stroke-dasharray:7.0,7.0;"/><polygon fill="#181818" points="851.88,396.03,842.2135,397.9165,847.7845,398.8983,846.8027,404.4693,851.88,396.03" style="stroke:#181818;stroke-width:1.0;"/><text fill="#000000" font-family="sans-serif" font-size="13" lengthAdjust="spacing" textLength="48" x="803" y="440.4951">answers</text></g><!--MD5=[01d7da8cec0f82fe6470cb5619e0b4f9]
@startuml ConceptDomainDetail

class Concept {
    - keyword
    - state
}

class Definition {
    - Real/Fake
}

class Justification {
    - Real/Fake
}

class Explanation

class Relation

class Classification

class Composition

enum State

class Primary {
    withKeyword
}

class Secundary {
    withKeyword
    withDefinition or withRelation
}

class OpenDefinitionQuestion {
    - StatementType = "Definition"
    - statement ="¿Qué es KEYWORD?"

}

class OpenClassQuestion {
    - StatementType = "Classification"
    - statement = "Qué tipos hay de KEYWORD"

}

class OpenCompositionQuestion {
    - StatementType = "Composition"
    - statement ="¿Qué conceptos destacarias del KEYWORD?"

}

class Question {
    - statement
    - StatementType
    - answers[]
}

class OpenQuestion {
    - answerType = "Open"
}

class Open

Question <|- - OpenQuestion
Question "0..n" -o Concept
Question <|- - Open :- - answerType
OpenQuestion o- -"0..n" Open
Concept *- - State
Question ..> State: StatementType

Concept o- -"0..n" Definition
Definition o- - "0..n" Justification:Fake
Justification o- - Explanation:Fake

Concept o- - "0..n" Relation
Relation <|- - Classification
Relation <|- - Composition

State <|- - Primary
State <|- - Secundary

Question <|- - OpenDefinitionQuestion :- -StatementType
Question <|- - OpenClassQuestion :- -StatementType
Question <|- - OpenCompositionQuestion :- -StatementType

OpenQuestion <|- - OpenDefinitionQuestion
OpenDefinitionQuestion <.. Definition: answers

OpenQuestion <|- - OpenClassQuestion
OpenClassQuestion <.. Classification :answers

OpenQuestion <|- - OpenCompositionQuestion
OpenCompositionQuestion <.. Composition :answers

@enduml

PlantUML version 1.2022.7(Mon Aug 22 18:01:30 WEST 2022)
(GPL source distribution)
Java Runtime: OpenJDK Runtime Environment
JVM: OpenJDK 64-Bit Server VM
Default Encoding: Cp1252
Language: es
Country: ES
--></g></svg>