<?xml version="1.0" encoding="UTF-8" standalone="no"?><svg xmlns="http://www.w3.org/2000/svg" xmlns:xlink="http://www.w3.org/1999/xlink" contentStyleType="text/css" height="717px" preserveAspectRatio="none" style="width:1506px;height:717px;background:#FFFFFF;" version="1.1" viewBox="0 0 1506 717" width="1506px" zoomAndPan="magnify"><defs/><g><!--MD5=[2b927b3a1f5e04350326ca5369519571]
cluster Primary:conceptElementUsed=Keyword--><g id="cluster_Primary:conceptElementUsed=Keyword"><path d="M409.5,209 L685.5,209 A3.75,3.75 0 0 1 688,211.5 L695,232.6094 L1450.5,232.6094 A2.5,2.5 0 0 1 1453,235.1094 L1453,341.5 A2.5,2.5 0 0 1 1450.5,344 L409.5,344 A2.5,2.5 0 0 1 407,341.5 L407,211.5 A2.5,2.5 0 0 1 409.5,209 " fill="none" style="stroke:#000000;stroke-width:1.5;"/><line style="stroke:#000000;stroke-width:1.5;" x1="407" x2="695" y1="232.6094" y2="232.6094"/><text fill="#000000" font-family="sans-serif" font-size="14" font-weight="bold" lengthAdjust="spacing" textLength="275" x="411" y="225.5332">Primary:conceptElementUsed=Keyword</text></g><!--MD5=[f524f4843046d594e03236310757e034]
cluster Bridge--><g id="cluster_Bridge"><path d="M477.5,6 L525.5,6 A3.75,3.75 0 0 1 528,8.5 L535,29.6094 L951.5,29.6094 A2.5,2.5 0 0 1 954,32.1094 L954,173.5 A2.5,2.5 0 0 1 951.5,176 L477.5,176 A2.5,2.5 0 0 1 475,173.5 L475,8.5 A2.5,2.5 0 0 1 477.5,6 " fill="none" style="stroke:#000000;stroke-width:1.5;"/><line style="stroke:#000000;stroke-width:1.5;" x1="475" x2="535" y1="29.6094" y2="29.6094"/><text fill="#000000" font-family="sans-serif" font-size="14" font-weight="bold" lengthAdjust="spacing" textLength="47" x="479" y="22.5332">Bridge</text></g><!--MD5=[a51a7e8bb9783b3a226fb2f8d75a473a]
class DefinitionStatement--><g id="elem_DefinitionStatement"><rect codeLine="17" fill="#F1F1F1" height="83.2188" id="DefinitionStatement" rx="2.5" ry="2.5" style="stroke:#181818;stroke-width:0.5;" width="248" x="856" y="245"/><ellipse cx="914.25" cy="261" fill="#ADD1B2" rx="11" ry="11" style="stroke:#181818;stroke-width:1.0;"/><path d="M917.0156,256.875 Q917.1719,256.6563 917.3594,256.5469 Q917.5469,256.4375 917.7656,256.4375 Q918.1406,256.4375 918.375,256.7031 Q918.6094,256.9531 918.6094,257.5625 L918.6094,259.0156 Q918.6094,259.625 918.375,259.8906 Q918.1406,260.1563 917.7656,260.1563 Q917.4219,260.1563 917.2188,259.9531 Q917.0156,259.7656 916.9063,259.25 Q916.8594,258.8906 916.6719,258.7031 Q916.3438,258.3281 915.7344,258.1094 Q915.125,257.8906 914.5,257.8906 Q913.7344,257.8906 913.0938,258.2188 Q912.4688,258.5469 911.9688,259.2969 Q911.4844,260.0469 911.4844,261.0781 L911.4844,262.1719 Q911.4844,263.4063 912.375,264.2344 Q913.2656,265.0469 914.8594,265.0469 Q915.7969,265.0469 916.4531,264.7969 Q916.8438,264.6406 917.2656,264.2031 Q917.5313,263.9375 917.6719,263.8594 Q917.8281,263.7813 918.0313,263.7813 Q918.3594,263.7813 918.6094,264.0469 Q918.875,264.2969 918.875,264.6406 Q918.875,264.9844 918.5313,265.3906 Q918.0313,265.9688 917.2344,266.2969 Q916.1563,266.75 914.8594,266.75 Q913.3438,266.75 912.1406,266.125 Q911.1563,265.625 910.4688,264.5625 Q909.7813,263.4844 909.7813,262.2031 L909.7813,261.0469 Q909.7813,259.7188 910.3906,258.5781 Q911.0156,257.4219 912.1094,256.8125 Q913.2031,256.1875 914.4375,256.1875 Q915.1719,256.1875 915.8125,256.3594 Q916.4688,256.5156 917.0156,256.875 Z " fill="#000000"/><text fill="#000000" font-family="sans-serif" font-size="14" lengthAdjust="spacing" textLength="123" x="934.75" y="266.7285">DefinitionStatement</text><line style="stroke:#181818;stroke-width:0.5;" x1="857" x2="1103" y1="277" y2="277"/><rect fill="none" height="6" style="stroke:#C82930;stroke-width:1.0;" width="6" x="864" y="288.3047"/><text fill="#000000" font-family="sans-serif" font-size="14" lengthAdjust="spacing" textLength="222" x="876" y="295.5332">statement ="¿Qué es KEYWORD?"</text><rect fill="none" height="6" style="stroke:#C82930;stroke-width:1.0;" width="6" x="864" y="305.9141"/><text fill="#000000" font-family="sans-serif" font-size="14" lengthAdjust="spacing" textLength="218" x="876" y="313.1426">conceptElementTarget = Definition</text><line style="stroke:#181818;stroke-width:0.5;" x1="857" x2="1103" y1="320.2188" y2="320.2188"/></g><!--MD5=[9185a2f7d84f0f934f7d1a57c235ac74]
class ClassificationStatement--><g id="elem_ClassificationStatement"><rect codeLine="22" fill="#F1F1F1" height="83.2188" id="ClassificationStatement" rx="2.5" ry="2.5" style="stroke:#181818;stroke-width:0.5;" width="297" x="1139.5" y="245"/><ellipse cx="1210.25" cy="261" fill="#ADD1B2" rx="11" ry="11" style="stroke:#181818;stroke-width:1.0;"/><path d="M1213.0156,256.875 Q1213.1719,256.6563 1213.3594,256.5469 Q1213.5469,256.4375 1213.7656,256.4375 Q1214.1406,256.4375 1214.375,256.7031 Q1214.6094,256.9531 1214.6094,257.5625 L1214.6094,259.0156 Q1214.6094,259.625 1214.375,259.8906 Q1214.1406,260.1563 1213.7656,260.1563 Q1213.4219,260.1563 1213.2188,259.9531 Q1213.0156,259.7656 1212.9063,259.25 Q1212.8594,258.8906 1212.6719,258.7031 Q1212.3438,258.3281 1211.7344,258.1094 Q1211.125,257.8906 1210.5,257.8906 Q1209.7344,257.8906 1209.0938,258.2188 Q1208.4688,258.5469 1207.9688,259.2969 Q1207.4844,260.0469 1207.4844,261.0781 L1207.4844,262.1719 Q1207.4844,263.4063 1208.375,264.2344 Q1209.2656,265.0469 1210.8594,265.0469 Q1211.7969,265.0469 1212.4531,264.7969 Q1212.8438,264.6406 1213.2656,264.2031 Q1213.5313,263.9375 1213.6719,263.8594 Q1213.8281,263.7813 1214.0313,263.7813 Q1214.3594,263.7813 1214.6094,264.0469 Q1214.875,264.2969 1214.875,264.6406 Q1214.875,264.9844 1214.5313,265.3906 Q1214.0313,265.9688 1213.2344,266.2969 Q1212.1563,266.75 1210.8594,266.75 Q1209.3438,266.75 1208.1406,266.125 Q1207.1563,265.625 1206.4688,264.5625 Q1205.7813,263.4844 1205.7813,262.2031 L1205.7813,261.0469 Q1205.7813,259.7188 1206.3906,258.5781 Q1207.0156,257.4219 1208.1094,256.8125 Q1209.2031,256.1875 1210.4375,256.1875 Q1211.1719,256.1875 1211.8125,256.3594 Q1212.4688,256.5156 1213.0156,256.875 Z " fill="#000000"/><text fill="#000000" font-family="sans-serif" font-size="14" lengthAdjust="spacing" textLength="147" x="1230.75" y="266.7285">ClassificationStatement</text><line style="stroke:#181818;stroke-width:0.5;" x1="1140.5" x2="1435.5" y1="277" y2="277"/><rect fill="none" height="6" style="stroke:#C82930;stroke-width:1.0;" width="6" x="1147.5" y="288.3047"/><text fill="#000000" font-family="sans-serif" font-size="14" lengthAdjust="spacing" textLength="271" x="1159.5" y="295.5332">statement = "Qué tipos hay de KEYWORD"</text><rect fill="none" height="6" style="stroke:#C82930;stroke-width:1.0;" width="6" x="1147.5" y="305.9141"/><text fill="#000000" font-family="sans-serif" font-size="14" lengthAdjust="spacing" textLength="242" x="1159.5" y="313.1426">conceptElementTarget = Classification</text><line style="stroke:#181818;stroke-width:0.5;" x1="1140.5" x2="1435.5" y1="320.2188" y2="320.2188"/></g><!--MD5=[9cb1851a3c7d26c2f315fa580a6f39da]
class CompositionStatement--><g id="elem_CompositionStatement"><rect codeLine="27" fill="#F1F1F1" height="83.2188" id="CompositionStatement" rx="2.5" ry="2.5" style="stroke:#181818;stroke-width:0.5;" width="398" x="423" y="245"/><ellipse cx="546.75" cy="261" fill="#ADD1B2" rx="11" ry="11" style="stroke:#181818;stroke-width:1.0;"/><path d="M549.5156,256.875 Q549.6719,256.6563 549.8594,256.5469 Q550.0469,256.4375 550.2656,256.4375 Q550.6406,256.4375 550.875,256.7031 Q551.1094,256.9531 551.1094,257.5625 L551.1094,259.0156 Q551.1094,259.625 550.875,259.8906 Q550.6406,260.1563 550.2656,260.1563 Q549.9219,260.1563 549.7188,259.9531 Q549.5156,259.7656 549.4063,259.25 Q549.3594,258.8906 549.1719,258.7031 Q548.8438,258.3281 548.2344,258.1094 Q547.625,257.8906 547,257.8906 Q546.2344,257.8906 545.5938,258.2188 Q544.9688,258.5469 544.4688,259.2969 Q543.9844,260.0469 543.9844,261.0781 L543.9844,262.1719 Q543.9844,263.4063 544.875,264.2344 Q545.7656,265.0469 547.3594,265.0469 Q548.2969,265.0469 548.9531,264.7969 Q549.3438,264.6406 549.7656,264.2031 Q550.0313,263.9375 550.1719,263.8594 Q550.3281,263.7813 550.5313,263.7813 Q550.8594,263.7813 551.1094,264.0469 Q551.375,264.2969 551.375,264.6406 Q551.375,264.9844 551.0313,265.3906 Q550.5313,265.9688 549.7344,266.2969 Q548.6563,266.75 547.3594,266.75 Q545.8438,266.75 544.6406,266.125 Q543.6563,265.625 542.9688,264.5625 Q542.2813,263.4844 542.2813,262.2031 L542.2813,261.0469 Q542.2813,259.7188 542.8906,258.5781 Q543.5156,257.4219 544.6094,256.8125 Q545.7031,256.1875 546.9375,256.1875 Q547.6719,256.1875 548.3125,256.3594 Q548.9688,256.5156 549.5156,256.875 Z " fill="#000000"/><text fill="#000000" font-family="sans-serif" font-size="14" lengthAdjust="spacing" textLength="142" x="567.25" y="266.7285">CompositionStatement</text><line style="stroke:#181818;stroke-width:0.5;" x1="424" x2="820" y1="277" y2="277"/><rect fill="none" height="6" style="stroke:#C82930;stroke-width:1.0;" width="6" x="431" y="288.3047"/><text fill="#000000" font-family="sans-serif" font-size="14" lengthAdjust="spacing" textLength="372" x="443" y="295.5332">statement ="¿Qué conceptos destacarias del KEYWORD?"</text><rect fill="none" height="6" style="stroke:#C82930;stroke-width:1.0;" width="6" x="431" y="305.9141"/><text fill="#000000" font-family="sans-serif" font-size="14" lengthAdjust="spacing" textLength="237" x="443" y="313.1426">conceptElementTarget = Composition</text><line style="stroke:#181818;stroke-width:0.5;" x1="424" x2="820" y1="320.2188" y2="320.2188"/></g><!--MD5=[fc7123defb831ecdd44b2d9bcef6cceb]
class Question--><g id="elem_Question"><rect codeLine="43" fill="#F1F1F1" height="118.4375" id="Question" rx="2.5" ry="2.5" style="stroke:#181818;stroke-width:0.5;" width="238" x="491" y="42"/><ellipse cx="577.25" cy="58" fill="#A9DCDF" rx="11" ry="11" style="stroke:#181818;stroke-width:1.0;"/><path d="M579.4375,59.7656 L575.2969,59.7656 L574.875,60.7969 L575.2969,60.7969 Q575.9063,60.7969 576.1719,61.0313 Q576.4375,61.2656 576.4375,61.6563 Q576.4375,62.0313 576.1719,62.2656 Q575.9063,62.5 575.2969,62.5 L573,62.5 Q572.3906,62.5 572.1406,62.2656 Q571.875,62.0313 571.875,61.6406 Q571.875,61.2656 572.1563,61.0313 Q572.4219,60.7813 573.0469,60.7969 L575.7188,54.1406 L574.6094,54.1406 Q574,54.1406 573.7344,53.9063 Q573.4688,53.6719 573.4688,53.2813 Q573.4688,52.9063 573.7344,52.6719 Q574,52.4375 574.6094,52.4375 L578.2813,52.4375 L581.6719,60.7969 Q582.2656,60.7969 582.4531,60.9375 Q582.8438,61.2031 582.8438,61.6563 Q582.8438,62.0313 582.5781,62.2656 Q582.3281,62.5 581.7188,62.5 L579.4219,62.5 Q578.8125,62.5 578.5469,62.2656 Q578.2813,62.0313 578.2813,61.6406 Q578.2813,61.2656 578.5469,61.0313 Q578.8125,60.7969 579.4219,60.7969 L579.8438,60.7969 L579.4375,59.7656 Z M578.7188,58.0625 L577.3594,54.6875 L575.9844,58.0625 L578.7188,58.0625 Z " fill="#000000"/><text fill="#000000" font-family="sans-serif" font-size="14" font-style="italic" lengthAdjust="spacing" textLength="57" x="597.75" y="63.7285">Question</text><line style="stroke:#181818;stroke-width:0.5;" x1="492" x2="728" y1="74" y2="74"/><rect fill="none" height="6" style="stroke:#C82930;stroke-width:1.0;" width="6" x="499" y="85.3047"/><text fill="#000000" font-family="sans-serif" font-size="14" lengthAdjust="spacing" textLength="139" x="511" y="92.5332">statementImplementor</text><rect fill="none" height="6" style="stroke:#C82930;stroke-width:1.0;" width="6" x="499" y="102.9141"/><text fill="#000000" font-family="sans-serif" font-size="14" lengthAdjust="spacing" textLength="64" x="511" y="110.1426">answers[ ]</text><line style="stroke:#181818;stroke-width:0.5;" x1="492" x2="728" y1="117.2188" y2="117.2188"/><polygon fill="#FFFF44" points="502,126.5234,506,130.5234,502,134.5234,498,130.5234" style="stroke:#B38D22;stroke-width:1.0;"/><text fill="#000000" font-family="sans-serif" font-size="14" lengthAdjust="spacing" textLength="200" x="511" y="135.752">void setStatementImplementor()</text><ellipse cx="502" cy="149.1328" fill="#84BE84" rx="3" ry="3" style="stroke:#038048;stroke-width:1.0;"/><text fill="#000000" font-family="sans-serif" font-size="14" lengthAdjust="spacing" textLength="212" x="511" y="153.3613">bool isAnsweredBy(studentName)</text></g><!--MD5=[c5a45057bd8260f278ba302c5f5fe264]
class StatementImplementor--><g id="elem_StatementImplementor"><rect codeLine="50" fill="#F1F1F1" height="100.8281" id="StatementImplementor" rx="2.5" ry="2.5" style="stroke:#181818;stroke-width:0.5;" width="173" x="764.5" y="50.5"/><ellipse cx="779.5" cy="66.5" fill="#ADD1B2" rx="11" ry="11" style="stroke:#181818;stroke-width:1.0;"/><path d="M782.2656,62.375 Q782.4219,62.1563 782.6094,62.0469 Q782.7969,61.9375 783.0156,61.9375 Q783.3906,61.9375 783.625,62.2031 Q783.8594,62.4531 783.8594,63.0625 L783.8594,64.5156 Q783.8594,65.125 783.625,65.3906 Q783.3906,65.6563 783.0156,65.6563 Q782.6719,65.6563 782.4688,65.4531 Q782.2656,65.2656 782.1563,64.75 Q782.1094,64.3906 781.9219,64.2031 Q781.5938,63.8281 780.9844,63.6094 Q780.375,63.3906 779.75,63.3906 Q778.9844,63.3906 778.3438,63.7188 Q777.7188,64.0469 777.2188,64.7969 Q776.7344,65.5469 776.7344,66.5781 L776.7344,67.6719 Q776.7344,68.9063 777.625,69.7344 Q778.5156,70.5469 780.1094,70.5469 Q781.0469,70.5469 781.7031,70.2969 Q782.0938,70.1406 782.5156,69.7031 Q782.7813,69.4375 782.9219,69.3594 Q783.0781,69.2813 783.2813,69.2813 Q783.6094,69.2813 783.8594,69.5469 Q784.125,69.7969 784.125,70.1406 Q784.125,70.4844 783.7813,70.8906 Q783.2813,71.4688 782.4844,71.7969 Q781.4063,72.25 780.1094,72.25 Q778.5938,72.25 777.3906,71.625 Q776.4063,71.125 775.7188,70.0625 Q775.0313,68.9844 775.0313,67.7031 L775.0313,66.5469 Q775.0313,65.2188 775.6406,64.0781 Q776.2656,62.9219 777.3594,62.3125 Q778.4531,61.6875 779.6875,61.6875 Q780.4219,61.6875 781.0625,61.8594 Q781.7188,62.0156 782.2656,62.375 Z " fill="#000000"/><text fill="#000000" font-family="sans-serif" font-size="14" lengthAdjust="spacing" textLength="141" x="793.5" y="72.2285">StatementImplementor</text><line style="stroke:#181818;stroke-width:0.5;" x1="765.5" x2="936.5" y1="82.5" y2="82.5"/><rect fill="none" height="6" style="stroke:#C82930;stroke-width:1.0;" width="6" x="772.5" y="93.8047"/><text fill="#000000" font-family="sans-serif" font-size="14" lengthAdjust="spacing" textLength="50" x="784.5" y="101.0332">concept</text><rect fill="none" height="6" style="stroke:#C82930;stroke-width:1.0;" width="6" x="772.5" y="111.4141"/><text fill="#000000" font-family="sans-serif" font-size="14" lengthAdjust="spacing" textLength="133" x="784.5" y="118.6426">conceptElementUsed</text><rect fill="none" height="6" style="stroke:#C82930;stroke-width:1.0;" width="6" x="772.5" y="129.0234"/><text fill="#000000" font-family="sans-serif" font-size="14" lengthAdjust="spacing" textLength="143" x="784.5" y="136.252">conceptElementTarget</text><line style="stroke:#181818;stroke-width:0.5;" x1="765.5" x2="936.5" y1="143.3281" y2="143.3281"/></g><!--MD5=[9d451b2f92d848a8e2d1a4dab2b1c6bf]
class Concept--><g id="elem_Concept"><rect codeLine="2" fill="#F1F1F1" height="65.6094" id="Concept" rx="2.5" ry="2.5" style="stroke:#181818;stroke-width:0.5;" width="85" x="937.5" y="391"/><ellipse cx="952.5" cy="407" fill="#ADD1B2" rx="11" ry="11" style="stroke:#181818;stroke-width:1.0;"/><path d="M955.2656,402.875 Q955.4219,402.6563 955.6094,402.5469 Q955.7969,402.4375 956.0156,402.4375 Q956.3906,402.4375 956.625,402.7031 Q956.8594,402.9531 956.8594,403.5625 L956.8594,405.0156 Q956.8594,405.625 956.625,405.8906 Q956.3906,406.1563 956.0156,406.1563 Q955.6719,406.1563 955.4688,405.9531 Q955.2656,405.7656 955.1563,405.25 Q955.1094,404.8906 954.9219,404.7031 Q954.5938,404.3281 953.9844,404.1094 Q953.375,403.8906 952.75,403.8906 Q951.9844,403.8906 951.3438,404.2188 Q950.7188,404.5469 950.2188,405.2969 Q949.7344,406.0469 949.7344,407.0781 L949.7344,408.1719 Q949.7344,409.4063 950.625,410.2344 Q951.5156,411.0469 953.1094,411.0469 Q954.0469,411.0469 954.7031,410.7969 Q955.0938,410.6406 955.5156,410.2031 Q955.7813,409.9375 955.9219,409.8594 Q956.0781,409.7813 956.2813,409.7813 Q956.6094,409.7813 956.8594,410.0469 Q957.125,410.2969 957.125,410.6406 Q957.125,410.9844 956.7813,411.3906 Q956.2813,411.9688 955.4844,412.2969 Q954.4063,412.75 953.1094,412.75 Q951.5938,412.75 950.3906,412.125 Q949.4063,411.625 948.7188,410.5625 Q948.0313,409.4844 948.0313,408.2031 L948.0313,407.0469 Q948.0313,405.7188 948.6406,404.5781 Q949.2656,403.4219 950.3594,402.8125 Q951.4531,402.1875 952.6875,402.1875 Q953.4219,402.1875 954.0625,402.3594 Q954.7188,402.5156 955.2656,402.875 Z " fill="#000000"/><text fill="#000000" font-family="sans-serif" font-size="14" lengthAdjust="spacing" textLength="53" x="966.5" y="412.7285">Concept</text><line style="stroke:#181818;stroke-width:0.5;" x1="938.5" x2="1021.5" y1="423" y2="423"/><rect fill="none" height="6" style="stroke:#C82930;stroke-width:1.0;" width="6" x="945.5" y="434.3047"/><text fill="#000000" font-family="sans-serif" font-size="14" lengthAdjust="spacing" textLength="52" x="957.5" y="441.5332">keyword</text><line style="stroke:#181818;stroke-width:0.5;" x1="938.5" x2="1021.5" y1="448.6094" y2="448.6094"/></g><!--MD5=[af22135d5be6ed11ccd2d02fa51653b3]
class Definition--><g id="elem_Definition"><rect codeLine="6" fill="#F1F1F1" height="65.6094" id="Definition" rx="2.5" ry="2.5" style="stroke:#181818;stroke-width:0.5;" width="91" x="311.5" y="535"/><ellipse cx="326.5" cy="551" fill="#ADD1B2" rx="11" ry="11" style="stroke:#181818;stroke-width:1.0;"/><path d="M329.2656,546.875 Q329.4219,546.6563 329.6094,546.5469 Q329.7969,546.4375 330.0156,546.4375 Q330.3906,546.4375 330.625,546.7031 Q330.8594,546.9531 330.8594,547.5625 L330.8594,549.0156 Q330.8594,549.625 330.625,549.8906 Q330.3906,550.1563 330.0156,550.1563 Q329.6719,550.1563 329.4688,549.9531 Q329.2656,549.7656 329.1563,549.25 Q329.1094,548.8906 328.9219,548.7031 Q328.5938,548.3281 327.9844,548.1094 Q327.375,547.8906 326.75,547.8906 Q325.9844,547.8906 325.3438,548.2188 Q324.7188,548.5469 324.2188,549.2969 Q323.7344,550.0469 323.7344,551.0781 L323.7344,552.1719 Q323.7344,553.4063 324.625,554.2344 Q325.5156,555.0469 327.1094,555.0469 Q328.0469,555.0469 328.7031,554.7969 Q329.0938,554.6406 329.5156,554.2031 Q329.7813,553.9375 329.9219,553.8594 Q330.0781,553.7813 330.2813,553.7813 Q330.6094,553.7813 330.8594,554.0469 Q331.125,554.2969 331.125,554.6406 Q331.125,554.9844 330.7813,555.3906 Q330.2813,555.9688 329.4844,556.2969 Q328.4063,556.75 327.1094,556.75 Q325.5938,556.75 324.3906,556.125 Q323.4063,555.625 322.7188,554.5625 Q322.0313,553.4844 322.0313,552.2031 L322.0313,551.0469 Q322.0313,549.7188 322.6406,548.5781 Q323.2656,547.4219 324.3594,546.8125 Q325.4531,546.1875 326.6875,546.1875 Q327.4219,546.1875 328.0625,546.3594 Q328.7188,546.5156 329.2656,546.875 Z " fill="#000000"/><text fill="#000000" font-family="sans-serif" font-size="14" lengthAdjust="spacing" textLength="59" x="340.5" y="556.7285">Definition</text><line style="stroke:#181818;stroke-width:0.5;" x1="312.5" x2="401.5" y1="567" y2="567"/><rect fill="none" height="6" style="stroke:#C82930;stroke-width:1.0;" width="6" x="319.5" y="578.3047"/><text fill="#000000" font-family="sans-serif" font-size="14" lengthAdjust="spacing" textLength="42" x="331.5" y="585.5332">isFake</text><line style="stroke:#181818;stroke-width:0.5;" x1="312.5" x2="401.5" y1="592.6094" y2="592.6094"/></g><!--MD5=[534474e9f05b14d7c70186ae077f30e0]
class Relation--><g id="elem_Relation"><rect codeLine="10" fill="#F1F1F1" height="48" id="Relation" rx="2.5" ry="2.5" style="stroke:#181818;stroke-width:0.5;" width="84" x="938" y="544"/><ellipse cx="953" cy="560" fill="#ADD1B2" rx="11" ry="11" style="stroke:#181818;stroke-width:1.0;"/><path d="M955.7656,555.875 Q955.9219,555.6563 956.1094,555.5469 Q956.2969,555.4375 956.5156,555.4375 Q956.8906,555.4375 957.125,555.7031 Q957.3594,555.9531 957.3594,556.5625 L957.3594,558.0156 Q957.3594,558.625 957.125,558.8906 Q956.8906,559.1563 956.5156,559.1563 Q956.1719,559.1563 955.9688,558.9531 Q955.7656,558.7656 955.6563,558.25 Q955.6094,557.8906 955.4219,557.7031 Q955.0938,557.3281 954.4844,557.1094 Q953.875,556.8906 953.25,556.8906 Q952.4844,556.8906 951.8438,557.2188 Q951.2188,557.5469 950.7188,558.2969 Q950.2344,559.0469 950.2344,560.0781 L950.2344,561.1719 Q950.2344,562.4063 951.125,563.2344 Q952.0156,564.0469 953.6094,564.0469 Q954.5469,564.0469 955.2031,563.7969 Q955.5938,563.6406 956.0156,563.2031 Q956.2813,562.9375 956.4219,562.8594 Q956.5781,562.7813 956.7813,562.7813 Q957.1094,562.7813 957.3594,563.0469 Q957.625,563.2969 957.625,563.6406 Q957.625,563.9844 957.2813,564.3906 Q956.7813,564.9688 955.9844,565.2969 Q954.9063,565.75 953.6094,565.75 Q952.0938,565.75 950.8906,565.125 Q949.9063,564.625 949.2188,563.5625 Q948.5313,562.4844 948.5313,561.2031 L948.5313,560.0469 Q948.5313,558.7188 949.1406,557.5781 Q949.7656,556.4219 950.8594,555.8125 Q951.9531,555.1875 953.1875,555.1875 Q953.9219,555.1875 954.5625,555.3594 Q955.2188,555.5156 955.7656,555.875 Z " fill="#000000"/><text fill="#000000" font-family="sans-serif" font-size="14" lengthAdjust="spacing" textLength="52" x="967" y="565.7285">Relation</text><line style="stroke:#181818;stroke-width:0.5;" x1="939" x2="1021" y1="576" y2="576"/><line style="stroke:#181818;stroke-width:0.5;" x1="939" x2="1021" y1="584" y2="584"/></g><!--MD5=[9c239722e256878d27dcbb07783cc14f]
class Classification--><g id="elem_Classification"><rect codeLine="12" fill="#F1F1F1" height="48" id="Classification" rx="2.5" ry="2.5" style="stroke:#181818;stroke-width:0.5;" width="115" x="848.5" y="662"/><ellipse cx="863.5" cy="678" fill="#ADD1B2" rx="11" ry="11" style="stroke:#181818;stroke-width:1.0;"/><path d="M866.2656,673.875 Q866.4219,673.6563 866.6094,673.5469 Q866.7969,673.4375 867.0156,673.4375 Q867.3906,673.4375 867.625,673.7031 Q867.8594,673.9531 867.8594,674.5625 L867.8594,676.0156 Q867.8594,676.625 867.625,676.8906 Q867.3906,677.1563 867.0156,677.1563 Q866.6719,677.1563 866.4688,676.9531 Q866.2656,676.7656 866.1563,676.25 Q866.1094,675.8906 865.9219,675.7031 Q865.5938,675.3281 864.9844,675.1094 Q864.375,674.8906 863.75,674.8906 Q862.9844,674.8906 862.3438,675.2188 Q861.7188,675.5469 861.2188,676.2969 Q860.7344,677.0469 860.7344,678.0781 L860.7344,679.1719 Q860.7344,680.4063 861.625,681.2344 Q862.5156,682.0469 864.1094,682.0469 Q865.0469,682.0469 865.7031,681.7969 Q866.0938,681.6406 866.5156,681.2031 Q866.7813,680.9375 866.9219,680.8594 Q867.0781,680.7813 867.2813,680.7813 Q867.6094,680.7813 867.8594,681.0469 Q868.125,681.2969 868.125,681.6406 Q868.125,681.9844 867.7813,682.3906 Q867.2813,682.9688 866.4844,683.2969 Q865.4063,683.75 864.1094,683.75 Q862.5938,683.75 861.3906,683.125 Q860.4063,682.625 859.7188,681.5625 Q859.0313,680.4844 859.0313,679.2031 L859.0313,678.0469 Q859.0313,676.7188 859.6406,675.5781 Q860.2656,674.4219 861.3594,673.8125 Q862.4531,673.1875 863.6875,673.1875 Q864.4219,673.1875 865.0625,673.3594 Q865.7188,673.5156 866.2656,673.875 Z " fill="#000000"/><text fill="#000000" font-family="sans-serif" font-size="14" lengthAdjust="spacing" textLength="83" x="877.5" y="683.7285">Classification</text><line style="stroke:#181818;stroke-width:0.5;" x1="849.5" x2="962.5" y1="694" y2="694"/><line style="stroke:#181818;stroke-width:0.5;" x1="849.5" x2="962.5" y1="702" y2="702"/></g><!--MD5=[251454e98c15f29849fb35b1904d0020]
class Composition--><g id="elem_Composition"><rect codeLine="14" fill="#F1F1F1" height="48" id="Composition" rx="2.5" ry="2.5" style="stroke:#181818;stroke-width:0.5;" width="110" x="999" y="662"/><ellipse cx="1014" cy="678" fill="#ADD1B2" rx="11" ry="11" style="stroke:#181818;stroke-width:1.0;"/><path d="M1016.7656,673.875 Q1016.9219,673.6563 1017.1094,673.5469 Q1017.2969,673.4375 1017.5156,673.4375 Q1017.8906,673.4375 1018.125,673.7031 Q1018.3594,673.9531 1018.3594,674.5625 L1018.3594,676.0156 Q1018.3594,676.625 1018.125,676.8906 Q1017.8906,677.1563 1017.5156,677.1563 Q1017.1719,677.1563 1016.9688,676.9531 Q1016.7656,676.7656 1016.6563,676.25 Q1016.6094,675.8906 1016.4219,675.7031 Q1016.0938,675.3281 1015.4844,675.1094 Q1014.875,674.8906 1014.25,674.8906 Q1013.4844,674.8906 1012.8438,675.2188 Q1012.2188,675.5469 1011.7188,676.2969 Q1011.2344,677.0469 1011.2344,678.0781 L1011.2344,679.1719 Q1011.2344,680.4063 1012.125,681.2344 Q1013.0156,682.0469 1014.6094,682.0469 Q1015.5469,682.0469 1016.2031,681.7969 Q1016.5938,681.6406 1017.0156,681.2031 Q1017.2813,680.9375 1017.4219,680.8594 Q1017.5781,680.7813 1017.7813,680.7813 Q1018.1094,680.7813 1018.3594,681.0469 Q1018.625,681.2969 1018.625,681.6406 Q1018.625,681.9844 1018.2813,682.3906 Q1017.7813,682.9688 1016.9844,683.2969 Q1015.9063,683.75 1014.6094,683.75 Q1013.0938,683.75 1011.8906,683.125 Q1010.9063,682.625 1010.2188,681.5625 Q1009.5313,680.4844 1009.5313,679.2031 L1009.5313,678.0469 Q1009.5313,676.7188 1010.1406,675.5781 Q1010.7656,674.4219 1011.8594,673.8125 Q1012.9531,673.1875 1014.1875,673.1875 Q1014.9219,673.1875 1015.5625,673.3594 Q1016.2188,673.5156 1016.7656,673.875 Z " fill="#000000"/><text fill="#000000" font-family="sans-serif" font-size="14" lengthAdjust="spacing" textLength="78" x="1028" y="683.7285">Composition</text><line style="stroke:#181818;stroke-width:0.5;" x1="1000" x2="1108" y1="694" y2="694"/><line style="stroke:#181818;stroke-width:0.5;" x1="1000" x2="1108" y1="702" y2="702"/></g><!--MD5=[c5be3d7e9ffcf6502258095b57411394]
class OpenQuestion--><g id="elem_OpenQuestion"><rect codeLine="33" fill="#F1F1F1" height="65.6094" id="OpenQuestion" rx="2.5" ry="2.5" style="stroke:#181818;stroke-width:0.5;" width="164" x="7" y="253.5"/><ellipse cx="40" cy="269.5" fill="#A9DCDF" rx="11" ry="11" style="stroke:#181818;stroke-width:1.0;"/><path d="M42.1875,271.2656 L38.0469,271.2656 L37.625,272.2969 L38.0469,272.2969 Q38.6563,272.2969 38.9219,272.5313 Q39.1875,272.7656 39.1875,273.1563 Q39.1875,273.5313 38.9219,273.7656 Q38.6563,274 38.0469,274 L35.75,274 Q35.1406,274 34.8906,273.7656 Q34.625,273.5313 34.625,273.1406 Q34.625,272.7656 34.9063,272.5313 Q35.1719,272.2813 35.7969,272.2969 L38.4688,265.6406 L37.3594,265.6406 Q36.75,265.6406 36.4844,265.4063 Q36.2188,265.1719 36.2188,264.7813 Q36.2188,264.4063 36.4844,264.1719 Q36.75,263.9375 37.3594,263.9375 L41.0313,263.9375 L44.4219,272.2969 Q45.0156,272.2969 45.2031,272.4375 Q45.5938,272.7031 45.5938,273.1563 Q45.5938,273.5313 45.3281,273.7656 Q45.0781,274 44.4688,274 L42.1719,274 Q41.5625,274 41.2969,273.7656 Q41.0313,273.5313 41.0313,273.1406 Q41.0313,272.7656 41.2969,272.5313 Q41.5625,272.2969 42.1719,272.2969 L42.5938,272.2969 L42.1875,271.2656 Z M41.4688,269.5625 L40.1094,266.1875 L38.7344,269.5625 L41.4688,269.5625 Z " fill="#000000"/><text fill="#000000" font-family="sans-serif" font-size="14" font-style="italic" lengthAdjust="spacing" textLength="92" x="58" y="275.2285">OpenQuestion</text><line style="stroke:#181818;stroke-width:0.5;" x1="8" x2="170" y1="285.5" y2="285.5"/><rect fill="none" height="6" style="stroke:#C82930;stroke-width:1.0;" width="6" x="15" y="296.8047"/><text fill="#000000" font-family="sans-serif" font-size="14" lengthAdjust="spacing" textLength="138" x="27" y="304.0332">answers[openAnswer]</text><line style="stroke:#181818;stroke-width:0.5;" x1="8" x2="170" y1="311.1094" y2="311.1094"/></g><!--MD5=[46bd26b9d192b770379839f45ce3e013]
class MultipleChoiceQuestion--><g id="elem_MultipleChoiceQuestion"><rect codeLine="37" fill="#F1F1F1" height="83.2188" id="MultipleChoiceQuestion" rx="2.5" ry="2.5" style="stroke:#181818;stroke-width:0.5;" width="182" x="206" y="245"/><ellipse cx="221" cy="261" fill="#A9DCDF" rx="11" ry="11" style="stroke:#181818;stroke-width:1.0;"/><path d="M223.1875,262.7656 L219.0469,262.7656 L218.625,263.7969 L219.0469,263.7969 Q219.6563,263.7969 219.9219,264.0313 Q220.1875,264.2656 220.1875,264.6563 Q220.1875,265.0313 219.9219,265.2656 Q219.6563,265.5 219.0469,265.5 L216.75,265.5 Q216.1406,265.5 215.8906,265.2656 Q215.625,265.0313 215.625,264.6406 Q215.625,264.2656 215.9063,264.0313 Q216.1719,263.7813 216.7969,263.7969 L219.4688,257.1406 L218.3594,257.1406 Q217.75,257.1406 217.4844,256.9063 Q217.2188,256.6719 217.2188,256.2813 Q217.2188,255.9063 217.4844,255.6719 Q217.75,255.4375 218.3594,255.4375 L222.0313,255.4375 L225.4219,263.7969 Q226.0156,263.7969 226.2031,263.9375 Q226.5938,264.2031 226.5938,264.6563 Q226.5938,265.0313 226.3281,265.2656 Q226.0781,265.5 225.4688,265.5 L223.1719,265.5 Q222.5625,265.5 222.2969,265.2656 Q222.0313,265.0313 222.0313,264.6406 Q222.0313,264.2656 222.2969,264.0313 Q222.5625,263.7969 223.1719,263.7969 L223.5938,263.7969 L223.1875,262.7656 Z M222.4688,261.0625 L221.1094,257.6875 L219.7344,261.0625 L222.4688,261.0625 Z " fill="#000000"/><text fill="#000000" font-family="sans-serif" font-size="14" font-style="italic" lengthAdjust="spacing" textLength="150" x="235" y="266.7285">MultipleChoiceQuestion</text><line style="stroke:#181818;stroke-width:0.5;" x1="207" x2="387" y1="277" y2="277"/><rect fill="none" height="6" style="stroke:#C82930;stroke-width:1.0;" width="6" x="214" y="288.3047"/><text fill="#000000" font-family="sans-serif" font-size="14" lengthAdjust="spacing" textLength="46" x="226" y="295.5332">options</text><rect fill="none" height="6" style="stroke:#C82930;stroke-width:1.0;" width="6" x="214" y="305.9141"/><text fill="#000000" font-family="sans-serif" font-size="14" lengthAdjust="spacing" textLength="155" x="226" y="313.1426">answers[selectedOption]</text><line style="stroke:#181818;stroke-width:0.5;" x1="207" x2="387" y1="320.2188" y2="320.2188"/></g><!--MD5=[54a8e627be4ee6aab370a2a8960cc8d7]
class OpenAnswer--><g id="elem_OpenAnswer"><rect fill="#F1F1F1" height="48" id="OpenAnswer" rx="2.5" ry="2.5" style="stroke:#181818;stroke-width:0.5;" width="113" x="32.5" y="400"/><ellipse cx="47.5" cy="416" fill="#ADD1B2" rx="11" ry="11" style="stroke:#181818;stroke-width:1.0;"/><path d="M50.2656,411.875 Q50.4219,411.6563 50.6094,411.5469 Q50.7969,411.4375 51.0156,411.4375 Q51.3906,411.4375 51.625,411.7031 Q51.8594,411.9531 51.8594,412.5625 L51.8594,414.0156 Q51.8594,414.625 51.625,414.8906 Q51.3906,415.1563 51.0156,415.1563 Q50.6719,415.1563 50.4688,414.9531 Q50.2656,414.7656 50.1563,414.25 Q50.1094,413.8906 49.9219,413.7031 Q49.5938,413.3281 48.9844,413.1094 Q48.375,412.8906 47.75,412.8906 Q46.9844,412.8906 46.3438,413.2188 Q45.7188,413.5469 45.2188,414.2969 Q44.7344,415.0469 44.7344,416.0781 L44.7344,417.1719 Q44.7344,418.4063 45.625,419.2344 Q46.5156,420.0469 48.1094,420.0469 Q49.0469,420.0469 49.7031,419.7969 Q50.0938,419.6406 50.5156,419.2031 Q50.7813,418.9375 50.9219,418.8594 Q51.0781,418.7813 51.2813,418.7813 Q51.6094,418.7813 51.8594,419.0469 Q52.125,419.2969 52.125,419.6406 Q52.125,419.9844 51.7813,420.3906 Q51.2813,420.9688 50.4844,421.2969 Q49.4063,421.75 48.1094,421.75 Q46.5938,421.75 45.3906,421.125 Q44.4063,420.625 43.7188,419.5625 Q43.0313,418.4844 43.0313,417.2031 L43.0313,416.0469 Q43.0313,414.7188 43.6406,413.5781 Q44.2656,412.4219 45.3594,411.8125 Q46.4531,411.1875 47.6875,411.1875 Q48.4219,411.1875 49.0625,411.3594 Q49.7188,411.5156 50.2656,411.875 Z " fill="#000000"/><text fill="#000000" font-family="sans-serif" font-size="14" lengthAdjust="spacing" textLength="81" x="61.5" y="421.7285">OpenAnswer</text><line style="stroke:#181818;stroke-width:0.5;" x1="33.5" x2="144.5" y1="432" y2="432"/><line style="stroke:#181818;stroke-width:0.5;" x1="33.5" x2="144.5" y1="440" y2="440"/></g><!--MD5=[b07065dfc0d0e09965ec10bfc328bb3e]
class Option--><g id="elem_Option"><rect fill="#F1F1F1" height="48" id="Option" rx="2.5" ry="2.5" style="stroke:#181818;stroke-width:0.5;" width="74" x="290" y="400"/><ellipse cx="305" cy="416" fill="#ADD1B2" rx="11" ry="11" style="stroke:#181818;stroke-width:1.0;"/><path d="M307.7656,411.875 Q307.9219,411.6563 308.1094,411.5469 Q308.2969,411.4375 308.5156,411.4375 Q308.8906,411.4375 309.125,411.7031 Q309.3594,411.9531 309.3594,412.5625 L309.3594,414.0156 Q309.3594,414.625 309.125,414.8906 Q308.8906,415.1563 308.5156,415.1563 Q308.1719,415.1563 307.9688,414.9531 Q307.7656,414.7656 307.6563,414.25 Q307.6094,413.8906 307.4219,413.7031 Q307.0938,413.3281 306.4844,413.1094 Q305.875,412.8906 305.25,412.8906 Q304.4844,412.8906 303.8438,413.2188 Q303.2188,413.5469 302.7188,414.2969 Q302.2344,415.0469 302.2344,416.0781 L302.2344,417.1719 Q302.2344,418.4063 303.125,419.2344 Q304.0156,420.0469 305.6094,420.0469 Q306.5469,420.0469 307.2031,419.7969 Q307.5938,419.6406 308.0156,419.2031 Q308.2813,418.9375 308.4219,418.8594 Q308.5781,418.7813 308.7813,418.7813 Q309.1094,418.7813 309.3594,419.0469 Q309.625,419.2969 309.625,419.6406 Q309.625,419.9844 309.2813,420.3906 Q308.7813,420.9688 307.9844,421.2969 Q306.9063,421.75 305.6094,421.75 Q304.0938,421.75 302.8906,421.125 Q301.9063,420.625 301.2188,419.5625 Q300.5313,418.4844 300.5313,417.2031 L300.5313,416.0469 Q300.5313,414.7188 301.1406,413.5781 Q301.7656,412.4219 302.8594,411.8125 Q303.9531,411.1875 305.1875,411.1875 Q305.9219,411.1875 306.5625,411.3594 Q307.2188,411.5156 307.7656,411.875 Z " fill="#000000"/><text fill="#000000" font-family="sans-serif" font-size="14" lengthAdjust="spacing" textLength="42" x="319" y="421.7285">Option</text><line style="stroke:#181818;stroke-width:0.5;" x1="291" x2="363" y1="432" y2="432"/><line style="stroke:#181818;stroke-width:0.5;" x1="291" x2="363" y1="440" y2="440"/></g><!--MD5=[d7ccd721bdb5e678ce4f72d98fef9178]
link Question to StatementImplementor--><g id="link_Question_StatementImplementor"><path codeLine="58" d="M741.09,101 C741.09,101 748.27,101 751.25,101 " fill="none" id="Question-StatementImplementor" style="stroke:#181818;stroke-width:1.0;"/><polygon fill="#181818" points="764.33,101,755.33,97,759.33,101,755.33,105,764.33,101" style="stroke:#181818;stroke-width:1.0;"/><line style="stroke:#181818;stroke-width:1.0;" x1="759.33" x2="751.33" y1="101" y2="101"/><polygon fill="#181818" points="729.09,101,735.09,105,741.09,101,735.09,97,729.09,101" style="stroke:#181818;stroke-width:1.0;"/></g><!--MD5=[e68d8486b151d64b61c7f5b6e40a3de9]
reverse link Question to OpenQuestion--><g id="link_Question_OpenQuestion"><path codeLine="59" d="M470.63,117.99 C385.8,131.72 277.17,156.63 189,201 C162.81,214.18 137.62,235.53 119.08,253.48 " fill="none" id="Question-backto-OpenQuestion" style="stroke:#181818;stroke-width:1.0;"/><polygon fill="none" points="469.72,111.05,490.56,114.9,471.87,124.88,469.72,111.05" style="stroke:#181818;stroke-width:1.0;"/></g><!--MD5=[5ea4867893d7a476c54f91c2252dd0f8]
reverse link Question to MultipleChoiceQuestion--><g id="link_Question_MultipleChoiceQuestion"><path codeLine="60" d="M472.93,164.16 C450.48,175.66 427.78,188.13 407,201 C386.01,213.99 364.2,230.13 345.58,244.81 " fill="none" id="Question-backto-MultipleChoiceQuestion" style="stroke:#181818;stroke-width:1.0;"/><polygon fill="none" points="469.82,157.88,490.83,155.15,476.11,170.39,469.82,157.88" style="stroke:#181818;stroke-width:1.0;"/></g><!--MD5=[ddd0ba9ff0adad4c5f8027dfa32b4028]
reverse link OpenQuestion to OpenAnswer--><g id="link_OpenQuestion_OpenAnswer"><path codeLine="62" d="M89,332.64 C89,355.06 89,381.21 89,399.6 " fill="none" id="OpenQuestion-backto-OpenAnswer" style="stroke:#181818;stroke-width:1.0;"/><polygon fill="none" points="89,319.61,85,325.61,89,331.61,93,325.61,89,319.61" style="stroke:#181818;stroke-width:1.0;"/><text fill="#000000" font-family="sans-serif" font-size="13" lengthAdjust="spacing" textLength="22" x="64.3188" y="389.2405">0..n</text></g><!--MD5=[185adfbec1fc38ddaede86a7c2f0e161]
reverse link MultipleChoiceQuestion to Option--><g id="link_MultipleChoiceQuestion_Option"><path codeLine="63" d="M308.82,340.89 C313.34,361.3 318.26,383.53 321.84,399.71 " fill="none" id="MultipleChoiceQuestion-backto-Option" style="stroke:#181818;stroke-width:1.0;"/><polygon fill="#181818" points="306,328.15,303.3944,334.8739,308.599,339.8652,311.2045,333.1413,306,328.15" style="stroke:#181818;stroke-width:1.0;"/></g><!--MD5=[e5a63bd9ed272c01ba887d01c6f52680]
link DefinitionStatement to Concept--><g id="link_DefinitionStatement_Concept"><path codeLine="65" d="M980,328.15 C980,346.38 980,367.74 980,385.57 " fill="none" id="DefinitionStatement-to-Concept" style="stroke:#181818;stroke-width:1.0;stroke-dasharray:7.0,7.0;"/><polygon fill="#181818" points="980,390.98,984,381.98,980,385.98,976,381.98,980,390.98" style="stroke:#181818;stroke-width:1.0;"/></g><!--MD5=[35bc999f88bc6720501e9c45f5233a26]
link ClassificationStatement to Concept--><g id="link_ClassificationStatement_Concept"><path codeLine="66" d="M1195.59,328.15 C1140.2,352.52 1072.08,382.49 1027.42,402.14 " fill="none" id="ClassificationStatement-to-Concept" style="stroke:#181818;stroke-width:1.0;stroke-dasharray:7.0,7.0;"/><polygon fill="#181818" points="1022.63,404.24,1032.4788,404.2715,1027.2055,402.2239,1029.2531,396.9506,1022.63,404.24" style="stroke:#181818;stroke-width:1.0;"/></g><!--MD5=[2b18f49196a26fa6cb8de53644dce308]
link CompositionStatement to Concept--><g id="link_CompositionStatement_Concept"><path codeLine="67" d="M729.41,328.15 C797.05,353.76 881.02,385.54 932.54,405.04 " fill="none" id="CompositionStatement-to-Concept" style="stroke:#181818;stroke-width:1.0;stroke-dasharray:7.0,7.0;"/><polygon fill="#181818" points="937.42,406.88,930.423,399.9488,932.7448,405.1072,927.5865,407.429,937.42,406.88" style="stroke:#181818;stroke-width:1.0;"/></g><!--MD5=[18141af66d78099ce63b3b3d94bf7770]
reverse link Concept to Question--><g id="link_Concept_Question"><path codeLine="69" d="M1035.71,423.3 C1148.93,422.59 1399.7,413.9 1453,352 C1496.79,301.14 1499.88,249.02 1453,201 C1425.59,172.93 784.69,194.91 747,184 C728.09,178.53 709.14,169.78 691.61,160 " fill="none" id="Concept-backto-Question" style="stroke:#181818;stroke-width:1.0;"/><polygon fill="none" points="1022.61,423.35,1028.6275,427.3236,1034.6099,423.2973,1028.5924,419.3237,1022.61,423.35" style="stroke:#181818;stroke-width:1.0;"/><text fill="#000000" font-family="sans-serif" font-size="13" lengthAdjust="spacing" textLength="22" x="678.6569" y="182.074">0..n</text></g><!--MD5=[543bb2115b5a10697a67507a00f6a2f4]
reverse link Concept to Definition--><g id="link_Concept_Definition"><path codeLine="70" d="M924.2,437.72 C802.36,465.49 514.55,531.09 402.63,556.6 " fill="none" id="Concept-backto-Definition" style="stroke:#181818;stroke-width:1.0;"/><polygon fill="none" points="937.18,434.76,930.4422,432.1905,925.4789,437.4217,932.2167,439.9912,937.18,434.76" style="stroke:#181818;stroke-width:1.0;"/><text fill="#000000" font-family="sans-serif" font-size="13" lengthAdjust="spacing" textLength="22" x="410.5936" y="551.4192">0..n</text></g><!--MD5=[54f9360500e0fd532969fc16f437bbea]
reverse link Concept to Relation--><g id="link_Concept_Relation"><path codeLine="72" d="M980,470.24 C980,494.7 980,523.88 980,543.75 " fill="none" id="Concept-backto-Relation" style="stroke:#181818;stroke-width:1.0;"/><polygon fill="none" points="980,457.22,976,463.22,980,469.22,984,463.22,980,457.22" style="stroke:#181818;stroke-width:1.0;"/><text fill="#000000" font-family="sans-serif" font-size="13" lengthAdjust="spacing" textLength="22" x="955.1813" y="533.0261">0..n</text></g><!--MD5=[90ea77717cc70d7f588b001bbb985d62]
reverse link Relation to Classification--><g id="link_Relation_Classification"><path codeLine="73" d="M954.28,609.32 C943.07,626.89 930.34,646.84 920.77,661.84 " fill="none" id="Relation-backto-Classification" style="stroke:#181818;stroke-width:1.0;"/><polygon fill="none" points="948.55,605.29,965.2,592.2,960.35,612.82,948.55,605.29" style="stroke:#181818;stroke-width:1.0;"/></g><!--MD5=[aac130c8b5f905729b18e85e231f7b50]
reverse link Relation to Composition--><g id="link_Relation_Composition"><path codeLine="74" d="M1005.72,609.32 C1016.93,626.89 1029.66,646.84 1039.23,661.84 " fill="none" id="Relation-backto-Composition" style="stroke:#181818;stroke-width:1.0;"/><polygon fill="none" points="999.65,612.82,994.8,592.2,1011.45,605.29,999.65,612.82" style="stroke:#181818;stroke-width:1.0;"/></g><!--MD5=[827ca79410d7e61c6b0c4bcab8d72c38]
reverse link StatementImplementor to DefinitionStatement--><g id="link_StatementImplementor_DefinitionStatement"><path codeLine="77" d="M897.66,168.37 C915.62,193.93 935.6,222.34 951.37,244.78 " fill="none" id="StatementImplementor-backto-DefinitionStatement" style="stroke:#181818;stroke-width:1.0;"/><polygon fill="none" points="891.68,172.05,885.91,151.66,903.14,163.99,891.68,172.05" style="stroke:#181818;stroke-width:1.0;"/></g><!--MD5=[188d3a6f0f88872b2d2a1b320ae5c293]
reverse link OpenAnswer to Definition--><g id="link_OpenAnswer_Definition"><path codeLine="78" d="M87.12,453.47 C87.57,470.51 91.15,491.42 104,505 C132.06,534.64 246.32,553.31 311.28,561.74 " fill="none" id="OpenAnswer-backto-Definition" style="stroke:#181818;stroke-width:1.0;stroke-dasharray:7.0,7.0;"/><polygon fill="#181818" points="87.07,448.32,83.1473,457.354,87.1129,453.3198,91.147,457.2854,87.07,448.32" style="stroke:#181818;stroke-width:1.0;"/><text fill="#000000" font-family="sans-serif" font-size="13" lengthAdjust="spacing" textLength="226" x="105" y="501.4951">statementImplementorTarget=Definition</text></g><!--MD5=[0a458040590a793cf8c50dfb08eca74c]
link Option to Definition--><g id="link_Option_Definition"><path codeLine="79" d="M331.89,448.13 C336.56,470.23 343.67,503.92 349.14,529.8 " fill="none" id="Option-to-Definition" style="stroke:#181818;stroke-width:1.0;stroke-dasharray:7.0,7.0;"/><polygon fill="#181818" points="350.21,534.86,352.2758,525.2302,349.1828,529.9666,344.4464,526.8737,350.21,534.86" style="stroke:#181818;stroke-width:1.0;"/><text fill="#000000" font-family="sans-serif" font-size="13" lengthAdjust="spacing" textLength="230" x="344" y="501.4951">statementImplementorTarget= Definition</text></g><!--MD5=[60121d46e5c7959543493292a0e80900]
reverse link StatementImplementor to ClassificationStatement--><g id="link_StatementImplementor_ClassificationStatement"><path codeLine="80" d="M956.96,137.37 C1007.49,155.09 1068.46,177.7 1122,201 C1152.24,214.16 1184.74,230.25 1212.89,244.85 " fill="none" id="StatementImplementor-backto-ClassificationStatement" style="stroke:#181818;stroke-width:1.0;"/><polygon fill="none" points="954.38,143.89,937.79,130.71,958.97,130.66,954.38,143.89" style="stroke:#181818;stroke-width:1.0;"/></g><!--MD5=[1b3943c7506d4479e70c465a6172c629]
reverse link StatementImplementor to CompositionStatement--><g id="link_StatementImplementor_CompositionStatement"><path codeLine="83" d="M773.18,164.36 C740.03,190.92 702.3,221.16 672.82,244.78 " fill="none" id="StatementImplementor-backto-CompositionStatement" style="stroke:#181818;stroke-width:1.0;"/><polygon fill="none" points="769.04,158.7,789.03,151.66,777.8,169.63,769.04,158.7" style="stroke:#181818;stroke-width:1.0;"/></g><!--MD5=[ef586006cef4731368e2523888d098fd]
@startuml ConceptDomainDetailBridge

class Concept {
    - keyword
}

class Definition {
    - isFake
}

class Relation

class Classification

class Composition

package Primary:conceptElementUsed=Keyword {
    class DefinitionStatement {
        - statement ="¿Qué es KEYWORD?"
        - conceptElementTarget = Definition
    }

    class ClassificationStatement {
        - statement = "Qué tipos hay de KEYWORD"
        - conceptElementTarget = Classification
    }

    class CompositionStatement {
        - statement ="¿Qué conceptos destacarias del KEYWORD?"
        - conceptElementTarget = Composition
    }
}

abstract class OpenQuestion {
    -answers[openAnswer]
}

abstract class MultipleChoiceQuestion {
    - options
    - answers[selectedOption]
}

package Bridge {
    abstract class Question {
        - statementImplementor
        - answers[ ]
        # void setStatementImplementor()
        + bool isAnsweredBy(studentName)
    }

    class StatementImplementor {
        - concept
        - conceptElementUsed
        - conceptElementTarget
    }

}

Question *-> StatementImplementor
Question <|- - OpenQuestion
Question <|- - MultipleChoiceQuestion

OpenQuestion o- -"0..n" OpenAnswer
MultipleChoiceQuestion *- - Option

DefinitionStatement ..> Concept
ClassificationStatement ..> Concept
CompositionStatement ..> Concept

Concept o- - "0..n" Question
Concept o- -"0..n" Definition

Concept o- - "0..n" Relation
Relation <|- - Classification
Relation <|- - Composition


StatementImplementor <|- - DefinitionStatement
OpenAnswer <.. Definition:statementImplementorTarget=Definition
Option ..> Definition :statementImplementorTarget= Definition
StatementImplementor <|- - ClassificationStatement
'OpenClassificationQuestion <.. Classification :answers

StatementImplementor <|- - CompositionStatement
'OpenCompositionQuestion <.. Composition :answers


@enduml

@startuml ConceptDomainDetailBridge

class Concept {
    - keyword
}

class Definition {
    - isFake
}

class Relation

class Classification

class Composition

package Primary:conceptElementUsed=Keyword {
    class DefinitionStatement {
        - statement ="¿Qué es KEYWORD?"
        - conceptElementTarget = Definition
    }

    class ClassificationStatement {
        - statement = "Qué tipos hay de KEYWORD"
        - conceptElementTarget = Classification
    }

    class CompositionStatement {
        - statement ="¿Qué conceptos destacarias del KEYWORD?"
        - conceptElementTarget = Composition
    }
}

abstract class OpenQuestion {
    -answers[openAnswer]
}

abstract class MultipleChoiceQuestion {
    - options
    - answers[selectedOption]
}

package Bridge {
    abstract class Question {
        - statementImplementor
        - answers[ ]
        # void setStatementImplementor()
        + bool isAnsweredBy(studentName)
    }

    class StatementImplementor {
        - concept
        - conceptElementUsed
        - conceptElementTarget
    }

}

Question *-> StatementImplementor
Question <|- - OpenQuestion
Question <|- - MultipleChoiceQuestion

OpenQuestion o- -"0..n" OpenAnswer
MultipleChoiceQuestion *- - Option

DefinitionStatement ..> Concept
ClassificationStatement ..> Concept
CompositionStatement ..> Concept

Concept o- - "0..n" Question
Concept o- -"0..n" Definition

Concept o- - "0..n" Relation
Relation <|- - Classification
Relation <|- - Composition


StatementImplementor <|- - DefinitionStatement
OpenAnswer <.. Definition:statementImplementorTarget=Definition
Option ..> Definition :statementImplementorTarget= Definition
StatementImplementor <|- - ClassificationStatement

StatementImplementor <|- - CompositionStatement


@enduml

PlantUML version 1.2022.7(Mon Aug 22 18:01:30 WEST 2022)
(GPL source distribution)
Java Runtime: OpenJDK Runtime Environment
JVM: OpenJDK 64-Bit Server VM
Default Encoding: Cp1252
Language: es
Country: ES
--></g></svg>