<?xml version="1.0" encoding="UTF-8" standalone="no"?><svg xmlns="http://www.w3.org/2000/svg" xmlns:xlink="http://www.w3.org/1999/xlink" contentStyleType="text/css" height="994px" preserveAspectRatio="none" style="width:1182px;height:994px;background:#FFFFFF;" version="1.1" viewBox="0 0 1182 994" width="1182px" zoomAndPan="magnify"><defs/><g><!--MD5=[9d451b2f92d848a8e2d1a4dab2b1c6bf]
class Concept--><g id="elem_Concept"><rect codeLine="2" fill="#F1F1F1" height="48" id="Concept" rx="2.5" ry="2.5" style="stroke:#181818;stroke-width:0.5;" width="85" x="225.5" y="398.5"/><ellipse cx="240.5" cy="414.5" fill="#ADD1B2" rx="11" ry="11" style="stroke:#181818;stroke-width:1.0;"/><path d="M243.2656,410.375 Q243.4219,410.1563 243.6094,410.0469 Q243.7969,409.9375 244.0156,409.9375 Q244.3906,409.9375 244.625,410.2031 Q244.8594,410.4531 244.8594,411.0625 L244.8594,412.5156 Q244.8594,413.125 244.625,413.3906 Q244.3906,413.6563 244.0156,413.6563 Q243.6719,413.6563 243.4688,413.4531 Q243.2656,413.2656 243.1563,412.75 Q243.1094,412.3906 242.9219,412.2031 Q242.5938,411.8281 241.9844,411.6094 Q241.375,411.3906 240.75,411.3906 Q239.9844,411.3906 239.3438,411.7188 Q238.7188,412.0469 238.2188,412.7969 Q237.7344,413.5469 237.7344,414.5781 L237.7344,415.6719 Q237.7344,416.9063 238.625,417.7344 Q239.5156,418.5469 241.1094,418.5469 Q242.0469,418.5469 242.7031,418.2969 Q243.0938,418.1406 243.5156,417.7031 Q243.7813,417.4375 243.9219,417.3594 Q244.0781,417.2813 244.2813,417.2813 Q244.6094,417.2813 244.8594,417.5469 Q245.125,417.7969 245.125,418.1406 Q245.125,418.4844 244.7813,418.8906 Q244.2813,419.4688 243.4844,419.7969 Q242.4063,420.25 241.1094,420.25 Q239.5938,420.25 238.3906,419.625 Q237.4063,419.125 236.7188,418.0625 Q236.0313,416.9844 236.0313,415.7031 L236.0313,414.5469 Q236.0313,413.2188 236.6406,412.0781 Q237.2656,410.9219 238.3594,410.3125 Q239.4531,409.6875 240.6875,409.6875 Q241.4219,409.6875 242.0625,409.8594 Q242.7188,410.0156 243.2656,410.375 Z " fill="#000000"/><text fill="#000000" font-family="sans-serif" font-size="14" lengthAdjust="spacing" textLength="53" x="254.5" y="420.2285">Concept</text><line style="stroke:#181818;stroke-width:0.5;" x1="226.5" x2="309.5" y1="430.5" y2="430.5"/><line style="stroke:#181818;stroke-width:0.5;" x1="226.5" x2="309.5" y1="438.5" y2="438.5"/></g><!--MD5=[1ac27345a8a52a4a812e38456e107300]
class Keyword--><g id="elem_Keyword"><rect codeLine="4" fill="#F1F1F1" height="48" id="Keyword" rx="2.5" ry="2.5" style="stroke:#181818;stroke-width:0.5;" width="86" x="49" y="525"/><ellipse cx="64" cy="541" fill="#ADD1B2" rx="11" ry="11" style="stroke:#181818;stroke-width:1.0;"/><path d="M66.7656,536.875 Q66.9219,536.6563 67.1094,536.5469 Q67.2969,536.4375 67.5156,536.4375 Q67.8906,536.4375 68.125,536.7031 Q68.3594,536.9531 68.3594,537.5625 L68.3594,539.0156 Q68.3594,539.625 68.125,539.8906 Q67.8906,540.1563 67.5156,540.1563 Q67.1719,540.1563 66.9688,539.9531 Q66.7656,539.7656 66.6563,539.25 Q66.6094,538.8906 66.4219,538.7031 Q66.0938,538.3281 65.4844,538.1094 Q64.875,537.8906 64.25,537.8906 Q63.4844,537.8906 62.8438,538.2188 Q62.2188,538.5469 61.7188,539.2969 Q61.2344,540.0469 61.2344,541.0781 L61.2344,542.1719 Q61.2344,543.4063 62.125,544.2344 Q63.0156,545.0469 64.6094,545.0469 Q65.5469,545.0469 66.2031,544.7969 Q66.5938,544.6406 67.0156,544.2031 Q67.2813,543.9375 67.4219,543.8594 Q67.5781,543.7813 67.7813,543.7813 Q68.1094,543.7813 68.3594,544.0469 Q68.625,544.2969 68.625,544.6406 Q68.625,544.9844 68.2813,545.3906 Q67.7813,545.9688 66.9844,546.2969 Q65.9063,546.75 64.6094,546.75 Q63.0938,546.75 61.8906,546.125 Q60.9063,545.625 60.2188,544.5625 Q59.5313,543.4844 59.5313,542.2031 L59.5313,541.0469 Q59.5313,539.7188 60.1406,538.5781 Q60.7656,537.4219 61.8594,536.8125 Q62.9531,536.1875 64.1875,536.1875 Q64.9219,536.1875 65.5625,536.3594 Q66.2188,536.5156 66.7656,536.875 Z " fill="#000000"/><text fill="#000000" font-family="sans-serif" font-size="14" lengthAdjust="spacing" textLength="54" x="78" y="546.7285">Keyword</text><line style="stroke:#181818;stroke-width:0.5;" x1="50" x2="134" y1="557" y2="557"/><line style="stroke:#181818;stroke-width:0.5;" x1="50" x2="134" y1="565" y2="565"/></g><!--MD5=[af22135d5be6ed11ccd2d02fa51653b3]
class Definition--><g id="elem_Definition"><rect codeLine="6" fill="#F1F1F1" height="65.6094" id="Definition" rx="2.5" ry="2.5" style="stroke:#181818;stroke-width:0.5;" width="91" x="302.5" y="651"/><ellipse cx="317.5" cy="667" fill="#ADD1B2" rx="11" ry="11" style="stroke:#181818;stroke-width:1.0;"/><path d="M320.2656,662.875 Q320.4219,662.6563 320.6094,662.5469 Q320.7969,662.4375 321.0156,662.4375 Q321.3906,662.4375 321.625,662.7031 Q321.8594,662.9531 321.8594,663.5625 L321.8594,665.0156 Q321.8594,665.625 321.625,665.8906 Q321.3906,666.1563 321.0156,666.1563 Q320.6719,666.1563 320.4688,665.9531 Q320.2656,665.7656 320.1563,665.25 Q320.1094,664.8906 319.9219,664.7031 Q319.5938,664.3281 318.9844,664.1094 Q318.375,663.8906 317.75,663.8906 Q316.9844,663.8906 316.3438,664.2188 Q315.7188,664.5469 315.2188,665.2969 Q314.7344,666.0469 314.7344,667.0781 L314.7344,668.1719 Q314.7344,669.4063 315.625,670.2344 Q316.5156,671.0469 318.1094,671.0469 Q319.0469,671.0469 319.7031,670.7969 Q320.0938,670.6406 320.5156,670.2031 Q320.7813,669.9375 320.9219,669.8594 Q321.0781,669.7813 321.2813,669.7813 Q321.6094,669.7813 321.8594,670.0469 Q322.125,670.2969 322.125,670.6406 Q322.125,670.9844 321.7813,671.3906 Q321.2813,671.9688 320.4844,672.2969 Q319.4063,672.75 318.1094,672.75 Q316.5938,672.75 315.3906,672.125 Q314.4063,671.625 313.7188,670.5625 Q313.0313,669.4844 313.0313,668.2031 L313.0313,667.0469 Q313.0313,665.7188 313.6406,664.5781 Q314.2656,663.4219 315.3594,662.8125 Q316.4531,662.1875 317.6875,662.1875 Q318.4219,662.1875 319.0625,662.3594 Q319.7188,662.5156 320.2656,662.875 Z " fill="#000000"/><text fill="#000000" font-family="sans-serif" font-size="14" lengthAdjust="spacing" textLength="59" x="331.5" y="672.7285">Definition</text><line style="stroke:#181818;stroke-width:0.5;" x1="303.5" x2="392.5" y1="683" y2="683"/><rect fill="none" height="6" style="stroke:#C82930;stroke-width:1.0;" width="6" x="310.5" y="694.3047"/><text fill="#000000" font-family="sans-serif" font-size="14" lengthAdjust="spacing" textLength="65" x="322.5" y="701.5332">Real/Fake</text><line style="stroke:#181818;stroke-width:0.5;" x1="303.5" x2="392.5" y1="708.6094" y2="708.6094"/></g><!--MD5=[9b4de504215638550a8bb9c080b7ee00]
class Justification--><g id="elem_Justification"><rect codeLine="10" fill="#F1F1F1" height="65.6094" id="Justification" rx="2.5" ry="2.5" style="stroke:#181818;stroke-width:0.5;" width="105" x="295.5" y="795"/><ellipse cx="310.5" cy="811" fill="#ADD1B2" rx="11" ry="11" style="stroke:#181818;stroke-width:1.0;"/><path d="M313.2656,806.875 Q313.4219,806.6563 313.6094,806.5469 Q313.7969,806.4375 314.0156,806.4375 Q314.3906,806.4375 314.625,806.7031 Q314.8594,806.9531 314.8594,807.5625 L314.8594,809.0156 Q314.8594,809.625 314.625,809.8906 Q314.3906,810.1563 314.0156,810.1563 Q313.6719,810.1563 313.4688,809.9531 Q313.2656,809.7656 313.1563,809.25 Q313.1094,808.8906 312.9219,808.7031 Q312.5938,808.3281 311.9844,808.1094 Q311.375,807.8906 310.75,807.8906 Q309.9844,807.8906 309.3438,808.2188 Q308.7188,808.5469 308.2188,809.2969 Q307.7344,810.0469 307.7344,811.0781 L307.7344,812.1719 Q307.7344,813.4063 308.625,814.2344 Q309.5156,815.0469 311.1094,815.0469 Q312.0469,815.0469 312.7031,814.7969 Q313.0938,814.6406 313.5156,814.2031 Q313.7813,813.9375 313.9219,813.8594 Q314.0781,813.7813 314.2813,813.7813 Q314.6094,813.7813 314.8594,814.0469 Q315.125,814.2969 315.125,814.6406 Q315.125,814.9844 314.7813,815.3906 Q314.2813,815.9688 313.4844,816.2969 Q312.4063,816.75 311.1094,816.75 Q309.5938,816.75 308.3906,816.125 Q307.4063,815.625 306.7188,814.5625 Q306.0313,813.4844 306.0313,812.2031 L306.0313,811.0469 Q306.0313,809.7188 306.6406,808.5781 Q307.2656,807.4219 308.3594,806.8125 Q309.4531,806.1875 310.6875,806.1875 Q311.4219,806.1875 312.0625,806.3594 Q312.7188,806.5156 313.2656,806.875 Z " fill="#000000"/><text fill="#000000" font-family="sans-serif" font-size="14" lengthAdjust="spacing" textLength="73" x="324.5" y="816.7285">Justification</text><line style="stroke:#181818;stroke-width:0.5;" x1="296.5" x2="399.5" y1="827" y2="827"/><rect fill="none" height="6" style="stroke:#C82930;stroke-width:1.0;" width="6" x="303.5" y="838.3047"/><text fill="#000000" font-family="sans-serif" font-size="14" lengthAdjust="spacing" textLength="65" x="315.5" y="845.5332">Real/Fake</text><line style="stroke:#181818;stroke-width:0.5;" x1="296.5" x2="399.5" y1="852.6094" y2="852.6094"/></g><!--MD5=[cf96f38277e03bd5d9657368288e1881]
class Explanation--><g id="elem_Explanation"><rect codeLine="14" fill="#F1F1F1" height="48" id="Explanation" rx="2.5" ry="2.5" style="stroke:#181818;stroke-width:0.5;" width="105" x="295.5" y="939"/><ellipse cx="310.5" cy="955" fill="#ADD1B2" rx="11" ry="11" style="stroke:#181818;stroke-width:1.0;"/><path d="M313.2656,950.875 Q313.4219,950.6563 313.6094,950.5469 Q313.7969,950.4375 314.0156,950.4375 Q314.3906,950.4375 314.625,950.7031 Q314.8594,950.9531 314.8594,951.5625 L314.8594,953.0156 Q314.8594,953.625 314.625,953.8906 Q314.3906,954.1563 314.0156,954.1563 Q313.6719,954.1563 313.4688,953.9531 Q313.2656,953.7656 313.1563,953.25 Q313.1094,952.8906 312.9219,952.7031 Q312.5938,952.3281 311.9844,952.1094 Q311.375,951.8906 310.75,951.8906 Q309.9844,951.8906 309.3438,952.2188 Q308.7188,952.5469 308.2188,953.2969 Q307.7344,954.0469 307.7344,955.0781 L307.7344,956.1719 Q307.7344,957.4063 308.625,958.2344 Q309.5156,959.0469 311.1094,959.0469 Q312.0469,959.0469 312.7031,958.7969 Q313.0938,958.6406 313.5156,958.2031 Q313.7813,957.9375 313.9219,957.8594 Q314.0781,957.7813 314.2813,957.7813 Q314.6094,957.7813 314.8594,958.0469 Q315.125,958.2969 315.125,958.6406 Q315.125,958.9844 314.7813,959.3906 Q314.2813,959.9688 313.4844,960.2969 Q312.4063,960.75 311.1094,960.75 Q309.5938,960.75 308.3906,960.125 Q307.4063,959.625 306.7188,958.5625 Q306.0313,957.4844 306.0313,956.2031 L306.0313,955.0469 Q306.0313,953.7188 306.6406,952.5781 Q307.2656,951.4219 308.3594,950.8125 Q309.4531,950.1875 310.6875,950.1875 Q311.4219,950.1875 312.0625,950.3594 Q312.7188,950.5156 313.2656,950.875 Z " fill="#000000"/><text fill="#000000" font-family="sans-serif" font-size="14" lengthAdjust="spacing" textLength="73" x="324.5" y="960.7285">Explanation</text><line style="stroke:#181818;stroke-width:0.5;" x1="296.5" x2="399.5" y1="971" y2="971"/><line style="stroke:#181818;stroke-width:0.5;" x1="296.5" x2="399.5" y1="979" y2="979"/></g><!--MD5=[534474e9f05b14d7c70186ae077f30e0]
class Relation--><g id="elem_Relation"><rect codeLine="16" fill="#F1F1F1" height="48" id="Relation" rx="2.5" ry="2.5" style="stroke:#181818;stroke-width:0.5;" width="84" x="170" y="525"/><ellipse cx="185" cy="541" fill="#ADD1B2" rx="11" ry="11" style="stroke:#181818;stroke-width:1.0;"/><path d="M187.7656,536.875 Q187.9219,536.6563 188.1094,536.5469 Q188.2969,536.4375 188.5156,536.4375 Q188.8906,536.4375 189.125,536.7031 Q189.3594,536.9531 189.3594,537.5625 L189.3594,539.0156 Q189.3594,539.625 189.125,539.8906 Q188.8906,540.1563 188.5156,540.1563 Q188.1719,540.1563 187.9688,539.9531 Q187.7656,539.7656 187.6563,539.25 Q187.6094,538.8906 187.4219,538.7031 Q187.0938,538.3281 186.4844,538.1094 Q185.875,537.8906 185.25,537.8906 Q184.4844,537.8906 183.8438,538.2188 Q183.2188,538.5469 182.7188,539.2969 Q182.2344,540.0469 182.2344,541.0781 L182.2344,542.1719 Q182.2344,543.4063 183.125,544.2344 Q184.0156,545.0469 185.6094,545.0469 Q186.5469,545.0469 187.2031,544.7969 Q187.5938,544.6406 188.0156,544.2031 Q188.2813,543.9375 188.4219,543.8594 Q188.5781,543.7813 188.7813,543.7813 Q189.1094,543.7813 189.3594,544.0469 Q189.625,544.2969 189.625,544.6406 Q189.625,544.9844 189.2813,545.3906 Q188.7813,545.9688 187.9844,546.2969 Q186.9063,546.75 185.6094,546.75 Q184.0938,546.75 182.8906,546.125 Q181.9063,545.625 181.2188,544.5625 Q180.5313,543.4844 180.5313,542.2031 L180.5313,541.0469 Q180.5313,539.7188 181.1406,538.5781 Q181.7656,537.4219 182.8594,536.8125 Q183.9531,536.1875 185.1875,536.1875 Q185.9219,536.1875 186.5625,536.3594 Q187.2188,536.5156 187.7656,536.875 Z " fill="#000000"/><text fill="#000000" font-family="sans-serif" font-size="14" lengthAdjust="spacing" textLength="52" x="199" y="546.7285">Relation</text><line style="stroke:#181818;stroke-width:0.5;" x1="171" x2="253" y1="557" y2="557"/><line style="stroke:#181818;stroke-width:0.5;" x1="171" x2="253" y1="565" y2="565"/></g><!--MD5=[9c239722e256878d27dcbb07783cc14f]
class Classification--><g id="elem_Classification"><rect codeLine="18" fill="#F1F1F1" height="48" id="Classification" rx="2.5" ry="2.5" style="stroke:#181818;stroke-width:0.5;" width="115" x="152.5" y="660"/><ellipse cx="167.5" cy="676" fill="#ADD1B2" rx="11" ry="11" style="stroke:#181818;stroke-width:1.0;"/><path d="M170.2656,671.875 Q170.4219,671.6563 170.6094,671.5469 Q170.7969,671.4375 171.0156,671.4375 Q171.3906,671.4375 171.625,671.7031 Q171.8594,671.9531 171.8594,672.5625 L171.8594,674.0156 Q171.8594,674.625 171.625,674.8906 Q171.3906,675.1563 171.0156,675.1563 Q170.6719,675.1563 170.4688,674.9531 Q170.2656,674.7656 170.1563,674.25 Q170.1094,673.8906 169.9219,673.7031 Q169.5938,673.3281 168.9844,673.1094 Q168.375,672.8906 167.75,672.8906 Q166.9844,672.8906 166.3438,673.2188 Q165.7188,673.5469 165.2188,674.2969 Q164.7344,675.0469 164.7344,676.0781 L164.7344,677.1719 Q164.7344,678.4063 165.625,679.2344 Q166.5156,680.0469 168.1094,680.0469 Q169.0469,680.0469 169.7031,679.7969 Q170.0938,679.6406 170.5156,679.2031 Q170.7813,678.9375 170.9219,678.8594 Q171.0781,678.7813 171.2813,678.7813 Q171.6094,678.7813 171.8594,679.0469 Q172.125,679.2969 172.125,679.6406 Q172.125,679.9844 171.7813,680.3906 Q171.2813,680.9688 170.4844,681.2969 Q169.4063,681.75 168.1094,681.75 Q166.5938,681.75 165.3906,681.125 Q164.4063,680.625 163.7188,679.5625 Q163.0313,678.4844 163.0313,677.2031 L163.0313,676.0469 Q163.0313,674.7188 163.6406,673.5781 Q164.2656,672.4219 165.3594,671.8125 Q166.4531,671.1875 167.6875,671.1875 Q168.4219,671.1875 169.0625,671.3594 Q169.7188,671.5156 170.2656,671.875 Z " fill="#000000"/><text fill="#000000" font-family="sans-serif" font-size="14" lengthAdjust="spacing" textLength="83" x="181.5" y="681.7285">Classification</text><line style="stroke:#181818;stroke-width:0.5;" x1="153.5" x2="266.5" y1="692" y2="692"/><line style="stroke:#181818;stroke-width:0.5;" x1="153.5" x2="266.5" y1="700" y2="700"/></g><!--MD5=[251454e98c15f29849fb35b1904d0020]
class Composition--><g id="elem_Composition"><rect codeLine="20" fill="#F1F1F1" height="48" id="Composition" rx="2.5" ry="2.5" style="stroke:#181818;stroke-width:0.5;" width="110" x="7" y="660"/><ellipse cx="22" cy="676" fill="#ADD1B2" rx="11" ry="11" style="stroke:#181818;stroke-width:1.0;"/><path d="M24.7656,671.875 Q24.9219,671.6563 25.1094,671.5469 Q25.2969,671.4375 25.5156,671.4375 Q25.8906,671.4375 26.125,671.7031 Q26.3594,671.9531 26.3594,672.5625 L26.3594,674.0156 Q26.3594,674.625 26.125,674.8906 Q25.8906,675.1563 25.5156,675.1563 Q25.1719,675.1563 24.9688,674.9531 Q24.7656,674.7656 24.6563,674.25 Q24.6094,673.8906 24.4219,673.7031 Q24.0938,673.3281 23.4844,673.1094 Q22.875,672.8906 22.25,672.8906 Q21.4844,672.8906 20.8438,673.2188 Q20.2188,673.5469 19.7188,674.2969 Q19.2344,675.0469 19.2344,676.0781 L19.2344,677.1719 Q19.2344,678.4063 20.125,679.2344 Q21.0156,680.0469 22.6094,680.0469 Q23.5469,680.0469 24.2031,679.7969 Q24.5938,679.6406 25.0156,679.2031 Q25.2813,678.9375 25.4219,678.8594 Q25.5781,678.7813 25.7813,678.7813 Q26.1094,678.7813 26.3594,679.0469 Q26.625,679.2969 26.625,679.6406 Q26.625,679.9844 26.2813,680.3906 Q25.7813,680.9688 24.9844,681.2969 Q23.9063,681.75 22.6094,681.75 Q21.0938,681.75 19.8906,681.125 Q18.9063,680.625 18.2188,679.5625 Q17.5313,678.4844 17.5313,677.2031 L17.5313,676.0469 Q17.5313,674.7188 18.1406,673.5781 Q18.7656,672.4219 19.8594,671.8125 Q20.9531,671.1875 22.1875,671.1875 Q22.9219,671.1875 23.5625,671.3594 Q24.2188,671.5156 24.7656,671.875 Z " fill="#000000"/><text fill="#000000" font-family="sans-serif" font-size="14" lengthAdjust="spacing" textLength="78" x="36" y="681.7285">Composition</text><line style="stroke:#181818;stroke-width:0.5;" x1="8" x2="116" y1="692" y2="692"/><line style="stroke:#181818;stroke-width:0.5;" x1="8" x2="116" y1="700" y2="700"/></g><!--MD5=[eedde156c9dded963040b22578af45fa]
class Level--><g id="elem_Level"><rect codeLine="22" fill="#F1F1F1" height="48" id="Level" rx="2.5" ry="2.5" style="stroke:#181818;stroke-width:0.5;" width="66" x="628" y="225"/><ellipse cx="643" cy="241" fill="#ADD1B2" rx="11" ry="11" style="stroke:#181818;stroke-width:1.0;"/><path d="M645.7656,236.875 Q645.9219,236.6563 646.1094,236.5469 Q646.2969,236.4375 646.5156,236.4375 Q646.8906,236.4375 647.125,236.7031 Q647.3594,236.9531 647.3594,237.5625 L647.3594,239.0156 Q647.3594,239.625 647.125,239.8906 Q646.8906,240.1563 646.5156,240.1563 Q646.1719,240.1563 645.9688,239.9531 Q645.7656,239.7656 645.6563,239.25 Q645.6094,238.8906 645.4219,238.7031 Q645.0938,238.3281 644.4844,238.1094 Q643.875,237.8906 643.25,237.8906 Q642.4844,237.8906 641.8438,238.2188 Q641.2188,238.5469 640.7188,239.2969 Q640.2344,240.0469 640.2344,241.0781 L640.2344,242.1719 Q640.2344,243.4063 641.125,244.2344 Q642.0156,245.0469 643.6094,245.0469 Q644.5469,245.0469 645.2031,244.7969 Q645.5938,244.6406 646.0156,244.2031 Q646.2813,243.9375 646.4219,243.8594 Q646.5781,243.7813 646.7813,243.7813 Q647.1094,243.7813 647.3594,244.0469 Q647.625,244.2969 647.625,244.6406 Q647.625,244.9844 647.2813,245.3906 Q646.7813,245.9688 645.9844,246.2969 Q644.9063,246.75 643.6094,246.75 Q642.0938,246.75 640.8906,246.125 Q639.9063,245.625 639.2188,244.5625 Q638.5313,243.4844 638.5313,242.2031 L638.5313,241.0469 Q638.5313,239.7188 639.1406,238.5781 Q639.7656,237.4219 640.8594,236.8125 Q641.9531,236.1875 643.1875,236.1875 Q643.9219,236.1875 644.5625,236.3594 Q645.2188,236.5156 645.7656,236.875 Z " fill="#000000"/><text fill="#000000" font-family="sans-serif" font-size="14" lengthAdjust="spacing" textLength="34" x="657" y="246.7285">Level</text><line style="stroke:#181818;stroke-width:0.5;" x1="629" x2="693" y1="257" y2="257"/><line style="stroke:#181818;stroke-width:0.5;" x1="629" x2="693" y1="265" y2="265"/></g><!--MD5=[a273cb2d535cd0db32a65a079a20fa3f]
class Primary--><g id="elem_Primary"><rect codeLine="24" fill="#F1F1F1" height="65.6094" id="Primary" rx="2.5" ry="2.5" style="stroke:#181818;stroke-width:0.5;" width="90" x="792" y="389.5"/><ellipse cx="811.5" cy="405.5" fill="#ADD1B2" rx="11" ry="11" style="stroke:#181818;stroke-width:1.0;"/><path d="M814.2656,401.375 Q814.4219,401.1563 814.6094,401.0469 Q814.7969,400.9375 815.0156,400.9375 Q815.3906,400.9375 815.625,401.2031 Q815.8594,401.4531 815.8594,402.0625 L815.8594,403.5156 Q815.8594,404.125 815.625,404.3906 Q815.3906,404.6563 815.0156,404.6563 Q814.6719,404.6563 814.4688,404.4531 Q814.2656,404.2656 814.1563,403.75 Q814.1094,403.3906 813.9219,403.2031 Q813.5938,402.8281 812.9844,402.6094 Q812.375,402.3906 811.75,402.3906 Q810.9844,402.3906 810.3438,402.7188 Q809.7188,403.0469 809.2188,403.7969 Q808.7344,404.5469 808.7344,405.5781 L808.7344,406.6719 Q808.7344,407.9063 809.625,408.7344 Q810.5156,409.5469 812.1094,409.5469 Q813.0469,409.5469 813.7031,409.2969 Q814.0938,409.1406 814.5156,408.7031 Q814.7813,408.4375 814.9219,408.3594 Q815.0781,408.2813 815.2813,408.2813 Q815.6094,408.2813 815.8594,408.5469 Q816.125,408.7969 816.125,409.1406 Q816.125,409.4844 815.7813,409.8906 Q815.2813,410.4688 814.4844,410.7969 Q813.4063,411.25 812.1094,411.25 Q810.5938,411.25 809.3906,410.625 Q808.4063,410.125 807.7188,409.0625 Q807.0313,407.9844 807.0313,406.7031 L807.0313,405.5469 Q807.0313,404.2188 807.6406,403.0781 Q808.2656,401.9219 809.3594,401.3125 Q810.4531,400.6875 811.6875,400.6875 Q812.4219,400.6875 813.0625,400.8594 Q813.7188,401.0156 814.2656,401.375 Z " fill="#000000"/><text fill="#000000" font-family="sans-serif" font-size="14" lengthAdjust="spacing" textLength="48" x="826.5" y="411.2285">Primary</text><line style="stroke:#181818;stroke-width:0.5;" x1="793" x2="881" y1="421.5" y2="421.5"/><text fill="#000000" font-family="sans-serif" font-size="14" lengthAdjust="spacing" textLength="78" x="798" y="440.0332">withKeyword</text><line style="stroke:#181818;stroke-width:0.5;" x1="793" x2="881" y1="447.1094" y2="447.1094"/></g><!--MD5=[322ff4561961666878e676a719041932]
class Secundary--><g id="elem_Secundary"><rect codeLine="28" fill="#F1F1F1" height="83.2188" id="Secundary" rx="2.5" ry="2.5" style="stroke:#181818;stroke-width:0.5;" width="192" x="565" y="381"/><ellipse cx="622.75" cy="397" fill="#ADD1B2" rx="11" ry="11" style="stroke:#181818;stroke-width:1.0;"/><path d="M625.5156,392.875 Q625.6719,392.6563 625.8594,392.5469 Q626.0469,392.4375 626.2656,392.4375 Q626.6406,392.4375 626.875,392.7031 Q627.1094,392.9531 627.1094,393.5625 L627.1094,395.0156 Q627.1094,395.625 626.875,395.8906 Q626.6406,396.1563 626.2656,396.1563 Q625.9219,396.1563 625.7188,395.9531 Q625.5156,395.7656 625.4063,395.25 Q625.3594,394.8906 625.1719,394.7031 Q624.8438,394.3281 624.2344,394.1094 Q623.625,393.8906 623,393.8906 Q622.2344,393.8906 621.5938,394.2188 Q620.9688,394.5469 620.4688,395.2969 Q619.9844,396.0469 619.9844,397.0781 L619.9844,398.1719 Q619.9844,399.4063 620.875,400.2344 Q621.7656,401.0469 623.3594,401.0469 Q624.2969,401.0469 624.9531,400.7969 Q625.3438,400.6406 625.7656,400.2031 Q626.0313,399.9375 626.1719,399.8594 Q626.3281,399.7813 626.5313,399.7813 Q626.8594,399.7813 627.1094,400.0469 Q627.375,400.2969 627.375,400.6406 Q627.375,400.9844 627.0313,401.3906 Q626.5313,401.9688 625.7344,402.2969 Q624.6563,402.75 623.3594,402.75 Q621.8438,402.75 620.6406,402.125 Q619.6563,401.625 618.9688,400.5625 Q618.2813,399.4844 618.2813,398.2031 L618.2813,397.0469 Q618.2813,395.7188 618.8906,394.5781 Q619.5156,393.4219 620.6094,392.8125 Q621.7031,392.1875 622.9375,392.1875 Q623.6719,392.1875 624.3125,392.3594 Q624.9688,392.5156 625.5156,392.875 Z " fill="#000000"/><text fill="#000000" font-family="sans-serif" font-size="14" lengthAdjust="spacing" textLength="68" x="643.25" y="402.7285">Secundary</text><line style="stroke:#181818;stroke-width:0.5;" x1="566" x2="756" y1="413" y2="413"/><text fill="#000000" font-family="sans-serif" font-size="14" lengthAdjust="spacing" textLength="78" x="571" y="431.5332">withKeyword</text><text fill="#000000" font-family="sans-serif" font-size="14" lengthAdjust="spacing" textLength="180" x="571" y="449.1426">withDefinition or withRelation</text><line style="stroke:#181818;stroke-width:0.5;" x1="566" x2="756" y1="456.2188" y2="456.2188"/></g><!--MD5=[3d8969de01f2361d4f44e57c4405efbc]
class OpenDefinitionQuestion--><g id="elem_OpenDefinitionQuestion"><rect codeLine="33" fill="#F1F1F1" height="48" id="OpenDefinitionQuestion" rx="2.5" ry="2.5" style="stroke:#181818;stroke-width:0.5;" width="183" x="799.5" y="525"/><ellipse cx="814.5" cy="541" fill="#ADD1B2" rx="11" ry="11" style="stroke:#181818;stroke-width:1.0;"/><path d="M817.2656,536.875 Q817.4219,536.6563 817.6094,536.5469 Q817.7969,536.4375 818.0156,536.4375 Q818.3906,536.4375 818.625,536.7031 Q818.8594,536.9531 818.8594,537.5625 L818.8594,539.0156 Q818.8594,539.625 818.625,539.8906 Q818.3906,540.1563 818.0156,540.1563 Q817.6719,540.1563 817.4688,539.9531 Q817.2656,539.7656 817.1563,539.25 Q817.1094,538.8906 816.9219,538.7031 Q816.5938,538.3281 815.9844,538.1094 Q815.375,537.8906 814.75,537.8906 Q813.9844,537.8906 813.3438,538.2188 Q812.7188,538.5469 812.2188,539.2969 Q811.7344,540.0469 811.7344,541.0781 L811.7344,542.1719 Q811.7344,543.4063 812.625,544.2344 Q813.5156,545.0469 815.1094,545.0469 Q816.0469,545.0469 816.7031,544.7969 Q817.0938,544.6406 817.5156,544.2031 Q817.7813,543.9375 817.9219,543.8594 Q818.0781,543.7813 818.2813,543.7813 Q818.6094,543.7813 818.8594,544.0469 Q819.125,544.2969 819.125,544.6406 Q819.125,544.9844 818.7813,545.3906 Q818.2813,545.9688 817.4844,546.2969 Q816.4063,546.75 815.1094,546.75 Q813.5938,546.75 812.3906,546.125 Q811.4063,545.625 810.7188,544.5625 Q810.0313,543.4844 810.0313,542.2031 L810.0313,541.0469 Q810.0313,539.7188 810.6406,538.5781 Q811.2656,537.4219 812.3594,536.8125 Q813.4531,536.1875 814.6875,536.1875 Q815.4219,536.1875 816.0625,536.3594 Q816.7188,536.5156 817.2656,536.875 Z " fill="#000000"/><text fill="#000000" font-family="sans-serif" font-size="14" lengthAdjust="spacing" textLength="151" x="828.5" y="546.7285">OpenDefinitionQuestion</text><line style="stroke:#181818;stroke-width:0.5;" x1="800.5" x2="981.5" y1="557" y2="557"/><line style="stroke:#181818;stroke-width:0.5;" x1="800.5" x2="981.5" y1="565" y2="565"/></g><!--MD5=[9811c07b1247a04619f5505532a86de1]
class OpenClassQuestion--><g id="elem_OpenClassQuestion"><rect codeLine="35" fill="#F1F1F1" height="48" id="OpenClassQuestion" rx="2.5" ry="2.5" style="stroke:#181818;stroke-width:0.5;" width="159" x="605.5" y="525"/><ellipse cx="620.5" cy="541" fill="#ADD1B2" rx="11" ry="11" style="stroke:#181818;stroke-width:1.0;"/><path d="M623.2656,536.875 Q623.4219,536.6563 623.6094,536.5469 Q623.7969,536.4375 624.0156,536.4375 Q624.3906,536.4375 624.625,536.7031 Q624.8594,536.9531 624.8594,537.5625 L624.8594,539.0156 Q624.8594,539.625 624.625,539.8906 Q624.3906,540.1563 624.0156,540.1563 Q623.6719,540.1563 623.4688,539.9531 Q623.2656,539.7656 623.1563,539.25 Q623.1094,538.8906 622.9219,538.7031 Q622.5938,538.3281 621.9844,538.1094 Q621.375,537.8906 620.75,537.8906 Q619.9844,537.8906 619.3438,538.2188 Q618.7188,538.5469 618.2188,539.2969 Q617.7344,540.0469 617.7344,541.0781 L617.7344,542.1719 Q617.7344,543.4063 618.625,544.2344 Q619.5156,545.0469 621.1094,545.0469 Q622.0469,545.0469 622.7031,544.7969 Q623.0938,544.6406 623.5156,544.2031 Q623.7813,543.9375 623.9219,543.8594 Q624.0781,543.7813 624.2813,543.7813 Q624.6094,543.7813 624.8594,544.0469 Q625.125,544.2969 625.125,544.6406 Q625.125,544.9844 624.7813,545.3906 Q624.2813,545.9688 623.4844,546.2969 Q622.4063,546.75 621.1094,546.75 Q619.5938,546.75 618.3906,546.125 Q617.4063,545.625 616.7188,544.5625 Q616.0313,543.4844 616.0313,542.2031 L616.0313,541.0469 Q616.0313,539.7188 616.6406,538.5781 Q617.2656,537.4219 618.3594,536.8125 Q619.4531,536.1875 620.6875,536.1875 Q621.4219,536.1875 622.0625,536.3594 Q622.7188,536.5156 623.2656,536.875 Z " fill="#000000"/><text fill="#000000" font-family="sans-serif" font-size="14" lengthAdjust="spacing" textLength="127" x="634.5" y="546.7285">OpenClassQuestion</text><line style="stroke:#181818;stroke-width:0.5;" x1="606.5" x2="763.5" y1="557" y2="557"/><line style="stroke:#181818;stroke-width:0.5;" x1="606.5" x2="763.5" y1="565" y2="565"/></g><!--MD5=[2e3e70aeace816b0cedea9999a1b71b4]
class OpenCompositionQuestion--><g id="elem_OpenCompositionQuestion"><rect codeLine="37" fill="#F1F1F1" height="48" id="OpenCompositionQuestion" rx="2.5" ry="2.5" style="stroke:#181818;stroke-width:0.5;" width="202" x="368" y="525"/><ellipse cx="383" cy="541" fill="#ADD1B2" rx="11" ry="11" style="stroke:#181818;stroke-width:1.0;"/><path d="M385.7656,536.875 Q385.9219,536.6563 386.1094,536.5469 Q386.2969,536.4375 386.5156,536.4375 Q386.8906,536.4375 387.125,536.7031 Q387.3594,536.9531 387.3594,537.5625 L387.3594,539.0156 Q387.3594,539.625 387.125,539.8906 Q386.8906,540.1563 386.5156,540.1563 Q386.1719,540.1563 385.9688,539.9531 Q385.7656,539.7656 385.6563,539.25 Q385.6094,538.8906 385.4219,538.7031 Q385.0938,538.3281 384.4844,538.1094 Q383.875,537.8906 383.25,537.8906 Q382.4844,537.8906 381.8438,538.2188 Q381.2188,538.5469 380.7188,539.2969 Q380.2344,540.0469 380.2344,541.0781 L380.2344,542.1719 Q380.2344,543.4063 381.125,544.2344 Q382.0156,545.0469 383.6094,545.0469 Q384.5469,545.0469 385.2031,544.7969 Q385.5938,544.6406 386.0156,544.2031 Q386.2813,543.9375 386.4219,543.8594 Q386.5781,543.7813 386.7813,543.7813 Q387.1094,543.7813 387.3594,544.0469 Q387.625,544.2969 387.625,544.6406 Q387.625,544.9844 387.2813,545.3906 Q386.7813,545.9688 385.9844,546.2969 Q384.9063,546.75 383.6094,546.75 Q382.0938,546.75 380.8906,546.125 Q379.9063,545.625 379.2188,544.5625 Q378.5313,543.4844 378.5313,542.2031 L378.5313,541.0469 Q378.5313,539.7188 379.1406,538.5781 Q379.7656,537.4219 380.8594,536.8125 Q381.9531,536.1875 383.1875,536.1875 Q383.9219,536.1875 384.5625,536.3594 Q385.2188,536.5156 385.7656,536.875 Z " fill="#000000"/><text fill="#000000" font-family="sans-serif" font-size="14" lengthAdjust="spacing" textLength="170" x="397" y="546.7285">OpenCompositionQuestion</text><line style="stroke:#181818;stroke-width:0.5;" x1="369" x2="569" y1="557" y2="557"/><line style="stroke:#181818;stroke-width:0.5;" x1="369" x2="569" y1="565" y2="565"/></g><!--MD5=[fc7123defb831ecdd44b2d9bcef6cceb]
class Question--><g id="elem_Question"><rect codeLine="43" fill="#F1F1F1" height="48" id="Question" rx="2.5" ry="2.5" style="stroke:#181818;stroke-width:0.5;" width="89" x="561.5" y="7"/><ellipse cx="576.5" cy="23" fill="#ADD1B2" rx="11" ry="11" style="stroke:#181818;stroke-width:1.0;"/><path d="M579.2656,18.875 Q579.4219,18.6563 579.6094,18.5469 Q579.7969,18.4375 580.0156,18.4375 Q580.3906,18.4375 580.625,18.7031 Q580.8594,18.9531 580.8594,19.5625 L580.8594,21.0156 Q580.8594,21.625 580.625,21.8906 Q580.3906,22.1563 580.0156,22.1563 Q579.6719,22.1563 579.4688,21.9531 Q579.2656,21.7656 579.1563,21.25 Q579.1094,20.8906 578.9219,20.7031 Q578.5938,20.3281 577.9844,20.1094 Q577.375,19.8906 576.75,19.8906 Q575.9844,19.8906 575.3438,20.2188 Q574.7188,20.5469 574.2188,21.2969 Q573.7344,22.0469 573.7344,23.0781 L573.7344,24.1719 Q573.7344,25.4063 574.625,26.2344 Q575.5156,27.0469 577.1094,27.0469 Q578.0469,27.0469 578.7031,26.7969 Q579.0938,26.6406 579.5156,26.2031 Q579.7813,25.9375 579.9219,25.8594 Q580.0781,25.7813 580.2813,25.7813 Q580.6094,25.7813 580.8594,26.0469 Q581.125,26.2969 581.125,26.6406 Q581.125,26.9844 580.7813,27.3906 Q580.2813,27.9688 579.4844,28.2969 Q578.4063,28.75 577.1094,28.75 Q575.5938,28.75 574.3906,28.125 Q573.4063,27.625 572.7188,26.5625 Q572.0313,25.4844 572.0313,24.2031 L572.0313,23.0469 Q572.0313,21.7188 572.6406,20.5781 Q573.2656,19.4219 574.3594,18.8125 Q575.4531,18.1875 576.6875,18.1875 Q577.4219,18.1875 578.0625,18.3594 Q578.7188,18.5156 579.2656,18.875 Z " fill="#000000"/><text fill="#000000" font-family="sans-serif" font-size="14" lengthAdjust="spacing" textLength="57" x="590.5" y="28.7285">Question</text><line style="stroke:#181818;stroke-width:0.5;" x1="562.5" x2="649.5" y1="39" y2="39"/><line style="stroke:#181818;stroke-width:0.5;" x1="562.5" x2="649.5" y1="47" y2="47"/></g><!--MD5=[f7b1256a464262a81d5827fb39e684fb]
class Open--><g id="elem_Open"><rect codeLine="45" fill="#F1F1F1" height="48" id="Open" rx="2.5" ry="2.5" style="stroke:#181818;stroke-width:0.5;" width="67" x="572.5" y="116"/><ellipse cx="587.5" cy="132" fill="#ADD1B2" rx="11" ry="11" style="stroke:#181818;stroke-width:1.0;"/><path d="M590.2656,127.875 Q590.4219,127.6563 590.6094,127.5469 Q590.7969,127.4375 591.0156,127.4375 Q591.3906,127.4375 591.625,127.7031 Q591.8594,127.9531 591.8594,128.5625 L591.8594,130.0156 Q591.8594,130.625 591.625,130.8906 Q591.3906,131.1563 591.0156,131.1563 Q590.6719,131.1563 590.4688,130.9531 Q590.2656,130.7656 590.1563,130.25 Q590.1094,129.8906 589.9219,129.7031 Q589.5938,129.3281 588.9844,129.1094 Q588.375,128.8906 587.75,128.8906 Q586.9844,128.8906 586.3438,129.2188 Q585.7188,129.5469 585.2188,130.2969 Q584.7344,131.0469 584.7344,132.0781 L584.7344,133.1719 Q584.7344,134.4063 585.625,135.2344 Q586.5156,136.0469 588.1094,136.0469 Q589.0469,136.0469 589.7031,135.7969 Q590.0938,135.6406 590.5156,135.2031 Q590.7813,134.9375 590.9219,134.8594 Q591.0781,134.7813 591.2813,134.7813 Q591.6094,134.7813 591.8594,135.0469 Q592.125,135.2969 592.125,135.6406 Q592.125,135.9844 591.7813,136.3906 Q591.2813,136.9688 590.4844,137.2969 Q589.4063,137.75 588.1094,137.75 Q586.5938,137.75 585.3906,137.125 Q584.4063,136.625 583.7188,135.5625 Q583.0313,134.4844 583.0313,133.2031 L583.0313,132.0469 Q583.0313,130.7188 583.6406,129.5781 Q584.2656,128.4219 585.3594,127.8125 Q586.4531,127.1875 587.6875,127.1875 Q588.4219,127.1875 589.0625,127.3594 Q589.7188,127.5156 590.2656,127.875 Z " fill="#000000"/><text fill="#000000" font-family="sans-serif" font-size="14" lengthAdjust="spacing" textLength="35" x="601.5" y="137.7285">Open</text><line style="stroke:#181818;stroke-width:0.5;" x1="573.5" x2="638.5" y1="148" y2="148"/><line style="stroke:#181818;stroke-width:0.5;" x1="573.5" x2="638.5" y1="156" y2="156"/></g><!--MD5=[a61a298976b7d1d94498f45c2ebfa10b]
class Statement--><g id="elem_Statement"><rect codeLine="47" fill="#F1F1F1" height="48" id="Statement" rx="2.5" ry="2.5" style="stroke:#181818;stroke-width:0.5;" width="96" x="847" y="303"/><ellipse cx="862" cy="319" fill="#ADD1B2" rx="11" ry="11" style="stroke:#181818;stroke-width:1.0;"/><path d="M864.7656,314.875 Q864.9219,314.6563 865.1094,314.5469 Q865.2969,314.4375 865.5156,314.4375 Q865.8906,314.4375 866.125,314.7031 Q866.3594,314.9531 866.3594,315.5625 L866.3594,317.0156 Q866.3594,317.625 866.125,317.8906 Q865.8906,318.1563 865.5156,318.1563 Q865.1719,318.1563 864.9688,317.9531 Q864.7656,317.7656 864.6563,317.25 Q864.6094,316.8906 864.4219,316.7031 Q864.0938,316.3281 863.4844,316.1094 Q862.875,315.8906 862.25,315.8906 Q861.4844,315.8906 860.8438,316.2188 Q860.2188,316.5469 859.7188,317.2969 Q859.2344,318.0469 859.2344,319.0781 L859.2344,320.1719 Q859.2344,321.4063 860.125,322.2344 Q861.0156,323.0469 862.6094,323.0469 Q863.5469,323.0469 864.2031,322.7969 Q864.5938,322.6406 865.0156,322.2031 Q865.2813,321.9375 865.4219,321.8594 Q865.5781,321.7813 865.7813,321.7813 Q866.1094,321.7813 866.3594,322.0469 Q866.625,322.2969 866.625,322.6406 Q866.625,322.9844 866.2813,323.3906 Q865.7813,323.9688 864.9844,324.2969 Q863.9063,324.75 862.6094,324.75 Q861.0938,324.75 859.8906,324.125 Q858.9063,323.625 858.2188,322.5625 Q857.5313,321.4844 857.5313,320.2031 L857.5313,319.0469 Q857.5313,317.7188 858.1406,316.5781 Q858.7656,315.4219 859.8594,314.8125 Q860.9531,314.1875 862.1875,314.1875 Q862.9219,314.1875 863.5625,314.3594 Q864.2188,314.5156 864.7656,314.875 Z " fill="#000000"/><text fill="#000000" font-family="sans-serif" font-size="14" lengthAdjust="spacing" textLength="64" x="876" y="324.7285">Statement</text><line style="stroke:#181818;stroke-width:0.5;" x1="848" x2="942" y1="335" y2="335"/><line style="stroke:#181818;stroke-width:0.5;" x1="848" x2="942" y1="343" y2="343"/></g><!--MD5=[b4e2c91c8ef5e2e71a24725d4a99b9c0]
class StatementTemplate--><g id="elem_StatementTemplate"><rect codeLine="49" fill="#F1F1F1" height="48" id="StatementTemplate" rx="2.5" ry="2.5" style="stroke:#181818;stroke-width:0.5;" width="155" x="1017.5" y="525"/><ellipse cx="1032.5" cy="541" fill="#ADD1B2" rx="11" ry="11" style="stroke:#181818;stroke-width:1.0;"/><path d="M1035.2656,536.875 Q1035.4219,536.6563 1035.6094,536.5469 Q1035.7969,536.4375 1036.0156,536.4375 Q1036.3906,536.4375 1036.625,536.7031 Q1036.8594,536.9531 1036.8594,537.5625 L1036.8594,539.0156 Q1036.8594,539.625 1036.625,539.8906 Q1036.3906,540.1563 1036.0156,540.1563 Q1035.6719,540.1563 1035.4688,539.9531 Q1035.2656,539.7656 1035.1563,539.25 Q1035.1094,538.8906 1034.9219,538.7031 Q1034.5938,538.3281 1033.9844,538.1094 Q1033.375,537.8906 1032.75,537.8906 Q1031.9844,537.8906 1031.3438,538.2188 Q1030.7188,538.5469 1030.2188,539.2969 Q1029.7344,540.0469 1029.7344,541.0781 L1029.7344,542.1719 Q1029.7344,543.4063 1030.625,544.2344 Q1031.5156,545.0469 1033.1094,545.0469 Q1034.0469,545.0469 1034.7031,544.7969 Q1035.0938,544.6406 1035.5156,544.2031 Q1035.7813,543.9375 1035.9219,543.8594 Q1036.0781,543.7813 1036.2813,543.7813 Q1036.6094,543.7813 1036.8594,544.0469 Q1037.125,544.2969 1037.125,544.6406 Q1037.125,544.9844 1036.7813,545.3906 Q1036.2813,545.9688 1035.4844,546.2969 Q1034.4063,546.75 1033.1094,546.75 Q1031.5938,546.75 1030.3906,546.125 Q1029.4063,545.625 1028.7188,544.5625 Q1028.0313,543.4844 1028.0313,542.2031 L1028.0313,541.0469 Q1028.0313,539.7188 1028.6406,538.5781 Q1029.2656,537.4219 1030.3594,536.8125 Q1031.4531,536.1875 1032.6875,536.1875 Q1033.4219,536.1875 1034.0625,536.3594 Q1034.7188,536.5156 1035.2656,536.875 Z " fill="#000000"/><text fill="#000000" font-family="sans-serif" font-size="14" lengthAdjust="spacing" textLength="123" x="1046.5" y="546.7285">StatementTemplate</text><line style="stroke:#181818;stroke-width:0.5;" x1="1018.5" x2="1171.5" y1="557" y2="557"/><line style="stroke:#181818;stroke-width:0.5;" x1="1018.5" x2="1171.5" y1="565" y2="565"/></g><!--MD5=[7c04efaf76fcba660f3d40a815d64527]
class DefinitionTemplate--><g id="elem_DefinitionTemplate"><rect codeLine="52" fill="#F1F1F1" height="65.6094" id="DefinitionTemplate" rx="2.5" ry="2.5" style="stroke:#181818;stroke-width:0.5;" width="160" x="1015" y="651"/><ellipse cx="1034.5" cy="667" fill="#ADD1B2" rx="11" ry="11" style="stroke:#181818;stroke-width:1.0;"/><path d="M1037.2656,662.875 Q1037.4219,662.6563 1037.6094,662.5469 Q1037.7969,662.4375 1038.0156,662.4375 Q1038.3906,662.4375 1038.625,662.7031 Q1038.8594,662.9531 1038.8594,663.5625 L1038.8594,665.0156 Q1038.8594,665.625 1038.625,665.8906 Q1038.3906,666.1563 1038.0156,666.1563 Q1037.6719,666.1563 1037.4688,665.9531 Q1037.2656,665.7656 1037.1563,665.25 Q1037.1094,664.8906 1036.9219,664.7031 Q1036.5938,664.3281 1035.9844,664.1094 Q1035.375,663.8906 1034.75,663.8906 Q1033.9844,663.8906 1033.3438,664.2188 Q1032.7188,664.5469 1032.2188,665.2969 Q1031.7344,666.0469 1031.7344,667.0781 L1031.7344,668.1719 Q1031.7344,669.4063 1032.625,670.2344 Q1033.5156,671.0469 1035.1094,671.0469 Q1036.0469,671.0469 1036.7031,670.7969 Q1037.0938,670.6406 1037.5156,670.2031 Q1037.7813,669.9375 1037.9219,669.8594 Q1038.0781,669.7813 1038.2813,669.7813 Q1038.6094,669.7813 1038.8594,670.0469 Q1039.125,670.2969 1039.125,670.6406 Q1039.125,670.9844 1038.7813,671.3906 Q1038.2813,671.9688 1037.4844,672.2969 Q1036.4063,672.75 1035.1094,672.75 Q1033.5938,672.75 1032.3906,672.125 Q1031.4063,671.625 1030.7188,670.5625 Q1030.0313,669.4844 1030.0313,668.2031 L1030.0313,667.0469 Q1030.0313,665.7188 1030.6406,664.5781 Q1031.2656,663.4219 1032.3594,662.8125 Q1033.4531,662.1875 1034.6875,662.1875 Q1035.4219,662.1875 1036.0625,662.3594 Q1036.7188,662.5156 1037.2656,662.875 Z " fill="#000000"/><text fill="#000000" font-family="sans-serif" font-size="14" lengthAdjust="spacing" textLength="118" x="1049.5" y="672.7285">DefinitionTemplate</text><line style="stroke:#181818;stroke-width:0.5;" x1="1016" x2="1174" y1="683" y2="683"/><text fill="#000000" font-family="sans-serif" font-size="14" lengthAdjust="spacing" textLength="148" x="1021" y="701.5332">"¿Qué es KEYWORD?"</text><line style="stroke:#181818;stroke-width:0.5;" x1="1016" x2="1174" y1="708.6094" y2="708.6094"/></g><!--MD5=[df233d8a9a87a1921e502e3e671e3ffc]
class ClassTemplate--><g id="elem_ClassTemplate"><rect codeLine="56" fill="#F1F1F1" height="65.6094" id="ClassTemplate" rx="2.5" ry="2.5" style="stroke:#181818;stroke-width:0.5;" width="205" x="774.5" y="651"/><ellipse cx="825.75" cy="667" fill="#ADD1B2" rx="11" ry="11" style="stroke:#181818;stroke-width:1.0;"/><path d="M828.5156,662.875 Q828.6719,662.6563 828.8594,662.5469 Q829.0469,662.4375 829.2656,662.4375 Q829.6406,662.4375 829.875,662.7031 Q830.1094,662.9531 830.1094,663.5625 L830.1094,665.0156 Q830.1094,665.625 829.875,665.8906 Q829.6406,666.1563 829.2656,666.1563 Q828.9219,666.1563 828.7188,665.9531 Q828.5156,665.7656 828.4063,665.25 Q828.3594,664.8906 828.1719,664.7031 Q827.8438,664.3281 827.2344,664.1094 Q826.625,663.8906 826,663.8906 Q825.2344,663.8906 824.5938,664.2188 Q823.9688,664.5469 823.4688,665.2969 Q822.9844,666.0469 822.9844,667.0781 L822.9844,668.1719 Q822.9844,669.4063 823.875,670.2344 Q824.7656,671.0469 826.3594,671.0469 Q827.2969,671.0469 827.9531,670.7969 Q828.3438,670.6406 828.7656,670.2031 Q829.0313,669.9375 829.1719,669.8594 Q829.3281,669.7813 829.5313,669.7813 Q829.8594,669.7813 830.1094,670.0469 Q830.375,670.2969 830.375,670.6406 Q830.375,670.9844 830.0313,671.3906 Q829.5313,671.9688 828.7344,672.2969 Q827.6563,672.75 826.3594,672.75 Q824.8438,672.75 823.6406,672.125 Q822.6563,671.625 821.9688,670.5625 Q821.2813,669.4844 821.2813,668.2031 L821.2813,667.0469 Q821.2813,665.7188 821.8906,664.5781 Q822.5156,663.4219 823.6094,662.8125 Q824.7031,662.1875 825.9375,662.1875 Q826.6719,662.1875 827.3125,662.3594 Q827.9688,662.5156 828.5156,662.875 Z " fill="#000000"/><text fill="#000000" font-family="sans-serif" font-size="14" lengthAdjust="spacing" textLength="94" x="846.25" y="672.7285">ClassTemplate</text><line style="stroke:#181818;stroke-width:0.5;" x1="775.5" x2="978.5" y1="683" y2="683"/><text fill="#000000" font-family="sans-serif" font-size="14" lengthAdjust="spacing" textLength="193" x="780.5" y="701.5332">"Qué tipos hay de KEYWORD"</text><line style="stroke:#181818;stroke-width:0.5;" x1="775.5" x2="978.5" y1="708.6094" y2="708.6094"/></g><!--MD5=[88a13f3203b2a2009b2633b737321983]
class CompositionTemplate--><g id="elem_CompositionTemplate"><rect codeLine="60" fill="#F1F1F1" height="65.6094" id="CompositionTemplate" rx="2.5" ry="2.5" style="stroke:#181818;stroke-width:0.5;" width="310" x="429" y="651"/><ellipse cx="511.25" cy="667" fill="#ADD1B2" rx="11" ry="11" style="stroke:#181818;stroke-width:1.0;"/><path d="M514.0156,662.875 Q514.1719,662.6563 514.3594,662.5469 Q514.5469,662.4375 514.7656,662.4375 Q515.1406,662.4375 515.375,662.7031 Q515.6094,662.9531 515.6094,663.5625 L515.6094,665.0156 Q515.6094,665.625 515.375,665.8906 Q515.1406,666.1563 514.7656,666.1563 Q514.4219,666.1563 514.2188,665.9531 Q514.0156,665.7656 513.9063,665.25 Q513.8594,664.8906 513.6719,664.7031 Q513.3438,664.3281 512.7344,664.1094 Q512.125,663.8906 511.5,663.8906 Q510.7344,663.8906 510.0938,664.2188 Q509.4688,664.5469 508.9688,665.2969 Q508.4844,666.0469 508.4844,667.0781 L508.4844,668.1719 Q508.4844,669.4063 509.375,670.2344 Q510.2656,671.0469 511.8594,671.0469 Q512.7969,671.0469 513.4531,670.7969 Q513.8438,670.6406 514.2656,670.2031 Q514.5313,669.9375 514.6719,669.8594 Q514.8281,669.7813 515.0313,669.7813 Q515.3594,669.7813 515.6094,670.0469 Q515.875,670.2969 515.875,670.6406 Q515.875,670.9844 515.5313,671.3906 Q515.0313,671.9688 514.2344,672.2969 Q513.1563,672.75 511.8594,672.75 Q510.3438,672.75 509.1406,672.125 Q508.1563,671.625 507.4688,670.5625 Q506.7813,669.4844 506.7813,668.2031 L506.7813,667.0469 Q506.7813,665.7188 507.3906,664.5781 Q508.0156,663.4219 509.1094,662.8125 Q510.2031,662.1875 511.4375,662.1875 Q512.1719,662.1875 512.8125,662.3594 Q513.4688,662.5156 514.0156,662.875 Z " fill="#000000"/><text fill="#000000" font-family="sans-serif" font-size="14" lengthAdjust="spacing" textLength="137" x="531.75" y="672.7285">CompositionTemplate</text><line style="stroke:#181818;stroke-width:0.5;" x1="430" x2="738" y1="683" y2="683"/><text fill="#000000" font-family="sans-serif" font-size="14" lengthAdjust="spacing" textLength="298" x="435" y="701.5332">"¿Qué conceptos destacarias del KEYWORD?"</text><line style="stroke:#181818;stroke-width:0.5;" x1="430" x2="738" y1="708.6094" y2="708.6094"/></g><!--MD5=[f9fadfa5a66b7e5a67b370cd443ffe52]
class Answer--><g id="elem_Answer"><rect codeLine="72" fill="#F1F1F1" height="48" id="Answer" rx="2.5" ry="2.5" style="stroke:#181818;stroke-width:0.5;" width="78" x="442" y="225"/><ellipse cx="457" cy="241" fill="#ADD1B2" rx="11" ry="11" style="stroke:#181818;stroke-width:1.0;"/><path d="M459.7656,236.875 Q459.9219,236.6563 460.1094,236.5469 Q460.2969,236.4375 460.5156,236.4375 Q460.8906,236.4375 461.125,236.7031 Q461.3594,236.9531 461.3594,237.5625 L461.3594,239.0156 Q461.3594,239.625 461.125,239.8906 Q460.8906,240.1563 460.5156,240.1563 Q460.1719,240.1563 459.9688,239.9531 Q459.7656,239.7656 459.6563,239.25 Q459.6094,238.8906 459.4219,238.7031 Q459.0938,238.3281 458.4844,238.1094 Q457.875,237.8906 457.25,237.8906 Q456.4844,237.8906 455.8438,238.2188 Q455.2188,238.5469 454.7188,239.2969 Q454.2344,240.0469 454.2344,241.0781 L454.2344,242.1719 Q454.2344,243.4063 455.125,244.2344 Q456.0156,245.0469 457.6094,245.0469 Q458.5469,245.0469 459.2031,244.7969 Q459.5938,244.6406 460.0156,244.2031 Q460.2813,243.9375 460.4219,243.8594 Q460.5781,243.7813 460.7813,243.7813 Q461.1094,243.7813 461.3594,244.0469 Q461.625,244.2969 461.625,244.6406 Q461.625,244.9844 461.2813,245.3906 Q460.7813,245.9688 459.9844,246.2969 Q458.9063,246.75 457.6094,246.75 Q456.0938,246.75 454.8906,246.125 Q453.9063,245.625 453.2188,244.5625 Q452.5313,243.4844 452.5313,242.2031 L452.5313,241.0469 Q452.5313,239.7188 453.1406,238.5781 Q453.7656,237.4219 454.8594,236.8125 Q455.9531,236.1875 457.1875,236.1875 Q457.9219,236.1875 458.5625,236.3594 Q459.2188,236.5156 459.7656,236.875 Z " fill="#000000"/><text fill="#000000" font-family="sans-serif" font-size="14" lengthAdjust="spacing" textLength="46" x="471" y="246.7285">Answer</text><line style="stroke:#181818;stroke-width:0.5;" x1="443" x2="519" y1="257" y2="257"/><line style="stroke:#181818;stroke-width:0.5;" x1="443" x2="519" y1="265" y2="265"/></g><!--MD5=[7a7df4cc8beee4d5ec4845ad980cbb28]
class OpenField--><g id="elem_OpenField"><rect codeLine="74" fill="#F1F1F1" height="48" id="OpenField" rx="2.5" ry="2.5" style="stroke:#181818;stroke-width:0.5;" width="98" x="432" y="398.5"/><ellipse cx="447" cy="414.5" fill="#ADD1B2" rx="11" ry="11" style="stroke:#181818;stroke-width:1.0;"/><path d="M449.7656,410.375 Q449.9219,410.1563 450.1094,410.0469 Q450.2969,409.9375 450.5156,409.9375 Q450.8906,409.9375 451.125,410.2031 Q451.3594,410.4531 451.3594,411.0625 L451.3594,412.5156 Q451.3594,413.125 451.125,413.3906 Q450.8906,413.6563 450.5156,413.6563 Q450.1719,413.6563 449.9688,413.4531 Q449.7656,413.2656 449.6563,412.75 Q449.6094,412.3906 449.4219,412.2031 Q449.0938,411.8281 448.4844,411.6094 Q447.875,411.3906 447.25,411.3906 Q446.4844,411.3906 445.8438,411.7188 Q445.2188,412.0469 444.7188,412.7969 Q444.2344,413.5469 444.2344,414.5781 L444.2344,415.6719 Q444.2344,416.9063 445.125,417.7344 Q446.0156,418.5469 447.6094,418.5469 Q448.5469,418.5469 449.2031,418.2969 Q449.5938,418.1406 450.0156,417.7031 Q450.2813,417.4375 450.4219,417.3594 Q450.5781,417.2813 450.7813,417.2813 Q451.1094,417.2813 451.3594,417.5469 Q451.625,417.7969 451.625,418.1406 Q451.625,418.4844 451.2813,418.8906 Q450.7813,419.4688 449.9844,419.7969 Q448.9063,420.25 447.6094,420.25 Q446.0938,420.25 444.8906,419.625 Q443.9063,419.125 443.2188,418.0625 Q442.5313,416.9844 442.5313,415.7031 L442.5313,414.5469 Q442.5313,413.2188 443.1406,412.0781 Q443.7656,410.9219 444.8594,410.3125 Q445.9531,409.6875 447.1875,409.6875 Q447.9219,409.6875 448.5625,409.8594 Q449.2188,410.0156 449.7656,410.375 Z " fill="#000000"/><text fill="#000000" font-family="sans-serif" font-size="14" lengthAdjust="spacing" textLength="66" x="461" y="420.2285">OpenField</text><line style="stroke:#181818;stroke-width:0.5;" x1="433" x2="529" y1="430.5" y2="430.5"/><line style="stroke:#181818;stroke-width:0.5;" x1="433" x2="529" y1="438.5" y2="438.5"/></g><!--MD5=[4cad30c456caf6c2d8ef64c6efcf5ce1]
reverse link Question to Open--><g id="link_Question_Open"><path codeLine="76" d="M606,75.58 C606,89.36 606,104.06 606,115.83 " fill="none" id="Question-backto-Open" style="stroke:#181818;stroke-width:1.0;"/><polygon fill="none" points="599,75.22,606,55.22,613,75.22,599,75.22" style="stroke:#181818;stroke-width:1.0;"/></g><!--MD5=[4530e78fb220fd09ea7e114ca9176db9]
link Open to Concept--><g id="link_Open_Concept"><path codeLine="77" d="M572.22,151.26 C533.6,164.14 469.83,188.98 424,225 C364.99,271.38 314.75,344.34 288.2,387.09 " fill="none" id="Open-to-Concept" style="stroke:#181818;stroke-width:1.0;"/><polygon fill="none" points="281.35,398.3,287.8912,395.2647,287.6053,388.0593,281.0641,391.0946,281.35,398.3" style="stroke:#181818;stroke-width:1.0;"/><text fill="#000000" font-family="sans-serif" font-size="13" lengthAdjust="spacing" textLength="22" x="542.5234" y="149.3456">0..n</text></g><!--MD5=[f8d4517273a291fe1b4647de6925b9ab]
reverse link Answer to OpenField--><g id="link_Answer_OpenField"><path codeLine="78" d="M481,293.6 C481,326.98 481,371.71 481,398.46 " fill="none" id="Answer-backto-OpenField" style="stroke:#181818;stroke-width:1.0;"/><polygon fill="none" points="474,293.13,481,273.13,488,293.13,474,293.13" style="stroke:#181818;stroke-width:1.0;"/></g><!--MD5=[59461357328b13f33e0e2dce35b637f1]
reverse link Open to OpenField--><g id="link_Open_OpenField"><path codeLine="79" d="M590.11,176.66 C564.1,235.03 513.15,349.36 491.32,398.33 " fill="none" id="Open-backto-OpenField" style="stroke:#181818;stroke-width:1.0;"/><polygon fill="none" points="595.56,164.43,589.4653,168.2842,590.679,175.3925,596.7737,171.5382,595.56,164.43" style="stroke:#181818;stroke-width:1.0;"/></g><!--MD5=[96f5c217a7af9df0178c70f7f2c310a0]
reverse link Open to Level--><g id="link_Open_Level"><path codeLine="80" d="M623.93,175.88 C632.18,191.93 641.74,210.54 649.09,224.83 " fill="none" id="Open-backto-Level" style="stroke:#181818;stroke-width:1.0;"/><polygon fill="#181818" points="617.93,164.22,617.1165,171.3851,623.4176,174.8918,624.231,167.7267,617.93,164.22" style="stroke:#181818;stroke-width:1.0;"/></g><!--MD5=[17853d1614ee74b677b046be12e4a313]
reverse link Open to Statement--><g id="link_Open_Statement"><path codeLine="81" d="M650.95,169.77 C708.21,206.43 806.05,269.06 858.78,302.82 " fill="none" id="Open-backto-Statement" style="stroke:#181818;stroke-width:1.0;"/><polygon fill="#181818" points="639.72,162.58,642.6128,169.1854,649.8227,169.0558,646.9299,162.4503,639.72,162.58" style="stroke:#181818;stroke-width:1.0;"/></g><!--MD5=[434f404ffda59800d2340396998dfc87]
link Statement to StatementTemplate--><g id="link_Statement_StatementTemplate"><path codeLine="82" d="M916.03,351.13 C953.31,392.14 1030.82,477.4 1070.47,521.02 " fill="none" id="Statement-to-StatementTemplate" style="stroke:#181818;stroke-width:1.0;stroke-dasharray:7.0,7.0;"/><polygon fill="#181818" points="1073.96,524.85,1070.8549,515.5034,1070.5924,521.1542,1064.9416,520.8916,1073.96,524.85" style="stroke:#181818;stroke-width:1.0;"/></g><!--MD5=[357c4abe4ae02615f163987610a5cb7f]
reverse link Concept to Keyword--><g id="link_Concept_Keyword"><path codeLine="84" d="M224.4,454.34 C193.47,476.22 152.62,505.12 124.52,525 " fill="none" id="Concept-backto-Keyword" style="stroke:#181818;stroke-width:1.0;"/><polygon fill="#181818" points="235.31,446.63,228.1016,446.8257,225.5097,453.5549,232.7181,453.3592,235.31,446.63" style="stroke:#181818;stroke-width:1.0;"/></g><!--MD5=[543bb2115b5a10697a67507a00f6a2f4]
reverse link Concept to Definition--><g id="link_Concept_Definition"><path codeLine="85" d="M279.36,459.49 C290.75,495.71 308.76,553.18 324,603 C328.79,618.67 334.03,636.09 338.39,650.67 " fill="none" id="Concept-backto-Definition" style="stroke:#181818;stroke-width:1.0;"/><polygon fill="none" points="275.33,446.71,273.3217,453.6358,278.9423,458.1534,280.9506,451.2276,275.33,446.71" style="stroke:#181818;stroke-width:1.0;"/><text fill="#000000" font-family="sans-serif" font-size="13" lengthAdjust="spacing" textLength="22" x="312.3324" y="640.1013">0..n</text></g><!--MD5=[38796b68b5180f699f927fbe8d179b6a]
reverse link Definition to Justification--><g id="link_Definition_Justification"><path codeLine="86" d="M348,730.43 C348,751.43 348,775.87 348,794.91 " fill="none" id="Definition-backto-Justification" style="stroke:#181818;stroke-width:1.0;"/><polygon fill="none" points="348,717.22,344,723.22,348,729.22,352,723.22,348,717.22" style="stroke:#181818;stroke-width:1.0;"/><text fill="#000000" font-family="sans-serif" font-size="13" lengthAdjust="spacing" textLength="29" x="349" y="761.4951">Fake</text><text fill="#000000" font-family="sans-serif" font-size="13" lengthAdjust="spacing" textLength="22" x="323.7313" y="784.0068">0..n</text></g><!--MD5=[eb7a17800df728e9c634ee1be9fc6c88]
reverse link Justification to Explanation--><g id="link_Justification_Explanation"><path codeLine="87" d="M348,874.5 C348,896.17 348,921.14 348,938.85 " fill="none" id="Justification-backto-Explanation" style="stroke:#181818;stroke-width:1.0;"/><polygon fill="none" points="348,861.2,344,867.2,348,873.2,352,867.2,348,861.2" style="stroke:#181818;stroke-width:1.0;"/><text fill="#000000" font-family="sans-serif" font-size="13" lengthAdjust="spacing" textLength="29" x="349" y="905.4951">Fake</text></g><!--MD5=[54f9360500e0fd532969fc16f437bbea]
reverse link Concept to Relation--><g id="link_Concept_Relation"><path codeLine="89" d="M252.15,458.75 C242.59,479.98 230.7,506.43 222.35,525 " fill="none" id="Concept-backto-Relation" style="stroke:#181818;stroke-width:1.0;"/><polygon fill="none" points="257.6,446.63,251.4903,450.4604,252.6762,457.5733,258.7859,453.7429,257.6,446.63" style="stroke:#181818;stroke-width:1.0;"/><text fill="#000000" font-family="sans-serif" font-size="13" lengthAdjust="spacing" textLength="22" x="200.1834" y="514.3402">0..n</text></g><!--MD5=[90ea77717cc70d7f588b001bbb985d62]
reverse link Relation to Classification--><g id="link_Relation_Classification"><path codeLine="90" d="M211.35,593.49 C211.01,615.53 210.63,641.41 210.35,659.65 " fill="none" id="Relation-backto-Classification" style="stroke:#181818;stroke-width:1.0;"/><polygon fill="none" points="204.35,593.06,211.65,573.17,218.35,593.27,204.35,593.06" style="stroke:#181818;stroke-width:1.0;"/></g><!--MD5=[aac130c8b5f905729b18e85e231f7b50]
reverse link Relation to Composition--><g id="link_Relation_Composition"><path codeLine="91" d="M150.93,573.93 C119.24,586.58 86.57,600.08 84,603 C70.18,618.66 64.95,642.24 63.02,659.75 " fill="none" id="Relation-backto-Composition" style="stroke:#181818;stroke-width:1.0;"/><polygon fill="none" points="148.57,567.34,169.74,566.47,153.73,580.35,148.57,567.34" style="stroke:#181818;stroke-width:1.0;"/></g><!--MD5=[2feebbf5a2a7ca3d6cf397d4221288ef]
reverse link Level to Primary--><g id="link_Level_Primary"><path codeLine="94" d="M699.4,287.42 C730.67,317.89 774.36,360.46 804.06,389.41 " fill="none" id="Level-backto-Primary" style="stroke:#181818;stroke-width:1.0;"/><polygon fill="none" points="694.17,292.1,684.74,273.13,703.95,282.07,694.17,292.1" style="stroke:#181818;stroke-width:1.0;"/></g><!--MD5=[cb19bd22a149a884c5664d5c3292c3d0]
reverse link Level to Secundary--><g id="link_Level_Secundary"><path codeLine="95" d="M661,293.17 C661,320.01 661,354.31 661,380.7 " fill="none" id="Level-backto-Secundary" style="stroke:#181818;stroke-width:1.0;"/><polygon fill="none" points="654,293.13,661,273.13,668,293.13,654,293.13" style="stroke:#181818;stroke-width:1.0;"/></g><!--MD5=[96fd3862f813cce9602d0dd99ea34e46]
reverse link StatementTemplate to DefinitionTemplate--><g id="link_StatementTemplate_DefinitionTemplate"><path codeLine="97" d="M1095,593.36 C1095,612 1095,633.41 1095,650.63 " fill="none" id="StatementTemplate-backto-DefinitionTemplate" style="stroke:#181818;stroke-width:1.0;"/><polygon fill="none" points="1088,593.17,1095,573.17,1102,593.17,1088,593.17" style="stroke:#181818;stroke-width:1.0;"/></g><!--MD5=[0749c0cb69901626ae9abd6f720f7125]
reverse link StatementTemplate to ClassTemplate--><g id="link_StatementTemplate_ClassTemplate"><path codeLine="98" d="M1039.8,583.68 C1005.99,604.3 962.97,630.55 929.64,650.88 " fill="none" id="StatementTemplate-backto-ClassTemplate" style="stroke:#181818;stroke-width:1.0;"/><polygon fill="none" points="1036.31,577.61,1057.03,573.17,1043.6,589.56,1036.31,577.61" style="stroke:#181818;stroke-width:1.0;"/></g><!--MD5=[cc6ca07f2faaed45385085669a2db5fe]
reverse link StatementTemplate to CompositionTemplate--><g id="link_StatementTemplate_CompositionTemplate"><path codeLine="99" d="M998.01,575.24 C915.47,596.73 796.44,627.71 707.17,650.94 " fill="none" id="StatementTemplate-backto-CompositionTemplate" style="stroke:#181818;stroke-width:1.0;"/><polygon fill="none" points="996.27,568.46,1017.39,570.2,999.8,582.01,996.27,568.46" style="stroke:#181818;stroke-width:1.0;"/></g><!--MD5=[a66fbc61ae25ad9fae8dae85d457713c]
reverse link Primary to OpenDefinitionQuestion--><g id="link_Primary_OpenDefinitionQuestion"><path codeLine="101" d="M858.97,474.14 C866.56,491.66 874.71,510.45 880.89,524.7 " fill="none" id="Primary-backto-OpenDefinitionQuestion" style="stroke:#181818;stroke-width:1.0;"/><polygon fill="none" points="852.44,476.7,850.91,455.56,865.29,471.12,852.44,476.7" style="stroke:#181818;stroke-width:1.0;"/></g><!--MD5=[c51b582ebb4265caee0e3ff24c6f9a95]
reverse link OpenDefinitionQuestion to DefinitionTemplate--><g id="link_OpenDefinitionQuestion_DefinitionTemplate"><path codeLine="102" d="M937.49,580.31 C969.81,601.38 1012.83,629.43 1045.74,650.88 " fill="none" id="OpenDefinitionQuestion-backto-DefinitionTemplate" style="stroke:#181818;stroke-width:1.0;"/><polygon fill="#181818" points="926.53,573.17,929.3703,579.7982,936.5811,579.7256,933.7407,573.0975,926.53,573.17" style="stroke:#181818;stroke-width:1.0;"/></g><!--MD5=[a356a772972cb1021badad13ac2d514c]
link OpenField to OpenDefinitionQuestion--><g id="link_OpenField_OpenDefinitionQuestion"><path codeLine="103" d="M514.18,446.63 C524.36,452.96 535.83,459.34 547,464 C569.25,473.28 693.41,502.73 786.22,524.14 " fill="none" id="OpenField-to-OpenDefinitionQuestion" style="stroke:#181818;stroke-width:1.0;"/><polygon fill="none" points="799.09,527.11,794.1461,521.8604,787.3989,524.4049,792.3427,529.6545,799.09,527.11" style="stroke:#181818;stroke-width:1.0;"/><text fill="#000000" font-family="sans-serif" font-size="13" lengthAdjust="spacing" textLength="22" x="497.5864" y="467.9997">1..n</text></g><!--MD5=[49c48160fdf887f5a9305ebf554c6fce]
reverse link OpenDefinitionQuestion to Definition--><g id="link_OpenDefinitionQuestion_Definition"><path codeLine="104" d="M794.46,570.38 C790.25,571.26 786.08,572.14 782,573 C617.12,607.73 569.93,595.03 411,651 C405.33,653 399.52,655.4 393.84,657.98 " fill="none" id="OpenDefinitionQuestion-backto-Definition" style="stroke:#181818;stroke-width:1.0;stroke-dasharray:7.0,7.0;"/><polygon fill="#181818" points="799.41,569.33,789.779,567.2699,794.5173,570.3601,791.4271,575.0983,799.41,569.33" style="stroke:#181818;stroke-width:1.0;"/><text fill="#000000" font-family="sans-serif" font-size="13" lengthAdjust="spacing" textLength="59" x="602" y="617.4951">OpenField</text></g><!--MD5=[1ffc8cee98218a8603727f51e6b211a8]
reverse link Primary to OpenClassQuestion--><g id="link_Primary_OpenClassQuestion"><path codeLine="106" d="M782.31,468.3 C759,487.38 732.79,508.85 713.45,524.7 " fill="none" id="Primary-backto-OpenClassQuestion" style="stroke:#181818;stroke-width:1.0;"/><polygon fill="none" points="777.95,462.82,797.86,455.56,786.82,473.65,777.95,462.82" style="stroke:#181818;stroke-width:1.0;"/></g><!--MD5=[592c57f98911af5a8f7c5a44f09cefa9]
reverse link OpenClassQuestion to ClassTemplate--><g id="link_OpenClassQuestion_ClassTemplate"><path codeLine="107" d="M729.15,580.58 C759.53,601.63 799.8,629.52 830.64,650.88 " fill="none" id="OpenClassQuestion-backto-ClassTemplate" style="stroke:#181818;stroke-width:1.0;"/><polygon fill="#181818" points="718.44,573.17,721.0954,579.8744,728.3054,580.0019,725.65,573.2975,718.44,573.17" style="stroke:#181818;stroke-width:1.0;"/></g><!--MD5=[738d58eb4c56a9c64d8e5b1c3707aac5]
link OpenField to OpenClassQuestion--><g id="link_OpenField_OpenClassQuestion"><path codeLine="108" d="M518.68,446.65 C527.94,452.33 537.82,458.39 547,464 C576.39,481.96 609.35,502.03 635.68,518.04 " fill="none" id="OpenField-to-OpenClassQuestion" style="stroke:#181818;stroke-width:1.0;"/><polygon fill="none" points="646.9,524.86,643.8511,518.3251,636.6463,518.6261,639.6952,525.1609,646.9,524.86" style="stroke:#181818;stroke-width:1.0;"/><text fill="#000000" font-family="sans-serif" font-size="13" lengthAdjust="spacing" textLength="22" x="530.5458" y="468.0245">1..n</text></g><!--MD5=[b619a8a782ce055e34c4b08410723460]
reverse link OpenClassQuestion to Classification--><g id="link_OpenClassQuestion_Classification"><path codeLine="109" d="M600.5,570.44 C595.94,571.35 591.42,572.21 587,573 C478.56,592.28 445.03,566.81 341,603 C303.25,616.13 264.76,641.34 239.36,659.97 " fill="none" id="OpenClassQuestion-backto-Classification" style="stroke:#181818;stroke-width:1.0;stroke-dasharray:7.0,7.0;"/><polygon fill="#181818" points="605.46,569.43,595.8419,567.3104,600.561,570.4298,597.4416,575.1489,605.46,569.43" style="stroke:#181818;stroke-width:1.0;"/><text fill="#000000" font-family="sans-serif" font-size="13" lengthAdjust="spacing" textLength="59" x="342" y="617.4951">OpenField</text></g><!--MD5=[301f6c044158a68586068b85c2a80615]
reverse link Primary to OpenCompositionQuestion--><g id="link_Primary_OpenCompositionQuestion"><path codeLine="111" d="M773.59,463.49 C697.93,496.64 626.69,515.8 570.26,528.52 " fill="none" id="Primary-backto-OpenCompositionQuestion" style="stroke:#181818;stroke-width:1.0;"/><polygon fill="none" points="770.76,457.09,791.87,455.24,776.51,469.85,770.76,457.09" style="stroke:#181818;stroke-width:1.0;"/></g><!--MD5=[07863c77f2b10c878de548ec383ac221]
reverse link OpenCompositionQuestion to CompositionTemplate--><g id="link_OpenCompositionQuestion_CompositionTemplate"><path codeLine="112" d="M497.59,583.07 C515.43,603.7 538.29,630.14 556.01,650.63 " fill="none" id="OpenCompositionQuestion-backto-CompositionTemplate" style="stroke:#181818;stroke-width:1.0;"/><polygon fill="#181818" points="489.03,573.17,489.9301,580.3247,496.8806,582.2457,495.9805,575.0909,489.03,573.17" style="stroke:#181818;stroke-width:1.0;"/></g><!--MD5=[9de126b5500c74f7f12226e04f16a1c9]
link OpenField to OpenCompositionQuestion--><g id="link_OpenField_OpenCompositionQuestion"><path codeLine="113" d="M478.77,446.63 C477,464.97 474.5,490.94 472.47,512 " fill="none" id="OpenField-to-OpenCompositionQuestion" style="stroke:#181818;stroke-width:1.0;"/><polygon fill="none" points="471.22,525,475.7758,519.4103,472.3683,513.0551,467.8125,518.6448,471.22,525" style="stroke:#181818;stroke-width:1.0;"/><text fill="#000000" font-family="sans-serif" font-size="13" lengthAdjust="spacing" textLength="22" x="453.5452" y="467.9997">1..n</text></g><!--MD5=[92cd928904746ce40363a3030cb52c20]
reverse link OpenCompositionQuestion to Composition--><g id="link_OpenCompositionQuestion_Composition"><path codeLine="114" d="M362.37,562.17 C287.16,571.88 193.71,586.55 158,603 C128.64,616.53 100.94,641.41 82.91,659.85 " fill="none" id="OpenCompositionQuestion-backto-Composition" style="stroke:#181818;stroke-width:1.0;stroke-dasharray:7.0,7.0;"/><polygon fill="#181818" points="367.75,561.48,358.3103,558.6707,362.7915,562.123,359.3392,566.6042,367.75,561.48" style="stroke:#181818;stroke-width:1.0;"/><text fill="#000000" font-family="sans-serif" font-size="13" lengthAdjust="spacing" textLength="59" x="159" y="617.4951">OpenField</text></g><!--MD5=[80773bea26e76cc6fc4a2362232c3932]
@startuml ConceptDomainDetail

class Concept

class Keyword

class Definition {
    -Real/Fake
}

class Justification {
    -Real/Fake
}

class Explanation

class Relation

class Classification

class Composition

class Level

class Primary {
    withKeyword
}

class Secundary {
    withKeyword
    withDefinition or withRelation
}

class OpenDefinitionQuestion

class OpenClassQuestion

class OpenCompositionQuestion

'class OpenReverseDefinitionQuestion

'class OpenJustificationQuestion

class Question

class Open

class Statement

class StatementTemplate


class DefinitionTemplate {
    "¿Qué es KEYWORD?"
}

class ClassTemplate {
    "Qué tipos hay de KEYWORD"
}

class CompositionTemplate {
    "¿Qué conceptos destacarias del KEYWORD?"
}

'class JustificationTemplate {
'    "¿La KEYWORD es esta DEFINITION?¿Por qué?"
'}

'class ReverseDefinitionTemplate {
'    "¿Qué es REALDEFINITION?"
'}

class Answer

class OpenField

Question <|- - Open
Open "0..n" -o Concept
Answer <|- - OpenField
Open o- - OpenField
Open *- - Level
Open *- - Statement
Statement ..> StatementTemplate

Concept *- - Keyword
Concept o- -"0..n" Definition
Definition o- - "0..n" Justification:Fake
Justification o- - Explanation:Fake

Concept o- - "0..n" Relation
Relation <|- - Classification
Relation <|- - Composition
'Relation - ->"1..m" Concept

Level <|- - Primary
Level <|- - Secundary

StatementTemplate <|- - DefinitionTemplate
StatementTemplate <|- - ClassTemplate
StatementTemplate <|- - CompositionTemplate

Primary <|- - OpenDefinitionQuestion
OpenDefinitionQuestion *- - DefinitionTemplate
OpenField "1..n" - -o OpenDefinitionQuestion
OpenDefinitionQuestion <.. Definition: OpenField

Primary <|- - OpenClassQuestion
OpenClassQuestion *- - ClassTemplate
OpenField "1..n"- -o OpenClassQuestion
OpenClassQuestion <.. Classification :OpenField

Primary <|- - OpenCompositionQuestion
OpenCompositionQuestion *- - CompositionTemplate
OpenField "1..n"- -o OpenCompositionQuestion
OpenCompositionQuestion <.. Composition :OpenField

'Secundary <|- - OpenReverseDefinitionQuestion
'OpenReverseDefinitionQuestion *- - ReverseDefinitionTemplate
'OpenField "1..n" - -o OpenReverseDefinitionQuestion
'OpenReverseDefinitionQuestion <.. Keyword :Fake <- OpenField

'Secundary <|- - OpenJustificationQuestion
'OpenJustificationQuestion *- - JustificationTemplate
'OpenJustificationQuestion o- -"1..n" OpenField
'OpenJustificationQuestion <.. Justification :OpenField

@enduml

@startuml ConceptDomainDetail

class Concept

class Keyword

class Definition {
    -Real/Fake
}

class Justification {
    -Real/Fake
}

class Explanation

class Relation

class Classification

class Composition

class Level

class Primary {
    withKeyword
}

class Secundary {
    withKeyword
    withDefinition or withRelation
}

class OpenDefinitionQuestion

class OpenClassQuestion

class OpenCompositionQuestion



class Question

class Open

class Statement

class StatementTemplate


class DefinitionTemplate {
    "¿Qué es KEYWORD?"
}

class ClassTemplate {
    "Qué tipos hay de KEYWORD"
}

class CompositionTemplate {
    "¿Qué conceptos destacarias del KEYWORD?"
}



class Answer

class OpenField

Question <|- - Open
Open "0..n" -o Concept
Answer <|- - OpenField
Open o- - OpenField
Open *- - Level
Open *- - Statement
Statement ..> StatementTemplate

Concept *- - Keyword
Concept o- -"0..n" Definition
Definition o- - "0..n" Justification:Fake
Justification o- - Explanation:Fake

Concept o- - "0..n" Relation
Relation <|- - Classification
Relation <|- - Composition

Level <|- - Primary
Level <|- - Secundary

StatementTemplate <|- - DefinitionTemplate
StatementTemplate <|- - ClassTemplate
StatementTemplate <|- - CompositionTemplate

Primary <|- - OpenDefinitionQuestion
OpenDefinitionQuestion *- - DefinitionTemplate
OpenField "1..n" - -o OpenDefinitionQuestion
OpenDefinitionQuestion <.. Definition: OpenField

Primary <|- - OpenClassQuestion
OpenClassQuestion *- - ClassTemplate
OpenField "1..n"- -o OpenClassQuestion
OpenClassQuestion <.. Classification :OpenField

Primary <|- - OpenCompositionQuestion
OpenCompositionQuestion *- - CompositionTemplate
OpenField "1..n"- -o OpenCompositionQuestion
OpenCompositionQuestion <.. Composition :OpenField



@enduml

PlantUML version 1.2022.7(Mon Aug 22 18:01:30 WEST 2022)
(GPL source distribution)
Java Runtime: OpenJDK Runtime Environment
JVM: OpenJDK 64-Bit Server VM
Default Encoding: Cp1252
Language: es
Country: ES
--></g></svg>