<?xml version="1.0" encoding="UTF-8" standalone="no"?><svg xmlns="http://www.w3.org/2000/svg" xmlns:xlink="http://www.w3.org/1999/xlink" contentStyleType="text/css" height="746px" preserveAspectRatio="none" style="width:2431px;height:746px;background:#FFFFFF;" version="1.1" viewBox="0 0 2431 746" width="2431px" zoomAndPan="magnify"><defs/><g><!--MD5=[a96594a83e2ecdc78cbf17c2ddf01934]
class Category--><g id="elem_Category"><rect codeLine="2" fill="#F1F1F1" height="48" id="Category" rx="2.5" ry="2.5" style="stroke:#181818;stroke-width:0.5;" width="90" x="565" y="10.4847"/><ellipse cx="580" cy="26.4847" fill="#ADD1B2" rx="11" ry="11" style="stroke:#181818;stroke-width:1.0;"/><path d="M582.7656,22.3597 Q582.9219,22.1409 583.1094,22.0315 Q583.2969,21.9222 583.5156,21.9222 Q583.8906,21.9222 584.125,22.1878 Q584.3594,22.4378 584.3594,23.0472 L584.3594,24.5003 Q584.3594,25.1097 584.125,25.3753 Q583.8906,25.6409 583.5156,25.6409 Q583.1719,25.6409 582.9688,25.4378 Q582.7656,25.2503 582.6563,24.7347 Q582.6094,24.3753 582.4219,24.1878 Q582.0938,23.8128 581.4844,23.594 Q580.875,23.3753 580.25,23.3753 Q579.4844,23.3753 578.8438,23.7034 Q578.2188,24.0315 577.7188,24.7815 Q577.2344,25.5315 577.2344,26.5628 L577.2344,27.6565 Q577.2344,28.8909 578.125,29.719 Q579.0156,30.5315 580.6094,30.5315 Q581.5469,30.5315 582.2031,30.2815 Q582.5938,30.1253 583.0156,29.6878 Q583.2813,29.4222 583.4219,29.344 Q583.5781,29.2659 583.7813,29.2659 Q584.1094,29.2659 584.3594,29.5315 Q584.625,29.7815 584.625,30.1253 Q584.625,30.469 584.2813,30.8753 Q583.7813,31.4534 582.9844,31.7815 Q581.9063,32.2347 580.6094,32.2347 Q579.0938,32.2347 577.8906,31.6097 Q576.9063,31.1097 576.2188,30.0472 Q575.5313,28.969 575.5313,27.6878 L575.5313,26.5315 Q575.5313,25.2034 576.1406,24.0628 Q576.7656,22.9065 577.8594,22.2972 Q578.9531,21.6722 580.1875,21.6722 Q580.9219,21.6722 581.5625,21.844 Q582.2188,22.0003 582.7656,22.3597 Z " fill="#000000"/><text fill="#000000" font-family="sans-serif" font-size="14" lengthAdjust="spacing" textLength="58" x="594" y="32.2132">Category</text><line style="stroke:#181818;stroke-width:0.5;" x1="566" x2="654" y1="42.4847" y2="42.4847"/><line style="stroke:#181818;stroke-width:0.5;" x1="566" x2="654" y1="50.4847" y2="50.4847"/></g><!--MD5=[9d451b2f92d848a8e2d1a4dab2b1c6bf]
class Concept--><g id="elem_Concept"><rect codeLine="4" fill="#F1F1F1" height="48" id="Concept" rx="2.5" ry="2.5" style="stroke:#181818;stroke-width:0.5;" width="85" x="293.5" y="144.9847"/><ellipse cx="308.5" cy="160.9847" fill="#ADD1B2" rx="11" ry="11" style="stroke:#181818;stroke-width:1.0;"/><path d="M311.2656,156.8597 Q311.4219,156.6409 311.6094,156.5315 Q311.7969,156.4222 312.0156,156.4222 Q312.3906,156.4222 312.625,156.6878 Q312.8594,156.9378 312.8594,157.5472 L312.8594,159.0003 Q312.8594,159.6097 312.625,159.8753 Q312.3906,160.1409 312.0156,160.1409 Q311.6719,160.1409 311.4688,159.9378 Q311.2656,159.7503 311.1563,159.2347 Q311.1094,158.8753 310.9219,158.6878 Q310.5938,158.3128 309.9844,158.094 Q309.375,157.8753 308.75,157.8753 Q307.9844,157.8753 307.3438,158.2034 Q306.7188,158.5315 306.2188,159.2815 Q305.7344,160.0315 305.7344,161.0628 L305.7344,162.1565 Q305.7344,163.3909 306.625,164.219 Q307.5156,165.0315 309.1094,165.0315 Q310.0469,165.0315 310.7031,164.7815 Q311.0938,164.6253 311.5156,164.1878 Q311.7813,163.9222 311.9219,163.844 Q312.0781,163.7659 312.2813,163.7659 Q312.6094,163.7659 312.8594,164.0315 Q313.125,164.2815 313.125,164.6253 Q313.125,164.969 312.7813,165.3753 Q312.2813,165.9534 311.4844,166.2815 Q310.4063,166.7347 309.1094,166.7347 Q307.5938,166.7347 306.3906,166.1097 Q305.4063,165.6097 304.7188,164.5472 Q304.0313,163.469 304.0313,162.1878 L304.0313,161.0315 Q304.0313,159.7034 304.6406,158.5628 Q305.2656,157.4065 306.3594,156.7972 Q307.4531,156.1722 308.6875,156.1722 Q309.4219,156.1722 310.0625,156.344 Q310.7188,156.5003 311.2656,156.8597 Z " fill="#000000"/><text fill="#000000" font-family="sans-serif" font-size="14" lengthAdjust="spacing" textLength="53" x="322.5" y="166.7132">Concept</text><line style="stroke:#181818;stroke-width:0.5;" x1="294.5" x2="377.5" y1="176.9847" y2="176.9847"/><line style="stroke:#181818;stroke-width:0.5;" x1="294.5" x2="377.5" y1="184.9847" y2="184.9847"/></g><!--MD5=[1ac27345a8a52a4a812e38456e107300]
class Keyword--><g id="elem_Keyword"><rect codeLine="6" fill="#F1F1F1" height="48" id="Keyword" rx="2.5" ry="2.5" style="stroke:#181818;stroke-width:0.5;" width="86" x="7" y="305.9847"/><ellipse cx="22" cy="321.9847" fill="#ADD1B2" rx="11" ry="11" style="stroke:#181818;stroke-width:1.0;"/><path d="M24.7656,317.8597 Q24.9219,317.6409 25.1094,317.5315 Q25.2969,317.4222 25.5156,317.4222 Q25.8906,317.4222 26.125,317.6878 Q26.3594,317.9378 26.3594,318.5472 L26.3594,320.0003 Q26.3594,320.6097 26.125,320.8753 Q25.8906,321.1409 25.5156,321.1409 Q25.1719,321.1409 24.9688,320.9378 Q24.7656,320.7503 24.6563,320.2347 Q24.6094,319.8753 24.4219,319.6878 Q24.0938,319.3128 23.4844,319.094 Q22.875,318.8753 22.25,318.8753 Q21.4844,318.8753 20.8438,319.2034 Q20.2188,319.5315 19.7188,320.2815 Q19.2344,321.0315 19.2344,322.0628 L19.2344,323.1565 Q19.2344,324.3909 20.125,325.219 Q21.0156,326.0315 22.6094,326.0315 Q23.5469,326.0315 24.2031,325.7815 Q24.5938,325.6253 25.0156,325.1878 Q25.2813,324.9222 25.4219,324.844 Q25.5781,324.7659 25.7813,324.7659 Q26.1094,324.7659 26.3594,325.0315 Q26.625,325.2815 26.625,325.6253 Q26.625,325.969 26.2813,326.3753 Q25.7813,326.9534 24.9844,327.2815 Q23.9063,327.7347 22.6094,327.7347 Q21.0938,327.7347 19.8906,327.1097 Q18.9063,326.6097 18.2188,325.5472 Q17.5313,324.469 17.5313,323.1878 L17.5313,322.0315 Q17.5313,320.7034 18.1406,319.5628 Q18.7656,318.4065 19.8594,317.7972 Q20.9531,317.1722 22.1875,317.1722 Q22.9219,317.1722 23.5625,317.344 Q24.2188,317.5003 24.7656,317.8597 Z " fill="#000000"/><text fill="#000000" font-family="sans-serif" font-size="14" lengthAdjust="spacing" textLength="54" x="36" y="327.7132">Keyword</text><line style="stroke:#181818;stroke-width:0.5;" x1="8" x2="92" y1="337.9847" y2="337.9847"/><line style="stroke:#181818;stroke-width:0.5;" x1="8" x2="92" y1="345.9847" y2="345.9847"/></g><!--MD5=[af22135d5be6ed11ccd2d02fa51653b3]
class Definition--><g id="elem_Definition"><rect codeLine="8" fill="#F1F1F1" height="48" id="Definition" rx="2.5" ry="2.5" style="stroke:#181818;stroke-width:0.5;" width="91" x="389.5" y="305.9847"/><ellipse cx="404.5" cy="321.9847" fill="#ADD1B2" rx="11" ry="11" style="stroke:#181818;stroke-width:1.0;"/><path d="M407.2656,317.8597 Q407.4219,317.6409 407.6094,317.5315 Q407.7969,317.4222 408.0156,317.4222 Q408.3906,317.4222 408.625,317.6878 Q408.8594,317.9378 408.8594,318.5472 L408.8594,320.0003 Q408.8594,320.6097 408.625,320.8753 Q408.3906,321.1409 408.0156,321.1409 Q407.6719,321.1409 407.4688,320.9378 Q407.2656,320.7503 407.1563,320.2347 Q407.1094,319.8753 406.9219,319.6878 Q406.5938,319.3128 405.9844,319.094 Q405.375,318.8753 404.75,318.8753 Q403.9844,318.8753 403.3438,319.2034 Q402.7188,319.5315 402.2188,320.2815 Q401.7344,321.0315 401.7344,322.0628 L401.7344,323.1565 Q401.7344,324.3909 402.625,325.219 Q403.5156,326.0315 405.1094,326.0315 Q406.0469,326.0315 406.7031,325.7815 Q407.0938,325.6253 407.5156,325.1878 Q407.7813,324.9222 407.9219,324.844 Q408.0781,324.7659 408.2813,324.7659 Q408.6094,324.7659 408.8594,325.0315 Q409.125,325.2815 409.125,325.6253 Q409.125,325.969 408.7813,326.3753 Q408.2813,326.9534 407.4844,327.2815 Q406.4063,327.7347 405.1094,327.7347 Q403.5938,327.7347 402.3906,327.1097 Q401.4063,326.6097 400.7188,325.5472 Q400.0313,324.469 400.0313,323.1878 L400.0313,322.0315 Q400.0313,320.7034 400.6406,319.5628 Q401.2656,318.4065 402.3594,317.7972 Q403.4531,317.1722 404.6875,317.1722 Q405.4219,317.1722 406.0625,317.344 Q406.7188,317.5003 407.2656,317.8597 Z " fill="#000000"/><text fill="#000000" font-family="sans-serif" font-size="14" lengthAdjust="spacing" textLength="59" x="418.5" y="327.7132">Definition</text><line style="stroke:#181818;stroke-width:0.5;" x1="390.5" x2="479.5" y1="337.9847" y2="337.9847"/><line style="stroke:#181818;stroke-width:0.5;" x1="390.5" x2="479.5" y1="345.9847" y2="345.9847"/></g><!--MD5=[f31fc1fa2857d38684a2cb55f861fa37]
class RealDefinition--><g id="elem_RealDefinition"><rect codeLine="10" fill="#F1F1F1" height="48" id="RealDefinition" rx="2.5" ry="2.5" style="stroke:#181818;stroke-width:0.5;" width="120" x="509" y="440.4847"/><ellipse cx="524" cy="456.4847" fill="#ADD1B2" rx="11" ry="11" style="stroke:#181818;stroke-width:1.0;"/><path d="M526.7656,452.3597 Q526.9219,452.1409 527.1094,452.0315 Q527.2969,451.9222 527.5156,451.9222 Q527.8906,451.9222 528.125,452.1878 Q528.3594,452.4378 528.3594,453.0472 L528.3594,454.5003 Q528.3594,455.1097 528.125,455.3753 Q527.8906,455.6409 527.5156,455.6409 Q527.1719,455.6409 526.9688,455.4378 Q526.7656,455.2503 526.6563,454.7347 Q526.6094,454.3753 526.4219,454.1878 Q526.0938,453.8128 525.4844,453.594 Q524.875,453.3753 524.25,453.3753 Q523.4844,453.3753 522.8438,453.7034 Q522.2188,454.0315 521.7188,454.7815 Q521.2344,455.5315 521.2344,456.5628 L521.2344,457.6565 Q521.2344,458.8909 522.125,459.719 Q523.0156,460.5315 524.6094,460.5315 Q525.5469,460.5315 526.2031,460.2815 Q526.5938,460.1253 527.0156,459.6878 Q527.2813,459.4222 527.4219,459.344 Q527.5781,459.2659 527.7813,459.2659 Q528.1094,459.2659 528.3594,459.5315 Q528.625,459.7815 528.625,460.1253 Q528.625,460.469 528.2813,460.8753 Q527.7813,461.4534 526.9844,461.7815 Q525.9063,462.2347 524.6094,462.2347 Q523.0938,462.2347 521.8906,461.6097 Q520.9063,461.1097 520.2188,460.0472 Q519.5313,458.969 519.5313,457.6878 L519.5313,456.5315 Q519.5313,455.2034 520.1406,454.0628 Q520.7656,452.9065 521.8594,452.2972 Q522.9531,451.6722 524.1875,451.6722 Q524.9219,451.6722 525.5625,451.844 Q526.2188,452.0003 526.7656,452.3597 Z " fill="#000000"/><text fill="#000000" font-family="sans-serif" font-size="14" lengthAdjust="spacing" textLength="88" x="538" y="462.2132">RealDefinition</text><line style="stroke:#181818;stroke-width:0.5;" x1="510" x2="628" y1="472.4847" y2="472.4847"/><line style="stroke:#181818;stroke-width:0.5;" x1="510" x2="628" y1="480.4847" y2="480.4847"/></g><!--MD5=[d6420df0ba7eff4d736dc4fa653f8446]
class FakeDefinition--><g id="elem_FakeDefinition"><rect codeLine="12" fill="#F1F1F1" height="48" id="FakeDefinition" rx="2.5" ry="2.5" style="stroke:#181818;stroke-width:0.5;" width="123" x="350.5" y="440.4847"/><ellipse cx="365.5" cy="456.4847" fill="#ADD1B2" rx="11" ry="11" style="stroke:#181818;stroke-width:1.0;"/><path d="M368.2656,452.3597 Q368.4219,452.1409 368.6094,452.0315 Q368.7969,451.9222 369.0156,451.9222 Q369.3906,451.9222 369.625,452.1878 Q369.8594,452.4378 369.8594,453.0472 L369.8594,454.5003 Q369.8594,455.1097 369.625,455.3753 Q369.3906,455.6409 369.0156,455.6409 Q368.6719,455.6409 368.4688,455.4378 Q368.2656,455.2503 368.1563,454.7347 Q368.1094,454.3753 367.9219,454.1878 Q367.5938,453.8128 366.9844,453.594 Q366.375,453.3753 365.75,453.3753 Q364.9844,453.3753 364.3438,453.7034 Q363.7188,454.0315 363.2188,454.7815 Q362.7344,455.5315 362.7344,456.5628 L362.7344,457.6565 Q362.7344,458.8909 363.625,459.719 Q364.5156,460.5315 366.1094,460.5315 Q367.0469,460.5315 367.7031,460.2815 Q368.0938,460.1253 368.5156,459.6878 Q368.7813,459.4222 368.9219,459.344 Q369.0781,459.2659 369.2813,459.2659 Q369.6094,459.2659 369.8594,459.5315 Q370.125,459.7815 370.125,460.1253 Q370.125,460.469 369.7813,460.8753 Q369.2813,461.4534 368.4844,461.7815 Q367.4063,462.2347 366.1094,462.2347 Q364.5938,462.2347 363.3906,461.6097 Q362.4063,461.1097 361.7188,460.0472 Q361.0313,458.969 361.0313,457.6878 L361.0313,456.5315 Q361.0313,455.2034 361.6406,454.0628 Q362.2656,452.9065 363.3594,452.2972 Q364.4531,451.6722 365.6875,451.6722 Q366.4219,451.6722 367.0625,451.844 Q367.7188,452.0003 368.2656,452.3597 Z " fill="#000000"/><text fill="#000000" font-family="sans-serif" font-size="14" lengthAdjust="spacing" textLength="91" x="379.5" y="462.2132">FakeDefinition</text><line style="stroke:#181818;stroke-width:0.5;" x1="351.5" x2="472.5" y1="472.4847" y2="472.4847"/><line style="stroke:#181818;stroke-width:0.5;" x1="351.5" x2="472.5" y1="480.4847" y2="480.4847"/></g><!--MD5=[9b4de504215638550a8bb9c080b7ee00]
class Justification--><g id="elem_Justification"><rect codeLine="14" fill="#F1F1F1" height="48" id="Justification" rx="2.5" ry="2.5" style="stroke:#181818;stroke-width:0.5;" width="105" x="438.5" y="565.9847"/><ellipse cx="453.5" cy="581.9847" fill="#ADD1B2" rx="11" ry="11" style="stroke:#181818;stroke-width:1.0;"/><path d="M456.2656,577.8597 Q456.4219,577.6409 456.6094,577.5315 Q456.7969,577.4222 457.0156,577.4222 Q457.3906,577.4222 457.625,577.6878 Q457.8594,577.9378 457.8594,578.5472 L457.8594,580.0003 Q457.8594,580.6097 457.625,580.8753 Q457.3906,581.1409 457.0156,581.1409 Q456.6719,581.1409 456.4688,580.9378 Q456.2656,580.7503 456.1563,580.2347 Q456.1094,579.8753 455.9219,579.6878 Q455.5938,579.3128 454.9844,579.094 Q454.375,578.8753 453.75,578.8753 Q452.9844,578.8753 452.3438,579.2034 Q451.7188,579.5315 451.2188,580.2815 Q450.7344,581.0315 450.7344,582.0628 L450.7344,583.1565 Q450.7344,584.3909 451.625,585.219 Q452.5156,586.0315 454.1094,586.0315 Q455.0469,586.0315 455.7031,585.7815 Q456.0938,585.6253 456.5156,585.1878 Q456.7813,584.9222 456.9219,584.844 Q457.0781,584.7659 457.2813,584.7659 Q457.6094,584.7659 457.8594,585.0315 Q458.125,585.2815 458.125,585.6253 Q458.125,585.969 457.7813,586.3753 Q457.2813,586.9534 456.4844,587.2815 Q455.4063,587.7347 454.1094,587.7347 Q452.5938,587.7347 451.3906,587.1097 Q450.4063,586.6097 449.7188,585.5472 Q449.0313,584.469 449.0313,583.1878 L449.0313,582.0315 Q449.0313,580.7034 449.6406,579.5628 Q450.2656,578.4065 451.3594,577.7972 Q452.4531,577.1722 453.6875,577.1722 Q454.4219,577.1722 455.0625,577.344 Q455.7188,577.5003 456.2656,577.8597 Z " fill="#000000"/><text fill="#000000" font-family="sans-serif" font-size="14" lengthAdjust="spacing" textLength="73" x="467.5" y="587.7132">Justification</text><line style="stroke:#181818;stroke-width:0.5;" x1="439.5" x2="542.5" y1="597.9847" y2="597.9847"/><line style="stroke:#181818;stroke-width:0.5;" x1="439.5" x2="542.5" y1="605.9847" y2="605.9847"/></g><!--MD5=[226b129f95de2b91bbf78d545493e57e]
class RealJustification--><g id="elem_RealJustification"><rect codeLine="16" fill="#F1F1F1" height="48" id="RealJustification" rx="2.5" ry="2.5" style="stroke:#181818;stroke-width:0.5;" width="134" x="339" y="691.4847"/><ellipse cx="354" cy="707.4847" fill="#ADD1B2" rx="11" ry="11" style="stroke:#181818;stroke-width:1.0;"/><path d="M356.7656,703.3597 Q356.9219,703.1409 357.1094,703.0315 Q357.2969,702.9222 357.5156,702.9222 Q357.8906,702.9222 358.125,703.1878 Q358.3594,703.4378 358.3594,704.0472 L358.3594,705.5003 Q358.3594,706.1097 358.125,706.3753 Q357.8906,706.6409 357.5156,706.6409 Q357.1719,706.6409 356.9688,706.4378 Q356.7656,706.2503 356.6563,705.7347 Q356.6094,705.3753 356.4219,705.1878 Q356.0938,704.8128 355.4844,704.594 Q354.875,704.3753 354.25,704.3753 Q353.4844,704.3753 352.8438,704.7034 Q352.2188,705.0315 351.7188,705.7815 Q351.2344,706.5315 351.2344,707.5628 L351.2344,708.6565 Q351.2344,709.8909 352.125,710.719 Q353.0156,711.5315 354.6094,711.5315 Q355.5469,711.5315 356.2031,711.2815 Q356.5938,711.1253 357.0156,710.6878 Q357.2813,710.4222 357.4219,710.344 Q357.5781,710.2659 357.7813,710.2659 Q358.1094,710.2659 358.3594,710.5315 Q358.625,710.7815 358.625,711.1253 Q358.625,711.469 358.2813,711.8753 Q357.7813,712.4534 356.9844,712.7815 Q355.9063,713.2347 354.6094,713.2347 Q353.0938,713.2347 351.8906,712.6097 Q350.9063,712.1097 350.2188,711.0472 Q349.5313,709.969 349.5313,708.6878 L349.5313,707.5315 Q349.5313,706.2034 350.1406,705.0628 Q350.7656,703.9065 351.8594,703.2972 Q352.9531,702.6722 354.1875,702.6722 Q354.9219,702.6722 355.5625,702.844 Q356.2188,703.0003 356.7656,703.3597 Z " fill="#000000"/><text fill="#000000" font-family="sans-serif" font-size="14" lengthAdjust="spacing" textLength="102" x="368" y="713.2132">RealJustification</text><line style="stroke:#181818;stroke-width:0.5;" x1="340" x2="472" y1="723.4847" y2="723.4847"/><line style="stroke:#181818;stroke-width:0.5;" x1="340" x2="472" y1="731.4847" y2="731.4847"/></g><!--MD5=[7a6687b95ddf01a258e56cc7a885583f]
class FakeJustification--><g id="elem_FakeJustification"><rect codeLine="18" fill="#F1F1F1" height="48" id="FakeJustification" rx="2.5" ry="2.5" style="stroke:#181818;stroke-width:0.5;" width="137" x="508.5" y="691.4847"/><ellipse cx="523.5" cy="707.4847" fill="#ADD1B2" rx="11" ry="11" style="stroke:#181818;stroke-width:1.0;"/><path d="M526.2656,703.3597 Q526.4219,703.1409 526.6094,703.0315 Q526.7969,702.9222 527.0156,702.9222 Q527.3906,702.9222 527.625,703.1878 Q527.8594,703.4378 527.8594,704.0472 L527.8594,705.5003 Q527.8594,706.1097 527.625,706.3753 Q527.3906,706.6409 527.0156,706.6409 Q526.6719,706.6409 526.4688,706.4378 Q526.2656,706.2503 526.1563,705.7347 Q526.1094,705.3753 525.9219,705.1878 Q525.5938,704.8128 524.9844,704.594 Q524.375,704.3753 523.75,704.3753 Q522.9844,704.3753 522.3438,704.7034 Q521.7188,705.0315 521.2188,705.7815 Q520.7344,706.5315 520.7344,707.5628 L520.7344,708.6565 Q520.7344,709.8909 521.625,710.719 Q522.5156,711.5315 524.1094,711.5315 Q525.0469,711.5315 525.7031,711.2815 Q526.0938,711.1253 526.5156,710.6878 Q526.7813,710.4222 526.9219,710.344 Q527.0781,710.2659 527.2813,710.2659 Q527.6094,710.2659 527.8594,710.5315 Q528.125,710.7815 528.125,711.1253 Q528.125,711.469 527.7813,711.8753 Q527.2813,712.4534 526.4844,712.7815 Q525.4063,713.2347 524.1094,713.2347 Q522.5938,713.2347 521.3906,712.6097 Q520.4063,712.1097 519.7188,711.0472 Q519.0313,709.969 519.0313,708.6878 L519.0313,707.5315 Q519.0313,706.2034 519.6406,705.0628 Q520.2656,703.9065 521.3594,703.2972 Q522.4531,702.6722 523.6875,702.6722 Q524.4219,702.6722 525.0625,702.844 Q525.7188,703.0003 526.2656,703.3597 Z " fill="#000000"/><text fill="#000000" font-family="sans-serif" font-size="14" lengthAdjust="spacing" textLength="105" x="537.5" y="713.2132">FakeJustification</text><line style="stroke:#181818;stroke-width:0.5;" x1="509.5" x2="644.5" y1="723.4847" y2="723.4847"/><line style="stroke:#181818;stroke-width:0.5;" x1="509.5" x2="644.5" y1="731.4847" y2="731.4847"/></g><!--MD5=[534474e9f05b14d7c70186ae077f30e0]
class Relation--><g id="elem_Relation"><rect codeLine="20" fill="#F1F1F1" height="48" id="Relation" rx="2.5" ry="2.5" style="stroke:#181818;stroke-width:0.5;" width="84" x="199" y="305.9847"/><ellipse cx="214" cy="321.9847" fill="#ADD1B2" rx="11" ry="11" style="stroke:#181818;stroke-width:1.0;"/><path d="M216.7656,317.8597 Q216.9219,317.6409 217.1094,317.5315 Q217.2969,317.4222 217.5156,317.4222 Q217.8906,317.4222 218.125,317.6878 Q218.3594,317.9378 218.3594,318.5472 L218.3594,320.0003 Q218.3594,320.6097 218.125,320.8753 Q217.8906,321.1409 217.5156,321.1409 Q217.1719,321.1409 216.9688,320.9378 Q216.7656,320.7503 216.6563,320.2347 Q216.6094,319.8753 216.4219,319.6878 Q216.0938,319.3128 215.4844,319.094 Q214.875,318.8753 214.25,318.8753 Q213.4844,318.8753 212.8438,319.2034 Q212.2188,319.5315 211.7188,320.2815 Q211.2344,321.0315 211.2344,322.0628 L211.2344,323.1565 Q211.2344,324.3909 212.125,325.219 Q213.0156,326.0315 214.6094,326.0315 Q215.5469,326.0315 216.2031,325.7815 Q216.5938,325.6253 217.0156,325.1878 Q217.2813,324.9222 217.4219,324.844 Q217.5781,324.7659 217.7813,324.7659 Q218.1094,324.7659 218.3594,325.0315 Q218.625,325.2815 218.625,325.6253 Q218.625,325.969 218.2813,326.3753 Q217.7813,326.9534 216.9844,327.2815 Q215.9063,327.7347 214.6094,327.7347 Q213.0938,327.7347 211.8906,327.1097 Q210.9063,326.6097 210.2188,325.5472 Q209.5313,324.469 209.5313,323.1878 L209.5313,322.0315 Q209.5313,320.7034 210.1406,319.5628 Q210.7656,318.4065 211.8594,317.7972 Q212.9531,317.1722 214.1875,317.1722 Q214.9219,317.1722 215.5625,317.344 Q216.2188,317.5003 216.7656,317.8597 Z " fill="#000000"/><text fill="#000000" font-family="sans-serif" font-size="14" lengthAdjust="spacing" textLength="52" x="228" y="327.7132">Relation</text><line style="stroke:#181818;stroke-width:0.5;" x1="200" x2="282" y1="337.9847" y2="337.9847"/><line style="stroke:#181818;stroke-width:0.5;" x1="200" x2="282" y1="345.9847" y2="345.9847"/></g><!--MD5=[9c239722e256878d27dcbb07783cc14f]
class Classification--><g id="elem_Classification"><rect codeLine="22" fill="#F1F1F1" height="48" id="Classification" rx="2.5" ry="2.5" style="stroke:#181818;stroke-width:0.5;" width="115" x="200.5" y="440.4847"/><ellipse cx="215.5" cy="456.4847" fill="#ADD1B2" rx="11" ry="11" style="stroke:#181818;stroke-width:1.0;"/><path d="M218.2656,452.3597 Q218.4219,452.1409 218.6094,452.0315 Q218.7969,451.9222 219.0156,451.9222 Q219.3906,451.9222 219.625,452.1878 Q219.8594,452.4378 219.8594,453.0472 L219.8594,454.5003 Q219.8594,455.1097 219.625,455.3753 Q219.3906,455.6409 219.0156,455.6409 Q218.6719,455.6409 218.4688,455.4378 Q218.2656,455.2503 218.1563,454.7347 Q218.1094,454.3753 217.9219,454.1878 Q217.5938,453.8128 216.9844,453.594 Q216.375,453.3753 215.75,453.3753 Q214.9844,453.3753 214.3438,453.7034 Q213.7188,454.0315 213.2188,454.7815 Q212.7344,455.5315 212.7344,456.5628 L212.7344,457.6565 Q212.7344,458.8909 213.625,459.719 Q214.5156,460.5315 216.1094,460.5315 Q217.0469,460.5315 217.7031,460.2815 Q218.0938,460.1253 218.5156,459.6878 Q218.7813,459.4222 218.9219,459.344 Q219.0781,459.2659 219.2813,459.2659 Q219.6094,459.2659 219.8594,459.5315 Q220.125,459.7815 220.125,460.1253 Q220.125,460.469 219.7813,460.8753 Q219.2813,461.4534 218.4844,461.7815 Q217.4063,462.2347 216.1094,462.2347 Q214.5938,462.2347 213.3906,461.6097 Q212.4063,461.1097 211.7188,460.0472 Q211.0313,458.969 211.0313,457.6878 L211.0313,456.5315 Q211.0313,455.2034 211.6406,454.0628 Q212.2656,452.9065 213.3594,452.2972 Q214.4531,451.6722 215.6875,451.6722 Q216.4219,451.6722 217.0625,451.844 Q217.7188,452.0003 218.2656,452.3597 Z " fill="#000000"/><text fill="#000000" font-family="sans-serif" font-size="14" lengthAdjust="spacing" textLength="83" x="229.5" y="462.2132">Classification</text><line style="stroke:#181818;stroke-width:0.5;" x1="201.5" x2="314.5" y1="472.4847" y2="472.4847"/><line style="stroke:#181818;stroke-width:0.5;" x1="201.5" x2="314.5" y1="480.4847" y2="480.4847"/></g><!--MD5=[251454e98c15f29849fb35b1904d0020]
class Composition--><g id="elem_Composition"><rect codeLine="24" fill="#F1F1F1" height="48" id="Composition" rx="2.5" ry="2.5" style="stroke:#181818;stroke-width:0.5;" width="110" x="55" y="440.4847"/><ellipse cx="70" cy="456.4847" fill="#ADD1B2" rx="11" ry="11" style="stroke:#181818;stroke-width:1.0;"/><path d="M72.7656,452.3597 Q72.9219,452.1409 73.1094,452.0315 Q73.2969,451.9222 73.5156,451.9222 Q73.8906,451.9222 74.125,452.1878 Q74.3594,452.4378 74.3594,453.0472 L74.3594,454.5003 Q74.3594,455.1097 74.125,455.3753 Q73.8906,455.6409 73.5156,455.6409 Q73.1719,455.6409 72.9688,455.4378 Q72.7656,455.2503 72.6563,454.7347 Q72.6094,454.3753 72.4219,454.1878 Q72.0938,453.8128 71.4844,453.594 Q70.875,453.3753 70.25,453.3753 Q69.4844,453.3753 68.8438,453.7034 Q68.2188,454.0315 67.7188,454.7815 Q67.2344,455.5315 67.2344,456.5628 L67.2344,457.6565 Q67.2344,458.8909 68.125,459.719 Q69.0156,460.5315 70.6094,460.5315 Q71.5469,460.5315 72.2031,460.2815 Q72.5938,460.1253 73.0156,459.6878 Q73.2813,459.4222 73.4219,459.344 Q73.5781,459.2659 73.7813,459.2659 Q74.1094,459.2659 74.3594,459.5315 Q74.625,459.7815 74.625,460.1253 Q74.625,460.469 74.2813,460.8753 Q73.7813,461.4534 72.9844,461.7815 Q71.9063,462.2347 70.6094,462.2347 Q69.0938,462.2347 67.8906,461.6097 Q66.9063,461.1097 66.2188,460.0472 Q65.5313,458.969 65.5313,457.6878 L65.5313,456.5315 Q65.5313,455.2034 66.1406,454.0628 Q66.7656,452.9065 67.8594,452.2972 Q68.9531,451.6722 70.1875,451.6722 Q70.9219,451.6722 71.5625,451.844 Q72.2188,452.0003 72.7656,452.3597 Z " fill="#000000"/><text fill="#000000" font-family="sans-serif" font-size="14" lengthAdjust="spacing" textLength="78" x="84" y="462.2132">Composition</text><line style="stroke:#181818;stroke-width:0.5;" x1="56" x2="164" y1="472.4847" y2="472.4847"/><line style="stroke:#181818;stroke-width:0.5;" x1="56" x2="164" y1="480.4847" y2="480.4847"/></g><!--MD5=[eedde156c9dded963040b22578af45fa]
class Level--><g id="elem_Level"><rect codeLine="26" fill="#F1F1F1" height="48" id="Level" rx="2.5" ry="2.5" style="stroke:#181818;stroke-width:0.5;" width="66" x="1322" y="10.4847"/><ellipse cx="1337" cy="26.4847" fill="#ADD1B2" rx="11" ry="11" style="stroke:#181818;stroke-width:1.0;"/><path d="M1339.7656,22.3597 Q1339.9219,22.1409 1340.1094,22.0315 Q1340.2969,21.9222 1340.5156,21.9222 Q1340.8906,21.9222 1341.125,22.1878 Q1341.3594,22.4378 1341.3594,23.0472 L1341.3594,24.5003 Q1341.3594,25.1097 1341.125,25.3753 Q1340.8906,25.6409 1340.5156,25.6409 Q1340.1719,25.6409 1339.9688,25.4378 Q1339.7656,25.2503 1339.6563,24.7347 Q1339.6094,24.3753 1339.4219,24.1878 Q1339.0938,23.8128 1338.4844,23.594 Q1337.875,23.3753 1337.25,23.3753 Q1336.4844,23.3753 1335.8438,23.7034 Q1335.2188,24.0315 1334.7188,24.7815 Q1334.2344,25.5315 1334.2344,26.5628 L1334.2344,27.6565 Q1334.2344,28.8909 1335.125,29.719 Q1336.0156,30.5315 1337.6094,30.5315 Q1338.5469,30.5315 1339.2031,30.2815 Q1339.5938,30.1253 1340.0156,29.6878 Q1340.2813,29.4222 1340.4219,29.344 Q1340.5781,29.2659 1340.7813,29.2659 Q1341.1094,29.2659 1341.3594,29.5315 Q1341.625,29.7815 1341.625,30.1253 Q1341.625,30.469 1341.2813,30.8753 Q1340.7813,31.4534 1339.9844,31.7815 Q1338.9063,32.2347 1337.6094,32.2347 Q1336.0938,32.2347 1334.8906,31.6097 Q1333.9063,31.1097 1333.2188,30.0472 Q1332.5313,28.969 1332.5313,27.6878 L1332.5313,26.5315 Q1332.5313,25.2034 1333.1406,24.0628 Q1333.7656,22.9065 1334.8594,22.2972 Q1335.9531,21.6722 1337.1875,21.6722 Q1337.9219,21.6722 1338.5625,21.844 Q1339.2188,22.0003 1339.7656,22.3597 Z " fill="#000000"/><text fill="#000000" font-family="sans-serif" font-size="14" lengthAdjust="spacing" textLength="34" x="1351" y="32.2132">Level</text><line style="stroke:#181818;stroke-width:0.5;" x1="1323" x2="1387" y1="42.4847" y2="42.4847"/><line style="stroke:#181818;stroke-width:0.5;" x1="1323" x2="1387" y1="50.4847" y2="50.4847"/></g><!--MD5=[a273cb2d535cd0db32a65a079a20fa3f]
class Primary--><g id="elem_Primary"><rect codeLine="28" fill="#F1F1F1" height="65.6094" id="Primary" rx="2.5" ry="2.5" style="stroke:#181818;stroke-width:0.5;" width="90" x="1766" y="135.9847"/><ellipse cx="1785.5" cy="151.9847" fill="#ADD1B2" rx="11" ry="11" style="stroke:#181818;stroke-width:1.0;"/><path d="M1788.2656,147.8597 Q1788.4219,147.6409 1788.6094,147.5315 Q1788.7969,147.4222 1789.0156,147.4222 Q1789.3906,147.4222 1789.625,147.6878 Q1789.8594,147.9378 1789.8594,148.5472 L1789.8594,150.0003 Q1789.8594,150.6097 1789.625,150.8753 Q1789.3906,151.1409 1789.0156,151.1409 Q1788.6719,151.1409 1788.4688,150.9378 Q1788.2656,150.7503 1788.1563,150.2347 Q1788.1094,149.8753 1787.9219,149.6878 Q1787.5938,149.3128 1786.9844,149.094 Q1786.375,148.8753 1785.75,148.8753 Q1784.9844,148.8753 1784.3438,149.2034 Q1783.7188,149.5315 1783.2188,150.2815 Q1782.7344,151.0315 1782.7344,152.0628 L1782.7344,153.1565 Q1782.7344,154.3909 1783.625,155.219 Q1784.5156,156.0315 1786.1094,156.0315 Q1787.0469,156.0315 1787.7031,155.7815 Q1788.0938,155.6253 1788.5156,155.1878 Q1788.7813,154.9222 1788.9219,154.844 Q1789.0781,154.7659 1789.2813,154.7659 Q1789.6094,154.7659 1789.8594,155.0315 Q1790.125,155.2815 1790.125,155.6253 Q1790.125,155.969 1789.7813,156.3753 Q1789.2813,156.9534 1788.4844,157.2815 Q1787.4063,157.7347 1786.1094,157.7347 Q1784.5938,157.7347 1783.3906,157.1097 Q1782.4063,156.6097 1781.7188,155.5472 Q1781.0313,154.469 1781.0313,153.1878 L1781.0313,152.0315 Q1781.0313,150.7034 1781.6406,149.5628 Q1782.2656,148.4065 1783.3594,147.7972 Q1784.4531,147.1722 1785.6875,147.1722 Q1786.4219,147.1722 1787.0625,147.344 Q1787.7188,147.5003 1788.2656,147.8597 Z " fill="#000000"/><text fill="#000000" font-family="sans-serif" font-size="14" lengthAdjust="spacing" textLength="48" x="1800.5" y="157.7132">Primary</text><line style="stroke:#181818;stroke-width:0.5;" x1="1767" x2="1855" y1="167.9847" y2="167.9847"/><text fill="#000000" font-family="sans-serif" font-size="14" lengthAdjust="spacing" textLength="78" x="1772" y="186.5179">withKeyword</text><line style="stroke:#181818;stroke-width:0.5;" x1="1767" x2="1855" y1="193.594" y2="193.594"/></g><!--MD5=[322ff4561961666878e676a719041932]
class Secundary--><g id="elem_Secundary"><rect codeLine="32" fill="#F1F1F1" height="83.2188" id="Secundary" rx="2.5" ry="2.5" style="stroke:#181818;stroke-width:0.5;" width="100" x="1305" y="127.4847"/><ellipse cx="1320" cy="143.4847" fill="#ADD1B2" rx="11" ry="11" style="stroke:#181818;stroke-width:1.0;"/><path d="M1322.7656,139.3597 Q1322.9219,139.1409 1323.1094,139.0315 Q1323.2969,138.9222 1323.5156,138.9222 Q1323.8906,138.9222 1324.125,139.1878 Q1324.3594,139.4378 1324.3594,140.0472 L1324.3594,141.5003 Q1324.3594,142.1097 1324.125,142.3753 Q1323.8906,142.6409 1323.5156,142.6409 Q1323.1719,142.6409 1322.9688,142.4378 Q1322.7656,142.2503 1322.6563,141.7347 Q1322.6094,141.3753 1322.4219,141.1878 Q1322.0938,140.8128 1321.4844,140.594 Q1320.875,140.3753 1320.25,140.3753 Q1319.4844,140.3753 1318.8438,140.7034 Q1318.2188,141.0315 1317.7188,141.7815 Q1317.2344,142.5315 1317.2344,143.5628 L1317.2344,144.6565 Q1317.2344,145.8909 1318.125,146.719 Q1319.0156,147.5315 1320.6094,147.5315 Q1321.5469,147.5315 1322.2031,147.2815 Q1322.5938,147.1253 1323.0156,146.6878 Q1323.2813,146.4222 1323.4219,146.344 Q1323.5781,146.2659 1323.7813,146.2659 Q1324.1094,146.2659 1324.3594,146.5315 Q1324.625,146.7815 1324.625,147.1253 Q1324.625,147.469 1324.2813,147.8753 Q1323.7813,148.4534 1322.9844,148.7815 Q1321.9063,149.2347 1320.6094,149.2347 Q1319.0938,149.2347 1317.8906,148.6097 Q1316.9063,148.1097 1316.2188,147.0472 Q1315.5313,145.969 1315.5313,144.6878 L1315.5313,143.5315 Q1315.5313,142.2034 1316.1406,141.0628 Q1316.7656,139.9065 1317.8594,139.2972 Q1318.9531,138.6722 1320.1875,138.6722 Q1320.9219,138.6722 1321.5625,138.844 Q1322.2188,139.0003 1322.7656,139.3597 Z " fill="#000000"/><text fill="#000000" font-family="sans-serif" font-size="14" lengthAdjust="spacing" textLength="68" x="1334" y="149.2132">Secundary</text><line style="stroke:#181818;stroke-width:0.5;" x1="1306" x2="1404" y1="159.4847" y2="159.4847"/><text fill="#000000" font-family="sans-serif" font-size="14" lengthAdjust="spacing" textLength="78" x="1311" y="178.0179">withKeyword</text><text fill="#000000" font-family="sans-serif" font-size="14" lengthAdjust="spacing" textLength="83" x="1311" y="195.6272">withDefinition</text><line style="stroke:#181818;stroke-width:0.5;" x1="1306" x2="1404" y1="202.7034" y2="202.7034"/></g><!--MD5=[ea4af6a7584cddf1924ee10cf7a08ed2]
class Tertiary--><g id="elem_Tertiary"><rect codeLine="37" fill="#F1F1F1" height="100.8281" id="Tertiary" rx="2.5" ry="2.5" style="stroke:#181818;stroke-width:0.5;" width="109" x="2085.5" y="118.4847"/><ellipse cx="2113.1" cy="134.4847" fill="#ADD1B2" rx="11" ry="11" style="stroke:#181818;stroke-width:1.0;"/><path d="M2115.8656,130.3597 Q2116.0219,130.1409 2116.2094,130.0315 Q2116.3969,129.9222 2116.6156,129.9222 Q2116.9906,129.9222 2117.225,130.1878 Q2117.4594,130.4378 2117.4594,131.0472 L2117.4594,132.5003 Q2117.4594,133.1097 2117.225,133.3753 Q2116.9906,133.6409 2116.6156,133.6409 Q2116.2719,133.6409 2116.0688,133.4378 Q2115.8656,133.2503 2115.7563,132.7347 Q2115.7094,132.3753 2115.5219,132.1878 Q2115.1938,131.8128 2114.5844,131.594 Q2113.975,131.3753 2113.35,131.3753 Q2112.5844,131.3753 2111.9438,131.7034 Q2111.3188,132.0315 2110.8188,132.7815 Q2110.3344,133.5315 2110.3344,134.5628 L2110.3344,135.6565 Q2110.3344,136.8909 2111.225,137.719 Q2112.1156,138.5315 2113.7094,138.5315 Q2114.6469,138.5315 2115.3031,138.2815 Q2115.6938,138.1253 2116.1156,137.6878 Q2116.3813,137.4222 2116.5219,137.344 Q2116.6781,137.2659 2116.8813,137.2659 Q2117.2094,137.2659 2117.4594,137.5315 Q2117.725,137.7815 2117.725,138.1253 Q2117.725,138.469 2117.3813,138.8753 Q2116.8813,139.4534 2116.0844,139.7815 Q2115.0063,140.2347 2113.7094,140.2347 Q2112.1938,140.2347 2110.9906,139.6097 Q2110.0063,139.1097 2109.3188,138.0472 Q2108.6313,136.969 2108.6313,135.6878 L2108.6313,134.5315 Q2108.6313,133.2034 2109.2406,132.0628 Q2109.8656,130.9065 2110.9594,130.2972 Q2112.0531,129.6722 2113.2875,129.6722 Q2114.0219,129.6722 2114.6625,129.844 Q2115.3188,130.0003 2115.8656,130.3597 Z " fill="#000000"/><text fill="#000000" font-family="sans-serif" font-size="14" lengthAdjust="spacing" textLength="49" x="2129.9" y="140.2132">Tertiary</text><line style="stroke:#181818;stroke-width:0.5;" x1="2086.5" x2="2193.5" y1="150.4847" y2="150.4847"/><text fill="#000000" font-family="sans-serif" font-size="14" lengthAdjust="spacing" textLength="78" x="2091.5" y="169.0179">withKeyword</text><text fill="#000000" font-family="sans-serif" font-size="14" lengthAdjust="spacing" textLength="83" x="2091.5" y="186.6272">withDefinition</text><text fill="#000000" font-family="sans-serif" font-size="14" lengthAdjust="spacing" textLength="97" x="2091.5" y="204.2366">withJustification</text><line style="stroke:#181818;stroke-width:0.5;" x1="2086.5" x2="2193.5" y1="211.3128" y2="211.3128"/></g><!--MD5=[a8cb140b744031715f533a7b2982ca3a]
class DefinitionQuestion--><g id="elem_DefinitionQuestion"><rect codeLine="43" fill="#F1F1F1" height="100.8281" id="DefinitionQuestion" rx="2.5" ry="2.5" style="stroke:#181818;stroke-width:0.5;" width="174" x="1724" y="279.4847"/><ellipse cx="1750.7" cy="295.4847" fill="#ADD1B2" rx="11" ry="11" style="stroke:#181818;stroke-width:1.0;"/><path d="M1753.4656,291.3597 Q1753.6219,291.1409 1753.8094,291.0315 Q1753.9969,290.9222 1754.2156,290.9222 Q1754.5906,290.9222 1754.825,291.1878 Q1755.0594,291.4378 1755.0594,292.0472 L1755.0594,293.5003 Q1755.0594,294.1097 1754.825,294.3753 Q1754.5906,294.6409 1754.2156,294.6409 Q1753.8719,294.6409 1753.6688,294.4378 Q1753.4656,294.2503 1753.3563,293.7347 Q1753.3094,293.3753 1753.1219,293.1878 Q1752.7938,292.8128 1752.1844,292.594 Q1751.575,292.3753 1750.95,292.3753 Q1750.1844,292.3753 1749.5438,292.7034 Q1748.9188,293.0315 1748.4188,293.7815 Q1747.9344,294.5315 1747.9344,295.5628 L1747.9344,296.6565 Q1747.9344,297.8909 1748.825,298.719 Q1749.7156,299.5315 1751.3094,299.5315 Q1752.2469,299.5315 1752.9031,299.2815 Q1753.2938,299.1253 1753.7156,298.6878 Q1753.9813,298.4222 1754.1219,298.344 Q1754.2781,298.2659 1754.4813,298.2659 Q1754.8094,298.2659 1755.0594,298.5315 Q1755.325,298.7815 1755.325,299.1253 Q1755.325,299.469 1754.9813,299.8753 Q1754.4813,300.4534 1753.6844,300.7815 Q1752.6063,301.2347 1751.3094,301.2347 Q1749.7938,301.2347 1748.5906,300.6097 Q1747.6063,300.1097 1746.9188,299.0472 Q1746.2313,297.969 1746.2313,296.6878 L1746.2313,295.5315 Q1746.2313,294.2034 1746.8406,293.0628 Q1747.4656,291.9065 1748.5594,291.2972 Q1749.6531,290.6722 1750.8875,290.6722 Q1751.6219,290.6722 1752.2625,290.844 Q1752.9188,291.0003 1753.4656,291.3597 Z " fill="#000000"/><text fill="#000000" font-family="sans-serif" font-size="14" lengthAdjust="spacing" textLength="116" x="1767.3" y="301.2132">DefinitionQuestion</text><line style="stroke:#181818;stroke-width:0.5;" x1="1725" x2="1897" y1="311.4847" y2="311.4847"/><ellipse cx="1735" cy="325.7893" fill="none" rx="3" ry="3" style="stroke:#038048;stroke-width:1.0;"/><text fill="#000000" font-family="sans-serif" font-size="14" lengthAdjust="spacing" textLength="66" x="1744" y="330.0179">statement:</text><text fill="#000000" font-family="sans-serif" font-size="14" lengthAdjust="spacing" textLength="148" x="1744" y="347.6272">"¿Qué es KEYWORD?"</text><ellipse cx="1735" cy="361.0081" fill="none" rx="3" ry="3" style="stroke:#038048;stroke-width:1.0;"/><text fill="#000000" font-family="sans-serif" font-size="14" lengthAdjust="spacing" textLength="93" x="1744" y="365.2366">1 open answer</text><line style="stroke:#181818;stroke-width:0.5;" x1="1725" x2="1897" y1="372.3128" y2="372.3128"/></g><!--MD5=[bd8fe2044a8806fe1de229cb7e95533c]
class ReverseDefinitionQuestion--><g id="elem_ReverseDefinitionQuestion"><rect codeLine="49" fill="#F1F1F1" height="100.8281" id="ReverseDefinitionQuestion" rx="2.5" ry="2.5" style="stroke:#181818;stroke-width:0.5;" width="245" x="1068.5" y="279.4847"/><ellipse cx="1103.3" cy="295.4847" fill="#ADD1B2" rx="11" ry="11" style="stroke:#181818;stroke-width:1.0;"/><path d="M1106.0656,291.3597 Q1106.2219,291.1409 1106.4094,291.0315 Q1106.5969,290.9222 1106.8156,290.9222 Q1107.1906,290.9222 1107.425,291.1878 Q1107.6594,291.4378 1107.6594,292.0472 L1107.6594,293.5003 Q1107.6594,294.1097 1107.425,294.3753 Q1107.1906,294.6409 1106.8156,294.6409 Q1106.4719,294.6409 1106.2688,294.4378 Q1106.0656,294.2503 1105.9563,293.7347 Q1105.9094,293.3753 1105.7219,293.1878 Q1105.3938,292.8128 1104.7844,292.594 Q1104.175,292.3753 1103.55,292.3753 Q1102.7844,292.3753 1102.1438,292.7034 Q1101.5188,293.0315 1101.0188,293.7815 Q1100.5344,294.5315 1100.5344,295.5628 L1100.5344,296.6565 Q1100.5344,297.8909 1101.425,298.719 Q1102.3156,299.5315 1103.9094,299.5315 Q1104.8469,299.5315 1105.5031,299.2815 Q1105.8938,299.1253 1106.3156,298.6878 Q1106.5813,298.4222 1106.7219,298.344 Q1106.8781,298.2659 1107.0813,298.2659 Q1107.4094,298.2659 1107.6594,298.5315 Q1107.925,298.7815 1107.925,299.1253 Q1107.925,299.469 1107.5813,299.8753 Q1107.0813,300.4534 1106.2844,300.7815 Q1105.2063,301.2347 1103.9094,301.2347 Q1102.3938,301.2347 1101.1906,300.6097 Q1100.2063,300.1097 1099.5188,299.0472 Q1098.8313,297.969 1098.8313,296.6878 L1098.8313,295.5315 Q1098.8313,294.2034 1099.4406,293.0628 Q1100.0656,291.9065 1101.1594,291.2972 Q1102.2531,290.6722 1103.4875,290.6722 Q1104.2219,290.6722 1104.8625,290.844 Q1105.5188,291.0003 1106.0656,291.3597 Z " fill="#000000"/><text fill="#000000" font-family="sans-serif" font-size="14" lengthAdjust="spacing" textLength="169" x="1121.7" y="301.2132">ReverseDefinitionQuestion</text><line style="stroke:#181818;stroke-width:0.5;" x1="1069.5" x2="1312.5" y1="311.4847" y2="311.4847"/><ellipse cx="1079.5" cy="325.7893" fill="none" rx="3" ry="3" style="stroke:#038048;stroke-width:1.0;"/><text fill="#000000" font-family="sans-serif" font-size="14" lengthAdjust="spacing" textLength="66" x="1088.5" y="330.0179">statement:</text><text fill="#000000" font-family="sans-serif" font-size="14" lengthAdjust="spacing" textLength="219" x="1088.5" y="347.6272">"¿Qué es esta REALDEFINITION?"</text><ellipse cx="1079.5" cy="361.0081" fill="none" rx="3" ry="3" style="stroke:#038048;stroke-width:1.0;"/><text fill="#000000" font-family="sans-serif" font-size="14" lengthAdjust="spacing" textLength="93" x="1088.5" y="365.2366">1 open answer</text><line style="stroke:#181818;stroke-width:0.5;" x1="1069.5" x2="1312.5" y1="372.3128" y2="372.3128"/></g><!--MD5=[867bd5d96bb63ee04ed363da9aae7685]
class JustificationQuestion--><g id="elem_JustificationQuestion"><rect codeLine="55" fill="#F1F1F1" height="100.8281" id="JustificationQuestion" rx="2.5" ry="2.5" style="stroke:#181818;stroke-width:0.5;" width="340" x="1349" y="279.4847"/><ellipse cx="1449.75" cy="295.4847" fill="#ADD1B2" rx="11" ry="11" style="stroke:#181818;stroke-width:1.0;"/><path d="M1452.5156,291.3597 Q1452.6719,291.1409 1452.8594,291.0315 Q1453.0469,290.9222 1453.2656,290.9222 Q1453.6406,290.9222 1453.875,291.1878 Q1454.1094,291.4378 1454.1094,292.0472 L1454.1094,293.5003 Q1454.1094,294.1097 1453.875,294.3753 Q1453.6406,294.6409 1453.2656,294.6409 Q1452.9219,294.6409 1452.7188,294.4378 Q1452.5156,294.2503 1452.4063,293.7347 Q1452.3594,293.3753 1452.1719,293.1878 Q1451.8438,292.8128 1451.2344,292.594 Q1450.625,292.3753 1450,292.3753 Q1449.2344,292.3753 1448.5938,292.7034 Q1447.9688,293.0315 1447.4688,293.7815 Q1446.9844,294.5315 1446.9844,295.5628 L1446.9844,296.6565 Q1446.9844,297.8909 1447.875,298.719 Q1448.7656,299.5315 1450.3594,299.5315 Q1451.2969,299.5315 1451.9531,299.2815 Q1452.3438,299.1253 1452.7656,298.6878 Q1453.0313,298.4222 1453.1719,298.344 Q1453.3281,298.2659 1453.5313,298.2659 Q1453.8594,298.2659 1454.1094,298.5315 Q1454.375,298.7815 1454.375,299.1253 Q1454.375,299.469 1454.0313,299.8753 Q1453.5313,300.4534 1452.7344,300.7815 Q1451.6563,301.2347 1450.3594,301.2347 Q1448.8438,301.2347 1447.6406,300.6097 Q1446.6563,300.1097 1445.9688,299.0472 Q1445.2813,297.969 1445.2813,296.6878 L1445.2813,295.5315 Q1445.2813,294.2034 1445.8906,293.0628 Q1446.5156,291.9065 1447.6094,291.2972 Q1448.7031,290.6722 1449.9375,290.6722 Q1450.6719,290.6722 1451.3125,290.844 Q1451.9688,291.0003 1452.5156,291.3597 Z " fill="#000000"/><text fill="#000000" font-family="sans-serif" font-size="14" lengthAdjust="spacing" textLength="130" x="1470.25" y="301.2132">JustificationQuestion</text><line style="stroke:#181818;stroke-width:0.5;" x1="1350" x2="1688" y1="311.4847" y2="311.4847"/><ellipse cx="1360" cy="325.7893" fill="none" rx="3" ry="3" style="stroke:#038048;stroke-width:1.0;"/><text fill="#000000" font-family="sans-serif" font-size="14" lengthAdjust="spacing" textLength="66" x="1369" y="330.0179">statement:</text><text fill="#000000" font-family="sans-serif" font-size="14" lengthAdjust="spacing" textLength="314" x="1369" y="347.6272">"¿La KEYWORD es esta DEFINITION?¿Por qué?"</text><ellipse cx="1360" cy="361.0081" fill="none" rx="3" ry="3" style="stroke:#038048;stroke-width:1.0;"/><text fill="#000000" font-family="sans-serif" font-size="14" lengthAdjust="spacing" textLength="93" x="1369" y="365.2366">1 open answer</text><line style="stroke:#181818;stroke-width:0.5;" x1="1350" x2="1688" y1="372.3128" y2="372.3128"/></g><!--MD5=[03da74b17b78c47342534e699538e699]
class MultipleChoiceTertiaryX--><g id="elem_MultipleChoiceTertiaryX"><rect codeLine="61" fill="#F1F1F1" height="83.2188" id="MultipleChoiceTertiaryX" rx="2.5" ry="2.5" style="stroke:#181818;stroke-width:0.5;" width="181" x="2243.5" y="288.4847"/><ellipse cx="2258.5" cy="304.4847" fill="#ADD1B2" rx="11" ry="11" style="stroke:#181818;stroke-width:1.0;"/><path d="M2261.2656,300.3597 Q2261.4219,300.1409 2261.6094,300.0315 Q2261.7969,299.9222 2262.0156,299.9222 Q2262.3906,299.9222 2262.625,300.1878 Q2262.8594,300.4378 2262.8594,301.0472 L2262.8594,302.5003 Q2262.8594,303.1097 2262.625,303.3753 Q2262.3906,303.6409 2262.0156,303.6409 Q2261.6719,303.6409 2261.4688,303.4378 Q2261.2656,303.2503 2261.1563,302.7347 Q2261.1094,302.3753 2260.9219,302.1878 Q2260.5938,301.8128 2259.9844,301.594 Q2259.375,301.3753 2258.75,301.3753 Q2257.9844,301.3753 2257.3438,301.7034 Q2256.7188,302.0315 2256.2188,302.7815 Q2255.7344,303.5315 2255.7344,304.5628 L2255.7344,305.6565 Q2255.7344,306.8909 2256.625,307.719 Q2257.5156,308.5315 2259.1094,308.5315 Q2260.0469,308.5315 2260.7031,308.2815 Q2261.0938,308.1253 2261.5156,307.6878 Q2261.7813,307.4222 2261.9219,307.344 Q2262.0781,307.2659 2262.2813,307.2659 Q2262.6094,307.2659 2262.8594,307.5315 Q2263.125,307.7815 2263.125,308.1253 Q2263.125,308.469 2262.7813,308.8753 Q2262.2813,309.4534 2261.4844,309.7815 Q2260.4063,310.2347 2259.1094,310.2347 Q2257.5938,310.2347 2256.3906,309.6097 Q2255.4063,309.1097 2254.7188,308.0472 Q2254.0313,306.969 2254.0313,305.6878 L2254.0313,304.5315 Q2254.0313,303.2034 2254.6406,302.0628 Q2255.2656,300.9065 2256.3594,300.2972 Q2257.4531,299.6722 2258.6875,299.6722 Q2259.4219,299.6722 2260.0625,299.844 Q2260.7188,300.0003 2261.2656,300.3597 Z " fill="#000000"/><text fill="#000000" font-family="sans-serif" font-size="14" lengthAdjust="spacing" textLength="149" x="2272.5" y="310.2132">MultipleChoiceTertiaryX</text><line style="stroke:#181818;stroke-width:0.5;" x1="2244.5" x2="2423.5" y1="320.4847" y2="320.4847"/><ellipse cx="2254.5" cy="334.7893" fill="none" rx="3" ry="3" style="stroke:#038048;stroke-width:1.0;"/><text fill="#000000" font-family="sans-serif" font-size="14" lengthAdjust="spacing" textLength="62" x="2263.5" y="339.0179">statement</text><text fill="#000000" font-family="sans-serif" font-size="14" lengthAdjust="spacing" textLength="91" x="2263.5" y="356.6272">autocorrection</text><line style="stroke:#181818;stroke-width:0.5;" x1="2244.5" x2="2423.5" y1="363.7034" y2="363.7034"/></g><!--MD5=[70ff16a60c1506cd0cbed14afdc74b8c]
class ClassQuestion--><g id="elem_ClassQuestion"><rect codeLine="66" fill="#F1F1F1" height="100.8281" id="ClassQuestion" rx="2.5" ry="2.5" style="stroke:#181818;stroke-width:0.5;" width="275" x="1933.5" y="279.4847"/><ellipse cx="2020.75" cy="295.4847" fill="#ADD1B2" rx="11" ry="11" style="stroke:#181818;stroke-width:1.0;"/><path d="M2023.5156,291.3597 Q2023.6719,291.1409 2023.8594,291.0315 Q2024.0469,290.9222 2024.2656,290.9222 Q2024.6406,290.9222 2024.875,291.1878 Q2025.1094,291.4378 2025.1094,292.0472 L2025.1094,293.5003 Q2025.1094,294.1097 2024.875,294.3753 Q2024.6406,294.6409 2024.2656,294.6409 Q2023.9219,294.6409 2023.7188,294.4378 Q2023.5156,294.2503 2023.4063,293.7347 Q2023.3594,293.3753 2023.1719,293.1878 Q2022.8438,292.8128 2022.2344,292.594 Q2021.625,292.3753 2021,292.3753 Q2020.2344,292.3753 2019.5938,292.7034 Q2018.9688,293.0315 2018.4688,293.7815 Q2017.9844,294.5315 2017.9844,295.5628 L2017.9844,296.6565 Q2017.9844,297.8909 2018.875,298.719 Q2019.7656,299.5315 2021.3594,299.5315 Q2022.2969,299.5315 2022.9531,299.2815 Q2023.3438,299.1253 2023.7656,298.6878 Q2024.0313,298.4222 2024.1719,298.344 Q2024.3281,298.2659 2024.5313,298.2659 Q2024.8594,298.2659 2025.1094,298.5315 Q2025.375,298.7815 2025.375,299.1253 Q2025.375,299.469 2025.0313,299.8753 Q2024.5313,300.4534 2023.7344,300.7815 Q2022.6563,301.2347 2021.3594,301.2347 Q2019.8438,301.2347 2018.6406,300.6097 Q2017.6563,300.1097 2016.9688,299.0472 Q2016.2813,297.969 2016.2813,296.6878 L2016.2813,295.5315 Q2016.2813,294.2034 2016.8906,293.0628 Q2017.5156,291.9065 2018.6094,291.2972 Q2019.7031,290.6722 2020.9375,290.6722 Q2021.6719,290.6722 2022.3125,290.844 Q2022.9688,291.0003 2023.5156,291.3597 Z " fill="#000000"/><text fill="#000000" font-family="sans-serif" font-size="14" lengthAdjust="spacing" textLength="92" x="2041.25" y="301.2132">ClassQuestion</text><line style="stroke:#181818;stroke-width:0.5;" x1="1934.5" x2="2207.5" y1="311.4847" y2="311.4847"/><ellipse cx="1944.5" cy="325.7893" fill="none" rx="3" ry="3" style="stroke:#038048;stroke-width:1.0;"/><text fill="#000000" font-family="sans-serif" font-size="14" lengthAdjust="spacing" textLength="66" x="1953.5" y="330.0179">statement:</text><text fill="#000000" font-family="sans-serif" font-size="14" lengthAdjust="spacing" textLength="249" x="1953.5" y="347.6272">"Dime los distintos tipos de KEYWORD"</text><ellipse cx="1944.5" cy="361.0081" fill="none" rx="3" ry="3" style="stroke:#038048;stroke-width:1.0;"/><text fill="#000000" font-family="sans-serif" font-size="14" lengthAdjust="spacing" textLength="93" x="1953.5" y="365.2366">1 open answer</text><line style="stroke:#181818;stroke-width:0.5;" x1="1934.5" x2="2207.5" y1="372.3128" y2="372.3128"/></g><!--MD5=[f7b1256a464262a81d5827fb39e684fb]
class Open--><g id="elem_Open"><rect codeLine="72" fill="#F1F1F1" height="48" id="Open" rx="2.5" ry="2.5" style="stroke:#181818;stroke-width:0.5;" width="67" x="966.5" y="305.9847"/><ellipse cx="981.5" cy="321.9847" fill="#ADD1B2" rx="11" ry="11" style="stroke:#181818;stroke-width:1.0;"/><path d="M984.2656,317.8597 Q984.4219,317.6409 984.6094,317.5315 Q984.7969,317.4222 985.0156,317.4222 Q985.3906,317.4222 985.625,317.6878 Q985.8594,317.9378 985.8594,318.5472 L985.8594,320.0003 Q985.8594,320.6097 985.625,320.8753 Q985.3906,321.1409 985.0156,321.1409 Q984.6719,321.1409 984.4688,320.9378 Q984.2656,320.7503 984.1563,320.2347 Q984.1094,319.8753 983.9219,319.6878 Q983.5938,319.3128 982.9844,319.094 Q982.375,318.8753 981.75,318.8753 Q980.9844,318.8753 980.3438,319.2034 Q979.7188,319.5315 979.2188,320.2815 Q978.7344,321.0315 978.7344,322.0628 L978.7344,323.1565 Q978.7344,324.3909 979.625,325.219 Q980.5156,326.0315 982.1094,326.0315 Q983.0469,326.0315 983.7031,325.7815 Q984.0938,325.6253 984.5156,325.1878 Q984.7813,324.9222 984.9219,324.844 Q985.0781,324.7659 985.2813,324.7659 Q985.6094,324.7659 985.8594,325.0315 Q986.125,325.2815 986.125,325.6253 Q986.125,325.969 985.7813,326.3753 Q985.2813,326.9534 984.4844,327.2815 Q983.4063,327.7347 982.1094,327.7347 Q980.5938,327.7347 979.3906,327.1097 Q978.4063,326.6097 977.7188,325.5472 Q977.0313,324.469 977.0313,323.1878 L977.0313,322.0315 Q977.0313,320.7034 977.6406,319.5628 Q978.2656,318.4065 979.3594,317.7972 Q980.4531,317.1722 981.6875,317.1722 Q982.4219,317.1722 983.0625,317.344 Q983.7188,317.5003 984.2656,317.8597 Z " fill="#000000"/><text fill="#000000" font-family="sans-serif" font-size="14" lengthAdjust="spacing" textLength="35" x="995.5" y="327.7132">Open</text><line style="stroke:#181818;stroke-width:0.5;" x1="967.5" x2="1032.5" y1="337.9847" y2="337.9847"/><line style="stroke:#181818;stroke-width:0.5;" x1="967.5" x2="1032.5" y1="345.9847" y2="345.9847"/></g><!--MD5=[fc7123defb831ecdd44b2d9bcef6cceb]
class Question--><g id="elem_Question"><rect codeLine="74" fill="#F1F1F1" height="48" id="Question" rx="2.5" ry="2.5" style="stroke:#181818;stroke-width:0.5;" width="89" x="838.5" y="144.9847"/><ellipse cx="853.5" cy="160.9847" fill="#ADD1B2" rx="11" ry="11" style="stroke:#181818;stroke-width:1.0;"/><path d="M856.2656,156.8597 Q856.4219,156.6409 856.6094,156.5315 Q856.7969,156.4222 857.0156,156.4222 Q857.3906,156.4222 857.625,156.6878 Q857.8594,156.9378 857.8594,157.5472 L857.8594,159.0003 Q857.8594,159.6097 857.625,159.8753 Q857.3906,160.1409 857.0156,160.1409 Q856.6719,160.1409 856.4688,159.9378 Q856.2656,159.7503 856.1563,159.2347 Q856.1094,158.8753 855.9219,158.6878 Q855.5938,158.3128 854.9844,158.094 Q854.375,157.8753 853.75,157.8753 Q852.9844,157.8753 852.3438,158.2034 Q851.7188,158.5315 851.2188,159.2815 Q850.7344,160.0315 850.7344,161.0628 L850.7344,162.1565 Q850.7344,163.3909 851.625,164.219 Q852.5156,165.0315 854.1094,165.0315 Q855.0469,165.0315 855.7031,164.7815 Q856.0938,164.6253 856.5156,164.1878 Q856.7813,163.9222 856.9219,163.844 Q857.0781,163.7659 857.2813,163.7659 Q857.6094,163.7659 857.8594,164.0315 Q858.125,164.2815 858.125,164.6253 Q858.125,164.969 857.7813,165.3753 Q857.2813,165.9534 856.4844,166.2815 Q855.4063,166.7347 854.1094,166.7347 Q852.5938,166.7347 851.3906,166.1097 Q850.4063,165.6097 849.7188,164.5472 Q849.0313,163.469 849.0313,162.1878 L849.0313,161.0315 Q849.0313,159.7034 849.6406,158.5628 Q850.2656,157.4065 851.3594,156.7972 Q852.4531,156.1722 853.6875,156.1722 Q854.4219,156.1722 855.0625,156.344 Q855.7188,156.5003 856.2656,156.8597 Z " fill="#000000"/><text fill="#000000" font-family="sans-serif" font-size="14" lengthAdjust="spacing" textLength="57" x="867.5" y="166.7132">Question</text><line style="stroke:#181818;stroke-width:0.5;" x1="839.5" x2="926.5" y1="176.9847" y2="176.9847"/><line style="stroke:#181818;stroke-width:0.5;" x1="839.5" x2="926.5" y1="184.9847" y2="184.9847"/></g><!--MD5=[210f05ad84ecfe37f8378e5618b7165d]
class MultipleChoice--><g id="elem_MultipleChoice"><rect codeLine="76" fill="#F1F1F1" height="48" id="MultipleChoice" rx="2.5" ry="2.5" style="stroke:#181818;stroke-width:0.5;" width="124" x="563" y="305.9847"/><ellipse cx="578" cy="321.9847" fill="#ADD1B2" rx="11" ry="11" style="stroke:#181818;stroke-width:1.0;"/><path d="M580.7656,317.8597 Q580.9219,317.6409 581.1094,317.5315 Q581.2969,317.4222 581.5156,317.4222 Q581.8906,317.4222 582.125,317.6878 Q582.3594,317.9378 582.3594,318.5472 L582.3594,320.0003 Q582.3594,320.6097 582.125,320.8753 Q581.8906,321.1409 581.5156,321.1409 Q581.1719,321.1409 580.9688,320.9378 Q580.7656,320.7503 580.6563,320.2347 Q580.6094,319.8753 580.4219,319.6878 Q580.0938,319.3128 579.4844,319.094 Q578.875,318.8753 578.25,318.8753 Q577.4844,318.8753 576.8438,319.2034 Q576.2188,319.5315 575.7188,320.2815 Q575.2344,321.0315 575.2344,322.0628 L575.2344,323.1565 Q575.2344,324.3909 576.125,325.219 Q577.0156,326.0315 578.6094,326.0315 Q579.5469,326.0315 580.2031,325.7815 Q580.5938,325.6253 581.0156,325.1878 Q581.2813,324.9222 581.4219,324.844 Q581.5781,324.7659 581.7813,324.7659 Q582.1094,324.7659 582.3594,325.0315 Q582.625,325.2815 582.625,325.6253 Q582.625,325.969 582.2813,326.3753 Q581.7813,326.9534 580.9844,327.2815 Q579.9063,327.7347 578.6094,327.7347 Q577.0938,327.7347 575.8906,327.1097 Q574.9063,326.6097 574.2188,325.5472 Q573.5313,324.469 573.5313,323.1878 L573.5313,322.0315 Q573.5313,320.7034 574.1406,319.5628 Q574.7656,318.4065 575.8594,317.7972 Q576.9531,317.1722 578.1875,317.1722 Q578.9219,317.1722 579.5625,317.344 Q580.2188,317.5003 580.7656,317.8597 Z " fill="#000000"/><text fill="#000000" font-family="sans-serif" font-size="14" lengthAdjust="spacing" textLength="92" x="592" y="327.7132">MultipleChoice</text><line style="stroke:#181818;stroke-width:0.5;" x1="564" x2="686" y1="337.9847" y2="337.9847"/><line style="stroke:#181818;stroke-width:0.5;" x1="564" x2="686" y1="345.9847" y2="345.9847"/></g><!--MD5=[a61a298976b7d1d94498f45c2ebfa10b]
class Statement--><g id="elem_Statement"><rect codeLine="78" fill="#F1F1F1" height="48" id="Statement" rx="2.5" ry="2.5" style="stroke:#181818;stroke-width:0.5;" width="96" x="835" y="305.9847"/><ellipse cx="850" cy="321.9847" fill="#ADD1B2" rx="11" ry="11" style="stroke:#181818;stroke-width:1.0;"/><path d="M852.7656,317.8597 Q852.9219,317.6409 853.1094,317.5315 Q853.2969,317.4222 853.5156,317.4222 Q853.8906,317.4222 854.125,317.6878 Q854.3594,317.9378 854.3594,318.5472 L854.3594,320.0003 Q854.3594,320.6097 854.125,320.8753 Q853.8906,321.1409 853.5156,321.1409 Q853.1719,321.1409 852.9688,320.9378 Q852.7656,320.7503 852.6563,320.2347 Q852.6094,319.8753 852.4219,319.6878 Q852.0938,319.3128 851.4844,319.094 Q850.875,318.8753 850.25,318.8753 Q849.4844,318.8753 848.8438,319.2034 Q848.2188,319.5315 847.7188,320.2815 Q847.2344,321.0315 847.2344,322.0628 L847.2344,323.1565 Q847.2344,324.3909 848.125,325.219 Q849.0156,326.0315 850.6094,326.0315 Q851.5469,326.0315 852.2031,325.7815 Q852.5938,325.6253 853.0156,325.1878 Q853.2813,324.9222 853.4219,324.844 Q853.5781,324.7659 853.7813,324.7659 Q854.1094,324.7659 854.3594,325.0315 Q854.625,325.2815 854.625,325.6253 Q854.625,325.969 854.2813,326.3753 Q853.7813,326.9534 852.9844,327.2815 Q851.9063,327.7347 850.6094,327.7347 Q849.0938,327.7347 847.8906,327.1097 Q846.9063,326.6097 846.2188,325.5472 Q845.5313,324.469 845.5313,323.1878 L845.5313,322.0315 Q845.5313,320.7034 846.1406,319.5628 Q846.7656,318.4065 847.8594,317.7972 Q848.9531,317.1722 850.1875,317.1722 Q850.9219,317.1722 851.5625,317.344 Q852.2188,317.5003 852.7656,317.8597 Z " fill="#000000"/><text fill="#000000" font-family="sans-serif" font-size="14" lengthAdjust="spacing" textLength="64" x="864" y="327.7132">Statement</text><line style="stroke:#181818;stroke-width:0.5;" x1="836" x2="930" y1="337.9847" y2="337.9847"/><line style="stroke:#181818;stroke-width:0.5;" x1="836" x2="930" y1="345.9847" y2="345.9847"/></g><!--MD5=[f9fadfa5a66b7e5a67b370cd443ffe52]
class Answer--><g id="elem_Answer"><rect codeLine="80" fill="#F1F1F1" height="48" id="Answer" rx="2.5" ry="2.5" style="stroke:#181818;stroke-width:0.5;" width="78" x="722" y="305.9847"/><ellipse cx="737" cy="321.9847" fill="#ADD1B2" rx="11" ry="11" style="stroke:#181818;stroke-width:1.0;"/><path d="M739.7656,317.8597 Q739.9219,317.6409 740.1094,317.5315 Q740.2969,317.4222 740.5156,317.4222 Q740.8906,317.4222 741.125,317.6878 Q741.3594,317.9378 741.3594,318.5472 L741.3594,320.0003 Q741.3594,320.6097 741.125,320.8753 Q740.8906,321.1409 740.5156,321.1409 Q740.1719,321.1409 739.9688,320.9378 Q739.7656,320.7503 739.6563,320.2347 Q739.6094,319.8753 739.4219,319.6878 Q739.0938,319.3128 738.4844,319.094 Q737.875,318.8753 737.25,318.8753 Q736.4844,318.8753 735.8438,319.2034 Q735.2188,319.5315 734.7188,320.2815 Q734.2344,321.0315 734.2344,322.0628 L734.2344,323.1565 Q734.2344,324.3909 735.125,325.219 Q736.0156,326.0315 737.6094,326.0315 Q738.5469,326.0315 739.2031,325.7815 Q739.5938,325.6253 740.0156,325.1878 Q740.2813,324.9222 740.4219,324.844 Q740.5781,324.7659 740.7813,324.7659 Q741.1094,324.7659 741.3594,325.0315 Q741.625,325.2815 741.625,325.6253 Q741.625,325.969 741.2813,326.3753 Q740.7813,326.9534 739.9844,327.2815 Q738.9063,327.7347 737.6094,327.7347 Q736.0938,327.7347 734.8906,327.1097 Q733.9063,326.6097 733.2188,325.5472 Q732.5313,324.469 732.5313,323.1878 L732.5313,322.0315 Q732.5313,320.7034 733.1406,319.5628 Q733.7656,318.4065 734.8594,317.7972 Q735.9531,317.1722 737.1875,317.1722 Q737.9219,317.1722 738.5625,317.344 Q739.2188,317.5003 739.7656,317.8597 Z " fill="#000000"/><text fill="#000000" font-family="sans-serif" font-size="14" lengthAdjust="spacing" textLength="46" x="751" y="327.7132">Answer</text><line style="stroke:#181818;stroke-width:0.5;" x1="723" x2="799" y1="337.9847" y2="337.9847"/><line style="stroke:#181818;stroke-width:0.5;" x1="723" x2="799" y1="345.9847" y2="345.9847"/></g><!--MD5=[bc629657279eaa9349f412646650f2c5]
class Correct--><g id="elem_Correct"><rect codeLine="82" fill="#F1F1F1" height="48" id="Correct" rx="2.5" ry="2.5" style="stroke:#181818;stroke-width:0.5;" width="79" x="786.5" y="440.4847"/><ellipse cx="801.5" cy="456.4847" fill="#ADD1B2" rx="11" ry="11" style="stroke:#181818;stroke-width:1.0;"/><path d="M804.2656,452.3597 Q804.4219,452.1409 804.6094,452.0315 Q804.7969,451.9222 805.0156,451.9222 Q805.3906,451.9222 805.625,452.1878 Q805.8594,452.4378 805.8594,453.0472 L805.8594,454.5003 Q805.8594,455.1097 805.625,455.3753 Q805.3906,455.6409 805.0156,455.6409 Q804.6719,455.6409 804.4688,455.4378 Q804.2656,455.2503 804.1563,454.7347 Q804.1094,454.3753 803.9219,454.1878 Q803.5938,453.8128 802.9844,453.594 Q802.375,453.3753 801.75,453.3753 Q800.9844,453.3753 800.3438,453.7034 Q799.7188,454.0315 799.2188,454.7815 Q798.7344,455.5315 798.7344,456.5628 L798.7344,457.6565 Q798.7344,458.8909 799.625,459.719 Q800.5156,460.5315 802.1094,460.5315 Q803.0469,460.5315 803.7031,460.2815 Q804.0938,460.1253 804.5156,459.6878 Q804.7813,459.4222 804.9219,459.344 Q805.0781,459.2659 805.2813,459.2659 Q805.6094,459.2659 805.8594,459.5315 Q806.125,459.7815 806.125,460.1253 Q806.125,460.469 805.7813,460.8753 Q805.2813,461.4534 804.4844,461.7815 Q803.4063,462.2347 802.1094,462.2347 Q800.5938,462.2347 799.3906,461.6097 Q798.4063,461.1097 797.7188,460.0472 Q797.0313,458.969 797.0313,457.6878 L797.0313,456.5315 Q797.0313,455.2034 797.6406,454.0628 Q798.2656,452.9065 799.3594,452.2972 Q800.4531,451.6722 801.6875,451.6722 Q802.4219,451.6722 803.0625,451.844 Q803.7188,452.0003 804.2656,452.3597 Z " fill="#000000"/><text fill="#000000" font-family="sans-serif" font-size="14" lengthAdjust="spacing" textLength="47" x="815.5" y="462.2132">Correct</text><line style="stroke:#181818;stroke-width:0.5;" x1="787.5" x2="864.5" y1="472.4847" y2="472.4847"/><line style="stroke:#181818;stroke-width:0.5;" x1="787.5" x2="864.5" y1="480.4847" y2="480.4847"/></g><!--MD5=[37923dc032bbfca87d4413e584fa2cda]
class Incorrect--><g id="elem_Incorrect"><rect codeLine="84" fill="#F1F1F1" height="48" id="Incorrect" rx="2.5" ry="2.5" style="stroke:#181818;stroke-width:0.5;" width="87" x="664.5" y="440.4847"/><ellipse cx="679.5" cy="456.4847" fill="#ADD1B2" rx="11" ry="11" style="stroke:#181818;stroke-width:1.0;"/><path d="M682.2656,452.3597 Q682.4219,452.1409 682.6094,452.0315 Q682.7969,451.9222 683.0156,451.9222 Q683.3906,451.9222 683.625,452.1878 Q683.8594,452.4378 683.8594,453.0472 L683.8594,454.5003 Q683.8594,455.1097 683.625,455.3753 Q683.3906,455.6409 683.0156,455.6409 Q682.6719,455.6409 682.4688,455.4378 Q682.2656,455.2503 682.1563,454.7347 Q682.1094,454.3753 681.9219,454.1878 Q681.5938,453.8128 680.9844,453.594 Q680.375,453.3753 679.75,453.3753 Q678.9844,453.3753 678.3438,453.7034 Q677.7188,454.0315 677.2188,454.7815 Q676.7344,455.5315 676.7344,456.5628 L676.7344,457.6565 Q676.7344,458.8909 677.625,459.719 Q678.5156,460.5315 680.1094,460.5315 Q681.0469,460.5315 681.7031,460.2815 Q682.0938,460.1253 682.5156,459.6878 Q682.7813,459.4222 682.9219,459.344 Q683.0781,459.2659 683.2813,459.2659 Q683.6094,459.2659 683.8594,459.5315 Q684.125,459.7815 684.125,460.1253 Q684.125,460.469 683.7813,460.8753 Q683.2813,461.4534 682.4844,461.7815 Q681.4063,462.2347 680.1094,462.2347 Q678.5938,462.2347 677.3906,461.6097 Q676.4063,461.1097 675.7188,460.0472 Q675.0313,458.969 675.0313,457.6878 L675.0313,456.5315 Q675.0313,455.2034 675.6406,454.0628 Q676.2656,452.9065 677.3594,452.2972 Q678.4531,451.6722 679.6875,451.6722 Q680.4219,451.6722 681.0625,451.844 Q681.7188,452.0003 682.2656,452.3597 Z " fill="#000000"/><text fill="#000000" font-family="sans-serif" font-size="14" lengthAdjust="spacing" textLength="55" x="693.5" y="462.2132">Incorrect</text><line style="stroke:#181818;stroke-width:0.5;" x1="665.5" x2="750.5" y1="472.4847" y2="472.4847"/><line style="stroke:#181818;stroke-width:0.5;" x1="665.5" x2="750.5" y1="480.4847" y2="480.4847"/></g><!--MD5=[251997ad79b4d4948a25d3b27294058e]
class AnswersToReview--><g id="elem_AnswersToReview"><rect codeLine="86" fill="#F1F1F1" height="48" id="AnswersToReview" rx="2.5" ry="2.5" style="stroke:#181818;stroke-width:0.5;" width="147" x="1591.5" y="440.4847"/><ellipse cx="1606.5" cy="456.4847" fill="#ADD1B2" rx="11" ry="11" style="stroke:#181818;stroke-width:1.0;"/><path d="M1609.2656,452.3597 Q1609.4219,452.1409 1609.6094,452.0315 Q1609.7969,451.9222 1610.0156,451.9222 Q1610.3906,451.9222 1610.625,452.1878 Q1610.8594,452.4378 1610.8594,453.0472 L1610.8594,454.5003 Q1610.8594,455.1097 1610.625,455.3753 Q1610.3906,455.6409 1610.0156,455.6409 Q1609.6719,455.6409 1609.4688,455.4378 Q1609.2656,455.2503 1609.1563,454.7347 Q1609.1094,454.3753 1608.9219,454.1878 Q1608.5938,453.8128 1607.9844,453.594 Q1607.375,453.3753 1606.75,453.3753 Q1605.9844,453.3753 1605.3438,453.7034 Q1604.7188,454.0315 1604.2188,454.7815 Q1603.7344,455.5315 1603.7344,456.5628 L1603.7344,457.6565 Q1603.7344,458.8909 1604.625,459.719 Q1605.5156,460.5315 1607.1094,460.5315 Q1608.0469,460.5315 1608.7031,460.2815 Q1609.0938,460.1253 1609.5156,459.6878 Q1609.7813,459.4222 1609.9219,459.344 Q1610.0781,459.2659 1610.2813,459.2659 Q1610.6094,459.2659 1610.8594,459.5315 Q1611.125,459.7815 1611.125,460.1253 Q1611.125,460.469 1610.7813,460.8753 Q1610.2813,461.4534 1609.4844,461.7815 Q1608.4063,462.2347 1607.1094,462.2347 Q1605.5938,462.2347 1604.3906,461.6097 Q1603.4063,461.1097 1602.7188,460.0472 Q1602.0313,458.969 1602.0313,457.6878 L1602.0313,456.5315 Q1602.0313,455.2034 1602.6406,454.0628 Q1603.2656,452.9065 1604.3594,452.2972 Q1605.4531,451.6722 1606.6875,451.6722 Q1607.4219,451.6722 1608.0625,451.844 Q1608.7188,452.0003 1609.2656,452.3597 Z " fill="#000000"/><text fill="#000000" font-family="sans-serif" font-size="14" lengthAdjust="spacing" textLength="115" x="1620.5" y="462.2132">AnswersToReview</text><line style="stroke:#181818;stroke-width:0.5;" x1="1592.5" x2="1737.5" y1="472.4847" y2="472.4847"/><line style="stroke:#181818;stroke-width:0.5;" x1="1592.5" x2="1737.5" y1="480.4847" y2="480.4847"/></g><!--MD5=[2ce80c24a07354849fabb37efd45166e]
class AnswersToReviewDefinition--><g id="elem_AnswersToReviewDefinition"><rect codeLine="88" fill="#F1F1F1" height="83.2188" id="AnswersToReviewDefinition" rx="2.5" ry="2.5" style="stroke:#181818;stroke-width:0.5;" width="206" x="1435" y="548.4847"/><ellipse cx="1450" cy="564.4847" fill="#ADD1B2" rx="11" ry="11" style="stroke:#181818;stroke-width:1.0;"/><path d="M1452.7656,560.3597 Q1452.9219,560.1409 1453.1094,560.0315 Q1453.2969,559.9222 1453.5156,559.9222 Q1453.8906,559.9222 1454.125,560.1878 Q1454.3594,560.4378 1454.3594,561.0472 L1454.3594,562.5003 Q1454.3594,563.1097 1454.125,563.3753 Q1453.8906,563.6409 1453.5156,563.6409 Q1453.1719,563.6409 1452.9688,563.4378 Q1452.7656,563.2503 1452.6563,562.7347 Q1452.6094,562.3753 1452.4219,562.1878 Q1452.0938,561.8128 1451.4844,561.594 Q1450.875,561.3753 1450.25,561.3753 Q1449.4844,561.3753 1448.8438,561.7034 Q1448.2188,562.0315 1447.7188,562.7815 Q1447.2344,563.5315 1447.2344,564.5628 L1447.2344,565.6565 Q1447.2344,566.8909 1448.125,567.719 Q1449.0156,568.5315 1450.6094,568.5315 Q1451.5469,568.5315 1452.2031,568.2815 Q1452.5938,568.1253 1453.0156,567.6878 Q1453.2813,567.4222 1453.4219,567.344 Q1453.5781,567.2659 1453.7813,567.2659 Q1454.1094,567.2659 1454.3594,567.5315 Q1454.625,567.7815 1454.625,568.1253 Q1454.625,568.469 1454.2813,568.8753 Q1453.7813,569.4534 1452.9844,569.7815 Q1451.9063,570.2347 1450.6094,570.2347 Q1449.0938,570.2347 1447.8906,569.6097 Q1446.9063,569.1097 1446.2188,568.0472 Q1445.5313,566.969 1445.5313,565.6878 L1445.5313,564.5315 Q1445.5313,563.2034 1446.1406,562.0628 Q1446.7656,560.9065 1447.8594,560.2972 Q1448.9531,559.6722 1450.1875,559.6722 Q1450.9219,559.6722 1451.5625,559.844 Q1452.2188,560.0003 1452.7656,560.3597 Z " fill="#000000"/><text fill="#000000" font-family="sans-serif" font-size="14" lengthAdjust="spacing" textLength="174" x="1464" y="570.2132">AnswersToReviewDefinition</text><line style="stroke:#181818;stroke-width:0.5;" x1="1436" x2="1640" y1="580.4847" y2="580.4847"/><text fill="#000000" font-family="sans-serif" font-size="14" lengthAdjust="spacing" textLength="52" x="1441" y="599.0179">answers</text><line style="stroke:#181818;stroke-width:0.5;" x1="1436" x2="1640" y1="606.094" y2="606.094"/><text fill="#000000" font-family="sans-serif" font-size="14" lengthAdjust="spacing" textLength="145" x="1441" y="624.6272">addDefinition(keyword)</text></g><!--MD5=[bcd35c7b4ab3544289d50ae246643a92]
class AnswersToReviewJustification--><g id="elem_AnswersToReviewJustification"><rect codeLine="93" fill="#F1F1F1" height="83.2188" id="AnswersToReviewJustification" rx="2.5" ry="2.5" style="stroke:#181818;stroke-width:0.5;" width="232" x="1676" y="548.4847"/><ellipse cx="1696.4" cy="564.4847" fill="#ADD1B2" rx="11" ry="11" style="stroke:#181818;stroke-width:1.0;"/><path d="M1699.1656,560.3597 Q1699.3219,560.1409 1699.5094,560.0315 Q1699.6969,559.9222 1699.9156,559.9222 Q1700.2906,559.9222 1700.525,560.1878 Q1700.7594,560.4378 1700.7594,561.0472 L1700.7594,562.5003 Q1700.7594,563.1097 1700.525,563.3753 Q1700.2906,563.6409 1699.9156,563.6409 Q1699.5719,563.6409 1699.3688,563.4378 Q1699.1656,563.2503 1699.0563,562.7347 Q1699.0094,562.3753 1698.8219,562.1878 Q1698.4938,561.8128 1697.8844,561.594 Q1697.275,561.3753 1696.65,561.3753 Q1695.8844,561.3753 1695.2438,561.7034 Q1694.6188,562.0315 1694.1188,562.7815 Q1693.6344,563.5315 1693.6344,564.5628 L1693.6344,565.6565 Q1693.6344,566.8909 1694.525,567.719 Q1695.4156,568.5315 1697.0094,568.5315 Q1697.9469,568.5315 1698.6031,568.2815 Q1698.9938,568.1253 1699.4156,567.6878 Q1699.6813,567.4222 1699.8219,567.344 Q1699.9781,567.2659 1700.1813,567.2659 Q1700.5094,567.2659 1700.7594,567.5315 Q1701.025,567.7815 1701.025,568.1253 Q1701.025,568.469 1700.6813,568.8753 Q1700.1813,569.4534 1699.3844,569.7815 Q1698.3063,570.2347 1697.0094,570.2347 Q1695.4938,570.2347 1694.2906,569.6097 Q1693.3063,569.1097 1692.6188,568.0472 Q1691.9313,566.969 1691.9313,565.6878 L1691.9313,564.5315 Q1691.9313,563.2034 1692.5406,562.0628 Q1693.1656,560.9065 1694.2594,560.2972 Q1695.3531,559.6722 1696.5875,559.6722 Q1697.3219,559.6722 1697.9625,559.844 Q1698.6188,560.0003 1699.1656,560.3597 Z " fill="#000000"/><text fill="#000000" font-family="sans-serif" font-size="14" lengthAdjust="spacing" textLength="188" x="1711.6" y="570.2132">AnswersToReviewJustification</text><line style="stroke:#181818;stroke-width:0.5;" x1="1677" x2="1907" y1="580.4847" y2="580.4847"/><text fill="#000000" font-family="sans-serif" font-size="14" lengthAdjust="spacing" textLength="52" x="1682" y="599.0179">answers</text><line style="stroke:#181818;stroke-width:0.5;" x1="1677" x2="1907" y1="606.094" y2="606.094"/><text fill="#000000" font-family="sans-serif" font-size="14" lengthAdjust="spacing" textLength="220" x="1682" y="624.6272">addJustification(keyword,definition)</text></g><!--MD5=[6be0505d9f003410b6db43a920059550]
class AnswersToReviewIncorrectAnswer--><g id="elem_AnswersToReviewIncorrectAnswer"><rect codeLine="98" fill="#F1F1F1" height="83.2188" id="AnswersToReviewIncorrectAnswer" rx="2.5" ry="2.5" style="stroke:#181818;stroke-width:0.5;" width="304" x="1943" y="548.4847"/><ellipse cx="1983.2" cy="564.4847" fill="#ADD1B2" rx="11" ry="11" style="stroke:#181818;stroke-width:1.0;"/><path d="M1985.9656,560.3597 Q1986.1219,560.1409 1986.3094,560.0315 Q1986.4969,559.9222 1986.7156,559.9222 Q1987.0906,559.9222 1987.325,560.1878 Q1987.5594,560.4378 1987.5594,561.0472 L1987.5594,562.5003 Q1987.5594,563.1097 1987.325,563.3753 Q1987.0906,563.6409 1986.7156,563.6409 Q1986.3719,563.6409 1986.1688,563.4378 Q1985.9656,563.2503 1985.8563,562.7347 Q1985.8094,562.3753 1985.6219,562.1878 Q1985.2938,561.8128 1984.6844,561.594 Q1984.075,561.3753 1983.45,561.3753 Q1982.6844,561.3753 1982.0438,561.7034 Q1981.4188,562.0315 1980.9188,562.7815 Q1980.4344,563.5315 1980.4344,564.5628 L1980.4344,565.6565 Q1980.4344,566.8909 1981.325,567.719 Q1982.2156,568.5315 1983.8094,568.5315 Q1984.7469,568.5315 1985.4031,568.2815 Q1985.7938,568.1253 1986.2156,567.6878 Q1986.4813,567.4222 1986.6219,567.344 Q1986.7781,567.2659 1986.9813,567.2659 Q1987.3094,567.2659 1987.5594,567.5315 Q1987.825,567.7815 1987.825,568.1253 Q1987.825,568.469 1987.4813,568.8753 Q1986.9813,569.4534 1986.1844,569.7815 Q1985.1063,570.2347 1983.8094,570.2347 Q1982.2938,570.2347 1981.0906,569.6097 Q1980.1063,569.1097 1979.4188,568.0472 Q1978.7313,566.969 1978.7313,565.6878 L1978.7313,564.5315 Q1978.7313,563.2034 1979.3406,562.0628 Q1979.9656,560.9065 1981.0594,560.2972 Q1982.1531,559.6722 1983.3875,559.6722 Q1984.1219,559.6722 1984.7625,559.844 Q1985.4188,560.0003 1985.9656,560.3597 Z " fill="#000000"/><text fill="#000000" font-family="sans-serif" font-size="14" lengthAdjust="spacing" textLength="216" x="2002.8" y="570.2132">AnswersToReviewIncorrectAnswer</text><line style="stroke:#181818;stroke-width:0.5;" x1="1944" x2="2246" y1="580.4847" y2="580.4847"/><text fill="#000000" font-family="sans-serif" font-size="14" lengthAdjust="spacing" textLength="52" x="1949" y="599.0179">answers</text><line style="stroke:#181818;stroke-width:0.5;" x1="1944" x2="2246" y1="606.094" y2="606.094"/><text fill="#000000" font-family="sans-serif" font-size="14" lengthAdjust="spacing" textLength="292" x="1949" y="624.6272">addFakeKeyword(AutomaticReverseQuestion)</text></g><!--MD5=[081261f86289547ab7d66d80eec3f4c9]
class AnswersToReviewClasses--><g id="elem_AnswersToReviewClasses"><rect codeLine="103" fill="#F1F1F1" height="83.2188" id="AnswersToReviewClasses" rx="2.5" ry="2.5" style="stroke:#181818;stroke-width:0.5;" width="320" x="1080" y="548.4847"/><ellipse cx="1153.25" cy="564.4847" fill="#ADD1B2" rx="11" ry="11" style="stroke:#181818;stroke-width:1.0;"/><path d="M1156.0156,560.3597 Q1156.1719,560.1409 1156.3594,560.0315 Q1156.5469,559.9222 1156.7656,559.9222 Q1157.1406,559.9222 1157.375,560.1878 Q1157.6094,560.4378 1157.6094,561.0472 L1157.6094,562.5003 Q1157.6094,563.1097 1157.375,563.3753 Q1157.1406,563.6409 1156.7656,563.6409 Q1156.4219,563.6409 1156.2188,563.4378 Q1156.0156,563.2503 1155.9063,562.7347 Q1155.8594,562.3753 1155.6719,562.1878 Q1155.3438,561.8128 1154.7344,561.594 Q1154.125,561.3753 1153.5,561.3753 Q1152.7344,561.3753 1152.0938,561.7034 Q1151.4688,562.0315 1150.9688,562.7815 Q1150.4844,563.5315 1150.4844,564.5628 L1150.4844,565.6565 Q1150.4844,566.8909 1151.375,567.719 Q1152.2656,568.5315 1153.8594,568.5315 Q1154.7969,568.5315 1155.4531,568.2815 Q1155.8438,568.1253 1156.2656,567.6878 Q1156.5313,567.4222 1156.6719,567.344 Q1156.8281,567.2659 1157.0313,567.2659 Q1157.3594,567.2659 1157.6094,567.5315 Q1157.875,567.7815 1157.875,568.1253 Q1157.875,568.469 1157.5313,568.8753 Q1157.0313,569.4534 1156.2344,569.7815 Q1155.1563,570.2347 1153.8594,570.2347 Q1152.3438,570.2347 1151.1406,569.6097 Q1150.1563,569.1097 1149.4688,568.0472 Q1148.7813,566.969 1148.7813,565.6878 L1148.7813,564.5315 Q1148.7813,563.2034 1149.3906,562.0628 Q1150.0156,560.9065 1151.1094,560.2972 Q1152.2031,559.6722 1153.4375,559.6722 Q1154.1719,559.6722 1154.8125,559.844 Q1155.4688,560.0003 1156.0156,560.3597 Z " fill="#000000"/><text fill="#000000" font-family="sans-serif" font-size="14" lengthAdjust="spacing" textLength="165" x="1173.75" y="570.2132">AnswersToReviewClasses</text><line style="stroke:#181818;stroke-width:0.5;" x1="1081" x2="1399" y1="580.4847" y2="580.4847"/><text fill="#000000" font-family="sans-serif" font-size="14" lengthAdjust="spacing" textLength="52" x="1086" y="599.0179">answers</text><line style="stroke:#181818;stroke-width:0.5;" x1="1081" x2="1399" y1="606.094" y2="606.094"/><text fill="#000000" font-family="sans-serif" font-size="14" lengthAdjust="spacing" textLength="308" x="1086" y="624.6272">addClassification(otherConceptKeyword,relation)</text></g><!--MD5=[7a7df4cc8beee4d5ec4845ad980cbb28]
class OpenField--><g id="elem_OpenField"><rect fill="#F1F1F1" height="48" id="OpenField" rx="2.5" ry="2.5" style="stroke:#181818;stroke-width:0.5;" width="98" x="918" y="440.4847"/><ellipse cx="933" cy="456.4847" fill="#ADD1B2" rx="11" ry="11" style="stroke:#181818;stroke-width:1.0;"/><path d="M935.7656,452.3597 Q935.9219,452.1409 936.1094,452.0315 Q936.2969,451.9222 936.5156,451.9222 Q936.8906,451.9222 937.125,452.1878 Q937.3594,452.4378 937.3594,453.0472 L937.3594,454.5003 Q937.3594,455.1097 937.125,455.3753 Q936.8906,455.6409 936.5156,455.6409 Q936.1719,455.6409 935.9688,455.4378 Q935.7656,455.2503 935.6563,454.7347 Q935.6094,454.3753 935.4219,454.1878 Q935.0938,453.8128 934.4844,453.594 Q933.875,453.3753 933.25,453.3753 Q932.4844,453.3753 931.8438,453.7034 Q931.2188,454.0315 930.7188,454.7815 Q930.2344,455.5315 930.2344,456.5628 L930.2344,457.6565 Q930.2344,458.8909 931.125,459.719 Q932.0156,460.5315 933.6094,460.5315 Q934.5469,460.5315 935.2031,460.2815 Q935.5938,460.1253 936.0156,459.6878 Q936.2813,459.4222 936.4219,459.344 Q936.5781,459.2659 936.7813,459.2659 Q937.1094,459.2659 937.3594,459.5315 Q937.625,459.7815 937.625,460.1253 Q937.625,460.469 937.2813,460.8753 Q936.7813,461.4534 935.9844,461.7815 Q934.9063,462.2347 933.6094,462.2347 Q932.0938,462.2347 930.8906,461.6097 Q929.9063,461.1097 929.2188,460.0472 Q928.5313,458.969 928.5313,457.6878 L928.5313,456.5315 Q928.5313,455.2034 929.1406,454.0628 Q929.7656,452.9065 930.8594,452.2972 Q931.9531,451.6722 933.1875,451.6722 Q933.9219,451.6722 934.5625,451.844 Q935.2188,452.0003 935.7656,452.3597 Z " fill="#000000"/><text fill="#000000" font-family="sans-serif" font-size="14" lengthAdjust="spacing" textLength="66" x="947" y="462.2132">OpenField</text><line style="stroke:#181818;stroke-width:0.5;" x1="919" x2="1015" y1="472.4847" y2="472.4847"/><line style="stroke:#181818;stroke-width:0.5;" x1="919" x2="1015" y1="480.4847" y2="480.4847"/></g><!--MD5=[c98fdacbcd4eb224c2d9d26b53646e58]
reverse link Category to Category--><g id="link_Category_Category"><path codeLine="107" d="M662.2,9.4047 C677.83,10.1247 690,18.4847 690,34.4847 C690,54.7647 670.45,62.7747 649.1,58.4947 " fill="none" id="Category-backto-Category" style="stroke:#181818;stroke-width:1.0;"/><polygon fill="none" points="649.1,10.4747,655.4054,13.9735,661.0603,9.4988,654.7549,6,649.1,10.4747" style="stroke:#181818;stroke-width:1.0;"/><text fill="#000000" font-family="sans-serif" font-size="13" lengthAdjust="spacing" textLength="22" x="633.9494" y="79.8351">0..n</text></g><!--MD5=[06548aa1c124b95fb51b5a3e485cae93]
link Category to Concept--><g id="link_Category_Concept"><path codeLine="109" d="M564.75,57.3647 C516.91,80.5047 441.44,116.9947 390.39,141.6847 " fill="none" id="Category-to-Concept" style="stroke:#181818;stroke-width:1.0;"/><polygon fill="#181818" points="378.61,147.3847,385.7529,148.374,389.4134,142.161,382.2705,141.1717,378.61,147.3847" style="stroke:#181818;stroke-width:1.0;"/></g><!--MD5=[357c4abe4ae02615f163987610a5cb7f]
reverse link Concept to Keyword--><g id="link_Concept_Keyword"><path codeLine="110" d="M281.22,195.0247 C236.83,215.9547 173.16,247.4547 120,279.4847 C106.74,287.4747 92.7,297.1447 80.71,305.8047 " fill="none" id="Concept-backto-Keyword" style="stroke:#181818;stroke-width:1.0;"/><polygon fill="#181818" points="293.2,189.4047,286.0698,188.3277,282.3332,194.4952,289.4634,195.5722,293.2,189.4047" style="stroke:#181818;stroke-width:1.0;"/></g><!--MD5=[543bb2115b5a10697a67507a00f6a2f4]
reverse link Concept to Definition--><g id="link_Concept_Definition"><path codeLine="111" d="M357.27,204.1447 C376.38,234.8447 403.94,279.0947 420.59,305.8347 " fill="none" id="Concept-backto-Definition" style="stroke:#181818;stroke-width:1.0;"/><polygon fill="none" points="350.4,193.1047,350.1737,200.3122,356.7398,203.2932,356.9661,196.0857,350.4,193.1047" style="stroke:#181818;stroke-width:1.0;"/><text fill="#000000" font-family="sans-serif" font-size="13" lengthAdjust="spacing" textLength="22" x="392.0787" y="295.1364">0..n</text></g><!--MD5=[d5ca03c977d831fd4c76b3fa51a69d9d]
reverse link Definition to RealDefinition--><g id="link_Definition_RealDefinition"><path codeLine="112" d="M472.69,368.2547 C496.06,391.3647 525.37,420.3447 545.48,440.2247 " fill="none" id="Definition-backto-RealDefinition" style="stroke:#181818;stroke-width:1.0;"/><polygon fill="none" points="467.64,373.1047,458.34,354.0647,477.48,363.1447,467.64,373.1047" style="stroke:#181818;stroke-width:1.0;"/></g><!--MD5=[25e58a9c0be8a439885c1458066c607c]
reverse link Definition to FakeDefinition--><g id="link_Definition_FakeDefinition"><path codeLine="113" d="M427.54,373.9747 C423.71,395.9947 419.21,421.9547 416.04,440.2247 " fill="none" id="Definition-backto-FakeDefinition" style="stroke:#181818;stroke-width:1.0;"/><polygon fill="none" points="420.68,372.5747,430.99,354.0647,434.47,374.9647,420.68,372.5747" style="stroke:#181818;stroke-width:1.0;"/></g><!--MD5=[78bd55957e0cd29febcd097f805d8b51]
reverse link RealDefinition to Justification--><g id="link_RealDefinition_Justification"><path codeLine="115" d="M547.34,499.7847 C534.04,520.8447 517.35,547.2547 505.61,565.8547 " fill="none" id="RealDefinition-backto-Justification" style="stroke:#181818;stroke-width:1.0;"/><polygon fill="none" points="554.33,488.7147,547.7432,491.6497,547.9191,498.8586,554.5059,495.9236,554.33,488.7147" style="stroke:#181818;stroke-width:1.0;"/><text fill="#000000" font-family="sans-serif" font-size="13" lengthAdjust="spacing" textLength="22" x="484.5351" y="555.1615">0..n</text></g><!--MD5=[f12615961f0f17a875f73130a94f8aba]
reverse link FakeDefinition to Justification--><g id="link_FakeDefinition_Justification"><path codeLine="116" d="M433.94,499.7847 C447.41,520.8447 464.31,547.2547 476.21,565.8547 " fill="none" id="FakeDefinition-backto-Justification" style="stroke:#181818;stroke-width:1.0;"/><polygon fill="none" points="426.86,488.7147,426.7194,495.9244,433.3204,498.8272,433.461,491.6174,426.86,488.7147" style="stroke:#181818;stroke-width:1.0;"/><text fill="#000000" font-family="sans-serif" font-size="13" lengthAdjust="spacing" textLength="22" x="447.6013" y="555.1615">0..n</text></g><!--MD5=[0c4c23651a46cdff2b6bbd2c219913dd]
reverse link Justification to RealJustification--><g id="link_Justification_RealJustification"><path codeLine="118" d="M463.49,630.9547 C449.74,650.9347 433.59,674.3947 421.92,691.3547 " fill="none" id="Justification-backto-RealJustification" style="stroke:#181818;stroke-width:1.0;"/><polygon fill="none" points="457.91,626.7247,475.01,614.2147,469.44,634.6547,457.91,626.7247" style="stroke:#181818;stroke-width:1.0;"/></g><!--MD5=[ceb9e2406f870d29d588271060052454]
reverse link Justification to FakeJustification--><g id="link_Justification_FakeJustification"><path codeLine="119" d="M518.62,630.6547 C532.58,650.6947 549.02,674.3047 560.9,691.3547 " fill="none" id="Justification-backto-FakeJustification" style="stroke:#181818;stroke-width:1.0;"/><polygon fill="none" points="512.86,634.6247,507.18,614.2147,524.35,626.6247,512.86,634.6247" style="stroke:#181818;stroke-width:1.0;"/></g><!--MD5=[54f9360500e0fd532969fc16f437bbea]
reverse link Concept to Relation--><g id="link_Concept_Relation"><path codeLine="121" d="M315.35,204.5447 C297.02,235.2347 270.74,279.2147 254.83,305.8347 " fill="none" id="Concept-backto-Relation" style="stroke:#181818;stroke-width:1.0;"/><polygon fill="none" points="322.19,193.1047,315.6806,196.2076,316.0413,203.4097,322.5507,200.3067,322.19,193.1047" style="stroke:#181818;stroke-width:1.0;"/><text fill="#000000" font-family="sans-serif" font-size="13" lengthAdjust="spacing" textLength="22" x="233.5552" y="295.1364">0..n</text></g><!--MD5=[90ea77717cc70d7f588b001bbb985d62]
reverse link Relation to Classification--><g id="link_Relation_Classification"><path codeLine="122" d="M246.52,373.9747 C249.34,395.9947 252.67,421.9547 255.02,440.2247 " fill="none" id="Relation-backto-Classification" style="stroke:#181818;stroke-width:1.0;"/><polygon fill="none" points="239.56,374.7947,243.96,354.0647,253.45,373.0147,239.56,374.7947" style="stroke:#181818;stroke-width:1.0;"/></g><!--MD5=[aac130c8b5f905729b18e85e231f7b50]
reverse link Relation to Composition--><g id="link_Relation_Composition"><path codeLine="123" d="M203.83,368.5847 C181.03,391.6447 152.56,420.4347 133,440.2247 " fill="none" id="Relation-backto-Composition" style="stroke:#181818;stroke-width:1.0;"/><polygon fill="none" points="199.14,363.3647,218.18,354.0647,209.1,373.2047,199.14,363.3647" style="stroke:#181818;stroke-width:1.0;"/></g><!--MD5=[4348f2376e3bf4446bb805b359d93b50]
reverse link Classification to Concept--><g id="link_Classification_Concept"><path codeLine="124" d="M278.44,428.8647 C286.23,414.3447 294.54,397.0147 300,380.4847 C321.74,314.6447 330.93,232.6747 334.3,193.2647 " fill="none" id="Classification-backto-Concept" style="stroke:#181818;stroke-width:1.0;"/><polygon fill="#181818" points="272.09,440.3247,278.4966,437.0148,277.9054,429.8279,271.4988,433.1378,272.09,440.3247" style="stroke:#181818;stroke-width:1.0;"/><text fill="#000000" font-family="sans-serif" font-size="13" lengthAdjust="spacing" textLength="22" x="309.2044" y="214.6709">2..n</text></g><!--MD5=[585161ca14248a4093b9d8037fe841a0]
reverse link Composition to Concept--><g id="link_Composition_Concept"><path codeLine="125" d="M117.29,427.5047 C126.7,387.9747 146.17,324.1747 181,279.4847 C211.18,240.7647 258.73,210.0247 293.22,191.0847 " fill="none" id="Composition-backto-Concept" style="stroke:#181818;stroke-width:1.0;"/><polygon fill="#181818" points="114.37,440.4047,119.5959,435.4358,117.0192,428.7007,111.7933,433.6696,114.37,440.4047" style="stroke:#181818;stroke-width:1.0;"/><text fill="#000000" font-family="sans-serif" font-size="13" lengthAdjust="spacing" textLength="22" x="263.6572" y="190.5873">1..n</text></g><!--MD5=[1a1b676d11de0d3c9f1436eb98d48270]
link Category to Question--><g id="link_Category_Question"><path codeLine="127" d="M655.08,57.3647 C702.05,80.1647 775.74,115.9247 826.55,140.5847 " fill="none" id="Category-to-Question" style="stroke:#181818;stroke-width:1.0;"/><polygon fill="#181818" points="838.31,146.2947,834.6618,140.0745,827.5169,141.0497,831.1651,147.2699,838.31,146.2947" style="stroke:#181818;stroke-width:1.0;"/></g><!--MD5=[2feebbf5a2a7ca3d6cf397d4221288ef]
reverse link Level to Primary--><g id="link_Level_Primary"><path codeLine="129" d="M1407.47,50.7347 C1497.72,76.9547 1680.82,130.1547 1765.8,154.8547 " fill="none" id="Level-backto-Primary" style="stroke:#181818;stroke-width:1.0;"/><polygon fill="none" points="1405.41,57.4247,1388.16,45.1247,1409.32,43.9747,1405.41,57.4247" style="stroke:#181818;stroke-width:1.0;"/></g><!--MD5=[cb19bd22a149a884c5664d5c3292c3d0]
reverse link Level to Secundary--><g id="link_Level_Secundary"><path codeLine="130" d="M1355,78.5947 C1355,94.2247 1355,111.8247 1355,127.2447 " fill="none" id="Level-backto-Secundary" style="stroke:#181818;stroke-width:1.0;"/><polygon fill="none" points="1348,78.5647,1355,58.5647,1362,78.5647,1348,78.5647" style="stroke:#181818;stroke-width:1.0;"/></g><!--MD5=[05d0a703757aee1cfd30e35a16292b7e]
reverse link Level to Tertiary--><g id="link_Level_Tertiary"><path codeLine="131" d="M1408.08,43.5147 C1502.11,57.8447 1704.04,89.0847 1874,118.4847 C1947.25,131.1547 2031.58,147.0747 2085.31,157.3847 " fill="none" id="Level-backto-Tertiary" style="stroke:#181818;stroke-width:1.0;"/><polygon fill="none" points="1406.86,50.4147,1388.14,40.4847,1408.97,36.5747,1406.86,50.4147" style="stroke:#181818;stroke-width:1.0;"/></g><!--MD5=[fdd8ccc3cec16c0535a8177d4f82d04c]
reverse link Primary to DefinitionQuestion--><g id="link_Primary_DefinitionQuestion"><path codeLine="133" d="M1811,222.3947 C1811,240.7147 1811,261.2247 1811,279.3147 " fill="none" id="Primary-backto-DefinitionQuestion" style="stroke:#181818;stroke-width:1.0;"/><polygon fill="none" points="1804,222.1647,1811,202.1647,1818,222.1647,1804,222.1647" style="stroke:#181818;stroke-width:1.0;"/></g><!--MD5=[f8a9a2c836eb5790bf022d791b86ccf8]
link DefinitionQuestion to AnswersToReview--><g id="link_DefinitionQuestion_AnswersToReview"><path codeLine="135" d="M1756.22,380.7047 C1735.31,399.6747 1712.26,420.5947 1694.57,436.6547 " fill="none" id="DefinitionQuestion-to-AnswersToReview" style="stroke:#181818;stroke-width:1.0;"/><polygon fill="#181818" points="1690.65,440.2047,1700.0031,437.1194,1694.3529,436.8449,1694.6274,431.1947,1690.65,440.2047" style="stroke:#181818;stroke-width:1.0;"/></g><!--MD5=[c508e0953270ea4c006caa17b3b9ad4b]
reverse link AnswersToReview to AnswersToReviewDefinition--><g id="link_AnswersToReview_AnswersToReviewDefinition"><path codeLine="136" d="M1626.65,502.7747 C1611.85,517.1647 1594.89,533.6647 1579.78,548.3547 " fill="none" id="AnswersToReview-backto-AnswersToReviewDefinition" style="stroke:#181818;stroke-width:1.0;"/><polygon fill="none" points="1621.89,497.6347,1641.11,488.7147,1631.65,507.6747,1621.89,497.6347" style="stroke:#181818;stroke-width:1.0;"/></g><!--MD5=[07224d3247461a492442982e055c6432]
reverse link Secundary to ReverseDefinitionQuestion--><g id="link_Secundary_ReverseDefinitionQuestion"><path codeLine="138" d="M1298.65,224.6247 C1280.3,242.4047 1260.05,262.0447 1242.11,279.4347 " fill="none" id="Secundary-backto-ReverseDefinitionQuestion" style="stroke:#181818;stroke-width:1.0;"/><polygon fill="none" points="1293.96,219.4147,1313.19,210.5147,1303.7,229.4647,1293.96,219.4147" style="stroke:#181818;stroke-width:1.0;"/></g><!--MD5=[d13cf9860bfaeafa7be5237755b5c8ab]
link ReverseDefinitionQuestion to AnswersToReview--><g id="link_ReverseDefinitionQuestion_AnswersToReview"><path codeLine="139" d="M1313.82,374.8647 C1319.95,376.8147 1326.04,378.6947 1332,380.4847 C1418.08,406.2647 1518.32,430.4747 1586.15,446.0147 " fill="none" id="ReverseDefinitionQuestion-to-AnswersToReview" style="stroke:#181818;stroke-width:1.0;"/><polygon fill="#181818" points="1591.38,447.2147,1583.4985,441.3085,1586.5059,446.0998,1581.7147,449.1071,1591.38,447.2147" style="stroke:#181818;stroke-width:1.0;"/></g><!--MD5=[7a740269a3e2d4486cc381088e8a84ff]
reverse link AnswersToReview to AnswersToReviewIncorrectAnswer--><g id="link_AnswersToReview_AnswersToReviewIncorrectAnswer"><path codeLine="140" d="M1758.37,492.3047 C1815.51,508.7147 1889.72,530.0247 1953.93,548.4647 " fill="none" id="AnswersToReview-backto-AnswersToReviewIncorrectAnswer" style="stroke:#181818;stroke-width:1.0;"/><polygon fill="none" points="1756.21,498.9647,1738.92,486.7147,1760.07,485.5047,1756.21,498.9647" style="stroke:#181818;stroke-width:1.0;"/></g><!--MD5=[2754f538d85f6239e3347737939477be]
reverse link Secundary to JustificationQuestion--><g id="link_Secundary_JustificationQuestion"><path codeLine="142" d="M1411.35,224.6247 C1429.7,242.4047 1449.95,262.0447 1467.89,279.4347 " fill="none" id="Secundary-backto-JustificationQuestion" style="stroke:#181818;stroke-width:1.0;"/><polygon fill="none" points="1406.3,229.4647,1396.81,210.5147,1416.04,219.4147,1406.3,229.4647" style="stroke:#181818;stroke-width:1.0;"/></g><!--MD5=[43786d1ffd9ba35b399f77c742b63e8d]
link JustificationQuestion to AnswersToReview--><g id="link_JustificationQuestion_AnswersToReview"><path codeLine="143" d="M1573.78,380.7047 C1594.69,399.6747 1617.74,420.5947 1635.43,436.6547 " fill="none" id="JustificationQuestion-to-AnswersToReview" style="stroke:#181818;stroke-width:1.0;"/><polygon fill="#181818" points="1639.35,440.2047,1635.3726,431.1947,1635.6471,436.8449,1629.9969,437.1194,1639.35,440.2047" style="stroke:#181818;stroke-width:1.0;"/></g><!--MD5=[deed0ae1365f8c72fe10ebd5753a6488]
reverse link AnswersToReview to AnswersToReviewJustification--><g id="link_AnswersToReview_AnswersToReviewJustification"><path codeLine="144" d="M1703.35,502.7747 C1718.15,517.1647 1735.11,533.6647 1750.22,548.3547 " fill="none" id="AnswersToReview-backto-AnswersToReviewJustification" style="stroke:#181818;stroke-width:1.0;"/><polygon fill="none" points="1698.35,507.6747,1688.89,488.7147,1708.11,497.6347,1698.35,507.6747" style="stroke:#181818;stroke-width:1.0;"/></g><!--MD5=[c2efebacb1bef0f363fbae42b6dd9ec1]
reverse link Tertiary to MultipleChoiceTertiaryX--><g id="link_Tertiary_MultipleChoiceTertiaryX"><path codeLine="146" d="M2210.29,227.5947 C2234.88,247.7447 2261.96,269.9347 2284.49,288.4047 " fill="none" id="Tertiary-backto-MultipleChoiceTertiaryX" style="stroke:#181818;stroke-width:1.0;"/><polygon fill="none" points="2205.59,232.7947,2194.56,214.6947,2214.46,221.9647,2205.59,232.7947" style="stroke:#181818;stroke-width:1.0;"/></g><!--MD5=[e9c72b70a48ed361615f41ee3fac4875]
reverse link Primary to ClassQuestion--><g id="link_Primary_ClassQuestion"><path codeLine="148" d="M1873.66,208.3047 C1908.6,229.6647 1952.5,256.5147 1990.02,279.4547 " fill="none" id="Primary-backto-ClassQuestion" style="stroke:#181818;stroke-width:1.0;"/><polygon fill="none" points="1869.7,214.0847,1856.29,197.6847,1877,202.1447,1869.7,214.0847" style="stroke:#181818;stroke-width:1.0;"/></g><!--MD5=[c91b505d63772612177af3ea56276104]
link ClassQuestion to AnswersToReview--><g id="link_ClassQuestion_AnswersToReview"><path codeLine="149" d="M1933.26,375.9347 C1868.75,396.9847 1794.4,421.2547 1740.35,438.8947 " fill="none" id="ClassQuestion-to-AnswersToReview" style="stroke:#181818;stroke-width:1.0;"/><polygon fill="#181818" points="1735.52,440.4747,1745.315,441.503,1740.2761,438.9321,1742.847,433.8932,1735.52,440.4747" style="stroke:#181818;stroke-width:1.0;"/></g><!--MD5=[d8e3eba936d6048e4e6f93e8582fbf20]
reverse link AnswersToReview to AnswersToReviewClasses--><g id="link_AnswersToReview_AnswersToReviewClasses"><path codeLine="150" d="M1571.89,492.5447 C1515.56,508.9047 1442.68,530.0847 1379.56,548.4347 " fill="none" id="AnswersToReview-backto-AnswersToReviewClasses" style="stroke:#181818;stroke-width:1.0;"/><polygon fill="none" points="1570.3,485.7147,1591.46,486.8547,1574.2,499.1547,1570.3,485.7147" style="stroke:#181818;stroke-width:1.0;"/></g><!--MD5=[e606f77146d938d8532e8f0fa5171a79]
link Level to Concept--><g id="link_Level_Concept"><path codeLine="152" d="M1321.96,39.7847 C1174.74,58.9247 577.52,136.5747 391.56,160.7647 " fill="none" id="Level-to-Concept" style="stroke:#181818;stroke-width:1.0;"/><polygon fill="#181818" points="378.64,162.4447,385.1047,165.6396,390.5403,160.901,384.0756,157.7061,378.64,162.4447" style="stroke:#181818;stroke-width:1.0;"/></g><!--MD5=[b14e1fcdfcb60d39b6e3f6e87700db73]
link Level to Question--><g id="link_Level_Question"><path codeLine="153" d="M1321.81,44.8047 C1242.28,67.1247 1040.06,123.8947 940.36,151.8847 " fill="none" id="Level-to-Question" style="stroke:#181818;stroke-width:1.0;"/><polygon fill="#181818" points="927.57,155.4747,934.4273,157.7055,939.1241,152.2337,932.2667,150.0028,927.57,155.4747" style="stroke:#181818;stroke-width:1.0;"/></g><!--MD5=[f5bccbd5bfaa05fddfe2ae56cb719779]
reverse link Question to MultipleChoice--><g id="link_Question_MultipleChoice"><path codeLine="154" d="M828.2,203.6447 C792.99,225.2847 746.28,254.0147 705,279.4847 C691.1,288.0647 675.85,297.4847 662.43,305.7947 " fill="none" id="Question-backto-MultipleChoice" style="stroke:#181818;stroke-width:1.0;"/><polygon fill="none" points="824.77,197.5347,845.48,193.0247,832.1,209.4647,824.77,197.5347" style="stroke:#181818;stroke-width:1.0;"/></g><!--MD5=[4cad30c456caf6c2d8ef64c6efcf5ce1]
reverse link Question to Open--><g id="link_Question_Open"><path codeLine="155" d="M912.11,209.5447 C934.41,239.8547 964.42,280.6247 982.97,305.8347 " fill="none" id="Question-backto-Open" style="stroke:#181818;stroke-width:1.0;"/><polygon fill="none" points="906.23,213.3647,900.01,193.1047,917.5,205.0647,906.23,213.3647" style="stroke:#181818;stroke-width:1.0;"/></g><!--MD5=[eff6b19138ddb6af13849faaf0a4f1bc]
reverse link Question to Statement--><g id="link_Question_Statement"><path codeLine="156" d="M883,206.1947 C883,236.7847 883,279.6847 883,305.8347 " fill="none" id="Question-backto-Statement" style="stroke:#181818;stroke-width:1.0;"/><polygon fill="#181818" points="883,193.1047,879,199.1047,883,205.1047,887,199.1047,883,193.1047" style="stroke:#181818;stroke-width:1.0;"/></g><!--MD5=[edac056e3da0b394aa7eb7158b920fdf]
reverse link MultipleChoice to Incorrect--><g id="link_MultipleChoice_Incorrect"><path codeLine="157" d="M646.5,365.3147 C661.26,388.8647 680.44,419.4847 693.43,440.2247 " fill="none" id="MultipleChoice-backto-Incorrect" style="stroke:#181818;stroke-width:1.0;"/><polygon fill="#181818" points="639.46,354.0647,639.2556,361.2729,645.8307,364.234,646.0351,357.0258,639.46,354.0647" style="stroke:#181818;stroke-width:1.0;"/><text fill="#000000" font-family="sans-serif" font-size="13" lengthAdjust="spacing" textLength="7" x="681.7996" y="429.4982">3</text></g><!--MD5=[dbc39d3c7bd5d7c9396f15d8cd3d35b5]
reverse link MultipleChoice to Correct--><g id="link_MultipleChoice_Correct"><path codeLine="158" d="M670.87,361.2247 C707.39,385.2947 757.74,418.4947 791.05,440.4447 " fill="none" id="MultipleChoice-backto-Correct" style="stroke:#181818;stroke-width:1.0;"/><polygon fill="#181818" points="660.01,354.0647,662.8139,360.7083,670.0249,360.6753,667.221,354.0317,660.01,354.0647" style="stroke:#181818;stroke-width:1.0;"/></g><!--MD5=[b1491d38e87214202fddacec717a9c8d]
reverse link Answer to Correct--><g id="link_Answer_Correct"><path codeLine="159" d="M781.25,372.2647 C792.23,394.6447 805.39,421.4747 814.59,440.2247 " fill="none" id="Answer-backto-Correct" style="stroke:#181818;stroke-width:1.0;"/><polygon fill="none" points="774.85,375.1047,772.32,354.0647,787.42,368.9347,774.85,375.1047" style="stroke:#181818;stroke-width:1.0;"/></g><!--MD5=[a6181c8180a1587156cddad319d63c9e]
reverse link Answer to Incorrect--><g id="link_Answer_Incorrect"><path codeLine="160" d="M744.21,372.9447 C735.32,395.1847 724.73,421.6647 717.3,440.2247 " fill="none" id="Answer-backto-Incorrect" style="stroke:#181818;stroke-width:1.0;"/><polygon fill="none" points="737.84,370.0347,751.77,354.0647,750.84,375.2347,737.84,370.0347" style="stroke:#181818;stroke-width:1.0;"/></g><!--MD5=[f8d4517273a291fe1b4647de6925b9ab]
reverse link Answer to OpenField--><g id="link_Answer_OpenField"><path codeLine="161" d="M800.59,367.1747 C806.29,371.8447 812.19,376.4147 818,380.4847 C850.48,403.2647 889.79,424.9447 919.87,440.4247 " fill="none" id="Answer-backto-OpenField" style="stroke:#181818;stroke-width:1.0;"/><polygon fill="none" points="795.96,372.4247,785.34,354.0847,805.07,361.8047,795.96,372.4247" style="stroke:#181818;stroke-width:1.0;"/></g><!--MD5=[59461357328b13f33e0e2dce35b637f1]
reverse link Open to OpenField--><g id="link_Open_OpenField"><path codeLine="162" d="M991.05,366.9347 C985.24,390.2547 977.84,419.9647 972.79,440.2247 " fill="none" id="Open-backto-OpenField" style="stroke:#181818;stroke-width:1.0;"/><polygon fill="#181818" points="994.25,354.0647,988.9194,358.921,991.352,365.7095,996.6826,360.8531,994.25,354.0647" style="stroke:#181818;stroke-width:1.0;"/></g><!--MD5=[880504078d284db5139e3f758340942c]
@startuml ConceptDomainDetail

class Category 

class Concept

class Keyword

class Definition

class RealDefinition

class FakeDefinition

class Justification

class RealJustification

class FakeJustification

class Relation

class Classification

class Composition

class Level

class Primary {
    withKeyword
}

class Secundary {
    withKeyword
    withDefinition
}

class Tertiary {
    withKeyword
    withDefinition
    withJustification
}

class DefinitionQuestion {
    + statement:
     "¿Qué es KEYWORD?"
    + 1 open answer
}

class ReverseDefinitionQuestion {
    + statement:
     "¿Qué es esta REALDEFINITION?"
    + 1 open answer
}

class JustificationQuestion {
    +statement:
"¿La KEYWORD es esta DEFINITION?¿Por qué?"
    + 1 open answer
}

class MultipleChoiceTertiaryX {
    +statement
    autocorrection
}

class ClassQuestion  {
    +statement:
"Dime los distintos tipos de KEYWORD"
    + 1 open answer 
}

class Open 

class Question

class MultipleChoice

class Statement

class Answer 

class Correct

class Incorrect

class AnswersToReview

class AnswersToReviewDefinition {
    answers
    addDefinition(keyword)
}

class AnswersToReviewJustification {
    answers
    addJustification(keyword,definition)
}

class AnswersToReviewIncorrectAnswer {
    answers
    addFakeKeyword(AutomaticReverseQuestion)
}

class AnswersToReviewClasses {
    answers
    addClassification(otherConceptKeyword,relation)
}
Category o- -"0..n" Category

Category - -* Concept
Concept *- - Keyword
Concept o- -"0..n" Definition
Definition <|- - RealDefinition
Definition <|- - FakeDefinition

RealDefinition o- - "0..n" Justification
FakeDefinition o- - "0..n" Justification

Justification <|- - RealJustification
Justification <|- - FakeJustification

Concept o- - "0..n" Relation
Relation <|- - Classification
Relation <|- - Composition
Classification *- - "2..n" Concept
Composition *- - "1..n" Concept

Category - -* Question

Level <|- - Primary
Level <|- - Secundary
Level <|- - Tertiary

Primary <|- - DefinitionQuestion

DefinitionQuestion - -> AnswersToReview
AnswersToReview<|- -AnswersToReviewDefinition

Secundary <|- - ReverseDefinitionQuestion
ReverseDefinitionQuestion - -> AnswersToReview
AnswersToReview<|- -AnswersToReviewIncorrectAnswer 

Secundary <|- - JustificationQuestion
JustificationQuestion - -> AnswersToReview
AnswersToReview<|- -AnswersToReviewJustification

Tertiary <|- - MultipleChoiceTertiaryX

Primary <|- - ClassQuestion
ClassQuestion - -> AnswersToReview
AnswersToReview<|- -AnswersToReviewClasses

Level - -* Concept
Level - -* Question
Question <|- - MultipleChoice
Question <|- - Open
Question *- -  Statement
MultipleChoice *- -"3" Incorrect
MultipleChoice *- - Correct
Answer <|- - Correct
Answer <|- - Incorrect
Answer <|- - OpenField
Open *- -OpenField
@enduml

PlantUML version 1.2022.7(Mon Aug 22 18:01:30 WEST 2022)
(GPL source distribution)
Java Runtime: OpenJDK Runtime Environment
JVM: OpenJDK 64-Bit Server VM
Default Encoding: Cp1252
Language: es
Country: ES
--></g></svg>