<?xml version="1.0" encoding="UTF-8" standalone="no"?><svg xmlns="http://www.w3.org/2000/svg" xmlns:xlink="http://www.w3.org/1999/xlink" contentStyleType="text/css" height="635px" preserveAspectRatio="none" style="width:1063px;height:635px;background:#FFFFFF;" version="1.1" viewBox="0 0 1063 635" width="1063px" zoomAndPan="magnify"><defs/><g><!--MD5=[9d451b2f92d848a8e2d1a4dab2b1c6bf]
class Concept--><g id="elem_Concept"><rect codeLine="2" fill="#F1F1F1" height="65.6094" id="Concept" rx="2.5" ry="2.5" style="stroke:#181818;stroke-width:0.5;" width="85" x="297.65" y="261"/><ellipse cx="312.65" cy="277" fill="#ADD1B2" rx="11" ry="11" style="stroke:#181818;stroke-width:1.0;"/><path d="M315.4156,272.875 Q315.5719,272.6563 315.7594,272.5469 Q315.9469,272.4375 316.1656,272.4375 Q316.5406,272.4375 316.775,272.7031 Q317.0094,272.9531 317.0094,273.5625 L317.0094,275.0156 Q317.0094,275.625 316.775,275.8906 Q316.5406,276.1563 316.1656,276.1563 Q315.8219,276.1563 315.6188,275.9531 Q315.4156,275.7656 315.3063,275.25 Q315.2594,274.8906 315.0719,274.7031 Q314.7438,274.3281 314.1344,274.1094 Q313.525,273.8906 312.9,273.8906 Q312.1344,273.8906 311.4938,274.2188 Q310.8688,274.5469 310.3688,275.2969 Q309.8844,276.0469 309.8844,277.0781 L309.8844,278.1719 Q309.8844,279.4063 310.775,280.2344 Q311.6656,281.0469 313.2594,281.0469 Q314.1969,281.0469 314.8531,280.7969 Q315.2438,280.6406 315.6656,280.2031 Q315.9313,279.9375 316.0719,279.8594 Q316.2281,279.7813 316.4313,279.7813 Q316.7594,279.7813 317.0094,280.0469 Q317.275,280.2969 317.275,280.6406 Q317.275,280.9844 316.9313,281.3906 Q316.4313,281.9688 315.6344,282.2969 Q314.5563,282.75 313.2594,282.75 Q311.7438,282.75 310.5406,282.125 Q309.5563,281.625 308.8688,280.5625 Q308.1813,279.4844 308.1813,278.2031 L308.1813,277.0469 Q308.1813,275.7188 308.7906,274.5781 Q309.4156,273.4219 310.5094,272.8125 Q311.6031,272.1875 312.8375,272.1875 Q313.5719,272.1875 314.2125,272.3594 Q314.8688,272.5156 315.4156,272.875 Z " fill="#000000"/><text fill="#000000" font-family="sans-serif" font-size="14" lengthAdjust="spacing" textLength="53" x="326.65" y="282.7285">Concept</text><line style="stroke:#181818;stroke-width:0.5;" x1="298.65" x2="381.65" y1="293" y2="293"/><rect fill="none" height="6" style="stroke:#C82930;stroke-width:1.0;" width="6" x="305.65" y="304.3047"/><text fill="#000000" font-family="sans-serif" font-size="14" lengthAdjust="spacing" textLength="52" x="317.65" y="311.5332">keyword</text><line style="stroke:#181818;stroke-width:0.5;" x1="298.65" x2="381.65" y1="318.6094" y2="318.6094"/></g><!--MD5=[af22135d5be6ed11ccd2d02fa51653b3]
class Definition--><g id="elem_Definition"><rect codeLine="6" fill="#F1F1F1" height="65.6094" id="Definition" rx="2.5" ry="2.5" style="stroke:#181818;stroke-width:0.5;" width="91" x="190.65" y="453"/><ellipse cx="205.65" cy="469" fill="#ADD1B2" rx="11" ry="11" style="stroke:#181818;stroke-width:1.0;"/><path d="M208.4156,464.875 Q208.5719,464.6563 208.7594,464.5469 Q208.9469,464.4375 209.1656,464.4375 Q209.5406,464.4375 209.775,464.7031 Q210.0094,464.9531 210.0094,465.5625 L210.0094,467.0156 Q210.0094,467.625 209.775,467.8906 Q209.5406,468.1563 209.1656,468.1563 Q208.8219,468.1563 208.6188,467.9531 Q208.4156,467.7656 208.3063,467.25 Q208.2594,466.8906 208.0719,466.7031 Q207.7438,466.3281 207.1344,466.1094 Q206.525,465.8906 205.9,465.8906 Q205.1344,465.8906 204.4938,466.2188 Q203.8688,466.5469 203.3688,467.2969 Q202.8844,468.0469 202.8844,469.0781 L202.8844,470.1719 Q202.8844,471.4063 203.775,472.2344 Q204.6656,473.0469 206.2594,473.0469 Q207.1969,473.0469 207.8531,472.7969 Q208.2438,472.6406 208.6656,472.2031 Q208.9313,471.9375 209.0719,471.8594 Q209.2281,471.7813 209.4313,471.7813 Q209.7594,471.7813 210.0094,472.0469 Q210.275,472.2969 210.275,472.6406 Q210.275,472.9844 209.9313,473.3906 Q209.4313,473.9688 208.6344,474.2969 Q207.5563,474.75 206.2594,474.75 Q204.7438,474.75 203.5406,474.125 Q202.5563,473.625 201.8688,472.5625 Q201.1813,471.4844 201.1813,470.2031 L201.1813,469.0469 Q201.1813,467.7188 201.7906,466.5781 Q202.4156,465.4219 203.5094,464.8125 Q204.6031,464.1875 205.8375,464.1875 Q206.5719,464.1875 207.2125,464.3594 Q207.8688,464.5156 208.4156,464.875 Z " fill="#000000"/><text fill="#000000" font-family="sans-serif" font-size="14" lengthAdjust="spacing" textLength="59" x="219.65" y="474.7285">Definition</text><line style="stroke:#181818;stroke-width:0.5;" x1="191.65" x2="280.65" y1="485" y2="485"/><rect fill="none" height="6" style="stroke:#C82930;stroke-width:1.0;" width="6" x="198.65" y="496.3047"/><text fill="#000000" font-family="sans-serif" font-size="14" lengthAdjust="spacing" textLength="42" x="210.65" y="503.5332">isFake</text><line style="stroke:#181818;stroke-width:0.5;" x1="191.65" x2="280.65" y1="510.6094" y2="510.6094"/></g><!--MD5=[534474e9f05b14d7c70186ae077f30e0]
class Relation--><g id="elem_Relation"><rect codeLine="10" fill="#F1F1F1" height="48" id="Relation" rx="2.5" ry="2.5" style="stroke:#181818;stroke-width:0.5;" width="84" x="320.15" y="462"/><ellipse cx="335.15" cy="478" fill="#ADD1B2" rx="11" ry="11" style="stroke:#181818;stroke-width:1.0;"/><path d="M337.9156,473.875 Q338.0719,473.6563 338.2594,473.5469 Q338.4469,473.4375 338.6656,473.4375 Q339.0406,473.4375 339.275,473.7031 Q339.5094,473.9531 339.5094,474.5625 L339.5094,476.0156 Q339.5094,476.625 339.275,476.8906 Q339.0406,477.1563 338.6656,477.1563 Q338.3219,477.1563 338.1188,476.9531 Q337.9156,476.7656 337.8063,476.25 Q337.7594,475.8906 337.5719,475.7031 Q337.2438,475.3281 336.6344,475.1094 Q336.025,474.8906 335.4,474.8906 Q334.6344,474.8906 333.9938,475.2188 Q333.3688,475.5469 332.8688,476.2969 Q332.3844,477.0469 332.3844,478.0781 L332.3844,479.1719 Q332.3844,480.4063 333.275,481.2344 Q334.1656,482.0469 335.7594,482.0469 Q336.6969,482.0469 337.3531,481.7969 Q337.7438,481.6406 338.1656,481.2031 Q338.4313,480.9375 338.5719,480.8594 Q338.7281,480.7813 338.9313,480.7813 Q339.2594,480.7813 339.5094,481.0469 Q339.775,481.2969 339.775,481.6406 Q339.775,481.9844 339.4313,482.3906 Q338.9313,482.9688 338.1344,483.2969 Q337.0563,483.75 335.7594,483.75 Q334.2438,483.75 333.0406,483.125 Q332.0563,482.625 331.3688,481.5625 Q330.6813,480.4844 330.6813,479.2031 L330.6813,478.0469 Q330.6813,476.7188 331.2906,475.5781 Q331.9156,474.4219 333.0094,473.8125 Q334.1031,473.1875 335.3375,473.1875 Q336.0719,473.1875 336.7125,473.3594 Q337.3688,473.5156 337.9156,473.875 Z " fill="#000000"/><text fill="#000000" font-family="sans-serif" font-size="14" lengthAdjust="spacing" textLength="52" x="349.15" y="483.7285">Relation</text><line style="stroke:#181818;stroke-width:0.5;" x1="321.15" x2="403.15" y1="494" y2="494"/><line style="stroke:#181818;stroke-width:0.5;" x1="321.15" x2="403.15" y1="502" y2="502"/></g><!--MD5=[9c239722e256878d27dcbb07783cc14f]
class Classification--><g id="elem_Classification"><rect codeLine="12" fill="#F1F1F1" height="48" id="Classification" rx="2.5" ry="2.5" style="stroke:#181818;stroke-width:0.5;" width="115" x="352.65" y="580"/><ellipse cx="367.65" cy="596" fill="#ADD1B2" rx="11" ry="11" style="stroke:#181818;stroke-width:1.0;"/><path d="M370.4156,591.875 Q370.5719,591.6563 370.7594,591.5469 Q370.9469,591.4375 371.1656,591.4375 Q371.5406,591.4375 371.775,591.7031 Q372.0094,591.9531 372.0094,592.5625 L372.0094,594.0156 Q372.0094,594.625 371.775,594.8906 Q371.5406,595.1563 371.1656,595.1563 Q370.8219,595.1563 370.6188,594.9531 Q370.4156,594.7656 370.3063,594.25 Q370.2594,593.8906 370.0719,593.7031 Q369.7438,593.3281 369.1344,593.1094 Q368.525,592.8906 367.9,592.8906 Q367.1344,592.8906 366.4938,593.2188 Q365.8688,593.5469 365.3688,594.2969 Q364.8844,595.0469 364.8844,596.0781 L364.8844,597.1719 Q364.8844,598.4063 365.775,599.2344 Q366.6656,600.0469 368.2594,600.0469 Q369.1969,600.0469 369.8531,599.7969 Q370.2438,599.6406 370.6656,599.2031 Q370.9313,598.9375 371.0719,598.8594 Q371.2281,598.7813 371.4313,598.7813 Q371.7594,598.7813 372.0094,599.0469 Q372.275,599.2969 372.275,599.6406 Q372.275,599.9844 371.9313,600.3906 Q371.4313,600.9688 370.6344,601.2969 Q369.5563,601.75 368.2594,601.75 Q366.7438,601.75 365.5406,601.125 Q364.5563,600.625 363.8688,599.5625 Q363.1813,598.4844 363.1813,597.2031 L363.1813,596.0469 Q363.1813,594.7188 363.7906,593.5781 Q364.4156,592.4219 365.5094,591.8125 Q366.6031,591.1875 367.8375,591.1875 Q368.5719,591.1875 369.2125,591.3594 Q369.8688,591.5156 370.4156,591.875 Z " fill="#000000"/><text fill="#000000" font-family="sans-serif" font-size="14" lengthAdjust="spacing" textLength="83" x="381.65" y="601.7285">Classification</text><line style="stroke:#181818;stroke-width:0.5;" x1="353.65" x2="466.65" y1="612" y2="612"/><line style="stroke:#181818;stroke-width:0.5;" x1="353.65" x2="466.65" y1="620" y2="620"/></g><!--MD5=[251454e98c15f29849fb35b1904d0020]
class Composition--><g id="elem_Composition"><rect codeLine="14" fill="#F1F1F1" height="48" id="Composition" rx="2.5" ry="2.5" style="stroke:#181818;stroke-width:0.5;" width="110" x="537.15" y="580"/><ellipse cx="552.15" cy="596" fill="#ADD1B2" rx="11" ry="11" style="stroke:#181818;stroke-width:1.0;"/><path d="M554.9156,591.875 Q555.0719,591.6563 555.2594,591.5469 Q555.4469,591.4375 555.6656,591.4375 Q556.0406,591.4375 556.275,591.7031 Q556.5094,591.9531 556.5094,592.5625 L556.5094,594.0156 Q556.5094,594.625 556.275,594.8906 Q556.0406,595.1563 555.6656,595.1563 Q555.3219,595.1563 555.1188,594.9531 Q554.9156,594.7656 554.8063,594.25 Q554.7594,593.8906 554.5719,593.7031 Q554.2438,593.3281 553.6344,593.1094 Q553.025,592.8906 552.4,592.8906 Q551.6344,592.8906 550.9938,593.2188 Q550.3688,593.5469 549.8688,594.2969 Q549.3844,595.0469 549.3844,596.0781 L549.3844,597.1719 Q549.3844,598.4063 550.275,599.2344 Q551.1656,600.0469 552.7594,600.0469 Q553.6969,600.0469 554.3531,599.7969 Q554.7438,599.6406 555.1656,599.2031 Q555.4313,598.9375 555.5719,598.8594 Q555.7281,598.7813 555.9313,598.7813 Q556.2594,598.7813 556.5094,599.0469 Q556.775,599.2969 556.775,599.6406 Q556.775,599.9844 556.4313,600.3906 Q555.9313,600.9688 555.1344,601.2969 Q554.0563,601.75 552.7594,601.75 Q551.2438,601.75 550.0406,601.125 Q549.0563,600.625 548.3688,599.5625 Q547.6813,598.4844 547.6813,597.2031 L547.6813,596.0469 Q547.6813,594.7188 548.2906,593.5781 Q548.9156,592.4219 550.0094,591.8125 Q551.1031,591.1875 552.3375,591.1875 Q553.0719,591.1875 553.7125,591.3594 Q554.3688,591.5156 554.9156,591.875 Z " fill="#000000"/><text fill="#000000" font-family="sans-serif" font-size="14" lengthAdjust="spacing" textLength="78" x="566.15" y="601.7285">Composition</text><line style="stroke:#181818;stroke-width:0.5;" x1="538.15" x2="646.15" y1="612" y2="612"/><line style="stroke:#181818;stroke-width:0.5;" x1="538.15" x2="646.15" y1="620" y2="620"/></g><!--MD5=[a273cb2d535cd0db32a65a079a20fa3f]
class Primary--><g id="elem_Primary"><rect codeLine="16" fill="#F1F1F1" height="65.6094" id="Primary" rx="2.5" ry="2.5" style="stroke:#181818;stroke-width:0.5;" width="104" x="333.15" y="7"/><ellipse cx="358.95" cy="23" fill="#ADD1B2" rx="11" ry="11" style="stroke:#181818;stroke-width:1.0;"/><path d="M361.7156,18.875 Q361.8719,18.6563 362.0594,18.5469 Q362.2469,18.4375 362.4656,18.4375 Q362.8406,18.4375 363.075,18.7031 Q363.3094,18.9531 363.3094,19.5625 L363.3094,21.0156 Q363.3094,21.625 363.075,21.8906 Q362.8406,22.1563 362.4656,22.1563 Q362.1219,22.1563 361.9188,21.9531 Q361.7156,21.7656 361.6063,21.25 Q361.5594,20.8906 361.3719,20.7031 Q361.0438,20.3281 360.4344,20.1094 Q359.825,19.8906 359.2,19.8906 Q358.4344,19.8906 357.7938,20.2188 Q357.1688,20.5469 356.6688,21.2969 Q356.1844,22.0469 356.1844,23.0781 L356.1844,24.1719 Q356.1844,25.4063 357.075,26.2344 Q357.9656,27.0469 359.5594,27.0469 Q360.4969,27.0469 361.1531,26.7969 Q361.5438,26.6406 361.9656,26.2031 Q362.2313,25.9375 362.3719,25.8594 Q362.5281,25.7813 362.7313,25.7813 Q363.0594,25.7813 363.3094,26.0469 Q363.575,26.2969 363.575,26.6406 Q363.575,26.9844 363.2313,27.3906 Q362.7313,27.9688 361.9344,28.2969 Q360.8563,28.75 359.5594,28.75 Q358.0438,28.75 356.8406,28.125 Q355.8563,27.625 355.1688,26.5625 Q354.4813,25.4844 354.4813,24.2031 L354.4813,23.0469 Q354.4813,21.7188 355.0906,20.5781 Q355.7156,19.4219 356.8094,18.8125 Q357.9031,18.1875 359.1375,18.1875 Q359.8719,18.1875 360.5125,18.3594 Q361.1688,18.5156 361.7156,18.875 Z " fill="#000000"/><text fill="#000000" font-family="sans-serif" font-size="14" lengthAdjust="spacing" textLength="48" x="375.35" y="28.7285">Primary</text><line style="stroke:#181818;stroke-width:0.5;" x1="334.15" x2="436.15" y1="39" y2="39"/><rect fill="none" height="6" style="stroke:#C82930;stroke-width:1.0;" width="6" x="341.15" y="50.3047"/><text fill="#000000" font-family="sans-serif" font-size="14" lengthAdjust="spacing" textLength="78" x="353.15" y="57.5332">withKeyword</text><line style="stroke:#181818;stroke-width:0.5;" x1="334.15" x2="436.15" y1="64.6094" y2="64.6094"/></g><!--MD5=[a8cb140b744031715f533a7b2982ca3a]
class DefinitionQuestion--><g id="elem_DefinitionQuestion"><rect codeLine="21" fill="#F1F1F1" height="65.6094" id="DefinitionQuestion" rx="2.5" ry="2.5" style="stroke:#181818;stroke-width:0.5;" width="248" x="42.15" y="134"/><ellipse cx="103.9" cy="150" fill="#A9DCDF" rx="11" ry="11" style="stroke:#181818;stroke-width:1.0;"/><path d="M106.0875,151.7656 L101.9469,151.7656 L101.525,152.7969 L101.9469,152.7969 Q102.5563,152.7969 102.8219,153.0313 Q103.0875,153.2656 103.0875,153.6563 Q103.0875,154.0313 102.8219,154.2656 Q102.5563,154.5 101.9469,154.5 L99.65,154.5 Q99.0406,154.5 98.7906,154.2656 Q98.525,154.0313 98.525,153.6406 Q98.525,153.2656 98.8063,153.0313 Q99.0719,152.7813 99.6969,152.7969 L102.3688,146.1406 L101.2594,146.1406 Q100.65,146.1406 100.3844,145.9063 Q100.1188,145.6719 100.1188,145.2813 Q100.1188,144.9063 100.3844,144.6719 Q100.65,144.4375 101.2594,144.4375 L104.9313,144.4375 L108.3219,152.7969 Q108.9156,152.7969 109.1031,152.9375 Q109.4938,153.2031 109.4938,153.6563 Q109.4938,154.0313 109.2281,154.2656 Q108.9781,154.5 108.3688,154.5 L106.0719,154.5 Q105.4625,154.5 105.1969,154.2656 Q104.9313,154.0313 104.9313,153.6406 Q104.9313,153.2656 105.1969,153.0313 Q105.4625,152.7969 106.0719,152.7969 L106.4938,152.7969 L106.0875,151.7656 Z M105.3688,150.0625 L104.0094,146.6875 L102.6344,150.0625 L105.3688,150.0625 Z " fill="#000000"/><text fill="#000000" font-family="sans-serif" font-size="14" font-style="italic" lengthAdjust="spacing" textLength="116" x="124.4" y="155.7285">DefinitionQuestion</text><line style="stroke:#181818;stroke-width:0.5;" x1="43.15" x2="289.15" y1="166" y2="166"/><rect fill="none" height="6" style="stroke:#C82930;stroke-width:1.0;" width="6" x="50.15" y="177.3047"/><text fill="#000000" font-family="sans-serif" font-size="14" lengthAdjust="spacing" textLength="222" x="62.15" y="184.5332">statement ="¿Qué es KEYWORD?"</text><line style="stroke:#181818;stroke-width:0.5;" x1="43.15" x2="289.15" y1="191.6094" y2="191.6094"/></g><!--MD5=[5537c14b6466bc70ff6128a1aa5dd387]
class ClassificationQuestion--><g id="elem_ClassificationQuestion"><rect codeLine="26" fill="#F1F1F1" height="65.6094" id="ClassificationQuestion" rx="2.5" ry="2.5" style="stroke:#181818;stroke-width:0.5;" width="297" x="325.65" y="134"/><ellipse cx="399.9" cy="150" fill="#A9DCDF" rx="11" ry="11" style="stroke:#181818;stroke-width:1.0;"/><path d="M402.0875,151.7656 L397.9469,151.7656 L397.525,152.7969 L397.9469,152.7969 Q398.5563,152.7969 398.8219,153.0313 Q399.0875,153.2656 399.0875,153.6563 Q399.0875,154.0313 398.8219,154.2656 Q398.5563,154.5 397.9469,154.5 L395.65,154.5 Q395.0406,154.5 394.7906,154.2656 Q394.525,154.0313 394.525,153.6406 Q394.525,153.2656 394.8063,153.0313 Q395.0719,152.7813 395.6969,152.7969 L398.3688,146.1406 L397.2594,146.1406 Q396.65,146.1406 396.3844,145.9063 Q396.1188,145.6719 396.1188,145.2813 Q396.1188,144.9063 396.3844,144.6719 Q396.65,144.4375 397.2594,144.4375 L400.9313,144.4375 L404.3219,152.7969 Q404.9156,152.7969 405.1031,152.9375 Q405.4938,153.2031 405.4938,153.6563 Q405.4938,154.0313 405.2281,154.2656 Q404.9781,154.5 404.3688,154.5 L402.0719,154.5 Q401.4625,154.5 401.1969,154.2656 Q400.9313,154.0313 400.9313,153.6406 Q400.9313,153.2656 401.1969,153.0313 Q401.4625,152.7969 402.0719,152.7969 L402.4938,152.7969 L402.0875,151.7656 Z M401.3688,150.0625 L400.0094,146.6875 L398.6344,150.0625 L401.3688,150.0625 Z " fill="#000000"/><text fill="#000000" font-family="sans-serif" font-size="14" font-style="italic" lengthAdjust="spacing" textLength="140" x="420.4" y="155.7285">ClassificationQuestion</text><line style="stroke:#181818;stroke-width:0.5;" x1="326.65" x2="621.65" y1="166" y2="166"/><rect fill="none" height="6" style="stroke:#C82930;stroke-width:1.0;" width="6" x="333.65" y="177.3047"/><text fill="#000000" font-family="sans-serif" font-size="14" lengthAdjust="spacing" textLength="271" x="345.65" y="184.5332">statement = "Qué tipos hay de KEYWORD"</text><line style="stroke:#181818;stroke-width:0.5;" x1="326.65" x2="621.65" y1="191.6094" y2="191.6094"/></g><!--MD5=[589357b5cd90a42c237433e2518f116d]
class CompositionQuestion--><g id="elem_CompositionQuestion"><rect codeLine="31" fill="#F1F1F1" height="65.6094" id="CompositionQuestion" rx="2.5" ry="2.5" style="stroke:#181818;stroke-width:0.5;" width="398" x="658.15" y="134"/><ellipse cx="785.4" cy="150" fill="#A9DCDF" rx="11" ry="11" style="stroke:#181818;stroke-width:1.0;"/><path d="M787.5875,151.7656 L783.4469,151.7656 L783.025,152.7969 L783.4469,152.7969 Q784.0563,152.7969 784.3219,153.0313 Q784.5875,153.2656 784.5875,153.6563 Q784.5875,154.0313 784.3219,154.2656 Q784.0563,154.5 783.4469,154.5 L781.15,154.5 Q780.5406,154.5 780.2906,154.2656 Q780.025,154.0313 780.025,153.6406 Q780.025,153.2656 780.3063,153.0313 Q780.5719,152.7813 781.1969,152.7969 L783.8688,146.1406 L782.7594,146.1406 Q782.15,146.1406 781.8844,145.9063 Q781.6188,145.6719 781.6188,145.2813 Q781.6188,144.9063 781.8844,144.6719 Q782.15,144.4375 782.7594,144.4375 L786.4313,144.4375 L789.8219,152.7969 Q790.4156,152.7969 790.6031,152.9375 Q790.9938,153.2031 790.9938,153.6563 Q790.9938,154.0313 790.7281,154.2656 Q790.4781,154.5 789.8688,154.5 L787.5719,154.5 Q786.9625,154.5 786.6969,154.2656 Q786.4313,154.0313 786.4313,153.6406 Q786.4313,153.2656 786.6969,153.0313 Q786.9625,152.7969 787.5719,152.7969 L787.9938,152.7969 L787.5875,151.7656 Z M786.8688,150.0625 L785.5094,146.6875 L784.1344,150.0625 L786.8688,150.0625 Z " fill="#000000"/><text fill="#000000" font-family="sans-serif" font-size="14" font-style="italic" lengthAdjust="spacing" textLength="135" x="805.9" y="155.7285">CompositionQuestion</text><line style="stroke:#181818;stroke-width:0.5;" x1="659.15" x2="1055.15" y1="166" y2="166"/><rect fill="none" height="6" style="stroke:#C82930;stroke-width:1.0;" width="6" x="666.15" y="177.3047"/><text fill="#000000" font-family="sans-serif" font-size="14" lengthAdjust="spacing" textLength="372" x="678.15" y="184.5332">statement ="¿Qué conceptos destacarias del KEYWORD?"</text><line style="stroke:#181818;stroke-width:0.5;" x1="659.15" x2="1055.15" y1="191.6094" y2="191.6094"/></g><!--MD5=[3d8969de01f2361d4f44e57c4405efbc]
class OpenDefinitionQuestion--><g id="elem_OpenDefinitionQuestion"><rect codeLine="36" fill="#F1F1F1" height="65.6094" id="OpenDefinitionQuestion" rx="2.5" ry="2.5" style="stroke:#181818;stroke-width:0.5;" width="183" x="76.65" y="261"/><ellipse cx="91.65" cy="277" fill="#ADD1B2" rx="11" ry="11" style="stroke:#181818;stroke-width:1.0;"/><path d="M94.4156,272.875 Q94.5719,272.6563 94.7594,272.5469 Q94.9469,272.4375 95.1656,272.4375 Q95.5406,272.4375 95.775,272.7031 Q96.0094,272.9531 96.0094,273.5625 L96.0094,275.0156 Q96.0094,275.625 95.775,275.8906 Q95.5406,276.1563 95.1656,276.1563 Q94.8219,276.1563 94.6188,275.9531 Q94.4156,275.7656 94.3063,275.25 Q94.2594,274.8906 94.0719,274.7031 Q93.7438,274.3281 93.1344,274.1094 Q92.525,273.8906 91.9,273.8906 Q91.1344,273.8906 90.4938,274.2188 Q89.8688,274.5469 89.3688,275.2969 Q88.8844,276.0469 88.8844,277.0781 L88.8844,278.1719 Q88.8844,279.4063 89.775,280.2344 Q90.6656,281.0469 92.2594,281.0469 Q93.1969,281.0469 93.8531,280.7969 Q94.2438,280.6406 94.6656,280.2031 Q94.9313,279.9375 95.0719,279.8594 Q95.2281,279.7813 95.4313,279.7813 Q95.7594,279.7813 96.0094,280.0469 Q96.275,280.2969 96.275,280.6406 Q96.275,280.9844 95.9313,281.3906 Q95.4313,281.9688 94.6344,282.2969 Q93.5563,282.75 92.2594,282.75 Q90.7438,282.75 89.5406,282.125 Q88.5563,281.625 87.8688,280.5625 Q87.1813,279.4844 87.1813,278.2031 L87.1813,277.0469 Q87.1813,275.7188 87.7906,274.5781 Q88.4156,273.4219 89.5094,272.8125 Q90.6031,272.1875 91.8375,272.1875 Q92.5719,272.1875 93.2125,272.3594 Q93.8688,272.5156 94.4156,272.875 Z " fill="#000000"/><text fill="#000000" font-family="sans-serif" font-size="14" lengthAdjust="spacing" textLength="151" x="105.65" y="282.7285">OpenDefinitionQuestion</text><line style="stroke:#181818;stroke-width:0.5;" x1="77.65" x2="258.65" y1="293" y2="293"/><rect fill="none" height="6" style="stroke:#C82930;stroke-width:1.0;" width="6" x="84.65" y="304.3047"/><text fill="#000000" font-family="sans-serif" font-size="14" lengthAdjust="spacing" textLength="138" x="96.65" y="311.5332">answers[openAnswer]</text><line style="stroke:#181818;stroke-width:0.5;" x1="77.65" x2="258.65" y1="318.6094" y2="318.6094"/></g><!--MD5=[25af127acc5b953a97a6d29a5f1d6529]
class OpenClassificationQuestion--><g id="elem_OpenClassificationQuestion"><rect codeLine="39" fill="#F1F1F1" height="65.6094" id="OpenClassificationQuestion" rx="2.5" ry="2.5" style="stroke:#181818;stroke-width:0.5;" width="207" x="370.65" y="357"/><ellipse cx="385.65" cy="373" fill="#ADD1B2" rx="11" ry="11" style="stroke:#181818;stroke-width:1.0;"/><path d="M388.4156,368.875 Q388.5719,368.6563 388.7594,368.5469 Q388.9469,368.4375 389.1656,368.4375 Q389.5406,368.4375 389.775,368.7031 Q390.0094,368.9531 390.0094,369.5625 L390.0094,371.0156 Q390.0094,371.625 389.775,371.8906 Q389.5406,372.1563 389.1656,372.1563 Q388.8219,372.1563 388.6188,371.9531 Q388.4156,371.7656 388.3063,371.25 Q388.2594,370.8906 388.0719,370.7031 Q387.7438,370.3281 387.1344,370.1094 Q386.525,369.8906 385.9,369.8906 Q385.1344,369.8906 384.4938,370.2188 Q383.8688,370.5469 383.3688,371.2969 Q382.8844,372.0469 382.8844,373.0781 L382.8844,374.1719 Q382.8844,375.4063 383.775,376.2344 Q384.6656,377.0469 386.2594,377.0469 Q387.1969,377.0469 387.8531,376.7969 Q388.2438,376.6406 388.6656,376.2031 Q388.9313,375.9375 389.0719,375.8594 Q389.2281,375.7813 389.4313,375.7813 Q389.7594,375.7813 390.0094,376.0469 Q390.275,376.2969 390.275,376.6406 Q390.275,376.9844 389.9313,377.3906 Q389.4313,377.9688 388.6344,378.2969 Q387.5563,378.75 386.2594,378.75 Q384.7438,378.75 383.5406,378.125 Q382.5563,377.625 381.8688,376.5625 Q381.1813,375.4844 381.1813,374.2031 L381.1813,373.0469 Q381.1813,371.7188 381.7906,370.5781 Q382.4156,369.4219 383.5094,368.8125 Q384.6031,368.1875 385.8375,368.1875 Q386.5719,368.1875 387.2125,368.3594 Q387.8688,368.5156 388.4156,368.875 Z " fill="#000000"/><text fill="#000000" font-family="sans-serif" font-size="14" lengthAdjust="spacing" textLength="175" x="399.65" y="378.7285">OpenClassificationQuestion</text><line style="stroke:#181818;stroke-width:0.5;" x1="371.65" x2="576.65" y1="389" y2="389"/><rect fill="none" height="6" style="stroke:#C82930;stroke-width:1.0;" width="6" x="378.65" y="400.3047"/><text fill="#000000" font-family="sans-serif" font-size="14" lengthAdjust="spacing" textLength="138" x="390.65" y="407.5332">answers[openAnswer]</text><line style="stroke:#181818;stroke-width:0.5;" x1="371.65" x2="576.65" y1="414.6094" y2="414.6094"/></g><!--MD5=[2e3e70aeace816b0cedea9999a1b71b4]
class OpenCompositionQuestion--><g id="elem_OpenCompositionQuestion"><rect codeLine="42" fill="#F1F1F1" height="65.6094" id="OpenCompositionQuestion" rx="2.5" ry="2.5" style="stroke:#181818;stroke-width:0.5;" width="202" x="669.15" y="357"/><ellipse cx="684.15" cy="373" fill="#ADD1B2" rx="11" ry="11" style="stroke:#181818;stroke-width:1.0;"/><path d="M686.9156,368.875 Q687.0719,368.6563 687.2594,368.5469 Q687.4469,368.4375 687.6656,368.4375 Q688.0406,368.4375 688.275,368.7031 Q688.5094,368.9531 688.5094,369.5625 L688.5094,371.0156 Q688.5094,371.625 688.275,371.8906 Q688.0406,372.1563 687.6656,372.1563 Q687.3219,372.1563 687.1188,371.9531 Q686.9156,371.7656 686.8063,371.25 Q686.7594,370.8906 686.5719,370.7031 Q686.2438,370.3281 685.6344,370.1094 Q685.025,369.8906 684.4,369.8906 Q683.6344,369.8906 682.9938,370.2188 Q682.3688,370.5469 681.8688,371.2969 Q681.3844,372.0469 681.3844,373.0781 L681.3844,374.1719 Q681.3844,375.4063 682.275,376.2344 Q683.1656,377.0469 684.7594,377.0469 Q685.6969,377.0469 686.3531,376.7969 Q686.7438,376.6406 687.1656,376.2031 Q687.4313,375.9375 687.5719,375.8594 Q687.7281,375.7813 687.9313,375.7813 Q688.2594,375.7813 688.5094,376.0469 Q688.775,376.2969 688.775,376.6406 Q688.775,376.9844 688.4313,377.3906 Q687.9313,377.9688 687.1344,378.2969 Q686.0563,378.75 684.7594,378.75 Q683.2438,378.75 682.0406,378.125 Q681.0563,377.625 680.3688,376.5625 Q679.6813,375.4844 679.6813,374.2031 L679.6813,373.0469 Q679.6813,371.7188 680.2906,370.5781 Q680.9156,369.4219 682.0094,368.8125 Q683.1031,368.1875 684.3375,368.1875 Q685.0719,368.1875 685.7125,368.3594 Q686.3688,368.5156 686.9156,368.875 Z " fill="#000000"/><text fill="#000000" font-family="sans-serif" font-size="14" lengthAdjust="spacing" textLength="170" x="698.15" y="378.7285">OpenCompositionQuestion</text><line style="stroke:#181818;stroke-width:0.5;" x1="670.15" x2="870.15" y1="389" y2="389"/><rect fill="none" height="6" style="stroke:#C82930;stroke-width:1.0;" width="6" x="677.15" y="400.3047"/><text fill="#000000" font-family="sans-serif" font-size="14" lengthAdjust="spacing" textLength="138" x="689.15" y="407.5332">answers[openAnswer]</text><line style="stroke:#181818;stroke-width:0.5;" x1="670.15" x2="870.15" y1="414.6094" y2="414.6094"/></g><!--MD5=[fc7123defb831ecdd44b2d9bcef6cceb]
class Question--><g id="elem_Question"><rect codeLine="46" fill="#F1F1F1" height="65.6094" id="Question" rx="2.5" ry="2.5" style="stroke:#181818;stroke-width:0.5;" width="89" x="208.65" y="7"/><ellipse cx="223.65" cy="23" fill="#A9DCDF" rx="11" ry="11" style="stroke:#181818;stroke-width:1.0;"/><path d="M225.8375,24.7656 L221.6969,24.7656 L221.275,25.7969 L221.6969,25.7969 Q222.3063,25.7969 222.5719,26.0313 Q222.8375,26.2656 222.8375,26.6563 Q222.8375,27.0313 222.5719,27.2656 Q222.3063,27.5 221.6969,27.5 L219.4,27.5 Q218.7906,27.5 218.5406,27.2656 Q218.275,27.0313 218.275,26.6406 Q218.275,26.2656 218.5563,26.0313 Q218.8219,25.7813 219.4469,25.7969 L222.1188,19.1406 L221.0094,19.1406 Q220.4,19.1406 220.1344,18.9063 Q219.8688,18.6719 219.8688,18.2813 Q219.8688,17.9063 220.1344,17.6719 Q220.4,17.4375 221.0094,17.4375 L224.6813,17.4375 L228.0719,25.7969 Q228.6656,25.7969 228.8531,25.9375 Q229.2438,26.2031 229.2438,26.6563 Q229.2438,27.0313 228.9781,27.2656 Q228.7281,27.5 228.1188,27.5 L225.8219,27.5 Q225.2125,27.5 224.9469,27.2656 Q224.6813,27.0313 224.6813,26.6406 Q224.6813,26.2656 224.9469,26.0313 Q225.2125,25.7969 225.8219,25.7969 L226.2438,25.7969 L225.8375,24.7656 Z M225.1188,23.0625 L223.7594,19.6875 L222.3844,23.0625 L225.1188,23.0625 Z " fill="#000000"/><text fill="#000000" font-family="sans-serif" font-size="14" font-style="italic" lengthAdjust="spacing" textLength="57" x="237.65" y="28.7285">Question</text><line style="stroke:#181818;stroke-width:0.5;" x1="209.65" x2="296.65" y1="39" y2="39"/><rect fill="none" height="6" style="stroke:#C82930;stroke-width:1.0;" width="6" x="216.65" y="50.3047"/><text fill="#000000" font-family="sans-serif" font-size="14" lengthAdjust="spacing" textLength="60" x="228.65" y="57.5332">answers[]</text><line style="stroke:#181818;stroke-width:0.5;" x1="209.65" x2="296.65" y1="64.6094" y2="64.6094"/></g><!--MD5=[3cac2a3bd9e61be8586148b62ab617a7]
reverse link DefinitionQuestion to OpenDefinitionQuestion--><g id="link_DefinitionQuestion_OpenDefinitionQuestion"><path codeLine="51" d="M166.99,220.25 C167.21,234.05 167.44,248.54 167.64,260.92 " fill="none" id="DefinitionQuestion-backto-OpenDefinitionQuestion" style="stroke:#181818;stroke-width:1.0;"/><polygon fill="none" points="159.99,220.3,166.66,200.19,173.98,220.08,159.99,220.3" style="stroke:#181818;stroke-width:1.0;"/></g><!--MD5=[78692a5f8e8149c75c0f8f0a06eaf7dc]
reverse link ClassificationQuestion to OpenClassificationQuestion--><g id="link_ClassificationQuestion_OpenClassificationQuestion"><path codeLine="52" d="M474.15,220.35 C474.15,262.72 474.15,321.05 474.15,356.83 " fill="none" id="ClassificationQuestion-backto-OpenClassificationQuestion" style="stroke:#181818;stroke-width:1.0;"/><polygon fill="none" points="467.15,220.14,474.15,200.14,481.15,220.14,467.15,220.14" style="stroke:#181818;stroke-width:1.0;"/></g><!--MD5=[3de6a0e8fc7a6b317ada6c0bb2abf440]
reverse link CompositionQuestion to OpenCompositionQuestion--><g id="link_CompositionQuestion_OpenCompositionQuestion"><path codeLine="53" d="M837.11,218.9 C820.39,261.38 797.06,320.64 782.82,356.83 " fill="none" id="CompositionQuestion-backto-OpenCompositionQuestion" style="stroke:#181818;stroke-width:1.0;"/><polygon fill="none" points="830.66,216.18,844.5,200.14,843.69,221.31,830.66,216.18" style="stroke:#181818;stroke-width:1.0;"/></g><!--MD5=[ed083f2d1ee1d19af9b715a82f936d84]
link Question to Concept--><g id="link_Question_Concept"><path codeLine="54" d="M208.2,44.76 C154.05,51.96 65.25,72.95 24.15,134 C7.77,158.33 6,176.96 24.15,200 C95.71,290.87 168.63,220.98 277.15,261 C279.86,262 282.61,263.09 285.36,264.24 " fill="none" id="Question-to-Concept" style="stroke:#181818;stroke-width:1.0;"/><polygon fill="none" points="297.37,269.6,293.5219,263.5015,286.4124,264.708,290.2605,270.8065,297.37,269.6" style="stroke:#181818;stroke-width:1.0;"/><text fill="#000000" font-family="sans-serif" font-size="13" lengthAdjust="spacing" textLength="22" x="178.6817" y="41.8696">0..n</text></g><!--MD5=[9f28cd73563d94ef5d2a7e151e392f28]
link DefinitionQuestion to Concept--><g id="link_DefinitionQuestion_Concept"><path codeLine="56" d="M210.96,200.19 C236.18,218.31 267.65,240.92 293.21,259.28 " fill="none" id="DefinitionQuestion-to-Concept" style="stroke:#181818;stroke-width:1.0;stroke-dasharray:7.0,7.0;"/><polygon fill="#181818" points="297.59,262.43,292.6139,253.9307,293.5291,259.513,287.9467,260.4281,297.59,262.43" style="stroke:#181818;stroke-width:1.0;"/></g><!--MD5=[b2de2b3357340de27336d9292870bda9]
link ClassificationQuestion to Concept--><g id="link_ClassificationQuestion_Concept"><path codeLine="57" d="M439.64,200.19 C420.88,217.69 397.65,239.37 378.35,257.37 " fill="none" id="ClassificationQuestion-to-Concept" style="stroke:#181818;stroke-width:1.0;stroke-dasharray:7.0,7.0;"/><polygon fill="#181818" points="374.54,260.92,383.8483,257.7021,378.1948,257.5079,378.389,251.8544,374.54,260.92" style="stroke:#181818;stroke-width:1.0;"/></g><!--MD5=[4e99ab20507053ecfebf4d57139a550e]
link CompositionQuestion to Concept--><g id="link_CompositionQuestion_Concept"><path codeLine="58" d="M724.68,200.03 C614.31,226.71 463.36,263.21 387.61,281.53 " fill="none" id="CompositionQuestion-to-Concept" style="stroke:#181818;stroke-width:1.0;stroke-dasharray:7.0,7.0;"/><polygon fill="#181818" points="382.73,282.71,392.417,284.4884,387.5906,281.5377,390.5413,276.7114,382.73,282.71" style="stroke:#181818;stroke-width:1.0;"/></g><!--MD5=[543bb2115b5a10697a67507a00f6a2f4]
reverse link Concept to Definition--><g id="link_Concept_Definition"><path codeLine="61" d="M316.09,338.96 C297.02,373.79 270.83,421.64 253.7,452.93 " fill="none" id="Concept-backto-Definition" style="stroke:#181818;stroke-width:1.0;"/><polygon fill="none" points="322.51,327.23,316.1215,330.5747,316.7518,337.7582,323.1403,334.4135,322.51,327.23" style="stroke:#181818;stroke-width:1.0;"/><text fill="#000000" font-family="sans-serif" font-size="13" lengthAdjust="spacing" textLength="22" x="233.0509" y="442.031">0..n</text></g><!--MD5=[54f9360500e0fd532969fc16f437bbea]
reverse link Concept to Relation--><g id="link_Concept_Relation"><path codeLine="63" d="M345.4,340.33 C349.83,378.6 355.99,431.83 359.47,461.9 " fill="none" id="Concept-backto-Relation" style="stroke:#181818;stroke-width:1.0;"/><polygon fill="none" points="343.88,327.23,340.599,333.6514,345.2645,339.1499,348.5455,332.7284,343.88,327.23" style="stroke:#181818;stroke-width:1.0;"/><text fill="#000000" font-family="sans-serif" font-size="13" lengthAdjust="spacing" textLength="22" x="333.9645" y="451.2145">0..n</text></g><!--MD5=[90ea77717cc70d7f588b001bbb985d62]
reverse link Relation to Classification--><g id="link_Relation_Classification"><path codeLine="64" d="M379.41,528.72 C386.54,545.93 394.52,565.23 400.57,579.84 " fill="none" id="Relation-backto-Classification" style="stroke:#181818;stroke-width:1.0;"/><polygon fill="none" points="372.93,531.35,371.75,510.2,385.86,526,372.93,531.35" style="stroke:#181818;stroke-width:1.0;"/></g><!--MD5=[aac130c8b5f905729b18e85e231f7b50]
reverse link Relation to Composition--><g id="link_Relation_Composition"><path codeLine="65" d="M422.38,517.38 C461.14,536.93 510.73,561.94 546.29,579.87 " fill="none" id="Relation-backto-Composition" style="stroke:#181818;stroke-width:1.0;"/><polygon fill="none" points="419.04,523.53,404.33,508.28,425.34,511.03,419.04,523.53" style="stroke:#181818;stroke-width:1.0;"/></g><!--MD5=[5aab0b45efd7e0420b76d5abc61341ea]
reverse link Question to DefinitionQuestion--><g id="link_Question_DefinitionQuestion"><path codeLine="68" d="M219.15,89.85 C208.85,104.65 197.8,120.52 188.48,133.92 " fill="none" id="Question-backto-DefinitionQuestion" style="stroke:#181818;stroke-width:1.0;"/><polygon fill="none" points="213.57,85.61,230.74,73.19,225.06,93.6,213.57,85.61" style="stroke:#181818;stroke-width:1.0;"/></g><!--MD5=[49c48160fdf887f5a9305ebf554c6fce]
reverse link OpenDefinitionQuestion to Definition--><g id="link_OpenDefinitionQuestion_Definition"><path codeLine="69" d="M179.45,332.08 C187.5,357.79 198.85,392.7 210.15,423 C213.78,432.73 218.03,443.19 222.03,452.7 " fill="none" id="OpenDefinitionQuestion-backto-Definition" style="stroke:#181818;stroke-width:1.0;stroke-dasharray:7.0,7.0;"/><polygon fill="#181818" points="177.89,327.07,176.7465,336.8523,179.3765,331.8439,184.3848,334.4739,177.89,327.07" style="stroke:#181818;stroke-width:1.0;"/><text fill="#000000" font-family="sans-serif" font-size="13" lengthAdjust="spacing" textLength="48" x="211.15" y="395.4951">answers</text></g><!--MD5=[5be583f153fb95b5c96f3646910cb4a1]
reverse link Question to ClassificationQuestion--><g id="link_Question_ClassificationQuestion"><path codeLine="71" d="M315.35,76.18 C347.35,94.28 386.08,116.19 417.29,133.84 " fill="none" id="Question-backto-ClassificationQuestion" style="stroke:#181818;stroke-width:1.0;"/><polygon fill="none" points="311.83,82.23,297.87,66.3,318.73,70.05,311.83,82.23" style="stroke:#181818;stroke-width:1.0;"/></g><!--MD5=[ca4db74828703b6f8ae2d8601fe568c4]
reverse link OpenClassificationQuestion to Classification--><g id="link_OpenClassificationQuestion_Classification"><path codeLine="72" d="M462.94,428.14 C449.71,471.97 428.11,543.49 417.09,579.99 " fill="none" id="OpenClassificationQuestion-backto-Classification" style="stroke:#181818;stroke-width:1.0;stroke-dasharray:7.0,7.0;"/><polygon fill="#181818" points="464.43,423.2,458.0023,430.6623,462.9867,427.9872,465.6618,432.9715,464.43,423.2" style="stroke:#181818;stroke-width:1.0;"/><text fill="#000000" font-family="sans-serif" font-size="13" lengthAdjust="spacing" textLength="48" x="456.15" y="491.4951">answers</text></g><!--MD5=[616dd8b0550f609f3badfa769886b0d6]
reverse link Question to CompositionQuestion--><g id="link_Question_CompositionQuestion"><path codeLine="74" d="M317.05,71.96 C382.67,89.79 531.77,114.65 657.96,134.85 " fill="none" id="Question-backto-CompositionQuestion" style="stroke:#181818;stroke-width:1.0;"/><polygon fill="none" points="314.9,78.62,297.82,66.08,318.99,65.23,314.9,78.62" style="stroke:#181818;stroke-width:1.0;"/></g><!--MD5=[92cd928904746ce40363a3030cb52c20]
reverse link OpenCompositionQuestion to Composition--><g id="link_OpenCompositionQuestion_Composition"><path codeLine="75" d="M739.86,427.08 C703.14,470.81 642.36,543.2 611.47,579.99 " fill="none" id="OpenCompositionQuestion-backto-Composition" style="stroke:#181818;stroke-width:1.0;stroke-dasharray:7.0,7.0;"/><polygon fill="#181818" points="743.11,423.2,734.2596,427.5209,739.895,427.0294,740.3866,432.6648,743.11,423.2" style="stroke:#181818;stroke-width:1.0;"/><text fill="#000000" font-family="sans-serif" font-size="13" lengthAdjust="spacing" textLength="48" x="716.15" y="491.4951">answers</text></g><!--MD5=[baa53c15e36c770e05c8a41789d8bb2e]
@startuml ConceptDomainDetail

class Concept {
    - keyword
}

class Definition {
  - isFake
}

class Relation

class Classification

class Composition

class Primary {
    - withKeyword
}


abstract class DefinitionQuestion {
    - statement ="¿Qué es KEYWORD?"

}

abstract class ClassificationQuestion {
    - statement = "Qué tipos hay de KEYWORD"

}

abstract class CompositionQuestion {
    - statement ="¿Qué conceptos destacarias del KEYWORD?"

}

class OpenDefinitionQuestion {
    -answers[openAnswer]
}
class OpenClassificationQuestion{
    -answers[openAnswer]
}
class OpenCompositionQuestion{
    -answers[openAnswer]
}

abstract class Question {
    - answers[]
}


DefinitionQuestion <|- - OpenDefinitionQuestion
ClassificationQuestion <|- - OpenClassificationQuestion
CompositionQuestion <|- - OpenCompositionQuestion
Question "0..n" -o Concept

DefinitionQuestion ..> Concept 
ClassificationQuestion ..> Concept 
CompositionQuestion ..> Concept  


Concept o- -"0..n" Definition

Concept o- - "0..n" Relation
Relation <|- - Classification
Relation <|- - Composition


Question <|- - DefinitionQuestion
OpenDefinitionQuestion <.. Definition: answers

Question <|- - ClassificationQuestion
OpenClassificationQuestion <.. Classification :answers

Question <|- - CompositionQuestion
OpenCompositionQuestion <.. Composition :answers


@enduml

PlantUML version 1.2022.7(Mon Aug 22 18:01:30 WEST 2022)
(GPL source distribution)
Java Runtime: OpenJDK Runtime Environment
JVM: OpenJDK 64-Bit Server VM
Default Encoding: Cp1252
Language: es
Country: ES
--></g></svg>