<?xml version="1.0" encoding="UTF-8" standalone="no"?><svg xmlns="http://www.w3.org/2000/svg" xmlns:xlink="http://www.w3.org/1999/xlink" contentStyleType="text/css" height="824px" preserveAspectRatio="none" style="width:1111px;height:824px;background:#FFFFFF;" version="1.1" viewBox="0 0 1111 824" width="1111px" zoomAndPan="magnify"><defs/><g><!--MD5=[9d451b2f92d848a8e2d1a4dab2b1c6bf]
class Concept--><g id="elem_Concept"><rect codeLine="2" fill="#F1F1F1" height="65.6094" id="Concept" rx="2.5" ry="2.5" style="stroke:#181818;stroke-width:0.5;" width="85" x="259.5" y="442.5"/><ellipse cx="274.5" cy="458.5" fill="#ADD1B2" rx="11" ry="11" style="stroke:#181818;stroke-width:1.0;"/><path d="M277.2656,454.375 Q277.4219,454.1563 277.6094,454.0469 Q277.7969,453.9375 278.0156,453.9375 Q278.3906,453.9375 278.625,454.2031 Q278.8594,454.4531 278.8594,455.0625 L278.8594,456.5156 Q278.8594,457.125 278.625,457.3906 Q278.3906,457.6563 278.0156,457.6563 Q277.6719,457.6563 277.4688,457.4531 Q277.2656,457.2656 277.1563,456.75 Q277.1094,456.3906 276.9219,456.2031 Q276.5938,455.8281 275.9844,455.6094 Q275.375,455.3906 274.75,455.3906 Q273.9844,455.3906 273.3438,455.7188 Q272.7188,456.0469 272.2188,456.7969 Q271.7344,457.5469 271.7344,458.5781 L271.7344,459.6719 Q271.7344,460.9063 272.625,461.7344 Q273.5156,462.5469 275.1094,462.5469 Q276.0469,462.5469 276.7031,462.2969 Q277.0938,462.1406 277.5156,461.7031 Q277.7813,461.4375 277.9219,461.3594 Q278.0781,461.2813 278.2813,461.2813 Q278.6094,461.2813 278.8594,461.5469 Q279.125,461.7969 279.125,462.1406 Q279.125,462.4844 278.7813,462.8906 Q278.2813,463.4688 277.4844,463.7969 Q276.4063,464.25 275.1094,464.25 Q273.5938,464.25 272.3906,463.625 Q271.4063,463.125 270.7188,462.0625 Q270.0313,460.9844 270.0313,459.7031 L270.0313,458.5469 Q270.0313,457.2188 270.6406,456.0781 Q271.2656,454.9219 272.3594,454.3125 Q273.4531,453.6875 274.6875,453.6875 Q275.4219,453.6875 276.0625,453.8594 Q276.7188,454.0156 277.2656,454.375 Z " fill="#000000"/><text fill="#000000" font-family="sans-serif" font-size="14" lengthAdjust="spacing" textLength="53" x="288.5" y="464.2285">Concept</text><line style="stroke:#181818;stroke-width:0.5;" x1="260.5" x2="343.5" y1="474.5" y2="474.5"/><rect fill="none" height="6" style="stroke:#C82930;stroke-width:1.0;" width="6" x="267.5" y="485.8047"/><text fill="#000000" font-family="sans-serif" font-size="14" lengthAdjust="spacing" textLength="52" x="279.5" y="493.0332">keyword</text><line style="stroke:#181818;stroke-width:0.5;" x1="260.5" x2="343.5" y1="500.1094" y2="500.1094"/></g><!--MD5=[534474e9f05b14d7c70186ae077f30e0]
class Relation--><g id="elem_Relation"><rect codeLine="18" fill="#F1F1F1" height="48" id="Relation" rx="2.5" ry="2.5" style="stroke:#181818;stroke-width:0.5;" width="84" x="386" y="660"/><ellipse cx="401" cy="676" fill="#ADD1B2" rx="11" ry="11" style="stroke:#181818;stroke-width:1.0;"/><path d="M403.7656,671.875 Q403.9219,671.6563 404.1094,671.5469 Q404.2969,671.4375 404.5156,671.4375 Q404.8906,671.4375 405.125,671.7031 Q405.3594,671.9531 405.3594,672.5625 L405.3594,674.0156 Q405.3594,674.625 405.125,674.8906 Q404.8906,675.1563 404.5156,675.1563 Q404.1719,675.1563 403.9688,674.9531 Q403.7656,674.7656 403.6563,674.25 Q403.6094,673.8906 403.4219,673.7031 Q403.0938,673.3281 402.4844,673.1094 Q401.875,672.8906 401.25,672.8906 Q400.4844,672.8906 399.8438,673.2188 Q399.2188,673.5469 398.7188,674.2969 Q398.2344,675.0469 398.2344,676.0781 L398.2344,677.1719 Q398.2344,678.4063 399.125,679.2344 Q400.0156,680.0469 401.6094,680.0469 Q402.5469,680.0469 403.2031,679.7969 Q403.5938,679.6406 404.0156,679.2031 Q404.2813,678.9375 404.4219,678.8594 Q404.5781,678.7813 404.7813,678.7813 Q405.1094,678.7813 405.3594,679.0469 Q405.625,679.2969 405.625,679.6406 Q405.625,679.9844 405.2813,680.3906 Q404.7813,680.9688 403.9844,681.2969 Q402.9063,681.75 401.6094,681.75 Q400.0938,681.75 398.8906,681.125 Q397.9063,680.625 397.2188,679.5625 Q396.5313,678.4844 396.5313,677.2031 L396.5313,676.0469 Q396.5313,674.7188 397.1406,673.5781 Q397.7656,672.4219 398.8594,671.8125 Q399.9531,671.1875 401.1875,671.1875 Q401.9219,671.1875 402.5625,671.3594 Q403.2188,671.5156 403.7656,671.875 Z " fill="#000000"/><text fill="#000000" font-family="sans-serif" font-size="14" lengthAdjust="spacing" textLength="52" x="415" y="681.7285">Relation</text><line style="stroke:#181818;stroke-width:0.5;" x1="387" x2="469" y1="692" y2="692"/><line style="stroke:#181818;stroke-width:0.5;" x1="387" x2="469" y1="700" y2="700"/></g><!--MD5=[9c239722e256878d27dcbb07783cc14f]
class Classification--><g id="elem_Classification"><rect codeLine="20" fill="#F1F1F1" height="48" id="Classification" rx="2.5" ry="2.5" style="stroke:#181818;stroke-width:0.5;" width="115" x="650.5" y="769"/><ellipse cx="665.5" cy="785" fill="#ADD1B2" rx="11" ry="11" style="stroke:#181818;stroke-width:1.0;"/><path d="M668.2656,780.875 Q668.4219,780.6563 668.6094,780.5469 Q668.7969,780.4375 669.0156,780.4375 Q669.3906,780.4375 669.625,780.7031 Q669.8594,780.9531 669.8594,781.5625 L669.8594,783.0156 Q669.8594,783.625 669.625,783.8906 Q669.3906,784.1563 669.0156,784.1563 Q668.6719,784.1563 668.4688,783.9531 Q668.2656,783.7656 668.1563,783.25 Q668.1094,782.8906 667.9219,782.7031 Q667.5938,782.3281 666.9844,782.1094 Q666.375,781.8906 665.75,781.8906 Q664.9844,781.8906 664.3438,782.2188 Q663.7188,782.5469 663.2188,783.2969 Q662.7344,784.0469 662.7344,785.0781 L662.7344,786.1719 Q662.7344,787.4063 663.625,788.2344 Q664.5156,789.0469 666.1094,789.0469 Q667.0469,789.0469 667.7031,788.7969 Q668.0938,788.6406 668.5156,788.2031 Q668.7813,787.9375 668.9219,787.8594 Q669.0781,787.7813 669.2813,787.7813 Q669.6094,787.7813 669.8594,788.0469 Q670.125,788.2969 670.125,788.6406 Q670.125,788.9844 669.7813,789.3906 Q669.2813,789.9688 668.4844,790.2969 Q667.4063,790.75 666.1094,790.75 Q664.5938,790.75 663.3906,790.125 Q662.4063,789.625 661.7188,788.5625 Q661.0313,787.4844 661.0313,786.2031 L661.0313,785.0469 Q661.0313,783.7188 661.6406,782.5781 Q662.2656,781.4219 663.3594,780.8125 Q664.4531,780.1875 665.6875,780.1875 Q666.4219,780.1875 667.0625,780.3594 Q667.7188,780.5156 668.2656,780.875 Z " fill="#000000"/><text fill="#000000" font-family="sans-serif" font-size="14" lengthAdjust="spacing" textLength="83" x="679.5" y="790.7285">Classification</text><line style="stroke:#181818;stroke-width:0.5;" x1="651.5" x2="764.5" y1="801" y2="801"/><line style="stroke:#181818;stroke-width:0.5;" x1="651.5" x2="764.5" y1="809" y2="809"/></g><!--MD5=[251454e98c15f29849fb35b1904d0020]
class Composition--><g id="elem_Composition"><rect codeLine="22" fill="#F1F1F1" height="48" id="Composition" rx="2.5" ry="2.5" style="stroke:#181818;stroke-width:0.5;" width="110" x="286" y="769"/><ellipse cx="301" cy="785" fill="#ADD1B2" rx="11" ry="11" style="stroke:#181818;stroke-width:1.0;"/><path d="M303.7656,780.875 Q303.9219,780.6563 304.1094,780.5469 Q304.2969,780.4375 304.5156,780.4375 Q304.8906,780.4375 305.125,780.7031 Q305.3594,780.9531 305.3594,781.5625 L305.3594,783.0156 Q305.3594,783.625 305.125,783.8906 Q304.8906,784.1563 304.5156,784.1563 Q304.1719,784.1563 303.9688,783.9531 Q303.7656,783.7656 303.6563,783.25 Q303.6094,782.8906 303.4219,782.7031 Q303.0938,782.3281 302.4844,782.1094 Q301.875,781.8906 301.25,781.8906 Q300.4844,781.8906 299.8438,782.2188 Q299.2188,782.5469 298.7188,783.2969 Q298.2344,784.0469 298.2344,785.0781 L298.2344,786.1719 Q298.2344,787.4063 299.125,788.2344 Q300.0156,789.0469 301.6094,789.0469 Q302.5469,789.0469 303.2031,788.7969 Q303.5938,788.6406 304.0156,788.2031 Q304.2813,787.9375 304.4219,787.8594 Q304.5781,787.7813 304.7813,787.7813 Q305.1094,787.7813 305.3594,788.0469 Q305.625,788.2969 305.625,788.6406 Q305.625,788.9844 305.2813,789.3906 Q304.7813,789.9688 303.9844,790.2969 Q302.9063,790.75 301.6094,790.75 Q300.0938,790.75 298.8906,790.125 Q297.9063,789.625 297.2188,788.5625 Q296.5313,787.4844 296.5313,786.2031 L296.5313,785.0469 Q296.5313,783.7188 297.1406,782.5781 Q297.7656,781.4219 298.8594,780.8125 Q299.9531,780.1875 301.1875,780.1875 Q301.9219,780.1875 302.5625,780.3594 Q303.2188,780.5156 303.7656,780.875 Z " fill="#000000"/><text fill="#000000" font-family="sans-serif" font-size="14" lengthAdjust="spacing" textLength="78" x="315" y="790.7285">Composition</text><line style="stroke:#181818;stroke-width:0.5;" x1="287" x2="395" y1="801" y2="801"/><line style="stroke:#181818;stroke-width:0.5;" x1="287" x2="395" y1="809" y2="809"/></g><!--MD5=[60d6b92408f98aed8df94d5c6e04aa63]
class State--><g id="elem_State"><rect codeLine="24" fill="#F1F1F1" height="48" id="State" rx="2.5" ry="2.5" style="stroke:#181818;stroke-width:0.5;" width="65" x="357.5" y="243"/><ellipse cx="372.5" cy="259" fill="#EB937F" rx="11" ry="11" style="stroke:#181818;stroke-width:1.0;"/><path d="M371.3594,259.7969 L371.3594,262.2969 L375.6875,262.2969 L375.6875,261.375 Q375.6875,260.7656 375.9219,260.5 Q376.1719,260.2344 376.5469,260.2344 Q376.9219,260.2344 377.1563,260.5 Q377.3906,260.7656 377.3906,261.375 L377.3906,264 L369.3906,264 Q368.7656,264 368.5,263.7656 Q368.25,263.5313 368.25,263.1406 Q368.25,262.7656 368.5156,262.5313 Q368.7813,262.2969 369.3906,262.2969 L369.6563,262.2969 L369.6563,255.6406 L369.3906,255.6406 Q368.7656,255.6406 368.5,255.4063 Q368.25,255.1719 368.25,254.7813 Q368.25,254.4063 368.5,254.1719 Q368.7656,253.9375 369.3906,253.9375 L377.0156,253.9375 L377.0156,256.5313 Q377.0156,257.1406 376.7813,257.4063 Q376.5625,257.6563 376.1719,257.6563 Q375.7969,257.6563 375.5625,257.4063 Q375.3281,257.1406 375.3281,256.5313 L375.3281,255.6406 L371.3594,255.6406 L371.3594,258.0938 L372.8438,258.0938 Q372.8438,257.4375 372.9688,257.25 Q373.2344,256.8438 373.7031,256.8438 Q374.0781,256.8438 374.3125,257.1094 Q374.5469,257.3594 374.5469,257.9688 L374.5469,259.9375 Q374.5469,260.4844 374.4219,260.6719 Q374.1563,261.0625 373.7031,261.0625 Q373.2344,261.0625 372.9688,260.6563 Q372.8438,260.4688 372.8438,259.7969 L371.3594,259.7969 Z " fill="#000000"/><text fill="#000000" font-family="sans-serif" font-size="14" lengthAdjust="spacing" textLength="33" x="386.5" y="264.7285">State</text><line style="stroke:#181818;stroke-width:0.5;" x1="358.5" x2="421.5" y1="275" y2="275"/><line style="stroke:#181818;stroke-width:0.5;" x1="358.5" x2="421.5" y1="283" y2="283"/></g><!--MD5=[a273cb2d535cd0db32a65a079a20fa3f]
class Primary--><g id="elem_Primary"><rect codeLine="26" fill="#F1F1F1" height="65.6094" id="Primary" rx="2.5" ry="2.5" style="stroke:#181818;stroke-width:0.5;" width="104" x="380" y="442.5"/><ellipse cx="405.8" cy="458.5" fill="#ADD1B2" rx="11" ry="11" style="stroke:#181818;stroke-width:1.0;"/><path d="M408.5656,454.375 Q408.7219,454.1563 408.9094,454.0469 Q409.0969,453.9375 409.3156,453.9375 Q409.6906,453.9375 409.925,454.2031 Q410.1594,454.4531 410.1594,455.0625 L410.1594,456.5156 Q410.1594,457.125 409.925,457.3906 Q409.6906,457.6563 409.3156,457.6563 Q408.9719,457.6563 408.7688,457.4531 Q408.5656,457.2656 408.4563,456.75 Q408.4094,456.3906 408.2219,456.2031 Q407.8938,455.8281 407.2844,455.6094 Q406.675,455.3906 406.05,455.3906 Q405.2844,455.3906 404.6438,455.7188 Q404.0188,456.0469 403.5188,456.7969 Q403.0344,457.5469 403.0344,458.5781 L403.0344,459.6719 Q403.0344,460.9063 403.925,461.7344 Q404.8156,462.5469 406.4094,462.5469 Q407.3469,462.5469 408.0031,462.2969 Q408.3938,462.1406 408.8156,461.7031 Q409.0813,461.4375 409.2219,461.3594 Q409.3781,461.2813 409.5813,461.2813 Q409.9094,461.2813 410.1594,461.5469 Q410.425,461.7969 410.425,462.1406 Q410.425,462.4844 410.0813,462.8906 Q409.5813,463.4688 408.7844,463.7969 Q407.7063,464.25 406.4094,464.25 Q404.8938,464.25 403.6906,463.625 Q402.7063,463.125 402.0188,462.0625 Q401.3313,460.9844 401.3313,459.7031 L401.3313,458.5469 Q401.3313,457.2188 401.9406,456.0781 Q402.5656,454.9219 403.6594,454.3125 Q404.7531,453.6875 405.9875,453.6875 Q406.7219,453.6875 407.3625,453.8594 Q408.0188,454.0156 408.5656,454.375 Z " fill="#000000"/><text fill="#000000" font-family="sans-serif" font-size="14" lengthAdjust="spacing" textLength="48" x="422.2" y="464.2285">Primary</text><line style="stroke:#181818;stroke-width:0.5;" x1="381" x2="483" y1="474.5" y2="474.5"/><rect fill="none" height="6" style="stroke:#C82930;stroke-width:1.0;" width="6" x="388" y="485.8047"/><text fill="#000000" font-family="sans-serif" font-size="14" lengthAdjust="spacing" textLength="78" x="400" y="493.0332">withKeyword</text><line style="stroke:#181818;stroke-width:0.5;" x1="381" x2="483" y1="500.1094" y2="500.1094"/></g><!--MD5=[322ff4561961666878e676a719041932]
class Secundary--><g id="elem_Secundary"><rect codeLine="30" fill="#F1F1F1" height="83.2188" id="Secundary" rx="2.5" ry="2.5" style="stroke:#181818;stroke-width:0.5;" width="206" x="519" y="434"/><ellipse cx="583.75" cy="450" fill="#ADD1B2" rx="11" ry="11" style="stroke:#181818;stroke-width:1.0;"/><path d="M586.5156,445.875 Q586.6719,445.6563 586.8594,445.5469 Q587.0469,445.4375 587.2656,445.4375 Q587.6406,445.4375 587.875,445.7031 Q588.1094,445.9531 588.1094,446.5625 L588.1094,448.0156 Q588.1094,448.625 587.875,448.8906 Q587.6406,449.1563 587.2656,449.1563 Q586.9219,449.1563 586.7188,448.9531 Q586.5156,448.7656 586.4063,448.25 Q586.3594,447.8906 586.1719,447.7031 Q585.8438,447.3281 585.2344,447.1094 Q584.625,446.8906 584,446.8906 Q583.2344,446.8906 582.5938,447.2188 Q581.9688,447.5469 581.4688,448.2969 Q580.9844,449.0469 580.9844,450.0781 L580.9844,451.1719 Q580.9844,452.4063 581.875,453.2344 Q582.7656,454.0469 584.3594,454.0469 Q585.2969,454.0469 585.9531,453.7969 Q586.3438,453.6406 586.7656,453.2031 Q587.0313,452.9375 587.1719,452.8594 Q587.3281,452.7813 587.5313,452.7813 Q587.8594,452.7813 588.1094,453.0469 Q588.375,453.2969 588.375,453.6406 Q588.375,453.9844 588.0313,454.3906 Q587.5313,454.9688 586.7344,455.2969 Q585.6563,455.75 584.3594,455.75 Q582.8438,455.75 581.6406,455.125 Q580.6563,454.625 579.9688,453.5625 Q579.2813,452.4844 579.2813,451.2031 L579.2813,450.0469 Q579.2813,448.7188 579.8906,447.5781 Q580.5156,446.4219 581.6094,445.8125 Q582.7031,445.1875 583.9375,445.1875 Q584.6719,445.1875 585.3125,445.3594 Q585.9688,445.5156 586.5156,445.875 Z " fill="#000000"/><text fill="#000000" font-family="sans-serif" font-size="14" lengthAdjust="spacing" textLength="68" x="604.25" y="455.7285">Secundary</text><line style="stroke:#181818;stroke-width:0.5;" x1="520" x2="724" y1="466" y2="466"/><rect fill="none" height="6" style="stroke:#C82930;stroke-width:1.0;" width="6" x="527" y="477.3047"/><text fill="#000000" font-family="sans-serif" font-size="14" lengthAdjust="spacing" textLength="78" x="539" y="484.5332">withKeyword</text><rect fill="none" height="6" style="stroke:#C82930;stroke-width:1.0;" width="6" x="527" y="494.9141"/><text fill="#000000" font-family="sans-serif" font-size="14" lengthAdjust="spacing" textLength="180" x="539" y="502.1426">withDefinition or withRelation</text><line style="stroke:#181818;stroke-width:0.5;" x1="520" x2="724" y1="509.2188" y2="509.2188"/></g><g id="elem_link"><path d="M458,254 L458,280.3516 L604,280.3516 L604,264 L594,254 L458,254 " fill="#FEFFDD" style="stroke:#181818;stroke-width:0.5;"/><path d="M594,254 L594,264 L604,264 L594,254 " fill="#FEFFDD" style="stroke:#181818;stroke-width:1.0;"/><text fill="#000000" font-family="sans-serif" font-size="13" lengthAdjust="spacing" textLength="125" x="464" y="272.4951">Link to the next detail</text></g><!--MD5=[3d8969de01f2361d4f44e57c4405efbc]
class OpenDefinitionQuestion--><g id="elem_OpenDefinitionQuestion"><rect codeLine="37" fill="#F1F1F1" height="83.2188" id="OpenDefinitionQuestion" rx="2.5" ry="2.5" style="stroke:#181818;stroke-width:0.5;" width="248" x="554" y="321"/><ellipse cx="598.25" cy="337" fill="#ADD1B2" rx="11" ry="11" style="stroke:#181818;stroke-width:1.0;"/><path d="M601.0156,332.875 Q601.1719,332.6563 601.3594,332.5469 Q601.5469,332.4375 601.7656,332.4375 Q602.1406,332.4375 602.375,332.7031 Q602.6094,332.9531 602.6094,333.5625 L602.6094,335.0156 Q602.6094,335.625 602.375,335.8906 Q602.1406,336.1563 601.7656,336.1563 Q601.4219,336.1563 601.2188,335.9531 Q601.0156,335.7656 600.9063,335.25 Q600.8594,334.8906 600.6719,334.7031 Q600.3438,334.3281 599.7344,334.1094 Q599.125,333.8906 598.5,333.8906 Q597.7344,333.8906 597.0938,334.2188 Q596.4688,334.5469 595.9688,335.2969 Q595.4844,336.0469 595.4844,337.0781 L595.4844,338.1719 Q595.4844,339.4063 596.375,340.2344 Q597.2656,341.0469 598.8594,341.0469 Q599.7969,341.0469 600.4531,340.7969 Q600.8438,340.6406 601.2656,340.2031 Q601.5313,339.9375 601.6719,339.8594 Q601.8281,339.7813 602.0313,339.7813 Q602.3594,339.7813 602.6094,340.0469 Q602.875,340.2969 602.875,340.6406 Q602.875,340.9844 602.5313,341.3906 Q602.0313,341.9688 601.2344,342.2969 Q600.1563,342.75 598.8594,342.75 Q597.3438,342.75 596.1406,342.125 Q595.1563,341.625 594.4688,340.5625 Q593.7813,339.4844 593.7813,338.2031 L593.7813,337.0469 Q593.7813,335.7188 594.3906,334.5781 Q595.0156,333.4219 596.1094,332.8125 Q597.2031,332.1875 598.4375,332.1875 Q599.1719,332.1875 599.8125,332.3594 Q600.4688,332.5156 601.0156,332.875 Z " fill="#000000"/><text fill="#000000" font-family="sans-serif" font-size="14" lengthAdjust="spacing" textLength="151" x="618.75" y="342.7285">OpenDefinitionQuestion</text><line style="stroke:#181818;stroke-width:0.5;" x1="555" x2="801" y1="353" y2="353"/><rect fill="none" height="6" style="stroke:#C82930;stroke-width:1.0;" width="6" x="562" y="364.3047"/><text fill="#000000" font-family="sans-serif" font-size="14" lengthAdjust="spacing" textLength="181" x="574" y="371.5332">StatementType = "Definition"</text><rect fill="none" height="6" style="stroke:#C82930;stroke-width:1.0;" width="6" x="562" y="381.9141"/><text fill="#000000" font-family="sans-serif" font-size="14" lengthAdjust="spacing" textLength="222" x="574" y="389.1426">statement ="¿Qué es KEYWORD?"</text><line style="stroke:#181818;stroke-width:0.5;" x1="555" x2="801" y1="396.2188" y2="396.2188"/></g><!--MD5=[9811c07b1247a04619f5505532a86de1]
class OpenClassQuestion--><g id="elem_OpenClassQuestion"><rect codeLine="43" fill="#F1F1F1" height="83.2188" id="OpenClassQuestion" rx="2.5" ry="2.5" style="stroke:#181818;stroke-width:0.5;" width="297" x="807.5" y="321"/><ellipse cx="888.25" cy="337" fill="#ADD1B2" rx="11" ry="11" style="stroke:#181818;stroke-width:1.0;"/><path d="M891.0156,332.875 Q891.1719,332.6563 891.3594,332.5469 Q891.5469,332.4375 891.7656,332.4375 Q892.1406,332.4375 892.375,332.7031 Q892.6094,332.9531 892.6094,333.5625 L892.6094,335.0156 Q892.6094,335.625 892.375,335.8906 Q892.1406,336.1563 891.7656,336.1563 Q891.4219,336.1563 891.2188,335.9531 Q891.0156,335.7656 890.9063,335.25 Q890.8594,334.8906 890.6719,334.7031 Q890.3438,334.3281 889.7344,334.1094 Q889.125,333.8906 888.5,333.8906 Q887.7344,333.8906 887.0938,334.2188 Q886.4688,334.5469 885.9688,335.2969 Q885.4844,336.0469 885.4844,337.0781 L885.4844,338.1719 Q885.4844,339.4063 886.375,340.2344 Q887.2656,341.0469 888.8594,341.0469 Q889.7969,341.0469 890.4531,340.7969 Q890.8438,340.6406 891.2656,340.2031 Q891.5313,339.9375 891.6719,339.8594 Q891.8281,339.7813 892.0313,339.7813 Q892.3594,339.7813 892.6094,340.0469 Q892.875,340.2969 892.875,340.6406 Q892.875,340.9844 892.5313,341.3906 Q892.0313,341.9688 891.2344,342.2969 Q890.1563,342.75 888.8594,342.75 Q887.3438,342.75 886.1406,342.125 Q885.1563,341.625 884.4688,340.5625 Q883.7813,339.4844 883.7813,338.2031 L883.7813,337.0469 Q883.7813,335.7188 884.3906,334.5781 Q885.0156,333.4219 886.1094,332.8125 Q887.2031,332.1875 888.4375,332.1875 Q889.1719,332.1875 889.8125,332.3594 Q890.4688,332.5156 891.0156,332.875 Z " fill="#000000"/><text fill="#000000" font-family="sans-serif" font-size="14" lengthAdjust="spacing" textLength="127" x="908.75" y="342.7285">OpenClassQuestion</text><line style="stroke:#181818;stroke-width:0.5;" x1="808.5" x2="1103.5" y1="353" y2="353"/><rect fill="none" height="6" style="stroke:#C82930;stroke-width:1.0;" width="6" x="815.5" y="364.3047"/><text fill="#000000" font-family="sans-serif" font-size="14" lengthAdjust="spacing" textLength="205" x="827.5" y="371.5332">StatementType = "Classification"</text><rect fill="none" height="6" style="stroke:#C82930;stroke-width:1.0;" width="6" x="815.5" y="381.9141"/><text fill="#000000" font-family="sans-serif" font-size="14" lengthAdjust="spacing" textLength="271" x="827.5" y="389.1426">statement = "Qué tipos hay de KEYWORD"</text><line style="stroke:#181818;stroke-width:0.5;" x1="808.5" x2="1103.5" y1="396.2188" y2="396.2188"/></g><!--MD5=[2e3e70aeace816b0cedea9999a1b71b4]
class OpenCompositionQuestion--><g id="elem_OpenCompositionQuestion"><rect codeLine="49" fill="#F1F1F1" height="83.2188" id="OpenCompositionQuestion" rx="2.5" ry="2.5" style="stroke:#181818;stroke-width:0.5;" width="398" x="7" y="547"/><ellipse cx="116.75" cy="563" fill="#ADD1B2" rx="11" ry="11" style="stroke:#181818;stroke-width:1.0;"/><path d="M119.5156,558.875 Q119.6719,558.6563 119.8594,558.5469 Q120.0469,558.4375 120.2656,558.4375 Q120.6406,558.4375 120.875,558.7031 Q121.1094,558.9531 121.1094,559.5625 L121.1094,561.0156 Q121.1094,561.625 120.875,561.8906 Q120.6406,562.1563 120.2656,562.1563 Q119.9219,562.1563 119.7188,561.9531 Q119.5156,561.7656 119.4063,561.25 Q119.3594,560.8906 119.1719,560.7031 Q118.8438,560.3281 118.2344,560.1094 Q117.625,559.8906 117,559.8906 Q116.2344,559.8906 115.5938,560.2188 Q114.9688,560.5469 114.4688,561.2969 Q113.9844,562.0469 113.9844,563.0781 L113.9844,564.1719 Q113.9844,565.4063 114.875,566.2344 Q115.7656,567.0469 117.3594,567.0469 Q118.2969,567.0469 118.9531,566.7969 Q119.3438,566.6406 119.7656,566.2031 Q120.0313,565.9375 120.1719,565.8594 Q120.3281,565.7813 120.5313,565.7813 Q120.8594,565.7813 121.1094,566.0469 Q121.375,566.2969 121.375,566.6406 Q121.375,566.9844 121.0313,567.3906 Q120.5313,567.9688 119.7344,568.2969 Q118.6563,568.75 117.3594,568.75 Q115.8438,568.75 114.6406,568.125 Q113.6563,567.625 112.9688,566.5625 Q112.2813,565.4844 112.2813,564.2031 L112.2813,563.0469 Q112.2813,561.7188 112.8906,560.5781 Q113.5156,559.4219 114.6094,558.8125 Q115.7031,558.1875 116.9375,558.1875 Q117.6719,558.1875 118.3125,558.3594 Q118.9688,558.5156 119.5156,558.875 Z " fill="#000000"/><text fill="#000000" font-family="sans-serif" font-size="14" lengthAdjust="spacing" textLength="170" x="137.25" y="568.7285">OpenCompositionQuestion</text><line style="stroke:#181818;stroke-width:0.5;" x1="8" x2="404" y1="579" y2="579"/><rect fill="none" height="6" style="stroke:#C82930;stroke-width:1.0;" width="6" x="15" y="590.3047"/><text fill="#000000" font-family="sans-serif" font-size="14" lengthAdjust="spacing" textLength="200" x="27" y="597.5332">StatementType = "Composition"</text><rect fill="none" height="6" style="stroke:#C82930;stroke-width:1.0;" width="6" x="15" y="607.9141"/><text fill="#000000" font-family="sans-serif" font-size="14" lengthAdjust="spacing" textLength="372" x="27" y="615.1426">statement ="¿Qué conceptos destacarias del KEYWORD?"</text><line style="stroke:#181818;stroke-width:0.5;" x1="8" x2="404" y1="622.2188" y2="622.2188"/></g><!--MD5=[fc7123defb831ecdd44b2d9bcef6cceb]
class Question--><g id="elem_Question"><rect codeLine="55" fill="#F1F1F1" height="65.6094" id="Question" rx="2.5" ry="2.5" style="stroke:#181818;stroke-width:0.5;" width="89" x="469.5" y="7"/><ellipse cx="484.5" cy="23" fill="#A9DCDF" rx="11" ry="11" style="stroke:#181818;stroke-width:1.0;"/><path d="M486.6875,24.7656 L482.5469,24.7656 L482.125,25.7969 L482.5469,25.7969 Q483.1563,25.7969 483.4219,26.0313 Q483.6875,26.2656 483.6875,26.6563 Q483.6875,27.0313 483.4219,27.2656 Q483.1563,27.5 482.5469,27.5 L480.25,27.5 Q479.6406,27.5 479.3906,27.2656 Q479.125,27.0313 479.125,26.6406 Q479.125,26.2656 479.4063,26.0313 Q479.6719,25.7813 480.2969,25.7969 L482.9688,19.1406 L481.8594,19.1406 Q481.25,19.1406 480.9844,18.9063 Q480.7188,18.6719 480.7188,18.2813 Q480.7188,17.9063 480.9844,17.6719 Q481.25,17.4375 481.8594,17.4375 L485.5313,17.4375 L488.9219,25.7969 Q489.5156,25.7969 489.7031,25.9375 Q490.0938,26.2031 490.0938,26.6563 Q490.0938,27.0313 489.8281,27.2656 Q489.5781,27.5 488.9688,27.5 L486.6719,27.5 Q486.0625,27.5 485.7969,27.2656 Q485.5313,27.0313 485.5313,26.6406 Q485.5313,26.2656 485.7969,26.0313 Q486.0625,25.7969 486.6719,25.7969 L487.0938,25.7969 L486.6875,24.7656 Z M485.9688,23.0625 L484.6094,19.6875 L483.2344,23.0625 L485.9688,23.0625 Z " fill="#000000"/><text fill="#000000" font-family="sans-serif" font-size="14" font-style="italic" lengthAdjust="spacing" textLength="57" x="498.5" y="28.7285">Question</text><line style="stroke:#181818;stroke-width:0.5;" x1="470.5" x2="557.5" y1="39" y2="39"/><rect fill="none" height="6" style="stroke:#C82930;stroke-width:1.0;" width="6" x="477.5" y="50.3047"/><text fill="#000000" font-family="sans-serif" font-size="14" lengthAdjust="spacing" textLength="60" x="489.5" y="57.5332">answers[]</text><line style="stroke:#181818;stroke-width:0.5;" x1="470.5" x2="557.5" y1="64.6094" y2="64.6094"/></g><!--MD5=[c5be3d7e9ffcf6502258095b57411394]
class OpenQuestion--><g id="elem_OpenQuestion"><rect codeLine="59" fill="#F1F1F1" height="48" id="OpenQuestion" rx="2.5" ry="2.5" style="stroke:#181818;stroke-width:0.5;" width="124" x="729" y="134"/><ellipse cx="744" cy="150" fill="#ADD1B2" rx="11" ry="11" style="stroke:#181818;stroke-width:1.0;"/><path d="M746.7656,145.875 Q746.9219,145.6563 747.1094,145.5469 Q747.2969,145.4375 747.5156,145.4375 Q747.8906,145.4375 748.125,145.7031 Q748.3594,145.9531 748.3594,146.5625 L748.3594,148.0156 Q748.3594,148.625 748.125,148.8906 Q747.8906,149.1563 747.5156,149.1563 Q747.1719,149.1563 746.9688,148.9531 Q746.7656,148.7656 746.6563,148.25 Q746.6094,147.8906 746.4219,147.7031 Q746.0938,147.3281 745.4844,147.1094 Q744.875,146.8906 744.25,146.8906 Q743.4844,146.8906 742.8438,147.2188 Q742.2188,147.5469 741.7188,148.2969 Q741.2344,149.0469 741.2344,150.0781 L741.2344,151.1719 Q741.2344,152.4063 742.125,153.2344 Q743.0156,154.0469 744.6094,154.0469 Q745.5469,154.0469 746.2031,153.7969 Q746.5938,153.6406 747.0156,153.2031 Q747.2813,152.9375 747.4219,152.8594 Q747.5781,152.7813 747.7813,152.7813 Q748.1094,152.7813 748.3594,153.0469 Q748.625,153.2969 748.625,153.6406 Q748.625,153.9844 748.2813,154.3906 Q747.7813,154.9688 746.9844,155.2969 Q745.9063,155.75 744.6094,155.75 Q743.0938,155.75 741.8906,155.125 Q740.9063,154.625 740.2188,153.5625 Q739.5313,152.4844 739.5313,151.2031 L739.5313,150.0469 Q739.5313,148.7188 740.1406,147.5781 Q740.7656,146.4219 741.8594,145.8125 Q742.9531,145.1875 744.1875,145.1875 Q744.9219,145.1875 745.5625,145.3594 Q746.2188,145.5156 746.7656,145.875 Z " fill="#000000"/><text fill="#000000" font-family="sans-serif" font-size="14" lengthAdjust="spacing" textLength="92" x="758" y="155.7285">OpenQuestion</text><line style="stroke:#181818;stroke-width:0.5;" x1="730" x2="852" y1="166" y2="166"/><line style="stroke:#181818;stroke-width:0.5;" x1="730" x2="852" y1="174" y2="174"/></g><!--MD5=[54a8e627be4ee6aab370a2a8960cc8d7]
class OpenAnswer--><g id="elem_OpenAnswer"><rect fill="#F1F1F1" height="48" id="OpenAnswer" rx="2.5" ry="2.5" style="stroke:#181818;stroke-width:0.5;" width="113" x="781.5" y="243"/><ellipse cx="796.5" cy="259" fill="#ADD1B2" rx="11" ry="11" style="stroke:#181818;stroke-width:1.0;"/><path d="M799.2656,254.875 Q799.4219,254.6563 799.6094,254.5469 Q799.7969,254.4375 800.0156,254.4375 Q800.3906,254.4375 800.625,254.7031 Q800.8594,254.9531 800.8594,255.5625 L800.8594,257.0156 Q800.8594,257.625 800.625,257.8906 Q800.3906,258.1563 800.0156,258.1563 Q799.6719,258.1563 799.4688,257.9531 Q799.2656,257.7656 799.1563,257.25 Q799.1094,256.8906 798.9219,256.7031 Q798.5938,256.3281 797.9844,256.1094 Q797.375,255.8906 796.75,255.8906 Q795.9844,255.8906 795.3438,256.2188 Q794.7188,256.5469 794.2188,257.2969 Q793.7344,258.0469 793.7344,259.0781 L793.7344,260.1719 Q793.7344,261.4063 794.625,262.2344 Q795.5156,263.0469 797.1094,263.0469 Q798.0469,263.0469 798.7031,262.7969 Q799.0938,262.6406 799.5156,262.2031 Q799.7813,261.9375 799.9219,261.8594 Q800.0781,261.7813 800.2813,261.7813 Q800.6094,261.7813 800.8594,262.0469 Q801.125,262.2969 801.125,262.6406 Q801.125,262.9844 800.7813,263.3906 Q800.2813,263.9688 799.4844,264.2969 Q798.4063,264.75 797.1094,264.75 Q795.5938,264.75 794.3906,264.125 Q793.4063,263.625 792.7188,262.5625 Q792.0313,261.4844 792.0313,260.2031 L792.0313,259.0469 Q792.0313,257.7188 792.6406,256.5781 Q793.2656,255.4219 794.3594,254.8125 Q795.4531,254.1875 796.6875,254.1875 Q797.4219,254.1875 798.0625,254.3594 Q798.7188,254.5156 799.2656,254.875 Z " fill="#000000"/><text fill="#000000" font-family="sans-serif" font-size="14" lengthAdjust="spacing" textLength="81" x="810.5" y="264.7285">OpenAnswer</text><line style="stroke:#181818;stroke-width:0.5;" x1="782.5" x2="893.5" y1="275" y2="275"/><line style="stroke:#181818;stroke-width:0.5;" x1="782.5" x2="893.5" y1="283" y2="283"/></g><!--MD5=[9ca6cc151d95e888b33bc5f319accd36]
class StatementType--><g id="elem_StatementType"><rect fill="#F1F1F1" height="48" id="StatementType" rx="2.5" ry="2.5" style="stroke:#181818;stroke-width:0.5;" width="128" x="450" y="134"/><ellipse cx="465" cy="150" fill="#ADD1B2" rx="11" ry="11" style="stroke:#181818;stroke-width:1.0;"/><path d="M467.7656,145.875 Q467.9219,145.6563 468.1094,145.5469 Q468.2969,145.4375 468.5156,145.4375 Q468.8906,145.4375 469.125,145.7031 Q469.3594,145.9531 469.3594,146.5625 L469.3594,148.0156 Q469.3594,148.625 469.125,148.8906 Q468.8906,149.1563 468.5156,149.1563 Q468.1719,149.1563 467.9688,148.9531 Q467.7656,148.7656 467.6563,148.25 Q467.6094,147.8906 467.4219,147.7031 Q467.0938,147.3281 466.4844,147.1094 Q465.875,146.8906 465.25,146.8906 Q464.4844,146.8906 463.8438,147.2188 Q463.2188,147.5469 462.7188,148.2969 Q462.2344,149.0469 462.2344,150.0781 L462.2344,151.1719 Q462.2344,152.4063 463.125,153.2344 Q464.0156,154.0469 465.6094,154.0469 Q466.5469,154.0469 467.2031,153.7969 Q467.5938,153.6406 468.0156,153.2031 Q468.2813,152.9375 468.4219,152.8594 Q468.5781,152.7813 468.7813,152.7813 Q469.1094,152.7813 469.3594,153.0469 Q469.625,153.2969 469.625,153.6406 Q469.625,153.9844 469.2813,154.3906 Q468.7813,154.9688 467.9844,155.2969 Q466.9063,155.75 465.6094,155.75 Q464.0938,155.75 462.8906,155.125 Q461.9063,154.625 461.2188,153.5625 Q460.5313,152.4844 460.5313,151.2031 L460.5313,150.0469 Q460.5313,148.7188 461.1406,147.5781 Q461.7656,146.4219 462.8594,145.8125 Q463.9531,145.1875 465.1875,145.1875 Q465.9219,145.1875 466.5625,145.3594 Q467.2188,145.5156 467.7656,145.875 Z " fill="#000000"/><text fill="#000000" font-family="sans-serif" font-size="14" lengthAdjust="spacing" textLength="96" x="479" y="155.7285">StatementType</text><line style="stroke:#181818;stroke-width:0.5;" x1="451" x2="577" y1="166" y2="166"/><line style="stroke:#181818;stroke-width:0.5;" x1="451" x2="577" y1="174" y2="174"/></g><!--MD5=[af22135d5be6ed11ccd2d02fa51653b3]
class Definition--><g id="elem_Definition"><rect fill="#F1F1F1" height="48" id="Definition" rx="2.5" ry="2.5" style="stroke:#181818;stroke-width:0.5;" width="91" x="606.5" y="660"/><ellipse cx="621.5" cy="676" fill="#ADD1B2" rx="11" ry="11" style="stroke:#181818;stroke-width:1.0;"/><path d="M624.2656,671.875 Q624.4219,671.6563 624.6094,671.5469 Q624.7969,671.4375 625.0156,671.4375 Q625.3906,671.4375 625.625,671.7031 Q625.8594,671.9531 625.8594,672.5625 L625.8594,674.0156 Q625.8594,674.625 625.625,674.8906 Q625.3906,675.1563 625.0156,675.1563 Q624.6719,675.1563 624.4688,674.9531 Q624.2656,674.7656 624.1563,674.25 Q624.1094,673.8906 623.9219,673.7031 Q623.5938,673.3281 622.9844,673.1094 Q622.375,672.8906 621.75,672.8906 Q620.9844,672.8906 620.3438,673.2188 Q619.7188,673.5469 619.2188,674.2969 Q618.7344,675.0469 618.7344,676.0781 L618.7344,677.1719 Q618.7344,678.4063 619.625,679.2344 Q620.5156,680.0469 622.1094,680.0469 Q623.0469,680.0469 623.7031,679.7969 Q624.0938,679.6406 624.5156,679.2031 Q624.7813,678.9375 624.9219,678.8594 Q625.0781,678.7813 625.2813,678.7813 Q625.6094,678.7813 625.8594,679.0469 Q626.125,679.2969 626.125,679.6406 Q626.125,679.9844 625.7813,680.3906 Q625.2813,680.9688 624.4844,681.2969 Q623.4063,681.75 622.1094,681.75 Q620.5938,681.75 619.3906,681.125 Q618.4063,680.625 617.7188,679.5625 Q617.0313,678.4844 617.0313,677.2031 L617.0313,676.0469 Q617.0313,674.7188 617.6406,673.5781 Q618.2656,672.4219 619.3594,671.8125 Q620.4531,671.1875 621.6875,671.1875 Q622.4219,671.1875 623.0625,671.3594 Q623.7188,671.5156 624.2656,671.875 Z " fill="#000000"/><text fill="#000000" font-family="sans-serif" font-size="14" lengthAdjust="spacing" textLength="59" x="635.5" y="681.7285">Definition</text><line style="stroke:#181818;stroke-width:0.5;" x1="607.5" x2="696.5" y1="692" y2="692"/><line style="stroke:#181818;stroke-width:0.5;" x1="607.5" x2="696.5" y1="700" y2="700"/></g><!--MD5=[1bec311458da21fb6f9072eb1126d7f3]
link link to Secundary--><g id="link_link_Secundary"><path codeLine="35" d="M530.58,280.01 C530.2,304.66 531.87,362.15 553,404 C558.4,414.7 566.01,424.82 574.21,433.88 " fill="none" id="link-Secundary" style="stroke:#181818;stroke-width:1.0;stroke-dasharray:7.0,7.0;"/></g><!--MD5=[e68d8486b151d64b61c7f5b6e40a3de9]
reverse link Question to OpenQuestion--><g id="link_Question_OpenQuestion"><path codeLine="63" d="M577.17,67.46 C624.94,87.46 689.88,114.65 735.62,133.81 " fill="none" id="Question-backto-OpenQuestion" style="stroke:#181818;stroke-width:1.0;"/><polygon fill="none" points="574.25,73.82,558.5,59.64,579.66,60.91,574.25,73.82" style="stroke:#181818;stroke-width:1.0;"/></g><!--MD5=[ed083f2d1ee1d19af9b715a82f936d84]
link Question to Concept--><g id="link_Question_Concept"><path codeLine="64" d="M476.15,73.3 C435.68,110.09 372.91,174.08 340,243 C311.35,303.01 303.78,380.63 302.07,429 " fill="none" id="Question-to-Concept" style="stroke:#181818;stroke-width:1.0;"/><polygon fill="none" points="301.72,442.12,305.8768,436.2275,302.0364,430.1242,297.8796,436.0166,301.72,442.12" style="stroke:#181818;stroke-width:1.0;"/><text fill="#000000" font-family="sans-serif" font-size="13" lengthAdjust="spacing" textLength="22" x="445.4486" y="94.2178">0..n</text></g><!--MD5=[ddd0ba9ff0adad4c5f8027dfa32b4028]
reverse link OpenQuestion to OpenAnswer--><g id="link_OpenQuestion_OpenAnswer"><path codeLine="66" d="M806.53,194.35 C813.53,210.29 821.61,228.68 827.82,242.83 " fill="none" id="OpenQuestion-backto-OpenAnswer" style="stroke:#181818;stroke-width:1.0;"/><polygon fill="none" points="801.2,182.22,799.9515,189.3222,806.0271,193.2063,807.2757,186.1041,801.2,182.22" style="stroke:#181818;stroke-width:1.0;"/><text fill="#000000" font-family="sans-serif" font-size="13" lengthAdjust="spacing" textLength="22" x="800.3926" y="232.1266">0..n</text></g><!--MD5=[99da9ea42ae7360cea161bb6f200d398]
reverse link Question to StatementType--><g id="link_Question_StatementType"><path codeLine="67" d="M514,86.25 C514,102.57 514,120.3 514,133.93 " fill="none" id="Question-backto-StatementType" style="stroke:#181818;stroke-width:1.0;"/><polygon fill="#181818" points="514,73,510,79,514,85,518,79,514,73" style="stroke:#181818;stroke-width:1.0;"/></g><!--MD5=[7fe1ce0b9105efc6eae062c0d6e4ef8a]
link State to Concept--><g id="link_State_Concept"><path codeLine="68" d="M380.08,291.29 C364.93,326.83 335.89,394.96 317.82,437.38 " fill="none" id="State-to-Concept" style="stroke:#181818;stroke-width:1.0;stroke-dasharray:7.0,7.0;"/><polygon fill="#181818" points="315.78,442.17,323.0019,435.4734,317.7496,437.5743,315.6487,432.322,315.78,442.17" style="stroke:#181818;stroke-width:1.0;"/></g><!--MD5=[63805a4120404d00fd1e5388f471f7f1]
link StatementType to State--><g id="link_StatementType_State"><path codeLine="69" d="M487.09,182.22 C467.59,199.04 441.19,221.83 420.84,239.39 " fill="none" id="StatementType-to-State" style="stroke:#181818;stroke-width:1.0;stroke-dasharray:7.0,7.0;"/><polygon fill="#181818" points="416.85,242.83,426.2812,239.9923,420.6402,239.569,421.0636,233.928,416.85,242.83" style="stroke:#181818;stroke-width:1.0;"/></g><!--MD5=[543bb2115b5a10697a67507a00f6a2f4]
reverse link Concept to Definition--><g id="link_Concept_Definition"><path codeLine="71" d="M356.09,513.85 C358.06,514.94 360.04,516 362,517 C396.56,534.65 409.31,529.6 444,547 C510.72,580.46 582.25,630.81 621.62,659.94 " fill="none" id="Concept-backto-Definition" style="stroke:#181818;stroke-width:1.0;"/><polygon fill="none" points="344.82,507.21,347.9585,513.7023,355.1585,513.3023,352.02,506.81,344.82,507.21" style="stroke:#181818;stroke-width:1.0;"/><text fill="#000000" font-family="sans-serif" font-size="13" lengthAdjust="spacing" textLength="22" x="589.0164" y="649.2648">0..n</text></g><!--MD5=[54f9360500e0fd532969fc16f437bbea]
reverse link Concept to Relation--><g id="link_Concept_Relation"><path codeLine="75" d="M355.57,512.66 C380.92,529.79 405.77,546.64 406,547 C428.12,581.69 430.45,631.15 429.59,659.88 " fill="none" id="Concept-backto-Relation" style="stroke:#181818;stroke-width:1.0;"/><polygon fill="none" points="344.75,505.34,347.4788,512.0148,354.6898,512.0632,351.9609,505.3883,344.75,505.34" style="stroke:#181818;stroke-width:1.0;"/><text fill="#000000" font-family="sans-serif" font-size="13" lengthAdjust="spacing" textLength="22" x="412.732" y="651.1753">0..n</text></g><!--MD5=[90ea77717cc70d7f588b001bbb985d62]
reverse link Relation to Classification--><g id="link_Relation_Classification"><path codeLine="76" d="M489.22,708.39 C537.15,726.71 603.35,752.01 650.35,769.97 " fill="none" id="Relation-backto-Classification" style="stroke:#181818;stroke-width:1.0;"/><polygon fill="none" points="486.41,714.81,470.22,701.13,491.4,701.74,486.41,714.81" style="stroke:#181818;stroke-width:1.0;"/></g><!--MD5=[aac130c8b5f905729b18e85e231f7b50]
reverse link Relation to Composition--><g id="link_Relation_Composition"><path codeLine="77" d="M396.14,724.18 C383.95,739.18 370.44,755.8 359.84,768.83 " fill="none" id="Relation-backto-Composition" style="stroke:#181818;stroke-width:1.0;"/><polygon fill="none" points="391.07,719.32,409.12,708.22,401.94,728.15,391.07,719.32" style="stroke:#181818;stroke-width:1.0;"/></g><!--MD5=[853bb68ef748593df4a7139cf0af95d7]
reverse link State to Primary--><g id="link_State_Primary"><path codeLine="79" d="M398.73,310.92 C406.68,349.99 418.23,406.81 425.42,442.17 " fill="none" id="State-backto-Primary" style="stroke:#181818;stroke-width:1.0;"/><polygon fill="none" points="391.86,312.28,394.74,291.29,405.58,309.49,391.86,312.28" style="stroke:#181818;stroke-width:1.0;"/></g><!--MD5=[5a70d9cb697fce9798f73fc804671dc5]
reverse link State to Secundary--><g id="link_State_Secundary"><path codeLine="80" d="M424.7,306.14 C451.11,334.35 488.94,373.08 525,404 C536.85,414.16 550.09,424.42 562.87,433.85 " fill="none" id="State-backto-Secundary" style="stroke:#181818;stroke-width:1.0;"/><polygon fill="none" points="419.39,310.7,410.93,291.27,429.66,301.18,419.39,310.7" style="stroke:#181818;stroke-width:1.0;"/></g><!--MD5=[33d1b1faa728fccde3d3c837ba57a152]
reverse link StatementType to OpenDefinitionQuestion--><g id="link_StatementType_OpenDefinitionQuestion"><path codeLine="86" d="M567.92,193.77 C586.38,207.51 606.11,224.46 621,243 C639.66,266.23 654.11,296.57 663.79,320.73 " fill="none" id="StatementType-backto-OpenDefinitionQuestion" style="stroke:#181818;stroke-width:1.0;"/><polygon fill="none" points="563.75,199.39,551.51,182.1,571.86,187.98,563.75,199.39" style="stroke:#181818;stroke-width:1.0;"/></g><!--MD5=[49c48160fdf887f5a9305ebf554c6fce]
reverse link OpenDefinitionQuestion to Definition--><g id="link_OpenDefinitionQuestion_Definition"><path codeLine="87" d="M727.37,408.64 C733.33,416.48 738.53,425.02 742,434 C755.29,468.41 751.07,481.24 742,517 C727.98,572.29 691.44,629.11 669.47,659.83 " fill="none" id="OpenDefinitionQuestion-backto-Definition" style="stroke:#181818;stroke-width:1.0;stroke-dasharray:7.0,7.0;"/><polygon fill="#181818" points="723.98,404.36,726.415,413.9031,727.0773,408.2851,732.6952,408.9474,723.98,404.36" style="stroke:#181818;stroke-width:1.0;"/><text fill="#000000" font-family="sans-serif" font-size="13" lengthAdjust="spacing" textLength="48" x="752" y="480.9951">answers</text></g><!--MD5=[48c22a65fb045048fb2814872f4e3c33]
reverse link StatementType to OpenClassQuestion--><g id="link_StatementType_OpenClassQuestion"><path codeLine="89" d="M578.09,191.35 C591.32,198.11 605.14,205.24 618,212 C683.32,246.31 696.75,260.65 764,291 C787.38,301.55 812.86,311.77 837.39,320.99 " fill="none" id="StatementType-backto-OpenClassQuestion" style="stroke:#181818;stroke-width:1.0;"/><polygon fill="none" points="574.59,197.42,559.94,182.11,580.94,184.95,574.59,197.42" style="stroke:#181818;stroke-width:1.0;"/></g><!--MD5=[b619a8a782ce055e34c4b08410723460]
reverse link OpenClassQuestion to Classification--><g id="link_OpenClassQuestion_Classification"><path codeLine="90" d="M929.84,408.7 C877.34,499.4 760.8,700.77 721.35,768.93 " fill="none" id="OpenClassQuestion-backto-Classification" style="stroke:#181818;stroke-width:1.0;stroke-dasharray:7.0,7.0;"/><polygon fill="#181818" points="932.45,404.2,924.485,409.993,929.9493,408.5297,931.4126,413.9941,932.45,404.2" style="stroke:#181818;stroke-width:1.0;"/><text fill="#000000" font-family="sans-serif" font-size="13" lengthAdjust="spacing" textLength="48" x="850" y="593.9951">answers</text></g><!--MD5=[b43e9e37a4428af679509e4232e9af2f]
reverse link StatementType to OpenCompositionQuestion--><g id="link_StatementType_OpenCompositionQuestion"><path codeLine="92" d="M431.3,189.94 C400.86,203.56 367.2,221.42 340,243 C305.09,270.69 297.97,281.68 277,321 C237.57,394.94 218.87,492.32 210.98,546.55 " fill="none" id="StatementType-backto-OpenCompositionQuestion" style="stroke:#181818;stroke-width:1.0;"/><polygon fill="none" points="428.61,183.47,449.75,182.01,434.14,196.34,428.61,183.47" style="stroke:#181818;stroke-width:1.0;"/></g><!--MD5=[92cd928904746ce40363a3030cb52c20]
reverse link OpenCompositionQuestion to Composition--><g id="link_OpenCompositionQuestion_Composition"><path codeLine="93" d="M236.13,634.69 C263.82,676.23 303.77,736.15 325.5,768.75 " fill="none" id="OpenCompositionQuestion-backto-Composition" style="stroke:#181818;stroke-width:1.0;stroke-dasharray:7.0,7.0;"/><polygon fill="#181818" points="233.32,630.48,234.9841,640.1873,236.0935,634.6403,241.6405,635.7497,233.32,630.48" style="stroke:#181818;stroke-width:1.0;"/><text fill="#000000" font-family="sans-serif" font-size="13" lengthAdjust="spacing" textLength="48" x="285" y="689.4951">answers</text></g><!--MD5=[85bf8ed3d97c3a20f170139f365fcd2d]
@startuml ConceptDomainDetail

class Concept {
    - keyword
}

'class Definition {
    '   - Real/Fake
    '
'}

'class Justification {
    '    - Real/Fake
    '
'}

'class Explanation

class Relation

class Classification

class Composition

enum State

class Primary {
    - withKeyword
}

class Secundary {
    - withKeyword
    - withDefinition or withRelation
}
note "Link to the next detail" as link
link .- Secundary

class OpenDefinitionQuestion {
    - StatementType = "Definition"
    - statement ="¿Qué es KEYWORD?"

}

class OpenClassQuestion {
    - StatementType = "Classification"
    - statement = "Qué tipos hay de KEYWORD"

}

class OpenCompositionQuestion {
    - StatementType = "Composition"
    - statement ="¿Qué conceptos destacarias del KEYWORD?"

}

abstract class Question {
    - answers[]
}

class OpenQuestion {

}

Question <|- - OpenQuestion
Question "0..n" -o Concept
'Question <|- - Open :- - answerType
OpenQuestion o- -"0..n" OpenAnswer
Question *- - StatementType
State ..> Concept  
StatementType ..> State

Concept o- -"0..n" Definition
'Definition o- - "0..n" Justification:Fake
'Justification o- - Explanation:Fake

Concept o- - "0..n" Relation
Relation <|- - Classification
Relation <|- - Composition

State <|- - Primary
State <|- - Secundary

'Question <|- - OpenDefinitionQuestion :- -StatementType
'Question <|- - OpenClassQuestion :- -StatementType
'Question <|- - OpenCompositionQuestion :- -StatementType

StatementType <|- - OpenDefinitionQuestion
OpenDefinitionQuestion <.. Definition: answers

StatementType <|- - OpenClassQuestion
OpenClassQuestion <.. Classification :answers

StatementType <|- - OpenCompositionQuestion
OpenCompositionQuestion <.. Composition :answers

@enduml

@startuml ConceptDomainDetail

class Concept {
    - keyword
}




class Relation

class Classification

class Composition

enum State

class Primary {
    - withKeyword
}

class Secundary {
    - withKeyword
    - withDefinition or withRelation
}
note "Link to the next detail" as link
link .- Secundary

class OpenDefinitionQuestion {
    - StatementType = "Definition"
    - statement ="¿Qué es KEYWORD?"

}

class OpenClassQuestion {
    - StatementType = "Classification"
    - statement = "Qué tipos hay de KEYWORD"

}

class OpenCompositionQuestion {
    - StatementType = "Composition"
    - statement ="¿Qué conceptos destacarias del KEYWORD?"

}

abstract class Question {
    - answers[]
}

class OpenQuestion {

}

Question <|- - OpenQuestion
Question "0..n" -o Concept
OpenQuestion o- -"0..n" OpenAnswer
Question *- - StatementType
State ..> Concept  
StatementType ..> State

Concept o- -"0..n" Definition

Concept o- - "0..n" Relation
Relation <|- - Classification
Relation <|- - Composition

State <|- - Primary
State <|- - Secundary


StatementType <|- - OpenDefinitionQuestion
OpenDefinitionQuestion <.. Definition: answers

StatementType <|- - OpenClassQuestion
OpenClassQuestion <.. Classification :answers

StatementType <|- - OpenCompositionQuestion
OpenCompositionQuestion <.. Composition :answers

@enduml

PlantUML version 1.2022.7(Mon Aug 22 18:01:30 WEST 2022)
(GPL source distribution)
Java Runtime: OpenJDK Runtime Environment
JVM: OpenJDK 64-Bit Server VM
Default Encoding: Cp1252
Language: es
Country: ES
--></g></svg>