<?xml version="1.0" encoding="UTF-8" standalone="no"?><svg xmlns="http://www.w3.org/2000/svg" xmlns:xlink="http://www.w3.org/1999/xlink" contentStyleType="text/css" height="564px" preserveAspectRatio="none" style="width:1648px;height:564px;background:#FFFFFF;" version="1.1" viewBox="0 0 1648 564" width="1648px" zoomAndPan="magnify"><defs/><g><!--MD5=[9d451b2f92d848a8e2d1a4dab2b1c6bf]
class Concept--><g id="elem_Concept"><rect codeLine="2" fill="#F1F1F1" height="83.2188" id="Concept" rx="2.5" ry="2.5" style="stroke:#181818;stroke-width:0.5;" width="85" x="1155" y="169"/><ellipse cx="1170" cy="185" fill="#ADD1B2" rx="11" ry="11" style="stroke:#181818;stroke-width:1.0;"/><path d="M1172.7656,180.875 Q1172.9219,180.6563 1173.1094,180.5469 Q1173.2969,180.4375 1173.5156,180.4375 Q1173.8906,180.4375 1174.125,180.7031 Q1174.3594,180.9531 1174.3594,181.5625 L1174.3594,183.0156 Q1174.3594,183.625 1174.125,183.8906 Q1173.8906,184.1563 1173.5156,184.1563 Q1173.1719,184.1563 1172.9688,183.9531 Q1172.7656,183.7656 1172.6563,183.25 Q1172.6094,182.8906 1172.4219,182.7031 Q1172.0938,182.3281 1171.4844,182.1094 Q1170.875,181.8906 1170.25,181.8906 Q1169.4844,181.8906 1168.8438,182.2188 Q1168.2188,182.5469 1167.7188,183.2969 Q1167.2344,184.0469 1167.2344,185.0781 L1167.2344,186.1719 Q1167.2344,187.4063 1168.125,188.2344 Q1169.0156,189.0469 1170.6094,189.0469 Q1171.5469,189.0469 1172.2031,188.7969 Q1172.5938,188.6406 1173.0156,188.2031 Q1173.2813,187.9375 1173.4219,187.8594 Q1173.5781,187.7813 1173.7813,187.7813 Q1174.1094,187.7813 1174.3594,188.0469 Q1174.625,188.2969 1174.625,188.6406 Q1174.625,188.9844 1174.2813,189.3906 Q1173.7813,189.9688 1172.9844,190.2969 Q1171.9063,190.75 1170.6094,190.75 Q1169.0938,190.75 1167.8906,190.125 Q1166.9063,189.625 1166.2188,188.5625 Q1165.5313,187.4844 1165.5313,186.2031 L1165.5313,185.0469 Q1165.5313,183.7188 1166.1406,182.5781 Q1166.7656,181.4219 1167.8594,180.8125 Q1168.9531,180.1875 1170.1875,180.1875 Q1170.9219,180.1875 1171.5625,180.3594 Q1172.2188,180.5156 1172.7656,180.875 Z " fill="#000000"/><text fill="#000000" font-family="sans-serif" font-size="14" lengthAdjust="spacing" textLength="53" x="1184" y="190.7285">Concept</text><line style="stroke:#181818;stroke-width:0.5;" x1="1156" x2="1239" y1="201" y2="201"/><rect fill="none" height="6" style="stroke:#C82930;stroke-width:1.0;" width="6" x="1163" y="212.3047"/><text fill="#000000" font-family="sans-serif" font-size="14" lengthAdjust="spacing" textLength="52" x="1175" y="219.5332">keyword</text><rect fill="none" height="6" style="stroke:#C82930;stroke-width:1.0;" width="6" x="1163" y="229.9141"/><text fill="#000000" font-family="sans-serif" font-size="14" lengthAdjust="spacing" textLength="31" x="1175" y="237.1426">state</text><line style="stroke:#181818;stroke-width:0.5;" x1="1156" x2="1239" y1="244.2188" y2="244.2188"/></g><!--MD5=[534474e9f05b14d7c70186ae077f30e0]
class Relation--><g id="elem_Relation"><rect codeLine="17" fill="#F1F1F1" height="48" id="Relation" rx="2.5" ry="2.5" style="stroke:#181818;stroke-width:0.5;" width="84" x="874.5" y="330.5"/><ellipse cx="889.5" cy="346.5" fill="#ADD1B2" rx="11" ry="11" style="stroke:#181818;stroke-width:1.0;"/><path d="M892.2656,342.375 Q892.4219,342.1563 892.6094,342.0469 Q892.7969,341.9375 893.0156,341.9375 Q893.3906,341.9375 893.625,342.2031 Q893.8594,342.4531 893.8594,343.0625 L893.8594,344.5156 Q893.8594,345.125 893.625,345.3906 Q893.3906,345.6563 893.0156,345.6563 Q892.6719,345.6563 892.4688,345.4531 Q892.2656,345.2656 892.1563,344.75 Q892.1094,344.3906 891.9219,344.2031 Q891.5938,343.8281 890.9844,343.6094 Q890.375,343.3906 889.75,343.3906 Q888.9844,343.3906 888.3438,343.7188 Q887.7188,344.0469 887.2188,344.7969 Q886.7344,345.5469 886.7344,346.5781 L886.7344,347.6719 Q886.7344,348.9063 887.625,349.7344 Q888.5156,350.5469 890.1094,350.5469 Q891.0469,350.5469 891.7031,350.2969 Q892.0938,350.1406 892.5156,349.7031 Q892.7813,349.4375 892.9219,349.3594 Q893.0781,349.2813 893.2813,349.2813 Q893.6094,349.2813 893.8594,349.5469 Q894.125,349.7969 894.125,350.1406 Q894.125,350.4844 893.7813,350.8906 Q893.2813,351.4688 892.4844,351.7969 Q891.4063,352.25 890.1094,352.25 Q888.5938,352.25 887.3906,351.625 Q886.4063,351.125 885.7188,350.0625 Q885.0313,348.9844 885.0313,347.7031 L885.0313,346.5469 Q885.0313,345.2188 885.6406,344.0781 Q886.2656,342.9219 887.3594,342.3125 Q888.4531,341.6875 889.6875,341.6875 Q890.4219,341.6875 891.0625,341.8594 Q891.7188,342.0156 892.2656,342.375 Z " fill="#000000"/><text fill="#000000" font-family="sans-serif" font-size="14" lengthAdjust="spacing" textLength="52" x="903.5" y="352.2285">Relation</text><line style="stroke:#181818;stroke-width:0.5;" x1="875.5" x2="957.5" y1="362.5" y2="362.5"/><line style="stroke:#181818;stroke-width:0.5;" x1="875.5" x2="957.5" y1="370.5" y2="370.5"/></g><!--MD5=[9c239722e256878d27dcbb07783cc14f]
class Classification--><g id="elem_Classification"><rect codeLine="19" fill="#F1F1F1" height="48" id="Classification" rx="2.5" ry="2.5" style="stroke:#181818;stroke-width:0.5;" width="115" x="465" y="491.5"/><ellipse cx="480" cy="507.5" fill="#ADD1B2" rx="11" ry="11" style="stroke:#181818;stroke-width:1.0;"/><path d="M482.7656,503.375 Q482.9219,503.1563 483.1094,503.0469 Q483.2969,502.9375 483.5156,502.9375 Q483.8906,502.9375 484.125,503.2031 Q484.3594,503.4531 484.3594,504.0625 L484.3594,505.5156 Q484.3594,506.125 484.125,506.3906 Q483.8906,506.6563 483.5156,506.6563 Q483.1719,506.6563 482.9688,506.4531 Q482.7656,506.2656 482.6563,505.75 Q482.6094,505.3906 482.4219,505.2031 Q482.0938,504.8281 481.4844,504.6094 Q480.875,504.3906 480.25,504.3906 Q479.4844,504.3906 478.8438,504.7188 Q478.2188,505.0469 477.7188,505.7969 Q477.2344,506.5469 477.2344,507.5781 L477.2344,508.6719 Q477.2344,509.9063 478.125,510.7344 Q479.0156,511.5469 480.6094,511.5469 Q481.5469,511.5469 482.2031,511.2969 Q482.5938,511.1406 483.0156,510.7031 Q483.2813,510.4375 483.4219,510.3594 Q483.5781,510.2813 483.7813,510.2813 Q484.1094,510.2813 484.3594,510.5469 Q484.625,510.7969 484.625,511.1406 Q484.625,511.4844 484.2813,511.8906 Q483.7813,512.4688 482.9844,512.7969 Q481.9063,513.25 480.6094,513.25 Q479.0938,513.25 477.8906,512.625 Q476.9063,512.125 476.2188,511.0625 Q475.5313,509.9844 475.5313,508.7031 L475.5313,507.5469 Q475.5313,506.2188 476.1406,505.0781 Q476.7656,503.9219 477.8594,503.3125 Q478.9531,502.6875 480.1875,502.6875 Q480.9219,502.6875 481.5625,502.8594 Q482.2188,503.0156 482.7656,503.375 Z " fill="#000000"/><text fill="#000000" font-family="sans-serif" font-size="14" lengthAdjust="spacing" textLength="83" x="494" y="513.2285">Classification</text><line style="stroke:#181818;stroke-width:0.5;" x1="466" x2="579" y1="523.5" y2="523.5"/><line style="stroke:#181818;stroke-width:0.5;" x1="466" x2="579" y1="531.5" y2="531.5"/></g><!--MD5=[251454e98c15f29849fb35b1904d0020]
class Composition--><g id="elem_Composition"><rect codeLine="21" fill="#F1F1F1" height="48" id="Composition" rx="2.5" ry="2.5" style="stroke:#181818;stroke-width:0.5;" width="110" x="683.5" y="491.5"/><ellipse cx="698.5" cy="507.5" fill="#ADD1B2" rx="11" ry="11" style="stroke:#181818;stroke-width:1.0;"/><path d="M701.2656,503.375 Q701.4219,503.1563 701.6094,503.0469 Q701.7969,502.9375 702.0156,502.9375 Q702.3906,502.9375 702.625,503.2031 Q702.8594,503.4531 702.8594,504.0625 L702.8594,505.5156 Q702.8594,506.125 702.625,506.3906 Q702.3906,506.6563 702.0156,506.6563 Q701.6719,506.6563 701.4688,506.4531 Q701.2656,506.2656 701.1563,505.75 Q701.1094,505.3906 700.9219,505.2031 Q700.5938,504.8281 699.9844,504.6094 Q699.375,504.3906 698.75,504.3906 Q697.9844,504.3906 697.3438,504.7188 Q696.7188,505.0469 696.2188,505.7969 Q695.7344,506.5469 695.7344,507.5781 L695.7344,508.6719 Q695.7344,509.9063 696.625,510.7344 Q697.5156,511.5469 699.1094,511.5469 Q700.0469,511.5469 700.7031,511.2969 Q701.0938,511.1406 701.5156,510.7031 Q701.7813,510.4375 701.9219,510.3594 Q702.0781,510.2813 702.2813,510.2813 Q702.6094,510.2813 702.8594,510.5469 Q703.125,510.7969 703.125,511.1406 Q703.125,511.4844 702.7813,511.8906 Q702.2813,512.4688 701.4844,512.7969 Q700.4063,513.25 699.1094,513.25 Q697.5938,513.25 696.3906,512.625 Q695.4063,512.125 694.7188,511.0625 Q694.0313,509.9844 694.0313,508.7031 L694.0313,507.5469 Q694.0313,506.2188 694.6406,505.0781 Q695.2656,503.9219 696.3594,503.3125 Q697.4531,502.6875 698.6875,502.6875 Q699.4219,502.6875 700.0625,502.8594 Q700.7188,503.0156 701.2656,503.375 Z " fill="#000000"/><text fill="#000000" font-family="sans-serif" font-size="14" lengthAdjust="spacing" textLength="78" x="712.5" y="513.2285">Composition</text><line style="stroke:#181818;stroke-width:0.5;" x1="684.5" x2="792.5" y1="523.5" y2="523.5"/><line style="stroke:#181818;stroke-width:0.5;" x1="684.5" x2="792.5" y1="531.5" y2="531.5"/></g><!--MD5=[60d6b92408f98aed8df94d5c6e04aa63]
class State--><g id="elem_State"><rect codeLine="23" fill="#F1F1F1" height="48" id="State" rx="2.5" ry="2.5" style="stroke:#181818;stroke-width:0.5;" width="65" x="1529" y="330.5"/><ellipse cx="1544" cy="346.5" fill="#EB937F" rx="11" ry="11" style="stroke:#181818;stroke-width:1.0;"/><path d="M1542.8594,347.2969 L1542.8594,349.7969 L1547.1875,349.7969 L1547.1875,348.875 Q1547.1875,348.2656 1547.4219,348 Q1547.6719,347.7344 1548.0469,347.7344 Q1548.4219,347.7344 1548.6563,348 Q1548.8906,348.2656 1548.8906,348.875 L1548.8906,351.5 L1540.8906,351.5 Q1540.2656,351.5 1540,351.2656 Q1539.75,351.0313 1539.75,350.6406 Q1539.75,350.2656 1540.0156,350.0313 Q1540.2813,349.7969 1540.8906,349.7969 L1541.1563,349.7969 L1541.1563,343.1406 L1540.8906,343.1406 Q1540.2656,343.1406 1540,342.9063 Q1539.75,342.6719 1539.75,342.2813 Q1539.75,341.9063 1540,341.6719 Q1540.2656,341.4375 1540.8906,341.4375 L1548.5156,341.4375 L1548.5156,344.0313 Q1548.5156,344.6406 1548.2813,344.9063 Q1548.0625,345.1563 1547.6719,345.1563 Q1547.2969,345.1563 1547.0625,344.9063 Q1546.8281,344.6406 1546.8281,344.0313 L1546.8281,343.1406 L1542.8594,343.1406 L1542.8594,345.5938 L1544.3438,345.5938 Q1544.3438,344.9375 1544.4688,344.75 Q1544.7344,344.3438 1545.2031,344.3438 Q1545.5781,344.3438 1545.8125,344.6094 Q1546.0469,344.8594 1546.0469,345.4688 L1546.0469,347.4375 Q1546.0469,347.9844 1545.9219,348.1719 Q1545.6563,348.5625 1545.2031,348.5625 Q1544.7344,348.5625 1544.4688,348.1563 Q1544.3438,347.9688 1544.3438,347.2969 L1542.8594,347.2969 Z " fill="#000000"/><text fill="#000000" font-family="sans-serif" font-size="14" lengthAdjust="spacing" textLength="33" x="1558" y="352.2285">State</text><line style="stroke:#181818;stroke-width:0.5;" x1="1530" x2="1593" y1="362.5" y2="362.5"/><line style="stroke:#181818;stroke-width:0.5;" x1="1530" x2="1593" y1="370.5" y2="370.5"/></g><!--MD5=[a273cb2d535cd0db32a65a079a20fa3f]
class Primary--><g id="elem_Primary"><rect codeLine="25" fill="#F1F1F1" height="65.6094" id="Primary" rx="2.5" ry="2.5" style="stroke:#181818;stroke-width:0.5;" width="90" x="1551.5" y="482.5"/><ellipse cx="1571" cy="498.5" fill="#ADD1B2" rx="11" ry="11" style="stroke:#181818;stroke-width:1.0;"/><path d="M1573.7656,494.375 Q1573.9219,494.1563 1574.1094,494.0469 Q1574.2969,493.9375 1574.5156,493.9375 Q1574.8906,493.9375 1575.125,494.2031 Q1575.3594,494.4531 1575.3594,495.0625 L1575.3594,496.5156 Q1575.3594,497.125 1575.125,497.3906 Q1574.8906,497.6563 1574.5156,497.6563 Q1574.1719,497.6563 1573.9688,497.4531 Q1573.7656,497.2656 1573.6563,496.75 Q1573.6094,496.3906 1573.4219,496.2031 Q1573.0938,495.8281 1572.4844,495.6094 Q1571.875,495.3906 1571.25,495.3906 Q1570.4844,495.3906 1569.8438,495.7188 Q1569.2188,496.0469 1568.7188,496.7969 Q1568.2344,497.5469 1568.2344,498.5781 L1568.2344,499.6719 Q1568.2344,500.9063 1569.125,501.7344 Q1570.0156,502.5469 1571.6094,502.5469 Q1572.5469,502.5469 1573.2031,502.2969 Q1573.5938,502.1406 1574.0156,501.7031 Q1574.2813,501.4375 1574.4219,501.3594 Q1574.5781,501.2813 1574.7813,501.2813 Q1575.1094,501.2813 1575.3594,501.5469 Q1575.625,501.7969 1575.625,502.1406 Q1575.625,502.4844 1575.2813,502.8906 Q1574.7813,503.4688 1573.9844,503.7969 Q1572.9063,504.25 1571.6094,504.25 Q1570.0938,504.25 1568.8906,503.625 Q1567.9063,503.125 1567.2188,502.0625 Q1566.5313,500.9844 1566.5313,499.7031 L1566.5313,498.5469 Q1566.5313,497.2188 1567.1406,496.0781 Q1567.7656,494.9219 1568.8594,494.3125 Q1569.9531,493.6875 1571.1875,493.6875 Q1571.9219,493.6875 1572.5625,493.8594 Q1573.2188,494.0156 1573.7656,494.375 Z " fill="#000000"/><text fill="#000000" font-family="sans-serif" font-size="14" lengthAdjust="spacing" textLength="48" x="1586" y="504.2285">Primary</text><line style="stroke:#181818;stroke-width:0.5;" x1="1552.5" x2="1640.5" y1="514.5" y2="514.5"/><text fill="#000000" font-family="sans-serif" font-size="14" lengthAdjust="spacing" textLength="78" x="1557.5" y="533.0332">withKeyword</text><line style="stroke:#181818;stroke-width:0.5;" x1="1552.5" x2="1640.5" y1="540.1094" y2="540.1094"/></g><!--MD5=[322ff4561961666878e676a719041932]
class Secundary--><g id="elem_Secundary"><rect codeLine="29" fill="#F1F1F1" height="83.2188" id="Secundary" rx="2.5" ry="2.5" style="stroke:#181818;stroke-width:0.5;" width="192" x="1324.5" y="474"/><ellipse cx="1382.25" cy="490" fill="#ADD1B2" rx="11" ry="11" style="stroke:#181818;stroke-width:1.0;"/><path d="M1385.0156,485.875 Q1385.1719,485.6563 1385.3594,485.5469 Q1385.5469,485.4375 1385.7656,485.4375 Q1386.1406,485.4375 1386.375,485.7031 Q1386.6094,485.9531 1386.6094,486.5625 L1386.6094,488.0156 Q1386.6094,488.625 1386.375,488.8906 Q1386.1406,489.1563 1385.7656,489.1563 Q1385.4219,489.1563 1385.2188,488.9531 Q1385.0156,488.7656 1384.9063,488.25 Q1384.8594,487.8906 1384.6719,487.7031 Q1384.3438,487.3281 1383.7344,487.1094 Q1383.125,486.8906 1382.5,486.8906 Q1381.7344,486.8906 1381.0938,487.2188 Q1380.4688,487.5469 1379.9688,488.2969 Q1379.4844,489.0469 1379.4844,490.0781 L1379.4844,491.1719 Q1379.4844,492.4063 1380.375,493.2344 Q1381.2656,494.0469 1382.8594,494.0469 Q1383.7969,494.0469 1384.4531,493.7969 Q1384.8438,493.6406 1385.2656,493.2031 Q1385.5313,492.9375 1385.6719,492.8594 Q1385.8281,492.7813 1386.0313,492.7813 Q1386.3594,492.7813 1386.6094,493.0469 Q1386.875,493.2969 1386.875,493.6406 Q1386.875,493.9844 1386.5313,494.3906 Q1386.0313,494.9688 1385.2344,495.2969 Q1384.1563,495.75 1382.8594,495.75 Q1381.3438,495.75 1380.1406,495.125 Q1379.1563,494.625 1378.4688,493.5625 Q1377.7813,492.4844 1377.7813,491.2031 L1377.7813,490.0469 Q1377.7813,488.7188 1378.3906,487.5781 Q1379.0156,486.4219 1380.1094,485.8125 Q1381.2031,485.1875 1382.4375,485.1875 Q1383.1719,485.1875 1383.8125,485.3594 Q1384.4688,485.5156 1385.0156,485.875 Z " fill="#000000"/><text fill="#000000" font-family="sans-serif" font-size="14" lengthAdjust="spacing" textLength="68" x="1402.75" y="495.7285">Secundary</text><line style="stroke:#181818;stroke-width:0.5;" x1="1325.5" x2="1515.5" y1="506" y2="506"/><text fill="#000000" font-family="sans-serif" font-size="14" lengthAdjust="spacing" textLength="78" x="1330.5" y="524.5332">withKeyword</text><text fill="#000000" font-family="sans-serif" font-size="14" lengthAdjust="spacing" textLength="180" x="1330.5" y="542.1426">withDefinition or withRelation</text><line style="stroke:#181818;stroke-width:0.5;" x1="1325.5" x2="1515.5" y1="549.2188" y2="549.2188"/></g><g id="elem_link"><path d="M1347.5,341.5 L1347.5,367.8516 A0,0 0 0 0 1347.5,367.8516 L1416.5,367.8516 L1420.5,473.83 L1424.5,367.8516 L1493.5,367.8516 A0,0 0 0 0 1493.5,367.8516 L1493.5,351.5 L1483.5,341.5 L1347.5,341.5 A0,0 0 0 0 1347.5,341.5 " fill="#FEFFDD" style="stroke:#181818;stroke-width:0.5;"/><path d="M1483.5,341.5 L1483.5,351.5 L1493.5,351.5 L1483.5,341.5 " fill="#FEFFDD" style="stroke:#181818;stroke-width:0.5;"/><text fill="#000000" font-family="sans-serif" font-size="13" lengthAdjust="spacing" textLength="125" x="1353.5" y="359.9951">Link to the next detail</text></g><!--MD5=[3d8969de01f2361d4f44e57c4405efbc]
class OpenDefinitionQuestion--><g id="elem_OpenDefinitionQuestion"><rect codeLine="36" fill="#F1F1F1" height="83.2188" id="OpenDefinitionQuestion" rx="2.5" ry="2.5" style="stroke:#181818;stroke-width:0.5;" width="248" x="993.5" y="313"/><ellipse cx="1037.75" cy="329" fill="#ADD1B2" rx="11" ry="11" style="stroke:#181818;stroke-width:1.0;"/><path d="M1040.5156,324.875 Q1040.6719,324.6563 1040.8594,324.5469 Q1041.0469,324.4375 1041.2656,324.4375 Q1041.6406,324.4375 1041.875,324.7031 Q1042.1094,324.9531 1042.1094,325.5625 L1042.1094,327.0156 Q1042.1094,327.625 1041.875,327.8906 Q1041.6406,328.1563 1041.2656,328.1563 Q1040.9219,328.1563 1040.7188,327.9531 Q1040.5156,327.7656 1040.4063,327.25 Q1040.3594,326.8906 1040.1719,326.7031 Q1039.8438,326.3281 1039.2344,326.1094 Q1038.625,325.8906 1038,325.8906 Q1037.2344,325.8906 1036.5938,326.2188 Q1035.9688,326.5469 1035.4688,327.2969 Q1034.9844,328.0469 1034.9844,329.0781 L1034.9844,330.1719 Q1034.9844,331.4063 1035.875,332.2344 Q1036.7656,333.0469 1038.3594,333.0469 Q1039.2969,333.0469 1039.9531,332.7969 Q1040.3438,332.6406 1040.7656,332.2031 Q1041.0313,331.9375 1041.1719,331.8594 Q1041.3281,331.7813 1041.5313,331.7813 Q1041.8594,331.7813 1042.1094,332.0469 Q1042.375,332.2969 1042.375,332.6406 Q1042.375,332.9844 1042.0313,333.3906 Q1041.5313,333.9688 1040.7344,334.2969 Q1039.6563,334.75 1038.3594,334.75 Q1036.8438,334.75 1035.6406,334.125 Q1034.6563,333.625 1033.9688,332.5625 Q1033.2813,331.4844 1033.2813,330.2031 L1033.2813,329.0469 Q1033.2813,327.7188 1033.8906,326.5781 Q1034.5156,325.4219 1035.6094,324.8125 Q1036.7031,324.1875 1037.9375,324.1875 Q1038.6719,324.1875 1039.3125,324.3594 Q1039.9688,324.5156 1040.5156,324.875 Z " fill="#000000"/><text fill="#000000" font-family="sans-serif" font-size="14" lengthAdjust="spacing" textLength="151" x="1058.25" y="334.7285">OpenDefinitionQuestion</text><line style="stroke:#181818;stroke-width:0.5;" x1="994.5" x2="1240.5" y1="345" y2="345"/><rect fill="none" height="6" style="stroke:#C82930;stroke-width:1.0;" width="6" x="1001.5" y="356.3047"/><text fill="#000000" font-family="sans-serif" font-size="14" lengthAdjust="spacing" textLength="181" x="1013.5" y="363.5332">StatementType = "Definition"</text><rect fill="none" height="6" style="stroke:#C82930;stroke-width:1.0;" width="6" x="1001.5" y="373.9141"/><text fill="#000000" font-family="sans-serif" font-size="14" lengthAdjust="spacing" textLength="222" x="1013.5" y="381.1426">statement ="¿Qué es KEYWORD?"</text><line style="stroke:#181818;stroke-width:0.5;" x1="994.5" x2="1240.5" y1="388.2188" y2="388.2188"/></g><!--MD5=[9811c07b1247a04619f5505532a86de1]
class OpenClassQuestion--><g id="elem_OpenClassQuestion"><rect codeLine="42" fill="#F1F1F1" height="83.2188" id="OpenClassQuestion" rx="2.5" ry="2.5" style="stroke:#181818;stroke-width:0.5;" width="297" x="109" y="313"/><ellipse cx="189.75" cy="329" fill="#ADD1B2" rx="11" ry="11" style="stroke:#181818;stroke-width:1.0;"/><path d="M192.5156,324.875 Q192.6719,324.6563 192.8594,324.5469 Q193.0469,324.4375 193.2656,324.4375 Q193.6406,324.4375 193.875,324.7031 Q194.1094,324.9531 194.1094,325.5625 L194.1094,327.0156 Q194.1094,327.625 193.875,327.8906 Q193.6406,328.1563 193.2656,328.1563 Q192.9219,328.1563 192.7188,327.9531 Q192.5156,327.7656 192.4063,327.25 Q192.3594,326.8906 192.1719,326.7031 Q191.8438,326.3281 191.2344,326.1094 Q190.625,325.8906 190,325.8906 Q189.2344,325.8906 188.5938,326.2188 Q187.9688,326.5469 187.4688,327.2969 Q186.9844,328.0469 186.9844,329.0781 L186.9844,330.1719 Q186.9844,331.4063 187.875,332.2344 Q188.7656,333.0469 190.3594,333.0469 Q191.2969,333.0469 191.9531,332.7969 Q192.3438,332.6406 192.7656,332.2031 Q193.0313,331.9375 193.1719,331.8594 Q193.3281,331.7813 193.5313,331.7813 Q193.8594,331.7813 194.1094,332.0469 Q194.375,332.2969 194.375,332.6406 Q194.375,332.9844 194.0313,333.3906 Q193.5313,333.9688 192.7344,334.2969 Q191.6563,334.75 190.3594,334.75 Q188.8438,334.75 187.6406,334.125 Q186.6563,333.625 185.9688,332.5625 Q185.2813,331.4844 185.2813,330.2031 L185.2813,329.0469 Q185.2813,327.7188 185.8906,326.5781 Q186.5156,325.4219 187.6094,324.8125 Q188.7031,324.1875 189.9375,324.1875 Q190.6719,324.1875 191.3125,324.3594 Q191.9688,324.5156 192.5156,324.875 Z " fill="#000000"/><text fill="#000000" font-family="sans-serif" font-size="14" lengthAdjust="spacing" textLength="127" x="210.25" y="334.7285">OpenClassQuestion</text><line style="stroke:#181818;stroke-width:0.5;" x1="110" x2="405" y1="345" y2="345"/><rect fill="none" height="6" style="stroke:#C82930;stroke-width:1.0;" width="6" x="117" y="356.3047"/><text fill="#000000" font-family="sans-serif" font-size="14" lengthAdjust="spacing" textLength="205" x="129" y="363.5332">StatementType = "Classification"</text><rect fill="none" height="6" style="stroke:#C82930;stroke-width:1.0;" width="6" x="117" y="373.9141"/><text fill="#000000" font-family="sans-serif" font-size="14" lengthAdjust="spacing" textLength="271" x="129" y="381.1426">statement = "Qué tipos hay de KEYWORD"</text><line style="stroke:#181818;stroke-width:0.5;" x1="110" x2="405" y1="388.2188" y2="388.2188"/></g><!--MD5=[2e3e70aeace816b0cedea9999a1b71b4]
class OpenCompositionQuestion--><g id="elem_OpenCompositionQuestion"><rect codeLine="48" fill="#F1F1F1" height="83.2188" id="OpenCompositionQuestion" rx="2.5" ry="2.5" style="stroke:#181818;stroke-width:0.5;" width="398" x="441.5" y="313"/><ellipse cx="551.25" cy="329" fill="#ADD1B2" rx="11" ry="11" style="stroke:#181818;stroke-width:1.0;"/><path d="M554.0156,324.875 Q554.1719,324.6563 554.3594,324.5469 Q554.5469,324.4375 554.7656,324.4375 Q555.1406,324.4375 555.375,324.7031 Q555.6094,324.9531 555.6094,325.5625 L555.6094,327.0156 Q555.6094,327.625 555.375,327.8906 Q555.1406,328.1563 554.7656,328.1563 Q554.4219,328.1563 554.2188,327.9531 Q554.0156,327.7656 553.9063,327.25 Q553.8594,326.8906 553.6719,326.7031 Q553.3438,326.3281 552.7344,326.1094 Q552.125,325.8906 551.5,325.8906 Q550.7344,325.8906 550.0938,326.2188 Q549.4688,326.5469 548.9688,327.2969 Q548.4844,328.0469 548.4844,329.0781 L548.4844,330.1719 Q548.4844,331.4063 549.375,332.2344 Q550.2656,333.0469 551.8594,333.0469 Q552.7969,333.0469 553.4531,332.7969 Q553.8438,332.6406 554.2656,332.2031 Q554.5313,331.9375 554.6719,331.8594 Q554.8281,331.7813 555.0313,331.7813 Q555.3594,331.7813 555.6094,332.0469 Q555.875,332.2969 555.875,332.6406 Q555.875,332.9844 555.5313,333.3906 Q555.0313,333.9688 554.2344,334.2969 Q553.1563,334.75 551.8594,334.75 Q550.3438,334.75 549.1406,334.125 Q548.1563,333.625 547.4688,332.5625 Q546.7813,331.4844 546.7813,330.2031 L546.7813,329.0469 Q546.7813,327.7188 547.3906,326.5781 Q548.0156,325.4219 549.1094,324.8125 Q550.2031,324.1875 551.4375,324.1875 Q552.1719,324.1875 552.8125,324.3594 Q553.4688,324.5156 554.0156,324.875 Z " fill="#000000"/><text fill="#000000" font-family="sans-serif" font-size="14" lengthAdjust="spacing" textLength="170" x="571.75" y="334.7285">OpenCompositionQuestion</text><line style="stroke:#181818;stroke-width:0.5;" x1="442.5" x2="838.5" y1="345" y2="345"/><rect fill="none" height="6" style="stroke:#C82930;stroke-width:1.0;" width="6" x="449.5" y="356.3047"/><text fill="#000000" font-family="sans-serif" font-size="14" lengthAdjust="spacing" textLength="200" x="461.5" y="363.5332">StatementType = "Composition"</text><rect fill="none" height="6" style="stroke:#C82930;stroke-width:1.0;" width="6" x="449.5" y="373.9141"/><text fill="#000000" font-family="sans-serif" font-size="14" lengthAdjust="spacing" textLength="372" x="461.5" y="381.1426">statement ="¿Qué conceptos destacarias del KEYWORD?"</text><line style="stroke:#181818;stroke-width:0.5;" x1="442.5" x2="838.5" y1="388.2188" y2="388.2188"/></g><!--MD5=[fc7123defb831ecdd44b2d9bcef6cceb]
class Question--><g id="elem_Question"><rect codeLine="54" fill="#F1F1F1" height="100.8281" id="Question" rx="2.5" ry="2.5" style="stroke:#181818;stroke-width:0.5;" width="122" x="935.5" y="7"/><ellipse cx="965.35" cy="23" fill="#A9DCDF" rx="11" ry="11" style="stroke:#181818;stroke-width:1.0;"/><path d="M967.5375,24.7656 L963.3969,24.7656 L962.975,25.7969 L963.3969,25.7969 Q964.0063,25.7969 964.2719,26.0313 Q964.5375,26.2656 964.5375,26.6563 Q964.5375,27.0313 964.2719,27.2656 Q964.0063,27.5 963.3969,27.5 L961.1,27.5 Q960.4906,27.5 960.2406,27.2656 Q959.975,27.0313 959.975,26.6406 Q959.975,26.2656 960.2563,26.0313 Q960.5219,25.7813 961.1469,25.7969 L963.8188,19.1406 L962.7094,19.1406 Q962.1,19.1406 961.8344,18.9063 Q961.5688,18.6719 961.5688,18.2813 Q961.5688,17.9063 961.8344,17.6719 Q962.1,17.4375 962.7094,17.4375 L966.3813,17.4375 L969.7719,25.7969 Q970.3656,25.7969 970.5531,25.9375 Q970.9438,26.2031 970.9438,26.6563 Q970.9438,27.0313 970.6781,27.2656 Q970.4281,27.5 969.8188,27.5 L967.5219,27.5 Q966.9125,27.5 966.6469,27.2656 Q966.3813,27.0313 966.3813,26.6406 Q966.3813,26.2656 966.6469,26.0313 Q966.9125,25.7969 967.5219,25.7969 L967.9438,25.7969 L967.5375,24.7656 Z M966.8188,23.0625 L965.4594,19.6875 L964.0844,23.0625 L966.8188,23.0625 Z " fill="#000000"/><text fill="#000000" font-family="sans-serif" font-size="14" font-style="italic" lengthAdjust="spacing" textLength="57" x="982.65" y="28.7285">Question</text><line style="stroke:#181818;stroke-width:0.5;" x1="936.5" x2="1056.5" y1="39" y2="39"/><rect fill="none" height="6" style="stroke:#C82930;stroke-width:1.0;" width="6" x="943.5" y="50.3047"/><text fill="#000000" font-family="sans-serif" font-size="14" lengthAdjust="spacing" textLength="62" x="955.5" y="57.5332">statement</text><rect fill="none" height="6" style="stroke:#C82930;stroke-width:1.0;" width="6" x="943.5" y="67.9141"/><text fill="#000000" font-family="sans-serif" font-size="14" lengthAdjust="spacing" textLength="96" x="955.5" y="75.1426">StatementType</text><rect fill="none" height="6" style="stroke:#C82930;stroke-width:1.0;" width="6" x="943.5" y="85.5234"/><text fill="#000000" font-family="sans-serif" font-size="14" lengthAdjust="spacing" textLength="60" x="955.5" y="92.752">answers[]</text><line style="stroke:#181818;stroke-width:0.5;" x1="936.5" x2="1056.5" y1="99.8281" y2="99.8281"/></g><!--MD5=[c5be3d7e9ffcf6502258095b57411394]
class OpenQuestion--><g id="elem_OpenQuestion"><rect codeLine="60" fill="#F1F1F1" height="65.6094" id="OpenQuestion" rx="2.5" ry="2.5" style="stroke:#181818;stroke-width:0.5;" width="164" x="558.5" y="177.5"/><ellipse cx="591.5" cy="193.5" fill="#ADD1B2" rx="11" ry="11" style="stroke:#181818;stroke-width:1.0;"/><path d="M594.2656,189.375 Q594.4219,189.1563 594.6094,189.0469 Q594.7969,188.9375 595.0156,188.9375 Q595.3906,188.9375 595.625,189.2031 Q595.8594,189.4531 595.8594,190.0625 L595.8594,191.5156 Q595.8594,192.125 595.625,192.3906 Q595.3906,192.6563 595.0156,192.6563 Q594.6719,192.6563 594.4688,192.4531 Q594.2656,192.2656 594.1563,191.75 Q594.1094,191.3906 593.9219,191.2031 Q593.5938,190.8281 592.9844,190.6094 Q592.375,190.3906 591.75,190.3906 Q590.9844,190.3906 590.3438,190.7188 Q589.7188,191.0469 589.2188,191.7969 Q588.7344,192.5469 588.7344,193.5781 L588.7344,194.6719 Q588.7344,195.9063 589.625,196.7344 Q590.5156,197.5469 592.1094,197.5469 Q593.0469,197.5469 593.7031,197.2969 Q594.0938,197.1406 594.5156,196.7031 Q594.7813,196.4375 594.9219,196.3594 Q595.0781,196.2813 595.2813,196.2813 Q595.6094,196.2813 595.8594,196.5469 Q596.125,196.7969 596.125,197.1406 Q596.125,197.4844 595.7813,197.8906 Q595.2813,198.4688 594.4844,198.7969 Q593.4063,199.25 592.1094,199.25 Q590.5938,199.25 589.3906,198.625 Q588.4063,198.125 587.7188,197.0625 Q587.0313,195.9844 587.0313,194.7031 L587.0313,193.5469 Q587.0313,192.2188 587.6406,191.0781 Q588.2656,189.9219 589.3594,189.3125 Q590.4531,188.6875 591.6875,188.6875 Q592.4219,188.6875 593.0625,188.8594 Q593.7188,189.0156 594.2656,189.375 Z " fill="#000000"/><text fill="#000000" font-family="sans-serif" font-size="14" lengthAdjust="spacing" textLength="92" x="609.5" y="199.2285">OpenQuestion</text><line style="stroke:#181818;stroke-width:0.5;" x1="559.5" x2="721.5" y1="209.5" y2="209.5"/><rect fill="none" height="6" style="stroke:#C82930;stroke-width:1.0;" width="6" x="566.5" y="220.8047"/><text fill="#000000" font-family="sans-serif" font-size="14" lengthAdjust="spacing" textLength="138" x="578.5" y="228.0332">answerType = "Open"</text><line style="stroke:#181818;stroke-width:0.5;" x1="559.5" x2="721.5" y1="235.1094" y2="235.1094"/></g><!--MD5=[f7b1256a464262a81d5827fb39e684fb]
class Open--><g id="elem_Open"><rect codeLine="64" fill="#F1F1F1" height="48" id="Open" rx="2.5" ry="2.5" style="stroke:#181818;stroke-width:0.5;" width="67" x="7" y="330.5"/><ellipse cx="22" cy="346.5" fill="#ADD1B2" rx="11" ry="11" style="stroke:#181818;stroke-width:1.0;"/><path d="M24.7656,342.375 Q24.9219,342.1563 25.1094,342.0469 Q25.2969,341.9375 25.5156,341.9375 Q25.8906,341.9375 26.125,342.2031 Q26.3594,342.4531 26.3594,343.0625 L26.3594,344.5156 Q26.3594,345.125 26.125,345.3906 Q25.8906,345.6563 25.5156,345.6563 Q25.1719,345.6563 24.9688,345.4531 Q24.7656,345.2656 24.6563,344.75 Q24.6094,344.3906 24.4219,344.2031 Q24.0938,343.8281 23.4844,343.6094 Q22.875,343.3906 22.25,343.3906 Q21.4844,343.3906 20.8438,343.7188 Q20.2188,344.0469 19.7188,344.7969 Q19.2344,345.5469 19.2344,346.5781 L19.2344,347.6719 Q19.2344,348.9063 20.125,349.7344 Q21.0156,350.5469 22.6094,350.5469 Q23.5469,350.5469 24.2031,350.2969 Q24.5938,350.1406 25.0156,349.7031 Q25.2813,349.4375 25.4219,349.3594 Q25.5781,349.2813 25.7813,349.2813 Q26.1094,349.2813 26.3594,349.5469 Q26.625,349.7969 26.625,350.1406 Q26.625,350.4844 26.2813,350.8906 Q25.7813,351.4688 24.9844,351.7969 Q23.9063,352.25 22.6094,352.25 Q21.0938,352.25 19.8906,351.625 Q18.9063,351.125 18.2188,350.0625 Q17.5313,348.9844 17.5313,347.7031 L17.5313,346.5469 Q17.5313,345.2188 18.1406,344.0781 Q18.7656,342.9219 19.8594,342.3125 Q20.9531,341.6875 22.1875,341.6875 Q22.9219,341.6875 23.5625,341.8594 Q24.2188,342.0156 24.7656,342.375 Z " fill="#000000"/><text fill="#000000" font-family="sans-serif" font-size="14" lengthAdjust="spacing" textLength="35" x="36" y="352.2285">Open</text><line style="stroke:#181818;stroke-width:0.5;" x1="8" x2="73" y1="362.5" y2="362.5"/><line style="stroke:#181818;stroke-width:0.5;" x1="8" x2="73" y1="370.5" y2="370.5"/></g><!--MD5=[af22135d5be6ed11ccd2d02fa51653b3]
class Definition--><g id="elem_Definition"><rect fill="#F1F1F1" height="48" id="Definition" rx="2.5" ry="2.5" style="stroke:#181818;stroke-width:0.5;" width="91" x="1166" y="491.5"/><ellipse cx="1181" cy="507.5" fill="#ADD1B2" rx="11" ry="11" style="stroke:#181818;stroke-width:1.0;"/><path d="M1183.7656,503.375 Q1183.9219,503.1563 1184.1094,503.0469 Q1184.2969,502.9375 1184.5156,502.9375 Q1184.8906,502.9375 1185.125,503.2031 Q1185.3594,503.4531 1185.3594,504.0625 L1185.3594,505.5156 Q1185.3594,506.125 1185.125,506.3906 Q1184.8906,506.6563 1184.5156,506.6563 Q1184.1719,506.6563 1183.9688,506.4531 Q1183.7656,506.2656 1183.6563,505.75 Q1183.6094,505.3906 1183.4219,505.2031 Q1183.0938,504.8281 1182.4844,504.6094 Q1181.875,504.3906 1181.25,504.3906 Q1180.4844,504.3906 1179.8438,504.7188 Q1179.2188,505.0469 1178.7188,505.7969 Q1178.2344,506.5469 1178.2344,507.5781 L1178.2344,508.6719 Q1178.2344,509.9063 1179.125,510.7344 Q1180.0156,511.5469 1181.6094,511.5469 Q1182.5469,511.5469 1183.2031,511.2969 Q1183.5938,511.1406 1184.0156,510.7031 Q1184.2813,510.4375 1184.4219,510.3594 Q1184.5781,510.2813 1184.7813,510.2813 Q1185.1094,510.2813 1185.3594,510.5469 Q1185.625,510.7969 1185.625,511.1406 Q1185.625,511.4844 1185.2813,511.8906 Q1184.7813,512.4688 1183.9844,512.7969 Q1182.9063,513.25 1181.6094,513.25 Q1180.0938,513.25 1178.8906,512.625 Q1177.9063,512.125 1177.2188,511.0625 Q1176.5313,509.9844 1176.5313,508.7031 L1176.5313,507.5469 Q1176.5313,506.2188 1177.1406,505.0781 Q1177.7656,503.9219 1178.8594,503.3125 Q1179.9531,502.6875 1181.1875,502.6875 Q1181.9219,502.6875 1182.5625,502.8594 Q1183.2188,503.0156 1183.7656,503.375 Z " fill="#000000"/><text fill="#000000" font-family="sans-serif" font-size="14" lengthAdjust="spacing" textLength="59" x="1195" y="513.2285">Definition</text><line style="stroke:#181818;stroke-width:0.5;" x1="1167" x2="1256" y1="523.5" y2="523.5"/><line style="stroke:#181818;stroke-width:0.5;" x1="1167" x2="1256" y1="531.5" y2="531.5"/></g><!--MD5=[e68d8486b151d64b61c7f5b6e40a3de9]
reverse link Question to OpenQuestion--><g id="link_Question_OpenQuestion"><path codeLine="66" d="M916.64,92.38 C856.63,117.83 774.98,152.46 716.04,177.46 " fill="none" id="Question-backto-OpenQuestion" style="stroke:#181818;stroke-width:1.0;"/><polygon fill="none" points="914.16,85.82,935.3,84.46,919.62,98.71,914.16,85.82" style="stroke:#181818;stroke-width:1.0;"/></g><!--MD5=[ed083f2d1ee1d19af9b715a82f936d84]
link Question to Concept--><g id="link_Question_Concept"><path codeLine="67" d="M1057.63,104.42 C1085.24,125.16 1117.56,149.44 1144.17,169.44 " fill="none" id="Question-to-Concept" style="stroke:#181818;stroke-width:1.0;"/><polygon fill="none" points="1154.82,177.44,1152.426,170.6379,1145.2263,170.2316,1147.6204,177.0337,1154.82,177.44" style="stroke:#181818;stroke-width:1.0;"/><text fill="#000000" font-family="sans-serif" font-size="13" lengthAdjust="spacing" textLength="22" x="1065.5192" y="106.2006">0..n</text></g><!--MD5=[4cad30c456caf6c2d8ef64c6efcf5ce1]
reverse link Question to Open--><g id="link_Question_Open"><path codeLine="68" d="M915.66,70.6 C809.29,87.53 617.13,121.62 457.5,169 C289.92,218.74 242.94,225.69 91.5,313 C82.88,317.97 74.16,324.31 66.43,330.49 " fill="none" id="Question-backto-Open" style="stroke:#181818;stroke-width:1.0;"/><polygon fill="none" points="914.59,63.68,935.44,67.49,916.77,77.51,914.59,63.68" style="stroke:#181818;stroke-width:1.0;"/><text fill="#000000" font-family="sans-serif" font-size="13" lengthAdjust="spacing" textLength="81" x="458.5" y="215.9951">-- answerType</text></g><!--MD5=[796dfdab8991771f793f93ccedef4380]
reverse link OpenQuestion to Open--><g id="link_OpenQuestion_Open"><path codeLine="69" d="M545.37,230.21 C469.83,244.93 361.5,265.78 266.5,283 C188.85,297.08 163.54,280.79 91.5,313 C81.9,317.29 72.55,323.81 64.52,330.37 " fill="none" id="OpenQuestion-backto-Open" style="stroke:#181818;stroke-width:1.0;"/><polygon fill="none" points="558.14,227.71,551.4857,224.9313,546.3615,230.005,553.0158,232.7837,558.14,227.71" style="stroke:#181818;stroke-width:1.0;"/><text fill="#000000" font-family="sans-serif" font-size="13" lengthAdjust="spacing" textLength="22" x="45.8564" y="319.6768">0..n</text></g><!--MD5=[67a9faaf0515b397e3219f72c48c9cfd]
reverse link Concept to State--><g id="link_Concept_State"><path codeLine="70" d="M1252.26,236.56 C1286.55,251.55 1331.98,270.12 1373.5,283 C1433.03,301.46 1454.19,286.26 1510.5,313 C1519.9,317.46 1529.13,323.95 1537.09,330.43 " fill="none" id="Concept-backto-State" style="stroke:#181818;stroke-width:1.0;"/><polygon fill="#181818" points="1240.15,231.22,1244.0253,237.3013,1251.1293,236.063,1247.254,229.9817,1240.15,231.22" style="stroke:#181818;stroke-width:1.0;"/></g><!--MD5=[a5520a007773c1785edb69fbf58d008f]
link Question to State--><g id="link_Question_State"><path codeLine="71" d="M1057.53,81.99 C1111.01,103.12 1190.45,135.86 1257.5,169 C1373.49,226.32 1403.3,240.56 1510.5,313 C1516.89,317.32 1523.5,322.22 1529.76,327.07 " fill="none" id="Question-to-State" style="stroke:#181818;stroke-width:1.0;stroke-dasharray:7.0,7.0;"/><polygon fill="#181818" points="1534.03,330.42,1529.423,321.7151,1530.0979,327.3315,1524.4815,328.0064,1534.03,330.42" style="stroke:#181818;stroke-width:1.0;"/><text fill="#000000" font-family="sans-serif" font-size="13" lengthAdjust="spacing" textLength="88" x="1417.5" y="215.9951">StatementType</text></g><!--MD5=[543bb2115b5a10697a67507a00f6a2f4]
reverse link Concept to Definition--><g id="link_Concept_Definition"><path codeLine="73" d="M1235.95,263.34 C1245.17,278.58 1253.73,295.79 1258.5,313 C1276.26,377.04 1243.81,453.75 1224.44,491.38 " fill="none" id="Concept-backto-Definition" style="stroke:#181818;stroke-width:1.0;"/><polygon fill="none" points="1228.82,252.11,1228.6575,259.3193,1235.2497,262.2421,1235.4122,255.0328,1228.82,252.11" style="stroke:#181818;stroke-width:1.0;"/><text fill="#000000" font-family="sans-serif" font-size="13" lengthAdjust="spacing" textLength="22" x="1202.9371" y="480.6894">0..n</text></g><!--MD5=[54f9360500e0fd532969fc16f437bbea]
reverse link Concept to Relation--><g id="link_Concept_Relation"><path codeLine="77" d="M1142.65,233.45 C1096.91,252.49 1030.56,281.82 975.5,313 C966.31,318.2 956.72,324.42 948.01,330.39 " fill="none" id="Concept-backto-Relation" style="stroke:#181818;stroke-width:1.0;"/><polygon fill="none" points="1154.69,228.48,1147.6185,227.0679,1143.5952,233.0523,1150.6667,234.4644,1154.69,228.48" style="stroke:#181818;stroke-width:1.0;"/><text fill="#000000" font-family="sans-serif" font-size="13" lengthAdjust="spacing" textLength="22" x="931.2657" y="319.702">0..n</text></g><!--MD5=[90ea77717cc70d7f588b001bbb985d62]
reverse link Relation to Classification--><g id="link_Relation_Classification"><path codeLine="78" d="M868.39,389.31 C864.43,391.68 860.44,393.94 856.5,396 C764.34,444.16 648.3,480.38 580.08,499.43 " fill="none" id="Relation-backto-Classification" style="stroke:#181818;stroke-width:1.0;"/><polygon fill="none" points="864.63,383.41,885.25,378.53,872.17,395.2,864.63,383.41" style="stroke:#181818;stroke-width:1.0;"/></g><!--MD5=[aac130c8b5f905729b18e85e231f7b50]
reverse link Relation to Composition--><g id="link_Relation_Composition"><path codeLine="79" d="M875.5,392.12 C841.29,422.68 793.56,465.32 764.41,491.35 " fill="none" id="Relation-backto-Composition" style="stroke:#181818;stroke-width:1.0;"/><polygon fill="none" points="871.04,386.72,890.62,378.62,880.36,397.16,871.04,386.72" style="stroke:#181818;stroke-width:1.0;"/></g><!--MD5=[853bb68ef748593df4a7139cf0af95d7]
reverse link State to Primary--><g id="link_State_Primary"><path codeLine="81" d="M1570.95,398.42 C1576.76,424.82 1584.09,458.11 1589.4,482.26 " fill="none" id="State-backto-Primary" style="stroke:#181818;stroke-width:1.0;"/><polygon fill="none" points="1564.05,399.66,1566.59,378.62,1577.73,396.65,1564.05,399.66" style="stroke:#181818;stroke-width:1.0;"/></g><!--MD5=[5a70d9cb697fce9798f73fc804671dc5]
reverse link State to Secundary--><g id="link_State_Secundary"><path codeLine="82" d="M1527.62,393.71 C1506.17,417.9 1478.46,449.14 1456.6,473.79 " fill="none" id="State-backto-Secundary" style="stroke:#181818;stroke-width:1.0;"/><polygon fill="none" points="1522.49,388.94,1541,378.62,1532.96,398.23,1522.49,388.94" style="stroke:#181818;stroke-width:1.0;"/></g><!--MD5=[00d00651df35e5fdc4df48bf5349a5bb]
reverse link OpenQuestion to OpenDefinitionQuestion--><g id="link_OpenQuestion_OpenDefinitionQuestion"><path codeLine="88" d="M742.27,241.8 C815.69,263.65 915.21,293.28 993.32,316.53 " fill="none" id="OpenQuestion-backto-OpenDefinitionQuestion" style="stroke:#181818;stroke-width:1.0;"/><polygon fill="none" points="739.94,248.41,722.77,235.99,743.94,234.99,739.94,248.41" style="stroke:#181818;stroke-width:1.0;"/></g><!--MD5=[49c48160fdf887f5a9305ebf554c6fce]
reverse link OpenDefinitionQuestion to Definition--><g id="link_OpenDefinitionQuestion_Definition"><path codeLine="89" d="M1144.01,400.34 C1161.51,429.94 1183.72,467.51 1197.78,491.29 " fill="none" id="OpenDefinitionQuestion-backto-Definition" style="stroke:#181818;stroke-width:1.0;stroke-dasharray:7.0,7.0;"/><polygon fill="#181818" points="1141.46,396.03,1142.5981,405.8129,1144.0051,400.3338,1149.4842,401.7407,1141.46,396.03" style="stroke:#181818;stroke-width:1.0;"/><text fill="#000000" font-family="sans-serif" font-size="13" lengthAdjust="spacing" textLength="48" x="1168.5" y="440.4951">answers</text></g><!--MD5=[2c480cd5ab9f14c80fa922f559052d91]
reverse link OpenQuestion to OpenClassQuestion--><g id="link_OpenQuestion_OpenClassQuestion"><path codeLine="91" d="M539.35,249 C486.23,268.7 421.07,292.85 366.79,312.98 " fill="none" id="OpenQuestion-backto-OpenClassQuestion" style="stroke:#181818;stroke-width:1.0;"/><polygon fill="none" points="537.15,242.35,558.34,241.96,542.02,255.48,537.15,242.35" style="stroke:#181818;stroke-width:1.0;"/></g><!--MD5=[b619a8a782ce055e34c4b08410723460]
reverse link OpenClassQuestion to Classification--><g id="link_OpenClassQuestion_Classification"><path codeLine="92" d="M329.52,398.71 C379.25,428.55 443.46,467.07 483.82,491.29 " fill="none" id="OpenClassQuestion-backto-Classification" style="stroke:#181818;stroke-width:1.0;stroke-dasharray:7.0,7.0;"/><polygon fill="#181818" points="325.06,396.03,330.7195,404.0904,329.3475,398.6025,334.8354,397.2305,325.06,396.03" style="stroke:#181818;stroke-width:1.0;"/><text fill="#000000" font-family="sans-serif" font-size="13" lengthAdjust="spacing" textLength="48" x="399.5" y="440.4951">answers</text></g><!--MD5=[a705a4ef93217206b71ff3030540b34a]
reverse link OpenQuestion to OpenCompositionQuestion--><g id="link_OpenQuestion_OpenCompositionQuestion"><path codeLine="94" d="M640.5,263.84 C640.5,279.98 640.5,297.51 640.5,312.75 " fill="none" id="OpenQuestion-backto-OpenCompositionQuestion" style="stroke:#181818;stroke-width:1.0;"/><polygon fill="none" points="633.5,263.72,640.5,243.72,647.5,263.72,633.5,263.72" style="stroke:#181818;stroke-width:1.0;"/></g><!--MD5=[92cd928904746ce40363a3030cb52c20]
reverse link OpenCompositionQuestion to Composition--><g id="link_OpenCompositionQuestion_Composition"><path codeLine="95" d="M668.14,400.34 C686.38,429.94 709.54,467.51 724.19,491.29 " fill="none" id="OpenCompositionQuestion-backto-Composition" style="stroke:#181818;stroke-width:1.0;stroke-dasharray:7.0,7.0;"/><polygon fill="#181818" points="665.48,396.03,666.8048,405.7893,668.1069,400.2844,673.6118,401.5864,665.48,396.03" style="stroke:#181818;stroke-width:1.0;"/><text fill="#000000" font-family="sans-serif" font-size="13" lengthAdjust="spacing" textLength="48" x="693.5" y="440.4951">answers</text></g><!--MD5=[84f56f1d7c3e9f6c007e81e2871bde8a]
@startuml ConceptDomainDetail

class Concept {
    - keyword
    - state
}

'class Definition {
    '   - Real/Fake
    '}

'class Justification {
    '    - Real/Fake
    '}

'class Explanation

class Relation

class Classification

class Composition

enum State

class Primary {
    withKeyword
}

class Secundary {
    withKeyword
    withDefinition or withRelation
}
note "Link to the next detail" as link
link .- Secundary

class OpenDefinitionQuestion {
    - StatementType = "Definition"
    - statement ="¿Qué es KEYWORD?"

}

class OpenClassQuestion {
    - StatementType = "Classification"
    - statement = "Qué tipos hay de KEYWORD"

}

class OpenCompositionQuestion {
    - StatementType = "Composition"
    - statement ="¿Qué conceptos destacarias del KEYWORD?"

}

abstract class Question {
    - statement
    - StatementType
    - answers[]
}

class OpenQuestion {
    - answerType = "Open"
}

class Open

Question <|- - OpenQuestion
Question "0..n" -o Concept
Question <|- - Open :- - answerType
OpenQuestion o- -"0..n" Open
Concept *- - State
Question ..> State: StatementType

Concept o- -"0..n" Definition
'Definition o- - "0..n" Justification:Fake
'Justification o- - Explanation:Fake

Concept o- - "0..n" Relation
Relation <|- - Classification
Relation <|- - Composition

State <|- - Primary
State <|- - Secundary

'Question <|- - OpenDefinitionQuestion :- -StatementType
'Question <|- - OpenClassQuestion :- -StatementType
'Question <|- - OpenCompositionQuestion :- -StatementType

OpenQuestion <|- - OpenDefinitionQuestion
OpenDefinitionQuestion <.. Definition: answers

OpenQuestion <|- - OpenClassQuestion
OpenClassQuestion <.. Classification :answers

OpenQuestion <|- - OpenCompositionQuestion
OpenCompositionQuestion <.. Composition :answers

@enduml

@startuml ConceptDomainDetail

class Concept {
    - keyword
    - state
}




class Relation

class Classification

class Composition

enum State

class Primary {
    withKeyword
}

class Secundary {
    withKeyword
    withDefinition or withRelation
}
note "Link to the next detail" as link
link .- Secundary

class OpenDefinitionQuestion {
    - StatementType = "Definition"
    - statement ="¿Qué es KEYWORD?"

}

class OpenClassQuestion {
    - StatementType = "Classification"
    - statement = "Qué tipos hay de KEYWORD"

}

class OpenCompositionQuestion {
    - StatementType = "Composition"
    - statement ="¿Qué conceptos destacarias del KEYWORD?"

}

abstract class Question {
    - statement
    - StatementType
    - answers[]
}

class OpenQuestion {
    - answerType = "Open"
}

class Open

Question <|- - OpenQuestion
Question "0..n" -o Concept
Question <|- - Open :- - answerType
OpenQuestion o- -"0..n" Open
Concept *- - State
Question ..> State: StatementType

Concept o- -"0..n" Definition

Concept o- - "0..n" Relation
Relation <|- - Classification
Relation <|- - Composition

State <|- - Primary
State <|- - Secundary


OpenQuestion <|- - OpenDefinitionQuestion
OpenDefinitionQuestion <.. Definition: answers

OpenQuestion <|- - OpenClassQuestion
OpenClassQuestion <.. Classification :answers

OpenQuestion <|- - OpenCompositionQuestion
OpenCompositionQuestion <.. Composition :answers

@enduml

PlantUML version 1.2022.7(Mon Aug 22 18:01:30 WEST 2022)
(GPL source distribution)
Java Runtime: OpenJDK Runtime Environment
JVM: OpenJDK 64-Bit Server VM
Default Encoding: Cp1252
Language: es
Country: ES
--></g></svg>