<?xml version="1.0" encoding="UTF-8" standalone="no"?><svg xmlns="http://www.w3.org/2000/svg" xmlns:xlink="http://www.w3.org/1999/xlink" contentStyleType="text/css" height="512px" preserveAspectRatio="none" style="width:1543px;height:512px;background:#FFFFFF;" version="1.1" viewBox="0 0 1543 512" width="1543px" zoomAndPan="magnify"><defs/><g><!--MD5=[a96594a83e2ecdc78cbf17c2ddf01934]
class Category--><g id="elem_Category"><rect codeLine="2" fill="#F1F1F1" height="48" id="Category" rx="2.5" ry="2.5" style="stroke:#181818;stroke-width:0.5;" width="90" x="649.5" y="16"/><ellipse cx="664.5" cy="32" fill="#ADD1B2" rx="11" ry="11" style="stroke:#181818;stroke-width:1.0;"/><path d="M667.2656,27.875 Q667.4219,27.6563 667.6094,27.5469 Q667.7969,27.4375 668.0156,27.4375 Q668.3906,27.4375 668.625,27.7031 Q668.8594,27.9531 668.8594,28.5625 L668.8594,30.0156 Q668.8594,30.625 668.625,30.8906 Q668.3906,31.1563 668.0156,31.1563 Q667.6719,31.1563 667.4688,30.9531 Q667.2656,30.7656 667.1563,30.25 Q667.1094,29.8906 666.9219,29.7031 Q666.5938,29.3281 665.9844,29.1094 Q665.375,28.8906 664.75,28.8906 Q663.9844,28.8906 663.3438,29.2188 Q662.7188,29.5469 662.2188,30.2969 Q661.7344,31.0469 661.7344,32.0781 L661.7344,33.1719 Q661.7344,34.4063 662.625,35.2344 Q663.5156,36.0469 665.1094,36.0469 Q666.0469,36.0469 666.7031,35.7969 Q667.0938,35.6406 667.5156,35.2031 Q667.7813,34.9375 667.9219,34.8594 Q668.0781,34.7813 668.2813,34.7813 Q668.6094,34.7813 668.8594,35.0469 Q669.125,35.2969 669.125,35.6406 Q669.125,35.9844 668.7813,36.3906 Q668.2813,36.9688 667.4844,37.2969 Q666.4063,37.75 665.1094,37.75 Q663.5938,37.75 662.3906,37.125 Q661.4063,36.625 660.7188,35.5625 Q660.0313,34.4844 660.0313,33.2031 L660.0313,32.0469 Q660.0313,30.7188 660.6406,29.5781 Q661.2656,28.4219 662.3594,27.8125 Q663.4531,27.1875 664.6875,27.1875 Q665.4219,27.1875 666.0625,27.3594 Q666.7188,27.5156 667.2656,27.875 Z " fill="#000000"/><text fill="#000000" font-family="sans-serif" font-size="14" lengthAdjust="spacing" textLength="58" x="678.5" y="37.7285">Category</text><line style="stroke:#181818;stroke-width:0.5;" x1="650.5" x2="738.5" y1="48" y2="48"/><line style="stroke:#181818;stroke-width:0.5;" x1="650.5" x2="738.5" y1="56" y2="56"/></g><!--MD5=[9d451b2f92d848a8e2d1a4dab2b1c6bf]
class Concept--><g id="elem_Concept"><rect codeLine="4" fill="#F1F1F1" height="48" id="Concept" rx="2.5" ry="2.5" style="stroke:#181818;stroke-width:0.5;" width="85" x="510" y="133"/><ellipse cx="525" cy="149" fill="#ADD1B2" rx="11" ry="11" style="stroke:#181818;stroke-width:1.0;"/><path d="M527.7656,144.875 Q527.9219,144.6563 528.1094,144.5469 Q528.2969,144.4375 528.5156,144.4375 Q528.8906,144.4375 529.125,144.7031 Q529.3594,144.9531 529.3594,145.5625 L529.3594,147.0156 Q529.3594,147.625 529.125,147.8906 Q528.8906,148.1563 528.5156,148.1563 Q528.1719,148.1563 527.9688,147.9531 Q527.7656,147.7656 527.6563,147.25 Q527.6094,146.8906 527.4219,146.7031 Q527.0938,146.3281 526.4844,146.1094 Q525.875,145.8906 525.25,145.8906 Q524.4844,145.8906 523.8438,146.2188 Q523.2188,146.5469 522.7188,147.2969 Q522.2344,148.0469 522.2344,149.0781 L522.2344,150.1719 Q522.2344,151.4063 523.125,152.2344 Q524.0156,153.0469 525.6094,153.0469 Q526.5469,153.0469 527.2031,152.7969 Q527.5938,152.6406 528.0156,152.2031 Q528.2813,151.9375 528.4219,151.8594 Q528.5781,151.7813 528.7813,151.7813 Q529.1094,151.7813 529.3594,152.0469 Q529.625,152.2969 529.625,152.6406 Q529.625,152.9844 529.2813,153.3906 Q528.7813,153.9688 527.9844,154.2969 Q526.9063,154.75 525.6094,154.75 Q524.0938,154.75 522.8906,154.125 Q521.9063,153.625 521.2188,152.5625 Q520.5313,151.4844 520.5313,150.2031 L520.5313,149.0469 Q520.5313,147.7188 521.1406,146.5781 Q521.7656,145.4219 522.8594,144.8125 Q523.9531,144.1875 525.1875,144.1875 Q525.9219,144.1875 526.5625,144.3594 Q527.2188,144.5156 527.7656,144.875 Z " fill="#000000"/><text fill="#000000" font-family="sans-serif" font-size="14" lengthAdjust="spacing" textLength="53" x="539" y="154.7285">Concept</text><line style="stroke:#181818;stroke-width:0.5;" x1="511" x2="594" y1="165" y2="165"/><line style="stroke:#181818;stroke-width:0.5;" x1="511" x2="594" y1="173" y2="173"/></g><!--MD5=[1ac27345a8a52a4a812e38456e107300]
class Keyword--><g id="elem_Keyword"><rect codeLine="6" fill="#F1F1F1" height="48" id="Keyword" rx="2.5" ry="2.5" style="stroke:#181818;stroke-width:0.5;" width="86" x="447.5" y="241"/><ellipse cx="462.5" cy="257" fill="#ADD1B2" rx="11" ry="11" style="stroke:#181818;stroke-width:1.0;"/><path d="M465.2656,252.875 Q465.4219,252.6563 465.6094,252.5469 Q465.7969,252.4375 466.0156,252.4375 Q466.3906,252.4375 466.625,252.7031 Q466.8594,252.9531 466.8594,253.5625 L466.8594,255.0156 Q466.8594,255.625 466.625,255.8906 Q466.3906,256.1563 466.0156,256.1563 Q465.6719,256.1563 465.4688,255.9531 Q465.2656,255.7656 465.1563,255.25 Q465.1094,254.8906 464.9219,254.7031 Q464.5938,254.3281 463.9844,254.1094 Q463.375,253.8906 462.75,253.8906 Q461.9844,253.8906 461.3438,254.2188 Q460.7188,254.5469 460.2188,255.2969 Q459.7344,256.0469 459.7344,257.0781 L459.7344,258.1719 Q459.7344,259.4063 460.625,260.2344 Q461.5156,261.0469 463.1094,261.0469 Q464.0469,261.0469 464.7031,260.7969 Q465.0938,260.6406 465.5156,260.2031 Q465.7813,259.9375 465.9219,259.8594 Q466.0781,259.7813 466.2813,259.7813 Q466.6094,259.7813 466.8594,260.0469 Q467.125,260.2969 467.125,260.6406 Q467.125,260.9844 466.7813,261.3906 Q466.2813,261.9688 465.4844,262.2969 Q464.4063,262.75 463.1094,262.75 Q461.5938,262.75 460.3906,262.125 Q459.4063,261.625 458.7188,260.5625 Q458.0313,259.4844 458.0313,258.2031 L458.0313,257.0469 Q458.0313,255.7188 458.6406,254.5781 Q459.2656,253.4219 460.3594,252.8125 Q461.4531,252.1875 462.6875,252.1875 Q463.4219,252.1875 464.0625,252.3594 Q464.7188,252.5156 465.2656,252.875 Z " fill="#000000"/><text fill="#000000" font-family="sans-serif" font-size="14" lengthAdjust="spacing" textLength="54" x="476.5" y="262.7285">Keyword</text><line style="stroke:#181818;stroke-width:0.5;" x1="448.5" x2="532.5" y1="273" y2="273"/><line style="stroke:#181818;stroke-width:0.5;" x1="448.5" x2="532.5" y1="281" y2="281"/></g><!--MD5=[af22135d5be6ed11ccd2d02fa51653b3]
class Definition--><g id="elem_Definition"><rect codeLine="8" fill="#F1F1F1" height="48" id="Definition" rx="2.5" ry="2.5" style="stroke:#181818;stroke-width:0.5;" width="91" x="569" y="241"/><ellipse cx="584" cy="257" fill="#ADD1B2" rx="11" ry="11" style="stroke:#181818;stroke-width:1.0;"/><path d="M586.7656,252.875 Q586.9219,252.6563 587.1094,252.5469 Q587.2969,252.4375 587.5156,252.4375 Q587.8906,252.4375 588.125,252.7031 Q588.3594,252.9531 588.3594,253.5625 L588.3594,255.0156 Q588.3594,255.625 588.125,255.8906 Q587.8906,256.1563 587.5156,256.1563 Q587.1719,256.1563 586.9688,255.9531 Q586.7656,255.7656 586.6563,255.25 Q586.6094,254.8906 586.4219,254.7031 Q586.0938,254.3281 585.4844,254.1094 Q584.875,253.8906 584.25,253.8906 Q583.4844,253.8906 582.8438,254.2188 Q582.2188,254.5469 581.7188,255.2969 Q581.2344,256.0469 581.2344,257.0781 L581.2344,258.1719 Q581.2344,259.4063 582.125,260.2344 Q583.0156,261.0469 584.6094,261.0469 Q585.5469,261.0469 586.2031,260.7969 Q586.5938,260.6406 587.0156,260.2031 Q587.2813,259.9375 587.4219,259.8594 Q587.5781,259.7813 587.7813,259.7813 Q588.1094,259.7813 588.3594,260.0469 Q588.625,260.2969 588.625,260.6406 Q588.625,260.9844 588.2813,261.3906 Q587.7813,261.9688 586.9844,262.2969 Q585.9063,262.75 584.6094,262.75 Q583.0938,262.75 581.8906,262.125 Q580.9063,261.625 580.2188,260.5625 Q579.5313,259.4844 579.5313,258.2031 L579.5313,257.0469 Q579.5313,255.7188 580.1406,254.5781 Q580.7656,253.4219 581.8594,252.8125 Q582.9531,252.1875 584.1875,252.1875 Q584.9219,252.1875 585.5625,252.3594 Q586.2188,252.5156 586.7656,252.875 Z " fill="#000000"/><text fill="#000000" font-family="sans-serif" font-size="14" lengthAdjust="spacing" textLength="59" x="598" y="262.7285">Definition</text><line style="stroke:#181818;stroke-width:0.5;" x1="570" x2="659" y1="273" y2="273"/><line style="stroke:#181818;stroke-width:0.5;" x1="570" x2="659" y1="281" y2="281"/></g><!--MD5=[d6420df0ba7eff4d736dc4fa653f8446]
class FakeDefinition--><g id="elem_FakeDefinition"><rect codeLine="10" fill="#F1F1F1" height="48" id="FakeDefinition" rx="2.5" ry="2.5" style="stroke:#181818;stroke-width:0.5;" width="123" x="154" y="241"/><ellipse cx="169" cy="257" fill="#ADD1B2" rx="11" ry="11" style="stroke:#181818;stroke-width:1.0;"/><path d="M171.7656,252.875 Q171.9219,252.6563 172.1094,252.5469 Q172.2969,252.4375 172.5156,252.4375 Q172.8906,252.4375 173.125,252.7031 Q173.3594,252.9531 173.3594,253.5625 L173.3594,255.0156 Q173.3594,255.625 173.125,255.8906 Q172.8906,256.1563 172.5156,256.1563 Q172.1719,256.1563 171.9688,255.9531 Q171.7656,255.7656 171.6563,255.25 Q171.6094,254.8906 171.4219,254.7031 Q171.0938,254.3281 170.4844,254.1094 Q169.875,253.8906 169.25,253.8906 Q168.4844,253.8906 167.8438,254.2188 Q167.2188,254.5469 166.7188,255.2969 Q166.2344,256.0469 166.2344,257.0781 L166.2344,258.1719 Q166.2344,259.4063 167.125,260.2344 Q168.0156,261.0469 169.6094,261.0469 Q170.5469,261.0469 171.2031,260.7969 Q171.5938,260.6406 172.0156,260.2031 Q172.2813,259.9375 172.4219,259.8594 Q172.5781,259.7813 172.7813,259.7813 Q173.1094,259.7813 173.3594,260.0469 Q173.625,260.2969 173.625,260.6406 Q173.625,260.9844 173.2813,261.3906 Q172.7813,261.9688 171.9844,262.2969 Q170.9063,262.75 169.6094,262.75 Q168.0938,262.75 166.8906,262.125 Q165.9063,261.625 165.2188,260.5625 Q164.5313,259.4844 164.5313,258.2031 L164.5313,257.0469 Q164.5313,255.7188 165.1406,254.5781 Q165.7656,253.4219 166.8594,252.8125 Q167.9531,252.1875 169.1875,252.1875 Q169.9219,252.1875 170.5625,252.3594 Q171.2188,252.5156 171.7656,252.875 Z " fill="#000000"/><text fill="#000000" font-family="sans-serif" font-size="14" lengthAdjust="spacing" textLength="91" x="183" y="262.7285">FakeDefinition</text><line style="stroke:#181818;stroke-width:0.5;" x1="155" x2="276" y1="273" y2="273"/><line style="stroke:#181818;stroke-width:0.5;" x1="155" x2="276" y1="281" y2="281"/></g><!--MD5=[9b4de504215638550a8bb9c080b7ee00]
class Justification--><g id="elem_Justification"><rect codeLine="12" fill="#F1F1F1" height="48" id="Justification" rx="2.5" ry="2.5" style="stroke:#181818;stroke-width:0.5;" width="105" x="7" y="349"/><ellipse cx="22" cy="365" fill="#ADD1B2" rx="11" ry="11" style="stroke:#181818;stroke-width:1.0;"/><path d="M24.7656,360.875 Q24.9219,360.6563 25.1094,360.5469 Q25.2969,360.4375 25.5156,360.4375 Q25.8906,360.4375 26.125,360.7031 Q26.3594,360.9531 26.3594,361.5625 L26.3594,363.0156 Q26.3594,363.625 26.125,363.8906 Q25.8906,364.1563 25.5156,364.1563 Q25.1719,364.1563 24.9688,363.9531 Q24.7656,363.7656 24.6563,363.25 Q24.6094,362.8906 24.4219,362.7031 Q24.0938,362.3281 23.4844,362.1094 Q22.875,361.8906 22.25,361.8906 Q21.4844,361.8906 20.8438,362.2188 Q20.2188,362.5469 19.7188,363.2969 Q19.2344,364.0469 19.2344,365.0781 L19.2344,366.1719 Q19.2344,367.4063 20.125,368.2344 Q21.0156,369.0469 22.6094,369.0469 Q23.5469,369.0469 24.2031,368.7969 Q24.5938,368.6406 25.0156,368.2031 Q25.2813,367.9375 25.4219,367.8594 Q25.5781,367.7813 25.7813,367.7813 Q26.1094,367.7813 26.3594,368.0469 Q26.625,368.2969 26.625,368.6406 Q26.625,368.9844 26.2813,369.3906 Q25.7813,369.9688 24.9844,370.2969 Q23.9063,370.75 22.6094,370.75 Q21.0938,370.75 19.8906,370.125 Q18.9063,369.625 18.2188,368.5625 Q17.5313,367.4844 17.5313,366.2031 L17.5313,365.0469 Q17.5313,363.7188 18.1406,362.5781 Q18.7656,361.4219 19.8594,360.8125 Q20.9531,360.1875 22.1875,360.1875 Q22.9219,360.1875 23.5625,360.3594 Q24.2188,360.5156 24.7656,360.875 Z " fill="#000000"/><text fill="#000000" font-family="sans-serif" font-size="14" lengthAdjust="spacing" textLength="73" x="36" y="370.7285">Justification</text><line style="stroke:#181818;stroke-width:0.5;" x1="8" x2="111" y1="381" y2="381"/><line style="stroke:#181818;stroke-width:0.5;" x1="8" x2="111" y1="389" y2="389"/></g><!--MD5=[7a6687b95ddf01a258e56cc7a885583f]
class FakeJustification--><g id="elem_FakeJustification"><rect codeLine="14" fill="#F1F1F1" height="48" id="FakeJustification" rx="2.5" ry="2.5" style="stroke:#181818;stroke-width:0.5;" width="137" x="147" y="349"/><ellipse cx="162" cy="365" fill="#ADD1B2" rx="11" ry="11" style="stroke:#181818;stroke-width:1.0;"/><path d="M164.7656,360.875 Q164.9219,360.6563 165.1094,360.5469 Q165.2969,360.4375 165.5156,360.4375 Q165.8906,360.4375 166.125,360.7031 Q166.3594,360.9531 166.3594,361.5625 L166.3594,363.0156 Q166.3594,363.625 166.125,363.8906 Q165.8906,364.1563 165.5156,364.1563 Q165.1719,364.1563 164.9688,363.9531 Q164.7656,363.7656 164.6563,363.25 Q164.6094,362.8906 164.4219,362.7031 Q164.0938,362.3281 163.4844,362.1094 Q162.875,361.8906 162.25,361.8906 Q161.4844,361.8906 160.8438,362.2188 Q160.2188,362.5469 159.7188,363.2969 Q159.2344,364.0469 159.2344,365.0781 L159.2344,366.1719 Q159.2344,367.4063 160.125,368.2344 Q161.0156,369.0469 162.6094,369.0469 Q163.5469,369.0469 164.2031,368.7969 Q164.5938,368.6406 165.0156,368.2031 Q165.2813,367.9375 165.4219,367.8594 Q165.5781,367.7813 165.7813,367.7813 Q166.1094,367.7813 166.3594,368.0469 Q166.625,368.2969 166.625,368.6406 Q166.625,368.9844 166.2813,369.3906 Q165.7813,369.9688 164.9844,370.2969 Q163.9063,370.75 162.6094,370.75 Q161.0938,370.75 159.8906,370.125 Q158.9063,369.625 158.2188,368.5625 Q157.5313,367.4844 157.5313,366.2031 L157.5313,365.0469 Q157.5313,363.7188 158.1406,362.5781 Q158.7656,361.4219 159.8594,360.8125 Q160.9531,360.1875 162.1875,360.1875 Q162.9219,360.1875 163.5625,360.3594 Q164.2188,360.5156 164.7656,360.875 Z " fill="#000000"/><text fill="#000000" font-family="sans-serif" font-size="14" lengthAdjust="spacing" textLength="105" x="176" y="370.7285">FakeJustification</text><line style="stroke:#181818;stroke-width:0.5;" x1="148" x2="283" y1="381" y2="381"/><line style="stroke:#181818;stroke-width:0.5;" x1="148" x2="283" y1="389" y2="389"/></g><!--MD5=[534474e9f05b14d7c70186ae077f30e0]
class Relation--><g id="elem_Relation"><rect codeLine="16" fill="#F1F1F1" height="48" id="Relation" rx="2.5" ry="2.5" style="stroke:#181818;stroke-width:0.5;" width="84" x="328.5" y="241"/><ellipse cx="343.5" cy="257" fill="#ADD1B2" rx="11" ry="11" style="stroke:#181818;stroke-width:1.0;"/><path d="M346.2656,252.875 Q346.4219,252.6563 346.6094,252.5469 Q346.7969,252.4375 347.0156,252.4375 Q347.3906,252.4375 347.625,252.7031 Q347.8594,252.9531 347.8594,253.5625 L347.8594,255.0156 Q347.8594,255.625 347.625,255.8906 Q347.3906,256.1563 347.0156,256.1563 Q346.6719,256.1563 346.4688,255.9531 Q346.2656,255.7656 346.1563,255.25 Q346.1094,254.8906 345.9219,254.7031 Q345.5938,254.3281 344.9844,254.1094 Q344.375,253.8906 343.75,253.8906 Q342.9844,253.8906 342.3438,254.2188 Q341.7188,254.5469 341.2188,255.2969 Q340.7344,256.0469 340.7344,257.0781 L340.7344,258.1719 Q340.7344,259.4063 341.625,260.2344 Q342.5156,261.0469 344.1094,261.0469 Q345.0469,261.0469 345.7031,260.7969 Q346.0938,260.6406 346.5156,260.2031 Q346.7813,259.9375 346.9219,259.8594 Q347.0781,259.7813 347.2813,259.7813 Q347.6094,259.7813 347.8594,260.0469 Q348.125,260.2969 348.125,260.6406 Q348.125,260.9844 347.7813,261.3906 Q347.2813,261.9688 346.4844,262.2969 Q345.4063,262.75 344.1094,262.75 Q342.5938,262.75 341.3906,262.125 Q340.4063,261.625 339.7188,260.5625 Q339.0313,259.4844 339.0313,258.2031 L339.0313,257.0469 Q339.0313,255.7188 339.6406,254.5781 Q340.2656,253.4219 341.3594,252.8125 Q342.4531,252.1875 343.6875,252.1875 Q344.4219,252.1875 345.0625,252.3594 Q345.7188,252.5156 346.2656,252.875 Z " fill="#000000"/><text fill="#000000" font-family="sans-serif" font-size="14" lengthAdjust="spacing" textLength="52" x="357.5" y="262.7285">Relation</text><line style="stroke:#181818;stroke-width:0.5;" x1="329.5" x2="411.5" y1="273" y2="273"/><line style="stroke:#181818;stroke-width:0.5;" x1="329.5" x2="411.5" y1="281" y2="281"/></g><!--MD5=[6ca9f97ec22987cdb08895fb62b1ec62]
class Assortment--><g id="elem_Assortment"><rect codeLine="18" fill="#F1F1F1" height="48" id="Assortment" rx="2.5" ry="2.5" style="stroke:#181818;stroke-width:0.5;" width="103" x="319" y="349"/><ellipse cx="334" cy="365" fill="#ADD1B2" rx="11" ry="11" style="stroke:#181818;stroke-width:1.0;"/><path d="M336.7656,360.875 Q336.9219,360.6563 337.1094,360.5469 Q337.2969,360.4375 337.5156,360.4375 Q337.8906,360.4375 338.125,360.7031 Q338.3594,360.9531 338.3594,361.5625 L338.3594,363.0156 Q338.3594,363.625 338.125,363.8906 Q337.8906,364.1563 337.5156,364.1563 Q337.1719,364.1563 336.9688,363.9531 Q336.7656,363.7656 336.6563,363.25 Q336.6094,362.8906 336.4219,362.7031 Q336.0938,362.3281 335.4844,362.1094 Q334.875,361.8906 334.25,361.8906 Q333.4844,361.8906 332.8438,362.2188 Q332.2188,362.5469 331.7188,363.2969 Q331.2344,364.0469 331.2344,365.0781 L331.2344,366.1719 Q331.2344,367.4063 332.125,368.2344 Q333.0156,369.0469 334.6094,369.0469 Q335.5469,369.0469 336.2031,368.7969 Q336.5938,368.6406 337.0156,368.2031 Q337.2813,367.9375 337.4219,367.8594 Q337.5781,367.7813 337.7813,367.7813 Q338.1094,367.7813 338.3594,368.0469 Q338.625,368.2969 338.625,368.6406 Q338.625,368.9844 338.2813,369.3906 Q337.7813,369.9688 336.9844,370.2969 Q335.9063,370.75 334.6094,370.75 Q333.0938,370.75 331.8906,370.125 Q330.9063,369.625 330.2188,368.5625 Q329.5313,367.4844 329.5313,366.2031 L329.5313,365.0469 Q329.5313,363.7188 330.1406,362.5781 Q330.7656,361.4219 331.8594,360.8125 Q332.9531,360.1875 334.1875,360.1875 Q334.9219,360.1875 335.5625,360.3594 Q336.2188,360.5156 336.7656,360.875 Z " fill="#000000"/><text fill="#000000" font-family="sans-serif" font-size="14" lengthAdjust="spacing" textLength="71" x="348" y="370.7285">Assortment</text><line style="stroke:#181818;stroke-width:0.5;" x1="320" x2="421" y1="381" y2="381"/><line style="stroke:#181818;stroke-width:0.5;" x1="320" x2="421" y1="389" y2="389"/></g><!--MD5=[1e9a764d87e7c58eda8681113f5d03cd]
class Sort--><g id="elem_Sort"><rect codeLine="20" fill="#F1F1F1" height="48" id="Sort" rx="2.5" ry="2.5" style="stroke:#181818;stroke-width:0.5;" width="58" x="341.5" y="457"/><ellipse cx="356.5" cy="473" fill="#ADD1B2" rx="11" ry="11" style="stroke:#181818;stroke-width:1.0;"/><path d="M359.2656,468.875 Q359.4219,468.6563 359.6094,468.5469 Q359.7969,468.4375 360.0156,468.4375 Q360.3906,468.4375 360.625,468.7031 Q360.8594,468.9531 360.8594,469.5625 L360.8594,471.0156 Q360.8594,471.625 360.625,471.8906 Q360.3906,472.1563 360.0156,472.1563 Q359.6719,472.1563 359.4688,471.9531 Q359.2656,471.7656 359.1563,471.25 Q359.1094,470.8906 358.9219,470.7031 Q358.5938,470.3281 357.9844,470.1094 Q357.375,469.8906 356.75,469.8906 Q355.9844,469.8906 355.3438,470.2188 Q354.7188,470.5469 354.2188,471.2969 Q353.7344,472.0469 353.7344,473.0781 L353.7344,474.1719 Q353.7344,475.4063 354.625,476.2344 Q355.5156,477.0469 357.1094,477.0469 Q358.0469,477.0469 358.7031,476.7969 Q359.0938,476.6406 359.5156,476.2031 Q359.7813,475.9375 359.9219,475.8594 Q360.0781,475.7813 360.2813,475.7813 Q360.6094,475.7813 360.8594,476.0469 Q361.125,476.2969 361.125,476.6406 Q361.125,476.9844 360.7813,477.3906 Q360.2813,477.9688 359.4844,478.2969 Q358.4063,478.75 357.1094,478.75 Q355.5938,478.75 354.3906,478.125 Q353.4063,477.625 352.7188,476.5625 Q352.0313,475.4844 352.0313,474.2031 L352.0313,473.0469 Q352.0313,471.7188 352.6406,470.5781 Q353.2656,469.4219 354.3594,468.8125 Q355.4531,468.1875 356.6875,468.1875 Q357.4219,468.1875 358.0625,468.3594 Q358.7188,468.5156 359.2656,468.875 Z " fill="#000000"/><text fill="#000000" font-family="sans-serif" font-size="14" lengthAdjust="spacing" textLength="26" x="370.5" y="478.7285">Sort</text><line style="stroke:#181818;stroke-width:0.5;" x1="342.5" x2="398.5" y1="489" y2="489"/><line style="stroke:#181818;stroke-width:0.5;" x1="342.5" x2="398.5" y1="497" y2="497"/></g><!--MD5=[251454e98c15f29849fb35b1904d0020]
class Composition--><g id="elem_Composition"><rect codeLine="22" fill="#F1F1F1" height="48" id="Composition" rx="2.5" ry="2.5" style="stroke:#181818;stroke-width:0.5;" width="110" x="457.5" y="349"/><ellipse cx="472.5" cy="365" fill="#ADD1B2" rx="11" ry="11" style="stroke:#181818;stroke-width:1.0;"/><path d="M475.2656,360.875 Q475.4219,360.6563 475.6094,360.5469 Q475.7969,360.4375 476.0156,360.4375 Q476.3906,360.4375 476.625,360.7031 Q476.8594,360.9531 476.8594,361.5625 L476.8594,363.0156 Q476.8594,363.625 476.625,363.8906 Q476.3906,364.1563 476.0156,364.1563 Q475.6719,364.1563 475.4688,363.9531 Q475.2656,363.7656 475.1563,363.25 Q475.1094,362.8906 474.9219,362.7031 Q474.5938,362.3281 473.9844,362.1094 Q473.375,361.8906 472.75,361.8906 Q471.9844,361.8906 471.3438,362.2188 Q470.7188,362.5469 470.2188,363.2969 Q469.7344,364.0469 469.7344,365.0781 L469.7344,366.1719 Q469.7344,367.4063 470.625,368.2344 Q471.5156,369.0469 473.1094,369.0469 Q474.0469,369.0469 474.7031,368.7969 Q475.0938,368.6406 475.5156,368.2031 Q475.7813,367.9375 475.9219,367.8594 Q476.0781,367.7813 476.2813,367.7813 Q476.6094,367.7813 476.8594,368.0469 Q477.125,368.2969 477.125,368.6406 Q477.125,368.9844 476.7813,369.3906 Q476.2813,369.9688 475.4844,370.2969 Q474.4063,370.75 473.1094,370.75 Q471.5938,370.75 470.3906,370.125 Q469.4063,369.625 468.7188,368.5625 Q468.0313,367.4844 468.0313,366.2031 L468.0313,365.0469 Q468.0313,363.7188 468.6406,362.5781 Q469.2656,361.4219 470.3594,360.8125 Q471.4531,360.1875 472.6875,360.1875 Q473.4219,360.1875 474.0625,360.3594 Q474.7188,360.5156 475.2656,360.875 Z " fill="#000000"/><text fill="#000000" font-family="sans-serif" font-size="14" lengthAdjust="spacing" textLength="78" x="486.5" y="370.7285">Composition</text><line style="stroke:#181818;stroke-width:0.5;" x1="458.5" x2="566.5" y1="381" y2="381"/><line style="stroke:#181818;stroke-width:0.5;" x1="458.5" x2="566.5" y1="389" y2="389"/></g><!--MD5=[4e13963c9dc916a21a8436ef39422b32]
class Component--><g id="elem_Component"><rect codeLine="24" fill="#F1F1F1" height="48" id="Component" rx="2.5" ry="2.5" style="stroke:#181818;stroke-width:0.5;" width="105" x="460" y="457"/><ellipse cx="475" cy="473" fill="#ADD1B2" rx="11" ry="11" style="stroke:#181818;stroke-width:1.0;"/><path d="M477.7656,468.875 Q477.9219,468.6563 478.1094,468.5469 Q478.2969,468.4375 478.5156,468.4375 Q478.8906,468.4375 479.125,468.7031 Q479.3594,468.9531 479.3594,469.5625 L479.3594,471.0156 Q479.3594,471.625 479.125,471.8906 Q478.8906,472.1563 478.5156,472.1563 Q478.1719,472.1563 477.9688,471.9531 Q477.7656,471.7656 477.6563,471.25 Q477.6094,470.8906 477.4219,470.7031 Q477.0938,470.3281 476.4844,470.1094 Q475.875,469.8906 475.25,469.8906 Q474.4844,469.8906 473.8438,470.2188 Q473.2188,470.5469 472.7188,471.2969 Q472.2344,472.0469 472.2344,473.0781 L472.2344,474.1719 Q472.2344,475.4063 473.125,476.2344 Q474.0156,477.0469 475.6094,477.0469 Q476.5469,477.0469 477.2031,476.7969 Q477.5938,476.6406 478.0156,476.2031 Q478.2813,475.9375 478.4219,475.8594 Q478.5781,475.7813 478.7813,475.7813 Q479.1094,475.7813 479.3594,476.0469 Q479.625,476.2969 479.625,476.6406 Q479.625,476.9844 479.2813,477.3906 Q478.7813,477.9688 477.9844,478.2969 Q476.9063,478.75 475.6094,478.75 Q474.0938,478.75 472.8906,478.125 Q471.9063,477.625 471.2188,476.5625 Q470.5313,475.4844 470.5313,474.2031 L470.5313,473.0469 Q470.5313,471.7188 471.1406,470.5781 Q471.7656,469.4219 472.8594,468.8125 Q473.9531,468.1875 475.1875,468.1875 Q475.9219,468.1875 476.5625,468.3594 Q477.2188,468.5156 477.7656,468.875 Z " fill="#000000"/><text fill="#000000" font-family="sans-serif" font-size="14" lengthAdjust="spacing" textLength="73" x="489" y="478.7285">Component</text><line style="stroke:#181818;stroke-width:0.5;" x1="461" x2="564" y1="489" y2="489"/><line style="stroke:#181818;stroke-width:0.5;" x1="461" x2="564" y1="497" y2="497"/></g><!--MD5=[377953f0e8c8c0131a700fca43c84158]
class Strategy--><g id="elem_Strategy"><rect codeLine="26" fill="#F1F1F1" height="65.6094" id="Strategy" rx="2.5" ry="2.5" style="stroke:#181818;stroke-width:0.5;" width="85" x="959" y="7"/><ellipse cx="974" cy="23" fill="#ADD1B2" rx="11" ry="11" style="stroke:#181818;stroke-width:1.0;"/><path d="M976.7656,18.875 Q976.9219,18.6563 977.1094,18.5469 Q977.2969,18.4375 977.5156,18.4375 Q977.8906,18.4375 978.125,18.7031 Q978.3594,18.9531 978.3594,19.5625 L978.3594,21.0156 Q978.3594,21.625 978.125,21.8906 Q977.8906,22.1563 977.5156,22.1563 Q977.1719,22.1563 976.9688,21.9531 Q976.7656,21.7656 976.6563,21.25 Q976.6094,20.8906 976.4219,20.7031 Q976.0938,20.3281 975.4844,20.1094 Q974.875,19.8906 974.25,19.8906 Q973.4844,19.8906 972.8438,20.2188 Q972.2188,20.5469 971.7188,21.2969 Q971.2344,22.0469 971.2344,23.0781 L971.2344,24.1719 Q971.2344,25.4063 972.125,26.2344 Q973.0156,27.0469 974.6094,27.0469 Q975.5469,27.0469 976.2031,26.7969 Q976.5938,26.6406 977.0156,26.2031 Q977.2813,25.9375 977.4219,25.8594 Q977.5781,25.7813 977.7813,25.7813 Q978.1094,25.7813 978.3594,26.0469 Q978.625,26.2969 978.625,26.6406 Q978.625,26.9844 978.2813,27.3906 Q977.7813,27.9688 976.9844,28.2969 Q975.9063,28.75 974.6094,28.75 Q973.0938,28.75 971.8906,28.125 Q970.9063,27.625 970.2188,26.5625 Q969.5313,25.4844 969.5313,24.2031 L969.5313,23.0469 Q969.5313,21.7188 970.1406,20.5781 Q970.7656,19.4219 971.8594,18.8125 Q972.9531,18.1875 974.1875,18.1875 Q974.9219,18.1875 975.5625,18.3594 Q976.2188,18.5156 976.7656,18.875 Z " fill="#000000"/><text fill="#000000" font-family="sans-serif" font-size="14" lengthAdjust="spacing" textLength="53" x="988" y="28.7285">Strategy</text><line style="stroke:#181818;stroke-width:0.5;" x1="960" x2="1043" y1="39" y2="39"/><text fill="#000000" font-family="sans-serif" font-size="14" lengthAdjust="spacing" textLength="54" x="965" y="57.5332">template</text><line style="stroke:#181818;stroke-width:0.5;" x1="960" x2="1043" y1="64.6094" y2="64.6094"/></g><!--MD5=[fc7123defb831ecdd44b2d9bcef6cceb]
class Question--><g id="elem_Question"><rect codeLine="30" fill="#F1F1F1" height="48" id="Question" rx="2.5" ry="2.5" style="stroke:#181818;stroke-width:0.5;" width="89" x="730" y="133"/><ellipse cx="745" cy="149" fill="#ADD1B2" rx="11" ry="11" style="stroke:#181818;stroke-width:1.0;"/><path d="M747.7656,144.875 Q747.9219,144.6563 748.1094,144.5469 Q748.2969,144.4375 748.5156,144.4375 Q748.8906,144.4375 749.125,144.7031 Q749.3594,144.9531 749.3594,145.5625 L749.3594,147.0156 Q749.3594,147.625 749.125,147.8906 Q748.8906,148.1563 748.5156,148.1563 Q748.1719,148.1563 747.9688,147.9531 Q747.7656,147.7656 747.6563,147.25 Q747.6094,146.8906 747.4219,146.7031 Q747.0938,146.3281 746.4844,146.1094 Q745.875,145.8906 745.25,145.8906 Q744.4844,145.8906 743.8438,146.2188 Q743.2188,146.5469 742.7188,147.2969 Q742.2344,148.0469 742.2344,149.0781 L742.2344,150.1719 Q742.2344,151.4063 743.125,152.2344 Q744.0156,153.0469 745.6094,153.0469 Q746.5469,153.0469 747.2031,152.7969 Q747.5938,152.6406 748.0156,152.2031 Q748.2813,151.9375 748.4219,151.8594 Q748.5781,151.7813 748.7813,151.7813 Q749.1094,151.7813 749.3594,152.0469 Q749.625,152.2969 749.625,152.6406 Q749.625,152.9844 749.2813,153.3906 Q748.7813,153.9688 747.9844,154.2969 Q746.9063,154.75 745.6094,154.75 Q744.0938,154.75 742.8906,154.125 Q741.9063,153.625 741.2188,152.5625 Q740.5313,151.4844 740.5313,150.2031 L740.5313,149.0469 Q740.5313,147.7188 741.1406,146.5781 Q741.7656,145.4219 742.8594,144.8125 Q743.9531,144.1875 745.1875,144.1875 Q745.9219,144.1875 746.5625,144.3594 Q747.2188,144.5156 747.7656,144.875 Z " fill="#000000"/><text fill="#000000" font-family="sans-serif" font-size="14" lengthAdjust="spacing" textLength="57" x="759" y="154.7285">Question</text><line style="stroke:#181818;stroke-width:0.5;" x1="731" x2="818" y1="165" y2="165"/><line style="stroke:#181818;stroke-width:0.5;" x1="731" x2="818" y1="173" y2="173"/></g><!--MD5=[a61a298976b7d1d94498f45c2ebfa10b]
class Statement--><g id="elem_Statement"><rect codeLine="32" fill="#F1F1F1" height="48" id="Statement" rx="2.5" ry="2.5" style="stroke:#181818;stroke-width:0.5;" width="96" x="695.5" y="241"/><ellipse cx="710.5" cy="257" fill="#ADD1B2" rx="11" ry="11" style="stroke:#181818;stroke-width:1.0;"/><path d="M713.2656,252.875 Q713.4219,252.6563 713.6094,252.5469 Q713.7969,252.4375 714.0156,252.4375 Q714.3906,252.4375 714.625,252.7031 Q714.8594,252.9531 714.8594,253.5625 L714.8594,255.0156 Q714.8594,255.625 714.625,255.8906 Q714.3906,256.1563 714.0156,256.1563 Q713.6719,256.1563 713.4688,255.9531 Q713.2656,255.7656 713.1563,255.25 Q713.1094,254.8906 712.9219,254.7031 Q712.5938,254.3281 711.9844,254.1094 Q711.375,253.8906 710.75,253.8906 Q709.9844,253.8906 709.3438,254.2188 Q708.7188,254.5469 708.2188,255.2969 Q707.7344,256.0469 707.7344,257.0781 L707.7344,258.1719 Q707.7344,259.4063 708.625,260.2344 Q709.5156,261.0469 711.1094,261.0469 Q712.0469,261.0469 712.7031,260.7969 Q713.0938,260.6406 713.5156,260.2031 Q713.7813,259.9375 713.9219,259.8594 Q714.0781,259.7813 714.2813,259.7813 Q714.6094,259.7813 714.8594,260.0469 Q715.125,260.2969 715.125,260.6406 Q715.125,260.9844 714.7813,261.3906 Q714.2813,261.9688 713.4844,262.2969 Q712.4063,262.75 711.1094,262.75 Q709.5938,262.75 708.3906,262.125 Q707.4063,261.625 706.7188,260.5625 Q706.0313,259.4844 706.0313,258.2031 L706.0313,257.0469 Q706.0313,255.7188 706.6406,254.5781 Q707.2656,253.4219 708.3594,252.8125 Q709.4531,252.1875 710.6875,252.1875 Q711.4219,252.1875 712.0625,252.3594 Q712.7188,252.5156 713.2656,252.875 Z " fill="#000000"/><text fill="#000000" font-family="sans-serif" font-size="14" lengthAdjust="spacing" textLength="64" x="724.5" y="262.7285">Statement</text><line style="stroke:#181818;stroke-width:0.5;" x1="696.5" x2="790.5" y1="273" y2="273"/><line style="stroke:#181818;stroke-width:0.5;" x1="696.5" x2="790.5" y1="281" y2="281"/></g><!--MD5=[f9fadfa5a66b7e5a67b370cd443ffe52]
class Answer--><g id="elem_Answer"><rect codeLine="34" fill="#F1F1F1" height="48" id="Answer" rx="2.5" ry="2.5" style="stroke:#181818;stroke-width:0.5;" width="78" x="854.5" y="133"/><ellipse cx="869.5" cy="149" fill="#ADD1B2" rx="11" ry="11" style="stroke:#181818;stroke-width:1.0;"/><path d="M872.2656,144.875 Q872.4219,144.6563 872.6094,144.5469 Q872.7969,144.4375 873.0156,144.4375 Q873.3906,144.4375 873.625,144.7031 Q873.8594,144.9531 873.8594,145.5625 L873.8594,147.0156 Q873.8594,147.625 873.625,147.8906 Q873.3906,148.1563 873.0156,148.1563 Q872.6719,148.1563 872.4688,147.9531 Q872.2656,147.7656 872.1563,147.25 Q872.1094,146.8906 871.9219,146.7031 Q871.5938,146.3281 870.9844,146.1094 Q870.375,145.8906 869.75,145.8906 Q868.9844,145.8906 868.3438,146.2188 Q867.7188,146.5469 867.2188,147.2969 Q866.7344,148.0469 866.7344,149.0781 L866.7344,150.1719 Q866.7344,151.4063 867.625,152.2344 Q868.5156,153.0469 870.1094,153.0469 Q871.0469,153.0469 871.7031,152.7969 Q872.0938,152.6406 872.5156,152.2031 Q872.7813,151.9375 872.9219,151.8594 Q873.0781,151.7813 873.2813,151.7813 Q873.6094,151.7813 873.8594,152.0469 Q874.125,152.2969 874.125,152.6406 Q874.125,152.9844 873.7813,153.3906 Q873.2813,153.9688 872.4844,154.2969 Q871.4063,154.75 870.1094,154.75 Q868.5938,154.75 867.3906,154.125 Q866.4063,153.625 865.7188,152.5625 Q865.0313,151.4844 865.0313,150.2031 L865.0313,149.0469 Q865.0313,147.7188 865.6406,146.5781 Q866.2656,145.4219 867.3594,144.8125 Q868.4531,144.1875 869.6875,144.1875 Q870.4219,144.1875 871.0625,144.3594 Q871.7188,144.5156 872.2656,144.875 Z " fill="#000000"/><text fill="#000000" font-family="sans-serif" font-size="14" lengthAdjust="spacing" textLength="46" x="883.5" y="154.7285">Answer</text><line style="stroke:#181818;stroke-width:0.5;" x1="855.5" x2="931.5" y1="165" y2="165"/><line style="stroke:#181818;stroke-width:0.5;" x1="855.5" x2="931.5" y1="173" y2="173"/></g><!--MD5=[bc629657279eaa9349f412646650f2c5]
class Correct--><g id="elem_Correct"><rect codeLine="36" fill="#F1F1F1" height="48" id="Correct" rx="2.5" ry="2.5" style="stroke:#181818;stroke-width:0.5;" width="79" x="827" y="241"/><ellipse cx="842" cy="257" fill="#ADD1B2" rx="11" ry="11" style="stroke:#181818;stroke-width:1.0;"/><path d="M844.7656,252.875 Q844.9219,252.6563 845.1094,252.5469 Q845.2969,252.4375 845.5156,252.4375 Q845.8906,252.4375 846.125,252.7031 Q846.3594,252.9531 846.3594,253.5625 L846.3594,255.0156 Q846.3594,255.625 846.125,255.8906 Q845.8906,256.1563 845.5156,256.1563 Q845.1719,256.1563 844.9688,255.9531 Q844.7656,255.7656 844.6563,255.25 Q844.6094,254.8906 844.4219,254.7031 Q844.0938,254.3281 843.4844,254.1094 Q842.875,253.8906 842.25,253.8906 Q841.4844,253.8906 840.8438,254.2188 Q840.2188,254.5469 839.7188,255.2969 Q839.2344,256.0469 839.2344,257.0781 L839.2344,258.1719 Q839.2344,259.4063 840.125,260.2344 Q841.0156,261.0469 842.6094,261.0469 Q843.5469,261.0469 844.2031,260.7969 Q844.5938,260.6406 845.0156,260.2031 Q845.2813,259.9375 845.4219,259.8594 Q845.5781,259.7813 845.7813,259.7813 Q846.1094,259.7813 846.3594,260.0469 Q846.625,260.2969 846.625,260.6406 Q846.625,260.9844 846.2813,261.3906 Q845.7813,261.9688 844.9844,262.2969 Q843.9063,262.75 842.6094,262.75 Q841.0938,262.75 839.8906,262.125 Q838.9063,261.625 838.2188,260.5625 Q837.5313,259.4844 837.5313,258.2031 L837.5313,257.0469 Q837.5313,255.7188 838.1406,254.5781 Q838.7656,253.4219 839.8594,252.8125 Q840.9531,252.1875 842.1875,252.1875 Q842.9219,252.1875 843.5625,252.3594 Q844.2188,252.5156 844.7656,252.875 Z " fill="#000000"/><text fill="#000000" font-family="sans-serif" font-size="14" lengthAdjust="spacing" textLength="47" x="856" y="262.7285">Correct</text><line style="stroke:#181818;stroke-width:0.5;" x1="828" x2="905" y1="273" y2="273"/><line style="stroke:#181818;stroke-width:0.5;" x1="828" x2="905" y1="281" y2="281"/></g><!--MD5=[37923dc032bbfca87d4413e584fa2cda]
class Incorrect--><g id="elem_Incorrect"><rect codeLine="38" fill="#F1F1F1" height="48" id="Incorrect" rx="2.5" ry="2.5" style="stroke:#181818;stroke-width:0.5;" width="87" x="941" y="241"/><ellipse cx="956" cy="257" fill="#ADD1B2" rx="11" ry="11" style="stroke:#181818;stroke-width:1.0;"/><path d="M958.7656,252.875 Q958.9219,252.6563 959.1094,252.5469 Q959.2969,252.4375 959.5156,252.4375 Q959.8906,252.4375 960.125,252.7031 Q960.3594,252.9531 960.3594,253.5625 L960.3594,255.0156 Q960.3594,255.625 960.125,255.8906 Q959.8906,256.1563 959.5156,256.1563 Q959.1719,256.1563 958.9688,255.9531 Q958.7656,255.7656 958.6563,255.25 Q958.6094,254.8906 958.4219,254.7031 Q958.0938,254.3281 957.4844,254.1094 Q956.875,253.8906 956.25,253.8906 Q955.4844,253.8906 954.8438,254.2188 Q954.2188,254.5469 953.7188,255.2969 Q953.2344,256.0469 953.2344,257.0781 L953.2344,258.1719 Q953.2344,259.4063 954.125,260.2344 Q955.0156,261.0469 956.6094,261.0469 Q957.5469,261.0469 958.2031,260.7969 Q958.5938,260.6406 959.0156,260.2031 Q959.2813,259.9375 959.4219,259.8594 Q959.5781,259.7813 959.7813,259.7813 Q960.1094,259.7813 960.3594,260.0469 Q960.625,260.2969 960.625,260.6406 Q960.625,260.9844 960.2813,261.3906 Q959.7813,261.9688 958.9844,262.2969 Q957.9063,262.75 956.6094,262.75 Q955.0938,262.75 953.8906,262.125 Q952.9063,261.625 952.2188,260.5625 Q951.5313,259.4844 951.5313,258.2031 L951.5313,257.0469 Q951.5313,255.7188 952.1406,254.5781 Q952.7656,253.4219 953.8594,252.8125 Q954.9531,252.1875 956.1875,252.1875 Q956.9219,252.1875 957.5625,252.3594 Q958.2188,252.5156 958.7656,252.875 Z " fill="#000000"/><text fill="#000000" font-family="sans-serif" font-size="14" lengthAdjust="spacing" textLength="55" x="970" y="262.7285">Incorrect</text><line style="stroke:#181818;stroke-width:0.5;" x1="942" x2="1027" y1="273" y2="273"/><line style="stroke:#181818;stroke-width:0.5;" x1="942" x2="1027" y1="281" y2="281"/></g><!--MD5=[f7b1256a464262a81d5827fb39e684fb]
class Open--><g id="elem_Open"><rect fill="#F1F1F1" height="48" id="Open" rx="2.5" ry="2.5" style="stroke:#181818;stroke-width:0.5;" width="67" x="968" y="133"/><ellipse cx="983" cy="149" fill="#ADD1B2" rx="11" ry="11" style="stroke:#181818;stroke-width:1.0;"/><path d="M985.7656,144.875 Q985.9219,144.6563 986.1094,144.5469 Q986.2969,144.4375 986.5156,144.4375 Q986.8906,144.4375 987.125,144.7031 Q987.3594,144.9531 987.3594,145.5625 L987.3594,147.0156 Q987.3594,147.625 987.125,147.8906 Q986.8906,148.1563 986.5156,148.1563 Q986.1719,148.1563 985.9688,147.9531 Q985.7656,147.7656 985.6563,147.25 Q985.6094,146.8906 985.4219,146.7031 Q985.0938,146.3281 984.4844,146.1094 Q983.875,145.8906 983.25,145.8906 Q982.4844,145.8906 981.8438,146.2188 Q981.2188,146.5469 980.7188,147.2969 Q980.2344,148.0469 980.2344,149.0781 L980.2344,150.1719 Q980.2344,151.4063 981.125,152.2344 Q982.0156,153.0469 983.6094,153.0469 Q984.5469,153.0469 985.2031,152.7969 Q985.5938,152.6406 986.0156,152.2031 Q986.2813,151.9375 986.4219,151.8594 Q986.5781,151.7813 986.7813,151.7813 Q987.1094,151.7813 987.3594,152.0469 Q987.625,152.2969 987.625,152.6406 Q987.625,152.9844 987.2813,153.3906 Q986.7813,153.9688 985.9844,154.2969 Q984.9063,154.75 983.6094,154.75 Q982.0938,154.75 980.8906,154.125 Q979.9063,153.625 979.2188,152.5625 Q978.5313,151.4844 978.5313,150.2031 L978.5313,149.0469 Q978.5313,147.7188 979.1406,146.5781 Q979.7656,145.4219 980.8594,144.8125 Q981.9531,144.1875 983.1875,144.1875 Q983.9219,144.1875 984.5625,144.3594 Q985.2188,144.5156 985.7656,144.875 Z " fill="#000000"/><text fill="#000000" font-family="sans-serif" font-size="14" lengthAdjust="spacing" textLength="35" x="997" y="154.7285">Open</text><line style="stroke:#181818;stroke-width:0.5;" x1="969" x2="1034" y1="165" y2="165"/><line style="stroke:#181818;stroke-width:0.5;" x1="969" x2="1034" y1="173" y2="173"/></g><!--MD5=[fb7c59fdcf1581be3ce1da4715a84d88]
class WithDefinition--><g id="elem_WithDefinition"><rect fill="#F1F1F1" height="48" id="WithDefinition" rx="2.5" ry="2.5" style="stroke:#181818;stroke-width:0.5;" width="119" x="1070" y="133"/><ellipse cx="1085" cy="149" fill="#ADD1B2" rx="11" ry="11" style="stroke:#181818;stroke-width:1.0;"/><path d="M1087.7656,144.875 Q1087.9219,144.6563 1088.1094,144.5469 Q1088.2969,144.4375 1088.5156,144.4375 Q1088.8906,144.4375 1089.125,144.7031 Q1089.3594,144.9531 1089.3594,145.5625 L1089.3594,147.0156 Q1089.3594,147.625 1089.125,147.8906 Q1088.8906,148.1563 1088.5156,148.1563 Q1088.1719,148.1563 1087.9688,147.9531 Q1087.7656,147.7656 1087.6563,147.25 Q1087.6094,146.8906 1087.4219,146.7031 Q1087.0938,146.3281 1086.4844,146.1094 Q1085.875,145.8906 1085.25,145.8906 Q1084.4844,145.8906 1083.8438,146.2188 Q1083.2188,146.5469 1082.7188,147.2969 Q1082.2344,148.0469 1082.2344,149.0781 L1082.2344,150.1719 Q1082.2344,151.4063 1083.125,152.2344 Q1084.0156,153.0469 1085.6094,153.0469 Q1086.5469,153.0469 1087.2031,152.7969 Q1087.5938,152.6406 1088.0156,152.2031 Q1088.2813,151.9375 1088.4219,151.8594 Q1088.5781,151.7813 1088.7813,151.7813 Q1089.1094,151.7813 1089.3594,152.0469 Q1089.625,152.2969 1089.625,152.6406 Q1089.625,152.9844 1089.2813,153.3906 Q1088.7813,153.9688 1087.9844,154.2969 Q1086.9063,154.75 1085.6094,154.75 Q1084.0938,154.75 1082.8906,154.125 Q1081.9063,153.625 1081.2188,152.5625 Q1080.5313,151.4844 1080.5313,150.2031 L1080.5313,149.0469 Q1080.5313,147.7188 1081.1406,146.5781 Q1081.7656,145.4219 1082.8594,144.8125 Q1083.9531,144.1875 1085.1875,144.1875 Q1085.9219,144.1875 1086.5625,144.3594 Q1087.2188,144.5156 1087.7656,144.875 Z " fill="#000000"/><text fill="#000000" font-family="sans-serif" font-size="14" lengthAdjust="spacing" textLength="87" x="1099" y="154.7285">WithDefinition</text><line style="stroke:#181818;stroke-width:0.5;" x1="1071" x2="1188" y1="165" y2="165"/><line style="stroke:#181818;stroke-width:0.5;" x1="1071" x2="1188" y1="173" y2="173"/></g><!--MD5=[5a390aae6f245240ed8a89301e8e455e]
class WithJustification--><g id="elem_WithJustification"><rect fill="#F1F1F1" height="48" id="WithJustification" rx="2.5" ry="2.5" style="stroke:#181818;stroke-width:0.5;" width="133" x="1063" y="241"/><ellipse cx="1078" cy="257" fill="#ADD1B2" rx="11" ry="11" style="stroke:#181818;stroke-width:1.0;"/><path d="M1080.7656,252.875 Q1080.9219,252.6563 1081.1094,252.5469 Q1081.2969,252.4375 1081.5156,252.4375 Q1081.8906,252.4375 1082.125,252.7031 Q1082.3594,252.9531 1082.3594,253.5625 L1082.3594,255.0156 Q1082.3594,255.625 1082.125,255.8906 Q1081.8906,256.1563 1081.5156,256.1563 Q1081.1719,256.1563 1080.9688,255.9531 Q1080.7656,255.7656 1080.6563,255.25 Q1080.6094,254.8906 1080.4219,254.7031 Q1080.0938,254.3281 1079.4844,254.1094 Q1078.875,253.8906 1078.25,253.8906 Q1077.4844,253.8906 1076.8438,254.2188 Q1076.2188,254.5469 1075.7188,255.2969 Q1075.2344,256.0469 1075.2344,257.0781 L1075.2344,258.1719 Q1075.2344,259.4063 1076.125,260.2344 Q1077.0156,261.0469 1078.6094,261.0469 Q1079.5469,261.0469 1080.2031,260.7969 Q1080.5938,260.6406 1081.0156,260.2031 Q1081.2813,259.9375 1081.4219,259.8594 Q1081.5781,259.7813 1081.7813,259.7813 Q1082.1094,259.7813 1082.3594,260.0469 Q1082.625,260.2969 1082.625,260.6406 Q1082.625,260.9844 1082.2813,261.3906 Q1081.7813,261.9688 1080.9844,262.2969 Q1079.9063,262.75 1078.6094,262.75 Q1077.0938,262.75 1075.8906,262.125 Q1074.9063,261.625 1074.2188,260.5625 Q1073.5313,259.4844 1073.5313,258.2031 L1073.5313,257.0469 Q1073.5313,255.7188 1074.1406,254.5781 Q1074.7656,253.4219 1075.8594,252.8125 Q1076.9531,252.1875 1078.1875,252.1875 Q1078.9219,252.1875 1079.5625,252.3594 Q1080.2188,252.5156 1080.7656,252.875 Z " fill="#000000"/><text fill="#000000" font-family="sans-serif" font-size="14" lengthAdjust="spacing" textLength="101" x="1092" y="262.7285">WithJustification</text><line style="stroke:#181818;stroke-width:0.5;" x1="1064" x2="1195" y1="273" y2="273"/><line style="stroke:#181818;stroke-width:0.5;" x1="1064" x2="1195" y1="281" y2="281"/></g><!--MD5=[52ad97087556ad19cabdbca07f57229d]
class WithRelations--><g id="elem_WithRelations"><rect fill="#F1F1F1" height="48" id="WithRelations" rx="2.5" ry="2.5" style="stroke:#181818;stroke-width:0.5;" width="119" x="1241" y="133"/><ellipse cx="1256" cy="149" fill="#ADD1B2" rx="11" ry="11" style="stroke:#181818;stroke-width:1.0;"/><path d="M1258.7656,144.875 Q1258.9219,144.6563 1259.1094,144.5469 Q1259.2969,144.4375 1259.5156,144.4375 Q1259.8906,144.4375 1260.125,144.7031 Q1260.3594,144.9531 1260.3594,145.5625 L1260.3594,147.0156 Q1260.3594,147.625 1260.125,147.8906 Q1259.8906,148.1563 1259.5156,148.1563 Q1259.1719,148.1563 1258.9688,147.9531 Q1258.7656,147.7656 1258.6563,147.25 Q1258.6094,146.8906 1258.4219,146.7031 Q1258.0938,146.3281 1257.4844,146.1094 Q1256.875,145.8906 1256.25,145.8906 Q1255.4844,145.8906 1254.8438,146.2188 Q1254.2188,146.5469 1253.7188,147.2969 Q1253.2344,148.0469 1253.2344,149.0781 L1253.2344,150.1719 Q1253.2344,151.4063 1254.125,152.2344 Q1255.0156,153.0469 1256.6094,153.0469 Q1257.5469,153.0469 1258.2031,152.7969 Q1258.5938,152.6406 1259.0156,152.2031 Q1259.2813,151.9375 1259.4219,151.8594 Q1259.5781,151.7813 1259.7813,151.7813 Q1260.1094,151.7813 1260.3594,152.0469 Q1260.625,152.2969 1260.625,152.6406 Q1260.625,152.9844 1260.2813,153.3906 Q1259.7813,153.9688 1258.9844,154.2969 Q1257.9063,154.75 1256.6094,154.75 Q1255.0938,154.75 1253.8906,154.125 Q1252.9063,153.625 1252.2188,152.5625 Q1251.5313,151.4844 1251.5313,150.2031 L1251.5313,149.0469 Q1251.5313,147.7188 1252.1406,146.5781 Q1252.7656,145.4219 1253.8594,144.8125 Q1254.9531,144.1875 1256.1875,144.1875 Q1256.9219,144.1875 1257.5625,144.3594 Q1258.2188,144.5156 1258.7656,144.875 Z " fill="#000000"/><text fill="#000000" font-family="sans-serif" font-size="14" lengthAdjust="spacing" textLength="87" x="1270" y="154.7285">WithRelations</text><line style="stroke:#181818;stroke-width:0.5;" x1="1242" x2="1359" y1="165" y2="165"/><line style="stroke:#181818;stroke-width:0.5;" x1="1242" x2="1359" y1="173" y2="173"/></g><!--MD5=[91aab5f471a82537445da220be2b8bc1]
class WithComposition--><g id="elem_WithComposition"><rect fill="#F1F1F1" height="48" id="WithComposition" rx="2.5" ry="2.5" style="stroke:#181818;stroke-width:0.5;" width="138" x="1231.5" y="241"/><ellipse cx="1246.5" cy="257" fill="#ADD1B2" rx="11" ry="11" style="stroke:#181818;stroke-width:1.0;"/><path d="M1249.2656,252.875 Q1249.4219,252.6563 1249.6094,252.5469 Q1249.7969,252.4375 1250.0156,252.4375 Q1250.3906,252.4375 1250.625,252.7031 Q1250.8594,252.9531 1250.8594,253.5625 L1250.8594,255.0156 Q1250.8594,255.625 1250.625,255.8906 Q1250.3906,256.1563 1250.0156,256.1563 Q1249.6719,256.1563 1249.4688,255.9531 Q1249.2656,255.7656 1249.1563,255.25 Q1249.1094,254.8906 1248.9219,254.7031 Q1248.5938,254.3281 1247.9844,254.1094 Q1247.375,253.8906 1246.75,253.8906 Q1245.9844,253.8906 1245.3438,254.2188 Q1244.7188,254.5469 1244.2188,255.2969 Q1243.7344,256.0469 1243.7344,257.0781 L1243.7344,258.1719 Q1243.7344,259.4063 1244.625,260.2344 Q1245.5156,261.0469 1247.1094,261.0469 Q1248.0469,261.0469 1248.7031,260.7969 Q1249.0938,260.6406 1249.5156,260.2031 Q1249.7813,259.9375 1249.9219,259.8594 Q1250.0781,259.7813 1250.2813,259.7813 Q1250.6094,259.7813 1250.8594,260.0469 Q1251.125,260.2969 1251.125,260.6406 Q1251.125,260.9844 1250.7813,261.3906 Q1250.2813,261.9688 1249.4844,262.2969 Q1248.4063,262.75 1247.1094,262.75 Q1245.5938,262.75 1244.3906,262.125 Q1243.4063,261.625 1242.7188,260.5625 Q1242.0313,259.4844 1242.0313,258.2031 L1242.0313,257.0469 Q1242.0313,255.7188 1242.6406,254.5781 Q1243.2656,253.4219 1244.3594,252.8125 Q1245.4531,252.1875 1246.6875,252.1875 Q1247.4219,252.1875 1248.0625,252.3594 Q1248.7188,252.5156 1249.2656,252.875 Z " fill="#000000"/><text fill="#000000" font-family="sans-serif" font-size="14" lengthAdjust="spacing" textLength="106" x="1260.5" y="262.7285">WithComposition</text><line style="stroke:#181818;stroke-width:0.5;" x1="1232.5" x2="1368.5" y1="273" y2="273"/><line style="stroke:#181818;stroke-width:0.5;" x1="1232.5" x2="1368.5" y1="281" y2="281"/></g><!--MD5=[7a3c5bcf909c726fa1070e702ab0ce5e]
class WithAssortment--><g id="elem_WithAssortment"><rect fill="#F1F1F1" height="48" id="WithAssortment" rx="2.5" ry="2.5" style="stroke:#181818;stroke-width:0.5;" width="131" x="1405" y="241"/><ellipse cx="1420" cy="257" fill="#ADD1B2" rx="11" ry="11" style="stroke:#181818;stroke-width:1.0;"/><path d="M1422.7656,252.875 Q1422.9219,252.6563 1423.1094,252.5469 Q1423.2969,252.4375 1423.5156,252.4375 Q1423.8906,252.4375 1424.125,252.7031 Q1424.3594,252.9531 1424.3594,253.5625 L1424.3594,255.0156 Q1424.3594,255.625 1424.125,255.8906 Q1423.8906,256.1563 1423.5156,256.1563 Q1423.1719,256.1563 1422.9688,255.9531 Q1422.7656,255.7656 1422.6563,255.25 Q1422.6094,254.8906 1422.4219,254.7031 Q1422.0938,254.3281 1421.4844,254.1094 Q1420.875,253.8906 1420.25,253.8906 Q1419.4844,253.8906 1418.8438,254.2188 Q1418.2188,254.5469 1417.7188,255.2969 Q1417.2344,256.0469 1417.2344,257.0781 L1417.2344,258.1719 Q1417.2344,259.4063 1418.125,260.2344 Q1419.0156,261.0469 1420.6094,261.0469 Q1421.5469,261.0469 1422.2031,260.7969 Q1422.5938,260.6406 1423.0156,260.2031 Q1423.2813,259.9375 1423.4219,259.8594 Q1423.5781,259.7813 1423.7813,259.7813 Q1424.1094,259.7813 1424.3594,260.0469 Q1424.625,260.2969 1424.625,260.6406 Q1424.625,260.9844 1424.2813,261.3906 Q1423.7813,261.9688 1422.9844,262.2969 Q1421.9063,262.75 1420.6094,262.75 Q1419.0938,262.75 1417.8906,262.125 Q1416.9063,261.625 1416.2188,260.5625 Q1415.5313,259.4844 1415.5313,258.2031 L1415.5313,257.0469 Q1415.5313,255.7188 1416.1406,254.5781 Q1416.7656,253.4219 1417.8594,252.8125 Q1418.9531,252.1875 1420.1875,252.1875 Q1420.9219,252.1875 1421.5625,252.3594 Q1422.2188,252.5156 1422.7656,252.875 Z " fill="#000000"/><text fill="#000000" font-family="sans-serif" font-size="14" lengthAdjust="spacing" textLength="99" x="1434" y="262.7285">WithAssortment</text><line style="stroke:#181818;stroke-width:0.5;" x1="1406" x2="1535" y1="273" y2="273"/><line style="stroke:#181818;stroke-width:0.5;" x1="1406" x2="1535" y1="281" y2="281"/></g><!--MD5=[c98fdacbcd4eb224c2d9d26b53646e58]
reverse link Category to Category--><g id="link_Category_Category"><path codeLine="40" d="M753.1,18.95 C765.53,21.09 774.5,28.11 774.5,40 C774.5,55.86 758.55,63.05 739.73,61.56 " fill="none" id="Category-backto-Category" style="stroke:#181818;stroke-width:1.0;"/><polygon fill="none" points="739.73,18.44,745.5717,22.6679,751.7211,18.9017,745.8795,14.6738,739.73,18.44" style="stroke:#181818;stroke-width:1.0;"/><text fill="#000000" font-family="sans-serif" font-size="13" lengthAdjust="spacing" textLength="22" x="747.6373" y="60.9867">0..n</text></g><!--MD5=[06548aa1c124b95fb51b5a3e485cae93]
link Category to Concept--><g id="link_Category_Concept"><path codeLine="42" d="M665.76,64.27 C644.4,81.57 615.01,105.38 591.52,124.4 " fill="none" id="Category-to-Concept" style="stroke:#181818;stroke-width:1.0;"/><polygon fill="#181818" points="581.19,132.76,588.3699,132.0897,590.5126,125.2043,583.3328,125.8746,581.19,132.76" style="stroke:#181818;stroke-width:1.0;"/></g><!--MD5=[357c4abe4ae02615f163987610a5cb7f]
reverse link Concept to Keyword--><g id="link_Concept_Keyword"><path codeLine="43" d="M532.34,192.47 C523.11,208.25 512.41,226.54 504.14,240.68 " fill="none" id="Concept-backto-Keyword" style="stroke:#181818;stroke-width:1.0;"/><polygon fill="#181818" points="539.05,181,532.5654,184.1544,532.9831,191.3534,539.4677,188.199,539.05,181" style="stroke:#181818;stroke-width:1.0;"/></g><!--MD5=[543bb2115b5a10697a67507a00f6a2f4]
reverse link Concept to Definition--><g id="link_Concept_Definition"><path codeLine="44" d="M572.66,192.47 C581.89,208.25 592.59,226.54 600.86,240.68 " fill="none" id="Concept-backto-Definition" style="stroke:#181818;stroke-width:1.0;"/><polygon fill="none" points="565.95,181,565.5323,188.199,572.0169,191.3534,572.4346,184.1544,565.95,181" style="stroke:#181818;stroke-width:1.0;"/><text fill="#000000" font-family="sans-serif" font-size="13" lengthAdjust="spacing" textLength="22" x="572.854" y="230.34">0..n</text></g><!--MD5=[69a02b5b6c5c93fee66f4274c66c937e]
reverse link Concept to FakeDefinition--><g id="link_Concept_FakeDefinition"><path codeLine="45" d="M497.12,175.42 C436.67,194.43 340.11,224.81 277.25,244.58 " fill="none" id="Concept-backto-FakeDefinition" style="stroke:#181818;stroke-width:1.0;"/><polygon fill="none" points="509.82,171.42,502.8963,169.4044,498.3728,175.0203,505.2965,177.0359,509.82,171.42" style="stroke:#181818;stroke-width:1.0;"/><text fill="#000000" font-family="sans-serif" font-size="13" lengthAdjust="spacing" textLength="22" x="285.207" y="238.9859">0..n</text></g><!--MD5=[f12615961f0f17a875f73130a94f8aba]
reverse link FakeDefinition to Justification--><g id="link_FakeDefinition_Justification"><path codeLine="47" d="M170.79,296.38 C146.21,313.08 116.21,333.47 93.55,348.86 " fill="none" id="FakeDefinition-backto-Justification" style="stroke:#181818;stroke-width:1.0;"/><polygon fill="none" points="181.65,289,174.4391,289.0593,171.7205,295.7383,178.9314,295.679,181.65,289" style="stroke:#181818;stroke-width:1.0;"/></g><!--MD5=[200f750cc9ff04a728c032c7908ccf2c]
reverse link FakeDefinition to FakeJustification--><g id="link_FakeDefinition_FakeJustification"><path codeLine="48" d="M215.5,302.34 C215.5,317.68 215.5,335.1 215.5,348.68 " fill="none" id="FakeDefinition-backto-FakeJustification" style="stroke:#181818;stroke-width:1.0;"/><polygon fill="none" points="215.5,289,211.5,295,215.5,301,219.5,295,215.5,289" style="stroke:#181818;stroke-width:1.0;"/></g><!--MD5=[54f9360500e0fd532969fc16f437bbea]
reverse link Concept to Relation--><g id="link_Concept_Relation"><path codeLine="50" d="M501.49,187.71 C472.61,204.53 437.02,225.26 410.23,240.86 " fill="none" id="Concept-backto-Relation" style="stroke:#181818;stroke-width:1.0;"/><polygon fill="none" points="513.01,181,505.812,180.5647,502.6418,187.0415,509.8397,187.4768,513.01,181" style="stroke:#181818;stroke-width:1.0;"/></g><!--MD5=[d181aac8e370f1f271ee70c773107917]
reverse link Relation to Assortment--><g id="link_Relation_Assortment"><path codeLine="51" d="M370.5,309.02 C370.5,322.58 370.5,337.04 370.5,348.68 " fill="none" id="Relation-backto-Assortment" style="stroke:#181818;stroke-width:1.0;"/><polygon fill="none" points="363.5,309,370.5,289,377.5,309,363.5,309" style="stroke:#181818;stroke-width:1.0;"/></g><!--MD5=[aac130c8b5f905729b18e85e231f7b50]
reverse link Relation to Composition--><g id="link_Relation_Composition"><path codeLine="52" d="M417.61,301.17 C438.54,316.79 462.6,334.75 481.26,348.68 " fill="none" id="Relation-backto-Composition" style="stroke:#181818;stroke-width:1.0;"/><polygon fill="none" points="413.15,306.57,401.31,289,421.53,295.35,413.15,306.57" style="stroke:#181818;stroke-width:1.0;"/></g><!--MD5=[edf55e120082aef1ebe78e7e0336c2b5]
reverse link Assortment to Sort--><g id="link_Assortment_Sort"><path codeLine="53" d="M370.5,410.34 C370.5,425.68 370.5,443.1 370.5,456.68 " fill="none" id="Assortment-backto-Sort" style="stroke:#181818;stroke-width:1.0;"/><polygon fill="#181818" points="370.5,397,366.5,403,370.5,409,374.5,403,370.5,397" style="stroke:#181818;stroke-width:1.0;"/><text fill="#000000" font-family="sans-serif" font-size="13" lengthAdjust="spacing" textLength="22" x="345.8188" y="446.34">2..n</text></g><!--MD5=[37057cfff4ca00884532b61fe74a04ae]
reverse link Composition to Component--><g id="link_Composition_Component"><path codeLine="54" d="M512.5,410.34 C512.5,425.68 512.5,443.1 512.5,456.68 " fill="none" id="Composition-backto-Component" style="stroke:#181818;stroke-width:1.0;"/><polygon fill="#181818" points="512.5,397,508.5,403,512.5,409,516.5,403,512.5,397" style="stroke:#181818;stroke-width:1.0;"/><text fill="#000000" font-family="sans-serif" font-size="13" lengthAdjust="spacing" textLength="22" x="487.8188" y="446.34">1..n</text></g><!--MD5=[1a1b676d11de0d3c9f1436eb98d48270]
link Category to Question--><g id="link_Category_Question"><path codeLine="56" d="M710.69,64.27 C722.24,80.87 737.95,103.46 750.89,122.06 " fill="none" id="Category-to-Question" style="stroke:#181818;stroke-width:1.0;"/><polygon fill="#181818" points="758.33,132.76,758.185,125.5504,751.4741,122.9113,751.6192,130.1209,758.33,132.76" style="stroke:#181818;stroke-width:1.0;"/></g><!--MD5=[20c83fed4357f7476c4eaaca18a213d8]
reverse link Strategy to Concept--><g id="link_Strategy_Concept"><path codeLine="57" d="M953.98,53.17 C866.06,75.69 679.33,123.51 595.19,145.07 " fill="none" id="Strategy-backto-Concept" style="stroke:#181818;stroke-width:1.0;stroke-dasharray:7.0,7.0;"/><polygon fill="#181818" points="958.85,51.92,949.1427,50.2559,954.0035,53.1495,951.1099,58.0103,958.85,51.92" style="stroke:#181818;stroke-width:1.0;"/></g><!--MD5=[6555d89455758657c0769da936593b65]
reverse link Strategy to Open--><g id="link_Strategy_Open"><path codeLine="60" d="M1001.5,93.34 C1001.5,107.21 1001.5,121.47 1001.5,132.89 " fill="none" id="Strategy-backto-Open" style="stroke:#181818;stroke-width:1.0;"/><polygon fill="none" points="994.5,93.03,1001.5,73.03,1008.5,93.03,994.5,93.03" style="stroke:#181818;stroke-width:1.0;"/></g><!--MD5=[cd94e5dc6737740dcac696dd45efb976]
reverse link Strategy to WithDefinition--><g id="link_Strategy_WithDefinition"><path codeLine="62" d="M1052.19,86.54 C1069.87,102.43 1088.98,119.59 1103.77,132.89 " fill="none" id="Strategy-backto-WithDefinition" style="stroke:#181818;stroke-width:1.0;"/><polygon fill="none" points="1047.35,91.61,1037.16,73.03,1056.71,81.19,1047.35,91.61" style="stroke:#181818;stroke-width:1.0;"/></g><!--MD5=[bc07c32f49d4c5096523150d111ebcb8]
reverse link WithDefinition to WithJustification--><g id="link_WithDefinition_WithJustification"><path codeLine="64" d="M1129.5,201.02 C1129.5,214.58 1129.5,229.04 1129.5,240.68 " fill="none" id="WithDefinition-backto-WithJustification" style="stroke:#181818;stroke-width:1.0;"/><polygon fill="none" points="1122.5,201,1129.5,181,1136.5,201,1122.5,201" style="stroke:#181818;stroke-width:1.0;"/></g><!--MD5=[202ef066ed34fd3a46ea83da3d82427f]
reverse link Strategy to WithRelations--><g id="link_Strategy_WithRelations"><path codeLine="65" d="M1062.8,64.58 C1114.9,84.61 1189.22,113.2 1240.84,133.05 " fill="none" id="Strategy-backto-WithRelations" style="stroke:#181818;stroke-width:1.0;"/><polygon fill="none" points="1060.18,71.07,1044.02,57.35,1065.2,58,1060.18,71.07" style="stroke:#181818;stroke-width:1.0;"/></g><!--MD5=[f60819c674124d24aafe38fb8f016f1e]
reverse link WithRelations to WithComposition--><g id="link_WithRelations_WithComposition"><path codeLine="66" d="M1300.5,201.02 C1300.5,214.58 1300.5,229.04 1300.5,240.68 " fill="none" id="WithRelations-backto-WithComposition" style="stroke:#181818;stroke-width:1.0;"/><polygon fill="none" points="1293.5,201,1300.5,181,1307.5,201,1293.5,201" style="stroke:#181818;stroke-width:1.0;"/></g><!--MD5=[7c1a5214423a826185cce57e9571e35e]
reverse link WithRelations to WithAssortment--><g id="link_WithRelations_WithAssortment"><path codeLine="67" d="M1354.36,191.58 C1380.1,207.63 1410.26,226.44 1433.39,240.86 " fill="none" id="WithRelations-backto-WithAssortment" style="stroke:#181818;stroke-width:1.0;"/><polygon fill="none" points="1350.65,197.52,1337.39,181,1358.06,185.64,1350.65,197.52" style="stroke:#181818;stroke-width:1.0;"/></g><!--MD5=[14f9c4268ca272d347b75106876f2c10]
link Strategy to Question--><g id="link_Strategy_Question"><path codeLine="69" d="M958.8,62.63 C920.54,82.01 864.42,110.45 824.16,130.84 " fill="none" id="Strategy-to-Question" style="stroke:#181818;stroke-width:1.0;stroke-dasharray:7.0,7.0;"/><polygon fill="#181818" points="819.34,133.29,829.175,132.7674,823.7949,131.0197,825.5426,125.6396,819.34,133.29" style="stroke:#181818;stroke-width:1.0;"/></g><!--MD5=[6eeca14f8a2ed45d1117f4ed4af75b7e]
link Question to Statement--><g id="link_Question_Statement"><path codeLine="70" d="M764.4054,192.5187 C764.4054,192.5187 757.26,216.95 754.04,227.95 " fill="none" id="Question-Statement" style="stroke:#181818;stroke-width:1.0;"/><polygon fill="#181818" points="750.32,240.68,756.6886,233.1673,751.7255,235.8816,749.0111,230.9185,750.32,240.68" style="stroke:#181818;stroke-width:1.0;"/><line style="stroke:#181818;stroke-width:1.0;" x1="751.7255" x2="753.97" y1="235.8816" y2="228.2"/><polygon fill="#181818" points="767.77,181,762.2482,185.6378,764.4054,192.5187,769.9273,187.8809,767.77,181" style="stroke:#181818;stroke-width:1.0;"/></g><!--MD5=[bcbd408316bb9144f3569d3bcde56d28]
link Question to Incorrect--><g id="link_Question_Incorrect"><path codeLine="71" d="M829.7519,185.8887 C829.7519,185.8887 898.77,220.73 929.09,236.03 " fill="none" id="Question-Incorrect" style="stroke:#181818;stroke-width:1.0;"/><polygon fill="#181818" points="940.75,241.92,934.519,234.2928,936.2867,239.6664,930.9131,241.4341,940.75,241.92" style="stroke:#181818;stroke-width:1.0;"/><line style="stroke:#181818;stroke-width:1.0;" x1="936.2867" x2="929.14" y1="239.6664" y2="236.06"/><polygon fill="#181818" points="819.04,180.48,822.5931,186.755,829.7519,185.8887,826.1989,179.6137,819.04,180.48" style="stroke:#181818;stroke-width:1.0;"/><text fill="#000000" font-family="sans-serif" font-size="13" lengthAdjust="spacing" textLength="7" x="925.9242" y="234.2966">3</text></g><!--MD5=[fad82a5e9ec53f6abc538956bca6f09b]
link Question to Correct--><g id="link_Question_Correct"><path codeLine="72" d="M802.3237,190.0643 C802.3237,190.0643 826.55,217.97 837.49,230.57 " fill="none" id="Question-Correct" style="stroke:#181818;stroke-width:1.0;"/><polygon fill="#181818" points="846.26,240.68,843.3837,231.2605,842.9835,236.9032,837.3408,236.503,846.26,240.68" style="stroke:#181818;stroke-width:1.0;"/><line style="stroke:#181818;stroke-width:1.0;" x1="842.9835" x2="837.735" y1="236.9032" y2="230.86"/><polygon fill="#181818" points="794.46,181,795.3704,188.1534,802.3237,190.0643,801.4133,182.9109,794.46,181" style="stroke:#181818;stroke-width:1.0;"/></g><!--MD5=[b1491d38e87214202fddacec717a9c8d]
reverse link Answer to Correct--><g id="link_Answer_Correct"><path codeLine="73" d="M882.66,200.54 C879.18,214.23 875.44,228.9 872.44,240.68 " fill="none" id="Answer-backto-Correct" style="stroke:#181818;stroke-width:1.0;"/><polygon fill="none" points="875.92,198.65,887.64,181,889.49,202.11,875.92,198.65" style="stroke:#181818;stroke-width:1.0;"/></g><!--MD5=[a6181c8180a1587156cddad319d63c9e]
reverse link Answer to Incorrect--><g id="link_Answer_Incorrect"><path codeLine="74" d="M926.32,196.23 C939.08,211.1 953.3,227.65 964.48,240.68 " fill="none" id="Answer-backto-Incorrect" style="stroke:#181818;stroke-width:1.0;"/><polygon fill="none" points="920.96,200.74,913.25,181,931.58,191.62,920.96,200.74" style="stroke:#181818;stroke-width:1.0;"/></g><!--MD5=[738aec989b7fe19d9fa8ae48109cc413]
@startuml ConceptDomainDetail

class Category 

class Concept

class Keyword

Class Definition 

Class FakeDefinition

Class Justification

Class FakeJustification

Class Relation

Class Assortment

Class Sort

Class Composition

Class Component

Class Strategy {
    template
}

class Question 

class Statement

class Answer 

class Correct

Class Incorrect

Category o- -"0..n" Category

Category - -* Concept
Concept *- - Keyword
Concept o- -"0..n" Definition
Concept o- - "0..n" FakeDefinition

FakeDefinition o- - Justification
FakeDefinition o- - FakeJustification

Concept o- - Relation
Relation <|- - Assortment
Relation <|- - Composition
Assortment *- - "2..n" Sort
Composition *- - "1..n" Component

Category - -* Question
Strategy <.. Concept 

'Strategies
 Strategy <|- - Open
 'Strategy <|- - DefineKeyword
 Strategy <|- - WithDefinition
 'Strategy <|- - CombineDefinitions
 WithDefinition <|- - WithJustification
 Strategy <|- - WithRelations
 WithRelations <|- - WithComposition
 WithRelations <|- - WithAssortment

Strategy ..> Question
Question *- ->   Statement
Question *- -> "3" Incorrect
Question *- ->   Correct
Answer <|- - Correct
Answer <|- - Incorrect

 









@end

@startuml ConceptDomainDetail

class Category 

class Concept

class Keyword

Class Definition 

Class FakeDefinition

Class Justification

Class FakeJustification

Class Relation

Class Assortment

Class Sort

Class Composition

Class Component

Class Strategy {
    template
}

class Question 

class Statement

class Answer 

class Correct

Class Incorrect

Category o- -"0..n" Category

Category - -* Concept
Concept *- - Keyword
Concept o- -"0..n" Definition
Concept o- - "0..n" FakeDefinition

FakeDefinition o- - Justification
FakeDefinition o- - FakeJustification

Concept o- - Relation
Relation <|- - Assortment
Relation <|- - Composition
Assortment *- - "2..n" Sort
Composition *- - "1..n" Component

Category - -* Question
Strategy <.. Concept 

 Strategy <|- - Open
 Strategy <|- - WithDefinition
 WithDefinition <|- - WithJustification
 Strategy <|- - WithRelations
 WithRelations <|- - WithComposition
 WithRelations <|- - WithAssortment

Strategy ..> Question
Question *- ->   Statement
Question *- -> "3" Incorrect
Question *- ->   Correct
Answer <|- - Correct
Answer <|- - Incorrect

 









@end

PlantUML version 1.2022.7(Mon Aug 22 18:01:30 WEST 2022)
(GPL source distribution)
Java Runtime: OpenJDK Runtime Environment
JVM: OpenJDK 64-Bit Server VM
Default Encoding: Cp1252
Language: es
Country: ES
--></g></svg>