<?xml version="1.0" encoding="UTF-8" standalone="no"?><svg xmlns="http://www.w3.org/2000/svg" xmlns:xlink="http://www.w3.org/1999/xlink" contentStyleType="text/css" height="834px" preserveAspectRatio="none" style="width:2772px;height:834px;background:#FFFFFF;" version="1.1" viewBox="0 0 2772 834" width="2772px" zoomAndPan="magnify"><defs/><g><!--MD5=[a96594a83e2ecdc78cbf17c2ddf01934]
class Category--><g id="elem_Category"><rect codeLine="2" fill="#F1F1F1" height="48" id="Category" rx="2.5" ry="2.5" style="stroke:#181818;stroke-width:0.5;" width="90" x="642" y="10.4847"/><ellipse cx="657" cy="26.4847" fill="#ADD1B2" rx="11" ry="11" style="stroke:#181818;stroke-width:1.0;"/><path d="M659.7656,22.3597 Q659.9219,22.1409 660.1094,22.0315 Q660.2969,21.9222 660.5156,21.9222 Q660.8906,21.9222 661.125,22.1878 Q661.3594,22.4378 661.3594,23.0472 L661.3594,24.5003 Q661.3594,25.1097 661.125,25.3753 Q660.8906,25.6409 660.5156,25.6409 Q660.1719,25.6409 659.9688,25.4378 Q659.7656,25.2503 659.6563,24.7347 Q659.6094,24.3753 659.4219,24.1878 Q659.0938,23.8128 658.4844,23.594 Q657.875,23.3753 657.25,23.3753 Q656.4844,23.3753 655.8438,23.7034 Q655.2188,24.0315 654.7188,24.7815 Q654.2344,25.5315 654.2344,26.5628 L654.2344,27.6565 Q654.2344,28.8909 655.125,29.719 Q656.0156,30.5315 657.6094,30.5315 Q658.5469,30.5315 659.2031,30.2815 Q659.5938,30.1253 660.0156,29.6878 Q660.2813,29.4222 660.4219,29.344 Q660.5781,29.2659 660.7813,29.2659 Q661.1094,29.2659 661.3594,29.5315 Q661.625,29.7815 661.625,30.1253 Q661.625,30.469 661.2813,30.8753 Q660.7813,31.4534 659.9844,31.7815 Q658.9063,32.2347 657.6094,32.2347 Q656.0938,32.2347 654.8906,31.6097 Q653.9063,31.1097 653.2188,30.0472 Q652.5313,28.969 652.5313,27.6878 L652.5313,26.5315 Q652.5313,25.2034 653.1406,24.0628 Q653.7656,22.9065 654.8594,22.2972 Q655.9531,21.6722 657.1875,21.6722 Q657.9219,21.6722 658.5625,21.844 Q659.2188,22.0003 659.7656,22.3597 Z " fill="#000000"/><text fill="#000000" font-family="sans-serif" font-size="14" lengthAdjust="spacing" textLength="58" x="671" y="32.2132">Category</text><line style="stroke:#181818;stroke-width:0.5;" x1="643" x2="731" y1="42.4847" y2="42.4847"/><line style="stroke:#181818;stroke-width:0.5;" x1="643" x2="731" y1="50.4847" y2="50.4847"/></g><!--MD5=[9d451b2f92d848a8e2d1a4dab2b1c6bf]
class Concept--><g id="elem_Concept"><rect codeLine="4" fill="#F1F1F1" height="48" id="Concept" rx="2.5" ry="2.5" style="stroke:#181818;stroke-width:0.5;" width="85" x="495.5" y="144.9847"/><ellipse cx="510.5" cy="160.9847" fill="#ADD1B2" rx="11" ry="11" style="stroke:#181818;stroke-width:1.0;"/><path d="M513.2656,156.8597 Q513.4219,156.6409 513.6094,156.5315 Q513.7969,156.4222 514.0156,156.4222 Q514.3906,156.4222 514.625,156.6878 Q514.8594,156.9378 514.8594,157.5472 L514.8594,159.0003 Q514.8594,159.6097 514.625,159.8753 Q514.3906,160.1409 514.0156,160.1409 Q513.6719,160.1409 513.4688,159.9378 Q513.2656,159.7503 513.1563,159.2347 Q513.1094,158.8753 512.9219,158.6878 Q512.5938,158.3128 511.9844,158.094 Q511.375,157.8753 510.75,157.8753 Q509.9844,157.8753 509.3438,158.2034 Q508.7188,158.5315 508.2188,159.2815 Q507.7344,160.0315 507.7344,161.0628 L507.7344,162.1565 Q507.7344,163.3909 508.625,164.219 Q509.5156,165.0315 511.1094,165.0315 Q512.0469,165.0315 512.7031,164.7815 Q513.0938,164.6253 513.5156,164.1878 Q513.7813,163.9222 513.9219,163.844 Q514.0781,163.7659 514.2813,163.7659 Q514.6094,163.7659 514.8594,164.0315 Q515.125,164.2815 515.125,164.6253 Q515.125,164.969 514.7813,165.3753 Q514.2813,165.9534 513.4844,166.2815 Q512.4063,166.7347 511.1094,166.7347 Q509.5938,166.7347 508.3906,166.1097 Q507.4063,165.6097 506.7188,164.5472 Q506.0313,163.469 506.0313,162.1878 L506.0313,161.0315 Q506.0313,159.7034 506.6406,158.5628 Q507.2656,157.4065 508.3594,156.7972 Q509.4531,156.1722 510.6875,156.1722 Q511.4219,156.1722 512.0625,156.344 Q512.7188,156.5003 513.2656,156.8597 Z " fill="#000000"/><text fill="#000000" font-family="sans-serif" font-size="14" lengthAdjust="spacing" textLength="53" x="524.5" y="166.7132">Concept</text><line style="stroke:#181818;stroke-width:0.5;" x1="496.5" x2="579.5" y1="176.9847" y2="176.9847"/><line style="stroke:#181818;stroke-width:0.5;" x1="496.5" x2="579.5" y1="184.9847" y2="184.9847"/></g><!--MD5=[1ac27345a8a52a4a812e38456e107300]
class Keyword--><g id="elem_Keyword"><rect codeLine="6" fill="#F1F1F1" height="48" id="Keyword" rx="2.5" ry="2.5" style="stroke:#181818;stroke-width:0.5;" width="86" x="375" y="349.9847"/><ellipse cx="390" cy="365.9847" fill="#ADD1B2" rx="11" ry="11" style="stroke:#181818;stroke-width:1.0;"/><path d="M392.7656,361.8597 Q392.9219,361.6409 393.1094,361.5315 Q393.2969,361.4222 393.5156,361.4222 Q393.8906,361.4222 394.125,361.6878 Q394.3594,361.9378 394.3594,362.5472 L394.3594,364.0003 Q394.3594,364.6097 394.125,364.8753 Q393.8906,365.1409 393.5156,365.1409 Q393.1719,365.1409 392.9688,364.9378 Q392.7656,364.7503 392.6563,364.2347 Q392.6094,363.8753 392.4219,363.6878 Q392.0938,363.3128 391.4844,363.094 Q390.875,362.8753 390.25,362.8753 Q389.4844,362.8753 388.8438,363.2034 Q388.2188,363.5315 387.7188,364.2815 Q387.2344,365.0315 387.2344,366.0628 L387.2344,367.1565 Q387.2344,368.3909 388.125,369.219 Q389.0156,370.0315 390.6094,370.0315 Q391.5469,370.0315 392.2031,369.7815 Q392.5938,369.6253 393.0156,369.1878 Q393.2813,368.9222 393.4219,368.844 Q393.5781,368.7659 393.7813,368.7659 Q394.1094,368.7659 394.3594,369.0315 Q394.625,369.2815 394.625,369.6253 Q394.625,369.969 394.2813,370.3753 Q393.7813,370.9534 392.9844,371.2815 Q391.9063,371.7347 390.6094,371.7347 Q389.0938,371.7347 387.8906,371.1097 Q386.9063,370.6097 386.2188,369.5472 Q385.5313,368.469 385.5313,367.1878 L385.5313,366.0315 Q385.5313,364.7034 386.1406,363.5628 Q386.7656,362.4065 387.8594,361.7972 Q388.9531,361.1722 390.1875,361.1722 Q390.9219,361.1722 391.5625,361.344 Q392.2188,361.5003 392.7656,361.8597 Z " fill="#000000"/><text fill="#000000" font-family="sans-serif" font-size="14" lengthAdjust="spacing" textLength="54" x="404" y="371.7132">Keyword</text><line style="stroke:#181818;stroke-width:0.5;" x1="376" x2="460" y1="381.9847" y2="381.9847"/><line style="stroke:#181818;stroke-width:0.5;" x1="376" x2="460" y1="389.9847" y2="389.9847"/></g><!--MD5=[af22135d5be6ed11ccd2d02fa51653b3]
class Definition--><g id="elem_Definition"><rect codeLine="8" fill="#F1F1F1" height="48" id="Definition" rx="2.5" ry="2.5" style="stroke:#181818;stroke-width:0.5;" width="91" x="177.5" y="349.9847"/><ellipse cx="192.5" cy="365.9847" fill="#ADD1B2" rx="11" ry="11" style="stroke:#181818;stroke-width:1.0;"/><path d="M195.2656,361.8597 Q195.4219,361.6409 195.6094,361.5315 Q195.7969,361.4222 196.0156,361.4222 Q196.3906,361.4222 196.625,361.6878 Q196.8594,361.9378 196.8594,362.5472 L196.8594,364.0003 Q196.8594,364.6097 196.625,364.8753 Q196.3906,365.1409 196.0156,365.1409 Q195.6719,365.1409 195.4688,364.9378 Q195.2656,364.7503 195.1563,364.2347 Q195.1094,363.8753 194.9219,363.6878 Q194.5938,363.3128 193.9844,363.094 Q193.375,362.8753 192.75,362.8753 Q191.9844,362.8753 191.3438,363.2034 Q190.7188,363.5315 190.2188,364.2815 Q189.7344,365.0315 189.7344,366.0628 L189.7344,367.1565 Q189.7344,368.3909 190.625,369.219 Q191.5156,370.0315 193.1094,370.0315 Q194.0469,370.0315 194.7031,369.7815 Q195.0938,369.6253 195.5156,369.1878 Q195.7813,368.9222 195.9219,368.844 Q196.0781,368.7659 196.2813,368.7659 Q196.6094,368.7659 196.8594,369.0315 Q197.125,369.2815 197.125,369.6253 Q197.125,369.969 196.7813,370.3753 Q196.2813,370.9534 195.4844,371.2815 Q194.4063,371.7347 193.1094,371.7347 Q191.5938,371.7347 190.3906,371.1097 Q189.4063,370.6097 188.7188,369.5472 Q188.0313,368.469 188.0313,367.1878 L188.0313,366.0315 Q188.0313,364.7034 188.6406,363.5628 Q189.2656,362.4065 190.3594,361.7972 Q191.4531,361.1722 192.6875,361.1722 Q193.4219,361.1722 194.0625,361.344 Q194.7188,361.5003 195.2656,361.8597 Z " fill="#000000"/><text fill="#000000" font-family="sans-serif" font-size="14" lengthAdjust="spacing" textLength="59" x="206.5" y="371.7132">Definition</text><line style="stroke:#181818;stroke-width:0.5;" x1="178.5" x2="267.5" y1="381.9847" y2="381.9847"/><line style="stroke:#181818;stroke-width:0.5;" x1="178.5" x2="267.5" y1="389.9847" y2="389.9847"/></g><!--MD5=[f31fc1fa2857d38684a2cb55f861fa37]
class RealDefinition--><g id="elem_RealDefinition"><rect codeLine="10" fill="#F1F1F1" height="48" id="RealDefinition" rx="2.5" ry="2.5" style="stroke:#181818;stroke-width:0.5;" width="120" x="177" y="545.9847"/><ellipse cx="192" cy="561.9847" fill="#ADD1B2" rx="11" ry="11" style="stroke:#181818;stroke-width:1.0;"/><path d="M194.7656,557.8597 Q194.9219,557.6409 195.1094,557.5315 Q195.2969,557.4222 195.5156,557.4222 Q195.8906,557.4222 196.125,557.6878 Q196.3594,557.9378 196.3594,558.5472 L196.3594,560.0003 Q196.3594,560.6097 196.125,560.8753 Q195.8906,561.1409 195.5156,561.1409 Q195.1719,561.1409 194.9688,560.9378 Q194.7656,560.7503 194.6563,560.2347 Q194.6094,559.8753 194.4219,559.6878 Q194.0938,559.3128 193.4844,559.094 Q192.875,558.8753 192.25,558.8753 Q191.4844,558.8753 190.8438,559.2034 Q190.2188,559.5315 189.7188,560.2815 Q189.2344,561.0315 189.2344,562.0628 L189.2344,563.1565 Q189.2344,564.3909 190.125,565.219 Q191.0156,566.0315 192.6094,566.0315 Q193.5469,566.0315 194.2031,565.7815 Q194.5938,565.6253 195.0156,565.1878 Q195.2813,564.9222 195.4219,564.844 Q195.5781,564.7659 195.7813,564.7659 Q196.1094,564.7659 196.3594,565.0315 Q196.625,565.2815 196.625,565.6253 Q196.625,565.969 196.2813,566.3753 Q195.7813,566.9534 194.9844,567.2815 Q193.9063,567.7347 192.6094,567.7347 Q191.0938,567.7347 189.8906,567.1097 Q188.9063,566.6097 188.2188,565.5472 Q187.5313,564.469 187.5313,563.1878 L187.5313,562.0315 Q187.5313,560.7034 188.1406,559.5628 Q188.7656,558.4065 189.8594,557.7972 Q190.9531,557.1722 192.1875,557.1722 Q192.9219,557.1722 193.5625,557.344 Q194.2188,557.5003 194.7656,557.8597 Z " fill="#000000"/><text fill="#000000" font-family="sans-serif" font-size="14" lengthAdjust="spacing" textLength="88" x="206" y="567.7132">RealDefinition</text><line style="stroke:#181818;stroke-width:0.5;" x1="178" x2="296" y1="577.9847" y2="577.9847"/><line style="stroke:#181818;stroke-width:0.5;" x1="178" x2="296" y1="585.9847" y2="585.9847"/></g><!--MD5=[d6420df0ba7eff4d736dc4fa653f8446]
class FakeDefinition--><g id="elem_FakeDefinition"><rect codeLine="12" fill="#F1F1F1" height="48" id="FakeDefinition" rx="2.5" ry="2.5" style="stroke:#181818;stroke-width:0.5;" width="123" x="18.5" y="545.9847"/><ellipse cx="33.5" cy="561.9847" fill="#ADD1B2" rx="11" ry="11" style="stroke:#181818;stroke-width:1.0;"/><path d="M36.2656,557.8597 Q36.4219,557.6409 36.6094,557.5315 Q36.7969,557.4222 37.0156,557.4222 Q37.3906,557.4222 37.625,557.6878 Q37.8594,557.9378 37.8594,558.5472 L37.8594,560.0003 Q37.8594,560.6097 37.625,560.8753 Q37.3906,561.1409 37.0156,561.1409 Q36.6719,561.1409 36.4688,560.9378 Q36.2656,560.7503 36.1563,560.2347 Q36.1094,559.8753 35.9219,559.6878 Q35.5938,559.3128 34.9844,559.094 Q34.375,558.8753 33.75,558.8753 Q32.9844,558.8753 32.3438,559.2034 Q31.7188,559.5315 31.2188,560.2815 Q30.7344,561.0315 30.7344,562.0628 L30.7344,563.1565 Q30.7344,564.3909 31.625,565.219 Q32.5156,566.0315 34.1094,566.0315 Q35.0469,566.0315 35.7031,565.7815 Q36.0938,565.6253 36.5156,565.1878 Q36.7813,564.9222 36.9219,564.844 Q37.0781,564.7659 37.2813,564.7659 Q37.6094,564.7659 37.8594,565.0315 Q38.125,565.2815 38.125,565.6253 Q38.125,565.969 37.7813,566.3753 Q37.2813,566.9534 36.4844,567.2815 Q35.4063,567.7347 34.1094,567.7347 Q32.5938,567.7347 31.3906,567.1097 Q30.4063,566.6097 29.7188,565.5472 Q29.0313,564.469 29.0313,563.1878 L29.0313,562.0315 Q29.0313,560.7034 29.6406,559.5628 Q30.2656,558.4065 31.3594,557.7972 Q32.4531,557.1722 33.6875,557.1722 Q34.4219,557.1722 35.0625,557.344 Q35.7188,557.5003 36.2656,557.8597 Z " fill="#000000"/><text fill="#000000" font-family="sans-serif" font-size="14" lengthAdjust="spacing" textLength="91" x="47.5" y="567.7132">FakeDefinition</text><line style="stroke:#181818;stroke-width:0.5;" x1="19.5" x2="140.5" y1="577.9847" y2="577.9847"/><line style="stroke:#181818;stroke-width:0.5;" x1="19.5" x2="140.5" y1="585.9847" y2="585.9847"/></g><!--MD5=[9b4de504215638550a8bb9c080b7ee00]
class Justification--><g id="elem_Justification"><rect codeLine="14" fill="#F1F1F1" height="48" id="Justification" rx="2.5" ry="2.5" style="stroke:#181818;stroke-width:0.5;" width="105" x="106.5" y="671.4847"/><ellipse cx="121.5" cy="687.4847" fill="#ADD1B2" rx="11" ry="11" style="stroke:#181818;stroke-width:1.0;"/><path d="M124.2656,683.3597 Q124.4219,683.1409 124.6094,683.0315 Q124.7969,682.9222 125.0156,682.9222 Q125.3906,682.9222 125.625,683.1878 Q125.8594,683.4378 125.8594,684.0472 L125.8594,685.5003 Q125.8594,686.1097 125.625,686.3753 Q125.3906,686.6409 125.0156,686.6409 Q124.6719,686.6409 124.4688,686.4378 Q124.2656,686.2503 124.1563,685.7347 Q124.1094,685.3753 123.9219,685.1878 Q123.5938,684.8128 122.9844,684.594 Q122.375,684.3753 121.75,684.3753 Q120.9844,684.3753 120.3438,684.7034 Q119.7188,685.0315 119.2188,685.7815 Q118.7344,686.5315 118.7344,687.5628 L118.7344,688.6565 Q118.7344,689.8909 119.625,690.719 Q120.5156,691.5315 122.1094,691.5315 Q123.0469,691.5315 123.7031,691.2815 Q124.0938,691.1253 124.5156,690.6878 Q124.7813,690.4222 124.9219,690.344 Q125.0781,690.2659 125.2813,690.2659 Q125.6094,690.2659 125.8594,690.5315 Q126.125,690.7815 126.125,691.1253 Q126.125,691.469 125.7813,691.8753 Q125.2813,692.4534 124.4844,692.7815 Q123.4063,693.2347 122.1094,693.2347 Q120.5938,693.2347 119.3906,692.6097 Q118.4063,692.1097 117.7188,691.0472 Q117.0313,689.969 117.0313,688.6878 L117.0313,687.5315 Q117.0313,686.2034 117.6406,685.0628 Q118.2656,683.9065 119.3594,683.2972 Q120.4531,682.6722 121.6875,682.6722 Q122.4219,682.6722 123.0625,682.844 Q123.7188,683.0003 124.2656,683.3597 Z " fill="#000000"/><text fill="#000000" font-family="sans-serif" font-size="14" lengthAdjust="spacing" textLength="73" x="135.5" y="693.2132">Justification</text><line style="stroke:#181818;stroke-width:0.5;" x1="107.5" x2="210.5" y1="703.4847" y2="703.4847"/><line style="stroke:#181818;stroke-width:0.5;" x1="107.5" x2="210.5" y1="711.4847" y2="711.4847"/></g><!--MD5=[226b129f95de2b91bbf78d545493e57e]
class RealJustification--><g id="elem_RealJustification"><rect codeLine="16" fill="#F1F1F1" height="48" id="RealJustification" rx="2.5" ry="2.5" style="stroke:#181818;stroke-width:0.5;" width="134" x="7" y="779.4847"/><ellipse cx="22" cy="795.4847" fill="#ADD1B2" rx="11" ry="11" style="stroke:#181818;stroke-width:1.0;"/><path d="M24.7656,791.3597 Q24.9219,791.1409 25.1094,791.0315 Q25.2969,790.9222 25.5156,790.9222 Q25.8906,790.9222 26.125,791.1878 Q26.3594,791.4378 26.3594,792.0472 L26.3594,793.5003 Q26.3594,794.1097 26.125,794.3753 Q25.8906,794.6409 25.5156,794.6409 Q25.1719,794.6409 24.9688,794.4378 Q24.7656,794.2503 24.6563,793.7347 Q24.6094,793.3753 24.4219,793.1878 Q24.0938,792.8128 23.4844,792.594 Q22.875,792.3753 22.25,792.3753 Q21.4844,792.3753 20.8438,792.7034 Q20.2188,793.0315 19.7188,793.7815 Q19.2344,794.5315 19.2344,795.5628 L19.2344,796.6565 Q19.2344,797.8909 20.125,798.719 Q21.0156,799.5315 22.6094,799.5315 Q23.5469,799.5315 24.2031,799.2815 Q24.5938,799.1253 25.0156,798.6878 Q25.2813,798.4222 25.4219,798.344 Q25.5781,798.2659 25.7813,798.2659 Q26.1094,798.2659 26.3594,798.5315 Q26.625,798.7815 26.625,799.1253 Q26.625,799.469 26.2813,799.8753 Q25.7813,800.4534 24.9844,800.7815 Q23.9063,801.2347 22.6094,801.2347 Q21.0938,801.2347 19.8906,800.6097 Q18.9063,800.1097 18.2188,799.0472 Q17.5313,797.969 17.5313,796.6878 L17.5313,795.5315 Q17.5313,794.2034 18.1406,793.0628 Q18.7656,791.9065 19.8594,791.2972 Q20.9531,790.6722 22.1875,790.6722 Q22.9219,790.6722 23.5625,790.844 Q24.2188,791.0003 24.7656,791.3597 Z " fill="#000000"/><text fill="#000000" font-family="sans-serif" font-size="14" lengthAdjust="spacing" textLength="102" x="36" y="801.2132">RealJustification</text><line style="stroke:#181818;stroke-width:0.5;" x1="8" x2="140" y1="811.4847" y2="811.4847"/><line style="stroke:#181818;stroke-width:0.5;" x1="8" x2="140" y1="819.4847" y2="819.4847"/></g><!--MD5=[7a6687b95ddf01a258e56cc7a885583f]
class FakeJustification--><g id="elem_FakeJustification"><rect codeLine="18" fill="#F1F1F1" height="48" id="FakeJustification" rx="2.5" ry="2.5" style="stroke:#181818;stroke-width:0.5;" width="137" x="176.5" y="779.4847"/><ellipse cx="191.5" cy="795.4847" fill="#ADD1B2" rx="11" ry="11" style="stroke:#181818;stroke-width:1.0;"/><path d="M194.2656,791.3597 Q194.4219,791.1409 194.6094,791.0315 Q194.7969,790.9222 195.0156,790.9222 Q195.3906,790.9222 195.625,791.1878 Q195.8594,791.4378 195.8594,792.0472 L195.8594,793.5003 Q195.8594,794.1097 195.625,794.3753 Q195.3906,794.6409 195.0156,794.6409 Q194.6719,794.6409 194.4688,794.4378 Q194.2656,794.2503 194.1563,793.7347 Q194.1094,793.3753 193.9219,793.1878 Q193.5938,792.8128 192.9844,792.594 Q192.375,792.3753 191.75,792.3753 Q190.9844,792.3753 190.3438,792.7034 Q189.7188,793.0315 189.2188,793.7815 Q188.7344,794.5315 188.7344,795.5628 L188.7344,796.6565 Q188.7344,797.8909 189.625,798.719 Q190.5156,799.5315 192.1094,799.5315 Q193.0469,799.5315 193.7031,799.2815 Q194.0938,799.1253 194.5156,798.6878 Q194.7813,798.4222 194.9219,798.344 Q195.0781,798.2659 195.2813,798.2659 Q195.6094,798.2659 195.8594,798.5315 Q196.125,798.7815 196.125,799.1253 Q196.125,799.469 195.7813,799.8753 Q195.2813,800.4534 194.4844,800.7815 Q193.4063,801.2347 192.1094,801.2347 Q190.5938,801.2347 189.3906,800.6097 Q188.4063,800.1097 187.7188,799.0472 Q187.0313,797.969 187.0313,796.6878 L187.0313,795.5315 Q187.0313,794.2034 187.6406,793.0628 Q188.2656,791.9065 189.3594,791.2972 Q190.4531,790.6722 191.6875,790.6722 Q192.4219,790.6722 193.0625,790.844 Q193.7188,791.0003 194.2656,791.3597 Z " fill="#000000"/><text fill="#000000" font-family="sans-serif" font-size="14" lengthAdjust="spacing" textLength="105" x="205.5" y="801.2132">FakeJustification</text><line style="stroke:#181818;stroke-width:0.5;" x1="177.5" x2="312.5" y1="811.4847" y2="811.4847"/><line style="stroke:#181818;stroke-width:0.5;" x1="177.5" x2="312.5" y1="819.4847" y2="819.4847"/></g><!--MD5=[534474e9f05b14d7c70186ae077f30e0]
class Relation--><g id="elem_Relation"><rect codeLine="20" fill="#F1F1F1" height="48" id="Relation" rx="2.5" ry="2.5" style="stroke:#181818;stroke-width:0.5;" width="84" x="496" y="349.9847"/><ellipse cx="511" cy="365.9847" fill="#ADD1B2" rx="11" ry="11" style="stroke:#181818;stroke-width:1.0;"/><path d="M513.7656,361.8597 Q513.9219,361.6409 514.1094,361.5315 Q514.2969,361.4222 514.5156,361.4222 Q514.8906,361.4222 515.125,361.6878 Q515.3594,361.9378 515.3594,362.5472 L515.3594,364.0003 Q515.3594,364.6097 515.125,364.8753 Q514.8906,365.1409 514.5156,365.1409 Q514.1719,365.1409 513.9688,364.9378 Q513.7656,364.7503 513.6563,364.2347 Q513.6094,363.8753 513.4219,363.6878 Q513.0938,363.3128 512.4844,363.094 Q511.875,362.8753 511.25,362.8753 Q510.4844,362.8753 509.8438,363.2034 Q509.2188,363.5315 508.7188,364.2815 Q508.2344,365.0315 508.2344,366.0628 L508.2344,367.1565 Q508.2344,368.3909 509.125,369.219 Q510.0156,370.0315 511.6094,370.0315 Q512.5469,370.0315 513.2031,369.7815 Q513.5938,369.6253 514.0156,369.1878 Q514.2813,368.9222 514.4219,368.844 Q514.5781,368.7659 514.7813,368.7659 Q515.1094,368.7659 515.3594,369.0315 Q515.625,369.2815 515.625,369.6253 Q515.625,369.969 515.2813,370.3753 Q514.7813,370.9534 513.9844,371.2815 Q512.9063,371.7347 511.6094,371.7347 Q510.0938,371.7347 508.8906,371.1097 Q507.9063,370.6097 507.2188,369.5472 Q506.5313,368.469 506.5313,367.1878 L506.5313,366.0315 Q506.5313,364.7034 507.1406,363.5628 Q507.7656,362.4065 508.8594,361.7972 Q509.9531,361.1722 511.1875,361.1722 Q511.9219,361.1722 512.5625,361.344 Q513.2188,361.5003 513.7656,361.8597 Z " fill="#000000"/><text fill="#000000" font-family="sans-serif" font-size="14" lengthAdjust="spacing" textLength="52" x="525" y="371.7132">Relation</text><line style="stroke:#181818;stroke-width:0.5;" x1="497" x2="579" y1="381.9847" y2="381.9847"/><line style="stroke:#181818;stroke-width:0.5;" x1="497" x2="579" y1="389.9847" y2="389.9847"/></g><!--MD5=[9c239722e256878d27dcbb07783cc14f]
class Classification--><g id="elem_Classification"><rect codeLine="22" fill="#F1F1F1" height="48" id="Classification" rx="2.5" ry="2.5" style="stroke:#181818;stroke-width:0.5;" width="115" x="561.5" y="545.9847"/><ellipse cx="576.5" cy="561.9847" fill="#ADD1B2" rx="11" ry="11" style="stroke:#181818;stroke-width:1.0;"/><path d="M579.2656,557.8597 Q579.4219,557.6409 579.6094,557.5315 Q579.7969,557.4222 580.0156,557.4222 Q580.3906,557.4222 580.625,557.6878 Q580.8594,557.9378 580.8594,558.5472 L580.8594,560.0003 Q580.8594,560.6097 580.625,560.8753 Q580.3906,561.1409 580.0156,561.1409 Q579.6719,561.1409 579.4688,560.9378 Q579.2656,560.7503 579.1563,560.2347 Q579.1094,559.8753 578.9219,559.6878 Q578.5938,559.3128 577.9844,559.094 Q577.375,558.8753 576.75,558.8753 Q575.9844,558.8753 575.3438,559.2034 Q574.7188,559.5315 574.2188,560.2815 Q573.7344,561.0315 573.7344,562.0628 L573.7344,563.1565 Q573.7344,564.3909 574.625,565.219 Q575.5156,566.0315 577.1094,566.0315 Q578.0469,566.0315 578.7031,565.7815 Q579.0938,565.6253 579.5156,565.1878 Q579.7813,564.9222 579.9219,564.844 Q580.0781,564.7659 580.2813,564.7659 Q580.6094,564.7659 580.8594,565.0315 Q581.125,565.2815 581.125,565.6253 Q581.125,565.969 580.7813,566.3753 Q580.2813,566.9534 579.4844,567.2815 Q578.4063,567.7347 577.1094,567.7347 Q575.5938,567.7347 574.3906,567.1097 Q573.4063,566.6097 572.7188,565.5472 Q572.0313,564.469 572.0313,563.1878 L572.0313,562.0315 Q572.0313,560.7034 572.6406,559.5628 Q573.2656,558.4065 574.3594,557.7972 Q575.4531,557.1722 576.6875,557.1722 Q577.4219,557.1722 578.0625,557.344 Q578.7188,557.5003 579.2656,557.8597 Z " fill="#000000"/><text fill="#000000" font-family="sans-serif" font-size="14" lengthAdjust="spacing" textLength="83" x="590.5" y="567.7132">Classification</text><line style="stroke:#181818;stroke-width:0.5;" x1="562.5" x2="675.5" y1="577.9847" y2="577.9847"/><line style="stroke:#181818;stroke-width:0.5;" x1="562.5" x2="675.5" y1="585.9847" y2="585.9847"/></g><!--MD5=[251454e98c15f29849fb35b1904d0020]
class Composition--><g id="elem_Composition"><rect codeLine="24" fill="#F1F1F1" height="48" id="Composition" rx="2.5" ry="2.5" style="stroke:#181818;stroke-width:0.5;" width="110" x="388" y="545.9847"/><ellipse cx="403" cy="561.9847" fill="#ADD1B2" rx="11" ry="11" style="stroke:#181818;stroke-width:1.0;"/><path d="M405.7656,557.8597 Q405.9219,557.6409 406.1094,557.5315 Q406.2969,557.4222 406.5156,557.4222 Q406.8906,557.4222 407.125,557.6878 Q407.3594,557.9378 407.3594,558.5472 L407.3594,560.0003 Q407.3594,560.6097 407.125,560.8753 Q406.8906,561.1409 406.5156,561.1409 Q406.1719,561.1409 405.9688,560.9378 Q405.7656,560.7503 405.6563,560.2347 Q405.6094,559.8753 405.4219,559.6878 Q405.0938,559.3128 404.4844,559.094 Q403.875,558.8753 403.25,558.8753 Q402.4844,558.8753 401.8438,559.2034 Q401.2188,559.5315 400.7188,560.2815 Q400.2344,561.0315 400.2344,562.0628 L400.2344,563.1565 Q400.2344,564.3909 401.125,565.219 Q402.0156,566.0315 403.6094,566.0315 Q404.5469,566.0315 405.2031,565.7815 Q405.5938,565.6253 406.0156,565.1878 Q406.2813,564.9222 406.4219,564.844 Q406.5781,564.7659 406.7813,564.7659 Q407.1094,564.7659 407.3594,565.0315 Q407.625,565.2815 407.625,565.6253 Q407.625,565.969 407.2813,566.3753 Q406.7813,566.9534 405.9844,567.2815 Q404.9063,567.7347 403.6094,567.7347 Q402.0938,567.7347 400.8906,567.1097 Q399.9063,566.6097 399.2188,565.5472 Q398.5313,564.469 398.5313,563.1878 L398.5313,562.0315 Q398.5313,560.7034 399.1406,559.5628 Q399.7656,558.4065 400.8594,557.7972 Q401.9531,557.1722 403.1875,557.1722 Q403.9219,557.1722 404.5625,557.344 Q405.2188,557.5003 405.7656,557.8597 Z " fill="#000000"/><text fill="#000000" font-family="sans-serif" font-size="14" lengthAdjust="spacing" textLength="78" x="417" y="567.7132">Composition</text><line style="stroke:#181818;stroke-width:0.5;" x1="389" x2="497" y1="577.9847" y2="577.9847"/><line style="stroke:#181818;stroke-width:0.5;" x1="389" x2="497" y1="585.9847" y2="585.9847"/></g><!--MD5=[eedde156c9dded963040b22578af45fa]
class Level--><g id="elem_Level"><rect codeLine="26" fill="#F1F1F1" height="48" id="Level" rx="2.5" ry="2.5" style="stroke:#181818;stroke-width:0.5;" width="66" x="1444" y="10.4847"/><ellipse cx="1459" cy="26.4847" fill="#ADD1B2" rx="11" ry="11" style="stroke:#181818;stroke-width:1.0;"/><path d="M1461.7656,22.3597 Q1461.9219,22.1409 1462.1094,22.0315 Q1462.2969,21.9222 1462.5156,21.9222 Q1462.8906,21.9222 1463.125,22.1878 Q1463.3594,22.4378 1463.3594,23.0472 L1463.3594,24.5003 Q1463.3594,25.1097 1463.125,25.3753 Q1462.8906,25.6409 1462.5156,25.6409 Q1462.1719,25.6409 1461.9688,25.4378 Q1461.7656,25.2503 1461.6563,24.7347 Q1461.6094,24.3753 1461.4219,24.1878 Q1461.0938,23.8128 1460.4844,23.594 Q1459.875,23.3753 1459.25,23.3753 Q1458.4844,23.3753 1457.8438,23.7034 Q1457.2188,24.0315 1456.7188,24.7815 Q1456.2344,25.5315 1456.2344,26.5628 L1456.2344,27.6565 Q1456.2344,28.8909 1457.125,29.719 Q1458.0156,30.5315 1459.6094,30.5315 Q1460.5469,30.5315 1461.2031,30.2815 Q1461.5938,30.1253 1462.0156,29.6878 Q1462.2813,29.4222 1462.4219,29.344 Q1462.5781,29.2659 1462.7813,29.2659 Q1463.1094,29.2659 1463.3594,29.5315 Q1463.625,29.7815 1463.625,30.1253 Q1463.625,30.469 1463.2813,30.8753 Q1462.7813,31.4534 1461.9844,31.7815 Q1460.9063,32.2347 1459.6094,32.2347 Q1458.0938,32.2347 1456.8906,31.6097 Q1455.9063,31.1097 1455.2188,30.0472 Q1454.5313,28.969 1454.5313,27.6878 L1454.5313,26.5315 Q1454.5313,25.2034 1455.1406,24.0628 Q1455.7656,22.9065 1456.8594,22.2972 Q1457.9531,21.6722 1459.1875,21.6722 Q1459.9219,21.6722 1460.5625,21.844 Q1461.2188,22.0003 1461.7656,22.3597 Z " fill="#000000"/><text fill="#000000" font-family="sans-serif" font-size="14" lengthAdjust="spacing" textLength="34" x="1473" y="32.2132">Level</text><line style="stroke:#181818;stroke-width:0.5;" x1="1445" x2="1509" y1="42.4847" y2="42.4847"/><line style="stroke:#181818;stroke-width:0.5;" x1="1445" x2="1509" y1="50.4847" y2="50.4847"/></g><!--MD5=[a273cb2d535cd0db32a65a079a20fa3f]
class Primary--><g id="elem_Primary"><rect codeLine="28" fill="#F1F1F1" height="65.6094" id="Primary" rx="2.5" ry="2.5" style="stroke:#181818;stroke-width:0.5;" width="90" x="1432" y="135.9847"/><ellipse cx="1451.5" cy="151.9847" fill="#ADD1B2" rx="11" ry="11" style="stroke:#181818;stroke-width:1.0;"/><path d="M1454.2656,147.8597 Q1454.4219,147.6409 1454.6094,147.5315 Q1454.7969,147.4222 1455.0156,147.4222 Q1455.3906,147.4222 1455.625,147.6878 Q1455.8594,147.9378 1455.8594,148.5472 L1455.8594,150.0003 Q1455.8594,150.6097 1455.625,150.8753 Q1455.3906,151.1409 1455.0156,151.1409 Q1454.6719,151.1409 1454.4688,150.9378 Q1454.2656,150.7503 1454.1563,150.2347 Q1454.1094,149.8753 1453.9219,149.6878 Q1453.5938,149.3128 1452.9844,149.094 Q1452.375,148.8753 1451.75,148.8753 Q1450.9844,148.8753 1450.3438,149.2034 Q1449.7188,149.5315 1449.2188,150.2815 Q1448.7344,151.0315 1448.7344,152.0628 L1448.7344,153.1565 Q1448.7344,154.3909 1449.625,155.219 Q1450.5156,156.0315 1452.1094,156.0315 Q1453.0469,156.0315 1453.7031,155.7815 Q1454.0938,155.6253 1454.5156,155.1878 Q1454.7813,154.9222 1454.9219,154.844 Q1455.0781,154.7659 1455.2813,154.7659 Q1455.6094,154.7659 1455.8594,155.0315 Q1456.125,155.2815 1456.125,155.6253 Q1456.125,155.969 1455.7813,156.3753 Q1455.2813,156.9534 1454.4844,157.2815 Q1453.4063,157.7347 1452.1094,157.7347 Q1450.5938,157.7347 1449.3906,157.1097 Q1448.4063,156.6097 1447.7188,155.5472 Q1447.0313,154.469 1447.0313,153.1878 L1447.0313,152.0315 Q1447.0313,150.7034 1447.6406,149.5628 Q1448.2656,148.4065 1449.3594,147.7972 Q1450.4531,147.1722 1451.6875,147.1722 Q1452.4219,147.1722 1453.0625,147.344 Q1453.7188,147.5003 1454.2656,147.8597 Z " fill="#000000"/><text fill="#000000" font-family="sans-serif" font-size="14" lengthAdjust="spacing" textLength="48" x="1466.5" y="157.7132">Primary</text><line style="stroke:#181818;stroke-width:0.5;" x1="1433" x2="1521" y1="167.9847" y2="167.9847"/><text fill="#000000" font-family="sans-serif" font-size="14" lengthAdjust="spacing" textLength="78" x="1438" y="186.5179">withKeyword</text><line style="stroke:#181818;stroke-width:0.5;" x1="1433" x2="1521" y1="193.594" y2="193.594"/></g><!--MD5=[322ff4561961666878e676a719041932]
class Secundary--><g id="elem_Secundary"><rect codeLine="32" fill="#F1F1F1" height="83.2188" id="Secundary" rx="2.5" ry="2.5" style="stroke:#181818;stroke-width:0.5;" width="100" x="1849" y="127.4847"/><ellipse cx="1864" cy="143.4847" fill="#ADD1B2" rx="11" ry="11" style="stroke:#181818;stroke-width:1.0;"/><path d="M1866.7656,139.3597 Q1866.9219,139.1409 1867.1094,139.0315 Q1867.2969,138.9222 1867.5156,138.9222 Q1867.8906,138.9222 1868.125,139.1878 Q1868.3594,139.4378 1868.3594,140.0472 L1868.3594,141.5003 Q1868.3594,142.1097 1868.125,142.3753 Q1867.8906,142.6409 1867.5156,142.6409 Q1867.1719,142.6409 1866.9688,142.4378 Q1866.7656,142.2503 1866.6563,141.7347 Q1866.6094,141.3753 1866.4219,141.1878 Q1866.0938,140.8128 1865.4844,140.594 Q1864.875,140.3753 1864.25,140.3753 Q1863.4844,140.3753 1862.8438,140.7034 Q1862.2188,141.0315 1861.7188,141.7815 Q1861.2344,142.5315 1861.2344,143.5628 L1861.2344,144.6565 Q1861.2344,145.8909 1862.125,146.719 Q1863.0156,147.5315 1864.6094,147.5315 Q1865.5469,147.5315 1866.2031,147.2815 Q1866.5938,147.1253 1867.0156,146.6878 Q1867.2813,146.4222 1867.4219,146.344 Q1867.5781,146.2659 1867.7813,146.2659 Q1868.1094,146.2659 1868.3594,146.5315 Q1868.625,146.7815 1868.625,147.1253 Q1868.625,147.469 1868.2813,147.8753 Q1867.7813,148.4534 1866.9844,148.7815 Q1865.9063,149.2347 1864.6094,149.2347 Q1863.0938,149.2347 1861.8906,148.6097 Q1860.9063,148.1097 1860.2188,147.0472 Q1859.5313,145.969 1859.5313,144.6878 L1859.5313,143.5315 Q1859.5313,142.2034 1860.1406,141.0628 Q1860.7656,139.9065 1861.8594,139.2972 Q1862.9531,138.6722 1864.1875,138.6722 Q1864.9219,138.6722 1865.5625,138.844 Q1866.2188,139.0003 1866.7656,139.3597 Z " fill="#000000"/><text fill="#000000" font-family="sans-serif" font-size="14" lengthAdjust="spacing" textLength="68" x="1878" y="149.2132">Secundary</text><line style="stroke:#181818;stroke-width:0.5;" x1="1850" x2="1948" y1="159.4847" y2="159.4847"/><text fill="#000000" font-family="sans-serif" font-size="14" lengthAdjust="spacing" textLength="78" x="1855" y="178.0179">withKeyword</text><text fill="#000000" font-family="sans-serif" font-size="14" lengthAdjust="spacing" textLength="83" x="1855" y="195.6272">withDefinition</text><line style="stroke:#181818;stroke-width:0.5;" x1="1850" x2="1948" y1="202.7034" y2="202.7034"/></g><!--MD5=[ea4af6a7584cddf1924ee10cf7a08ed2]
class Tertiary--><g id="elem_Tertiary"><rect codeLine="37" fill="#F1F1F1" height="100.8281" id="Tertiary" rx="2.5" ry="2.5" style="stroke:#181818;stroke-width:0.5;" width="109" x="2252.5" y="118.4847"/><ellipse cx="2280.1" cy="134.4847" fill="#ADD1B2" rx="11" ry="11" style="stroke:#181818;stroke-width:1.0;"/><path d="M2282.8656,130.3597 Q2283.0219,130.1409 2283.2094,130.0315 Q2283.3969,129.9222 2283.6156,129.9222 Q2283.9906,129.9222 2284.225,130.1878 Q2284.4594,130.4378 2284.4594,131.0472 L2284.4594,132.5003 Q2284.4594,133.1097 2284.225,133.3753 Q2283.9906,133.6409 2283.6156,133.6409 Q2283.2719,133.6409 2283.0688,133.4378 Q2282.8656,133.2503 2282.7563,132.7347 Q2282.7094,132.3753 2282.5219,132.1878 Q2282.1938,131.8128 2281.5844,131.594 Q2280.975,131.3753 2280.35,131.3753 Q2279.5844,131.3753 2278.9438,131.7034 Q2278.3188,132.0315 2277.8188,132.7815 Q2277.3344,133.5315 2277.3344,134.5628 L2277.3344,135.6565 Q2277.3344,136.8909 2278.225,137.719 Q2279.1156,138.5315 2280.7094,138.5315 Q2281.6469,138.5315 2282.3031,138.2815 Q2282.6938,138.1253 2283.1156,137.6878 Q2283.3813,137.4222 2283.5219,137.344 Q2283.6781,137.2659 2283.8813,137.2659 Q2284.2094,137.2659 2284.4594,137.5315 Q2284.725,137.7815 2284.725,138.1253 Q2284.725,138.469 2284.3813,138.8753 Q2283.8813,139.4534 2283.0844,139.7815 Q2282.0063,140.2347 2280.7094,140.2347 Q2279.1938,140.2347 2277.9906,139.6097 Q2277.0063,139.1097 2276.3188,138.0472 Q2275.6313,136.969 2275.6313,135.6878 L2275.6313,134.5315 Q2275.6313,133.2034 2276.2406,132.0628 Q2276.8656,130.9065 2277.9594,130.2972 Q2279.0531,129.6722 2280.2875,129.6722 Q2281.0219,129.6722 2281.6625,129.844 Q2282.3188,130.0003 2282.8656,130.3597 Z " fill="#000000"/><text fill="#000000" font-family="sans-serif" font-size="14" lengthAdjust="spacing" textLength="49" x="2296.9" y="140.2132">Tertiary</text><line style="stroke:#181818;stroke-width:0.5;" x1="2253.5" x2="2360.5" y1="150.4847" y2="150.4847"/><text fill="#000000" font-family="sans-serif" font-size="14" lengthAdjust="spacing" textLength="78" x="2258.5" y="169.0179">withKeyword</text><text fill="#000000" font-family="sans-serif" font-size="14" lengthAdjust="spacing" textLength="83" x="2258.5" y="186.6272">withDefinition</text><text fill="#000000" font-family="sans-serif" font-size="14" lengthAdjust="spacing" textLength="97" x="2258.5" y="204.2366">withJustification</text><line style="stroke:#181818;stroke-width:0.5;" x1="2253.5" x2="2360.5" y1="211.3128" y2="211.3128"/></g><!--MD5=[a8cb140b744031715f533a7b2982ca3a]
class DefinitionQuestion--><g id="elem_DefinitionQuestion"><rect codeLine="43" fill="#F1F1F1" height="100.8281" id="DefinitionQuestion" rx="2.5" ry="2.5" style="stroke:#181818;stroke-width:0.5;" width="174" x="1520" y="323.4847"/><ellipse cx="1546.7" cy="339.4847" fill="#ADD1B2" rx="11" ry="11" style="stroke:#181818;stroke-width:1.0;"/><path d="M1549.4656,335.3597 Q1549.6219,335.1409 1549.8094,335.0315 Q1549.9969,334.9222 1550.2156,334.9222 Q1550.5906,334.9222 1550.825,335.1878 Q1551.0594,335.4378 1551.0594,336.0472 L1551.0594,337.5003 Q1551.0594,338.1097 1550.825,338.3753 Q1550.5906,338.6409 1550.2156,338.6409 Q1549.8719,338.6409 1549.6688,338.4378 Q1549.4656,338.2503 1549.3563,337.7347 Q1549.3094,337.3753 1549.1219,337.1878 Q1548.7938,336.8128 1548.1844,336.594 Q1547.575,336.3753 1546.95,336.3753 Q1546.1844,336.3753 1545.5438,336.7034 Q1544.9188,337.0315 1544.4188,337.7815 Q1543.9344,338.5315 1543.9344,339.5628 L1543.9344,340.6565 Q1543.9344,341.8909 1544.825,342.719 Q1545.7156,343.5315 1547.3094,343.5315 Q1548.2469,343.5315 1548.9031,343.2815 Q1549.2938,343.1253 1549.7156,342.6878 Q1549.9813,342.4222 1550.1219,342.344 Q1550.2781,342.2659 1550.4813,342.2659 Q1550.8094,342.2659 1551.0594,342.5315 Q1551.325,342.7815 1551.325,343.1253 Q1551.325,343.469 1550.9813,343.8753 Q1550.4813,344.4534 1549.6844,344.7815 Q1548.6063,345.2347 1547.3094,345.2347 Q1545.7938,345.2347 1544.5906,344.6097 Q1543.6063,344.1097 1542.9188,343.0472 Q1542.2313,341.969 1542.2313,340.6878 L1542.2313,339.5315 Q1542.2313,338.2034 1542.8406,337.0628 Q1543.4656,335.9065 1544.5594,335.2972 Q1545.6531,334.6722 1546.8875,334.6722 Q1547.6219,334.6722 1548.2625,334.844 Q1548.9188,335.0003 1549.4656,335.3597 Z " fill="#000000"/><text fill="#000000" font-family="sans-serif" font-size="14" lengthAdjust="spacing" textLength="116" x="1563.3" y="345.2132">DefinitionQuestion</text><line style="stroke:#181818;stroke-width:0.5;" x1="1521" x2="1693" y1="355.4847" y2="355.4847"/><ellipse cx="1531" cy="369.7893" fill="none" rx="3" ry="3" style="stroke:#038048;stroke-width:1.0;"/><text fill="#000000" font-family="sans-serif" font-size="14" lengthAdjust="spacing" textLength="66" x="1540" y="374.0179">statement:</text><text fill="#000000" font-family="sans-serif" font-size="14" lengthAdjust="spacing" textLength="148" x="1540" y="391.6272">"¿Qué es KEYWORD?"</text><ellipse cx="1531" cy="405.0081" fill="none" rx="3" ry="3" style="stroke:#038048;stroke-width:1.0;"/><text fill="#000000" font-family="sans-serif" font-size="14" lengthAdjust="spacing" textLength="93" x="1540" y="409.2366">1 open answer</text><line style="stroke:#181818;stroke-width:0.5;" x1="1521" x2="1693" y1="416.3128" y2="416.3128"/></g><!--MD5=[bd8fe2044a8806fe1de229cb7e95533c]
class ReverseDefinitionQuestion--><g id="elem_ReverseDefinitionQuestion"><rect codeLine="49" fill="#F1F1F1" height="100.8281" id="ReverseDefinitionQuestion" rx="2.5" ry="2.5" style="stroke:#181818;stroke-width:0.5;" width="245" x="2104.5" y="323.4847"/><ellipse cx="2139.3" cy="339.4847" fill="#ADD1B2" rx="11" ry="11" style="stroke:#181818;stroke-width:1.0;"/><path d="M2142.0656,335.3597 Q2142.2219,335.1409 2142.4094,335.0315 Q2142.5969,334.9222 2142.8156,334.9222 Q2143.1906,334.9222 2143.425,335.1878 Q2143.6594,335.4378 2143.6594,336.0472 L2143.6594,337.5003 Q2143.6594,338.1097 2143.425,338.3753 Q2143.1906,338.6409 2142.8156,338.6409 Q2142.4719,338.6409 2142.2688,338.4378 Q2142.0656,338.2503 2141.9563,337.7347 Q2141.9094,337.3753 2141.7219,337.1878 Q2141.3938,336.8128 2140.7844,336.594 Q2140.175,336.3753 2139.55,336.3753 Q2138.7844,336.3753 2138.1438,336.7034 Q2137.5188,337.0315 2137.0188,337.7815 Q2136.5344,338.5315 2136.5344,339.5628 L2136.5344,340.6565 Q2136.5344,341.8909 2137.425,342.719 Q2138.3156,343.5315 2139.9094,343.5315 Q2140.8469,343.5315 2141.5031,343.2815 Q2141.8938,343.1253 2142.3156,342.6878 Q2142.5813,342.4222 2142.7219,342.344 Q2142.8781,342.2659 2143.0813,342.2659 Q2143.4094,342.2659 2143.6594,342.5315 Q2143.925,342.7815 2143.925,343.1253 Q2143.925,343.469 2143.5813,343.8753 Q2143.0813,344.4534 2142.2844,344.7815 Q2141.2063,345.2347 2139.9094,345.2347 Q2138.3938,345.2347 2137.1906,344.6097 Q2136.2063,344.1097 2135.5188,343.0472 Q2134.8313,341.969 2134.8313,340.6878 L2134.8313,339.5315 Q2134.8313,338.2034 2135.4406,337.0628 Q2136.0656,335.9065 2137.1594,335.2972 Q2138.2531,334.6722 2139.4875,334.6722 Q2140.2219,334.6722 2140.8625,334.844 Q2141.5188,335.0003 2142.0656,335.3597 Z " fill="#000000"/><text fill="#000000" font-family="sans-serif" font-size="14" lengthAdjust="spacing" textLength="169" x="2157.7" y="345.2132">ReverseDefinitionQuestion</text><line style="stroke:#181818;stroke-width:0.5;" x1="2105.5" x2="2348.5" y1="355.4847" y2="355.4847"/><ellipse cx="2115.5" cy="369.7893" fill="none" rx="3" ry="3" style="stroke:#038048;stroke-width:1.0;"/><text fill="#000000" font-family="sans-serif" font-size="14" lengthAdjust="spacing" textLength="66" x="2124.5" y="374.0179">statement:</text><text fill="#000000" font-family="sans-serif" font-size="14" lengthAdjust="spacing" textLength="219" x="2124.5" y="391.6272">"¿Qué es esta REALDEFINITION?"</text><ellipse cx="2115.5" cy="405.0081" fill="none" rx="3" ry="3" style="stroke:#038048;stroke-width:1.0;"/><text fill="#000000" font-family="sans-serif" font-size="14" lengthAdjust="spacing" textLength="93" x="2124.5" y="409.2366">1 open answer</text><line style="stroke:#181818;stroke-width:0.5;" x1="2105.5" x2="2348.5" y1="416.3128" y2="416.3128"/></g><!--MD5=[867bd5d96bb63ee04ed363da9aae7685]
class JustificationQuestion--><g id="elem_JustificationQuestion"><rect codeLine="55" fill="#F1F1F1" height="100.8281" id="JustificationQuestion" rx="2.5" ry="2.5" style="stroke:#181818;stroke-width:0.5;" width="340" x="1729" y="323.4847"/><ellipse cx="1829.75" cy="339.4847" fill="#ADD1B2" rx="11" ry="11" style="stroke:#181818;stroke-width:1.0;"/><path d="M1832.5156,335.3597 Q1832.6719,335.1409 1832.8594,335.0315 Q1833.0469,334.9222 1833.2656,334.9222 Q1833.6406,334.9222 1833.875,335.1878 Q1834.1094,335.4378 1834.1094,336.0472 L1834.1094,337.5003 Q1834.1094,338.1097 1833.875,338.3753 Q1833.6406,338.6409 1833.2656,338.6409 Q1832.9219,338.6409 1832.7188,338.4378 Q1832.5156,338.2503 1832.4063,337.7347 Q1832.3594,337.3753 1832.1719,337.1878 Q1831.8438,336.8128 1831.2344,336.594 Q1830.625,336.3753 1830,336.3753 Q1829.2344,336.3753 1828.5938,336.7034 Q1827.9688,337.0315 1827.4688,337.7815 Q1826.9844,338.5315 1826.9844,339.5628 L1826.9844,340.6565 Q1826.9844,341.8909 1827.875,342.719 Q1828.7656,343.5315 1830.3594,343.5315 Q1831.2969,343.5315 1831.9531,343.2815 Q1832.3438,343.1253 1832.7656,342.6878 Q1833.0313,342.4222 1833.1719,342.344 Q1833.3281,342.2659 1833.5313,342.2659 Q1833.8594,342.2659 1834.1094,342.5315 Q1834.375,342.7815 1834.375,343.1253 Q1834.375,343.469 1834.0313,343.8753 Q1833.5313,344.4534 1832.7344,344.7815 Q1831.6563,345.2347 1830.3594,345.2347 Q1828.8438,345.2347 1827.6406,344.6097 Q1826.6563,344.1097 1825.9688,343.0472 Q1825.2813,341.969 1825.2813,340.6878 L1825.2813,339.5315 Q1825.2813,338.2034 1825.8906,337.0628 Q1826.5156,335.9065 1827.6094,335.2972 Q1828.7031,334.6722 1829.9375,334.6722 Q1830.6719,334.6722 1831.3125,334.844 Q1831.9688,335.0003 1832.5156,335.3597 Z " fill="#000000"/><text fill="#000000" font-family="sans-serif" font-size="14" lengthAdjust="spacing" textLength="130" x="1850.25" y="345.2132">JustificationQuestion</text><line style="stroke:#181818;stroke-width:0.5;" x1="1730" x2="2068" y1="355.4847" y2="355.4847"/><ellipse cx="1740" cy="369.7893" fill="none" rx="3" ry="3" style="stroke:#038048;stroke-width:1.0;"/><text fill="#000000" font-family="sans-serif" font-size="14" lengthAdjust="spacing" textLength="66" x="1749" y="374.0179">statement:</text><text fill="#000000" font-family="sans-serif" font-size="14" lengthAdjust="spacing" textLength="314" x="1749" y="391.6272">"¿La KEYWORD es esta DEFINITION?¿Por qué?"</text><ellipse cx="1740" cy="405.0081" fill="none" rx="3" ry="3" style="stroke:#038048;stroke-width:1.0;"/><text fill="#000000" font-family="sans-serif" font-size="14" lengthAdjust="spacing" textLength="93" x="1749" y="409.2366">1 open answer</text><line style="stroke:#181818;stroke-width:0.5;" x1="1730" x2="2068" y1="416.3128" y2="416.3128"/></g><!--MD5=[30f2299a4a355cab2c3930c47a4b77eb]
class KeywordNotFakeDefinitionFakeJustQuestion--><g id="elem_KeywordNotFakeDefinitionFakeJustQuestion"><rect codeLine="61" fill="#F1F1F1" height="188.875" id="KeywordNotFakeDefinitionFakeJustQuestion" rx="2.5" ry="2.5" style="stroke:#181818;stroke-width:0.5;" width="381" x="2384.5" y="279.4847"/><ellipse cx="2430.75" cy="295.4847" fill="#ADD1B2" rx="11" ry="11" style="stroke:#181818;stroke-width:1.0;"/><path d="M2433.5156,291.3597 Q2433.6719,291.1409 2433.8594,291.0315 Q2434.0469,290.9222 2434.2656,290.9222 Q2434.6406,290.9222 2434.875,291.1878 Q2435.1094,291.4378 2435.1094,292.0472 L2435.1094,293.5003 Q2435.1094,294.1097 2434.875,294.3753 Q2434.6406,294.6409 2434.2656,294.6409 Q2433.9219,294.6409 2433.7188,294.4378 Q2433.5156,294.2503 2433.4063,293.7347 Q2433.3594,293.3753 2433.1719,293.1878 Q2432.8438,292.8128 2432.2344,292.594 Q2431.625,292.3753 2431,292.3753 Q2430.2344,292.3753 2429.5938,292.7034 Q2428.9688,293.0315 2428.4688,293.7815 Q2427.9844,294.5315 2427.9844,295.5628 L2427.9844,296.6565 Q2427.9844,297.8909 2428.875,298.719 Q2429.7656,299.5315 2431.3594,299.5315 Q2432.2969,299.5315 2432.9531,299.2815 Q2433.3438,299.1253 2433.7656,298.6878 Q2434.0313,298.4222 2434.1719,298.344 Q2434.3281,298.2659 2434.5313,298.2659 Q2434.8594,298.2659 2435.1094,298.5315 Q2435.375,298.7815 2435.375,299.1253 Q2435.375,299.469 2435.0313,299.8753 Q2434.5313,300.4534 2433.7344,300.7815 Q2432.6563,301.2347 2431.3594,301.2347 Q2429.8438,301.2347 2428.6406,300.6097 Q2427.6563,300.1097 2426.9688,299.0472 Q2426.2813,297.969 2426.2813,296.6878 L2426.2813,295.5315 Q2426.2813,294.2034 2426.8906,293.0628 Q2427.5156,291.9065 2428.6094,291.2972 Q2429.7031,290.6722 2430.9375,290.6722 Q2431.6719,290.6722 2432.3125,290.844 Q2432.9688,291.0003 2433.5156,291.3597 Z " fill="#000000"/><text fill="#000000" font-family="sans-serif" font-size="14" lengthAdjust="spacing" textLength="280" x="2451.25" y="301.2132">KeywordNotFakeDefinitionFakeJustQuestion</text><line style="stroke:#181818;stroke-width:0.5;" x1="2385.5" x2="2764.5" y1="311.4847" y2="311.4847"/><ellipse cx="2395.5" cy="325.7893" fill="none" rx="3" ry="3" style="stroke:#038048;stroke-width:1.0;"/><text fill="#000000" font-family="sans-serif" font-size="14" lengthAdjust="spacing" textLength="66" x="2404.5" y="330.0179">statement:</text><text fill="#000000" font-family="sans-serif" font-size="14" lengthAdjust="spacing" textLength="355" x="2404.5" y="347.6272">"Es cierto que la CLAVE no es FAKEDEFINITION porque</text><text fill="#000000" font-family="sans-serif" font-size="14" lengthAdjust="spacing" textLength="141" x="2404.5" y="365.2366">FAKEJUSTIFICACION"</text><text fill="#000000" font-family="sans-serif" font-size="14" lengthAdjust="spacing" textLength="117" x="2404.5" y="382.846">automatic answers</text><ellipse cx="2395.5" cy="396.2268" fill="none" rx="3" ry="3" style="stroke:#038048;stroke-width:1.0;"/><text fill="#000000" font-family="sans-serif" font-size="14" lengthAdjust="spacing" textLength="109" x="2404.5" y="400.4554">1 correct answer:</text><text fill="#000000" font-family="sans-serif" font-size="14" lengthAdjust="spacing" textLength="221" x="2404.5" y="418.0647">"No porque la justificación es falsa"</text><ellipse cx="2395.5" cy="431.4456" fill="none" rx="3" ry="3" style="stroke:#038048;stroke-width:1.0;"/><text fill="#000000" font-family="sans-serif" font-size="14" lengthAdjust="spacing" textLength="120" x="2404.5" y="435.6741">3 incorrect answer:</text><text fill="#000000" font-family="sans-serif" font-size="14" lengthAdjust="spacing" textLength="202" x="2404.5" y="453.2835">"Sí, por FAKEJUSTIFICATION"...</text><line style="stroke:#181818;stroke-width:0.5;" x1="2385.5" x2="2764.5" y1="460.3597" y2="460.3597"/></g><!--MD5=[70ff16a60c1506cd0cbed14afdc74b8c]
class ClassQuestion--><g id="elem_ClassQuestion"><rect codeLine="73" fill="#F1F1F1" height="100.8281" id="ClassQuestion" rx="2.5" ry="2.5" style="stroke:#181818;stroke-width:0.5;" width="275" x="1209.5" y="323.4847"/><ellipse cx="1296.75" cy="339.4847" fill="#ADD1B2" rx="11" ry="11" style="stroke:#181818;stroke-width:1.0;"/><path d="M1299.5156,335.3597 Q1299.6719,335.1409 1299.8594,335.0315 Q1300.0469,334.9222 1300.2656,334.9222 Q1300.6406,334.9222 1300.875,335.1878 Q1301.1094,335.4378 1301.1094,336.0472 L1301.1094,337.5003 Q1301.1094,338.1097 1300.875,338.3753 Q1300.6406,338.6409 1300.2656,338.6409 Q1299.9219,338.6409 1299.7188,338.4378 Q1299.5156,338.2503 1299.4063,337.7347 Q1299.3594,337.3753 1299.1719,337.1878 Q1298.8438,336.8128 1298.2344,336.594 Q1297.625,336.3753 1297,336.3753 Q1296.2344,336.3753 1295.5938,336.7034 Q1294.9688,337.0315 1294.4688,337.7815 Q1293.9844,338.5315 1293.9844,339.5628 L1293.9844,340.6565 Q1293.9844,341.8909 1294.875,342.719 Q1295.7656,343.5315 1297.3594,343.5315 Q1298.2969,343.5315 1298.9531,343.2815 Q1299.3438,343.1253 1299.7656,342.6878 Q1300.0313,342.4222 1300.1719,342.344 Q1300.3281,342.2659 1300.5313,342.2659 Q1300.8594,342.2659 1301.1094,342.5315 Q1301.375,342.7815 1301.375,343.1253 Q1301.375,343.469 1301.0313,343.8753 Q1300.5313,344.4534 1299.7344,344.7815 Q1298.6563,345.2347 1297.3594,345.2347 Q1295.8438,345.2347 1294.6406,344.6097 Q1293.6563,344.1097 1292.9688,343.0472 Q1292.2813,341.969 1292.2813,340.6878 L1292.2813,339.5315 Q1292.2813,338.2034 1292.8906,337.0628 Q1293.5156,335.9065 1294.6094,335.2972 Q1295.7031,334.6722 1296.9375,334.6722 Q1297.6719,334.6722 1298.3125,334.844 Q1298.9688,335.0003 1299.5156,335.3597 Z " fill="#000000"/><text fill="#000000" font-family="sans-serif" font-size="14" lengthAdjust="spacing" textLength="92" x="1317.25" y="345.2132">ClassQuestion</text><line style="stroke:#181818;stroke-width:0.5;" x1="1210.5" x2="1483.5" y1="355.4847" y2="355.4847"/><ellipse cx="1220.5" cy="369.7893" fill="none" rx="3" ry="3" style="stroke:#038048;stroke-width:1.0;"/><text fill="#000000" font-family="sans-serif" font-size="14" lengthAdjust="spacing" textLength="66" x="1229.5" y="374.0179">statement:</text><text fill="#000000" font-family="sans-serif" font-size="14" lengthAdjust="spacing" textLength="249" x="1229.5" y="391.6272">"Dime los distintos tipos de KEYWORD"</text><ellipse cx="1220.5" cy="405.0081" fill="none" rx="3" ry="3" style="stroke:#038048;stroke-width:1.0;"/><text fill="#000000" font-family="sans-serif" font-size="14" lengthAdjust="spacing" textLength="93" x="1229.5" y="409.2366">1 open answer</text><line style="stroke:#181818;stroke-width:0.5;" x1="1210.5" x2="1483.5" y1="416.3128" y2="416.3128"/></g><!--MD5=[fc7123defb831ecdd44b2d9bcef6cceb]
class Question--><g id="elem_Question"><rect codeLine="79" fill="#F1F1F1" height="48" id="Question" rx="2.5" ry="2.5" style="stroke:#181818;stroke-width:0.5;" width="89" x="838.5" y="144.9847"/><ellipse cx="853.5" cy="160.9847" fill="#ADD1B2" rx="11" ry="11" style="stroke:#181818;stroke-width:1.0;"/><path d="M856.2656,156.8597 Q856.4219,156.6409 856.6094,156.5315 Q856.7969,156.4222 857.0156,156.4222 Q857.3906,156.4222 857.625,156.6878 Q857.8594,156.9378 857.8594,157.5472 L857.8594,159.0003 Q857.8594,159.6097 857.625,159.8753 Q857.3906,160.1409 857.0156,160.1409 Q856.6719,160.1409 856.4688,159.9378 Q856.2656,159.7503 856.1563,159.2347 Q856.1094,158.8753 855.9219,158.6878 Q855.5938,158.3128 854.9844,158.094 Q854.375,157.8753 853.75,157.8753 Q852.9844,157.8753 852.3438,158.2034 Q851.7188,158.5315 851.2188,159.2815 Q850.7344,160.0315 850.7344,161.0628 L850.7344,162.1565 Q850.7344,163.3909 851.625,164.219 Q852.5156,165.0315 854.1094,165.0315 Q855.0469,165.0315 855.7031,164.7815 Q856.0938,164.6253 856.5156,164.1878 Q856.7813,163.9222 856.9219,163.844 Q857.0781,163.7659 857.2813,163.7659 Q857.6094,163.7659 857.8594,164.0315 Q858.125,164.2815 858.125,164.6253 Q858.125,164.969 857.7813,165.3753 Q857.2813,165.9534 856.4844,166.2815 Q855.4063,166.7347 854.1094,166.7347 Q852.5938,166.7347 851.3906,166.1097 Q850.4063,165.6097 849.7188,164.5472 Q849.0313,163.469 849.0313,162.1878 L849.0313,161.0315 Q849.0313,159.7034 849.6406,158.5628 Q850.2656,157.4065 851.3594,156.7972 Q852.4531,156.1722 853.6875,156.1722 Q854.4219,156.1722 855.0625,156.344 Q855.7188,156.5003 856.2656,156.8597 Z " fill="#000000"/><text fill="#000000" font-family="sans-serif" font-size="14" lengthAdjust="spacing" textLength="57" x="867.5" y="166.7132">Question</text><line style="stroke:#181818;stroke-width:0.5;" x1="839.5" x2="926.5" y1="176.9847" y2="176.9847"/><line style="stroke:#181818;stroke-width:0.5;" x1="839.5" x2="926.5" y1="184.9847" y2="184.9847"/></g><!--MD5=[a61a298976b7d1d94498f45c2ebfa10b]
class Statement--><g id="elem_Statement"><rect codeLine="81" fill="#F1F1F1" height="48" id="Statement" rx="2.5" ry="2.5" style="stroke:#181818;stroke-width:0.5;" width="96" x="686" y="349.9847"/><ellipse cx="701" cy="365.9847" fill="#ADD1B2" rx="11" ry="11" style="stroke:#181818;stroke-width:1.0;"/><path d="M703.7656,361.8597 Q703.9219,361.6409 704.1094,361.5315 Q704.2969,361.4222 704.5156,361.4222 Q704.8906,361.4222 705.125,361.6878 Q705.3594,361.9378 705.3594,362.5472 L705.3594,364.0003 Q705.3594,364.6097 705.125,364.8753 Q704.8906,365.1409 704.5156,365.1409 Q704.1719,365.1409 703.9688,364.9378 Q703.7656,364.7503 703.6563,364.2347 Q703.6094,363.8753 703.4219,363.6878 Q703.0938,363.3128 702.4844,363.094 Q701.875,362.8753 701.25,362.8753 Q700.4844,362.8753 699.8438,363.2034 Q699.2188,363.5315 698.7188,364.2815 Q698.2344,365.0315 698.2344,366.0628 L698.2344,367.1565 Q698.2344,368.3909 699.125,369.219 Q700.0156,370.0315 701.6094,370.0315 Q702.5469,370.0315 703.2031,369.7815 Q703.5938,369.6253 704.0156,369.1878 Q704.2813,368.9222 704.4219,368.844 Q704.5781,368.7659 704.7813,368.7659 Q705.1094,368.7659 705.3594,369.0315 Q705.625,369.2815 705.625,369.6253 Q705.625,369.969 705.2813,370.3753 Q704.7813,370.9534 703.9844,371.2815 Q702.9063,371.7347 701.6094,371.7347 Q700.0938,371.7347 698.8906,371.1097 Q697.9063,370.6097 697.2188,369.5472 Q696.5313,368.469 696.5313,367.1878 L696.5313,366.0315 Q696.5313,364.7034 697.1406,363.5628 Q697.7656,362.4065 698.8594,361.7972 Q699.9531,361.1722 701.1875,361.1722 Q701.9219,361.1722 702.5625,361.344 Q703.2188,361.5003 703.7656,361.8597 Z " fill="#000000"/><text fill="#000000" font-family="sans-serif" font-size="14" lengthAdjust="spacing" textLength="64" x="715" y="371.7132">Statement</text><line style="stroke:#181818;stroke-width:0.5;" x1="687" x2="781" y1="381.9847" y2="381.9847"/><line style="stroke:#181818;stroke-width:0.5;" x1="687" x2="781" y1="389.9847" y2="389.9847"/></g><!--MD5=[f9fadfa5a66b7e5a67b370cd443ffe52]
class Answer--><g id="elem_Answer"><rect codeLine="83" fill="#F1F1F1" height="48" id="Answer" rx="2.5" ry="2.5" style="stroke:#181818;stroke-width:0.5;" width="78" x="892" y="349.9847"/><ellipse cx="907" cy="365.9847" fill="#ADD1B2" rx="11" ry="11" style="stroke:#181818;stroke-width:1.0;"/><path d="M909.7656,361.8597 Q909.9219,361.6409 910.1094,361.5315 Q910.2969,361.4222 910.5156,361.4222 Q910.8906,361.4222 911.125,361.6878 Q911.3594,361.9378 911.3594,362.5472 L911.3594,364.0003 Q911.3594,364.6097 911.125,364.8753 Q910.8906,365.1409 910.5156,365.1409 Q910.1719,365.1409 909.9688,364.9378 Q909.7656,364.7503 909.6563,364.2347 Q909.6094,363.8753 909.4219,363.6878 Q909.0938,363.3128 908.4844,363.094 Q907.875,362.8753 907.25,362.8753 Q906.4844,362.8753 905.8438,363.2034 Q905.2188,363.5315 904.7188,364.2815 Q904.2344,365.0315 904.2344,366.0628 L904.2344,367.1565 Q904.2344,368.3909 905.125,369.219 Q906.0156,370.0315 907.6094,370.0315 Q908.5469,370.0315 909.2031,369.7815 Q909.5938,369.6253 910.0156,369.1878 Q910.2813,368.9222 910.4219,368.844 Q910.5781,368.7659 910.7813,368.7659 Q911.1094,368.7659 911.3594,369.0315 Q911.625,369.2815 911.625,369.6253 Q911.625,369.969 911.2813,370.3753 Q910.7813,370.9534 909.9844,371.2815 Q908.9063,371.7347 907.6094,371.7347 Q906.0938,371.7347 904.8906,371.1097 Q903.9063,370.6097 903.2188,369.5472 Q902.5313,368.469 902.5313,367.1878 L902.5313,366.0315 Q902.5313,364.7034 903.1406,363.5628 Q903.7656,362.4065 904.8594,361.7972 Q905.9531,361.1722 907.1875,361.1722 Q907.9219,361.1722 908.5625,361.344 Q909.2188,361.5003 909.7656,361.8597 Z " fill="#000000"/><text fill="#000000" font-family="sans-serif" font-size="14" lengthAdjust="spacing" textLength="46" x="921" y="371.7132">Answer</text><line style="stroke:#181818;stroke-width:0.5;" x1="893" x2="969" y1="381.9847" y2="381.9847"/><line style="stroke:#181818;stroke-width:0.5;" x1="893" x2="969" y1="389.9847" y2="389.9847"/></g><!--MD5=[bc629657279eaa9349f412646650f2c5]
class Correct--><g id="elem_Correct"><rect codeLine="85" fill="#F1F1F1" height="48" id="Correct" rx="2.5" ry="2.5" style="stroke:#181818;stroke-width:0.5;" width="79" x="837.5" y="671.4847"/><ellipse cx="852.5" cy="687.4847" fill="#ADD1B2" rx="11" ry="11" style="stroke:#181818;stroke-width:1.0;"/><path d="M855.2656,683.3597 Q855.4219,683.1409 855.6094,683.0315 Q855.7969,682.9222 856.0156,682.9222 Q856.3906,682.9222 856.625,683.1878 Q856.8594,683.4378 856.8594,684.0472 L856.8594,685.5003 Q856.8594,686.1097 856.625,686.3753 Q856.3906,686.6409 856.0156,686.6409 Q855.6719,686.6409 855.4688,686.4378 Q855.2656,686.2503 855.1563,685.7347 Q855.1094,685.3753 854.9219,685.1878 Q854.5938,684.8128 853.9844,684.594 Q853.375,684.3753 852.75,684.3753 Q851.9844,684.3753 851.3438,684.7034 Q850.7188,685.0315 850.2188,685.7815 Q849.7344,686.5315 849.7344,687.5628 L849.7344,688.6565 Q849.7344,689.8909 850.625,690.719 Q851.5156,691.5315 853.1094,691.5315 Q854.0469,691.5315 854.7031,691.2815 Q855.0938,691.1253 855.5156,690.6878 Q855.7813,690.4222 855.9219,690.344 Q856.0781,690.2659 856.2813,690.2659 Q856.6094,690.2659 856.8594,690.5315 Q857.125,690.7815 857.125,691.1253 Q857.125,691.469 856.7813,691.8753 Q856.2813,692.4534 855.4844,692.7815 Q854.4063,693.2347 853.1094,693.2347 Q851.5938,693.2347 850.3906,692.6097 Q849.4063,692.1097 848.7188,691.0472 Q848.0313,689.969 848.0313,688.6878 L848.0313,687.5315 Q848.0313,686.2034 848.6406,685.0628 Q849.2656,683.9065 850.3594,683.2972 Q851.4531,682.6722 852.6875,682.6722 Q853.4219,682.6722 854.0625,682.844 Q854.7188,683.0003 855.2656,683.3597 Z " fill="#000000"/><text fill="#000000" font-family="sans-serif" font-size="14" lengthAdjust="spacing" textLength="47" x="866.5" y="693.2132">Correct</text><line style="stroke:#181818;stroke-width:0.5;" x1="838.5" x2="915.5" y1="703.4847" y2="703.4847"/><line style="stroke:#181818;stroke-width:0.5;" x1="838.5" x2="915.5" y1="711.4847" y2="711.4847"/></g><!--MD5=[37923dc032bbfca87d4413e584fa2cda]
class Incorrect--><g id="elem_Incorrect"><rect codeLine="87" fill="#F1F1F1" height="48" id="Incorrect" rx="2.5" ry="2.5" style="stroke:#181818;stroke-width:0.5;" width="87" x="1043.5" y="671.4847"/><ellipse cx="1058.5" cy="687.4847" fill="#ADD1B2" rx="11" ry="11" style="stroke:#181818;stroke-width:1.0;"/><path d="M1061.2656,683.3597 Q1061.4219,683.1409 1061.6094,683.0315 Q1061.7969,682.9222 1062.0156,682.9222 Q1062.3906,682.9222 1062.625,683.1878 Q1062.8594,683.4378 1062.8594,684.0472 L1062.8594,685.5003 Q1062.8594,686.1097 1062.625,686.3753 Q1062.3906,686.6409 1062.0156,686.6409 Q1061.6719,686.6409 1061.4688,686.4378 Q1061.2656,686.2503 1061.1563,685.7347 Q1061.1094,685.3753 1060.9219,685.1878 Q1060.5938,684.8128 1059.9844,684.594 Q1059.375,684.3753 1058.75,684.3753 Q1057.9844,684.3753 1057.3438,684.7034 Q1056.7188,685.0315 1056.2188,685.7815 Q1055.7344,686.5315 1055.7344,687.5628 L1055.7344,688.6565 Q1055.7344,689.8909 1056.625,690.719 Q1057.5156,691.5315 1059.1094,691.5315 Q1060.0469,691.5315 1060.7031,691.2815 Q1061.0938,691.1253 1061.5156,690.6878 Q1061.7813,690.4222 1061.9219,690.344 Q1062.0781,690.2659 1062.2813,690.2659 Q1062.6094,690.2659 1062.8594,690.5315 Q1063.125,690.7815 1063.125,691.1253 Q1063.125,691.469 1062.7813,691.8753 Q1062.2813,692.4534 1061.4844,692.7815 Q1060.4063,693.2347 1059.1094,693.2347 Q1057.5938,693.2347 1056.3906,692.6097 Q1055.4063,692.1097 1054.7188,691.0472 Q1054.0313,689.969 1054.0313,688.6878 L1054.0313,687.5315 Q1054.0313,686.2034 1054.6406,685.0628 Q1055.2656,683.9065 1056.3594,683.2972 Q1057.4531,682.6722 1058.6875,682.6722 Q1059.4219,682.6722 1060.0625,682.844 Q1060.7188,683.0003 1061.2656,683.3597 Z " fill="#000000"/><text fill="#000000" font-family="sans-serif" font-size="14" lengthAdjust="spacing" textLength="55" x="1072.5" y="693.2132">Incorrect</text><line style="stroke:#181818;stroke-width:0.5;" x1="1044.5" x2="1129.5" y1="703.4847" y2="703.4847"/><line style="stroke:#181818;stroke-width:0.5;" x1="1044.5" x2="1129.5" y1="711.4847" y2="711.4847"/></g><!--MD5=[2ce80c24a07354849fabb37efd45166e]
class AnswersToReviewDefinition--><g id="elem_AnswersToReviewDefinition"><rect codeLine="89" fill="#F1F1F1" height="83.2188" id="AnswersToReviewDefinition" rx="2.5" ry="2.5" style="stroke:#181818;stroke-width:0.5;" width="206" x="1542" y="528.4847"/><ellipse cx="1557" cy="544.4847" fill="#ADD1B2" rx="11" ry="11" style="stroke:#181818;stroke-width:1.0;"/><path d="M1559.7656,540.3597 Q1559.9219,540.1409 1560.1094,540.0315 Q1560.2969,539.9222 1560.5156,539.9222 Q1560.8906,539.9222 1561.125,540.1878 Q1561.3594,540.4378 1561.3594,541.0472 L1561.3594,542.5003 Q1561.3594,543.1097 1561.125,543.3753 Q1560.8906,543.6409 1560.5156,543.6409 Q1560.1719,543.6409 1559.9688,543.4378 Q1559.7656,543.2503 1559.6563,542.7347 Q1559.6094,542.3753 1559.4219,542.1878 Q1559.0938,541.8128 1558.4844,541.594 Q1557.875,541.3753 1557.25,541.3753 Q1556.4844,541.3753 1555.8438,541.7034 Q1555.2188,542.0315 1554.7188,542.7815 Q1554.2344,543.5315 1554.2344,544.5628 L1554.2344,545.6565 Q1554.2344,546.8909 1555.125,547.719 Q1556.0156,548.5315 1557.6094,548.5315 Q1558.5469,548.5315 1559.2031,548.2815 Q1559.5938,548.1253 1560.0156,547.6878 Q1560.2813,547.4222 1560.4219,547.344 Q1560.5781,547.2659 1560.7813,547.2659 Q1561.1094,547.2659 1561.3594,547.5315 Q1561.625,547.7815 1561.625,548.1253 Q1561.625,548.469 1561.2813,548.8753 Q1560.7813,549.4534 1559.9844,549.7815 Q1558.9063,550.2347 1557.6094,550.2347 Q1556.0938,550.2347 1554.8906,549.6097 Q1553.9063,549.1097 1553.2188,548.0472 Q1552.5313,546.969 1552.5313,545.6878 L1552.5313,544.5315 Q1552.5313,543.2034 1553.1406,542.0628 Q1553.7656,540.9065 1554.8594,540.2972 Q1555.9531,539.6722 1557.1875,539.6722 Q1557.9219,539.6722 1558.5625,539.844 Q1559.2188,540.0003 1559.7656,540.3597 Z " fill="#000000"/><text fill="#000000" font-family="sans-serif" font-size="14" lengthAdjust="spacing" textLength="174" x="1571" y="550.2132">AnswersToReviewDefinition</text><line style="stroke:#181818;stroke-width:0.5;" x1="1543" x2="1747" y1="560.4847" y2="560.4847"/><text fill="#000000" font-family="sans-serif" font-size="14" lengthAdjust="spacing" textLength="52" x="1548" y="579.0179">answers</text><line style="stroke:#181818;stroke-width:0.5;" x1="1543" x2="1747" y1="586.094" y2="586.094"/><text fill="#000000" font-family="sans-serif" font-size="14" lengthAdjust="spacing" textLength="145" x="1548" y="604.6272">addDefinition(keyword)</text></g><!--MD5=[bcd35c7b4ab3544289d50ae246643a92]
class AnswersToReviewJustification--><g id="elem_AnswersToReviewJustification"><rect codeLine="94" fill="#F1F1F1" height="83.2188" id="AnswersToReviewJustification" rx="2.5" ry="2.5" style="stroke:#181818;stroke-width:0.5;" width="232" x="1783" y="528.4847"/><ellipse cx="1803.4" cy="544.4847" fill="#ADD1B2" rx="11" ry="11" style="stroke:#181818;stroke-width:1.0;"/><path d="M1806.1656,540.3597 Q1806.3219,540.1409 1806.5094,540.0315 Q1806.6969,539.9222 1806.9156,539.9222 Q1807.2906,539.9222 1807.525,540.1878 Q1807.7594,540.4378 1807.7594,541.0472 L1807.7594,542.5003 Q1807.7594,543.1097 1807.525,543.3753 Q1807.2906,543.6409 1806.9156,543.6409 Q1806.5719,543.6409 1806.3688,543.4378 Q1806.1656,543.2503 1806.0563,542.7347 Q1806.0094,542.3753 1805.8219,542.1878 Q1805.4938,541.8128 1804.8844,541.594 Q1804.275,541.3753 1803.65,541.3753 Q1802.8844,541.3753 1802.2438,541.7034 Q1801.6188,542.0315 1801.1188,542.7815 Q1800.6344,543.5315 1800.6344,544.5628 L1800.6344,545.6565 Q1800.6344,546.8909 1801.525,547.719 Q1802.4156,548.5315 1804.0094,548.5315 Q1804.9469,548.5315 1805.6031,548.2815 Q1805.9938,548.1253 1806.4156,547.6878 Q1806.6813,547.4222 1806.8219,547.344 Q1806.9781,547.2659 1807.1813,547.2659 Q1807.5094,547.2659 1807.7594,547.5315 Q1808.025,547.7815 1808.025,548.1253 Q1808.025,548.469 1807.6813,548.8753 Q1807.1813,549.4534 1806.3844,549.7815 Q1805.3063,550.2347 1804.0094,550.2347 Q1802.4938,550.2347 1801.2906,549.6097 Q1800.3063,549.1097 1799.6188,548.0472 Q1798.9313,546.969 1798.9313,545.6878 L1798.9313,544.5315 Q1798.9313,543.2034 1799.5406,542.0628 Q1800.1656,540.9065 1801.2594,540.2972 Q1802.3531,539.6722 1803.5875,539.6722 Q1804.3219,539.6722 1804.9625,539.844 Q1805.6188,540.0003 1806.1656,540.3597 Z " fill="#000000"/><text fill="#000000" font-family="sans-serif" font-size="14" lengthAdjust="spacing" textLength="188" x="1818.6" y="550.2132">AnswersToReviewJustification</text><line style="stroke:#181818;stroke-width:0.5;" x1="1784" x2="2014" y1="560.4847" y2="560.4847"/><text fill="#000000" font-family="sans-serif" font-size="14" lengthAdjust="spacing" textLength="52" x="1789" y="579.0179">answers</text><line style="stroke:#181818;stroke-width:0.5;" x1="1784" x2="2014" y1="586.094" y2="586.094"/><text fill="#000000" font-family="sans-serif" font-size="14" lengthAdjust="spacing" textLength="220" x="1789" y="604.6272">addJustification(keyword,definition)</text></g><!--MD5=[8310b7cf07c641318b6d6107750a43d5]
class AnswerToReviewIncorrectAnswer--><g id="elem_AnswerToReviewIncorrectAnswer"><rect codeLine="99" fill="#F1F1F1" height="83.2188" id="AnswerToReviewIncorrectAnswer" rx="2.5" ry="2.5" style="stroke:#181818;stroke-width:0.5;" width="304" x="2075" y="528.4847"/><ellipse cx="2118.35" cy="544.4847" fill="#ADD1B2" rx="11" ry="11" style="stroke:#181818;stroke-width:1.0;"/><path d="M2121.1156,540.3597 Q2121.2719,540.1409 2121.4594,540.0315 Q2121.6469,539.9222 2121.8656,539.9222 Q2122.2406,539.9222 2122.475,540.1878 Q2122.7094,540.4378 2122.7094,541.0472 L2122.7094,542.5003 Q2122.7094,543.1097 2122.475,543.3753 Q2122.2406,543.6409 2121.8656,543.6409 Q2121.5219,543.6409 2121.3188,543.4378 Q2121.1156,543.2503 2121.0063,542.7347 Q2120.9594,542.3753 2120.7719,542.1878 Q2120.4438,541.8128 2119.8344,541.594 Q2119.225,541.3753 2118.6,541.3753 Q2117.8344,541.3753 2117.1938,541.7034 Q2116.5688,542.0315 2116.0688,542.7815 Q2115.5844,543.5315 2115.5844,544.5628 L2115.5844,545.6565 Q2115.5844,546.8909 2116.475,547.719 Q2117.3656,548.5315 2118.9594,548.5315 Q2119.8969,548.5315 2120.5531,548.2815 Q2120.9438,548.1253 2121.3656,547.6878 Q2121.6313,547.4222 2121.7719,547.344 Q2121.9281,547.2659 2122.1313,547.2659 Q2122.4594,547.2659 2122.7094,547.5315 Q2122.975,547.7815 2122.975,548.1253 Q2122.975,548.469 2122.6313,548.8753 Q2122.1313,549.4534 2121.3344,549.7815 Q2120.2563,550.2347 2118.9594,550.2347 Q2117.4438,550.2347 2116.2406,549.6097 Q2115.2563,549.1097 2114.5688,548.0472 Q2113.8813,546.969 2113.8813,545.6878 L2113.8813,544.5315 Q2113.8813,543.2034 2114.4906,542.0628 Q2115.1156,540.9065 2116.2094,540.2972 Q2117.3031,539.6722 2118.5375,539.6722 Q2119.2719,539.6722 2119.9125,539.844 Q2120.5688,540.0003 2121.1156,540.3597 Z " fill="#000000"/><text fill="#000000" font-family="sans-serif" font-size="14" lengthAdjust="spacing" textLength="209" x="2138.65" y="550.2132">AnswerToReviewIncorrectAnswer</text><line style="stroke:#181818;stroke-width:0.5;" x1="2076" x2="2378" y1="560.4847" y2="560.4847"/><text fill="#000000" font-family="sans-serif" font-size="14" lengthAdjust="spacing" textLength="52" x="2081" y="579.0179">answers</text><line style="stroke:#181818;stroke-width:0.5;" x1="2076" x2="2378" y1="586.094" y2="586.094"/><text fill="#000000" font-family="sans-serif" font-size="14" lengthAdjust="spacing" textLength="292" x="2081" y="604.6272">addFakeKeyword(AutomaticReverseQuestion)</text></g><!--MD5=[081261f86289547ab7d66d80eec3f4c9]
class AnswersToReviewClasses--><g id="elem_AnswersToReviewClasses"><rect codeLine="104" fill="#F1F1F1" height="83.2188" id="AnswersToReviewClasses" rx="2.5" ry="2.5" style="stroke:#181818;stroke-width:0.5;" width="320" x="1187" y="528.4847"/><ellipse cx="1260.25" cy="544.4847" fill="#ADD1B2" rx="11" ry="11" style="stroke:#181818;stroke-width:1.0;"/><path d="M1263.0156,540.3597 Q1263.1719,540.1409 1263.3594,540.0315 Q1263.5469,539.9222 1263.7656,539.9222 Q1264.1406,539.9222 1264.375,540.1878 Q1264.6094,540.4378 1264.6094,541.0472 L1264.6094,542.5003 Q1264.6094,543.1097 1264.375,543.3753 Q1264.1406,543.6409 1263.7656,543.6409 Q1263.4219,543.6409 1263.2188,543.4378 Q1263.0156,543.2503 1262.9063,542.7347 Q1262.8594,542.3753 1262.6719,542.1878 Q1262.3438,541.8128 1261.7344,541.594 Q1261.125,541.3753 1260.5,541.3753 Q1259.7344,541.3753 1259.0938,541.7034 Q1258.4688,542.0315 1257.9688,542.7815 Q1257.4844,543.5315 1257.4844,544.5628 L1257.4844,545.6565 Q1257.4844,546.8909 1258.375,547.719 Q1259.2656,548.5315 1260.8594,548.5315 Q1261.7969,548.5315 1262.4531,548.2815 Q1262.8438,548.1253 1263.2656,547.6878 Q1263.5313,547.4222 1263.6719,547.344 Q1263.8281,547.2659 1264.0313,547.2659 Q1264.3594,547.2659 1264.6094,547.5315 Q1264.875,547.7815 1264.875,548.1253 Q1264.875,548.469 1264.5313,548.8753 Q1264.0313,549.4534 1263.2344,549.7815 Q1262.1563,550.2347 1260.8594,550.2347 Q1259.3438,550.2347 1258.1406,549.6097 Q1257.1563,549.1097 1256.4688,548.0472 Q1255.7813,546.969 1255.7813,545.6878 L1255.7813,544.5315 Q1255.7813,543.2034 1256.3906,542.0628 Q1257.0156,540.9065 1258.1094,540.2972 Q1259.2031,539.6722 1260.4375,539.6722 Q1261.1719,539.6722 1261.8125,539.844 Q1262.4688,540.0003 1263.0156,540.3597 Z " fill="#000000"/><text fill="#000000" font-family="sans-serif" font-size="14" lengthAdjust="spacing" textLength="165" x="1280.75" y="550.2132">AnswersToReviewClasses</text><line style="stroke:#181818;stroke-width:0.5;" x1="1188" x2="1506" y1="560.4847" y2="560.4847"/><text fill="#000000" font-family="sans-serif" font-size="14" lengthAdjust="spacing" textLength="52" x="1193" y="579.0179">answers</text><line style="stroke:#181818;stroke-width:0.5;" x1="1188" x2="1506" y1="586.094" y2="586.094"/><text fill="#000000" font-family="sans-serif" font-size="14" lengthAdjust="spacing" textLength="308" x="1193" y="604.6272">addClassification(otherConceptKeyword,relation)</text></g><!--MD5=[f7b1256a464262a81d5827fb39e684fb]
class Open--><g id="elem_Open"><rect fill="#F1F1F1" height="48" id="Open" rx="2.5" ry="2.5" style="stroke:#181818;stroke-width:0.5;" width="67" x="1013.5" y="545.9847"/><ellipse cx="1028.5" cy="561.9847" fill="#ADD1B2" rx="11" ry="11" style="stroke:#181818;stroke-width:1.0;"/><path d="M1031.2656,557.8597 Q1031.4219,557.6409 1031.6094,557.5315 Q1031.7969,557.4222 1032.0156,557.4222 Q1032.3906,557.4222 1032.625,557.6878 Q1032.8594,557.9378 1032.8594,558.5472 L1032.8594,560.0003 Q1032.8594,560.6097 1032.625,560.8753 Q1032.3906,561.1409 1032.0156,561.1409 Q1031.6719,561.1409 1031.4688,560.9378 Q1031.2656,560.7503 1031.1563,560.2347 Q1031.1094,559.8753 1030.9219,559.6878 Q1030.5938,559.3128 1029.9844,559.094 Q1029.375,558.8753 1028.75,558.8753 Q1027.9844,558.8753 1027.3438,559.2034 Q1026.7188,559.5315 1026.2188,560.2815 Q1025.7344,561.0315 1025.7344,562.0628 L1025.7344,563.1565 Q1025.7344,564.3909 1026.625,565.219 Q1027.5156,566.0315 1029.1094,566.0315 Q1030.0469,566.0315 1030.7031,565.7815 Q1031.0938,565.6253 1031.5156,565.1878 Q1031.7813,564.9222 1031.9219,564.844 Q1032.0781,564.7659 1032.2813,564.7659 Q1032.6094,564.7659 1032.8594,565.0315 Q1033.125,565.2815 1033.125,565.6253 Q1033.125,565.969 1032.7813,566.3753 Q1032.2813,566.9534 1031.4844,567.2815 Q1030.4063,567.7347 1029.1094,567.7347 Q1027.5938,567.7347 1026.3906,567.1097 Q1025.4063,566.6097 1024.7188,565.5472 Q1024.0313,564.469 1024.0313,563.1878 L1024.0313,562.0315 Q1024.0313,560.7034 1024.6406,559.5628 Q1025.2656,558.4065 1026.3594,557.7972 Q1027.4531,557.1722 1028.6875,557.1722 Q1029.4219,557.1722 1030.0625,557.344 Q1030.7188,557.5003 1031.2656,557.8597 Z " fill="#000000"/><text fill="#000000" font-family="sans-serif" font-size="14" lengthAdjust="spacing" textLength="35" x="1042.5" y="567.7132">Open</text><line style="stroke:#181818;stroke-width:0.5;" x1="1014.5" x2="1079.5" y1="577.9847" y2="577.9847"/><line style="stroke:#181818;stroke-width:0.5;" x1="1014.5" x2="1079.5" y1="585.9847" y2="585.9847"/></g><!--MD5=[635cd316ab52c73733922f3354947e43]
class Automatic--><g id="elem_Automatic"><rect fill="#F1F1F1" height="48" id="Automatic" rx="2.5" ry="2.5" style="stroke:#181818;stroke-width:0.5;" width="94" x="884" y="545.9847"/><ellipse cx="899" cy="561.9847" fill="#ADD1B2" rx="11" ry="11" style="stroke:#181818;stroke-width:1.0;"/><path d="M901.7656,557.8597 Q901.9219,557.6409 902.1094,557.5315 Q902.2969,557.4222 902.5156,557.4222 Q902.8906,557.4222 903.125,557.6878 Q903.3594,557.9378 903.3594,558.5472 L903.3594,560.0003 Q903.3594,560.6097 903.125,560.8753 Q902.8906,561.1409 902.5156,561.1409 Q902.1719,561.1409 901.9688,560.9378 Q901.7656,560.7503 901.6563,560.2347 Q901.6094,559.8753 901.4219,559.6878 Q901.0938,559.3128 900.4844,559.094 Q899.875,558.8753 899.25,558.8753 Q898.4844,558.8753 897.8438,559.2034 Q897.2188,559.5315 896.7188,560.2815 Q896.2344,561.0315 896.2344,562.0628 L896.2344,563.1565 Q896.2344,564.3909 897.125,565.219 Q898.0156,566.0315 899.6094,566.0315 Q900.5469,566.0315 901.2031,565.7815 Q901.5938,565.6253 902.0156,565.1878 Q902.2813,564.9222 902.4219,564.844 Q902.5781,564.7659 902.7813,564.7659 Q903.1094,564.7659 903.3594,565.0315 Q903.625,565.2815 903.625,565.6253 Q903.625,565.969 903.2813,566.3753 Q902.7813,566.9534 901.9844,567.2815 Q900.9063,567.7347 899.6094,567.7347 Q898.0938,567.7347 896.8906,567.1097 Q895.9063,566.6097 895.2188,565.5472 Q894.5313,564.469 894.5313,563.1878 L894.5313,562.0315 Q894.5313,560.7034 895.1406,559.5628 Q895.7656,558.4065 896.8594,557.7972 Q897.9531,557.1722 899.1875,557.1722 Q899.9219,557.1722 900.5625,557.344 Q901.2188,557.5003 901.7656,557.8597 Z " fill="#000000"/><text fill="#000000" font-family="sans-serif" font-size="14" lengthAdjust="spacing" textLength="62" x="913" y="567.7132">Automatic</text><line style="stroke:#181818;stroke-width:0.5;" x1="885" x2="977" y1="577.9847" y2="577.9847"/><line style="stroke:#181818;stroke-width:0.5;" x1="885" x2="977" y1="585.9847" y2="585.9847"/></g><!--MD5=[c98fdacbcd4eb224c2d9d26b53646e58]
reverse link Category to Category--><g id="link_Category_Category"><path codeLine="108" d="M739.2,9.4047 C754.83,10.1247 767,18.4847 767,34.4847 C767,54.7647 747.45,62.7747 726.1,58.4947 " fill="none" id="Category-backto-Category" style="stroke:#181818;stroke-width:1.0;"/><polygon fill="none" points="726.1,10.4747,732.4054,13.9735,738.0603,9.4988,731.7549,6,726.1,10.4747" style="stroke:#181818;stroke-width:1.0;"/><text fill="#000000" font-family="sans-serif" font-size="13" lengthAdjust="spacing" textLength="22" x="710.9494" y="79.8351">0..n</text></g><!--MD5=[06548aa1c124b95fb51b5a3e485cae93]
link Category to Concept--><g id="link_Category_Concept"><path codeLine="110" d="M661.05,58.5647 C636.87,80.0647 600.61,112.3047 573.71,136.2247 " fill="none" id="Category-to-Concept" style="stroke:#181818;stroke-width:1.0;"/><polygon fill="#181818" points="563.91,144.9447,571.0523,143.9507,572.8818,136.9756,565.7395,137.9695,563.91,144.9447" style="stroke:#181818;stroke-width:1.0;"/></g><!--MD5=[357c4abe4ae02615f163987610a5cb7f]
reverse link Concept to Keyword--><g id="link_Concept_Keyword"><path codeLine="111" d="M517.47,204.7247 C492.93,246.2247 452.57,314.4947 431.6,349.9647 " fill="none" id="Concept-backto-Keyword" style="stroke:#181818;stroke-width:1.0;"/><polygon fill="#181818" points="524.23,193.2747,517.7347,196.407,518.1279,203.6073,524.6232,200.475,524.23,193.2747" style="stroke:#181818;stroke-width:1.0;"/></g><!--MD5=[543bb2115b5a10697a67507a00f6a2f4]
reverse link Concept to Definition--><g id="link_Concept_Definition"><path codeLine="112" d="M482.67,186.4647 C430.76,203.7947 352.81,234.8047 296,279.4847 C271.07,299.0947 249.72,328.9447 236.66,349.6247 " fill="none" id="Concept-backto-Definition" style="stroke:#181818;stroke-width:1.0;"/><polygon fill="none" points="495.28,182.3447,488.3357,180.4014,483.871,186.0641,490.8153,188.0074,495.28,182.3447" style="stroke:#181818;stroke-width:1.0;"/><text fill="#000000" font-family="sans-serif" font-size="13" lengthAdjust="spacing" textLength="22" x="215.3084" y="339.2749">0..n</text></g><!--MD5=[d5ca03c977d831fd4c76b3fa51a69d9d]
reverse link Definition to RealDefinition--><g id="link_Definition_RealDefinition"><path codeLine="113" d="M226.11,418.0847 C228.95,457.4547 233.05,514.2047 235.32,545.6947 " fill="none" id="Definition-backto-RealDefinition" style="stroke:#181818;stroke-width:1.0;"/><polygon fill="none" points="219.12,418.4547,224.66,398.0047,233.08,417.4447,219.12,418.4547" style="stroke:#181818;stroke-width:1.0;"/></g><!--MD5=[25e58a9c0be8a439885c1458066c607c]
reverse link Definition to FakeDefinition--><g id="link_Definition_FakeDefinition"><path codeLine="114" d="M194.02,414.2947 C164.94,453.7447 121.13,513.1847 97.17,545.6947 " fill="none" id="Definition-backto-FakeDefinition" style="stroke:#181818;stroke-width:1.0;"/><polygon fill="none" points="188.53,409.9447,206.03,398.0047,199.8,418.2547,188.53,409.9447" style="stroke:#181818;stroke-width:1.0;"/></g><!--MD5=[78bd55957e0cd29febcd097f805d8b51]
reverse link RealDefinition to Justification--><g id="link_RealDefinition_Justification"><path codeLine="116" d="M215.34,605.2847 C202.04,626.3447 185.35,652.7547 173.61,671.3547 " fill="none" id="RealDefinition-backto-Justification" style="stroke:#181818;stroke-width:1.0;"/><polygon fill="none" points="222.33,594.2147,215.7432,597.1497,215.9191,604.3586,222.5059,601.4236,222.33,594.2147" style="stroke:#181818;stroke-width:1.0;"/><text fill="#000000" font-family="sans-serif" font-size="13" lengthAdjust="spacing" textLength="22" x="152.5351" y="660.6615">0..n</text></g><!--MD5=[f12615961f0f17a875f73130a94f8aba]
reverse link FakeDefinition to Justification--><g id="link_FakeDefinition_Justification"><path codeLine="117" d="M101.94,605.2847 C115.41,626.3447 132.31,652.7547 144.21,671.3547 " fill="none" id="FakeDefinition-backto-Justification" style="stroke:#181818;stroke-width:1.0;"/><polygon fill="none" points="94.86,594.2147,94.7194,601.4244,101.3204,604.3272,101.461,597.1174,94.86,594.2147" style="stroke:#181818;stroke-width:1.0;"/><text fill="#000000" font-family="sans-serif" font-size="13" lengthAdjust="spacing" textLength="22" x="115.6013" y="660.6615">0..n</text></g><!--MD5=[0c4c23651a46cdff2b6bbd2c219913dd]
reverse link Justification to RealJustification--><g id="link_Justification_RealJustification"><path codeLine="119" d="M127.97,735.1847 C116.14,749.9347 103.04,766.2747 92.7,779.1647 " fill="none" id="Justification-backto-RealJustification" style="stroke:#181818;stroke-width:1.0;"/><polygon fill="none" points="122.58,730.7047,140.56,719.4847,133.51,739.4647,122.58,730.7047" style="stroke:#181818;stroke-width:1.0;"/></g><!--MD5=[ceb9e2406f870d29d588271060052454]
reverse link Justification to FakeJustification--><g id="link_Justification_FakeJustification"><path codeLine="120" d="M190.4,735.1847 C202.36,749.9347 215.62,766.2747 226.08,779.1647 " fill="none" id="Justification-backto-FakeJustification" style="stroke:#181818;stroke-width:1.0;"/><polygon fill="none" points="184.83,739.4247,177.66,719.4847,195.7,730.6047,184.83,739.4247" style="stroke:#181818;stroke-width:1.0;"/></g><!--MD5=[54f9360500e0fd532969fc16f437bbea]
reverse link Concept to Relation--><g id="link_Concept_Relation"><path codeLine="122" d="M538,206.3347 C538,247.9747 538,314.9547 538,349.9647 " fill="none" id="Concept-backto-Relation" style="stroke:#181818;stroke-width:1.0;"/><polygon fill="none" points="538,193.2747,534,199.2747,538,205.2747,542,199.2747,538,193.2747" style="stroke:#181818;stroke-width:1.0;"/><text fill="#000000" font-family="sans-serif" font-size="13" lengthAdjust="spacing" textLength="22" x="513.1813" y="339.2997">0..n</text></g><!--MD5=[90ea77717cc70d7f588b001bbb985d62]
reverse link Relation to Classification--><g id="link_Relation_Classification"><path codeLine="123" d="M555.42,416.7147 C571.88,456.1347 595.98,513.8447 609.28,545.6947 " fill="none" id="Relation-backto-Classification" style="stroke:#181818;stroke-width:1.0;"/><polygon fill="none" points="548.86,419.1547,547.61,398.0047,561.78,413.7647,548.86,419.1547" style="stroke:#181818;stroke-width:1.0;"/></g><!--MD5=[aac130c8b5f905729b18e85e231f7b50]
reverse link Relation to Composition--><g id="link_Relation_Composition"><path codeLine="124" d="M517.83,416.1747 C498.52,455.6047 470.08,513.6947 454.4,545.6947 " fill="none" id="Relation-backto-Composition" style="stroke:#181818;stroke-width:1.0;"/><polygon fill="none" points="511.65,412.8847,526.73,398.0047,524.22,419.0447,511.65,412.8847" style="stroke:#181818;stroke-width:1.0;"/></g><!--MD5=[4348f2376e3bf4446bb805b359d93b50]
reverse link Classification to Concept--><g id="link_Classification_Concept"><path codeLine="125" d="M621.25,532.5847 C623.61,476.8347 623.97,367.5247 598,279.4847 C588.56,247.4647 568.76,214.3447 554.49,193.0347 " fill="none" id="Classification-backto-Concept" style="stroke:#181818;stroke-width:1.0;"/><polygon fill="#181818" points="620.6,545.8747,624.8918,540.0798,621.1933,533.8893,616.9016,539.6842,620.6,545.8747" style="stroke:#181818;stroke-width:1.0;"/><text fill="#000000" font-family="sans-serif" font-size="13" lengthAdjust="spacing" textLength="22" x="533.8282" y="214.3848">2..n</text></g><!--MD5=[585161ca14248a4093b9d8037fe841a0]
reverse link Composition to Concept--><g id="link_Composition_Concept"><path codeLine="126" d="M404.99,536.8347 C386.72,518.8447 366.71,494.7747 357,468.4847 C327.89,389.6947 315.75,352.6547 357,279.4847 C386.4,227.3347 451.74,197.2047 495.33,182.1947 " fill="none" id="Composition-backto-Concept" style="stroke:#181818;stroke-width:1.0;"/><polygon fill="#181818" points="414.6,545.9147,412.9885,538.8859,405.8806,537.6701,407.4921,544.6989,414.6,545.9147" style="stroke:#181818;stroke-width:1.0;"/><text fill="#000000" font-family="sans-serif" font-size="13" lengthAdjust="spacing" textLength="22" x="465.4472" y="180.4808">1..n</text></g><!--MD5=[1a1b676d11de0d3c9f1436eb98d48270]
link Category to Question--><g id="link_Category_Question"><path codeLine="128" d="M721.14,58.5647 C753.5,80.4447 802.32,113.4447 837.88,137.4847 " fill="none" id="Category-to-Question" style="stroke:#181818;stroke-width:1.0;"/><polygon fill="#181818" points="848.92,144.9447,846.1912,138.2698,838.9802,138.2215,841.7091,144.8963,848.92,144.9447" style="stroke:#181818;stroke-width:1.0;"/></g><!--MD5=[2feebbf5a2a7ca3d6cf397d4221288ef]
reverse link Level to Primary--><g id="link_Level_Primary"><path codeLine="130" d="M1477,78.6847 C1477,97.2547 1477,118.5847 1477,135.7447 " fill="none" id="Level-backto-Primary" style="stroke:#181818;stroke-width:1.0;"/><polygon fill="none" points="1470,78.5647,1477,58.5647,1484,78.5647,1470,78.5647" style="stroke:#181818;stroke-width:1.0;"/></g><!--MD5=[cb19bd22a149a884c5664d5c3292c3d0]
reverse link Level to Secundary--><g id="link_Level_Secundary"><path codeLine="131" d="M1529.45,51.9547 C1611.3,77.6547 1768.37,126.9747 1848.82,152.2247 " fill="none" id="Level-backto-Secundary" style="stroke:#181818;stroke-width:1.0;"/><polygon fill="none" points="1527.1,58.5547,1510.11,45.8847,1531.29,45.1947,1527.1,58.5547" style="stroke:#181818;stroke-width:1.0;"/></g><!--MD5=[05d0a703757aee1cfd30e35a16292b7e]
reverse link Level to Tertiary--><g id="link_Level_Tertiary"><path codeLine="132" d="M1530.01,43.9447 C1679.17,67.7547 2101.43,135.1647 2252.45,159.2747 " fill="none" id="Level-backto-Tertiary" style="stroke:#181818;stroke-width:1.0;"/><polygon fill="none" points="1528.7,50.8247,1510.05,40.7647,1530.9,37.0047,1528.7,50.8247" style="stroke:#181818;stroke-width:1.0;"/></g><!--MD5=[fdd8ccc3cec16c0535a8177d4f82d04c]
reverse link Primary to DefinitionQuestion--><g id="link_Primary_DefinitionQuestion"><path codeLine="138" d="M1508.42,219.0547 C1528.63,250.6047 1554.8,291.4647 1575.09,323.1647 " fill="none" id="Primary-backto-DefinitionQuestion" style="stroke:#181818;stroke-width:1.0;"/><polygon fill="none" points="1502.49,222.7647,1497.6,202.1547,1514.28,215.2147,1502.49,222.7647" style="stroke:#181818;stroke-width:1.0;"/></g><!--MD5=[1423202ac8effff7ab98273af48df94d]
link DefinitionQuestion to AnswersToReviewDefinition--><g id="link_DefinitionQuestion_AnswersToReviewDefinition"><path codeLine="141" d="M1616.74,424.6947 C1622.68,455.0447 1630.23,493.5747 1636.03,523.1847 " fill="none" id="DefinitionQuestion-to-AnswersToReviewDefinition" style="stroke:#181818;stroke-width:1.0;"/><polygon fill="#181818" points="1637.02,528.2347,1639.1934,518.6286,1636.0477,523.3301,1631.3462,520.1843,1637.02,528.2347" style="stroke:#181818;stroke-width:1.0;"/></g><!--MD5=[07224d3247461a492442982e055c6432]
reverse link Secundary to ReverseDefinitionQuestion--><g id="link_Secundary_ReverseDefinitionQuestion"><path codeLine="144" d="M1966.81,208.1347 C2002.83,228.7447 2047.67,254.9247 2087,279.4847 C2109.19,293.3347 2132.98,308.9347 2154.53,323.3547 " fill="none" id="Secundary-backto-ReverseDefinitionQuestion" style="stroke:#181818;stroke-width:1.0;"/><polygon fill="none" points="1963.29,214.1947,1949.37,198.2047,1970.22,202.0247,1963.29,214.1947" style="stroke:#181818;stroke-width:1.0;"/></g><!--MD5=[cac465f09b068d6d61d3f47eaf519de1]
link ReverseDefinitionQuestion to AnswerToReviewIncorrectAnswer--><g id="link_ReverseDefinitionQuestion_AnswerToReviewIncorrectAnswer"><path codeLine="145" d="M2227,424.6947 C2227,455.0447 2227,493.5747 2227,523.1847 " fill="none" id="ReverseDefinitionQuestion-to-AnswerToReviewIncorrectAnswer" style="stroke:#181818;stroke-width:1.0;"/><polygon fill="#181818" points="2227,528.2347,2231,519.2347,2227,523.2347,2223,519.2347,2227,528.2347" style="stroke:#181818;stroke-width:1.0;"/></g><!--MD5=[2754f538d85f6239e3347737939477be]
reverse link Secundary to JustificationQuestion--><g id="link_Secundary_JustificationQuestion"><path codeLine="150" d="M1899,230.8847 C1899,260.3447 1899,295.2647 1899,323.1247 " fill="none" id="Secundary-backto-JustificationQuestion" style="stroke:#181818;stroke-width:1.0;"/><polygon fill="none" points="1892,230.5747,1899,210.5747,1906,230.5747,1892,230.5747" style="stroke:#181818;stroke-width:1.0;"/></g><!--MD5=[4d19e379036caf6c880633b53c1aafee]
link JustificationQuestion to AnswersToReviewJustification--><g id="link_JustificationQuestion_AnswersToReviewJustification"><path codeLine="151" d="M1899,424.6947 C1899,455.0447 1899,493.5747 1899,523.1847 " fill="none" id="JustificationQuestion-to-AnswersToReviewJustification" style="stroke:#181818;stroke-width:1.0;"/><polygon fill="#181818" points="1899,528.2347,1903,519.2347,1899,523.2347,1895,519.2347,1899,528.2347" style="stroke:#181818;stroke-width:1.0;"/></g><!--MD5=[49f4f41a3a5b647e84447d22d42353f7]
reverse link Tertiary to KeywordNotFakeDefinitionFakeJustQuestion--><g id="link_Tertiary_KeywordNotFakeDefinitionFakeJustQuestion"><path codeLine="157" d="M2377.8,223.6047 C2400.4,240.7347 2426.12,260.2147 2451.35,279.3247 " fill="none" id="Tertiary-backto-KeywordNotFakeDefinitionFakeJustQuestion" style="stroke:#181818;stroke-width:1.0;"/><polygon fill="none" points="2373.27,228.9647,2361.56,211.3047,2381.73,217.8047,2373.27,228.9647" style="stroke:#181818;stroke-width:1.0;"/></g><!--MD5=[e9c72b70a48ed361615f41ee3fac4875]
reverse link Primary to ClassQuestion--><g id="link_Primary_ClassQuestion"><path codeLine="160" d="M1445.58,219.0547 C1425.37,250.6047 1399.2,291.4647 1378.91,323.1647 " fill="none" id="Primary-backto-ClassQuestion" style="stroke:#181818;stroke-width:1.0;"/><polygon fill="none" points="1439.72,215.2147,1456.4,202.1547,1451.51,222.7647,1439.72,215.2147" style="stroke:#181818;stroke-width:1.0;"/></g><!--MD5=[de4cf0ec7ef98db7a9dc51395289a0ce]
link ClassQuestion to AnswersToReviewClasses--><g id="link_ClassQuestion_AnswersToReviewClasses"><path codeLine="161" d="M1347,424.6947 C1347,455.0447 1347,493.5747 1347,523.1847 " fill="none" id="ClassQuestion-to-AnswersToReviewClasses" style="stroke:#181818;stroke-width:1.0;"/><polygon fill="#181818" points="1347,528.2347,1351,519.2347,1347,523.2347,1343,519.2347,1347,528.2347" style="stroke:#181818;stroke-width:1.0;"/></g><!--MD5=[35a2f5aaea9a8dec5ab6cfc0884a901f]
reverse link Answer to Open--><g id="link_Answer_Open"><path codeLine="163" d="M955.15,415.3647 C978.73,454.8147 1013.81,513.4747 1033.08,545.6947 " fill="none" id="Answer-backto-Open" style="stroke:#181818;stroke-width:1.0;"/><polygon fill="none" points="949.02,418.7547,944.76,398.0047,961.03,411.5747,949.02,418.7547" style="stroke:#181818;stroke-width:1.0;"/></g><!--MD5=[4617c306ba6109efed31143da13bf912]
reverse link Answer to Automatic--><g id="link_Answer_Automatic"><path codeLine="164" d="M931,418.0847 C931,457.4547 931,514.2047 931,545.6947 " fill="none" id="Answer-backto-Automatic" style="stroke:#181818;stroke-width:1.0;"/><polygon fill="none" points="924,418.0047,931,398.0047,938,418.0047,924,418.0047" style="stroke:#181818;stroke-width:1.0;"/></g><!--MD5=[e606f77146d938d8532e8f0fa5171a79]
link Level to Concept--><g id="link_Level_Concept"><path codeLine="166" d="M1443.82,39.1247 C1347.41,49.8047 1059.1,82.6147 821,118.4847 C741.78,130.4147 650.56,146.8647 593.59,157.4647 " fill="none" id="Level-to-Concept" style="stroke:#181818;stroke-width:1.0;"/><polygon fill="#181818" points="580.57,159.8947,587.2025,162.7249,592.366,157.6912,585.7335,154.8609,580.57,159.8947" style="stroke:#181818;stroke-width:1.0;"/></g><!--MD5=[b14e1fcdfcb60d39b6e3f6e87700db73]
link Level to Question--><g id="link_Level_Question"><path codeLine="167" d="M1443.79,42.8947 C1346.79,64.5347 1063.01,127.8347 940.45,155.1647 " fill="none" id="Level-to-Question" style="stroke:#181818;stroke-width:1.0;"/><polygon fill="#181818" points="927.72,158.0147,934.4489,160.6074,939.4302,155.3934,932.7013,152.8006,927.72,158.0147" style="stroke:#181818;stroke-width:1.0;"/></g><!--MD5=[eff6b19138ddb6af13849faaf0a4f1bc]
reverse link Question to Statement--><g id="link_Question_Statement"><path codeLine="168" d="M858.09,203.9247 C827.69,245.3447 777.1,314.2647 750.89,349.9647 " fill="none" id="Question-backto-Statement" style="stroke:#181818;stroke-width:1.0;"/><polygon fill="#181818" points="865.91,193.2747,859.133,195.7388,858.8011,202.9423,865.5781,200.4781,865.91,193.2747" style="stroke:#181818;stroke-width:1.0;"/></g><!--MD5=[c9ee3fa9d899e81a3f6f51202cac37d4]
reverse link Question to Incorrect--><g id="link_Question_Incorrect"><path codeLine="169" d="M919.51,201.9247 C941.42,222.4747 968.68,250.6447 988,279.4847 C1055.33,380.0047 1073.02,410.1047 1098,528.4847 C1108.59,578.6447 1099.2,639.0547 1092.45,671.3847 " fill="none" id="Question-backto-Incorrect" style="stroke:#181818;stroke-width:1.0;"/><polygon fill="none" points="909.88,193.0447,911.5896,200.0502,918.7138,201.1665,917.0042,194.161,909.88,193.0447" style="stroke:#181818;stroke-width:1.0;"/><text fill="#000000" font-family="sans-serif" font-size="13" lengthAdjust="spacing" textLength="7" x="1085.9497" y="660.6992">3</text></g><!--MD5=[92fb1269d96e0eee3df7143ab7ae90c1]
reverse link Question to Correct--><g id="link_Question_Correct"><path codeLine="170" d="M879.99,206.0647 C878.31,227.4047 876.29,254.9747 875,279.4847 C867.25,426.8747 858.16,464.1547 867,611.4847 C868.22,631.7647 871.09,654.6847 873.45,671.2947 " fill="none" id="Question-backto-Correct" style="stroke:#181818;stroke-width:1.0;"/><polygon fill="none" points="881.04,193.0347,876.5715,198.6944,880.0773,204.996,884.5458,199.3362,881.04,193.0347" style="stroke:#181818;stroke-width:1.0;"/></g><!--MD5=[5d713b1c0eb5d19b54b4791b73108c83]
reverse link Question to Answer--><g id="link_Question_Answer"><path codeLine="171" d="M891.53,206.0647 C901.37,247.6847 917.26,314.8747 925.56,349.9647 " fill="none" id="Question-backto-Answer" style="stroke:#181818;stroke-width:1.0;"/><polygon fill="#181818" points="888.51,193.2747,885.9944,200.0327,891.2651,204.9541,893.7807,198.196,888.51,193.2747" style="stroke:#181818;stroke-width:1.0;"/></g><!--MD5=[7c4afdb0d4b8b6389f44dea94f218de0]
reverse link Automatic to Correct--><g id="link_Automatic_Correct"><path codeLine="172" d="M912.72,612.7947 C904.17,632.3547 894.3,654.9147 887.11,671.3547 " fill="none" id="Automatic-backto-Correct" style="stroke:#181818;stroke-width:1.0;"/><polygon fill="none" points="906.42,609.7347,920.84,594.2147,919.24,615.3447,906.42,609.7347" style="stroke:#181818;stroke-width:1.0;"/></g><!--MD5=[5180813bf5b07304f01ec19e54460242]
reverse link Automatic to Incorrect--><g id="link_Automatic_Incorrect"><path codeLine="173" d="M976.18,606.7547 C1002.47,627.5647 1034.84,653.1847 1057.79,671.3547 " fill="none" id="Automatic-backto-Incorrect" style="stroke:#181818;stroke-width:1.0;"/><polygon fill="none" points="971.68,612.1147,960.34,594.2147,980.37,601.1447,971.68,612.1147" style="stroke:#181818;stroke-width:1.0;"/></g><!--MD5=[9fe904d612f70684faa1263cfdd8ef71]
@startuml ConceptDomainDetail

class Category 

class Concept

class Keyword

class Definition

class RealDefinition

class FakeDefinition

class Justification

class RealJustification

class FakeJustification

class Relation

class Classification

class Composition

class Level

class Primary {
    withKeyword
}

class Secundary {
    withKeyword
    withDefinition
}

class Tertiary {
    withKeyword
    withDefinition
    withJustification
}

class DefinitionQuestion {
    + statement:
     "¿Qué es KEYWORD?"
    + 1 open answer
}

class ReverseDefinitionQuestion {
    + statement:
     "¿Qué es esta REALDEFINITION?"
    + 1 open answer
}

class JustificationQuestion {
    +statement:
"¿La KEYWORD es esta DEFINITION?¿Por qué?"
    + 1 open answer
}

class KeywordNotFakeDefinitionFakeJustQuestion {
    +statement:
"Es cierto que la CLAVE no es FAKEDEFINITION porque
FAKEJUSTIFICACION"
automatic answers
    + 1 correct answer:
"No porque la justificación es falsa"
    + 3 incorrect answer:
"Sí, por FAKEJUSTIFICATION"...
    
}

class ClassQuestion  {
    +statement:
"Dime los distintos tipos de KEYWORD"
    + 1 open answer 
}

class Question 

class Statement

class Answer 

class Correct

class Incorrect

class AnswersToReviewDefinition {
    answers
    addDefinition(keyword)
}

class AnswersToReviewJustification {
    answers
    addJustification(keyword,definition)
}

class AnswerToReviewIncorrectAnswer {
    answers
    addFakeKeyword(AutomaticReverseQuestion)
}

class AnswersToReviewClasses {
    answers
    addClassification(otherConceptKeyword,relation)
}
Category o- -"0..n" Category

Category - -* Concept
Concept *- - Keyword
Concept o- -"0..n" Definition
Definition <|- - RealDefinition
Definition <|- - FakeDefinition

RealDefinition o- - "0..n" Justification
FakeDefinition o- - "0..n" Justification

Justification <|- - RealJustification
Justification <|- - FakeJustification

Concept o- - "0..n" Relation
Relation <|- - Classification
Relation <|- - Composition
Classification *- - "2..n" Concept
Composition *- - "1..n" Concept

Category - -* Question

Level <|- - Primary
Level <|- - Secundary
Level <|- - Tertiary
'Level <|- - WithRelations
  'WithRelations <|- - WithComposition
  'WithRelations <|- - WithClassification
 'WithRelations <|- - WithAsociation
 'WithRelations <|- - WithUse
Primary <|- - DefinitionQuestion
 'Primary <.. Keyword
 'DefinitionQuestion - -|> Open
 DefinitionQuestion - -> AnswersToReviewDefinition
 'AnswersToReview - -> RealDefinition
 'AnswersToReview - -> FakeDefinition
Secundary <|- - ReverseDefinitionQuestion
ReverseDefinitionQuestion - -> AnswerToReviewIncorrectAnswer 
 'Secundary <.. Keyword
 'Secundary <.. Definition
 ' ReverseDefinitionQuestion - -|> Open
 ' ReverseDefinitionQuestion - -> Relation
 Secundary <|- - JustificationQuestion
  JustificationQuestion - -> AnswersToReviewJustification
 ' AdvancedQuestion - -> Justification
 
 'Tertiary <.. Keyword
 'Tertiary <.. Definition
 'Tertiary <.. Justification
Tertiary <|- - KeywordNotFakeDefinitionFakeJustQuestion

'WithClassification <|- - ClassQuestion
Primary <|- - ClassQuestion
ClassQuestion - -> AnswersToReviewClasses

Answer <|- - Open
Answer <|- - Automatic

Level - -* Concept
Level - -* Question
Question *- -  Statement
Question o- -"3" Incorrect
Question o- - Correct
Question *- - Answer
Automatic <|- - Correct
Automatic <|- - Incorrect
@enduml

@startuml ConceptDomainDetail

class Category 

class Concept

class Keyword

class Definition

class RealDefinition

class FakeDefinition

class Justification

class RealJustification

class FakeJustification

class Relation

class Classification

class Composition

class Level

class Primary {
    withKeyword
}

class Secundary {
    withKeyword
    withDefinition
}

class Tertiary {
    withKeyword
    withDefinition
    withJustification
}

class DefinitionQuestion {
    + statement:
     "¿Qué es KEYWORD?"
    + 1 open answer
}

class ReverseDefinitionQuestion {
    + statement:
     "¿Qué es esta REALDEFINITION?"
    + 1 open answer
}

class JustificationQuestion {
    +statement:
"¿La KEYWORD es esta DEFINITION?¿Por qué?"
    + 1 open answer
}

class KeywordNotFakeDefinitionFakeJustQuestion {
    +statement:
"Es cierto que la CLAVE no es FAKEDEFINITION porque
FAKEJUSTIFICACION"
automatic answers
    + 1 correct answer:
"No porque la justificación es falsa"
    + 3 incorrect answer:
"Sí, por FAKEJUSTIFICATION"...
    
}

class ClassQuestion  {
    +statement:
"Dime los distintos tipos de KEYWORD"
    + 1 open answer 
}

class Question 

class Statement

class Answer 

class Correct

class Incorrect

class AnswersToReviewDefinition {
    answers
    addDefinition(keyword)
}

class AnswersToReviewJustification {
    answers
    addJustification(keyword,definition)
}

class AnswerToReviewIncorrectAnswer {
    answers
    addFakeKeyword(AutomaticReverseQuestion)
}

class AnswersToReviewClasses {
    answers
    addClassification(otherConceptKeyword,relation)
}
Category o- -"0..n" Category

Category - -* Concept
Concept *- - Keyword
Concept o- -"0..n" Definition
Definition <|- - RealDefinition
Definition <|- - FakeDefinition

RealDefinition o- - "0..n" Justification
FakeDefinition o- - "0..n" Justification

Justification <|- - RealJustification
Justification <|- - FakeJustification

Concept o- - "0..n" Relation
Relation <|- - Classification
Relation <|- - Composition
Classification *- - "2..n" Concept
Composition *- - "1..n" Concept

Category - -* Question

Level <|- - Primary
Level <|- - Secundary
Level <|- - Tertiary
Primary <|- - DefinitionQuestion
 DefinitionQuestion - -> AnswersToReviewDefinition
Secundary <|- - ReverseDefinitionQuestion
ReverseDefinitionQuestion - -> AnswerToReviewIncorrectAnswer 
 Secundary <|- - JustificationQuestion
  JustificationQuestion - -> AnswersToReviewJustification
 
Tertiary <|- - KeywordNotFakeDefinitionFakeJustQuestion

Primary <|- - ClassQuestion
ClassQuestion - -> AnswersToReviewClasses

Answer <|- - Open
Answer <|- - Automatic

Level - -* Concept
Level - -* Question
Question *- -  Statement
Question o- -"3" Incorrect
Question o- - Correct
Question *- - Answer
Automatic <|- - Correct
Automatic <|- - Incorrect
@enduml

PlantUML version 1.2022.7(Mon Aug 22 18:01:30 WEST 2022)
(GPL source distribution)
Java Runtime: OpenJDK Runtime Environment
JVM: OpenJDK 64-Bit Server VM
Default Encoding: Cp1252
Language: es
Country: ES
--></g></svg>