<?xml version="1.0" encoding="UTF-8" standalone="no"?><svg xmlns="http://www.w3.org/2000/svg" xmlns:xlink="http://www.w3.org/1999/xlink" contentStyleType="text/css" height="564px" preserveAspectRatio="none" style="width:1707px;height:564px;background:#FFFFFF;" version="1.1" viewBox="0 0 1707 564" width="1707px" zoomAndPan="magnify"><defs/><g><!--MD5=[9d451b2f92d848a8e2d1a4dab2b1c6bf]
class Concept--><g id="elem_Concept"><rect codeLine="2" fill="#F1F1F1" height="83.2188" id="Concept" rx="2.5" ry="2.5" style="stroke:#181818;stroke-width:0.5;" width="85" x="1273" y="169"/><ellipse cx="1288" cy="185" fill="#ADD1B2" rx="11" ry="11" style="stroke:#181818;stroke-width:1.0;"/><path d="M1290.7656,180.875 Q1290.9219,180.6563 1291.1094,180.5469 Q1291.2969,180.4375 1291.5156,180.4375 Q1291.8906,180.4375 1292.125,180.7031 Q1292.3594,180.9531 1292.3594,181.5625 L1292.3594,183.0156 Q1292.3594,183.625 1292.125,183.8906 Q1291.8906,184.1563 1291.5156,184.1563 Q1291.1719,184.1563 1290.9688,183.9531 Q1290.7656,183.7656 1290.6563,183.25 Q1290.6094,182.8906 1290.4219,182.7031 Q1290.0938,182.3281 1289.4844,182.1094 Q1288.875,181.8906 1288.25,181.8906 Q1287.4844,181.8906 1286.8438,182.2188 Q1286.2188,182.5469 1285.7188,183.2969 Q1285.2344,184.0469 1285.2344,185.0781 L1285.2344,186.1719 Q1285.2344,187.4063 1286.125,188.2344 Q1287.0156,189.0469 1288.6094,189.0469 Q1289.5469,189.0469 1290.2031,188.7969 Q1290.5938,188.6406 1291.0156,188.2031 Q1291.2813,187.9375 1291.4219,187.8594 Q1291.5781,187.7813 1291.7813,187.7813 Q1292.1094,187.7813 1292.3594,188.0469 Q1292.625,188.2969 1292.625,188.6406 Q1292.625,188.9844 1292.2813,189.3906 Q1291.7813,189.9688 1290.9844,190.2969 Q1289.9063,190.75 1288.6094,190.75 Q1287.0938,190.75 1285.8906,190.125 Q1284.9063,189.625 1284.2188,188.5625 Q1283.5313,187.4844 1283.5313,186.2031 L1283.5313,185.0469 Q1283.5313,183.7188 1284.1406,182.5781 Q1284.7656,181.4219 1285.8594,180.8125 Q1286.9531,180.1875 1288.1875,180.1875 Q1288.9219,180.1875 1289.5625,180.3594 Q1290.2188,180.5156 1290.7656,180.875 Z " fill="#000000"/><text fill="#000000" font-family="sans-serif" font-size="14" lengthAdjust="spacing" textLength="53" x="1302" y="190.7285">Concept</text><line style="stroke:#181818;stroke-width:0.5;" x1="1274" x2="1357" y1="201" y2="201"/><rect fill="none" height="6" style="stroke:#C82930;stroke-width:1.0;" width="6" x="1281" y="212.3047"/><text fill="#000000" font-family="sans-serif" font-size="14" lengthAdjust="spacing" textLength="52" x="1293" y="219.5332">keyword</text><rect fill="none" height="6" style="stroke:#C82930;stroke-width:1.0;" width="6" x="1281" y="229.9141"/><text fill="#000000" font-family="sans-serif" font-size="14" lengthAdjust="spacing" textLength="31" x="1293" y="237.1426">state</text><line style="stroke:#181818;stroke-width:0.5;" x1="1274" x2="1357" y1="244.2188" y2="244.2188"/></g><!--MD5=[534474e9f05b14d7c70186ae077f30e0]
class Relation--><g id="elem_Relation"><rect codeLine="19" fill="#F1F1F1" height="48" id="Relation" rx="2.5" ry="2.5" style="stroke:#181818;stroke-width:0.5;" width="84" x="1275.5" y="330.5"/><ellipse cx="1290.5" cy="346.5" fill="#ADD1B2" rx="11" ry="11" style="stroke:#181818;stroke-width:1.0;"/><path d="M1293.2656,342.375 Q1293.4219,342.1563 1293.6094,342.0469 Q1293.7969,341.9375 1294.0156,341.9375 Q1294.3906,341.9375 1294.625,342.2031 Q1294.8594,342.4531 1294.8594,343.0625 L1294.8594,344.5156 Q1294.8594,345.125 1294.625,345.3906 Q1294.3906,345.6563 1294.0156,345.6563 Q1293.6719,345.6563 1293.4688,345.4531 Q1293.2656,345.2656 1293.1563,344.75 Q1293.1094,344.3906 1292.9219,344.2031 Q1292.5938,343.8281 1291.9844,343.6094 Q1291.375,343.3906 1290.75,343.3906 Q1289.9844,343.3906 1289.3438,343.7188 Q1288.7188,344.0469 1288.2188,344.7969 Q1287.7344,345.5469 1287.7344,346.5781 L1287.7344,347.6719 Q1287.7344,348.9063 1288.625,349.7344 Q1289.5156,350.5469 1291.1094,350.5469 Q1292.0469,350.5469 1292.7031,350.2969 Q1293.0938,350.1406 1293.5156,349.7031 Q1293.7813,349.4375 1293.9219,349.3594 Q1294.0781,349.2813 1294.2813,349.2813 Q1294.6094,349.2813 1294.8594,349.5469 Q1295.125,349.7969 1295.125,350.1406 Q1295.125,350.4844 1294.7813,350.8906 Q1294.2813,351.4688 1293.4844,351.7969 Q1292.4063,352.25 1291.1094,352.25 Q1289.5938,352.25 1288.3906,351.625 Q1287.4063,351.125 1286.7188,350.0625 Q1286.0313,348.9844 1286.0313,347.7031 L1286.0313,346.5469 Q1286.0313,345.2188 1286.6406,344.0781 Q1287.2656,342.9219 1288.3594,342.3125 Q1289.4531,341.6875 1290.6875,341.6875 Q1291.4219,341.6875 1292.0625,341.8594 Q1292.7188,342.0156 1293.2656,342.375 Z " fill="#000000"/><text fill="#000000" font-family="sans-serif" font-size="14" lengthAdjust="spacing" textLength="52" x="1304.5" y="352.2285">Relation</text><line style="stroke:#181818;stroke-width:0.5;" x1="1276.5" x2="1358.5" y1="362.5" y2="362.5"/><line style="stroke:#181818;stroke-width:0.5;" x1="1276.5" x2="1358.5" y1="370.5" y2="370.5"/></g><!--MD5=[9c239722e256878d27dcbb07783cc14f]
class Classification--><g id="elem_Classification"><rect codeLine="21" fill="#F1F1F1" height="48" id="Classification" rx="2.5" ry="2.5" style="stroke:#181818;stroke-width:0.5;" width="115" x="933" y="491.5"/><ellipse cx="948" cy="507.5" fill="#ADD1B2" rx="11" ry="11" style="stroke:#181818;stroke-width:1.0;"/><path d="M950.7656,503.375 Q950.9219,503.1563 951.1094,503.0469 Q951.2969,502.9375 951.5156,502.9375 Q951.8906,502.9375 952.125,503.2031 Q952.3594,503.4531 952.3594,504.0625 L952.3594,505.5156 Q952.3594,506.125 952.125,506.3906 Q951.8906,506.6563 951.5156,506.6563 Q951.1719,506.6563 950.9688,506.4531 Q950.7656,506.2656 950.6563,505.75 Q950.6094,505.3906 950.4219,505.2031 Q950.0938,504.8281 949.4844,504.6094 Q948.875,504.3906 948.25,504.3906 Q947.4844,504.3906 946.8438,504.7188 Q946.2188,505.0469 945.7188,505.7969 Q945.2344,506.5469 945.2344,507.5781 L945.2344,508.6719 Q945.2344,509.9063 946.125,510.7344 Q947.0156,511.5469 948.6094,511.5469 Q949.5469,511.5469 950.2031,511.2969 Q950.5938,511.1406 951.0156,510.7031 Q951.2813,510.4375 951.4219,510.3594 Q951.5781,510.2813 951.7813,510.2813 Q952.1094,510.2813 952.3594,510.5469 Q952.625,510.7969 952.625,511.1406 Q952.625,511.4844 952.2813,511.8906 Q951.7813,512.4688 950.9844,512.7969 Q949.9063,513.25 948.6094,513.25 Q947.0938,513.25 945.8906,512.625 Q944.9063,512.125 944.2188,511.0625 Q943.5313,509.9844 943.5313,508.7031 L943.5313,507.5469 Q943.5313,506.2188 944.1406,505.0781 Q944.7656,503.9219 945.8594,503.3125 Q946.9531,502.6875 948.1875,502.6875 Q948.9219,502.6875 949.5625,502.8594 Q950.2188,503.0156 950.7656,503.375 Z " fill="#000000"/><text fill="#000000" font-family="sans-serif" font-size="14" lengthAdjust="spacing" textLength="83" x="962" y="513.2285">Classification</text><line style="stroke:#181818;stroke-width:0.5;" x1="934" x2="1047" y1="523.5" y2="523.5"/><line style="stroke:#181818;stroke-width:0.5;" x1="934" x2="1047" y1="531.5" y2="531.5"/></g><!--MD5=[251454e98c15f29849fb35b1904d0020]
class Composition--><g id="elem_Composition"><rect codeLine="23" fill="#F1F1F1" height="48" id="Composition" rx="2.5" ry="2.5" style="stroke:#181818;stroke-width:0.5;" width="110" x="1238.5" y="491.5"/><ellipse cx="1253.5" cy="507.5" fill="#ADD1B2" rx="11" ry="11" style="stroke:#181818;stroke-width:1.0;"/><path d="M1256.2656,503.375 Q1256.4219,503.1563 1256.6094,503.0469 Q1256.7969,502.9375 1257.0156,502.9375 Q1257.3906,502.9375 1257.625,503.2031 Q1257.8594,503.4531 1257.8594,504.0625 L1257.8594,505.5156 Q1257.8594,506.125 1257.625,506.3906 Q1257.3906,506.6563 1257.0156,506.6563 Q1256.6719,506.6563 1256.4688,506.4531 Q1256.2656,506.2656 1256.1563,505.75 Q1256.1094,505.3906 1255.9219,505.2031 Q1255.5938,504.8281 1254.9844,504.6094 Q1254.375,504.3906 1253.75,504.3906 Q1252.9844,504.3906 1252.3438,504.7188 Q1251.7188,505.0469 1251.2188,505.7969 Q1250.7344,506.5469 1250.7344,507.5781 L1250.7344,508.6719 Q1250.7344,509.9063 1251.625,510.7344 Q1252.5156,511.5469 1254.1094,511.5469 Q1255.0469,511.5469 1255.7031,511.2969 Q1256.0938,511.1406 1256.5156,510.7031 Q1256.7813,510.4375 1256.9219,510.3594 Q1257.0781,510.2813 1257.2813,510.2813 Q1257.6094,510.2813 1257.8594,510.5469 Q1258.125,510.7969 1258.125,511.1406 Q1258.125,511.4844 1257.7813,511.8906 Q1257.2813,512.4688 1256.4844,512.7969 Q1255.4063,513.25 1254.1094,513.25 Q1252.5938,513.25 1251.3906,512.625 Q1250.4063,512.125 1249.7188,511.0625 Q1249.0313,509.9844 1249.0313,508.7031 L1249.0313,507.5469 Q1249.0313,506.2188 1249.6406,505.0781 Q1250.2656,503.9219 1251.3594,503.3125 Q1252.4531,502.6875 1253.6875,502.6875 Q1254.4219,502.6875 1255.0625,502.8594 Q1255.7188,503.0156 1256.2656,503.375 Z " fill="#000000"/><text fill="#000000" font-family="sans-serif" font-size="14" lengthAdjust="spacing" textLength="78" x="1267.5" y="513.2285">Composition</text><line style="stroke:#181818;stroke-width:0.5;" x1="1239.5" x2="1347.5" y1="523.5" y2="523.5"/><line style="stroke:#181818;stroke-width:0.5;" x1="1239.5" x2="1347.5" y1="531.5" y2="531.5"/></g><!--MD5=[60d6b92408f98aed8df94d5c6e04aa63]
class State--><g id="elem_State"><rect codeLine="25" fill="#F1F1F1" height="48" id="State" rx="2.5" ry="2.5" style="stroke:#181818;stroke-width:0.5;" width="65" x="1396" y="330.5"/><ellipse cx="1411" cy="346.5" fill="#EB937F" rx="11" ry="11" style="stroke:#181818;stroke-width:1.0;"/><path d="M1409.8594,347.2969 L1409.8594,349.7969 L1414.1875,349.7969 L1414.1875,348.875 Q1414.1875,348.2656 1414.4219,348 Q1414.6719,347.7344 1415.0469,347.7344 Q1415.4219,347.7344 1415.6563,348 Q1415.8906,348.2656 1415.8906,348.875 L1415.8906,351.5 L1407.8906,351.5 Q1407.2656,351.5 1407,351.2656 Q1406.75,351.0313 1406.75,350.6406 Q1406.75,350.2656 1407.0156,350.0313 Q1407.2813,349.7969 1407.8906,349.7969 L1408.1563,349.7969 L1408.1563,343.1406 L1407.8906,343.1406 Q1407.2656,343.1406 1407,342.9063 Q1406.75,342.6719 1406.75,342.2813 Q1406.75,341.9063 1407,341.6719 Q1407.2656,341.4375 1407.8906,341.4375 L1415.5156,341.4375 L1415.5156,344.0313 Q1415.5156,344.6406 1415.2813,344.9063 Q1415.0625,345.1563 1414.6719,345.1563 Q1414.2969,345.1563 1414.0625,344.9063 Q1413.8281,344.6406 1413.8281,344.0313 L1413.8281,343.1406 L1409.8594,343.1406 L1409.8594,345.5938 L1411.3438,345.5938 Q1411.3438,344.9375 1411.4688,344.75 Q1411.7344,344.3438 1412.2031,344.3438 Q1412.5781,344.3438 1412.8125,344.6094 Q1413.0469,344.8594 1413.0469,345.4688 L1413.0469,347.4375 Q1413.0469,347.9844 1412.9219,348.1719 Q1412.6563,348.5625 1412.2031,348.5625 Q1411.7344,348.5625 1411.4688,348.1563 Q1411.3438,347.9688 1411.3438,347.2969 L1409.8594,347.2969 Z " fill="#000000"/><text fill="#000000" font-family="sans-serif" font-size="14" lengthAdjust="spacing" textLength="33" x="1425" y="352.2285">State</text><line style="stroke:#181818;stroke-width:0.5;" x1="1397" x2="1460" y1="362.5" y2="362.5"/><line style="stroke:#181818;stroke-width:0.5;" x1="1397" x2="1460" y1="370.5" y2="370.5"/></g><!--MD5=[a273cb2d535cd0db32a65a079a20fa3f]
class Primary--><g id="elem_Primary"><rect codeLine="27" fill="#F1F1F1" height="65.6094" id="Primary" rx="2.5" ry="2.5" style="stroke:#181818;stroke-width:0.5;" width="90" x="1383.5" y="482.5"/><ellipse cx="1403" cy="498.5" fill="#ADD1B2" rx="11" ry="11" style="stroke:#181818;stroke-width:1.0;"/><path d="M1405.7656,494.375 Q1405.9219,494.1563 1406.1094,494.0469 Q1406.2969,493.9375 1406.5156,493.9375 Q1406.8906,493.9375 1407.125,494.2031 Q1407.3594,494.4531 1407.3594,495.0625 L1407.3594,496.5156 Q1407.3594,497.125 1407.125,497.3906 Q1406.8906,497.6563 1406.5156,497.6563 Q1406.1719,497.6563 1405.9688,497.4531 Q1405.7656,497.2656 1405.6563,496.75 Q1405.6094,496.3906 1405.4219,496.2031 Q1405.0938,495.8281 1404.4844,495.6094 Q1403.875,495.3906 1403.25,495.3906 Q1402.4844,495.3906 1401.8438,495.7188 Q1401.2188,496.0469 1400.7188,496.7969 Q1400.2344,497.5469 1400.2344,498.5781 L1400.2344,499.6719 Q1400.2344,500.9063 1401.125,501.7344 Q1402.0156,502.5469 1403.6094,502.5469 Q1404.5469,502.5469 1405.2031,502.2969 Q1405.5938,502.1406 1406.0156,501.7031 Q1406.2813,501.4375 1406.4219,501.3594 Q1406.5781,501.2813 1406.7813,501.2813 Q1407.1094,501.2813 1407.3594,501.5469 Q1407.625,501.7969 1407.625,502.1406 Q1407.625,502.4844 1407.2813,502.8906 Q1406.7813,503.4688 1405.9844,503.7969 Q1404.9063,504.25 1403.6094,504.25 Q1402.0938,504.25 1400.8906,503.625 Q1399.9063,503.125 1399.2188,502.0625 Q1398.5313,500.9844 1398.5313,499.7031 L1398.5313,498.5469 Q1398.5313,497.2188 1399.1406,496.0781 Q1399.7656,494.9219 1400.8594,494.3125 Q1401.9531,493.6875 1403.1875,493.6875 Q1403.9219,493.6875 1404.5625,493.8594 Q1405.2188,494.0156 1405.7656,494.375 Z " fill="#000000"/><text fill="#000000" font-family="sans-serif" font-size="14" lengthAdjust="spacing" textLength="48" x="1418" y="504.2285">Primary</text><line style="stroke:#181818;stroke-width:0.5;" x1="1384.5" x2="1472.5" y1="514.5" y2="514.5"/><text fill="#000000" font-family="sans-serif" font-size="14" lengthAdjust="spacing" textLength="78" x="1389.5" y="533.0332">withKeyword</text><line style="stroke:#181818;stroke-width:0.5;" x1="1384.5" x2="1472.5" y1="540.1094" y2="540.1094"/></g><!--MD5=[322ff4561961666878e676a719041932]
class Secundary--><g id="elem_Secundary"><rect codeLine="31" fill="#F1F1F1" height="83.2188" id="Secundary" rx="2.5" ry="2.5" style="stroke:#181818;stroke-width:0.5;" width="192" x="1508.5" y="474"/><ellipse cx="1566.25" cy="490" fill="#ADD1B2" rx="11" ry="11" style="stroke:#181818;stroke-width:1.0;"/><path d="M1569.0156,485.875 Q1569.1719,485.6563 1569.3594,485.5469 Q1569.5469,485.4375 1569.7656,485.4375 Q1570.1406,485.4375 1570.375,485.7031 Q1570.6094,485.9531 1570.6094,486.5625 L1570.6094,488.0156 Q1570.6094,488.625 1570.375,488.8906 Q1570.1406,489.1563 1569.7656,489.1563 Q1569.4219,489.1563 1569.2188,488.9531 Q1569.0156,488.7656 1568.9063,488.25 Q1568.8594,487.8906 1568.6719,487.7031 Q1568.3438,487.3281 1567.7344,487.1094 Q1567.125,486.8906 1566.5,486.8906 Q1565.7344,486.8906 1565.0938,487.2188 Q1564.4688,487.5469 1563.9688,488.2969 Q1563.4844,489.0469 1563.4844,490.0781 L1563.4844,491.1719 Q1563.4844,492.4063 1564.375,493.2344 Q1565.2656,494.0469 1566.8594,494.0469 Q1567.7969,494.0469 1568.4531,493.7969 Q1568.8438,493.6406 1569.2656,493.2031 Q1569.5313,492.9375 1569.6719,492.8594 Q1569.8281,492.7813 1570.0313,492.7813 Q1570.3594,492.7813 1570.6094,493.0469 Q1570.875,493.2969 1570.875,493.6406 Q1570.875,493.9844 1570.5313,494.3906 Q1570.0313,494.9688 1569.2344,495.2969 Q1568.1563,495.75 1566.8594,495.75 Q1565.3438,495.75 1564.1406,495.125 Q1563.1563,494.625 1562.4688,493.5625 Q1561.7813,492.4844 1561.7813,491.2031 L1561.7813,490.0469 Q1561.7813,488.7188 1562.3906,487.5781 Q1563.0156,486.4219 1564.1094,485.8125 Q1565.2031,485.1875 1566.4375,485.1875 Q1567.1719,485.1875 1567.8125,485.3594 Q1568.4688,485.5156 1569.0156,485.875 Z " fill="#000000"/><text fill="#000000" font-family="sans-serif" font-size="14" lengthAdjust="spacing" textLength="68" x="1586.75" y="495.7285">Secundary</text><line style="stroke:#181818;stroke-width:0.5;" x1="1509.5" x2="1699.5" y1="506" y2="506"/><text fill="#000000" font-family="sans-serif" font-size="14" lengthAdjust="spacing" textLength="78" x="1514.5" y="524.5332">withKeyword</text><text fill="#000000" font-family="sans-serif" font-size="14" lengthAdjust="spacing" textLength="180" x="1514.5" y="542.1426">withDefinition or withRelation</text><line style="stroke:#181818;stroke-width:0.5;" x1="1509.5" x2="1699.5" y1="549.2188" y2="549.2188"/></g><g id="elem_link"><path d="M1531.5,341.5 L1531.5,367.8516 A0,0 0 0 0 1531.5,367.8516 L1600.5,367.8516 L1604.5,473.83 L1608.5,367.8516 L1677.5,367.8516 A0,0 0 0 0 1677.5,367.8516 L1677.5,351.5 L1667.5,341.5 L1531.5,341.5 A0,0 0 0 0 1531.5,341.5 " fill="#FEFFDD" style="stroke:#181818;stroke-width:0.5;"/><path d="M1667.5,341.5 L1667.5,351.5 L1677.5,351.5 L1667.5,341.5 " fill="#FEFFDD" style="stroke:#181818;stroke-width:0.5;"/><text fill="#000000" font-family="sans-serif" font-size="13" lengthAdjust="spacing" textLength="125" x="1537.5" y="359.9951">Link to the next detail</text></g><!--MD5=[3d8969de01f2361d4f44e57c4405efbc]
class OpenDefinitionQuestion--><g id="elem_OpenDefinitionQuestion"><rect codeLine="38" fill="#F1F1F1" height="83.2188" id="OpenDefinitionQuestion" rx="2.5" ry="2.5" style="stroke:#181818;stroke-width:0.5;" width="248" x="155.5" y="313"/><ellipse cx="199.75" cy="329" fill="#ADD1B2" rx="11" ry="11" style="stroke:#181818;stroke-width:1.0;"/><path d="M202.5156,324.875 Q202.6719,324.6563 202.8594,324.5469 Q203.0469,324.4375 203.2656,324.4375 Q203.6406,324.4375 203.875,324.7031 Q204.1094,324.9531 204.1094,325.5625 L204.1094,327.0156 Q204.1094,327.625 203.875,327.8906 Q203.6406,328.1563 203.2656,328.1563 Q202.9219,328.1563 202.7188,327.9531 Q202.5156,327.7656 202.4063,327.25 Q202.3594,326.8906 202.1719,326.7031 Q201.8438,326.3281 201.2344,326.1094 Q200.625,325.8906 200,325.8906 Q199.2344,325.8906 198.5938,326.2188 Q197.9688,326.5469 197.4688,327.2969 Q196.9844,328.0469 196.9844,329.0781 L196.9844,330.1719 Q196.9844,331.4063 197.875,332.2344 Q198.7656,333.0469 200.3594,333.0469 Q201.2969,333.0469 201.9531,332.7969 Q202.3438,332.6406 202.7656,332.2031 Q203.0313,331.9375 203.1719,331.8594 Q203.3281,331.7813 203.5313,331.7813 Q203.8594,331.7813 204.1094,332.0469 Q204.375,332.2969 204.375,332.6406 Q204.375,332.9844 204.0313,333.3906 Q203.5313,333.9688 202.7344,334.2969 Q201.6563,334.75 200.3594,334.75 Q198.8438,334.75 197.6406,334.125 Q196.6563,333.625 195.9688,332.5625 Q195.2813,331.4844 195.2813,330.2031 L195.2813,329.0469 Q195.2813,327.7188 195.8906,326.5781 Q196.5156,325.4219 197.6094,324.8125 Q198.7031,324.1875 199.9375,324.1875 Q200.6719,324.1875 201.3125,324.3594 Q201.9688,324.5156 202.5156,324.875 Z " fill="#000000"/><text fill="#000000" font-family="sans-serif" font-size="14" lengthAdjust="spacing" textLength="151" x="220.25" y="334.7285">OpenDefinitionQuestion</text><line style="stroke:#181818;stroke-width:0.5;" x1="156.5" x2="402.5" y1="345" y2="345"/><rect fill="none" height="6" style="stroke:#C82930;stroke-width:1.0;" width="6" x="163.5" y="356.3047"/><text fill="#000000" font-family="sans-serif" font-size="14" lengthAdjust="spacing" textLength="181" x="175.5" y="363.5332">StatementType = "Definition"</text><rect fill="none" height="6" style="stroke:#C82930;stroke-width:1.0;" width="6" x="163.5" y="373.9141"/><text fill="#000000" font-family="sans-serif" font-size="14" lengthAdjust="spacing" textLength="222" x="175.5" y="381.1426">statement ="¿Qué es KEYWORD?"</text><line style="stroke:#181818;stroke-width:0.5;" x1="156.5" x2="402.5" y1="388.2188" y2="388.2188"/></g><!--MD5=[9811c07b1247a04619f5505532a86de1]
class OpenClassQuestion--><g id="elem_OpenClassQuestion"><rect codeLine="44" fill="#F1F1F1" height="83.2188" id="OpenClassQuestion" rx="2.5" ry="2.5" style="stroke:#181818;stroke-width:0.5;" width="297" x="439" y="313"/><ellipse cx="519.75" cy="329" fill="#ADD1B2" rx="11" ry="11" style="stroke:#181818;stroke-width:1.0;"/><path d="M522.5156,324.875 Q522.6719,324.6563 522.8594,324.5469 Q523.0469,324.4375 523.2656,324.4375 Q523.6406,324.4375 523.875,324.7031 Q524.1094,324.9531 524.1094,325.5625 L524.1094,327.0156 Q524.1094,327.625 523.875,327.8906 Q523.6406,328.1563 523.2656,328.1563 Q522.9219,328.1563 522.7188,327.9531 Q522.5156,327.7656 522.4063,327.25 Q522.3594,326.8906 522.1719,326.7031 Q521.8438,326.3281 521.2344,326.1094 Q520.625,325.8906 520,325.8906 Q519.2344,325.8906 518.5938,326.2188 Q517.9688,326.5469 517.4688,327.2969 Q516.9844,328.0469 516.9844,329.0781 L516.9844,330.1719 Q516.9844,331.4063 517.875,332.2344 Q518.7656,333.0469 520.3594,333.0469 Q521.2969,333.0469 521.9531,332.7969 Q522.3438,332.6406 522.7656,332.2031 Q523.0313,331.9375 523.1719,331.8594 Q523.3281,331.7813 523.5313,331.7813 Q523.8594,331.7813 524.1094,332.0469 Q524.375,332.2969 524.375,332.6406 Q524.375,332.9844 524.0313,333.3906 Q523.5313,333.9688 522.7344,334.2969 Q521.6563,334.75 520.3594,334.75 Q518.8438,334.75 517.6406,334.125 Q516.6563,333.625 515.9688,332.5625 Q515.2813,331.4844 515.2813,330.2031 L515.2813,329.0469 Q515.2813,327.7188 515.8906,326.5781 Q516.5156,325.4219 517.6094,324.8125 Q518.7031,324.1875 519.9375,324.1875 Q520.6719,324.1875 521.3125,324.3594 Q521.9688,324.5156 522.5156,324.875 Z " fill="#000000"/><text fill="#000000" font-family="sans-serif" font-size="14" lengthAdjust="spacing" textLength="127" x="540.25" y="334.7285">OpenClassQuestion</text><line style="stroke:#181818;stroke-width:0.5;" x1="440" x2="735" y1="345" y2="345"/><rect fill="none" height="6" style="stroke:#C82930;stroke-width:1.0;" width="6" x="447" y="356.3047"/><text fill="#000000" font-family="sans-serif" font-size="14" lengthAdjust="spacing" textLength="205" x="459" y="363.5332">StatementType = "Classification"</text><rect fill="none" height="6" style="stroke:#C82930;stroke-width:1.0;" width="6" x="447" y="373.9141"/><text fill="#000000" font-family="sans-serif" font-size="14" lengthAdjust="spacing" textLength="271" x="459" y="381.1426">statement = "Qué tipos hay de KEYWORD"</text><line style="stroke:#181818;stroke-width:0.5;" x1="440" x2="735" y1="388.2188" y2="388.2188"/></g><!--MD5=[2e3e70aeace816b0cedea9999a1b71b4]
class OpenCompositionQuestion--><g id="elem_OpenCompositionQuestion"><rect codeLine="50" fill="#F1F1F1" height="83.2188" id="OpenCompositionQuestion" rx="2.5" ry="2.5" style="stroke:#181818;stroke-width:0.5;" width="398" x="771.5" y="313"/><ellipse cx="881.25" cy="329" fill="#ADD1B2" rx="11" ry="11" style="stroke:#181818;stroke-width:1.0;"/><path d="M884.0156,324.875 Q884.1719,324.6563 884.3594,324.5469 Q884.5469,324.4375 884.7656,324.4375 Q885.1406,324.4375 885.375,324.7031 Q885.6094,324.9531 885.6094,325.5625 L885.6094,327.0156 Q885.6094,327.625 885.375,327.8906 Q885.1406,328.1563 884.7656,328.1563 Q884.4219,328.1563 884.2188,327.9531 Q884.0156,327.7656 883.9063,327.25 Q883.8594,326.8906 883.6719,326.7031 Q883.3438,326.3281 882.7344,326.1094 Q882.125,325.8906 881.5,325.8906 Q880.7344,325.8906 880.0938,326.2188 Q879.4688,326.5469 878.9688,327.2969 Q878.4844,328.0469 878.4844,329.0781 L878.4844,330.1719 Q878.4844,331.4063 879.375,332.2344 Q880.2656,333.0469 881.8594,333.0469 Q882.7969,333.0469 883.4531,332.7969 Q883.8438,332.6406 884.2656,332.2031 Q884.5313,331.9375 884.6719,331.8594 Q884.8281,331.7813 885.0313,331.7813 Q885.3594,331.7813 885.6094,332.0469 Q885.875,332.2969 885.875,332.6406 Q885.875,332.9844 885.5313,333.3906 Q885.0313,333.9688 884.2344,334.2969 Q883.1563,334.75 881.8594,334.75 Q880.3438,334.75 879.1406,334.125 Q878.1563,333.625 877.4688,332.5625 Q876.7813,331.4844 876.7813,330.2031 L876.7813,329.0469 Q876.7813,327.7188 877.3906,326.5781 Q878.0156,325.4219 879.1094,324.8125 Q880.2031,324.1875 881.4375,324.1875 Q882.1719,324.1875 882.8125,324.3594 Q883.4688,324.5156 884.0156,324.875 Z " fill="#000000"/><text fill="#000000" font-family="sans-serif" font-size="14" lengthAdjust="spacing" textLength="170" x="901.75" y="334.7285">OpenCompositionQuestion</text><line style="stroke:#181818;stroke-width:0.5;" x1="772.5" x2="1168.5" y1="345" y2="345"/><rect fill="none" height="6" style="stroke:#C82930;stroke-width:1.0;" width="6" x="779.5" y="356.3047"/><text fill="#000000" font-family="sans-serif" font-size="14" lengthAdjust="spacing" textLength="200" x="791.5" y="363.5332">StatementType = "Composition"</text><rect fill="none" height="6" style="stroke:#C82930;stroke-width:1.0;" width="6" x="779.5" y="373.9141"/><text fill="#000000" font-family="sans-serif" font-size="14" lengthAdjust="spacing" textLength="372" x="791.5" y="381.1426">statement ="¿Qué conceptos destacarias del KEYWORD?"</text><line style="stroke:#181818;stroke-width:0.5;" x1="772.5" x2="1168.5" y1="388.2188" y2="388.2188"/></g><!--MD5=[fc7123defb831ecdd44b2d9bcef6cceb]
class Question--><g id="elem_Question"><rect codeLine="56" fill="#F1F1F1" height="100.8281" id="Question" rx="2.5" ry="2.5" style="stroke:#181818;stroke-width:0.5;" width="122" x="1254.5" y="7"/><ellipse cx="1284.35" cy="23" fill="#A9DCDF" rx="11" ry="11" style="stroke:#181818;stroke-width:1.0;"/><path d="M1286.5375,24.7656 L1282.3969,24.7656 L1281.975,25.7969 L1282.3969,25.7969 Q1283.0063,25.7969 1283.2719,26.0313 Q1283.5375,26.2656 1283.5375,26.6563 Q1283.5375,27.0313 1283.2719,27.2656 Q1283.0063,27.5 1282.3969,27.5 L1280.1,27.5 Q1279.4906,27.5 1279.2406,27.2656 Q1278.975,27.0313 1278.975,26.6406 Q1278.975,26.2656 1279.2563,26.0313 Q1279.5219,25.7813 1280.1469,25.7969 L1282.8188,19.1406 L1281.7094,19.1406 Q1281.1,19.1406 1280.8344,18.9063 Q1280.5688,18.6719 1280.5688,18.2813 Q1280.5688,17.9063 1280.8344,17.6719 Q1281.1,17.4375 1281.7094,17.4375 L1285.3813,17.4375 L1288.7719,25.7969 Q1289.3656,25.7969 1289.5531,25.9375 Q1289.9438,26.2031 1289.9438,26.6563 Q1289.9438,27.0313 1289.6781,27.2656 Q1289.4281,27.5 1288.8188,27.5 L1286.5219,27.5 Q1285.9125,27.5 1285.6469,27.2656 Q1285.3813,27.0313 1285.3813,26.6406 Q1285.3813,26.2656 1285.6469,26.0313 Q1285.9125,25.7969 1286.5219,25.7969 L1286.9438,25.7969 L1286.5375,24.7656 Z M1285.8188,23.0625 L1284.4594,19.6875 L1283.0844,23.0625 L1285.8188,23.0625 Z " fill="#000000"/><text fill="#000000" font-family="sans-serif" font-size="14" font-style="italic" lengthAdjust="spacing" textLength="57" x="1301.65" y="28.7285">Question</text><line style="stroke:#181818;stroke-width:0.5;" x1="1255.5" x2="1375.5" y1="39" y2="39"/><rect fill="none" height="6" style="stroke:#C82930;stroke-width:1.0;" width="6" x="1262.5" y="50.3047"/><text fill="#000000" font-family="sans-serif" font-size="14" lengthAdjust="spacing" textLength="62" x="1274.5" y="57.5332">statement</text><rect fill="none" height="6" style="stroke:#C82930;stroke-width:1.0;" width="6" x="1262.5" y="67.9141"/><text fill="#000000" font-family="sans-serif" font-size="14" lengthAdjust="spacing" textLength="96" x="1274.5" y="75.1426">StatementType</text><rect fill="none" height="6" style="stroke:#C82930;stroke-width:1.0;" width="6" x="1262.5" y="85.5234"/><text fill="#000000" font-family="sans-serif" font-size="14" lengthAdjust="spacing" textLength="60" x="1274.5" y="92.752">answers[]</text><line style="stroke:#181818;stroke-width:0.5;" x1="1255.5" x2="1375.5" y1="99.8281" y2="99.8281"/></g><!--MD5=[c5be3d7e9ffcf6502258095b57411394]
class OpenQuestion--><g id="elem_OpenQuestion"><rect codeLine="62" fill="#F1F1F1" height="65.6094" id="OpenQuestion" rx="2.5" ry="2.5" style="stroke:#181818;stroke-width:0.5;" width="164" x="505.5" y="177.5"/><ellipse cx="538.5" cy="193.5" fill="#ADD1B2" rx="11" ry="11" style="stroke:#181818;stroke-width:1.0;"/><path d="M541.2656,189.375 Q541.4219,189.1563 541.6094,189.0469 Q541.7969,188.9375 542.0156,188.9375 Q542.3906,188.9375 542.625,189.2031 Q542.8594,189.4531 542.8594,190.0625 L542.8594,191.5156 Q542.8594,192.125 542.625,192.3906 Q542.3906,192.6563 542.0156,192.6563 Q541.6719,192.6563 541.4688,192.4531 Q541.2656,192.2656 541.1563,191.75 Q541.1094,191.3906 540.9219,191.2031 Q540.5938,190.8281 539.9844,190.6094 Q539.375,190.3906 538.75,190.3906 Q537.9844,190.3906 537.3438,190.7188 Q536.7188,191.0469 536.2188,191.7969 Q535.7344,192.5469 535.7344,193.5781 L535.7344,194.6719 Q535.7344,195.9063 536.625,196.7344 Q537.5156,197.5469 539.1094,197.5469 Q540.0469,197.5469 540.7031,197.2969 Q541.0938,197.1406 541.5156,196.7031 Q541.7813,196.4375 541.9219,196.3594 Q542.0781,196.2813 542.2813,196.2813 Q542.6094,196.2813 542.8594,196.5469 Q543.125,196.7969 543.125,197.1406 Q543.125,197.4844 542.7813,197.8906 Q542.2813,198.4688 541.4844,198.7969 Q540.4063,199.25 539.1094,199.25 Q537.5938,199.25 536.3906,198.625 Q535.4063,198.125 534.7188,197.0625 Q534.0313,195.9844 534.0313,194.7031 L534.0313,193.5469 Q534.0313,192.2188 534.6406,191.0781 Q535.2656,189.9219 536.3594,189.3125 Q537.4531,188.6875 538.6875,188.6875 Q539.4219,188.6875 540.0625,188.8594 Q540.7188,189.0156 541.2656,189.375 Z " fill="#000000"/><text fill="#000000" font-family="sans-serif" font-size="14" lengthAdjust="spacing" textLength="92" x="556.5" y="199.2285">OpenQuestion</text><line style="stroke:#181818;stroke-width:0.5;" x1="506.5" x2="668.5" y1="209.5" y2="209.5"/><rect fill="none" height="6" style="stroke:#C82930;stroke-width:1.0;" width="6" x="513.5" y="220.8047"/><text fill="#000000" font-family="sans-serif" font-size="14" lengthAdjust="spacing" textLength="138" x="525.5" y="228.0332">answerType = "Open"</text><line style="stroke:#181818;stroke-width:0.5;" x1="506.5" x2="668.5" y1="235.1094" y2="235.1094"/></g><!--MD5=[54a8e627be4ee6aab370a2a8960cc8d7]
class OpenAnswer--><g id="elem_OpenAnswer"><rect fill="#F1F1F1" height="48" id="OpenAnswer" rx="2.5" ry="2.5" style="stroke:#181818;stroke-width:0.5;" width="113" x="7" y="330.5"/><ellipse cx="22" cy="346.5" fill="#ADD1B2" rx="11" ry="11" style="stroke:#181818;stroke-width:1.0;"/><path d="M24.7656,342.375 Q24.9219,342.1563 25.1094,342.0469 Q25.2969,341.9375 25.5156,341.9375 Q25.8906,341.9375 26.125,342.2031 Q26.3594,342.4531 26.3594,343.0625 L26.3594,344.5156 Q26.3594,345.125 26.125,345.3906 Q25.8906,345.6563 25.5156,345.6563 Q25.1719,345.6563 24.9688,345.4531 Q24.7656,345.2656 24.6563,344.75 Q24.6094,344.3906 24.4219,344.2031 Q24.0938,343.8281 23.4844,343.6094 Q22.875,343.3906 22.25,343.3906 Q21.4844,343.3906 20.8438,343.7188 Q20.2188,344.0469 19.7188,344.7969 Q19.2344,345.5469 19.2344,346.5781 L19.2344,347.6719 Q19.2344,348.9063 20.125,349.7344 Q21.0156,350.5469 22.6094,350.5469 Q23.5469,350.5469 24.2031,350.2969 Q24.5938,350.1406 25.0156,349.7031 Q25.2813,349.4375 25.4219,349.3594 Q25.5781,349.2813 25.7813,349.2813 Q26.1094,349.2813 26.3594,349.5469 Q26.625,349.7969 26.625,350.1406 Q26.625,350.4844 26.2813,350.8906 Q25.7813,351.4688 24.9844,351.7969 Q23.9063,352.25 22.6094,352.25 Q21.0938,352.25 19.8906,351.625 Q18.9063,351.125 18.2188,350.0625 Q17.5313,348.9844 17.5313,347.7031 L17.5313,346.5469 Q17.5313,345.2188 18.1406,344.0781 Q18.7656,342.9219 19.8594,342.3125 Q20.9531,341.6875 22.1875,341.6875 Q22.9219,341.6875 23.5625,341.8594 Q24.2188,342.0156 24.7656,342.375 Z " fill="#000000"/><text fill="#000000" font-family="sans-serif" font-size="14" lengthAdjust="spacing" textLength="81" x="36" y="352.2285">OpenAnswer</text><line style="stroke:#181818;stroke-width:0.5;" x1="8" x2="119" y1="362.5" y2="362.5"/><line style="stroke:#181818;stroke-width:0.5;" x1="8" x2="119" y1="370.5" y2="370.5"/></g><!--MD5=[af22135d5be6ed11ccd2d02fa51653b3]
class Definition--><g id="elem_Definition"><rect fill="#F1F1F1" height="48" id="Definition" rx="2.5" ry="2.5" style="stroke:#181818;stroke-width:0.5;" width="91" x="498" y="491.5"/><ellipse cx="513" cy="507.5" fill="#ADD1B2" rx="11" ry="11" style="stroke:#181818;stroke-width:1.0;"/><path d="M515.7656,503.375 Q515.9219,503.1563 516.1094,503.0469 Q516.2969,502.9375 516.5156,502.9375 Q516.8906,502.9375 517.125,503.2031 Q517.3594,503.4531 517.3594,504.0625 L517.3594,505.5156 Q517.3594,506.125 517.125,506.3906 Q516.8906,506.6563 516.5156,506.6563 Q516.1719,506.6563 515.9688,506.4531 Q515.7656,506.2656 515.6563,505.75 Q515.6094,505.3906 515.4219,505.2031 Q515.0938,504.8281 514.4844,504.6094 Q513.875,504.3906 513.25,504.3906 Q512.4844,504.3906 511.8438,504.7188 Q511.2188,505.0469 510.7188,505.7969 Q510.2344,506.5469 510.2344,507.5781 L510.2344,508.6719 Q510.2344,509.9063 511.125,510.7344 Q512.0156,511.5469 513.6094,511.5469 Q514.5469,511.5469 515.2031,511.2969 Q515.5938,511.1406 516.0156,510.7031 Q516.2813,510.4375 516.4219,510.3594 Q516.5781,510.2813 516.7813,510.2813 Q517.1094,510.2813 517.3594,510.5469 Q517.625,510.7969 517.625,511.1406 Q517.625,511.4844 517.2813,511.8906 Q516.7813,512.4688 515.9844,512.7969 Q514.9063,513.25 513.6094,513.25 Q512.0938,513.25 510.8906,512.625 Q509.9063,512.125 509.2188,511.0625 Q508.5313,509.9844 508.5313,508.7031 L508.5313,507.5469 Q508.5313,506.2188 509.1406,505.0781 Q509.7656,503.9219 510.8594,503.3125 Q511.9531,502.6875 513.1875,502.6875 Q513.9219,502.6875 514.5625,502.8594 Q515.2188,503.0156 515.7656,503.375 Z " fill="#000000"/><text fill="#000000" font-family="sans-serif" font-size="14" lengthAdjust="spacing" textLength="59" x="527" y="513.2285">Definition</text><line style="stroke:#181818;stroke-width:0.5;" x1="499" x2="588" y1="523.5" y2="523.5"/><line style="stroke:#181818;stroke-width:0.5;" x1="499" x2="588" y1="531.5" y2="531.5"/></g><!--MD5=[e68d8486b151d64b61c7f5b6e40a3de9]
reverse link Question to OpenQuestion--><g id="link_Question_OpenQuestion"><path codeLine="66" d="M1234.44,75.31 C1094.74,104.29 810.1,163.33 669.65,192.46 " fill="none" id="Question-backto-OpenQuestion" style="stroke:#181818;stroke-width:1.0;"/><polygon fill="none" points="1233.37,68.39,1254.37,71.18,1236.21,82.1,1233.37,68.39" style="stroke:#181818;stroke-width:1.0;"/></g><!--MD5=[ed083f2d1ee1d19af9b715a82f936d84]
link Question to Concept--><g id="link_Question_Concept"><path codeLine="67" d="M1315.5,108.36 C1315.5,123.51 1315.5,140.22 1315.5,155.62 " fill="none" id="Question-to-Concept" style="stroke:#181818;stroke-width:1.0;"/><polygon fill="none" points="1315.5,168.75,1319.5,162.75,1315.5,156.75,1311.5,162.75,1315.5,168.75" style="stroke:#181818;stroke-width:1.0;"/><text fill="#000000" font-family="sans-serif" font-size="13" lengthAdjust="spacing" textLength="22" x="1292.0906" y="129.4301">0..n</text></g><!--MD5=[ddd0ba9ff0adad4c5f8027dfa32b4028]
reverse link OpenQuestion to OpenAnswer--><g id="link_OpenQuestion_OpenAnswer"><path codeLine="69" d="M492.44,225.03 C399.8,240.04 255.98,268.23 137.5,313 C125.17,317.66 112.36,324.05 100.94,330.37 " fill="none" id="OpenQuestion-backto-OpenAnswer" style="stroke:#181818;stroke-width:1.0;"/><polygon fill="none" points="505.45,222.95,498.8929,219.9493,493.601,224.8479,500.1582,227.8486,505.45,222.95" style="stroke:#181818;stroke-width:1.0;"/><text fill="#000000" font-family="sans-serif" font-size="13" lengthAdjust="spacing" textLength="22" x="85.7153" y="319.6768">0..n</text></g><!--MD5=[67a9faaf0515b397e3219f72c48c9cfd]
reverse link Concept to State--><g id="link_Concept_State"><path codeLine="70" d="M1356.17,262.61 C1374.67,285.85 1395.62,312.18 1410.2,330.5 " fill="none" id="Concept-backto-State" style="stroke:#181818;stroke-width:1.0;"/><polygon fill="#181818" points="1347.88,252.19,1348.4887,259.3754,1355.3554,261.5771,1354.7468,254.3918,1347.88,252.19" style="stroke:#181818;stroke-width:1.0;"/></g><!--MD5=[a5520a007773c1785edb69fbf58d008f]
link Question to State--><g id="link_Question_State"><path codeLine="71" d="M1345.51,108.26 C1355.94,126.88 1367.11,148.49 1375.5,169 C1397.4,222.5 1413.96,288.21 1422.36,325.02 " fill="none" id="Question-to-State" style="stroke:#181818;stroke-width:1.0;stroke-dasharray:7.0,7.0;"/><polygon fill="#181818" points="1423.54,330.23,1425.4594,320.57,1422.4387,325.3528,1417.6559,322.3321,1423.54,330.23" style="stroke:#181818;stroke-width:1.0;"/><text fill="#000000" font-family="sans-serif" font-size="13" lengthAdjust="spacing" textLength="88" x="1405.5" y="215.9951">StatementType</text></g><!--MD5=[543bb2115b5a10697a67507a00f6a2f4]
reverse link Concept to Definition--><g id="link_Concept_Definition"><path codeLine="73" d="M1285.36,263.44 C1256.2,311.89 1212.67,379.17 1186.5,396 C1086.37,460.38 718.67,498.81 589.07,510.6 " fill="none" id="Concept-backto-Definition" style="stroke:#181818;stroke-width:1.0;"/><polygon fill="none" points="1292.08,252.19,1285.5677,255.2868,1285.9216,262.4892,1292.4339,259.3924,1292.08,252.19" style="stroke:#181818;stroke-width:1.0;"/><text fill="#000000" font-family="sans-serif" font-size="13" lengthAdjust="spacing" textLength="22" x="597.0252" y="506.3058">0..n</text></g><!--MD5=[54f9360500e0fd532969fc16f437bbea]
reverse link Concept to Relation--><g id="link_Concept_Relation"><path codeLine="77" d="M1316.26,265.45 C1316.58,287.97 1316.93,312.93 1317.18,330.5 " fill="none" id="Concept-backto-Relation" style="stroke:#181818;stroke-width:1.0;"/><polygon fill="none" points="1316.07,252.19,1312.1495,258.2422,1316.2282,264.189,1320.1488,258.1367,1316.07,252.19" style="stroke:#181818;stroke-width:1.0;"/><text fill="#000000" font-family="sans-serif" font-size="13" lengthAdjust="spacing" textLength="22" x="1292.2793" y="319.8402">0..n</text></g><!--MD5=[90ea77717cc70d7f588b001bbb985d62]
reverse link Relation to Classification--><g id="link_Relation_Classification"><path codeLine="78" d="M1281.11,392.78 C1262.29,410.34 1238.13,430.36 1213.5,444 C1160.93,473.11 1094.61,492.12 1048.01,502.99 " fill="none" id="Relation-backto-Classification" style="stroke:#181818;stroke-width:1.0;"/><polygon fill="none" points="1276.32,387.68,1295.56,378.81,1286.05,397.74,1276.32,387.68" style="stroke:#181818;stroke-width:1.0;"/></g><!--MD5=[aac130c8b5f905729b18e85e231f7b50]
reverse link Relation to Composition--><g id="link_Relation_Composition"><path codeLine="79" d="M1340.94,397.21 C1346.44,412.02 1349.43,428.78 1344.5,444 C1338.78,461.68 1326.78,478.64 1315.86,491.5 " fill="none" id="Relation-backto-Composition" style="stroke:#181818;stroke-width:1.0;"/><polygon fill="none" points="1334.51,399.96,1332.57,378.86,1347.24,394.15,1334.51,399.96" style="stroke:#181818;stroke-width:1.0;"/></g><!--MD5=[853bb68ef748593df4a7139cf0af95d7]
reverse link State to Primary--><g id="link_State_Primary"><path codeLine="81" d="M1428.5,398.82 C1428.5,425.16 1428.5,458.23 1428.5,482.26 " fill="none" id="State-backto-Primary" style="stroke:#181818;stroke-width:1.0;"/><polygon fill="none" points="1421.5,398.62,1428.5,378.62,1435.5,398.62,1421.5,398.62" style="stroke:#181818;stroke-width:1.0;"/></g><!--MD5=[5a70d9cb697fce9798f73fc804671dc5]
reverse link State to Secundary--><g id="link_State_Secundary"><path codeLine="82" d="M1469.27,392.33 C1496.24,416.7 1531.63,448.67 1559.44,473.79 " fill="none" id="State-backto-Secundary" style="stroke:#181818;stroke-width:1.0;"/><polygon fill="none" points="1464.24,397.22,1454.09,378.62,1473.63,386.83,1464.24,397.22" style="stroke:#181818;stroke-width:1.0;"/></g><!--MD5=[00d00651df35e5fdc4df48bf5349a5bb]
reverse link OpenQuestion to OpenDefinitionQuestion--><g id="link_OpenQuestion_OpenDefinitionQuestion"><path codeLine="88" d="M499.58,252.03 C458.19,271.12 408.93,293.83 367.52,312.92 " fill="none" id="OpenQuestion-backto-OpenDefinitionQuestion" style="stroke:#181818;stroke-width:1.0;"/><polygon fill="none" points="496.9,245.56,517.99,243.54,502.76,258.28,496.9,245.56" style="stroke:#181818;stroke-width:1.0;"/></g><!--MD5=[49c48160fdf887f5a9305ebf554c6fce]
reverse link OpenDefinitionQuestion to Definition--><g id="link_OpenDefinitionQuestion_Definition"><path codeLine="89" d="M351.25,398.71 C400.79,428.55 464.75,467.07 504.96,491.29 " fill="none" id="OpenDefinitionQuestion-backto-Definition" style="stroke:#181818;stroke-width:1.0;stroke-dasharray:7.0,7.0;"/><polygon fill="#181818" points="346.8,396.03,352.4397,404.1043,351.0812,398.613,356.5725,397.2544,346.8,396.03" style="stroke:#181818;stroke-width:1.0;"/><text fill="#000000" font-family="sans-serif" font-size="13" lengthAdjust="spacing" textLength="48" x="420.5" y="440.4951">answers</text></g><!--MD5=[2c480cd5ab9f14c80fa922f559052d91]
reverse link OpenQuestion to OpenClassQuestion--><g id="link_OpenQuestion_OpenClassQuestion"><path codeLine="91" d="M587.5,263.84 C587.5,279.98 587.5,297.51 587.5,312.75 " fill="none" id="OpenQuestion-backto-OpenClassQuestion" style="stroke:#181818;stroke-width:1.0;"/><polygon fill="none" points="580.5,263.72,587.5,243.72,594.5,263.72,580.5,263.72" style="stroke:#181818;stroke-width:1.0;"/></g><!--MD5=[b619a8a782ce055e34c4b08410723460]
reverse link OpenClassQuestion to Classification--><g id="link_OpenClassQuestion_Classification"><path codeLine="92" d="M695.23,398 C771.58,428.13 871.04,467.37 932.82,491.74 " fill="none" id="OpenClassQuestion-backto-Classification" style="stroke:#181818;stroke-width:1.0;stroke-dasharray:7.0,7.0;"/><polygon fill="#181818" points="690.24,396.03,697.1555,403.0426,694.8941,397.8574,700.0793,395.596,690.24,396.03" style="stroke:#181818;stroke-width:1.0;"/><text fill="#000000" font-family="sans-serif" font-size="13" lengthAdjust="spacing" textLength="48" x="802.5" y="440.4951">answers</text></g><!--MD5=[a705a4ef93217206b71ff3030540b34a]
reverse link OpenQuestion to OpenCompositionQuestion--><g id="link_OpenQuestion_OpenCompositionQuestion"><path codeLine="94" d="M688.65,249 C741.77,268.7 806.93,292.85 861.21,312.98 " fill="none" id="OpenQuestion-backto-OpenCompositionQuestion" style="stroke:#181818;stroke-width:1.0;"/><polygon fill="none" points="685.98,255.48,669.66,241.96,690.85,242.35,685.98,255.48" style="stroke:#181818;stroke-width:1.0;"/></g><!--MD5=[92cd928904746ce40363a3030cb52c20]
reverse link OpenCompositionQuestion to Composition--><g id="link_OpenCompositionQuestion_Composition"><path codeLine="95" d="M1057.55,398.35 C1118.27,428.24 1196.96,466.98 1246.35,491.29 " fill="none" id="OpenCompositionQuestion-backto-Composition" style="stroke:#181818;stroke-width:1.0;stroke-dasharray:7.0,7.0;"/><polygon fill="#181818" points="1052.84,396.03,1059.1591,403.5844,1057.3292,398.2317,1062.6818,396.4017,1052.84,396.03" style="stroke:#181818;stroke-width:1.0;"/><text fill="#000000" font-family="sans-serif" font-size="13" lengthAdjust="spacing" textLength="48" x="1143.5" y="440.4951">answers</text></g><!--MD5=[55755ad4323a1ba511d0f27823bb51f3]
@startuml ConceptDomainDetail

class Concept {
    - keyword
    - state
}

'class Definition {
    '   - Real/Fake
    '
'}

'class Justification {
    '    - Real/Fake
    '
'}

'class Explanation

class Relation

class Classification

class Composition

enum State

class Primary {
    withKeyword
}

class Secundary {
    withKeyword
    withDefinition or withRelation
}
note "Link to the next detail" as link
link .- Secundary

class OpenDefinitionQuestion {
    - StatementType = "Definition"
    - statement ="¿Qué es KEYWORD?"

}

class OpenClassQuestion {
    - StatementType = "Classification"
    - statement = "Qué tipos hay de KEYWORD"

}

class OpenCompositionQuestion {
    - StatementType = "Composition"
    - statement ="¿Qué conceptos destacarias del KEYWORD?"

}

abstract class Question {
    - statement
    - StatementType
    - answers[]
}

class OpenQuestion {
    - answerType = "Open"
}

Question <|- - OpenQuestion
Question "0..n" -o Concept
'Question <|- - Open :- - answerType
OpenQuestion o- -"0..n" OpenAnswer
Concept *- - State
Question ..> State: StatementType

Concept o- -"0..n" Definition
'Definition o- - "0..n" Justification:Fake
'Justification o- - Explanation:Fake

Concept o- - "0..n" Relation
Relation <|- - Classification
Relation <|- - Composition

State <|- - Primary
State <|- - Secundary

'Question <|- - OpenDefinitionQuestion :- -StatementType
'Question <|- - OpenClassQuestion :- -StatementType
'Question <|- - OpenCompositionQuestion :- -StatementType

OpenQuestion <|- - OpenDefinitionQuestion
OpenDefinitionQuestion <.. Definition: answers

OpenQuestion <|- - OpenClassQuestion
OpenClassQuestion <.. Classification :answers

OpenQuestion <|- - OpenCompositionQuestion
OpenCompositionQuestion <.. Composition :answers

@enduml

@startuml ConceptDomainDetail

class Concept {
    - keyword
    - state
}




class Relation

class Classification

class Composition

enum State

class Primary {
    withKeyword
}

class Secundary {
    withKeyword
    withDefinition or withRelation
}
note "Link to the next detail" as link
link .- Secundary

class OpenDefinitionQuestion {
    - StatementType = "Definition"
    - statement ="¿Qué es KEYWORD?"

}

class OpenClassQuestion {
    - StatementType = "Classification"
    - statement = "Qué tipos hay de KEYWORD"

}

class OpenCompositionQuestion {
    - StatementType = "Composition"
    - statement ="¿Qué conceptos destacarias del KEYWORD?"

}

abstract class Question {
    - statement
    - StatementType
    - answers[]
}

class OpenQuestion {
    - answerType = "Open"
}

Question <|- - OpenQuestion
Question "0..n" -o Concept
OpenQuestion o- -"0..n" OpenAnswer
Concept *- - State
Question ..> State: StatementType

Concept o- -"0..n" Definition

Concept o- - "0..n" Relation
Relation <|- - Classification
Relation <|- - Composition

State <|- - Primary
State <|- - Secundary


OpenQuestion <|- - OpenDefinitionQuestion
OpenDefinitionQuestion <.. Definition: answers

OpenQuestion <|- - OpenClassQuestion
OpenClassQuestion <.. Classification :answers

OpenQuestion <|- - OpenCompositionQuestion
OpenCompositionQuestion <.. Composition :answers

@enduml

PlantUML version 1.2022.7(Mon Aug 22 18:01:30 WEST 2022)
(GPL source distribution)
Java Runtime: OpenJDK Runtime Environment
JVM: OpenJDK 64-Bit Server VM
Default Encoding: Cp1252
Language: es
Country: ES
--></g></svg>