<?xml version="1.0" encoding="UTF-8" standalone="no"?><svg xmlns="http://www.w3.org/2000/svg" xmlns:xlink="http://www.w3.org/1999/xlink" contentStyleType="text/css" height="494px" preserveAspectRatio="none" style="width:1364px;height:494px;background:#FFFFFF;" version="1.1" viewBox="0 0 1364 494" width="1364px" zoomAndPan="magnify"><defs/><g><!--MD5=[a96594a83e2ecdc78cbf17c2ddf01934]
class Category--><g id="elem_Category"><rect codeLine="2" fill="#F1F1F1" height="48" id="Category" rx="2.5" ry="2.5" style="stroke:#181818;stroke-width:0.5;" width="90" x="501.5" y="7"/><ellipse cx="516.5" cy="23" fill="#ADD1B2" rx="11" ry="11" style="stroke:#181818;stroke-width:1.0;"/><path d="M519.2656,18.875 Q519.4219,18.6563 519.6094,18.5469 Q519.7969,18.4375 520.0156,18.4375 Q520.3906,18.4375 520.625,18.7031 Q520.8594,18.9531 520.8594,19.5625 L520.8594,21.0156 Q520.8594,21.625 520.625,21.8906 Q520.3906,22.1563 520.0156,22.1563 Q519.6719,22.1563 519.4688,21.9531 Q519.2656,21.7656 519.1563,21.25 Q519.1094,20.8906 518.9219,20.7031 Q518.5938,20.3281 517.9844,20.1094 Q517.375,19.8906 516.75,19.8906 Q515.9844,19.8906 515.3438,20.2188 Q514.7188,20.5469 514.2188,21.2969 Q513.7344,22.0469 513.7344,23.0781 L513.7344,24.1719 Q513.7344,25.4063 514.625,26.2344 Q515.5156,27.0469 517.1094,27.0469 Q518.0469,27.0469 518.7031,26.7969 Q519.0938,26.6406 519.5156,26.2031 Q519.7813,25.9375 519.9219,25.8594 Q520.0781,25.7813 520.2813,25.7813 Q520.6094,25.7813 520.8594,26.0469 Q521.125,26.2969 521.125,26.6406 Q521.125,26.9844 520.7813,27.3906 Q520.2813,27.9688 519.4844,28.2969 Q518.4063,28.75 517.1094,28.75 Q515.5938,28.75 514.3906,28.125 Q513.4063,27.625 512.7188,26.5625 Q512.0313,25.4844 512.0313,24.2031 L512.0313,23.0469 Q512.0313,21.7188 512.6406,20.5781 Q513.2656,19.4219 514.3594,18.8125 Q515.4531,18.1875 516.6875,18.1875 Q517.4219,18.1875 518.0625,18.3594 Q518.7188,18.5156 519.2656,18.875 Z " fill="#000000"/><text fill="#000000" font-family="sans-serif" font-size="14" lengthAdjust="spacing" textLength="58" x="530.5" y="28.7285">Category</text><line style="stroke:#181818;stroke-width:0.5;" x1="502.5" x2="590.5" y1="39" y2="39"/><line style="stroke:#181818;stroke-width:0.5;" x1="502.5" x2="590.5" y1="47" y2="47"/></g><!--MD5=[9d451b2f92d848a8e2d1a4dab2b1c6bf]
class Concept--><g id="elem_Concept"><rect codeLine="4" fill="#F1F1F1" height="48" id="Concept" rx="2.5" ry="2.5" style="stroke:#181818;stroke-width:0.5;" width="85" x="358" y="115"/><ellipse cx="373" cy="131" fill="#ADD1B2" rx="11" ry="11" style="stroke:#181818;stroke-width:1.0;"/><path d="M375.7656,126.875 Q375.9219,126.6563 376.1094,126.5469 Q376.2969,126.4375 376.5156,126.4375 Q376.8906,126.4375 377.125,126.7031 Q377.3594,126.9531 377.3594,127.5625 L377.3594,129.0156 Q377.3594,129.625 377.125,129.8906 Q376.8906,130.1563 376.5156,130.1563 Q376.1719,130.1563 375.9688,129.9531 Q375.7656,129.7656 375.6563,129.25 Q375.6094,128.8906 375.4219,128.7031 Q375.0938,128.3281 374.4844,128.1094 Q373.875,127.8906 373.25,127.8906 Q372.4844,127.8906 371.8438,128.2188 Q371.2188,128.5469 370.7188,129.2969 Q370.2344,130.0469 370.2344,131.0781 L370.2344,132.1719 Q370.2344,133.4063 371.125,134.2344 Q372.0156,135.0469 373.6094,135.0469 Q374.5469,135.0469 375.2031,134.7969 Q375.5938,134.6406 376.0156,134.2031 Q376.2813,133.9375 376.4219,133.8594 Q376.5781,133.7813 376.7813,133.7813 Q377.1094,133.7813 377.3594,134.0469 Q377.625,134.2969 377.625,134.6406 Q377.625,134.9844 377.2813,135.3906 Q376.7813,135.9688 375.9844,136.2969 Q374.9063,136.75 373.6094,136.75 Q372.0938,136.75 370.8906,136.125 Q369.9063,135.625 369.2188,134.5625 Q368.5313,133.4844 368.5313,132.2031 L368.5313,131.0469 Q368.5313,129.7188 369.1406,128.5781 Q369.7656,127.4219 370.8594,126.8125 Q371.9531,126.1875 373.1875,126.1875 Q373.9219,126.1875 374.5625,126.3594 Q375.2188,126.5156 375.7656,126.875 Z " fill="#000000"/><text fill="#000000" font-family="sans-serif" font-size="14" lengthAdjust="spacing" textLength="53" x="387" y="136.7285">Concept</text><line style="stroke:#181818;stroke-width:0.5;" x1="359" x2="442" y1="147" y2="147"/><line style="stroke:#181818;stroke-width:0.5;" x1="359" x2="442" y1="155" y2="155"/></g><!--MD5=[1ac27345a8a52a4a812e38456e107300]
class Keyword--><g id="elem_Keyword"><rect codeLine="6" fill="#F1F1F1" height="48" id="Keyword" rx="2.5" ry="2.5" style="stroke:#181818;stroke-width:0.5;" width="86" x="162.5" y="223"/><ellipse cx="177.5" cy="239" fill="#ADD1B2" rx="11" ry="11" style="stroke:#181818;stroke-width:1.0;"/><path d="M180.2656,234.875 Q180.4219,234.6563 180.6094,234.5469 Q180.7969,234.4375 181.0156,234.4375 Q181.3906,234.4375 181.625,234.7031 Q181.8594,234.9531 181.8594,235.5625 L181.8594,237.0156 Q181.8594,237.625 181.625,237.8906 Q181.3906,238.1563 181.0156,238.1563 Q180.6719,238.1563 180.4688,237.9531 Q180.2656,237.7656 180.1563,237.25 Q180.1094,236.8906 179.9219,236.7031 Q179.5938,236.3281 178.9844,236.1094 Q178.375,235.8906 177.75,235.8906 Q176.9844,235.8906 176.3438,236.2188 Q175.7188,236.5469 175.2188,237.2969 Q174.7344,238.0469 174.7344,239.0781 L174.7344,240.1719 Q174.7344,241.4063 175.625,242.2344 Q176.5156,243.0469 178.1094,243.0469 Q179.0469,243.0469 179.7031,242.7969 Q180.0938,242.6406 180.5156,242.2031 Q180.7813,241.9375 180.9219,241.8594 Q181.0781,241.7813 181.2813,241.7813 Q181.6094,241.7813 181.8594,242.0469 Q182.125,242.2969 182.125,242.6406 Q182.125,242.9844 181.7813,243.3906 Q181.2813,243.9688 180.4844,244.2969 Q179.4063,244.75 178.1094,244.75 Q176.5938,244.75 175.3906,244.125 Q174.4063,243.625 173.7188,242.5625 Q173.0313,241.4844 173.0313,240.2031 L173.0313,239.0469 Q173.0313,237.7188 173.6406,236.5781 Q174.2656,235.4219 175.3594,234.8125 Q176.4531,234.1875 177.6875,234.1875 Q178.4219,234.1875 179.0625,234.3594 Q179.7188,234.5156 180.2656,234.875 Z " fill="#000000"/><text fill="#000000" font-family="sans-serif" font-size="14" lengthAdjust="spacing" textLength="54" x="191.5" y="244.7285">Keyword</text><line style="stroke:#181818;stroke-width:0.5;" x1="163.5" x2="247.5" y1="255" y2="255"/><line style="stroke:#181818;stroke-width:0.5;" x1="163.5" x2="247.5" y1="263" y2="263"/></g><!--MD5=[af22135d5be6ed11ccd2d02fa51653b3]
class Definition--><g id="elem_Definition"><rect codeLine="8" fill="#F1F1F1" height="48" id="Definition" rx="2.5" ry="2.5" style="stroke:#181818;stroke-width:0.5;" width="91" x="284" y="223"/><ellipse cx="299" cy="239" fill="#ADD1B2" rx="11" ry="11" style="stroke:#181818;stroke-width:1.0;"/><path d="M301.7656,234.875 Q301.9219,234.6563 302.1094,234.5469 Q302.2969,234.4375 302.5156,234.4375 Q302.8906,234.4375 303.125,234.7031 Q303.3594,234.9531 303.3594,235.5625 L303.3594,237.0156 Q303.3594,237.625 303.125,237.8906 Q302.8906,238.1563 302.5156,238.1563 Q302.1719,238.1563 301.9688,237.9531 Q301.7656,237.7656 301.6563,237.25 Q301.6094,236.8906 301.4219,236.7031 Q301.0938,236.3281 300.4844,236.1094 Q299.875,235.8906 299.25,235.8906 Q298.4844,235.8906 297.8438,236.2188 Q297.2188,236.5469 296.7188,237.2969 Q296.2344,238.0469 296.2344,239.0781 L296.2344,240.1719 Q296.2344,241.4063 297.125,242.2344 Q298.0156,243.0469 299.6094,243.0469 Q300.5469,243.0469 301.2031,242.7969 Q301.5938,242.6406 302.0156,242.2031 Q302.2813,241.9375 302.4219,241.8594 Q302.5781,241.7813 302.7813,241.7813 Q303.1094,241.7813 303.3594,242.0469 Q303.625,242.2969 303.625,242.6406 Q303.625,242.9844 303.2813,243.3906 Q302.7813,243.9688 301.9844,244.2969 Q300.9063,244.75 299.6094,244.75 Q298.0938,244.75 296.8906,244.125 Q295.9063,243.625 295.2188,242.5625 Q294.5313,241.4844 294.5313,240.2031 L294.5313,239.0469 Q294.5313,237.7188 295.1406,236.5781 Q295.7656,235.4219 296.8594,234.8125 Q297.9531,234.1875 299.1875,234.1875 Q299.9219,234.1875 300.5625,234.3594 Q301.2188,234.5156 301.7656,234.875 Z " fill="#000000"/><text fill="#000000" font-family="sans-serif" font-size="14" lengthAdjust="spacing" textLength="59" x="313" y="244.7285">Definition</text><line style="stroke:#181818;stroke-width:0.5;" x1="285" x2="374" y1="255" y2="255"/><line style="stroke:#181818;stroke-width:0.5;" x1="285" x2="374" y1="263" y2="263"/></g><!--MD5=[d6420df0ba7eff4d736dc4fa653f8446]
class FakeDefinition--><g id="elem_FakeDefinition"><rect codeLine="10" fill="#F1F1F1" height="48" id="FakeDefinition" rx="2.5" ry="2.5" style="stroke:#181818;stroke-width:0.5;" width="123" x="410" y="223"/><ellipse cx="425" cy="239" fill="#ADD1B2" rx="11" ry="11" style="stroke:#181818;stroke-width:1.0;"/><path d="M427.7656,234.875 Q427.9219,234.6563 428.1094,234.5469 Q428.2969,234.4375 428.5156,234.4375 Q428.8906,234.4375 429.125,234.7031 Q429.3594,234.9531 429.3594,235.5625 L429.3594,237.0156 Q429.3594,237.625 429.125,237.8906 Q428.8906,238.1563 428.5156,238.1563 Q428.1719,238.1563 427.9688,237.9531 Q427.7656,237.7656 427.6563,237.25 Q427.6094,236.8906 427.4219,236.7031 Q427.0938,236.3281 426.4844,236.1094 Q425.875,235.8906 425.25,235.8906 Q424.4844,235.8906 423.8438,236.2188 Q423.2188,236.5469 422.7188,237.2969 Q422.2344,238.0469 422.2344,239.0781 L422.2344,240.1719 Q422.2344,241.4063 423.125,242.2344 Q424.0156,243.0469 425.6094,243.0469 Q426.5469,243.0469 427.2031,242.7969 Q427.5938,242.6406 428.0156,242.2031 Q428.2813,241.9375 428.4219,241.8594 Q428.5781,241.7813 428.7813,241.7813 Q429.1094,241.7813 429.3594,242.0469 Q429.625,242.2969 429.625,242.6406 Q429.625,242.9844 429.2813,243.3906 Q428.7813,243.9688 427.9844,244.2969 Q426.9063,244.75 425.6094,244.75 Q424.0938,244.75 422.8906,244.125 Q421.9063,243.625 421.2188,242.5625 Q420.5313,241.4844 420.5313,240.2031 L420.5313,239.0469 Q420.5313,237.7188 421.1406,236.5781 Q421.7656,235.4219 422.8594,234.8125 Q423.9531,234.1875 425.1875,234.1875 Q425.9219,234.1875 426.5625,234.3594 Q427.2188,234.5156 427.7656,234.875 Z " fill="#000000"/><text fill="#000000" font-family="sans-serif" font-size="14" lengthAdjust="spacing" textLength="91" x="439" y="244.7285">FakeDefinition</text><line style="stroke:#181818;stroke-width:0.5;" x1="411" x2="532" y1="255" y2="255"/><line style="stroke:#181818;stroke-width:0.5;" x1="411" x2="532" y1="263" y2="263"/></g><!--MD5=[9b4de504215638550a8bb9c080b7ee00]
class Justification--><g id="elem_Justification"><rect codeLine="12" fill="#F1F1F1" height="48" id="Justification" rx="2.5" ry="2.5" style="stroke:#181818;stroke-width:0.5;" width="105" x="355" y="331"/><ellipse cx="370" cy="347" fill="#ADD1B2" rx="11" ry="11" style="stroke:#181818;stroke-width:1.0;"/><path d="M372.7656,342.875 Q372.9219,342.6563 373.1094,342.5469 Q373.2969,342.4375 373.5156,342.4375 Q373.8906,342.4375 374.125,342.7031 Q374.3594,342.9531 374.3594,343.5625 L374.3594,345.0156 Q374.3594,345.625 374.125,345.8906 Q373.8906,346.1563 373.5156,346.1563 Q373.1719,346.1563 372.9688,345.9531 Q372.7656,345.7656 372.6563,345.25 Q372.6094,344.8906 372.4219,344.7031 Q372.0938,344.3281 371.4844,344.1094 Q370.875,343.8906 370.25,343.8906 Q369.4844,343.8906 368.8438,344.2188 Q368.2188,344.5469 367.7188,345.2969 Q367.2344,346.0469 367.2344,347.0781 L367.2344,348.1719 Q367.2344,349.4063 368.125,350.2344 Q369.0156,351.0469 370.6094,351.0469 Q371.5469,351.0469 372.2031,350.7969 Q372.5938,350.6406 373.0156,350.2031 Q373.2813,349.9375 373.4219,349.8594 Q373.5781,349.7813 373.7813,349.7813 Q374.1094,349.7813 374.3594,350.0469 Q374.625,350.2969 374.625,350.6406 Q374.625,350.9844 374.2813,351.3906 Q373.7813,351.9688 372.9844,352.2969 Q371.9063,352.75 370.6094,352.75 Q369.0938,352.75 367.8906,352.125 Q366.9063,351.625 366.2188,350.5625 Q365.5313,349.4844 365.5313,348.2031 L365.5313,347.0469 Q365.5313,345.7188 366.1406,344.5781 Q366.7656,343.4219 367.8594,342.8125 Q368.9531,342.1875 370.1875,342.1875 Q370.9219,342.1875 371.5625,342.3594 Q372.2188,342.5156 372.7656,342.875 Z " fill="#000000"/><text fill="#000000" font-family="sans-serif" font-size="14" lengthAdjust="spacing" textLength="73" x="384" y="352.7285">Justification</text><line style="stroke:#181818;stroke-width:0.5;" x1="356" x2="459" y1="363" y2="363"/><line style="stroke:#181818;stroke-width:0.5;" x1="356" x2="459" y1="371" y2="371"/></g><!--MD5=[7a6687b95ddf01a258e56cc7a885583f]
class FakeJustification--><g id="elem_FakeJustification"><rect codeLine="14" fill="#F1F1F1" height="48" id="FakeJustification" rx="2.5" ry="2.5" style="stroke:#181818;stroke-width:0.5;" width="137" x="495" y="331"/><ellipse cx="510" cy="347" fill="#ADD1B2" rx="11" ry="11" style="stroke:#181818;stroke-width:1.0;"/><path d="M512.7656,342.875 Q512.9219,342.6563 513.1094,342.5469 Q513.2969,342.4375 513.5156,342.4375 Q513.8906,342.4375 514.125,342.7031 Q514.3594,342.9531 514.3594,343.5625 L514.3594,345.0156 Q514.3594,345.625 514.125,345.8906 Q513.8906,346.1563 513.5156,346.1563 Q513.1719,346.1563 512.9688,345.9531 Q512.7656,345.7656 512.6563,345.25 Q512.6094,344.8906 512.4219,344.7031 Q512.0938,344.3281 511.4844,344.1094 Q510.875,343.8906 510.25,343.8906 Q509.4844,343.8906 508.8438,344.2188 Q508.2188,344.5469 507.7188,345.2969 Q507.2344,346.0469 507.2344,347.0781 L507.2344,348.1719 Q507.2344,349.4063 508.125,350.2344 Q509.0156,351.0469 510.6094,351.0469 Q511.5469,351.0469 512.2031,350.7969 Q512.5938,350.6406 513.0156,350.2031 Q513.2813,349.9375 513.4219,349.8594 Q513.5781,349.7813 513.7813,349.7813 Q514.1094,349.7813 514.3594,350.0469 Q514.625,350.2969 514.625,350.6406 Q514.625,350.9844 514.2813,351.3906 Q513.7813,351.9688 512.9844,352.2969 Q511.9063,352.75 510.6094,352.75 Q509.0938,352.75 507.8906,352.125 Q506.9063,351.625 506.2188,350.5625 Q505.5313,349.4844 505.5313,348.2031 L505.5313,347.0469 Q505.5313,345.7188 506.1406,344.5781 Q506.7656,343.4219 507.8594,342.8125 Q508.9531,342.1875 510.1875,342.1875 Q510.9219,342.1875 511.5625,342.3594 Q512.2188,342.5156 512.7656,342.875 Z " fill="#000000"/><text fill="#000000" font-family="sans-serif" font-size="14" lengthAdjust="spacing" textLength="105" x="524" y="352.7285">FakeJustification</text><line style="stroke:#181818;stroke-width:0.5;" x1="496" x2="631" y1="363" y2="363"/><line style="stroke:#181818;stroke-width:0.5;" x1="496" x2="631" y1="371" y2="371"/></g><!--MD5=[534474e9f05b14d7c70186ae077f30e0]
class Relation--><g id="elem_Relation"><rect codeLine="16" fill="#F1F1F1" height="48" id="Relation" rx="2.5" ry="2.5" style="stroke:#181818;stroke-width:0.5;" width="84" x="43.5" y="223"/><ellipse cx="58.5" cy="239" fill="#ADD1B2" rx="11" ry="11" style="stroke:#181818;stroke-width:1.0;"/><path d="M61.2656,234.875 Q61.4219,234.6563 61.6094,234.5469 Q61.7969,234.4375 62.0156,234.4375 Q62.3906,234.4375 62.625,234.7031 Q62.8594,234.9531 62.8594,235.5625 L62.8594,237.0156 Q62.8594,237.625 62.625,237.8906 Q62.3906,238.1563 62.0156,238.1563 Q61.6719,238.1563 61.4688,237.9531 Q61.2656,237.7656 61.1563,237.25 Q61.1094,236.8906 60.9219,236.7031 Q60.5938,236.3281 59.9844,236.1094 Q59.375,235.8906 58.75,235.8906 Q57.9844,235.8906 57.3438,236.2188 Q56.7188,236.5469 56.2188,237.2969 Q55.7344,238.0469 55.7344,239.0781 L55.7344,240.1719 Q55.7344,241.4063 56.625,242.2344 Q57.5156,243.0469 59.1094,243.0469 Q60.0469,243.0469 60.7031,242.7969 Q61.0938,242.6406 61.5156,242.2031 Q61.7813,241.9375 61.9219,241.8594 Q62.0781,241.7813 62.2813,241.7813 Q62.6094,241.7813 62.8594,242.0469 Q63.125,242.2969 63.125,242.6406 Q63.125,242.9844 62.7813,243.3906 Q62.2813,243.9688 61.4844,244.2969 Q60.4063,244.75 59.1094,244.75 Q57.5938,244.75 56.3906,244.125 Q55.4063,243.625 54.7188,242.5625 Q54.0313,241.4844 54.0313,240.2031 L54.0313,239.0469 Q54.0313,237.7188 54.6406,236.5781 Q55.2656,235.4219 56.3594,234.8125 Q57.4531,234.1875 58.6875,234.1875 Q59.4219,234.1875 60.0625,234.3594 Q60.7188,234.5156 61.2656,234.875 Z " fill="#000000"/><text fill="#000000" font-family="sans-serif" font-size="14" lengthAdjust="spacing" textLength="52" x="72.5" y="244.7285">Relation</text><line style="stroke:#181818;stroke-width:0.5;" x1="44.5" x2="126.5" y1="255" y2="255"/><line style="stroke:#181818;stroke-width:0.5;" x1="44.5" x2="126.5" y1="263" y2="263"/></g><!--MD5=[6ca9f97ec22987cdb08895fb62b1ec62]
class Assortment--><g id="elem_Assortment"><rect codeLine="18" fill="#F1F1F1" height="48" id="Assortment" rx="2.5" ry="2.5" style="stroke:#181818;stroke-width:0.5;" width="103" x="7" y="331"/><ellipse cx="22" cy="347" fill="#ADD1B2" rx="11" ry="11" style="stroke:#181818;stroke-width:1.0;"/><path d="M24.7656,342.875 Q24.9219,342.6563 25.1094,342.5469 Q25.2969,342.4375 25.5156,342.4375 Q25.8906,342.4375 26.125,342.7031 Q26.3594,342.9531 26.3594,343.5625 L26.3594,345.0156 Q26.3594,345.625 26.125,345.8906 Q25.8906,346.1563 25.5156,346.1563 Q25.1719,346.1563 24.9688,345.9531 Q24.7656,345.7656 24.6563,345.25 Q24.6094,344.8906 24.4219,344.7031 Q24.0938,344.3281 23.4844,344.1094 Q22.875,343.8906 22.25,343.8906 Q21.4844,343.8906 20.8438,344.2188 Q20.2188,344.5469 19.7188,345.2969 Q19.2344,346.0469 19.2344,347.0781 L19.2344,348.1719 Q19.2344,349.4063 20.125,350.2344 Q21.0156,351.0469 22.6094,351.0469 Q23.5469,351.0469 24.2031,350.7969 Q24.5938,350.6406 25.0156,350.2031 Q25.2813,349.9375 25.4219,349.8594 Q25.5781,349.7813 25.7813,349.7813 Q26.1094,349.7813 26.3594,350.0469 Q26.625,350.2969 26.625,350.6406 Q26.625,350.9844 26.2813,351.3906 Q25.7813,351.9688 24.9844,352.2969 Q23.9063,352.75 22.6094,352.75 Q21.0938,352.75 19.8906,352.125 Q18.9063,351.625 18.2188,350.5625 Q17.5313,349.4844 17.5313,348.2031 L17.5313,347.0469 Q17.5313,345.7188 18.1406,344.5781 Q18.7656,343.4219 19.8594,342.8125 Q20.9531,342.1875 22.1875,342.1875 Q22.9219,342.1875 23.5625,342.3594 Q24.2188,342.5156 24.7656,342.875 Z " fill="#000000"/><text fill="#000000" font-family="sans-serif" font-size="14" lengthAdjust="spacing" textLength="71" x="36" y="352.7285">Assortment</text><line style="stroke:#181818;stroke-width:0.5;" x1="8" x2="109" y1="363" y2="363"/><line style="stroke:#181818;stroke-width:0.5;" x1="8" x2="109" y1="371" y2="371"/></g><!--MD5=[1e9a764d87e7c58eda8681113f5d03cd]
class Sort--><g id="elem_Sort"><rect codeLine="20" fill="#F1F1F1" height="48" id="Sort" rx="2.5" ry="2.5" style="stroke:#181818;stroke-width:0.5;" width="58" x="29.5" y="439"/><ellipse cx="44.5" cy="455" fill="#ADD1B2" rx="11" ry="11" style="stroke:#181818;stroke-width:1.0;"/><path d="M47.2656,450.875 Q47.4219,450.6563 47.6094,450.5469 Q47.7969,450.4375 48.0156,450.4375 Q48.3906,450.4375 48.625,450.7031 Q48.8594,450.9531 48.8594,451.5625 L48.8594,453.0156 Q48.8594,453.625 48.625,453.8906 Q48.3906,454.1563 48.0156,454.1563 Q47.6719,454.1563 47.4688,453.9531 Q47.2656,453.7656 47.1563,453.25 Q47.1094,452.8906 46.9219,452.7031 Q46.5938,452.3281 45.9844,452.1094 Q45.375,451.8906 44.75,451.8906 Q43.9844,451.8906 43.3438,452.2188 Q42.7188,452.5469 42.2188,453.2969 Q41.7344,454.0469 41.7344,455.0781 L41.7344,456.1719 Q41.7344,457.4063 42.625,458.2344 Q43.5156,459.0469 45.1094,459.0469 Q46.0469,459.0469 46.7031,458.7969 Q47.0938,458.6406 47.5156,458.2031 Q47.7813,457.9375 47.9219,457.8594 Q48.0781,457.7813 48.2813,457.7813 Q48.6094,457.7813 48.8594,458.0469 Q49.125,458.2969 49.125,458.6406 Q49.125,458.9844 48.7813,459.3906 Q48.2813,459.9688 47.4844,460.2969 Q46.4063,460.75 45.1094,460.75 Q43.5938,460.75 42.3906,460.125 Q41.4063,459.625 40.7188,458.5625 Q40.0313,457.4844 40.0313,456.2031 L40.0313,455.0469 Q40.0313,453.7188 40.6406,452.5781 Q41.2656,451.4219 42.3594,450.8125 Q43.4531,450.1875 44.6875,450.1875 Q45.4219,450.1875 46.0625,450.3594 Q46.7188,450.5156 47.2656,450.875 Z " fill="#000000"/><text fill="#000000" font-family="sans-serif" font-size="14" lengthAdjust="spacing" textLength="26" x="58.5" y="460.7285">Sort</text><line style="stroke:#181818;stroke-width:0.5;" x1="30.5" x2="86.5" y1="471" y2="471"/><line style="stroke:#181818;stroke-width:0.5;" x1="30.5" x2="86.5" y1="479" y2="479"/></g><!--MD5=[251454e98c15f29849fb35b1904d0020]
class Composition--><g id="elem_Composition"><rect codeLine="22" fill="#F1F1F1" height="48" id="Composition" rx="2.5" ry="2.5" style="stroke:#181818;stroke-width:0.5;" width="110" x="145.5" y="331"/><ellipse cx="160.5" cy="347" fill="#ADD1B2" rx="11" ry="11" style="stroke:#181818;stroke-width:1.0;"/><path d="M163.2656,342.875 Q163.4219,342.6563 163.6094,342.5469 Q163.7969,342.4375 164.0156,342.4375 Q164.3906,342.4375 164.625,342.7031 Q164.8594,342.9531 164.8594,343.5625 L164.8594,345.0156 Q164.8594,345.625 164.625,345.8906 Q164.3906,346.1563 164.0156,346.1563 Q163.6719,346.1563 163.4688,345.9531 Q163.2656,345.7656 163.1563,345.25 Q163.1094,344.8906 162.9219,344.7031 Q162.5938,344.3281 161.9844,344.1094 Q161.375,343.8906 160.75,343.8906 Q159.9844,343.8906 159.3438,344.2188 Q158.7188,344.5469 158.2188,345.2969 Q157.7344,346.0469 157.7344,347.0781 L157.7344,348.1719 Q157.7344,349.4063 158.625,350.2344 Q159.5156,351.0469 161.1094,351.0469 Q162.0469,351.0469 162.7031,350.7969 Q163.0938,350.6406 163.5156,350.2031 Q163.7813,349.9375 163.9219,349.8594 Q164.0781,349.7813 164.2813,349.7813 Q164.6094,349.7813 164.8594,350.0469 Q165.125,350.2969 165.125,350.6406 Q165.125,350.9844 164.7813,351.3906 Q164.2813,351.9688 163.4844,352.2969 Q162.4063,352.75 161.1094,352.75 Q159.5938,352.75 158.3906,352.125 Q157.4063,351.625 156.7188,350.5625 Q156.0313,349.4844 156.0313,348.2031 L156.0313,347.0469 Q156.0313,345.7188 156.6406,344.5781 Q157.2656,343.4219 158.3594,342.8125 Q159.4531,342.1875 160.6875,342.1875 Q161.4219,342.1875 162.0625,342.3594 Q162.7188,342.5156 163.2656,342.875 Z " fill="#000000"/><text fill="#000000" font-family="sans-serif" font-size="14" lengthAdjust="spacing" textLength="78" x="174.5" y="352.7285">Composition</text><line style="stroke:#181818;stroke-width:0.5;" x1="146.5" x2="254.5" y1="363" y2="363"/><line style="stroke:#181818;stroke-width:0.5;" x1="146.5" x2="254.5" y1="371" y2="371"/></g><!--MD5=[4e13963c9dc916a21a8436ef39422b32]
class Component--><g id="elem_Component"><rect codeLine="24" fill="#F1F1F1" height="48" id="Component" rx="2.5" ry="2.5" style="stroke:#181818;stroke-width:0.5;" width="105" x="148" y="439"/><ellipse cx="163" cy="455" fill="#ADD1B2" rx="11" ry="11" style="stroke:#181818;stroke-width:1.0;"/><path d="M165.7656,450.875 Q165.9219,450.6563 166.1094,450.5469 Q166.2969,450.4375 166.5156,450.4375 Q166.8906,450.4375 167.125,450.7031 Q167.3594,450.9531 167.3594,451.5625 L167.3594,453.0156 Q167.3594,453.625 167.125,453.8906 Q166.8906,454.1563 166.5156,454.1563 Q166.1719,454.1563 165.9688,453.9531 Q165.7656,453.7656 165.6563,453.25 Q165.6094,452.8906 165.4219,452.7031 Q165.0938,452.3281 164.4844,452.1094 Q163.875,451.8906 163.25,451.8906 Q162.4844,451.8906 161.8438,452.2188 Q161.2188,452.5469 160.7188,453.2969 Q160.2344,454.0469 160.2344,455.0781 L160.2344,456.1719 Q160.2344,457.4063 161.125,458.2344 Q162.0156,459.0469 163.6094,459.0469 Q164.5469,459.0469 165.2031,458.7969 Q165.5938,458.6406 166.0156,458.2031 Q166.2813,457.9375 166.4219,457.8594 Q166.5781,457.7813 166.7813,457.7813 Q167.1094,457.7813 167.3594,458.0469 Q167.625,458.2969 167.625,458.6406 Q167.625,458.9844 167.2813,459.3906 Q166.7813,459.9688 165.9844,460.2969 Q164.9063,460.75 163.6094,460.75 Q162.0938,460.75 160.8906,460.125 Q159.9063,459.625 159.2188,458.5625 Q158.5313,457.4844 158.5313,456.2031 L158.5313,455.0469 Q158.5313,453.7188 159.1406,452.5781 Q159.7656,451.4219 160.8594,450.8125 Q161.9531,450.1875 163.1875,450.1875 Q163.9219,450.1875 164.5625,450.3594 Q165.2188,450.5156 165.7656,450.875 Z " fill="#000000"/><text fill="#000000" font-family="sans-serif" font-size="14" lengthAdjust="spacing" textLength="73" x="177" y="460.7285">Component</text><line style="stroke:#181818;stroke-width:0.5;" x1="149" x2="252" y1="471" y2="471"/><line style="stroke:#181818;stroke-width:0.5;" x1="149" x2="252" y1="479" y2="479"/></g><!--MD5=[377953f0e8c8c0131a700fca43c84158]
class Strategy--><g id="elem_Strategy"><rect codeLine="26" fill="#F1F1F1" height="48" id="Strategy" rx="2.5" ry="2.5" style="stroke:#181818;stroke-width:0.5;" width="85" x="911" y="7"/><ellipse cx="926" cy="23" fill="#ADD1B2" rx="11" ry="11" style="stroke:#181818;stroke-width:1.0;"/><path d="M928.7656,18.875 Q928.9219,18.6563 929.1094,18.5469 Q929.2969,18.4375 929.5156,18.4375 Q929.8906,18.4375 930.125,18.7031 Q930.3594,18.9531 930.3594,19.5625 L930.3594,21.0156 Q930.3594,21.625 930.125,21.8906 Q929.8906,22.1563 929.5156,22.1563 Q929.1719,22.1563 928.9688,21.9531 Q928.7656,21.7656 928.6563,21.25 Q928.6094,20.8906 928.4219,20.7031 Q928.0938,20.3281 927.4844,20.1094 Q926.875,19.8906 926.25,19.8906 Q925.4844,19.8906 924.8438,20.2188 Q924.2188,20.5469 923.7188,21.2969 Q923.2344,22.0469 923.2344,23.0781 L923.2344,24.1719 Q923.2344,25.4063 924.125,26.2344 Q925.0156,27.0469 926.6094,27.0469 Q927.5469,27.0469 928.2031,26.7969 Q928.5938,26.6406 929.0156,26.2031 Q929.2813,25.9375 929.4219,25.8594 Q929.5781,25.7813 929.7813,25.7813 Q930.1094,25.7813 930.3594,26.0469 Q930.625,26.2969 930.625,26.6406 Q930.625,26.9844 930.2813,27.3906 Q929.7813,27.9688 928.9844,28.2969 Q927.9063,28.75 926.6094,28.75 Q925.0938,28.75 923.8906,28.125 Q922.9063,27.625 922.2188,26.5625 Q921.5313,25.4844 921.5313,24.2031 L921.5313,23.0469 Q921.5313,21.7188 922.1406,20.5781 Q922.7656,19.4219 923.8594,18.8125 Q924.9531,18.1875 926.1875,18.1875 Q926.9219,18.1875 927.5625,18.3594 Q928.2188,18.5156 928.7656,18.875 Z " fill="#000000"/><text fill="#000000" font-family="sans-serif" font-size="14" lengthAdjust="spacing" textLength="53" x="940" y="28.7285">Strategy</text><line style="stroke:#181818;stroke-width:0.5;" x1="912" x2="995" y1="39" y2="39"/><line style="stroke:#181818;stroke-width:0.5;" x1="912" x2="995" y1="47" y2="47"/></g><!--MD5=[fc7123defb831ecdd44b2d9bcef6cceb]
class Question--><g id="elem_Question"><rect codeLine="28" fill="#F1F1F1" height="48" id="Question" rx="2.5" ry="2.5" style="stroke:#181818;stroke-width:0.5;" width="89" x="576" y="115"/><ellipse cx="591" cy="131" fill="#ADD1B2" rx="11" ry="11" style="stroke:#181818;stroke-width:1.0;"/><path d="M593.7656,126.875 Q593.9219,126.6563 594.1094,126.5469 Q594.2969,126.4375 594.5156,126.4375 Q594.8906,126.4375 595.125,126.7031 Q595.3594,126.9531 595.3594,127.5625 L595.3594,129.0156 Q595.3594,129.625 595.125,129.8906 Q594.8906,130.1563 594.5156,130.1563 Q594.1719,130.1563 593.9688,129.9531 Q593.7656,129.7656 593.6563,129.25 Q593.6094,128.8906 593.4219,128.7031 Q593.0938,128.3281 592.4844,128.1094 Q591.875,127.8906 591.25,127.8906 Q590.4844,127.8906 589.8438,128.2188 Q589.2188,128.5469 588.7188,129.2969 Q588.2344,130.0469 588.2344,131.0781 L588.2344,132.1719 Q588.2344,133.4063 589.125,134.2344 Q590.0156,135.0469 591.6094,135.0469 Q592.5469,135.0469 593.2031,134.7969 Q593.5938,134.6406 594.0156,134.2031 Q594.2813,133.9375 594.4219,133.8594 Q594.5781,133.7813 594.7813,133.7813 Q595.1094,133.7813 595.3594,134.0469 Q595.625,134.2969 595.625,134.6406 Q595.625,134.9844 595.2813,135.3906 Q594.7813,135.9688 593.9844,136.2969 Q592.9063,136.75 591.6094,136.75 Q590.0938,136.75 588.8906,136.125 Q587.9063,135.625 587.2188,134.5625 Q586.5313,133.4844 586.5313,132.2031 L586.5313,131.0469 Q586.5313,129.7188 587.1406,128.5781 Q587.7656,127.4219 588.8594,126.8125 Q589.9531,126.1875 591.1875,126.1875 Q591.9219,126.1875 592.5625,126.3594 Q593.2188,126.5156 593.7656,126.875 Z " fill="#000000"/><text fill="#000000" font-family="sans-serif" font-size="14" lengthAdjust="spacing" textLength="57" x="605" y="136.7285">Question</text><line style="stroke:#181818;stroke-width:0.5;" x1="577" x2="664" y1="147" y2="147"/><line style="stroke:#181818;stroke-width:0.5;" x1="577" x2="664" y1="155" y2="155"/></g><!--MD5=[a61a298976b7d1d94498f45c2ebfa10b]
class Statement--><g id="elem_Statement"><rect codeLine="30" fill="#F1F1F1" height="48" id="Statement" rx="2.5" ry="2.5" style="stroke:#181818;stroke-width:0.5;" width="96" x="568.5" y="223"/><ellipse cx="583.5" cy="239" fill="#ADD1B2" rx="11" ry="11" style="stroke:#181818;stroke-width:1.0;"/><path d="M586.2656,234.875 Q586.4219,234.6563 586.6094,234.5469 Q586.7969,234.4375 587.0156,234.4375 Q587.3906,234.4375 587.625,234.7031 Q587.8594,234.9531 587.8594,235.5625 L587.8594,237.0156 Q587.8594,237.625 587.625,237.8906 Q587.3906,238.1563 587.0156,238.1563 Q586.6719,238.1563 586.4688,237.9531 Q586.2656,237.7656 586.1563,237.25 Q586.1094,236.8906 585.9219,236.7031 Q585.5938,236.3281 584.9844,236.1094 Q584.375,235.8906 583.75,235.8906 Q582.9844,235.8906 582.3438,236.2188 Q581.7188,236.5469 581.2188,237.2969 Q580.7344,238.0469 580.7344,239.0781 L580.7344,240.1719 Q580.7344,241.4063 581.625,242.2344 Q582.5156,243.0469 584.1094,243.0469 Q585.0469,243.0469 585.7031,242.7969 Q586.0938,242.6406 586.5156,242.2031 Q586.7813,241.9375 586.9219,241.8594 Q587.0781,241.7813 587.2813,241.7813 Q587.6094,241.7813 587.8594,242.0469 Q588.125,242.2969 588.125,242.6406 Q588.125,242.9844 587.7813,243.3906 Q587.2813,243.9688 586.4844,244.2969 Q585.4063,244.75 584.1094,244.75 Q582.5938,244.75 581.3906,244.125 Q580.4063,243.625 579.7188,242.5625 Q579.0313,241.4844 579.0313,240.2031 L579.0313,239.0469 Q579.0313,237.7188 579.6406,236.5781 Q580.2656,235.4219 581.3594,234.8125 Q582.4531,234.1875 583.6875,234.1875 Q584.4219,234.1875 585.0625,234.3594 Q585.7188,234.5156 586.2656,234.875 Z " fill="#000000"/><text fill="#000000" font-family="sans-serif" font-size="14" lengthAdjust="spacing" textLength="64" x="597.5" y="244.7285">Statement</text><line style="stroke:#181818;stroke-width:0.5;" x1="569.5" x2="663.5" y1="255" y2="255"/><line style="stroke:#181818;stroke-width:0.5;" x1="569.5" x2="663.5" y1="263" y2="263"/></g><!--MD5=[f9fadfa5a66b7e5a67b370cd443ffe52]
class Answer--><g id="elem_Answer"><rect codeLine="32" fill="#F1F1F1" height="48" id="Answer" rx="2.5" ry="2.5" style="stroke:#181818;stroke-width:0.5;" width="78" x="700.5" y="115"/><ellipse cx="715.5" cy="131" fill="#ADD1B2" rx="11" ry="11" style="stroke:#181818;stroke-width:1.0;"/><path d="M718.2656,126.875 Q718.4219,126.6563 718.6094,126.5469 Q718.7969,126.4375 719.0156,126.4375 Q719.3906,126.4375 719.625,126.7031 Q719.8594,126.9531 719.8594,127.5625 L719.8594,129.0156 Q719.8594,129.625 719.625,129.8906 Q719.3906,130.1563 719.0156,130.1563 Q718.6719,130.1563 718.4688,129.9531 Q718.2656,129.7656 718.1563,129.25 Q718.1094,128.8906 717.9219,128.7031 Q717.5938,128.3281 716.9844,128.1094 Q716.375,127.8906 715.75,127.8906 Q714.9844,127.8906 714.3438,128.2188 Q713.7188,128.5469 713.2188,129.2969 Q712.7344,130.0469 712.7344,131.0781 L712.7344,132.1719 Q712.7344,133.4063 713.625,134.2344 Q714.5156,135.0469 716.1094,135.0469 Q717.0469,135.0469 717.7031,134.7969 Q718.0938,134.6406 718.5156,134.2031 Q718.7813,133.9375 718.9219,133.8594 Q719.0781,133.7813 719.2813,133.7813 Q719.6094,133.7813 719.8594,134.0469 Q720.125,134.2969 720.125,134.6406 Q720.125,134.9844 719.7813,135.3906 Q719.2813,135.9688 718.4844,136.2969 Q717.4063,136.75 716.1094,136.75 Q714.5938,136.75 713.3906,136.125 Q712.4063,135.625 711.7188,134.5625 Q711.0313,133.4844 711.0313,132.2031 L711.0313,131.0469 Q711.0313,129.7188 711.6406,128.5781 Q712.2656,127.4219 713.3594,126.8125 Q714.4531,126.1875 715.6875,126.1875 Q716.4219,126.1875 717.0625,126.3594 Q717.7188,126.5156 718.2656,126.875 Z " fill="#000000"/><text fill="#000000" font-family="sans-serif" font-size="14" lengthAdjust="spacing" textLength="46" x="729.5" y="136.7285">Answer</text><line style="stroke:#181818;stroke-width:0.5;" x1="701.5" x2="777.5" y1="147" y2="147"/><line style="stroke:#181818;stroke-width:0.5;" x1="701.5" x2="777.5" y1="155" y2="155"/></g><!--MD5=[bc629657279eaa9349f412646650f2c5]
class Correct--><g id="elem_Correct"><rect codeLine="34" fill="#F1F1F1" height="48" id="Correct" rx="2.5" ry="2.5" style="stroke:#181818;stroke-width:0.5;" width="79" x="700" y="223"/><ellipse cx="715" cy="239" fill="#ADD1B2" rx="11" ry="11" style="stroke:#181818;stroke-width:1.0;"/><path d="M717.7656,234.875 Q717.9219,234.6563 718.1094,234.5469 Q718.2969,234.4375 718.5156,234.4375 Q718.8906,234.4375 719.125,234.7031 Q719.3594,234.9531 719.3594,235.5625 L719.3594,237.0156 Q719.3594,237.625 719.125,237.8906 Q718.8906,238.1563 718.5156,238.1563 Q718.1719,238.1563 717.9688,237.9531 Q717.7656,237.7656 717.6563,237.25 Q717.6094,236.8906 717.4219,236.7031 Q717.0938,236.3281 716.4844,236.1094 Q715.875,235.8906 715.25,235.8906 Q714.4844,235.8906 713.8438,236.2188 Q713.2188,236.5469 712.7188,237.2969 Q712.2344,238.0469 712.2344,239.0781 L712.2344,240.1719 Q712.2344,241.4063 713.125,242.2344 Q714.0156,243.0469 715.6094,243.0469 Q716.5469,243.0469 717.2031,242.7969 Q717.5938,242.6406 718.0156,242.2031 Q718.2813,241.9375 718.4219,241.8594 Q718.5781,241.7813 718.7813,241.7813 Q719.1094,241.7813 719.3594,242.0469 Q719.625,242.2969 719.625,242.6406 Q719.625,242.9844 719.2813,243.3906 Q718.7813,243.9688 717.9844,244.2969 Q716.9063,244.75 715.6094,244.75 Q714.0938,244.75 712.8906,244.125 Q711.9063,243.625 711.2188,242.5625 Q710.5313,241.4844 710.5313,240.2031 L710.5313,239.0469 Q710.5313,237.7188 711.1406,236.5781 Q711.7656,235.4219 712.8594,234.8125 Q713.9531,234.1875 715.1875,234.1875 Q715.9219,234.1875 716.5625,234.3594 Q717.2188,234.5156 717.7656,234.875 Z " fill="#000000"/><text fill="#000000" font-family="sans-serif" font-size="14" lengthAdjust="spacing" textLength="47" x="729" y="244.7285">Correct</text><line style="stroke:#181818;stroke-width:0.5;" x1="701" x2="778" y1="255" y2="255"/><line style="stroke:#181818;stroke-width:0.5;" x1="701" x2="778" y1="263" y2="263"/></g><!--MD5=[37923dc032bbfca87d4413e584fa2cda]
class Incorrect--><g id="elem_Incorrect"><rect codeLine="36" fill="#F1F1F1" height="48" id="Incorrect" rx="2.5" ry="2.5" style="stroke:#181818;stroke-width:0.5;" width="87" x="814" y="223"/><ellipse cx="829" cy="239" fill="#ADD1B2" rx="11" ry="11" style="stroke:#181818;stroke-width:1.0;"/><path d="M831.7656,234.875 Q831.9219,234.6563 832.1094,234.5469 Q832.2969,234.4375 832.5156,234.4375 Q832.8906,234.4375 833.125,234.7031 Q833.3594,234.9531 833.3594,235.5625 L833.3594,237.0156 Q833.3594,237.625 833.125,237.8906 Q832.8906,238.1563 832.5156,238.1563 Q832.1719,238.1563 831.9688,237.9531 Q831.7656,237.7656 831.6563,237.25 Q831.6094,236.8906 831.4219,236.7031 Q831.0938,236.3281 830.4844,236.1094 Q829.875,235.8906 829.25,235.8906 Q828.4844,235.8906 827.8438,236.2188 Q827.2188,236.5469 826.7188,237.2969 Q826.2344,238.0469 826.2344,239.0781 L826.2344,240.1719 Q826.2344,241.4063 827.125,242.2344 Q828.0156,243.0469 829.6094,243.0469 Q830.5469,243.0469 831.2031,242.7969 Q831.5938,242.6406 832.0156,242.2031 Q832.2813,241.9375 832.4219,241.8594 Q832.5781,241.7813 832.7813,241.7813 Q833.1094,241.7813 833.3594,242.0469 Q833.625,242.2969 833.625,242.6406 Q833.625,242.9844 833.2813,243.3906 Q832.7813,243.9688 831.9844,244.2969 Q830.9063,244.75 829.6094,244.75 Q828.0938,244.75 826.8906,244.125 Q825.9063,243.625 825.2188,242.5625 Q824.5313,241.4844 824.5313,240.2031 L824.5313,239.0469 Q824.5313,237.7188 825.1406,236.5781 Q825.7656,235.4219 826.8594,234.8125 Q827.9531,234.1875 829.1875,234.1875 Q829.9219,234.1875 830.5625,234.3594 Q831.2188,234.5156 831.7656,234.875 Z " fill="#000000"/><text fill="#000000" font-family="sans-serif" font-size="14" lengthAdjust="spacing" textLength="55" x="843" y="244.7285">Incorrect</text><line style="stroke:#181818;stroke-width:0.5;" x1="815" x2="900" y1="255" y2="255"/><line style="stroke:#181818;stroke-width:0.5;" x1="815" x2="900" y1="263" y2="263"/></g><!--MD5=[f7b1256a464262a81d5827fb39e684fb]
class Open--><g id="elem_Open"><rect fill="#F1F1F1" height="48" id="Open" rx="2.5" ry="2.5" style="stroke:#181818;stroke-width:0.5;" width="67" x="1290" y="115"/><ellipse cx="1305" cy="131" fill="#ADD1B2" rx="11" ry="11" style="stroke:#181818;stroke-width:1.0;"/><path d="M1307.7656,126.875 Q1307.9219,126.6563 1308.1094,126.5469 Q1308.2969,126.4375 1308.5156,126.4375 Q1308.8906,126.4375 1309.125,126.7031 Q1309.3594,126.9531 1309.3594,127.5625 L1309.3594,129.0156 Q1309.3594,129.625 1309.125,129.8906 Q1308.8906,130.1563 1308.5156,130.1563 Q1308.1719,130.1563 1307.9688,129.9531 Q1307.7656,129.7656 1307.6563,129.25 Q1307.6094,128.8906 1307.4219,128.7031 Q1307.0938,128.3281 1306.4844,128.1094 Q1305.875,127.8906 1305.25,127.8906 Q1304.4844,127.8906 1303.8438,128.2188 Q1303.2188,128.5469 1302.7188,129.2969 Q1302.2344,130.0469 1302.2344,131.0781 L1302.2344,132.1719 Q1302.2344,133.4063 1303.125,134.2344 Q1304.0156,135.0469 1305.6094,135.0469 Q1306.5469,135.0469 1307.2031,134.7969 Q1307.5938,134.6406 1308.0156,134.2031 Q1308.2813,133.9375 1308.4219,133.8594 Q1308.5781,133.7813 1308.7813,133.7813 Q1309.1094,133.7813 1309.3594,134.0469 Q1309.625,134.2969 1309.625,134.6406 Q1309.625,134.9844 1309.2813,135.3906 Q1308.7813,135.9688 1307.9844,136.2969 Q1306.9063,136.75 1305.6094,136.75 Q1304.0938,136.75 1302.8906,136.125 Q1301.9063,135.625 1301.2188,134.5625 Q1300.5313,133.4844 1300.5313,132.2031 L1300.5313,131.0469 Q1300.5313,129.7188 1301.1406,128.5781 Q1301.7656,127.4219 1302.8594,126.8125 Q1303.9531,126.1875 1305.1875,126.1875 Q1305.9219,126.1875 1306.5625,126.3594 Q1307.2188,126.5156 1307.7656,126.875 Z " fill="#000000"/><text fill="#000000" font-family="sans-serif" font-size="14" lengthAdjust="spacing" textLength="35" x="1319" y="136.7285">Open</text><line style="stroke:#181818;stroke-width:0.5;" x1="1291" x2="1356" y1="147" y2="147"/><line style="stroke:#181818;stroke-width:0.5;" x1="1291" x2="1356" y1="155" y2="155"/></g><!--MD5=[fb7c59fdcf1581be3ce1da4715a84d88]
class WithDefinition--><g id="elem_WithDefinition"><rect fill="#F1F1F1" height="48" id="WithDefinition" rx="2.5" ry="2.5" style="stroke:#181818;stroke-width:0.5;" width="119" x="814" y="115"/><ellipse cx="829" cy="131" fill="#ADD1B2" rx="11" ry="11" style="stroke:#181818;stroke-width:1.0;"/><path d="M831.7656,126.875 Q831.9219,126.6563 832.1094,126.5469 Q832.2969,126.4375 832.5156,126.4375 Q832.8906,126.4375 833.125,126.7031 Q833.3594,126.9531 833.3594,127.5625 L833.3594,129.0156 Q833.3594,129.625 833.125,129.8906 Q832.8906,130.1563 832.5156,130.1563 Q832.1719,130.1563 831.9688,129.9531 Q831.7656,129.7656 831.6563,129.25 Q831.6094,128.8906 831.4219,128.7031 Q831.0938,128.3281 830.4844,128.1094 Q829.875,127.8906 829.25,127.8906 Q828.4844,127.8906 827.8438,128.2188 Q827.2188,128.5469 826.7188,129.2969 Q826.2344,130.0469 826.2344,131.0781 L826.2344,132.1719 Q826.2344,133.4063 827.125,134.2344 Q828.0156,135.0469 829.6094,135.0469 Q830.5469,135.0469 831.2031,134.7969 Q831.5938,134.6406 832.0156,134.2031 Q832.2813,133.9375 832.4219,133.8594 Q832.5781,133.7813 832.7813,133.7813 Q833.1094,133.7813 833.3594,134.0469 Q833.625,134.2969 833.625,134.6406 Q833.625,134.9844 833.2813,135.3906 Q832.7813,135.9688 831.9844,136.2969 Q830.9063,136.75 829.6094,136.75 Q828.0938,136.75 826.8906,136.125 Q825.9063,135.625 825.2188,134.5625 Q824.5313,133.4844 824.5313,132.2031 L824.5313,131.0469 Q824.5313,129.7188 825.1406,128.5781 Q825.7656,127.4219 826.8594,126.8125 Q827.9531,126.1875 829.1875,126.1875 Q829.9219,126.1875 830.5625,126.3594 Q831.2188,126.5156 831.7656,126.875 Z " fill="#000000"/><text fill="#000000" font-family="sans-serif" font-size="14" lengthAdjust="spacing" textLength="87" x="843" y="136.7285">WithDefinition</text><line style="stroke:#181818;stroke-width:0.5;" x1="815" x2="932" y1="147" y2="147"/><line style="stroke:#181818;stroke-width:0.5;" x1="815" x2="932" y1="155" y2="155"/></g><!--MD5=[5a390aae6f245240ed8a89301e8e455e]
class WithJustification--><g id="elem_WithJustification"><rect fill="#F1F1F1" height="48" id="WithJustification" rx="2.5" ry="2.5" style="stroke:#181818;stroke-width:0.5;" width="133" x="968" y="115"/><ellipse cx="983" cy="131" fill="#ADD1B2" rx="11" ry="11" style="stroke:#181818;stroke-width:1.0;"/><path d="M985.7656,126.875 Q985.9219,126.6563 986.1094,126.5469 Q986.2969,126.4375 986.5156,126.4375 Q986.8906,126.4375 987.125,126.7031 Q987.3594,126.9531 987.3594,127.5625 L987.3594,129.0156 Q987.3594,129.625 987.125,129.8906 Q986.8906,130.1563 986.5156,130.1563 Q986.1719,130.1563 985.9688,129.9531 Q985.7656,129.7656 985.6563,129.25 Q985.6094,128.8906 985.4219,128.7031 Q985.0938,128.3281 984.4844,128.1094 Q983.875,127.8906 983.25,127.8906 Q982.4844,127.8906 981.8438,128.2188 Q981.2188,128.5469 980.7188,129.2969 Q980.2344,130.0469 980.2344,131.0781 L980.2344,132.1719 Q980.2344,133.4063 981.125,134.2344 Q982.0156,135.0469 983.6094,135.0469 Q984.5469,135.0469 985.2031,134.7969 Q985.5938,134.6406 986.0156,134.2031 Q986.2813,133.9375 986.4219,133.8594 Q986.5781,133.7813 986.7813,133.7813 Q987.1094,133.7813 987.3594,134.0469 Q987.625,134.2969 987.625,134.6406 Q987.625,134.9844 987.2813,135.3906 Q986.7813,135.9688 985.9844,136.2969 Q984.9063,136.75 983.6094,136.75 Q982.0938,136.75 980.8906,136.125 Q979.9063,135.625 979.2188,134.5625 Q978.5313,133.4844 978.5313,132.2031 L978.5313,131.0469 Q978.5313,129.7188 979.1406,128.5781 Q979.7656,127.4219 980.8594,126.8125 Q981.9531,126.1875 983.1875,126.1875 Q983.9219,126.1875 984.5625,126.3594 Q985.2188,126.5156 985.7656,126.875 Z " fill="#000000"/><text fill="#000000" font-family="sans-serif" font-size="14" lengthAdjust="spacing" textLength="101" x="997" y="136.7285">WithJustification</text><line style="stroke:#181818;stroke-width:0.5;" x1="969" x2="1100" y1="147" y2="147"/><line style="stroke:#181818;stroke-width:0.5;" x1="969" x2="1100" y1="155" y2="155"/></g><!--MD5=[52ad97087556ad19cabdbca07f57229d]
class WithRelations--><g id="elem_WithRelations"><rect fill="#F1F1F1" height="48" id="WithRelations" rx="2.5" ry="2.5" style="stroke:#181818;stroke-width:0.5;" width="119" x="1136" y="115"/><ellipse cx="1151" cy="131" fill="#ADD1B2" rx="11" ry="11" style="stroke:#181818;stroke-width:1.0;"/><path d="M1153.7656,126.875 Q1153.9219,126.6563 1154.1094,126.5469 Q1154.2969,126.4375 1154.5156,126.4375 Q1154.8906,126.4375 1155.125,126.7031 Q1155.3594,126.9531 1155.3594,127.5625 L1155.3594,129.0156 Q1155.3594,129.625 1155.125,129.8906 Q1154.8906,130.1563 1154.5156,130.1563 Q1154.1719,130.1563 1153.9688,129.9531 Q1153.7656,129.7656 1153.6563,129.25 Q1153.6094,128.8906 1153.4219,128.7031 Q1153.0938,128.3281 1152.4844,128.1094 Q1151.875,127.8906 1151.25,127.8906 Q1150.4844,127.8906 1149.8438,128.2188 Q1149.2188,128.5469 1148.7188,129.2969 Q1148.2344,130.0469 1148.2344,131.0781 L1148.2344,132.1719 Q1148.2344,133.4063 1149.125,134.2344 Q1150.0156,135.0469 1151.6094,135.0469 Q1152.5469,135.0469 1153.2031,134.7969 Q1153.5938,134.6406 1154.0156,134.2031 Q1154.2813,133.9375 1154.4219,133.8594 Q1154.5781,133.7813 1154.7813,133.7813 Q1155.1094,133.7813 1155.3594,134.0469 Q1155.625,134.2969 1155.625,134.6406 Q1155.625,134.9844 1155.2813,135.3906 Q1154.7813,135.9688 1153.9844,136.2969 Q1152.9063,136.75 1151.6094,136.75 Q1150.0938,136.75 1148.8906,136.125 Q1147.9063,135.625 1147.2188,134.5625 Q1146.5313,133.4844 1146.5313,132.2031 L1146.5313,131.0469 Q1146.5313,129.7188 1147.1406,128.5781 Q1147.7656,127.4219 1148.8594,126.8125 Q1149.9531,126.1875 1151.1875,126.1875 Q1151.9219,126.1875 1152.5625,126.3594 Q1153.2188,126.5156 1153.7656,126.875 Z " fill="#000000"/><text fill="#000000" font-family="sans-serif" font-size="14" lengthAdjust="spacing" textLength="87" x="1165" y="136.7285">WithRelations</text><line style="stroke:#181818;stroke-width:0.5;" x1="1137" x2="1254" y1="147" y2="147"/><line style="stroke:#181818;stroke-width:0.5;" x1="1137" x2="1254" y1="155" y2="155"/></g><!--MD5=[c98fdacbcd4eb224c2d9d26b53646e58]
reverse link Category to Category--><g id="link_Category_Category"><path codeLine="38" d="M605.1,11.4 C617.53,13.39 626.5,19.93 626.5,31 C626.5,45.77 610.55,52.46 591.73,51.07 " fill="none" id="Category-backto-Category" style="stroke:#181818;stroke-width:1.0;"/><polygon fill="none" points="591.73,10.93,597.5811,15.1448,603.7221,11.3649,597.871,7.1501,591.73,10.93" style="stroke:#181818;stroke-width:1.0;"/><text fill="#000000" font-family="sans-serif" font-size="13" lengthAdjust="spacing" textLength="22" x="599.6373" y="50.2872">0..n</text></g><!--MD5=[06548aa1c124b95fb51b5a3e485cae93]
link Category to Concept--><g id="link_Category_Concept"><path codeLine="40" d="M514.82,55 C493.85,70.23 466.09,90.38 443.18,107.02 " fill="none" id="Category-to-Concept" style="stroke:#181818;stroke-width:1.0;"/><polygon fill="#181818" points="432.37,114.86,439.5756,114.5787,442.0874,107.8192,434.8817,108.1005,432.37,114.86" style="stroke:#181818;stroke-width:1.0;"/></g><!--MD5=[357c4abe4ae02615f163987610a5cb7f]
reverse link Concept to Keyword--><g id="link_Concept_Keyword"><path codeLine="41" d="M346.67,169.26 C315.58,186.16 277.03,207.12 248.07,222.86 " fill="none" id="Concept-backto-Keyword" style="stroke:#181818;stroke-width:1.0;"/><polygon fill="#181818" points="358.19,163,351.0081,162.3521,347.6477,168.7324,354.8296,169.3803,358.19,163" style="stroke:#181818;stroke-width:1.0;"/></g><!--MD5=[543bb2115b5a10697a67507a00f6a2f4]
reverse link Concept to Definition--><g id="link_Concept_Definition"><path codeLine="42" d="M377.72,174.01 C367.08,189.89 354.68,208.41 345.12,222.68 " fill="none" id="Concept-backto-Definition" style="stroke:#181818;stroke-width:1.0;"/><polygon fill="none" points="385.09,163,378.4285,165.7613,378.4153,172.9724,385.0768,170.2111,385.09,163" style="stroke:#181818;stroke-width:1.0;"/><text fill="#000000" font-family="sans-serif" font-size="13" lengthAdjust="spacing" textLength="22" x="324.2461" y="212.34">0..n</text></g><!--MD5=[69a02b5b6c5c93fee66f4274c66c937e]
reverse link Concept to FakeDefinition--><g id="link_Concept_FakeDefinition"><path codeLine="43" d="M423.28,174.01 C433.92,189.89 446.32,208.41 455.88,222.68 " fill="none" id="Concept-backto-FakeDefinition" style="stroke:#181818;stroke-width:1.0;"/><polygon fill="none" points="415.91,163,415.9232,170.2111,422.5847,172.9724,422.5715,165.7613,415.91,163" style="stroke:#181818;stroke-width:1.0;"/><text fill="#000000" font-family="sans-serif" font-size="13" lengthAdjust="spacing" textLength="22" x="427.3914" y="212.34">0..n</text></g><!--MD5=[f12615961f0f17a875f73130a94f8aba]
reverse link FakeDefinition to Justification--><g id="link_FakeDefinition_Justification"><path codeLine="45" d="M450.69,282.47 C441.16,298.25 430.12,316.54 421.58,330.68 " fill="none" id="FakeDefinition-backto-Justification" style="stroke:#181818;stroke-width:1.0;"/><polygon fill="none" points="457.61,271,451.0855,274.071,451.4109,281.2748,457.9353,278.2038,457.61,271" style="stroke:#181818;stroke-width:1.0;"/></g><!--MD5=[200f750cc9ff04a728c032c7908ccf2c]
reverse link FakeDefinition to FakeJustification--><g id="link_FakeDefinition_FakeJustification"><path codeLine="46" d="M500.21,281.08 C514.18,297.17 530.63,316.13 543.26,330.68 " fill="none" id="FakeDefinition-backto-FakeJustification" style="stroke:#181818;stroke-width:1.0;"/><polygon fill="none" points="491.46,271,492.3704,278.1534,499.3237,280.0643,498.4133,272.9109,491.46,271" style="stroke:#181818;stroke-width:1.0;"/></g><!--MD5=[54f9360500e0fd532969fc16f437bbea]
reverse link Concept to Relation--><g id="link_Concept_Relation"><path codeLine="48" d="M345.05,156.95 C292.99,173.12 213.06,198.55 144.5,223 C139.01,224.96 133.27,227.09 127.61,229.24 " fill="none" id="Concept-backto-Relation" style="stroke:#181818;stroke-width:1.0;"/><polygon fill="none" points="357.66,153.05,350.7455,151.0031,346.1967,156.5985,353.1112,158.6454,357.66,153.05" style="stroke:#181818;stroke-width:1.0;"/></g><!--MD5=[d181aac8e370f1f271ee70c773107917]
reverse link Relation to Assortment--><g id="link_Relation_Assortment"><path codeLine="49" d="M74.66,290.54 C71.18,304.23 67.44,318.9 64.44,330.68 " fill="none" id="Relation-backto-Assortment" style="stroke:#181818;stroke-width:1.0;"/><polygon fill="none" points="67.92,288.65,79.64,271,81.49,292.11,67.92,288.65" style="stroke:#181818;stroke-width:1.0;"/></g><!--MD5=[aac130c8b5f905729b18e85e231f7b50]
reverse link Relation to Composition--><g id="link_Relation_Composition"><path codeLine="50" d="M125.18,284.57 C141.76,299.86 160.54,317.17 175.2,330.68 " fill="none" id="Relation-backto-Composition" style="stroke:#181818;stroke-width:1.0;"/><polygon fill="none" points="120.41,289.7,110.45,271,129.9,279.41,120.41,289.7" style="stroke:#181818;stroke-width:1.0;"/></g><!--MD5=[edf55e120082aef1ebe78e7e0336c2b5]
reverse link Assortment to Sort--><g id="link_Assortment_Sort"><path codeLine="51" d="M58.5,392.34 C58.5,407.68 58.5,425.1 58.5,438.68 " fill="none" id="Assortment-backto-Sort" style="stroke:#181818;stroke-width:1.0;"/><polygon fill="#181818" points="58.5,379,54.5,385,58.5,391,62.5,385,58.5,379" style="stroke:#181818;stroke-width:1.0;"/><text fill="#000000" font-family="sans-serif" font-size="13" lengthAdjust="spacing" textLength="22" x="33.8188" y="428.34">2..n</text></g><!--MD5=[37057cfff4ca00884532b61fe74a04ae]
reverse link Composition to Component--><g id="link_Composition_Component"><path codeLine="52" d="M200.5,392.34 C200.5,407.68 200.5,425.1 200.5,438.68 " fill="none" id="Composition-backto-Component" style="stroke:#181818;stroke-width:1.0;"/><polygon fill="#181818" points="200.5,379,196.5,385,200.5,391,204.5,385,200.5,379" style="stroke:#181818;stroke-width:1.0;"/><text fill="#000000" font-family="sans-serif" font-size="13" lengthAdjust="spacing" textLength="22" x="175.8188" y="428.34">1..n</text></g><!--MD5=[1a1b676d11de0d3c9f1436eb98d48270]
link Category to Question--><g id="link_Category_Question"><path codeLine="54" d="M562.56,55 C572.48,69.21 585.39,87.71 596.51,103.63 " fill="none" id="Category-to-Question" style="stroke:#181818;stroke-width:1.0;"/><polygon fill="#181818" points="604.22,114.68,604.0639,107.4706,597.3491,104.8418,597.5051,112.0512,604.22,114.68" style="stroke:#181818;stroke-width:1.0;"/></g><!--MD5=[20c83fed4357f7476c4eaaca18a213d8]
reverse link Strategy to Concept--><g id="link_Strategy_Concept"><path codeLine="55" d="M905.61,41.18 C799.15,61.59 544.29,110.44 443.03,129.85 " fill="none" id="Strategy-backto-Concept" style="stroke:#181818;stroke-width:1.0;stroke-dasharray:7.0,7.0;"/><polygon fill="#181818" points="910.57,40.23,900.9775,37.9975,905.6596,41.1721,902.4849,45.8542,910.57,40.23" style="stroke:#181818;stroke-width:1.0;"/></g><!--MD5=[6555d89455758657c0769da936593b65]
reverse link Strategy to Open--><g id="link_Strategy_Open"><path codeLine="58" d="M1015.89,44.95 C1080.88,59.19 1185.21,84.21 1272.5,115 C1278.18,117 1284.1,119.39 1289.81,121.84 " fill="none" id="Strategy-backto-Open" style="stroke:#181818;stroke-width:1.0;"/><polygon fill="none" points="1014.31,51.77,996.24,40.71,1017.27,38.08,1014.31,51.77" style="stroke:#181818;stroke-width:1.0;"/></g><!--MD5=[cd94e5dc6737740dcac696dd45efb976]
reverse link Strategy to WithDefinition--><g id="link_Strategy_WithDefinition"><path codeLine="60" d="M923.93,71.18 C912.9,85.8 900.72,101.93 891.1,114.68 " fill="none" id="Strategy-backto-WithDefinition" style="stroke:#181818;stroke-width:1.0;"/><polygon fill="none" points="918.51,66.75,936.14,55,929.68,75.18,918.51,66.75" style="stroke:#181818;stroke-width:1.0;"/></g><!--MD5=[061851dbc9a62851f74dd97172566826]
reverse link Strategy to WithJustification--><g id="link_Strategy_WithJustification"><path codeLine="62" d="M983.44,71.18 C994.61,85.8 1006.94,101.93 1016.68,114.68 " fill="none" id="Strategy-backto-WithJustification" style="stroke:#181818;stroke-width:1.0;"/><polygon fill="none" points="977.66,75.14,971.08,55,988.78,66.64,977.66,75.14" style="stroke:#181818;stroke-width:1.0;"/></g><!--MD5=[202ef066ed34fd3a46ea83da3d82427f]
reverse link Strategy to WithRelations--><g id="link_Strategy_WithRelations"><path codeLine="63" d="M1014.57,58.75 C1054.05,76.04 1104.93,98.33 1142.67,114.86 " fill="none" id="Strategy-backto-WithRelations" style="stroke:#181818;stroke-width:1.0;"/><polygon fill="none" points="1011.72,65.14,996.21,50.71,1017.34,52.32,1011.72,65.14" style="stroke:#181818;stroke-width:1.0;"/></g><!--MD5=[14f9c4268ca272d347b75106876f2c10]
link Strategy to Question--><g id="link_Strategy_Question"><path codeLine="65" d="M910.54,44.32 C856.89,59.9 762.44,87.96 682.5,115 C678.44,116.38 674.24,117.84 670.03,119.34 " fill="none" id="Strategy-to-Question" style="stroke:#181818;stroke-width:1.0;stroke-dasharray:7.0,7.0;"/><polygon fill="#181818" points="665.09,121.11,674.9113,121.8462,669.7981,119.4265,672.2177,114.3133,665.09,121.11" style="stroke:#181818;stroke-width:1.0;"/></g><!--MD5=[6eeca14f8a2ed45d1117f4ed4af75b7e]
link Question to Statement--><g id="link_Question_Statement"><path codeLine="66" d="M619.182,174.9916 C619.182,174.9916 618.29,198.68 617.88,209.36 " fill="none" id="Question-Statement" style="stroke:#181818;stroke-width:1.0;"/><polygon fill="#181818" points="617.38,222.68,621.7132,213.8356,617.5667,217.6835,613.7188,213.5369,617.38,222.68" style="stroke:#181818;stroke-width:1.0;"/><line style="stroke:#181818;stroke-width:1.0;" x1="617.5667" x2="617.87" y1="217.6835" y2="209.69"/><polygon fill="#181818" points="619.63,163,615.4088,168.8465,619.182,174.9916,623.4032,169.1452,619.63,163" style="stroke:#181818;stroke-width:1.0;"/></g><!--MD5=[bcbd408316bb9144f3569d3bcde56d28]
link Question to Incorrect--><g id="link_Question_Incorrect"><path codeLine="67" d="M676.0376,164.832 C676.0376,164.832 764.11,204.23 801.67,221.03 " fill="none" id="Question-Incorrect" style="stroke:#181818;stroke-width:1.0;"/><polygon fill="#181818" points="813.92,226.51,807.3325,219.1885,809.3543,224.4717,804.0712,226.4935,813.92,226.51" style="stroke:#181818;stroke-width:1.0;"/><line style="stroke:#181818;stroke-width:1.0;" x1="809.3543" x2="802.055" y1="224.4717" y2="221.205"/><polygon fill="#181818" points="665.08,159.94,668.9281,166.0385,676.0376,164.832,672.1895,158.7335,665.08,159.94" style="stroke:#181818;stroke-width:1.0;"/><text fill="#000000" font-family="sans-serif" font-size="13" lengthAdjust="spacing" textLength="7" x="799.1224" y="219.3156">3</text></g><!--MD5=[fad82a5e9ec53f6abc538956bca6f09b]
link Question to Correct--><g id="link_Question_Correct"><path codeLine="68" d="M655.2794,170.983 C655.2794,170.983 688.38,200.47 703.37,213.82 " fill="none" id="Question-Correct" style="stroke:#181818;stroke-width:1.0;"/><polygon fill="#181818" points="713.32,222.68,709.2622,213.7059,709.5872,219.3534,703.9397,219.6784,713.32,222.68" style="stroke:#181818;stroke-width:1.0;"/><line style="stroke:#181818;stroke-width:1.0;" x1="709.5872" x2="703.61" y1="219.3534" y2="214.03"/><polygon fill="#181818" points="646.32,163,648.1387,169.978,655.2794,170.983,653.4607,164.005,646.32,163" style="stroke:#181818;stroke-width:1.0;"/></g><!--MD5=[b1491d38e87214202fddacec717a9c8d]
reverse link Answer to Correct--><g id="link_Answer_Correct"><path codeLine="69" d="M739.5,183.02 C739.5,196.58 739.5,211.04 739.5,222.68 " fill="none" id="Answer-backto-Correct" style="stroke:#181818;stroke-width:1.0;"/><polygon fill="none" points="732.5,183,739.5,163,746.5,183,732.5,183" style="stroke:#181818;stroke-width:1.0;"/></g><!--MD5=[a6181c8180a1587156cddad319d63c9e]
reverse link Answer to Incorrect--><g id="link_Answer_Incorrect"><path codeLine="70" d="M780.21,176.57 C797.23,191.86 816.5,209.17 831.54,222.68 " fill="none" id="Answer-backto-Incorrect" style="stroke:#181818;stroke-width:1.0;"/><polygon fill="none" points="775.3,181.57,765.1,163,784.66,171.16,775.3,181.57" style="stroke:#181818;stroke-width:1.0;"/></g><!--MD5=[c8e3d84ccf2f9007e2c0600156ad11e9]
@startuml ConceptDomainDetail

class Category 

class Concept

class Keyword

Class Definition 

Class FakeDefinition

Class Justification

Class FakeJustification

Class Relation

Class Assortment

Class Sort

Class Composition

Class Component

Class Strategy

class Question 

class Statement

class Answer 

class Correct

Class Incorrect

Category o- -"0..n" Category

Category - -* Concept
Concept *- - Keyword
Concept o- -"0..n" Definition
Concept o- - "0..n" FakeDefinition

FakeDefinition o- - Justification
FakeDefinition o- - FakeJustification

Concept o- - Relation
Relation <|- - Assortment
Relation <|- - Composition
Assortment *- - "2..n" Sort
Composition *- - "1..n" Component

Category - -* Question
Strategy <.. Concept 

'Strategies
 Strategy <|- - Open
 'Strategy <|- - DefineKeyword
 Strategy <|- - WithDefinition
 'Strategy <|- - CombineDefinitions
 Strategy <|- - WithJustification
 Strategy <|- - WithRelations

Strategy ..> Question
Question *- ->   Statement
Question *- -> "3" Incorrect
Question *- ->   Correct
Answer <|- - Correct
Answer <|- - Incorrect

 









@end

@startuml ConceptDomainDetail

class Category 

class Concept

class Keyword

Class Definition 

Class FakeDefinition

Class Justification

Class FakeJustification

Class Relation

Class Assortment

Class Sort

Class Composition

Class Component

Class Strategy

class Question 

class Statement

class Answer 

class Correct

Class Incorrect

Category o- -"0..n" Category

Category - -* Concept
Concept *- - Keyword
Concept o- -"0..n" Definition
Concept o- - "0..n" FakeDefinition

FakeDefinition o- - Justification
FakeDefinition o- - FakeJustification

Concept o- - Relation
Relation <|- - Assortment
Relation <|- - Composition
Assortment *- - "2..n" Sort
Composition *- - "1..n" Component

Category - -* Question
Strategy <.. Concept 

 Strategy <|- - Open
 Strategy <|- - WithDefinition
 Strategy <|- - WithJustification
 Strategy <|- - WithRelations

Strategy ..> Question
Question *- ->   Statement
Question *- -> "3" Incorrect
Question *- ->   Correct
Answer <|- - Correct
Answer <|- - Incorrect

 









@end

PlantUML version 1.2022.7(Mon Aug 22 18:01:30 WEST 2022)
(GPL source distribution)
Java Runtime: OpenJDK Runtime Environment
JVM: OpenJDK 64-Bit Server VM
Default Encoding: Cp1252
Language: es
Country: ES
--></g></svg>