<?xml version="1.0" encoding="UTF-8" standalone="no"?><svg xmlns="http://www.w3.org/2000/svg" xmlns:xlink="http://www.w3.org/1999/xlink" contentStyleType="text/css" height="320px" preserveAspectRatio="none" style="width:428px;height:320px;background:#FFFFFF;" version="1.1" viewBox="0 0 428 320" width="428px" zoomAndPan="magnify"><defs/><g><line style="stroke:#181818;stroke-width:0.5;stroke-dasharray:5.0,5.0;" x1="32" x2="32" y1="82.6094" y2="238.0156"/><line style="stroke:#181818;stroke-width:0.5;stroke-dasharray:5.0,5.0;" x1="98" x2="98" y1="82.6094" y2="238.0156"/><line style="stroke:#181818;stroke-width:0.5;stroke-dasharray:5.0,5.0;" x1="156" x2="156" y1="82.6094" y2="238.0156"/><line style="stroke:#181818;stroke-width:0.5;stroke-dasharray:5.0,5.0;" x1="325" x2="325" y1="82.6094" y2="238.0156"/><line style="stroke:#181818;stroke-width:0.5;stroke-dasharray:5.0,5.0;" x1="390" x2="390" y1="82.6094" y2="238.0156"/><text fill="#000000" font-family="sans-serif" font-size="14" lengthAdjust="spacing" textLength="48" x="5" y="79.5332">Usuario</text><ellipse cx="32" cy="13.5" fill="#E2E2F0" rx="8" ry="8" style="stroke:#181818;stroke-width:0.5;"/><path d="M32,21.5 L32,48.5 M19,29.5 L45,29.5 M32,48.5 L19,63.5 M32,48.5 L45,63.5 " fill="none" style="stroke:#181818;stroke-width:0.5;"/><text fill="#000000" font-family="sans-serif" font-size="14" lengthAdjust="spacing" textLength="48" x="5" y="251.5488">Usuario</text><ellipse cx="32" cy="263.125" fill="#E2E2F0" rx="8" ry="8" style="stroke:#181818;stroke-width:0.5;"/><path d="M32,271.125 L32,298.125 M19,279.125 L45,279.125 M32,298.125 L19,313.125 M32,298.125 L45,313.125 " fill="none" style="stroke:#181818;stroke-width:0.5;"/><text fill="#000000" font-family="sans-serif" font-size="14" lengthAdjust="spacing" textLength="52" x="69" y="79.5332">LocalDb</text><path d="M80,29 C80,19 98,19 98,19 C98,19 116,19 116,29 L116,55 C116,65 98,65 98,65 C98,65 80,65 80,55 L80,29 " fill="#E2E2F0" style="stroke:#181818;stroke-width:1.5;"/><path d="M80,29 C80,39 98,39 98,39 C98,39 116,39 116,29 " fill="none" style="stroke:#181818;stroke-width:1.5;"/><text fill="#000000" font-family="sans-serif" font-size="14" lengthAdjust="spacing" textLength="52" x="69" y="251.5488">LocalDb</text><path d="M80,264.625 C80,254.625 98,254.625 98,254.625 C98,254.625 116,254.625 116,264.625 L116,290.625 C116,300.625 98,300.625 98,300.625 C98,300.625 80,300.625 80,290.625 L80,264.625 " fill="#E2E2F0" style="stroke:#181818;stroke-width:1.5;"/><path d="M80,264.625 C80,274.625 98,274.625 98,274.625 C98,274.625 116,274.625 116,264.625 " fill="none" style="stroke:#181818;stroke-width:1.5;"/><rect fill="#E2E2F0" height="31.6094" rx="2.5" ry="2.5" style="stroke:#181818;stroke-width:0.5;" width="39" x="137" y="50"/><text fill="#000000" font-family="sans-serif" font-size="14" lengthAdjust="spacing" textLength="25" x="144" y="71.5332">App</text><rect fill="#E2E2F0" height="31.6094" rx="2.5" ry="2.5" style="stroke:#181818;stroke-width:0.5;" width="39" x="137" y="237.0156"/><text fill="#000000" font-family="sans-serif" font-size="14" lengthAdjust="spacing" textLength="25" x="144" y="258.5488">App</text><rect fill="#E2E2F0" height="31.6094" rx="2.5" ry="2.5" style="stroke:#181818;stroke-width:0.5;" width="35" x="308" y="50"/><text fill="#000000" font-family="sans-serif" font-size="14" lengthAdjust="spacing" textLength="21" x="315" y="71.5332">API</text><rect fill="#E2E2F0" height="31.6094" rx="2.5" ry="2.5" style="stroke:#181818;stroke-width:0.5;" width="35" x="308" y="237.0156"/><text fill="#000000" font-family="sans-serif" font-size="14" lengthAdjust="spacing" textLength="21" x="315" y="258.5488">API</text><text fill="#000000" font-family="sans-serif" font-size="14" lengthAdjust="spacing" textLength="68" x="353" y="79.5332">OpotestDb</text><path d="M372,29 C372,19 390,19 390,19 C390,19 408,19 408,29 L408,55 C408,65 390,65 390,65 C390,65 372,65 372,55 L372,29 " fill="#E2E2F0" style="stroke:#181818;stroke-width:1.5;"/><path d="M372,29 C372,39 390,39 390,39 C390,39 408,39 408,29 " fill="none" style="stroke:#181818;stroke-width:1.5;"/><text fill="#000000" font-family="sans-serif" font-size="14" lengthAdjust="spacing" textLength="68" x="353" y="251.5488">OpotestDb</text><path d="M372,264.625 C372,254.625 390,254.625 390,254.625 C390,254.625 408,254.625 408,264.625 L408,290.625 C408,300.625 390,300.625 390,300.625 C390,300.625 372,300.625 372,290.625 L372,264.625 " fill="#E2E2F0" style="stroke:#181818;stroke-width:1.5;"/><path d="M372,264.625 C372,274.625 390,274.625 390,274.625 C390,274.625 408,274.625 408,264.625 " fill="none" style="stroke:#181818;stroke-width:1.5;"/><polygon fill="#181818" points="313.5,110.9609,323.5,114.9609,313.5,118.9609,317.5,114.9609" style="stroke:#181818;stroke-width:1.0;"/><line style="stroke:#181818;stroke-width:1.0;" x1="156.5" x2="319.5" y1="114.9609" y2="114.9609"/><text fill="#000000" font-family="sans-serif" font-size="13" lengthAdjust="spacing" textLength="135" x="163.5" y="110.1045">Authentication Request</text><polygon fill="#181818" points="167.5,141.3125,157.5,145.3125,167.5,149.3125,163.5,145.3125" style="stroke:#181818;stroke-width:1.0;"/><line style="stroke:#181818;stroke-width:1.0;stroke-dasharray:2.0,2.0;" x1="161.5" x2="324.5" y1="145.3125" y2="145.3125"/><text fill="#000000" font-family="sans-serif" font-size="13" lengthAdjust="spacing" textLength="145" x="173.5" y="140.4561">Authentication Response</text><polygon fill="#181818" points="313.5,171.6641,323.5,175.6641,313.5,179.6641,317.5,175.6641" style="stroke:#181818;stroke-width:1.0;"/><line style="stroke:#181818;stroke-width:1.0;" x1="156.5" x2="319.5" y1="175.6641" y2="175.6641"/><text fill="#000000" font-family="sans-serif" font-size="13" lengthAdjust="spacing" textLength="116" x="163.5" y="170.8076">Collections Request</text><polygon fill="#181818" points="313.5,202.0156,323.5,206.0156,313.5,210.0156,317.5,206.0156" style="stroke:#181818;stroke-width:1.0;"/><line style="stroke:#181818;stroke-width:1.0;stroke-dasharray:2.0,2.0;" x1="156.5" x2="319.5" y1="206.0156" y2="206.0156"/><text fill="#000000" font-family="sans-serif" font-size="13" lengthAdjust="spacing" textLength="126" x="163.5" y="201.1592">Collections Response</text><polygon fill="#181818" points="378,216.0156,388,220.0156,378,224.0156,382,220.0156" style="stroke:#181818;stroke-width:1.0;"/><line style="stroke:#181818;stroke-width:1.0;" x1="325.5" x2="384" y1="220.0156" y2="220.0156"/><!--MD5=[d22323d760e6d6b2f731753bae76815d]
@startuml OpoTestPlanteamiento
actor Usuario

database LocalDb
App -> API: Authentication Request
API - -> App: Authentication Response

App -> API: Collections Request
API <- - App: Collections Response

database OpotestDb

API -> OpotestDb

@enduml

PlantUML version 1.2022.7(Mon Aug 22 18:01:30 WEST 2022)
(GPL source distribution)
Java Runtime: OpenJDK Runtime Environment
JVM: OpenJDK 64-Bit Server VM
Default Encoding: Cp1252
Language: es
Country: ES
--></g></svg>