<?xml version="1.0" encoding="UTF-8" standalone="no"?><svg xmlns="http://www.w3.org/2000/svg" xmlns:xlink="http://www.w3.org/1999/xlink" contentStyleType="text/css" height="320px" preserveAspectRatio="none" style="width:410px;height:320px;background:#FFFFFF;" version="1.1" viewBox="0 0 410 320" width="410px" zoomAndPan="magnify"><defs/><g><line style="stroke:#181818;stroke-width:0.5;stroke-dasharray:5.0,5.0;" x1="32" x2="32" y1="82.6094" y2="238.0156"/><line style="stroke:#181818;stroke-width:0.5;stroke-dasharray:5.0,5.0;" x1="89" x2="89" y1="82.6094" y2="238.0156"/><line style="stroke:#181818;stroke-width:0.5;stroke-dasharray:5.0,5.0;" x1="138" x2="138" y1="82.6094" y2="238.0156"/><line style="stroke:#181818;stroke-width:0.5;stroke-dasharray:5.0,5.0;" x1="307" x2="307" y1="82.6094" y2="238.0156"/><line style="stroke:#181818;stroke-width:0.5;stroke-dasharray:5.0,5.0;" x1="372" x2="372" y1="82.6094" y2="238.0156"/><text fill="#000000" font-family="sans-serif" font-size="14" lengthAdjust="spacing" textLength="48" x="5" y="79.5332">Usuario</text><ellipse cx="32" cy="13.5" fill="#E2E2F0" rx="8" ry="8" style="stroke:#181818;stroke-width:0.5;"/><path d="M32,21.5 L32,48.5 M19,29.5 L45,29.5 M32,48.5 L19,63.5 M32,48.5 L45,63.5 " fill="none" style="stroke:#181818;stroke-width:0.5;"/><text fill="#000000" font-family="sans-serif" font-size="14" lengthAdjust="spacing" textLength="48" x="5" y="251.5488">Usuario</text><ellipse cx="32" cy="263.125" fill="#E2E2F0" rx="8" ry="8" style="stroke:#181818;stroke-width:0.5;"/><path d="M32,271.125 L32,298.125 M19,279.125 L45,279.125 M32,298.125 L19,313.125 M32,298.125 L45,313.125 " fill="none" style="stroke:#181818;stroke-width:0.5;"/><text fill="#000000" font-family="sans-serif" font-size="14" lengthAdjust="spacing" textLength="34" x="69" y="79.5332">Local</text><path d="M71,29 C71,19 89,19 89,19 C89,19 107,19 107,29 L107,55 C107,65 89,65 89,65 C89,65 71,65 71,55 L71,29 " fill="#E2E2F0" style="stroke:#181818;stroke-width:1.5;"/><path d="M71,29 C71,39 89,39 89,39 C89,39 107,39 107,29 " fill="none" style="stroke:#181818;stroke-width:1.5;"/><text fill="#000000" font-family="sans-serif" font-size="14" lengthAdjust="spacing" textLength="34" x="69" y="251.5488">Local</text><path d="M71,264.625 C71,254.625 89,254.625 89,254.625 C89,254.625 107,254.625 107,264.625 L107,290.625 C107,300.625 89,300.625 89,300.625 C89,300.625 71,300.625 71,290.625 L71,264.625 " fill="#E2E2F0" style="stroke:#181818;stroke-width:1.5;"/><path d="M71,264.625 C71,274.625 89,274.625 89,274.625 C89,274.625 107,274.625 107,264.625 " fill="none" style="stroke:#181818;stroke-width:1.5;"/><rect fill="#E2E2F0" height="31.6094" rx="2.5" ry="2.5" style="stroke:#181818;stroke-width:0.5;" width="39" x="119" y="50"/><text fill="#000000" font-family="sans-serif" font-size="14" lengthAdjust="spacing" textLength="25" x="126" y="71.5332">App</text><rect fill="#E2E2F0" height="31.6094" rx="2.5" ry="2.5" style="stroke:#181818;stroke-width:0.5;" width="39" x="119" y="237.0156"/><text fill="#000000" font-family="sans-serif" font-size="14" lengthAdjust="spacing" textLength="25" x="126" y="258.5488">App</text><rect fill="#E2E2F0" height="31.6094" rx="2.5" ry="2.5" style="stroke:#181818;stroke-width:0.5;" width="35" x="290" y="50"/><text fill="#000000" font-family="sans-serif" font-size="14" lengthAdjust="spacing" textLength="21" x="297" y="71.5332">API</text><rect fill="#E2E2F0" height="31.6094" rx="2.5" ry="2.5" style="stroke:#181818;stroke-width:0.5;" width="35" x="290" y="237.0156"/><text fill="#000000" font-family="sans-serif" font-size="14" lengthAdjust="spacing" textLength="21" x="297" y="258.5488">API</text><text fill="#000000" font-family="sans-serif" font-size="14" lengthAdjust="spacing" textLength="68" x="335" y="79.5332">OpotestDb</text><path d="M354,29 C354,19 372,19 372,19 C372,19 390,19 390,29 L390,55 C390,65 372,65 372,65 C372,65 354,65 354,55 L354,29 " fill="#E2E2F0" style="stroke:#181818;stroke-width:1.5;"/><path d="M354,29 C354,39 372,39 372,39 C372,39 390,39 390,29 " fill="none" style="stroke:#181818;stroke-width:1.5;"/><text fill="#000000" font-family="sans-serif" font-size="14" lengthAdjust="spacing" textLength="68" x="335" y="251.5488">OpotestDb</text><path d="M354,264.625 C354,254.625 372,254.625 372,254.625 C372,254.625 390,254.625 390,264.625 L390,290.625 C390,300.625 372,300.625 372,300.625 C372,300.625 354,300.625 354,290.625 L354,264.625 " fill="#E2E2F0" style="stroke:#181818;stroke-width:1.5;"/><path d="M354,264.625 C354,274.625 372,274.625 372,274.625 C372,274.625 390,274.625 390,264.625 " fill="none" style="stroke:#181818;stroke-width:1.5;"/><polygon fill="#181818" points="295.5,110.9609,305.5,114.9609,295.5,118.9609,299.5,114.9609" style="stroke:#181818;stroke-width:1.0;"/><line style="stroke:#181818;stroke-width:1.0;" x1="138.5" x2="301.5" y1="114.9609" y2="114.9609"/><text fill="#000000" font-family="sans-serif" font-size="13" lengthAdjust="spacing" textLength="135" x="145.5" y="110.1045">Authentication Request</text><polygon fill="#181818" points="149.5,141.3125,139.5,145.3125,149.5,149.3125,145.5,145.3125" style="stroke:#181818;stroke-width:1.0;"/><line style="stroke:#181818;stroke-width:1.0;stroke-dasharray:2.0,2.0;" x1="143.5" x2="306.5" y1="145.3125" y2="145.3125"/><text fill="#000000" font-family="sans-serif" font-size="13" lengthAdjust="spacing" textLength="145" x="155.5" y="140.4561">Authentication Response</text><polygon fill="#181818" points="295.5,171.6641,305.5,175.6641,295.5,179.6641,299.5,175.6641" style="stroke:#181818;stroke-width:1.0;"/><line style="stroke:#181818;stroke-width:1.0;" x1="138.5" x2="301.5" y1="175.6641" y2="175.6641"/><text fill="#000000" font-family="sans-serif" font-size="13" lengthAdjust="spacing" textLength="116" x="145.5" y="170.8076">Collections Request</text><polygon fill="#181818" points="295.5,202.0156,305.5,206.0156,295.5,210.0156,299.5,206.0156" style="stroke:#181818;stroke-width:1.0;"/><line style="stroke:#181818;stroke-width:1.0;stroke-dasharray:2.0,2.0;" x1="138.5" x2="301.5" y1="206.0156" y2="206.0156"/><text fill="#000000" font-family="sans-serif" font-size="13" lengthAdjust="spacing" textLength="126" x="145.5" y="201.1592">Collections Response</text><polygon fill="#181818" points="360,216.0156,370,220.0156,360,224.0156,364,220.0156" style="stroke:#181818;stroke-width:1.0;"/><line style="stroke:#181818;stroke-width:1.0;" x1="307.5" x2="366" y1="220.0156" y2="220.0156"/><!--MD5=[4163a8710691a06b4fc1decd91bb7a05]
@startuml OpoTestPlanteamiento
actor Usuario

database Local
App -> API: Authentication Request
API - -> App: Authentication Response

App -> API: Collections Request
API <- - App: Collections Response

database OpotestDb

API -> OpotestDb

@enduml

PlantUML version 1.2022.7(Mon Aug 22 18:01:30 WEST 2022)
(GPL source distribution)
Java Runtime: OpenJDK Runtime Environment
JVM: OpenJDK 64-Bit Server VM
Default Encoding: Cp1252
Language: es
Country: ES
--></g></svg>