<?xml version="1.0" encoding="UTF-8" standalone="no"?><svg xmlns="http://www.w3.org/2000/svg" xmlns:xlink="http://www.w3.org/1999/xlink" contentStyleType="text/css" height="320px" preserveAspectRatio="none" style="width:360px;height:320px;background:#FFFFFF;" version="1.1" viewBox="0 0 360 320" width="360px" zoomAndPan="magnify"><defs/><g><line style="stroke:#181818;stroke-width:0.5;stroke-dasharray:5.0,5.0;" x1="32" x2="32" y1="82.6094" y2="238.0156"/><line style="stroke:#181818;stroke-width:0.5;stroke-dasharray:5.0,5.0;" x1="88" x2="88" y1="82.6094" y2="238.0156"/><line style="stroke:#181818;stroke-width:0.5;stroke-dasharray:5.0,5.0;" x1="257" x2="257" y1="82.6094" y2="238.0156"/><line style="stroke:#181818;stroke-width:0.5;stroke-dasharray:5.0,5.0;" x1="322" x2="322" y1="82.6094" y2="238.0156"/><text fill="#000000" font-family="sans-serif" font-size="14" lengthAdjust="spacing" textLength="48" x="5" y="79.5332">Usuario</text><ellipse cx="32" cy="13.5" fill="#E2E2F0" rx="8" ry="8" style="stroke:#181818;stroke-width:0.5;"/><path d="M32,21.5 L32,48.5 M19,29.5 L45,29.5 M32,48.5 L19,63.5 M32,48.5 L45,63.5 " fill="none" style="stroke:#181818;stroke-width:0.5;"/><text fill="#000000" font-family="sans-serif" font-size="14" lengthAdjust="spacing" textLength="48" x="5" y="251.5488">Usuario</text><ellipse cx="32" cy="263.125" fill="#E2E2F0" rx="8" ry="8" style="stroke:#181818;stroke-width:0.5;"/><path d="M32,271.125 L32,298.125 M19,279.125 L45,279.125 M32,298.125 L19,313.125 M32,298.125 L45,313.125 " fill="none" style="stroke:#181818;stroke-width:0.5;"/><rect fill="#E2E2F0" height="31.6094" rx="2.5" ry="2.5" style="stroke:#181818;stroke-width:0.5;" width="39" x="69" y="50"/><text fill="#000000" font-family="sans-serif" font-size="14" lengthAdjust="spacing" textLength="25" x="76" y="71.5332">App</text><rect fill="#E2E2F0" height="31.6094" rx="2.5" ry="2.5" style="stroke:#181818;stroke-width:0.5;" width="39" x="69" y="237.0156"/><text fill="#000000" font-family="sans-serif" font-size="14" lengthAdjust="spacing" textLength="25" x="76" y="258.5488">App</text><rect fill="#E2E2F0" height="31.6094" rx="2.5" ry="2.5" style="stroke:#181818;stroke-width:0.5;" width="35" x="240" y="50"/><text fill="#000000" font-family="sans-serif" font-size="14" lengthAdjust="spacing" textLength="21" x="247" y="71.5332">API</text><rect fill="#E2E2F0" height="31.6094" rx="2.5" ry="2.5" style="stroke:#181818;stroke-width:0.5;" width="35" x="240" y="237.0156"/><text fill="#000000" font-family="sans-serif" font-size="14" lengthAdjust="spacing" textLength="21" x="247" y="258.5488">API</text><text fill="#000000" font-family="sans-serif" font-size="14" lengthAdjust="spacing" textLength="68" x="285" y="79.5332">OpotestDb</text><path d="M304,29 C304,19 322,19 322,19 C322,19 340,19 340,29 L340,55 C340,65 322,65 322,65 C322,65 304,65 304,55 L304,29 " fill="#E2E2F0" style="stroke:#181818;stroke-width:1.5;"/><path d="M304,29 C304,39 322,39 322,39 C322,39 340,39 340,29 " fill="none" style="stroke:#181818;stroke-width:1.5;"/><text fill="#000000" font-family="sans-serif" font-size="14" lengthAdjust="spacing" textLength="68" x="285" y="251.5488">OpotestDb</text><path d="M304,264.625 C304,254.625 322,254.625 322,254.625 C322,254.625 340,254.625 340,264.625 L340,290.625 C340,300.625 322,300.625 322,300.625 C322,300.625 304,300.625 304,290.625 L304,264.625 " fill="#E2E2F0" style="stroke:#181818;stroke-width:1.5;"/><path d="M304,264.625 C304,274.625 322,274.625 322,274.625 C322,274.625 340,274.625 340,264.625 " fill="none" style="stroke:#181818;stroke-width:1.5;"/><polygon fill="#181818" points="245.5,110.9609,255.5,114.9609,245.5,118.9609,249.5,114.9609" style="stroke:#181818;stroke-width:1.0;"/><line style="stroke:#181818;stroke-width:1.0;" x1="88.5" x2="251.5" y1="114.9609" y2="114.9609"/><text fill="#000000" font-family="sans-serif" font-size="13" lengthAdjust="spacing" textLength="135" x="95.5" y="110.1045">Authentication Request</text><polygon fill="#181818" points="99.5,141.3125,89.5,145.3125,99.5,149.3125,95.5,145.3125" style="stroke:#181818;stroke-width:1.0;"/><line style="stroke:#181818;stroke-width:1.0;stroke-dasharray:2.0,2.0;" x1="93.5" x2="256.5" y1="145.3125" y2="145.3125"/><text fill="#000000" font-family="sans-serif" font-size="13" lengthAdjust="spacing" textLength="145" x="105.5" y="140.4561">Authentication Response</text><polygon fill="#181818" points="245.5,171.6641,255.5,175.6641,245.5,179.6641,249.5,175.6641" style="stroke:#181818;stroke-width:1.0;"/><line style="stroke:#181818;stroke-width:1.0;" x1="88.5" x2="251.5" y1="175.6641" y2="175.6641"/><text fill="#000000" font-family="sans-serif" font-size="13" lengthAdjust="spacing" textLength="116" x="95.5" y="170.8076">Collections Request</text><polygon fill="#181818" points="245.5,202.0156,255.5,206.0156,245.5,210.0156,249.5,206.0156" style="stroke:#181818;stroke-width:1.0;"/><line style="stroke:#181818;stroke-width:1.0;stroke-dasharray:2.0,2.0;" x1="88.5" x2="251.5" y1="206.0156" y2="206.0156"/><text fill="#000000" font-family="sans-serif" font-size="13" lengthAdjust="spacing" textLength="126" x="95.5" y="201.1592">Collections Response</text><polygon fill="#181818" points="310,216.0156,320,220.0156,310,224.0156,314,220.0156" style="stroke:#181818;stroke-width:1.0;"/><line style="stroke:#181818;stroke-width:1.0;" x1="257.5" x2="316" y1="220.0156" y2="220.0156"/><!--MD5=[2917a71618608adefd9d9c26d8965e0d]
@startuml OpoTestPlanteamiento
actor Usuario

App -> API: Authentication Request
API - -> App: Authentication Response

App -> API: Collections Request
API <- - App: Collections Response

database OpotestDb

API -> OpotestDb

@enduml

PlantUML version 1.2022.7(Mon Aug 22 18:01:30 WEST 2022)
(GPL source distribution)
Java Runtime: OpenJDK Runtime Environment
JVM: OpenJDK 64-Bit Server VM
Default Encoding: Cp1252
Language: es
Country: ES
--></g></svg>