<?xml version="1.0" encoding="UTF-8" standalone="no"?><svg xmlns="http://www.w3.org/2000/svg" xmlns:xlink="http://www.w3.org/1999/xlink" contentStyleType="text/css" height="103px" preserveAspectRatio="none" style="width:1534px;height:103px;background:#FFFFFF;" version="1.1" viewBox="0 0 1534 103" width="1534px" zoomAndPan="magnify"><defs/><g><g id="CategoryCreated"><rect fill="#F1F1F1" height="55.2188" rx="12.5" ry="12.5" style="stroke:#181818;stroke-width:0.5;" width="129" x="205.5" y="24.5"/><line style="stroke:#181818;stroke-width:0.5;" x1="205.5" x2="334.5" y1="52.1094" y2="52.1094"/><text fill="#000000" font-family="sans-serif" font-size="14" lengthAdjust="spacing" textLength="109" x="215.5" y="44.0332">CategoryCreated</text><text fill="#000000" font-family="sans-serif" font-size="14" lengthAdjust="spacing" textLength="60" x="210.5" y="71.6426">Hierarchy</text></g><g id="ConceptCreated"><rect fill="#F1F1F1" height="55.2188" rx="12.5" ry="12.5" style="stroke:#181818;stroke-width:0.5;" width="124" x="493" y="24.5"/><line style="stroke:#181818;stroke-width:0.5;" x1="493" x2="617" y1="52.1094" y2="52.1094"/><text fill="#000000" font-family="sans-serif" font-size="14" lengthAdjust="spacing" textLength="104" x="503" y="44.0332">ConceptCreated</text><text fill="#000000" font-family="sans-serif" font-size="14" lengthAdjust="spacing" textLength="58" x="498" y="71.6426">Category</text></g><g id="QuestionCreated"><rect fill="#F1F1F1" height="90.4375" rx="12.5" ry="12.5" style="stroke:#181818;stroke-width:0.5;" width="128" x="780" y="7"/><line style="stroke:#181818;stroke-width:0.5;" x1="780" x2="908" y1="34.6094" y2="34.6094"/><text fill="#000000" font-family="sans-serif" font-size="14" lengthAdjust="spacing" textLength="108" x="790" y="26.5332">QuestionCreated</text><text fill="#000000" font-family="sans-serif" font-size="14" lengthAdjust="spacing" textLength="58" x="785" y="54.1426">Category</text><text fill="#000000" font-family="sans-serif" font-size="14" lengthAdjust="spacing" textLength="64" x="785" y="71.752">Statement</text><text fill="#000000" font-family="sans-serif" font-size="14" lengthAdjust="spacing" textLength="54" x="785" y="89.3613">4Answer</text></g><g id="QuestionInReview"><rect fill="#F1F1F1" height="55.2188" rx="12.5" ry="12.5" style="stroke:#181818;stroke-width:0.5;" width="133" x="1080.5" y="24.5"/><line style="stroke:#181818;stroke-width:0.5;" x1="1080.5" x2="1213.5" y1="52.1094" y2="52.1094"/><text fill="#000000" font-family="sans-serif" font-size="14" lengthAdjust="spacing" textLength="113" x="1090.5" y="44.0332">QuestionInReview</text><text fill="#000000" font-family="sans-serif" font-size="14" lengthAdjust="spacing" textLength="61" x="1085.5" y="71.6426">Reviewed</text></g><g id="QuestionReady"><rect fill="#F1F1F1" height="55.2188" rx="12.5" ry="12.5" style="stroke:#181818;stroke-width:0.5;" width="165" x="1362.5" y="24.5"/><line style="stroke:#181818;stroke-width:0.5;" x1="1362.5" x2="1527.5" y1="52.1094" y2="52.1094"/><text fill="#000000" font-family="sans-serif" font-size="14" lengthAdjust="spacing" textLength="98" x="1396" y="44.0332">QuestionReady</text><text fill="#000000" font-family="sans-serif" font-size="14" lengthAdjust="spacing" textLength="145" x="1367.5" y="71.6426">available in Public Test</text></g><ellipse cx="16" cy="52" fill="#222222" rx="10" ry="10" style="stroke:none;stroke-width:1.0;"/><!--MD5=[a6fa33687c80a8abd0dd1416f664d2d0]
link *start to CategoryCreated--><g id="link_*start_CategoryCreated"><path d="M26.27,52 C55.16,52 139,52 200.3,52 " fill="none" id="*start-to-CategoryCreated" style="stroke:#181818;stroke-width:1.0;"/><polygon fill="#181818" points="205.41,52,196.41,48,200.41,52,196.41,56,205.41,52" style="stroke:#181818;stroke-width:1.0;"/><text fill="#000000" font-family="sans-serif" font-size="13" lengthAdjust="spacing" textLength="143" x="44.25" y="45.4951">Reviewer:createCategory</text></g><!--MD5=[f2412bebd06722cbb8f7064f097ecebe]
link CategoryCreated to ConceptCreated--><g id="link_CategoryCreated_ConceptCreated"><path d="M334.67,52 C380.21,52 441.06,52 487.27,52 " fill="none" id="CategoryCreated-to-ConceptCreated" style="stroke:#181818;stroke-width:1.0;"/><polygon fill="#181818" points="492.54,52,483.54,48,487.54,52,483.54,56,492.54,52" style="stroke:#181818;stroke-width:1.0;"/><text fill="#000000" font-family="sans-serif" font-size="13" lengthAdjust="spacing" textLength="122" x="352.75" y="45.4951">Editor:createConcept</text></g><!--MD5=[369d4325aba95345dc5cc73afd7333a2]
link ConceptCreated to QuestionCreated--><g id="link_ConceptCreated_QuestionCreated"><path d="M617.35,52 C663.62,52 726.72,52 774.59,52 " fill="none" id="ConceptCreated-to-QuestionCreated" style="stroke:#181818;stroke-width:1.0;"/><polygon fill="#181818" points="779.76,52,770.76,48,774.76,52,770.76,56,779.76,52" style="stroke:#181818;stroke-width:1.0;"/><text fill="#000000" font-family="sans-serif" font-size="13" lengthAdjust="spacing" textLength="126" x="635.5" y="45.4951">Editor:createQuestion</text></g><!--MD5=[245168a8a16b60d5b182f03bfe612054]
link QuestionCreated to QuestionInReview--><g id="link_QuestionCreated_QuestionInReview"><path d="M908.02,69.6 C914.97,70.99 921.98,72.17 928.75,73 C986.54,80.05 1001.93,79.86 1059.75,73 C1064.74,72.41 1069.86,71.63 1074.99,70.73 " fill="none" id="QuestionCreated-to-QuestionInReview" style="stroke:#181818;stroke-width:1.0;"/><polygon fill="#181818" points="1080.12,69.78,1070.5467,67.4667,1075.2018,70.6807,1071.9878,75.3359,1080.12,69.78" style="stroke:#181818;stroke-width:1.0;"/><text fill="#000000" font-family="sans-serif" font-size="13" lengthAdjust="spacing" textLength="129" x="929.75" y="69.4951">Editor: mark ToReview</text></g><!--MD5=[88ef26e8309524fa758a8aa13b391c12]
link QuestionInReview to QuestionCreated--><g id="link_QuestionInReview_QuestionCreated"><path d="M1080.48,52 C1030.96,52 963.55,52 913.37,52 " fill="none" id="QuestionInReview-to-QuestionCreated" style="stroke:#181818;stroke-width:1.0;"/><polygon fill="#181818" points="908.26,52,917.26,56,913.26,52,917.26,48,908.26,52" style="stroke:#181818;stroke-width:1.0;"/><text fill="#000000" font-family="sans-serif" font-size="13" lengthAdjust="spacing" textLength="136" x="926.25" y="45.4951">Reviewer: Not Approved</text></g><!--MD5=[e34ebcd2ee34c03a143c30354cad049f]
link QuestionInReview to QuestionReady--><g id="link_QuestionInReview_QuestionReady"><path d="M1213.51,52 C1255.87,52 1311.23,52 1357.19,52 " fill="none" id="QuestionInReview-to-QuestionReady" style="stroke:#181818;stroke-width:1.0;"/><polygon fill="#181818" points="1362.46,52,1353.46,48,1357.46,52,1353.46,56,1362.46,52" style="stroke:#181818;stroke-width:1.0;"/><text fill="#000000" font-family="sans-serif" font-size="13" lengthAdjust="spacing" textLength="112" x="1232" y="45.4951">Reviewer: Approved</text></g><!--MD5=[8d75ddf4be9b82b079e70eadbbd0dc63]
@startuml QuestionStates

state CategoryCreated
state ConceptCreated
state QuestionCreated
state QuestionInReview
state QuestionReady

CategoryCreated: Hierarchy
ConceptCreated : Category

QuestionCreated :  Category
QuestionCreated : Statement
QuestionCreated : 4Answer

QuestionInReview : Reviewed

QuestionReady : available in Public Test

[*] -> CategoryCreated : Reviewer:createCategory
CategoryCreated -> ConceptCreated : Editor:createConcept
ConceptCreated-> QuestionCreated : Editor:createQuestion
QuestionCreated -> QuestionInReview : Editor: mark ToReview
QuestionInReview -> QuestionCreated : Reviewer: Not Approved
QuestionInReview -> QuestionReady : Reviewer: Approved

@enduml

PlantUML version 1.2022.7(Mon Aug 22 18:01:30 WEST 2022)
(GPL source distribution)
Java Runtime: OpenJDK Runtime Environment
JVM: OpenJDK 64-Bit Server VM
Default Encoding: Cp1252
Language: es
Country: ES
--></g></svg>