<?xml version="1.0" encoding="UTF-8" standalone="no"?><svg xmlns="http://www.w3.org/2000/svg" xmlns:xlink="http://www.w3.org/1999/xlink" contentStyleType="text/css" height="103px" preserveAspectRatio="none" style="width:1615px;height:103px;background:#FFFFFF;" version="1.1" viewBox="0 0 1615 103" width="1615px" zoomAndPan="magnify"><defs/><g><g id="CategoryCreated"><rect fill="#F1F1F1" height="55.2188" rx="12.5" ry="12.5" style="stroke:#181818;stroke-width:0.5;" width="129" x="205.5" y="24.5"/><line style="stroke:#181818;stroke-width:0.5;" x1="205.5" x2="334.5" y1="52.1094" y2="52.1094"/><text fill="#000000" font-family="sans-serif" font-size="14" lengthAdjust="spacing" textLength="109" x="215.5" y="44.0332">CategoryCreated</text><text fill="#000000" font-family="sans-serif" font-size="14" lengthAdjust="spacing" textLength="60" x="210.5" y="71.6426">Hierarchy</text></g><g id="ConceptCreated"><rect fill="#F1F1F1" height="72.8281" rx="12.5" ry="12.5" style="stroke:#181818;stroke-width:0.5;" width="209" x="493.5" y="15.5"/><line style="stroke:#181818;stroke-width:0.5;" x1="493.5" x2="702.5" y1="43.1094" y2="43.1094"/><text fill="#000000" font-family="sans-serif" font-size="14" lengthAdjust="spacing" textLength="104" x="546" y="35.0332">ConceptCreated</text><text fill="#000000" font-family="sans-serif" font-size="14" lengthAdjust="spacing" textLength="58" x="498.5" y="62.6426">Category</text><ellipse cx="504" cy="75.8281" fill="#000000" rx="2.5" ry="2.5" style="stroke:#000000;stroke-width:0.0;"/><text fill="#000000" font-family="sans-serif" font-size="14" lengthAdjust="spacing" textLength="176" x="511.5" y="80.252">Correct/Incorrect Definitions</text></g><g id="QuestionCreated"><rect fill="#F1F1F1" height="90.4375" rx="12.5" ry="12.5" style="stroke:#181818;stroke-width:0.5;" width="128" x="861" y="7"/><line style="stroke:#181818;stroke-width:0.5;" x1="861" x2="989" y1="34.6094" y2="34.6094"/><text fill="#000000" font-family="sans-serif" font-size="14" lengthAdjust="spacing" textLength="108" x="871" y="26.5332">QuestionCreated</text><text fill="#000000" font-family="sans-serif" font-size="14" lengthAdjust="spacing" textLength="58" x="866" y="54.1426">Category</text><text fill="#000000" font-family="sans-serif" font-size="14" lengthAdjust="spacing" textLength="64" x="866" y="71.752">Statement</text><text fill="#000000" font-family="sans-serif" font-size="14" lengthAdjust="spacing" textLength="54" x="866" y="89.3613">4Answer</text></g><g id="QuestionInReview"><rect fill="#F1F1F1" height="55.2188" rx="12.5" ry="12.5" style="stroke:#181818;stroke-width:0.5;" width="133" x="1161.5" y="24.5"/><line style="stroke:#181818;stroke-width:0.5;" x1="1161.5" x2="1294.5" y1="52.1094" y2="52.1094"/><text fill="#000000" font-family="sans-serif" font-size="14" lengthAdjust="spacing" textLength="113" x="1171.5" y="44.0332">QuestionInReview</text><text fill="#000000" font-family="sans-serif" font-size="14" lengthAdjust="spacing" textLength="61" x="1166.5" y="71.6426">Reviewed</text></g><g id="QuestionReady"><rect fill="#F1F1F1" height="55.2188" rx="12.5" ry="12.5" style="stroke:#181818;stroke-width:0.5;" width="165" x="1443.5" y="24.5"/><line style="stroke:#181818;stroke-width:0.5;" x1="1443.5" x2="1608.5" y1="52.1094" y2="52.1094"/><text fill="#000000" font-family="sans-serif" font-size="14" lengthAdjust="spacing" textLength="98" x="1477" y="44.0332">QuestionReady</text><text fill="#000000" font-family="sans-serif" font-size="14" lengthAdjust="spacing" textLength="145" x="1448.5" y="71.6426">available in Public Test</text></g><ellipse cx="16" cy="52" fill="#222222" rx="10" ry="10" style="stroke:none;stroke-width:1.0;"/><!--MD5=[a6fa33687c80a8abd0dd1416f664d2d0]
link *start to CategoryCreated--><g id="link_*start_CategoryCreated"><path d="M26.27,52 C55.16,52 139,52 200.3,52 " fill="none" id="*start-to-CategoryCreated" style="stroke:#181818;stroke-width:1.0;"/><polygon fill="#181818" points="205.41,52,196.41,48,200.41,52,196.41,56,205.41,52" style="stroke:#181818;stroke-width:1.0;"/><text fill="#000000" font-family="sans-serif" font-size="13" lengthAdjust="spacing" textLength="143" x="44.25" y="45.4951">Reviewer:createCategory</text></g><!--MD5=[f2412bebd06722cbb8f7064f097ecebe]
link CategoryCreated to ConceptCreated--><g id="link_CategoryCreated_ConceptCreated"><path d="M334.8,52 C378.48,52 437.2,52 488.1,52 " fill="none" id="CategoryCreated-to-ConceptCreated" style="stroke:#181818;stroke-width:1.0;"/><polygon fill="#181818" points="493.31,52,484.31,48,488.31,52,484.31,56,493.31,52" style="stroke:#181818;stroke-width:1.0;"/><text fill="#000000" font-family="sans-serif" font-size="13" lengthAdjust="spacing" textLength="122" x="353" y="45.4951">Editor:createConcept</text></g><!--MD5=[369d4325aba95345dc5cc73afd7333a2]
link ConceptCreated to QuestionCreated--><g id="link_ConceptCreated_QuestionCreated"><path d="M702.81,52 C752.82,52 811.27,52 855.67,52 " fill="none" id="ConceptCreated-to-QuestionCreated" style="stroke:#181818;stroke-width:1.0;"/><polygon fill="#181818" points="860.74,52,851.74,48,855.74,52,851.74,56,860.74,52" style="stroke:#181818;stroke-width:1.0;"/><text fill="#000000" font-family="sans-serif" font-size="13" lengthAdjust="spacing" textLength="122" x="720.75" y="45.4951">Editor:selectStrategy</text></g><!--MD5=[245168a8a16b60d5b182f03bfe612054]
link QuestionCreated to QuestionInReview--><g id="link_QuestionCreated_QuestionInReview"><path d="M989.02,69.6 C995.97,70.99 1002.98,72.17 1009.75,73 C1067.54,80.05 1082.93,79.86 1140.75,73 C1145.74,72.41 1150.86,71.63 1155.99,70.73 " fill="none" id="QuestionCreated-to-QuestionInReview" style="stroke:#181818;stroke-width:1.0;"/><polygon fill="#181818" points="1161.12,69.78,1151.5467,67.4667,1156.2018,70.6807,1152.9878,75.3359,1161.12,69.78" style="stroke:#181818;stroke-width:1.0;"/><text fill="#000000" font-family="sans-serif" font-size="13" lengthAdjust="spacing" textLength="129" x="1010.75" y="69.4951">Editor: mark ToReview</text></g><!--MD5=[88ef26e8309524fa758a8aa13b391c12]
link QuestionInReview to QuestionCreated--><g id="link_QuestionInReview_QuestionCreated"><path d="M1161.48,52 C1111.96,52 1044.55,52 994.37,52 " fill="none" id="QuestionInReview-to-QuestionCreated" style="stroke:#181818;stroke-width:1.0;"/><polygon fill="#181818" points="989.26,52,998.26,56,994.26,52,998.26,48,989.26,52" style="stroke:#181818;stroke-width:1.0;"/><text fill="#000000" font-family="sans-serif" font-size="13" lengthAdjust="spacing" textLength="136" x="1007.25" y="45.4951">Reviewer: Not Approved</text></g><!--MD5=[e34ebcd2ee34c03a143c30354cad049f]
link QuestionInReview to QuestionReady--><g id="link_QuestionInReview_QuestionReady"><path d="M1294.51,52 C1336.87,52 1392.23,52 1438.19,52 " fill="none" id="QuestionInReview-to-QuestionReady" style="stroke:#181818;stroke-width:1.0;"/><polygon fill="#181818" points="1443.46,52,1434.46,48,1438.46,52,1434.46,56,1443.46,52" style="stroke:#181818;stroke-width:1.0;"/><text fill="#000000" font-family="sans-serif" font-size="13" lengthAdjust="spacing" textLength="112" x="1313" y="45.4951">Reviewer: Approved</text></g><!--MD5=[cb40967430d5bb3eedb90be520d5d0ff]
@startuml QuestionStates

state CategoryCreated
state ConceptCreated
state QuestionCreated
state QuestionInReview
state QuestionReady

CategoryCreated: Hierarchy
ConceptCreated : Category
ConceptCreated : *Correct/Incorrect Definitions

QuestionCreated :  Category
QuestionCreated : Statement
QuestionCreated : 4Answer

QuestionInReview : Reviewed

QuestionReady : available in Public Test

[*] -> CategoryCreated : Reviewer:createCategory
CategoryCreated -> ConceptCreated : Editor:createConcept
ConceptCreated-> QuestionCreated : Editor:selectStrategy
QuestionCreated -> QuestionInReview : Editor: mark ToReview
QuestionInReview -> QuestionCreated : Reviewer: Not Approved
QuestionInReview -> QuestionReady : Reviewer: Approved

@enduml

PlantUML version 1.2022.7(Mon Aug 22 18:01:30 WEST 2022)
(GPL source distribution)
Java Runtime: OpenJDK Runtime Environment
JVM: OpenJDK 64-Bit Server VM
Default Encoding: Cp1252
Language: es
Country: ES
--></g></svg>