<?xml version="1.0" encoding="UTF-8" standalone="no"?><svg xmlns="http://www.w3.org/2000/svg" xmlns:xlink="http://www.w3.org/1999/xlink" contentStyleType="text/css" height="103px" preserveAspectRatio="none" style="width:809px;height:103px;background:#FFFFFF;" version="1.1" viewBox="0 0 809 103" width="809px" zoomAndPan="magnify"><defs/><g><g id="Created"><rect fill="#F1F1F1" height="90.4375" rx="12.5" ry="12.5" style="stroke:#181818;stroke-width:0.5;" width="113" x="194.5" y="7"/><line style="stroke:#181818;stroke-width:0.5;" x1="194.5" x2="307.5" y1="34.6094" y2="34.6094"/><text fill="#000000" font-family="sans-serif" font-size="14" lengthAdjust="spacing" textLength="51" x="225.5" y="26.5332">Created</text><text fill="#000000" font-family="sans-serif" font-size="14" lengthAdjust="spacing" textLength="58" x="199.5" y="54.1426">Category</text><text fill="#000000" font-family="sans-serif" font-size="14" lengthAdjust="spacing" textLength="64" x="199.5" y="71.752">Statement</text><text fill="#000000" font-family="sans-serif" font-size="14" lengthAdjust="spacing" textLength="93" x="199.5" y="89.3613">CorrectAnswer</text></g><g id="InReview"><rect fill="#F1F1F1" height="55.2188" rx="12.5" ry="12.5" style="stroke:#181818;stroke-width:0.5;" width="81" x="450.5" y="24.5"/><line style="stroke:#181818;stroke-width:0.5;" x1="450.5" x2="531.5" y1="52.1094" y2="52.1094"/><text fill="#000000" font-family="sans-serif" font-size="14" lengthAdjust="spacing" textLength="56" x="463" y="44.0332">InReview</text><text fill="#000000" font-family="sans-serif" font-size="14" lengthAdjust="spacing" textLength="61" x="455.5" y="71.6426">Reviewed</text></g><g id="Ready"><rect fill="#F1F1F1" height="55.2188" rx="12.5" ry="12.5" style="stroke:#181818;stroke-width:0.5;" width="181" x="621.5" y="24.5"/><line style="stroke:#181818;stroke-width:0.5;" x1="621.5" x2="802.5" y1="52.1094" y2="52.1094"/><text fill="#000000" font-family="sans-serif" font-size="14" lengthAdjust="spacing" textLength="41" x="691.5" y="44.0332">Ready</text><text fill="#000000" font-family="sans-serif" font-size="14" lengthAdjust="spacing" textLength="161" x="626.5" y="71.6426">Available to add to a Test</text></g><ellipse cx="16" cy="52" fill="#222222" rx="10" ry="10" style="stroke:none;stroke-width:1.0;"/><!--MD5=[fce0a99ff020773a13d941767c2fc94a]
link *start to Created--><g id="link_*start_Created"><path d="M26.1,52 C53.81,52 132.76,52 189.28,52 " fill="none" id="*start-to-Created" style="stroke:#181818;stroke-width:1.0;"/><polygon fill="#181818" points="194.34,52,185.34,48,189.34,52,185.34,56,194.34,52" style="stroke:#181818;stroke-width:1.0;"/><text fill="#000000" font-family="sans-serif" font-size="13" lengthAdjust="spacing" textLength="132" x="44.25" y="45.4951">Editor: CreateQuestion</text></g><!--MD5=[c28ca43f4d95ecb0ef513671f8ae00f8]
link Created to InReview--><g id="link_Created_InReview"><path d="M307.57,52 C349.48,52 405.88,52 445.03,52 " fill="none" id="Created-to-InReview" style="stroke:#181818;stroke-width:1.0;"/><polygon fill="#181818" points="450.19,52,441.19,48,445.19,52,441.19,56,450.19,52" style="stroke:#181818;stroke-width:1.0;"/><text fill="#000000" font-family="sans-serif" font-size="13" lengthAdjust="spacing" textLength="106" x="326" y="45.4951">4answer ToReview</text></g><!--MD5=[98ca4b4e329fe10c204468bae06a810f]
link InReview to Created--><g id="link_InReview_Created"><path d="M450.41,65.93 C440.13,68.86 429.01,71.51 418.5,73 C383.74,77.93 374.37,77.08 339.5,73 C330.77,71.98 321.64,70.41 312.72,68.57 " fill="none" id="InReview-to-Created" style="stroke:#181818;stroke-width:1.0;"/><polygon fill="#181818" points="307.78,67.53,315.7663,73.2936,312.6734,68.5572,317.4098,65.4642,307.78,67.53" style="stroke:#181818;stroke-width:1.0;"/><text fill="#000000" font-family="sans-serif" font-size="13" lengthAdjust="spacing" textLength="77" x="340.5" y="69.4951">Not Approved</text></g><!--MD5=[e012b007ff30cff8ab930288c54867f6]
link InReview to Ready--><g id="link_InReview_Ready"><path d="M531.53,52 C555.33,52 586.48,52 616.18,52 " fill="none" id="InReview-to-Ready" style="stroke:#181818;stroke-width:1.0;"/><polygon fill="#181818" points="621.32,52,612.32,48,616.32,52,612.32,56,621.32,52" style="stroke:#181818;stroke-width:1.0;"/><text fill="#000000" font-family="sans-serif" font-size="13" lengthAdjust="spacing" textLength="53" x="550" y="45.4951">Approved</text></g><!--MD5=[bf7638be754a741079dfa4b7683ef316]
@startuml QuestionStates

state Created
state InReview
state Ready

Created :  Category
Created : Statement
Created : CorrectAnswer

InReview : Reviewed

Ready : Available to add to a Test

[*] -> Created : Editor: CreateQuestion
Created -> InReview : 4answer ToReview
InReview -> Created : Not Approved
InReview -> Ready : Approved


@enduml

PlantUML version 1.2022.7(Mon Aug 22 18:01:30 WEST 2022)
(GPL source distribution)
Java Runtime: OpenJDK Runtime Environment
JVM: OpenJDK 64-Bit Server VM
Default Encoding: Cp1252
Language: es
Country: ES
--></g></svg>